version 1
nodes
0 "blender_implicit" -1
1 "root" -1
2 "remote" 1
3 "back_l" 1
4 "back_r" 1
5 "frontrot_l" 1
6 "front_l" 5
7 "frontrot_r" 1
8 "front_r" 7
end
skeleton
time 0
0  0.000000 0.000000 0.000000  0.000000 -0.000000 0.000000
1  0.000000 0.000000 0.000000  1.570796 -0.000000 0.000000
2  0.000000 0.000000 0.000000  0.000000 -0.000000 0.000000
3  0.000000 0.000000 0.000000  -2.094395 -0.000000 0.000000
4  0.000000 0.000000 0.000000  0.000000 -0.000000 0.000000
5  0.000000 0.000000 0.000000  0.000000 -0.000000 0.000000
6  0.000000 0.000000 0.000000  0.000000 -0.000000 0.000000
7  0.000000 0.000000 0.000000  0.000000 -0.000000 0.000000
8  0.000000 0.000000 0.000000  0.000000 -0.000000 0.000000
end
