version 1
nodes
0 "root" -1
1 "remote" 0
2 "back_l" 0
3 "back_r" 0
4 "frontrot_l" 0
5 "front_l" 4
6 "frontrot_r" 0
7 "front_r" 6
end
skeleton
time 0
0  0.000000 0.000000 0.000000  1.570796 -0.000000 0.000000
1  0.000000 0.000000 0.000000  -0.000000 0.000000 -0.261799
2  0.000000 0.000000 0.000000  0.000000 -0.000000 0.000000
3  0.000000 0.000000 0.000000  0.000000 -0.000000 0.000000
4  0.000000 0.000000 0.000000  0.000000 0.523599 0.000000
5  0.000000 0.000000 0.000000  0.000000 -0.000000 0.000000
6  0.000000 0.000000 0.000000  0.000000 0.523599 0.000000
7  0.000000 0.000000 0.000000  0.000000 -0.000000 0.000000
end
