// Created by Crowbar 0.74
version 1
nodes
  0 "static_prop" -1
end
skeleton
  time 0
    0 0.000000 0.000000 0.000000 0.000000 0.000000 0.000000
end
triangles
hotel_window
  0 11.080973 25.673567 75.212601 0.000000 0.000000 -1.000000 0.906157 0.675100 1 0 1.000000
  0 14.683766 65.105881 75.212601 0.000000 0.000000 -1.000000 0.948380 0.282337 1 0 1.000000
  0 14.683768 25.673567 75.212601 0.000000 0.000000 -1.000000 0.948380 0.675100 1 0 1.000000
hotel_window
  0 11.080971 65.105881 75.212601 0.000000 0.000000 -1.000000 0.906157 0.282337 1 0 1.000000
  0 14.683766 65.105881 75.212601 0.000000 0.000000 -1.000000 0.948380 0.282337 1 0 1.000000
  0 11.080973 25.673567 75.212601 0.000000 0.000000 -1.000000 0.906157 0.675100 1 0 1.000000
hotel_window
  0 11.080973 25.673565 77.912956 0.000000 0.000000 1.000000 0.905324 0.675312 1 0 1.000000
  0 14.683768 25.673567 77.912956 0.000000 0.000000 1.000000 0.949446 0.675313 1 0 1.000000
  0 11.080971 65.105881 77.912956 0.000000 0.000000 1.000000 0.905324 0.282549 1 0 1.000000
hotel_window
  0 11.080971 65.105881 77.912956 0.000000 0.000000 1.000000 0.905324 0.282549 1 0 1.000000
  0 14.683768 25.673567 77.912956 0.000000 0.000000 1.000000 0.949446 0.675313 1 0 1.000000
  0 14.683766 65.105881 77.912956 0.000000 0.000000 1.000000 0.949446 0.282549 1 0 1.000000
hotel_window
  0 15.212157 25.875027 96.939285 0.000000 1.000000 0.000000 0.949192 0.942649 1 0 1.000000
  0 15.212157 25.875031 6.606683 0.000000 1.000000 0.000000 0.949192 0.054931 1 0 1.000000
  0 10.716332 25.875027 96.939285 0.000000 1.000000 0.000000 0.905226 0.942649 1 0 1.000000
hotel_window
  0 10.716332 25.875027 96.939285 0.000000 1.000000 0.000000 0.905226 0.942649 1 0 1.000000
  0 15.212157 25.875031 6.606683 0.000000 1.000000 0.000000 0.949192 0.054931 1 0 1.000000
  0 10.716332 25.875031 6.606683 0.000000 1.000000 0.000000 0.905226 0.054931 1 0 1.000000
hotel_window
  0 15.212155 64.973495 96.939285 0.000000 0.000000 -1.000000 0.949856 0.323675 1 0 1.000000
  0 15.212157 25.875027 96.939285 0.000000 0.000000 -1.000000 0.949856 0.713159 1 0 1.000000
  0 10.716331 64.973495 96.939285 0.000000 0.000000 -1.000000 0.905675 0.323675 1 0 1.000000
hotel_window
  0 10.716331 64.973495 96.939285 0.000000 0.000000 -1.000000 0.905675 0.323675 1 0 1.000000
  0 15.212157 25.875027 96.939285 0.000000 0.000000 -1.000000 0.949856 0.713159 1 0 1.000000
  0 10.716332 25.875027 96.939285 0.000000 0.000000 -1.000000 0.905675 0.713159 1 0 1.000000
hotel_window
  0 15.212155 64.973495 6.606685 0.000000 -1.000000 0.000000 0.948564 0.055389 1 0 1.000000
  0 15.212155 64.973495 96.939285 0.000000 -1.000000 0.000000 0.948564 0.943107 1 0 1.000000
  0 10.716331 64.973495 6.606685 0.000000 -1.000000 0.000000 0.905539 0.055389 1 0 1.000000
hotel_window
  0 10.716331 64.973495 6.606685 0.000000 -1.000000 0.000000 0.905539 0.055389 1 0 1.000000
  0 15.212155 64.973495 96.939285 0.000000 -1.000000 0.000000 0.948564 0.943107 1 0 1.000000
  0 10.716331 64.973495 96.939285 0.000000 -1.000000 0.000000 0.905539 0.943107 1 0 1.000000
hotel_window
  0 15.212157 25.875031 6.606683 0.000000 0.000000 1.000000 0.949139 0.055922 1 0 1.000000
  0 15.212155 64.973495 6.606685 0.000000 0.000000 1.000000 0.949140 0.445404 1 0 1.000000
  0 10.716332 25.875031 6.606683 0.000000 0.000000 1.000000 0.905808 0.055922 1 0 1.000000
hotel_window
  0 10.716332 25.875031 6.606683 0.000000 0.000000 1.000000 0.905808 0.055922 1 0 1.000000
  0 15.212155 64.973495 6.606685 0.000000 0.000000 1.000000 0.949140 0.445404 1 0 1.000000
  0 10.716331 64.973495 6.606685 0.000000 0.000000 1.000000 0.905808 0.445404 1 0 1.000000
hotel_window
  0 10.771958 67.074699 98.941803 -0.999650 0.026465 0.000000 0.969231 0.962786 1 0 1.000000
  0 10.771958 67.074707 4.604175 -0.999650 0.026465 0.000000 0.969231 0.035710 1 0 1.000000
  0 10.716331 64.973495 96.939285 -0.999650 0.026465 0.000000 0.948583 0.943107 1 0 1.000000
hotel_window
  0 10.716331 64.973495 96.939285 -0.999650 0.026465 0.000000 0.948583 0.943107 1 0 1.000000
  0 10.771958 67.074707 4.604175 -0.999650 0.026465 0.000000 0.969231 0.035710 1 0 1.000000
  0 10.716331 64.973495 6.606685 -0.999650 0.026465 0.000000 0.948583 0.055389 1 0 1.000000
hotel_window
  0 10.771960 23.773785 98.941803 -0.999614 0.000000 0.027768 0.968909 0.733809 1 0 1.000000
  0 10.771958 67.074699 98.941803 -0.999614 0.000000 0.027768 0.968909 0.303026 1 0 1.000000
  0 10.716332 25.875027 96.939285 -0.999614 0.000000 0.027768 0.949229 0.713159 1 0 1.000000
hotel_window
  0 10.716332 25.875027 96.939285 -0.999614 0.000000 0.027768 0.949229 0.713159 1 0 1.000000
  0 10.771958 67.074699 98.941803 -0.999614 0.000000 0.027768 0.968909 0.303026 1 0 1.000000
  0 10.716331 64.973495 96.939285 -0.999614 0.000000 0.027768 0.949229 0.323675 1 0 1.000000
hotel_window
  0 10.771960 23.773788 4.604173 -0.999650 -0.026464 0.000000 0.968680 0.035252 1 0 1.000000
  0 10.771960 23.773785 98.941803 -0.999650 -0.026464 0.000000 0.968680 0.962328 1 0 1.000000
  0 10.716332 25.875031 6.606683 -0.999650 -0.026464 0.000000 0.949192 0.054931 1 0 1.000000
hotel_window
  0 10.716332 25.875031 6.606683 -0.999650 -0.026464 0.000000 0.949192 0.054931 1 0 1.000000
  0 10.771960 23.773785 98.941803 -0.999650 -0.026464 0.000000 0.968680 0.962328 1 0 1.000000
  0 10.716332 25.875027 96.939285 -0.999650 -0.026464 0.000000 0.949192 0.942649 1 0 1.000000
hotel_window
  0 10.771958 67.074707 4.604175 -0.999614 0.000000 -0.027768 0.968848 0.466053 1 0 1.000000
  0 10.771960 23.773788 4.604173 -0.999614 0.000000 -0.027768 0.968849 0.035272 1 0 1.000000
  0 10.716331 64.973495 6.606685 -0.999614 0.000000 -0.027768 0.949169 0.445404 1 0 1.000000
hotel_window
  0 10.716331 64.973495 6.606685 -0.999614 0.000000 -0.027768 0.949169 0.445404 1 0 1.000000
  0 10.771960 23.773788 4.604173 -0.999614 0.000000 -0.027768 0.968849 0.035272 1 0 1.000000
  0 10.716332 25.875031 6.606683 -0.999614 0.000000 -0.027768 0.949170 0.055922 1 0 1.000000
hotel_window
  0 15.212157 23.773788 4.237382 1.000000 0.000000 0.000000 0.969430 0.031647 1 0 1.000000
  0 15.212157 25.875031 6.606683 1.000000 0.000000 0.000000 0.949473 0.054931 1 0 1.000000
  0 15.212157 23.773785 98.941803 1.000000 0.000000 0.000000 0.969430 0.962329 1 0 1.000000
hotel_window
  0 15.212157 23.773785 98.941803 1.000000 0.000000 0.000000 0.969430 0.962329 1 0 1.000000
  0 15.212157 25.875031 6.606683 1.000000 0.000000 0.000000 0.949473 0.054931 1 0 1.000000
  0 15.212157 25.875027 96.939285 1.000000 0.000000 0.000000 0.949473 0.942649 1 0 1.000000
hotel_window
  0 15.212155 67.074707 98.941803 1.000000 0.000000 0.000000 0.969456 0.303026 1 0 1.000000
  0 15.212157 23.773785 98.941803 1.000000 0.000000 0.000000 0.969456 0.733808 1 0 1.000000
  0 15.212155 64.973495 96.939285 1.000000 0.000000 0.000000 0.949856 0.323675 1 0 1.000000
hotel_window
  0 15.212155 64.973495 96.939285 1.000000 0.000000 0.000000 0.949856 0.323675 1 0 1.000000
  0 15.212157 23.773785 98.941803 1.000000 0.000000 0.000000 0.969456 0.733808 1 0 1.000000
  0 15.212157 25.875027 96.939285 1.000000 0.000000 0.000000 0.949856 0.713159 1 0 1.000000
hotel_window
  0 15.212155 67.074707 4.237384 1.000000 0.000000 0.000000 0.969213 0.032106 1 0 1.000000
  0 15.212155 67.074707 98.941803 1.000000 0.000000 0.000000 0.969213 0.962786 1 0 1.000000
  0 15.212155 64.973495 6.606685 1.000000 0.000000 0.000000 0.948564 0.055389 1 0 1.000000
hotel_window
  0 15.212155 64.973495 6.606685 1.000000 0.000000 0.000000 0.948564 0.055389 1 0 1.000000
  0 15.212155 67.074707 98.941803 1.000000 0.000000 0.000000 0.969213 0.962786 1 0 1.000000
  0 15.212155 64.973495 96.939285 1.000000 0.000000 0.000000 0.948564 0.943107 1 0 1.000000
hotel_window
  0 15.212157 23.773788 4.237382 1.000000 0.000000 0.000000 0.969373 0.035273 1 0 1.000000
  0 15.212155 67.074707 4.237384 1.000000 0.000000 0.000000 0.969374 0.466053 1 0 1.000000
  0 15.212157 25.875031 6.606683 1.000000 0.000000 0.000000 0.949139 0.055922 1 0 1.000000
hotel_window
  0 15.212157 25.875031 6.606683 1.000000 0.000000 0.000000 0.949139 0.055922 1 0 1.000000
  0 15.212155 67.074707 4.237384 1.000000 0.000000 0.000000 0.969374 0.466053 1 0 1.000000
  0 15.212155 64.973495 6.606685 1.000000 0.000000 0.000000 0.949140 0.445404 1 0 1.000000
hotel_window
  0 20.292057 23.845978 2.006768 0.000000 1.000000 0.000000 0.059820 0.006184 1 0 1.000000
  0 -1.247762 23.845963 4.342538 0.000000 1.000000 0.000000 0.271496 0.029139 1 0 1.000000
  0 20.292057 23.845974 98.834366 0.000000 1.000000 0.000000 0.059820 0.957732 1 0 1.000000
hotel_window
  0 20.292057 23.845974 98.834366 0.000000 1.000000 0.000000 0.059820 0.957732 1 0 1.000000
  0 -1.247762 23.845963 4.342538 0.000000 1.000000 0.000000 0.271496 0.029139 1 0 1.000000
  0 -1.247762 23.845989 98.834366 0.000000 1.000000 0.000000 0.271496 0.957731 1 0 1.000000
hotel_window
  0 20.292055 66.953491 98.834366 0.000000 0.000000 -1.000000 0.059642 0.520377 1 0 1.000000
  0 20.292057 23.845974 98.834366 0.000000 0.000000 -1.000000 0.059642 0.953170 1 0 1.000000
  0 -1.247764 66.953499 98.834366 0.000000 0.000000 -1.000000 0.271320 0.520377 1 0 1.000000
hotel_window
  0 -1.247764 66.953499 98.834366 0.000000 0.000000 -1.000000 0.271320 0.520377 1 0 1.000000
  0 20.292057 23.845974 98.834366 0.000000 0.000000 -1.000000 0.059642 0.953170 1 0 1.000000
  0 -1.247762 23.845989 98.834366 0.000000 0.000000 -1.000000 0.271320 0.953170 1 0 1.000000
hotel_window
  0 20.292055 66.953491 2.006770 0.000000 -1.000000 0.000000 0.059653 0.006060 1 0 1.000000
  0 20.292055 66.953491 98.834366 0.000000 -1.000000 0.000000 0.059653 0.957607 1 0 1.000000
  0 -1.247764 66.953476 4.342540 0.000000 -1.000000 0.000000 0.271330 0.029015 1 0 1.000000
hotel_window
  0 -1.247764 66.953476 4.342540 0.000000 -1.000000 0.000000 0.271330 0.029015 1 0 1.000000
  0 20.292055 66.953491 98.834366 0.000000 -1.000000 0.000000 0.059653 0.957607 1 0 1.000000
  0 -1.247764 66.953499 98.834366 0.000000 -1.000000 0.000000 0.271330 0.957608 1 0 1.000000
hotel_window
  0 -1.269860 72.031883 102.942764 -0.999994 -0.002176 -0.002689 0.314552 0.997981 1 0 1.000000
  0 -1.269860 72.031891 4.373073 -0.999990 -0.004351 0.000000 0.314552 0.029315 1 0 1.000000
  0 -1.247764 66.953499 98.834366 -0.999994 -0.002176 -0.002689 0.271330 0.957608 1 0 1.000000
hotel_window
  0 -1.247764 66.953499 98.834366 -0.999994 -0.002176 -0.002689 0.271330 0.957608 1 0 1.000000
  0 -1.269860 72.031891 4.373073 -0.999990 -0.004351 0.000000 0.314552 0.029315 1 0 1.000000
  0 -1.247764 66.953476 4.342540 -0.999990 -0.004351 0.000000 0.271330 0.029015 1 0 1.000000
hotel_window
  0 -1.269860 72.031883 102.942764 -0.999994 -0.002176 -0.002689 0.314622 0.477179 1 0 1.000000
  0 -1.247764 66.953499 98.834366 -0.999994 -0.002176 -0.002689 0.271320 0.520377 1 0 1.000000
  0 -1.269858 18.973217 102.942764 -0.999994 0.002267 -0.002689 0.314622 0.992456 1 0 1.000000
hotel_window
  0 -1.269858 18.973217 102.942764 -0.999994 0.002267 -0.002689 0.314622 0.992456 1 0 1.000000
  0 -1.247764 66.953499 98.834366 -0.999994 -0.002176 -0.002689 0.271320 0.520377 1 0 1.000000
  0 -1.247762 23.845989 98.834366 -0.999994 0.002267 -0.002689 0.271320 0.953170 1 0 1.000000
hotel_window
  0 -1.269858 18.973217 102.942764 -0.999994 0.002267 -0.002689 0.314695 0.998105 1 0 1.000000
  0 -1.247762 23.845989 98.834366 -0.999994 0.002267 -0.002689 0.271496 0.957731 1 0 1.000000
  0 -1.269858 18.973221 4.373071 -0.999990 0.004535 0.000000 0.314694 0.029439 1 0 1.000000
hotel_window
  0 -1.269858 18.973221 4.373071 -0.999990 0.004535 0.000000 0.314694 0.029439 1 0 1.000000
  0 -1.247762 23.845989 98.834366 -0.999994 0.002267 -0.002689 0.271496 0.957731 1 0 1.000000
  0 -1.247762 23.845963 4.342538 -0.999990 0.004535 0.000000 0.271496 0.029139 1 0 1.000000
hotel_window
  0 20.292059 18.973217 102.942764 1.000000 0.000000 0.000000 0.017462 0.998105 1 0 1.000000
  0 20.292059 18.973221 2.037301 1.000000 0.000000 0.000000 0.017462 0.006484 1 0 1.000000
  0 20.292057 23.845974 98.834366 1.000000 0.000000 0.000000 0.059820 0.957732 1 0 1.000000
hotel_window
  0 20.292057 23.845974 98.834366 1.000000 0.000000 0.000000 0.059820 0.957732 1 0 1.000000
  0 20.292059 18.973221 2.037301 1.000000 0.000000 0.000000 0.017462 0.006484 1 0 1.000000
  0 20.292057 23.845978 2.006768 1.000000 0.000000 0.000000 0.059820 0.006184 1 0 1.000000
hotel_window
  0 20.292055 72.031891 102.942764 1.000000 0.000000 0.000000 0.017316 0.477179 1 0 1.000000
  0 20.292059 18.973217 102.942764 1.000000 0.000000 0.000000 0.017316 0.992455 1 0 1.000000
  0 20.292055 66.953491 98.834366 1.000000 0.000000 0.000000 0.059642 0.520377 1 0 1.000000
hotel_window
  0 20.292055 66.953491 98.834366 1.000000 0.000000 0.000000 0.059642 0.520377 1 0 1.000000
  0 20.292059 18.973217 102.942764 1.000000 0.000000 0.000000 0.017316 0.992455 1 0 1.000000
  0 20.292057 23.845974 98.834366 1.000000 0.000000 0.000000 0.059642 0.953170 1 0 1.000000
hotel_window
  0 20.292055 72.031891 102.942764 1.000000 0.000000 0.000000 0.017296 0.997981 1 0 1.000000
  0 20.292055 66.953491 98.834366 1.000000 0.000000 0.000000 0.059653 0.957607 1 0 1.000000
  0 20.292055 72.031891 2.037303 1.000000 0.000000 0.000000 0.017296 0.006361 1 0 1.000000
hotel_window
  0 20.292055 72.031891 2.037303 1.000000 0.000000 0.000000 0.017296 0.006361 1 0 1.000000
  0 20.292055 66.953491 98.834366 1.000000 0.000000 0.000000 0.059653 0.957607 1 0 1.000000
  0 20.292055 66.953491 2.006770 1.000000 0.000000 0.000000 0.059653 0.006060 1 0 1.000000
hotel_window
  0 -1.269860 72.031883 102.942764 0.000000 1.000000 0.000000 0.271476 0.951629 1 0 1.000000
  0 20.292055 72.031891 102.942764 0.000000 1.000000 0.000000 0.059622 0.951782 1 0 1.000000
  0 -1.269860 72.031891 4.373073 0.000000 1.000000 0.000000 0.271476 0.043222 1 0 1.000000
hotel_window
  0 -1.269860 72.031891 4.373073 0.000000 1.000000 0.000000 0.271476 0.043222 1 0 1.000000
  0 20.292055 72.031891 102.942764 0.000000 1.000000 0.000000 0.059622 0.951782 1 0 1.000000
  0 20.292055 72.031891 2.037303 0.000000 1.000000 0.000000 0.059622 0.042298 1 0 1.000000
hotel_window
  0 -1.269858 18.973217 102.942764 0.000000 0.000000 1.000000 0.271257 0.951678 1 0 1.000000
  0 20.292059 18.973217 102.942764 0.000000 0.000000 1.000000 0.059631 0.951678 1 0 1.000000
  0 -1.269860 72.031883 102.942764 0.000000 0.000000 1.000000 0.271257 0.481925 1 0 1.000000
hotel_window
  0 -1.269860 72.031883 102.942764 0.000000 0.000000 1.000000 0.271257 0.481925 1 0 1.000000
  0 20.292059 18.973217 102.942764 0.000000 0.000000 1.000000 0.059631 0.951678 1 0 1.000000
  0 20.292055 72.031891 102.942764 0.000000 0.000000 1.000000 0.059631 0.481925 1 0 1.000000
hotel_window
  0 20.292059 18.973221 2.037301 0.000000 -1.000000 0.000000 0.059698 0.042303 1 0 1.000000
  0 20.292059 18.973217 102.942764 0.000000 -1.000000 0.000000 0.059698 0.951784 1 0 1.000000
  0 -1.269858 18.973221 4.373071 0.000000 -1.000000 0.000000 0.271265 0.043227 1 0 1.000000
hotel_window
  0 -1.269858 18.973221 4.373071 0.000000 -1.000000 0.000000 0.271265 0.043227 1 0 1.000000
  0 20.292059 18.973217 102.942764 0.000000 -1.000000 0.000000 0.059698 0.951784 1 0 1.000000
  0 -1.269858 18.973217 102.942764 0.000000 -1.000000 0.000000 0.271265 0.951632 1 0 1.000000
hotel_window
  0 -7.742321 12.961227 1.444047 -0.053505 0.000000 -0.998567 0.617007 0.615656 1 0 1.000000
  0 -7.742324 78.326828 1.444049 -0.053505 0.000000 -0.998567 0.617007 0.412545 1 0 1.000000
  0 25.166132 12.961228 -0.319243 -0.053505 0.000000 -0.998567 0.719263 0.615656 1 0 1.000000
hotel_window
  0 25.166132 12.961228 -0.319243 -0.053505 0.000000 -0.998567 0.719263 0.615656 1 0 1.000000
  0 -7.742324 78.326828 1.444049 -0.053505 0.000000 -0.998567 0.617007 0.412545 1 0 1.000000
  0 25.166128 78.326828 -0.319241 -0.053505 0.000000 -0.998567 0.719263 0.412545 1 0 1.000000
hotel_window
  0 25.166132 12.961228 1.261224 1.000000 0.000000 0.000000 0.838049 0.987359 1 0 1.000000
  0 25.166132 12.961228 -0.319243 1.000000 0.000000 0.000000 0.863013 0.987613 1 0 1.000000
  0 25.166128 78.326828 1.261226 1.000000 0.000000 0.000000 0.838136 0.056905 1 0 1.000000
hotel_window
  0 25.166128 78.326828 1.261226 1.000000 0.000000 0.000000 0.838136 0.056905 1 0 1.000000
  0 25.166132 12.961228 -0.319243 1.000000 0.000000 0.000000 0.863013 0.987613 1 0 1.000000
  0 25.166128 78.326828 -0.319241 1.000000 0.000000 0.000000 0.863013 0.056619 1 0 1.000000
hotel_window
  0 11.080971 65.105881 75.212601 -1.000000 0.000000 0.000000 0.968983 0.282337 1 0 1.000000
  0 11.080973 25.673567 75.212601 -1.000000 0.000000 0.000000 0.968983 0.675100 1 0 1.000000
  0 11.080971 65.105881 77.912956 -1.000000 0.000000 0.000000 0.948470 0.282337 1 0 1.000000
hotel_window
  0 11.080971 65.105881 77.912956 -1.000000 0.000000 0.000000 0.948470 0.282337 1 0 1.000000
  0 11.080973 25.673567 75.212601 -1.000000 0.000000 0.000000 0.968983 0.675100 1 0 1.000000
  0 11.080973 25.673565 77.912956 -1.000000 0.000000 0.000000 0.948470 0.675100 1 0 1.000000
hotel_window
  0 14.683768 25.673567 75.212601 1.000000 0.000000 0.000000 0.968924 0.675312 1 0 1.000000
  0 14.683766 65.105881 75.212601 1.000000 0.000000 0.000000 0.968924 0.282549 1 0 1.000000
  0 14.683768 25.673567 77.912956 1.000000 0.000000 0.000000 0.949446 0.675313 1 0 1.000000
hotel_window
  0 14.683768 25.673567 77.912956 1.000000 0.000000 0.000000 0.949446 0.675313 1 0 1.000000
  0 14.683766 65.105881 75.212601 1.000000 0.000000 0.000000 0.968924 0.282549 1 0 1.000000
  0 14.683766 65.105881 77.912956 1.000000 0.000000 0.000000 0.949446 0.282549 1 0 1.000000
hotel_window
  0 25.166128 78.326828 -0.319241 0.000000 1.000000 0.000000 0.834750 0.012180 1 0 1.000000
  0 -7.742324 78.326828 1.444049 0.000000 1.000000 0.000000 0.389474 0.033710 1 0 1.000000
  0 25.166128 78.326828 1.261226 0.000000 1.000000 0.000000 0.838136 0.056905 1 0 1.000000
hotel_window
  0 25.166128 78.326828 1.261226 0.000000 1.000000 0.000000 0.838136 0.056905 1 0 1.000000
  0 -7.742324 78.326828 1.444049 0.000000 1.000000 0.000000 0.389474 0.033710 1 0 1.000000
  0 14.464329 78.326828 4.796962 0.000000 1.000000 0.000000 0.689480 0.080631 1 0 1.000000
hotel_window
  0 -7.742324 78.326828 1.444049 0.000000 1.000000 0.000000 0.389474 0.033710 1 0 1.000000
  0 -7.742324 78.326828 3.504214 0.000000 1.000000 0.000000 0.386503 0.070434 1 0 1.000000
  0 14.464329 78.326828 4.796962 0.000000 1.000000 0.000000 0.689480 0.080631 1 0 1.000000
hotel_window
  0 -7.742324 78.326828 3.504214 0.000000 1.000000 0.000000 0.386503 0.070434 1 0 1.000000
  0 -6.177494 78.326828 4.796962 0.000000 1.000000 0.000000 0.410552 0.079176 1 0 1.000000
  0 14.464329 78.326828 4.796962 0.000000 1.000000 0.000000 0.689480 0.080631 1 0 1.000000
hotel_window
  0 25.166128 78.326828 1.261226 0.313709 0.000000 0.949519 0.838136 0.056905 1 0 1.000000
  0 14.464332 12.961227 4.796959 0.158872 0.000000 0.987299 0.689442 0.963446 1 0 1.000000
  0 25.166132 12.961228 1.261224 0.313709 0.000000 0.949519 0.838049 0.987359 1 0 1.000000
hotel_window
  0 14.464329 78.326828 4.796962 0.158872 0.000000 0.987299 0.689480 0.080631 1 0 1.000000
  0 14.464332 12.961227 4.796959 0.158872 0.000000 0.987299 0.689442 0.963446 1 0 1.000000
  0 25.166128 78.326828 1.261226 0.313709 0.000000 0.949519 0.838136 0.056905 1 0 1.000000
hotel_window
  0 14.464329 78.326828 4.796962 0.158872 0.000000 0.987299 0.689480 0.080631 1 0 1.000000
  0 -6.177491 12.961226 4.796959 -0.338418 0.000000 0.940996 0.410380 0.964480 1 0 1.000000
  0 14.464332 12.961227 4.796959 0.158872 0.000000 0.987299 0.689442 0.963446 1 0 1.000000
hotel_window
  0 -6.177494 78.326828 4.796962 -0.338418 0.000000 0.940996 0.410552 0.079176 1 0 1.000000
  0 -6.177491 12.961226 4.796959 -0.338418 0.000000 0.940996 0.410380 0.964480 1 0 1.000000
  0 14.464329 78.326828 4.796962 0.158872 0.000000 0.987299 0.689480 0.080631 1 0 1.000000
hotel_window
  0 -7.742324 78.326828 3.504214 -0.904682 0.000000 0.426087 0.386503 0.070434 1 0 1.000000
  0 -6.177491 12.961226 4.796959 -0.338418 0.000000 0.940996 0.410380 0.964480 1 0 1.000000
  0 -6.177494 78.326828 4.796962 -0.338418 0.000000 0.940996 0.410552 0.079176 1 0 1.000000
hotel_window
  0 -7.742321 12.961226 3.504211 -0.904682 0.000000 0.426087 0.386133 0.972595 1 0 1.000000
  0 -6.177491 12.961226 4.796959 -0.338418 0.000000 0.940996 0.410380 0.964480 1 0 1.000000
  0 -7.742324 78.326828 3.504214 -0.904682 0.000000 0.426087 0.386503 0.070434 1 0 1.000000
hotel_window
  0 -7.742324 78.326828 3.504214 -0.904682 0.000000 0.426087 0.386503 0.070434 1 0 1.000000
  0 -7.742321 12.961227 1.444047 -1.000000 0.000000 0.000000 0.355200 0.971517 1 0 1.000000
  0 -7.742321 12.961226 3.504211 -0.904682 0.000000 0.426087 0.386133 0.972595 1 0 1.000000
hotel_window
  0 -7.742324 78.326828 1.444049 -1.000000 0.000000 0.000000 0.355809 0.070879 1 0 1.000000
  0 -7.742321 12.961227 1.444047 -1.000000 0.000000 0.000000 0.355200 0.971517 1 0 1.000000
  0 -7.742324 78.326828 3.504214 -0.904682 0.000000 0.426087 0.386503 0.070434 1 0 1.000000
hotel_window
  0 25.166132 12.961228 -0.319243 0.000000 -1.000000 0.000000 0.834850 0.011867 1 0 1.000000
  0 25.166132 12.961228 1.261224 0.000000 -1.000000 0.000000 0.838355 0.056624 1 0 1.000000
  0 -7.742321 12.961227 1.444047 0.000000 -1.000000 0.000000 0.389606 0.034069 1 0 1.000000
hotel_window
  0 25.166132 12.961228 1.261224 0.000000 -1.000000 0.000000 0.838355 0.056624 1 0 1.000000
  0 14.464332 12.961227 4.796959 0.000000 -1.000000 0.000000 0.689749 0.080537 1 0 1.000000
  0 -7.742321 12.961227 1.444047 0.000000 -1.000000 0.000000 0.389606 0.034069 1 0 1.000000
hotel_window
  0 -7.742321 12.961227 1.444047 0.000000 -1.000000 0.000000 0.389606 0.034069 1 0 1.000000
  0 14.464332 12.961227 4.796959 0.000000 -1.000000 0.000000 0.689749 0.080537 1 0 1.000000
  0 -7.742321 12.961226 3.504211 0.000000 -1.000000 0.000000 0.386439 0.071389 1 0 1.000000
hotel_window
  0 14.464332 12.961227 4.796959 0.000000 -1.000000 0.000000 0.689749 0.080537 1 0 1.000000
  0 -6.177491 12.961226 4.796959 0.000000 -1.000000 0.000000 0.410687 0.079503 1 0 1.000000
  0 -7.742321 12.961226 3.504211 0.000000 -1.000000 0.000000 0.386439 0.071389 1 0 1.000000
end
