// Created by Crowbar 0.74
version 1
nodes
  0 "static_prop" -1
end
skeleton
  time 0
    0 0.000000 0.000000 0.000000 0.000000 0.000000 0.000000
end
triangles
  phy
    0 15.531007 23.474250 5.300060 0.048946 0.890542 0.452260 0 0
    0 15.531005 67.122438 5.300061 -0.024495 0.891343 0.452667 0 0
    0 15.531007 23.474250 7.699047 0.076892 -0.699502 0.710482 0 0
  phy
    0 15.531005 67.122438 5.300061 -0.024495 0.891343 0.452667 0 0
    0 15.531005 67.122438 7.699049 -0.053196 -0.967869 0.245765 0 0
    0 15.531007 23.474250 7.699047 0.076892 -0.699502 0.710482 0 0
  phy
    0 15.531007 23.474250 5.300060 0.048946 0.890542 0.452260 0 0
    0 10.807183 23.474250 5.300060 0.053196 0.967869 -0.245765 0 0
    0 15.531005 67.122438 5.300061 -0.024495 0.891343 0.452667 0 0
  phy
    0 15.531005 67.122438 5.300061 -0.024495 0.891343 0.452667 0 0
    0 10.807183 23.474250 5.300060 0.053196 0.967869 -0.245765 0 0
    0 10.807181 67.122438 5.300061 -0.076892 0.699502 -0.710482 0 0
  phy
    0 15.531007 23.474250 7.699047 0.076892 -0.699502 0.710482 0 0
    0 10.807183 23.474250 5.300060 0.053196 0.967869 -0.245765 0 0
    0 15.531007 23.474250 5.300060 0.048946 0.890542 0.452260 0 0
  phy
    0 15.531007 23.474250 7.699047 0.076892 -0.699502 0.710482 0 0
    0 10.807183 23.474250 7.699047 0.024495 -0.891343 -0.452667 0 0
    0 10.807183 23.474250 5.300060 0.053196 0.967869 -0.245765 0 0
  phy
    0 15.531007 23.474250 7.699047 0.076892 -0.699502 0.710482 0 0
    0 15.531005 67.122438 7.699049 -0.053196 -0.967869 0.245765 0 0
    0 10.807183 23.474250 7.699047 0.024495 -0.891343 -0.452667 0 0
  phy
    0 15.531005 67.122438 7.699049 -0.053196 -0.967869 0.245765 0 0
    0 10.807181 67.122438 7.699049 -0.048946 -0.890542 -0.452260 0 0
    0 10.807183 23.474250 7.699047 0.024495 -0.891343 -0.452667 0 0
  phy
    0 10.807183 23.474250 7.699047 0.024495 -0.891343 -0.452667 0 0
    0 10.807181 67.122438 7.699049 -0.048946 -0.890542 -0.452260 0 0
    0 10.807181 67.122438 5.300061 -0.076892 0.699502 -0.710482 0 0
  phy
    0 10.807183 23.474250 7.699047 0.024495 -0.891343 -0.452667 0 0
    0 10.807181 67.122438 5.300061 -0.076892 0.699502 -0.710482 0 0
    0 10.807183 23.474250 5.300060 0.053196 0.967869 -0.245765 0 0
  phy
    0 15.531005 67.122438 5.300061 -0.024495 0.891343 0.452667 0 0
    0 10.807181 67.122438 5.300061 -0.076892 0.699502 -0.710482 0 0
    0 15.531005 67.122438 7.699049 -0.053196 -0.967869 0.245765 0 0
  phy
    0 15.531005 67.122438 7.699049 -0.053196 -0.967869 0.245765 0 0
    0 10.807181 67.122438 5.300061 -0.076892 0.699502 -0.710482 0 0
    0 10.807181 67.122438 7.699049 -0.048946 -0.890542 -0.452260 0 0
  phy
    0 11.323329 67.122438 75.151315 -0.049892 0.781138 -0.622362 0 0
    0 11.323329 67.122438 77.939146 -0.069371 -0.496341 -0.865352 0 0
    0 14.822383 67.122438 75.151315 -0.063038 0.902053 0.426998 0 0
  phy
    0 14.822383 67.122438 75.151315 -0.063038 0.902053 0.426998 0 0
    0 11.323329 67.122438 77.939146 -0.069371 -0.496341 -0.865352 0 0
    0 14.822383 67.122438 78.463958 -0.029666 -0.781767 0.622864 0 0
  phy
    0 11.323329 67.122438 75.151315 -0.049892 0.781138 -0.622362 0 0
    0 11.323330 23.474247 75.151315 0.024969 0.781868 -0.622944 0 0
    0 11.323329 67.122438 77.939146 -0.069371 -0.496341 -0.865352 0 0
  phy
    0 11.323329 67.122438 77.939146 -0.069371 -0.496341 -0.865352 0 0
    0 11.323330 23.474247 75.151315 0.024969 0.781868 -0.622944 0 0
    0 11.323330 23.474247 77.939146 0.061160 -0.875183 -0.479912 0 0
  phy
    0 11.323330 23.474247 75.151315 0.024969 0.781868 -0.622944 0 0
    0 11.323329 67.122438 75.151315 -0.049892 0.781138 -0.622362 0 0
    0 14.822383 67.122438 75.151315 -0.063038 0.902053 0.426998 0 0
  phy
    0 11.323330 23.474247 75.151315 0.024969 0.781868 -0.622944 0 0
    0 14.822383 67.122438 75.151315 -0.063038 0.902053 0.426998 0 0
    0 14.822386 23.474247 75.151315 0.065132 0.466015 0.882376 0 0
  phy
    0 14.822383 67.122438 75.151315 -0.063038 0.902053 0.426998 0 0
    0 14.822383 67.122438 78.463958 -0.029666 -0.781767 0.622864 0 0
    0 14.822386 23.474247 75.151315 0.065132 0.466015 0.882376 0 0
  phy
    0 14.822383 67.122438 78.463958 -0.029666 -0.781767 0.622864 0 0
    0 14.822386 23.474247 78.463958 0.059253 -0.780737 0.622043 0 0
    0 14.822386 23.474247 75.151315 0.065132 0.466015 0.882376 0 0
  phy
    0 11.323330 23.474247 77.939146 0.061160 -0.875183 -0.479912 0 0
    0 14.822383 67.122438 78.463958 -0.029666 -0.781767 0.622864 0 0
    0 11.323329 67.122438 77.939146 -0.069371 -0.496341 -0.865352 0 0
  phy
    0 11.323330 23.474247 77.939146 0.061160 -0.875183 -0.479912 0 0
    0 14.822386 23.474247 78.463958 0.059253 -0.780737 0.622043 0 0
    0 14.822383 67.122438 78.463958 -0.029666 -0.781767 0.622864 0 0
  phy
    0 14.822386 23.474247 78.463958 0.059253 -0.780737 0.622043 0 0
    0 11.323330 23.474247 77.939146 0.061160 -0.875183 -0.479912 0 0
    0 14.822386 23.474247 75.151315 0.065132 0.466015 0.882376 0 0
  phy
    0 14.822386 23.474247 75.151315 0.065132 0.466015 0.882376 0 0
    0 11.323330 23.474247 77.939146 0.061160 -0.875183 -0.479912 0 0
    0 11.323330 23.474247 75.151315 0.024969 0.781868 -0.622944 0 0
  phy
    0 10.872012 68.514230 99.365664 -0.513685 -0.021466 -0.857710 0 0
    0 15.475195 68.514234 99.333975 -0.767142 -0.032063 0.640676 0 0
    0 10.872012 68.514234 7.384359 -0.922608 0.019280 -0.385258 0 0
  phy
    0 10.872012 68.514234 7.384359 -0.922608 0.019280 -0.385258 0 0
    0 15.475195 68.514234 99.333975 -0.767142 -0.032063 0.640676 0 0
    0 15.475195 68.514239 7.384359 -0.766015 0.064042 0.639625 0 0
  phy
    0 15.475195 64.670556 99.333975 0.767087 -0.032066 0.640742 0 0
    0 15.475195 64.670561 7.384359 0.767546 0.016040 0.640794 0 0
    0 15.475195 68.514234 99.333975 -0.767142 -0.032063 0.640676 0 0
  phy
    0 15.475195 64.670561 7.384359 0.767546 0.016040 0.640794 0 0
    0 15.475195 68.514239 7.384359 -0.766015 0.064042 0.639625 0 0
    0 15.475195 68.514234 99.333975 -0.767142 -0.032063 0.640676 0 0
  phy
    0 15.475195 68.514234 99.333975 -0.767142 -0.032063 0.640676 0 0
    0 10.872012 64.670556 99.365664 0.922188 -0.038543 -0.384816 0 0
    0 15.475195 64.670556 99.333975 0.767087 -0.032066 0.640742 0 0
  phy
    0 10.872012 68.514230 99.365664 -0.513685 -0.021466 -0.857710 0 0
    0 10.872012 64.670556 99.365664 0.922188 -0.038543 -0.384816 0 0
    0 15.475195 68.514234 99.333975 -0.767142 -0.032063 0.640676 0 0
  phy
    0 10.872012 64.670556 99.365664 0.922188 -0.038543 -0.384816 0 0
    0 10.872012 68.514230 99.365664 -0.513685 -0.021466 -0.857710 0 0
    0 10.872012 64.670561 7.384359 0.513266 0.042896 -0.857157 0 0
  phy
    0 10.872012 64.670561 7.384359 0.513266 0.042896 -0.857157 0 0
    0 10.872012 68.514230 99.365664 -0.513685 -0.021466 -0.857710 0 0
    0 10.872012 68.514234 7.384359 -0.922608 0.019280 -0.385258 0 0
  phy
    0 10.872012 68.514234 7.384359 -0.922608 0.019280 -0.385258 0 0
    0 15.475195 68.514239 7.384359 -0.766015 0.064042 0.639625 0 0
    0 10.872012 64.670561 7.384359 0.513266 0.042896 -0.857157 0 0
  phy
    0 10.872012 64.670561 7.384359 0.513266 0.042896 -0.857157 0 0
    0 15.475195 68.514239 7.384359 -0.766015 0.064042 0.639625 0 0
    0 15.475195 64.670561 7.384359 0.767546 0.016040 0.640794 0 0
  phy
    0 15.475195 64.670556 99.333975 0.767087 -0.032066 0.640742 0 0
    0 10.872012 64.670556 99.365664 0.922188 -0.038543 -0.384816 0 0
    0 15.475195 64.670561 7.384359 0.767546 0.016040 0.640794 0 0
  phy
    0 15.475195 64.670561 7.384359 0.767546 0.016040 0.640794 0 0
    0 10.872012 64.670556 99.365664 0.922188 -0.038543 -0.384816 0 0
    0 10.872012 64.670561 7.384359 0.513266 0.042896 -0.857157 0 0
  phy
    0 15.475196 22.068458 99.333975 0.922047 -0.038537 0.385155 0 0
    0 10.872013 25.912134 99.365664 -0.513395 -0.042907 -0.857079 0 0
    0 10.872013 22.068458 99.365664 0.767304 -0.032064 -0.640481 0 0
  phy
    0 15.475196 22.068458 99.333975 0.922047 -0.038537 0.385155 0 0
    0 15.475196 25.912134 99.333975 -0.767492 -0.016039 0.640858 0 0
    0 10.872013 25.912134 99.365664 -0.513395 -0.042907 -0.857079 0 0
  phy
    0 15.475196 22.068458 99.333975 0.922047 -0.038537 0.385155 0 0
    0 10.872013 22.068463 7.384357 0.767141 0.032063 -0.640676 0 0
    0 15.475196 22.068463 7.384357 0.513620 0.021470 0.857749 0 0
  phy
    0 15.475196 22.068458 99.333975 0.922047 -0.038537 0.385155 0 0
    0 10.872013 22.068458 99.365664 0.767304 -0.032064 -0.640481 0 0
    0 10.872013 22.068463 7.384357 0.767141 0.032063 -0.640676 0 0
  phy
    0 15.475196 22.068458 99.333975 0.922047 -0.038537 0.385155 0 0
    0 15.475196 22.068463 7.384357 0.513620 0.021470 0.857749 0 0
    0 15.475196 25.912134 99.333975 -0.767492 -0.016039 0.640858 0 0
  phy
    0 15.475196 22.068463 7.384357 0.513620 0.021470 0.857749 0 0
    0 15.475196 25.912138 7.384357 -0.766015 0.064042 0.639625 0 0
    0 15.475196 25.912134 99.333975 -0.767492 -0.016039 0.640858 0 0
  phy
    0 15.475196 25.912134 99.333975 -0.767492 -0.016039 0.640858 0 0
    0 15.475196 25.912138 7.384357 -0.766015 0.064042 0.639625 0 0
    0 10.872013 25.912138 7.384357 -0.922608 0.019280 -0.385257 0 0
  phy
    0 15.475196 25.912134 99.333975 -0.767492 -0.016039 0.640858 0 0
    0 10.872013 25.912138 7.384357 -0.922608 0.019280 -0.385257 0 0
    0 10.872013 25.912134 99.365664 -0.513395 -0.042907 -0.857079 0 0
  phy
    0 15.475196 25.912138 7.384357 -0.766015 0.064042 0.639625 0 0
    0 15.475196 22.068463 7.384357 0.513620 0.021470 0.857749 0 0
    0 10.872013 22.068463 7.384357 0.767141 0.032063 -0.640676 0 0
  phy
    0 15.475196 25.912138 7.384357 -0.766015 0.064042 0.639625 0 0
    0 10.872013 22.068463 7.384357 0.767141 0.032063 -0.640676 0 0
    0 10.872013 25.912138 7.384357 -0.922608 0.019280 -0.385257 0 0
  phy
    0 10.872013 25.912138 7.384357 -0.922608 0.019280 -0.385257 0 0
    0 10.872013 22.068463 7.384357 0.767141 0.032063 -0.640676 0 0
    0 10.872013 25.912134 99.365664 -0.513395 -0.042907 -0.857079 0 0
  phy
    0 10.872013 25.912134 99.365664 -0.513395 -0.042907 -0.857079 0 0
    0 10.872013 22.068463 7.384357 0.767141 0.032063 -0.640676 0 0
    0 10.872013 22.068458 99.365664 0.767304 -0.032064 -0.640481 0 0
  phy
    0 10.807183 23.474247 99.817946 0.026626 -0.968897 -0.246027 0 0
    0 10.807181 67.122438 99.817946 -0.038531 -0.701058 -0.712063 0 0
    0 10.807183 23.474247 97.418958 0.048946 0.890542 -0.452261 0 0
  phy
    0 10.807183 23.474247 97.418958 0.048946 0.890542 -0.452261 0 0
    0 10.807181 67.122438 99.817946 -0.038531 -0.701058 -0.712063 0 0
    0 10.807181 67.122438 97.418958 -0.097542 0.887359 -0.450644 0 0
  phy
    0 15.531007 23.474247 97.418958 0.038531 0.701058 0.712063 0 0
    0 15.531007 23.474247 99.817946 0.097542 -0.887359 0.450644 0 0
    0 10.807183 23.474247 97.418958 0.048946 0.890542 -0.452261 0 0
  phy
    0 15.531007 23.474247 99.817946 0.097542 -0.887359 0.450644 0 0
    0 10.807183 23.474247 99.817946 0.026626 -0.968897 -0.246027 0 0
    0 10.807183 23.474247 97.418958 0.048946 0.890542 -0.452261 0 0
  phy
    0 15.531007 23.474247 97.418958 0.038531 0.701058 0.712063 0 0
    0 10.807183 23.474247 97.418958 0.048946 0.890542 -0.452261 0 0
    0 15.531005 67.122438 97.418958 -0.026626 0.968897 0.246027 0 0
  phy
    0 15.531005 67.122438 97.418958 -0.026626 0.968897 0.246027 0 0
    0 10.807183 23.474247 97.418958 0.048946 0.890542 -0.452261 0 0
    0 10.807181 67.122438 97.418958 -0.097542 0.887359 -0.450644 0 0
  phy
    0 15.531007 23.474247 99.817946 0.097542 -0.887359 0.450644 0 0
    0 15.531005 67.122438 99.817946 -0.048946 -0.890542 0.452261 0 0
    0 10.807183 23.474247 99.817946 0.026626 -0.968897 -0.246027 0 0
  phy
    0 15.531005 67.122438 99.817946 -0.048946 -0.890542 0.452261 0 0
    0 10.807181 67.122438 99.817946 -0.038531 -0.701058 -0.712063 0 0
    0 10.807183 23.474247 99.817946 0.026626 -0.968897 -0.246027 0 0
  phy
    0 15.531005 67.122438 97.418958 -0.026626 0.968897 0.246027 0 0
    0 10.807181 67.122438 97.418958 -0.097542 0.887359 -0.450644 0 0
    0 15.531005 67.122438 99.817946 -0.048946 -0.890542 0.452261 0 0
  phy
    0 15.531005 67.122438 99.817946 -0.048946 -0.890542 0.452261 0 0
    0 10.807181 67.122438 97.418958 -0.097542 0.887359 -0.450644 0 0
    0 10.807181 67.122438 99.817946 -0.038531 -0.701058 -0.712063 0 0
  phy
    0 15.531007 23.474247 99.817946 0.097542 -0.887359 0.450644 0 0
    0 15.531007 23.474247 97.418958 0.038531 0.701058 0.712063 0 0
    0 15.531005 67.122438 99.817946 -0.048946 -0.890542 0.452261 0 0
  phy
    0 15.531007 23.474247 97.418958 0.038531 0.701058 0.712063 0 0
    0 15.531005 67.122438 97.418958 -0.026626 0.968897 0.246027 0 0
    0 15.531005 67.122438 99.817946 -0.048946 -0.890542 0.452261 0 0
  phy
    0 -1.550687 23.682601 2.506465 -0.968961 0.053031 -0.241460 0 0
    0 -1.550687 23.682599 103.481482 -0.968988 -0.053024 -0.241354 0 0
    0 20.626021 23.682599 103.449784 -0.968961 -0.053031 0.241460 0 0
  phy
    0 -1.550687 23.682601 2.506465 -0.968961 0.053031 -0.241460 0 0
    0 20.626021 23.682599 103.449784 -0.968961 -0.053031 0.241460 0 0
    0 20.626021 23.682601 2.506465 -0.968969 0.053040 0.241425 0 0
  phy
    0 20.626021 23.682599 103.449784 -0.968961 -0.053031 0.241460 0 0
    0 20.626023 18.157136 2.506465 0.890765 0.097518 0.443879 0 0
    0 20.626021 23.682601 2.506465 -0.968969 0.053040 0.241425 0 0
  phy
    0 20.626021 23.682599 103.449784 -0.968961 -0.053031 0.241460 0 0
    0 20.626023 18.157133 103.449784 0.991961 -0.027145 0.123596 0 0
    0 20.626023 18.157136 2.506465 0.890765 0.097518 0.443879 0 0
  phy
    0 20.626021 23.682601 2.506465 -0.968969 0.053040 0.241425 0 0
    0 20.626023 18.157136 2.506465 0.890765 0.097518 0.443879 0 0
    0 -1.550687 23.682601 2.506465 -0.968961 0.053031 -0.241460 0 0
  phy
    0 20.626023 18.157136 2.506465 0.890765 0.097518 0.443879 0 0
    0 20.626023 18.157133 103.449784 0.991961 -0.027145 0.123596 0 0
    0 -1.550687 18.157136 2.506465 0.991961 0.027145 -0.123596 0 0
  phy
    0 20.626023 18.157136 2.506465 0.890765 0.097518 0.443879 0 0
    0 -1.550687 18.157136 2.506465 0.991961 0.027145 -0.123596 0 0
    0 -1.550687 23.682601 2.506465 -0.968961 0.053031 -0.241460 0 0
  phy
    0 20.626021 23.682599 103.449784 -0.968961 -0.053031 0.241460 0 0
    0 -1.550687 18.157133 103.481482 0.890822 -0.097494 -0.443768 0 0
    0 20.626023 18.157133 103.449784 0.991961 -0.027145 0.123596 0 0
  phy
    0 -1.550687 23.682599 103.481482 -0.968988 -0.053024 -0.241354 0 0
    0 -1.550687 18.157133 103.481482 0.890822 -0.097494 -0.443768 0 0
    0 20.626021 23.682599 103.449784 -0.968961 -0.053031 0.241460 0 0
  phy
    0 20.626023 18.157133 103.449784 0.991961 -0.027145 0.123596 0 0
    0 -1.550687 18.157133 103.481482 0.890822 -0.097494 -0.443768 0 0
    0 -1.550687 18.157136 2.506465 0.991961 0.027145 -0.123596 0 0
  phy
    0 -1.550687 18.157136 2.506465 0.991961 0.027145 -0.123596 0 0
    0 -1.550687 18.157133 103.481482 0.890822 -0.097494 -0.443768 0 0
    0 -1.550687 23.682601 2.506465 -0.968961 0.053031 -0.241460 0 0
  phy
    0 -1.550687 18.157133 103.481482 0.890822 -0.097494 -0.443768 0 0
    0 -1.550687 23.682599 103.481482 -0.968988 -0.053024 -0.241354 0 0
    0 -1.550687 23.682601 2.506465 -0.968961 0.053031 -0.241460 0 0
  phy
    0 -1.550689 67.080259 2.506467 0.878859 0.102340 -0.465976 0 0
    0 -1.550689 72.959371 2.506467 -0.990914 0.028852 -0.131368 0 0
    0 20.626018 72.959371 2.506467 -0.960541 0.111887 0.254642 0 0
  phy
    0 -1.550689 67.080259 2.506467 0.878859 0.102340 -0.465976 0 0
    0 20.626018 72.959371 2.506467 -0.960541 0.111887 0.254642 0 0
    0 20.626018 67.080259 2.506467 0.966238 0.028133 0.256112 0 0
  phy
    0 -1.550689 72.959371 2.506467 -0.990914 0.028852 -0.131368 0 0
    0 -1.550689 67.080259 2.506467 0.878859 0.102340 -0.465976 0 0
    0 -1.550689 72.959371 103.481482 -0.878919 -0.102347 -0.465862 0 0
  phy
    0 -1.550689 72.959371 103.481482 -0.878919 -0.102347 -0.465862 0 0
    0 -1.550689 67.080259 2.506467 0.878859 0.102340 -0.465976 0 0
    0 -1.550689 67.080255 103.481482 0.990919 -0.028852 -0.131327 0 0
  phy
    0 -1.550689 72.959371 2.506467 -0.990914 0.028852 -0.131368 0 0
    0 -1.550689 72.959371 103.481482 -0.878919 -0.102347 -0.465862 0 0
    0 20.626018 72.959371 103.449784 -0.966228 -0.028133 0.256150 0 0
  phy
    0 -1.550689 72.959371 2.506467 -0.990914 0.028852 -0.131368 0 0
    0 20.626018 72.959371 103.449784 -0.966228 -0.028133 0.256150 0 0
    0 20.626018 72.959371 2.506467 -0.960541 0.111887 0.254642 0 0
  phy
    0 20.626018 72.959371 2.506467 -0.960541 0.111887 0.254642 0 0
    0 20.626018 72.959371 103.449784 -0.966228 -0.028133 0.256150 0 0
    0 20.626018 67.080259 2.506467 0.966238 0.028133 0.256112 0 0
  phy
    0 20.626018 72.959371 103.449784 -0.966228 -0.028133 0.256150 0 0
    0 20.626018 67.080255 103.449784 0.960502 -0.111883 0.254792 0 0
    0 20.626018 67.080259 2.506467 0.966238 0.028133 0.256112 0 0
  phy
    0 20.626018 72.959371 103.449784 -0.966228 -0.028133 0.256150 0 0
    0 -1.550689 72.959371 103.481482 -0.878919 -0.102347 -0.465862 0 0
    0 20.626018 67.080255 103.449784 0.960502 -0.111883 0.254792 0 0
  phy
    0 20.626018 67.080255 103.449784 0.960502 -0.111883 0.254792 0 0
    0 -1.550689 72.959371 103.481482 -0.878919 -0.102347 -0.465862 0 0
    0 -1.550689 67.080255 103.481482 0.990919 -0.028852 -0.131327 0 0
  phy
    0 20.626018 67.080255 103.449784 0.960502 -0.111883 0.254792 0 0
    0 -1.550689 67.080255 103.481482 0.990919 -0.028852 -0.131327 0 0
    0 20.626018 67.080259 2.506467 0.966238 0.028133 0.256112 0 0
  phy
    0 20.626018 67.080259 2.506467 0.966238 0.028133 0.256112 0 0
    0 -1.550689 67.080255 103.481482 0.990919 -0.028852 -0.131327 0 0
    0 -1.550689 67.080259 2.506467 0.878859 0.102340 -0.465976 0 0
  phy
    0 -1.550689 67.583989 103.711256 -0.095503 -0.920506 -0.378876 0 0
    0 -1.550687 23.442169 103.711256 0.102320 -0.989634 -0.100772 0 0
    0 20.626018 67.583998 103.679567 -0.102298 -0.989420 0.102871 0 0
  phy
    0 -1.550687 23.442169 103.711256 0.102320 -0.989634 -0.100772 0 0
    0 20.626021 23.442169 103.679567 0.094849 -0.920564 0.378900 0 0
    0 20.626018 67.583998 103.679567 -0.102298 -0.989420 0.102871 0 0
  phy
    0 -1.550687 23.442169 103.711256 0.102320 -0.989634 -0.100772 0 0
    0 -1.550689 67.583989 103.711256 -0.095503 -0.920506 -0.378876 0 0
    0 -1.550687 23.442169 99.131498 0.050738 0.978074 -0.201984 0 0
  phy
    0 -1.550687 23.442169 99.131498 0.050738 0.978074 -0.201984 0 0
    0 -1.550689 67.583989 103.711256 -0.095503 -0.920506 -0.378876 0 0
    0 -1.550689 67.583989 99.131498 -0.198482 0.959851 -0.198221 0 0
  phy
    0 -1.550689 67.583989 103.711256 -0.095503 -0.920506 -0.378876 0 0
    0 20.626018 67.583998 103.679567 -0.102298 -0.989420 0.102871 0 0
    0 -1.550689 67.583989 99.131498 -0.198482 0.959851 -0.198221 0 0
  phy
    0 20.626018 67.583998 103.679567 -0.102298 -0.989420 0.102871 0 0
    0 20.626021 23.442169 103.679567 0.094849 -0.920564 0.378900 0 0
    0 20.626018 67.583998 99.131498 -0.050402 0.978366 0.200646 0 0
  phy
    0 20.626021 23.442169 103.679567 0.094849 -0.920564 0.378900 0 0
    0 20.626021 23.442169 99.131498 0.198536 0.960111 0.196903 0 0
    0 20.626018 67.583998 99.131498 -0.050402 0.978366 0.200646 0 0
  phy
    0 -1.550687 23.442169 103.711256 0.102320 -0.989634 -0.100772 0 0
    0 20.626021 23.442169 99.131498 0.198536 0.960111 0.196903 0 0
    0 20.626021 23.442169 103.679567 0.094849 -0.920564 0.378900 0 0
  phy
    0 -1.550687 23.442169 103.711256 0.102320 -0.989634 -0.100772 0 0
    0 -1.550687 23.442169 99.131498 0.050738 0.978074 -0.201984 0 0
    0 20.626021 23.442169 99.131498 0.198536 0.960111 0.196903 0 0
  phy
    0 -1.550689 67.583989 99.131498 -0.198482 0.959851 -0.198221 0 0
    0 20.626018 67.583998 103.679567 -0.102298 -0.989420 0.102871 0 0
    0 20.626018 67.583998 99.131498 -0.050402 0.978366 0.200646 0 0
  phy
    0 -1.550689 67.583989 99.131498 -0.198482 0.959851 -0.198221 0 0
    0 20.626018 67.583998 99.131498 -0.050402 0.978366 0.200646 0 0
    0 -1.550687 23.442169 99.131498 0.050738 0.978074 -0.201984 0 0
  phy
    0 -1.550687 23.442169 99.131498 0.050738 0.978074 -0.201984 0 0
    0 20.626018 67.583998 99.131498 -0.050402 0.978366 0.200646 0 0
    0 20.626021 23.442169 99.131498 0.198536 0.960111 0.196903 0 0
  phy
    0 15.531007 23.474250 5.300060 0.048946 0.890542 0.452260 0 0
    0 15.531005 67.122438 5.300061 -0.024495 0.891343 0.452667 0 0
    0 15.531007 23.474250 7.699047 0.076892 -0.699502 0.710482 0 0
  phy
    0 15.531005 67.122438 5.300061 -0.024495 0.891343 0.452667 0 0
    0 15.531005 67.122438 7.699049 -0.053196 -0.967869 0.245765 0 0
    0 15.531007 23.474250 7.699047 0.076892 -0.699502 0.710482 0 0
  phy
    0 15.531007 23.474250 5.300060 0.048946 0.890542 0.452260 0 0
    0 10.807183 23.474250 5.300060 0.053196 0.967869 -0.245765 0 0
    0 15.531005 67.122438 5.300061 -0.024495 0.891343 0.452667 0 0
  phy
    0 15.531005 67.122438 5.300061 -0.024495 0.891343 0.452667 0 0
    0 10.807183 23.474250 5.300060 0.053196 0.967869 -0.245765 0 0
    0 10.807181 67.122438 5.300061 -0.076892 0.699502 -0.710482 0 0
  phy
    0 15.531007 23.474250 7.699047 0.076892 -0.699502 0.710482 0 0
    0 10.807183 23.474250 5.300060 0.053196 0.967869 -0.245765 0 0
    0 15.531007 23.474250 5.300060 0.048946 0.890542 0.452260 0 0
  phy
    0 15.531007 23.474250 7.699047 0.076892 -0.699502 0.710482 0 0
    0 10.807183 23.474250 7.699047 0.024495 -0.891343 -0.452667 0 0
    0 10.807183 23.474250 5.300060 0.053196 0.967869 -0.245765 0 0
  phy
    0 15.531007 23.474250 7.699047 0.076892 -0.699502 0.710482 0 0
    0 15.531005 67.122438 7.699049 -0.053196 -0.967869 0.245765 0 0
    0 10.807183 23.474250 7.699047 0.024495 -0.891343 -0.452667 0 0
  phy
    0 15.531005 67.122438 7.699049 -0.053196 -0.967869 0.245765 0 0
    0 10.807181 67.122438 7.699049 -0.048946 -0.890542 -0.452260 0 0
    0 10.807183 23.474250 7.699047 0.024495 -0.891343 -0.452667 0 0
  phy
    0 10.807183 23.474250 7.699047 0.024495 -0.891343 -0.452667 0 0
    0 10.807181 67.122438 7.699049 -0.048946 -0.890542 -0.452260 0 0
    0 10.807181 67.122438 5.300061 -0.076892 0.699502 -0.710482 0 0
  phy
    0 10.807183 23.474250 7.699047 0.024495 -0.891343 -0.452667 0 0
    0 10.807181 67.122438 5.300061 -0.076892 0.699502 -0.710482 0 0
    0 10.807183 23.474250 5.300060 0.053196 0.967869 -0.245765 0 0
  phy
    0 15.531005 67.122438 5.300061 -0.024495 0.891343 0.452667 0 0
    0 10.807181 67.122438 5.300061 -0.076892 0.699502 -0.710482 0 0
    0 15.531005 67.122438 7.699049 -0.053196 -0.967869 0.245765 0 0
  phy
    0 15.531005 67.122438 7.699049 -0.053196 -0.967869 0.245765 0 0
    0 10.807181 67.122438 5.300061 -0.076892 0.699502 -0.710482 0 0
    0 10.807181 67.122438 7.699049 -0.048946 -0.890542 -0.452260 0 0
  phy
    0 11.323329 67.122438 75.151315 -0.049892 0.781138 -0.622362 0 0
    0 11.323329 67.122438 77.939146 -0.069371 -0.496341 -0.865352 0 0
    0 14.822383 67.122438 75.151315 -0.063038 0.902053 0.426998 0 0
  phy
    0 14.822383 67.122438 75.151315 -0.063038 0.902053 0.426998 0 0
    0 11.323329 67.122438 77.939146 -0.069371 -0.496341 -0.865352 0 0
    0 14.822383 67.122438 78.463958 -0.029666 -0.781767 0.622864 0 0
  phy
    0 11.323329 67.122438 75.151315 -0.049892 0.781138 -0.622362 0 0
    0 11.323330 23.474247 75.151315 0.024969 0.781868 -0.622944 0 0
    0 11.323329 67.122438 77.939146 -0.069371 -0.496341 -0.865352 0 0
  phy
    0 11.323329 67.122438 77.939146 -0.069371 -0.496341 -0.865352 0 0
    0 11.323330 23.474247 75.151315 0.024969 0.781868 -0.622944 0 0
    0 11.323330 23.474247 77.939146 0.061160 -0.875183 -0.479912 0 0
  phy
    0 11.323330 23.474247 75.151315 0.024969 0.781868 -0.622944 0 0
    0 11.323329 67.122438 75.151315 -0.049892 0.781138 -0.622362 0 0
    0 14.822383 67.122438 75.151315 -0.063038 0.902053 0.426998 0 0
  phy
    0 11.323330 23.474247 75.151315 0.024969 0.781868 -0.622944 0 0
    0 14.822383 67.122438 75.151315 -0.063038 0.902053 0.426998 0 0
    0 14.822386 23.474247 75.151315 0.065132 0.466015 0.882376 0 0
  phy
    0 14.822383 67.122438 75.151315 -0.063038 0.902053 0.426998 0 0
    0 14.822383 67.122438 78.463958 -0.029666 -0.781767 0.622864 0 0
    0 14.822386 23.474247 75.151315 0.065132 0.466015 0.882376 0 0
  phy
    0 14.822383 67.122438 78.463958 -0.029666 -0.781767 0.622864 0 0
    0 14.822386 23.474247 78.463958 0.059253 -0.780737 0.622043 0 0
    0 14.822386 23.474247 75.151315 0.065132 0.466015 0.882376 0 0
  phy
    0 11.323330 23.474247 77.939146 0.061160 -0.875183 -0.479912 0 0
    0 14.822383 67.122438 78.463958 -0.029666 -0.781767 0.622864 0 0
    0 11.323329 67.122438 77.939146 -0.069371 -0.496341 -0.865352 0 0
  phy
    0 11.323330 23.474247 77.939146 0.061160 -0.875183 -0.479912 0 0
    0 14.822386 23.474247 78.463958 0.059253 -0.780737 0.622043 0 0
    0 14.822383 67.122438 78.463958 -0.029666 -0.781767 0.622864 0 0
  phy
    0 14.822386 23.474247 78.463958 0.059253 -0.780737 0.622043 0 0
    0 11.323330 23.474247 77.939146 0.061160 -0.875183 -0.479912 0 0
    0 14.822386 23.474247 75.151315 0.065132 0.466015 0.882376 0 0
  phy
    0 14.822386 23.474247 75.151315 0.065132 0.466015 0.882376 0 0
    0 11.323330 23.474247 77.939146 0.061160 -0.875183 -0.479912 0 0
    0 11.323330 23.474247 75.151315 0.024969 0.781868 -0.622944 0 0
  phy
    0 10.872012 64.670556 99.365664 0.922655 -0.019281 -0.385144 0 0
    0 10.872012 68.514230 99.365664 -0.513395 -0.042907 -0.857079 0 0
    0 10.872012 64.670561 7.384359 0.513266 0.042896 -0.857157 0 0
  phy
    0 10.872012 64.670561 7.384359 0.513266 0.042896 -0.857157 0 0
    0 10.872012 68.514230 99.365664 -0.513395 -0.042907 -0.857079 0 0
    0 10.872012 68.514234 7.384359 -0.922608 0.019280 -0.385258 0 0
  phy
    0 10.872012 68.514230 99.365664 -0.513395 -0.042907 -0.857079 0 0
    0 15.475195 68.514234 99.333975 -0.767492 -0.016039 0.640858 0 0
    0 10.872012 68.514234 7.384359 -0.922608 0.019280 -0.385258 0 0
  phy
    0 10.872012 68.514234 7.384359 -0.922608 0.019280 -0.385258 0 0
    0 15.475195 68.514234 99.333975 -0.767492 -0.016039 0.640858 0 0
    0 15.475195 68.514239 7.384359 -0.766015 0.064042 0.639625 0 0
  phy
    0 10.872012 68.514234 7.384359 -0.922608 0.019280 -0.385258 0 0
    0 15.475195 68.514239 7.384359 -0.766015 0.064042 0.639625 0 0
    0 10.872012 64.670561 7.384359 0.513266 0.042896 -0.857157 0 0
  phy
    0 10.872012 64.670561 7.384359 0.513266 0.042896 -0.857157 0 0
    0 15.475195 68.514239 7.384359 -0.766015 0.064042 0.639625 0 0
    0 15.475195 64.670561 7.384359 0.767546 0.016040 0.640794 0 0
  phy
    0 15.475195 64.670556 99.333975 0.765798 -0.064024 0.639886 0 0
    0 15.475195 68.514234 99.333975 -0.767492 -0.016039 0.640858 0 0
    0 10.872012 68.514230 99.365664 -0.513395 -0.042907 -0.857079 0 0
  phy
    0 10.872012 68.514230 99.365664 -0.513395 -0.042907 -0.857079 0 0
    0 10.872012 64.670556 99.365664 0.922655 -0.019281 -0.385144 0 0
    0 15.475195 64.670556 99.333975 0.765798 -0.064024 0.639886 0 0
  phy
    0 15.475195 64.670556 99.333975 0.765798 -0.064024 0.639886 0 0
    0 15.475195 64.670561 7.384359 0.767546 0.016040 0.640794 0 0
    0 15.475195 68.514234 99.333975 -0.767492 -0.016039 0.640858 0 0
  phy
    0 15.475195 64.670556 99.333975 0.765798 -0.064024 0.639886 0 0
    0 10.872012 64.670556 99.365664 0.922655 -0.019281 -0.385144 0 0
    0 15.475195 64.670561 7.384359 0.767546 0.016040 0.640794 0 0
  phy
    0 15.475195 64.670561 7.384359 0.767546 0.016040 0.640794 0 0
    0 15.475195 68.514239 7.384359 -0.766015 0.064042 0.639625 0 0
    0 15.475195 68.514234 99.333975 -0.767492 -0.016039 0.640858 0 0
  phy
    0 15.475195 64.670561 7.384359 0.767546 0.016040 0.640794 0 0
    0 10.872012 64.670556 99.365664 0.922655 -0.019281 -0.385144 0 0
    0 10.872012 64.670561 7.384359 0.513266 0.042896 -0.857157 0 0
  phy
    0 15.475196 22.068458 99.333975 0.922047 -0.038537 0.385155 0 0
    0 10.872013 25.912134 99.365664 -0.513395 -0.042907 -0.857079 0 0
    0 10.872013 22.068458 99.365664 0.767304 -0.032064 -0.640481 0 0
  phy
    0 15.475196 22.068458 99.333975 0.922047 -0.038537 0.385155 0 0
    0 15.475196 25.912134 99.333975 -0.767492 -0.016039 0.640858 0 0
    0 10.872013 25.912134 99.365664 -0.513395 -0.042907 -0.857079 0 0
  phy
    0 15.475196 22.068458 99.333975 0.922047 -0.038537 0.385155 0 0
    0 10.872013 22.068463 7.384357 0.767141 0.032063 -0.640676 0 0
    0 15.475196 22.068463 7.384357 0.513620 0.021470 0.857749 0 0
  phy
    0 15.475196 22.068458 99.333975 0.922047 -0.038537 0.385155 0 0
    0 10.872013 22.068458 99.365664 0.767304 -0.032064 -0.640481 0 0
    0 10.872013 22.068463 7.384357 0.767141 0.032063 -0.640676 0 0
  phy
    0 15.475196 22.068458 99.333975 0.922047 -0.038537 0.385155 0 0
    0 15.475196 22.068463 7.384357 0.513620 0.021470 0.857749 0 0
    0 15.475196 25.912134 99.333975 -0.767492 -0.016039 0.640858 0 0
  phy
    0 15.475196 22.068463 7.384357 0.513620 0.021470 0.857749 0 0
    0 15.475196 25.912138 7.384357 -0.766015 0.064042 0.639625 0 0
    0 15.475196 25.912134 99.333975 -0.767492 -0.016039 0.640858 0 0
  phy
    0 15.475196 25.912134 99.333975 -0.767492 -0.016039 0.640858 0 0
    0 15.475196 25.912138 7.384357 -0.766015 0.064042 0.639625 0 0
    0 10.872013 25.912138 7.384357 -0.922608 0.019280 -0.385257 0 0
  phy
    0 15.475196 25.912134 99.333975 -0.767492 -0.016039 0.640858 0 0
    0 10.872013 25.912138 7.384357 -0.922608 0.019280 -0.385257 0 0
    0 10.872013 25.912134 99.365664 -0.513395 -0.042907 -0.857079 0 0
  phy
    0 15.475196 25.912138 7.384357 -0.766015 0.064042 0.639625 0 0
    0 15.475196 22.068463 7.384357 0.513620 0.021470 0.857749 0 0
    0 10.872013 22.068463 7.384357 0.767141 0.032063 -0.640676 0 0
  phy
    0 15.475196 25.912138 7.384357 -0.766015 0.064042 0.639625 0 0
    0 10.872013 22.068463 7.384357 0.767141 0.032063 -0.640676 0 0
    0 10.872013 25.912138 7.384357 -0.922608 0.019280 -0.385257 0 0
  phy
    0 10.872013 25.912138 7.384357 -0.922608 0.019280 -0.385257 0 0
    0 10.872013 22.068463 7.384357 0.767141 0.032063 -0.640676 0 0
    0 10.872013 25.912134 99.365664 -0.513395 -0.042907 -0.857079 0 0
  phy
    0 10.872013 25.912134 99.365664 -0.513395 -0.042907 -0.857079 0 0
    0 10.872013 22.068463 7.384357 0.767141 0.032063 -0.640676 0 0
    0 10.872013 22.068458 99.365664 0.767304 -0.032064 -0.640481 0 0
  phy
    0 10.807183 23.474247 99.817946 0.026626 -0.968897 -0.246027 0 0
    0 10.807181 67.122438 99.817946 -0.038531 -0.701058 -0.712063 0 0
    0 10.807183 23.474247 97.418958 0.048946 0.890542 -0.452261 0 0
  phy
    0 10.807183 23.474247 97.418958 0.048946 0.890542 -0.452261 0 0
    0 10.807181 67.122438 99.817946 -0.038531 -0.701058 -0.712063 0 0
    0 10.807181 67.122438 97.418958 -0.097542 0.887359 -0.450644 0 0
  phy
    0 15.531007 23.474247 97.418958 0.038531 0.701058 0.712063 0 0
    0 15.531007 23.474247 99.817946 0.097542 -0.887359 0.450644 0 0
    0 10.807183 23.474247 97.418958 0.048946 0.890542 -0.452261 0 0
  phy
    0 15.531007 23.474247 99.817946 0.097542 -0.887359 0.450644 0 0
    0 10.807183 23.474247 99.817946 0.026626 -0.968897 -0.246027 0 0
    0 10.807183 23.474247 97.418958 0.048946 0.890542 -0.452261 0 0
  phy
    0 15.531007 23.474247 97.418958 0.038531 0.701058 0.712063 0 0
    0 10.807183 23.474247 97.418958 0.048946 0.890542 -0.452261 0 0
    0 15.531005 67.122438 97.418958 -0.026626 0.968897 0.246027 0 0
  phy
    0 15.531005 67.122438 97.418958 -0.026626 0.968897 0.246027 0 0
    0 10.807183 23.474247 97.418958 0.048946 0.890542 -0.452261 0 0
    0 10.807181 67.122438 97.418958 -0.097542 0.887359 -0.450644 0 0
  phy
    0 15.531007 23.474247 99.817946 0.097542 -0.887359 0.450644 0 0
    0 15.531005 67.122438 99.817946 -0.048946 -0.890542 0.452261 0 0
    0 10.807183 23.474247 99.817946 0.026626 -0.968897 -0.246027 0 0
  phy
    0 15.531005 67.122438 99.817946 -0.048946 -0.890542 0.452261 0 0
    0 10.807181 67.122438 99.817946 -0.038531 -0.701058 -0.712063 0 0
    0 10.807183 23.474247 99.817946 0.026626 -0.968897 -0.246027 0 0
  phy
    0 15.531005 67.122438 97.418958 -0.026626 0.968897 0.246027 0 0
    0 10.807181 67.122438 97.418958 -0.097542 0.887359 -0.450644 0 0
    0 15.531005 67.122438 99.817946 -0.048946 -0.890542 0.452261 0 0
  phy
    0 15.531005 67.122438 99.817946 -0.048946 -0.890542 0.452261 0 0
    0 10.807181 67.122438 97.418958 -0.097542 0.887359 -0.450644 0 0
    0 10.807181 67.122438 99.817946 -0.038531 -0.701058 -0.712063 0 0
  phy
    0 15.531007 23.474247 99.817946 0.097542 -0.887359 0.450644 0 0
    0 15.531007 23.474247 97.418958 0.038531 0.701058 0.712063 0 0
    0 15.531005 67.122438 99.817946 -0.048946 -0.890542 0.452261 0 0
  phy
    0 15.531007 23.474247 97.418958 0.038531 0.701058 0.712063 0 0
    0 15.531005 67.122438 97.418958 -0.026626 0.968897 0.246027 0 0
    0 15.531005 67.122438 99.817946 -0.048946 -0.890542 0.452261 0 0
  phy
    0 -1.550687 23.682601 2.506465 -0.968961 0.053031 -0.241460 0 0
    0 -1.550687 23.682599 103.481482 -0.968988 -0.053024 -0.241354 0 0
    0 20.626021 23.682599 103.449784 -0.968961 -0.053031 0.241460 0 0
  phy
    0 -1.550687 23.682601 2.506465 -0.968961 0.053031 -0.241460 0 0
    0 20.626021 23.682599 103.449784 -0.968961 -0.053031 0.241460 0 0
    0 20.626021 23.682601 2.506465 -0.968969 0.053040 0.241425 0 0
  phy
    0 20.626021 23.682599 103.449784 -0.968961 -0.053031 0.241460 0 0
    0 20.626023 18.157136 2.506465 0.890765 0.097518 0.443879 0 0
    0 20.626021 23.682601 2.506465 -0.968969 0.053040 0.241425 0 0
  phy
    0 20.626021 23.682599 103.449784 -0.968961 -0.053031 0.241460 0 0
    0 20.626023 18.157133 103.449784 0.991961 -0.027145 0.123596 0 0
    0 20.626023 18.157136 2.506465 0.890765 0.097518 0.443879 0 0
  phy
    0 20.626021 23.682601 2.506465 -0.968969 0.053040 0.241425 0 0
    0 20.626023 18.157136 2.506465 0.890765 0.097518 0.443879 0 0
    0 -1.550687 23.682601 2.506465 -0.968961 0.053031 -0.241460 0 0
  phy
    0 20.626023 18.157136 2.506465 0.890765 0.097518 0.443879 0 0
    0 20.626023 18.157133 103.449784 0.991961 -0.027145 0.123596 0 0
    0 -1.550687 18.157136 2.506465 0.991961 0.027145 -0.123596 0 0
  phy
    0 20.626023 18.157136 2.506465 0.890765 0.097518 0.443879 0 0
    0 -1.550687 18.157136 2.506465 0.991961 0.027145 -0.123596 0 0
    0 -1.550687 23.682601 2.506465 -0.968961 0.053031 -0.241460 0 0
  phy
    0 20.626021 23.682599 103.449784 -0.968961 -0.053031 0.241460 0 0
    0 -1.550687 18.157133 103.481482 0.890822 -0.097494 -0.443768 0 0
    0 20.626023 18.157133 103.449784 0.991961 -0.027145 0.123596 0 0
  phy
    0 -1.550687 23.682599 103.481482 -0.968988 -0.053024 -0.241354 0 0
    0 -1.550687 18.157133 103.481482 0.890822 -0.097494 -0.443768 0 0
    0 20.626021 23.682599 103.449784 -0.968961 -0.053031 0.241460 0 0
  phy
    0 20.626023 18.157133 103.449784 0.991961 -0.027145 0.123596 0 0
    0 -1.550687 18.157133 103.481482 0.890822 -0.097494 -0.443768 0 0
    0 -1.550687 18.157136 2.506465 0.991961 0.027145 -0.123596 0 0
  phy
    0 -1.550687 18.157136 2.506465 0.991961 0.027145 -0.123596 0 0
    0 -1.550687 18.157133 103.481482 0.890822 -0.097494 -0.443768 0 0
    0 -1.550687 23.682601 2.506465 -0.968961 0.053031 -0.241460 0 0
  phy
    0 -1.550687 18.157133 103.481482 0.890822 -0.097494 -0.443768 0 0
    0 -1.550687 23.682599 103.481482 -0.968988 -0.053024 -0.241354 0 0
    0 -1.550687 23.682601 2.506465 -0.968961 0.053031 -0.241460 0 0
  phy
    0 -1.550689 67.080259 2.506467 0.878859 0.102340 -0.465976 0 0
    0 -1.550689 72.959371 2.506467 -0.990914 0.028852 -0.131368 0 0
    0 20.626018 72.959371 2.506467 -0.960541 0.111887 0.254642 0 0
  phy
    0 -1.550689 67.080259 2.506467 0.878859 0.102340 -0.465976 0 0
    0 20.626018 72.959371 2.506467 -0.960541 0.111887 0.254642 0 0
    0 20.626018 67.080259 2.506467 0.966238 0.028133 0.256112 0 0
  phy
    0 -1.550689 72.959371 2.506467 -0.990914 0.028852 -0.131368 0 0
    0 -1.550689 67.080259 2.506467 0.878859 0.102340 -0.465976 0 0
    0 -1.550689 72.959371 103.481482 -0.878919 -0.102347 -0.465862 0 0
  phy
    0 -1.550689 72.959371 103.481482 -0.878919 -0.102347 -0.465862 0 0
    0 -1.550689 67.080259 2.506467 0.878859 0.102340 -0.465976 0 0
    0 -1.550689 67.080255 103.481482 0.990919 -0.028852 -0.131327 0 0
  phy
    0 -1.550689 72.959371 2.506467 -0.990914 0.028852 -0.131368 0 0
    0 -1.550689 72.959371 103.481482 -0.878919 -0.102347 -0.465862 0 0
    0 20.626018 72.959371 103.449784 -0.966228 -0.028133 0.256150 0 0
  phy
    0 -1.550689 72.959371 2.506467 -0.990914 0.028852 -0.131368 0 0
    0 20.626018 72.959371 103.449784 -0.966228 -0.028133 0.256150 0 0
    0 20.626018 72.959371 2.506467 -0.960541 0.111887 0.254642 0 0
  phy
    0 20.626018 72.959371 2.506467 -0.960541 0.111887 0.254642 0 0
    0 20.626018 72.959371 103.449784 -0.966228 -0.028133 0.256150 0 0
    0 20.626018 67.080259 2.506467 0.966238 0.028133 0.256112 0 0
  phy
    0 20.626018 72.959371 103.449784 -0.966228 -0.028133 0.256150 0 0
    0 20.626018 67.080255 103.449784 0.960502 -0.111883 0.254792 0 0
    0 20.626018 67.080259 2.506467 0.966238 0.028133 0.256112 0 0
  phy
    0 20.626018 72.959371 103.449784 -0.966228 -0.028133 0.256150 0 0
    0 -1.550689 72.959371 103.481482 -0.878919 -0.102347 -0.465862 0 0
    0 20.626018 67.080255 103.449784 0.960502 -0.111883 0.254792 0 0
  phy
    0 20.626018 67.080255 103.449784 0.960502 -0.111883 0.254792 0 0
    0 -1.550689 72.959371 103.481482 -0.878919 -0.102347 -0.465862 0 0
    0 -1.550689 67.080255 103.481482 0.990919 -0.028852 -0.131327 0 0
  phy
    0 20.626018 67.080255 103.449784 0.960502 -0.111883 0.254792 0 0
    0 -1.550689 67.080255 103.481482 0.990919 -0.028852 -0.131327 0 0
    0 20.626018 67.080259 2.506467 0.966238 0.028133 0.256112 0 0
  phy
    0 20.626018 67.080259 2.506467 0.966238 0.028133 0.256112 0 0
    0 -1.550689 67.080255 103.481482 0.990919 -0.028852 -0.131327 0 0
    0 -1.550689 67.080259 2.506467 0.878859 0.102340 -0.465976 0 0
  phy
    0 -1.550689 67.583989 103.711256 -0.095503 -0.920506 -0.378876 0 0
    0 -1.550687 23.442169 103.711256 0.102320 -0.989634 -0.100772 0 0
    0 20.626018 67.583998 103.679567 -0.102298 -0.989420 0.102871 0 0
  phy
    0 -1.550687 23.442169 103.711256 0.102320 -0.989634 -0.100772 0 0
    0 20.626021 23.442169 103.679567 0.094849 -0.920564 0.378900 0 0
    0 20.626018 67.583998 103.679567 -0.102298 -0.989420 0.102871 0 0
  phy
    0 -1.550687 23.442169 103.711256 0.102320 -0.989634 -0.100772 0 0
    0 -1.550689 67.583989 103.711256 -0.095503 -0.920506 -0.378876 0 0
    0 -1.550687 23.442169 99.131498 0.050738 0.978074 -0.201984 0 0
  phy
    0 -1.550687 23.442169 99.131498 0.050738 0.978074 -0.201984 0 0
    0 -1.550689 67.583989 103.711256 -0.095503 -0.920506 -0.378876 0 0
    0 -1.550689 67.583989 99.131498 -0.198482 0.959851 -0.198221 0 0
  phy
    0 -1.550689 67.583989 103.711256 -0.095503 -0.920506 -0.378876 0 0
    0 20.626018 67.583998 103.679567 -0.102298 -0.989420 0.102871 0 0
    0 -1.550689 67.583989 99.131498 -0.198482 0.959851 -0.198221 0 0
  phy
    0 20.626018 67.583998 103.679567 -0.102298 -0.989420 0.102871 0 0
    0 20.626021 23.442169 103.679567 0.094849 -0.920564 0.378900 0 0
    0 20.626018 67.583998 99.131498 -0.050402 0.978366 0.200646 0 0
  phy
    0 20.626021 23.442169 103.679567 0.094849 -0.920564 0.378900 0 0
    0 20.626021 23.442169 99.131498 0.198536 0.960111 0.196903 0 0
    0 20.626018 67.583998 99.131498 -0.050402 0.978366 0.200646 0 0
  phy
    0 -1.550687 23.442169 103.711256 0.102320 -0.989634 -0.100772 0 0
    0 20.626021 23.442169 99.131498 0.198536 0.960111 0.196903 0 0
    0 20.626021 23.442169 103.679567 0.094849 -0.920564 0.378900 0 0
  phy
    0 -1.550687 23.442169 103.711256 0.102320 -0.989634 -0.100772 0 0
    0 -1.550687 23.442169 99.131498 0.050738 0.978074 -0.201984 0 0
    0 20.626021 23.442169 99.131498 0.198536 0.960111 0.196903 0 0
  phy
    0 -1.550689 67.583989 99.131498 -0.198482 0.959851 -0.198221 0 0
    0 20.626018 67.583998 103.679567 -0.102298 -0.989420 0.102871 0 0
    0 20.626018 67.583998 99.131498 -0.050402 0.978366 0.200646 0 0
  phy
    0 -1.550689 67.583989 99.131498 -0.198482 0.959851 -0.198221 0 0
    0 20.626018 67.583998 99.131498 -0.050402 0.978366 0.200646 0 0
    0 -1.550687 23.442169 99.131498 0.050738 0.978074 -0.201984 0 0
  phy
    0 -1.550687 23.442169 99.131498 0.050738 0.978074 -0.201984 0 0
    0 20.626018 67.583998 99.131498 -0.050402 0.978366 0.200646 0 0
    0 20.626021 23.442169 99.131498 0.198536 0.960111 0.196903 0 0
  phy
    0 25.445213 12.792472 -0.466924 0.024435 0.999688 -0.005149 0 0
    0 -8.368212 12.792471 1.308383 0.044200 0.983420 -0.175873 0 0
    0 25.445209 78.299904 -0.466922 -0.061642 0.998092 -0.003516 0 0
  phy
    0 25.445213 12.792472 -0.466924 0.024435 0.999688 -0.005149 0 0
    0 25.445209 78.299904 -0.466922 -0.061642 0.998092 -0.003516 0 0
    0 25.534313 12.792472 1.133777 0.311288 -0.775112 0.549819 0 0
  phy
    0 25.445213 12.792472 -0.466924 0.024435 0.999688 -0.005149 0 0
    0 25.534313 12.792472 1.133777 0.311288 -0.775112 0.549819 0 0
    0 -8.368212 12.792471 1.308383 0.044200 0.983420 -0.175873 0 0
  phy
    0 15.085275 12.792470 5.198157 0.031082 -0.981858 0.187053 0 0
    0 -6.230950 12.792470 5.197977 0.074148 -0.993504 -0.086324 0 0
    0 25.534313 12.792472 1.133777 0.311288 -0.775112 0.549819 0 0
  phy
    0 -6.230950 12.792470 5.197977 0.074148 -0.993504 -0.086324 0 0
    0 -8.368212 12.792471 1.308383 0.044200 0.983420 -0.175873 0 0
    0 25.534313 12.792472 1.133777 0.311288 -0.775112 0.549819 0 0
  phy
    0 -8.368212 12.792471 1.308383 0.044200 0.983420 -0.175873 0 0
    0 -8.368215 78.299904 1.308385 -0.064061 0.982360 -0.175683 0 0
    0 25.445209 78.299904 -0.466922 -0.061642 0.998092 -0.003516 0 0
  phy
    0 -6.230953 78.299904 5.197980 -0.144614 -0.946711 -0.287792 0 0
    0 -8.368212 12.792471 1.308383 0.044200 0.983420 -0.175873 0 0
    0 -6.230950 12.792470 5.197977 0.074148 -0.993504 -0.086324 0 0
  phy
    0 -8.368212 12.792471 1.308383 0.044200 0.983420 -0.175873 0 0
    0 -6.230953 78.299904 5.197980 -0.144614 -0.946711 -0.287792 0 0
    0 -8.368215 78.299904 1.308385 -0.064061 0.982360 -0.175683 0 0
  phy
    0 15.085275 12.792470 5.198157 0.031082 -0.981858 0.187053 0 0
    0 15.085273 78.299904 5.198160 -0.039718 -0.996438 0.074389 0 0
    0 -6.230950 12.792470 5.197977 0.074148 -0.993504 -0.086324 0 0
  phy
    0 15.085273 78.299904 5.198160 -0.039718 -0.996438 0.074389 0 0
    0 -6.230953 78.299904 5.197980 -0.144614 -0.946711 -0.287792 0 0
    0 -6.230950 12.792470 5.197977 0.074148 -0.993504 -0.086324 0 0
  phy
    0 15.085275 12.792470 5.198157 0.031082 -0.981858 0.187053 0 0
    0 25.534313 12.792472 1.133777 0.311288 -0.775112 0.549819 0 0
    0 25.405919 78.299904 1.244604 -0.011355 -0.905814 0.423523 0 0
  phy
    0 25.405919 78.299904 1.244604 -0.011355 -0.905814 0.423523 0 0
    0 15.085273 78.299904 5.198160 -0.039718 -0.996438 0.074389 0 0
    0 15.085275 12.792470 5.198157 0.031082 -0.981858 0.187053 0 0
  phy
    0 15.085273 78.299904 5.198160 -0.039718 -0.996438 0.074389 0 0
    0 25.405919 78.299904 1.244604 -0.011355 -0.905814 0.423523 0 0
    0 25.445209 78.299904 -0.466922 -0.061642 0.998092 -0.003516 0 0
  phy
    0 15.085273 78.299904 5.198160 -0.039718 -0.996438 0.074389 0 0
    0 25.445209 78.299904 -0.466922 -0.061642 0.998092 -0.003516 0 0
    0 -6.230953 78.299904 5.197980 -0.144614 -0.946711 -0.287792 0 0
  phy
    0 -6.230953 78.299904 5.197980 -0.144614 -0.946711 -0.287792 0 0
    0 25.445209 78.299904 -0.466922 -0.061642 0.998092 -0.003516 0 0
    0 -8.368215 78.299904 1.308385 -0.064061 0.982360 -0.175683 0 0
  phy
    0 25.534313 12.792472 1.133777 0.311288 -0.775112 0.549819 0 0
    0 25.445209 78.299904 -0.466922 -0.061642 0.998092 -0.003516 0 0
    0 25.405919 78.299904 1.244604 -0.011355 -0.905814 0.423523 0 0
  phy
    0 25.445213 12.792472 -0.466924 0.024435 0.999688 -0.005149 0 0
    0 -8.368212 12.792471 1.308383 0.044200 0.983420 -0.175873 0 0
    0 25.445209 78.299904 -0.466922 -0.061642 0.998092 -0.003516 0 0
  phy
    0 25.445213 12.792472 -0.466924 0.024435 0.999688 -0.005149 0 0
    0 25.445209 78.299904 -0.466922 -0.061642 0.998092 -0.003516 0 0
    0 25.534313 12.792472 1.133777 0.311288 -0.775112 0.549819 0 0
  phy
    0 25.445213 12.792472 -0.466924 0.024435 0.999688 -0.005149 0 0
    0 25.534313 12.792472 1.133777 0.311288 -0.775112 0.549819 0 0
    0 -8.368212 12.792471 1.308383 0.044200 0.983420 -0.175873 0 0
  phy
    0 15.085275 12.792470 5.198157 0.031082 -0.981858 0.187053 0 0
    0 -6.230950 12.792470 5.197977 0.074148 -0.993504 -0.086324 0 0
    0 25.534313 12.792472 1.133777 0.311288 -0.775112 0.549819 0 0
  phy
    0 -6.230950 12.792470 5.197977 0.074148 -0.993504 -0.086324 0 0
    0 -8.368212 12.792471 1.308383 0.044200 0.983420 -0.175873 0 0
    0 25.534313 12.792472 1.133777 0.311288 -0.775112 0.549819 0 0
  phy
    0 -8.368212 12.792471 1.308383 0.044200 0.983420 -0.175873 0 0
    0 -8.368215 78.299904 1.308385 -0.064061 0.982360 -0.175683 0 0
    0 25.445209 78.299904 -0.466922 -0.061642 0.998092 -0.003516 0 0
  phy
    0 -6.230953 78.299904 5.197980 -0.144614 -0.946711 -0.287792 0 0
    0 -8.368212 12.792471 1.308383 0.044200 0.983420 -0.175873 0 0
    0 -6.230950 12.792470 5.197977 0.074148 -0.993504 -0.086324 0 0
  phy
    0 -8.368212 12.792471 1.308383 0.044200 0.983420 -0.175873 0 0
    0 -6.230953 78.299904 5.197980 -0.144614 -0.946711 -0.287792 0 0
    0 -8.368215 78.299904 1.308385 -0.064061 0.982360 -0.175683 0 0
  phy
    0 15.085275 12.792470 5.198157 0.031082 -0.981858 0.187053 0 0
    0 15.085273 78.299904 5.198160 -0.039718 -0.996438 0.074389 0 0
    0 -6.230950 12.792470 5.197977 0.074148 -0.993504 -0.086324 0 0
  phy
    0 15.085273 78.299904 5.198160 -0.039718 -0.996438 0.074389 0 0
    0 -6.230953 78.299904 5.197980 -0.144614 -0.946711 -0.287792 0 0
    0 -6.230950 12.792470 5.197977 0.074148 -0.993504 -0.086324 0 0
  phy
    0 15.085275 12.792470 5.198157 0.031082 -0.981858 0.187053 0 0
    0 25.534313 12.792472 1.133777 0.311288 -0.775112 0.549819 0 0
    0 25.405919 78.299904 1.244604 -0.011355 -0.905814 0.423523 0 0
  phy
    0 25.405919 78.299904 1.244604 -0.011355 -0.905814 0.423523 0 0
    0 15.085273 78.299904 5.198160 -0.039718 -0.996438 0.074389 0 0
    0 15.085275 12.792470 5.198157 0.031082 -0.981858 0.187053 0 0
  phy
    0 15.085273 78.299904 5.198160 -0.039718 -0.996438 0.074389 0 0
    0 25.405919 78.299904 1.244604 -0.011355 -0.905814 0.423523 0 0
    0 25.445209 78.299904 -0.466922 -0.061642 0.998092 -0.003516 0 0
  phy
    0 15.085273 78.299904 5.198160 -0.039718 -0.996438 0.074389 0 0
    0 25.445209 78.299904 -0.466922 -0.061642 0.998092 -0.003516 0 0
    0 -6.230953 78.299904 5.197980 -0.144614 -0.946711 -0.287792 0 0
  phy
    0 -6.230953 78.299904 5.197980 -0.144614 -0.946711 -0.287792 0 0
    0 25.445209 78.299904 -0.466922 -0.061642 0.998092 -0.003516 0 0
    0 -8.368215 78.299904 1.308385 -0.064061 0.982360 -0.175683 0 0
  phy
    0 25.534313 12.792472 1.133777 0.311288 -0.775112 0.549819 0 0
    0 25.445209 78.299904 -0.466922 -0.061642 0.998092 -0.003516 0 0
    0 25.405919 78.299904 1.244604 -0.011355 -0.905814 0.423523 0 0
end
