// Created by Crowbar 0.74
version 1
nodes
  0 "static_prop" -1
end
skeleton
  time 0
    0 0.000000 0.000000 0.000000 0.000000 0.000000 0.000000
end
triangles
  phy
    0 -31.191296 -46.672840 421.598389 0.059032 0.213081 0.975249 0 0
    0 -33.601727 -46.672840 421.598389 -0.050008 0.561217 -0.826156 0 0
    0 -31.191298 3.897685 429.652845 -0.118667 0.158360 0.980225 0 0
  phy
    0 -31.191298 3.897685 429.652845 -0.118667 0.158360 0.980225 0 0
    0 -33.601727 -46.672840 421.598389 -0.050008 0.561217 -0.826156 0 0
    0 -33.601729 3.897685 429.652845 -0.060224 0.080370 -0.994944 0 0
  phy
    0 -33.601729 3.897685 429.652845 -0.060224 0.080370 -0.994944 0 0
    0 -33.601729 -35.924182 429.652845 0.095935 -0.602337 -0.792456 0 0
    0 -31.191298 3.897685 429.652845 -0.118667 0.158360 0.980225 0 0
  phy
    0 -33.601729 -35.924182 429.652845 0.095935 -0.602337 -0.792456 0 0
    0 -31.191296 -35.924182 429.652845 0.056492 -0.354687 0.933277 0 0
    0 -31.191298 3.897685 429.652845 -0.118667 0.158360 0.980225 0 0
  phy
    0 -31.191298 3.897685 429.652845 -0.118667 0.158360 0.980225 0 0
    0 -31.191296 -35.924182 429.652845 0.056492 -0.354687 0.933277 0 0
    0 -31.191296 -46.672840 421.598389 0.059032 0.213081 0.975249 0 0
  phy
    0 -31.191296 -35.924182 429.652845 0.056492 -0.354687 0.933277 0 0
    0 -33.601729 -35.924182 429.652845 0.095935 -0.602337 -0.792456 0 0
    0 -31.191296 -46.672840 421.598389 0.059032 0.213081 0.975249 0 0
  phy
    0 -33.601729 -35.924182 429.652845 0.095935 -0.602337 -0.792456 0 0
    0 -33.601727 -46.672840 421.598389 -0.050008 0.561217 -0.826156 0 0
    0 -31.191296 -46.672840 421.598389 0.059032 0.213081 0.975249 0 0
  phy
    0 -33.601727 -46.672840 421.598389 -0.050008 0.561217 -0.826156 0 0
    0 -33.601729 -35.924182 429.652845 0.095935 -0.602337 -0.792456 0 0
    0 -33.601729 3.897685 429.652845 -0.060224 0.080370 -0.994944 0 0
  phy
    0 -33.601759 3.897685 432.063275 -0.059278 0.079936 -0.995036 0 0
    0 -33.601757 -48.377275 423.302838 -0.050327 0.532749 -0.844775 0 0
    0 -33.601759 -36.564014 432.063275 0.096652 -0.576737 -0.811192 0 0
  phy
    0 -33.601757 -48.377275 423.302838 -0.050327 0.532749 -0.844775 0 0
    0 -33.601759 3.897685 432.063275 -0.059278 0.079936 -0.995036 0 0
    0 -31.191298 3.897685 432.063275 -0.116833 0.157547 0.980576 0 0
  phy
    0 -33.601759 -36.564014 432.063275 0.096652 -0.576737 -0.811192 0 0
    0 -31.191298 3.897685 432.063275 -0.116833 0.157547 0.980576 0 0
    0 -33.601759 3.897685 432.063275 -0.059278 0.079936 -0.995036 0 0
  phy
    0 -33.601757 -48.377275 423.302838 -0.050327 0.532749 -0.844775 0 0
    0 -31.191296 -48.377275 423.302838 0.058375 0.190898 0.979873 0 0
    0 -33.601759 -36.564014 432.063275 0.096652 -0.576737 -0.811192 0 0
  phy
    0 -31.191296 -48.377275 423.302838 0.058375 0.190898 0.979873 0 0
    0 -33.601757 -48.377275 423.302838 -0.050327 0.532749 -0.844775 0 0
    0 -31.191298 3.897685 432.063275 -0.116833 0.157547 0.980576 0 0
  phy
    0 -33.601759 -36.564014 432.063275 0.096652 -0.576737 -0.811192 0 0
    0 -31.191296 -48.377275 423.302838 0.058375 0.190898 0.979873 0 0
    0 -31.191296 -36.564014 432.063275 0.056044 -0.334426 0.940754 0 0
  phy
    0 -31.191296 -36.564014 432.063275 0.056044 -0.334426 0.940754 0 0
    0 -31.191298 3.897685 432.063275 -0.116833 0.157547 0.980576 0 0
    0 -33.601759 -36.564014 432.063275 0.096652 -0.576737 -0.811192 0 0
  phy
    0 -31.191296 -48.377275 423.302838 0.058375 0.190898 0.979873 0 0
    0 -31.191298 3.897685 432.063275 -0.116833 0.157547 0.980576 0 0
    0 -31.191296 -36.564014 432.063275 0.056044 -0.334426 0.940754 0 0
  phy
    0 -77.562684 -46.672812 421.598389 0.000000 0.513569 0.858048 0 0
    0 -79.973110 -35.924156 429.652845 0.097162 -0.603399 -0.791498 0 0
    0 -79.973110 -46.672812 421.598389 0.000000 0.286703 -0.958020 0 0
  phy
    0 -77.562684 -46.672812 421.598389 0.000000 0.513569 0.858048 0 0
    0 -77.562684 -35.924156 429.652845 0.057259 -0.355593 0.932885 0 0
    0 -79.973110 -35.924156 429.652845 0.097162 -0.603399 -0.791498 0 0
  phy
    0 -77.562684 3.347482 429.652845 -0.059870 -0.212017 0.975430 0 0
    0 -79.973110 -35.924156 429.652845 0.097162 -0.603399 -0.791498 0 0
    0 -77.562684 -35.924156 429.652845 0.057259 -0.355593 0.932885 0 0
  phy
    0 -77.562684 3.347482 429.652845 -0.059870 -0.212017 0.975430 0 0
    0 -79.973110 3.347482 429.652845 -0.110708 0.417631 -0.901847 0 0
    0 -79.973110 -35.924156 429.652845 0.097162 -0.603399 -0.791498 0 0
  phy
    0 -77.562684 -46.672812 421.598389 0.000000 0.513569 0.858048 0 0
    0 -77.562684 3.347482 429.652845 -0.059870 -0.212017 0.975430 0 0
    0 -77.562684 -35.924156 429.652845 0.057259 -0.355593 0.932885 0 0
  phy
    0 -79.973110 3.347482 429.652845 -0.110708 0.417631 -0.901847 0 0
    0 -79.973110 -46.672812 421.598389 0.000000 0.286703 -0.958020 0 0
    0 -79.973110 -35.924156 429.652845 0.097162 -0.603399 -0.791498 0 0
  phy
    0 -79.973110 -46.672812 421.598389 0.000000 0.286703 -0.958020 0 0
    0 -79.973110 3.347482 429.652845 -0.110708 0.417631 -0.901847 0 0
    0 -77.562684 -46.672812 421.598389 0.000000 0.513569 0.858048 0 0
  phy
    0 -77.562684 -46.672812 421.598389 0.000000 0.513569 0.858048 0 0
    0 -79.973110 3.347482 429.652845 -0.110708 0.417631 -0.901847 0 0
    0 -77.562684 3.347482 429.652845 -0.059870 -0.212017 0.975430 0 0
  phy
    0 -77.562684 -48.377251 423.302838 0.059189 0.189843 0.980029 0 0
    0 -79.973148 -48.377251 423.302838 -0.050993 0.533401 -0.844324 0 0
    0 -77.562684 3.347482 432.063275 -0.109970 0.398798 0.910421 0 0
  phy
    0 -77.562684 3.347482 432.063275 -0.109970 0.398798 0.910421 0 0
    0 -79.973148 -48.377251 423.302838 -0.050993 0.533401 -0.844324 0 0
    0 -79.973148 3.347482 432.063275 -0.059189 -0.189843 -0.980029 0 0
  phy
    0 -79.973148 3.347482 432.063275 -0.059189 -0.189843 -0.980029 0 0
    0 -77.562684 -36.563988 432.063275 0.050993 -0.533401 0.844324 0 0
    0 -77.562684 3.347482 432.063275 -0.109970 0.398798 0.910421 0 0
  phy
    0 -79.973148 3.347482 432.063275 -0.059189 -0.189843 -0.980029 0 0
    0 -79.973148 -36.563988 432.063275 0.109970 -0.398798 -0.910421 0 0
    0 -77.562684 -36.563988 432.063275 0.050993 -0.533401 0.844324 0 0
  phy
    0 -77.562684 -36.563988 432.063275 0.050993 -0.533401 0.844324 0 0
    0 -77.562684 -48.377251 423.302838 0.059189 0.189843 0.980029 0 0
    0 -77.562684 3.347482 432.063275 -0.109970 0.398798 0.910421 0 0
  phy
    0 -77.562684 -36.563988 432.063275 0.050993 -0.533401 0.844324 0 0
    0 -79.973148 -36.563988 432.063275 0.109970 -0.398798 -0.910421 0 0
    0 -77.562684 -48.377251 423.302838 0.059189 0.189843 0.980029 0 0
  phy
    0 -79.973148 -36.563988 432.063275 0.109970 -0.398798 -0.910421 0 0
    0 -79.973148 -48.377251 423.302838 -0.050993 0.533401 -0.844324 0 0
    0 -77.562684 -48.377251 423.302838 0.059189 0.189843 0.980029 0 0
  phy
    0 -79.973148 -48.377251 423.302838 -0.050993 0.533401 -0.844324 0 0
    0 -79.973148 -36.563988 432.063275 0.109970 -0.398798 -0.910421 0 0
    0 -79.973148 3.347482 432.063275 -0.059189 -0.189843 -0.980029 0 0
  phy
    0 -79.973148 -36.564014 432.063275 0.121584 -0.984442 -0.126850 0 0
    0 -80.916290 74.973646 432.063275 -0.011424 -0.016080 -0.999805 0 0
    0 -80.916290 66.209088 432.063275 0.008557 -0.012833 -0.999881 0 0
  phy
    0 -79.973148 -36.564014 432.063275 0.121584 -0.984442 -0.126850 0 0
    0 -80.395158 75.931249 432.063275 -0.007082 -0.999975 -0.000131 0 0
    0 -80.916290 74.973646 432.063275 -0.011424 -0.016080 -0.999805 0 0
  phy
    0 -79.973148 -36.564014 432.063275 0.121584 -0.984442 -0.126850 0 0
    0 -30.100796 -33.599849 432.063275 0.036826 -0.713217 0.699975 0 0
    0 -80.395158 75.931249 432.063275 -0.007082 -0.999975 -0.000131 0 0
  phy
    0 -79.973148 -36.564014 432.063275 0.121584 -0.984442 -0.126850 0 0
    0 -31.191296 -36.564014 432.063275 0.511374 -0.858821 0.030394 0 0
    0 -30.100796 -33.599849 432.063275 0.036826 -0.713217 0.699975 0 0
  phy
    0 -30.100796 -33.599849 432.063275 0.036826 -0.713217 0.699975 0 0
    0 -29.567292 75.927048 432.063275 -0.007638 -0.586911 0.809616 0 0
    0 -80.395158 75.931249 432.063275 -0.007082 -0.999975 -0.000131 0 0
  phy
    0 -80.916290 -0.067891 382.913830 0.006838 -0.001844 -0.999975 0 0
    0 -80.916290 66.209088 432.063275 0.008557 -0.012833 -0.999881 0 0
    0 -80.916290 74.973646 432.063275 -0.011424 -0.016080 -0.999805 0 0
  phy
    0 -80.916290 -0.067891 382.913830 0.006838 -0.001844 -0.999975 0 0
    0 -80.916290 74.973646 432.063275 -0.011424 -0.016080 -0.999805 0 0
    0 -80.916290 76.902631 382.913717 -0.799758 -0.000060 -0.600322 0 0
  phy
    0 -80.916290 -0.067891 382.913830 0.006838 -0.001844 -0.999975 0 0
    0 -80.916290 76.902631 382.913717 -0.799758 -0.000060 -0.600322 0 0
    0 -80.916290 -0.067883 186.287268 0.347429 0.232582 -0.908404 0 0
  phy
    0 -80.916290 -0.067883 186.287268 0.347429 0.232582 -0.908404 0 0
    0 -80.916290 76.902631 382.913717 -0.799758 -0.000060 -0.600322 0 0
    0 -80.916290 76.902631 186.287268 -0.886278 0.206202 -0.414718 0 0
  phy
    0 -80.916290 66.209088 432.063275 0.008557 -0.012833 -0.999881 0 0
    0 -80.916290 -0.067891 382.913830 0.006838 -0.001844 -0.999975 0 0
    0 -79.973148 -48.377260 423.302838 0.897256 0.134832 -0.420418 0 0
  phy
    0 -79.973148 -36.564014 432.063275 0.121584 -0.984442 -0.126850 0 0
    0 -80.916290 66.209088 432.063275 0.008557 -0.012833 -0.999881 0 0
    0 -79.973148 -48.377260 423.302838 0.897256 0.134832 -0.420418 0 0
  phy
    0 -31.191296 -48.377275 423.302838 0.971161 0.033113 0.236113 0 0
    0 -79.973148 -36.564014 432.063275 0.121584 -0.984442 -0.126850 0 0
    0 -79.973148 -48.377260 423.302838 0.897256 0.134832 -0.420418 0 0
  phy
    0 -31.191296 -48.377275 423.302838 0.971161 0.033113 0.236113 0 0
    0 -31.191296 -36.564014 432.063275 0.511374 -0.858821 0.030394 0 0
    0 -79.973148 -36.564014 432.063275 0.121584 -0.984442 -0.126850 0 0
  phy
    0 -31.191296 -36.564014 432.063275 0.511374 -0.858821 0.030394 0 0
    0 -31.191296 -48.377275 423.302838 0.971161 0.033113 0.236113 0 0
    0 -30.100796 -33.599849 432.063275 0.036826 -0.713217 0.699975 0 0
  phy
    0 -30.100796 -33.599849 432.063275 0.036826 -0.713217 0.699975 0 0
    0 -31.191296 -48.377275 423.302838 0.971161 0.033113 0.236113 0 0
    0 79.821170 3.510729 237.978838 0.121596 -0.408395 0.904670 0 0
  phy
    0 79.821170 3.510729 237.978838 0.121596 -0.408395 0.904670 0 0
    0 -29.567292 75.927048 432.063275 -0.007638 -0.586911 0.809616 0 0
    0 -30.100796 -33.599849 432.063275 0.036826 -0.713217 0.699975 0 0
  phy
    0 -79.973148 -48.377260 423.302838 0.897256 0.134832 -0.420418 0 0
    0 -80.916290 -0.067891 382.913830 0.006838 -0.001844 -0.999975 0 0
    0 -80.916290 -0.067883 186.287268 0.347429 0.232582 -0.908404 0 0
  phy
    0 79.821170 3.510729 237.978838 0.121596 -0.408395 0.904670 0 0
    0 80.532774 76.902640 189.737391 -0.826501 -0.018055 0.562646 0 0
    0 79.811718 75.930873 238.619433 -0.270968 -0.399082 0.875962 0 0
  phy
    0 79.821170 3.510729 237.978838 0.121596 -0.408395 0.904670 0 0
    0 80.532774 -0.067876 189.737391 0.607803 -0.052985 0.792318 0 0
    0 80.532774 76.902640 189.737391 -0.826501 -0.018055 0.562646 0 0
  phy
    0 79.811718 75.930873 238.619433 -0.270968 -0.399082 0.875962 0 0
    0 80.532774 76.902640 189.737391 -0.826501 -0.018055 0.562646 0 0
    0 -30.494663 76.574927 430.506909 -0.999117 -0.022291 0.035626 0 0
  phy
    0 79.811718 75.930873 238.619433 -0.270968 -0.399082 0.875962 0 0
    0 -30.494663 76.574927 430.506909 -0.999117 -0.022291 0.035626 0 0
    0 -29.567292 75.927048 432.063275 -0.007638 -0.586911 0.809616 0 0
  phy
    0 79.811718 75.930873 238.619433 -0.270968 -0.399082 0.875962 0 0
    0 -29.567292 75.927048 432.063275 -0.007638 -0.586911 0.809616 0 0
    0 79.821170 3.510729 237.978838 0.121596 -0.408395 0.904670 0 0
  phy
    0 -80.916290 76.902631 382.913717 -0.799758 -0.000060 -0.600322 0 0
    0 -55.813616 76.902631 430.043063 -0.999989 -0.002734 0.003741 0 0
    0 80.532774 76.902640 186.287268 -0.952198 0.141663 0.270648 0 0
  phy
    0 -55.813616 76.902631 430.043063 -0.999989 -0.002734 0.003741 0 0
    0 80.532774 76.902640 189.737391 -0.826501 -0.018055 0.562646 0 0
    0 80.532774 76.902640 186.287268 -0.952198 0.141663 0.270648 0 0
  phy
    0 -55.813616 76.902631 430.043063 -0.999989 -0.002734 0.003741 0 0
    0 -80.916290 76.902631 382.913717 -0.799758 -0.000060 -0.600322 0 0
    0 -79.932157 76.843115 430.506909 -0.995582 -0.065793 -0.066996 0 0
  phy
    0 80.532774 76.902640 189.737391 -0.826501 -0.018055 0.562646 0 0
    0 -55.813616 76.902631 430.043063 -0.999989 -0.002734 0.003741 0 0
    0 -30.494663 76.574927 430.506909 -0.999117 -0.022291 0.035626 0 0
  phy
    0 -30.494663 76.574927 430.506909 -0.999117 -0.022291 0.035626 0 0
    0 -55.813616 76.902631 430.043063 -0.999989 -0.002734 0.003741 0 0
    0 -79.932157 76.843115 430.506909 -0.995582 -0.065793 -0.066996 0 0
  phy
    0 -80.916290 74.973646 432.063275 -0.011424 -0.016080 -0.999805 0 0
    0 -80.395158 75.931249 432.063275 -0.007082 -0.999975 -0.000131 0 0
    0 -79.932157 76.843115 430.506909 -0.995582 -0.065793 -0.066996 0 0
  phy
    0 -80.395158 75.931249 432.063275 -0.007082 -0.999975 -0.000131 0 0
    0 -29.567292 75.927048 432.063275 -0.007638 -0.586911 0.809616 0 0
    0 -79.932157 76.843115 430.506909 -0.995582 -0.065793 -0.066996 0 0
  phy
    0 34.890564 4.098631 -0.634232 0.870861 0.172754 0.460170 0 0
    0 -31.191296 -48.377275 423.302838 0.971161 0.033113 0.236113 0 0
    0 -79.973148 -48.377260 423.302838 0.897256 0.134832 -0.420418 0 0
  phy
    0 28.649430 4.098634 -0.634232 0.851222 0.294612 -0.434310 0 0
    0 34.890564 4.098631 -0.634232 0.870861 0.172754 0.460170 0 0
    0 -79.973148 -48.377260 423.302838 0.897256 0.134832 -0.420418 0 0
  phy
    0 -79.973148 -48.377260 423.302838 0.897256 0.134832 -0.420418 0 0
    0 -80.916290 -0.067883 186.287268 0.347429 0.232582 -0.908404 0 0
    0 28.649430 4.098634 -0.634232 0.851222 0.294612 -0.434310 0 0
  phy
    0 -80.916290 76.902631 186.287268 -0.886278 0.206202 -0.414718 0 0
    0 -80.916290 76.902631 382.913717 -0.799758 -0.000060 -0.600322 0 0
    0 80.532774 76.902640 186.287268 -0.952198 0.141663 0.270648 0 0
  phy
    0 -80.916290 76.902631 382.913717 -0.799758 -0.000060 -0.600322 0 0
    0 -80.916290 74.973646 432.063275 -0.011424 -0.016080 -0.999805 0 0
    0 -79.932157 76.843115 430.506909 -0.995582 -0.065793 -0.066996 0 0
  phy
    0 28.649430 4.098634 -0.634232 0.851222 0.294612 -0.434310 0 0
    0 28.649428 39.659912 -0.634230 -0.047341 0.518781 -0.853595 0 0
    0 34.890564 39.659912 -0.634230 -0.946902 0.251105 0.200805 0 0
  phy
    0 28.649430 4.098634 -0.634232 0.851222 0.294612 -0.434310 0 0
    0 34.890564 39.659912 -0.634230 -0.946902 0.251105 0.200805 0 0
    0 34.890564 4.098631 -0.634232 0.870861 0.172754 0.460170 0 0
  phy
    0 28.649428 39.659912 -0.634230 -0.047341 0.518781 -0.853595 0 0
    0 28.649430 4.098634 -0.634232 0.851222 0.294612 -0.434310 0 0
    0 -80.916290 -0.067883 186.287268 0.347429 0.232582 -0.908404 0 0
  phy
    0 79.821170 3.510729 237.978838 0.121596 -0.408395 0.904670 0 0
    0 -31.191296 -48.377275 423.302838 0.971161 0.033113 0.236113 0 0
    0 80.532774 -0.067876 189.737391 0.607803 -0.052985 0.792318 0 0
  phy
    0 80.532774 -0.067876 189.737391 0.607803 -0.052985 0.792318 0 0
    0 80.532774 -0.067876 186.287268 0.801498 0.154458 0.577706 0 0
    0 80.532774 76.902640 189.737391 -0.826501 -0.018055 0.562646 0 0
  phy
    0 80.532774 -0.067876 186.287268 0.801498 0.154458 0.577706 0 0
    0 80.532774 76.902640 186.287268 -0.952198 0.141663 0.270648 0 0
    0 80.532774 76.902640 189.737391 -0.826501 -0.018055 0.562646 0 0
  phy
    0 -29.567292 75.927048 432.063275 -0.007638 -0.586911 0.809616 0 0
    0 -30.494663 76.574927 430.506909 -0.999117 -0.022291 0.035626 0 0
    0 -79.932157 76.843115 430.506909 -0.995582 -0.065793 -0.066996 0 0
  phy
    0 28.649428 39.659912 -0.634230 -0.047341 0.518781 -0.853595 0 0
    0 -80.916290 76.902631 186.287268 -0.886278 0.206202 -0.414718 0 0
    0 34.890564 39.659912 -0.634230 -0.946902 0.251105 0.200805 0 0
  phy
    0 34.890564 39.659912 -0.634230 -0.946902 0.251105 0.200805 0 0
    0 -80.916290 76.902631 186.287268 -0.886278 0.206202 -0.414718 0 0
    0 80.532774 76.902640 186.287268 -0.952198 0.141663 0.270648 0 0
  phy
    0 28.649428 39.659912 -0.634230 -0.047341 0.518781 -0.853595 0 0
    0 -80.916290 -0.067883 186.287268 0.347429 0.232582 -0.908404 0 0
    0 -80.916290 76.902631 186.287268 -0.886278 0.206202 -0.414718 0 0
  phy
    0 80.532774 76.902640 186.287268 -0.952198 0.141663 0.270648 0 0
    0 34.890564 4.098631 -0.634232 0.870861 0.172754 0.460170 0 0
    0 34.890564 39.659912 -0.634230 -0.946902 0.251105 0.200805 0 0
  phy
    0 80.532774 76.902640 186.287268 -0.952198 0.141663 0.270648 0 0
    0 80.532774 -0.067876 186.287268 0.801498 0.154458 0.577706 0 0
    0 34.890564 4.098631 -0.634232 0.870861 0.172754 0.460170 0 0
  phy
    0 80.532774 -0.067876 189.737391 0.607803 -0.052985 0.792318 0 0
    0 -31.191296 -48.377275 423.302838 0.971161 0.033113 0.236113 0 0
    0 80.532774 -0.067876 186.287268 0.801498 0.154458 0.577706 0 0
  phy
    0 80.532774 -0.067876 186.287268 0.801498 0.154458 0.577706 0 0
    0 -31.191296 -48.377275 423.302838 0.971161 0.033113 0.236113 0 0
    0 34.890564 4.098631 -0.634232 0.870861 0.172754 0.460170 0 0
end
