version 1
nodes
0 "bip_hand_R" -1
1 "pistol" 0
end
skeleton
time 0
0  0.000000 0.000000 0.000000  -1.570796 1.570796 0.000000
1  -3.341392 -1.879805 -0.946303  -0.002574 -0.211876 0.005296
end
triangles
  phy
0  3.314693 6.906300 2.945404  -0.049513 0.559240 -0.827526  0.000000 0.000000 1 0 1.000000
0  2.499806 6.789362 6.915459  0.229486 0.875595 -0.425053  0.000000 0.000000 1 0 1.000000
0  3.317769 5.997023 7.119534  0.391831 0.483442 -0.782785  0.000000 0.000000 1 0 1.000000
  phy
0  2.497261 7.541717 3.461699  0.173158 0.965219 -0.195879  0.000000 0.000000 1 0 1.000000
0  2.499806 6.789362 6.915459  0.229486 0.875595 -0.425053  0.000000 0.000000 1 0 1.000000
0  3.314693 6.906300 2.945404  -0.049513 0.559240 -0.827526  0.000000 0.000000 1 0 1.000000
  phy
0  3.317769 5.997023 7.119534  0.391831 0.483442 -0.782785  0.000000 0.000000 1 0 1.000000
0  3.561344 5.010033 6.946978  0.287198 -0.159639 -0.944475  0.000000 0.000000 1 0 1.000000
0  3.314693 6.906300 2.945404  -0.049513 0.559240 -0.827526  0.000000 0.000000 1 0 1.000000
  phy
0  3.561344 5.010033 6.946978  0.287198 -0.159639 -0.944475  0.000000 0.000000 1 0 1.000000
0  3.558208 5.937039 2.691458  -0.501390 -0.012175 -0.865136  0.000000 0.000000 1 0 1.000000
0  3.314693 6.906300 2.945404  -0.049513 0.559240 -0.827526  0.000000 0.000000 1 0 1.000000
  phy
0  1.759320 7.634678 3.023478  -0.463864 0.885906 -0.000024  0.000000 0.000000 1 0 1.000000
0  2.497261 7.541717 3.461699  0.173158 0.965219 -0.195879  0.000000 0.000000 1 0 1.000000
0  3.314693 6.906300 2.945404  -0.049513 0.559240 -0.827526  0.000000 0.000000 1 0 1.000000
  phy
0  3.314693 6.906300 2.945404  -0.049513 0.559240 -0.827526  0.000000 0.000000 1 0 1.000000
0  1.761263 7.060480 2.213508  -0.871004 0.491276 -0.000052  0.000000 0.000000 1 0 1.000000
0  1.759320 7.634678 3.023478  -0.463864 0.885906 -0.000024  0.000000 0.000000 1 0 1.000000
  phy
0  1.761263 7.060480 2.213508  -0.871004 0.491276 -0.000052  0.000000 0.000000 1 0 1.000000
0  3.314693 6.906300 2.945404  -0.049513 0.559240 -0.827526  0.000000 0.000000 1 0 1.000000
0  3.558208 5.937039 2.691458  -0.501390 -0.012175 -0.865136  0.000000 0.000000 1 0 1.000000
  phy
0  1.759320 7.634678 3.023478  -0.463864 0.885906 -0.000024  0.000000 0.000000 1 0 1.000000
0  1.761263 7.060480 2.213508  -0.871004 0.491276 -0.000052  0.000000 0.000000 1 0 1.000000
0  0.208911 6.895792 2.945404  -0.100001 0.509577 0.854594  0.000000 0.000000 1 0 1.000000
  phy
0  0.208911 6.895792 2.945404  -0.100001 0.509577 0.854594  0.000000 0.000000 1 0 1.000000
0  1.022022 7.536723 3.461697  0.155412 0.891653 0.425207  0.000000 0.000000 1 0 1.000000
0  1.759320 7.634678 3.023478  -0.463864 0.885906 -0.000024  0.000000 0.000000 1 0 1.000000
  phy
0  1.759320 7.634678 3.023478  -0.463864 0.885906 -0.000024  0.000000 0.000000 1 0 1.000000
0  1.022022 7.536723 3.461697  0.155412 0.891653 0.425207  0.000000 0.000000 1 0 1.000000
0  2.497261 7.541717 3.461699  0.173158 0.965219 -0.195879  0.000000 0.000000 1 0 1.000000
  phy
0  1.271430 4.054298 3.625409  -0.488268 -0.859004 0.153971  0.000000 0.000000 1 0 1.000000
0  2.271423 4.057680 3.625412  -0.395443 -0.912986 -0.100411  0.000000 0.000000 1 0 1.000000
0  0.772057 3.868279 4.471591  -0.197016 -0.904886 0.377315  0.000000 0.000000 1 0 1.000000
  phy
0  1.271430 4.054298 3.625409  -0.488268 -0.859004 0.153971  0.000000 0.000000 1 0 1.000000
0  0.772057 3.868279 4.471591  -0.197016 -0.904886 0.377315  0.000000 0.000000 1 0 1.000000
0  0.348328 4.885130 2.763273  -0.291480 -0.520558 0.802533  0.000000 0.000000 1 0 1.000000
  phy
0  1.271430 4.054298 3.625409  -0.488268 -0.859004 0.153971  0.000000 0.000000 1 0 1.000000
0  1.768130 5.030703 2.117073  -0.851611 -0.524175 -0.000038  0.000000 0.000000 1 0 1.000000
0  2.271423 4.057680 3.625412  -0.395443 -0.912986 -0.100411  0.000000 0.000000 1 0 1.000000
  phy
0  1.768130 5.030703 2.117073  -0.851611 -0.524175 -0.000038  0.000000 0.000000 1 0 1.000000
0  1.271430 4.054298 3.625409  -0.488268 -0.859004 0.153971  0.000000 0.000000 1 0 1.000000
0  0.348328 4.885130 2.763273  -0.291480 -0.520558 0.802533  0.000000 0.000000 1 0 1.000000
  phy
0  1.024568 6.784368 6.915460  0.244040 0.949745 0.196034  0.000000 0.000000 1 0 1.000000
0  2.497261 7.541717 3.461699  0.173158 0.965219 -0.195879  0.000000 0.000000 1 0 1.000000
0  1.022022 7.536723 3.461697  0.155412 0.891653 0.425207  0.000000 0.000000 1 0 1.000000
  phy
0  1.024568 6.784368 6.915460  0.244040 0.949745 0.196034  0.000000 0.000000 1 0 1.000000
0  2.499806 6.789362 6.915459  0.229486 0.875595 -0.425053  0.000000 0.000000 1 0 1.000000
0  2.497261 7.541717 3.461699  0.173158 0.965219 -0.195879  0.000000 0.000000 1 0 1.000000
  phy
0  1.024568 6.784368 6.915460  0.244040 0.949745 0.196034  0.000000 0.000000 1 0 1.000000
0  1.762517 6.689630 7.361828  0.790251 0.612783 0.000035  0.000000 0.000000 1 0 1.000000
0  2.499806 6.789362 6.915459  0.229486 0.875595 -0.425053  0.000000 0.000000 1 0 1.000000
  phy
0  3.317769 5.997023 7.119534  0.391831 0.483442 -0.782785  0.000000 0.000000 1 0 1.000000
0  2.499806 6.789362 6.915459  0.229486 0.875595 -0.425053  0.000000 0.000000 1 0 1.000000
0  1.762517 6.689630 7.361828  0.790251 0.612783 0.000035  0.000000 0.000000 1 0 1.000000
  phy
0  1.762517 6.689630 7.361828  0.790251 0.612783 0.000035  0.000000 0.000000 1 0 1.000000
0  1.765417 5.832336 7.851429  0.996641 0.081901 -0.000005  0.000000 0.000000 1 0 1.000000
0  3.317769 5.997023 7.119534  0.391831 0.483442 -0.782785  0.000000 0.000000 1 0 1.000000
  phy
0  1.762517 6.689630 7.361828  0.790251 0.612783 0.000035  0.000000 0.000000 1 0 1.000000
0  1.024568 6.784368 6.915460  0.244040 0.949745 0.196034  0.000000 0.000000 1 0 1.000000
0  0.211987 5.986516 7.119534  0.337090 0.551090 0.763328  0.000000 0.000000 1 0 1.000000
  phy
0  0.211987 5.986516 7.119534  0.337090 0.551090 0.763328  0.000000 0.000000 1 0 1.000000
0  1.765417 5.832336 7.851429  0.996641 0.081901 -0.000005  0.000000 0.000000 1 0 1.000000
0  1.762517 6.689630 7.361828  0.790251 0.612783 0.000035  0.000000 0.000000 1 0 1.000000
  phy
0  3.317769 5.997023 7.119534  0.391831 0.483442 -0.782785  0.000000 0.000000 1 0 1.000000
0  1.765417 5.832336 7.851429  0.996641 0.081901 -0.000005  0.000000 0.000000 1 0 1.000000
0  3.561344 5.010033 6.946978  0.287198 -0.159639 -0.944475  0.000000 0.000000 1 0 1.000000
  phy
0  2.772044 3.875042 4.471597  -0.175600 -0.805690 -0.565711  0.000000 0.000000 1 0 1.000000
0  3.191601 4.091930 6.448664  0.100054 -0.686345 -0.720361  0.000000 0.000000 1 0 1.000000
0  2.272671 3.689024 5.317770  -0.020115 -0.994746 -0.100381  0.000000 0.000000 1 0 1.000000
  phy
0  2.271423 4.057680 3.625412  -0.395443 -0.912986 -0.100411  0.000000 0.000000 1 0 1.000000
0  2.772044 3.875042 4.471597  -0.175600 -0.805690 -0.565711  0.000000 0.000000 1 0 1.000000
0  2.272671 3.689024 5.317770  -0.020115 -0.994746 -0.100381  0.000000 0.000000 1 0 1.000000
  phy
0  2.772044 3.875042 4.471597  -0.175600 -0.805690 -0.565711  0.000000 0.000000 1 0 1.000000
0  3.188885 4.894741 2.763273  -0.291525 -0.520623 -0.802474  0.000000 0.000000 1 0 1.000000
0  3.191601 4.091930 6.448664  0.100054 -0.686345 -0.720361  0.000000 0.000000 1 0 1.000000
  phy
0  2.772044 3.875042 4.471597  -0.175600 -0.805690 -0.565711  0.000000 0.000000 1 0 1.000000
0  2.271423 4.057680 3.625412  -0.395443 -0.912986 -0.100411  0.000000 0.000000 1 0 1.000000
0  3.188885 4.894741 2.763273  -0.291525 -0.520623 -0.802474  0.000000 0.000000 1 0 1.000000
  phy
0  3.188885 4.894741 2.763273  -0.291525 -0.520623 -0.802474  0.000000 0.000000 1 0 1.000000
0  1.768130 5.030703 2.117073  -0.851611 -0.524175 -0.000038  0.000000 0.000000 1 0 1.000000
0  3.558208 5.937039 2.691458  -0.501390 -0.012175 -0.865136  0.000000 0.000000 1 0 1.000000
  phy
0  3.558208 5.937039 2.691458  -0.501390 -0.012175 -0.865136  0.000000 0.000000 1 0 1.000000
0  1.768130 5.030703 2.117073  -0.851611 -0.524175 -0.000038  0.000000 0.000000 1 0 1.000000
0  1.764534 6.093515 1.945292  -0.998869 0.047543 0.000013  0.000000 0.000000 1 0 1.000000
  phy
0  -0.028039 5.924906 2.691458  -0.501370 -0.012134 0.865148  0.000000 0.000000 1 0 1.000000
0  1.768130 5.030703 2.117073  -0.851611 -0.524175 -0.000038  0.000000 0.000000 1 0 1.000000
0  0.348328 4.885130 2.763273  -0.291480 -0.520558 0.802533  0.000000 0.000000 1 0 1.000000
  phy
0  1.768130 5.030703 2.117073  -0.851611 -0.524175 -0.000038  0.000000 0.000000 1 0 1.000000
0  -0.028039 5.924906 2.691458  -0.501370 -0.012134 0.865148  0.000000 0.000000 1 0 1.000000
0  1.764534 6.093515 1.945292  -0.998869 0.047543 0.000013  0.000000 0.000000 1 0 1.000000
  phy
0  2.271423 4.057680 3.625412  -0.395443 -0.912986 -0.100411  0.000000 0.000000 1 0 1.000000
0  1.768130 5.030703 2.117073  -0.851611 -0.524175 -0.000038  0.000000 0.000000 1 0 1.000000
0  3.188885 4.894741 2.763273  -0.291525 -0.520623 -0.802474  0.000000 0.000000 1 0 1.000000
  phy
0  0.351043 4.082320 6.448663  0.100150 -0.686197 0.720489  0.000000 0.000000 1 0 1.000000
0  1.272678 3.685641 5.317771  0.086595 -0.984300 0.153802  0.000000 0.000000 1 0 1.000000
0  1.771798 3.946360 7.094862  0.556425 -0.830898 -0.000083  0.000000 0.000000 1 0 1.000000
  phy
0  1.771798 3.946360 7.094862  0.556425 -0.830898 -0.000083  0.000000 0.000000 1 0 1.000000
0  1.272678 3.685641 5.317771  0.086595 -0.984300 0.153802  0.000000 0.000000 1 0 1.000000
0  2.272671 3.689024 5.317770  -0.020115 -0.994746 -0.100381  0.000000 0.000000 1 0 1.000000
  phy
0  1.272678 3.685641 5.317771  0.086595 -0.984300 0.153802  0.000000 0.000000 1 0 1.000000
0  0.351043 4.082320 6.448663  0.100150 -0.686197 0.720489  0.000000 0.000000 1 0 1.000000
0  0.772057 3.868279 4.471591  -0.197016 -0.904886 0.377315  0.000000 0.000000 1 0 1.000000
  phy
0  1.272678 3.685641 5.317771  0.086595 -0.984300 0.153802  0.000000 0.000000 1 0 1.000000
0  0.772057 3.868279 4.471591  -0.197016 -0.904886 0.377315  0.000000 0.000000 1 0 1.000000
0  2.272671 3.689024 5.317770  -0.020115 -0.994746 -0.100381  0.000000 0.000000 1 0 1.000000
  phy
0  3.191601 4.091930 6.448664  0.100054 -0.686345 -0.720361  0.000000 0.000000 1 0 1.000000
0  3.188885 4.894741 2.763273  -0.291525 -0.520623 -0.802474  0.000000 0.000000 1 0 1.000000
0  3.561344 5.010033 6.946978  0.287198 -0.159639 -0.944475  0.000000 0.000000 1 0 1.000000
  phy
0  3.561344 5.010033 6.946978  0.287198 -0.159639 -0.944475  0.000000 0.000000 1 0 1.000000
0  1.771798 3.946360 7.094862  0.556425 -0.830898 -0.000083  0.000000 0.000000 1 0 1.000000
0  3.191601 4.091930 6.448664  0.100054 -0.686345 -0.720361  0.000000 0.000000 1 0 1.000000
  phy
0  3.191601 4.091930 6.448664  0.100054 -0.686345 -0.720361  0.000000 0.000000 1 0 1.000000
0  1.771798 3.946360 7.094862  0.556425 -0.830898 -0.000083  0.000000 0.000000 1 0 1.000000
0  2.272671 3.689024 5.317770  -0.020115 -0.994746 -0.100381  0.000000 0.000000 1 0 1.000000
  phy
0  -0.024903 4.997900 6.946978  0.287215 -0.159527 0.944488  0.000000 0.000000 1 0 1.000000
0  1.765417 5.832336 7.851429  0.996641 0.081901 -0.000005  0.000000 0.000000 1 0 1.000000
0  0.211987 5.986516 7.119534  0.337090 0.551090 0.763328  0.000000 0.000000 1 0 1.000000
  phy
0  0.211987 5.986516 7.119534  0.337090 0.551090 0.763328  0.000000 0.000000 1 0 1.000000
0  0.208911 6.895792 2.945404  -0.100001 0.509577 0.854594  0.000000 0.000000 1 0 1.000000
0  -0.024903 4.997900 6.946978  0.287215 -0.159527 0.944488  0.000000 0.000000 1 0 1.000000
  phy
0  0.211987 5.986516 7.119534  0.337090 0.551090 0.763328  0.000000 0.000000 1 0 1.000000
0  1.022022 7.536723 3.461697  0.155412 0.891653 0.425207  0.000000 0.000000 1 0 1.000000
0  0.208911 6.895792 2.945404  -0.100001 0.509577 0.854594  0.000000 0.000000 1 0 1.000000
  phy
0  1.024568 6.784368 6.915460  0.244040 0.949745 0.196034  0.000000 0.000000 1 0 1.000000
0  1.022022 7.536723 3.461697  0.155412 0.891653 0.425207  0.000000 0.000000 1 0 1.000000
0  0.211987 5.986516 7.119534  0.337090 0.551090 0.763328  0.000000 0.000000 1 0 1.000000
  phy
0  -0.028039 5.924906 2.691458  -0.501370 -0.012134 0.865148  0.000000 0.000000 1 0 1.000000
0  0.208911 6.895792 2.945404  -0.100001 0.509577 0.854594  0.000000 0.000000 1 0 1.000000
0  1.761263 7.060480 2.213508  -0.871004 0.491276 -0.000052  0.000000 0.000000 1 0 1.000000
  phy
0  -0.028039 5.924906 2.691458  -0.501370 -0.012134 0.865148  0.000000 0.000000 1 0 1.000000
0  1.761263 7.060480 2.213508  -0.871004 0.491276 -0.000052  0.000000 0.000000 1 0 1.000000
0  1.764534 6.093515 1.945292  -0.998869 0.047543 0.000013  0.000000 0.000000 1 0 1.000000
  phy
0  0.208911 6.895792 2.945404  -0.100001 0.509577 0.854594  0.000000 0.000000 1 0 1.000000
0  -0.028039 5.924906 2.691458  -0.501370 -0.012134 0.865148  0.000000 0.000000 1 0 1.000000
0  -0.024903 4.997900 6.946978  0.287215 -0.159527 0.944488  0.000000 0.000000 1 0 1.000000
  phy
0  -0.028039 5.924906 2.691458  -0.501370 -0.012134 0.865148  0.000000 0.000000 1 0 1.000000
0  0.348328 4.885130 2.763273  -0.291480 -0.520558 0.802533  0.000000 0.000000 1 0 1.000000
0  -0.024903 4.997900 6.946978  0.287215 -0.159527 0.944488  0.000000 0.000000 1 0 1.000000
  phy
0  0.772057 3.868279 4.471591  -0.197016 -0.904886 0.377315  0.000000 0.000000 1 0 1.000000
0  2.271423 4.057680 3.625412  -0.395443 -0.912986 -0.100411  0.000000 0.000000 1 0 1.000000
0  2.272671 3.689024 5.317770  -0.020115 -0.994746 -0.100381  0.000000 0.000000 1 0 1.000000
  phy
0  1.771798 3.946360 7.094862  0.556425 -0.830898 -0.000083  0.000000 0.000000 1 0 1.000000
0  -0.024903 4.997900 6.946978  0.287215 -0.159527 0.944488  0.000000 0.000000 1 0 1.000000
0  0.351043 4.082320 6.448663  0.100150 -0.686197 0.720489  0.000000 0.000000 1 0 1.000000
  phy
0  0.772057 3.868279 4.471591  -0.197016 -0.904886 0.377315  0.000000 0.000000 1 0 1.000000
0  0.351043 4.082320 6.448663  0.100150 -0.686197 0.720489  0.000000 0.000000 1 0 1.000000
0  0.348328 4.885130 2.763273  -0.291480 -0.520558 0.802533  0.000000 0.000000 1 0 1.000000
  phy
0  0.348328 4.885130 2.763273  -0.291480 -0.520558 0.802533  0.000000 0.000000 1 0 1.000000
0  0.351043 4.082320 6.448663  0.100150 -0.686197 0.720489  0.000000 0.000000 1 0 1.000000
0  -0.024903 4.997900 6.946978  0.287215 -0.159527 0.944488  0.000000 0.000000 1 0 1.000000
  phy
0  3.561344 5.010033 6.946978  0.287198 -0.159639 -0.944475  0.000000 0.000000 1 0 1.000000
0  1.765417 5.832336 7.851429  0.996641 0.081901 -0.000005  0.000000 0.000000 1 0 1.000000
0  1.768770 4.841424 7.693146  0.928133 -0.372249 -0.000051  0.000000 0.000000 1 0 1.000000
  phy
0  1.768770 4.841424 7.693146  0.928133 -0.372249 -0.000051  0.000000 0.000000 1 0 1.000000
0  1.771798 3.946360 7.094862  0.556425 -0.830898 -0.000083  0.000000 0.000000 1 0 1.000000
0  3.561344 5.010033 6.946978  0.287198 -0.159639 -0.944475  0.000000 0.000000 1 0 1.000000
  phy
0  3.188885 4.894741 2.763273  -0.291525 -0.520623 -0.802474  0.000000 0.000000 1 0 1.000000
0  3.558208 5.937039 2.691458  -0.501390 -0.012175 -0.865136  0.000000 0.000000 1 0 1.000000
0  3.561344 5.010033 6.946978  0.287198 -0.159639 -0.944475  0.000000 0.000000 1 0 1.000000
  phy
0  1.768770 4.841424 7.693146  0.928133 -0.372249 -0.000051  0.000000 0.000000 1 0 1.000000
0  -0.024903 4.997900 6.946978  0.287215 -0.159527 0.944488  0.000000 0.000000 1 0 1.000000
0  1.771798 3.946360 7.094862  0.556425 -0.830898 -0.000083  0.000000 0.000000 1 0 1.000000
  phy
0  1.768770 4.841424 7.693146  0.928133 -0.372249 -0.000051  0.000000 0.000000 1 0 1.000000
0  1.765417 5.832336 7.851429  0.996641 0.081901 -0.000005  0.000000 0.000000 1 0 1.000000
0  -0.024903 4.997900 6.946978  0.287215 -0.159527 0.944488  0.000000 0.000000 1 0 1.000000
  phy
0  1.761263 7.060480 2.213508  -0.871004 0.491276 -0.000052  0.000000 0.000000 1 0 1.000000
0  3.558208 5.937039 2.691458  -0.501390 -0.012175 -0.865136  0.000000 0.000000 1 0 1.000000
0  1.764534 6.093515 1.945292  -0.998869 0.047543 0.000013  0.000000 0.000000 1 0 1.000000
  phy
0  2.285145 0.002363 2.742004  -0.864764 0.073296 -0.496801  0.000000 0.000000 1 0 1.000000
0  1.271430 4.054298 3.625409  -0.903647 0.277432 0.326271  0.000000 0.000000 1 0 1.000000
0  2.271425 4.057682 3.625409  -0.615025 0.662036 -0.428313  0.000000 0.000000 1 0 1.000000
  phy
0  1.271430 4.054298 3.625409  -0.903647 0.277432 0.326271  0.000000 0.000000 1 0 1.000000
0  2.285145 0.002363 2.742004  -0.864764 0.073296 -0.496801  0.000000 0.000000 1 0 1.000000
0  1.285151 -0.001020 2.742004  -0.770801 0.020353 0.636751  0.000000 0.000000 1 0 1.000000
  phy
0  1.271430 4.054298 3.625409  -0.903647 0.277432 0.326271  0.000000 0.000000 1 0 1.000000
0  0.772057 3.868279 4.471591  0.061390 0.281831 0.957498  0.000000 0.000000 1 0 1.000000
0  2.271425 4.057682 3.625409  -0.615025 0.662036 -0.428313  0.000000 0.000000 1 0 1.000000
  phy
0  0.772057 3.868279 4.471591  0.061390 0.281831 0.957498  0.000000 0.000000 1 0 1.000000
0  1.271430 4.054298 3.625409  -0.903647 0.277432 0.326271  0.000000 0.000000 1 0 1.000000
0  1.285151 -0.001020 2.742004  -0.770801 0.020353 0.636751  0.000000 0.000000 1 0 1.000000
  phy
0  2.285145 0.002363 2.742004  -0.864764 0.073296 -0.496801  0.000000 0.000000 1 0 1.000000
0  2.271425 4.057682 3.625409  -0.615025 0.662036 -0.428313  0.000000 0.000000 1 0 1.000000
0  2.772045 3.875046 4.471591  -0.167375 0.116955 -0.978932  0.000000 0.000000 1 0 1.000000
  phy
0  2.772045 3.875046 4.471591  -0.167375 0.116955 -0.978932  0.000000 0.000000 1 0 1.000000
0  2.785766 -0.180275 3.588185  0.138168 -0.177647 -0.974346  0.000000 0.000000 1 0 1.000000
0  2.285145 0.002363 2.742004  -0.864764 0.073296 -0.496801  0.000000 0.000000 1 0 1.000000
  phy
0  2.271425 4.057682 3.625409  -0.615025 0.662036 -0.428313  0.000000 0.000000 1 0 1.000000
0  2.272672 3.689026 5.317771  0.871598 0.105270 -0.478786  0.000000 0.000000 1 0 1.000000
0  2.772045 3.875046 4.471591  -0.167375 0.116955 -0.978932  0.000000 0.000000 1 0 1.000000
  phy
0  2.772045 3.875046 4.471591  -0.167375 0.116955 -0.978932  0.000000 0.000000 1 0 1.000000
0  2.272672 3.689026 5.317771  0.871598 0.105270 -0.478786  0.000000 0.000000 1 0 1.000000
0  2.785766 -0.180275 3.588185  0.138168 -0.177647 -0.974346  0.000000 0.000000 1 0 1.000000
  phy
0  1.787538 -0.705702 3.474463  -0.212773 -0.977102 -0.000049  0.000000 0.000000 1 0 1.000000
0  2.285145 0.002363 2.742004  -0.864764 0.073296 -0.496801  0.000000 0.000000 1 0 1.000000
0  2.785766 -0.180275 3.588185  0.138168 -0.177647 -0.974346  0.000000 0.000000 1 0 1.000000
  phy
0  2.285145 0.002363 2.742004  -0.864764 0.073296 -0.496801  0.000000 0.000000 1 0 1.000000
0  1.787538 -0.705702 3.474463  -0.212773 -0.977102 -0.000049  0.000000 0.000000 1 0 1.000000
0  1.285151 -0.001020 2.742004  -0.770801 0.020353 0.636751  0.000000 0.000000 1 0 1.000000
  phy
0  1.272678 3.685643 5.317771  0.865581 -0.066121 0.496384  0.000000 0.000000 1 0 1.000000
0  0.772057 3.868279 4.471591  0.061390 0.281831 0.957498  0.000000 0.000000 1 0 1.000000
0  1.286398 -0.369677 4.434366  0.816887 -0.293022 0.496823  0.000000 0.000000 1 0 1.000000
  phy
0  1.272678 3.685643 5.317771  0.865581 -0.066121 0.496384  0.000000 0.000000 1 0 1.000000
0  2.272672 3.689026 5.317771  0.871598 0.105270 -0.478786  0.000000 0.000000 1 0 1.000000
0  0.772057 3.868279 4.471591  0.061390 0.281831 0.957498  0.000000 0.000000 1 0 1.000000
  phy
0  1.286398 -0.369677 4.434366  0.816887 -0.293022 0.496823  0.000000 0.000000 1 0 1.000000
0  2.272672 3.689026 5.317771  0.871598 0.105270 -0.478786  0.000000 0.000000 1 0 1.000000
0  1.272678 3.685643 5.317771  0.865581 -0.066121 0.496384  0.000000 0.000000 1 0 1.000000
  phy
0  0.785777 -0.187041 3.588185  -0.044318 -0.203978 0.977972  0.000000 0.000000 1 0 1.000000
0  1.787538 -0.705702 3.474463  -0.212773 -0.977102 -0.000049  0.000000 0.000000 1 0 1.000000
0  1.286398 -0.369677 4.434366  0.816887 -0.293022 0.496823  0.000000 0.000000 1 0 1.000000
  phy
0  1.787538 -0.705702 3.474463  -0.212773 -0.977102 -0.000049  0.000000 0.000000 1 0 1.000000
0  0.785777 -0.187041 3.588185  -0.044318 -0.203978 0.977972  0.000000 0.000000 1 0 1.000000
0  1.285151 -0.001020 2.742004  -0.770801 0.020353 0.636751  0.000000 0.000000 1 0 1.000000
  phy
0  0.772057 3.868279 4.471591  0.061390 0.281831 0.957498  0.000000 0.000000 1 0 1.000000
0  0.785777 -0.187041 3.588185  -0.044318 -0.203978 0.977972  0.000000 0.000000 1 0 1.000000
0  1.286398 -0.369677 4.434366  0.816887 -0.293022 0.496823  0.000000 0.000000 1 0 1.000000
  phy
0  0.785777 -0.187041 3.588185  -0.044318 -0.203978 0.977972  0.000000 0.000000 1 0 1.000000
0  0.772057 3.868279 4.471591  0.061390 0.281831 0.957498  0.000000 0.000000 1 0 1.000000
0  1.285151 -0.001020 2.742004  -0.770801 0.020353 0.636751  0.000000 0.000000 1 0 1.000000
  phy
0  2.286392 -0.366293 4.434366  0.783077 -0.384286 -0.488994  0.000000 0.000000 1 0 1.000000
0  1.787538 -0.705702 3.474463  -0.212773 -0.977102 -0.000049  0.000000 0.000000 1 0 1.000000
0  2.785766 -0.180275 3.588185  0.138168 -0.177647 -0.974346  0.000000 0.000000 1 0 1.000000
  phy
0  1.787538 -0.705702 3.474463  -0.212773 -0.977102 -0.000049  0.000000 0.000000 1 0 1.000000
0  2.286392 -0.366293 4.434366  0.783077 -0.384286 -0.488994  0.000000 0.000000 1 0 1.000000
0  1.286398 -0.369677 4.434366  0.816887 -0.293022 0.496823  0.000000 0.000000 1 0 1.000000
  phy
0  2.785766 -0.180275 3.588185  0.138168 -0.177647 -0.974346  0.000000 0.000000 1 0 1.000000
0  2.272672 3.689026 5.317771  0.871598 0.105270 -0.478786  0.000000 0.000000 1 0 1.000000
0  2.286392 -0.366293 4.434366  0.783077 -0.384286 -0.488994  0.000000 0.000000 1 0 1.000000
  phy
0  2.286392 -0.366293 4.434366  0.783077 -0.384286 -0.488994  0.000000 0.000000 1 0 1.000000
0  2.272672 3.689026 5.317771  0.871598 0.105270 -0.478786  0.000000 0.000000 1 0 1.000000
0  1.286398 -0.369677 4.434366  0.816887 -0.293022 0.496823  0.000000 0.000000 1 0 1.000000
  phy
0  0.772057 3.868279 4.471591  0.061390 0.281831 0.957498  0.000000 0.000000 1 0 1.000000
0  2.272672 3.689026 5.317771  0.871598 0.105270 -0.478786  0.000000 0.000000 1 0 1.000000
0  2.271425 4.057682 3.625409  -0.615025 0.662036 -0.428313  0.000000 0.000000 1 0 1.000000
end
