version 1
nodes
0 "polySurface21_5899" -1
end
skeleton
time 0
0  0.000000 0.000000 0.000000  0.000000 -0.000000 0.000000
end
triangles
  phy
0  -38.338165 31.316839 35.495567  -0.992889 -0.118587 0.010397  0.000000 0.000000 1 0 1.000000
0  -38.338165 31.316837 41.677811  0.992748 -0.102843 -0.062248  0.000000 0.000000 1 0 1.000000
0  -35.336323 40.049145 41.045887  0.797205 -0.085858 0.597572  0.000000 0.000000 1 0 1.000000
  phy
0  -35.336323 40.049145 35.683510  -0.827373 -0.085169 0.555158  0.000000 0.000000 1 0 1.000000
0  -38.338165 31.316839 35.495567  -0.992889 -0.118587 0.010397  0.000000 0.000000 1 0 1.000000
0  -35.336323 40.049145 41.045887  0.797205 -0.085858 0.597572  0.000000 0.000000 1 0 1.000000
  phy
0  -38.338165 31.316839 35.495567  -0.992889 -0.118587 0.010397  0.000000 0.000000 1 0 1.000000
0  -35.336323 40.049145 35.683510  -0.827373 -0.085169 0.555158  0.000000 0.000000 1 0 1.000000
0  28.474367 41.457790 35.424545  -0.987049 0.043411 0.154435  0.000000 0.000000 1 0 1.000000
  phy
0  -35.458397 12.630627 35.651535  -0.989377 -0.042845 -0.138916  0.000000 0.000000 1 0 1.000000
0  -38.338165 31.316839 35.495567  -0.992889 -0.118587 0.010397  0.000000 0.000000 1 0 1.000000
0  28.474367 41.457790 35.424545  -0.987049 0.043411 0.154435  0.000000 0.000000 1 0 1.000000
  phy
0  -38.338165 31.316837 41.677811  0.992748 -0.102843 -0.062248  0.000000 0.000000 1 0 1.000000
0  -38.338165 31.316839 35.495567  -0.992889 -0.118587 0.010397  0.000000 0.000000 1 0 1.000000
0  -35.458397 12.630627 35.651535  -0.989377 -0.042845 -0.138916  0.000000 0.000000 1 0 1.000000
  phy
0  28.426727 12.630627 37.593666  -0.932552 0.131560 -0.336212  0.000000 0.000000 1 0 1.000000
0  28.426727 12.630627 41.652168  0.980649 0.005150 -0.195708  0.000000 0.000000 1 0 1.000000
0  -35.458397 12.630627 39.710041  0.871720 -0.081950 -0.483102  0.000000 0.000000 1 0 1.000000
  phy
0  28.426727 12.630627 37.593666  -0.932552 0.131560 -0.336212  0.000000 0.000000 1 0 1.000000
0  -35.458397 12.630627 39.710041  0.871720 -0.081950 -0.483102  0.000000 0.000000 1 0 1.000000
0  -35.458397 12.630627 35.651535  -0.989377 -0.042845 -0.138916  0.000000 0.000000 1 0 1.000000
  phy
0  -38.338165 31.316837 41.677811  0.992748 -0.102843 -0.062248  0.000000 0.000000 1 0 1.000000
0  -35.458397 12.630627 39.710041  0.871720 -0.081950 -0.483102  0.000000 0.000000 1 0 1.000000
0  28.426727 12.630627 41.652168  0.980649 0.005150 -0.195708  0.000000 0.000000 1 0 1.000000
  phy
0  28.426727 12.630627 41.652168  0.980649 0.005150 -0.195708  0.000000 0.000000 1 0 1.000000
0  30.932138 31.734608 43.175964  0.993257 0.110646 0.034605  0.000000 0.000000 1 0 1.000000
0  -38.338165 31.316837 41.677811  0.992748 -0.102843 -0.062248  0.000000 0.000000 1 0 1.000000
  phy
0  28.426727 12.630627 37.593666  -0.932552 0.131560 -0.336212  0.000000 0.000000 1 0 1.000000
0  30.932138 31.734608 43.175964  0.993257 0.110646 0.034605  0.000000 0.000000 1 0 1.000000
0  28.426727 12.630627 41.652168  0.980649 0.005150 -0.195708  0.000000 0.000000 1 0 1.000000
  phy
0  -35.458397 12.630627 39.710041  0.871720 -0.081950 -0.483102  0.000000 0.000000 1 0 1.000000
0  -38.338165 31.316837 41.677811  0.992748 -0.102843 -0.062248  0.000000 0.000000 1 0 1.000000
0  -35.458397 12.630627 35.651535  -0.989377 -0.042845 -0.138916  0.000000 0.000000 1 0 1.000000
  phy
0  -38.338165 31.316837 41.677811  0.992748 -0.102843 -0.062248  0.000000 0.000000 1 0 1.000000
0  30.932138 31.734608 43.175964  0.993257 0.110646 0.034605  0.000000 0.000000 1 0 1.000000
0  -35.336323 40.049145 41.045887  0.797205 -0.085858 0.597572  0.000000 0.000000 1 0 1.000000
  phy
0  30.932138 31.734610 36.370403  -0.332264 0.942812 -0.026557  0.000000 0.000000 1 0 1.000000
0  30.932138 31.734608 43.175964  0.993257 0.110646 0.034605  0.000000 0.000000 1 0 1.000000
0  28.426727 12.630627 37.593666  -0.932552 0.131560 -0.336212  0.000000 0.000000 1 0 1.000000
  phy
0  30.932138 31.734610 36.370403  -0.332264 0.942812 -0.026557  0.000000 0.000000 1 0 1.000000
0  28.426727 12.630627 37.593666  -0.932552 0.131560 -0.336212  0.000000 0.000000 1 0 1.000000
0  28.474367 41.457790 35.424545  -0.987049 0.043411 0.154435  0.000000 0.000000 1 0 1.000000
  phy
0  30.932138 31.734610 36.370403  -0.332264 0.942812 -0.026557  0.000000 0.000000 1 0 1.000000
0  28.474367 41.457790 35.424545  -0.987049 0.043411 0.154435  0.000000 0.000000 1 0 1.000000
0  30.932138 31.734608 43.175964  0.993257 0.110646 0.034605  0.000000 0.000000 1 0 1.000000
  phy
0  -35.336323 40.049145 41.045887  0.797205 -0.085858 0.597572  0.000000 0.000000 1 0 1.000000
0  28.474367 41.457790 35.424545  -0.987049 0.043411 0.154435  0.000000 0.000000 1 0 1.000000
0  -35.336323 40.049145 35.683510  -0.827373 -0.085169 0.555158  0.000000 0.000000 1 0 1.000000
  phy
0  -35.336323 40.049145 41.045887  0.797205 -0.085858 0.597572  0.000000 0.000000 1 0 1.000000
0  30.932138 31.734608 43.175964  0.993257 0.110646 0.034605  0.000000 0.000000 1 0 1.000000
0  28.474367 41.457790 40.993469  0.774060 0.054135 0.630794  0.000000 0.000000 1 0 1.000000
  phy
0  28.474367 41.457790 40.993469  0.774060 0.054135 0.630794  0.000000 0.000000 1 0 1.000000
0  28.474367 41.457790 35.424545  -0.987049 0.043411 0.154435  0.000000 0.000000 1 0 1.000000
0  -35.336323 40.049145 41.045887  0.797205 -0.085858 0.597572  0.000000 0.000000 1 0 1.000000
  phy
0  30.932138 31.734608 43.175964  0.993257 0.110646 0.034605  0.000000 0.000000 1 0 1.000000
0  28.474367 41.457790 35.424545  -0.987049 0.043411 0.154435  0.000000 0.000000 1 0 1.000000
0  28.474367 41.457790 40.993469  0.774060 0.054135 0.630794  0.000000 0.000000 1 0 1.000000
  phy
0  28.426727 12.630627 37.593666  -0.932552 0.131560 -0.336212  0.000000 0.000000 1 0 1.000000
0  -35.458397 12.630627 35.651535  -0.989377 -0.042845 -0.138916  0.000000 0.000000 1 0 1.000000
0  28.474367 41.457790 35.424545  -0.987049 0.043411 0.154435  0.000000 0.000000 1 0 1.000000
end
