// Created by Crowbar 0.74
version 1
nodes
  0 "polySurface21_5899" -1
end
skeleton
  time 0
    0 0.000000 0.000000 0.000000 0.000000 0.000000 0.000000
end
triangles
barracuda
  0 20.440105 37.584595 41.528236 -0.999589 -0.025234 -0.013590 0.324860 0.567255 1 0 1.000000
  0 20.480030 35.787689 41.928108 -0.999589 -0.025234 -0.013590 0.328727 0.558169 1 0 1.000000
  0 20.460522 36.239166 42.524712 -0.999589 -0.025234 -0.013590 0.324714 0.558277 1 0 1.000000
barracuda
  0 25.495007 36.287510 42.578140 -0.011407 0.601881 0.798504 0.298608 0.558418 1 0 1.000000
  0 20.440105 37.584595 41.528236 -0.011407 0.601881 0.798504 0.324860 0.567255 1 0 1.000000
  0 20.460522 36.239166 42.524712 -0.011407 0.601881 0.798504 0.324714 0.558277 1 0 1.000000
barracuda
  0 25.581730 37.547600 41.611626 -0.011407 0.601881 0.798504 0.298107 0.566679 1 0 1.000000
  0 20.440105 37.584595 41.528236 -0.011407 0.601881 0.798504 0.324860 0.567255 1 0 1.000000
  0 25.495007 36.287510 42.578140 -0.011407 0.601881 0.798504 0.298608 0.558418 1 0 1.000000
barracuda
  0 15.961590 28.379761 31.655254 0.003472 0.977684 -0.210050 0.423532 0.363519 1 0 1.000000
  0 -12.795854 29.387970 35.872593 0.162643 0.966216 -0.199935 0.440610 0.465123 1 0 1.000000
  0 20.167641 29.388073 36.341488 0.003472 0.977684 -0.210050 0.439829 0.348265 1 0 1.000000
barracuda
  0 -12.205873 28.375671 31.094070 0.162643 0.966216 -0.199935 0.423631 0.463386 1 0 1.000000
  0 -12.795854 29.387970 35.872593 0.162643 0.966216 -0.199935 0.440610 0.465123 1 0 1.000000
  0 15.961590 28.379761 31.655254 0.003472 0.977684 -0.210050 0.423532 0.363519 1 0 1.000000
barracuda
  0 -21.072859 31.232368 30.924934 0.635728 0.721451 -0.274513 0.423601 0.494829 1 0 1.000000
  0 -12.795854 29.387970 35.872593 0.162643 0.966216 -0.199935 0.440610 0.465123 1 0 1.000000
  0 -12.205873 28.375671 31.094070 0.162643 0.966216 -0.199935 0.423631 0.463386 1 0 1.000000
barracuda
  0 -20.830885 32.245880 35.748291 0.635728 0.721451 -0.274513 0.440853 0.493601 1 0 1.000000
  0 -12.795854 29.387970 35.872593 0.162643 0.966216 -0.199935 0.440610 0.465123 1 0 1.000000
  0 -21.072859 31.232368 30.924934 0.635728 0.721451 -0.274513 0.423601 0.494829 1 0 1.000000
barracuda
  0 -21.072859 31.232368 30.924934 0.635728 0.721451 -0.274513 0.423601 0.494829 1 0 1.000000
  0 -23.449245 39.446564 34.869583 0.769133 0.523809 -0.366140 0.444954 0.518994 1 0 1.000000
  0 -20.830885 32.245880 35.748291 0.635728 0.721451 -0.274513 0.440853 0.493601 1 0 1.000000
barracuda
  0 -25.838734 41.017895 33.396942 0.769133 0.523809 -0.366140 0.441464 0.525784 1 0 1.000000
  0 -23.449245 39.446564 34.869583 0.769133 0.523809 -0.366140 0.444954 0.518994 1 0 1.000000
  0 -21.072859 31.232368 30.924934 0.635728 0.721451 -0.274513 0.423601 0.494829 1 0 1.000000
barracuda
  0 -25.838734 41.017895 33.396942 0.769133 0.523809 -0.366140 0.441464 0.525784 1 0 1.000000
  0 -24.862202 41.359737 35.550209 0.662912 0.632249 -0.401009 0.449136 0.524853 1 0 1.000000
  0 -23.449245 39.446564 34.869583 0.769133 0.523809 -0.366140 0.444954 0.518994 1 0 1.000000
barracuda
  0 -8.629402 35.564857 33.852966 0.000000 0.258814 0.965927 0.227576 0.246459 1 0 1.000000
  0 -15.138953 35.564857 33.852966 0.000000 0.258814 0.965927 0.229002 0.276024 1 0 1.000000
  0 -8.629402 34.354858 34.177177 0.000000 0.258814 0.965927 0.222080 0.246722 1 0 1.000000
barracuda
  0 -8.629402 34.354858 34.177177 0.000000 0.258814 0.965927 0.222080 0.246722 1 0 1.000000
  0 -15.138953 35.564857 33.852966 0.000000 0.258814 0.965927 0.229002 0.276024 1 0 1.000000
  0 -15.138953 34.354858 34.177177 0.000000 0.258814 0.965927 0.223506 0.276291 1 0 1.000000
barracuda
  0 -8.629402 34.230801 33.714188 0.000000 -0.258821 -0.965925 0.235636 0.246395 1 0 1.000000
  0 -13.448925 34.230801 33.714188 0.000000 -0.258821 -0.965925 0.235005 0.268292 1 0 1.000000
  0 -8.629402 35.440804 33.389965 0.000000 -0.258821 -0.965925 0.229855 0.246391 1 0 1.000000
barracuda
  0 -8.629402 35.440804 33.389965 0.000000 -0.258821 -0.965925 0.229855 0.246391 1 0 1.000000
  0 -13.448925 34.230801 33.714188 0.000000 -0.258821 -0.965925 0.235005 0.268292 1 0 1.000000
  0 -13.448925 35.440804 33.389965 0.000000 -0.258821 -0.965925 0.230200 0.268301 1 0 1.000000
barracuda
  0 -8.629402 35.564857 33.852966 1.000000 0.000000 0.000000 0.229899 0.244211 1 0 1.000000
  0 -8.629402 34.354858 34.177177 1.000000 0.000000 0.000000 0.235596 0.244215 1 0 1.000000
  0 -8.629402 35.440804 33.389965 1.000000 0.000000 0.000000 0.229855 0.246391 1 0 1.000000
barracuda
  0 -8.629402 35.440804 33.389965 1.000000 0.000000 0.000000 0.229855 0.246391 1 0 1.000000
  0 -8.629402 34.354858 34.177177 1.000000 0.000000 0.000000 0.235596 0.244215 1 0 1.000000
  0 -8.629402 34.230801 33.714188 1.000000 0.000000 0.000000 0.235636 0.246395 1 0 1.000000
barracuda
  0 -15.138953 35.564857 33.852966 0.000000 0.965930 -0.258805 0.229002 0.276024 1 0 1.000000
  0 -8.629402 35.564857 33.852966 0.000000 0.965930 -0.258805 0.227576 0.246459 1 0 1.000000
  0 -13.448925 35.440804 33.389965 0.000000 0.965930 -0.258805 0.230200 0.268301 1 0 1.000000
barracuda
  0 -13.448925 35.440804 33.389965 0.000000 0.965930 -0.258805 0.230200 0.268301 1 0 1.000000
  0 -8.629402 35.564857 33.852966 0.000000 0.965930 -0.258805 0.227576 0.246459 1 0 1.000000
  0 -8.629402 35.440804 33.389965 0.000000 0.965930 -0.258805 0.229855 0.246391 1 0 1.000000
barracuda
  0 -15.138953 34.354858 34.177177 -0.272859 -0.248997 -0.929273 0.235538 0.276035 1 0 1.000000
  0 -15.138953 35.564857 33.852966 -0.272859 -0.248997 -0.929273 0.229002 0.276024 1 0 1.000000
  0 -13.448925 34.230801 33.714188 -0.272859 -0.248997 -0.929273 0.235005 0.268292 1 0 1.000000
barracuda
  0 -13.448925 34.230801 33.714188 -0.272859 -0.248997 -0.929273 0.235005 0.268292 1 0 1.000000
  0 -15.138953 35.564857 33.852966 -0.272859 -0.248997 -0.929273 0.229002 0.276024 1 0 1.000000
  0 -13.448925 35.440804 33.389965 -0.272859 -0.248997 -0.929273 0.230200 0.268301 1 0 1.000000
barracuda
  0 -15.138953 34.354858 34.177177 0.000000 -0.965926 0.258819 0.235538 0.276035 1 0 1.000000
  0 -13.448925 34.230801 33.714188 0.000000 -0.965926 0.258819 0.235005 0.268292 1 0 1.000000
  0 -8.629402 34.354858 34.177177 0.000000 -0.965926 0.258819 0.238010 0.246526 1 0 1.000000
barracuda
  0 -8.629402 34.354858 34.177177 0.000000 -0.965926 0.258819 0.238010 0.246526 1 0 1.000000
  0 -13.448925 34.230801 33.714188 0.000000 -0.965926 0.258819 0.235005 0.268292 1 0 1.000000
  0 -8.629402 34.230801 33.714188 0.000000 -0.965926 0.258819 0.235636 0.246395 1 0 1.000000
barracuda
  0 -27.653004 40.810047 36.741615 -0.105583 0.994400 0.004525 0.717931 0.517619 1 0 1.000000
  0 -25.838734 41.017895 33.396942 -0.105583 0.994400 0.004525 0.705832 0.511657 1 0 1.000000
  0 -30.696690 40.502182 33.375713 -0.105583 0.994400 0.004525 0.706431 0.528867 1 0 1.000000
barracuda
  0 -24.862202 41.359737 35.550209 -0.013553 0.997247 0.072903 0.713324 0.507899 1 0 1.000000
  0 -25.612940 41.146591 36.937542 -0.013553 0.997247 0.072903 0.718342 0.510366 1 0 1.000000
  0 17.066662 41.713520 35.763405 -0.111028 0.993141 0.036650 0.708262 0.359352 1 0 1.000000
barracuda
  0 17.066662 41.713520 35.763405 -0.111028 0.993141 0.036650 0.708262 0.359352 1 0 1.000000
  0 -25.612940 41.146591 36.937542 -0.013553 0.997247 0.072903 0.718342 0.510366 1 0 1.000000
  0 -25.612940 40.954826 38.185677 -0.014188 0.948706 0.315841 0.722763 0.510193 1 0 1.000000
barracuda
  0 17.066662 41.713524 38.550892 -0.105196 0.946722 0.304386 0.718135 0.358966 1 0 1.000000
  0 17.066662 41.713520 35.763405 -0.111028 0.993141 0.036650 0.708262 0.359352 1 0 1.000000
  0 -25.612940 40.954826 38.185677 -0.014188 0.948706 0.315841 0.722763 0.510193 1 0 1.000000
barracuda
  0 -22.264904 39.760639 40.581776 -0.013952 0.841938 0.539394 0.730154 0.498044 1 0 1.000000
  0 17.066662 41.713524 38.550892 -0.105196 0.946722 0.304386 0.718135 0.358966 1 0 1.000000
  0 -25.612940 40.954826 38.185677 -0.014188 0.948706 0.315841 0.722763 0.510193 1 0 1.000000
barracuda
  0 17.066662 40.114429 40.601425 -0.091633 0.830718 0.549100 0.726833 0.358672 1 0 1.000000
  0 17.066662 41.713524 38.550892 -0.105196 0.946722 0.304386 0.718135 0.358966 1 0 1.000000
  0 -22.264904 39.760639 40.581776 -0.013952 0.841938 0.539394 0.730154 0.498044 1 0 1.000000
barracuda
  0 17.066662 40.114429 40.601425 -0.091633 0.830718 0.549100 0.726833 0.358672 1 0 1.000000
  0 26.135761 43.635296 38.194519 -0.196474 0.936589 0.290172 0.715615 0.326891 1 0 1.000000
  0 17.066662 41.713524 38.550892 -0.105196 0.946722 0.304386 0.718135 0.358966 1 0 1.000000
barracuda
  0 28.206997 42.625980 40.597809 -0.168740 0.814302 0.555372 0.721602 0.319197 1 0 1.000000
  0 26.135761 43.635296 38.194519 -0.196474 0.936589 0.290172 0.715615 0.326891 1 0 1.000000
  0 17.066662 40.114429 40.601425 -0.091633 0.830718 0.549100 0.726833 0.358672 1 0 1.000000
barracuda
  0 26.135761 43.635296 35.728111 -0.207300 0.978277 0.000000 0.706879 0.327233 1 0 1.000000
  0 17.066662 41.713520 35.763405 -0.111028 0.993141 0.036650 0.708262 0.359352 1 0 1.000000
  0 26.135761 43.635296 38.194519 -0.196474 0.936589 0.290172 0.715615 0.326891 1 0 1.000000
barracuda
  0 26.135761 43.635296 38.194519 -0.196474 0.936589 0.290172 0.715615 0.326891 1 0 1.000000
  0 17.066662 41.713520 35.763405 -0.111028 0.993141 0.036650 0.708262 0.359352 1 0 1.000000
  0 17.066662 41.713524 38.550892 -0.105196 0.946722 0.304386 0.718135 0.358966 1 0 1.000000
barracuda
  0 28.206997 42.625980 40.597809 0.971861 0.235329 0.010344 0.719097 0.304013 1 0 1.000000
  0 30.663891 32.654839 36.608932 0.994390 0.105644 0.005217 0.753937 0.288671 1 0 1.000000
  0 28.332466 42.625980 34.959808 0.971861 0.235329 0.010344 0.718413 0.284039 1 0 1.000000
barracuda
  0 30.663891 32.654835 42.759949 0.994390 0.105644 0.005217 0.754697 0.310462 1 0 1.000000
  0 30.663891 32.654839 36.608932 0.994390 0.105644 0.005217 0.753937 0.288671 1 0 1.000000
  0 28.206997 42.625980 40.597809 0.971861 0.235329 0.010344 0.719097 0.304013 1 0 1.000000
barracuda
  0 30.663891 32.654835 42.759949 0.994390 0.105644 0.005217 0.754697 0.310462 1 0 1.000000
  0 30.408287 22.779594 36.936192 0.993138 -0.116949 0.000000 0.788962 0.288632 1 0 1.000000
  0 30.663891 32.654839 36.608932 0.994390 0.105644 0.005217 0.753937 0.288671 1 0 1.000000
barracuda
  0 30.408287 22.779594 43.354435 0.993138 -0.116949 0.000000 0.789728 0.311369 1 0 1.000000
  0 30.408287 22.779594 36.936192 0.993138 -0.116949 0.000000 0.788962 0.288632 1 0 1.000000
  0 30.663891 32.654835 42.759949 0.994390 0.105644 0.005217 0.754697 0.310462 1 0 1.000000
barracuda
  0 28.862957 15.477722 42.303444 0.979279 -0.202513 0.000000 0.815482 0.306759 1 0 1.000000
  0 30.408287 22.779594 36.936192 0.993138 -0.116949 0.000000 0.788962 0.288632 1 0 1.000000
  0 30.408287 22.779594 43.354435 0.993138 -0.116949 0.000000 0.789728 0.311369 1 0 1.000000
barracuda
  0 28.862957 15.477718 37.144356 0.979279 -0.202513 0.000000 0.814856 0.288483 1 0 1.000000
  0 30.408287 22.779594 36.936192 0.993138 -0.116949 0.000000 0.788962 0.288632 1 0 1.000000
  0 28.862957 15.477722 42.303444 0.979279 -0.202513 0.000000 0.815482 0.306759 1 0 1.000000
barracuda
  0 28.250435 12.444977 41.004795 0.980208 -0.197972 0.000000 0.826069 0.301791 1 0 1.000000
  0 28.862957 15.477718 37.144356 0.979279 -0.202513 0.000000 0.814856 0.288483 1 0 1.000000
  0 28.862957 15.477722 42.303444 0.979279 -0.202513 0.000000 0.815482 0.306759 1 0 1.000000
barracuda
  0 28.250435 12.444977 37.187817 0.980208 -0.197972 0.000000 0.825606 0.288269 1 0 1.000000
  0 28.862957 15.477718 37.144356 0.979279 -0.202513 0.000000 0.814856 0.288483 1 0 1.000000
  0 28.250435 12.444977 41.004795 0.980208 -0.197972 0.000000 0.826069 0.301791 1 0 1.000000
barracuda
  0 -12.809604 23.598392 31.373604 -0.021212 -0.423859 -0.905480 0.634196 0.461842 1 0 1.000000
  0 15.023542 23.598377 31.634651 0.013554 -0.456216 -0.889766 0.632951 0.363878 1 0 1.000000
  0 -14.063931 20.218433 35.586571 -0.044557 -0.738387 -0.672903 0.620792 0.466432 1 0 1.000000
barracuda
  0 -14.063931 20.218433 35.586571 -0.044557 -0.738387 -0.672903 0.620792 0.466432 1 0 1.000000
  0 15.023542 23.598377 31.634651 0.013554 -0.456216 -0.889766 0.632951 0.363878 1 0 1.000000
  0 18.198338 20.043003 36.524643 0.009799 -0.794407 -0.607307 0.617259 0.351362 1 0 1.000000
barracuda
  0 15.961590 28.379761 31.655254 0.014677 -0.029441 -0.999459 0.649040 0.360010 1 0 1.000000
  0 15.023542 23.598377 31.634651 0.013554 -0.456216 -0.889766 0.632951 0.363878 1 0 1.000000
  0 -12.205873 28.375671 31.094070 0.005249 -0.046320 -0.998913 0.650359 0.459289 1 0 1.000000
barracuda
  0 -12.205873 28.375671 31.094070 0.005249 -0.046320 -0.998913 0.650359 0.459289 1 0 1.000000
  0 15.023542 23.598377 31.634651 0.013554 -0.456216 -0.889766 0.632951 0.363878 1 0 1.000000
  0 -12.809604 23.598392 31.373604 -0.021212 -0.423859 -0.905480 0.634196 0.461842 1 0 1.000000
barracuda
  0 -12.205873 28.375671 31.094070 0.005249 -0.046320 -0.998913 0.650359 0.459289 1 0 1.000000
  0 -12.809604 23.598392 31.373604 -0.021212 -0.423859 -0.905480 0.634196 0.461842 1 0 1.000000
  0 -21.072859 31.232368 30.924934 -0.062936 0.035923 -0.997371 0.661140 0.490502 1 0 1.000000
barracuda
  0 -21.072859 31.232368 30.924934 -0.062936 0.035923 -0.997371 0.661140 0.490502 1 0 1.000000
  0 -12.809604 23.598392 31.373604 -0.021212 -0.423859 -0.905480 0.634196 0.461842 1 0 1.000000
  0 -24.725554 26.456326 31.268032 -0.170347 -0.117265 -0.978382 0.644484 0.503801 1 0 1.000000
barracuda
  0 -14.063931 20.218433 35.586571 -0.044557 -0.738387 -0.672903 0.620792 0.466432 1 0 1.000000
  0 -24.725554 26.456326 31.268032 -0.170347 -0.117265 -0.978382 0.644484 0.503801 1 0 1.000000
  0 -12.809604 23.598392 31.373604 -0.021212 -0.423859 -0.905480 0.634196 0.461842 1 0 1.000000
barracuda
  0 -37.672356 23.213692 35.074558 -0.209547 -0.348781 -0.913478 0.633952 0.549924 1 0 1.000000
  0 -24.725554 26.456326 31.268032 -0.170347 -0.117265 -0.978382 0.644484 0.503801 1 0 1.000000
  0 -14.063931 20.218433 35.586571 -0.044557 -0.738387 -0.672903 0.620792 0.466432 1 0 1.000000
barracuda
  0 -24.725554 26.456326 31.268032 -0.170347 -0.117265 -0.978382 0.644484 0.503801 1 0 1.000000
  0 -37.672356 23.213692 35.074558 -0.209547 -0.348781 -0.913478 0.633952 0.549924 1 0 1.000000
  0 -37.998013 31.809341 35.442635 -0.343658 0.070999 -0.936407 0.664439 0.550442 1 0 1.000000
barracuda
  0 -24.725554 26.456326 31.268032 -0.170347 -0.117265 -0.978382 0.644484 0.503801 1 0 1.000000
  0 -37.998013 31.809341 35.442635 -0.343658 0.070999 -0.936407 0.664439 0.550442 1 0 1.000000
  0 -30.696690 40.502182 33.375713 -0.289173 0.106698 -0.951312 0.694706 0.523921 1 0 1.000000
barracuda
  0 -37.998013 31.809341 35.442635 -0.343658 0.070999 -0.936407 0.664439 0.550442 1 0 1.000000
  0 -35.354942 39.767406 35.584053 -0.443516 0.162964 -0.881326 0.692447 0.540484 1 0 1.000000
  0 -30.696690 40.502182 33.375713 -0.289173 0.106698 -0.951312 0.694706 0.523921 1 0 1.000000
barracuda
  0 -24.725554 26.456326 31.268032 -0.170347 -0.117265 -0.978382 0.644484 0.503801 1 0 1.000000
  0 -30.696690 40.502182 33.375713 -0.289173 0.106698 -0.951312 0.694706 0.523921 1 0 1.000000
  0 -21.072859 31.232368 30.924934 -0.062936 0.035923 -0.997371 0.661140 0.490502 1 0 1.000000
barracuda
  0 -21.072859 31.232368 30.924934 -0.062936 0.035923 -0.997371 0.661140 0.490502 1 0 1.000000
  0 -30.696690 40.502182 33.375713 -0.289173 0.106698 -0.951312 0.694706 0.523921 1 0 1.000000
  0 -25.838734 41.017895 33.396942 -0.120856 0.134551 -0.983509 0.696174 0.506667 1 0 1.000000
barracuda
  0 18.198338 20.043003 36.524643 0.034695 -0.027768 -0.999012 0.617259 0.351362 1 0 1.000000
  0 -36.288311 16.100388 34.947628 0.031591 -0.037194 -0.998809 0.608639 0.545546 1 0 1.000000
  0 -14.063931 20.218433 35.586571 0.031346 -0.024608 -0.999206 0.620792 0.466432 1 0 1.000000
barracuda
  0 -36.288311 16.100388 34.947628 0.031591 -0.037194 -0.998809 0.608639 0.545546 1 0 1.000000
  0 -37.672356 23.213692 35.074558 0.031346 -0.024608 -0.999206 0.633952 0.549924 1 0 1.000000
  0 -14.063931 20.218433 35.586571 0.031346 -0.024608 -0.999206 0.620792 0.466432 1 0 1.000000
barracuda
  0 28.250435 12.444977 37.187817 0.021968 -0.724491 -0.688934 0.590901 0.317092 1 0 1.000000
  0 -34.608463 12.444977 35.271679 0.021968 -0.724491 -0.688934 0.595560 0.539864 1 0 1.000000
  0 28.862957 15.477718 37.144356 0.031591 -0.037194 -0.998809 0.601604 0.314697 1 0 1.000000
barracuda
  0 28.862957 15.477718 37.144356 0.031591 -0.037194 -0.998809 0.601604 0.314697 1 0 1.000000
  0 -34.608463 12.444977 35.271679 0.021968 -0.724491 -0.688934 0.595560 0.539864 1 0 1.000000
  0 -36.288311 16.100388 34.947628 0.031591 -0.037194 -0.998809 0.608639 0.545546 1 0 1.000000
barracuda
  0 28.862957 15.477718 37.144356 0.031591 -0.037194 -0.998809 0.601604 0.314697 1 0 1.000000
  0 -36.288311 16.100388 34.947628 0.031591 -0.037194 -0.998809 0.608639 0.545546 1 0 1.000000
  0 18.198338 20.043003 36.524643 0.034695 -0.027768 -0.999012 0.617259 0.351362 1 0 1.000000
barracuda
  0 30.408287 22.779594 36.936192 0.034695 -0.027768 -0.999012 0.627367 0.308679 1 0 1.000000
  0 28.862957 15.477718 37.144356 0.031591 -0.037194 -0.998809 0.601604 0.314697 1 0 1.000000
  0 18.198338 20.043003 36.524643 0.034695 -0.027768 -0.999012 0.617259 0.351362 1 0 1.000000
barracuda
  0 20.167641 29.388073 36.341488 0.038474 -0.106730 -0.993543 0.650480 0.344025 1 0 1.000000
  0 30.408287 22.779594 36.936192 0.034695 -0.027768 -0.999012 0.627367 0.308679 1 0 1.000000
  0 18.198338 20.043003 36.524643 0.034695 -0.027768 -0.999012 0.617259 0.351362 1 0 1.000000
barracuda
  0 30.663891 32.654839 36.608932 0.057999 -0.091046 -0.994156 0.662346 0.307041 1 0 1.000000
  0 30.408287 22.779594 36.936192 0.034695 -0.027768 -0.999012 0.627367 0.308679 1 0 1.000000
  0 20.167641 29.388073 36.341488 0.038474 -0.106730 -0.993543 0.650480 0.344025 1 0 1.000000
barracuda
  0 20.167641 29.388073 36.341488 0.038474 -0.106730 -0.993543 0.650480 0.344025 1 0 1.000000
  0 17.303989 39.436005 34.517715 -0.006952 0.155508 -0.987810 0.687370 0.353886 1 0 1.000000
  0 30.663891 32.654839 36.608932 0.057999 -0.091046 -0.994156 0.662346 0.307041 1 0 1.000000
barracuda
  0 30.663891 32.654839 36.608932 0.057999 -0.091046 -0.994156 0.662346 0.307041 1 0 1.000000
  0 17.303989 39.436005 34.517715 -0.006952 0.155508 -0.987810 0.687370 0.353886 1 0 1.000000
  0 28.332466 42.625980 34.959808 -0.011986 0.165954 -0.986061 0.697857 0.314565 1 0 1.000000
barracuda
  0 17.303989 39.436005 34.517715 -0.006952 0.155508 -0.987810 0.687370 0.353886 1 0 1.000000
  0 26.135761 43.635296 35.728111 -0.100392 0.464718 -0.879749 0.701597 0.322275 1 0 1.000000
  0 28.332466 42.625980 34.959808 -0.011986 0.165954 -0.986061 0.697857 0.314565 1 0 1.000000
barracuda
  0 17.066662 41.713520 35.763405 -0.051905 0.441352 -0.895831 0.695459 0.354559 1 0 1.000000
  0 26.135761 43.635296 35.728111 -0.100392 0.464718 -0.879749 0.701597 0.322275 1 0 1.000000
  0 17.303989 39.436005 34.517715 -0.006952 0.155508 -0.987810 0.687370 0.353886 1 0 1.000000
barracuda
  0 -23.449245 39.446564 34.869583 -0.001991 0.145195 -0.989401 0.690428 0.498315 1 0 1.000000
  0 17.066662 41.713520 35.763405 -0.051905 0.441352 -0.895831 0.695459 0.354559 1 0 1.000000
  0 17.303989 39.436005 34.517715 -0.006952 0.155508 -0.987810 0.687370 0.353886 1 0 1.000000
barracuda
  0 -24.862202 41.359737 35.550209 -0.003254 0.416594 -0.909087 0.697313 0.503181 1 0 1.000000
  0 17.066662 41.713520 35.763405 -0.051905 0.441352 -0.895831 0.695459 0.354559 1 0 1.000000
  0 -23.449245 39.446564 34.869583 -0.001991 0.145195 -0.989401 0.690428 0.498315 1 0 1.000000
barracuda
  0 -23.449245 39.446564 34.869583 -0.001991 0.145195 -0.989401 0.690428 0.498315 1 0 1.000000
  0 17.303989 39.436005 34.517715 -0.006952 0.155508 -0.987810 0.687370 0.353886 1 0 1.000000
  0 -20.830885 32.245880 35.748291 -0.000569 -0.137836 -0.990455 0.664714 0.489569 1 0 1.000000
barracuda
  0 -20.830885 32.245880 35.748291 -0.000569 -0.137836 -0.990455 0.664714 0.489569 1 0 1.000000
  0 17.303989 39.436005 34.517715 -0.006952 0.155508 -0.987810 0.687370 0.353886 1 0 1.000000
  0 -12.795854 29.387970 35.872593 -0.000569 -0.137836 -0.990455 0.653990 0.461305 1 0 1.000000
barracuda
  0 17.303989 39.436005 34.517715 -0.006952 0.155508 -0.987810 0.687370 0.353886 1 0 1.000000
  0 20.167641 29.388073 36.341488 0.038474 -0.106730 -0.993543 0.650480 0.344025 1 0 1.000000
  0 -12.795854 29.387970 35.872593 -0.000569 -0.137836 -0.990455 0.653990 0.461305 1 0 1.000000
barracuda
  0 -24.399080 41.168667 38.303795 -0.032417 -0.953997 -0.298057 0.378686 0.541312 1 0 1.000000
  0 -24.399080 41.078590 41.762085 -0.026919 -0.974321 0.223550 0.386215 0.554237 1 0 1.000000
  0 -25.612940 41.168667 38.465530 0.272049 -0.941788 -0.197545 0.383573 0.539275 1 0 1.000000
barracuda
  0 -25.612940 41.975498 37.207527 0.237605 -0.335943 -0.911420 0.401468 0.521404 1 0 1.000000
  0 -27.653004 43.440220 37.554314 -0.492451 0.209002 -0.844873 0.402002 0.531848 1 0 1.000000
  0 -25.612940 44.375572 37.063557 -0.237633 0.316065 -0.918495 0.410070 0.527462 1 0 1.000000
barracuda
  0 -27.653004 43.440220 37.554314 -0.492451 0.209002 -0.844873 0.402002 0.531848 1 0 1.000000
  0 -27.653004 44.952023 38.720108 -0.543373 0.754551 -0.367965 0.406253 0.536280 1 0 1.000000
  0 -25.612940 44.375572 37.063557 -0.237633 0.316065 -0.918495 0.410070 0.527462 1 0 1.000000
barracuda
  0 -27.653004 44.952023 38.720108 -0.543373 0.754551 -0.367965 0.406253 0.536280 1 0 1.000000
  0 -27.653004 43.440220 37.554314 -0.492451 0.209002 -0.844873 0.402002 0.531848 1 0 1.000000
  0 -28.674154 44.240810 38.954170 -0.828027 0.510530 -0.231796 0.402727 0.537241 1 0 1.000000
barracuda
  0 -28.665766 44.019096 40.230942 -0.827262 0.438949 0.350659 0.402188 0.540518 1 0 1.000000
  0 -27.653004 44.952023 38.720108 -0.543373 0.754551 -0.367965 0.406253 0.536280 1 0 1.000000
  0 -28.674154 44.240810 38.954170 -0.828027 0.510530 -0.231796 0.402727 0.537241 1 0 1.000000
barracuda
  0 -29.059462 43.359936 39.844704 -0.978212 0.093260 0.185481 0.400273 0.539446 1 0 1.000000
  0 -28.665766 44.019096 40.230942 -0.827262 0.438949 0.350659 0.402188 0.540518 1 0 1.000000
  0 -28.674154 44.240810 38.954170 -0.828027 0.510530 -0.231796 0.402727 0.537241 1 0 1.000000
barracuda
  0 -28.523554 42.725304 40.726505 -0.851566 -0.164663 0.497716 0.398644 0.542251 1 0 1.000000
  0 -28.665766 44.019096 40.230942 -0.827262 0.438949 0.350659 0.402188 0.540518 1 0 1.000000
  0 -29.059462 43.359936 39.844704 -0.978212 0.093260 0.185481 0.400273 0.539446 1 0 1.000000
barracuda
  0 -28.523554 42.725304 40.726505 -0.851566 -0.164663 0.497716 0.398644 0.542251 1 0 1.000000
  0 -29.059462 43.359936 39.844704 -0.978212 0.093260 0.185481 0.400273 0.539446 1 0 1.000000
  0 -28.386023 41.791943 39.659882 -0.708137 -0.687243 0.161984 0.395594 0.539298 1 0 1.000000
barracuda
  0 -27.393543 41.342632 40.620125 -0.470571 -0.852772 0.226588 0.393391 0.543620 1 0 1.000000
  0 -28.523554 42.725304 40.726505 -0.851566 -0.164663 0.497716 0.398644 0.542251 1 0 1.000000
  0 -28.386023 41.791943 39.659882 -0.708137 -0.687243 0.161984 0.395594 0.539298 1 0 1.000000
barracuda
  0 -27.393543 41.342632 40.620125 -0.470571 -0.852772 0.226588 0.393391 0.543620 1 0 1.000000
  0 -28.386023 41.791943 39.659882 -0.708137 -0.687243 0.161984 0.395594 0.539298 1 0 1.000000
  0 -27.915207 41.425388 38.291389 -0.511439 -0.814490 -0.273926 0.392073 0.534210 1 0 1.000000
barracuda
  0 -25.612940 41.168667 38.465530 0.272049 -0.941788 -0.197545 0.383573 0.539275 1 0 1.000000
  0 -27.393543 41.342632 40.620125 -0.470571 -0.852772 0.226588 0.393391 0.543620 1 0 1.000000
  0 -27.915207 41.425388 38.291389 -0.511439 -0.814490 -0.273926 0.392073 0.534210 1 0 1.000000
barracuda
  0 -25.612940 41.078590 41.625298 -0.153037 -0.962097 0.225717 0.389691 0.550552 1 0 1.000000
  0 -27.393543 41.342632 40.620125 -0.470571 -0.852772 0.226588 0.393391 0.543620 1 0 1.000000
  0 -25.612940 41.168667 38.465530 0.272049 -0.941788 -0.197545 0.383573 0.539275 1 0 1.000000
barracuda
  0 -25.612940 41.168667 38.465530 0.272049 -0.941788 -0.197545 0.383573 0.539275 1 0 1.000000
  0 -24.399080 41.078590 41.762085 -0.026919 -0.974321 0.223550 0.386215 0.554237 1 0 1.000000
  0 -25.612940 41.078590 41.625298 -0.153037 -0.962097 0.225717 0.389691 0.550552 1 0 1.000000
barracuda
  0 -25.612940 41.078590 41.625298 -0.153037 -0.962097 0.225717 0.389691 0.550552 1 0 1.000000
  0 -24.399080 41.078590 41.762085 -0.026919 -0.974321 0.223550 0.386215 0.554237 1 0 1.000000
  0 -25.612940 42.090088 43.574677 -0.343705 -0.472802 0.811372 0.395754 0.556207 1 0 1.000000
barracuda
  0 -25.612940 42.090088 43.574677 -0.343705 -0.472802 0.811372 0.395754 0.556207 1 0 1.000000
  0 -24.399080 41.078590 41.762085 -0.026919 -0.974321 0.223550 0.386215 0.554237 1 0 1.000000
  0 -24.399080 42.090092 43.711464 -0.099078 -0.490333 0.865885 0.394431 0.561058 1 0 1.000000
barracuda
  0 -25.612940 42.090088 43.574677 -0.343705 -0.472802 0.811372 0.395754 0.556207 1 0 1.000000
  0 -24.399080 42.090092 43.711464 -0.099078 -0.490333 0.865885 0.394431 0.561058 1 0 1.000000
  0 -25.656189 44.526169 43.407902 -0.381555 0.496666 0.779576 0.404823 0.556414 1 0 1.000000
barracuda
  0 -25.656189 44.526169 43.407902 -0.381555 0.496666 0.779576 0.404823 0.556414 1 0 1.000000
  0 -24.399080 42.090092 43.711464 -0.099078 -0.490333 0.865885 0.394431 0.561058 1 0 1.000000
  0 -24.399080 44.697277 43.544693 -0.171429 0.533389 0.828317 0.408161 0.561046 1 0 1.000000
barracuda
  0 -24.399080 44.697277 43.544693 -0.171429 0.533389 0.828317 0.408161 0.561046 1 0 1.000000
  0 -24.399080 45.986477 41.149582 -0.187146 0.952884 0.238721 0.419195 0.547595 1 0 1.000000
  0 -25.656189 44.526169 43.407902 -0.381555 0.496666 0.779576 0.404823 0.556414 1 0 1.000000
barracuda
  0 -25.656189 44.526169 43.407902 -0.381555 0.496666 0.779576 0.404823 0.556414 1 0 1.000000
  0 -24.399080 45.986477 41.149582 -0.187146 0.952884 0.238721 0.419195 0.547595 1 0 1.000000
  0 -25.813198 45.730728 41.012791 -0.312934 0.919885 0.236398 0.413316 0.544268 1 0 1.000000
barracuda
  0 -27.653004 41.953499 37.558773 -0.436580 -0.156723 -0.885910 0.396171 0.529380 1 0 1.000000
  0 -27.653004 43.440220 37.554314 -0.492451 0.209002 -0.844873 0.402002 0.531848 1 0 1.000000
  0 -25.612940 41.975498 37.207527 0.237605 -0.335943 -0.911420 0.401468 0.521404 1 0 1.000000
barracuda
  0 -28.386023 41.791943 39.659882 -0.708137 -0.687243 0.161984 0.395594 0.539298 1 0 1.000000
  0 -29.059462 43.359936 39.844704 -0.978212 0.093260 0.185481 0.400273 0.539446 1 0 1.000000
  0 -28.927036 42.292789 38.900337 -0.872054 -0.448182 -0.196609 0.397302 0.536905 1 0 1.000000
barracuda
  0 -28.386023 41.791943 39.659882 -0.708137 -0.687243 0.161984 0.395594 0.539298 1 0 1.000000
  0 -28.927036 42.292789 38.900337 -0.872054 -0.448182 -0.196609 0.397302 0.536905 1 0 1.000000
  0 -28.263115 41.827454 38.573647 -0.662198 -0.651223 -0.370679 0.394567 0.535338 1 0 1.000000
barracuda
  0 -27.915207 41.425388 38.291389 -0.511439 -0.814490 -0.273926 0.392073 0.534210 1 0 1.000000
  0 -28.386023 41.791943 39.659882 -0.708137 -0.687243 0.161984 0.395594 0.539298 1 0 1.000000
  0 -28.263115 41.827454 38.573647 -0.662198 -0.651223 -0.370679 0.394567 0.535338 1 0 1.000000
barracuda
  0 -27.915207 41.425388 38.291389 -0.511439 -0.814490 -0.273926 0.392073 0.534210 1 0 1.000000
  0 -28.263115 41.827454 38.573647 -0.662198 -0.651223 -0.370679 0.394567 0.535338 1 0 1.000000
  0 -27.653004 41.953499 37.558773 -0.436580 -0.156723 -0.885910 0.396171 0.529380 1 0 1.000000
barracuda
  0 -28.529570 42.887997 37.955605 -0.772383 -0.041050 -0.633829 0.399211 0.534057 1 0 1.000000
  0 -27.653004 41.953499 37.558773 -0.436580 -0.156723 -0.885910 0.396171 0.529380 1 0 1.000000
  0 -28.263115 41.827454 38.573647 -0.662198 -0.651223 -0.370679 0.394567 0.535338 1 0 1.000000
barracuda
  0 -27.653004 43.440220 37.554314 -0.492451 0.209002 -0.844873 0.402002 0.531848 1 0 1.000000
  0 -27.653004 41.953499 37.558773 -0.436580 -0.156723 -0.885910 0.396171 0.529380 1 0 1.000000
  0 -28.529570 42.887997 37.955605 -0.772383 -0.041050 -0.633829 0.399211 0.534057 1 0 1.000000
barracuda
  0 -28.674154 44.240810 38.954170 -0.828027 0.510530 -0.231796 0.402727 0.537241 1 0 1.000000
  0 -27.653004 43.440220 37.554314 -0.492451 0.209002 -0.844873 0.402002 0.531848 1 0 1.000000
  0 -28.529570 42.887997 37.955605 -0.772383 -0.041050 -0.633829 0.399211 0.534057 1 0 1.000000
barracuda
  0 -28.927036 42.292789 38.900337 -0.872054 -0.448182 -0.196609 0.397302 0.536905 1 0 1.000000
  0 -28.674154 44.240810 38.954170 -0.828027 0.510530 -0.231796 0.402727 0.537241 1 0 1.000000
  0 -28.529570 42.887997 37.955605 -0.772383 -0.041050 -0.633829 0.399211 0.534057 1 0 1.000000
barracuda
  0 -29.059462 43.359936 39.844704 -0.978212 0.093260 0.185481 0.400273 0.539446 1 0 1.000000
  0 -28.674154 44.240810 38.954170 -0.828027 0.510530 -0.231796 0.402727 0.537241 1 0 1.000000
  0 -28.927036 42.292789 38.900337 -0.872054 -0.448182 -0.196609 0.397302 0.536905 1 0 1.000000
barracuda
  0 -28.263115 41.827454 38.573647 -0.662198 -0.651223 -0.370679 0.394567 0.535338 1 0 1.000000
  0 -28.927036 42.292789 38.900337 -0.872054 -0.448182 -0.196609 0.397302 0.536905 1 0 1.000000
  0 -28.529570 42.887997 37.955605 -0.772383 -0.041050 -0.633829 0.399211 0.534057 1 0 1.000000
barracuda
  0 -25.612940 44.375572 37.063557 -0.237633 0.316065 -0.918495 0.410070 0.527462 1 0 1.000000
  0 -27.653004 44.952023 38.720108 -0.543373 0.754551 -0.367965 0.406253 0.536280 1 0 1.000000
  0 -25.813198 45.746655 38.375496 -0.316983 0.866205 -0.386277 0.413316 0.534334 1 0 1.000000
barracuda
  0 -27.653004 44.952023 38.720108 -0.543373 0.754551 -0.367965 0.406253 0.536280 1 0 1.000000
  0 -27.653004 44.990810 40.596138 -0.567463 0.788977 0.235585 0.406272 0.541826 1 0 1.000000
  0 -25.813198 45.746655 38.375496 -0.316983 0.866205 -0.386277 0.413316 0.534334 1 0 1.000000
barracuda
  0 -25.813198 45.746655 38.375496 -0.316983 0.866205 -0.386277 0.413316 0.534334 1 0 1.000000
  0 -27.653004 44.990810 40.596138 -0.567463 0.788977 0.235585 0.406272 0.541826 1 0 1.000000
  0 -25.813198 45.730728 41.012791 -0.312934 0.919885 0.236398 0.413316 0.544268 1 0 1.000000
barracuda
  0 -27.504589 44.042645 42.171616 -0.734820 0.317014 0.599618 0.402513 0.547700 1 0 1.000000
  0 -25.813198 45.730728 41.012791 -0.312934 0.919885 0.236398 0.413316 0.544268 1 0 1.000000
  0 -27.653004 44.990810 40.596138 -0.567463 0.788977 0.235585 0.406272 0.541826 1 0 1.000000
barracuda
  0 -25.656189 44.526169 43.407902 -0.381555 0.496666 0.779576 0.404823 0.556414 1 0 1.000000
  0 -25.813198 45.730728 41.012791 -0.312934 0.919885 0.236398 0.413316 0.544268 1 0 1.000000
  0 -27.504589 44.042645 42.171616 -0.734820 0.317014 0.599618 0.402513 0.547700 1 0 1.000000
barracuda
  0 -27.429529 42.370876 42.246666 -0.688557 -0.378681 0.618458 0.397506 0.548203 1 0 1.000000
  0 -25.656189 44.526169 43.407902 -0.381555 0.496666 0.779576 0.404823 0.556414 1 0 1.000000
  0 -27.504589 44.042645 42.171616 -0.734820 0.317014 0.599618 0.402513 0.547700 1 0 1.000000
barracuda
  0 -25.612940 42.090088 43.574677 -0.343705 -0.472802 0.811372 0.395754 0.556207 1 0 1.000000
  0 -25.656189 44.526169 43.407902 -0.381555 0.496666 0.779576 0.404823 0.556414 1 0 1.000000
  0 -27.429529 42.370876 42.246666 -0.688557 -0.378681 0.618458 0.397506 0.548203 1 0 1.000000
barracuda
  0 -25.612940 42.090088 43.574677 -0.343705 -0.472802 0.811372 0.395754 0.556207 1 0 1.000000
  0 -27.429529 42.370876 42.246666 -0.688557 -0.378681 0.618458 0.397506 0.548203 1 0 1.000000
  0 -25.612940 41.078590 41.625298 -0.153037 -0.962097 0.225717 0.389691 0.550552 1 0 1.000000
barracuda
  0 -25.612940 41.078590 41.625298 -0.153037 -0.962097 0.225717 0.389691 0.550552 1 0 1.000000
  0 -27.429529 42.370876 42.246666 -0.688557 -0.378681 0.618458 0.397506 0.548203 1 0 1.000000
  0 -27.393543 41.342632 40.620125 -0.470571 -0.852772 0.226588 0.393391 0.543620 1 0 1.000000
barracuda
  0 -27.429529 42.370876 42.246666 -0.688557 -0.378681 0.618458 0.397506 0.548203 1 0 1.000000
  0 -28.523554 42.725304 40.726505 -0.851566 -0.164663 0.497716 0.398644 0.542251 1 0 1.000000
  0 -27.393543 41.342632 40.620125 -0.470571 -0.852772 0.226588 0.393391 0.543620 1 0 1.000000
barracuda
  0 -27.429529 42.370876 42.246666 -0.688557 -0.378681 0.618458 0.397506 0.548203 1 0 1.000000
  0 -27.504589 44.042645 42.171616 -0.734820 0.317014 0.599618 0.402513 0.547700 1 0 1.000000
  0 -28.523554 42.725304 40.726505 -0.851566 -0.164663 0.497716 0.398644 0.542251 1 0 1.000000
barracuda
  0 -27.504589 44.042645 42.171616 -0.734820 0.317014 0.599618 0.402513 0.547700 1 0 1.000000
  0 -28.665766 44.019096 40.230942 -0.827262 0.438949 0.350659 0.402188 0.540518 1 0 1.000000
  0 -28.523554 42.725304 40.726505 -0.851566 -0.164663 0.497716 0.398644 0.542251 1 0 1.000000
barracuda
  0 -27.653004 44.990810 40.596138 -0.567463 0.788977 0.235585 0.406272 0.541826 1 0 1.000000
  0 -28.665766 44.019096 40.230942 -0.827262 0.438949 0.350659 0.402188 0.540518 1 0 1.000000
  0 -27.504589 44.042645 42.171616 -0.734820 0.317014 0.599618 0.402513 0.547700 1 0 1.000000
barracuda
  0 -27.653004 44.990810 40.596138 -0.567463 0.788977 0.235585 0.406272 0.541826 1 0 1.000000
  0 -27.653004 44.952023 38.720108 -0.543373 0.754551 -0.367965 0.406253 0.536280 1 0 1.000000
  0 -28.665766 44.019096 40.230942 -0.827262 0.438949 0.350659 0.402188 0.540518 1 0 1.000000
barracuda
  0 -24.399080 45.986477 41.149582 -0.187146 0.952884 0.238721 0.419195 0.547595 1 0 1.000000
  0 -24.399080 46.002399 38.311516 -0.197590 0.903376 -0.380619 0.419546 0.533213 1 0 1.000000
  0 -25.813198 45.730728 41.012791 -0.312934 0.919885 0.236398 0.413316 0.544268 1 0 1.000000
barracuda
  0 -25.813198 45.730728 41.012791 -0.312934 0.919885 0.236398 0.413316 0.544268 1 0 1.000000
  0 -24.399080 46.002399 38.311516 -0.197590 0.903376 -0.380619 0.419546 0.533213 1 0 1.000000
  0 -25.813198 45.746655 38.375496 -0.316983 0.866205 -0.386277 0.413316 0.534334 1 0 1.000000
barracuda
  0 -24.399080 46.002399 38.311516 -0.197590 0.903376 -0.380619 0.419546 0.533213 1 0 1.000000
  0 -24.399080 44.652767 36.949341 -0.149072 0.340978 -0.928176 0.414853 0.524579 1 0 1.000000
  0 -25.813198 45.746655 38.375496 -0.316983 0.866205 -0.386277 0.413316 0.534334 1 0 1.000000
barracuda
  0 -25.813198 45.746655 38.375496 -0.316983 0.866205 -0.386277 0.413316 0.534334 1 0 1.000000
  0 -24.399080 44.652767 36.949341 -0.149072 0.340978 -0.928176 0.414853 0.524579 1 0 1.000000
  0 -25.612940 44.375572 37.063557 -0.237633 0.316065 -0.918495 0.410070 0.527462 1 0 1.000000
barracuda
  0 -24.399080 44.652767 36.949341 -0.149072 0.340978 -0.928176 0.414853 0.524579 1 0 1.000000
  0 -24.399080 41.975494 37.093311 -0.083532 -0.499213 -0.862444 0.404971 0.516927 1 0 1.000000
  0 -25.612940 44.375572 37.063557 -0.237633 0.316065 -0.918495 0.410070 0.527462 1 0 1.000000
barracuda
  0 -25.612940 44.375572 37.063557 -0.237633 0.316065 -0.918495 0.410070 0.527462 1 0 1.000000
  0 -24.399080 41.975494 37.093311 -0.083532 -0.499213 -0.862444 0.404971 0.516927 1 0 1.000000
  0 -25.612940 41.975498 37.207527 0.237605 -0.335943 -0.911420 0.401468 0.521404 1 0 1.000000
barracuda
  0 -24.399080 41.975494 37.093311 -0.083532 -0.499213 -0.862444 0.404971 0.516927 1 0 1.000000
  0 -24.399080 41.168667 38.303795 -0.032417 -0.953997 -0.298057 0.399321 0.513176 1 0 1.000000
  0 -25.612940 41.975498 37.207527 0.237605 -0.335943 -0.911420 0.401468 0.521404 1 0 1.000000
barracuda
  0 -25.612940 41.975498 37.207527 0.237605 -0.335943 -0.911420 0.401468 0.521404 1 0 1.000000
  0 -24.399080 41.168667 38.303795 -0.032417 -0.953997 -0.298057 0.399321 0.513176 1 0 1.000000
  0 -25.612940 41.168667 38.465530 0.272049 -0.941788 -0.197545 0.395660 0.517557 1 0 1.000000
barracuda
  0 25.601109 35.842087 41.988251 0.001325 -0.797658 0.603108 0.298135 0.554587 1 0 1.000000
  0 25.495007 36.287510 42.578140 0.001325 -0.797658 0.603108 0.298608 0.558418 1 0 1.000000
  0 20.480030 35.787689 41.928108 0.001325 -0.797658 0.603108 0.324605 0.554404 1 0 1.000000
barracuda
  0 20.480030 35.787689 41.928108 0.001325 -0.797658 0.603108 0.324605 0.554404 1 0 1.000000
  0 25.495007 36.287510 42.578140 0.001325 -0.797658 0.603108 0.298608 0.558418 1 0 1.000000
  0 20.460522 36.239166 42.524712 0.001325 -0.797658 0.603108 0.324714 0.558277 1 0 1.000000
barracuda
  0 25.581730 37.547600 41.611626 0.988468 0.043278 0.145115 0.298107 0.566679 1 0 1.000000
  0 25.495007 36.287510 42.578140 0.988468 0.043278 0.145115 0.298608 0.558418 1 0 1.000000
  0 25.601109 35.842087 41.988251 0.988468 0.043278 0.145115 0.294726 0.558242 1 0 1.000000
barracuda
  0 -34.608463 12.444977 39.088657 -0.908645 -0.417569 0.000000 0.826495 0.563828 1 0 1.000000
  0 -36.288311 16.100388 34.947628 -0.951884 -0.306457 0.000000 0.813733 0.578678 1 0 1.000000
  0 -34.608463 12.444977 35.271679 -0.908645 -0.417569 0.000000 0.826674 0.577357 1 0 1.000000
barracuda
  0 -36.288311 16.100388 40.877125 -0.951884 -0.306457 0.000000 0.813454 0.557661 1 0 1.000000
  0 -36.288311 16.100388 34.947628 -0.951884 -0.306457 0.000000 0.813733 0.578678 1 0 1.000000
  0 -34.608463 12.444977 39.088657 -0.908645 -0.417569 0.000000 0.826495 0.563828 1 0 1.000000
barracuda
  0 -36.288311 16.100388 40.877125 -0.951884 -0.306457 0.000000 0.813454 0.557661 1 0 1.000000
  0 -37.672356 23.213692 35.074558 -0.993392 -0.114766 0.000000 0.788514 0.578563 1 0 1.000000
  0 -36.288311 16.100388 34.947628 -0.951884 -0.306457 0.000000 0.813733 0.578678 1 0 1.000000
barracuda
  0 -37.672356 23.213696 42.370243 -0.993392 -0.114766 0.000000 0.788174 0.552703 1 0 1.000000
  0 -37.672356 23.213692 35.074558 -0.993392 -0.114766 0.000000 0.788514 0.578563 1 0 1.000000
  0 -36.288311 16.100388 40.877125 -0.951884 -0.306457 0.000000 0.813454 0.557661 1 0 1.000000
barracuda
  0 -37.672356 23.213696 42.370243 -0.993392 -0.114766 0.000000 0.788174 0.552703 1 0 1.000000
  0 -37.998013 31.809341 35.442635 -0.990020 0.140927 0.000000 0.758029 0.577663 1 0 1.000000
  0 -37.672356 23.213692 35.074558 -0.993392 -0.114766 0.000000 0.788514 0.578563 1 0 1.000000
barracuda
  0 -37.998013 31.809341 42.158806 -0.990020 0.140927 0.000000 0.757710 0.553858 1 0 1.000000
  0 -37.998013 31.809341 35.442635 -0.990020 0.140927 0.000000 0.758029 0.577663 1 0 1.000000
  0 -37.672356 23.213696 42.370243 -0.993392 -0.114766 0.000000 0.788174 0.552703 1 0 1.000000
barracuda
  0 -35.354942 39.767403 40.227661 -0.949027 0.315195 0.000000 0.729597 0.561077 1 0 1.000000
  0 -37.998013 31.809341 35.442635 -0.990020 0.140927 0.000000 0.758029 0.577663 1 0 1.000000
  0 -37.998013 31.809341 42.158806 -0.990020 0.140927 0.000000 0.757710 0.553858 1 0 1.000000
barracuda
  0 -35.354942 39.767406 35.584053 -0.949027 0.315195 0.000000 0.729816 0.577536 1 0 1.000000
  0 -37.998013 31.809341 35.442635 -0.990020 0.140927 0.000000 0.758029 0.577663 1 0 1.000000
  0 -35.354942 39.767403 40.227661 -0.949027 0.315195 0.000000 0.729597 0.561077 1 0 1.000000
barracuda
  0 20.785793 36.106976 41.338493 0.015875 -0.879252 -0.476093 0.322979 0.550947 1 0 1.000000
  0 25.297443 36.161369 41.398636 0.015875 -0.879252 -0.476093 0.299739 0.551124 1 0 1.000000
  0 20.480030 35.787689 41.928108 0.015875 -0.879252 -0.476093 0.324605 0.554404 1 0 1.000000
barracuda
  0 20.480030 35.787689 41.928108 0.015875 -0.879252 -0.476093 0.324605 0.554404 1 0 1.000000
  0 25.297443 36.161369 41.398636 0.015875 -0.879252 -0.476093 0.299739 0.551124 1 0 1.000000
  0 25.601109 35.842087 41.988251 0.015875 -0.879252 -0.476093 0.298135 0.554587 1 0 1.000000
barracuda
  0 20.514080 34.255482 42.269096 0.850618 0.131094 0.509180 0.324171 0.539866 1 0 1.000000
  0 20.815788 34.574764 41.679482 0.850618 0.131094 0.509180 0.322475 0.543086 1 0 1.000000
  0 20.480030 35.787689 41.928108 0.850618 0.131094 0.509180 0.326141 0.548270 1 0 1.000000
barracuda
  0 20.480030 35.787689 41.928108 0.850618 0.131094 0.509180 0.326141 0.548270 1 0 1.000000
  0 20.815788 34.574764 41.679482 0.850618 0.131094 0.509180 0.322475 0.543086 1 0 1.000000
  0 20.785793 36.106976 41.338493 0.850618 0.131094 0.509180 0.322979 0.550947 1 0 1.000000
barracuda
  0 25.618721 34.292477 42.330425 -0.012858 0.879259 0.476171 0.298250 0.539978 1 0 1.000000
  0 25.312958 34.611759 41.740803 -0.012858 0.879259 0.476171 0.300035 0.543163 1 0 1.000000
  0 20.514080 34.255482 42.269096 -0.012858 0.879259 0.476171 0.324171 0.539866 1 0 1.000000
barracuda
  0 20.514080 34.255482 42.269096 -0.012858 0.879259 0.476171 0.324171 0.539866 1 0 1.000000
  0 25.312958 34.611759 41.740803 -0.012858 0.879259 0.476171 0.300035 0.543163 1 0 1.000000
  0 20.815788 34.574764 41.679482 -0.012858 0.879259 0.476171 0.322475 0.543086 1 0 1.000000
barracuda
  0 25.297443 36.161369 41.398636 -0.860451 0.101078 0.499407 0.299739 0.551124 1 0 1.000000
  0 25.312958 34.611759 41.740803 -0.860451 0.101078 0.499407 0.300035 0.543163 1 0 1.000000
  0 25.601109 35.842087 41.988251 -0.860451 0.101078 0.499407 0.296550 0.548509 1 0 1.000000
barracuda
  0 25.601109 35.842087 41.988251 -0.860451 0.101078 0.499407 0.296550 0.548509 1 0 1.000000
  0 25.312958 34.611759 41.740803 -0.860451 0.101078 0.499407 0.300035 0.543163 1 0 1.000000
  0 25.618721 34.292477 42.330425 -0.860451 0.101078 0.499407 0.298250 0.539978 1 0 1.000000
barracuda
  0 15.961590 28.379761 31.655254 0.759849 -0.163624 -0.629171 0.649040 0.360010 1 0 1.000000
  0 20.167641 29.388073 36.341488 0.759849 -0.163624 -0.629171 0.650480 0.344025 1 0 1.000000
  0 15.023542 23.598377 31.634651 0.759849 -0.163624 -0.629171 0.632951 0.363878 1 0 1.000000
barracuda
  0 15.023542 23.598377 31.634651 0.759849 -0.163624 -0.629171 0.632951 0.363878 1 0 1.000000
  0 20.167641 29.388073 36.341488 0.759849 -0.163624 -0.629171 0.650480 0.344025 1 0 1.000000
  0 18.198338 20.043003 36.524643 0.759849 -0.163624 -0.629171 0.617259 0.351362 1 0 1.000000
barracuda
  0 -24.399080 42.090092 43.711464 1.000000 0.000000 0.000000 0.201421 0.519718 1 0 1.000000
  0 -24.399080 41.078590 41.762085 1.000000 0.000000 0.000000 0.195405 0.531310 1 0 1.000000
  0 -24.399080 44.697277 43.544693 1.000000 0.000000 0.000000 0.216926 0.520710 1 0 1.000000
barracuda
  0 -24.399080 44.697277 43.544693 1.000000 0.000000 0.000000 0.216926 0.520710 1 0 1.000000
  0 -24.399080 41.078590 41.762085 1.000000 0.000000 0.000000 0.195405 0.531310 1 0 1.000000
  0 -24.399080 45.986477 41.149582 1.000000 0.000000 0.000000 0.224593 0.534953 1 0 1.000000
barracuda
  0 -24.399080 41.078590 41.762085 1.000000 0.000000 0.000000 0.195405 0.531310 1 0 1.000000
  0 -24.399080 41.168667 38.303795 1.000000 0.000000 0.000000 0.195941 0.551878 1 0 1.000000
  0 -24.399080 45.986477 41.149582 1.000000 0.000000 0.000000 0.224593 0.534953 1 0 1.000000
barracuda
  0 -24.399080 45.986477 41.149582 1.000000 0.000000 0.000000 0.224593 0.534953 1 0 1.000000
  0 -24.399080 41.168667 38.303795 1.000000 0.000000 0.000000 0.195941 0.551878 1 0 1.000000
  0 -24.399080 46.002399 38.311516 1.000000 0.000000 0.000000 0.224687 0.551832 1 0 1.000000
barracuda
  0 -24.399080 46.002399 38.311516 1.000000 0.000000 0.000000 0.224687 0.551832 1 0 1.000000
  0 -24.399080 41.168667 38.303795 1.000000 0.000000 0.000000 0.195941 0.551878 1 0 1.000000
  0 -24.399080 44.652767 36.949341 1.000000 0.000000 0.000000 0.216661 0.559932 1 0 1.000000
barracuda
  0 -24.399080 41.168667 38.303795 1.000000 0.000000 0.000000 0.195941 0.551878 1 0 1.000000
  0 -24.399080 41.975494 37.093311 1.000000 0.000000 0.000000 0.200740 0.559077 1 0 1.000000
  0 -24.399080 44.652767 36.949341 1.000000 0.000000 0.000000 0.216661 0.559932 1 0 1.000000
barracuda
  0 -9.430252 35.408245 34.053940 -0.809018 0.567755 -0.152131 0.252705 0.559079 1 0 1.000000
  0 -9.066602 35.240902 32.408615 -0.309014 0.918651 -0.246153 0.250078 0.549536 1 0 1.000000
  0 -9.430252 34.985699 32.476997 -0.809018 0.567755 -0.152131 0.252705 0.549536 1 0 1.000000
barracuda
  0 -9.066602 35.663445 33.985558 -0.309014 0.918651 -0.246153 0.250078 0.559079 1 0 1.000000
  0 -9.066602 35.240902 32.408615 -0.309014 0.918651 -0.246153 0.250078 0.549536 1 0 1.000000
  0 -9.430252 35.408245 34.053940 -0.809018 0.567755 -0.152131 0.252705 0.559079 1 0 1.000000
barracuda
  0 -9.066602 35.663445 33.985558 -0.309014 0.918651 -0.246153 0.250078 0.559079 1 0 1.000000
  0 -8.617111 35.240902 32.408615 0.309015 0.918651 -0.246152 0.247450 0.549536 1 0 1.000000
  0 -9.066602 35.240902 32.408615 -0.309014 0.918651 -0.246153 0.250078 0.549536 1 0 1.000000
barracuda
  0 -8.617111 35.663445 33.985558 0.309015 0.918651 -0.246152 0.247450 0.559079 1 0 1.000000
  0 -8.617111 35.240902 32.408615 0.309015 0.918651 -0.246152 0.247450 0.549536 1 0 1.000000
  0 -9.066602 35.663445 33.985558 -0.309014 0.918651 -0.246153 0.250078 0.559079 1 0 1.000000
barracuda
  0 -8.617111 35.663445 33.985558 0.309015 0.918651 -0.246152 0.247450 0.559079 1 0 1.000000
  0 -8.253462 34.985699 32.476997 0.809018 0.567755 -0.152130 0.244822 0.549536 1 0 1.000000
  0 -8.617111 35.240902 32.408615 0.309015 0.918651 -0.246152 0.247450 0.549536 1 0 1.000000
barracuda
  0 -8.253462 35.408245 34.053940 0.809018 0.567755 -0.152130 0.244822 0.559079 1 0 1.000000
  0 -8.253462 34.985699 32.476997 0.809018 0.567755 -0.152130 0.244822 0.549536 1 0 1.000000
  0 -8.617111 35.663445 33.985558 0.309015 0.918651 -0.246152 0.247450 0.559079 1 0 1.000000
barracuda
  0 -8.253462 35.408245 34.053940 0.809018 0.567755 -0.152130 0.244822 0.559079 1 0 1.000000
  0 -8.114564 34.572773 32.587639 1.000000 0.000000 -0.000001 0.242195 0.549536 1 0 1.000000
  0 -8.253462 34.985699 32.476997 0.809018 0.567755 -0.152130 0.244822 0.549536 1 0 1.000000
barracuda
  0 -8.114564 34.995316 34.164585 1.000000 0.000000 -0.000001 0.242195 0.559079 1 0 1.000000
  0 -8.114564 34.572773 32.587639 1.000000 0.000000 -0.000001 0.242195 0.549536 1 0 1.000000
  0 -8.253462 35.408245 34.053940 0.809018 0.567755 -0.152130 0.244822 0.559079 1 0 1.000000
barracuda
  0 -8.114564 34.995316 34.164585 1.000000 0.000000 -0.000001 0.242195 0.559079 1 0 1.000000
  0 -8.253462 34.159843 32.698288 0.809016 -0.567757 0.152132 0.239571 0.549536 1 0 1.000000
  0 -8.114564 34.572773 32.587639 1.000000 0.000000 -0.000001 0.242195 0.549536 1 0 1.000000
barracuda
  0 -8.253462 34.582386 34.275230 0.809016 -0.567757 0.152132 0.239571 0.559079 1 0 1.000000
  0 -8.253462 34.159843 32.698288 0.809016 -0.567757 0.152132 0.239571 0.549536 1 0 1.000000
  0 -8.114564 34.995316 34.164585 1.000000 0.000000 -0.000001 0.242195 0.559079 1 0 1.000000
barracuda
  0 -8.253462 34.582386 34.275230 0.809016 -0.567757 0.152132 0.239571 0.559079 1 0 1.000000
  0 -8.617111 33.904644 32.766663 0.309012 -0.918651 0.246154 0.236936 0.549536 1 0 1.000000
  0 -8.253462 34.159843 32.698288 0.809016 -0.567757 0.152132 0.239571 0.549536 1 0 1.000000
barracuda
  0 -8.617111 34.327187 34.343605 0.309012 -0.918651 0.246154 0.236936 0.559079 1 0 1.000000
  0 -8.617111 33.904644 32.766663 0.309012 -0.918651 0.246154 0.236936 0.549536 1 0 1.000000
  0 -8.253462 34.582386 34.275230 0.809016 -0.567757 0.152132 0.239571 0.559079 1 0 1.000000
barracuda
  0 -8.617111 34.327187 34.343605 0.309012 -0.918651 0.246154 0.236936 0.559079 1 0 1.000000
  0 -9.066602 33.904644 32.766663 -0.309011 -0.918651 0.246155 0.234312 0.549536 1 0 1.000000
  0 -8.617111 33.904644 32.766663 0.309012 -0.918651 0.246154 0.236936 0.549536 1 0 1.000000
barracuda
  0 -9.066602 34.327187 34.343605 -0.309011 -0.918651 0.246155 0.234312 0.559079 1 0 1.000000
  0 -9.066602 33.904644 32.766663 -0.309011 -0.918651 0.246155 0.234312 0.549536 1 0 1.000000
  0 -8.617111 34.327187 34.343605 0.309012 -0.918651 0.246154 0.236936 0.559079 1 0 1.000000
barracuda
  0 -9.066602 34.327187 34.343605 -0.309011 -0.918651 0.246155 0.234312 0.559079 1 0 1.000000
  0 -9.430252 34.159843 32.698288 -0.809017 -0.567757 0.152132 0.231684 0.549536 1 0 1.000000
  0 -9.066602 33.904644 32.766663 -0.309011 -0.918651 0.246155 0.234312 0.549536 1 0 1.000000
barracuda
  0 -9.430252 34.582386 34.275230 -0.809017 -0.567757 0.152132 0.231684 0.559079 1 0 1.000000
  0 -9.430252 34.159843 32.698288 -0.809017 -0.567757 0.152132 0.231684 0.549536 1 0 1.000000
  0 -9.066602 34.327187 34.343605 -0.309011 -0.918651 0.246155 0.234312 0.559079 1 0 1.000000
barracuda
  0 -9.430252 34.582386 34.275230 -0.809017 -0.567757 0.152132 0.231684 0.559079 1 0 1.000000
  0 -9.569149 34.572773 32.587639 -1.000000 0.000000 -0.000001 0.229056 0.549536 1 0 1.000000
  0 -9.430252 34.159843 32.698288 -0.809017 -0.567757 0.152132 0.231684 0.549536 1 0 1.000000
barracuda
  0 -9.569149 34.995316 34.164585 -1.000000 0.000000 -0.000001 0.229056 0.559079 1 0 1.000000
  0 -9.569149 34.572773 32.587639 -1.000000 0.000000 -0.000001 0.229056 0.549536 1 0 1.000000
  0 -9.430252 34.582386 34.275230 -0.809017 -0.567757 0.152132 0.231684 0.559079 1 0 1.000000
barracuda
  0 -9.569149 34.995316 34.164585 -1.000000 0.000000 -0.000001 0.229056 0.559079 1 0 1.000000
  0 -9.430252 34.985699 32.476997 -0.809018 0.567755 -0.152131 0.226429 0.549536 1 0 1.000000
  0 -9.569149 34.572773 32.587639 -1.000000 0.000000 -0.000001 0.229056 0.549536 1 0 1.000000
barracuda
  0 -9.430252 35.408245 34.053940 -0.809018 0.567755 -0.152131 0.226429 0.559079 1 0 1.000000
  0 -9.430252 34.985699 32.476997 -0.809018 0.567755 -0.152131 0.226429 0.549536 1 0 1.000000
  0 -9.569149 34.995316 34.164585 -1.000000 0.000000 -0.000001 0.229056 0.559079 1 0 1.000000
barracuda
  0 -15.408679 34.959217 34.029861 -1.000000 0.000000 0.000000 0.287920 0.536277 1 0 1.000000
  0 -15.056610 36.273071 34.746704 -0.809018 0.567756 -0.152129 0.294580 0.530241 1 0 1.000000
  0 -15.056610 36.005852 33.749416 -0.809018 0.567756 -0.152129 0.294580 0.536277 1 0 1.000000
barracuda
  0 -15.408679 35.226437 35.027145 -1.000000 0.000000 0.000000 0.287920 0.530241 1 0 1.000000
  0 -15.056610 36.273071 34.746704 -0.809018 0.567756 -0.152129 0.294580 0.530241 1 0 1.000000
  0 -15.408679 34.959217 34.029861 -1.000000 0.000000 0.000000 0.287920 0.536277 1 0 1.000000
barracuda
  0 -15.056610 33.912575 34.310303 -0.809016 -0.567758 0.152129 0.281260 0.536277 1 0 1.000000
  0 -15.408679 35.226437 35.027145 -1.000000 0.000000 0.000000 0.287920 0.530241 1 0 1.000000
  0 -15.408679 34.959217 34.029861 -1.000000 0.000000 0.000000 0.287920 0.536277 1 0 1.000000
barracuda
  0 -15.056610 34.179794 35.307587 -0.809016 -0.567758 0.152129 0.281260 0.530241 1 0 1.000000
  0 -15.408679 35.226437 35.027145 -1.000000 0.000000 0.000000 0.287920 0.530241 1 0 1.000000
  0 -15.056610 33.912575 34.310303 -0.809016 -0.567758 0.152129 0.281260 0.536277 1 0 1.000000
barracuda
  0 -14.134874 33.265717 34.483627 -0.309016 -0.918651 0.246149 0.274600 0.536277 1 0 1.000000
  0 -15.056610 34.179794 35.307587 -0.809016 -0.567758 0.152129 0.281260 0.530241 1 0 1.000000
  0 -15.056610 33.912575 34.310303 -0.809016 -0.567758 0.152129 0.281260 0.536277 1 0 1.000000
barracuda
  0 -14.134874 33.532936 35.480911 -0.309016 -0.918651 0.246149 0.274600 0.530241 1 0 1.000000
  0 -15.056610 34.179794 35.307587 -0.809016 -0.567758 0.152129 0.281260 0.530241 1 0 1.000000
  0 -14.134874 33.265717 34.483627 -0.309016 -0.918651 0.246149 0.274600 0.536277 1 0 1.000000
barracuda
  0 -12.995553 33.265717 34.483627 0.309016 -0.918651 0.246150 0.267949 0.536277 1 0 1.000000
  0 -14.134874 33.532936 35.480911 -0.309016 -0.918651 0.246149 0.274600 0.530241 1 0 1.000000
  0 -14.134874 33.265717 34.483627 -0.309016 -0.918651 0.246149 0.274600 0.536277 1 0 1.000000
barracuda
  0 -12.995553 33.532936 35.480911 0.309016 -0.918651 0.246150 0.267940 0.530241 1 0 1.000000
  0 -14.134874 33.532936 35.480911 -0.309016 -0.918651 0.246149 0.274600 0.530241 1 0 1.000000
  0 -12.995553 33.265717 34.483627 0.309016 -0.918651 0.246150 0.267949 0.536277 1 0 1.000000
barracuda
  0 -12.073816 33.912575 34.310303 0.809016 -0.567758 0.152130 0.261270 0.536277 1 0 1.000000
  0 -12.995553 33.532936 35.480911 0.309016 -0.918651 0.246150 0.267940 0.530241 1 0 1.000000
  0 -12.995553 33.265717 34.483627 0.309016 -0.918651 0.246150 0.267949 0.536277 1 0 1.000000
barracuda
  0 -12.073816 34.179794 35.307587 0.809016 -0.567758 0.152130 0.261279 0.530241 1 0 1.000000
  0 -12.995553 33.532936 35.480911 0.309016 -0.918651 0.246150 0.267940 0.530241 1 0 1.000000
  0 -12.073816 33.912575 34.310303 0.809016 -0.567758 0.152130 0.261270 0.536277 1 0 1.000000
barracuda
  0 -11.721747 34.959217 34.029861 1.000000 0.000001 0.000000 0.254620 0.536277 1 0 1.000000
  0 -12.073816 34.179794 35.307587 0.809016 -0.567758 0.152130 0.261279 0.530241 1 0 1.000000
  0 -12.073816 33.912575 34.310303 0.809016 -0.567758 0.152130 0.261270 0.536277 1 0 1.000000
barracuda
  0 -11.721747 35.226437 35.027145 1.000000 0.000001 0.000000 0.254619 0.530241 1 0 1.000000
  0 -12.073816 34.179794 35.307587 0.809016 -0.567758 0.152130 0.261279 0.530241 1 0 1.000000
  0 -11.721747 34.959217 34.029861 1.000000 0.000001 0.000000 0.254620 0.536277 1 0 1.000000
barracuda
  0 -12.073816 36.005852 33.749416 0.809018 0.567756 -0.152129 0.247959 0.536276 1 0 1.000000
  0 -11.721747 35.226437 35.027145 1.000000 0.000001 0.000000 0.254619 0.530241 1 0 1.000000
  0 -11.721747 34.959217 34.029861 1.000000 0.000001 0.000000 0.254620 0.536277 1 0 1.000000
barracuda
  0 -12.073816 36.273071 34.746704 0.809018 0.567756 -0.152129 0.247959 0.530241 1 0 1.000000
  0 -11.721747 35.226437 35.027145 1.000000 0.000001 0.000000 0.254619 0.530241 1 0 1.000000
  0 -12.073816 36.005852 33.749416 0.809018 0.567756 -0.152129 0.247959 0.536276 1 0 1.000000
barracuda
  0 -12.995553 36.652714 33.576088 0.309018 0.918650 -0.246149 0.241299 0.536276 1 0 1.000000
  0 -12.073816 36.273071 34.746704 0.809018 0.567756 -0.152129 0.247959 0.530241 1 0 1.000000
  0 -12.073816 36.005852 33.749416 0.809018 0.567756 -0.152129 0.247959 0.536276 1 0 1.000000
barracuda
  0 -12.995553 36.919933 34.573372 0.309018 0.918650 -0.246149 0.241299 0.530241 1 0 1.000000
  0 -12.073816 36.273071 34.746704 0.809018 0.567756 -0.152129 0.247959 0.530241 1 0 1.000000
  0 -12.995553 36.652714 33.576088 0.309018 0.918650 -0.246149 0.241299 0.536276 1 0 1.000000
barracuda
  0 -14.134874 36.652714 33.576088 -0.309019 0.918650 -0.246150 0.234639 0.536277 1 0 1.000000
  0 -12.995553 36.919933 34.573372 0.309018 0.918650 -0.246149 0.241299 0.530241 1 0 1.000000
  0 -12.995553 36.652714 33.576088 0.309018 0.918650 -0.246149 0.241299 0.536276 1 0 1.000000
barracuda
  0 -14.134874 36.919933 34.573372 -0.309019 0.918650 -0.246150 0.234639 0.530241 1 0 1.000000
  0 -12.995553 36.919933 34.573372 0.309018 0.918650 -0.246149 0.241299 0.530241 1 0 1.000000
  0 -14.134874 36.652714 33.576088 -0.309019 0.918650 -0.246150 0.234639 0.536277 1 0 1.000000
barracuda
  0 -15.056610 36.005852 33.749416 -0.809018 0.567756 -0.152129 0.227978 0.536276 1 0 1.000000
  0 -14.134874 36.919933 34.573372 -0.309019 0.918650 -0.246150 0.234639 0.530241 1 0 1.000000
  0 -14.134874 36.652714 33.576088 -0.309019 0.918650 -0.246150 0.234639 0.536277 1 0 1.000000
barracuda
  0 -15.056610 36.273071 34.746704 -0.809018 0.567756 -0.152129 0.227978 0.530241 1 0 1.000000
  0 -14.134874 36.919933 34.573372 -0.309019 0.918650 -0.246150 0.234639 0.530241 1 0 1.000000
  0 -15.056610 36.005852 33.749416 -0.809018 0.567756 -0.152129 0.227978 0.536276 1 0 1.000000
barracuda
  0 25.618721 34.292477 42.330425 -0.012209 0.218892 0.975673 0.748905 0.328347 1 0 1.000000
  0 20.514080 34.255482 42.269096 -0.011229 0.222323 0.974908 0.749036 0.346442 1 0 1.000000
  0 -37.998013 31.809341 42.158806 -0.011615 0.230592 0.972981 0.757710 0.553858 1 0 1.000000
barracuda
  0 -37.998013 31.809341 42.158806 -0.011615 0.230592 0.972981 0.757710 0.553858 1 0 1.000000
  0 20.514080 34.255482 42.269096 -0.011229 0.222323 0.974908 0.749036 0.346442 1 0 1.000000
  0 20.480030 35.787689 41.928108 -0.011615 0.230592 0.972981 0.743605 0.346563 1 0 1.000000
barracuda
  0 -37.998013 31.809341 42.158806 -0.011615 0.230592 0.972981 0.757710 0.553858 1 0 1.000000
  0 20.480030 35.787689 41.928108 -0.011615 0.230592 0.972981 0.743605 0.346563 1 0 1.000000
  0 -35.354942 39.767403 40.227661 -0.012001 0.238845 0.970983 0.730422 0.544453 1 0 1.000000
barracuda
  0 -35.354942 39.767403 40.227661 -0.012001 0.238845 0.970983 0.730422 0.544453 1 0 1.000000
  0 20.480030 35.787689 41.928108 -0.011615 0.230592 0.972981 0.743605 0.346563 1 0 1.000000
  0 -22.264904 39.760639 40.581776 -0.012001 0.238845 0.970983 0.730154 0.498044 1 0 1.000000
barracuda
  0 20.480030 35.787689 41.928108 -0.011615 0.230592 0.972981 0.743605 0.346563 1 0 1.000000
  0 20.440105 37.584595 41.528236 -0.026850 0.240995 0.970155 0.737235 0.346704 1 0 1.000000
  0 -22.264904 39.760639 40.581776 -0.012001 0.238845 0.970983 0.730154 0.498044 1 0 1.000000
barracuda
  0 20.440105 37.584595 41.528236 -0.026850 0.240995 0.970155 0.737235 0.346704 1 0 1.000000
  0 17.066662 40.114429 40.601425 -0.026850 0.240995 0.970155 0.726833 0.358672 1 0 1.000000
  0 -22.264904 39.760639 40.581776 -0.012001 0.238845 0.970983 0.730154 0.498044 1 0 1.000000
barracuda
  0 25.581730 37.547600 41.611626 -0.025647 0.221788 0.974757 0.737366 0.328478 1 0 1.000000
  0 17.066662 40.114429 40.601425 -0.026850 0.240995 0.970155 0.726833 0.358672 1 0 1.000000
  0 20.440105 37.584595 41.528236 -0.026850 0.240995 0.970155 0.737235 0.346704 1 0 1.000000
barracuda
  0 28.206997 42.625980 40.597809 -0.031878 0.224931 0.973853 0.721602 0.319197 1 0 1.000000
  0 17.066662 40.114429 40.601425 -0.026850 0.240995 0.970155 0.726833 0.358672 1 0 1.000000
  0 25.581730 37.547600 41.611626 -0.025647 0.221788 0.974757 0.737366 0.328478 1 0 1.000000
barracuda
  0 30.663891 32.654835 42.759949 -0.014913 0.214986 0.976503 0.754697 0.310462 1 0 1.000000
  0 28.206997 42.625980 40.597809 -0.031878 0.224931 0.973853 0.721602 0.319197 1 0 1.000000
  0 25.581730 37.547600 41.611626 -0.025647 0.221788 0.974757 0.737366 0.328478 1 0 1.000000
barracuda
  0 30.663891 32.654835 42.759949 -0.014913 0.214986 0.976503 0.754697 0.310462 1 0 1.000000
  0 25.581730 37.547600 41.611626 -0.025647 0.221788 0.974757 0.737366 0.328478 1 0 1.000000
  0 25.601109 35.842087 41.988251 -0.013186 0.215464 0.976423 0.743412 0.328409 1 0 1.000000
barracuda
  0 30.663891 32.654835 42.759949 -0.014913 0.214986 0.976503 0.754697 0.310462 1 0 1.000000
  0 25.601109 35.842087 41.988251 -0.013186 0.215464 0.976423 0.743412 0.328409 1 0 1.000000
  0 25.618721 34.292477 42.330425 -0.012209 0.218892 0.975673 0.748905 0.328347 1 0 1.000000
barracuda
  0 30.663891 32.654835 42.759949 -0.014913 0.214986 0.976503 0.754697 0.310462 1 0 1.000000
  0 25.618721 34.292477 42.330425 -0.012209 0.218892 0.975673 0.748905 0.328347 1 0 1.000000
  0 -37.998013 31.809341 42.158806 -0.011615 0.230592 0.972981 0.757710 0.553858 1 0 1.000000
barracuda
  0 -12.073816 33.912575 34.310303 0.000000 -0.258818 -0.965926 0.261270 0.536277 1 0 1.000000
  0 -12.995553 33.265717 34.483627 0.000000 -0.258818 -0.965926 0.267949 0.536277 1 0 1.000000
  0 -11.721747 34.959217 34.029861 0.000000 -0.258818 -0.965926 0.255971 0.540169 1 0 1.000000
barracuda
  0 -12.995553 33.265717 34.483627 0.000000 -0.258818 -0.965926 0.267949 0.536277 1 0 1.000000
  0 -14.134874 33.265717 34.483627 0.000000 -0.258818 -0.965926 0.273504 0.540169 1 0 1.000000
  0 -11.721747 34.959217 34.029861 0.000000 -0.258818 -0.965926 0.255971 0.540169 1 0 1.000000
barracuda
  0 -14.134874 33.265717 34.483627 0.000000 -0.258818 -0.965926 0.273504 0.540169 1 0 1.000000
  0 -15.056610 33.912575 34.310303 0.000000 -0.258818 -0.965926 0.275781 0.546467 1 0 1.000000
  0 -11.721747 34.959217 34.029861 0.000000 -0.258818 -0.965926 0.255971 0.540169 1 0 1.000000
barracuda
  0 -15.056610 33.912575 34.310303 0.000000 -0.258818 -0.965926 0.275781 0.546467 1 0 1.000000
  0 -15.408679 34.959217 34.029861 0.000000 -0.258818 -0.965926 0.273919 0.552765 1 0 1.000000
  0 -11.721747 34.959217 34.029861 0.000000 -0.258818 -0.965926 0.255971 0.540169 1 0 1.000000
barracuda
  0 -15.408679 34.959217 34.029861 0.000000 -0.258818 -0.965926 0.273919 0.552765 1 0 1.000000
  0 -15.056610 36.005852 33.749416 0.000000 -0.258818 -0.965926 0.268630 0.556657 1 0 1.000000
  0 -11.721747 34.959217 34.029861 0.000000 -0.258818 -0.965926 0.255971 0.540169 1 0 1.000000
barracuda
  0 -15.056610 36.005852 33.749416 0.000000 -0.258818 -0.965926 0.268630 0.556657 1 0 1.000000
  0 -14.134874 36.652714 33.576088 0.000000 -0.258818 -0.965926 0.261934 0.556657 1 0 1.000000
  0 -11.721747 34.959217 34.029861 0.000000 -0.258818 -0.965926 0.255971 0.540169 1 0 1.000000
barracuda
  0 -14.134874 36.652714 33.576088 0.000000 -0.258818 -0.965926 0.261934 0.556657 1 0 1.000000
  0 -12.995553 36.652714 33.576088 0.000000 -0.258818 -0.965926 0.256387 0.552764 1 0 1.000000
  0 -11.721747 34.959217 34.029861 0.000000 -0.258818 -0.965926 0.255971 0.540169 1 0 1.000000
barracuda
  0 -12.995553 36.652714 33.576088 0.000000 -0.258818 -0.965926 0.256387 0.552764 1 0 1.000000
  0 -12.073816 36.005852 33.749416 0.000000 -0.258818 -0.965926 0.254110 0.546467 1 0 1.000000
  0 -11.721747 34.959217 34.029861 0.000000 -0.258818 -0.965926 0.255971 0.540169 1 0 1.000000
barracuda
  0 -8.253462 35.408245 34.053940 0.000001 0.258820 0.965925 0.242396 0.563100 1 0 1.000000
  0 -8.617111 35.663445 33.985558 0.000001 0.258820 0.965925 0.241497 0.565584 1 0 1.000000
  0 -8.114564 34.995316 34.164585 0.000001 0.258820 0.965925 0.241661 0.560615 1 0 1.000000
barracuda
  0 -8.617111 35.663445 33.985558 0.000001 0.258820 0.965925 0.241497 0.565584 1 0 1.000000
  0 -9.066602 35.663445 33.985558 0.000001 0.258820 0.965925 0.239309 0.567120 1 0 1.000000
  0 -8.114564 34.995316 34.164585 0.000001 0.258820 0.965925 0.241661 0.560615 1 0 1.000000
barracuda
  0 -9.066602 35.663445 33.985558 0.000001 0.258820 0.965925 0.239309 0.567120 1 0 1.000000
  0 -9.430252 35.408245 34.053940 0.000001 0.258820 0.965925 0.236667 0.567120 1 0 1.000000
  0 -8.114564 34.995316 34.164585 0.000001 0.258820 0.965925 0.241661 0.560615 1 0 1.000000
barracuda
  0 -9.430252 35.408245 34.053940 0.000001 0.258820 0.965925 0.236667 0.567120 1 0 1.000000
  0 -9.569149 34.995316 34.164585 0.000001 0.258820 0.965925 0.234580 0.565584 1 0 1.000000
  0 -8.114564 34.995316 34.164585 0.000001 0.258820 0.965925 0.241661 0.560615 1 0 1.000000
barracuda
  0 -9.569149 34.995316 34.164585 0.000001 0.258820 0.965925 0.234580 0.565584 1 0 1.000000
  0 -9.430252 34.582386 34.275230 0.000001 0.258820 0.965925 0.233846 0.563099 1 0 1.000000
  0 -8.114564 34.995316 34.164585 0.000001 0.258820 0.965925 0.241661 0.560615 1 0 1.000000
barracuda
  0 -9.430252 34.582386 34.275230 0.000001 0.258820 0.965925 0.233846 0.563099 1 0 1.000000
  0 -9.066602 34.327187 34.343605 0.000001 0.258820 0.965925 0.234744 0.560615 1 0 1.000000
  0 -8.114564 34.995316 34.164585 0.000001 0.258820 0.965925 0.241661 0.560615 1 0 1.000000
barracuda
  0 -9.066602 34.327187 34.343605 0.000001 0.258820 0.965925 0.234744 0.560615 1 0 1.000000
  0 -8.617111 34.327187 34.343605 0.000001 0.258820 0.965925 0.236936 0.559079 1 0 1.000000
  0 -8.114564 34.995316 34.164585 0.000001 0.258820 0.965925 0.241661 0.560615 1 0 1.000000
barracuda
  0 -8.617111 34.327187 34.343605 0.000001 0.258820 0.965925 0.236936 0.559079 1 0 1.000000
  0 -8.253462 34.582386 34.275230 0.000001 0.258820 0.965925 0.239571 0.559079 1 0 1.000000
  0 -8.114564 34.995316 34.164585 0.000001 0.258820 0.965925 0.241661 0.560615 1 0 1.000000
barracuda
  0 -8.253462 34.985699 32.476997 0.000000 -0.258819 -0.965926 0.242396 0.545515 1 0 1.000000
  0 -8.114564 34.572773 32.587639 0.000000 -0.258819 -0.965926 0.241661 0.548000 1 0 1.000000
  0 -8.617111 35.240902 32.408615 0.000000 -0.258819 -0.965926 0.241497 0.543031 1 0 1.000000
barracuda
  0 -8.114564 34.572773 32.587639 0.000000 -0.258819 -0.965926 0.241661 0.548000 1 0 1.000000
  0 -8.253462 34.159843 32.698288 0.000000 -0.258819 -0.965926 0.239571 0.549536 1 0 1.000000
  0 -8.617111 35.240902 32.408615 0.000000 -0.258819 -0.965926 0.241497 0.543031 1 0 1.000000
barracuda
  0 -8.253462 34.159843 32.698288 0.000000 -0.258819 -0.965926 0.239571 0.549536 1 0 1.000000
  0 -8.617111 33.904644 32.766663 0.000000 -0.258819 -0.965926 0.236936 0.549536 1 0 1.000000
  0 -8.617111 35.240902 32.408615 0.000000 -0.258819 -0.965926 0.241497 0.543031 1 0 1.000000
barracuda
  0 -8.617111 33.904644 32.766663 0.000000 -0.258819 -0.965926 0.236936 0.549536 1 0 1.000000
  0 -9.066602 33.904644 32.766663 0.000000 -0.258819 -0.965926 0.234744 0.548000 1 0 1.000000
  0 -8.617111 35.240902 32.408615 0.000000 -0.258819 -0.965926 0.241497 0.543031 1 0 1.000000
barracuda
  0 -9.066602 33.904644 32.766663 0.000000 -0.258819 -0.965926 0.234744 0.548000 1 0 1.000000
  0 -9.430252 34.159843 32.698288 0.000000 -0.258819 -0.965926 0.233846 0.545515 1 0 1.000000
  0 -8.617111 35.240902 32.408615 0.000000 -0.258819 -0.965926 0.241497 0.543031 1 0 1.000000
barracuda
  0 -9.430252 34.159843 32.698288 0.000000 -0.258819 -0.965926 0.233846 0.545515 1 0 1.000000
  0 -9.569149 34.572773 32.587639 0.000000 -0.258819 -0.965926 0.234580 0.543031 1 0 1.000000
  0 -8.617111 35.240902 32.408615 0.000000 -0.258819 -0.965926 0.241497 0.543031 1 0 1.000000
barracuda
  0 -9.569149 34.572773 32.587639 0.000000 -0.258819 -0.965926 0.234580 0.543031 1 0 1.000000
  0 -9.430252 34.985699 32.476997 0.000000 -0.258819 -0.965926 0.236667 0.541496 1 0 1.000000
  0 -8.617111 35.240902 32.408615 0.000000 -0.258819 -0.965926 0.241497 0.543031 1 0 1.000000
barracuda
  0 -9.430252 34.985699 32.476997 0.000000 -0.258819 -0.965926 0.236667 0.541496 1 0 1.000000
  0 -9.066602 35.240902 32.408615 0.000000 -0.258819 -0.965926 0.239309 0.541496 1 0 1.000000
  0 -8.617111 35.240902 32.408615 0.000000 -0.258819 -0.965926 0.241497 0.543031 1 0 1.000000
barracuda
  0 -37.998013 31.809341 42.158806 -0.011713 0.043543 0.998983 0.757710 0.553858 1 0 1.000000
  0 -37.672356 23.213696 42.370243 -0.015544 -0.065398 0.997738 0.788174 0.552703 1 0 1.000000
  0 30.663891 32.654835 42.759949 -0.011713 0.043543 0.998983 0.754697 0.310462 1 0 1.000000
barracuda
  0 30.663891 32.654835 42.759949 -0.011713 0.043543 0.998983 0.754697 0.310462 1 0 1.000000
  0 -37.672356 23.213696 42.370243 -0.015544 -0.065398 0.997738 0.788174 0.552703 1 0 1.000000
  0 30.408287 22.779594 43.354435 -0.015544 -0.065398 0.997738 0.789728 0.311369 1 0 1.000000
barracuda
  0 -37.672356 23.213696 42.370243 -0.015544 -0.065398 0.997738 0.788174 0.552703 1 0 1.000000
  0 28.862957 15.477722 42.303444 -0.022646 -0.300515 0.953508 0.815599 0.316846 1 0 1.000000
  0 30.408287 22.779594 43.354435 -0.015544 -0.065398 0.997738 0.789728 0.311369 1 0 1.000000
barracuda
  0 -36.288311 16.100388 40.877125 -0.022646 -0.300515 0.953508 0.813392 0.547797 1 0 1.000000
  0 28.862957 15.477722 42.303444 -0.022646 -0.300515 0.953508 0.815599 0.316846 1 0 1.000000
  0 -37.672356 23.213696 42.370243 -0.015544 -0.065398 0.997738 0.788174 0.552703 1 0 1.000000
barracuda
  0 -36.288311 16.100388 40.877125 -0.022646 -0.300515 0.953508 0.813392 0.547797 1 0 1.000000
  0 -34.608463 12.444977 39.088657 -0.025713 -0.422330 0.906077 0.826350 0.541868 1 0 1.000000
  0 28.862957 15.477722 42.303444 -0.022646 -0.300515 0.953508 0.815599 0.316846 1 0 1.000000
barracuda
  0 28.862957 15.477722 42.303444 -0.022646 -0.300515 0.953508 0.815599 0.316846 1 0 1.000000
  0 -34.608463 12.444977 39.088657 -0.025713 -0.422330 0.906077 0.826350 0.541868 1 0 1.000000
  0 28.250435 12.444977 41.004795 -0.025713 -0.422330 0.906077 0.826350 0.318992 1 0 1.000000
barracuda
  0 24.833149 37.237041 35.624428 0.000000 0.965924 -0.258824 0.200983 0.246394 1 0 1.000000
  0 24.833149 36.994465 34.719139 0.000000 0.965924 -0.258824 0.205100 0.246394 1 0 1.000000
  0 19.260311 37.237041 35.624428 0.000000 0.965924 -0.258824 0.200983 0.271738 1 0 1.000000
barracuda
  0 19.260311 37.237041 35.624428 0.000000 0.965924 -0.258824 0.200983 0.271738 1 0 1.000000
  0 24.833149 36.994465 34.719139 0.000000 0.965924 -0.258824 0.205100 0.246394 1 0 1.000000
  0 19.260311 36.994465 34.719139 0.000000 0.965924 -0.258824 0.205100 0.271738 1 0 1.000000
barracuda
  0 19.260311 37.237041 35.624428 -1.000000 0.000000 0.000000 0.205005 0.276000 1 0 1.000000
  0 19.260311 36.994465 34.719139 -1.000000 0.000000 0.000000 0.205100 0.271738 1 0 1.000000
  0 19.260311 34.871120 36.258377 -1.000000 0.000000 0.000000 0.216144 0.276000 1 0 1.000000
barracuda
  0 19.260311 34.871120 36.258377 -1.000000 0.000000 0.000000 0.216144 0.276000 1 0 1.000000
  0 19.260311 36.994465 34.719139 -1.000000 0.000000 0.000000 0.205100 0.271738 1 0 1.000000
  0 19.260311 34.628551 35.353077 -1.000000 0.000000 0.000000 0.216049 0.271738 1 0 1.000000
barracuda
  0 19.260311 34.871120 36.258377 0.000000 -0.965927 0.258813 0.220166 0.271738 1 0 1.000000
  0 19.260311 34.628551 35.353077 0.000000 -0.965927 0.258813 0.216049 0.271738 1 0 1.000000
  0 24.833149 34.871120 36.258377 0.000000 -0.965927 0.258813 0.220166 0.246394 1 0 1.000000
barracuda
  0 24.833149 34.871120 36.258377 0.000000 -0.965927 0.258813 0.220166 0.246394 1 0 1.000000
  0 19.260311 34.628551 35.353077 0.000000 -0.965927 0.258813 0.216049 0.271738 1 0 1.000000
  0 24.833149 34.628551 35.353077 0.000000 -0.965927 0.258813 0.216049 0.246394 1 0 1.000000
barracuda
  0 24.833149 34.871120 36.258377 1.000000 0.000000 0.000000 0.216144 0.242132 1 0 1.000000
  0 24.833149 34.628551 35.353077 1.000000 0.000000 0.000000 0.216049 0.246394 1 0 1.000000
  0 24.833149 37.237041 35.624428 1.000000 0.000000 0.000000 0.205005 0.242132 1 0 1.000000
barracuda
  0 24.833149 37.237041 35.624428 1.000000 0.000000 0.000000 0.205005 0.242132 1 0 1.000000
  0 24.833149 34.628551 35.353077 1.000000 0.000000 0.000000 0.216049 0.246394 1 0 1.000000
  0 24.833149 36.994465 34.719139 1.000000 0.000000 0.000000 0.205100 0.246394 1 0 1.000000
barracuda
  0 24.833149 36.994465 34.719139 0.000000 -0.258817 -0.965926 0.205100 0.246394 1 0 1.000000
  0 24.833149 34.628551 35.353077 0.000000 -0.258817 -0.965926 0.216049 0.246394 1 0 1.000000
  0 19.260311 36.994465 34.719139 0.000000 -0.258817 -0.965926 0.205100 0.271738 1 0 1.000000
barracuda
  0 19.260311 36.994465 34.719139 0.000000 -0.258817 -0.965926 0.205100 0.271738 1 0 1.000000
  0 24.833149 34.628551 35.353077 0.000000 -0.258817 -0.965926 0.216049 0.246394 1 0 1.000000
  0 19.260311 34.628551 35.353077 0.000000 -0.258817 -0.965926 0.216049 0.271738 1 0 1.000000
barracuda
  0 -35.354942 39.767403 40.227661 -0.024319 0.910269 0.413302 0.730422 0.544453 1 0 1.000000
  0 -22.264904 39.760639 40.581776 -0.024319 0.910269 0.413302 0.730154 0.498044 1 0 1.000000
  0 -27.912155 40.865337 37.816467 -0.024319 0.910269 0.413302 0.721774 0.518388 1 0 1.000000
barracuda
  0 -27.912155 40.865337 37.816467 -0.024319 0.910269 0.413302 0.721774 0.518388 1 0 1.000000
  0 -22.264904 39.760639 40.581776 -0.024319 0.910269 0.413302 0.730154 0.498044 1 0 1.000000
  0 -25.612940 40.954826 38.185677 -0.024319 0.910269 0.413302 0.722763 0.510193 1 0 1.000000
barracuda
  0 28.206997 42.625980 40.597809 0.425490 0.904939 0.006587 0.721602 0.319197 1 0 1.000000
  0 28.332466 42.625980 34.959808 0.425490 0.904939 0.006587 0.703852 0.319559 1 0 1.000000
  0 26.135761 43.635296 38.194519 0.425490 0.904939 0.006587 0.715615 0.326891 1 0 1.000000
barracuda
  0 26.135761 43.635296 38.194519 0.425490 0.904939 0.006587 0.715615 0.326891 1 0 1.000000
  0 28.332466 42.625980 34.959808 0.425490 0.904939 0.006587 0.703852 0.319559 1 0 1.000000
  0 26.135761 43.635296 35.728111 0.425490 0.904939 0.006587 0.706879 0.327233 1 0 1.000000
barracuda
  0 -25.612940 41.146591 36.937542 -0.202510 0.979018 -0.022671 0.718342 0.510366 1 0 1.000000
  0 -24.862202 41.359737 35.550209 -0.202510 0.979018 -0.022671 0.713324 0.507899 1 0 1.000000
  0 -27.653004 40.810047 36.741615 -0.202510 0.979018 -0.022671 0.717931 0.517619 1 0 1.000000
barracuda
  0 -27.653004 40.810047 36.741615 -0.202510 0.979018 -0.022671 0.717931 0.517619 1 0 1.000000
  0 -24.862202 41.359737 35.550209 -0.202510 0.979018 -0.022671 0.713324 0.507899 1 0 1.000000
  0 -25.838734 41.017895 33.396942 -0.202510 0.979018 -0.022671 0.705832 0.511657 1 0 1.000000
barracuda
  0 -35.354942 39.767403 40.227661 -0.140609 0.990064 0.001606 0.730422 0.544453 1 0 1.000000
  0 -27.912155 40.865337 37.816467 -0.140609 0.990064 0.001606 0.721774 0.518388 1 0 1.000000
  0 -35.354942 39.767406 35.584053 -0.140609 0.990064 0.001606 0.714899 0.545061 1 0 1.000000
barracuda
  0 -27.912155 40.865337 37.816467 -0.140609 0.990064 0.001606 0.721774 0.518388 1 0 1.000000
  0 -27.653004 40.810047 36.741615 -0.140609 0.990064 0.001606 0.717931 0.517619 1 0 1.000000
  0 -35.354942 39.767406 35.584053 -0.140609 0.990064 0.001606 0.714899 0.545061 1 0 1.000000
barracuda
  0 -35.354942 39.767406 35.584053 -0.140609 0.990064 0.001606 0.714899 0.545061 1 0 1.000000
  0 -27.653004 40.810047 36.741615 -0.140609 0.990064 0.001606 0.717931 0.517619 1 0 1.000000
  0 -30.696690 40.502182 33.375713 -0.140609 0.990064 0.001606 0.706431 0.528867 1 0 1.000000
barracuda
  0 -34.608463 12.444977 35.271679 0.021968 -0.724491 -0.688934 0.839874 0.542307 1 0 1.000000
  0 28.250435 12.444977 37.187817 0.021968 -0.724491 -0.688934 0.839874 0.319378 1 0 1.000000
  0 -34.608463 12.444977 39.088657 0.000000 -1.000000 0.000000 0.826350 0.541868 1 0 1.000000
barracuda
  0 -34.608463 12.444977 39.088657 0.000000 -1.000000 0.000000 0.826350 0.541868 1 0 1.000000
  0 28.250435 12.444977 37.187817 0.021968 -0.724491 -0.688934 0.839874 0.319378 1 0 1.000000
  0 28.250435 12.444977 41.004795 0.000000 -1.000000 0.000000 0.826350 0.318992 1 0 1.000000
barracuda
  0 20.785793 36.106976 41.338493 -0.015354 0.216177 0.976233 0.322979 0.550947 1 0 1.000000
  0 20.815788 34.574764 41.679482 -0.015354 0.216177 0.976233 0.322475 0.543086 1 0 1.000000
  0 25.297443 36.161369 41.398636 -0.015354 0.216177 0.976233 0.299739 0.551124 1 0 1.000000
barracuda
  0 25.297443 36.161369 41.398636 -0.015354 0.216177 0.976233 0.299739 0.551124 1 0 1.000000
  0 20.815788 34.574764 41.679482 -0.015354 0.216177 0.976233 0.322475 0.543086 1 0 1.000000
  0 25.312958 34.611759 41.740803 -0.015354 0.216177 0.976233 0.300035 0.543163 1 0 1.000000
barracuda
  0 -25.612940 41.168667 38.465530 -0.109233 -0.694249 0.711397 0.375490 0.521894 1 0 1.000000
  0 -27.915207 41.425388 38.291389 -0.109233 -0.694249 0.711397 0.369163 0.533953 1 0 1.000000
  0 -25.612940 40.954826 38.185677 -0.109233 -0.694249 0.711397 0.377326 0.522839 1 0 1.000000
barracuda
  0 -25.612940 40.954826 38.185677 -0.109233 -0.694249 0.711397 0.377326 0.522839 1 0 1.000000
  0 -27.915207 41.425388 38.291389 -0.109233 -0.694249 0.711397 0.369163 0.533953 1 0 1.000000
  0 -27.912155 40.865337 37.816467 -0.109233 -0.694249 0.711397 0.373045 0.535812 1 0 1.000000
barracuda
  0 -27.915207 41.425388 38.291389 -0.957429 0.173356 -0.230817 0.369163 0.533953 1 0 1.000000
  0 -27.653004 41.953499 37.558773 -0.957429 0.173356 -0.230817 0.367170 0.539093 1 0 1.000000
  0 -27.912155 40.865337 37.816467 -0.957429 0.173356 -0.230817 0.373045 0.535812 1 0 1.000000
barracuda
  0 -27.912155 40.865337 37.816467 -0.957429 0.173356 -0.230817 0.373045 0.535812 1 0 1.000000
  0 -27.653004 41.953499 37.558773 -0.957429 0.173356 -0.230817 0.367170 0.539093 1 0 1.000000
  0 -27.653004 40.810047 36.741615 -0.957429 0.173356 -0.230817 0.374863 0.542042 1 0 1.000000
barracuda
  0 -27.653004 40.810047 36.741615 -0.075541 0.481337 -0.873274 0.374863 0.542042 1 0 1.000000
  0 -27.653004 41.953499 37.558773 -0.075541 0.481337 -0.873274 0.367170 0.539093 1 0 1.000000
  0 -25.612940 41.146591 36.937542 -0.075541 0.481337 -0.873274 0.368459 0.552397 1 0 1.000000
barracuda
  0 -25.612940 41.146591 36.937542 -0.075541 0.481337 -0.873274 0.368459 0.552397 1 0 1.000000
  0 -27.653004 41.953499 37.558773 -0.075541 0.481337 -0.873274 0.367170 0.539093 1 0 1.000000
  0 -25.612940 41.975498 37.207527 -0.075541 0.481337 -0.873274 0.363637 0.550704 1 0 1.000000
barracuda
  0 -25.612940 41.146591 36.937542 1.000000 0.000000 0.000000 0.368459 0.552397 1 0 1.000000
  0 -25.612940 41.975498 37.207527 0.237605 -0.335943 -0.911420 0.363637 0.550704 1 0 1.000000
  0 -25.612940 40.954826 38.185677 1.000000 0.000000 0.000000 0.364908 0.558893 1 0 1.000000
barracuda
  0 -25.612940 40.954826 38.185677 1.000000 0.000000 0.000000 0.364908 0.558893 1 0 1.000000
  0 -25.612940 41.975498 37.207527 0.237605 -0.335943 -0.911420 0.363637 0.550704 1 0 1.000000
  0 -25.612940 41.168667 38.465530 0.272049 -0.941788 -0.197545 0.362916 0.559434 1 0 1.000000
end
