// Created by Crowbar 0.74
version 1
nodes
  0 "polySurface1" -1
end
skeleton
  time 0
    0 0.000000 0.000000 0.000000 0.000000 0.000000 0.000000
end
triangles
tv_02
  0 23.717123 3.494624 7.393610 0.298486 -0.277060 0.913315 0.819716 0.006834 1 0 1.000000
  0 -23.311844 3.494624 7.393610 -0.298491 -0.277068 0.913311 0.002053 0.006834 1 0 1.000000
  0 23.714136 3.297831 7.222838 0.492862 -0.707731 0.506166 0.819664 0.002303 1 0 1.000000
tv_02
  0 23.714136 3.297831 7.222838 0.492862 -0.707731 0.506166 0.819664 0.002303 1 0 1.000000
  0 -23.311844 3.494624 7.393610 -0.298491 -0.277068 0.913311 0.002053 0.006834 1 0 1.000000
  0 -23.308842 3.297831 7.222838 -0.492856 -0.707744 0.506154 0.002106 0.002302 1 0 1.000000
tv_02
  0 -19.519936 26.488359 -2.773896 -0.929039 0.369981 0.000950 0.993382 0.881857 1 0 1.000000
  0 -18.893734 27.183472 -2.773896 -0.395691 0.918355 -0.007245 0.982209 0.881916 1 0 1.000000
  0 -19.552925 26.439390 -13.407248 -0.929159 0.364408 -0.062214 0.993407 0.754867 1 0 1.000000
tv_02
  0 -18.768192 7.658476 -15.411551 -0.312970 -0.305610 -0.899251 0.980575 0.513133 1 0 1.000000
  0 -18.768192 25.515917 -15.411535 -0.291996 0.244659 -0.924597 0.980328 0.723956 1 0 1.000000
  0 19.173489 7.658476 -15.411551 0.312971 -0.305610 -0.899251 0.532645 0.513142 1 0 1.000000
tv_02
  0 -18.768192 7.658476 -15.411551 -0.312970 -0.305610 -0.899251 0.980575 0.513133 1 0 1.000000
  0 -19.592577 7.513083 -14.728567 -0.889850 -0.270442 -0.367461 0.993166 0.511116 1 0 1.000000
  0 -18.768192 25.515917 -15.411535 -0.291996 0.244659 -0.924597 0.980328 0.723956 1 0 1.000000
tv_02
  0 -18.768192 25.515917 -15.411535 -0.291996 0.244659 -0.924597 0.980328 0.723956 1 0 1.000000
  0 -19.592577 7.513083 -14.728567 -0.889850 -0.270442 -0.367461 0.993166 0.511116 1 0 1.000000
  0 -19.601902 25.923212 -14.730381 -0.799968 0.306190 -0.516042 0.993032 0.729667 1 0 1.000000
tv_02
  0 -18.882793 26.590414 -14.792709 -0.320585 0.690654 -0.648246 0.981728 0.738212 1 0 1.000000
  0 -18.768192 25.515917 -15.411535 -0.291996 0.244659 -0.924597 0.980328 0.723956 1 0 1.000000
  0 -19.601902 25.923212 -14.730381 -0.799968 0.306190 -0.516042 0.993032 0.729667 1 0 1.000000
tv_02
  0 -19.601902 25.923212 -14.730381 -0.799968 0.306190 -0.516042 0.993032 0.729667 1 0 1.000000
  0 -19.552925 26.439390 -13.407248 -0.929159 0.364408 -0.062214 0.993407 0.754867 1 0 1.000000
  0 -18.882793 26.590414 -14.792709 -0.320585 0.690654 -0.648246 0.981728 0.738212 1 0 1.000000
tv_02
  0 -18.882793 26.590414 -14.792709 -0.320585 0.690654 -0.648246 0.981728 0.738212 1 0 1.000000
  0 -19.552925 26.439390 -13.407248 -0.929159 0.364408 -0.062214 0.993407 0.754867 1 0 1.000000
  0 -18.924141 27.070980 -13.694340 -0.394513 0.899388 -0.188308 0.982333 0.752217 1 0 1.000000
tv_02
  0 -19.552925 26.439390 -13.407248 -0.929159 0.364408 -0.062214 0.993407 0.754867 1 0 1.000000
  0 -18.893734 27.183472 -2.773896 -0.395691 0.918355 -0.007245 0.982209 0.881916 1 0 1.000000
  0 -18.924141 27.070980 -13.694340 -0.394513 0.899388 -0.188308 0.982333 0.752217 1 0 1.000000
tv_02
  0 -18.893734 27.183472 -2.773896 -0.395691 0.918355 -0.007245 0.982209 0.881916 1 0 1.000000
  0 19.299025 27.183472 -2.773896 0.395689 0.918356 -0.007245 0.530840 0.881290 1 0 1.000000
  0 -18.924141 27.070980 -13.694340 -0.394513 0.899388 -0.188308 0.982333 0.752217 1 0 1.000000
tv_02
  0 -18.924141 27.070980 -13.694340 -0.394513 0.899388 -0.188308 0.982333 0.752217 1 0 1.000000
  0 19.299025 27.183472 -2.773896 0.395689 0.918356 -0.007245 0.530840 0.881290 1 0 1.000000
  0 19.329430 27.070980 -13.694340 0.394511 0.899389 -0.188309 0.530893 0.752218 1 0 1.000000
tv_02
  0 19.329430 27.070980 -13.694340 0.394511 0.899389 -0.188309 0.530893 0.752218 1 0 1.000000
  0 19.299025 27.183472 -2.773896 0.395689 0.918356 -0.007245 0.530840 0.881290 1 0 1.000000
  0 19.958225 26.439390 -13.407248 0.929158 0.364409 -0.062216 0.519859 0.754841 1 0 1.000000
tv_02
  0 19.329430 27.070980 -13.694340 0.394511 0.899389 -0.188309 0.530893 0.752218 1 0 1.000000
  0 19.958225 26.439390 -13.407248 0.929158 0.364409 -0.062216 0.519859 0.754841 1 0 1.000000
  0 19.288090 26.590414 -14.792709 0.320585 0.690654 -0.648245 0.531499 0.738214 1 0 1.000000
tv_02
  0 19.288090 26.590414 -14.792709 0.320585 0.690654 -0.648245 0.531499 0.738214 1 0 1.000000
  0 19.958225 26.439390 -13.407248 0.929158 0.364409 -0.062216 0.519859 0.754841 1 0 1.000000
  0 20.007195 25.923212 -14.730381 0.799967 0.306191 -0.516043 0.520200 0.729671 1 0 1.000000
tv_02
  0 19.173489 25.515917 -15.411535 0.291997 0.244660 -0.924597 0.532901 0.723959 1 0 1.000000
  0 19.288090 26.590414 -14.792709 0.320585 0.690654 -0.648245 0.531499 0.738214 1 0 1.000000
  0 20.007195 25.923212 -14.730381 0.799967 0.306191 -0.516043 0.520200 0.729671 1 0 1.000000
tv_02
  0 19.997869 7.513083 -14.728567 0.889850 -0.270443 -0.367461 0.520053 0.511125 1 0 1.000000
  0 19.173489 25.515917 -15.411535 0.291997 0.244660 -0.924597 0.532901 0.723959 1 0 1.000000
  0 20.007195 25.923212 -14.730381 0.799967 0.306191 -0.516043 0.520200 0.729671 1 0 1.000000
tv_02
  0 19.173489 7.658476 -15.411551 0.312971 -0.305610 -0.899251 0.532645 0.513142 1 0 1.000000
  0 19.173489 25.515917 -15.411535 0.291997 0.244660 -0.924597 0.532901 0.723959 1 0 1.000000
  0 19.997869 7.513083 -14.728567 0.889850 -0.270443 -0.367461 0.520053 0.511125 1 0 1.000000
tv_02
  0 19.173489 7.658476 -15.411551 0.312971 -0.305610 -0.899251 0.532645 0.513142 1 0 1.000000
  0 19.997869 7.513083 -14.728567 0.889850 -0.270443 -0.367461 0.520053 0.511125 1 0 1.000000
  0 19.289722 6.800488 -14.735792 0.343472 -0.778689 -0.525043 0.531129 0.500286 1 0 1.000000
tv_02
  0 19.173489 7.658476 -15.411551 0.312971 -0.305610 -0.899251 0.532645 0.513142 1 0 1.000000
  0 19.289722 6.800488 -14.735792 0.343472 -0.778689 -0.525043 0.531129 0.500286 1 0 1.000000
  0 -18.768192 7.658476 -15.411551 -0.312970 -0.305610 -0.899251 0.980575 0.513133 1 0 1.000000
tv_02
  0 -18.768192 7.658476 -15.411551 -0.312970 -0.305610 -0.899251 0.980575 0.513133 1 0 1.000000
  0 19.289722 6.800488 -14.735792 0.343472 -0.778689 -0.525043 0.531129 0.500286 1 0 1.000000
  0 -18.884434 6.800488 -14.735792 -0.343473 -0.778689 -0.525043 0.982091 0.500277 1 0 1.000000
tv_02
  0 -19.592577 7.513083 -14.728567 -0.889850 -0.270442 -0.367461 0.993166 0.511116 1 0 1.000000
  0 -18.768192 7.658476 -15.411551 -0.312970 -0.305610 -0.899251 0.980575 0.513133 1 0 1.000000
  0 -18.884434 6.800488 -14.735792 -0.343473 -0.778689 -0.525043 0.982091 0.500277 1 0 1.000000
tv_02
  0 19.173489 7.658476 -15.411551 0.312971 -0.305610 -0.899251 0.532645 0.513142 1 0 1.000000
  0 -18.768192 25.515917 -15.411535 -0.291996 0.244659 -0.924597 0.980328 0.723956 1 0 1.000000
  0 19.173489 25.515917 -15.411535 0.291997 0.244660 -0.924597 0.532901 0.723959 1 0 1.000000
tv_02
  0 -18.768192 25.515917 -15.411535 -0.291996 0.244659 -0.924597 0.980328 0.723956 1 0 1.000000
  0 -18.882793 26.590414 -14.792709 -0.320585 0.690654 -0.648246 0.981728 0.738212 1 0 1.000000
  0 19.173489 25.515917 -15.411535 0.291997 0.244660 -0.924597 0.532901 0.723959 1 0 1.000000
tv_02
  0 19.173489 25.515917 -15.411535 0.291997 0.244660 -0.924597 0.532901 0.723959 1 0 1.000000
  0 -18.882793 26.590414 -14.792709 -0.320585 0.690654 -0.648246 0.981728 0.738212 1 0 1.000000
  0 19.288090 26.590414 -14.792709 0.320585 0.690654 -0.648245 0.531499 0.738214 1 0 1.000000
tv_02
  0 -18.924141 27.070980 -13.694340 -0.394513 0.899388 -0.188308 0.982333 0.752217 1 0 1.000000
  0 19.288090 26.590414 -14.792709 0.320585 0.690654 -0.648245 0.531499 0.738214 1 0 1.000000
  0 -18.882793 26.590414 -14.792709 -0.320585 0.690654 -0.648246 0.981728 0.738212 1 0 1.000000
tv_02
  0 19.329430 27.070980 -13.694340 0.394511 0.899389 -0.188309 0.530893 0.752218 1 0 1.000000
  0 19.288090 26.590414 -14.792709 0.320585 0.690654 -0.648245 0.531499 0.738214 1 0 1.000000
  0 -18.924141 27.070980 -13.694340 -0.394513 0.899388 -0.188308 0.982333 0.752217 1 0 1.000000
tv_02
  0 19.958225 26.439390 -13.407248 0.929158 0.364409 -0.062216 0.519859 0.754841 1 0 1.000000
  0 19.299025 27.183472 -2.773896 0.395689 0.918356 -0.007245 0.530840 0.881290 1 0 1.000000
  0 19.925226 26.488359 -2.773896 0.929038 0.369983 0.000950 0.519721 0.881216 1 0 1.000000
tv_02
  0 23.910929 31.687342 7.195675 0.861221 0.350451 0.368079 0.822002 0.493302 1 0 1.000000
  0 23.714136 31.884142 3.363592 0.383175 0.923347 -0.024635 0.888256 0.498445 1 0 1.000000
  0 23.714136 31.884142 7.222838 0.381278 0.837437 0.391570 0.821348 0.498047 1 0 1.000000
tv_02
  0 23.714136 31.884142 7.222838 0.381278 0.837437 0.391570 0.821348 0.498047 1 0 1.000000
  0 23.717123 31.687342 7.393610 0.373632 0.343511 0.861626 0.817229 0.493303 1 0 1.000000
  0 23.910929 31.687342 7.195675 0.861221 0.350451 0.368079 0.822002 0.493302 1 0 1.000000
tv_02
  0 -23.311844 31.687342 7.393610 -0.373638 0.343521 0.861619 0.004515 0.493327 1 0 1.000000
  0 -18.675188 29.181986 7.672141 0.000000 0.034692 0.999398 0.084591 0.449730 1 0 1.000000
  0 23.717123 31.687342 7.393610 0.373632 0.343511 0.861626 0.817229 0.493303 1 0 1.000000
tv_02
  0 -18.675188 29.181986 7.672141 0.000000 0.034692 0.999398 0.084591 0.449730 1 0 1.000000
  0 19.080477 29.181986 7.672141 0.000000 0.034692 0.999398 0.737142 0.449718 1 0 1.000000
  0 23.717123 31.687342 7.393610 0.373632 0.343511 0.861626 0.817229 0.493303 1 0 1.000000
tv_02
  0 -18.675188 6.920627 7.672141 0.000000 -0.023209 0.999731 0.082553 0.066411 1 0 1.000000
  0 -18.675188 29.181986 7.672141 0.000000 0.034692 0.999398 0.084591 0.449730 1 0 1.000000
  0 -23.311844 31.687342 7.393610 -0.373638 0.343521 0.861619 0.004515 0.493327 1 0 1.000000
tv_02
  0 -23.311844 3.494624 7.393610 -0.298491 -0.277068 0.913311 0.002065 0.006954 1 0 1.000000
  0 -18.675188 6.920627 7.672141 0.000000 -0.023209 0.999731 0.082553 0.066411 1 0 1.000000
  0 -23.311844 31.687342 7.393610 -0.373638 0.343521 0.861619 0.004515 0.493327 1 0 1.000000
tv_02
  0 23.717123 3.494624 7.393610 0.298486 -0.277060 0.913315 0.819683 0.006980 1 0 1.000000
  0 -18.675188 6.920627 7.672141 0.000000 -0.023209 0.999731 0.082553 0.066411 1 0 1.000000
  0 -23.311844 3.494624 7.393610 -0.298491 -0.277068 0.913311 0.002065 0.006954 1 0 1.000000
tv_02
  0 19.080477 6.920628 7.672141 0.000000 -0.023209 0.999731 0.739181 0.066411 1 0 1.000000
  0 -18.675188 6.920627 7.672141 0.000000 -0.023209 0.999731 0.082553 0.066411 1 0 1.000000
  0 23.717123 3.494624 7.393610 0.298486 -0.277060 0.913315 0.819683 0.006980 1 0 1.000000
tv_02
  0 19.080477 29.181986 7.672141 0.000000 0.034692 0.999398 0.737142 0.449718 1 0 1.000000
  0 19.080477 6.920628 7.672141 0.000000 -0.023209 0.999731 0.739181 0.066411 1 0 1.000000
  0 23.717123 3.494624 7.393610 0.298486 -0.277060 0.913315 0.819683 0.006980 1 0 1.000000
tv_02
  0 23.717123 31.687342 7.393610 0.373632 0.343511 0.861626 0.817229 0.493303 1 0 1.000000
  0 19.080477 29.181986 7.672141 0.000000 0.034692 0.999398 0.737142 0.449718 1 0 1.000000
  0 23.717123 3.494624 7.393610 0.298486 -0.277060 0.913315 0.819683 0.006980 1 0 1.000000
tv_02
  0 23.717123 3.494624 7.393610 0.298486 -0.277060 0.913315 0.819683 0.006980 1 0 1.000000
  0 23.910929 3.494624 7.195675 0.861218 -0.350459 0.368078 0.824459 0.007003 1 0 1.000000
  0 23.717123 31.687342 7.393610 0.373632 0.343511 0.861626 0.817229 0.493303 1 0 1.000000
tv_02
  0 23.717123 31.687342 7.393610 0.373632 0.343511 0.861626 0.817229 0.493303 1 0 1.000000
  0 23.910929 3.494624 7.195675 0.861218 -0.350459 0.368078 0.824459 0.007003 1 0 1.000000
  0 23.910929 31.687342 7.195675 0.861221 0.350451 0.368079 0.822002 0.493302 1 0 1.000000
tv_02
  0 23.910929 31.687342 7.195675 0.861221 0.350451 0.368079 0.822002 0.493302 1 0 1.000000
  0 23.910929 3.494624 7.195675 0.861218 -0.350459 0.368078 0.824459 0.007003 1 0 1.000000
  0 23.910929 31.687342 3.363591 0.922508 0.381395 -0.059306 0.888085 0.493632 1 0 1.000000
tv_02
  0 23.910929 31.687342 3.363591 0.922508 0.381395 -0.059306 0.888085 0.493632 1 0 1.000000
  0 23.714136 31.884142 3.363592 0.383175 0.923347 -0.024635 0.888256 0.498445 1 0 1.000000
  0 23.910929 31.687342 7.195675 0.861221 0.350451 0.368079 0.822002 0.493302 1 0 1.000000
tv_02
  0 23.501200 31.687342 0.190004 0.903922 0.371485 -0.211952 0.943272 0.493899 1 0 1.000000
  0 23.714136 31.884142 3.363592 0.383175 0.923347 -0.024635 0.888256 0.498445 1 0 1.000000
  0 23.910929 31.687342 3.363591 0.922508 0.381395 -0.059306 0.888085 0.493632 1 0 1.000000
tv_02
  0 23.307806 31.884140 0.190005 0.383233 0.919249 -0.090081 0.943996 0.498608 1 0 1.000000
  0 23.714136 31.884142 3.363592 0.383175 0.923347 -0.024635 0.888256 0.498445 1 0 1.000000
  0 23.501200 31.687342 0.190004 0.903922 0.371485 -0.211952 0.943272 0.493899 1 0 1.000000
tv_02
  0 22.539373 31.687342 -2.604798 0.785094 0.328758 -0.524925 0.990680 0.494179 1 0 1.000000
  0 23.307806 31.884140 0.190005 0.383233 0.919249 -0.090081 0.943996 0.498608 1 0 1.000000
  0 23.501200 31.687342 0.190004 0.903922 0.371485 -0.211952 0.943272 0.493899 1 0 1.000000
tv_02
  0 22.353968 31.884142 -2.604798 0.359743 0.811327 -0.460795 0.991827 0.498712 1 0 1.000000
  0 23.307806 31.884140 0.190005 0.383233 0.919249 -0.090081 0.943996 0.498608 1 0 1.000000
  0 22.539373 31.687342 -2.604798 0.785094 0.328758 -0.524925 0.990680 0.494179 1 0 1.000000
tv_02
  0 22.539373 31.687342 -2.604798 0.785094 0.328758 -0.524925 0.990680 0.494179 1 0 1.000000
  0 22.353968 31.687342 -2.773425 0.229716 0.219507 -0.948181 0.995002 0.494215 1 0 1.000000
  0 22.353968 31.884142 -2.604798 0.359743 0.811327 -0.460795 0.991827 0.498712 1 0 1.000000
tv_02
  0 22.353968 31.687342 -2.773425 0.229716 0.219507 -0.948181 0.995002 0.494215 1 0 1.000000
  0 22.539373 31.687342 -2.604798 0.785094 0.328758 -0.524925 0.990680 0.494179 1 0 1.000000
  0 22.353968 3.494621 -2.773425 0.229720 -0.219633 -0.948151 0.997473 0.007895 1 0 1.000000
tv_02
  0 22.353968 3.494621 -2.773425 0.229720 -0.219633 -0.948151 0.997473 0.007895 1 0 1.000000
  0 22.539373 31.687342 -2.604798 0.785094 0.328758 -0.524925 0.990680 0.494179 1 0 1.000000
  0 22.539373 3.494621 -2.604798 0.785091 -0.328763 -0.524926 0.993149 0.007872 1 0 1.000000
tv_02
  0 22.539373 31.687342 -2.604798 0.785094 0.328758 -0.524925 0.990680 0.494179 1 0 1.000000
  0 23.501200 3.494622 0.190005 0.903921 -0.371488 -0.211952 0.945738 0.007654 1 0 1.000000
  0 22.539373 3.494621 -2.604798 0.785091 -0.328763 -0.524926 0.993149 0.007872 1 0 1.000000
tv_02
  0 23.717123 3.494624 7.393610 0.298486 -0.277060 0.913315 0.819683 0.006980 1 0 1.000000
  0 23.714136 3.297831 7.222838 0.492862 -0.707731 0.506166 0.821762 0.002988 1 0 1.000000
  0 23.910929 3.494624 7.195675 0.861218 -0.350459 0.368078 0.824459 0.007003 1 0 1.000000
tv_02
  0 23.307810 3.297828 0.190005 0.705398 -0.689146 -0.165808 0.946510 0.002957 1 0 1.000000
  0 22.539373 3.494621 -2.604798 0.785091 -0.328763 -0.524926 0.993149 0.007872 1 0 1.000000
  0 23.501200 3.494622 0.190005 0.903921 -0.371488 -0.211952 0.945738 0.007654 1 0 1.000000
tv_02
  0 23.307810 3.297828 0.190005 0.705398 -0.689146 -0.165808 0.946510 0.002957 1 0 1.000000
  0 23.501200 3.494622 0.190005 0.903921 -0.371488 -0.211952 0.945738 0.007654 1 0 1.000000
  0 23.714136 3.297829 3.363592 0.707904 -0.704841 -0.045511 0.890783 0.002567 1 0 1.000000
tv_02
  0 23.714136 3.297829 3.363592 0.707904 -0.704841 -0.045511 0.890783 0.002567 1 0 1.000000
  0 23.501200 3.494622 0.190005 0.903921 -0.371488 -0.211952 0.945738 0.007654 1 0 1.000000
  0 23.910929 3.494622 3.363592 0.922506 -0.381400 -0.059306 0.890556 0.007370 1 0 1.000000
tv_02
  0 23.910929 3.494622 3.363592 0.922506 -0.381400 -0.059306 0.890556 0.007370 1 0 1.000000
  0 23.910929 3.494624 7.195675 0.861218 -0.350459 0.368078 0.824459 0.007003 1 0 1.000000
  0 23.714136 3.297829 3.363592 0.707904 -0.704841 -0.045511 0.890783 0.002567 1 0 1.000000
tv_02
  0 23.910929 31.687342 3.363591 0.922508 0.381395 -0.059306 0.888085 0.493632 1 0 1.000000
  0 23.910929 3.494624 7.195675 0.861218 -0.350459 0.368078 0.824459 0.007003 1 0 1.000000
  0 23.910929 3.494622 3.363592 0.922506 -0.381400 -0.059306 0.890556 0.007370 1 0 1.000000
tv_02
  0 23.910929 31.687342 3.363591 0.922508 0.381395 -0.059306 0.888085 0.493632 1 0 1.000000
  0 23.910929 3.494622 3.363592 0.922506 -0.381400 -0.059306 0.890556 0.007370 1 0 1.000000
  0 23.501200 31.687342 0.190004 0.903922 0.371485 -0.211952 0.943272 0.493899 1 0 1.000000
tv_02
  0 23.501200 31.687342 0.190004 0.903922 0.371485 -0.211952 0.943272 0.493899 1 0 1.000000
  0 23.910929 3.494622 3.363592 0.922506 -0.381400 -0.059306 0.890556 0.007370 1 0 1.000000
  0 23.501200 3.494622 0.190005 0.903921 -0.371488 -0.211952 0.945738 0.007654 1 0 1.000000
tv_02
  0 23.501200 31.687342 0.190004 0.903922 0.371485 -0.211952 0.943272 0.493899 1 0 1.000000
  0 23.501200 3.494622 0.190005 0.903921 -0.371488 -0.211952 0.945738 0.007654 1 0 1.000000
  0 22.539373 31.687342 -2.604798 0.785094 0.328758 -0.524925 0.990680 0.494179 1 0 1.000000
tv_02
  0 23.714136 3.297829 3.363592 0.707904 -0.704841 -0.045511 0.890783 0.002567 1 0 1.000000
  0 23.910929 3.494624 7.195675 0.861218 -0.350459 0.368078 0.824459 0.007003 1 0 1.000000
  0 23.714136 3.297831 7.222838 0.492862 -0.707731 0.506166 0.824022 0.002188 1 0 1.000000
tv_02
  0 22.353968 3.297827 -2.604798 0.456838 -0.669984 -0.585167 0.994223 0.003298 1 0 1.000000
  0 22.539373 3.494621 -2.604798 0.785091 -0.328763 -0.524926 0.993149 0.007872 1 0 1.000000
  0 23.307810 3.297828 0.190005 0.705398 -0.689146 -0.165808 0.946510 0.002957 1 0 1.000000
tv_02
  0 22.539373 3.494621 -2.604798 0.785091 -0.328763 -0.524926 0.993149 0.007872 1 0 1.000000
  0 22.353968 3.297827 -2.604798 0.456838 -0.669984 -0.585167 0.994223 0.003298 1 0 1.000000
  0 22.353968 3.494621 -2.773425 0.229720 -0.219633 -0.948151 0.997304 0.006584 1 0 1.000000
tv_02
  0 -23.308842 3.297831 7.222838 -0.492856 -0.707744 0.506154 0.824099 0.003011 1 0 1.000000
  0 -23.505642 3.494624 7.195675 -0.861219 -0.350470 0.368067 0.824550 0.007785 1 0 1.000000
  0 -23.308842 3.297829 3.363592 -0.707888 -0.704857 -0.045510 0.888840 0.002491 1 0 1.000000
tv_02
  0 -21.948673 3.297827 -2.604798 -0.456827 -0.669990 -0.585169 0.994301 0.002891 1 0 1.000000
  0 -22.134087 3.494621 -2.604798 -0.785083 -0.328770 -0.524933 0.992664 0.007111 1 0 1.000000
  0 -21.948673 3.494621 -2.773425 -0.229714 -0.219633 -0.948152 0.996771 0.006453 1 0 1.000000
tv_02
  0 -22.902512 3.297828 0.190005 -0.705379 -0.689166 -0.165804 0.943478 0.002330 1 0 1.000000
  0 -22.134087 3.494621 -2.604798 -0.785083 -0.328770 -0.524933 0.992664 0.007111 1 0 1.000000
  0 -21.948673 3.297827 -2.604798 -0.456827 -0.669990 -0.585169 0.994301 0.002891 1 0 1.000000
tv_02
  0 -23.095913 3.494622 0.190004 -0.903916 -0.371500 -0.211951 0.942726 0.007015 1 0 1.000000
  0 -22.134087 3.494621 -2.604798 -0.785083 -0.328770 -0.524933 0.992664 0.007111 1 0 1.000000
  0 -22.902512 3.297828 0.190005 -0.705379 -0.689166 -0.165804 0.943478 0.002330 1 0 1.000000
tv_02
  0 -23.308842 3.297829 3.363592 -0.707888 -0.704857 -0.045510 0.888840 0.002491 1 0 1.000000
  0 -23.095913 3.494622 0.190004 -0.903916 -0.371500 -0.211951 0.942726 0.007015 1 0 1.000000
  0 -22.902512 3.297828 0.190005 -0.705379 -0.689166 -0.165804 0.943478 0.002330 1 0 1.000000
tv_02
  0 -23.505642 3.494622 3.363591 -0.922501 -0.381411 -0.059306 0.888637 0.007255 1 0 1.000000
  0 -23.095913 3.494622 0.190004 -0.903916 -0.371500 -0.211951 0.942726 0.007015 1 0 1.000000
  0 -23.308842 3.297829 3.363592 -0.707888 -0.704857 -0.045510 0.888840 0.002491 1 0 1.000000
tv_02
  0 -23.308842 3.297829 3.363592 -0.707888 -0.704857 -0.045510 0.888840 0.002491 1 0 1.000000
  0 -23.505642 3.494624 7.195675 -0.861219 -0.350470 0.368067 0.824550 0.007785 1 0 1.000000
  0 -23.505642 3.494622 3.363591 -0.922501 -0.381411 -0.059306 0.888637 0.007255 1 0 1.000000
tv_02
  0 -23.505642 3.494624 7.195675 -0.861219 -0.350470 0.368067 0.824550 0.007785 1 0 1.000000
  0 -23.505640 31.687340 3.363592 -0.922506 0.381399 -0.059306 0.886427 0.493278 1 0 1.000000
  0 -23.505642 3.494622 3.363591 -0.922501 -0.381411 -0.059306 0.888637 0.007255 1 0 1.000000
tv_02
  0 -23.505642 31.687342 7.195675 -0.861222 0.350461 0.368067 0.821657 0.493190 1 0 1.000000
  0 -23.505640 31.687340 3.363592 -0.922506 0.381399 -0.059306 0.886427 0.493278 1 0 1.000000
  0 -23.505642 3.494624 7.195675 -0.861219 -0.350470 0.368067 0.824550 0.007785 1 0 1.000000
tv_02
  0 -23.505642 31.687342 7.195675 -0.861222 0.350461 0.368067 0.821657 0.493190 1 0 1.000000
  0 -23.308842 31.884142 3.363592 -0.383171 0.923349 -0.024634 0.886615 0.498048 1 0 1.000000
  0 -23.505640 31.687340 3.363592 -0.922506 0.381399 -0.059306 0.886427 0.493278 1 0 1.000000
tv_02
  0 -23.308842 31.884142 7.222838 -0.381273 0.837444 0.391559 0.821016 0.497898 1 0 1.000000
  0 -23.308842 31.884142 3.363592 -0.383171 0.923349 -0.024634 0.886615 0.498048 1 0 1.000000
  0 -23.505642 31.687342 7.195675 -0.861222 0.350461 0.368067 0.821657 0.493190 1 0 1.000000
tv_02
  0 -23.308842 31.884142 7.222838 -0.381273 0.837444 0.391559 0.821016 0.497898 1 0 1.000000
  0 -23.505642 31.687342 7.195675 -0.861222 0.350461 0.368067 0.821657 0.493190 1 0 1.000000
  0 -23.311844 31.687342 7.393610 -0.373638 0.343521 0.861619 0.816980 0.493209 1 0 1.000000
tv_02
  0 -23.505642 31.687342 7.195675 -0.861222 0.350461 0.368067 0.821657 0.493190 1 0 1.000000
  0 -23.311844 3.494624 7.393610 -0.298491 -0.277068 0.913311 0.819867 0.007779 1 0 1.000000
  0 -23.311844 31.687342 7.393610 -0.373638 0.343521 0.861619 0.816980 0.493209 1 0 1.000000
tv_02
  0 -23.505642 3.494624 7.195675 -0.861219 -0.350470 0.368067 0.824550 0.007785 1 0 1.000000
  0 -23.311844 3.494624 7.393610 -0.298491 -0.277068 0.913311 0.819867 0.007779 1 0 1.000000
  0 -23.505642 31.687342 7.195675 -0.861222 0.350461 0.368067 0.821657 0.493190 1 0 1.000000
tv_02
  0 -23.505642 3.494624 7.195675 -0.861219 -0.350470 0.368067 0.824550 0.007785 1 0 1.000000
  0 -23.308842 3.297831 7.222838 -0.492856 -0.707744 0.506154 0.821901 0.003827 1 0 1.000000
  0 -23.311844 3.494624 7.393610 -0.298491 -0.277068 0.913311 0.819867 0.007779 1 0 1.000000
tv_02
  0 -23.095913 3.494622 0.190004 -0.903916 -0.371500 -0.211951 0.942726 0.007015 1 0 1.000000
  0 -23.095911 31.687340 0.190005 -0.903921 0.371488 -0.211952 0.940511 0.493345 1 0 1.000000
  0 -22.134087 3.494621 -2.604798 -0.785083 -0.328770 -0.524933 0.992664 0.007111 1 0 1.000000
tv_02
  0 -22.134087 3.494621 -2.604798 -0.785083 -0.328770 -0.524933 0.992664 0.007111 1 0 1.000000
  0 -23.095911 31.687340 0.190005 -0.903921 0.371488 -0.211952 0.940511 0.493345 1 0 1.000000
  0 -22.134087 31.687342 -2.604798 -0.785086 0.328761 -0.524935 0.990471 0.493451 1 0 1.000000
tv_02
  0 -22.134087 31.687342 -2.604798 -0.785086 0.328761 -0.524935 0.990471 0.493451 1 0 1.000000
  0 -21.948673 31.687342 -2.773425 -0.229709 0.219506 -0.948183 0.994707 0.493457 1 0 1.000000
  0 -22.134087 3.494621 -2.604798 -0.785083 -0.328770 -0.524933 0.992664 0.007111 1 0 1.000000
tv_02
  0 -22.134087 3.494621 -2.604798 -0.785083 -0.328770 -0.524933 0.992664 0.007111 1 0 1.000000
  0 -21.948673 31.687342 -2.773425 -0.229709 0.219506 -0.948183 0.994707 0.493457 1 0 1.000000
  0 -21.948673 3.494621 -2.773425 -0.229714 -0.219633 -0.948152 0.996900 0.007117 1 0 1.000000
tv_02
  0 -23.505642 3.494622 3.363591 -0.922501 -0.381411 -0.059306 0.888637 0.007255 1 0 1.000000
  0 -23.505640 31.687340 3.363592 -0.922506 0.381399 -0.059306 0.886427 0.493278 1 0 1.000000
  0 -23.095913 3.494622 0.190004 -0.903916 -0.371500 -0.211951 0.942726 0.007015 1 0 1.000000
tv_02
  0 -23.095913 3.494622 0.190004 -0.903916 -0.371500 -0.211951 0.942726 0.007015 1 0 1.000000
  0 -23.505640 31.687340 3.363592 -0.922506 0.381399 -0.059306 0.886427 0.493278 1 0 1.000000
  0 -23.095911 31.687340 0.190005 -0.903921 0.371488 -0.211952 0.940511 0.493345 1 0 1.000000
tv_02
  0 -23.505640 31.687340 3.363592 -0.922506 0.381399 -0.059306 0.886427 0.493278 1 0 1.000000
  0 -23.308842 31.884142 3.363592 -0.383171 0.923349 -0.024634 0.886615 0.498048 1 0 1.000000
  0 -23.095911 31.687340 0.190005 -0.903921 0.371488 -0.211952 0.940511 0.493345 1 0 1.000000
tv_02
  0 -23.095911 31.687340 0.190005 -0.903921 0.371488 -0.211952 0.940511 0.493345 1 0 1.000000
  0 -23.308842 31.884142 3.363592 -0.383171 0.923349 -0.024634 0.886615 0.498048 1 0 1.000000
  0 -22.902512 31.884142 0.190005 -0.383230 0.919250 -0.090081 0.941238 0.498005 1 0 1.000000
tv_02
  0 -23.095911 31.687340 0.190005 -0.903921 0.371488 -0.211952 0.940511 0.493345 1 0 1.000000
  0 -22.902512 31.884142 0.190005 -0.383230 0.919250 -0.090081 0.941238 0.498005 1 0 1.000000
  0 -22.134087 31.687342 -2.604798 -0.785086 0.328761 -0.524935 0.990471 0.493451 1 0 1.000000
tv_02
  0 -22.134087 31.687342 -2.604798 -0.785086 0.328761 -0.524935 0.990471 0.493451 1 0 1.000000
  0 -22.902512 31.884142 0.190005 -0.383230 0.919250 -0.090081 0.941238 0.498005 1 0 1.000000
  0 -21.948673 31.884142 -2.604798 -0.359736 0.811328 -0.460800 0.991492 0.497991 1 0 1.000000
tv_02
  0 -21.948673 31.687342 -2.773425 -0.229709 0.219506 -0.948183 0.994540 0.494765 1 0 1.000000
  0 -22.134087 31.687342 -2.604798 -0.785086 0.328761 -0.524935 0.990471 0.493451 1 0 1.000000
  0 -21.948673 31.884142 -2.604798 -0.359736 0.811328 -0.460800 0.991492 0.497991 1 0 1.000000
tv_02
  0 18.566284 0.054451 -7.115588 0.398546 -0.000182 -0.917148 0.937618 0.951217 1 0 1.000000
  0 -18.255936 0.054451 -7.115588 -0.398544 -0.000182 -0.917149 0.581183 0.951692 1 0 1.000000
  0 18.566284 5.373841 -7.115588 0.398546 -0.000182 -0.917148 0.937563 0.903417 1 0 1.000000
tv_02
  0 18.566284 5.373841 -7.115588 0.398546 -0.000182 -0.917148 0.937563 0.903417 1 0 1.000000
  0 -18.255936 0.054451 -7.115588 -0.398544 -0.000182 -0.917149 0.581183 0.951692 1 0 1.000000
  0 -18.255936 5.373841 -7.115588 -0.398544 -0.000182 -0.917149 0.581094 0.904086 1 0 1.000000
tv_02
  0 -18.893734 4.127550 -2.773896 -0.389766 -0.898906 -0.200127 0.128570 0.871773 1 0 1.000000
  0 -19.519936 4.822660 -2.773896 -0.927131 -0.366388 -0.078661 0.144562 0.872697 1 0 1.000000
  0 -18.884434 6.800488 -14.735792 -0.343473 -0.778689 -0.525043 0.174365 0.666953 1 0 1.000000
tv_02
  0 -18.884434 6.800488 -14.735792 -0.343473 -0.778689 -0.525043 0.174365 0.666953 1 0 1.000000
  0 -19.519936 4.822660 -2.773896 -0.927131 -0.366388 -0.078661 0.144562 0.872697 1 0 1.000000
  0 -19.592577 7.513083 -14.728567 -0.889850 -0.270442 -0.367461 0.191523 0.668195 1 0 1.000000
tv_02
  0 -19.519936 4.822660 -2.773896 -0.927131 -0.366388 -0.078661 0.144562 0.872697 1 0 1.000000
  0 -19.519936 26.488359 -2.773896 -0.929039 0.369981 0.000950 0.515544 0.874314 1 0 1.000000
  0 -19.592577 7.513083 -14.728567 -0.889850 -0.270442 -0.367461 0.191523 0.668195 1 0 1.000000
tv_02
  0 -19.592577 7.513083 -14.728567 -0.889850 -0.270442 -0.367461 0.191523 0.668195 1 0 1.000000
  0 -19.519936 26.488359 -2.773896 -0.929039 0.369981 0.000950 0.515544 0.874314 1 0 1.000000
  0 -19.552925 26.439390 -13.407248 -0.929159 0.364408 -0.062214 0.515500 0.692235 1 0 1.000000
tv_02
  0 -19.592577 7.513083 -14.728567 -0.889850 -0.270442 -0.367461 0.191523 0.668195 1 0 1.000000
  0 -19.552925 26.439390 -13.407248 -0.929159 0.364408 -0.062214 0.515500 0.692235 1 0 1.000000
  0 -19.601902 25.923212 -14.730381 -0.799968 0.306190 -0.516042 0.506759 0.669525 1 0 1.000000
tv_02
  0 -18.893734 4.127550 -2.773896 -0.389766 -0.898906 -0.200127 0.963853 0.725334 1 0 1.000000
  0 -18.884434 6.800488 -14.735792 -0.343473 -0.778689 -0.525043 0.964006 0.582447 1 0 1.000000
  0 19.299025 4.127550 -2.773896 0.389765 -0.898906 -0.200127 0.550504 0.724483 1 0 1.000000
tv_02
  0 19.299025 4.127550 -2.773896 0.389765 -0.898906 -0.200127 0.550504 0.724483 1 0 1.000000
  0 -18.884434 6.800488 -14.735792 -0.343473 -0.778689 -0.525043 0.964006 0.582447 1 0 1.000000
  0 19.289722 6.800488 -14.735792 0.343472 -0.778689 -0.525043 0.550859 0.581596 1 0 1.000000
tv_02
  0 -21.948673 31.687342 -2.773425 -0.229709 0.219506 -0.948183 0.078733 0.573869 1 0 1.000000
  0 22.353968 31.687342 -2.773425 0.229716 0.219507 -0.948181 0.498293 0.573869 1 0 1.000000
  0 -18.893734 27.183472 -2.773896 -0.000033 0.000082 -1.000000 0.113812 0.601725 1 0 1.000000
tv_02
  0 -18.893734 27.183472 -2.773896 -0.000033 0.000082 -1.000000 0.113812 0.601725 1 0 1.000000
  0 22.353968 31.687342 -2.773425 0.229716 0.219507 -0.948181 0.498293 0.573869 1 0 1.000000
  0 19.299025 27.183472 -2.773896 0.000033 0.000082 -1.000000 0.463214 0.601725 1 0 1.000000
tv_02
  0 22.353968 3.494621 -2.773425 0.229720 -0.219633 -0.948151 0.498293 0.574621 1 0 1.000000
  0 -21.948673 3.494621 -2.773425 -0.229714 -0.219633 -0.948152 0.078733 0.574621 1 0 1.000000
  0 19.299025 4.127550 -2.773896 0.000065 -0.000431 -1.000000 0.463214 0.602018 1 0 1.000000
tv_02
  0 19.299025 4.127550 -2.773896 0.000065 -0.000431 -1.000000 0.463214 0.602018 1 0 1.000000
  0 -21.948673 3.494621 -2.773425 -0.229714 -0.219633 -0.948152 0.078733 0.574621 1 0 1.000000
  0 -18.893734 4.127550 -2.773896 -0.000065 -0.000431 -1.000000 0.113812 0.602018 1 0 1.000000
tv_02
  0 -18.343508 7.276992 7.223445 0.000000 0.783070 0.621934 0.089562 0.075611 1 0 1.000000
  0 -18.675188 6.920627 7.672141 0.000000 0.783070 0.621934 0.082553 0.066411 1 0 1.000000
  0 18.748796 7.276994 7.223445 0.000000 0.783070 0.621934 0.732173 0.075612 1 0 1.000000
tv_02
  0 18.748796 7.276994 7.223445 0.000000 0.783070 0.621934 0.732173 0.075612 1 0 1.000000
  0 -18.675188 6.920627 7.672141 0.000000 0.783070 0.621934 0.082553 0.066411 1 0 1.000000
  0 19.080477 6.920628 7.672141 0.000000 0.783070 0.621934 0.739181 0.066411 1 0 1.000000
tv_02
  0 -18.675188 29.181986 7.672141 0.804146 0.000000 0.594432 0.084591 0.449730 1 0 1.000000
  0 -18.675188 6.920627 7.672141 0.804146 0.000000 0.594432 0.082553 0.066411 1 0 1.000000
  0 -18.343508 28.825626 7.223445 0.804146 0.000000 0.594432 0.091463 0.440531 1 0 1.000000
tv_02
  0 -18.343508 28.825626 7.223445 0.804146 0.000000 0.594432 0.091463 0.440531 1 0 1.000000
  0 -18.675188 6.920627 7.672141 0.804146 0.000000 0.594432 0.082553 0.066411 1 0 1.000000
  0 -18.343508 7.276992 7.223445 0.804146 0.000000 0.594432 0.089562 0.075611 1 0 1.000000
tv_02
  0 -18.343508 28.825626 7.223445 0.000000 -0.783074 0.621928 0.091463 0.440531 1 0 1.000000
  0 18.748796 28.825626 7.223445 0.000000 -0.783074 0.621928 0.730270 0.440518 1 0 1.000000
  0 -18.675188 29.181986 7.672141 0.000000 -0.783074 0.621928 0.084591 0.449730 1 0 1.000000
tv_02
  0 -18.675188 29.181986 7.672141 0.000000 -0.783074 0.621928 0.084591 0.449730 1 0 1.000000
  0 18.748796 28.825626 7.223445 0.000000 -0.783074 0.621928 0.730270 0.440518 1 0 1.000000
  0 19.080477 29.181986 7.672141 0.000000 -0.783074 0.621928 0.737142 0.449718 1 0 1.000000
tv_02
  0 19.080477 6.920628 7.672141 -0.804145 0.000000 0.594433 0.739181 0.066411 1 0 1.000000
  0 19.080477 29.181986 7.672141 -0.804145 0.000000 0.594433 0.737142 0.449718 1 0 1.000000
  0 18.748796 7.276994 7.223445 -0.804145 0.000000 0.594433 0.732173 0.075612 1 0 1.000000
tv_02
  0 18.748796 7.276994 7.223445 -0.804145 0.000000 0.594433 0.732173 0.075612 1 0 1.000000
  0 19.080477 29.181986 7.672141 -0.804145 0.000000 0.594433 0.737142 0.449718 1 0 1.000000
  0 18.748796 28.825626 7.223445 -0.804145 0.000000 0.594433 0.730270 0.440518 1 0 1.000000
tv_02
  0 -21.948673 3.297827 -2.604798 -0.456827 -0.669990 -0.585169 0.501434 0.824949 1 0 1.000000
  0 -21.948673 3.494621 -2.773425 -0.229714 -0.219633 -0.948152 0.501434 0.827277 1 0 1.000000
  0 22.353968 3.297827 -2.604798 0.456838 -0.669984 -0.585167 0.192279 0.824949 1 0 1.000000
tv_02
  0 22.353968 3.297827 -2.604798 0.456838 -0.669984 -0.585167 0.192279 0.824949 1 0 1.000000
  0 -21.948673 3.494621 -2.773425 -0.229714 -0.219633 -0.948152 0.501434 0.827277 1 0 1.000000
  0 22.353968 3.494621 -2.773425 0.229720 -0.219633 -0.948151 0.192279 0.827277 1 0 1.000000
tv_02
  0 -21.948673 3.297827 -2.604798 0.000000 -1.000000 0.000000 0.501434 0.824949 1 0 1.000000
  0 22.353968 3.297827 -2.604798 0.000000 -1.000000 0.000000 0.192279 0.824949 1 0 1.000000
  0 -22.902512 3.297828 0.190005 0.000000 -1.000000 0.000000 0.508090 0.799848 1 0 1.000000
tv_02
  0 -22.902512 3.297828 0.190005 0.000000 -1.000000 0.000000 0.508090 0.799848 1 0 1.000000
  0 22.353968 3.297827 -2.604798 0.000000 -1.000000 0.000000 0.192279 0.824949 1 0 1.000000
  0 23.307810 3.297828 0.190005 0.000000 -1.000000 0.000000 0.185623 0.799848 1 0 1.000000
tv_02
  0 -22.902512 3.297828 0.190005 0.000000 -1.000000 0.000000 0.508090 0.799848 1 0 1.000000
  0 23.307810 3.297828 0.190005 0.000000 -1.000000 0.000000 0.185623 0.799848 1 0 1.000000
  0 -23.308842 3.297829 3.363592 0.000000 -1.000000 0.000000 0.510926 0.771345 1 0 1.000000
tv_02
  0 -23.308842 3.297829 3.363592 0.000000 -1.000000 0.000000 0.510926 0.771345 1 0 1.000000
  0 23.307810 3.297828 0.190005 0.000000 -1.000000 0.000000 0.185623 0.799848 1 0 1.000000
  0 23.714136 3.297829 3.363592 0.000000 -1.000000 0.000000 0.182788 0.771345 1 0 1.000000
tv_02
  0 -23.308842 3.297829 3.363592 0.000000 -1.000000 0.000000 0.510926 0.771345 1 0 1.000000
  0 23.714136 3.297829 3.363592 0.000000 -1.000000 0.000000 0.182788 0.771345 1 0 1.000000
  0 -23.308842 3.297831 7.222838 0.000000 -1.000000 0.000001 0.510926 0.736684 1 0 1.000000
tv_02
  0 -23.308842 3.297831 7.222838 0.000000 -1.000000 0.000001 0.510926 0.736684 1 0 1.000000
  0 23.714136 3.297829 3.363592 0.000000 -1.000000 0.000000 0.182788 0.771345 1 0 1.000000
  0 23.714136 3.297831 7.222838 0.000000 -1.000000 0.000001 0.182788 0.736684 1 0 1.000000
tv_02
  0 19.299025 27.183472 -2.773896 0.000033 0.000082 -1.000000 0.098953 0.603519 1 0 1.000000
  0 22.353968 31.687342 -2.773425 0.229716 0.219507 -0.948181 0.066091 0.643092 1 0 1.000000
  0 19.925226 26.488359 -2.773896 0.000130 0.000030 -1.000000 0.110842 0.615408 1 0 1.000000
tv_02
  0 22.353968 31.687342 -2.773425 0.229716 0.219507 -0.948181 0.066091 0.643092 1 0 1.000000
  0 22.353968 3.494621 -2.773425 0.229720 -0.219633 -0.948151 0.487584 0.643092 1 0 1.000000
  0 19.925226 26.488359 -2.773896 0.000130 0.000030 -1.000000 0.110842 0.615408 1 0 1.000000
tv_02
  0 19.925226 26.488359 -2.773896 0.000130 0.000030 -1.000000 0.110842 0.615408 1 0 1.000000
  0 22.353968 3.494621 -2.773425 0.229720 -0.219633 -0.948151 0.487584 0.643092 1 0 1.000000
  0 19.925226 4.822660 -2.773896 0.000162 -0.000059 -1.000000 0.464869 0.615408 1 0 1.000000
tv_02
  0 19.925226 4.822660 -2.773896 0.000162 -0.000059 -1.000000 0.464869 0.615408 1 0 1.000000
  0 22.353968 3.494621 -2.773425 0.229720 -0.219633 -0.948151 0.487584 0.643092 1 0 1.000000
  0 19.299025 4.127550 -2.773896 0.000065 -0.000431 -1.000000 0.476758 0.603519 1 0 1.000000
tv_02
  0 18.748796 28.825626 7.223445 0.000000 0.000000 1.000000 0.730270 0.440518 1 0 1.000000
  0 -18.343508 7.276992 7.223445 0.000000 0.000000 1.000000 0.089562 0.075611 1 0 1.000000
  0 18.748796 7.276994 7.223445 0.000000 0.000000 1.000000 0.732173 0.075612 1 0 1.000000
tv_02
  0 -18.343508 28.825626 7.223445 0.000000 0.000000 1.000000 0.091463 0.440531 1 0 1.000000
  0 -18.343508 7.276992 7.223445 0.000000 0.000000 1.000000 0.089562 0.075611 1 0 1.000000
  0 18.748796 28.825626 7.223445 0.000000 0.000000 1.000000 0.730270 0.440518 1 0 1.000000
tv_02
  0 18.566284 5.373841 -7.115588 0.398546 -0.000182 -0.917148 0.003664 0.556630 1 0 1.000000
  0 19.016047 0.054451 -6.631100 0.930336 -0.000179 -0.366707 0.010528 0.501263 1 0 1.000000
  0 18.566284 0.054451 -7.115588 0.398546 -0.000182 -0.917148 0.003929 0.501229 1 0 1.000000
tv_02
  0 19.016043 5.444960 -6.636345 0.930336 -0.000179 -0.366707 0.010221 0.557405 1 0 1.000000
  0 19.016047 0.054451 -6.631100 0.930336 -0.000179 -0.366707 0.010528 0.501263 1 0 1.000000
  0 18.566284 5.373841 -7.115588 0.398546 -0.000182 -0.917148 0.003664 0.556630 1 0 1.000000
tv_02
  0 19.016043 5.444960 -6.636345 0.930336 -0.000179 -0.366707 0.010221 0.557405 1 0 1.000000
  0 19.016043 3.650019 6.249097 0.930328 -0.000265 0.366727 0.138933 0.539345 1 0 1.000000
  0 19.016047 0.054451 -6.631100 0.930336 -0.000179 -0.366707 0.010528 0.501263 1 0 1.000000
tv_02
  0 19.016047 0.054451 -6.631100 0.930336 -0.000179 -0.366707 0.010528 0.501263 1 0 1.000000
  0 19.016043 3.650019 6.249097 0.930328 -0.000265 0.366727 0.138933 0.539345 1 0 1.000000
  0 19.016043 0.054451 6.243848 0.930328 -0.000265 0.366727 0.139051 0.501898 1 0 1.000000
tv_02
  0 -18.255939 0.054451 6.728339 0.000000 -1.000000 0.000000 0.680162 0.692266 1 0 1.000000
  0 -18.705700 0.054451 6.243850 0.000000 -1.000000 0.000000 0.678362 0.689758 1 0 1.000000
  0 18.566282 0.054451 6.728338 0.000000 -1.000000 0.000000 0.827495 0.692266 1 0 1.000000
tv_02
  0 -18.705700 0.054451 6.243850 0.000000 -1.000000 0.000000 0.678362 0.689758 1 0 1.000000
  0 -18.705700 0.054451 -6.631102 0.000000 -1.000000 0.000000 0.678362 0.623114 1 0 1.000000
  0 18.566282 0.054451 6.728338 0.000000 -1.000000 0.000000 0.827495 0.692266 1 0 1.000000
tv_02
  0 -18.705700 0.054451 -6.631102 0.000000 -1.000000 0.000000 0.678362 0.623114 1 0 1.000000
  0 -18.255936 0.054451 -7.115588 0.000000 -1.000000 0.000000 0.680162 0.620606 1 0 1.000000
  0 18.566282 0.054451 6.728338 0.000000 -1.000000 0.000000 0.827495 0.692266 1 0 1.000000
tv_02
  0 18.566282 0.054451 6.728338 0.000000 -1.000000 0.000000 0.827495 0.692266 1 0 1.000000
  0 -18.255936 0.054451 -7.115588 0.000000 -1.000000 0.000000 0.680162 0.620606 1 0 1.000000
  0 19.016043 0.054451 6.243848 0.000000 -1.000000 0.000000 0.829294 0.689758 1 0 1.000000
tv_02
  0 -18.255936 0.054451 -7.115588 0.000000 -1.000000 0.000000 0.680162 0.620606 1 0 1.000000
  0 19.016047 0.054451 -6.631100 0.000000 -1.000000 0.000000 0.829294 0.623114 1 0 1.000000
  0 19.016043 0.054451 6.243848 0.000000 -1.000000 0.000000 0.829294 0.689758 1 0 1.000000
tv_02
  0 18.566284 0.054451 -7.115588 0.000000 -1.000000 0.000000 0.827495 0.620606 1 0 1.000000
  0 19.016047 0.054451 -6.631100 0.000000 -1.000000 0.000000 0.829294 0.623114 1 0 1.000000
  0 -18.255936 0.054451 -7.115588 0.000000 -1.000000 0.000000 0.680162 0.620606 1 0 1.000000
tv_02
  0 19.958225 26.439390 -13.407248 0.929158 0.364409 -0.062216 0.514947 0.692235 1 0 1.000000
  0 19.997869 7.513083 -14.728567 0.889850 -0.270443 -0.367461 0.190983 0.668035 1 0 1.000000
  0 20.007195 25.923212 -14.730381 0.799967 0.306191 -0.516043 0.506218 0.669521 1 0 1.000000
tv_02
  0 19.925226 26.488359 -2.773896 0.929038 0.369983 0.000950 0.514902 0.874314 1 0 1.000000
  0 19.997869 7.513083 -14.728567 0.889850 -0.270443 -0.367461 0.190983 0.668035 1 0 1.000000
  0 19.958225 26.439390 -13.407248 0.929158 0.364409 -0.062216 0.514947 0.692235 1 0 1.000000
tv_02
  0 19.925226 4.822660 -2.773896 0.927131 -0.366389 -0.078661 0.143922 0.872514 1 0 1.000000
  0 19.997869 7.513083 -14.728567 0.889850 -0.270443 -0.367461 0.190983 0.668035 1 0 1.000000
  0 19.925226 26.488359 -2.773896 0.929038 0.369983 0.000950 0.514902 0.874314 1 0 1.000000
tv_02
  0 19.925226 4.822660 -2.773896 0.927131 -0.366389 -0.078661 0.143922 0.872514 1 0 1.000000
  0 19.289722 6.800488 -14.735792 0.343472 -0.778689 -0.525043 0.173825 0.666785 1 0 1.000000
  0 19.997869 7.513083 -14.728567 0.889850 -0.270443 -0.367461 0.190983 0.668035 1 0 1.000000
tv_02
  0 19.299025 4.127550 -2.773896 0.389765 -0.898906 -0.200127 0.127929 0.871582 1 0 1.000000
  0 19.289722 6.800488 -14.735792 0.343472 -0.778689 -0.525043 0.173825 0.666785 1 0 1.000000
  0 19.925226 4.822660 -2.773896 0.927131 -0.366389 -0.078661 0.143922 0.872514 1 0 1.000000
tv_02
  0 -18.255936 0.054451 -7.115588 -0.398544 -0.000182 -0.917149 0.004015 0.501512 1 0 1.000000
  0 -18.705700 0.054451 -6.631102 -0.930336 -0.000179 -0.366709 0.010598 0.501552 1 0 1.000000
  0 -18.255936 5.373841 -7.115588 -0.398544 -0.000182 -0.917149 0.003707 0.556780 1 0 1.000000
tv_02
  0 -18.255936 5.373841 -7.115588 -0.398544 -0.000182 -0.917149 0.003707 0.556780 1 0 1.000000
  0 -18.705700 0.054451 -6.631102 -0.930336 -0.000179 -0.366709 0.010598 0.501552 1 0 1.000000
  0 -18.705696 5.444960 -6.636347 -0.930336 -0.000179 -0.366709 0.010248 0.557559 1 0 1.000000
tv_02
  0 -18.705696 5.444960 -6.636347 -0.930336 -0.000179 -0.366709 0.010248 0.557559 1 0 1.000000
  0 -18.705700 0.054451 -6.631102 -0.930336 -0.000179 -0.366709 0.010598 0.501552 1 0 1.000000
  0 -18.705700 3.650019 6.249098 -0.930328 -0.000265 0.366727 0.138667 0.539652 1 0 1.000000
tv_02
  0 -18.705700 3.650019 6.249098 -0.930328 -0.000265 0.366727 0.138667 0.539652 1 0 1.000000
  0 -18.705700 0.054451 -6.631102 -0.930336 -0.000179 -0.366709 0.010598 0.501552 1 0 1.000000
  0 -18.705700 0.054451 6.243850 -0.930328 -0.000265 0.366727 0.138813 0.502293 1 0 1.000000
tv_02
  0 -18.255939 0.054451 6.728339 -0.398526 -0.000269 0.917157 0.145396 0.502330 1 0 1.000000
  0 -18.705700 3.650019 6.249098 -0.930328 -0.000265 0.366727 0.138667 0.539652 1 0 1.000000
  0 -18.705700 0.054451 6.243850 -0.930328 -0.000265 0.366727 0.138813 0.502293 1 0 1.000000
tv_02
  0 -18.255939 3.721138 6.728339 -0.398526 -0.000269 0.917157 0.145208 0.540425 1 0 1.000000
  0 -18.705700 3.650019 6.249098 -0.930328 -0.000265 0.366727 0.138667 0.539652 1 0 1.000000
  0 -18.255939 0.054451 6.728339 -0.398526 -0.000269 0.917157 0.145396 0.502330 1 0 1.000000
tv_02
  0 18.566282 0.054451 6.728338 0.398526 -0.000269 0.917157 0.508871 0.504302 1 0 1.000000
  0 -18.255939 3.721138 6.728339 -0.398526 -0.000269 0.917157 0.145208 0.540425 1 0 1.000000
  0 -18.255939 0.054451 6.728339 -0.398526 -0.000269 0.917157 0.145396 0.502330 1 0 1.000000
tv_02
  0 18.566282 3.721138 6.728338 0.398526 -0.000269 0.917157 0.508683 0.542397 1 0 1.000000
  0 -18.255939 3.721138 6.728339 -0.398526 -0.000269 0.917157 0.145208 0.540425 1 0 1.000000
  0 18.566282 0.054451 6.728338 0.398526 -0.000269 0.917157 0.508871 0.504302 1 0 1.000000
tv_02
  0 18.566282 0.054451 6.728338 0.398526 -0.000269 0.917157 0.508871 0.504302 1 0 1.000000
  0 19.016043 3.650019 6.249097 0.930328 -0.000265 0.366727 0.515231 0.541693 1 0 1.000000
  0 18.566282 3.721138 6.728338 0.398526 -0.000269 0.917157 0.508683 0.542397 1 0 1.000000
tv_02
  0 19.016043 0.054451 6.243848 0.930328 -0.000265 0.366727 0.515454 0.504337 1 0 1.000000
  0 19.016043 3.650019 6.249097 0.930328 -0.000265 0.366727 0.515231 0.541693 1 0 1.000000
  0 18.566282 0.054451 6.728338 0.398526 -0.000269 0.917157 0.508871 0.504302 1 0 1.000000
tv_02
  0 -18.893734 4.127550 -2.773896 -0.000065 -0.000431 -1.000000 0.476758 0.603743 1 0 1.000000
  0 -21.948673 3.494621 -2.773425 -0.229714 -0.219633 -0.948152 0.487584 0.643317 1 0 1.000000
  0 -19.519936 4.822660 -2.773896 -0.000162 -0.000059 -1.000000 0.464869 0.615632 1 0 1.000000
tv_02
  0 -21.948673 3.494621 -2.773425 -0.229714 -0.219633 -0.948152 0.487584 0.643317 1 0 1.000000
  0 -19.519936 26.488359 -2.773896 -0.000130 0.000030 -1.000000 0.110842 0.615632 1 0 1.000000
  0 -19.519936 4.822660 -2.773896 -0.000162 -0.000059 -1.000000 0.464869 0.615632 1 0 1.000000
tv_02
  0 -21.948673 31.687342 -2.773425 -0.229709 0.219506 -0.948183 0.066091 0.643317 1 0 1.000000
  0 -19.519936 26.488359 -2.773896 -0.000130 0.000030 -1.000000 0.110842 0.615632 1 0 1.000000
  0 -21.948673 3.494621 -2.773425 -0.229714 -0.219633 -0.948152 0.487584 0.643317 1 0 1.000000
tv_02
  0 -19.519936 26.488359 -2.773896 -0.000130 0.000030 -1.000000 0.110842 0.615632 1 0 1.000000
  0 -21.948673 31.687342 -2.773425 -0.229709 0.219506 -0.948183 0.066091 0.643317 1 0 1.000000
  0 -18.893734 27.183472 -2.773896 -0.000033 0.000082 -1.000000 0.098953 0.603743 1 0 1.000000
tv_02
  0 -21.948673 31.687342 -2.773425 -0.229709 0.219506 -0.948183 0.016930 0.879556 1 0 1.000000
  0 -21.948673 31.884142 -2.604798 -0.359736 0.811328 -0.460800 0.016918 0.882480 1 0 1.000000
  0 22.353968 31.687342 -2.773425 0.229716 0.219507 -0.948181 0.516899 0.879289 1 0 1.000000
tv_02
  0 22.353968 31.687342 -2.773425 0.229716 0.219507 -0.948181 0.516899 0.879289 1 0 1.000000
  0 -21.948673 31.884142 -2.604798 -0.359736 0.811328 -0.460800 0.016918 0.882480 1 0 1.000000
  0 22.353968 31.884142 -2.604798 0.359743 0.811327 -0.460795 0.516886 0.882214 1 0 1.000000
tv_02
  0 -21.948673 31.884142 -2.604798 -0.359736 0.811328 -0.460800 0.016918 0.882480 1 0 1.000000
  0 23.307806 31.884140 0.190005 0.383233 0.919249 -0.090081 0.527516 0.913800 1 0 1.000000
  0 22.353968 31.884142 -2.604798 0.359743 0.811327 -0.460795 0.516886 0.882214 1 0 1.000000
tv_02
  0 -22.902512 31.884142 0.190005 -0.383230 0.919250 -0.090081 0.006019 0.913975 1 0 1.000000
  0 23.307806 31.884140 0.190005 0.383233 0.919249 -0.090081 0.527516 0.913800 1 0 1.000000
  0 -21.948673 31.884142 -2.604798 -0.359736 0.811328 -0.460800 0.016918 0.882480 1 0 1.000000
tv_02
  0 -22.902512 31.884142 0.190005 -0.383230 0.919250 -0.090081 0.006019 0.913975 1 0 1.000000
  0 23.714136 31.884142 3.363592 0.383175 0.923347 -0.024635 0.531949 0.949635 1 0 1.000000
  0 23.307806 31.884140 0.190005 0.383233 0.919249 -0.090081 0.527516 0.913800 1 0 1.000000
tv_02
  0 -23.308842 31.884142 3.363592 -0.383171 0.923349 -0.024634 0.001281 0.949770 1 0 1.000000
  0 23.714136 31.884142 3.363592 0.383175 0.923347 -0.024635 0.531949 0.949635 1 0 1.000000
  0 -22.902512 31.884142 0.190005 -0.383230 0.919250 -0.090081 0.006019 0.913975 1 0 1.000000
tv_02
  0 -23.308842 31.884142 7.222838 -0.381273 0.837444 0.391559 0.001096 0.993323 1 0 1.000000
  0 23.714136 31.884142 3.363592 0.383175 0.923347 -0.024635 0.531949 0.949635 1 0 1.000000
  0 -23.308842 31.884142 3.363592 -0.383171 0.923349 -0.024634 0.001281 0.949770 1 0 1.000000
tv_02
  0 23.714136 31.884142 7.222838 0.381278 0.837437 0.391570 0.531764 0.993188 1 0 1.000000
  0 23.714136 31.884142 3.363592 0.383175 0.923347 -0.024635 0.531949 0.949635 1 0 1.000000
  0 -23.308842 31.884142 7.222838 -0.381273 0.837444 0.391559 0.001096 0.993323 1 0 1.000000
tv_02
  0 23.714136 31.884142 7.222838 0.381278 0.837437 0.391570 0.531764 0.993188 1 0 1.000000
  0 -23.308842 31.884142 7.222838 -0.381273 0.837444 0.391559 0.001096 0.993323 1 0 1.000000
  0 23.717123 31.687342 7.393610 0.373632 0.343511 0.861626 0.531785 0.996128 1 0 1.000000
tv_02
  0 23.717123 31.687342 7.393610 0.373632 0.343511 0.861626 0.531785 0.996128 1 0 1.000000
  0 -23.308842 31.884142 7.222838 -0.381273 0.837444 0.391559 0.001096 0.993323 1 0 1.000000
  0 -23.311844 31.687342 7.393610 -0.373638 0.343521 0.861619 0.001051 0.996258 1 0 1.000000
end
