// Created by Crowbar 0.74
version 1
nodes
  0 "polySurface1" -1
end
skeleton
  time 0
    0 0.000000 0.000000 0.000000 0.000000 0.000000 0.000000
end
triangles
  phy
    0 -18.816765 -6.632317 3.427172 0.321170 -0.938848 -0.124150 0 0
    0 -18.816765 -6.632317 -0.116264 0.458755 0.884679 -0.082987 0 0
    0 18.957697 -6.632316 3.427172 0.588457 -0.804995 0.075513 0 0
  phy
    0 -18.816765 -6.632317 -0.116264 0.458755 0.884679 -0.082987 0 0
    0 18.957697 -6.632315 -0.116264 0.127472 0.983282 0.130026 0 0
    0 18.957697 -6.632316 3.427172 0.588457 -0.804995 0.075513 0 0
  phy
    0 18.957697 -6.632315 -0.116264 0.127472 0.983282 0.130026 0 0
    0 -18.816765 -6.632317 -0.116264 0.458755 0.884679 -0.082987 0 0
    0 -18.816765 7.034238 -0.116264 -0.227687 0.965331 -0.127652 0 0
  phy
    0 18.957697 -6.632315 -0.116264 0.127472 0.983282 0.130026 0 0
    0 -18.816765 7.034238 -0.116264 -0.227687 0.965331 -0.127652 0 0
    0 18.957697 7.034240 -0.116264 -0.681017 0.721831 0.123194 0 0
  phy
    0 -18.816765 7.034238 -0.116264 -0.227687 0.965331 -0.127652 0 0
    0 -18.816765 -6.632317 -0.116264 0.458755 0.884679 -0.082987 0 0
    0 -18.816765 -6.632317 3.427172 0.321170 -0.938848 -0.124150 0 0
  phy
    0 -18.816765 7.034238 -0.116264 -0.227687 0.965331 -0.127652 0 0
    0 -18.816765 7.034238 6.330643 -0.584619 -0.799745 -0.136491 0 0
    0 18.957697 7.034240 -0.116264 -0.681017 0.721831 0.123194 0 0
  phy
    0 -18.816765 7.034238 6.330643 -0.584619 -0.799745 -0.136491 0 0
    0 -18.816765 7.034238 -0.116264 -0.227687 0.965331 -0.127652 0 0
    0 -18.816765 -6.632317 3.427172 0.321170 -0.938848 -0.124150 0 0
  phy
    0 18.957697 -6.632315 -0.116264 0.127472 0.983282 0.130026 0 0
    0 18.957697 7.034240 6.330643 -0.023205 -0.991103 0.131060 0 0
    0 18.957697 -6.632316 3.427172 0.588457 -0.804995 0.075513 0 0
  phy
    0 18.957697 7.034240 -0.116264 -0.681017 0.721831 0.123194 0 0
    0 18.957697 7.034240 6.330643 -0.023205 -0.991103 0.131060 0 0
    0 18.957697 -6.632315 -0.116264 0.127472 0.983282 0.130026 0 0
  phy
    0 18.957697 7.034240 -0.116264 -0.681017 0.721831 0.123194 0 0
    0 -18.816765 7.034238 6.330643 -0.584619 -0.799745 -0.136491 0 0
    0 18.957697 7.034240 6.330643 -0.023205 -0.991103 0.131060 0 0
  phy
    0 -18.816765 -6.632317 3.427172 0.321170 -0.938848 -0.124150 0 0
    0 18.957697 7.034240 6.330643 -0.023205 -0.991103 0.131060 0 0
    0 -18.816765 7.034238 6.330643 -0.584619 -0.799745 -0.136491 0 0
  phy
    0 18.957697 -6.632316 3.427172 0.588457 -0.804995 0.075513 0 0
    0 18.957697 7.034240 6.330643 -0.023205 -0.991103 0.131060 0 0
    0 -18.816765 -6.632317 3.427172 0.321170 -0.938848 -0.124150 0 0
  phy
    0 -23.443966 -7.702873 31.980999 0.917242 -0.337836 -0.211031 0 0
    0 -21.946968 2.844205 31.980999 -0.920623 -0.328008 -0.211809 0 0
    0 -21.946968 2.844206 3.345122 -0.917242 0.337836 -0.211031 0 0
  phy
    0 -23.443966 -7.702873 31.980999 0.917242 -0.337836 -0.211031 0 0
    0 -21.946968 2.844206 3.345122 -0.917242 0.337836 -0.211031 0 0
    0 -23.443966 -7.702871 3.345122 0.913787 0.347554 -0.210236 0 0
  phy
    0 23.895739 -7.702870 3.345122 0.917242 0.337836 0.211031 0 0
    0 -23.443966 -7.702871 3.345122 0.913787 0.347554 -0.210236 0 0
    0 -21.946968 2.844206 3.345122 -0.917242 0.337836 -0.211031 0 0
  phy
    0 23.895739 -7.702870 3.345122 0.917242 0.337836 0.211031 0 0
    0 -23.443966 -7.702873 31.980999 0.917242 -0.337836 -0.211031 0 0
    0 -23.443966 -7.702871 3.345122 0.913787 0.347554 -0.210236 0 0
  phy
    0 23.895739 -7.702870 3.345122 0.917242 0.337836 0.211031 0 0
    0 22.398740 2.844207 31.980999 -0.917242 -0.337836 0.211031 0 0
    0 23.895739 -7.702871 31.980999 0.913787 -0.347554 0.210236 0 0
  phy
    0 23.895739 -7.702870 3.345122 0.917242 0.337836 0.211031 0 0
    0 22.398740 2.844208 3.345122 -0.920623 0.328008 0.211809 0 0
    0 22.398740 2.844207 31.980999 -0.917242 -0.337836 0.211031 0 0
  phy
    0 23.895739 -7.702870 3.345122 0.917242 0.337836 0.211031 0 0
    0 -21.946968 2.844206 3.345122 -0.917242 0.337836 -0.211031 0 0
    0 22.398740 2.844208 3.345122 -0.920623 0.328008 0.211809 0 0
  phy
    0 23.895739 -7.702871 31.980999 0.913787 -0.347554 0.210236 0 0
    0 -23.443966 -7.702873 31.980999 0.917242 -0.337836 -0.211031 0 0
    0 23.895739 -7.702870 3.345122 0.917242 0.337836 0.211031 0 0
  phy
    0 -21.946968 2.844206 3.345122 -0.917242 0.337836 -0.211031 0 0
    0 -21.946968 2.844205 31.980999 -0.920623 -0.328008 -0.211809 0 0
    0 22.398740 2.844207 31.980999 -0.917242 -0.337836 0.211031 0 0
  phy
    0 -21.946968 2.844205 31.980999 -0.920623 -0.328008 -0.211809 0 0
    0 -23.443966 -7.702873 31.980999 0.917242 -0.337836 -0.211031 0 0
    0 22.398740 2.844207 31.980999 -0.917242 -0.337836 0.211031 0 0
  phy
    0 -21.946968 2.844206 3.345122 -0.917242 0.337836 -0.211031 0 0
    0 22.398740 2.844207 31.980999 -0.917242 -0.337836 0.211031 0 0
    0 22.398740 2.844208 3.345122 -0.920623 0.328008 0.211809 0 0
  phy
    0 22.398740 2.844207 31.980999 -0.917242 -0.337836 0.211031 0 0
    0 -23.443966 -7.702873 31.980999 0.917242 -0.337836 -0.211031 0 0
    0 23.895739 -7.702871 31.980999 0.913787 -0.347554 0.210236 0 0
  phy
    0 20.005492 15.203468 27.028956 -0.745204 -0.456035 0.486522 0 0
    0 20.005290 2.793167 27.194654 0.862859 -0.486770 0.136124 0 0
    0 20.005290 2.793168 5.030194 0.547289 0.738451 0.393910 0 0
  phy
    0 20.005290 2.793168 5.030194 0.547289 0.738451 0.393910 0 0
    0 20.005492 15.203469 6.914838 -0.949494 0.279808 0.142019 0 0
    0 20.005492 15.203468 27.028956 -0.745204 -0.456035 0.486522 0 0
  phy
    0 -19.623791 15.203466 27.028956 -0.821705 -0.502844 -0.268231 0 0
    0 20.005290 2.793167 27.194654 0.862859 -0.486770 0.136124 0 0
    0 20.005492 15.203468 27.028956 -0.745204 -0.456035 0.486522 0 0
  phy
    0 -19.623791 15.203466 27.028956 -0.821705 -0.502844 -0.268231 0 0
    0 20.005492 15.203468 27.028956 -0.745204 -0.456035 0.486522 0 0
    0 20.005492 15.203469 6.914838 -0.949494 0.279808 0.142019 0 0
  phy
    0 -19.623791 15.203467 6.914838 -0.682062 0.708825 -0.179885 0 0
    0 20.005290 2.793168 5.030194 0.547289 0.738451 0.393910 0 0
    0 -19.623779 2.793166 5.030194 0.919485 0.268849 -0.286823 0 0
  phy
    0 20.005290 2.793168 5.030194 0.547289 0.738451 0.393910 0 0
    0 -19.623791 15.203467 6.914838 -0.682062 0.708825 -0.179885 0 0
    0 20.005492 15.203469 6.914838 -0.949494 0.279808 0.142019 0 0
  phy
    0 20.005290 2.793167 27.194654 0.862859 -0.486770 0.136124 0 0
    0 -19.623779 2.793166 5.030194 0.919485 0.268849 -0.286823 0 0
    0 20.005290 2.793168 5.030194 0.547289 0.738451 0.393910 0 0
  phy
    0 -19.623791 15.203466 27.028956 -0.821705 -0.502844 -0.268231 0 0
    0 -19.623791 15.203467 6.914838 -0.682062 0.708825 -0.179885 0 0
    0 -19.623779 2.793166 5.030194 0.919485 0.268849 -0.286823 0 0
  phy
    0 -19.623791 15.203466 27.028956 -0.821705 -0.502844 -0.268231 0 0
    0 -19.623779 2.793166 5.030194 0.919485 0.268849 -0.286823 0 0
    0 -19.623779 2.793165 27.194654 0.839831 -0.473779 -0.264984 0 0
  phy
    0 -19.623791 15.203466 27.028956 -0.821705 -0.502844 -0.268231 0 0
    0 -19.623779 2.793165 27.194654 0.839831 -0.473779 -0.264984 0 0
    0 20.005290 2.793167 27.194654 0.862859 -0.486770 0.136124 0 0
  phy
    0 -19.623791 15.203467 6.914838 -0.682062 0.708825 -0.179885 0 0
    0 -19.623791 15.203466 27.028956 -0.821705 -0.502844 -0.268231 0 0
    0 20.005492 15.203469 6.914838 -0.949494 0.279808 0.142019 0 0
  phy
    0 20.005290 2.793167 27.194654 0.862859 -0.486770 0.136124 0 0
    0 -19.623779 2.793165 27.194654 0.839831 -0.473779 -0.264984 0 0
    0 -19.623779 2.793166 5.030194 0.919485 0.268849 -0.286823 0 0
end
