// Created by Crowbar 0.74
version 1
nodes
  0 "polySurface6" -1
end
skeleton
  time 0
    0 -0.002142 0.000000 0.009732 0.000000 0.000000 0.000000
end
triangles
bed_01_old
  0 -11.387278 3.414923 17.984463 -0.293826 -0.928561 0.226805 0.029564 0.683757 1 0 1.000000
  0 -13.767947 4.007646 20.707542 -0.143143 -0.985656 0.089401 0.012609 0.661946 1 0 1.000000
  0 -12.703728 4.007648 11.203827 -0.602207 -0.798084 0.020218 0.006213 0.732689 1 0 1.000000
bed_01_old
  0 -4.471333 4.007648 21.091850 -0.072643 -0.880039 0.469312 0.081750 0.654330 1 0 1.000000
  0 -13.767947 4.007646 20.707542 -0.143143 -0.985656 0.089401 0.012609 0.661946 1 0 1.000000
  0 -11.387278 3.414923 17.984463 -0.293826 -0.928561 0.226805 0.029564 0.683757 1 0 1.000000
bed_01_old
  0 4.604937 0.607472 13.128848 0.095864 -0.986019 0.136297 0.159152 0.732167 1 0 1.000000
  0 4.894001 0.029125 -0.038802 0.101659 -0.994814 -0.003348 0.160400 0.826531 1 0 1.000000
  0 10.251794 1.731297 11.724507 0.461529 -0.883384 0.081391 0.204511 0.740778 1 0 1.000000
bed_01_old
  0 11.404352 3.130996 17.984463 0.301366 -0.925095 0.231038 0.216870 0.688060 1 0 1.000000
  0 4.604937 0.607472 13.128848 0.095864 -0.986019 0.136297 0.159152 0.732167 1 0 1.000000
  0 10.251794 1.731297 11.724507 0.461529 -0.883384 0.081391 0.204511 0.740778 1 0 1.000000
bed_01_old
  0 4.151283 1.932713 18.426350 0.085108 -0.906852 0.412766 0.157619 0.685030 1 0 1.000000
  0 4.604937 0.607472 13.128848 0.095864 -0.986019 0.136297 0.159152 0.732167 1 0 1.000000
  0 11.404352 3.130996 17.984463 0.301366 -0.925095 0.231038 0.216870 0.688060 1 0 1.000000
bed_01_old
  0 11.404352 3.130996 17.984463 0.301366 -0.925095 0.231038 0.216870 0.688060 1 0 1.000000
  0 4.488411 4.007651 21.091860 0.055910 -0.865513 0.497757 0.157121 0.653558 1 0 1.000000
  0 4.151283 1.932713 18.426350 0.085108 -0.906852 0.412766 0.157619 0.685030 1 0 1.000000
bed_01_old
  0 4.488411 4.007651 21.091860 0.055910 -0.865513 0.497757 0.157121 0.653558 1 0 1.000000
  0 -4.471333 4.007648 21.091850 -0.072643 -0.880039 0.469312 0.081750 0.654330 1 0 1.000000
  0 4.151283 1.932713 18.426350 0.085108 -0.906852 0.412766 0.157619 0.685030 1 0 1.000000
bed_01_old
  0 4.151283 1.932713 18.426350 0.085108 -0.906852 0.412766 0.157619 0.685030 1 0 1.000000
  0 -4.471333 4.007648 21.091850 -0.072643 -0.880039 0.469312 0.081750 0.654330 1 0 1.000000
  0 -5.189194 2.160529 18.428991 -0.113409 -0.902058 0.416449 0.081486 0.683577 1 0 1.000000
bed_01_old
  0 -5.189194 2.160529 18.428991 -0.113409 -0.902058 0.416449 0.081486 0.683577 1 0 1.000000
  0 -4.471333 4.007648 21.091850 -0.072643 -0.880039 0.469312 0.081750 0.654330 1 0 1.000000
  0 -11.387278 3.414923 17.984463 -0.293826 -0.928561 0.226805 0.029564 0.683757 1 0 1.000000
bed_01_old
  0 -11.387278 3.414923 17.984463 -0.293826 -0.928561 0.226805 0.029564 0.683757 1 0 1.000000
  0 -5.186998 0.905313 13.128848 -0.114355 -0.983452 0.140519 0.083482 0.730344 1 0 1.000000
  0 -5.189194 2.160529 18.428991 -0.113409 -0.902058 0.416449 0.081486 0.683577 1 0 1.000000
bed_01_old
  0 -10.579312 1.724171 11.724507 -0.487948 -0.867214 0.099226 0.036154 0.734559 1 0 1.000000
  0 -5.186998 0.905313 13.128848 -0.114355 -0.983452 0.140519 0.083482 0.730344 1 0 1.000000
  0 -11.387278 3.414923 17.984463 -0.293826 -0.928561 0.226805 0.029564 0.683757 1 0 1.000000
bed_01_old
  0 -5.186998 0.905313 13.128848 -0.114355 -0.983452 0.140519 0.083482 0.730344 1 0 1.000000
  0 -10.579312 1.724171 11.724507 -0.487948 -0.867214 0.099226 0.036154 0.734559 1 0 1.000000
  0 -5.190385 0.075324 -0.038802 -0.109111 -0.994028 -0.001666 0.082046 0.824378 1 0 1.000000
bed_01_old
  0 -5.190385 0.075324 -0.038802 -0.109111 -0.994028 -0.001666 0.082046 0.824378 1 0 1.000000
  0 -10.579312 1.724171 11.724507 -0.487948 -0.867214 0.099226 0.036154 0.734559 1 0 1.000000
  0 -10.700434 1.480751 -0.038802 -0.491835 -0.870688 0.000000 0.035013 0.823411 1 0 1.000000
bed_01_old
  0 -10.700434 1.480751 -0.038802 -0.491835 -0.870688 0.000000 0.035013 0.823411 1 0 1.000000
  0 -10.579312 1.724171 -11.802112 -0.487948 -0.867214 -0.099226 0.034750 0.911787 1 0 1.000000
  0 -5.190385 0.075324 -0.038802 -0.109111 -0.994028 -0.001666 0.082046 0.824378 1 0 1.000000
bed_01_old
  0 -5.190385 0.075324 -0.038802 -0.109111 -0.994028 -0.001666 0.082046 0.824378 1 0 1.000000
  0 -10.579312 1.724171 -11.802112 -0.487948 -0.867214 -0.099226 0.034750 0.911787 1 0 1.000000
  0 -5.186998 0.905313 -13.206449 -0.109922 -0.984233 -0.138572 0.082070 0.918332 1 0 1.000000
bed_01_old
  0 4.604937 0.779405 -13.206449 0.093261 -0.986758 -0.132709 0.158187 0.921265 1 0 1.000000
  0 -5.190385 0.075324 -0.038802 -0.109111 -0.994028 -0.001666 0.082046 0.824378 1 0 1.000000
  0 -5.186998 0.905313 -13.206449 -0.109922 -0.984233 -0.138572 0.082070 0.918332 1 0 1.000000
bed_01_old
  0 -5.186998 0.905313 -13.206449 -0.109922 -0.984233 -0.138572 0.082070 0.918332 1 0 1.000000
  0 4.151283 1.932715 -18.503954 0.083921 -0.910125 -0.405746 0.155107 0.966812 1 0 1.000000
  0 4.604937 0.779405 -13.206449 0.093261 -0.986758 -0.132709 0.158187 0.921265 1 0 1.000000
bed_01_old
  0 11.404352 3.130996 -18.062067 0.298439 -0.926688 -0.228437 0.215725 0.967063 1 0 1.000000
  0 4.604937 0.779405 -13.206449 0.093261 -0.986758 -0.132709 0.158187 0.921265 1 0 1.000000
  0 4.151283 1.932715 -18.503954 0.083921 -0.910125 -0.405746 0.155107 0.966812 1 0 1.000000
bed_01_old
  0 10.251794 1.731299 -11.802112 0.454485 -0.887146 -0.080098 0.204224 0.913423 1 0 1.000000
  0 4.604937 0.779405 -13.206449 0.093261 -0.986758 -0.132709 0.158187 0.921265 1 0 1.000000
  0 11.404352 3.130996 -18.062067 0.298439 -0.926688 -0.228437 0.215725 0.967063 1 0 1.000000
bed_01_old
  0 10.251794 1.731299 -11.802112 0.454485 -0.887146 -0.080098 0.204224 0.913423 1 0 1.000000
  0 4.894001 0.029125 -0.038802 0.101659 -0.994814 -0.003348 0.160400 0.826531 1 0 1.000000
  0 4.604937 0.779405 -13.206449 0.093261 -0.986758 -0.132709 0.158187 0.921265 1 0 1.000000
bed_01_old
  0 4.894001 0.029125 -0.038802 0.101659 -0.994814 -0.003348 0.160400 0.826531 1 0 1.000000
  0 -5.190385 0.075324 -0.038802 -0.109111 -0.994028 -0.001666 0.082046 0.824378 1 0 1.000000
  0 4.604937 0.779405 -13.206449 0.093261 -0.986758 -0.132709 0.158187 0.921265 1 0 1.000000
bed_01_old
  0 4.894001 0.029125 -0.038802 0.101659 -0.994814 -0.003348 0.160400 0.826531 1 0 1.000000
  0 4.604937 0.607472 13.128848 0.095864 -0.986019 0.136297 0.159152 0.732167 1 0 1.000000
  0 -5.190385 0.075324 -0.038802 -0.109111 -0.994028 -0.001666 0.082046 0.824378 1 0 1.000000
bed_01_old
  0 -5.190385 0.075324 -0.038802 -0.109111 -0.994028 -0.001666 0.082046 0.824378 1 0 1.000000
  0 4.604937 0.607472 13.128848 0.095864 -0.986019 0.136297 0.159152 0.732167 1 0 1.000000
  0 -5.186998 0.905313 13.128848 -0.114355 -0.983452 0.140519 0.083482 0.730344 1 0 1.000000
bed_01_old
  0 4.604937 0.607472 13.128848 0.095864 -0.986019 0.136297 0.159152 0.732167 1 0 1.000000
  0 4.151283 1.932713 18.426350 0.085108 -0.906852 0.412766 0.157619 0.685030 1 0 1.000000
  0 -5.186998 0.905313 13.128848 -0.114355 -0.983452 0.140519 0.083482 0.730344 1 0 1.000000
bed_01_old
  0 -5.186998 0.905313 13.128848 -0.114355 -0.983452 0.140519 0.083482 0.730344 1 0 1.000000
  0 4.151283 1.932713 18.426350 0.085108 -0.906852 0.412766 0.157619 0.685030 1 0 1.000000
  0 -5.189194 2.160529 18.428991 -0.113409 -0.902058 0.416449 0.081486 0.683577 1 0 1.000000
bed_01_old
  0 -11.387278 3.414923 17.984463 -0.293826 -0.928561 0.226805 0.029564 0.683757 1 0 1.000000
  0 -12.703728 4.007648 11.203827 -0.602207 -0.798084 0.020218 0.006213 0.732689 1 0 1.000000
  0 -10.579312 1.724171 11.724507 -0.487948 -0.867214 0.099226 0.036154 0.734559 1 0 1.000000
bed_01_old
  0 -10.579312 1.724171 11.724507 -0.487948 -0.867214 0.099226 0.036154 0.734559 1 0 1.000000
  0 -12.703728 4.007648 11.203827 -0.602207 -0.798084 0.020218 0.006213 0.732689 1 0 1.000000
  0 -10.700434 1.480751 -0.038802 -0.491835 -0.870688 0.000000 0.035013 0.823411 1 0 1.000000
bed_01_old
  0 -10.700434 1.480751 -0.038802 -0.491835 -0.870688 0.000000 0.035013 0.823411 1 0 1.000000
  0 -12.703728 4.007648 11.203827 -0.602207 -0.798084 0.020218 0.006213 0.732689 1 0 1.000000
  0 -12.677990 4.007648 -0.038802 -0.761447 -0.648228 0.000000 0.003679 0.822287 1 0 1.000000
bed_01_old
  0 -12.677990 4.007648 -0.038802 -0.761447 -0.648228 0.000000 0.003679 0.822287 1 0 1.000000
  0 -12.703728 4.007648 -11.281432 -0.602207 -0.798084 -0.020218 0.004080 0.912496 1 0 1.000000
  0 -10.700434 1.480751 -0.038802 -0.491835 -0.870688 0.000000 0.035013 0.823411 1 0 1.000000
bed_01_old
  0 -10.700434 1.480751 -0.038802 -0.491835 -0.870688 0.000000 0.035013 0.823411 1 0 1.000000
  0 -12.703728 4.007648 -11.281432 -0.602207 -0.798084 -0.020218 0.004080 0.912496 1 0 1.000000
  0 -10.579312 1.724171 -11.802112 -0.487948 -0.867214 -0.099226 0.034750 0.911787 1 0 1.000000
bed_01_old
  0 -10.579312 1.724171 -11.802112 -0.487948 -0.867214 -0.099226 0.034750 0.911787 1 0 1.000000
  0 -12.703728 4.007648 -11.281432 -0.602207 -0.798084 -0.020218 0.004080 0.912496 1 0 1.000000
  0 -11.387278 3.414925 -18.062056 -0.293826 -0.928561 -0.226804 0.027070 0.962076 1 0 1.000000
bed_01_old
  0 -10.579312 1.724171 -11.802112 -0.487948 -0.867214 -0.099226 0.034750 0.911787 1 0 1.000000
  0 -11.387278 3.414925 -18.062056 -0.293826 -0.928561 -0.226804 0.027070 0.962076 1 0 1.000000
  0 -5.186998 0.905313 -13.206449 -0.109922 -0.984233 -0.138572 0.082070 0.918332 1 0 1.000000
bed_01_old
  0 -5.186998 0.905313 -13.206449 -0.109922 -0.984233 -0.138572 0.082070 0.918332 1 0 1.000000
  0 -11.387278 3.414925 -18.062056 -0.293826 -0.928561 -0.226804 0.027070 0.962076 1 0 1.000000
  0 -5.189194 2.160529 -18.506599 -0.111159 -0.903979 -0.412875 0.079014 0.964828 1 0 1.000000
bed_01_old
  0 -5.189194 2.160529 -18.506599 -0.111159 -0.903979 -0.412875 0.079014 0.964828 1 0 1.000000
  0 4.151283 1.932715 -18.503954 0.083921 -0.910125 -0.405746 0.155107 0.966812 1 0 1.000000
  0 -5.186998 0.905313 -13.206449 -0.109922 -0.984233 -0.138572 0.082070 0.918332 1 0 1.000000
bed_01_old
  0 -5.189194 2.160529 -18.506599 -0.111159 -0.903979 -0.412875 0.079014 0.964828 1 0 1.000000
  0 -4.471333 4.007648 -21.169466 -0.072643 -0.880040 -0.469311 0.078679 0.994056 1 0 1.000000
  0 4.151283 1.932715 -18.503954 0.083921 -0.910125 -0.405746 0.155107 0.966812 1 0 1.000000
bed_01_old
  0 4.151283 1.932715 -18.503954 0.083921 -0.910125 -0.405746 0.155107 0.966812 1 0 1.000000
  0 -4.471333 4.007648 -21.169466 -0.072643 -0.880040 -0.469311 0.078679 0.994056 1 0 1.000000
  0 4.488411 4.007651 -21.169456 0.055910 -0.865513 -0.497756 0.154000 0.998261 1 0 1.000000
bed_01_old
  0 4.151283 1.932715 -18.503954 0.083921 -0.910125 -0.405746 0.155107 0.966812 1 0 1.000000
  0 4.488411 4.007651 -21.169456 0.055910 -0.865513 -0.497756 0.154000 0.998261 1 0 1.000000
  0 11.404352 3.130996 -18.062067 0.298439 -0.926688 -0.228437 0.215725 0.967063 1 0 1.000000
bed_01_old
  0 4.488411 4.007651 -21.169456 0.055910 -0.865513 -0.497756 0.154000 0.998261 1 0 1.000000
  0 13.785025 4.007653 -20.785149 0.205624 -0.969635 -0.132391 0.232011 0.990496 1 0 1.000000
  0 11.404352 3.130996 -18.062067 0.298439 -0.926688 -0.228437 0.215725 0.967063 1 0 1.000000
bed_01_old
  0 11.404352 3.130996 -18.062067 0.298439 -0.926688 -0.228437 0.215725 0.967063 1 0 1.000000
  0 13.785025 4.007653 -20.785149 0.205624 -0.969635 -0.132391 0.232011 0.990496 1 0 1.000000
  0 12.720802 4.007651 -11.281432 0.598490 -0.801129 -0.000997 0.241664 0.919445 1 0 1.000000
bed_01_old
  0 11.404352 3.130996 -18.062067 0.298439 -0.926688 -0.228437 0.215725 0.967063 1 0 1.000000
  0 12.720802 4.007651 -11.281432 0.598490 -0.801129 -0.000997 0.241664 0.919445 1 0 1.000000
  0 10.251794 1.731299 -11.802112 0.454485 -0.887146 -0.080098 0.204224 0.913423 1 0 1.000000
bed_01_old
  0 10.251794 1.731299 -11.802112 0.454485 -0.887146 -0.080098 0.204224 0.913423 1 0 1.000000
  0 12.720802 4.007651 -11.281432 0.598490 -0.801129 -0.000997 0.241664 0.919445 1 0 1.000000
  0 10.330249 1.385496 -0.038802 0.469762 -0.882791 -0.001845 0.202974 0.827112 1 0 1.000000
bed_01_old
  0 10.330249 1.385496 -0.038802 0.469762 -0.882791 -0.001845 0.202974 0.827112 1 0 1.000000
  0 4.894001 0.029125 -0.038802 0.101659 -0.994814 -0.003348 0.160400 0.826531 1 0 1.000000
  0 10.251794 1.731299 -11.802112 0.454485 -0.887146 -0.080098 0.204224 0.913423 1 0 1.000000
bed_01_old
  0 10.251794 1.731297 11.724507 0.461529 -0.883384 0.081391 0.204511 0.740778 1 0 1.000000
  0 4.894001 0.029125 -0.038802 0.101659 -0.994814 -0.003348 0.160400 0.826531 1 0 1.000000
  0 10.330249 1.385496 -0.038802 0.469762 -0.882791 -0.001845 0.202974 0.827112 1 0 1.000000
bed_01_old
  0 -11.387278 3.414925 -18.062056 -0.293826 -0.928561 -0.226804 0.027070 0.962076 1 0 1.000000
  0 -4.471333 4.007648 -21.169466 -0.072643 -0.880040 -0.469311 0.078679 0.994056 1 0 1.000000
  0 -5.189194 2.160529 -18.506599 -0.111159 -0.903979 -0.412875 0.079014 0.964828 1 0 1.000000
bed_01_old
  0 -11.387278 3.414925 -18.062056 -0.293826 -0.928561 -0.226804 0.027070 0.962076 1 0 1.000000
  0 -13.767947 4.007646 -20.785139 -0.143143 -0.985656 -0.089400 0.009869 0.983230 1 0 1.000000
  0 -4.471333 4.007648 -21.169466 -0.072643 -0.880040 -0.469311 0.078679 0.994056 1 0 1.000000
bed_01_old
  0 -11.387278 3.414925 -18.062056 -0.293826 -0.928561 -0.226804 0.027070 0.962076 1 0 1.000000
  0 -12.703728 4.007648 -11.281432 -0.602207 -0.798084 -0.020218 0.004080 0.912496 1 0 1.000000
  0 -13.767947 4.007646 -20.785139 -0.143143 -0.985656 -0.089400 0.009869 0.983230 1 0 1.000000
bed_01_old
  0 11.404352 3.130996 17.984463 0.301366 -0.925095 0.231038 0.216870 0.688060 1 0 1.000000
  0 13.785025 4.007653 20.707533 0.205625 -0.969634 0.132392 0.233509 0.665337 1 0 1.000000
  0 4.488411 4.007651 21.091860 0.055910 -0.865513 0.497757 0.157121 0.653558 1 0 1.000000
bed_01_old
  0 11.404352 3.130996 17.984463 0.301366 -0.925095 0.231038 0.216870 0.688060 1 0 1.000000
  0 12.720802 4.007651 11.203827 0.598491 -0.801129 0.000997 0.242120 0.736745 1 0 1.000000
  0 13.785025 4.007653 20.707533 0.205625 -0.969634 0.132392 0.233509 0.665337 1 0 1.000000
bed_01_old
  0 10.251794 1.731297 11.724507 0.461529 -0.883384 0.081391 0.204511 0.740778 1 0 1.000000
  0 12.720802 4.007651 11.203827 0.598491 -0.801129 0.000997 0.242120 0.736745 1 0 1.000000
  0 11.404352 3.130996 17.984463 0.301366 -0.925095 0.231038 0.216870 0.688060 1 0 1.000000
bed_01_old
  0 10.330249 1.385496 -0.038802 0.469762 -0.882791 -0.001845 0.202974 0.827112 1 0 1.000000
  0 12.720802 4.007651 11.203827 0.598491 -0.801129 0.000997 0.242120 0.736745 1 0 1.000000
  0 10.251794 1.731297 11.724507 0.461529 -0.883384 0.081391 0.204511 0.740778 1 0 1.000000
bed_01_old
  0 12.695068 4.007651 -0.038802 0.712437 -0.701736 0.000000 0.244671 0.828183 1 0 1.000000
  0 12.720802 4.007651 11.203827 0.598491 -0.801129 0.000997 0.242120 0.736745 1 0 1.000000
  0 10.330249 1.385496 -0.038802 0.469762 -0.882791 -0.001845 0.202974 0.827112 1 0 1.000000
bed_01_old
  0 10.330249 1.385496 -0.038802 0.469762 -0.882791 -0.001845 0.202974 0.827112 1 0 1.000000
  0 12.720802 4.007651 -11.281432 0.598490 -0.801129 -0.000997 0.241664 0.919445 1 0 1.000000
  0 12.695068 4.007651 -0.038802 0.712437 -0.701736 0.000000 0.244671 0.828183 1 0 1.000000
bed_01_old
  0 5.204072 7.729484 13.128848 0.168469 0.968454 0.183616 0.165793 0.733284 1 0 1.000000
  0 -4.134205 6.082585 18.426350 -0.085669 0.886255 0.455207 0.093836 0.683214 1 0 1.000000
  0 5.206272 5.854769 18.428991 0.130772 0.886963 0.442940 0.169867 0.686865 1 0 1.000000
bed_01_old
  0 -4.587863 7.855391 13.128848 -0.096937 0.975629 0.196855 0.089758 0.728684 1 0 1.000000
  0 -4.134205 6.082585 18.426350 -0.085669 0.886255 0.455207 0.093836 0.683214 1 0 1.000000
  0 5.204072 7.729484 13.128848 0.168469 0.968454 0.183616 0.165793 0.733284 1 0 1.000000
bed_01_old
  0 -10.234720 6.903497 11.724507 -0.509224 0.851364 0.125979 0.043560 0.735515 1 0 1.000000
  0 -4.134205 6.082585 18.426350 -0.085669 0.886255 0.455207 0.093836 0.683214 1 0 1.000000
  0 -4.587863 7.855391 13.128848 -0.096937 0.975629 0.196855 0.089758 0.728684 1 0 1.000000
bed_01_old
  0 -4.587863 7.855391 13.128848 -0.096937 0.975629 0.196855 0.089758 0.728684 1 0 1.000000
  0 -4.876923 8.978500 -0.038802 -0.103455 0.994628 0.003365 0.085469 0.823346 1 0 1.000000
  0 -10.234720 6.903497 11.724507 -0.509224 0.851364 0.125979 0.043560 0.735515 1 0 1.000000
bed_01_old
  0 -4.876923 8.978500 -0.038802 -0.103455 0.994628 0.003365 0.085469 0.823346 1 0 1.000000
  0 -4.587863 7.855391 13.128848 -0.096937 0.975629 0.196855 0.089758 0.728684 1 0 1.000000
  0 5.207459 8.932302 -0.038802 0.186687 0.982418 0.001695 0.163757 0.827216 1 0 1.000000
bed_01_old
  0 -4.876923 8.978500 -0.038802 -0.103455 0.994628 0.003365 0.085469 0.823346 1 0 1.000000
  0 5.207459 8.932302 -0.038802 0.186687 0.982418 0.001695 0.163757 0.827216 1 0 1.000000
  0 -4.587863 8.027324 -13.206449 -0.099501 0.974755 -0.199882 0.084648 0.917715 1 0 1.000000
bed_01_old
  0 -4.587863 8.027324 -13.206449 -0.099501 0.974755 -0.199882 0.084648 0.917715 1 0 1.000000
  0 5.207459 8.932302 -0.038802 0.186687 0.982418 0.001695 0.163757 0.827216 1 0 1.000000
  0 5.204072 7.729484 -13.206449 0.172925 0.967373 -0.185168 0.160260 0.921196 1 0 1.000000
bed_01_old
  0 5.207459 8.932302 -0.038802 0.186687 0.982418 0.001695 0.163757 0.827216 1 0 1.000000
  0 -4.587863 7.855391 13.128848 -0.096937 0.975629 0.196855 0.089758 0.728684 1 0 1.000000
  0 5.204072 7.729484 13.128848 0.168469 0.968454 0.183616 0.165793 0.733284 1 0 1.000000
bed_01_old
  0 -11.387278 4.884302 17.984463 -0.317939 0.912365 0.257884 0.033238 0.681635 1 0 1.000000
  0 -4.134205 6.082585 18.426350 -0.085669 0.886255 0.455207 0.093836 0.683214 1 0 1.000000
  0 -10.234720 6.903497 11.724507 -0.509224 0.851364 0.125979 0.043560 0.735515 1 0 1.000000
bed_01_old
  0 4.488411 4.007651 21.091860 0.072643 0.880040 0.469311 0.170843 0.657652 1 0 1.000000
  0 -4.134205 6.082585 18.426350 -0.085669 0.886255 0.455207 0.093836 0.683214 1 0 1.000000
  0 -4.471333 4.007648 21.091850 -0.055910 0.865513 0.497757 0.095631 0.651798 1 0 1.000000
bed_01_old
  0 -4.134205 6.082585 18.426350 -0.085669 0.886255 0.455207 0.093836 0.683214 1 0 1.000000
  0 -11.387278 4.884302 17.984463 -0.317939 0.912365 0.257884 0.033238 0.681635 1 0 1.000000
  0 -4.471333 4.007648 21.091850 -0.055910 0.865513 0.497757 0.095631 0.651798 1 0 1.000000
bed_01_old
  0 -4.471333 4.007648 21.091850 -0.055910 0.865513 0.497757 0.095631 0.651798 1 0 1.000000
  0 -11.387278 4.884302 17.984463 -0.317939 0.912365 0.257884 0.033238 0.681635 1 0 1.000000
  0 -13.767947 4.007646 20.707542 -0.205624 0.969635 0.132391 0.017469 0.657851 1 0 1.000000
bed_01_old
  0 -11.387278 4.884302 17.984463 -0.317939 0.912365 0.257884 0.033238 0.681635 1 0 1.000000
  0 -12.703728 4.007648 11.203827 -0.662742 0.748742 0.012560 0.006261 0.728673 1 0 1.000000
  0 -13.767947 4.007646 20.707542 -0.205624 0.969635 0.132391 0.017469 0.657851 1 0 1.000000
bed_01_old
  0 -11.387278 4.884302 17.984463 -0.317939 0.912365 0.257884 0.033238 0.681635 1 0 1.000000
  0 -10.234720 6.903497 11.724507 -0.509224 0.851364 0.125979 0.043560 0.735515 1 0 1.000000
  0 -12.703728 4.007648 11.203827 -0.662742 0.748742 0.012560 0.006261 0.728673 1 0 1.000000
bed_01_old
  0 -10.234720 6.903497 11.724507 -0.509224 0.851364 0.125979 0.043560 0.735515 1 0 1.000000
  0 -10.313175 7.622128 -0.038802 -0.524301 0.851531 0.001940 0.042918 0.821832 1 0 1.000000
  0 -12.703728 4.007648 11.203827 -0.662742 0.748742 0.012560 0.006261 0.728673 1 0 1.000000
bed_01_old
  0 -10.234720 6.903497 11.724507 -0.509224 0.851364 0.125979 0.043560 0.735515 1 0 1.000000
  0 -4.876923 8.978500 -0.038802 -0.103455 0.994628 0.003365 0.085469 0.823346 1 0 1.000000
  0 -10.313175 7.622128 -0.038802 -0.524301 0.851531 0.001940 0.042918 0.821832 1 0 1.000000
bed_01_old
  0 -10.313175 7.622128 -0.038802 -0.524301 0.851531 0.001940 0.042918 0.821832 1 0 1.000000
  0 -4.876923 8.978500 -0.038802 -0.103455 0.994628 0.003365 0.085469 0.823346 1 0 1.000000
  0 -10.234720 6.903498 -11.802112 -0.516145 0.847069 -0.126758 0.039490 0.908112 1 0 1.000000
bed_01_old
  0 -10.234720 6.903498 -11.802112 -0.516145 0.847069 -0.126758 0.039490 0.908112 1 0 1.000000
  0 -4.876923 8.978500 -0.038802 -0.103455 0.994628 0.003365 0.085469 0.823346 1 0 1.000000
  0 -4.587863 8.027324 -13.206449 -0.099501 0.974755 -0.199882 0.084648 0.917715 1 0 1.000000
bed_01_old
  0 -4.134205 6.082586 -18.503954 -0.086773 0.882856 -0.461558 0.085148 0.964874 1 0 1.000000
  0 -10.234720 6.903498 -11.802112 -0.516145 0.847069 -0.126758 0.039490 0.908112 1 0 1.000000
  0 -4.587863 8.027324 -13.206449 -0.099501 0.974755 -0.199882 0.084648 0.917715 1 0 1.000000
bed_01_old
  0 5.204072 7.729484 -13.206449 0.172925 0.967373 -0.185168 0.160260 0.921196 1 0 1.000000
  0 -4.134205 6.082586 -18.503954 -0.086773 0.882856 -0.461558 0.085148 0.964874 1 0 1.000000
  0 -4.587863 8.027324 -13.206449 -0.099501 0.974755 -0.199882 0.084648 0.917715 1 0 1.000000
bed_01_old
  0 5.206272 5.854769 -18.506599 0.132960 0.885005 -0.446193 0.161231 0.967995 1 0 1.000000
  0 -4.134205 6.082586 -18.503954 -0.086773 0.882856 -0.461558 0.085148 0.964874 1 0 1.000000
  0 5.204072 7.729484 -13.206449 0.172925 0.967373 -0.185168 0.160260 0.921196 1 0 1.000000
bed_01_old
  0 10.596386 5.929943 -11.802112 0.522996 0.845693 -0.106198 0.207669 0.918019 1 0 1.000000
  0 5.206272 5.854769 -18.506599 0.132960 0.885005 -0.446193 0.161231 0.967995 1 0 1.000000
  0 5.204072 7.729484 -13.206449 0.172925 0.967373 -0.185168 0.160260 0.921196 1 0 1.000000
bed_01_old
  0 5.207459 8.932302 -0.038802 0.186687 0.982418 0.001695 0.163757 0.827216 1 0 1.000000
  0 10.596386 5.929943 -11.802112 0.522996 0.845693 -0.106198 0.207669 0.918019 1 0 1.000000
  0 5.204072 7.729484 -13.206449 0.172925 0.967373 -0.185168 0.160260 0.921196 1 0 1.000000
bed_01_old
  0 10.717508 6.630381 -0.038802 0.558028 0.829822 0.000000 0.210758 0.829213 1 0 1.000000
  0 10.596386 5.929943 -11.802112 0.522996 0.845693 -0.106198 0.207669 0.918019 1 0 1.000000
  0 5.207459 8.932302 -0.038802 0.186687 0.982418 0.001695 0.163757 0.827216 1 0 1.000000
bed_01_old
  0 5.207459 8.932302 -0.038802 0.186687 0.982418 0.001695 0.163757 0.827216 1 0 1.000000
  0 10.596386 5.929944 11.724507 0.522996 0.845693 0.106198 0.212957 0.740865 1 0 1.000000
  0 10.717508 6.630381 -0.038802 0.558028 0.829822 0.000000 0.210758 0.829213 1 0 1.000000
bed_01_old
  0 5.204072 7.729484 13.128848 0.168469 0.968454 0.183616 0.165793 0.733284 1 0 1.000000
  0 10.596386 5.929944 11.724507 0.522996 0.845693 0.106198 0.212957 0.740865 1 0 1.000000
  0 5.207459 8.932302 -0.038802 0.186687 0.982418 0.001695 0.163757 0.827216 1 0 1.000000
bed_01_old
  0 5.204072 7.729484 13.128848 0.168469 0.968454 0.183616 0.165793 0.733284 1 0 1.000000
  0 5.206272 5.854769 18.428991 0.130772 0.886963 0.442940 0.169867 0.686865 1 0 1.000000
  0 10.596386 5.929944 11.724507 0.522996 0.845693 0.106198 0.212957 0.740865 1 0 1.000000
bed_01_old
  0 -10.234720 6.903498 -11.802112 -0.516145 0.847069 -0.126758 0.039490 0.908112 1 0 1.000000
  0 -12.703728 4.007648 -11.281432 -0.662742 0.748742 -0.012560 0.001801 0.911320 1 0 1.000000
  0 -10.313175 7.622128 -0.038802 -0.524301 0.851531 0.001940 0.042918 0.821832 1 0 1.000000
bed_01_old
  0 -10.313175 7.622128 -0.038802 -0.524301 0.851531 0.001940 0.042918 0.821832 1 0 1.000000
  0 -12.703728 4.007648 -11.281432 -0.662742 0.748742 -0.012560 0.001801 0.911320 1 0 1.000000
  0 -12.677990 4.007648 -0.038802 -0.803668 0.595078 0.000000 0.001255 0.819847 1 0 1.000000
bed_01_old
  0 -12.703728 4.007648 11.203827 -0.662742 0.748742 0.012560 0.006261 0.728673 1 0 1.000000
  0 -10.313175 7.622128 -0.038802 -0.524301 0.851531 0.001940 0.042918 0.821832 1 0 1.000000
  0 -12.677990 4.007648 -0.038802 -0.803668 0.595078 0.000000 0.001255 0.819847 1 0 1.000000
bed_01_old
  0 -11.387278 4.884302 -18.062067 -0.320778 0.910711 -0.260205 0.025977 0.960546 1 0 1.000000
  0 -10.234720 6.903498 -11.802112 -0.516145 0.847069 -0.126758 0.039490 0.908112 1 0 1.000000
  0 -4.134205 6.082586 -18.503954 -0.086773 0.882856 -0.461558 0.085148 0.964874 1 0 1.000000
bed_01_old
  0 -10.234720 6.903498 -11.802112 -0.516145 0.847069 -0.126758 0.039490 0.908112 1 0 1.000000
  0 -11.387278 4.884302 -18.062067 -0.320778 0.910711 -0.260205 0.025977 0.960546 1 0 1.000000
  0 -12.703728 4.007648 -11.281432 -0.662742 0.748742 -0.012560 0.001801 0.911320 1 0 1.000000
bed_01_old
  0 -12.703728 4.007648 -11.281432 -0.662742 0.748742 -0.012560 0.001801 0.911320 1 0 1.000000
  0 -11.387278 4.884302 -18.062067 -0.320778 0.910711 -0.260205 0.025977 0.960546 1 0 1.000000
  0 -13.767947 4.007646 -20.785139 -0.205625 0.969634 -0.132392 0.008844 0.982899 1 0 1.000000
bed_01_old
  0 -11.387278 4.884302 -18.062067 -0.320778 0.910711 -0.260205 0.025977 0.960546 1 0 1.000000
  0 -4.471333 4.007648 -21.169466 -0.055910 0.865513 -0.497756 0.084956 0.996349 1 0 1.000000
  0 -13.767947 4.007646 -20.785139 -0.205625 0.969634 -0.132392 0.008844 0.982899 1 0 1.000000
bed_01_old
  0 -11.387278 4.884302 -18.062067 -0.320778 0.910711 -0.260205 0.025977 0.960546 1 0 1.000000
  0 -4.134205 6.082586 -18.503954 -0.086773 0.882856 -0.461558 0.085148 0.964874 1 0 1.000000
  0 -4.471333 4.007648 -21.169466 -0.055910 0.865513 -0.497756 0.084956 0.996349 1 0 1.000000
bed_01_old
  0 -4.134205 6.082586 -18.503954 -0.086773 0.882856 -0.461558 0.085148 0.964874 1 0 1.000000
  0 4.488411 4.007651 -21.169456 0.072643 0.880039 -0.469312 0.160326 0.997230 1 0 1.000000
  0 -4.471333 4.007648 -21.169466 -0.055910 0.865513 -0.497756 0.084956 0.996349 1 0 1.000000
bed_01_old
  0 5.206272 5.854769 -18.506599 0.132960 0.885005 -0.446193 0.161231 0.967995 1 0 1.000000
  0 4.488411 4.007651 -21.169456 0.072643 0.880039 -0.469312 0.160326 0.997230 1 0 1.000000
  0 -4.134205 6.082586 -18.503954 -0.086773 0.882856 -0.461558 0.085148 0.964874 1 0 1.000000
bed_01_old
  0 5.206272 5.854769 -18.506599 0.132960 0.885005 -0.446193 0.161231 0.967995 1 0 1.000000
  0 11.404352 4.600376 -18.062067 0.297829 0.928164 -0.223181 0.213145 0.968953 1 0 1.000000
  0 4.488411 4.007651 -21.169456 0.072643 0.880039 -0.469312 0.160326 0.997230 1 0 1.000000
bed_01_old
  0 11.404352 4.600376 -18.062067 0.297829 0.928164 -0.223181 0.213145 0.968953 1 0 1.000000
  0 5.206272 5.854769 -18.506599 0.132960 0.885005 -0.446193 0.161231 0.967995 1 0 1.000000
  0 10.596386 5.929943 -11.802112 0.522996 0.845693 -0.106198 0.207669 0.918019 1 0 1.000000
bed_01_old
  0 11.404352 4.600376 -18.062067 0.297829 0.928164 -0.223181 0.213145 0.968953 1 0 1.000000
  0 10.596386 5.929943 -11.802112 0.522996 0.845693 -0.106198 0.207669 0.918019 1 0 1.000000
  0 12.720802 4.007651 -11.281432 0.573041 0.819304 -0.019091 0.237562 0.920545 1 0 1.000000
bed_01_old
  0 10.596386 5.929943 -11.802112 0.522996 0.845693 -0.106198 0.207669 0.918019 1 0 1.000000
  0 10.717508 6.630381 -0.038802 0.558028 0.829822 0.000000 0.210758 0.829213 1 0 1.000000
  0 12.720802 4.007651 -11.281432 0.573041 0.819304 -0.019091 0.237562 0.920545 1 0 1.000000
bed_01_old
  0 12.720802 4.007651 -11.281432 0.573041 0.819304 -0.019091 0.237562 0.920545 1 0 1.000000
  0 10.717508 6.630381 -0.038802 0.558028 0.829822 0.000000 0.210758 0.829213 1 0 1.000000
  0 12.695068 4.007651 -0.038802 0.743697 0.668517 0.000000 0.242060 0.831024 1 0 1.000000
bed_01_old
  0 10.717508 6.630381 -0.038802 0.558028 0.829822 0.000000 0.210758 0.829213 1 0 1.000000
  0 12.720802 4.007651 11.203827 0.573041 0.819304 0.019091 0.243635 0.740827 1 0 1.000000
  0 12.695068 4.007651 -0.038802 0.743697 0.668517 0.000000 0.242060 0.831024 1 0 1.000000
bed_01_old
  0 10.596386 5.929944 11.724507 0.522996 0.845693 0.106198 0.212957 0.740865 1 0 1.000000
  0 12.720802 4.007651 11.203827 0.573041 0.819304 0.019091 0.243635 0.740827 1 0 1.000000
  0 10.717508 6.630381 -0.038802 0.558028 0.829822 0.000000 0.210758 0.829213 1 0 1.000000
bed_01_old
  0 10.596386 5.929944 11.724507 0.522996 0.845693 0.106198 0.212957 0.740865 1 0 1.000000
  0 11.404352 4.600374 17.984453 0.297829 0.928164 0.223181 0.221738 0.690756 1 0 1.000000
  0 12.720802 4.007651 11.203827 0.573041 0.819304 0.019091 0.243635 0.740827 1 0 1.000000
bed_01_old
  0 10.596386 5.929944 11.724507 0.522996 0.845693 0.106198 0.212957 0.740865 1 0 1.000000
  0 5.206272 5.854769 18.428991 0.130772 0.886963 0.442940 0.169867 0.686865 1 0 1.000000
  0 11.404352 4.600374 17.984453 0.297829 0.928164 0.223181 0.221738 0.690756 1 0 1.000000
bed_01_old
  0 11.404352 4.600374 17.984453 0.297829 0.928164 0.223181 0.221738 0.690756 1 0 1.000000
  0 5.206272 5.854769 18.428991 0.130772 0.886963 0.442940 0.169867 0.686865 1 0 1.000000
  0 4.488411 4.007651 21.091860 0.072643 0.880040 0.469311 0.170843 0.657652 1 0 1.000000
bed_01_old
  0 5.206272 5.854769 18.428991 0.130772 0.886963 0.442940 0.169867 0.686865 1 0 1.000000
  0 -4.134205 6.082585 18.426350 -0.085669 0.886255 0.455207 0.093836 0.683214 1 0 1.000000
  0 4.488411 4.007651 21.091860 0.072643 0.880040 0.469311 0.170843 0.657652 1 0 1.000000
bed_01_old
  0 4.488411 4.007651 -21.169456 0.072643 0.880039 -0.469312 0.160326 0.997230 1 0 1.000000
  0 11.404352 4.600376 -18.062067 0.297829 0.928164 -0.223181 0.213145 0.968953 1 0 1.000000
  0 13.785025 4.007653 -20.785149 0.143143 0.985656 -0.089400 0.229617 0.991131 1 0 1.000000
bed_01_old
  0 11.404352 4.600376 -18.062067 0.297829 0.928164 -0.223181 0.213145 0.968953 1 0 1.000000
  0 12.720802 4.007651 -11.281432 0.573041 0.819304 -0.019091 0.237562 0.920545 1 0 1.000000
  0 13.785025 4.007653 -20.785149 0.143143 0.985656 -0.089400 0.229617 0.991131 1 0 1.000000
bed_01_old
  0 12.720802 4.007651 11.203827 0.573041 0.819304 0.019091 0.243635 0.740827 1 0 1.000000
  0 11.404352 4.600374 17.984453 0.297829 0.928164 0.223181 0.221738 0.690756 1 0 1.000000
  0 13.785025 4.007653 20.707533 0.143143 0.985656 0.089400 0.239398 0.669984 1 0 1.000000
bed_01_old
  0 11.404352 4.600374 17.984453 0.297829 0.928164 0.223181 0.221738 0.690756 1 0 1.000000
  0 4.488411 4.007651 21.091860 0.072643 0.880040 0.469311 0.170843 0.657652 1 0 1.000000
  0 13.785025 4.007653 20.707533 0.143143 0.985656 0.089400 0.239398 0.669984 1 0 1.000000
end
