// Created by Crowbar 0.74
version 1
nodes
  0 "polySurface6" -1
end
skeleton
  time 0
    0 -0.002142 0.000000 0.009732 0.000000 0.000000 0.000000
end
triangles
  phy
    0 10.028056 5.798293 1.249770 -0.019859 0.955655 0.293818 0 0
    0 12.691447 21.174625 4.069958 -0.488602 -0.285835 0.824358 0 0
    0 10.028056 -5.777703 1.249770 0.013241 0.887388 0.460833 0 0
  phy
    0 10.028056 -5.777703 1.249770 0.013241 0.887388 0.460833 0 0
    0 12.691447 21.174625 4.069958 -0.488602 -0.285835 0.824358 0 0
    0 12.691441 -21.154019 4.069950 0.542808 0.329285 0.772613 0 0
  phy
    0 8.692370 -13.963167 1.249769 0.164897 0.983888 0.069096 0 0
    0 10.028056 -5.777703 1.249770 0.013241 0.887388 0.460833 0 0
    0 12.691441 -21.154019 4.069950 0.542808 0.329285 0.772613 0 0
  phy
    0 10.028056 5.798293 1.249770 -0.019859 0.955655 0.293818 0 0
    0 10.028056 -5.777703 1.249770 0.013241 0.887388 0.460833 0 0
    0 -0.407007 0.010295 -0.396999 0.000000 1.000000 0.000000 0 0
  phy
    0 10.028056 -5.777703 1.249770 0.013241 0.887388 0.460833 0 0
    0 8.692370 -13.963167 1.249769 0.164897 0.983888 0.069096 0 0
    0 -0.407007 0.010295 -0.396999 0.000000 1.000000 0.000000 0 0
  phy
    0 -10.842068 5.798292 1.249770 -0.014072 0.871759 -0.489733 0 0
    0 -10.842068 -5.777703 1.249770 0.020485 0.952746 -0.303077 0 0
    0 -13.018692 -21.154024 4.069952 0.488602 -0.285835 -0.824358 0 0
  phy
    0 -13.018690 21.174611 4.069952 -0.542808 0.329285 -0.772613 0 0
    0 -10.842068 5.798292 1.249770 -0.014072 0.871759 -0.489733 0 0
    0 -13.018692 -21.154024 4.069952 0.488602 -0.285835 -0.824358 0 0
  phy
    0 -9.506381 13.983758 1.249771 -0.166127 0.983644 -0.069612 0 0
    0 -10.842068 5.798292 1.249770 -0.014072 0.871759 -0.489733 0 0
    0 -13.018690 21.174611 4.069952 -0.542808 0.329285 -0.772613 0 0
  phy
    0 -10.842068 5.798292 1.249770 -0.014072 0.871759 -0.489733 0 0
    0 -9.506381 13.983758 1.249771 -0.166127 0.983644 -0.069612 0 0
    0 -0.407007 0.010295 -0.396999 0.000000 1.000000 0.000000 0 0
  phy
    0 -10.842068 -5.777703 1.249770 0.020485 0.952746 -0.303077 0 0
    0 -10.842068 5.798292 1.249770 -0.014072 0.871759 -0.489733 0 0
    0 -0.407007 0.010295 -0.396999 0.000000 1.000000 0.000000 0 0
  phy
    0 10.028056 5.798293 1.249770 -0.019859 0.955655 0.293818 0 0
    0 8.692368 13.983759 1.249771 -0.220576 0.974062 0.050481 0 0
    0 12.691447 21.174625 4.069958 -0.488602 -0.285835 0.824358 0 0
  phy
    0 8.692368 13.983759 1.249771 -0.220576 0.974062 0.050481 0 0
    0 10.028056 5.798293 1.249770 -0.019859 0.955655 0.293818 0 0
    0 -0.407007 0.010295 -0.396999 0.000000 1.000000 0.000000 0 0
  phy
    0 -9.506379 -13.963168 1.249769 0.221764 0.973779 -0.050753 0 0
    0 8.692370 -13.963167 1.249769 0.164897 0.983888 0.069096 0 0
    0 12.691441 -21.154019 4.069950 0.542808 0.329285 0.772613 0 0
  phy
    0 -9.506379 -13.963168 1.249769 0.221764 0.973779 -0.050753 0 0
    0 12.691441 -21.154019 4.069950 0.542808 0.329285 0.772613 0 0
    0 -13.018692 -21.154024 4.069952 0.488602 -0.285835 -0.824358 0 0
  phy
    0 -10.842068 -5.777703 1.249770 0.020485 0.952746 -0.303077 0 0
    0 -9.506379 -13.963168 1.249769 0.221764 0.973779 -0.050753 0 0
    0 -13.018692 -21.154024 4.069952 0.488602 -0.285835 -0.824358 0 0
  phy
    0 -9.506379 -13.963168 1.249769 0.221764 0.973779 -0.050753 0 0
    0 -10.842068 -5.777703 1.249770 0.020485 0.952746 -0.303077 0 0
    0 -0.407007 0.010295 -0.396999 0.000000 1.000000 0.000000 0 0
  phy
    0 8.692370 -13.963167 1.249769 0.164897 0.983888 0.069096 0 0
    0 -9.506379 -13.963168 1.249769 0.221764 0.973779 -0.050753 0 0
    0 -0.407007 0.010295 -0.396999 0.000000 1.000000 0.000000 0 0
  phy
    0 8.692368 13.983759 1.249771 -0.220576 0.974062 0.050481 0 0
    0 -9.506381 13.983758 1.249771 -0.166127 0.983644 -0.069612 0 0
    0 -13.018690 21.174611 4.069952 -0.542808 0.329285 -0.772613 0 0
  phy
    0 8.692368 13.983759 1.249771 -0.220576 0.974062 0.050481 0 0
    0 -13.018690 21.174611 4.069952 -0.542808 0.329285 -0.772613 0 0
    0 12.691447 21.174625 4.069958 -0.488602 -0.285835 0.824358 0 0
  phy
    0 -9.506381 13.983758 1.249771 -0.166127 0.983644 -0.069612 0 0
    0 8.692368 13.983759 1.249771 -0.220576 0.974062 0.050481 0 0
    0 -0.407007 0.010295 -0.396999 0.000000 1.000000 0.000000 0 0
  phy
    0 -10.842068 -5.777703 7.328322 0.022284 -0.943826 -0.329692 0 0
    0 -13.018692 -21.154024 4.069952 0.488602 -0.285835 -0.824358 0 0
    0 -9.506379 -13.963169 7.328322 0.181818 -0.980376 -0.076187 0 0
  phy
    0 -10.842068 -5.777703 7.328322 0.022284 -0.943826 -0.329692 0 0
    0 -10.842068 5.798292 7.328323 -0.014959 -0.843942 -0.536226 0 0
    0 -13.018692 -21.154024 4.069952 0.488602 -0.285835 -0.824358 0 0
  phy
    0 -9.506379 -13.963169 7.328322 0.181818 -0.980376 -0.076187 0 0
    0 -0.407007 0.010295 8.975095 0.000000 -1.000000 0.000000 0 0
    0 -10.842068 -5.777703 7.328322 0.022284 -0.943826 -0.329692 0 0
  phy
    0 -10.842068 -5.777703 7.328322 0.022284 -0.943826 -0.329692 0 0
    0 -0.407007 0.010295 8.975095 0.000000 -1.000000 0.000000 0 0
    0 -10.842068 5.798292 7.328323 -0.014959 -0.843942 -0.536226 0 0
  phy
    0 -9.506381 13.983757 7.328323 -0.247618 -0.967275 -0.055359 0 0
    0 -0.407007 0.010295 8.975095 0.000000 -1.000000 0.000000 0 0
    0 8.692368 13.983758 7.328323 -0.180479 -0.980667 0.075626 0 0
  phy
    0 -10.842068 5.798292 7.328323 -0.014959 -0.843942 -0.536226 0 0
    0 -0.407007 0.010295 8.975095 0.000000 -1.000000 0.000000 0 0
    0 -9.506381 13.983757 7.328323 -0.247618 -0.967275 -0.055359 0 0
  phy
    0 8.692368 13.983758 7.328323 -0.180479 -0.980667 0.075626 0 0
    0 12.691447 21.174625 4.069958 -0.488602 -0.285835 0.824358 0 0
    0 -9.506381 13.983757 7.328323 -0.247618 -0.967275 -0.055359 0 0
  phy
    0 -9.506381 13.983757 7.328323 -0.247618 -0.967275 -0.055359 0 0
    0 12.691447 21.174625 4.069958 -0.488602 -0.285835 0.824358 0 0
    0 -13.018690 21.174611 4.069952 -0.542808 0.329285 -0.772613 0 0
  phy
    0 -9.506381 13.983757 7.328323 -0.247618 -0.967275 -0.055359 0 0
    0 -13.018690 21.174611 4.069952 -0.542808 0.329285 -0.772613 0 0
    0 -10.842068 5.798292 7.328323 -0.014959 -0.843942 -0.536226 0 0
  phy
    0 10.028056 5.798293 7.328323 -0.021615 -0.947239 0.319798 0 0
    0 12.691447 21.174625 4.069958 -0.488602 -0.285835 0.824358 0 0
    0 8.692368 13.983758 7.328323 -0.180479 -0.980667 0.075626 0 0
  phy
    0 10.028056 -5.777703 7.328322 0.014127 -0.862179 0.506407 0 0
    0 12.691447 21.174625 4.069958 -0.488602 -0.285835 0.824358 0 0
    0 10.028056 5.798293 7.328323 -0.021615 -0.947239 0.319798 0 0
  phy
    0 8.692368 13.983758 7.328323 -0.180479 -0.980667 0.075626 0 0
    0 -0.407007 0.010295 8.975095 0.000000 -1.000000 0.000000 0 0
    0 10.028056 5.798293 7.328323 -0.021615 -0.947239 0.319798 0 0
  phy
    0 10.028056 5.798293 7.328323 -0.021615 -0.947239 0.319798 0 0
    0 -0.407007 0.010295 8.975095 0.000000 -1.000000 0.000000 0 0
    0 10.028056 -5.777703 7.328322 0.014127 -0.862179 0.506407 0 0
  phy
    0 8.692370 -13.963168 7.328322 0.246310 -0.967626 0.055067 0 0
    0 -0.407007 0.010295 8.975095 0.000000 -1.000000 0.000000 0 0
    0 -9.506379 -13.963169 7.328322 0.181818 -0.980376 -0.076187 0 0
  phy
    0 -9.506379 -13.963169 7.328322 0.181818 -0.980376 -0.076187 0 0
    0 -13.018692 -21.154024 4.069952 0.488602 -0.285835 -0.824358 0 0
    0 8.692370 -13.963168 7.328322 0.246310 -0.967626 0.055067 0 0
  phy
    0 8.692370 -13.963168 7.328322 0.246310 -0.967626 0.055067 0 0
    0 -13.018692 -21.154024 4.069952 0.488602 -0.285835 -0.824358 0 0
    0 12.691441 -21.154019 4.069950 0.542808 0.329285 0.772613 0 0
  phy
    0 8.692370 -13.963168 7.328322 0.246310 -0.967626 0.055067 0 0
    0 12.691441 -21.154019 4.069950 0.542808 0.329285 0.772613 0 0
    0 10.028056 -5.777703 7.328322 0.014127 -0.862179 0.506407 0 0
  phy
    0 10.028056 -5.777703 7.328322 0.014127 -0.862179 0.506407 0 0
    0 -0.407007 0.010295 8.975095 0.000000 -1.000000 0.000000 0 0
    0 8.692370 -13.963168 7.328322 0.246310 -0.967626 0.055067 0 0
  phy
    0 -10.842068 5.798292 7.328323 -0.014959 -0.843942 -0.536226 0 0
    0 -13.018690 21.174611 4.069952 -0.542808 0.329285 -0.772613 0 0
    0 -13.018692 -21.154024 4.069952 0.488602 -0.285835 -0.824358 0 0
  phy
    0 12.691441 -21.154019 4.069950 0.542808 0.329285 0.772613 0 0
    0 12.691447 21.174625 4.069958 -0.488602 -0.285835 0.824358 0 0
    0 10.028056 -5.777703 7.328322 0.014127 -0.862179 0.506407 0 0
end
