// Created by Crowbar 0.74
version 1
nodes
  0 "polySurface21_3637" -1
end
skeleton
  time 0
    0 0.000000 0.000000 0.000000 0.000000 0.000000 0.000000
end
triangles
barracuda
  0 20.440105 37.584595 -42.102570 -0.999589 -0.025236 0.013590 0.324860 0.567255 1 0 1.000000
  0 20.460522 36.239166 -43.099030 -0.999589 -0.025236 0.013590 0.324714 0.558277 1 0 1.000000
  0 20.480030 35.787689 -42.502441 -0.999589 -0.025236 0.013590 0.328727 0.558169 1 0 1.000000
barracuda
  0 -34.608463 12.444979 -39.662983 -0.025713 -0.422331 -0.906077 0.826350 0.541868 1 0 1.000000
  0 28.862957 15.477718 -42.877773 -0.022646 -0.300516 -0.953508 0.815599 0.316846 1 0 1.000000
  0 28.250435 12.444979 -41.579121 -0.025713 -0.422331 -0.906077 0.826350 0.318992 1 0 1.000000
barracuda
  0 -36.288311 16.100389 -41.451450 -0.022646 -0.300516 -0.953508 0.813392 0.547797 1 0 1.000000
  0 28.862957 15.477718 -42.877773 -0.022646 -0.300516 -0.953508 0.815599 0.316846 1 0 1.000000
  0 -34.608463 12.444979 -39.662983 -0.025713 -0.422331 -0.906077 0.826350 0.541868 1 0 1.000000
barracuda
  0 -37.672356 23.213692 -42.944572 -0.015544 -0.065398 -0.997738 0.788174 0.552703 1 0 1.000000
  0 28.862957 15.477718 -42.877773 -0.022646 -0.300516 -0.953508 0.815599 0.316846 1 0 1.000000
  0 -36.288311 16.100389 -41.451450 -0.022646 -0.300516 -0.953508 0.813392 0.547797 1 0 1.000000
barracuda
  0 30.408287 22.779594 -43.928761 -0.015544 -0.065398 -0.997738 0.789728 0.311369 1 0 1.000000
  0 28.862957 15.477718 -42.877773 -0.022646 -0.300516 -0.953508 0.815599 0.316846 1 0 1.000000
  0 -37.672356 23.213692 -42.944572 -0.015544 -0.065398 -0.997738 0.788174 0.552703 1 0 1.000000
barracuda
  0 -37.672356 23.213692 -42.944572 -0.015544 -0.065398 -0.997738 0.788174 0.552703 1 0 1.000000
  0 30.663891 32.654839 -43.334274 -0.011713 0.043543 -0.998983 0.754697 0.310462 1 0 1.000000
  0 30.408287 22.779594 -43.928761 -0.015544 -0.065398 -0.997738 0.789728 0.311369 1 0 1.000000
barracuda
  0 -37.998013 31.809340 -42.733135 -0.011713 0.043543 -0.998983 0.757710 0.553858 1 0 1.000000
  0 30.663891 32.654839 -43.334274 -0.011713 0.043543 -0.998983 0.754697 0.310462 1 0 1.000000
  0 -37.672356 23.213692 -42.944572 -0.015544 -0.065398 -0.997738 0.788174 0.552703 1 0 1.000000
barracuda
  0 -21.072859 31.232372 -31.499264 -0.062937 0.035923 0.997371 0.661140 0.490502 1 0 1.000000
  0 -12.809604 23.598392 -31.947935 -0.021212 -0.423859 0.905480 0.634196 0.461842 1 0 1.000000
  0 -12.205873 28.375675 -31.668400 0.005249 -0.046320 0.998913 0.650359 0.459289 1 0 1.000000
barracuda
  0 -24.725554 26.456329 -31.842365 -0.170347 -0.117265 0.978382 0.644484 0.503801 1 0 1.000000
  0 -12.809604 23.598392 -31.947935 -0.021212 -0.423859 0.905480 0.634196 0.461842 1 0 1.000000
  0 -21.072859 31.232372 -31.499264 -0.062937 0.035923 0.997371 0.661140 0.490502 1 0 1.000000
barracuda
  0 -12.205873 28.375675 -31.668400 0.005249 -0.046320 0.998913 0.650359 0.459289 1 0 1.000000
  0 15.023542 23.598377 -32.208981 0.013554 -0.456216 0.889766 0.632951 0.363878 1 0 1.000000
  0 15.961590 28.379761 -32.229584 0.014677 -0.029441 0.999459 0.649040 0.360010 1 0 1.000000
barracuda
  0 -12.809604 23.598392 -31.947935 -0.021212 -0.423859 0.905480 0.634196 0.461842 1 0 1.000000
  0 15.023542 23.598377 -32.208981 0.013554 -0.456216 0.889766 0.632951 0.363878 1 0 1.000000
  0 -12.205873 28.375675 -31.668400 0.005249 -0.046320 0.998913 0.650359 0.459289 1 0 1.000000
barracuda
  0 -14.063931 20.218433 -36.160900 -0.044557 -0.738387 0.672904 0.620792 0.466432 1 0 1.000000
  0 15.023542 23.598377 -32.208981 0.013554 -0.456216 0.889766 0.632951 0.363878 1 0 1.000000
  0 -12.809604 23.598392 -31.947935 -0.021212 -0.423859 0.905480 0.634196 0.461842 1 0 1.000000
barracuda
  0 -24.725554 26.456329 -31.842365 -0.170347 -0.117265 0.978382 0.644484 0.503801 1 0 1.000000
  0 -14.063931 20.218433 -36.160900 -0.044557 -0.738387 0.672904 0.620792 0.466432 1 0 1.000000
  0 -12.809604 23.598392 -31.947935 -0.021212 -0.423859 0.905480 0.634196 0.461842 1 0 1.000000
barracuda
  0 -37.672356 23.213694 -35.648884 -0.209547 -0.348780 0.913478 0.633952 0.549924 1 0 1.000000
  0 -14.063931 20.218433 -36.160900 -0.044557 -0.738387 0.672904 0.620792 0.466432 1 0 1.000000
  0 -24.725554 26.456329 -31.842365 -0.170347 -0.117265 0.978382 0.644484 0.503801 1 0 1.000000
barracuda
  0 -24.725554 26.456329 -31.842365 -0.170347 -0.117265 0.978382 0.644484 0.503801 1 0 1.000000
  0 -37.998013 31.809340 -36.016964 -0.343657 0.070999 0.936407 0.664439 0.550442 1 0 1.000000
  0 -37.672356 23.213694 -35.648884 -0.209547 -0.348780 0.913478 0.633952 0.549924 1 0 1.000000
barracuda
  0 -24.725554 26.456329 -31.842365 -0.170347 -0.117265 0.978382 0.644484 0.503801 1 0 1.000000
  0 -30.696690 40.502182 -33.950039 -0.289173 0.106698 0.951312 0.694706 0.523921 1 0 1.000000
  0 -37.998013 31.809340 -36.016964 -0.343657 0.070999 0.936407 0.664439 0.550442 1 0 1.000000
barracuda
  0 -21.072859 31.232372 -31.499264 -0.062937 0.035923 0.997371 0.661140 0.490502 1 0 1.000000
  0 -30.696690 40.502182 -33.950039 -0.289173 0.106698 0.951312 0.694706 0.523921 1 0 1.000000
  0 -24.725554 26.456329 -31.842365 -0.170347 -0.117265 0.978382 0.644484 0.503801 1 0 1.000000
barracuda
  0 -25.838734 41.017891 -33.971275 -0.120857 0.134551 0.983509 0.696174 0.506667 1 0 1.000000
  0 -30.696690 40.502182 -33.950039 -0.289173 0.106698 0.951312 0.694706 0.523921 1 0 1.000000
  0 -21.072859 31.232372 -31.499264 -0.062937 0.035923 0.997371 0.661140 0.490502 1 0 1.000000
barracuda
  0 -37.998013 31.809340 -36.016964 -0.343657 0.070999 0.936407 0.664439 0.550442 1 0 1.000000
  0 -30.696690 40.502182 -33.950039 -0.289173 0.106698 0.951312 0.694706 0.523921 1 0 1.000000
  0 -35.354942 39.767403 -36.158379 -0.443516 0.162964 0.881326 0.692447 0.540484 1 0 1.000000
barracuda
  0 18.198338 20.043003 -37.098972 0.009799 -0.794407 0.607307 0.617259 0.351362 1 0 1.000000
  0 15.023542 23.598377 -32.208981 0.013554 -0.456216 0.889766 0.632951 0.363878 1 0 1.000000
  0 -14.063931 20.218433 -36.160900 -0.044557 -0.738387 0.672904 0.620792 0.466432 1 0 1.000000
barracuda
  0 -27.653004 40.810047 -37.315941 -0.105583 0.994400 -0.004523 0.717931 0.517619 1 0 1.000000
  0 -30.696690 40.502182 -33.950039 -0.105583 0.994400 -0.004523 0.706431 0.528867 1 0 1.000000
  0 -25.838734 41.017891 -33.971275 -0.105583 0.994400 -0.004523 0.705832 0.511657 1 0 1.000000
barracuda
  0 -35.354942 39.767403 -40.801979 -0.949027 0.315195 0.000000 0.729597 0.561077 1 0 1.000000
  0 -37.998013 31.809340 -36.016964 -0.990020 0.140927 0.000000 0.758029 0.577663 1 0 1.000000
  0 -35.354942 39.767403 -36.158379 -0.949027 0.315195 0.000000 0.729816 0.577536 1 0 1.000000
barracuda
  0 -37.998013 31.809340 -42.733135 -0.990020 0.140927 0.000000 0.757710 0.553858 1 0 1.000000
  0 -37.998013 31.809340 -36.016964 -0.990020 0.140927 0.000000 0.758029 0.577663 1 0 1.000000
  0 -35.354942 39.767403 -40.801979 -0.949027 0.315195 0.000000 0.729597 0.561077 1 0 1.000000
barracuda
  0 -37.998013 31.809340 -42.733135 -0.990020 0.140927 0.000000 0.757710 0.553858 1 0 1.000000
  0 -37.672356 23.213692 -42.944572 -0.993392 -0.114766 0.000000 0.788174 0.552703 1 0 1.000000
  0 -37.998013 31.809340 -36.016964 -0.990020 0.140927 0.000000 0.758029 0.577663 1 0 1.000000
barracuda
  0 -37.998013 31.809340 -36.016964 -0.990020 0.140927 0.000000 0.758029 0.577663 1 0 1.000000
  0 -37.672356 23.213692 -42.944572 -0.993392 -0.114766 0.000000 0.788174 0.552703 1 0 1.000000
  0 -37.672356 23.213694 -35.648884 -0.993392 -0.114766 0.000000 0.788514 0.578563 1 0 1.000000
barracuda
  0 -37.672356 23.213692 -42.944572 -0.993392 -0.114766 0.000000 0.788174 0.552703 1 0 1.000000
  0 -36.288311 16.100389 -41.451450 -0.951884 -0.306457 0.000000 0.813454 0.557661 1 0 1.000000
  0 -37.672356 23.213694 -35.648884 -0.993392 -0.114766 0.000000 0.788514 0.578563 1 0 1.000000
barracuda
  0 -37.672356 23.213694 -35.648884 -0.993392 -0.114766 0.000000 0.788514 0.578563 1 0 1.000000
  0 -36.288311 16.100389 -41.451450 -0.951884 -0.306457 0.000000 0.813454 0.557661 1 0 1.000000
  0 -36.288311 16.100388 -35.521950 -0.951884 -0.306457 0.000000 0.813733 0.578678 1 0 1.000000
barracuda
  0 -36.288311 16.100389 -41.451450 -0.951884 -0.306457 0.000000 0.813454 0.557661 1 0 1.000000
  0 -34.608463 12.444979 -39.662983 -0.908645 -0.417569 0.000000 0.826495 0.563828 1 0 1.000000
  0 -36.288311 16.100388 -35.521950 -0.951884 -0.306457 0.000000 0.813733 0.578678 1 0 1.000000
barracuda
  0 -36.288311 16.100388 -35.521950 -0.951884 -0.306457 0.000000 0.813733 0.578678 1 0 1.000000
  0 -34.608463 12.444979 -39.662983 -0.908645 -0.417569 0.000000 0.826495 0.563828 1 0 1.000000
  0 -34.608463 12.444977 -35.846004 -0.908645 -0.417569 0.000000 0.826674 0.577357 1 0 1.000000
barracuda
  0 15.961590 28.379761 -32.229584 0.759849 -0.163624 0.629172 0.649040 0.360010 1 0 1.000000
  0 15.023542 23.598377 -32.208981 0.759849 -0.163624 0.629172 0.632951 0.363878 1 0 1.000000
  0 20.167641 29.388071 -36.915817 0.759849 -0.163624 0.629172 0.650480 0.344025 1 0 1.000000
barracuda
  0 20.167641 29.388071 -36.915817 0.759849 -0.163624 0.629172 0.650480 0.344025 1 0 1.000000
  0 15.023542 23.598377 -32.208981 0.759849 -0.163624 0.629172 0.632951 0.363878 1 0 1.000000
  0 18.198338 20.043003 -37.098972 0.759849 -0.163624 0.629172 0.617259 0.351362 1 0 1.000000
barracuda
  0 18.198338 20.043003 -37.098972 0.034696 -0.027768 0.999012 0.617259 0.351362 1 0 1.000000
  0 -14.063931 20.218433 -36.160900 0.031346 -0.024607 0.999206 0.620792 0.466432 1 0 1.000000
  0 -36.288311 16.100388 -35.521950 0.031591 -0.037193 0.998809 0.608639 0.545546 1 0 1.000000
barracuda
  0 -14.063931 20.218433 -36.160900 0.031346 -0.024607 0.999206 0.620792 0.466432 1 0 1.000000
  0 -37.672356 23.213694 -35.648884 0.031346 -0.024607 0.999206 0.633952 0.549924 1 0 1.000000
  0 -36.288311 16.100388 -35.521950 0.031591 -0.037193 0.998809 0.608639 0.545546 1 0 1.000000
barracuda
  0 28.862959 15.477719 -37.718685 0.031591 -0.037193 0.998809 0.601604 0.314697 1 0 1.000000
  0 -34.608463 12.444977 -35.846004 0.021968 -0.724491 0.688934 0.595560 0.539864 1 0 1.000000
  0 28.250435 12.444979 -37.762138 0.021968 -0.724491 0.688934 0.590901 0.317092 1 0 1.000000
barracuda
  0 -36.288311 16.100388 -35.521950 0.031591 -0.037193 0.998809 0.608639 0.545546 1 0 1.000000
  0 -34.608463 12.444977 -35.846004 0.021968 -0.724491 0.688934 0.595560 0.539864 1 0 1.000000
  0 28.862959 15.477719 -37.718685 0.031591 -0.037193 0.998809 0.601604 0.314697 1 0 1.000000
barracuda
  0 28.862959 15.477719 -37.718685 0.031591 -0.037193 0.998809 0.601604 0.314697 1 0 1.000000
  0 18.198338 20.043003 -37.098972 0.034696 -0.027768 0.999012 0.617259 0.351362 1 0 1.000000
  0 -36.288311 16.100388 -35.521950 0.031591 -0.037193 0.998809 0.608639 0.545546 1 0 1.000000
barracuda
  0 30.408287 22.779596 -37.510517 0.034696 -0.027768 0.999012 0.627367 0.308679 1 0 1.000000
  0 18.198338 20.043003 -37.098972 0.034696 -0.027768 0.999012 0.617259 0.351362 1 0 1.000000
  0 28.862959 15.477719 -37.718685 0.031591 -0.037193 0.998809 0.601604 0.314697 1 0 1.000000
barracuda
  0 18.198338 20.043003 -37.098972 0.034696 -0.027768 0.999012 0.617259 0.351362 1 0 1.000000
  0 30.408287 22.779596 -37.510517 0.034696 -0.027768 0.999012 0.627367 0.308679 1 0 1.000000
  0 20.167641 29.388071 -36.915817 0.038474 -0.106731 0.993543 0.650480 0.344025 1 0 1.000000
barracuda
  0 20.167641 29.388071 -36.915817 0.038474 -0.106731 0.993543 0.650480 0.344025 1 0 1.000000
  0 30.408287 22.779596 -37.510517 0.034696 -0.027768 0.999012 0.627367 0.308679 1 0 1.000000
  0 30.663891 32.654835 -37.183262 0.057999 -0.091046 0.994156 0.662346 0.307041 1 0 1.000000
barracuda
  0 30.663891 32.654835 -37.183262 0.057999 -0.091046 0.994156 0.662346 0.307041 1 0 1.000000
  0 17.303989 39.436005 -35.092041 -0.006952 0.155508 0.987810 0.687370 0.353886 1 0 1.000000
  0 20.167641 29.388071 -36.915817 0.038474 -0.106731 0.993543 0.650480 0.344025 1 0 1.000000
barracuda
  0 28.332466 42.625977 -35.534134 -0.011986 0.165954 0.986061 0.697857 0.314565 1 0 1.000000
  0 17.303989 39.436005 -35.092041 -0.006952 0.155508 0.987810 0.687370 0.353886 1 0 1.000000
  0 30.663891 32.654835 -37.183262 0.057999 -0.091046 0.994156 0.662346 0.307041 1 0 1.000000
barracuda
  0 28.332466 42.625977 -35.534134 -0.011986 0.165954 0.986061 0.697857 0.314565 1 0 1.000000
  0 26.135761 43.635292 -36.302437 -0.100392 0.464718 0.879749 0.701597 0.322275 1 0 1.000000
  0 17.303989 39.436005 -35.092041 -0.006952 0.155508 0.987810 0.687370 0.353886 1 0 1.000000
barracuda
  0 -12.795854 29.387970 -36.446922 -0.000569 -0.137837 0.990455 0.653990 0.461305 1 0 1.000000
  0 20.167641 29.388071 -36.915817 0.038474 -0.106731 0.993543 0.650480 0.344025 1 0 1.000000
  0 17.303989 39.436005 -35.092041 -0.006952 0.155508 0.987810 0.687370 0.353886 1 0 1.000000
barracuda
  0 -20.830885 32.245876 -36.322624 -0.000569 -0.137837 0.990455 0.664714 0.489569 1 0 1.000000
  0 -12.795854 29.387970 -36.446922 -0.000569 -0.137837 0.990455 0.653990 0.461305 1 0 1.000000
  0 17.303989 39.436005 -35.092041 -0.006952 0.155508 0.987810 0.687370 0.353886 1 0 1.000000
barracuda
  0 -23.449245 39.446564 -35.443901 -0.001991 0.145195 0.989401 0.690428 0.498315 1 0 1.000000
  0 -20.830885 32.245876 -36.322624 -0.000569 -0.137837 0.990455 0.664714 0.489569 1 0 1.000000
  0 17.303989 39.436005 -35.092041 -0.006952 0.155508 0.987810 0.687370 0.353886 1 0 1.000000
barracuda
  0 17.303989 39.436005 -35.092041 -0.006952 0.155508 0.987810 0.687370 0.353886 1 0 1.000000
  0 17.066662 41.713520 -36.337730 -0.051905 0.441353 0.895831 0.695459 0.354559 1 0 1.000000
  0 -23.449245 39.446564 -35.443901 -0.001991 0.145195 0.989401 0.690428 0.498315 1 0 1.000000
barracuda
  0 17.303989 39.436005 -35.092041 -0.006952 0.155508 0.987810 0.687370 0.353886 1 0 1.000000
  0 26.135761 43.635292 -36.302437 -0.100392 0.464718 0.879749 0.701597 0.322275 1 0 1.000000
  0 17.066662 41.713520 -36.337730 -0.051905 0.441353 0.895831 0.695459 0.354559 1 0 1.000000
barracuda
  0 -23.449245 39.446564 -35.443901 -0.001991 0.145195 0.989401 0.690428 0.498315 1 0 1.000000
  0 17.066662 41.713520 -36.337730 -0.051905 0.441353 0.895831 0.695459 0.354559 1 0 1.000000
  0 -24.862202 41.359734 -36.124535 -0.003254 0.416596 0.909086 0.697313 0.503181 1 0 1.000000
barracuda
  0 -25.813198 45.730728 -41.587116 -0.312933 0.919885 -0.236399 0.413316 0.544268 1 0 1.000000
  0 -24.399078 46.002396 -38.885841 -0.197588 0.903377 0.380617 0.419546 0.533213 1 0 1.000000
  0 -24.399080 45.986473 -41.723907 -0.187144 0.952884 -0.238723 0.419195 0.547595 1 0 1.000000
barracuda
  0 -27.653004 44.952019 -39.294434 -0.543374 0.754551 0.367965 0.406253 0.536280 1 0 1.000000
  0 -25.813198 45.746655 -38.949821 -0.316982 0.866206 0.386276 0.413316 0.534334 1 0 1.000000
  0 -27.653004 44.990807 -41.170464 -0.567463 0.788977 -0.235584 0.406272 0.541826 1 0 1.000000
barracuda
  0 -27.653004 44.990807 -41.170464 -0.567463 0.788977 -0.235584 0.406272 0.541826 1 0 1.000000
  0 -25.813198 45.746655 -38.949821 -0.316982 0.866206 0.386276 0.413316 0.534334 1 0 1.000000
  0 -25.813198 45.730728 -41.587116 -0.312933 0.919885 -0.236399 0.413316 0.544268 1 0 1.000000
barracuda
  0 -25.813198 45.746655 -38.949821 -0.316982 0.866206 0.386276 0.413316 0.534334 1 0 1.000000
  0 -24.399078 46.002396 -38.885841 -0.197588 0.903377 0.380617 0.419546 0.533213 1 0 1.000000
  0 -25.813198 45.730728 -41.587116 -0.312933 0.919885 -0.236399 0.413316 0.544268 1 0 1.000000
barracuda
  0 -25.813198 45.746655 -38.949821 -0.316982 0.866206 0.386276 0.413316 0.534334 1 0 1.000000
  0 -24.399080 44.652763 -37.523666 -0.149067 0.340979 0.928177 0.414853 0.524579 1 0 1.000000
  0 -24.399078 46.002396 -38.885841 -0.197588 0.903377 0.380617 0.419546 0.533213 1 0 1.000000
barracuda
  0 -25.612940 44.375568 -37.637882 -0.237631 0.316066 0.918495 0.410070 0.527462 1 0 1.000000
  0 -24.399080 44.652763 -37.523666 -0.149067 0.340979 0.928177 0.414853 0.524579 1 0 1.000000
  0 -25.813198 45.746655 -38.949821 -0.316982 0.866206 0.386276 0.413316 0.534334 1 0 1.000000
barracuda
  0 -25.612940 44.375568 -37.637882 -0.237631 0.316066 0.918495 0.410070 0.527462 1 0 1.000000
  0 -24.399080 41.975494 -37.667641 -0.083527 -0.499213 0.862444 0.404971 0.516927 1 0 1.000000
  0 -24.399080 44.652763 -37.523666 -0.149067 0.340979 0.928177 0.414853 0.524579 1 0 1.000000
barracuda
  0 -25.612940 41.975494 -37.781853 0.237608 -0.335943 0.911419 0.401468 0.521404 1 0 1.000000
  0 -24.399080 41.975494 -37.667641 -0.083527 -0.499213 0.862444 0.404971 0.516927 1 0 1.000000
  0 -25.612940 44.375568 -37.637882 -0.237631 0.316066 0.918495 0.410070 0.527462 1 0 1.000000
barracuda
  0 -25.612940 41.975494 -37.781853 0.237608 -0.335943 0.911419 0.401468 0.521404 1 0 1.000000
  0 -24.399080 41.168667 -38.878120 -0.032416 -0.953997 0.298057 0.399321 0.513176 1 0 1.000000
  0 -24.399080 41.975494 -37.667641 -0.083527 -0.499213 0.862444 0.404971 0.516927 1 0 1.000000
barracuda
  0 -25.612940 41.168667 -39.039856 0.272050 -0.941788 0.197545 0.395660 0.517557 1 0 1.000000
  0 -24.399080 41.168667 -38.878120 -0.032416 -0.953997 0.298057 0.399321 0.513176 1 0 1.000000
  0 -25.612940 41.975494 -37.781853 0.237608 -0.335943 0.911419 0.401468 0.521404 1 0 1.000000
barracuda
  0 -27.653004 41.953495 -38.133099 -0.436581 -0.156723 0.885909 0.396171 0.529380 1 0 1.000000
  0 -25.612940 41.975494 -37.781853 0.237608 -0.335943 0.911419 0.401468 0.521404 1 0 1.000000
  0 -27.653004 43.440220 -38.128639 -0.492453 0.209002 0.844872 0.402002 0.531848 1 0 1.000000
barracuda
  0 -27.653004 43.440220 -38.128639 -0.492453 0.209002 0.844872 0.402002 0.531848 1 0 1.000000
  0 -25.612940 41.975494 -37.781853 0.237608 -0.335943 0.911419 0.401468 0.521404 1 0 1.000000
  0 -25.612940 44.375568 -37.637882 -0.237631 0.316066 0.918495 0.410070 0.527462 1 0 1.000000
barracuda
  0 -27.653004 43.440220 -38.128639 -0.492453 0.209002 0.844872 0.402002 0.531848 1 0 1.000000
  0 -25.612940 44.375568 -37.637882 -0.237631 0.316066 0.918495 0.410070 0.527462 1 0 1.000000
  0 -27.653004 44.952019 -39.294434 -0.543374 0.754551 0.367965 0.406253 0.536280 1 0 1.000000
barracuda
  0 -27.653004 44.952019 -39.294434 -0.543374 0.754551 0.367965 0.406253 0.536280 1 0 1.000000
  0 -25.612940 44.375568 -37.637882 -0.237631 0.316066 0.918495 0.410070 0.527462 1 0 1.000000
  0 -25.813198 45.746655 -38.949821 -0.316982 0.866206 0.386276 0.413316 0.534334 1 0 1.000000
barracuda
  0 -29.059462 43.359932 -40.419029 -0.978212 0.093260 -0.185481 0.400273 0.539446 1 0 1.000000
  0 -28.674154 44.240807 -39.528496 -0.828028 0.510529 0.231797 0.402727 0.537241 1 0 1.000000
  0 -28.665766 44.019096 -40.805260 -0.827263 0.438948 -0.350657 0.402188 0.540518 1 0 1.000000
barracuda
  0 -28.927036 42.292786 -39.474663 -0.872053 -0.448184 0.196608 0.397302 0.536905 1 0 1.000000
  0 -28.674154 44.240807 -39.528496 -0.828028 0.510529 0.231797 0.402727 0.537241 1 0 1.000000
  0 -29.059462 43.359932 -40.419029 -0.978212 0.093260 -0.185481 0.400273 0.539446 1 0 1.000000
barracuda
  0 -28.927036 42.292786 -39.474663 -0.872053 -0.448184 0.196608 0.397302 0.536905 1 0 1.000000
  0 -29.059462 43.359932 -40.419029 -0.978212 0.093260 -0.185481 0.400273 0.539446 1 0 1.000000
  0 -28.386023 41.791939 -40.234207 -0.708138 -0.687242 -0.161983 0.395594 0.539298 1 0 1.000000
barracuda
  0 -28.386023 41.791939 -40.234207 -0.708138 -0.687242 -0.161983 0.395594 0.539298 1 0 1.000000
  0 -28.263115 41.827454 -39.147980 -0.662197 -0.651224 0.370679 0.394567 0.535338 1 0 1.000000
  0 -28.927036 42.292786 -39.474663 -0.872053 -0.448184 0.196608 0.397302 0.536905 1 0 1.000000
barracuda
  0 -28.263115 41.827454 -39.147980 -0.662197 -0.651224 0.370679 0.394567 0.535338 1 0 1.000000
  0 -28.386023 41.791939 -40.234207 -0.708138 -0.687242 -0.161983 0.395594 0.539298 1 0 1.000000
  0 -27.915207 41.425385 -38.865715 -0.511439 -0.814490 0.273927 0.392073 0.534210 1 0 1.000000
barracuda
  0 -27.915207 41.425385 -38.865715 -0.511439 -0.814490 0.273927 0.392073 0.534210 1 0 1.000000
  0 -27.653004 41.953495 -38.133099 -0.436581 -0.156723 0.885909 0.396171 0.529380 1 0 1.000000
  0 -28.263115 41.827454 -39.147980 -0.662197 -0.651224 0.370679 0.394567 0.535338 1 0 1.000000
barracuda
  0 -28.529570 42.887993 -38.529930 -0.772384 -0.041052 0.633827 0.399211 0.534057 1 0 1.000000
  0 -28.263115 41.827454 -39.147980 -0.662197 -0.651224 0.370679 0.394567 0.535338 1 0 1.000000
  0 -27.653004 41.953495 -38.133099 -0.436581 -0.156723 0.885909 0.396171 0.529380 1 0 1.000000
barracuda
  0 -27.653004 43.440220 -38.128639 -0.492453 0.209002 0.844872 0.402002 0.531848 1 0 1.000000
  0 -28.529570 42.887993 -38.529930 -0.772384 -0.041052 0.633827 0.399211 0.534057 1 0 1.000000
  0 -27.653004 41.953495 -38.133099 -0.436581 -0.156723 0.885909 0.396171 0.529380 1 0 1.000000
barracuda
  0 -28.529570 42.887993 -38.529930 -0.772384 -0.041052 0.633827 0.399211 0.534057 1 0 1.000000
  0 -27.653004 43.440220 -38.128639 -0.492453 0.209002 0.844872 0.402002 0.531848 1 0 1.000000
  0 -28.674154 44.240807 -39.528496 -0.828028 0.510529 0.231797 0.402727 0.537241 1 0 1.000000
barracuda
  0 -28.674154 44.240807 -39.528496 -0.828028 0.510529 0.231797 0.402727 0.537241 1 0 1.000000
  0 -27.653004 43.440220 -38.128639 -0.492453 0.209002 0.844872 0.402002 0.531848 1 0 1.000000
  0 -27.653004 44.952019 -39.294434 -0.543374 0.754551 0.367965 0.406253 0.536280 1 0 1.000000
barracuda
  0 -28.674154 44.240807 -39.528496 -0.828028 0.510529 0.231797 0.402727 0.537241 1 0 1.000000
  0 -27.653004 44.952019 -39.294434 -0.543374 0.754551 0.367965 0.406253 0.536280 1 0 1.000000
  0 -28.665766 44.019096 -40.805260 -0.827263 0.438948 -0.350657 0.402188 0.540518 1 0 1.000000
barracuda
  0 -28.665766 44.019096 -40.805260 -0.827263 0.438948 -0.350657 0.402188 0.540518 1 0 1.000000
  0 -27.653004 44.952019 -39.294434 -0.543374 0.754551 0.367965 0.406253 0.536280 1 0 1.000000
  0 -27.653004 44.990807 -41.170464 -0.567463 0.788977 -0.235584 0.406272 0.541826 1 0 1.000000
barracuda
  0 -27.653004 44.990807 -41.170464 -0.567463 0.788977 -0.235584 0.406272 0.541826 1 0 1.000000
  0 -27.504589 44.042645 -42.745945 -0.734821 0.317014 -0.599617 0.402513 0.547700 1 0 1.000000
  0 -28.665766 44.019096 -40.805260 -0.827263 0.438948 -0.350657 0.402188 0.540518 1 0 1.000000
barracuda
  0 -25.813198 45.730728 -41.587116 -0.312933 0.919885 -0.236399 0.413316 0.544268 1 0 1.000000
  0 -27.504589 44.042645 -42.745945 -0.734821 0.317014 -0.599617 0.402513 0.547700 1 0 1.000000
  0 -27.653004 44.990807 -41.170464 -0.567463 0.788977 -0.235584 0.406272 0.541826 1 0 1.000000
barracuda
  0 -25.656189 44.526165 -43.982227 -0.381554 0.496665 -0.779577 0.404823 0.556414 1 0 1.000000
  0 -27.504589 44.042645 -42.745945 -0.734821 0.317014 -0.599617 0.402513 0.547700 1 0 1.000000
  0 -25.813198 45.730728 -41.587116 -0.312933 0.919885 -0.236399 0.413316 0.544268 1 0 1.000000
barracuda
  0 -25.813198 45.730728 -41.587116 -0.312933 0.919885 -0.236399 0.413316 0.544268 1 0 1.000000
  0 -24.399080 45.986473 -41.723907 -0.187144 0.952884 -0.238723 0.419195 0.547595 1 0 1.000000
  0 -25.656189 44.526165 -43.982227 -0.381554 0.496665 -0.779577 0.404823 0.556414 1 0 1.000000
barracuda
  0 -25.656189 44.526165 -43.982227 -0.381554 0.496665 -0.779577 0.404823 0.556414 1 0 1.000000
  0 -24.399080 45.986473 -41.723907 -0.187144 0.952884 -0.238723 0.419195 0.547595 1 0 1.000000
  0 -24.399080 44.697273 -44.119019 -0.171429 0.533388 -0.828317 0.408161 0.561046 1 0 1.000000
barracuda
  0 -24.399080 42.090088 -44.285789 -0.099080 -0.490333 -0.865885 0.394431 0.561058 1 0 1.000000
  0 -25.656189 44.526165 -43.982227 -0.381554 0.496665 -0.779577 0.404823 0.556414 1 0 1.000000
  0 -24.399080 44.697273 -44.119019 -0.171429 0.533388 -0.828317 0.408161 0.561046 1 0 1.000000
barracuda
  0 -28.263115 41.827454 -39.147980 -0.662197 -0.651224 0.370679 0.394567 0.535338 1 0 1.000000
  0 -28.529570 42.887993 -38.529930 -0.772384 -0.041052 0.633827 0.399211 0.534057 1 0 1.000000
  0 -28.927036 42.292786 -39.474663 -0.872053 -0.448184 0.196608 0.397302 0.536905 1 0 1.000000
barracuda
  0 -28.529570 42.887993 -38.529930 -0.772384 -0.041052 0.633827 0.399211 0.534057 1 0 1.000000
  0 -28.674154 44.240807 -39.528496 -0.828028 0.510529 0.231797 0.402727 0.537241 1 0 1.000000
  0 -28.927036 42.292786 -39.474663 -0.872053 -0.448184 0.196608 0.397302 0.536905 1 0 1.000000
barracuda
  0 -25.612940 42.090088 -44.148994 -0.343705 -0.472804 -0.811371 0.395754 0.556207 1 0 1.000000
  0 -25.656189 44.526165 -43.982227 -0.381554 0.496665 -0.779577 0.404823 0.556414 1 0 1.000000
  0 -24.399080 42.090088 -44.285789 -0.099080 -0.490333 -0.865885 0.394431 0.561058 1 0 1.000000
barracuda
  0 -24.399080 41.078590 -42.336403 -0.026921 -0.974321 -0.223550 0.386215 0.554237 1 0 1.000000
  0 -25.612940 42.090088 -44.148994 -0.343705 -0.472804 -0.811371 0.395754 0.556207 1 0 1.000000
  0 -24.399080 42.090088 -44.285789 -0.099080 -0.490333 -0.865885 0.394431 0.561058 1 0 1.000000
barracuda
  0 -25.612940 41.078590 -42.199615 -0.153037 -0.962098 -0.225716 0.389691 0.550552 1 0 1.000000
  0 -25.612940 42.090088 -44.148994 -0.343705 -0.472804 -0.811371 0.395754 0.556207 1 0 1.000000
  0 -24.399080 41.078590 -42.336403 -0.026921 -0.974321 -0.223550 0.386215 0.554237 1 0 1.000000
barracuda
  0 -25.612940 41.078590 -42.199615 -0.153037 -0.962098 -0.225716 0.389691 0.550552 1 0 1.000000
  0 -24.399080 41.078590 -42.336403 -0.026921 -0.974321 -0.223550 0.386215 0.554237 1 0 1.000000
  0 -25.612940 41.168667 -39.039856 0.272050 -0.941788 0.197545 0.383573 0.539275 1 0 1.000000
barracuda
  0 -25.612940 41.168667 -39.039856 0.272050 -0.941788 0.197545 0.383573 0.539275 1 0 1.000000
  0 -27.393543 41.342628 -41.194450 -0.470571 -0.852773 -0.226587 0.393391 0.543620 1 0 1.000000
  0 -25.612940 41.078590 -42.199615 -0.153037 -0.962098 -0.225716 0.389691 0.550552 1 0 1.000000
barracuda
  0 -27.915207 41.425385 -38.865715 -0.511439 -0.814490 0.273927 0.392073 0.534210 1 0 1.000000
  0 -27.393543 41.342628 -41.194450 -0.470571 -0.852773 -0.226587 0.393391 0.543620 1 0 1.000000
  0 -25.612940 41.168667 -39.039856 0.272050 -0.941788 0.197545 0.383573 0.539275 1 0 1.000000
barracuda
  0 -27.915207 41.425385 -38.865715 -0.511439 -0.814490 0.273927 0.392073 0.534210 1 0 1.000000
  0 -28.386023 41.791939 -40.234207 -0.708138 -0.687242 -0.161983 0.395594 0.539298 1 0 1.000000
  0 -27.393543 41.342628 -41.194450 -0.470571 -0.852773 -0.226587 0.393391 0.543620 1 0 1.000000
barracuda
  0 -28.386023 41.791939 -40.234207 -0.708138 -0.687242 -0.161983 0.395594 0.539298 1 0 1.000000
  0 -28.523554 42.725304 -41.300831 -0.851567 -0.164662 -0.497715 0.398644 0.542251 1 0 1.000000
  0 -27.393543 41.342628 -41.194450 -0.470571 -0.852773 -0.226587 0.393391 0.543620 1 0 1.000000
barracuda
  0 -28.386023 41.791939 -40.234207 -0.708138 -0.687242 -0.161983 0.395594 0.539298 1 0 1.000000
  0 -29.059462 43.359932 -40.419029 -0.978212 0.093260 -0.185481 0.400273 0.539446 1 0 1.000000
  0 -28.523554 42.725304 -41.300831 -0.851567 -0.164662 -0.497715 0.398644 0.542251 1 0 1.000000
barracuda
  0 -28.523554 42.725304 -41.300831 -0.851567 -0.164662 -0.497715 0.398644 0.542251 1 0 1.000000
  0 -29.059462 43.359932 -40.419029 -0.978212 0.093260 -0.185481 0.400273 0.539446 1 0 1.000000
  0 -28.665766 44.019096 -40.805260 -0.827263 0.438948 -0.350657 0.402188 0.540518 1 0 1.000000
barracuda
  0 -27.504589 44.042645 -42.745945 -0.734821 0.317014 -0.599617 0.402513 0.547700 1 0 1.000000
  0 -28.523554 42.725304 -41.300831 -0.851567 -0.164662 -0.497715 0.398644 0.542251 1 0 1.000000
  0 -28.665766 44.019096 -40.805260 -0.827263 0.438948 -0.350657 0.402188 0.540518 1 0 1.000000
barracuda
  0 -27.429529 42.370872 -42.820992 -0.688557 -0.378683 -0.618457 0.397506 0.548203 1 0 1.000000
  0 -28.523554 42.725304 -41.300831 -0.851567 -0.164662 -0.497715 0.398644 0.542251 1 0 1.000000
  0 -27.504589 44.042645 -42.745945 -0.734821 0.317014 -0.599617 0.402513 0.547700 1 0 1.000000
barracuda
  0 -25.656189 44.526165 -43.982227 -0.381554 0.496665 -0.779577 0.404823 0.556414 1 0 1.000000
  0 -27.429529 42.370872 -42.820992 -0.688557 -0.378683 -0.618457 0.397506 0.548203 1 0 1.000000
  0 -27.504589 44.042645 -42.745945 -0.734821 0.317014 -0.599617 0.402513 0.547700 1 0 1.000000
barracuda
  0 -25.612940 42.090088 -44.148994 -0.343705 -0.472804 -0.811371 0.395754 0.556207 1 0 1.000000
  0 -27.429529 42.370872 -42.820992 -0.688557 -0.378683 -0.618457 0.397506 0.548203 1 0 1.000000
  0 -25.656189 44.526165 -43.982227 -0.381554 0.496665 -0.779577 0.404823 0.556414 1 0 1.000000
barracuda
  0 -25.612940 41.078590 -42.199615 -0.153037 -0.962098 -0.225716 0.389691 0.550552 1 0 1.000000
  0 -27.429529 42.370872 -42.820992 -0.688557 -0.378683 -0.618457 0.397506 0.548203 1 0 1.000000
  0 -25.612940 42.090088 -44.148994 -0.343705 -0.472804 -0.811371 0.395754 0.556207 1 0 1.000000
barracuda
  0 -27.393543 41.342628 -41.194450 -0.470571 -0.852773 -0.226587 0.393391 0.543620 1 0 1.000000
  0 -27.429529 42.370872 -42.820992 -0.688557 -0.378683 -0.618457 0.397506 0.548203 1 0 1.000000
  0 -25.612940 41.078590 -42.199615 -0.153037 -0.962098 -0.225716 0.389691 0.550552 1 0 1.000000
barracuda
  0 -27.393543 41.342628 -41.194450 -0.470571 -0.852773 -0.226587 0.393391 0.543620 1 0 1.000000
  0 -28.523554 42.725304 -41.300831 -0.851567 -0.164662 -0.497715 0.398644 0.542251 1 0 1.000000
  0 -27.429529 42.370872 -42.820992 -0.688557 -0.378683 -0.618457 0.397506 0.548203 1 0 1.000000
barracuda
  0 -25.612940 41.168667 -39.039856 0.272050 -0.941788 0.197545 0.383573 0.539275 1 0 1.000000
  0 -24.399080 41.078590 -42.336403 -0.026921 -0.974321 -0.223550 0.386215 0.554237 1 0 1.000000
  0 -24.399080 41.168667 -38.878120 -0.032416 -0.953997 0.298057 0.378686 0.541312 1 0 1.000000
barracuda
  0 -25.838734 41.017891 -33.971275 0.769132 0.523809 0.366141 0.441464 0.525784 1 0 1.000000
  0 -23.449245 39.446564 -35.443901 0.769132 0.523809 0.366141 0.444954 0.518994 1 0 1.000000
  0 -24.862202 41.359734 -36.124535 0.662910 0.632250 0.401012 0.449136 0.524853 1 0 1.000000
barracuda
  0 -21.072859 31.232372 -31.499264 0.635729 0.721451 0.274513 0.423601 0.494829 1 0 1.000000
  0 -23.449245 39.446564 -35.443901 0.769132 0.523809 0.366141 0.444954 0.518994 1 0 1.000000
  0 -25.838734 41.017891 -33.971275 0.769132 0.523809 0.366141 0.441464 0.525784 1 0 1.000000
barracuda
  0 -20.830885 32.245876 -36.322624 0.635729 0.721451 0.274513 0.440853 0.493601 1 0 1.000000
  0 -23.449245 39.446564 -35.443901 0.769132 0.523809 0.366141 0.444954 0.518994 1 0 1.000000
  0 -21.072859 31.232372 -31.499264 0.635729 0.721451 0.274513 0.423601 0.494829 1 0 1.000000
barracuda
  0 -21.072859 31.232372 -31.499264 0.635729 0.721451 0.274513 0.423601 0.494829 1 0 1.000000
  0 -12.795854 29.387970 -36.446922 0.162643 0.966216 0.199934 0.440610 0.465123 1 0 1.000000
  0 -20.830885 32.245876 -36.322624 0.635729 0.721451 0.274513 0.440853 0.493601 1 0 1.000000
barracuda
  0 -12.205873 28.375675 -31.668400 0.162643 0.966216 0.199934 0.423631 0.463386 1 0 1.000000
  0 -12.795854 29.387970 -36.446922 0.162643 0.966216 0.199934 0.440610 0.465123 1 0 1.000000
  0 -21.072859 31.232372 -31.499264 0.635729 0.721451 0.274513 0.423601 0.494829 1 0 1.000000
barracuda
  0 -12.205873 28.375675 -31.668400 0.162643 0.966216 0.199934 0.423631 0.463386 1 0 1.000000
  0 15.961590 28.379761 -32.229584 0.003472 0.977684 0.210050 0.423532 0.363519 1 0 1.000000
  0 -12.795854 29.387970 -36.446922 0.162643 0.966216 0.199934 0.440610 0.465123 1 0 1.000000
barracuda
  0 -12.795854 29.387970 -36.446922 0.162643 0.966216 0.199934 0.440610 0.465123 1 0 1.000000
  0 15.961590 28.379761 -32.229584 0.003472 0.977684 0.210050 0.423532 0.363519 1 0 1.000000
  0 20.167641 29.388071 -36.915817 0.003472 0.977684 0.210050 0.439829 0.348265 1 0 1.000000
barracuda
  0 25.601109 35.842087 -42.562584 0.001324 -0.797655 -0.603112 0.298135 0.554587 1 0 1.000000
  0 20.480030 35.787689 -42.502441 0.001324 -0.797655 -0.603112 0.324605 0.554404 1 0 1.000000
  0 25.495007 36.287506 -43.152473 0.001324 -0.797655 -0.603112 0.298608 0.558418 1 0 1.000000
barracuda
  0 25.495007 36.287506 -43.152473 0.001324 -0.797655 -0.603112 0.298608 0.558418 1 0 1.000000
  0 20.480030 35.787689 -42.502441 0.001324 -0.797655 -0.603112 0.324605 0.554404 1 0 1.000000
  0 20.460522 36.239166 -43.099030 0.001324 -0.797655 -0.603112 0.324714 0.558277 1 0 1.000000
barracuda
  0 25.581730 37.547600 -42.185951 0.988468 0.043277 -0.145116 0.298107 0.566679 1 0 1.000000
  0 25.601109 35.842087 -42.562584 0.988468 0.043277 -0.145116 0.294726 0.558242 1 0 1.000000
  0 25.495007 36.287506 -43.152473 0.988468 0.043277 -0.145116 0.298608 0.558418 1 0 1.000000
barracuda
  0 28.250435 12.444979 -41.579121 0.980208 -0.197972 0.000000 0.826069 0.301791 1 0 1.000000
  0 28.862959 15.477719 -37.718685 0.979279 -0.202513 0.000000 0.814856 0.288483 1 0 1.000000
  0 28.250435 12.444979 -37.762138 0.980208 -0.197972 0.000000 0.825606 0.288269 1 0 1.000000
barracuda
  0 28.862957 15.477718 -42.877773 0.979279 -0.202513 0.000000 0.815482 0.306759 1 0 1.000000
  0 28.862959 15.477719 -37.718685 0.979279 -0.202513 0.000000 0.814856 0.288483 1 0 1.000000
  0 28.250435 12.444979 -41.579121 0.980208 -0.197972 0.000000 0.826069 0.301791 1 0 1.000000
barracuda
  0 28.862957 15.477718 -42.877773 0.979279 -0.202513 0.000000 0.815482 0.306759 1 0 1.000000
  0 30.408287 22.779596 -37.510517 0.993138 -0.116949 0.000000 0.788962 0.288632 1 0 1.000000
  0 28.862959 15.477719 -37.718685 0.979279 -0.202513 0.000000 0.814856 0.288483 1 0 1.000000
barracuda
  0 30.408287 22.779594 -43.928761 0.993138 -0.116949 0.000000 0.789728 0.311369 1 0 1.000000
  0 30.408287 22.779596 -37.510517 0.993138 -0.116949 0.000000 0.788962 0.288632 1 0 1.000000
  0 28.862957 15.477718 -42.877773 0.979279 -0.202513 0.000000 0.815482 0.306759 1 0 1.000000
barracuda
  0 30.408287 22.779594 -43.928761 0.993138 -0.116949 0.000000 0.789728 0.311369 1 0 1.000000
  0 30.663891 32.654839 -43.334274 0.994390 0.105644 -0.005217 0.754697 0.310462 1 0 1.000000
  0 30.408287 22.779596 -37.510517 0.993138 -0.116949 0.000000 0.788962 0.288632 1 0 1.000000
barracuda
  0 30.408287 22.779596 -37.510517 0.993138 -0.116949 0.000000 0.788962 0.288632 1 0 1.000000
  0 30.663891 32.654839 -43.334274 0.994390 0.105644 -0.005217 0.754697 0.310462 1 0 1.000000
  0 30.663891 32.654835 -37.183262 0.994390 0.105644 -0.005217 0.753937 0.288671 1 0 1.000000
barracuda
  0 30.663891 32.654839 -43.334274 0.994390 0.105644 -0.005217 0.754697 0.310462 1 0 1.000000
  0 28.206997 42.625977 -41.172134 0.971861 0.235329 -0.010343 0.719097 0.304013 1 0 1.000000
  0 30.663891 32.654835 -37.183262 0.994390 0.105644 -0.005217 0.753937 0.288671 1 0 1.000000
barracuda
  0 30.663891 32.654835 -37.183262 0.994390 0.105644 -0.005217 0.753937 0.288671 1 0 1.000000
  0 28.206997 42.625977 -41.172134 0.971861 0.235329 -0.010343 0.719097 0.304013 1 0 1.000000
  0 28.332466 42.625977 -35.534134 0.971861 0.235329 -0.010343 0.718413 0.284039 1 0 1.000000
barracuda
  0 25.581730 37.547600 -42.185951 -0.011407 0.601879 -0.798506 0.298107 0.566679 1 0 1.000000
  0 25.495007 36.287506 -43.152473 -0.011407 0.601879 -0.798506 0.298608 0.558418 1 0 1.000000
  0 20.440105 37.584595 -42.102570 -0.011407 0.601879 -0.798506 0.324860 0.567255 1 0 1.000000
barracuda
  0 20.440105 37.584595 -42.102570 -0.011407 0.601879 -0.798506 0.324860 0.567255 1 0 1.000000
  0 25.495007 36.287506 -43.152473 -0.011407 0.601879 -0.798506 0.298608 0.558418 1 0 1.000000
  0 20.460522 36.239166 -43.099030 -0.011407 0.601879 -0.798506 0.324714 0.558277 1 0 1.000000
barracuda
  0 20.785793 36.106972 -41.912827 0.015875 -0.879251 0.476094 0.322979 0.550947 1 0 1.000000
  0 20.480030 35.787689 -42.502441 0.015875 -0.879251 0.476094 0.324605 0.554404 1 0 1.000000
  0 25.297443 36.161369 -41.972969 0.015875 -0.879251 0.476094 0.299739 0.551124 1 0 1.000000
barracuda
  0 25.297443 36.161369 -41.972969 0.015875 -0.879251 0.476094 0.299739 0.551124 1 0 1.000000
  0 20.480030 35.787689 -42.502441 0.015875 -0.879251 0.476094 0.324605 0.554404 1 0 1.000000
  0 25.601109 35.842087 -42.562584 0.015875 -0.879251 0.476094 0.298135 0.554587 1 0 1.000000
barracuda
  0 20.514080 34.255482 -42.843422 0.850621 0.131091 -0.509175 0.324171 0.539866 1 0 1.000000
  0 20.480030 35.787689 -42.502441 0.850621 0.131091 -0.509175 0.326141 0.548270 1 0 1.000000
  0 20.815788 34.574764 -42.253807 0.850621 0.131091 -0.509175 0.322475 0.543086 1 0 1.000000
barracuda
  0 20.815788 34.574764 -42.253807 0.850621 0.131091 -0.509175 0.322475 0.543086 1 0 1.000000
  0 20.480030 35.787689 -42.502441 0.850621 0.131091 -0.509175 0.326141 0.548270 1 0 1.000000
  0 20.785793 36.106972 -41.912827 0.850621 0.131091 -0.509175 0.322979 0.550947 1 0 1.000000
barracuda
  0 25.618721 34.292473 -42.904755 -0.012857 0.879259 -0.476170 0.298250 0.539978 1 0 1.000000
  0 20.514080 34.255482 -42.843422 -0.012857 0.879259 -0.476170 0.324171 0.539866 1 0 1.000000
  0 25.312958 34.611755 -42.315132 -0.012857 0.879259 -0.476170 0.300035 0.543163 1 0 1.000000
barracuda
  0 25.312958 34.611755 -42.315132 -0.012857 0.879259 -0.476170 0.300035 0.543163 1 0 1.000000
  0 20.514080 34.255482 -42.843422 -0.012857 0.879259 -0.476170 0.324171 0.539866 1 0 1.000000
  0 20.815788 34.574764 -42.253807 -0.012857 0.879259 -0.476170 0.322475 0.543086 1 0 1.000000
barracuda
  0 25.618721 34.292473 -42.904755 -0.860448 0.101078 -0.499412 0.298250 0.539978 1 0 1.000000
  0 25.312958 34.611755 -42.315132 -0.860448 0.101078 -0.499412 0.300035 0.543163 1 0 1.000000
  0 25.601109 35.842087 -42.562584 -0.860448 0.101078 -0.499412 0.296550 0.548509 1 0 1.000000
barracuda
  0 25.601109 35.842087 -42.562584 -0.860448 0.101078 -0.499412 0.296550 0.548509 1 0 1.000000
  0 25.312958 34.611755 -42.315132 -0.860448 0.101078 -0.499412 0.300035 0.543163 1 0 1.000000
  0 25.297443 36.161369 -41.972969 -0.860448 0.101078 -0.499412 0.299739 0.551124 1 0 1.000000
barracuda
  0 24.833149 36.994465 -35.293465 0.000000 -0.258817 0.965926 0.205100 0.246394 1 0 1.000000
  0 19.260311 36.994465 -35.293465 0.000000 -0.258817 0.965926 0.205100 0.271738 1 0 1.000000
  0 24.833149 34.628548 -35.927406 0.000000 -0.258817 0.965926 0.216049 0.246394 1 0 1.000000
barracuda
  0 24.833149 34.628548 -35.927406 0.000000 -0.258817 0.965926 0.216049 0.246394 1 0 1.000000
  0 19.260311 36.994465 -35.293465 0.000000 -0.258817 0.965926 0.205100 0.271738 1 0 1.000000
  0 19.260311 34.628548 -35.927406 0.000000 -0.258817 0.965926 0.216049 0.271738 1 0 1.000000
barracuda
  0 24.833149 34.871120 -36.832703 1.000000 0.000000 0.000000 0.216144 0.242132 1 0 1.000000
  0 24.833149 37.237038 -36.198753 1.000000 0.000000 0.000000 0.205005 0.242132 1 0 1.000000
  0 24.833149 34.628548 -35.927406 1.000000 0.000000 0.000000 0.216049 0.246394 1 0 1.000000
barracuda
  0 24.833149 34.628548 -35.927406 1.000000 0.000000 0.000000 0.216049 0.246394 1 0 1.000000
  0 24.833149 37.237038 -36.198753 1.000000 0.000000 0.000000 0.205005 0.242132 1 0 1.000000
  0 24.833149 36.994465 -35.293465 1.000000 0.000000 0.000000 0.205100 0.246394 1 0 1.000000
barracuda
  0 19.260311 34.871120 -36.832703 0.000000 -0.965926 -0.258819 0.220166 0.271738 1 0 1.000000
  0 24.833149 34.871120 -36.832703 0.000000 -0.965926 -0.258819 0.220166 0.246394 1 0 1.000000
  0 19.260311 34.628548 -35.927406 0.000000 -0.965926 -0.258819 0.216049 0.271738 1 0 1.000000
barracuda
  0 19.260311 34.628548 -35.927406 0.000000 -0.965926 -0.258819 0.216049 0.271738 1 0 1.000000
  0 24.833149 34.871120 -36.832703 0.000000 -0.965926 -0.258819 0.220166 0.246394 1 0 1.000000
  0 24.833149 34.628548 -35.927406 0.000000 -0.965926 -0.258819 0.216049 0.246394 1 0 1.000000
barracuda
  0 19.260311 37.237038 -36.198753 -1.000000 0.000000 0.000000 0.205005 0.276000 1 0 1.000000
  0 19.260311 34.871120 -36.832703 -1.000000 0.000000 0.000000 0.216144 0.276000 1 0 1.000000
  0 19.260311 36.994465 -35.293465 -1.000000 0.000000 0.000000 0.205100 0.271738 1 0 1.000000
barracuda
  0 19.260311 36.994465 -35.293465 -1.000000 0.000000 0.000000 0.205100 0.271738 1 0 1.000000
  0 19.260311 34.871120 -36.832703 -1.000000 0.000000 0.000000 0.216144 0.276000 1 0 1.000000
  0 19.260311 34.628548 -35.927406 -1.000000 0.000000 0.000000 0.216049 0.271738 1 0 1.000000
barracuda
  0 24.833149 37.237038 -36.198753 0.000000 0.965925 0.258821 0.200983 0.246394 1 0 1.000000
  0 19.260311 37.237038 -36.198753 0.000000 0.965925 0.258821 0.200983 0.271738 1 0 1.000000
  0 24.833149 36.994465 -35.293465 0.000000 0.965925 0.258821 0.205100 0.246394 1 0 1.000000
barracuda
  0 24.833149 36.994465 -35.293465 0.000000 0.965925 0.258821 0.205100 0.246394 1 0 1.000000
  0 19.260311 37.237038 -36.198753 0.000000 0.965925 0.258821 0.200983 0.271738 1 0 1.000000
  0 19.260311 36.994465 -35.293465 0.000000 0.965925 0.258821 0.205100 0.271738 1 0 1.000000
barracuda
  0 -8.629402 35.564857 -34.427284 0.000000 0.258825 -0.965924 0.227576 0.246459 1 0 1.000000
  0 -8.629400 34.354858 -34.751511 0.000000 0.258825 -0.965924 0.222080 0.246722 1 0 1.000000
  0 -15.138953 35.564857 -34.427284 0.000000 0.258825 -0.965924 0.229002 0.276024 1 0 1.000000
barracuda
  0 -15.138953 35.564857 -34.427284 0.000000 0.258825 -0.965924 0.229002 0.276024 1 0 1.000000
  0 -8.629400 34.354858 -34.751511 0.000000 0.258825 -0.965924 0.222080 0.246722 1 0 1.000000
  0 -15.138953 34.354858 -34.751511 0.000000 0.258825 -0.965924 0.223506 0.276291 1 0 1.000000
barracuda
  0 -8.629402 34.230797 -34.288513 0.000000 -0.258820 0.965925 0.235636 0.246395 1 0 1.000000
  0 -8.629400 35.440796 -33.964294 0.000000 -0.258820 0.965925 0.229855 0.246391 1 0 1.000000
  0 -13.448925 34.230797 -34.288513 0.000000 -0.258820 0.965925 0.235005 0.268292 1 0 1.000000
barracuda
  0 -13.448925 34.230797 -34.288513 0.000000 -0.258820 0.965925 0.235005 0.268292 1 0 1.000000
  0 -8.629400 35.440796 -33.964294 0.000000 -0.258820 0.965925 0.229855 0.246391 1 0 1.000000
  0 -13.448925 35.440800 -33.964291 0.000000 -0.258820 0.965925 0.230200 0.268301 1 0 1.000000
barracuda
  0 -8.629402 35.564857 -34.427284 1.000000 0.000000 0.000000 0.229899 0.244211 1 0 1.000000
  0 -8.629400 35.440796 -33.964294 1.000000 0.000000 0.000000 0.229855 0.246391 1 0 1.000000
  0 -8.629400 34.354858 -34.751511 1.000000 0.000000 0.000000 0.235596 0.244215 1 0 1.000000
barracuda
  0 -8.629400 34.354858 -34.751511 1.000000 0.000000 0.000000 0.235596 0.244215 1 0 1.000000
  0 -8.629400 35.440796 -33.964294 1.000000 0.000000 0.000000 0.229855 0.246391 1 0 1.000000
  0 -8.629402 34.230797 -34.288513 1.000000 0.000000 0.000000 0.235636 0.246395 1 0 1.000000
barracuda
  0 -15.138953 35.564857 -34.427284 0.000001 0.965926 0.258817 0.229002 0.276024 1 0 1.000000
  0 -13.448925 35.440800 -33.964291 0.000001 0.965926 0.258817 0.230200 0.268301 1 0 1.000000
  0 -8.629402 35.564857 -34.427284 0.000001 0.965926 0.258817 0.227576 0.246459 1 0 1.000000
barracuda
  0 -8.629402 35.564857 -34.427284 0.000001 0.965926 0.258817 0.227576 0.246459 1 0 1.000000
  0 -13.448925 35.440800 -33.964291 0.000001 0.965926 0.258817 0.230200 0.268301 1 0 1.000000
  0 -8.629400 35.440796 -33.964294 0.000001 0.965926 0.258817 0.229855 0.246391 1 0 1.000000
barracuda
  0 -15.138953 34.354858 -34.751511 -0.272857 -0.249002 0.929272 0.235538 0.276035 1 0 1.000000
  0 -13.448925 34.230797 -34.288513 -0.272857 -0.249002 0.929272 0.235005 0.268292 1 0 1.000000
  0 -15.138953 35.564857 -34.427284 -0.272857 -0.249002 0.929272 0.229002 0.276024 1 0 1.000000
barracuda
  0 -15.138953 35.564857 -34.427284 -0.272857 -0.249002 0.929272 0.229002 0.276024 1 0 1.000000
  0 -13.448925 34.230797 -34.288513 -0.272857 -0.249002 0.929272 0.235005 0.268292 1 0 1.000000
  0 -13.448925 35.440800 -33.964291 -0.272857 -0.249002 0.929272 0.230200 0.268301 1 0 1.000000
barracuda
  0 -8.629402 34.230797 -34.288513 0.000000 -0.965924 -0.258825 0.235636 0.246395 1 0 1.000000
  0 -13.448925 34.230797 -34.288513 0.000000 -0.965924 -0.258825 0.235005 0.268292 1 0 1.000000
  0 -8.629400 34.354858 -34.751511 0.000000 -0.965924 -0.258825 0.238010 0.246526 1 0 1.000000
barracuda
  0 -8.629400 34.354858 -34.751511 0.000000 -0.965924 -0.258825 0.238010 0.246526 1 0 1.000000
  0 -13.448925 34.230797 -34.288513 0.000000 -0.965924 -0.258825 0.235005 0.268292 1 0 1.000000
  0 -15.138953 34.354858 -34.751511 0.000000 -0.965924 -0.258825 0.235538 0.276035 1 0 1.000000
barracuda
  0 -24.399080 42.090088 -44.285789 1.000000 -0.000001 0.000000 0.201421 0.519718 1 0 1.000000
  0 -24.399080 44.697273 -44.119019 1.000000 -0.000001 0.000000 0.216926 0.520710 1 0 1.000000
  0 -24.399080 41.078590 -42.336403 1.000000 -0.000001 0.000000 0.195405 0.531310 1 0 1.000000
barracuda
  0 -24.399080 44.697273 -44.119019 1.000000 -0.000001 0.000000 0.216926 0.520710 1 0 1.000000
  0 -24.399080 45.986473 -41.723907 1.000000 -0.000001 0.000000 0.224593 0.534953 1 0 1.000000
  0 -24.399080 41.078590 -42.336403 1.000000 -0.000001 0.000000 0.195405 0.531310 1 0 1.000000
barracuda
  0 -24.399080 41.078590 -42.336403 1.000000 -0.000001 0.000000 0.195405 0.531310 1 0 1.000000
  0 -24.399080 45.986473 -41.723907 1.000000 -0.000001 0.000000 0.224593 0.534953 1 0 1.000000
  0 -24.399080 41.168667 -38.878120 1.000000 -0.000001 0.000000 0.195941 0.551878 1 0 1.000000
barracuda
  0 -24.399080 45.986473 -41.723907 1.000000 -0.000001 0.000000 0.224593 0.534953 1 0 1.000000
  0 -24.399078 46.002396 -38.885841 1.000000 -0.000001 0.000000 0.224687 0.551832 1 0 1.000000
  0 -24.399080 41.168667 -38.878120 1.000000 -0.000001 0.000000 0.195941 0.551878 1 0 1.000000
barracuda
  0 -24.399078 46.002396 -38.885841 1.000000 -0.000001 0.000000 0.224687 0.551832 1 0 1.000000
  0 -24.399080 44.652763 -37.523666 1.000000 -0.000001 0.000000 0.216661 0.559932 1 0 1.000000
  0 -24.399080 41.168667 -38.878120 1.000000 -0.000001 0.000000 0.195941 0.551878 1 0 1.000000
barracuda
  0 -24.399080 44.652763 -37.523666 1.000000 -0.000001 0.000000 0.216661 0.559932 1 0 1.000000
  0 -24.399080 41.975494 -37.667641 1.000000 -0.000001 0.000000 0.200740 0.559077 1 0 1.000000
  0 -24.399080 41.168667 -38.878120 1.000000 -0.000001 0.000000 0.195941 0.551878 1 0 1.000000
barracuda
  0 -25.612940 41.146587 -37.511868 1.000000 -0.000001 0.000000 0.368459 0.552397 1 0 1.000000
  0 -25.612940 40.954826 -38.760010 1.000000 -0.000001 0.000000 0.364908 0.558893 1 0 1.000000
  0 -25.612940 41.975494 -37.781853 0.237608 -0.335943 0.911419 0.363637 0.550704 1 0 1.000000
barracuda
  0 -25.612940 41.975494 -37.781853 0.237608 -0.335943 0.911419 0.363637 0.550704 1 0 1.000000
  0 -25.612940 40.954826 -38.760010 1.000000 -0.000001 0.000000 0.364908 0.558893 1 0 1.000000
  0 -25.612940 41.168667 -39.039856 0.272050 -0.941788 0.197545 0.362916 0.559434 1 0 1.000000
barracuda
  0 -27.653004 40.810047 -37.315941 -0.075542 0.481340 0.873273 0.374863 0.542042 1 0 1.000000
  0 -25.612940 41.146587 -37.511868 -0.075542 0.481340 0.873273 0.368459 0.552397 1 0 1.000000
  0 -27.653004 41.953495 -38.133099 -0.075542 0.481340 0.873273 0.367170 0.539093 1 0 1.000000
barracuda
  0 -27.653004 41.953495 -38.133099 -0.075542 0.481340 0.873273 0.367170 0.539093 1 0 1.000000
  0 -25.612940 41.146587 -37.511868 -0.075542 0.481340 0.873273 0.368459 0.552397 1 0 1.000000
  0 -25.612940 41.975494 -37.781853 -0.075542 0.481340 0.873273 0.363637 0.550704 1 0 1.000000
barracuda
  0 -27.653004 40.810047 -37.315941 -0.957429 0.173357 0.230816 0.374863 0.542042 1 0 1.000000
  0 -27.653004 41.953495 -38.133099 -0.957429 0.173357 0.230816 0.367170 0.539093 1 0 1.000000
  0 -27.912155 40.865334 -38.390793 -0.957429 0.173357 0.230816 0.373045 0.535812 1 0 1.000000
barracuda
  0 -27.912155 40.865334 -38.390793 -0.957429 0.173357 0.230816 0.373045 0.535812 1 0 1.000000
  0 -27.653004 41.953495 -38.133099 -0.957429 0.173357 0.230816 0.367170 0.539093 1 0 1.000000
  0 -27.915207 41.425385 -38.865715 -0.957429 0.173357 0.230816 0.369163 0.533953 1 0 1.000000
barracuda
  0 -27.912155 40.865334 -38.390793 -0.109233 -0.694245 -0.711401 0.373045 0.535812 1 0 1.000000
  0 -27.915207 41.425385 -38.865715 -0.109233 -0.694245 -0.711401 0.369163 0.533953 1 0 1.000000
  0 -25.612940 40.954826 -38.760010 -0.109233 -0.694245 -0.711401 0.377326 0.522839 1 0 1.000000
barracuda
  0 -25.612940 40.954826 -38.760010 -0.109233 -0.694245 -0.711401 0.377326 0.522839 1 0 1.000000
  0 -27.915207 41.425385 -38.865715 -0.109233 -0.694245 -0.711401 0.369163 0.533953 1 0 1.000000
  0 -25.612940 41.168667 -39.039856 -0.109233 -0.694245 -0.711401 0.375490 0.521894 1 0 1.000000
barracuda
  0 25.312958 34.611755 -42.315132 -0.015356 0.216174 -0.976234 0.300035 0.543163 1 0 1.000000
  0 20.815788 34.574764 -42.253807 -0.015356 0.216174 -0.976234 0.322475 0.543086 1 0 1.000000
  0 25.297443 36.161369 -41.972969 -0.015356 0.216174 -0.976234 0.299739 0.551124 1 0 1.000000
barracuda
  0 25.297443 36.161369 -41.972969 -0.015356 0.216174 -0.976234 0.299739 0.551124 1 0 1.000000
  0 20.815788 34.574764 -42.253807 -0.015356 0.216174 -0.976234 0.322475 0.543086 1 0 1.000000
  0 20.785793 36.106972 -41.912827 -0.015356 0.216174 -0.976234 0.322979 0.550947 1 0 1.000000
barracuda
  0 28.250435 12.444979 -41.579121 0.000000 -1.000000 0.000000 0.826350 0.318992 1 0 1.000000
  0 28.250435 12.444979 -37.762138 0.021968 -0.724491 0.688934 0.839874 0.319378 1 0 1.000000
  0 -34.608463 12.444979 -39.662983 0.000000 -1.000000 0.000000 0.826350 0.541868 1 0 1.000000
barracuda
  0 -34.608463 12.444979 -39.662983 0.000000 -1.000000 0.000000 0.826350 0.541868 1 0 1.000000
  0 28.250435 12.444979 -37.762138 0.021968 -0.724491 0.688934 0.839874 0.319378 1 0 1.000000
  0 -34.608463 12.444977 -35.846004 0.021968 -0.724491 0.688934 0.839874 0.542307 1 0 1.000000
barracuda
  0 -35.354942 39.767403 -40.801979 -0.140610 0.990064 -0.001605 0.730422 0.544453 1 0 1.000000
  0 -35.354942 39.767403 -36.158379 -0.140610 0.990064 -0.001605 0.714899 0.545061 1 0 1.000000
  0 -27.912155 40.865334 -38.390793 -0.140610 0.990064 -0.001605 0.721774 0.518388 1 0 1.000000
barracuda
  0 -27.912155 40.865334 -38.390793 -0.140610 0.990064 -0.001605 0.721774 0.518388 1 0 1.000000
  0 -35.354942 39.767403 -36.158379 -0.140610 0.990064 -0.001605 0.714899 0.545061 1 0 1.000000
  0 -27.653004 40.810047 -37.315941 -0.140610 0.990064 -0.001605 0.717931 0.517619 1 0 1.000000
barracuda
  0 -35.354942 39.767403 -36.158379 -0.140610 0.990064 -0.001605 0.714899 0.545061 1 0 1.000000
  0 -30.696690 40.502182 -33.950039 -0.140610 0.990064 -0.001605 0.706431 0.528867 1 0 1.000000
  0 -27.653004 40.810047 -37.315941 -0.140610 0.990064 -0.001605 0.717931 0.517619 1 0 1.000000
barracuda
  0 -9.066602 35.240902 -32.982941 -0.309016 0.918651 0.246151 0.250078 0.549536 1 0 1.000000
  0 -9.430252 35.408241 -34.628273 -0.809019 0.567754 0.152129 0.252705 0.559079 1 0 1.000000
  0 -9.430252 34.985699 -33.051323 -0.809019 0.567754 0.152129 0.252705 0.549536 1 0 1.000000
barracuda
  0 -9.066602 35.663445 -34.559891 -0.309016 0.918651 0.246151 0.250078 0.559079 1 0 1.000000
  0 -9.430252 35.408241 -34.628273 -0.809019 0.567754 0.152129 0.252705 0.559079 1 0 1.000000
  0 -9.066602 35.240902 -32.982941 -0.309016 0.918651 0.246151 0.250078 0.549536 1 0 1.000000
barracuda
  0 -8.617111 35.240902 -32.982941 0.309017 0.918650 0.246151 0.247450 0.549536 1 0 1.000000
  0 -9.066602 35.663445 -34.559891 -0.309016 0.918651 0.246151 0.250078 0.559079 1 0 1.000000
  0 -9.066602 35.240902 -32.982941 -0.309016 0.918651 0.246151 0.250078 0.549536 1 0 1.000000
barracuda
  0 -8.617111 35.663445 -34.559891 0.309017 0.918650 0.246151 0.247450 0.559079 1 0 1.000000
  0 -9.066602 35.663445 -34.559891 -0.309016 0.918651 0.246151 0.250078 0.559079 1 0 1.000000
  0 -8.617111 35.240902 -32.982941 0.309017 0.918650 0.246151 0.247450 0.549536 1 0 1.000000
barracuda
  0 -8.253462 34.985699 -33.051323 0.809019 0.567754 0.152129 0.244822 0.549536 1 0 1.000000
  0 -8.617111 35.663445 -34.559891 0.309017 0.918650 0.246151 0.247450 0.559079 1 0 1.000000
  0 -8.617111 35.240902 -32.982941 0.309017 0.918650 0.246151 0.247450 0.549536 1 0 1.000000
barracuda
  0 -8.253462 35.408241 -34.628273 0.809019 0.567754 0.152129 0.244822 0.559079 1 0 1.000000
  0 -8.617111 35.663445 -34.559891 0.309017 0.918650 0.246151 0.247450 0.559079 1 0 1.000000
  0 -8.253462 34.985699 -33.051323 0.809019 0.567754 0.152129 0.244822 0.549536 1 0 1.000000
barracuda
  0 -8.114564 34.572769 -33.161964 1.000000 -0.000001 -0.000001 0.242195 0.549536 1 0 1.000000
  0 -8.253462 35.408241 -34.628273 0.809019 0.567754 0.152129 0.244822 0.559079 1 0 1.000000
  0 -8.253462 34.985699 -33.051323 0.809019 0.567754 0.152129 0.244822 0.549536 1 0 1.000000
barracuda
  0 -8.114564 34.995312 -34.738911 1.000000 -0.000001 -0.000001 0.242195 0.559079 1 0 1.000000
  0 -8.253462 35.408241 -34.628273 0.809019 0.567754 0.152129 0.244822 0.559079 1 0 1.000000
  0 -8.114564 34.572769 -33.161964 1.000000 -0.000001 -0.000001 0.242195 0.549536 1 0 1.000000
barracuda
  0 -8.253462 34.159843 -33.272606 0.809018 -0.567756 -0.152131 0.239571 0.549536 1 0 1.000000
  0 -8.114564 34.995312 -34.738911 1.000000 -0.000001 -0.000001 0.242195 0.559079 1 0 1.000000
  0 -8.114564 34.572769 -33.161964 1.000000 -0.000001 -0.000001 0.242195 0.549536 1 0 1.000000
barracuda
  0 -8.253462 34.582386 -34.849556 0.809018 -0.567756 -0.152131 0.239571 0.559079 1 0 1.000000
  0 -8.114564 34.995312 -34.738911 1.000000 -0.000001 -0.000001 0.242195 0.559079 1 0 1.000000
  0 -8.253462 34.159843 -33.272606 0.809018 -0.567756 -0.152131 0.239571 0.549536 1 0 1.000000
barracuda
  0 -8.617111 33.904640 -33.340988 0.309015 -0.918650 -0.246153 0.236936 0.549536 1 0 1.000000
  0 -8.253462 34.582386 -34.849556 0.809018 -0.567756 -0.152131 0.239571 0.559079 1 0 1.000000
  0 -8.253462 34.159843 -33.272606 0.809018 -0.567756 -0.152131 0.239571 0.549536 1 0 1.000000
barracuda
  0 -8.617111 34.327187 -34.917938 0.309015 -0.918650 -0.246153 0.236936 0.559079 1 0 1.000000
  0 -8.253462 34.582386 -34.849556 0.809018 -0.567756 -0.152131 0.239571 0.559079 1 0 1.000000
  0 -8.617111 33.904640 -33.340988 0.309015 -0.918650 -0.246153 0.236936 0.549536 1 0 1.000000
barracuda
  0 -9.066602 33.904640 -33.340988 -0.309012 -0.918651 -0.246154 0.234312 0.549536 1 0 1.000000
  0 -8.617111 34.327187 -34.917938 0.309015 -0.918650 -0.246153 0.236936 0.559079 1 0 1.000000
  0 -8.617111 33.904640 -33.340988 0.309015 -0.918650 -0.246153 0.236936 0.549536 1 0 1.000000
barracuda
  0 -9.066602 34.327187 -34.917938 -0.309012 -0.918651 -0.246154 0.234312 0.559079 1 0 1.000000
  0 -8.617111 34.327187 -34.917938 0.309015 -0.918650 -0.246153 0.236936 0.559079 1 0 1.000000
  0 -9.066602 33.904640 -33.340988 -0.309012 -0.918651 -0.246154 0.234312 0.549536 1 0 1.000000
barracuda
  0 -9.430252 34.159843 -33.272614 -0.809017 -0.567757 -0.152132 0.231684 0.549536 1 0 1.000000
  0 -9.066602 34.327187 -34.917938 -0.309012 -0.918651 -0.246154 0.234312 0.559079 1 0 1.000000
  0 -9.066602 33.904640 -33.340988 -0.309012 -0.918651 -0.246154 0.234312 0.549536 1 0 1.000000
barracuda
  0 -9.430252 34.582386 -34.849556 -0.809017 -0.567757 -0.152132 0.231684 0.559079 1 0 1.000000
  0 -9.066602 34.327187 -34.917938 -0.309012 -0.918651 -0.246154 0.234312 0.559079 1 0 1.000000
  0 -9.430252 34.159843 -33.272614 -0.809017 -0.567757 -0.152132 0.231684 0.549536 1 0 1.000000
barracuda
  0 -9.569149 34.572769 -33.161964 -1.000000 0.000000 0.000000 0.229056 0.549536 1 0 1.000000
  0 -9.430252 34.582386 -34.849556 -0.809017 -0.567757 -0.152132 0.231684 0.559079 1 0 1.000000
  0 -9.430252 34.159843 -33.272614 -0.809017 -0.567757 -0.152132 0.231684 0.549536 1 0 1.000000
barracuda
  0 -9.569149 34.995312 -34.738911 -1.000000 0.000000 0.000000 0.229056 0.559079 1 0 1.000000
  0 -9.430252 34.582386 -34.849556 -0.809017 -0.567757 -0.152132 0.231684 0.559079 1 0 1.000000
  0 -9.569149 34.572769 -33.161964 -1.000000 0.000000 0.000000 0.229056 0.549536 1 0 1.000000
barracuda
  0 -9.430252 34.985699 -33.051323 -0.809019 0.567754 0.152129 0.226429 0.549536 1 0 1.000000
  0 -9.569149 34.995312 -34.738911 -1.000000 0.000000 0.000000 0.229056 0.559079 1 0 1.000000
  0 -9.569149 34.572769 -33.161964 -1.000000 0.000000 0.000000 0.229056 0.549536 1 0 1.000000
barracuda
  0 -9.430252 35.408241 -34.628273 -0.809019 0.567754 0.152129 0.226429 0.559079 1 0 1.000000
  0 -9.569149 34.995312 -34.738911 -1.000000 0.000000 0.000000 0.229056 0.559079 1 0 1.000000
  0 -9.430252 34.985699 -33.051323 -0.809019 0.567754 0.152129 0.226429 0.549536 1 0 1.000000
barracuda
  0 -25.612940 41.146587 -37.511868 -0.202509 0.979018 0.022671 0.718342 0.510366 1 0 1.000000
  0 -27.653004 40.810047 -37.315941 -0.202509 0.979018 0.022671 0.717931 0.517619 1 0 1.000000
  0 -24.862202 41.359734 -36.124535 -0.202509 0.979018 0.022671 0.713324 0.507899 1 0 1.000000
barracuda
  0 -24.862202 41.359734 -36.124535 -0.202509 0.979018 0.022671 0.713324 0.507899 1 0 1.000000
  0 -27.653004 40.810047 -37.315941 -0.202509 0.979018 0.022671 0.717931 0.517619 1 0 1.000000
  0 -25.838734 41.017891 -33.971275 -0.202509 0.979018 0.022671 0.705832 0.511657 1 0 1.000000
barracuda
  0 17.066662 41.713520 -39.125217 -0.105196 0.946722 -0.304387 0.718135 0.358966 1 0 1.000000
  0 17.066662 41.713520 -36.337730 -0.111028 0.993141 -0.036650 0.708262 0.359352 1 0 1.000000
  0 26.135761 43.635292 -38.768845 -0.196474 0.936589 -0.290172 0.715615 0.326891 1 0 1.000000
barracuda
  0 26.135761 43.635292 -38.768845 -0.196474 0.936589 -0.290172 0.715615 0.326891 1 0 1.000000
  0 17.066662 41.713520 -36.337730 -0.111028 0.993141 -0.036650 0.708262 0.359352 1 0 1.000000
  0 26.135761 43.635292 -36.302437 -0.207300 0.978277 0.000000 0.706879 0.327233 1 0 1.000000
barracuda
  0 28.206997 42.625977 -41.172134 -0.168740 0.814301 -0.555374 0.721602 0.319197 1 0 1.000000
  0 17.066662 40.114429 -41.175751 -0.091632 0.830717 -0.549102 0.726833 0.358672 1 0 1.000000
  0 26.135761 43.635292 -38.768845 -0.196474 0.936589 -0.290172 0.715615 0.326891 1 0 1.000000
barracuda
  0 26.135761 43.635292 -38.768845 -0.196474 0.936589 -0.290172 0.715615 0.326891 1 0 1.000000
  0 17.066662 40.114429 -41.175751 -0.091632 0.830717 -0.549102 0.726833 0.358672 1 0 1.000000
  0 17.066662 41.713520 -39.125217 -0.105196 0.946722 -0.304387 0.718135 0.358966 1 0 1.000000
barracuda
  0 17.066662 40.114429 -41.175751 -0.091632 0.830717 -0.549102 0.726833 0.358672 1 0 1.000000
  0 -22.264904 39.760635 -41.156105 -0.013952 0.841937 -0.539395 0.730154 0.498044 1 0 1.000000
  0 17.066662 41.713520 -39.125217 -0.105196 0.946722 -0.304387 0.718135 0.358966 1 0 1.000000
barracuda
  0 17.066662 41.713520 -39.125217 -0.105196 0.946722 -0.304387 0.718135 0.358966 1 0 1.000000
  0 -22.264904 39.760635 -41.156105 -0.013952 0.841937 -0.539395 0.730154 0.498044 1 0 1.000000
  0 -25.612940 40.954826 -38.760010 -0.014188 0.948706 -0.315841 0.722763 0.510193 1 0 1.000000
barracuda
  0 17.066662 41.713520 -39.125217 -0.105196 0.946722 -0.304387 0.718135 0.358966 1 0 1.000000
  0 -25.612940 40.954826 -38.760010 -0.014188 0.948706 -0.315841 0.722763 0.510193 1 0 1.000000
  0 17.066662 41.713520 -36.337730 -0.111028 0.993141 -0.036650 0.708262 0.359352 1 0 1.000000
barracuda
  0 -25.612940 40.954826 -38.760010 -0.014188 0.948706 -0.315841 0.722763 0.510193 1 0 1.000000
  0 -25.612940 41.146587 -37.511868 -0.013553 0.997247 -0.072903 0.718342 0.510366 1 0 1.000000
  0 17.066662 41.713520 -36.337730 -0.111028 0.993141 -0.036650 0.708262 0.359352 1 0 1.000000
barracuda
  0 -24.862202 41.359734 -36.124535 -0.013553 0.997247 -0.072903 0.713324 0.507899 1 0 1.000000
  0 17.066662 41.713520 -36.337730 -0.111028 0.993141 -0.036650 0.708262 0.359352 1 0 1.000000
  0 -25.612940 41.146587 -37.511868 -0.013553 0.997247 -0.072903 0.718342 0.510366 1 0 1.000000
barracuda
  0 28.206997 42.625977 -41.172134 0.425490 0.904939 -0.006587 0.721602 0.319197 1 0 1.000000
  0 26.135761 43.635292 -38.768845 0.425490 0.904939 -0.006587 0.715615 0.326891 1 0 1.000000
  0 28.332466 42.625977 -35.534134 0.425490 0.904939 -0.006587 0.703852 0.319559 1 0 1.000000
barracuda
  0 28.332466 42.625977 -35.534134 0.425490 0.904939 -0.006587 0.703852 0.319559 1 0 1.000000
  0 26.135761 43.635292 -38.768845 0.425490 0.904939 -0.006587 0.715615 0.326891 1 0 1.000000
  0 26.135761 43.635292 -36.302437 0.425490 0.904939 -0.006587 0.706879 0.327233 1 0 1.000000
barracuda
  0 -25.612940 40.954826 -38.760010 -0.024320 0.910268 -0.413304 0.722763 0.510193 1 0 1.000000
  0 -22.264904 39.760635 -41.156105 -0.024320 0.910268 -0.413304 0.730154 0.498044 1 0 1.000000
  0 -27.912155 40.865334 -38.390793 -0.024320 0.910268 -0.413304 0.721774 0.518388 1 0 1.000000
barracuda
  0 -27.912155 40.865334 -38.390793 -0.024320 0.910268 -0.413304 0.721774 0.518388 1 0 1.000000
  0 -22.264904 39.760635 -41.156105 -0.024320 0.910268 -0.413304 0.730154 0.498044 1 0 1.000000
  0 -35.354942 39.767403 -40.801979 -0.024320 0.910268 -0.413304 0.730422 0.544453 1 0 1.000000
barracuda
  0 -8.253462 34.985699 -33.051323 0.000000 -0.258817 0.965926 0.242396 0.545515 1 0 1.000000
  0 -8.617111 35.240902 -32.982941 0.000000 -0.258817 0.965926 0.241497 0.543031 1 0 1.000000
  0 -8.114564 34.572769 -33.161964 0.000000 -0.258817 0.965926 0.241661 0.548000 1 0 1.000000
barracuda
  0 -8.617111 35.240902 -32.982941 0.000000 -0.258817 0.965926 0.241497 0.543031 1 0 1.000000
  0 -9.066602 35.240902 -32.982941 0.000000 -0.258817 0.965926 0.239309 0.541496 1 0 1.000000
  0 -8.114564 34.572769 -33.161964 0.000000 -0.258817 0.965926 0.241661 0.548000 1 0 1.000000
barracuda
  0 -9.066602 35.240902 -32.982941 0.000000 -0.258817 0.965926 0.239309 0.541496 1 0 1.000000
  0 -9.430252 34.985699 -33.051323 0.000000 -0.258817 0.965926 0.236667 0.541496 1 0 1.000000
  0 -8.114564 34.572769 -33.161964 0.000000 -0.258817 0.965926 0.241661 0.548000 1 0 1.000000
barracuda
  0 -9.430252 34.985699 -33.051323 0.000000 -0.258817 0.965926 0.236667 0.541496 1 0 1.000000
  0 -9.569149 34.572769 -33.161964 0.000000 -0.258817 0.965926 0.234580 0.543031 1 0 1.000000
  0 -8.114564 34.572769 -33.161964 0.000000 -0.258817 0.965926 0.241661 0.548000 1 0 1.000000
barracuda
  0 -9.569149 34.572769 -33.161964 0.000000 -0.258817 0.965926 0.234580 0.543031 1 0 1.000000
  0 -9.430252 34.159843 -33.272614 0.000000 -0.258817 0.965926 0.233846 0.545515 1 0 1.000000
  0 -8.114564 34.572769 -33.161964 0.000000 -0.258817 0.965926 0.241661 0.548000 1 0 1.000000
barracuda
  0 -9.430252 34.159843 -33.272614 0.000000 -0.258817 0.965926 0.233846 0.545515 1 0 1.000000
  0 -9.066602 33.904640 -33.340988 0.000000 -0.258817 0.965926 0.234744 0.548000 1 0 1.000000
  0 -8.114564 34.572769 -33.161964 0.000000 -0.258817 0.965926 0.241661 0.548000 1 0 1.000000
barracuda
  0 -9.066602 33.904640 -33.340988 0.000000 -0.258817 0.965926 0.234744 0.548000 1 0 1.000000
  0 -8.617111 33.904640 -33.340988 0.000000 -0.258817 0.965926 0.236936 0.549536 1 0 1.000000
  0 -8.114564 34.572769 -33.161964 0.000000 -0.258817 0.965926 0.241661 0.548000 1 0 1.000000
barracuda
  0 -8.617111 33.904640 -33.340988 0.000000 -0.258817 0.965926 0.236936 0.549536 1 0 1.000000
  0 -8.253462 34.159843 -33.272606 0.000000 -0.258817 0.965926 0.239571 0.549536 1 0 1.000000
  0 -8.114564 34.572769 -33.161964 0.000000 -0.258817 0.965926 0.241661 0.548000 1 0 1.000000
barracuda
  0 -8.253462 35.408241 -34.628273 -0.000001 0.258817 -0.965926 0.242396 0.563100 1 0 1.000000
  0 -8.114564 34.995312 -34.738911 -0.000001 0.258817 -0.965926 0.241661 0.560615 1 0 1.000000
  0 -8.617111 35.663445 -34.559891 -0.000001 0.258817 -0.965926 0.241497 0.565584 1 0 1.000000
barracuda
  0 -8.114564 34.995312 -34.738911 -0.000001 0.258817 -0.965926 0.241661 0.560615 1 0 1.000000
  0 -8.253462 34.582386 -34.849556 -0.000001 0.258817 -0.965926 0.239571 0.559079 1 0 1.000000
  0 -8.617111 35.663445 -34.559891 -0.000001 0.258817 -0.965926 0.241497 0.565584 1 0 1.000000
barracuda
  0 -8.253462 34.582386 -34.849556 -0.000001 0.258817 -0.965926 0.239571 0.559079 1 0 1.000000
  0 -8.617111 34.327187 -34.917938 -0.000001 0.258817 -0.965926 0.236936 0.559079 1 0 1.000000
  0 -8.617111 35.663445 -34.559891 -0.000001 0.258817 -0.965926 0.241497 0.565584 1 0 1.000000
barracuda
  0 -8.617111 34.327187 -34.917938 -0.000001 0.258817 -0.965926 0.236936 0.559079 1 0 1.000000
  0 -9.066602 34.327187 -34.917938 -0.000001 0.258817 -0.965926 0.234744 0.560615 1 0 1.000000
  0 -8.617111 35.663445 -34.559891 -0.000001 0.258817 -0.965926 0.241497 0.565584 1 0 1.000000
barracuda
  0 -9.066602 34.327187 -34.917938 -0.000001 0.258817 -0.965926 0.234744 0.560615 1 0 1.000000
  0 -9.430252 34.582386 -34.849556 -0.000001 0.258817 -0.965926 0.233846 0.563099 1 0 1.000000
  0 -8.617111 35.663445 -34.559891 -0.000001 0.258817 -0.965926 0.241497 0.565584 1 0 1.000000
barracuda
  0 -9.430252 34.582386 -34.849556 -0.000001 0.258817 -0.965926 0.233846 0.563099 1 0 1.000000
  0 -9.569149 34.995312 -34.738911 -0.000001 0.258817 -0.965926 0.234580 0.565584 1 0 1.000000
  0 -8.617111 35.663445 -34.559891 -0.000001 0.258817 -0.965926 0.241497 0.565584 1 0 1.000000
barracuda
  0 -9.569149 34.995312 -34.738911 -0.000001 0.258817 -0.965926 0.234580 0.565584 1 0 1.000000
  0 -9.430252 35.408241 -34.628273 -0.000001 0.258817 -0.965926 0.236667 0.567120 1 0 1.000000
  0 -8.617111 35.663445 -34.559891 -0.000001 0.258817 -0.965926 0.241497 0.565584 1 0 1.000000
barracuda
  0 -9.430252 35.408241 -34.628273 -0.000001 0.258817 -0.965926 0.236667 0.567120 1 0 1.000000
  0 -9.066602 35.663445 -34.559891 -0.000001 0.258817 -0.965926 0.239309 0.567120 1 0 1.000000
  0 -8.617111 35.663445 -34.559891 -0.000001 0.258817 -0.965926 0.241497 0.565584 1 0 1.000000
barracuda
  0 -12.073816 33.912575 -34.884636 0.000001 -0.258819 0.965926 0.261270 0.536277 1 0 1.000000
  0 -11.721747 34.959213 -34.604187 0.000001 -0.258819 0.965926 0.255971 0.540169 1 0 1.000000
  0 -12.995553 33.265713 -35.057957 0.000001 -0.258819 0.965926 0.267949 0.536277 1 0 1.000000
barracuda
  0 -11.721747 34.959213 -34.604187 0.000001 -0.258819 0.965926 0.255971 0.540169 1 0 1.000000
  0 -12.073816 36.005852 -34.323742 0.000001 -0.258819 0.965926 0.254110 0.546467 1 0 1.000000
  0 -12.995553 33.265713 -35.057957 0.000001 -0.258819 0.965926 0.267949 0.536277 1 0 1.000000
barracuda
  0 -12.073816 36.005852 -34.323742 0.000001 -0.258819 0.965926 0.254110 0.546467 1 0 1.000000
  0 -12.995553 36.652710 -34.150414 0.000001 -0.258819 0.965926 0.256387 0.552764 1 0 1.000000
  0 -12.995553 33.265713 -35.057957 0.000001 -0.258819 0.965926 0.267949 0.536277 1 0 1.000000
barracuda
  0 -12.995553 36.652710 -34.150414 0.000001 -0.258819 0.965926 0.256387 0.552764 1 0 1.000000
  0 -14.134874 36.652710 -34.150414 0.000001 -0.258819 0.965926 0.261934 0.556657 1 0 1.000000
  0 -12.995553 33.265713 -35.057957 0.000001 -0.258819 0.965926 0.267949 0.536277 1 0 1.000000
barracuda
  0 -14.134874 36.652710 -34.150414 0.000001 -0.258819 0.965926 0.261934 0.556657 1 0 1.000000
  0 -15.056610 36.005852 -34.323742 0.000001 -0.258819 0.965926 0.268630 0.556657 1 0 1.000000
  0 -12.995553 33.265713 -35.057957 0.000001 -0.258819 0.965926 0.267949 0.536277 1 0 1.000000
barracuda
  0 -15.056610 36.005852 -34.323742 0.000001 -0.258819 0.965926 0.268630 0.556657 1 0 1.000000
  0 -15.408679 34.959213 -34.604187 0.000001 -0.258819 0.965926 0.273919 0.552765 1 0 1.000000
  0 -12.995553 33.265713 -35.057957 0.000001 -0.258819 0.965926 0.267949 0.536277 1 0 1.000000
barracuda
  0 -15.408679 34.959213 -34.604187 0.000001 -0.258819 0.965926 0.273919 0.552765 1 0 1.000000
  0 -15.056610 33.912575 -34.884636 0.000001 -0.258819 0.965926 0.275781 0.546467 1 0 1.000000
  0 -12.995553 33.265713 -35.057957 0.000001 -0.258819 0.965926 0.267949 0.536277 1 0 1.000000
barracuda
  0 -15.056610 33.912575 -34.884636 0.000001 -0.258819 0.965926 0.275781 0.546467 1 0 1.000000
  0 -14.134874 33.265713 -35.057957 0.000001 -0.258819 0.965926 0.273504 0.540169 1 0 1.000000
  0 -12.995553 33.265713 -35.057957 0.000001 -0.258819 0.965926 0.267949 0.536277 1 0 1.000000
barracuda
  0 28.206997 42.625977 -41.172134 -0.031878 0.224932 -0.973853 0.721602 0.319197 1 0 1.000000
  0 25.581730 37.547600 -42.185951 -0.025646 0.221790 -0.974757 0.737366 0.328478 1 0 1.000000
  0 17.066662 40.114429 -41.175751 -0.026850 0.240996 -0.970155 0.726833 0.358672 1 0 1.000000
barracuda
  0 17.066662 40.114429 -41.175751 -0.026850 0.240996 -0.970155 0.726833 0.358672 1 0 1.000000
  0 25.581730 37.547600 -42.185951 -0.025646 0.221790 -0.974757 0.737366 0.328478 1 0 1.000000
  0 20.440105 37.584595 -42.102570 -0.026850 0.240996 -0.970155 0.737235 0.346704 1 0 1.000000
barracuda
  0 -22.264904 39.760635 -41.156105 -0.012001 0.238846 -0.970983 0.730154 0.498044 1 0 1.000000
  0 17.066662 40.114429 -41.175751 -0.026850 0.240996 -0.970155 0.726833 0.358672 1 0 1.000000
  0 20.440105 37.584595 -42.102570 -0.026850 0.240996 -0.970155 0.737235 0.346704 1 0 1.000000
barracuda
  0 20.480030 35.787689 -42.502441 -0.011615 0.230592 -0.972981 0.743605 0.346563 1 0 1.000000
  0 -22.264904 39.760635 -41.156105 -0.012001 0.238846 -0.970983 0.730154 0.498044 1 0 1.000000
  0 20.440105 37.584595 -42.102570 -0.026850 0.240996 -0.970155 0.737235 0.346704 1 0 1.000000
barracuda
  0 -35.354942 39.767403 -40.801979 -0.012001 0.238846 -0.970983 0.730422 0.544453 1 0 1.000000
  0 -22.264904 39.760635 -41.156105 -0.012001 0.238846 -0.970983 0.730154 0.498044 1 0 1.000000
  0 20.480030 35.787689 -42.502441 -0.011615 0.230592 -0.972981 0.743605 0.346563 1 0 1.000000
barracuda
  0 -37.998013 31.809340 -42.733135 -0.011615 0.230592 -0.972981 0.757710 0.553858 1 0 1.000000
  0 -35.354942 39.767403 -40.801979 -0.012001 0.238846 -0.970983 0.730422 0.544453 1 0 1.000000
  0 20.480030 35.787689 -42.502441 -0.011615 0.230592 -0.972981 0.743605 0.346563 1 0 1.000000
barracuda
  0 -37.998013 31.809340 -42.733135 -0.011615 0.230592 -0.972981 0.757710 0.553858 1 0 1.000000
  0 20.480030 35.787689 -42.502441 -0.011615 0.230592 -0.972981 0.743605 0.346563 1 0 1.000000
  0 20.514080 34.255482 -42.843422 -0.011229 0.222321 -0.974909 0.749036 0.346442 1 0 1.000000
barracuda
  0 25.618721 34.292473 -42.904755 -0.012210 0.218889 -0.975673 0.748905 0.328347 1 0 1.000000
  0 -37.998013 31.809340 -42.733135 -0.011615 0.230592 -0.972981 0.757710 0.553858 1 0 1.000000
  0 20.514080 34.255482 -42.843422 -0.011229 0.222321 -0.974909 0.749036 0.346442 1 0 1.000000
barracuda
  0 30.663891 32.654839 -43.334274 -0.014912 0.214986 -0.976503 0.754697 0.310462 1 0 1.000000
  0 -37.998013 31.809340 -42.733135 -0.011615 0.230592 -0.972981 0.757710 0.553858 1 0 1.000000
  0 25.618721 34.292473 -42.904755 -0.012210 0.218889 -0.975673 0.748905 0.328347 1 0 1.000000
barracuda
  0 30.663891 32.654839 -43.334274 -0.014912 0.214986 -0.976503 0.754697 0.310462 1 0 1.000000
  0 25.618721 34.292473 -42.904755 -0.012210 0.218889 -0.975673 0.748905 0.328347 1 0 1.000000
  0 25.601109 35.842087 -42.562584 -0.013185 0.215465 -0.976422 0.743412 0.328409 1 0 1.000000
barracuda
  0 30.663891 32.654839 -43.334274 -0.014912 0.214986 -0.976503 0.754697 0.310462 1 0 1.000000
  0 25.601109 35.842087 -42.562584 -0.013185 0.215465 -0.976422 0.743412 0.328409 1 0 1.000000
  0 25.581730 37.547600 -42.185951 -0.025646 0.221790 -0.974757 0.737366 0.328478 1 0 1.000000
barracuda
  0 30.663891 32.654839 -43.334274 -0.014912 0.214986 -0.976503 0.754697 0.310462 1 0 1.000000
  0 25.581730 37.547600 -42.185951 -0.025646 0.221790 -0.974757 0.737366 0.328478 1 0 1.000000
  0 28.206997 42.625977 -41.172134 -0.031878 0.224932 -0.973853 0.721602 0.319197 1 0 1.000000
barracuda
  0 -15.056610 36.273071 -35.321022 -0.809017 0.567756 0.152132 0.294580 0.530241 1 0 1.000000
  0 -15.408679 34.959213 -34.604187 -1.000000 0.000000 0.000000 0.287920 0.536277 1 0 1.000000
  0 -15.056610 36.005852 -34.323742 -0.809017 0.567756 0.152132 0.294580 0.536277 1 0 1.000000
barracuda
  0 -15.408679 35.226433 -35.601471 -1.000000 0.000000 0.000000 0.287920 0.530241 1 0 1.000000
  0 -15.408679 34.959213 -34.604187 -1.000000 0.000000 0.000000 0.287920 0.536277 1 0 1.000000
  0 -15.056610 36.273071 -35.321022 -0.809017 0.567756 0.152132 0.294580 0.530241 1 0 1.000000
barracuda
  0 -15.408679 35.226433 -35.601471 -1.000000 0.000000 0.000000 0.287920 0.530241 1 0 1.000000
  0 -15.056610 33.912575 -34.884636 -0.809017 -0.567757 -0.152131 0.281260 0.536277 1 0 1.000000
  0 -15.408679 34.959213 -34.604187 -1.000000 0.000000 0.000000 0.287920 0.536277 1 0 1.000000
barracuda
  0 -15.056610 34.179794 -35.881920 -0.809017 -0.567757 -0.152131 0.281260 0.530241 1 0 1.000000
  0 -15.056610 33.912575 -34.884636 -0.809017 -0.567757 -0.152131 0.281260 0.536277 1 0 1.000000
  0 -15.408679 35.226433 -35.601471 -1.000000 0.000000 0.000000 0.287920 0.530241 1 0 1.000000
barracuda
  0 -15.056610 34.179794 -35.881920 -0.809017 -0.567757 -0.152131 0.281260 0.530241 1 0 1.000000
  0 -14.134874 33.265713 -35.057957 -0.309016 -0.918650 -0.246152 0.274600 0.536277 1 0 1.000000
  0 -15.056610 33.912575 -34.884636 -0.809017 -0.567757 -0.152131 0.281260 0.536277 1 0 1.000000
barracuda
  0 -14.134874 33.532936 -36.055244 -0.309016 -0.918650 -0.246152 0.274600 0.530241 1 0 1.000000
  0 -14.134874 33.265713 -35.057957 -0.309016 -0.918650 -0.246152 0.274600 0.536277 1 0 1.000000
  0 -15.056610 34.179794 -35.881920 -0.809017 -0.567757 -0.152131 0.281260 0.530241 1 0 1.000000
barracuda
  0 -14.134874 33.532936 -36.055244 -0.309016 -0.918650 -0.246152 0.274600 0.530241 1 0 1.000000
  0 -12.995553 33.265713 -35.057957 0.309016 -0.918650 -0.246152 0.267949 0.536277 1 0 1.000000
  0 -14.134874 33.265713 -35.057957 -0.309016 -0.918650 -0.246152 0.274600 0.536277 1 0 1.000000
barracuda
  0 -12.995553 33.532936 -36.055244 0.309016 -0.918650 -0.246152 0.267940 0.530241 1 0 1.000000
  0 -12.995553 33.265713 -35.057957 0.309016 -0.918650 -0.246152 0.267949 0.536277 1 0 1.000000
  0 -14.134874 33.532936 -36.055244 -0.309016 -0.918650 -0.246152 0.274600 0.530241 1 0 1.000000
barracuda
  0 -12.995553 33.532936 -36.055244 0.309016 -0.918650 -0.246152 0.267940 0.530241 1 0 1.000000
  0 -12.073816 33.912575 -34.884636 0.809017 -0.567757 -0.152130 0.261270 0.536277 1 0 1.000000
  0 -12.995553 33.265713 -35.057957 0.309016 -0.918650 -0.246152 0.267949 0.536277 1 0 1.000000
barracuda
  0 -12.073816 34.179794 -35.881920 0.809017 -0.567757 -0.152130 0.261279 0.530241 1 0 1.000000
  0 -12.073816 33.912575 -34.884636 0.809017 -0.567757 -0.152130 0.261270 0.536277 1 0 1.000000
  0 -12.995553 33.532936 -36.055244 0.309016 -0.918650 -0.246152 0.267940 0.530241 1 0 1.000000
barracuda
  0 -12.073816 34.179794 -35.881920 0.809017 -0.567757 -0.152130 0.261279 0.530241 1 0 1.000000
  0 -11.721747 34.959213 -34.604187 1.000000 0.000000 0.000000 0.254620 0.536277 1 0 1.000000
  0 -12.073816 33.912575 -34.884636 0.809017 -0.567757 -0.152130 0.261270 0.536277 1 0 1.000000
barracuda
  0 -11.721747 35.226433 -35.601471 1.000000 0.000000 0.000000 0.254619 0.530241 1 0 1.000000
  0 -11.721747 34.959213 -34.604187 1.000000 0.000000 0.000000 0.254620 0.536277 1 0 1.000000
  0 -12.073816 34.179794 -35.881920 0.809017 -0.567757 -0.152130 0.261279 0.530241 1 0 1.000000
barracuda
  0 -11.721747 35.226433 -35.601471 1.000000 0.000000 0.000000 0.254619 0.530241 1 0 1.000000
  0 -12.073816 36.005852 -34.323742 0.809017 0.567757 0.152132 0.247959 0.536276 1 0 1.000000
  0 -11.721747 34.959213 -34.604187 1.000000 0.000000 0.000000 0.254620 0.536277 1 0 1.000000
barracuda
  0 -12.073816 36.273071 -35.321022 0.809017 0.567757 0.152132 0.247959 0.530241 1 0 1.000000
  0 -12.073816 36.005852 -34.323742 0.809017 0.567757 0.152132 0.247959 0.536276 1 0 1.000000
  0 -11.721747 35.226433 -35.601471 1.000000 0.000000 0.000000 0.254619 0.530241 1 0 1.000000
barracuda
  0 -12.073816 36.273071 -35.321022 0.809017 0.567757 0.152132 0.247959 0.530241 1 0 1.000000
  0 -12.995553 36.652710 -34.150414 0.309016 0.918649 0.246155 0.241299 0.536276 1 0 1.000000
  0 -12.073816 36.005852 -34.323742 0.809017 0.567757 0.152132 0.247959 0.536276 1 0 1.000000
barracuda
  0 -12.995553 36.919933 -35.147697 0.309016 0.918649 0.246155 0.241299 0.530241 1 0 1.000000
  0 -12.995553 36.652710 -34.150414 0.309016 0.918649 0.246155 0.241299 0.536276 1 0 1.000000
  0 -12.073816 36.273071 -35.321022 0.809017 0.567757 0.152132 0.247959 0.530241 1 0 1.000000
barracuda
  0 -12.995553 36.919933 -35.147697 0.309016 0.918649 0.246155 0.241299 0.530241 1 0 1.000000
  0 -14.134874 36.652710 -34.150414 -0.309017 0.918649 0.246155 0.234639 0.536277 1 0 1.000000
  0 -12.995553 36.652710 -34.150414 0.309016 0.918649 0.246155 0.241299 0.536276 1 0 1.000000
barracuda
  0 -14.134874 36.919933 -35.147697 -0.309017 0.918649 0.246155 0.234639 0.530241 1 0 1.000000
  0 -14.134874 36.652710 -34.150414 -0.309017 0.918649 0.246155 0.234639 0.536277 1 0 1.000000
  0 -12.995553 36.919933 -35.147697 0.309016 0.918649 0.246155 0.241299 0.530241 1 0 1.000000
barracuda
  0 -14.134874 36.919933 -35.147697 -0.309017 0.918649 0.246155 0.234639 0.530241 1 0 1.000000
  0 -15.056610 36.005852 -34.323742 -0.809017 0.567756 0.152132 0.227978 0.536276 1 0 1.000000
  0 -14.134874 36.652710 -34.150414 -0.309017 0.918649 0.246155 0.234639 0.536277 1 0 1.000000
barracuda
  0 -15.056610 36.273071 -35.321022 -0.809017 0.567756 0.152132 0.227978 0.530241 1 0 1.000000
  0 -15.056610 36.005852 -34.323742 -0.809017 0.567756 0.152132 0.227978 0.536276 1 0 1.000000
  0 -14.134874 36.919933 -35.147697 -0.309017 0.918649 0.246155 0.234639 0.530241 1 0 1.000000
end
