version 1
nodes
0 "polySurface21_3637" -1
end
skeleton
time 0
0  0.000000 0.000000 0.000000  0.000000 -0.000000 0.000000
end
triangles
  phy
0  28.426722 12.630637 -41.836048  -0.981759 0.010934 -0.189816  0.000000 0.000000 1 0 1.000000
0  -35.458401 12.630637 -40.104034  -0.856726 -0.160524 -0.490155  0.000000 0.000000 1 0 1.000000
0  -38.338165 31.316849 -42.137611  -0.996570 -0.072732 -0.039477  0.000000 0.000000 1 0 1.000000
  phy
0  28.426722 12.630637 -41.836048  -0.981759 0.010934 -0.189816  0.000000 0.000000 1 0 1.000000
0  -38.338165 31.316849 -42.137611  -0.996570 -0.072732 -0.039477  0.000000 0.000000 1 0 1.000000
0  30.932133 31.734619 -43.059311  -0.992301 0.114729 0.046648  0.000000 0.000000 1 0 1.000000
  phy
0  28.426722 12.630637 -41.836048  -0.981759 0.010934 -0.189816  0.000000 0.000000 1 0 1.000000
0  28.426722 12.630637 -37.777546  0.870260 0.171696 -0.461700  0.000000 0.000000 1 0 1.000000
0  -35.458401 12.630637 -40.104034  -0.856726 -0.160524 -0.490155  0.000000 0.000000 1 0 1.000000
  phy
0  28.426722 12.630637 -41.836048  -0.981759 0.010934 -0.189816  0.000000 0.000000 1 0 1.000000
0  30.932133 31.734619 -43.059311  -0.992301 0.114729 0.046648  0.000000 0.000000 1 0 1.000000
0  28.426722 12.630637 -37.777546  0.870260 0.171696 -0.461700  0.000000 0.000000 1 0 1.000000
  phy
0  28.474363 41.457798 -35.800404  0.990097 0.053895 0.129626  0.000000 0.000000 1 0 1.000000
0  30.932133 31.734619 -43.059311  -0.992301 0.114729 0.046648  0.000000 0.000000 1 0 1.000000
0  28.474363 41.457798 -41.369331  -0.606315 0.030437 0.794641  0.000000 0.000000 1 0 1.000000
  phy
0  30.932133 31.734617 -36.253750  0.989922 0.124115 -0.068194  0.000000 0.000000 1 0 1.000000
0  30.932133 31.734619 -43.059311  -0.992301 0.114729 0.046648  0.000000 0.000000 1 0 1.000000
0  28.474363 41.457798 -35.800404  0.990097 0.053895 0.129626  0.000000 0.000000 1 0 1.000000
  phy
0  28.474363 41.457798 -41.369331  -0.606315 0.030437 0.794641  0.000000 0.000000 1 0 1.000000
0  -35.336323 40.049152 -35.475941  0.937718 -0.031033 0.346008  0.000000 0.000000 1 0 1.000000
0  28.474363 41.457798 -35.800404  0.990097 0.053895 0.129626  0.000000 0.000000 1 0 1.000000
  phy
0  28.474363 41.457798 -35.800404  0.990097 0.053895 0.129626  0.000000 0.000000 1 0 1.000000
0  -35.458397 12.630637 -36.045532  0.993118 -0.008123 -0.116834  0.000000 0.000000 1 0 1.000000
0  30.932133 31.734617 -36.253750  0.989922 0.124115 -0.068194  0.000000 0.000000 1 0 1.000000
  phy
0  28.474363 41.457798 -35.800404  0.990097 0.053895 0.129626  0.000000 0.000000 1 0 1.000000
0  -35.336323 40.049152 -35.475941  0.937718 -0.031033 0.346008  0.000000 0.000000 1 0 1.000000
0  -35.458397 12.630637 -36.045532  0.993118 -0.008123 -0.116834  0.000000 0.000000 1 0 1.000000
  phy
0  -35.458401 12.630637 -40.104034  -0.856726 -0.160524 -0.490155  0.000000 0.000000 1 0 1.000000
0  28.426722 12.630637 -37.777546  0.870260 0.171696 -0.461700  0.000000 0.000000 1 0 1.000000
0  -35.458397 12.630637 -36.045532  0.993118 -0.008123 -0.116834  0.000000 0.000000 1 0 1.000000
  phy
0  30.932133 31.734617 -36.253750  0.989922 0.124115 -0.068194  0.000000 0.000000 1 0 1.000000
0  -35.458397 12.630637 -36.045532  0.993118 -0.008123 -0.116834  0.000000 0.000000 1 0 1.000000
0  28.426722 12.630637 -37.777546  0.870260 0.171696 -0.461700  0.000000 0.000000 1 0 1.000000
  phy
0  28.426722 12.630637 -37.777546  0.870260 0.171696 -0.461700  0.000000 0.000000 1 0 1.000000
0  30.932133 31.734619 -43.059311  -0.992301 0.114729 0.046648  0.000000 0.000000 1 0 1.000000
0  30.932133 31.734617 -36.253750  0.989922 0.124115 -0.068194  0.000000 0.000000 1 0 1.000000
  phy
0  -35.336327 40.049152 -40.838322  -0.901467 -0.091528 0.423061  0.000000 0.000000 1 0 1.000000
0  28.474363 41.457798 -41.369331  -0.606315 0.030437 0.794641  0.000000 0.000000 1 0 1.000000
0  30.932133 31.734619 -43.059311  -0.992301 0.114729 0.046648  0.000000 0.000000 1 0 1.000000
  phy
0  -35.336327 40.049152 -40.838322  -0.901467 -0.091528 0.423061  0.000000 0.000000 1 0 1.000000
0  -35.336323 40.049152 -35.475941  0.937718 -0.031033 0.346008  0.000000 0.000000 1 0 1.000000
0  28.474363 41.457798 -41.369331  -0.606315 0.030437 0.794641  0.000000 0.000000 1 0 1.000000
  phy
0  -35.336323 40.049152 -35.475941  0.937718 -0.031033 0.346008  0.000000 0.000000 1 0 1.000000
0  -35.336327 40.049152 -40.838322  -0.901467 -0.091528 0.423061  0.000000 0.000000 1 0 1.000000
0  -38.338161 31.316847 -35.955372  0.261081 -0.965252 0.011225  0.000000 0.000000 1 0 1.000000
  phy
0  -38.338161 31.316847 -35.955372  0.261081 -0.965252 0.011225  0.000000 0.000000 1 0 1.000000
0  -35.336327 40.049152 -40.838322  -0.901467 -0.091528 0.423061  0.000000 0.000000 1 0 1.000000
0  -38.338165 31.316849 -42.137611  -0.996570 -0.072732 -0.039477  0.000000 0.000000 1 0 1.000000
  phy
0  -35.458401 12.630637 -40.104034  -0.856726 -0.160524 -0.490155  0.000000 0.000000 1 0 1.000000
0  -38.338161 31.316847 -35.955372  0.261081 -0.965252 0.011225  0.000000 0.000000 1 0 1.000000
0  -38.338165 31.316849 -42.137611  -0.996570 -0.072732 -0.039477  0.000000 0.000000 1 0 1.000000
  phy
0  -38.338161 31.316847 -35.955372  0.261081 -0.965252 0.011225  0.000000 0.000000 1 0 1.000000
0  -35.458401 12.630637 -40.104034  -0.856726 -0.160524 -0.490155  0.000000 0.000000 1 0 1.000000
0  -35.458397 12.630637 -36.045532  0.993118 -0.008123 -0.116834  0.000000 0.000000 1 0 1.000000
  phy
0  -35.458397 12.630637 -36.045532  0.993118 -0.008123 -0.116834  0.000000 0.000000 1 0 1.000000
0  -35.336323 40.049152 -35.475941  0.937718 -0.031033 0.346008  0.000000 0.000000 1 0 1.000000
0  -38.338161 31.316847 -35.955372  0.261081 -0.965252 0.011225  0.000000 0.000000 1 0 1.000000
  phy
0  -38.338165 31.316849 -42.137611  -0.996570 -0.072732 -0.039477  0.000000 0.000000 1 0 1.000000
0  -35.336327 40.049152 -40.838322  -0.901467 -0.091528 0.423061  0.000000 0.000000 1 0 1.000000
0  30.932133 31.734619 -43.059311  -0.992301 0.114729 0.046648  0.000000 0.000000 1 0 1.000000
end
