// Created by Crowbar 0.74
version 1
nodes
  0 "polySurface6" -1
end
skeleton
  time 0
    0 0.000000 0.000000 0.000000 0.000000 0.000000 0.000000
end
triangles
wood_door02_old
  0 53.330959 36.151276 -1.033489 -1.000000 0.000000 0.000000 0.832710 0.791664 1 0 1.000000
  0 53.330959 47.676441 -1.033489 -1.000000 0.000000 0.000000 0.630229 0.791664 1 0 1.000000
  0 53.330959 36.151276 -1.620120 -1.000000 0.000000 0.000000 0.832710 0.781358 1 0 1.000000
wood_door02_old
  0 53.330959 36.151276 -1.620120 -1.000000 0.000000 0.000000 0.832710 0.781358 1 0 1.000000
  0 53.330959 47.676441 -1.033489 -1.000000 0.000000 0.000000 0.630229 0.791664 1 0 1.000000
  0 53.330959 47.676441 -1.620120 -1.000000 0.000000 0.000000 0.630229 0.781358 1 0 1.000000
wood_door02_old
  0 58.620728 47.676441 0.983008 0.000000 1.000000 0.000000 0.619923 0.781358 1 0 1.000000
  0 53.330963 47.676441 0.983008 0.000000 1.000000 0.000000 0.619923 0.688424 1 0 1.000000
  0 58.620728 47.676441 1.569640 0.000000 1.000000 0.000000 0.630229 0.781358 1 0 1.000000
wood_door02_old
  0 58.620728 47.676441 1.569640 0.000000 1.000000 0.000000 0.630229 0.781358 1 0 1.000000
  0 53.330963 47.676441 0.983008 0.000000 1.000000 0.000000 0.619923 0.688424 1 0 1.000000
  0 53.330963 47.676441 1.569640 0.000000 1.000000 0.000000 0.630229 0.688424 1 0 1.000000
wood_door02_old
  0 53.330963 36.151276 1.569640 -1.000000 0.000000 0.000000 0.832710 0.688424 1 0 1.000000
  0 53.330963 47.676441 1.569640 -1.000000 0.000000 0.000000 0.630229 0.688424 1 0 1.000000
  0 53.330963 36.151276 0.983008 -1.000000 0.000000 0.000000 0.832710 0.678118 1 0 1.000000
wood_door02_old
  0 53.330963 36.151276 0.983008 -1.000000 0.000000 0.000000 0.832710 0.678118 1 0 1.000000
  0 53.330963 47.676441 1.569640 -1.000000 0.000000 0.000000 0.630229 0.688424 1 0 1.000000
  0 53.330963 47.676441 0.983008 -1.000000 0.000000 0.000000 0.630230 0.678118 1 0 1.000000
wood_door02_old
  0 58.620728 36.151276 1.569640 0.000000 0.000000 1.000000 0.832710 0.781358 1 0 1.000000
  0 58.620728 47.676441 1.569640 0.000000 0.000000 1.000000 0.630229 0.781358 1 0 1.000000
  0 53.330963 36.151276 1.569640 0.000000 0.000000 1.000000 0.832710 0.688424 1 0 1.000000
wood_door02_old
  0 53.330963 36.151276 1.569640 0.000000 0.000000 1.000000 0.832710 0.688424 1 0 1.000000
  0 58.620728 47.676441 1.569640 0.000000 0.000000 1.000000 0.630229 0.781358 1 0 1.000000
  0 53.330963 47.676441 1.569640 0.000000 0.000000 1.000000 0.630229 0.688424 1 0 1.000000
wood_door02_old
  0 58.620728 36.151276 0.983008 1.000000 0.000000 0.000000 0.832710 0.791664 1 0 1.000000
  0 58.620728 47.676441 0.983008 1.000000 0.000000 0.000000 0.630229 0.791664 1 0 1.000000
  0 58.620728 36.151276 1.569640 1.000000 0.000000 0.000000 0.832710 0.781358 1 0 1.000000
wood_door02_old
  0 58.620728 36.151276 1.569640 1.000000 0.000000 0.000000 0.832710 0.781358 1 0 1.000000
  0 58.620728 47.676441 0.983008 1.000000 0.000000 0.000000 0.630229 0.791664 1 0 1.000000
  0 58.620728 47.676441 1.569640 1.000000 0.000000 0.000000 0.630229 0.781358 1 0 1.000000
wood_door02_old
  0 55.970402 43.612164 5.922299 0.000001 -0.091296 0.995824 0.967937 0.605748 1 0 1.000000
  0 56.653820 43.895245 5.922299 0.064557 -0.064557 0.995824 0.989712 0.614767 1 0 1.000000
  0 55.970402 44.578667 5.566641 -0.000001 -0.000001 1.000000 0.967937 0.636543 1 0 1.000000
wood_door02_old
  0 56.653820 43.895245 5.922299 0.064557 -0.064557 0.995824 0.989712 0.614767 1 0 1.000000
  0 56.936901 44.578667 5.922299 0.091296 -0.000001 0.995824 0.998731 0.636543 1 0 1.000000
  0 55.970402 44.578667 5.566641 -0.000001 -0.000001 1.000000 0.967937 0.636543 1 0 1.000000
wood_door02_old
  0 56.936901 44.578667 5.922299 0.091296 -0.000001 0.995824 0.998731 0.636543 1 0 1.000000
  0 56.653820 45.262085 5.922299 0.064555 0.064556 0.995824 0.989712 0.658318 1 0 1.000000
  0 55.970402 44.578667 5.566641 -0.000001 -0.000001 1.000000 0.967937 0.636543 1 0 1.000000
wood_door02_old
  0 56.653820 45.262085 5.922299 0.064555 0.064556 0.995824 0.989712 0.658318 1 0 1.000000
  0 55.970402 45.545166 5.922299 0.000000 0.091297 0.995824 0.967937 0.667337 1 0 1.000000
  0 55.970402 44.578667 5.566641 -0.000001 -0.000001 1.000000 0.967937 0.636543 1 0 1.000000
wood_door02_old
  0 55.970402 45.545166 5.922299 0.000000 0.091297 0.995824 0.967937 0.667337 1 0 1.000000
  0 55.286980 45.262085 5.922299 -0.064557 0.064557 0.995824 0.946162 0.658318 1 0 1.000000
  0 55.970402 44.578667 5.566641 -0.000001 -0.000001 1.000000 0.967937 0.636543 1 0 1.000000
wood_door02_old
  0 55.286980 45.262085 5.922299 -0.064557 0.064557 0.995824 0.946162 0.658318 1 0 1.000000
  0 55.003899 44.578667 5.922299 -0.091298 -0.000001 0.995824 0.937142 0.636543 1 0 1.000000
  0 55.970402 44.578667 5.566641 -0.000001 -0.000001 1.000000 0.967937 0.636543 1 0 1.000000
wood_door02_old
  0 55.003899 44.578667 5.922299 -0.091298 -0.000001 0.995824 0.937142 0.636543 1 0 1.000000
  0 55.286980 43.895245 5.922299 -0.064557 -0.064557 0.995824 0.946162 0.614767 1 0 1.000000
  0 55.970402 44.578667 5.566641 -0.000001 -0.000001 1.000000 0.967937 0.636543 1 0 1.000000
wood_door02_old
  0 55.286980 43.895245 5.922299 -0.064557 -0.064557 0.995824 0.946162 0.614767 1 0 1.000000
  0 55.970402 43.612164 5.922299 0.000001 -0.091296 0.995824 0.967937 0.605748 1 0 1.000000
  0 55.970402 44.578667 5.566641 -0.000001 -0.000001 1.000000 0.967937 0.636543 1 0 1.000000
wood_door02_old
  0 55.286980 45.262085 5.922299 -0.064557 0.064557 0.995824 0.939615 0.795188 1 0 1.000000
  0 54.296371 44.578667 5.496960 -0.792345 0.000001 0.610073 0.956559 0.775958 1 0 1.000000
  0 55.003899 44.578667 5.922299 -0.091298 -0.000001 0.995824 0.956559 0.795188 1 0 1.000000
wood_door02_old
  0 55.003899 44.578667 5.922299 -0.091298 -0.000001 0.995824 0.956559 0.795188 1 0 1.000000
  0 54.786682 43.394943 5.496960 -0.560272 -0.560272 0.610075 0.973502 0.775958 1 0 1.000000
  0 55.286980 43.895245 5.922299 -0.064557 -0.064557 0.995824 0.973502 0.795188 1 0 1.000000
wood_door02_old
  0 54.296371 44.578667 5.496960 -0.792345 0.000001 0.610073 0.956559 0.775958 1 0 1.000000
  0 54.786682 43.394943 5.496960 -0.560272 -0.560272 0.610075 0.973502 0.775958 1 0 1.000000
  0 55.003899 44.578667 5.922299 -0.091298 -0.000001 0.995824 0.956559 0.795188 1 0 1.000000
wood_door02_old
  0 54.296371 44.578667 5.496960 -0.792345 0.000001 0.610073 0.956559 0.775958 1 0 1.000000
  0 54.603561 43.211826 4.530458 -0.707107 -0.707107 0.000000 0.973502 0.756728 1 0 1.000000
  0 54.786682 43.394943 5.496960 -0.560272 -0.560272 0.610075 0.973502 0.775958 1 0 1.000000
wood_door02_old
  0 55.970402 45.545166 5.922299 0.000000 0.091297 0.995824 0.922672 0.795188 1 0 1.000000
  0 54.786682 45.762383 5.496960 -0.560272 0.560273 0.610074 0.939615 0.775958 1 0 1.000000
  0 55.286980 45.262085 5.922299 -0.064557 0.064557 0.995824 0.939615 0.795188 1 0 1.000000
wood_door02_old
  0 54.786682 45.762383 5.496960 -0.560272 0.560273 0.610074 0.939615 0.775958 1 0 1.000000
  0 54.296371 44.578667 5.496960 -0.792345 0.000001 0.610073 0.956559 0.775958 1 0 1.000000
  0 55.286980 45.262085 5.922299 -0.064557 0.064557 0.995824 0.939615 0.795188 1 0 1.000000
wood_door02_old
  0 54.786682 45.762383 5.496960 -0.560272 0.560273 0.610074 0.939615 0.775958 1 0 1.000000
  0 54.037399 44.578667 4.530458 -1.000000 0.000001 -0.000001 0.956559 0.756728 1 0 1.000000
  0 54.296371 44.578667 5.496960 -0.792345 0.000001 0.610073 0.956559 0.775958 1 0 1.000000
wood_door02_old
  0 54.037399 44.578667 4.530458 -1.000000 0.000001 -0.000001 0.956559 0.756728 1 0 1.000000
  0 54.603561 43.211826 4.530458 -0.707107 -0.707107 0.000000 0.973502 0.756728 1 0 1.000000
  0 54.296371 44.578667 5.496960 -0.792345 0.000001 0.610073 0.956559 0.775958 1 0 1.000000
wood_door02_old
  0 54.037399 44.578667 4.530458 -1.000000 0.000001 -0.000001 0.956559 0.756728 1 0 1.000000
  0 54.786682 43.394943 3.563956 -0.582740 -0.582740 -0.566417 0.973502 0.737498 1 0 1.000000
  0 54.603561 43.211826 4.530458 -0.707107 -0.707107 0.000000 0.973502 0.756728 1 0 1.000000
wood_door02_old
  0 56.653820 45.262085 5.922299 0.064555 0.064556 0.995824 0.905728 0.795188 1 0 1.000000
  0 55.970402 46.252693 5.496960 0.000000 0.792344 0.610074 0.922672 0.775958 1 0 1.000000
  0 55.970402 45.545166 5.922299 0.000000 0.091297 0.995824 0.922672 0.795188 1 0 1.000000
wood_door02_old
  0 55.970402 46.252693 5.496960 0.000000 0.792344 0.610074 0.922672 0.775958 1 0 1.000000
  0 54.786682 45.762383 5.496960 -0.560272 0.560273 0.610074 0.939615 0.775958 1 0 1.000000
  0 55.970402 45.545166 5.922299 0.000000 0.091297 0.995824 0.922672 0.795188 1 0 1.000000
wood_door02_old
  0 55.970402 46.252693 5.496960 0.000000 0.792344 0.610074 0.922672 0.775958 1 0 1.000000
  0 54.603561 45.945503 4.530458 -0.707106 0.707108 0.000000 0.939615 0.756728 1 0 1.000000
  0 54.786682 45.762383 5.496960 -0.560272 0.560273 0.610074 0.939615 0.775958 1 0 1.000000
wood_door02_old
  0 54.603561 45.945503 4.530458 -0.707106 0.707108 0.000000 0.939615 0.756728 1 0 1.000000
  0 54.037399 44.578667 4.530458 -1.000000 0.000001 -0.000001 0.956559 0.756728 1 0 1.000000
  0 54.786682 45.762383 5.496960 -0.560272 0.560273 0.610074 0.939615 0.775958 1 0 1.000000
wood_door02_old
  0 54.603561 45.945503 4.530458 -0.707106 0.707108 0.000000 0.939615 0.756728 1 0 1.000000
  0 54.296371 44.578667 3.563956 -0.824120 0.000001 -0.566416 0.956559 0.737498 1 0 1.000000
  0 54.037399 44.578667 4.530458 -1.000000 0.000001 -0.000001 0.956559 0.756728 1 0 1.000000
wood_door02_old
  0 54.296371 44.578667 3.563956 -0.824120 0.000001 -0.566416 0.956559 0.737498 1 0 1.000000
  0 54.786682 43.394943 3.563956 -0.582740 -0.582740 -0.566417 0.973502 0.737498 1 0 1.000000
  0 54.037399 44.578667 4.530458 -1.000000 0.000001 -0.000001 0.956559 0.756728 1 0 1.000000
wood_door02_old
  0 54.296371 44.578667 3.563956 -0.824120 0.000001 -0.566416 0.956559 0.737498 1 0 1.000000
  0 55.337639 43.945908 2.979469 -0.628534 -0.628533 -0.458139 0.973431 0.718268 1 0 1.000000
  0 54.786682 43.394943 3.563956 -0.582740 -0.582740 -0.566417 0.973502 0.737498 1 0 1.000000
wood_door02_old
  0 54.786682 45.762383 3.563956 -0.582741 0.582741 -0.566415 0.939615 0.737498 1 0 1.000000
  0 54.296371 44.578667 3.563956 -0.824120 0.000001 -0.566416 0.956559 0.737498 1 0 1.000000
  0 54.603561 45.945503 4.530458 -0.707106 0.707108 0.000000 0.939615 0.756728 1 0 1.000000
wood_door02_old
  0 54.786682 45.762383 3.563956 -0.582741 0.582741 -0.566415 0.939615 0.737498 1 0 1.000000
  0 55.075542 44.578667 2.979469 -0.888881 0.000001 -0.458138 0.956511 0.718268 1 0 1.000000
  0 54.296371 44.578667 3.563956 -0.824120 0.000001 -0.566416 0.956559 0.737498 1 0 1.000000
wood_door02_old
  0 55.075542 44.578667 2.979469 -0.888881 0.000001 -0.458138 0.956511 0.718268 1 0 1.000000
  0 55.337639 43.945908 2.979469 -0.628534 -0.628533 -0.458139 0.973431 0.718268 1 0 1.000000
  0 54.296371 44.578667 3.563956 -0.824120 0.000001 -0.566416 0.956559 0.737498 1 0 1.000000
wood_door02_old
  0 55.337639 43.945908 2.979469 -0.628534 -0.628533 -0.458139 0.973431 0.718268 1 0 1.000000
  0 55.075542 44.578667 2.979469 -0.888881 0.000001 -0.458138 0.956511 0.718268 1 0 1.000000
  0 55.337639 43.945908 1.525965 -0.707108 -0.707106 0.000000 0.973359 0.679456 1 0 1.000000
wood_door02_old
  0 55.970402 43.683807 1.525965 0.000001 -1.000000 0.000000 0.990255 0.679456 1 0 1.000000
  0 55.337639 43.945908 2.979469 -0.628534 -0.628533 -0.458139 0.973431 0.718268 1 0 1.000000
  0 55.337639 43.945908 1.525965 -0.707108 -0.707106 0.000000 0.973359 0.679456 1 0 1.000000
wood_door02_old
  0 55.970402 43.683807 2.979469 0.000002 -0.888881 -0.458138 0.990350 0.718268 1 0 1.000000
  0 55.337639 43.945908 2.979469 -0.628534 -0.628533 -0.458139 0.973431 0.718268 1 0 1.000000
  0 55.970402 43.683807 1.525965 0.000001 -1.000000 0.000000 0.990255 0.679456 1 0 1.000000
wood_door02_old
  0 55.337639 43.945908 2.979469 -0.628534 -0.628533 -0.458139 0.973431 0.718268 1 0 1.000000
  0 55.970402 43.683807 2.979469 0.000002 -0.888881 -0.458138 0.990350 0.718268 1 0 1.000000
  0 54.786682 43.394943 3.563956 -0.582740 -0.582740 -0.566417 0.973502 0.737498 1 0 1.000000
wood_door02_old
  0 54.786682 43.394943 3.563956 -0.582740 -0.582740 -0.566417 0.973502 0.737498 1 0 1.000000
  0 55.970402 43.683807 2.979469 0.000002 -0.888881 -0.458138 0.990350 0.718268 1 0 1.000000
  0 55.970402 42.904636 3.563956 0.000001 -0.824119 -0.566417 0.990446 0.737498 1 0 1.000000
wood_door02_old
  0 54.786682 43.394943 3.563956 -0.582740 -0.582740 -0.566417 0.973502 0.737498 1 0 1.000000
  0 55.970402 42.904636 3.563956 0.000001 -0.824119 -0.566417 0.990446 0.737498 1 0 1.000000
  0 54.603561 43.211826 4.530458 -0.707107 -0.707107 0.000000 0.973502 0.756728 1 0 1.000000
wood_door02_old
  0 54.603561 43.211826 4.530458 -0.707107 -0.707107 0.000000 0.973502 0.756728 1 0 1.000000
  0 55.970402 42.904636 3.563956 0.000001 -0.824119 -0.566417 0.990446 0.737498 1 0 1.000000
  0 55.970402 42.645660 4.530458 0.000000 -1.000000 0.000000 0.990446 0.756728 1 0 1.000000
wood_door02_old
  0 54.603561 43.211826 4.530458 -0.707107 -0.707107 0.000000 0.973502 0.756728 1 0 1.000000
  0 55.970402 42.645660 4.530458 0.000000 -1.000000 0.000000 0.990446 0.756728 1 0 1.000000
  0 54.786682 43.394943 5.496960 -0.560272 -0.560272 0.610075 0.973502 0.775958 1 0 1.000000
wood_door02_old
  0 54.786682 43.394943 5.496960 -0.560272 -0.560272 0.610075 0.973502 0.775958 1 0 1.000000
  0 55.970402 42.645660 4.530458 0.000000 -1.000000 0.000000 0.990446 0.756728 1 0 1.000000
  0 55.970402 42.904636 5.496960 0.000001 -0.792343 0.610076 0.990446 0.775958 1 0 1.000000
wood_door02_old
  0 54.786682 43.394943 5.496960 -0.560272 -0.560272 0.610075 0.973502 0.775958 1 0 1.000000
  0 55.970402 42.904636 5.496960 0.000001 -0.792343 0.610076 0.990446 0.775958 1 0 1.000000
  0 55.286980 43.895245 5.922299 -0.064557 -0.064557 0.995824 0.973502 0.795188 1 0 1.000000
wood_door02_old
  0 55.286980 43.895245 5.922299 -0.064557 -0.064557 0.995824 0.973502 0.795188 1 0 1.000000
  0 55.970402 42.904636 5.496960 0.000001 -0.792343 0.610076 0.990446 0.775958 1 0 1.000000
  0 55.970402 43.612164 5.922299 0.000001 -0.091296 0.995824 0.990446 0.795188 1 0 1.000000
wood_door02_old
  0 56.603161 43.945908 1.525965 0.707109 -0.707105 0.000000 0.871984 0.679456 1 0 1.000000
  0 55.970402 43.683807 2.979469 0.000002 -0.888881 -0.458138 0.854993 0.718268 1 0 1.000000
  0 55.970402 43.683807 1.525965 0.000001 -1.000000 0.000000 0.855088 0.679456 1 0 1.000000
wood_door02_old
  0 56.603161 43.945908 2.979469 0.628535 -0.628533 -0.458137 0.871913 0.718268 1 0 1.000000
  0 55.970402 43.683807 2.979469 0.000002 -0.888881 -0.458138 0.854993 0.718268 1 0 1.000000
  0 56.603161 43.945908 1.525965 0.707109 -0.707105 0.000000 0.871984 0.679456 1 0 1.000000
wood_door02_old
  0 55.970402 43.683807 2.979469 0.000002 -0.888881 -0.458138 0.854993 0.718268 1 0 1.000000
  0 56.603161 43.945908 2.979469 0.628535 -0.628533 -0.458137 0.871913 0.718268 1 0 1.000000
  0 55.970402 42.904636 3.563956 0.000001 -0.824119 -0.566417 0.854898 0.737498 1 0 1.000000
wood_door02_old
  0 55.970402 42.904636 3.563956 0.000001 -0.824119 -0.566417 0.854898 0.737498 1 0 1.000000
  0 56.603161 43.945908 2.979469 0.628535 -0.628533 -0.458137 0.871913 0.718268 1 0 1.000000
  0 57.154121 43.394947 3.563956 0.582740 -0.582740 -0.566417 0.871841 0.737498 1 0 1.000000
wood_door02_old
  0 55.970402 42.904636 3.563956 0.000001 -0.824119 -0.566417 0.854898 0.737498 1 0 1.000000
  0 57.154121 43.394947 3.563956 0.582740 -0.582740 -0.566417 0.871841 0.737498 1 0 1.000000
  0 55.970402 42.645660 4.530458 0.000000 -1.000000 0.000000 0.854898 0.756728 1 0 1.000000
wood_door02_old
  0 55.970402 42.645660 4.530458 0.000000 -1.000000 0.000000 0.854898 0.756728 1 0 1.000000
  0 57.154121 43.394947 3.563956 0.582740 -0.582740 -0.566417 0.871841 0.737498 1 0 1.000000
  0 57.337242 43.211826 4.530458 0.707107 -0.707107 0.000000 0.871841 0.756728 1 0 1.000000
wood_door02_old
  0 55.970402 42.645660 4.530458 0.000000 -1.000000 0.000000 0.854898 0.756728 1 0 1.000000
  0 57.337242 43.211826 4.530458 0.707107 -0.707107 0.000000 0.871841 0.756728 1 0 1.000000
  0 55.970402 42.904636 5.496960 0.000001 -0.792343 0.610076 0.854898 0.775958 1 0 1.000000
wood_door02_old
  0 55.970402 42.904636 5.496960 0.000001 -0.792343 0.610076 0.854898 0.775958 1 0 1.000000
  0 57.337242 43.211826 4.530458 0.707107 -0.707107 0.000000 0.871841 0.756728 1 0 1.000000
  0 57.154121 43.394947 5.496960 0.560272 -0.560271 0.610075 0.871841 0.775958 1 0 1.000000
wood_door02_old
  0 55.970402 42.904636 5.496960 0.000001 -0.792343 0.610076 0.854898 0.775958 1 0 1.000000
  0 57.154121 43.394947 5.496960 0.560272 -0.560271 0.610075 0.871841 0.775958 1 0 1.000000
  0 55.970402 43.612164 5.922299 0.000001 -0.091296 0.995824 0.854898 0.795188 1 0 1.000000
wood_door02_old
  0 55.970402 43.612164 5.922299 0.000001 -0.091296 0.995824 0.854898 0.795188 1 0 1.000000
  0 57.154121 43.394947 5.496960 0.560272 -0.560271 0.610075 0.871841 0.775958 1 0 1.000000
  0 56.653820 43.895245 5.922299 0.064557 -0.064557 0.995824 0.871841 0.795188 1 0 1.000000
wood_door02_old
  0 57.154121 43.394947 5.496960 0.560272 -0.560271 0.610075 0.871841 0.775958 1 0 1.000000
  0 57.644432 44.578667 5.496960 0.792344 0.000000 0.610074 0.888785 0.775958 1 0 1.000000
  0 56.653820 43.895245 5.922299 0.064557 -0.064557 0.995824 0.871841 0.795188 1 0 1.000000
wood_door02_old
  0 56.653820 43.895245 5.922299 0.064557 -0.064557 0.995824 0.871841 0.795188 1 0 1.000000
  0 57.644432 44.578667 5.496960 0.792344 0.000000 0.610074 0.888785 0.775958 1 0 1.000000
  0 56.936901 44.578667 5.922299 0.091296 -0.000001 0.995824 0.888785 0.795188 1 0 1.000000
wood_door02_old
  0 57.644432 44.578667 5.496960 0.792344 0.000000 0.610074 0.888785 0.775958 1 0 1.000000
  0 57.154121 45.762383 5.496960 0.560271 0.560272 0.610075 0.905728 0.775958 1 0 1.000000
  0 56.936901 44.578667 5.922299 0.091296 -0.000001 0.995824 0.888785 0.795188 1 0 1.000000
wood_door02_old
  0 56.936901 44.578667 5.922299 0.091296 -0.000001 0.995824 0.888785 0.795188 1 0 1.000000
  0 57.154121 45.762383 5.496960 0.560271 0.560272 0.610075 0.905728 0.775958 1 0 1.000000
  0 56.653820 45.262085 5.922299 0.064555 0.064556 0.995824 0.905728 0.795188 1 0 1.000000
wood_door02_old
  0 57.154121 45.762383 5.496960 0.560271 0.560272 0.610075 0.905728 0.775958 1 0 1.000000
  0 55.970402 46.252693 5.496960 0.000000 0.792344 0.610074 0.922672 0.775958 1 0 1.000000
  0 56.653820 45.262085 5.922299 0.064555 0.064556 0.995824 0.905728 0.795188 1 0 1.000000
wood_door02_old
  0 57.154121 45.762383 5.496960 0.560271 0.560272 0.610075 0.905728 0.775958 1 0 1.000000
  0 55.970402 46.511665 4.530458 0.000000 1.000000 0.000000 0.922672 0.756728 1 0 1.000000
  0 55.970402 46.252693 5.496960 0.000000 0.792344 0.610074 0.922672 0.775958 1 0 1.000000
wood_door02_old
  0 55.970402 46.511665 4.530458 0.000000 1.000000 0.000000 0.922672 0.756728 1 0 1.000000
  0 54.603561 45.945503 4.530458 -0.707106 0.707108 0.000000 0.939615 0.756728 1 0 1.000000
  0 55.970402 46.252693 5.496960 0.000000 0.792344 0.610074 0.922672 0.775958 1 0 1.000000
wood_door02_old
  0 55.970402 46.511665 4.530458 0.000000 1.000000 0.000000 0.922672 0.756728 1 0 1.000000
  0 54.786682 45.762383 3.563956 -0.582741 0.582741 -0.566415 0.939615 0.737498 1 0 1.000000
  0 54.603561 45.945503 4.530458 -0.707106 0.707108 0.000000 0.939615 0.756728 1 0 1.000000
wood_door02_old
  0 56.865257 44.578667 1.525965 1.000000 0.000000 0.000000 0.888880 0.679456 1 0 1.000000
  0 56.603161 43.945908 2.979469 0.628535 -0.628533 -0.458137 0.871913 0.718268 1 0 1.000000
  0 56.603161 43.945908 1.525965 0.707109 -0.707105 0.000000 0.871984 0.679456 1 0 1.000000
wood_door02_old
  0 56.865257 44.578667 2.979469 0.888881 0.000000 -0.458138 0.888832 0.718268 1 0 1.000000
  0 56.603161 43.945908 2.979469 0.628535 -0.628533 -0.458137 0.871913 0.718268 1 0 1.000000
  0 56.865257 44.578667 1.525965 1.000000 0.000000 0.000000 0.888880 0.679456 1 0 1.000000
wood_door02_old
  0 56.603161 43.945908 2.979469 0.628535 -0.628533 -0.458137 0.871913 0.718268 1 0 1.000000
  0 56.865257 44.578667 2.979469 0.888881 0.000000 -0.458138 0.888832 0.718268 1 0 1.000000
  0 57.154121 43.394947 3.563956 0.582740 -0.582740 -0.566417 0.871841 0.737498 1 0 1.000000
wood_door02_old
  0 57.154121 43.394947 3.563956 0.582740 -0.582740 -0.566417 0.871841 0.737498 1 0 1.000000
  0 56.865257 44.578667 2.979469 0.888881 0.000000 -0.458138 0.888832 0.718268 1 0 1.000000
  0 57.644432 44.578667 3.563956 0.824119 0.000000 -0.566416 0.888785 0.737498 1 0 1.000000
wood_door02_old
  0 57.154121 43.394947 3.563956 0.582740 -0.582740 -0.566417 0.871841 0.737498 1 0 1.000000
  0 57.644432 44.578667 3.563956 0.824119 0.000000 -0.566416 0.888785 0.737498 1 0 1.000000
  0 57.337242 43.211826 4.530458 0.707107 -0.707107 0.000000 0.871841 0.756728 1 0 1.000000
wood_door02_old
  0 57.337242 43.211826 4.530458 0.707107 -0.707107 0.000000 0.871841 0.756728 1 0 1.000000
  0 57.644432 44.578667 3.563956 0.824119 0.000000 -0.566416 0.888785 0.737498 1 0 1.000000
  0 57.903404 44.578667 4.530458 1.000000 0.000001 0.000000 0.888785 0.756728 1 0 1.000000
wood_door02_old
  0 57.337242 43.211826 4.530458 0.707107 -0.707107 0.000000 0.871841 0.756728 1 0 1.000000
  0 57.903404 44.578667 4.530458 1.000000 0.000001 0.000000 0.888785 0.756728 1 0 1.000000
  0 57.154121 43.394947 5.496960 0.560272 -0.560271 0.610075 0.871841 0.775958 1 0 1.000000
wood_door02_old
  0 57.154121 43.394947 5.496960 0.560272 -0.560271 0.610075 0.871841 0.775958 1 0 1.000000
  0 57.903404 44.578667 4.530458 1.000000 0.000001 0.000000 0.888785 0.756728 1 0 1.000000
  0 57.644432 44.578667 5.496960 0.792344 0.000000 0.610074 0.888785 0.775958 1 0 1.000000
wood_door02_old
  0 57.903404 44.578667 4.530458 1.000000 0.000001 0.000000 0.888785 0.756728 1 0 1.000000
  0 57.337242 45.945503 4.530458 0.707106 0.707108 0.000000 0.905728 0.756728 1 0 1.000000
  0 57.644432 44.578667 5.496960 0.792344 0.000000 0.610074 0.888785 0.775958 1 0 1.000000
wood_door02_old
  0 57.644432 44.578667 5.496960 0.792344 0.000000 0.610074 0.888785 0.775958 1 0 1.000000
  0 57.337242 45.945503 4.530458 0.707106 0.707108 0.000000 0.905728 0.756728 1 0 1.000000
  0 57.154121 45.762383 5.496960 0.560271 0.560272 0.610075 0.905728 0.775958 1 0 1.000000
wood_door02_old
  0 57.337242 45.945503 4.530458 0.707106 0.707108 0.000000 0.905728 0.756728 1 0 1.000000
  0 55.970402 46.511665 4.530458 0.000000 1.000000 0.000000 0.922672 0.756728 1 0 1.000000
  0 57.154121 45.762383 5.496960 0.560271 0.560272 0.610075 0.905728 0.775958 1 0 1.000000
wood_door02_old
  0 57.337242 45.945503 4.530458 0.707106 0.707108 0.000000 0.905728 0.756728 1 0 1.000000
  0 55.970402 46.252693 3.563956 0.000000 0.824120 -0.566415 0.922672 0.737498 1 0 1.000000
  0 55.970402 46.511665 4.530458 0.000000 1.000000 0.000000 0.922672 0.756728 1 0 1.000000
wood_door02_old
  0 55.970402 46.252693 3.563956 0.000000 0.824120 -0.566415 0.922672 0.737498 1 0 1.000000
  0 54.786682 45.762383 3.563956 -0.582741 0.582741 -0.566415 0.939615 0.737498 1 0 1.000000
  0 55.970402 46.511665 4.530458 0.000000 1.000000 0.000000 0.922672 0.756728 1 0 1.000000
wood_door02_old
  0 55.970402 46.252693 3.563956 0.000000 0.824120 -0.566415 0.922672 0.737498 1 0 1.000000
  0 55.337639 45.211426 2.979469 -0.628534 0.628534 -0.458137 0.939591 0.718268 1 0 1.000000
  0 54.786682 45.762383 3.563956 -0.582741 0.582741 -0.566415 0.939615 0.737498 1 0 1.000000
wood_door02_old
  0 55.337639 45.211426 2.979469 -0.628534 0.628534 -0.458137 0.939591 0.718268 1 0 1.000000
  0 55.075542 44.578667 2.979469 -0.888881 0.000001 -0.458138 0.956511 0.718268 1 0 1.000000
  0 54.786682 45.762383 3.563956 -0.582741 0.582741 -0.566415 0.939615 0.737498 1 0 1.000000
wood_door02_old
  0 55.075542 44.578667 2.979469 -0.888881 0.000001 -0.458138 0.956511 0.718268 1 0 1.000000
  0 55.337639 45.211426 2.979469 -0.628534 0.628534 -0.458137 0.939591 0.718268 1 0 1.000000
  0 55.075542 44.578667 1.525965 -1.000000 0.000000 0.000000 0.956464 0.679456 1 0 1.000000
wood_door02_old
  0 55.337639 43.945908 1.525965 -0.707108 -0.707106 0.000000 0.973359 0.679456 1 0 1.000000
  0 55.075542 44.578667 2.979469 -0.888881 0.000001 -0.458138 0.956511 0.718268 1 0 1.000000
  0 55.075542 44.578667 1.525965 -1.000000 0.000000 0.000000 0.956464 0.679456 1 0 1.000000
wood_door02_old
  0 55.075542 44.578667 1.525965 -1.000000 0.000000 0.000000 0.956464 0.679456 1 0 1.000000
  0 55.337639 45.211426 2.979469 -0.628534 0.628534 -0.458137 0.939591 0.718268 1 0 1.000000
  0 55.337639 45.211426 1.525965 -0.707106 0.707108 0.000000 0.939568 0.679456 1 0 1.000000
wood_door02_old
  0 55.337639 45.211426 2.979469 -0.628534 0.628534 -0.458137 0.939591 0.718268 1 0 1.000000
  0 55.970402 45.473522 2.979469 0.000001 0.888882 -0.458137 0.922672 0.718268 1 0 1.000000
  0 55.337639 45.211426 1.525965 -0.707106 0.707108 0.000000 0.939568 0.679456 1 0 1.000000
wood_door02_old
  0 55.970402 45.473522 2.979469 0.000001 0.888882 -0.458137 0.922672 0.718268 1 0 1.000000
  0 55.337639 45.211426 2.979469 -0.628534 0.628534 -0.458137 0.939591 0.718268 1 0 1.000000
  0 55.970402 46.252693 3.563956 0.000000 0.824120 -0.566415 0.922672 0.737498 1 0 1.000000
wood_door02_old
  0 57.154121 45.762383 3.563956 0.582740 0.582741 -0.566416 0.905728 0.737498 1 0 1.000000
  0 55.970402 45.473522 2.979469 0.000001 0.888882 -0.458137 0.922672 0.718268 1 0 1.000000
  0 55.970402 46.252693 3.563956 0.000000 0.824120 -0.566415 0.922672 0.737498 1 0 1.000000
wood_door02_old
  0 57.154121 45.762383 3.563956 0.582740 0.582741 -0.566416 0.905728 0.737498 1 0 1.000000
  0 55.970402 46.252693 3.563956 0.000000 0.824120 -0.566415 0.922672 0.737498 1 0 1.000000
  0 57.337242 45.945503 4.530458 0.707106 0.707108 0.000000 0.905728 0.756728 1 0 1.000000
wood_door02_old
  0 57.903404 44.578667 4.530458 1.000000 0.000001 0.000000 0.888785 0.756728 1 0 1.000000
  0 57.154121 45.762383 3.563956 0.582740 0.582741 -0.566416 0.905728 0.737498 1 0 1.000000
  0 57.337242 45.945503 4.530458 0.707106 0.707108 0.000000 0.905728 0.756728 1 0 1.000000
wood_door02_old
  0 57.644432 44.578667 3.563956 0.824119 0.000000 -0.566416 0.888785 0.737498 1 0 1.000000
  0 57.154121 45.762383 3.563956 0.582740 0.582741 -0.566416 0.905728 0.737498 1 0 1.000000
  0 57.903404 44.578667 4.530458 1.000000 0.000001 0.000000 0.888785 0.756728 1 0 1.000000
wood_door02_old
  0 57.644432 44.578667 3.563956 0.824119 0.000000 -0.566416 0.888785 0.737498 1 0 1.000000
  0 56.603161 45.211426 2.979469 0.628534 0.628534 -0.458138 0.905752 0.718268 1 0 1.000000
  0 57.154121 45.762383 3.563956 0.582740 0.582741 -0.566416 0.905728 0.737498 1 0 1.000000
wood_door02_old
  0 56.865257 44.578667 2.979469 0.888881 0.000000 -0.458138 0.888832 0.718268 1 0 1.000000
  0 56.603161 45.211426 2.979469 0.628534 0.628534 -0.458138 0.905752 0.718268 1 0 1.000000
  0 57.644432 44.578667 3.563956 0.824119 0.000000 -0.566416 0.888785 0.737498 1 0 1.000000
wood_door02_old
  0 56.603161 45.211426 2.979469 0.628534 0.628534 -0.458138 0.905752 0.718268 1 0 1.000000
  0 56.865257 44.578667 2.979469 0.888881 0.000000 -0.458138 0.888832 0.718268 1 0 1.000000
  0 56.603161 45.211426 1.525965 0.707107 0.707107 0.000000 0.905776 0.679456 1 0 1.000000
wood_door02_old
  0 56.603161 45.211426 1.525965 0.707107 0.707107 0.000000 0.905776 0.679456 1 0 1.000000
  0 56.865257 44.578667 2.979469 0.888881 0.000000 -0.458138 0.888832 0.718268 1 0 1.000000
  0 56.865257 44.578667 1.525965 1.000000 0.000000 0.000000 0.888880 0.679456 1 0 1.000000
wood_door02_old
  0 56.603161 45.211426 2.979469 0.628534 0.628534 -0.458138 0.905752 0.718268 1 0 1.000000
  0 55.970402 45.473522 2.979469 0.000001 0.888882 -0.458137 0.922672 0.718268 1 0 1.000000
  0 57.154121 45.762383 3.563956 0.582740 0.582741 -0.566416 0.905728 0.737498 1 0 1.000000
wood_door02_old
  0 55.970402 45.473522 2.979469 0.000001 0.888882 -0.458137 0.922672 0.718268 1 0 1.000000
  0 56.603161 45.211426 2.979469 0.628534 0.628534 -0.458138 0.905752 0.718268 1 0 1.000000
  0 55.970402 45.473522 1.525965 0.000001 1.000000 0.000000 0.922672 0.679456 1 0 1.000000
wood_door02_old
  0 55.970402 45.473522 1.525965 0.000001 1.000000 0.000000 0.922672 0.679456 1 0 1.000000
  0 56.603161 45.211426 2.979469 0.628534 0.628534 -0.458138 0.905752 0.718268 1 0 1.000000
  0 56.603161 45.211426 1.525965 0.707107 0.707107 0.000000 0.905776 0.679456 1 0 1.000000
wood_door02_old
  0 55.337639 45.211426 1.525965 -0.707106 0.707108 0.000000 0.939568 0.679456 1 0 1.000000
  0 55.970402 45.473522 2.979469 0.000001 0.888882 -0.458137 0.922672 0.718268 1 0 1.000000
  0 55.970402 45.473522 1.525965 0.000001 1.000000 0.000000 0.922672 0.679456 1 0 1.000000
wood_door02_old
  0 54.614445 43.211826 -4.580938 -0.707107 -0.707106 0.000000 0.871841 0.756728 1 0 1.000000
  0 54.048283 44.578667 -4.580938 -1.000000 0.000001 0.000000 0.888785 0.756728 1 0 1.000000
  0 54.797569 43.394947 -5.547440 -0.560272 -0.560272 -0.610075 0.871841 0.775958 1 0 1.000000
wood_door02_old
  0 54.307255 44.578667 -3.614437 -0.824119 0.000001 0.566416 0.888785 0.737498 1 0 1.000000
  0 54.797569 45.762383 -3.614437 -0.582740 0.582742 0.566415 0.905728 0.737498 1 0 1.000000
  0 54.048283 44.578667 -4.580938 -1.000000 0.000001 0.000000 0.888785 0.756728 1 0 1.000000
wood_door02_old
  0 54.614445 43.211826 -4.580938 -0.707107 -0.707106 0.000000 0.871841 0.756728 1 0 1.000000
  0 54.307255 44.578667 -3.614437 -0.824119 0.000001 0.566416 0.888785 0.737498 1 0 1.000000
  0 54.048283 44.578667 -4.580938 -1.000000 0.000001 0.000000 0.888785 0.756728 1 0 1.000000
wood_door02_old
  0 54.797569 43.394947 -3.614437 -0.582740 -0.582741 0.566416 0.871841 0.737498 1 0 1.000000
  0 54.307255 44.578667 -3.614437 -0.824119 0.000001 0.566416 0.888785 0.737498 1 0 1.000000
  0 54.614445 43.211826 -4.580938 -0.707107 -0.707106 0.000000 0.871841 0.756728 1 0 1.000000
wood_door02_old
  0 55.348526 43.945908 -1.576445 -0.707106 -0.707107 0.000000 0.871984 0.679456 1 0 1.000000
  0 55.981285 43.683807 -3.029949 -0.000001 -0.888881 0.458137 0.854993 0.718268 1 0 1.000000
  0 55.981285 43.683807 -1.576445 -0.000001 -1.000000 0.000000 0.855088 0.679456 1 0 1.000000
wood_door02_old
  0 55.348526 43.945908 -3.029949 -0.628534 -0.628536 0.458136 0.871913 0.718268 1 0 1.000000
  0 55.981285 43.683807 -3.029949 -0.000001 -0.888881 0.458137 0.854993 0.718268 1 0 1.000000
  0 55.348526 43.945908 -1.576445 -0.707106 -0.707107 0.000000 0.871984 0.679456 1 0 1.000000
wood_door02_old
  0 55.981285 43.683807 -3.029949 -0.000001 -0.888881 0.458137 0.854993 0.718268 1 0 1.000000
  0 55.348526 43.945908 -3.029949 -0.628534 -0.628536 0.458136 0.871913 0.718268 1 0 1.000000
  0 55.981285 42.904636 -3.614437 -0.000001 -0.824119 0.566416 0.854898 0.737498 1 0 1.000000
wood_door02_old
  0 55.981285 42.904636 -3.614437 -0.000001 -0.824119 0.566416 0.854898 0.737498 1 0 1.000000
  0 55.348526 43.945908 -3.029949 -0.628534 -0.628536 0.458136 0.871913 0.718268 1 0 1.000000
  0 54.797569 43.394947 -3.614437 -0.582740 -0.582741 0.566416 0.871841 0.737498 1 0 1.000000
wood_door02_old
  0 55.981285 42.904636 -3.614437 -0.000001 -0.824119 0.566416 0.854898 0.737498 1 0 1.000000
  0 54.797569 43.394947 -3.614437 -0.582740 -0.582741 0.566416 0.871841 0.737498 1 0 1.000000
  0 55.981285 42.645660 -4.580938 -0.000001 -1.000000 0.000000 0.854898 0.756728 1 0 1.000000
wood_door02_old
  0 55.981285 42.645660 -4.580938 -0.000001 -1.000000 0.000000 0.854898 0.756728 1 0 1.000000
  0 54.797569 43.394947 -3.614437 -0.582740 -0.582741 0.566416 0.871841 0.737498 1 0 1.000000
  0 54.614445 43.211826 -4.580938 -0.707107 -0.707106 0.000000 0.871841 0.756728 1 0 1.000000
wood_door02_old
  0 55.981285 42.645660 -4.580938 -0.000001 -1.000000 0.000000 0.854898 0.756728 1 0 1.000000
  0 54.614445 43.211826 -4.580938 -0.707107 -0.707106 0.000000 0.871841 0.756728 1 0 1.000000
  0 55.981285 42.904636 -5.547440 -0.000001 -0.792343 -0.610076 0.854898 0.775958 1 0 1.000000
wood_door02_old
  0 55.981285 42.904636 -5.547440 -0.000001 -0.792343 -0.610076 0.854898 0.775958 1 0 1.000000
  0 54.614445 43.211826 -4.580938 -0.707107 -0.707106 0.000000 0.871841 0.756728 1 0 1.000000
  0 54.797569 43.394947 -5.547440 -0.560272 -0.560272 -0.610075 0.871841 0.775958 1 0 1.000000
wood_door02_old
  0 55.981285 42.904636 -5.547440 -0.000001 -0.792343 -0.610076 0.854898 0.775958 1 0 1.000000
  0 54.797569 43.394947 -5.547440 -0.560272 -0.560272 -0.610075 0.871841 0.775958 1 0 1.000000
  0 55.981285 43.612164 -5.972779 -0.000001 -0.091296 -0.995824 0.854898 0.795188 1 0 1.000000
wood_door02_old
  0 55.981285 43.612164 -5.972779 -0.000001 -0.091296 -0.995824 0.854898 0.795188 1 0 1.000000
  0 54.797569 43.394947 -5.547440 -0.560272 -0.560272 -0.610075 0.871841 0.775958 1 0 1.000000
  0 55.297867 43.895245 -5.972779 -0.064557 -0.064557 -0.995824 0.871841 0.795188 1 0 1.000000
wood_door02_old
  0 54.797569 43.394947 -5.547440 -0.560272 -0.560272 -0.610075 0.871841 0.775958 1 0 1.000000
  0 54.307255 44.578667 -5.547440 -0.792344 0.000000 -0.610074 0.888785 0.775958 1 0 1.000000
  0 55.297867 43.895245 -5.972779 -0.064557 -0.064557 -0.995824 0.871841 0.795188 1 0 1.000000
wood_door02_old
  0 54.797569 43.394947 -5.547440 -0.560272 -0.560272 -0.610075 0.871841 0.775958 1 0 1.000000
  0 54.048283 44.578667 -4.580938 -1.000000 0.000001 0.000000 0.888785 0.756728 1 0 1.000000
  0 54.307255 44.578667 -5.547440 -0.792344 0.000000 -0.610074 0.888785 0.775958 1 0 1.000000
wood_door02_old
  0 54.048283 44.578667 -4.580938 -1.000000 0.000001 0.000000 0.888785 0.756728 1 0 1.000000
  0 54.614445 45.945503 -4.580938 -0.707106 0.707107 0.000000 0.905728 0.756728 1 0 1.000000
  0 54.307255 44.578667 -5.547440 -0.792344 0.000000 -0.610074 0.888785 0.775958 1 0 1.000000
wood_door02_old
  0 54.048283 44.578667 -4.580938 -1.000000 0.000001 0.000000 0.888785 0.756728 1 0 1.000000
  0 54.797569 45.762383 -3.614437 -0.582740 0.582742 0.566415 0.905728 0.737498 1 0 1.000000
  0 54.614445 45.945503 -4.580938 -0.707106 0.707107 0.000000 0.905728 0.756728 1 0 1.000000
wood_door02_old
  0 54.797569 45.762383 -3.614437 -0.582740 0.582742 0.566415 0.905728 0.737498 1 0 1.000000
  0 55.981285 46.252693 -3.614437 0.000000 0.824121 0.566414 0.922672 0.737498 1 0 1.000000
  0 54.614445 45.945503 -4.580938 -0.707106 0.707107 0.000000 0.905728 0.756728 1 0 1.000000
wood_door02_old
  0 54.797569 45.762383 -3.614437 -0.582740 0.582742 0.566415 0.905728 0.737498 1 0 1.000000
  0 55.981285 45.473522 -3.029949 -0.000001 0.888882 0.458136 0.922672 0.718268 1 0 1.000000
  0 55.981285 46.252693 -3.614437 0.000000 0.824121 0.566414 0.922672 0.737498 1 0 1.000000
wood_door02_old
  0 55.981285 45.473522 -3.029949 -0.000001 0.888882 0.458136 0.922672 0.718268 1 0 1.000000
  0 56.614044 45.211426 -3.029949 0.628534 0.628535 0.458137 0.939591 0.718268 1 0 1.000000
  0 55.981285 46.252693 -3.614437 0.000000 0.824121 0.566414 0.922672 0.737498 1 0 1.000000
wood_door02_old
  0 56.614044 45.211426 -3.029949 0.628534 0.628535 0.458137 0.939591 0.718268 1 0 1.000000
  0 55.981285 45.473522 -3.029949 -0.000001 0.888882 0.458136 0.922672 0.718268 1 0 1.000000
  0 56.614044 45.211426 -1.576445 0.707106 0.707108 0.000000 0.939568 0.679456 1 0 1.000000
wood_door02_old
  0 55.086426 44.578667 -1.576445 -1.000000 0.000000 0.000000 0.888880 0.679456 1 0 1.000000
  0 55.348526 43.945908 -3.029949 -0.628534 -0.628536 0.458136 0.871913 0.718268 1 0 1.000000
  0 55.348526 43.945908 -1.576445 -0.707106 -0.707107 0.000000 0.871984 0.679456 1 0 1.000000
wood_door02_old
  0 55.086426 44.578667 -3.029949 -0.888881 0.000000 0.458138 0.888832 0.718268 1 0 1.000000
  0 55.348526 43.945908 -3.029949 -0.628534 -0.628536 0.458136 0.871913 0.718268 1 0 1.000000
  0 55.086426 44.578667 -1.576445 -1.000000 0.000000 0.000000 0.888880 0.679456 1 0 1.000000
wood_door02_old
  0 55.348526 43.945908 -3.029949 -0.628534 -0.628536 0.458136 0.871913 0.718268 1 0 1.000000
  0 55.086426 44.578667 -3.029949 -0.888881 0.000000 0.458138 0.888832 0.718268 1 0 1.000000
  0 54.797569 43.394947 -3.614437 -0.582740 -0.582741 0.566416 0.871841 0.737498 1 0 1.000000
wood_door02_old
  0 54.797569 43.394947 -3.614437 -0.582740 -0.582741 0.566416 0.871841 0.737498 1 0 1.000000
  0 55.086426 44.578667 -3.029949 -0.888881 0.000000 0.458138 0.888832 0.718268 1 0 1.000000
  0 54.307255 44.578667 -3.614437 -0.824119 0.000001 0.566416 0.888785 0.737498 1 0 1.000000
wood_door02_old
  0 55.086426 44.578667 -3.029949 -0.888881 0.000000 0.458138 0.888832 0.718268 1 0 1.000000
  0 55.348526 45.211426 -3.029949 -0.628532 0.628537 0.458136 0.905752 0.718268 1 0 1.000000
  0 54.307255 44.578667 -3.614437 -0.824119 0.000001 0.566416 0.888785 0.737498 1 0 1.000000
wood_door02_old
  0 54.307255 44.578667 -3.614437 -0.824119 0.000001 0.566416 0.888785 0.737498 1 0 1.000000
  0 55.348526 45.211426 -3.029949 -0.628532 0.628537 0.458136 0.905752 0.718268 1 0 1.000000
  0 54.797569 45.762383 -3.614437 -0.582740 0.582742 0.566415 0.905728 0.737498 1 0 1.000000
wood_door02_old
  0 55.348526 45.211426 -3.029949 -0.628532 0.628537 0.458136 0.905752 0.718268 1 0 1.000000
  0 55.981285 45.473522 -3.029949 -0.000001 0.888882 0.458136 0.922672 0.718268 1 0 1.000000
  0 54.797569 45.762383 -3.614437 -0.582740 0.582742 0.566415 0.905728 0.737498 1 0 1.000000
wood_door02_old
  0 55.981285 45.473522 -3.029949 -0.000001 0.888882 0.458136 0.922672 0.718268 1 0 1.000000
  0 55.348526 45.211426 -3.029949 -0.628532 0.628537 0.458136 0.905752 0.718268 1 0 1.000000
  0 55.981285 45.473522 -1.576445 -0.000001 1.000000 0.000000 0.922672 0.679456 1 0 1.000000
wood_door02_old
  0 56.614044 45.211426 -1.576445 0.707106 0.707108 0.000000 0.939568 0.679456 1 0 1.000000
  0 55.981285 45.473522 -3.029949 -0.000001 0.888882 0.458136 0.922672 0.718268 1 0 1.000000
  0 55.981285 45.473522 -1.576445 -0.000001 1.000000 0.000000 0.922672 0.679456 1 0 1.000000
wood_door02_old
  0 55.981285 45.473522 -1.576445 -0.000001 1.000000 0.000000 0.922672 0.679456 1 0 1.000000
  0 55.348526 45.211426 -3.029949 -0.628532 0.628537 0.458136 0.905752 0.718268 1 0 1.000000
  0 55.348526 45.211426 -1.576445 -0.707104 0.707109 0.000000 0.905776 0.679456 1 0 1.000000
wood_door02_old
  0 55.348526 45.211426 -3.029949 -0.628532 0.628537 0.458136 0.905752 0.718268 1 0 1.000000
  0 55.086426 44.578667 -3.029949 -0.888881 0.000000 0.458138 0.888832 0.718268 1 0 1.000000
  0 55.348526 45.211426 -1.576445 -0.707104 0.707109 0.000000 0.905776 0.679456 1 0 1.000000
wood_door02_old
  0 55.348526 45.211426 -1.576445 -0.707104 0.707109 0.000000 0.905776 0.679456 1 0 1.000000
  0 55.086426 44.578667 -3.029949 -0.888881 0.000000 0.458138 0.888832 0.718268 1 0 1.000000
  0 55.086426 44.578667 -1.576445 -1.000000 0.000000 0.000000 0.888880 0.679456 1 0 1.000000
wood_door02_old
  0 54.307255 44.578667 -5.547440 -0.792344 0.000000 -0.610074 0.888785 0.775958 1 0 1.000000
  0 54.614445 45.945503 -4.580938 -0.707106 0.707107 0.000000 0.905728 0.756728 1 0 1.000000
  0 54.797569 45.762383 -5.547440 -0.560271 0.560273 -0.610074 0.905728 0.775958 1 0 1.000000
wood_door02_old
  0 54.614445 45.945503 -4.580938 -0.707106 0.707107 0.000000 0.905728 0.756728 1 0 1.000000
  0 55.981285 46.511665 -4.580938 -0.000001 1.000000 0.000000 0.922672 0.756728 1 0 1.000000
  0 54.797569 45.762383 -5.547440 -0.560271 0.560273 -0.610074 0.905728 0.775958 1 0 1.000000
wood_door02_old
  0 54.614445 45.945503 -4.580938 -0.707106 0.707107 0.000000 0.905728 0.756728 1 0 1.000000
  0 55.981285 46.252693 -3.614437 0.000000 0.824121 0.566414 0.922672 0.737498 1 0 1.000000
  0 55.981285 46.511665 -4.580938 -0.000001 1.000000 0.000000 0.922672 0.756728 1 0 1.000000
wood_door02_old
  0 55.981285 46.252693 -3.614437 0.000000 0.824121 0.566414 0.922672 0.737498 1 0 1.000000
  0 57.165005 45.762383 -3.614437 0.582741 0.582741 0.566415 0.939615 0.737498 1 0 1.000000
  0 55.981285 46.511665 -4.580938 -0.000001 1.000000 0.000000 0.922672 0.756728 1 0 1.000000
wood_door02_old
  0 55.981285 46.252693 -3.614437 0.000000 0.824121 0.566414 0.922672 0.737498 1 0 1.000000
  0 56.614044 45.211426 -3.029949 0.628534 0.628535 0.458137 0.939591 0.718268 1 0 1.000000
  0 57.165005 45.762383 -3.614437 0.582741 0.582741 0.566415 0.939615 0.737498 1 0 1.000000
wood_door02_old
  0 56.614044 45.211426 -3.029949 0.628534 0.628535 0.458137 0.939591 0.718268 1 0 1.000000
  0 56.876144 44.578667 -3.029949 0.888882 0.000000 0.458137 0.956511 0.718268 1 0 1.000000
  0 57.165005 45.762383 -3.614437 0.582741 0.582741 0.566415 0.939615 0.737498 1 0 1.000000
wood_door02_old
  0 55.297867 43.895245 -5.972779 -0.064557 -0.064557 -0.995824 0.871841 0.795188 1 0 1.000000
  0 54.307255 44.578667 -5.547440 -0.792344 0.000000 -0.610074 0.888785 0.775958 1 0 1.000000
  0 55.014786 44.578667 -5.972779 -0.091297 0.000000 -0.995824 0.888785 0.795188 1 0 1.000000
wood_door02_old
  0 54.307255 44.578667 -5.547440 -0.792344 0.000000 -0.610074 0.888785 0.775958 1 0 1.000000
  0 54.797569 45.762383 -5.547440 -0.560271 0.560273 -0.610074 0.905728 0.775958 1 0 1.000000
  0 55.014786 44.578667 -5.972779 -0.091297 0.000000 -0.995824 0.888785 0.795188 1 0 1.000000
wood_door02_old
  0 55.014786 44.578667 -5.972779 -0.091297 0.000000 -0.995824 0.888785 0.795188 1 0 1.000000
  0 54.797569 45.762383 -5.547440 -0.560271 0.560273 -0.610074 0.905728 0.775958 1 0 1.000000
  0 55.297867 45.262085 -5.972779 -0.064556 0.064557 -0.995824 0.905728 0.795188 1 0 1.000000
wood_door02_old
  0 54.797569 45.762383 -5.547440 -0.560271 0.560273 -0.610074 0.905728 0.775958 1 0 1.000000
  0 55.981285 46.252693 -5.547440 -0.000001 0.792345 -0.610074 0.922672 0.775958 1 0 1.000000
  0 55.297867 45.262085 -5.972779 -0.064556 0.064557 -0.995824 0.905728 0.795188 1 0 1.000000
wood_door02_old
  0 54.797569 45.762383 -5.547440 -0.560271 0.560273 -0.610074 0.905728 0.775958 1 0 1.000000
  0 55.981285 46.511665 -4.580938 -0.000001 1.000000 0.000000 0.922672 0.756728 1 0 1.000000
  0 55.981285 46.252693 -5.547440 -0.000001 0.792345 -0.610074 0.922672 0.775958 1 0 1.000000
wood_door02_old
  0 55.981285 46.511665 -4.580938 -0.000001 1.000000 0.000000 0.922672 0.756728 1 0 1.000000
  0 57.348125 45.945503 -4.580938 0.707107 0.707106 0.000000 0.939615 0.756728 1 0 1.000000
  0 55.981285 46.252693 -5.547440 -0.000001 0.792345 -0.610074 0.922672 0.775958 1 0 1.000000
wood_door02_old
  0 55.981285 46.511665 -4.580938 -0.000001 1.000000 0.000000 0.922672 0.756728 1 0 1.000000
  0 57.165005 45.762383 -3.614437 0.582741 0.582741 0.566415 0.939615 0.737498 1 0 1.000000
  0 57.348125 45.945503 -4.580938 0.707107 0.707106 0.000000 0.939615 0.756728 1 0 1.000000
wood_door02_old
  0 57.165005 45.762383 -3.614437 0.582741 0.582741 0.566415 0.939615 0.737498 1 0 1.000000
  0 57.655312 44.578667 -3.614437 0.824120 0.000001 0.566415 0.956559 0.737498 1 0 1.000000
  0 57.348125 45.945503 -4.580938 0.707107 0.707106 0.000000 0.939615 0.756728 1 0 1.000000
wood_door02_old
  0 57.165005 45.762383 -3.614437 0.582741 0.582741 0.566415 0.939615 0.737498 1 0 1.000000
  0 56.876144 44.578667 -3.029949 0.888882 0.000000 0.458137 0.956511 0.718268 1 0 1.000000
  0 57.655312 44.578667 -3.614437 0.824120 0.000001 0.566415 0.956559 0.737498 1 0 1.000000
wood_door02_old
  0 56.876144 44.578667 -3.029949 0.888882 0.000000 0.458137 0.956511 0.718268 1 0 1.000000
  0 56.614044 43.945908 -3.029949 0.628535 -0.628533 0.458138 0.973431 0.718268 1 0 1.000000
  0 57.655312 44.578667 -3.614437 0.824120 0.000001 0.566415 0.956559 0.737498 1 0 1.000000
wood_door02_old
  0 57.655312 44.578667 -3.614437 0.824120 0.000001 0.566415 0.956559 0.737498 1 0 1.000000
  0 56.614044 43.945908 -3.029949 0.628535 -0.628533 0.458138 0.973431 0.718268 1 0 1.000000
  0 57.165005 43.394943 -3.614437 0.582741 -0.582739 0.566417 0.973502 0.737498 1 0 1.000000
wood_door02_old
  0 57.655312 44.578667 -3.614437 0.824120 0.000001 0.566415 0.956559 0.737498 1 0 1.000000
  0 57.165005 43.394943 -3.614437 0.582741 -0.582739 0.566417 0.973502 0.737498 1 0 1.000000
  0 57.914288 44.578667 -4.580938 1.000000 0.000001 0.000000 0.956559 0.756728 1 0 1.000000
wood_door02_old
  0 57.914288 44.578667 -4.580938 1.000000 0.000001 0.000000 0.956559 0.756728 1 0 1.000000
  0 57.165005 43.394943 -3.614437 0.582741 -0.582739 0.566417 0.973502 0.737498 1 0 1.000000
  0 57.348125 43.211826 -4.580938 0.707108 -0.707106 0.000000 0.973502 0.756728 1 0 1.000000
wood_door02_old
  0 57.914288 44.578667 -4.580938 1.000000 0.000001 0.000000 0.956559 0.756728 1 0 1.000000
  0 57.348125 43.211826 -4.580938 0.707108 -0.707106 0.000000 0.973502 0.756728 1 0 1.000000
  0 57.655312 44.578667 -5.547440 0.792345 0.000001 -0.610073 0.956559 0.775958 1 0 1.000000
wood_door02_old
  0 57.655312 44.578667 -5.547440 0.792345 0.000001 -0.610073 0.956559 0.775958 1 0 1.000000
  0 57.348125 43.211826 -4.580938 0.707108 -0.707106 0.000000 0.973502 0.756728 1 0 1.000000
  0 57.165005 43.394943 -5.547440 0.560273 -0.560270 -0.610075 0.973502 0.775958 1 0 1.000000
wood_door02_old
  0 57.655312 44.578667 -5.547440 0.792345 0.000001 -0.610073 0.956559 0.775958 1 0 1.000000
  0 57.165005 43.394943 -5.547440 0.560273 -0.560270 -0.610075 0.973502 0.775958 1 0 1.000000
  0 56.947788 44.578667 -5.972779 0.091299 0.000000 -0.995823 0.956559 0.795188 1 0 1.000000
wood_door02_old
  0 56.947788 44.578667 -5.972779 0.091299 0.000000 -0.995823 0.956559 0.795188 1 0 1.000000
  0 57.165005 43.394943 -5.547440 0.560273 -0.560270 -0.610075 0.973502 0.775958 1 0 1.000000
  0 56.664703 43.895245 -5.972779 0.064558 -0.064555 -0.995824 0.973502 0.795188 1 0 1.000000
wood_door02_old
  0 56.664703 45.262085 -5.972779 0.064557 0.064555 -0.995824 0.939615 0.795188 1 0 1.000000
  0 57.655312 44.578667 -5.547440 0.792345 0.000001 -0.610073 0.956559 0.775958 1 0 1.000000
  0 56.947788 44.578667 -5.972779 0.091299 0.000000 -0.995823 0.956559 0.795188 1 0 1.000000
wood_door02_old
  0 55.297867 45.262085 -5.972779 -0.064556 0.064557 -0.995824 0.905728 0.795188 1 0 1.000000
  0 55.981285 46.252693 -5.547440 -0.000001 0.792345 -0.610074 0.922672 0.775958 1 0 1.000000
  0 55.981285 45.545166 -5.972779 0.000000 0.091297 -0.995824 0.922672 0.795188 1 0 1.000000
wood_door02_old
  0 55.981285 46.252693 -5.547440 -0.000001 0.792345 -0.610074 0.922672 0.775958 1 0 1.000000
  0 57.165005 45.762383 -5.547440 0.560272 0.560271 -0.610075 0.939615 0.775958 1 0 1.000000
  0 55.981285 45.545166 -5.972779 0.000000 0.091297 -0.995824 0.922672 0.795188 1 0 1.000000
wood_door02_old
  0 55.981285 46.252693 -5.547440 -0.000001 0.792345 -0.610074 0.922672 0.775958 1 0 1.000000
  0 57.348125 45.945503 -4.580938 0.707107 0.707106 0.000000 0.939615 0.756728 1 0 1.000000
  0 57.165005 45.762383 -5.547440 0.560272 0.560271 -0.610075 0.939615 0.775958 1 0 1.000000
wood_door02_old
  0 57.348125 45.945503 -4.580938 0.707107 0.707106 0.000000 0.939615 0.756728 1 0 1.000000
  0 57.914288 44.578667 -4.580938 1.000000 0.000001 0.000000 0.956559 0.756728 1 0 1.000000
  0 57.165005 45.762383 -5.547440 0.560272 0.560271 -0.610075 0.939615 0.775958 1 0 1.000000
wood_door02_old
  0 57.348125 45.945503 -4.580938 0.707107 0.707106 0.000000 0.939615 0.756728 1 0 1.000000
  0 57.655312 44.578667 -3.614437 0.824120 0.000001 0.566415 0.956559 0.737498 1 0 1.000000
  0 57.914288 44.578667 -4.580938 1.000000 0.000001 0.000000 0.956559 0.756728 1 0 1.000000
wood_door02_old
  0 55.981285 45.545166 -5.972779 0.000000 0.091297 -0.995824 0.922672 0.795188 1 0 1.000000
  0 57.165005 45.762383 -5.547440 0.560272 0.560271 -0.610075 0.939615 0.775958 1 0 1.000000
  0 56.664703 45.262085 -5.972779 0.064557 0.064555 -0.995824 0.939615 0.795188 1 0 1.000000
wood_door02_old
  0 57.165005 45.762383 -5.547440 0.560272 0.560271 -0.610075 0.939615 0.775958 1 0 1.000000
  0 57.655312 44.578667 -5.547440 0.792345 0.000001 -0.610073 0.956559 0.775958 1 0 1.000000
  0 56.664703 45.262085 -5.972779 0.064557 0.064555 -0.995824 0.939615 0.795188 1 0 1.000000
wood_door02_old
  0 57.165005 45.762383 -5.547440 0.560272 0.560271 -0.610075 0.939615 0.775958 1 0 1.000000
  0 57.914288 44.578667 -4.580938 1.000000 0.000001 0.000000 0.956559 0.756728 1 0 1.000000
  0 57.655312 44.578667 -5.547440 0.792345 0.000001 -0.610073 0.956559 0.775958 1 0 1.000000
wood_door02_old
  0 56.876144 44.578667 -1.576445 1.000000 0.000000 0.000000 0.956464 0.679456 1 0 1.000000
  0 56.614044 45.211426 -3.029949 0.628534 0.628535 0.458137 0.939591 0.718268 1 0 1.000000
  0 56.614044 45.211426 -1.576445 0.707106 0.707108 0.000000 0.939568 0.679456 1 0 1.000000
wood_door02_old
  0 56.876144 44.578667 -3.029949 0.888882 0.000000 0.458137 0.956511 0.718268 1 0 1.000000
  0 56.614044 45.211426 -3.029949 0.628534 0.628535 0.458137 0.939591 0.718268 1 0 1.000000
  0 56.876144 44.578667 -1.576445 1.000000 0.000000 0.000000 0.956464 0.679456 1 0 1.000000
wood_door02_old
  0 56.614044 43.945908 -1.576445 0.707108 -0.707106 0.000000 0.973359 0.679456 1 0 1.000000
  0 56.876144 44.578667 -3.029949 0.888882 0.000000 0.458137 0.956511 0.718268 1 0 1.000000
  0 56.876144 44.578667 -1.576445 1.000000 0.000000 0.000000 0.956464 0.679456 1 0 1.000000
wood_door02_old
  0 56.614044 43.945908 -3.029949 0.628535 -0.628533 0.458138 0.973431 0.718268 1 0 1.000000
  0 56.876144 44.578667 -3.029949 0.888882 0.000000 0.458137 0.956511 0.718268 1 0 1.000000
  0 56.614044 43.945908 -1.576445 0.707108 -0.707106 0.000000 0.973359 0.679456 1 0 1.000000
wood_door02_old
  0 55.981285 43.683807 -1.576445 -0.000001 -1.000000 0.000000 0.990255 0.679456 1 0 1.000000
  0 56.614044 43.945908 -3.029949 0.628535 -0.628533 0.458138 0.973431 0.718268 1 0 1.000000
  0 56.614044 43.945908 -1.576445 0.707108 -0.707106 0.000000 0.973359 0.679456 1 0 1.000000
wood_door02_old
  0 55.981285 43.683807 -3.029949 -0.000001 -0.888881 0.458137 0.990350 0.718268 1 0 1.000000
  0 56.614044 43.945908 -3.029949 0.628535 -0.628533 0.458138 0.973431 0.718268 1 0 1.000000
  0 55.981285 43.683807 -1.576445 -0.000001 -1.000000 0.000000 0.990255 0.679456 1 0 1.000000
wood_door02_old
  0 56.614044 43.945908 -3.029949 0.628535 -0.628533 0.458138 0.973431 0.718268 1 0 1.000000
  0 55.981285 43.683807 -3.029949 -0.000001 -0.888881 0.458137 0.990350 0.718268 1 0 1.000000
  0 57.165005 43.394943 -3.614437 0.582741 -0.582739 0.566417 0.973502 0.737498 1 0 1.000000
wood_door02_old
  0 57.165005 43.394943 -3.614437 0.582741 -0.582739 0.566417 0.973502 0.737498 1 0 1.000000
  0 55.981285 43.683807 -3.029949 -0.000001 -0.888881 0.458137 0.990350 0.718268 1 0 1.000000
  0 55.981285 42.904636 -3.614437 -0.000001 -0.824119 0.566416 0.990446 0.737498 1 0 1.000000
wood_door02_old
  0 57.165005 43.394943 -3.614437 0.582741 -0.582739 0.566417 0.973502 0.737498 1 0 1.000000
  0 55.981285 42.904636 -3.614437 -0.000001 -0.824119 0.566416 0.990446 0.737498 1 0 1.000000
  0 57.348125 43.211826 -4.580938 0.707108 -0.707106 0.000000 0.973502 0.756728 1 0 1.000000
wood_door02_old
  0 57.348125 43.211826 -4.580938 0.707108 -0.707106 0.000000 0.973502 0.756728 1 0 1.000000
  0 55.981285 42.904636 -3.614437 -0.000001 -0.824119 0.566416 0.990446 0.737498 1 0 1.000000
  0 55.981285 42.645660 -4.580938 -0.000001 -1.000000 0.000000 0.990446 0.756728 1 0 1.000000
wood_door02_old
  0 57.348125 43.211826 -4.580938 0.707108 -0.707106 0.000000 0.973502 0.756728 1 0 1.000000
  0 55.981285 42.645660 -4.580938 -0.000001 -1.000000 0.000000 0.990446 0.756728 1 0 1.000000
  0 57.165005 43.394943 -5.547440 0.560273 -0.560270 -0.610075 0.973502 0.775958 1 0 1.000000
wood_door02_old
  0 57.165005 43.394943 -5.547440 0.560273 -0.560270 -0.610075 0.973502 0.775958 1 0 1.000000
  0 55.981285 42.645660 -4.580938 -0.000001 -1.000000 0.000000 0.990446 0.756728 1 0 1.000000
  0 55.981285 42.904636 -5.547440 -0.000001 -0.792343 -0.610076 0.990446 0.775958 1 0 1.000000
wood_door02_old
  0 57.165005 43.394943 -5.547440 0.560273 -0.560270 -0.610075 0.973502 0.775958 1 0 1.000000
  0 55.981285 42.904636 -5.547440 -0.000001 -0.792343 -0.610076 0.990446 0.775958 1 0 1.000000
  0 56.664703 43.895245 -5.972779 0.064558 -0.064555 -0.995824 0.973502 0.795188 1 0 1.000000
wood_door02_old
  0 56.664703 43.895245 -5.972779 0.064558 -0.064555 -0.995824 0.973502 0.795188 1 0 1.000000
  0 55.981285 42.904636 -5.547440 -0.000001 -0.792343 -0.610076 0.990446 0.775958 1 0 1.000000
  0 55.981285 43.612164 -5.972779 -0.000001 -0.091296 -0.995824 0.990446 0.795188 1 0 1.000000
wood_door02_old
  0 43.448090 20.142778 -0.308797 0.000000 0.222617 0.974906 1.064814 0.329502 1 0 1.000000
  0 16.768354 20.142776 -0.308796 0.000000 0.222617 0.974906 1.064814 0.260933 1 0 1.000000
  0 43.448090 17.433643 0.309828 0.000000 0.222617 0.974906 1.071922 0.329502 1 0 1.000000
wood_door02_old
  0 43.448090 17.433643 0.309828 0.000000 0.222617 0.974906 1.071922 0.329502 1 0 1.000000
  0 16.768354 20.142776 -0.308796 0.000000 0.222617 0.974906 1.064814 0.260933 1 0 1.000000
  0 16.768354 17.433643 0.309827 0.000000 0.222617 0.974906 1.071922 0.260933 1 0 1.000000
wood_door02_old
  0 0.000000 94.000000 1.001030 0.000000 1.000000 0.000000 0.430859 0.663161 1 0 1.000000
  0 60.000000 94.000000 1.001030 0.000000 1.000000 0.000000 0.022946 0.663161 1 0 1.000000
  0 0.000000 94.000000 -1.000000 0.000000 1.000000 0.000000 0.430859 0.649564 1 0 1.000000
wood_door02_old
  0 0.000000 94.000000 -1.000000 0.000000 1.000000 0.000000 0.430859 0.649564 1 0 1.000000
  0 60.000000 94.000000 1.001030 0.000000 1.000000 0.000000 0.022946 0.663161 1 0 1.000000
  0 60.000000 94.000000 -1.000000 0.000000 1.000000 0.000000 0.022946 0.649564 1 0 1.000000
wood_door02_old
  0 0.000000 1.000000 -1.000000 0.000000 -1.000000 0.000000 0.430859 0.017298 1 0 1.000000
  0 60.000000 1.000000 -1.000000 0.000000 -1.000000 0.000000 0.022946 0.017298 1 0 1.000000
  0 0.000000 1.000000 1.001030 0.000000 -1.000000 0.000000 0.430859 0.003701 1 0 1.000000
wood_door02_old
  0 0.000000 1.000000 1.001030 0.000000 -1.000000 0.000000 0.430859 0.003701 1 0 1.000000
  0 60.000000 1.000000 -1.000000 0.000000 -1.000000 0.000000 0.022946 0.017298 1 0 1.000000
  0 60.000000 1.000000 1.001030 0.000000 -1.000000 0.000000 0.022946 0.003701 1 0 1.000000
wood_door02_old
  0 60.000000 1.000000 1.001030 1.000000 0.000000 0.000000 0.009349 0.017298 1 0 1.000000
  0 60.000000 1.000000 -1.000000 1.000000 0.000000 0.000000 0.022946 0.017298 1 0 1.000000
  0 60.000000 94.000000 1.001030 1.000000 0.000000 0.000000 0.009349 0.649564 1 0 1.000000
wood_door02_old
  0 60.000000 94.000000 1.001030 1.000000 0.000000 0.000000 0.009349 0.649564 1 0 1.000000
  0 60.000000 1.000000 -1.000000 1.000000 0.000000 0.000000 0.022946 0.017298 1 0 1.000000
  0 60.000000 94.000000 -1.000000 1.000000 0.000000 0.000000 0.022946 0.649564 1 0 1.000000
wood_door02_old
  0 0.000000 1.000000 -1.000000 -1.000000 0.000000 0.000000 0.430859 0.017298 1 0 1.000000
  0 0.000000 1.000000 1.001030 -1.000000 0.000000 0.000000 0.444457 0.017298 1 0 1.000000
  0 0.000000 94.000000 -1.000000 -1.000000 0.000000 0.000000 0.430859 0.649564 1 0 1.000000
wood_door02_old
  0 0.000000 94.000000 -1.000000 -1.000000 0.000000 0.000000 0.430859 0.649564 1 0 1.000000
  0 0.000000 1.000000 1.001030 -1.000000 0.000000 0.000000 0.444457 0.017298 1 0 1.000000
  0 0.000000 94.000000 1.001030 -1.000000 0.000000 0.000000 0.444457 0.649564 1 0 1.000000
wood_door02_old
  0 17.159027 19.983301 -1.000000 1.000000 0.000000 0.000000 0.976709 0.339969 1 0 1.000000
  0 17.159027 19.983299 1.001030 1.000000 0.000000 0.000000 0.955289 0.339969 1 0 1.000000
  0 17.159027 17.593121 -1.000000 1.000000 0.000000 0.000000 0.976709 0.314370 1 0 1.000000
wood_door02_old
  0 17.159027 17.593121 -1.000000 1.000000 0.000000 0.000000 0.976709 0.314370 1 0 1.000000
  0 17.159027 19.983299 1.001030 1.000000 0.000000 0.000000 0.955289 0.339969 1 0 1.000000
  0 17.159027 17.593121 1.001030 1.000000 0.000000 0.000000 0.955289 0.314370 1 0 1.000000
wood_door02_old
  0 42.840973 19.983301 -1.000000 0.000000 -1.000000 -0.000001 0.977327 0.314680 1 0 1.000000
  0 42.840973 19.983299 1.001030 0.000000 -1.000000 -0.000001 0.955907 0.314680 1 0 1.000000
  0 17.159027 19.983301 -1.000000 0.000000 -1.000000 -0.000001 0.977327 0.039630 1 0 1.000000
wood_door02_old
  0 17.159027 19.983301 -1.000000 0.000000 -1.000000 -0.000001 0.977327 0.039630 1 0 1.000000
  0 42.840973 19.983299 1.001030 0.000000 -1.000000 -0.000001 0.955907 0.314680 1 0 1.000000
  0 17.159027 19.983299 1.001030 0.000000 -1.000000 -0.000001 0.955907 0.039630 1 0 1.000000
wood_door02_old
  0 42.840973 17.593121 -1.000000 -1.000000 0.000000 0.000000 0.977327 0.340278 1 0 1.000000
  0 42.840973 17.593121 1.001030 -1.000000 0.000000 0.000000 0.955907 0.340278 1 0 1.000000
  0 42.840973 19.983301 -1.000000 -1.000000 0.000000 0.000000 0.977327 0.314680 1 0 1.000000
wood_door02_old
  0 42.840973 19.983301 -1.000000 -1.000000 0.000000 0.000000 0.977327 0.314680 1 0 1.000000
  0 42.840973 17.593121 1.001030 -1.000000 0.000000 0.000000 0.955907 0.340278 1 0 1.000000
  0 42.840973 19.983299 1.001030 -1.000000 0.000000 0.000000 0.955907 0.314680 1 0 1.000000
wood_door02_old
  0 17.159027 17.593121 -1.000000 0.000000 1.000000 0.000000 0.976709 0.314370 1 0 1.000000
  0 17.159027 17.593121 1.001030 0.000000 1.000000 0.000000 0.955289 0.314370 1 0 1.000000
  0 42.840973 17.593121 -1.000000 0.000000 1.000000 0.000000 0.976709 0.039321 1 0 1.000000
wood_door02_old
  0 42.840973 17.593121 -1.000000 0.000000 1.000000 0.000000 0.976709 0.039321 1 0 1.000000
  0 17.159027 17.593121 1.001030 0.000000 1.000000 0.000000 0.955289 0.314370 1 0 1.000000
  0 42.840973 17.593121 1.001030 0.000000 1.000000 0.000000 0.955289 0.039321 1 0 1.000000
wood_door02_old
  0 53.330963 36.151276 0.983008 0.000000 -1.000000 0.000000 0.843016 0.688424 1 0 1.000000
  0 58.620728 36.151276 0.983008 0.000000 -1.000000 0.000000 0.843016 0.781358 1 0 1.000000
  0 53.330963 36.151276 1.569640 0.000000 -1.000000 0.000000 0.832710 0.688424 1 0 1.000000
wood_door02_old
  0 53.330963 36.151276 1.569640 0.000000 -1.000000 0.000000 0.832710 0.688424 1 0 1.000000
  0 58.620728 36.151276 0.983008 0.000000 -1.000000 0.000000 0.843016 0.781358 1 0 1.000000
  0 58.620728 36.151276 1.569640 0.000000 -1.000000 0.000000 0.832710 0.781358 1 0 1.000000
wood_door02_old
  0 58.620724 36.151276 -1.033489 0.000000 -1.000000 0.000000 0.843016 0.688424 1 0 1.000000
  0 53.330959 36.151276 -1.033489 0.000000 -1.000000 0.000000 0.843016 0.781358 1 0 1.000000
  0 58.620724 36.151276 -1.620120 0.000000 -1.000000 0.000000 0.832710 0.688424 1 0 1.000000
wood_door02_old
  0 58.620724 36.151276 -1.620120 0.000000 -1.000000 0.000000 0.832710 0.688424 1 0 1.000000
  0 53.330959 36.151276 -1.033489 0.000000 -1.000000 0.000000 0.843016 0.781358 1 0 1.000000
  0 53.330959 36.151276 -1.620120 0.000000 -1.000000 0.000000 0.832710 0.781358 1 0 1.000000
wood_door02_old
  0 53.330959 47.676441 -1.033489 0.000000 1.000000 0.000000 0.619923 0.781358 1 0 1.000000
  0 58.620724 47.676441 -1.033489 0.000000 1.000000 0.000000 0.619923 0.688424 1 0 1.000000
  0 53.330959 47.676441 -1.620120 0.000000 1.000000 0.000000 0.630229 0.781358 1 0 1.000000
wood_door02_old
  0 53.330959 47.676441 -1.620120 0.000000 1.000000 0.000000 0.630229 0.781358 1 0 1.000000
  0 58.620724 47.676441 -1.033489 0.000000 1.000000 0.000000 0.619923 0.688424 1 0 1.000000
  0 58.620724 47.676441 -1.620120 0.000000 1.000000 0.000000 0.630229 0.688424 1 0 1.000000
wood_door02_old
  0 58.620724 36.151276 -1.620120 1.000000 0.000000 0.000000 0.832710 0.688424 1 0 1.000000
  0 58.620724 47.676441 -1.620120 1.000000 0.000000 0.000000 0.630229 0.688424 1 0 1.000000
  0 58.620724 36.151276 -1.033489 1.000000 0.000000 0.000000 0.832710 0.678118 1 0 1.000000
wood_door02_old
  0 58.620724 36.151276 -1.033489 1.000000 0.000000 0.000000 0.832710 0.678118 1 0 1.000000
  0 58.620724 47.676441 -1.620120 1.000000 0.000000 0.000000 0.630229 0.688424 1 0 1.000000
  0 58.620724 47.676441 -1.033489 1.000000 0.000000 0.000000 0.630230 0.678118 1 0 1.000000
wood_door02_old
  0 53.330959 36.151276 -1.620120 0.000000 0.000000 -1.000000 0.832710 0.781358 1 0 1.000000
  0 53.330959 47.676441 -1.620120 0.000000 0.000000 -1.000000 0.630229 0.781358 1 0 1.000000
  0 58.620724 36.151276 -1.620120 0.000000 0.000000 -1.000000 0.832710 0.688424 1 0 1.000000
wood_door02_old
  0 58.620724 36.151276 -1.620120 0.000000 0.000000 -1.000000 0.832710 0.688424 1 0 1.000000
  0 53.330959 47.676441 -1.620120 0.000000 0.000000 -1.000000 0.630229 0.781358 1 0 1.000000
  0 58.620724 47.676441 -1.620120 0.000000 0.000000 -1.000000 0.630229 0.688424 1 0 1.000000
wood_door02_old
  0 42.840973 19.983299 1.001030 0.000000 0.000000 1.000000 0.561631 0.146357 1 0 1.000000
  0 60.000000 94.000000 1.001030 0.000000 0.000000 1.000000 0.444974 0.649564 1 0 1.000000
  0 17.159027 19.983299 1.001030 0.000000 0.000000 1.000000 0.736232 0.146357 1 0 1.000000
wood_door02_old
  0 17.159027 19.983299 1.001030 0.000000 0.000000 1.000000 0.736232 0.146357 1 0 1.000000
  0 60.000000 94.000000 1.001030 0.000000 0.000000 1.000000 0.444974 0.649564 1 0 1.000000
  0 0.000000 94.000000 1.001030 0.000000 0.000000 1.000000 0.852888 0.649564 1 0 1.000000
wood_door02_old
  0 0.000000 94.000000 1.001030 0.000000 0.000000 1.000000 0.852888 0.649564 1 0 1.000000
  0 0.000000 1.000000 1.001030 0.000000 0.000000 1.000000 0.852888 0.017298 1 0 1.000000
  0 17.159027 19.983299 1.001030 0.000000 0.000000 1.000000 0.736232 0.146357 1 0 1.000000
wood_door02_old
  0 17.159027 17.593121 1.001030 0.000000 0.000000 1.000000 0.736232 0.130107 1 0 1.000000
  0 17.159027 19.983299 1.001030 0.000000 0.000000 1.000000 0.736232 0.146357 1 0 1.000000
  0 0.000000 1.000000 1.001030 0.000000 0.000000 1.000000 0.852888 0.017298 1 0 1.000000
wood_door02_old
  0 0.000000 1.000000 1.001030 0.000000 0.000000 1.000000 0.852888 0.017298 1 0 1.000000
  0 42.840973 17.593121 1.001030 0.000000 0.000000 1.000000 0.561631 0.130107 1 0 1.000000
  0 17.159027 17.593121 1.001030 0.000000 0.000000 1.000000 0.736232 0.130107 1 0 1.000000
wood_door02_old
  0 60.000000 1.000000 1.001030 0.000000 0.000000 1.000000 0.444974 0.017298 1 0 1.000000
  0 42.840973 17.593121 1.001030 0.000000 0.000000 1.000000 0.561631 0.130107 1 0 1.000000
  0 0.000000 1.000000 1.001030 0.000000 0.000000 1.000000 0.852888 0.017298 1 0 1.000000
wood_door02_old
  0 60.000000 1.000000 1.001030 0.000000 0.000000 1.000000 0.444974 0.017298 1 0 1.000000
  0 42.840973 19.983299 1.001030 0.000000 0.000000 1.000000 0.561631 0.146357 1 0 1.000000
  0 42.840973 17.593121 1.001030 0.000000 0.000000 1.000000 0.561631 0.130107 1 0 1.000000
wood_door02_old
  0 60.000000 94.000000 1.001030 0.000000 0.000000 1.000000 0.444974 0.649564 1 0 1.000000
  0 42.840973 19.983299 1.001030 0.000000 0.000000 1.000000 0.561631 0.146357 1 0 1.000000
  0 60.000000 1.000000 1.001030 0.000000 0.000000 1.000000 0.444974 0.017298 1 0 1.000000
wood_door02_old
  0 55.981285 43.612164 -5.972779 -0.000001 -0.091296 -0.995824 0.967812 0.605859 1 0 1.000000
  0 55.297867 43.895245 -5.972779 -0.064557 -0.064557 -0.995824 0.989587 0.614878 1 0 1.000000
  0 55.981285 44.578667 -5.617122 0.000001 -0.000001 -1.000000 0.967812 0.636654 1 0 1.000000
wood_door02_old
  0 55.297867 43.895245 -5.972779 -0.064557 -0.064557 -0.995824 0.989587 0.614878 1 0 1.000000
  0 55.014786 44.578667 -5.972779 -0.091297 0.000000 -0.995824 0.998607 0.636654 1 0 1.000000
  0 55.981285 44.578667 -5.617122 0.000001 -0.000001 -1.000000 0.967812 0.636654 1 0 1.000000
wood_door02_old
  0 55.014786 44.578667 -5.972779 -0.091297 0.000000 -0.995824 0.998607 0.636654 1 0 1.000000
  0 55.297867 45.262085 -5.972779 -0.064556 0.064557 -0.995824 0.989587 0.658429 1 0 1.000000
  0 55.981285 44.578667 -5.617122 0.000001 -0.000001 -1.000000 0.967812 0.636654 1 0 1.000000
wood_door02_old
  0 55.297867 45.262085 -5.972779 -0.064556 0.064557 -0.995824 0.989587 0.658429 1 0 1.000000
  0 55.981285 45.545166 -5.972779 0.000000 0.091297 -0.995824 0.967812 0.667448 1 0 1.000000
  0 55.981285 44.578667 -5.617122 0.000001 -0.000001 -1.000000 0.967812 0.636654 1 0 1.000000
wood_door02_old
  0 55.981285 45.545166 -5.972779 0.000000 0.091297 -0.995824 0.967812 0.667448 1 0 1.000000
  0 56.664703 45.262085 -5.972779 0.064557 0.064555 -0.995824 0.946037 0.658429 1 0 1.000000
  0 55.981285 44.578667 -5.617122 0.000001 -0.000001 -1.000000 0.967812 0.636654 1 0 1.000000
wood_door02_old
  0 56.664703 45.262085 -5.972779 0.064557 0.064555 -0.995824 0.946037 0.658429 1 0 1.000000
  0 56.947788 44.578667 -5.972779 0.091299 0.000000 -0.995823 0.937017 0.636654 1 0 1.000000
  0 55.981285 44.578667 -5.617122 0.000001 -0.000001 -1.000000 0.967812 0.636654 1 0 1.000000
wood_door02_old
  0 56.947788 44.578667 -5.972779 0.091299 0.000000 -0.995823 0.937017 0.636654 1 0 1.000000
  0 56.664703 43.895245 -5.972779 0.064558 -0.064555 -0.995824 0.946037 0.614878 1 0 1.000000
  0 55.981285 44.578667 -5.617122 0.000001 -0.000001 -1.000000 0.967812 0.636654 1 0 1.000000
wood_door02_old
  0 56.664703 43.895245 -5.972779 0.064558 -0.064555 -0.995824 0.946037 0.614878 1 0 1.000000
  0 55.981285 43.612164 -5.972779 -0.000001 -0.091296 -0.995824 0.967812 0.605859 1 0 1.000000
  0 55.981285 44.578667 -5.617122 0.000001 -0.000001 -1.000000 0.967812 0.636654 1 0 1.000000
wood_door02_old
  0 60.000000 94.000000 -1.000000 0.000000 0.000000 -1.000000 0.022946 0.649564 1 0 1.000000
  0 60.000000 1.000000 -1.000000 0.000000 0.000000 -1.000000 0.022946 0.017298 1 0 1.000000
  0 42.840973 19.983301 -1.000000 0.000000 0.000000 -1.000000 0.139603 0.146357 1 0 1.000000
wood_door02_old
  0 60.000000 1.000000 -1.000000 0.000000 0.000000 -1.000000 0.022946 0.017298 1 0 1.000000
  0 42.840973 17.593121 -1.000000 0.000000 0.000000 -1.000000 0.139603 0.130107 1 0 1.000000
  0 42.840973 19.983301 -1.000000 0.000000 0.000000 -1.000000 0.139603 0.146357 1 0 1.000000
wood_door02_old
  0 60.000000 1.000000 -1.000000 0.000000 0.000000 -1.000000 0.022946 0.017298 1 0 1.000000
  0 0.000000 1.000000 -1.000000 0.000000 0.000000 -1.000000 0.430859 0.017298 1 0 1.000000
  0 42.840973 17.593121 -1.000000 0.000000 0.000000 -1.000000 0.139603 0.130107 1 0 1.000000
wood_door02_old
  0 42.840973 17.593121 -1.000000 0.000000 0.000000 -1.000000 0.139603 0.130107 1 0 1.000000
  0 0.000000 1.000000 -1.000000 0.000000 0.000000 -1.000000 0.430859 0.017298 1 0 1.000000
  0 17.159027 17.593121 -1.000000 0.000000 0.000000 -1.000000 0.314203 0.130107 1 0 1.000000
wood_door02_old
  0 17.159027 17.593121 -1.000000 0.000000 0.000000 -1.000000 0.314203 0.130107 1 0 1.000000
  0 0.000000 1.000000 -1.000000 0.000000 0.000000 -1.000000 0.430859 0.017298 1 0 1.000000
  0 17.159027 19.983301 -1.000000 0.000000 0.000000 -1.000000 0.314203 0.146357 1 0 1.000000
wood_door02_old
  0 0.000000 94.000000 -1.000000 0.000000 0.000000 -1.000000 0.430859 0.649564 1 0 1.000000
  0 17.159027 19.983301 -1.000000 0.000000 0.000000 -1.000000 0.314203 0.146357 1 0 1.000000
  0 0.000000 1.000000 -1.000000 0.000000 0.000000 -1.000000 0.430859 0.017298 1 0 1.000000
wood_door02_old
  0 60.000000 94.000000 -1.000000 0.000000 0.000000 -1.000000 0.022946 0.649564 1 0 1.000000
  0 17.159027 19.983301 -1.000000 0.000000 0.000000 -1.000000 0.314203 0.146357 1 0 1.000000
  0 0.000000 94.000000 -1.000000 0.000000 0.000000 -1.000000 0.430859 0.649564 1 0 1.000000
wood_door02_old
  0 42.840973 19.983301 -1.000000 0.000000 0.000000 -1.000000 0.139603 0.146357 1 0 1.000000
  0 17.159027 19.983301 -1.000000 0.000000 0.000000 -1.000000 0.314203 0.146357 1 0 1.000000
  0 60.000000 94.000000 -1.000000 0.000000 0.000000 -1.000000 0.022946 0.649564 1 0 1.000000
end
