version 1
nodes
0 "polySurface6" -1
end
skeleton
time 0
0  0.000000 0.000000 0.000000  0.000000 -0.000000 0.000000
end
triangles
  phy
0  59.972130 95.186150 1.067794  0.999794 0.017132 0.010841  0.000000 0.000000 1 0 1.000000
0  59.972130 -0.000000 1.067782  0.997414 0.068537 -0.021614  0.000000 0.000000 1 0 1.000000
0  59.972130 95.186150 -0.995772  -0.996715 0.068503 0.043203  0.000000 0.000000 1 0 1.000000
  phy
0  59.972130 -0.000000 1.067782  0.997414 0.068537 -0.021614  0.000000 0.000000 1 0 1.000000
0  59.972130 0.000000 -0.995784  -0.999616 0.017190 -0.021723  0.000000 0.000000 1 0 1.000000
0  59.972130 95.186150 -0.995772  -0.996715 0.068503 0.043203  0.000000 0.000000 1 0 1.000000
  phy
0  59.972130 95.186150 1.067794  0.999794 0.017132 0.010841  0.000000 0.000000 1 0 1.000000
0  -0.065046 -0.000000 1.067785  0.999177 -0.034324 -0.021603  0.000000 0.000000 1 0 1.000000
0  59.972130 -0.000000 1.067782  0.997414 0.068537 -0.021614  0.000000 0.000000 1 0 1.000000
  phy
0  59.972130 95.186150 1.067794  0.999794 0.017132 0.010841  0.000000 0.000000 1 0 1.000000
0  -0.065046 95.186150 1.067796  0.998478 -0.034226 0.043252  0.000000 0.000000 1 0 1.000000
0  -0.065046 -0.000000 1.067785  0.999177 -0.034324 -0.021603  0.000000 0.000000 1 0 1.000000
  phy
0  59.972130 95.186150 -0.995772  -0.996715 0.068503 0.043203  0.000000 0.000000 1 0 1.000000
0  -0.065046 95.186150 1.067796  0.998478 -0.034226 0.043252  0.000000 0.000000 1 0 1.000000
0  59.972130 95.186150 1.067794  0.999794 0.017132 0.010841  0.000000 0.000000 1 0 1.000000
  phy
0  59.972130 95.186150 -0.995772  -0.996715 0.068503 0.043203  0.000000 0.000000 1 0 1.000000
0  -0.065046 95.186150 -0.995770  -0.999352 -0.034333 0.010831  0.000000 0.000000 1 0 1.000000
0  -0.065046 95.186150 1.067796  0.998478 -0.034226 0.043252  0.000000 0.000000 1 0 1.000000
  phy
0  59.972130 0.000000 -0.995784  -0.999616 0.017190 -0.021723  0.000000 0.000000 1 0 1.000000
0  59.972130 -0.000000 1.067782  0.997414 0.068537 -0.021614  0.000000 0.000000 1 0 1.000000
0  -0.065046 -0.000000 1.067785  0.999177 -0.034324 -0.021603  0.000000 0.000000 1 0 1.000000
  phy
0  59.972130 0.000000 -0.995784  -0.999616 0.017190 -0.021723  0.000000 0.000000 1 0 1.000000
0  -0.065046 -0.000000 1.067785  0.999177 -0.034324 -0.021603  0.000000 0.000000 1 0 1.000000
0  -0.065046 0.000000 -0.995781  -0.999177 -0.034279 -0.021699  0.000000 0.000000 1 0 1.000000
  phy
0  -0.065046 95.186150 1.067796  0.998478 -0.034226 0.043252  0.000000 0.000000 1 0 1.000000
0  -0.065046 95.186150 -0.995770  -0.999352 -0.034333 0.010831  0.000000 0.000000 1 0 1.000000
0  -0.065046 -0.000000 1.067785  0.999177 -0.034324 -0.021603  0.000000 0.000000 1 0 1.000000
  phy
0  -0.065046 -0.000000 1.067785  0.999177 -0.034324 -0.021603  0.000000 0.000000 1 0 1.000000
0  -0.065046 95.186150 -0.995770  -0.999352 -0.034333 0.010831  0.000000 0.000000 1 0 1.000000
0  -0.065046 0.000000 -0.995781  -0.999177 -0.034279 -0.021699  0.000000 0.000000 1 0 1.000000
  phy
0  -0.065046 95.186150 -0.995770  -0.999352 -0.034333 0.010831  0.000000 0.000000 1 0 1.000000
0  59.972130 95.186150 -0.995772  -0.996715 0.068503 0.043203  0.000000 0.000000 1 0 1.000000
0  59.972130 0.000000 -0.995784  -0.999616 0.017190 -0.021723  0.000000 0.000000 1 0 1.000000
  phy
0  -0.065046 0.000000 -0.995781  -0.999177 -0.034279 -0.021699  0.000000 0.000000 1 0 1.000000
0  -0.065046 95.186150 -0.995770  -0.999352 -0.034333 0.010831  0.000000 0.000000 1 0 1.000000
0  59.972130 0.000000 -0.995784  -0.999616 0.017190 -0.021723  0.000000 0.000000 1 0 1.000000
end
