version 1
nodes
0 "File_cabinet_03" -1
end
skeleton
time 0
0  0.000000 0.000000 0.000000  0.000000 -0.000000 0.000000
end
triangles
  phy
0  -12.027861 0.025314 32.821045  0.157308 -0.950567 -0.267724  0.000000 0.000000 1 0 1.000000
0  9.709083 0.025314 32.821045  0.311520 0.940941 -0.132606  0.000000 0.000000 1 0 1.000000
0  -12.027861 77.182503 32.821056  0.499754 -0.754626 0.425188  0.000000 0.000000 1 0 1.000000
  phy
0  9.709083 0.025314 32.821045  0.311520 0.940941 -0.132606  0.000000 0.000000 1 0 1.000000
0  9.709083 77.182503 32.821056  0.303628 0.917086 0.258386  0.000000 0.000000 1 0 1.000000
0  -12.027861 77.182503 32.821056  0.499754 -0.754626 0.425188  0.000000 0.000000 1 0 1.000000
  phy
0  -12.027861 77.182503 32.821056  0.499754 -0.754626 0.425188  0.000000 0.000000 1 0 1.000000
0  9.709080 77.182503 -32.821033  -0.157308 0.950567 0.267724  0.000000 0.000000 1 0 1.000000
0  -12.027864 77.182503 -32.821033  -0.311524 -0.940939 0.132612  0.000000 0.000000 1 0 1.000000
  phy
0  -12.027861 77.182503 32.821056  0.499754 -0.754626 0.425188  0.000000 0.000000 1 0 1.000000
0  9.709083 77.182503 32.821056  0.303628 0.917086 0.258386  0.000000 0.000000 1 0 1.000000
0  9.709080 77.182503 -32.821033  -0.157308 0.950567 0.267724  0.000000 0.000000 1 0 1.000000
  phy
0  -12.027861 77.182503 32.821056  0.499754 -0.754626 0.425188  0.000000 0.000000 1 0 1.000000
0  -12.027864 77.182503 -32.821033  -0.311524 -0.940939 0.132612  0.000000 0.000000 1 0 1.000000
0  -12.027861 0.025314 32.821045  0.157308 -0.950567 -0.267724  0.000000 0.000000 1 0 1.000000
  phy
0  -12.027864 0.025320 -32.821045  -0.303677 -0.917083 -0.258340  0.000000 0.000000 1 0 1.000000
0  -12.027864 77.182503 -32.821033  -0.311524 -0.940939 0.132612  0.000000 0.000000 1 0 1.000000
0  9.709080 0.025320 -32.821045  -0.499806 0.754586 -0.425199  0.000000 0.000000 1 0 1.000000
  phy
0  9.709080 0.025320 -32.821045  -0.499806 0.754586 -0.425199  0.000000 0.000000 1 0 1.000000
0  -12.027864 77.182503 -32.821033  -0.311524 -0.940939 0.132612  0.000000 0.000000 1 0 1.000000
0  9.709080 77.182503 -32.821033  -0.157308 0.950567 0.267724  0.000000 0.000000 1 0 1.000000
  phy
0  -12.027861 0.025314 32.821045  0.157308 -0.950567 -0.267724  0.000000 0.000000 1 0 1.000000
0  -12.027864 0.025320 -32.821045  -0.303677 -0.917083 -0.258340  0.000000 0.000000 1 0 1.000000
0  9.709080 0.025320 -32.821045  -0.499806 0.754586 -0.425199  0.000000 0.000000 1 0 1.000000
  phy
0  -12.027861 0.025314 32.821045  0.157308 -0.950567 -0.267724  0.000000 0.000000 1 0 1.000000
0  9.709080 0.025320 -32.821045  -0.499806 0.754586 -0.425199  0.000000 0.000000 1 0 1.000000
0  9.709083 0.025314 32.821045  0.311520 0.940941 -0.132606  0.000000 0.000000 1 0 1.000000
  phy
0  -12.027864 77.182503 -32.821033  -0.311524 -0.940939 0.132612  0.000000 0.000000 1 0 1.000000
0  -12.027864 0.025320 -32.821045  -0.303677 -0.917083 -0.258340  0.000000 0.000000 1 0 1.000000
0  -12.027861 0.025314 32.821045  0.157308 -0.950567 -0.267724  0.000000 0.000000 1 0 1.000000
  phy
0  9.709080 0.025320 -32.821045  -0.499806 0.754586 -0.425199  0.000000 0.000000 1 0 1.000000
0  9.709080 77.182503 -32.821033  -0.157308 0.950567 0.267724  0.000000 0.000000 1 0 1.000000
0  9.709083 0.025314 32.821045  0.311520 0.940941 -0.132606  0.000000 0.000000 1 0 1.000000
  phy
0  9.709080 77.182503 -32.821033  -0.157308 0.950567 0.267724  0.000000 0.000000 1 0 1.000000
0  9.709083 77.182503 32.821056  0.303628 0.917086 0.258386  0.000000 0.000000 1 0 1.000000
0  9.709083 0.025314 32.821045  0.311520 0.940941 -0.132606  0.000000 0.000000 1 0 1.000000
end
