// Created by Crowbar 0.74
version 1
nodes
  0 "bip_hand_R" -1
  1 "pistol" 0
end
skeleton
  time 0
    0 0.000000 0.000000 0.000000 0.000000 0.000000 1.567413
    1 -2.907785 -0.536014 3.819467 -2.861778 -0.176204 -2.528913
  time 1
    0 0.000000 0.000000 0.000000 0.000000 0.000000 1.567413
    1 -2.907785 -0.536014 3.819467 -2.861778 -0.176204 -2.528913
  time 2
    0 0.000000 0.000000 0.000000 0.000000 0.000000 1.567413
    1 -2.907785 -0.536014 3.819467 -2.861778 -0.176204 -2.528913
  time 3
    0 0.000000 0.000000 0.000000 0.000000 0.000000 1.567413
    1 -2.907785 -0.536014 3.819467 -2.861778 -0.176204 -2.528913
  time 4
    0 0.000000 0.000000 0.000000 0.000000 0.000000 1.567413
    1 -2.907785 -0.536014 3.819467 -2.861778 -0.176204 -2.528913
  time 5
    0 0.000000 0.000000 0.000000 0.000000 0.000000 1.567413
    1 -2.907785 -0.536014 3.819467 -2.861778 -0.176204 -2.528913
  time 6
    0 0.000000 0.000000 0.000000 0.000000 0.000000 1.567413
    1 -2.907785 -0.536014 3.819467 -2.861778 -0.176204 -2.528913
  time 7
    0 0.000000 0.000000 0.000000 0.000000 0.000000 1.567413
    1 -2.907785 -0.536014 3.819467 -2.861778 -0.176204 -2.528913
  time 8
    0 0.000000 0.000000 0.000000 0.000000 0.000000 1.567413
    1 -2.907785 -0.536014 3.819467 -2.861778 -0.176204 -2.528913
  time 9
    0 0.000000 0.000000 0.000000 0.000000 0.000000 1.567413
    1 -2.907785 -0.536014 3.819467 -2.861778 -0.176204 -2.528913
  time 10
    0 0.000000 0.000000 0.000000 0.000000 0.000000 1.567413
    1 -2.907785 -0.536014 3.819467 -2.861778 -0.176204 -2.528913
  time 11
    0 0.000000 0.000000 0.000000 0.000000 0.000000 1.567413
    1 -2.907785 -0.536014 3.819467 -2.861778 -0.176204 -2.528913
  time 12
    0 0.000000 0.000000 0.000000 0.000000 0.000000 1.567413
    1 -2.907785 -0.536014 3.819467 -2.861778 -0.176204 -2.528913
  time 13
    0 0.000000 0.000000 0.000000 0.000000 0.000000 1.567413
    1 -2.907785 -0.536014 3.819467 -2.861778 -0.176204 -2.528913
  time 14
    0 0.000000 0.000000 0.000000 0.000000 0.000000 1.567413
    1 -2.907785 -0.536014 3.819467 -2.861778 -0.176204 -2.528913
  time 15
    0 0.000000 0.000000 0.000000 0.000000 0.000000 1.567413
    1 -2.907785 -0.536014 3.819467 -2.861778 -0.176204 -2.528913
  time 16
    0 0.000000 0.000000 0.000000 0.000000 0.000000 1.567413
    1 -2.884347 -0.500857 3.799936 -2.861778 -0.176204 -2.528913
  time 17
    0 0.000000 0.000000 0.000000 0.000000 0.000000 1.567413
    1 -2.829658 -0.411010 3.745246 -2.861778 -0.176204 -2.528913
  time 18
    0 0.000000 0.000000 0.000000 0.000000 0.000000 1.567413
    1 -2.751530 -0.286006 3.671025 -2.861778 -0.176204 -2.528913
  time 19
    0 0.000000 0.000000 0.000000 0.000000 0.000000 1.567413
    1 -2.669497 -0.157096 3.592898 -2.861778 -0.176204 -2.528913
  time 20
    0 0.000000 0.000000 0.000000 0.000000 0.000000 1.567413
    1 -2.599182 -0.043811 3.526490 -2.861778 -0.176204 -2.528913
  time 21
    0 0.000000 0.000000 0.000000 0.000000 0.000000 1.567413
    1 -2.552305 0.030410 3.479613 -2.861778 -0.176204 -2.528913
  time 22
    0 0.000000 0.000000 0.000000 0.000000 0.000000 1.567413
    1 -2.544493 0.042129 3.471801 -2.861778 -0.176204 -2.528913
  time 23
    0 0.000000 0.000000 0.000000 0.000000 0.000000 1.567413
    1 -2.591369 -0.032092 3.518677 -2.861778 -0.176204 -2.528913
  time 24
    0 0.000000 0.000000 0.000000 0.000000 0.000000 1.567413
    1 -2.708560 -0.215692 3.628055 -2.861778 -0.176204 -2.528913
  time 25
    0 0.000000 0.000000 0.000000 0.000000 0.000000 1.567413
    1 -2.907785 -0.536014 3.819467 -2.861778 -0.176204 -2.528913
  time 26
    0 0.000000 0.000000 0.000000 0.000000 0.000000 1.567413
    1 -3.317954 -1.192284 4.214011 -2.861778 -0.176204 -2.528913
  time 27
    0 0.000000 0.000000 0.000000 0.000000 0.000000 1.567413
    1 -3.978130 -2.258723 4.854655 -2.861778 -0.176204 -2.528913
  time 28
    0 0.000000 0.000000 0.000000 0.000000 0.000000 1.567413
    1 -4.782842 -3.543918 5.628116 -2.861778 -0.176204 -2.528913
  time 29
    0 0.000000 0.000000 0.000000 0.000000 0.000000 1.567413
    1 -5.610993 -4.872084 6.425016 -2.861778 -0.176204 -2.528913
  time 30
    0 0.000000 0.000000 0.000000 0.000000 0.000000 1.567413
    1 -6.345390 -6.047901 7.132069 -2.861778 -0.176204 -2.528913
  time 31
    0 0.000000 0.000000 0.000000 0.000000 0.000000 1.567413
    1 -6.872750 -6.891677 7.635990 -2.861778 -0.176204 -2.528913
  time 32
    0 0.000000 0.000000 0.000000 0.000000 0.000000 1.567413
    1 -7.071975 -7.211999 7.827402 -2.861778 -0.176204 -2.528913
  time 33
    0 0.000000 0.000000 0.000000 0.000000 0.000000 1.567413
    1 -6.845405 -6.852613 7.612552 -2.861778 -0.176204 -2.528913
  time 34
    0 0.000000 0.000000 0.000000 0.000000 0.000000 1.567413
    1 -6.263356 -5.918991 7.053941 -2.861778 -0.176204 -2.528913
  time 35
    0 0.000000 0.000000 0.000000 0.000000 0.000000 1.567413
    1 -5.458644 -4.629889 6.280480 -2.861778 -0.176204 -2.528913
  time 36
    0 0.000000 0.000000 0.000000 0.000000 0.000000 1.567413
    1 -4.571898 -3.204064 5.424985 -2.861778 -0.176204 -2.528913
  time 37
    0 0.000000 0.000000 0.000000 0.000000 0.000000 1.567413
    1 -3.732029 -1.868086 4.620273 -2.861778 -0.176204 -2.528913
  time 38
    0 0.000000 0.000000 0.000000 0.000000 0.000000 1.567413
    1 -3.087478 -0.828992 3.995254 -2.861778 -0.176204 -2.528913
  time 39
    0 0.000000 0.000000 0.000000 0.000000 0.000000 1.567413
    1 -2.767156 -0.309445 3.686651 -2.861778 -0.176204 -2.528913
  time 40
    0 0.000000 0.000000 0.000000 0.000000 0.000000 1.567413
    1 -2.907785 -0.536014 3.819467 -2.861778 -0.176204 -2.528913
  time 41
    0 0.000000 0.000000 0.000000 0.000000 0.000000 1.567413
    1 -2.907785 -0.536014 3.819467 -2.861778 -0.176204 -2.528913
  time 42
    0 0.000000 0.000000 0.000000 0.000000 0.000000 1.567413
    1 -2.907785 -0.536014 3.819467 -2.861778 -0.176204 -2.528913
  time 43
    0 0.000000 0.000000 0.000000 0.000000 0.000000 1.567413
    1 -2.907785 -0.536014 3.819467 -2.861778 -0.176204 -2.528913
  time 44
    0 0.000000 0.000000 0.000000 0.000000 0.000000 1.567413
    1 -2.907785 -0.536014 3.819467 -2.861778 -0.176204 -2.528913
  time 45
    0 0.000000 0.000000 0.000000 0.000000 0.000000 1.567413
    1 -2.907785 -0.536014 3.819467 -2.861778 -0.176204 -2.528913
  time 46
    0 0.000000 0.000000 0.000000 0.000000 0.000000 1.567413
    1 -2.907785 -0.536014 3.819467 -2.861778 -0.176204 -2.528913
  time 47
    0 0.000000 0.000000 0.000000 0.000000 0.000000 1.567413
    1 -2.907785 -0.536014 3.819467 -2.861778 -0.176204 -2.528913
  time 48
    0 0.000000 0.000000 0.000000 0.000000 0.000000 1.567413
    1 -2.907785 -0.536014 3.819467 -2.861778 -0.176204 -2.528913
  time 49
    0 0.000000 0.000000 0.000000 0.000000 0.000000 1.567413
    1 -2.907785 -0.536014 3.819467 -2.861778 -0.176204 -2.528913
  time 50
    0 0.000000 0.000000 0.000000 0.000000 0.000000 1.567413
    1 -2.907785 -0.536014 3.819467 -2.861778 -0.176204 -2.528913
  time 51
    0 0.000000 0.000000 0.000000 0.000000 0.000000 1.567413
    1 -2.907785 -0.536014 3.819467 -2.861778 -0.176204 -2.528913
  time 52
    0 0.000000 0.000000 0.000000 0.000000 0.000000 1.567413
    1 -2.907785 -0.536014 3.819467 -2.861778 -0.176204 -2.528913
  time 53
    0 0.000000 0.000000 0.000000 0.000000 0.000000 1.567413
    1 -2.907785 -0.536014 3.819467 -2.861778 -0.176204 -2.528913
  time 54
    0 0.000000 0.000000 0.000000 0.000000 0.000000 1.567413
    1 -2.907785 -0.536014 3.819467 -2.861778 -0.176204 -2.528913
  time 55
    0 0.000000 0.000000 0.000000 0.000000 0.000000 1.567413
    1 -2.907785 -0.536014 3.819467 -2.861778 -0.176204 -2.528913
  time 56
    0 0.000000 0.000000 0.000000 0.000000 0.000000 1.567413
    1 -2.907785 -0.536014 3.819467 -2.861778 -0.176204 -2.528913
  time 57
    0 0.000000 0.000000 0.000000 0.000000 0.000000 1.567413
    1 -2.907785 -0.536014 3.819467 -2.861778 -0.176204 -2.528913
  time 58
    0 0.000000 0.000000 0.000000 0.000000 0.000000 1.567413
    1 -2.907785 -0.536014 3.819467 -2.861778 -0.176204 -2.528913
  time 59
    0 0.000000 0.000000 0.000000 0.000000 0.000000 1.567413
    1 -2.907785 -0.536014 3.819467 -2.861778 -0.176204 -2.528913
  time 60
    0 0.000000 0.000000 0.000000 0.000000 0.000000 1.567413
    1 -2.904297 -0.533203 3.820313 -2.861800 -0.176260 -2.528922
  time 61
    0 0.000000 0.000000 0.000000 0.000000 0.000000 1.567413
    1 -2.904297 -0.533203 3.820313 -2.861800 -0.176260 -2.528922
  time 62
    0 0.000000 0.000000 0.000000 0.000000 0.000000 1.567413
    1 -2.904297 -0.533203 3.820313 -2.861800 -0.176260 -2.528922
  time 63
    0 0.000000 0.000000 0.000000 0.000000 0.000000 1.567413
    1 -2.904297 -0.533203 3.820313 -2.861800 -0.176260 -2.528922
  time 64
    0 0.000000 0.000000 0.000000 0.000000 0.000000 1.567413
    1 -2.904297 -0.533203 3.820313 -2.861800 -0.176260 -2.528922
  time 65
    0 0.000000 0.000000 0.000000 0.000000 0.000000 1.567413
    1 -2.904297 -0.533203 3.820313 -2.861800 -0.176260 -2.528922
  time 66
    0 0.000000 0.000000 0.000000 0.000000 0.000000 1.567413
    1 -2.904297 -0.533203 3.820313 -2.861800 -0.176260 -2.528922
  time 67
    0 0.000000 0.000000 0.000000 0.000000 0.000000 1.567413
    1 -2.904297 -0.533203 3.820313 -2.861800 -0.176260 -2.528922
  time 68
    0 0.000000 0.000000 0.000000 0.000000 0.000000 1.567413
    1 -2.904297 -0.533203 3.820313 -2.861800 -0.176260 -2.528922
  time 69
    0 0.000000 0.000000 0.000000 0.000000 0.000000 1.567413
    1 -2.904297 -0.533203 3.820313 -2.861800 -0.176260 -2.528922
  time 70
    0 0.000000 0.000000 0.000000 0.000000 0.000000 1.567413
    1 -2.904297 -0.533203 3.820313 -2.861800 -0.176260 -2.528922
  time 71
    0 0.000000 0.000000 0.000000 0.000000 0.000000 1.567413
    1 -2.904297 -0.533203 3.820313 -2.861800 -0.176260 -2.528922
  time 72
    0 0.000000 0.000000 0.000000 0.000000 0.000000 1.567413
    1 -2.904297 -0.533203 3.820313 -2.861800 -0.176260 -2.528922
  time 73
    0 0.000000 0.000000 0.000000 0.000000 0.000000 1.567413
    1 -2.904297 -0.533203 3.820313 -2.861800 -0.176260 -2.528922
  time 74
    0 0.000000 0.000000 0.000000 0.000000 0.000000 1.567413
    1 -2.904297 -0.533203 3.820313 -2.861800 -0.176260 -2.528922
  time 75
    0 0.000000 0.000000 0.000000 0.000000 0.000000 1.567413
    1 -2.904297 -0.533203 3.820313 -2.861800 -0.176260 -2.528922
  time 76
    0 0.000000 0.000000 0.000000 0.000000 0.000000 1.567413
    1 -2.904297 -0.533203 3.820313 -2.861800 -0.176260 -2.528922
  time 77
    0 0.000000 0.000000 0.000000 0.000000 0.000000 1.567413
    1 -2.904297 -0.533203 3.820313 -2.861800 -0.176260 -2.528922
  time 78
    0 0.000000 0.000000 0.000000 0.000000 0.000000 1.567413
    1 -2.904297 -0.533203 3.820313 -2.861800 -0.176260 -2.528922
  time 79
    0 0.000000 0.000000 0.000000 0.000000 0.000000 1.567413
    1 -2.904297 -0.533203 3.820313 -2.861800 -0.176260 -2.528922
  time 80
    0 0.000000 0.000000 0.000000 0.000000 0.000000 1.567413
    1 -2.904297 -0.533203 3.820313 -2.861800 -0.176260 -2.528922
  time 81
    0 0.000000 0.000000 0.000000 0.000000 0.000000 1.567413
    1 -2.904297 -0.533203 3.820313 -2.861800 -0.176260 -2.528922
  time 82
    0 0.000000 0.000000 0.000000 0.000000 0.000000 1.567413
    1 -2.904297 -0.533203 3.820313 -2.861800 -0.176260 -2.528922
  time 83
    0 0.000000 0.000000 0.000000 0.000000 0.000000 1.567413
    1 -2.904297 -0.533203 3.820313 -2.861800 -0.176260 -2.528922
  time 84
    0 0.000000 0.000000 0.000000 0.000000 0.000000 1.567413
    1 -2.904297 -0.533203 3.820313 -2.861800 -0.176260 -2.528922
  time 85
    0 0.000000 0.000000 0.000000 0.000000 0.000000 1.567413
    1 -2.904297 -0.533203 3.820313 -2.861800 -0.176260 -2.528922
  time 86
    0 0.000000 0.000000 0.000000 0.000000 0.000000 1.567413
    1 -2.904297 -0.533203 3.820313 -2.861800 -0.176260 -2.528922
  time 87
    0 0.000000 0.000000 0.000000 0.000000 0.000000 1.567413
    1 -2.904297 -0.533203 3.820313 -2.861800 -0.176260 -2.528922
  time 88
    0 0.000000 0.000000 0.000000 0.000000 0.000000 1.567413
    1 -2.904297 -0.533203 3.820313 -2.861800 -0.176260 -2.528922
  time 89
    0 0.000000 0.000000 0.000000 0.000000 0.000000 1.567413
    1 -2.904297 -0.533203 3.820313 -2.861800 -0.176260 -2.528922
  time 90
    0 0.000000 0.000000 0.000000 0.000000 0.000000 1.567413
    1 -2.904297 -0.533203 3.820313 -2.861800 -0.176260 -2.528922
  time 91
    0 0.000000 0.000000 0.000000 0.000000 0.000000 1.567413
    1 -2.904297 -0.533203 3.820313 -2.861800 -0.176260 -2.528922
  time 92
    0 0.000000 0.000000 0.000000 0.000000 0.000000 1.567413
    1 -2.904297 -0.533203 3.820313 -2.861800 -0.176260 -2.528922
  time 93
    0 0.000000 0.000000 0.000000 0.000000 0.000000 1.567413
    1 -2.904297 -0.533203 3.820313 -2.861800 -0.176260 -2.528922
  time 94
    0 0.000000 0.000000 0.000000 0.000000 0.000000 1.567413
    1 -2.904297 -0.533203 3.820313 -2.861800 -0.176260 -2.528922
  time 95
    0 0.000000 0.000000 0.000000 0.000000 0.000000 1.567413
    1 -2.904297 -0.533203 3.820313 -2.861800 -0.176260 -2.528922
  time 96
    0 0.000000 0.000000 0.000000 0.000000 0.000000 1.567413
    1 -2.904297 -0.533203 3.820313 -2.861800 -0.176260 -2.528922
  time 97
    0 0.000000 0.000000 0.000000 0.000000 0.000000 1.567413
    1 -2.904297 -0.533203 3.820313 -2.861800 -0.176260 -2.528922
  time 98
    0 0.000000 0.000000 0.000000 0.000000 0.000000 1.567413
    1 -2.904297 -0.533203 3.820313 -2.861800 -0.176260 -2.528922
  time 99
    0 0.000000 0.000000 0.000000 0.000000 0.000000 1.567413
    1 -2.904297 -0.533203 3.820313 -2.861800 -0.176260 -2.528922
  time 100
    0 0.000000 0.000000 0.000000 0.000000 0.000000 1.567413
    1 -2.904297 -0.533203 3.820313 -2.861800 -0.176260 -2.528922
  time 101
    0 0.000000 0.000000 0.000000 0.000000 0.000000 1.567413
    1 -2.904297 -0.533203 3.820313 -2.861800 -0.176260 -2.528922
  time 102
    0 0.000000 0.000000 0.000000 0.000000 0.000000 1.567413
    1 -2.904297 -0.533203 3.820313 -2.861800 -0.176260 -2.528922
  time 103
    0 0.000000 0.000000 0.000000 0.000000 0.000000 1.567413
    1 -2.904297 -0.533203 3.820313 -2.861800 -0.176260 -2.528922
  time 104
    0 0.000000 0.000000 0.000000 0.000000 0.000000 1.567413
    1 -2.904297 -0.533203 3.820313 -2.861800 -0.176260 -2.528922
  time 105
    0 0.000000 0.000000 0.000000 0.000000 0.000000 1.567413
    1 -2.904297 -0.533203 3.820313 -2.861800 -0.176260 -2.528922
  time 106
    0 0.000000 0.000000 0.000000 0.000000 0.000000 1.567413
    1 -2.904297 -0.533203 3.820313 -2.861800 -0.176260 -2.528922
  time 107
    0 0.000000 0.000000 0.000000 0.000000 0.000000 1.567413
    1 -2.904297 -0.533203 3.820313 -2.861800 -0.176260 -2.528922
  time 108
    0 0.000000 0.000000 0.000000 0.000000 0.000000 1.567413
    1 -2.904297 -0.533203 3.820313 -2.861800 -0.176260 -2.528922
  time 109
    0 0.000000 0.000000 0.000000 0.000000 0.000000 1.567413
    1 -2.904297 -0.533203 3.820313 -2.861800 -0.176260 -2.528922
  time 110
    0 0.000000 0.000000 0.000000 0.000000 0.000000 1.567413
    1 -2.904297 -0.533203 3.820313 -2.861800 -0.176260 -2.528922
  time 111
    0 0.000000 0.000000 0.000000 0.000000 0.000000 1.567413
    1 -2.904297 -0.533203 3.820313 -2.861800 -0.176260 -2.528922
  time 112
    0 0.000000 0.000000 0.000000 0.000000 0.000000 1.567413
    1 -2.904297 -0.533203 3.820313 -2.861800 -0.176260 -2.528922
  time 113
    0 0.000000 0.000000 0.000000 0.000000 0.000000 1.567413
    1 -2.904297 -0.533203 3.820313 -2.861800 -0.176260 -2.528922
  time 114
    0 0.000000 0.000000 0.000000 0.000000 0.000000 1.567413
    1 -2.904297 -0.533203 3.820313 -2.861800 -0.176260 -2.528922
  time 115
    0 0.000000 0.000000 0.000000 0.000000 0.000000 1.567413
    1 -2.904297 -0.533203 3.820313 -2.861800 -0.176260 -2.528922
  time 116
    0 0.000000 0.000000 0.000000 0.000000 0.000000 1.567413
    1 -2.904297 -0.533203 3.820313 -2.861800 -0.176260 -2.528922
  time 117
    0 0.000000 0.000000 0.000000 0.000000 0.000000 1.567413
    1 -2.904297 -0.533203 3.820313 -2.861800 -0.176260 -2.528922
  time 118
    0 0.000000 0.000000 0.000000 0.000000 0.000000 1.567413
    1 -2.904297 -0.533203 3.820313 -2.861800 -0.176260 -2.528922
  time 119
    0 0.000000 0.000000 0.000000 0.000000 0.000000 1.567413
    1 -2.904297 -0.533203 3.820313 -2.861800 -0.176260 -2.528922
  time 120
    0 0.000000 0.000000 0.000000 0.000000 0.000000 1.567413
    1 -2.904297 -0.533203 3.820313 -2.861800 -0.176260 -2.528922
  time 121
    0 0.000000 0.000000 0.000000 0.000000 0.000000 1.567413
    1 -2.904297 -0.533203 3.820313 -2.861800 -0.176260 -2.528922
  time 122
    0 0.000000 0.000000 0.000000 0.000000 0.000000 1.567413
    1 -2.904297 -0.533203 3.820313 -2.861800 -0.176260 -2.528922
  time 123
    0 0.000000 0.000000 0.000000 0.000000 0.000000 1.567413
    1 -2.904297 -0.533203 3.820313 -2.861800 -0.176260 -2.528922
  time 124
    0 0.000000 0.000000 0.000000 0.000000 0.000000 1.567413
    1 -2.904297 -0.533203 3.820313 -2.861800 -0.176260 -2.528922
  time 125
    0 0.000000 0.000000 0.000000 0.000000 0.000000 1.567413
    1 -2.904297 -0.533203 3.820313 -2.861800 -0.176260 -2.528922
  time 126
    0 0.000000 0.000000 0.000000 0.000000 0.000000 1.567413
    1 -2.904297 -0.533203 3.820313 -2.861800 -0.176260 -2.528922
  time 127
    0 0.000000 0.000000 0.000000 0.000000 0.000000 1.567413
    1 -2.904297 -0.533203 3.820313 -2.861800 -0.176260 -2.528922
  time 128
    0 0.000000 0.000000 0.000000 0.000000 0.000000 1.567413
    1 -2.904297 -0.533203 3.820313 -2.861800 -0.176260 -2.528922
  time 129
    0 0.000000 0.000000 0.000000 0.000000 0.000000 1.567413
    1 -2.904297 -0.533203 3.820313 -2.861800 -0.176260 -2.528922
  time 130
    0 0.000000 0.000000 0.000000 0.000000 0.000000 1.567413
    1 -2.904297 -0.533203 3.820313 -2.861800 -0.176260 -2.528922
  time 131
    0 0.000000 0.000000 0.000000 0.000000 0.000000 1.567413
    1 -2.904297 -0.533203 3.820313 -2.861800 -0.176260 -2.528922
  time 132
    0 0.000000 0.000000 0.000000 0.000000 0.000000 1.567413
    1 -2.904297 -0.533203 3.820313 -2.861800 -0.176260 -2.528922
  time 133
    0 0.000000 0.000000 0.000000 0.000000 0.000000 1.567413
    1 -2.904297 -0.533203 3.820313 -2.861800 -0.176260 -2.528922
  time 134
    0 0.000000 0.000000 0.000000 0.000000 0.000000 1.567413
    1 -2.904297 -0.533203 3.820313 -2.861800 -0.176260 -2.528922
  time 135
    0 0.000000 0.000000 0.000000 0.000000 0.000000 1.567413
    1 -2.904297 -0.533203 3.820313 -2.861800 -0.176260 -2.528922
  time 136
    0 0.000000 0.000000 0.000000 0.000000 0.000000 1.567413
    1 -2.904297 -0.533203 3.820313 -2.861800 -0.176260 -2.528922
  time 137
    0 0.000000 0.000000 0.000000 0.000000 0.000000 1.567413
    1 -2.904297 -0.533203 3.820313 -2.861800 -0.176260 -2.528922
  time 138
    0 0.000000 0.000000 0.000000 0.000000 0.000000 1.567413
    1 -2.904297 -0.533203 3.820313 -2.861800 -0.176260 -2.528922
  time 139
    0 0.000000 0.000000 0.000000 0.000000 0.000000 1.567413
    1 -2.904297 -0.533203 3.820313 -2.861800 -0.176260 -2.528922
  time 140
    0 0.000000 0.000000 0.000000 0.000000 0.000000 1.567413
    1 -2.904297 -0.533203 3.820313 -2.861800 -0.176260 -2.528922
  time 141
    0 0.000000 0.000000 0.000000 0.000000 0.000000 1.567413
    1 -2.904297 -0.533203 3.820313 -2.861800 -0.176260 -2.528922
  time 142
    0 0.000000 0.000000 0.000000 0.000000 0.000000 1.567413
    1 -2.904297 -0.533203 3.820313 -2.861800 -0.176260 -2.528922
  time 143
    0 0.000000 0.000000 0.000000 0.000000 0.000000 1.567413
    1 -2.904297 -0.533203 3.820313 -2.861800 -0.176260 -2.528922
  time 144
    0 0.000000 0.000000 0.000000 0.000000 0.000000 1.567413
    1 -2.904297 -0.533203 3.820313 -2.861800 -0.176260 -2.528922
  time 145
    0 0.000000 0.000000 0.000000 0.000000 0.000000 1.567413
    1 -2.904297 -0.533203 3.820313 -2.861800 -0.176260 -2.528922
  time 146
    0 0.000000 0.000000 0.000000 0.000000 0.000000 1.567413
    1 -2.904297 -0.533203 3.820313 -2.861800 -0.176260 -2.528922
  time 147
    0 0.000000 0.000000 0.000000 0.000000 0.000000 1.567413
    1 -2.904297 -0.533203 3.820313 -2.861800 -0.176260 -2.528922
  time 148
    0 0.000000 0.000000 0.000000 0.000000 0.000000 1.567413
    1 -2.904297 -0.533203 3.820313 -2.861800 -0.176260 -2.528922
  time 149
    0 0.000000 0.000000 0.000000 0.000000 0.000000 1.567413
    1 -2.904297 -0.533203 3.820313 -2.861800 -0.176260 -2.528922
  time 150
    0 0.000000 0.000000 0.000000 0.000000 0.000000 1.567413
    1 -2.904297 -0.533203 3.820313 -2.861800 -0.176260 -2.528922
  time 151
    0 0.000000 0.000000 0.000000 0.000000 0.000000 1.567413
    1 -2.904297 -0.533203 3.820313 -2.861800 -0.176260 -2.528922
  time 152
    0 0.000000 0.000000 0.000000 0.000000 0.000000 1.567413
    1 -2.904297 -0.533203 3.820313 -2.861800 -0.176260 -2.528922
  time 153
    0 0.000000 0.000000 0.000000 0.000000 0.000000 1.567413
    1 -2.904297 -0.533203 3.820313 -2.861800 -0.176260 -2.528922
  time 154
    0 0.000000 0.000000 0.000000 0.000000 0.000000 1.567413
    1 -2.904297 -0.533203 3.820313 -2.861800 -0.176260 -2.528922
  time 155
    0 0.000000 0.000000 0.000000 0.000000 0.000000 1.567413
    1 -2.904297 -0.533203 3.820313 -2.861800 -0.176260 -2.528922
  time 156
    0 0.000000 0.000000 0.000000 0.000000 0.000000 1.567413
    1 -2.904297 -0.533203 3.820313 -2.861800 -0.176260 -2.528922
  time 157
    0 0.000000 0.000000 0.000000 0.000000 0.000000 1.567413
    1 -2.904297 -0.533203 3.820313 -2.861800 -0.176260 -2.528922
  time 158
    0 0.000000 0.000000 0.000000 0.000000 0.000000 1.567413
    1 -2.904297 -0.533203 3.820313 -2.861800 -0.176260 -2.528922
  time 159
    0 0.000000 0.000000 0.000000 0.000000 0.000000 1.567413
    1 -2.904297 -0.533203 3.820313 -2.861800 -0.176260 -2.528922
  time 160
    0 0.000000 0.000000 0.000000 0.000000 0.000000 1.567413
    1 -2.904297 -0.533203 3.820313 -2.861800 -0.176260 -2.528922
  time 161
    0 0.000000 0.000000 0.000000 0.000000 0.000000 1.567413
    1 -2.904297 -0.533203 3.820313 -2.861800 -0.176260 -2.528922
  time 162
    0 0.000000 0.000000 0.000000 0.000000 0.000000 1.567413
    1 -2.904297 -0.533203 3.820313 -2.861800 -0.176260 -2.528922
  time 163
    0 0.000000 0.000000 0.000000 0.000000 0.000000 1.567413
    1 -2.904297 -0.533203 3.820313 -2.861800 -0.176260 -2.528922
  time 164
    0 0.000000 0.000000 0.000000 0.000000 0.000000 1.567413
    1 -2.904297 -0.533203 3.820313 -2.861800 -0.176260 -2.528922
  time 165
    0 0.000000 0.000000 0.000000 0.000000 0.000000 1.567413
    1 -2.904297 -0.533203 3.820313 -2.861800 -0.176260 -2.528922
  time 166
    0 0.000000 0.000000 0.000000 0.000000 0.000000 1.567413
    1 -2.904297 -0.533203 3.820313 -2.861800 -0.176260 -2.528922
  time 167
    0 0.000000 0.000000 0.000000 0.000000 0.000000 1.567413
    1 -2.904297 -0.533203 3.820313 -2.861800 -0.176260 -2.528922
  time 168
    0 0.000000 0.000000 0.000000 0.000000 0.000000 1.567413
    1 -2.904297 -0.533203 3.820313 -2.861800 -0.176260 -2.528922
  time 169
    0 0.000000 0.000000 0.000000 0.000000 0.000000 1.567413
    1 -2.904297 -0.533203 3.820313 -2.861800 -0.176260 -2.528922
  time 170
    0 0.000000 0.000000 0.000000 0.000000 0.000000 1.567413
    1 -2.904297 -0.533203 3.820313 -2.861800 -0.176260 -2.528922
  time 171
    0 0.000000 0.000000 0.000000 0.000000 0.000000 1.567413
    1 -2.904297 -0.533203 3.820313 -2.861800 -0.176260 -2.528922
  time 172
    0 0.000000 0.000000 0.000000 0.000000 0.000000 1.567413
    1 -2.904297 -0.533203 3.820313 -2.861800 -0.176260 -2.528922
  time 173
    0 0.000000 0.000000 0.000000 0.000000 0.000000 1.567413
    1 -2.904297 -0.533203 3.820313 -2.861800 -0.176260 -2.528922
  time 174
    0 0.000000 0.000000 0.000000 0.000000 0.000000 1.567413
    1 -2.904297 -0.533203 3.820313 -2.861800 -0.176260 -2.528922
  time 175
    0 0.000000 0.000000 0.000000 0.000000 0.000000 1.567413
    1 -2.904297 -0.533203 3.820313 -2.861800 -0.176260 -2.528922
  time 176
    0 0.000000 0.000000 0.000000 0.000000 0.000000 1.567413
    1 -2.904297 -0.533203 3.820313 -2.861800 -0.176260 -2.528922
  time 177
    0 0.000000 0.000000 0.000000 0.000000 0.000000 1.567413
    1 -2.904297 -0.533203 3.820313 -2.861800 -0.176260 -2.528922
  time 178
    0 0.000000 0.000000 0.000000 0.000000 0.000000 1.567413
    1 -2.904297 -0.533203 3.820313 -2.861800 -0.176260 -2.528922
end
