// Created by Crowbar 0.74
version 1
nodes
  0 "static_prop" -1
end
skeleton
  time 0
    0 0.000000 0.000000 0.000000 0.000000 0.000000 0.000000
end
triangles
  phy
    0 -5.935383 3.679448 48.240634 -0.774267 0.412359 -0.480074 0 0
    0 -5.935383 3.679447 75.970686 -0.828925 -0.220734 -0.513964 0 0
    0 5.973966 3.679449 48.240634 -0.947521 0.126158 0.293749 0 0
  phy
    0 5.973966 3.679449 48.240634 -0.947521 0.126158 0.293749 0 0
    0 -5.935383 3.679447 75.970686 -0.828925 -0.220734 -0.513964 0 0
    0 5.973966 3.679448 75.970686 -0.619140 -0.164871 0.767778 0 0
  phy
    0 -5.935383 3.679448 48.240634 -0.774267 0.412359 -0.480074 0 0
    0 -5.935383 -3.704779 48.240634 0.619140 0.164871 -0.767778 0 0
    0 -5.935383 3.679447 75.970686 -0.828925 -0.220734 -0.513964 0 0
  phy
    0 -5.935383 3.679447 75.970686 -0.828925 -0.220734 -0.513964 0 0
    0 -5.935383 -3.704779 48.240634 0.619140 0.164871 -0.767778 0 0
    0 -5.935383 -3.704781 75.970686 0.947521 -0.126158 -0.293749 0 0
  phy
    0 -5.935383 -3.704779 48.240634 0.619140 0.164871 -0.767778 0 0
    0 -5.935383 3.679448 48.240634 -0.774267 0.412359 -0.480074 0 0
    0 5.973966 -3.704779 48.240634 0.828925 0.220734 0.513964 0 0
  phy
    0 5.973966 -3.704779 48.240634 0.828925 0.220734 0.513964 0 0
    0 -5.935383 3.679448 48.240634 -0.774267 0.412359 -0.480074 0 0
    0 5.973966 3.679449 48.240634 -0.947521 0.126158 0.293749 0 0
  phy
    0 5.973966 -3.704779 48.240634 0.828925 0.220734 0.513964 0 0
    0 -5.935383 -3.704781 75.970686 0.947521 -0.126158 -0.293749 0 0
    0 -5.935383 -3.704779 48.240634 0.619140 0.164871 -0.767778 0 0
  phy
    0 -5.935383 -3.704781 75.970686 0.947521 -0.126158 -0.293749 0 0
    0 5.973966 -3.704780 75.970686 0.774267 -0.412359 0.480074 0 0
    0 -5.935383 3.679447 75.970686 -0.828925 -0.220734 -0.513964 0 0
  phy
    0 5.973966 -3.704780 75.970686 0.774267 -0.412359 0.480074 0 0
    0 5.973966 3.679448 75.970686 -0.619140 -0.164871 0.767778 0 0
    0 -5.935383 3.679447 75.970686 -0.828925 -0.220734 -0.513964 0 0
  phy
    0 5.973966 3.679449 48.240634 -0.947521 0.126158 0.293749 0 0
    0 5.973966 3.679448 75.970686 -0.619140 -0.164871 0.767778 0 0
    0 5.973966 -3.704779 48.240634 0.828925 0.220734 0.513964 0 0
  phy
    0 5.973966 3.679448 75.970686 -0.619140 -0.164871 0.767778 0 0
    0 5.973966 -3.704780 75.970686 0.774267 -0.412359 0.480074 0 0
    0 5.973966 -3.704779 48.240634 0.828925 0.220734 0.513964 0 0
  phy
    0 5.973966 -3.704780 75.970686 0.774267 -0.412359 0.480074 0 0
    0 -5.935383 -3.704781 75.970686 0.947521 -0.126158 -0.293749 0 0
    0 5.973966 -3.704779 48.240634 0.828925 0.220734 0.513964 0 0
  phy
    0 -10.144376 3.679447 84.681013 -0.032919 -0.016838 0.999316 0 0
    0 -10.144376 3.679449 44.912020 -0.130620 0.016703 0.991292 0 0
    0 -10.814477 3.679447 84.681013 -0.065739 -0.008406 -0.997801 0 0
  phy
    0 -10.814477 3.679447 84.681013 -0.065739 -0.008406 -0.997801 0 0
    0 -10.144376 3.679449 44.912020 -0.130620 0.016703 0.991292 0 0
    0 -10.814477 3.679449 44.912020 -0.065704 0.033608 -0.997273 0 0
  phy
    0 -10.144376 3.679447 84.681013 -0.032919 -0.016838 0.999316 0 0
    0 -10.144376 -6.491545 44.912020 0.032919 0.016838 0.999316 0 0
    0 -10.144376 3.679449 44.912020 -0.130620 0.016703 0.991292 0 0
  phy
    0 -10.144376 3.679447 84.681013 -0.032919 -0.016838 0.999316 0 0
    0 -10.144376 -6.491547 84.681013 0.130620 -0.016703 0.991292 0 0
    0 -10.144376 -6.491545 44.912020 0.032919 0.016838 0.999316 0 0
  phy
    0 -10.144376 3.679447 84.681013 -0.032919 -0.016838 0.999316 0 0
    0 -10.814477 -6.491547 84.681013 0.065704 -0.033608 -0.997273 0 0
    0 -10.144376 -6.491547 84.681013 0.130620 -0.016703 0.991292 0 0
  phy
    0 -10.144376 3.679447 84.681013 -0.032919 -0.016838 0.999316 0 0
    0 -10.814477 3.679447 84.681013 -0.065739 -0.008406 -0.997801 0 0
    0 -10.814477 -6.491547 84.681013 0.065704 -0.033608 -0.997273 0 0
  phy
    0 -10.144376 3.679449 44.912020 -0.130620 0.016703 0.991292 0 0
    0 -10.144376 -6.491545 44.912020 0.032919 0.016838 0.999316 0 0
    0 -10.814477 3.679449 44.912020 -0.065704 0.033608 -0.997273 0 0
  phy
    0 -10.814477 3.679449 44.912020 -0.065704 0.033608 -0.997273 0 0
    0 -10.144376 -6.491545 44.912020 0.032919 0.016838 0.999316 0 0
    0 -10.814477 -6.491545 44.912020 0.065739 0.008406 -0.997801 0 0
  phy
    0 -10.144376 -6.491547 84.681013 0.130620 -0.016703 0.991292 0 0
    0 -10.814477 -6.491545 44.912020 0.065739 0.008406 -0.997801 0 0
    0 -10.144376 -6.491545 44.912020 0.032919 0.016838 0.999316 0 0
  phy
    0 -10.144376 -6.491547 84.681013 0.130620 -0.016703 0.991292 0 0
    0 -10.814477 -6.491547 84.681013 0.065704 -0.033608 -0.997273 0 0
    0 -10.814477 -6.491545 44.912020 0.065739 0.008406 -0.997801 0 0
  phy
    0 -10.814477 3.679447 84.681013 -0.065739 -0.008406 -0.997801 0 0
    0 -10.814477 3.679449 44.912020 -0.065704 0.033608 -0.997273 0 0
    0 -10.814477 -6.491545 44.912020 0.065739 0.008406 -0.997801 0 0
  phy
    0 -10.814477 3.679447 84.681013 -0.065739 -0.008406 -0.997801 0 0
    0 -10.814477 -6.491545 44.912020 0.065739 0.008406 -0.997801 0 0
    0 -10.814477 -6.491547 84.681013 0.065704 -0.033608 -0.997273 0 0
  phy
    0 10.169790 3.679450 44.851810 -0.065704 0.033608 -0.997273 0 0
    0 10.169790 3.679448 84.620808 -0.065739 -0.008406 -0.997801 0 0
    0 10.839891 3.679450 44.851810 -0.130620 0.016703 0.991292 0 0
  phy
    0 10.839891 3.679450 44.851810 -0.130620 0.016703 0.991292 0 0
    0 10.169790 3.679448 84.620808 -0.065739 -0.008406 -0.997801 0 0
    0 10.839891 3.679448 84.620808 -0.032919 -0.016838 0.999316 0 0
  phy
    0 10.839891 3.679448 84.620808 -0.032919 -0.016838 0.999316 0 0
    0 10.169790 -6.491546 84.620808 0.065704 -0.033608 -0.997273 0 0
    0 10.839891 -6.491546 84.620808 0.130620 -0.016703 0.991292 0 0
  phy
    0 10.839891 3.679448 84.620808 -0.032919 -0.016838 0.999316 0 0
    0 10.169790 3.679448 84.620808 -0.065739 -0.008406 -0.997801 0 0
    0 10.169790 -6.491546 84.620808 0.065704 -0.033608 -0.997273 0 0
  phy
    0 10.839891 -6.491546 84.620808 0.130620 -0.016703 0.991292 0 0
    0 10.839891 -6.491544 44.851810 0.032919 0.016838 0.999316 0 0
    0 10.839891 3.679448 84.620808 -0.032919 -0.016838 0.999316 0 0
  phy
    0 10.839891 -6.491544 44.851810 0.032919 0.016838 0.999316 0 0
    0 10.839891 3.679450 44.851810 -0.130620 0.016703 0.991292 0 0
    0 10.839891 3.679448 84.620808 -0.032919 -0.016838 0.999316 0 0
  phy
    0 10.839891 -6.491546 84.620808 0.130620 -0.016703 0.991292 0 0
    0 10.169790 -6.491544 44.851810 0.065739 0.008406 -0.997801 0 0
    0 10.839891 -6.491544 44.851810 0.032919 0.016838 0.999316 0 0
  phy
    0 10.839891 -6.491546 84.620808 0.130620 -0.016703 0.991292 0 0
    0 10.169790 -6.491546 84.620808 0.065704 -0.033608 -0.997273 0 0
    0 10.169790 -6.491544 44.851810 0.065739 0.008406 -0.997801 0 0
  phy
    0 10.839891 3.679450 44.851810 -0.130620 0.016703 0.991292 0 0
    0 10.839891 -6.491544 44.851810 0.032919 0.016838 0.999316 0 0
    0 10.169790 3.679450 44.851810 -0.065704 0.033608 -0.997273 0 0
  phy
    0 10.169790 3.679450 44.851810 -0.065704 0.033608 -0.997273 0 0
    0 10.839891 -6.491544 44.851810 0.032919 0.016838 0.999316 0 0
    0 10.169790 -6.491544 44.851810 0.065739 0.008406 -0.997801 0 0
  phy
    0 10.169790 3.679448 84.620808 -0.065739 -0.008406 -0.997801 0 0
    0 10.169790 3.679450 44.851810 -0.065704 0.033608 -0.997273 0 0
    0 10.169790 -6.491544 44.851810 0.065739 0.008406 -0.997801 0 0
  phy
    0 10.169790 3.679448 84.620808 -0.065739 -0.008406 -0.997801 0 0
    0 10.169790 -6.491544 44.851810 0.065739 0.008406 -0.997801 0 0
    0 10.169790 -6.491546 84.620808 0.065704 -0.033608 -0.997273 0 0
  phy
    0 -9.457312 -6.491745 43.795423 0.133182 -0.988391 -0.073113 0 0
    0 9.070547 -6.491744 43.110158 0.067209 0.997568 0.018448 0 0
    0 9.070547 -6.491744 43.795423 0.033645 -0.998751 0.036939 0 0
  phy
    0 -9.457312 -6.491745 43.795423 0.133182 -0.988391 -0.073113 0 0
    0 -9.457312 -6.491745 43.110158 0.067175 0.997059 -0.036877 0 0
    0 9.070547 -6.491744 43.110158 0.067209 0.997568 0.018448 0 0
  phy
    0 -9.457312 -6.491745 43.795423 0.133182 -0.988391 -0.073113 0 0
    0 9.070547 -6.491744 43.795423 0.033645 -0.998751 0.036939 0 0
    0 -9.457312 3.679449 43.795423 -0.033662 -0.999262 -0.018479 0 0
  phy
    0 9.070547 -6.491744 43.795423 0.033645 -0.998751 0.036939 0 0
    0 9.070547 3.679450 43.795423 -0.133450 -0.990378 0.036630 0 0
    0 -9.457312 3.679449 43.795423 -0.033662 -0.999262 -0.018479 0 0
  phy
    0 9.070547 -6.491744 43.795423 0.033645 -0.998751 0.036939 0 0
    0 9.070547 3.679450 43.110158 -0.067038 0.995032 0.073604 0 0
    0 9.070547 3.679450 43.795423 -0.133450 -0.990378 0.036630 0 0
  phy
    0 9.070547 -6.491744 43.795423 0.033645 -0.998751 0.036939 0 0
    0 9.070547 -6.491744 43.110158 0.067209 0.997568 0.018448 0 0
    0 9.070547 3.679450 43.110158 -0.067038 0.995032 0.073604 0 0
  phy
    0 -9.457312 3.679449 43.795423 -0.033662 -0.999262 -0.018479 0 0
    0 9.070547 3.679450 43.795423 -0.133450 -0.990378 0.036630 0 0
    0 -9.457312 3.679449 43.110158 -0.067175 0.997059 -0.036877 0 0
  phy
    0 -9.457312 3.679449 43.110158 -0.067175 0.997059 -0.036877 0 0
    0 9.070547 3.679450 43.795423 -0.133450 -0.990378 0.036630 0 0
    0 9.070547 3.679450 43.110158 -0.067038 0.995032 0.073604 0 0
  phy
    0 -9.457312 -6.491745 43.795423 0.133182 -0.988391 -0.073113 0 0
    0 -9.457312 3.679449 43.795423 -0.033662 -0.999262 -0.018479 0 0
    0 -9.457312 3.679449 43.110158 -0.067175 0.997059 -0.036877 0 0
  phy
    0 -9.457312 -6.491745 43.795423 0.133182 -0.988391 -0.073113 0 0
    0 -9.457312 3.679449 43.110158 -0.067175 0.997059 -0.036877 0 0
    0 -9.457312 -6.491745 43.110158 0.067175 0.997059 -0.036877 0 0
  phy
    0 -9.457312 -6.491745 43.110158 0.067175 0.997059 -0.036877 0 0
    0 -9.457312 3.679449 43.110158 -0.067175 0.997059 -0.036877 0 0
    0 9.070547 -6.491744 43.110158 0.067209 0.997568 0.018448 0 0
  phy
    0 9.070547 -6.491744 43.110158 0.067209 0.997568 0.018448 0 0
    0 -9.457312 3.679449 43.110158 -0.067175 0.997059 -0.036877 0 0
    0 9.070547 3.679450 43.110158 -0.067038 0.995032 0.073604 0 0
  phy
    0 3.859134 3.679451 0.963029 -0.979629 0.035972 0.197567 0 0
    0 -3.901464 3.679450 0.963029 -0.919180 0.132859 -0.370751 0 0
    0 -3.818218 3.679449 44.043543 -0.925258 -0.067951 -0.373203 0 0
  phy
    0 3.859134 3.679451 0.963029 -0.979629 0.035972 0.197567 0 0
    0 -3.818218 3.679449 44.043543 -0.925258 -0.067951 -0.373203 0 0
    0 3.942381 3.679449 44.043543 -0.777130 -0.055255 0.626910 0 0
  phy
    0 -3.901464 3.679450 0.963029 -0.919180 0.132859 -0.370751 0 0
    0 3.859134 3.679451 0.963029 -0.979629 0.035972 0.197567 0 0
    0 3.859134 0.549214 0.963029 0.925258 0.067951 0.373203 0 0
  phy
    0 -3.901464 3.679450 0.963029 -0.919180 0.132859 -0.370751 0 0
    0 3.859134 0.549214 0.963029 0.925258 0.067951 0.373203 0 0
    0 -3.901464 0.549214 0.963029 0.777130 0.055255 -0.626910 0 0
  phy
    0 -3.818218 3.679449 44.043543 -0.925258 -0.067951 -0.373203 0 0
    0 -3.901464 3.679450 0.963029 -0.919180 0.132859 -0.370751 0 0
    0 -3.901464 0.549214 0.963029 0.777130 0.055255 -0.626910 0 0
  phy
    0 -3.818218 3.679449 44.043543 -0.925258 -0.067951 -0.373203 0 0
    0 -3.901464 0.549214 0.963029 0.777130 0.055255 -0.626910 0 0
    0 -3.818218 0.549212 44.043543 0.979629 -0.035972 -0.197567 0 0
  phy
    0 3.859134 3.679451 0.963029 -0.979629 0.035972 0.197567 0 0
    0 3.942381 3.679449 44.043543 -0.777130 -0.055255 0.626910 0 0
    0 3.859134 0.549214 0.963029 0.925258 0.067951 0.373203 0 0
  phy
    0 3.942381 3.679449 44.043543 -0.777130 -0.055255 0.626910 0 0
    0 3.942381 0.549212 44.043543 0.919180 -0.132859 0.370751 0 0
    0 3.859134 0.549214 0.963029 0.925258 0.067951 0.373203 0 0
  phy
    0 3.859134 0.549214 0.963029 0.925258 0.067951 0.373203 0 0
    0 -3.818218 0.549212 44.043543 0.979629 -0.035972 -0.197567 0 0
    0 -3.901464 0.549214 0.963029 0.777130 0.055255 -0.626910 0 0
  phy
    0 3.859134 0.549214 0.963029 0.925258 0.067951 0.373203 0 0
    0 3.942381 0.549212 44.043543 0.919180 -0.132859 0.370751 0 0
    0 -3.818218 0.549212 44.043543 0.979629 -0.035972 -0.197567 0 0
  phy
    0 -3.818218 0.549212 44.043543 0.979629 -0.035972 -0.197567 0 0
    0 3.942381 0.549212 44.043543 0.919180 -0.132859 0.370751 0 0
    0 -3.818218 3.679449 44.043543 -0.925258 -0.067951 -0.373203 0 0
  phy
    0 3.942381 0.549212 44.043543 0.919180 -0.132859 0.370751 0 0
    0 3.942381 3.679449 44.043543 -0.777130 -0.055255 0.626910 0 0
    0 -3.818218 3.679449 44.043543 -0.925258 -0.067951 -0.373203 0 0
  phy
    0 -7.147064 3.679451 1.297036 -0.177461 -0.968342 -0.175558 0 0
    0 -7.147064 3.679451 0.000665 -0.180082 0.982643 -0.044538 0 0
    0 -7.147064 -3.394391 0.000665 0.177461 0.968342 -0.175558 0 0
  phy
    0 -7.147064 3.679451 1.297036 -0.177461 -0.968342 -0.175558 0 0
    0 -7.147064 -3.394391 0.000665 0.177461 0.968342 -0.175558 0 0
    0 -7.147064 -3.394392 1.297036 0.180082 -0.982643 -0.044538 0 0
  phy
    0 -7.147064 -3.394392 1.297036 0.180082 -0.982643 -0.044538 0 0
    0 7.153981 -3.394391 0.000665 0.179548 0.979732 0.088811 0 0
    0 7.153981 -3.394391 1.297036 0.179548 -0.979732 0.088811 0 0
  phy
    0 -7.147064 -3.394392 1.297036 0.180082 -0.982643 -0.044538 0 0
    0 -7.147064 -3.394391 0.000665 0.177461 0.968342 -0.175558 0 0
    0 7.153981 -3.394391 0.000665 0.179548 0.979732 0.088811 0 0
  phy
    0 -7.147064 -3.394391 0.000665 0.177461 0.968342 -0.175558 0 0
    0 -7.147064 3.679451 0.000665 -0.180082 0.982643 -0.044538 0 0
    0 7.153981 -3.394391 0.000665 0.179548 0.979732 0.088811 0 0
  phy
    0 7.153981 -3.394391 0.000665 0.179548 0.979732 0.088811 0 0
    0 -7.147064 3.679451 0.000665 -0.180082 0.982643 -0.044538 0 0
    0 7.153981 3.679451 0.000665 -0.179548 0.979732 0.088811 0 0
  phy
    0 -7.147064 3.679451 0.000665 -0.180082 0.982643 -0.044538 0 0
    0 -7.147064 3.679451 1.297036 -0.177461 -0.968342 -0.175558 0 0
    0 7.153981 3.679451 1.297036 -0.179548 -0.979732 0.088811 0 0
  phy
    0 -7.147064 3.679451 0.000665 -0.180082 0.982643 -0.044538 0 0
    0 7.153981 3.679451 1.297036 -0.179548 -0.979732 0.088811 0 0
    0 7.153981 3.679451 0.000665 -0.179548 0.979732 0.088811 0 0
  phy
    0 7.153981 3.679451 1.297036 -0.179548 -0.979732 0.088811 0 0
    0 7.153981 -3.394391 0.000665 0.179548 0.979732 0.088811 0 0
    0 7.153981 3.679451 0.000665 -0.179548 0.979732 0.088811 0 0
  phy
    0 7.153981 3.679451 1.297036 -0.179548 -0.979732 0.088811 0 0
    0 7.153981 -3.394391 1.297036 0.179548 -0.979732 0.088811 0 0
    0 7.153981 -3.394391 0.000665 0.179548 0.979732 0.088811 0 0
  phy
    0 -7.147064 -3.394392 1.297036 0.180082 -0.982643 -0.044538 0 0
    0 7.153981 3.679451 1.297036 -0.179548 -0.979732 0.088811 0 0
    0 -7.147064 3.679451 1.297036 -0.177461 -0.968342 -0.175558 0 0
  phy
    0 7.153981 -3.394391 1.297036 0.179548 -0.979732 0.088811 0 0
    0 7.153981 3.679451 1.297036 -0.179548 -0.979732 0.088811 0 0
    0 -7.147064 -3.394392 1.297036 0.180082 -0.982643 -0.044538 0 0
  phy
    0 -10.541835 -6.491747 80.631305 0.644957 0.695392 -0.316955 0 0
    0 10.155070 -6.491747 85.348060 0.418471 -0.902390 0.102826 0 0
    0 -10.541835 -6.491747 85.348060 0.411988 -0.888410 -0.202466 0 0
  phy
    0 -10.541835 -6.491747 80.631305 0.644957 0.695392 -0.316955 0 0
    0 10.155070 -6.491746 80.631305 0.220507 0.951002 0.216730 0 0
    0 10.155070 -6.491747 85.348060 0.418471 -0.902390 0.102826 0 0
  phy
    0 10.155070 -6.491746 80.631305 0.220507 0.951002 0.216730 0 0
    0 -10.541835 -6.491747 80.631305 0.644957 0.695392 -0.316955 0 0
    0 -10.541835 3.679447 80.631305 -0.418471 0.902390 -0.102826 0 0
  phy
    0 10.155070 -6.491746 80.631305 0.220507 0.951002 0.216730 0 0
    0 -10.541835 3.679447 80.631305 -0.418471 0.902390 -0.102826 0 0
    0 10.155070 3.679448 80.631305 -0.411988 0.888410 0.202466 0 0
  phy
    0 10.155070 3.679448 80.631305 -0.411988 0.888410 0.202466 0 0
    0 10.155070 3.679448 85.348060 -0.644957 -0.695392 0.316955 0 0
    0 10.155070 -6.491746 80.631305 0.220507 0.951002 0.216730 0 0
  phy
    0 10.155070 3.679448 85.348060 -0.644957 -0.695392 0.316955 0 0
    0 10.155070 -6.491747 85.348060 0.418471 -0.902390 0.102826 0 0
    0 10.155070 -6.491746 80.631305 0.220507 0.951002 0.216730 0 0
  phy
    0 -10.541835 3.679447 80.631305 -0.418471 0.902390 -0.102826 0 0
    0 -10.541835 -6.491747 80.631305 0.644957 0.695392 -0.316955 0 0
    0 -10.541835 3.679447 85.348060 -0.220507 -0.951002 -0.216730 0 0
  phy
    0 -10.541835 3.679447 85.348060 -0.220507 -0.951002 -0.216730 0 0
    0 -10.541835 -6.491747 80.631305 0.644957 0.695392 -0.316955 0 0
    0 -10.541835 -6.491747 85.348060 0.411988 -0.888410 -0.202466 0 0
  phy
    0 10.155070 3.679448 80.631305 -0.411988 0.888410 0.202466 0 0
    0 -10.541835 3.679447 80.631305 -0.418471 0.902390 -0.102826 0 0
    0 10.155070 3.679448 85.348060 -0.644957 -0.695392 0.316955 0 0
  phy
    0 10.155070 3.679448 85.348060 -0.644957 -0.695392 0.316955 0 0
    0 -10.541835 3.679447 80.631305 -0.418471 0.902390 -0.102826 0 0
    0 -10.541835 3.679447 85.348060 -0.220507 -0.951002 -0.216730 0 0
  phy
    0 -10.541835 -6.491747 85.348060 0.411988 -0.888410 -0.202466 0 0
    0 10.155070 -6.491747 85.348060 0.418471 -0.902390 0.102826 0 0
    0 -10.541835 3.679447 85.348060 -0.220507 -0.951002 -0.216730 0 0
  phy
    0 10.155070 -6.491747 85.348060 0.418471 -0.902390 0.102826 0 0
    0 10.155070 3.679448 85.348060 -0.644957 -0.695392 0.316955 0 0
    0 -10.541835 3.679447 85.348060 -0.220507 -0.951002 -0.216730 0 0
end
