version 1
nodes
0 "polySurface10" -1
end
skeleton
time 0
0  0.000000 0.000000 0.000000  0.000000 -0.000000 0.000000
end
triangles
  phy
0  -0.064679 0.000493 -0.995805  -0.021511 -0.068207 0.997439  0.000000 0.000000 1 0 1.000000
0  -0.075281 95.186630 -0.948036  0.010998 -0.016731 0.999800  0.000000 0.000000 1 0 1.000000
0  59.972496 0.007168 -0.973647  -0.021528 0.017551 0.999614  0.000000 0.000000 1 0 1.000000
  phy
0  -0.075281 95.186630 -0.948036  0.010998 -0.016731 0.999800  0.000000 0.000000 1 0 1.000000
0  59.961891 95.193329 -0.925878  0.043356 0.068816 0.996687  0.000000 0.000000 1 0 1.000000
0  59.972496 0.007168 -0.973647  -0.021528 0.017551 0.999614  0.000000 0.000000 1 0 1.000000
  phy
0  -0.075281 95.186630 -0.948036  0.010998 -0.016731 0.999800  0.000000 0.000000 1 0 1.000000
0  -0.076042 95.185593 1.115532  0.043049 -0.068958 -0.996690  0.000000 0.000000 1 0 1.000000
0  59.961891 95.193329 -0.925878  0.043356 0.068816 0.996687  0.000000 0.000000 1 0 1.000000
  phy
0  -0.076042 95.185593 1.115532  0.043049 -0.068958 -0.996690  0.000000 0.000000 1 0 1.000000
0  59.961132 95.192291 1.137690  0.013717 0.013855 -0.999810  0.000000 0.000000 1 0 1.000000
0  59.961891 95.193329 -0.925878  0.043356 0.068816 0.996687  0.000000 0.000000 1 0 1.000000
  phy
0  -0.076042 95.185593 1.115532  0.043049 -0.068958 -0.996690  0.000000 0.000000 1 0 1.000000
0  -0.075281 95.186630 -0.948036  0.010998 -0.016731 0.999800  0.000000 0.000000 1 0 1.000000
0  -0.064679 0.000493 -0.995805  -0.021511 -0.068207 0.997439  0.000000 0.000000 1 0 1.000000
  phy
0  -0.076042 95.185593 1.115532  0.043049 -0.068958 -0.996690  0.000000 0.000000 1 0 1.000000
0  -0.064679 0.000493 -0.995805  -0.021511 -0.068207 0.997439  0.000000 0.000000 1 0 1.000000
0  -0.065440 -0.000543 1.067761  -0.021797 -0.017524 -0.999609  0.000000 0.000000 1 0 1.000000
  phy
0  59.961132 95.192291 1.137690  0.013717 0.013855 -0.999810  0.000000 0.000000 1 0 1.000000
0  -0.076042 95.185593 1.115532  0.043049 -0.068958 -0.996690  0.000000 0.000000 1 0 1.000000
0  -0.065440 -0.000543 1.067761  -0.021797 -0.017524 -0.999609  0.000000 0.000000 1 0 1.000000
  phy
0  59.961132 95.192291 1.137690  0.013717 0.013855 -0.999810  0.000000 0.000000 1 0 1.000000
0  -0.065440 -0.000543 1.067761  -0.021797 -0.017524 -0.999609  0.000000 0.000000 1 0 1.000000
0  59.971737 0.006133 1.089918  -0.021703 0.068209 -0.997435  0.000000 0.000000 1 0 1.000000
  phy
0  59.971737 0.006133 1.089918  -0.021703 0.068209 -0.997435  0.000000 0.000000 1 0 1.000000
0  -0.065440 -0.000543 1.067761  -0.021797 -0.017524 -0.999609  0.000000 0.000000 1 0 1.000000
0  59.972496 0.007168 -0.973647  -0.021528 0.017551 0.999614  0.000000 0.000000 1 0 1.000000
  phy
0  59.972496 0.007168 -0.973647  -0.021528 0.017551 0.999614  0.000000 0.000000 1 0 1.000000
0  -0.065440 -0.000543 1.067761  -0.021797 -0.017524 -0.999609  0.000000 0.000000 1 0 1.000000
0  -0.064679 0.000493 -0.995805  -0.021511 -0.068207 0.997439  0.000000 0.000000 1 0 1.000000
  phy
0  59.972496 0.007168 -0.973647  -0.021528 0.017551 0.999614  0.000000 0.000000 1 0 1.000000
0  59.961891 95.193329 -0.925878  0.043356 0.068816 0.996687  0.000000 0.000000 1 0 1.000000
0  59.971737 0.006133 1.089918  -0.021703 0.068209 -0.997435  0.000000 0.000000 1 0 1.000000
  phy
0  59.971737 0.006133 1.089918  -0.021703 0.068209 -0.997435  0.000000 0.000000 1 0 1.000000
0  59.961891 95.193329 -0.925878  0.043356 0.068816 0.996687  0.000000 0.000000 1 0 1.000000
0  59.961132 95.192291 1.137690  0.013717 0.013855 -0.999810  0.000000 0.000000 1 0 1.000000
end
