// Created by Crowbar 0.74
version 1
nodes
  0 "polySurface10" -1
end
skeleton
  time 0
    0 0.000000 0.000000 0.000000 0.000000 0.000000 0.000000
end
triangles
wood_door04
  0 57.755695 30.577801 -1.620120 1.000000 0.000000 0.000000 0.802350 0.756990 1 0 1.000000
  0 57.755695 47.184425 -1.620120 1.000000 0.000000 0.000000 0.802350 0.990262 1 0 1.000000
  0 57.755695 30.577801 -1.033489 1.000000 0.000000 0.000000 0.794110 0.756990 1 0 1.000000
wood_door04
  0 57.755695 30.577801 -1.033489 1.000000 0.000000 0.000000 0.794110 0.756990 1 0 1.000000
  0 57.755695 47.184425 -1.620120 1.000000 0.000000 0.000000 0.802350 0.990262 1 0 1.000000
  0 57.755695 47.184425 -1.033489 1.000000 0.000000 0.000000 0.794110 0.990262 1 0 1.000000
wood_door04
  0 52.220871 30.577801 -1.033489 -1.000000 0.000000 0.000000 0.888338 0.756990 1 0 1.000000
  0 52.220871 47.184425 -1.033489 -1.000000 0.000000 0.000000 0.888338 0.990263 1 0 1.000000
  0 52.220871 30.577801 -1.620120 -1.000000 0.000000 0.000000 0.880098 0.756990 1 0 1.000000
wood_door04
  0 52.220871 30.577801 -1.620120 -1.000000 0.000000 0.000000 0.880098 0.756990 1 0 1.000000
  0 52.220871 47.184425 -1.033489 -1.000000 0.000000 0.000000 0.888338 0.990263 1 0 1.000000
  0 52.220871 47.184425 -1.620120 -1.000000 0.000000 0.000000 0.880098 0.990263 1 0 1.000000
wood_door04
  0 43.214600 46.521252 -0.140955 0.000000 0.000000 -1.000000 0.201618 0.491790 1 0 1.000000
  0 16.785374 46.521252 -0.140955 0.000000 0.000000 -1.000000 0.463185 0.491791 1 0 1.000000
  0 43.214706 77.930420 -0.140955 0.000000 0.000000 -1.000000 0.201616 0.809229 1 0 1.000000
wood_door04
  0 43.214706 77.930420 -0.140955 0.000000 0.000000 -1.000000 0.201616 0.809229 1 0 1.000000
  0 16.785374 46.521252 -0.140955 0.000000 0.000000 -1.000000 0.463185 0.491791 1 0 1.000000
  0 16.785372 77.930420 -0.140955 0.000000 0.000000 -1.000000 0.463185 0.809229 1 0 1.000000
wood_door04
  0 52.220871 30.577801 0.971772 0.000000 -1.000000 0.000000 0.802350 0.748750 1 0 1.000000
  0 57.755695 30.577801 0.971771 0.000000 -1.000000 0.000000 0.880098 0.748750 1 0 1.000000
  0 52.220871 30.577801 1.558404 0.000000 -1.000000 0.000000 0.802350 0.756990 1 0 1.000000
wood_door04
  0 52.220871 30.577801 1.558404 0.000000 -1.000000 0.000000 0.802350 0.756990 1 0 1.000000
  0 57.755695 30.577801 0.971771 0.000000 -1.000000 0.000000 0.880098 0.748750 1 0 1.000000
  0 57.755695 30.577801 1.558403 0.000000 -1.000000 0.000000 0.880098 0.756990 1 0 1.000000
wood_door04
  0 57.755695 47.184425 0.971771 0.000000 1.000000 0.000000 0.880098 0.998503 1 0 1.000000
  0 52.220871 47.184425 0.971772 0.000000 1.000000 0.000000 0.802350 0.998503 1 0 1.000000
  0 57.755695 47.184425 1.558403 0.000000 1.000000 0.000000 0.880098 0.990263 1 0 1.000000
wood_door04
  0 57.755695 47.184425 1.558403 0.000000 1.000000 0.000000 0.880098 0.990263 1 0 1.000000
  0 52.220871 47.184425 0.971772 0.000000 1.000000 0.000000 0.802350 0.998503 1 0 1.000000
  0 52.220871 47.184425 1.558404 0.000000 1.000000 0.000000 0.802350 0.990262 1 0 1.000000
wood_door04
  0 52.220871 30.577801 1.558404 -1.000000 0.000000 0.000000 0.802350 0.756990 1 0 1.000000
  0 52.220871 47.184425 1.558404 -1.000000 0.000000 0.000000 0.802350 0.990262 1 0 1.000000
  0 52.220871 30.577801 0.971772 -1.000000 0.000000 0.000000 0.794110 0.756990 1 0 1.000000
wood_door04
  0 52.220871 30.577801 0.971772 -1.000000 0.000000 0.000000 0.794110 0.756990 1 0 1.000000
  0 52.220871 47.184425 1.558404 -1.000000 0.000000 0.000000 0.802350 0.990262 1 0 1.000000
  0 52.220871 47.184425 0.971772 -1.000000 0.000000 0.000000 0.794110 0.990262 1 0 1.000000
wood_door04
  0 57.755695 30.577801 0.971771 1.000000 0.000000 0.000000 0.888338 0.756990 1 0 1.000000
  0 57.755695 47.184425 0.971771 1.000000 0.000000 0.000000 0.888338 0.990263 1 0 1.000000
  0 57.755695 30.577801 1.558403 1.000000 0.000000 0.000000 0.880098 0.756990 1 0 1.000000
wood_door04
  0 57.755695 30.577801 1.558403 1.000000 0.000000 0.000000 0.880098 0.756990 1 0 1.000000
  0 57.755695 47.184425 0.971771 1.000000 0.000000 0.000000 0.888338 0.990263 1 0 1.000000
  0 57.755695 47.184425 1.558403 1.000000 0.000000 0.000000 0.880098 0.990263 1 0 1.000000
wood_door04
  0 2.192184 15.643153 -0.960758 0.000000 -1.000000 0.000013 0.899949 0.744884 1 0 1.000000
  0 -0.045254 15.643153 -0.960758 0.000000 -1.000000 0.000013 0.838625 0.744884 1 0 1.000000
  0 2.192184 15.643147 -1.364281 0.000000 -1.000000 0.000013 0.899949 0.738083 1 0 1.000000
wood_door04
  0 2.192184 15.643147 -1.364281 0.000000 -1.000000 0.000013 0.899949 0.738083 1 0 1.000000
  0 -0.045254 15.643153 -0.960758 0.000000 -1.000000 0.000013 0.838625 0.744884 1 0 1.000000
  0 -0.045254 15.643147 -1.364281 0.000000 -1.000000 0.000013 0.838625 0.738083 1 0 1.000000
wood_door04
  0 -0.045254 20.735174 -0.960758 -0.000001 1.000000 -0.000005 0.838625 0.597673 1 0 1.000000
  0 2.192184 20.735174 -0.960758 -0.000001 1.000000 -0.000005 0.899949 0.597673 1 0 1.000000
  0 -0.045254 20.735168 -1.364281 -0.000001 1.000000 -0.000005 0.838625 0.604474 1 0 1.000000
wood_door04
  0 -0.045254 20.735168 -1.364281 -0.000001 1.000000 -0.000005 0.838625 0.604474 1 0 1.000000
  0 2.192184 20.735174 -0.960758 -0.000001 1.000000 -0.000005 0.899949 0.597673 1 0 1.000000
  0 2.192184 20.735174 -1.364281 -0.000001 1.000000 -0.000005 0.899949 0.604474 1 0 1.000000
wood_door04
  0 2.192184 15.643147 -1.364281 1.000000 0.000000 0.000000 0.899949 0.738083 1 0 1.000000
  0 2.192184 20.735174 -1.364281 1.000000 0.000000 0.000000 0.899949 0.604474 1 0 1.000000
  0 2.192184 15.643153 -0.960758 1.000000 0.000000 0.000000 0.906750 0.738083 1 0 1.000000
wood_door04
  0 2.192184 15.643153 -0.960758 1.000000 0.000000 0.000000 0.906750 0.738083 1 0 1.000000
  0 2.192184 20.735174 -1.364281 1.000000 0.000000 0.000000 0.899949 0.604474 1 0 1.000000
  0 2.192184 20.735174 -0.960758 1.000000 0.000000 0.000000 0.906750 0.604474 1 0 1.000000
wood_door04
  0 -0.045254 15.643147 -1.364281 0.000000 0.000000 -1.000000 0.838625 0.738083 1 0 1.000000
  0 -0.045254 20.735168 -1.364281 0.000000 0.000000 -1.000000 0.838625 0.604474 1 0 1.000000
  0 2.192184 15.643147 -1.364281 0.000000 0.000000 -1.000000 0.899949 0.738083 1 0 1.000000
wood_door04
  0 2.192184 15.643147 -1.364281 0.000000 0.000000 -1.000000 0.899949 0.738083 1 0 1.000000
  0 -0.045254 20.735168 -1.364281 0.000000 0.000000 -1.000000 0.838625 0.604474 1 0 1.000000
  0 2.192184 20.735174 -1.364281 0.000000 0.000000 -1.000000 0.899949 0.604474 1 0 1.000000
wood_door04
  0 2.192184 76.251472 -0.960758 0.000002 -1.000000 0.000000 0.899949 0.744884 1 0 1.000000
  0 -0.045254 76.251465 -0.960758 0.000002 -1.000000 0.000000 0.838625 0.744884 1 0 1.000000
  0 2.192184 76.251465 -1.364281 0.000002 -1.000000 0.000000 0.899949 0.738083 1 0 1.000000
wood_door04
  0 2.192184 76.251465 -1.364281 0.000002 -1.000000 0.000000 0.899949 0.738083 1 0 1.000000
  0 -0.045254 76.251465 -0.960758 0.000002 -1.000000 0.000000 0.838625 0.744884 1 0 1.000000
  0 -0.045254 76.251465 -1.364281 0.000002 -1.000000 0.000000 0.838625 0.738083 1 0 1.000000
wood_door04
  0 -0.045254 81.343483 -0.960758 0.000000 1.000000 0.000000 0.838625 0.597673 1 0 1.000000
  0 2.192184 81.343483 -0.960758 0.000000 1.000000 0.000000 0.899949 0.597673 1 0 1.000000
  0 -0.045254 81.343483 -1.364281 0.000000 1.000000 0.000000 0.838625 0.604474 1 0 1.000000
wood_door04
  0 -0.045254 81.343483 -1.364281 0.000000 1.000000 0.000000 0.838625 0.604474 1 0 1.000000
  0 2.192184 81.343483 -0.960758 0.000000 1.000000 0.000000 0.899949 0.597673 1 0 1.000000
  0 2.192184 81.343483 -1.364281 0.000000 1.000000 0.000000 0.899949 0.604474 1 0 1.000000
wood_door04
  0 2.192184 76.251465 -1.364281 1.000000 0.000000 0.000000 0.899949 0.738083 1 0 1.000000
  0 2.192184 81.343483 -1.364281 1.000000 0.000000 0.000000 0.899949 0.604474 1 0 1.000000
  0 2.192184 76.251472 -0.960758 1.000000 0.000000 0.000000 0.906750 0.738083 1 0 1.000000
wood_door04
  0 2.192184 76.251472 -0.960758 1.000000 0.000000 0.000000 0.906750 0.738083 1 0 1.000000
  0 2.192184 81.343483 -1.364281 1.000000 0.000000 0.000000 0.899949 0.604474 1 0 1.000000
  0 2.192184 81.343483 -0.960758 1.000000 0.000000 0.000000 0.906750 0.604474 1 0 1.000000
wood_door04
  0 -0.045254 76.251465 -1.364281 0.000000 0.000000 -1.000000 0.838625 0.738083 1 0 1.000000
  0 -0.045254 81.343483 -1.364281 0.000000 0.000000 -1.000000 0.838625 0.604474 1 0 1.000000
  0 2.192184 76.251465 -1.364281 0.000000 0.000000 -1.000000 0.899949 0.738083 1 0 1.000000
wood_door04
  0 2.192184 76.251465 -1.364281 0.000000 0.000000 -1.000000 0.899949 0.738083 1 0 1.000000
  0 -0.045254 81.343483 -1.364281 0.000000 0.000000 -1.000000 0.838625 0.604474 1 0 1.000000
  0 2.192184 81.343483 -1.364281 0.000000 0.000000 -1.000000 0.899949 0.604474 1 0 1.000000
wood_door04
  0 47.318748 43.129974 3.309807 -0.999946 0.000000 0.010346 0.809040 0.678891 1 0 1.000000
  0 47.318748 43.974834 3.309807 -0.999946 0.000000 0.010346 0.826575 0.678875 1 0 1.000000
  0 47.316185 43.129971 3.062059 -0.999946 0.000000 0.010346 0.809058 0.684026 1 0 1.000000
wood_door04
  0 47.316185 43.129971 3.062059 -0.999946 0.000000 0.010346 0.809058 0.684026 1 0 1.000000
  0 47.318748 43.974834 3.309807 -0.999946 0.000000 0.010346 0.826575 0.678875 1 0 1.000000
  0 47.316185 43.974834 3.062058 -0.999946 0.000000 0.010346 0.826566 0.684010 1 0 1.000000
wood_door04
  0 47.318748 43.974834 -3.580326 -0.999946 0.000000 -0.010346 0.809040 0.678891 1 0 1.000000
  0 47.318748 43.129971 -3.580326 -0.999946 0.000000 -0.010346 0.826575 0.678875 1 0 1.000000
  0 47.316185 43.974834 -3.332577 -0.999946 0.000000 -0.010346 0.809058 0.684026 1 0 1.000000
wood_door04
  0 47.316185 43.974834 -3.332577 -0.999946 0.000000 -0.010346 0.809058 0.684026 1 0 1.000000
  0 47.318748 43.129971 -3.580326 -0.999946 0.000000 -0.010346 0.826575 0.678875 1 0 1.000000
  0 47.316185 43.129971 -3.332577 -0.999946 0.000000 -0.010346 0.826566 0.684010 1 0 1.000000
wood_door04
  0 0.000000 94.000000 1.001030 0.000000 1.000000 0.000000 0.639210 0.996366 1 0 1.000000
  0 60.000000 94.000000 1.001030 0.000000 1.000000 0.000000 0.025589 0.996356 1 0 1.000000
  0 0.000000 94.000000 -1.000000 0.000000 1.000000 0.000000 0.639210 0.975416 1 0 1.000000
wood_door04
  0 0.000000 94.000000 -1.000000 0.000000 1.000000 0.000000 0.639210 0.975416 1 0 1.000000
  0 60.000000 94.000000 1.001030 0.000000 1.000000 0.000000 0.025589 0.996356 1 0 1.000000
  0 60.000000 94.000000 -1.000000 0.000000 1.000000 0.000000 0.025589 0.975415 1 0 1.000000
wood_door04
  0 0.000000 1.000000 -1.000000 0.000000 -1.000000 0.000000 0.639213 0.024302 1 0 1.000000
  0 60.000000 1.000000 -1.000000 0.000000 -1.000000 0.000000 0.025591 0.024302 1 0 1.000000
  0 0.000000 1.000000 1.001030 0.000000 -1.000000 0.000000 0.639213 0.004799 1 0 1.000000
wood_door04
  0 0.000000 1.000000 1.001030 0.000000 -1.000000 0.000000 0.639213 0.004799 1 0 1.000000
  0 60.000000 1.000000 -1.000000 0.000000 -1.000000 0.000000 0.025591 0.024302 1 0 1.000000
  0 60.000000 1.000000 1.001030 0.000000 -1.000000 0.000000 0.025591 0.003838 1 0 1.000000
wood_door04
  0 60.000000 1.000000 1.001030 1.000000 0.000000 0.000000 0.005731 0.024302 1 0 1.000000
  0 60.000000 1.000000 -1.000000 1.000000 0.000000 0.000000 0.025591 0.024302 1 0 1.000000
  0 60.000000 94.000000 1.001030 1.000000 0.000000 0.000000 0.004242 0.975415 1 0 1.000000
wood_door04
  0 60.000000 94.000000 1.001030 1.000000 0.000000 0.000000 0.004242 0.975415 1 0 1.000000
  0 60.000000 1.000000 -1.000000 1.000000 0.000000 0.000000 0.025591 0.024302 1 0 1.000000
  0 60.000000 94.000000 -1.000000 1.000000 0.000000 0.000000 0.025589 0.975415 1 0 1.000000
wood_door04
  0 0.000000 1.000000 -1.000000 -1.000000 0.000000 0.000000 0.639213 0.024302 1 0 1.000000
  0 0.000000 1.000000 1.001030 -1.000000 0.000000 0.000000 0.660281 0.024302 1 0 1.000000
  0 0.000000 94.000000 -1.000000 -1.000000 0.000000 0.000000 0.639210 0.975416 1 0 1.000000
wood_door04
  0 0.000000 94.000000 -1.000000 -1.000000 0.000000 0.000000 0.639210 0.975416 1 0 1.000000
  0 0.000000 1.000000 1.001030 -1.000000 0.000000 0.000000 0.660281 0.024302 1 0 1.000000
  0 0.000000 94.000000 1.001030 -1.000000 0.000000 0.000000 0.658793 0.975416 1 0 1.000000
wood_door04
  0 16.949013 77.883057 -1.000000 1.000000 0.000000 0.000000 0.907433 0.315862 1 0 1.000000
  0 16.949013 77.883057 1.001030 1.000000 0.000000 0.000000 0.889366 0.315862 1 0 1.000000
  0 16.949013 46.553349 -1.000000 1.000000 0.000000 0.000000 0.907433 0.547918 1 0 1.000000
wood_door04
  0 16.949013 46.553349 -1.000000 1.000000 0.000000 0.000000 0.907433 0.547918 1 0 1.000000
  0 16.949013 77.883057 1.001030 1.000000 0.000000 0.000000 0.889366 0.315862 1 0 1.000000
  0 16.949013 46.553349 1.001030 1.000000 0.000000 0.000000 0.889366 0.547918 1 0 1.000000
wood_door04
  0 43.050987 77.883057 -1.000000 0.000000 -1.000000 0.000000 0.907955 0.548179 1 0 1.000000
  0 43.050987 77.883057 1.001030 0.000000 -1.000000 0.000000 0.889888 0.548179 1 0 1.000000
  0 16.949013 77.883057 -1.000000 0.000000 -1.000000 0.000000 0.907955 0.316174 1 0 1.000000
wood_door04
  0 16.949013 77.883057 -1.000000 0.000000 -1.000000 0.000000 0.907955 0.316174 1 0 1.000000
  0 43.050987 77.883057 1.001030 0.000000 -1.000000 0.000000 0.889888 0.548179 1 0 1.000000
  0 16.949013 77.883057 1.001030 0.000000 -1.000000 0.000000 0.889888 0.316174 1 0 1.000000
wood_door04
  0 43.050987 46.553349 -1.000000 -1.000000 0.000000 0.000000 0.907955 0.316123 1 0 1.000000
  0 43.050987 46.553349 1.001030 -1.000000 0.000000 0.000000 0.889888 0.316123 1 0 1.000000
  0 43.050987 77.883057 -1.000000 -1.000000 0.000000 0.000000 0.907955 0.548179 1 0 1.000000
wood_door04
  0 43.050987 77.883057 -1.000000 -1.000000 0.000000 0.000000 0.907955 0.548179 1 0 1.000000
  0 43.050987 46.553349 1.001030 -1.000000 0.000000 0.000000 0.889888 0.316123 1 0 1.000000
  0 43.050987 77.883057 1.001030 -1.000000 0.000000 0.000000 0.889888 0.548179 1 0 1.000000
wood_door04
  0 16.949013 46.553349 -1.000000 0.000000 1.000000 0.000000 0.907433 0.547918 1 0 1.000000
  0 16.949013 46.553349 1.001030 0.000000 1.000000 0.000000 0.889366 0.547918 1 0 1.000000
  0 43.050987 46.553349 -1.000000 0.000000 1.000000 0.000000 0.907433 0.315914 1 0 1.000000
wood_door04
  0 43.050987 46.553349 -1.000000 0.000000 1.000000 0.000000 0.907433 0.315914 1 0 1.000000
  0 16.949013 46.553349 1.001030 0.000000 1.000000 0.000000 0.889366 0.547918 1 0 1.000000
  0 43.050987 46.553349 1.001030 0.000000 1.000000 0.000000 0.889366 0.315914 1 0 1.000000
wood_door04
  0 57.755695 30.577801 -1.033489 0.000000 -1.000000 0.000000 0.802350 0.748750 1 0 1.000000
  0 52.220871 30.577801 -1.033489 0.000000 -1.000000 0.000000 0.880098 0.748750 1 0 1.000000
  0 57.755695 30.577801 -1.620120 0.000000 -1.000000 0.000000 0.802350 0.756990 1 0 1.000000
wood_door04
  0 57.755695 30.577801 -1.620120 0.000000 -1.000000 0.000000 0.802350 0.756990 1 0 1.000000
  0 52.220871 30.577801 -1.033489 0.000000 -1.000000 0.000000 0.880098 0.748750 1 0 1.000000
  0 52.220871 30.577801 -1.620120 0.000000 -1.000000 0.000000 0.880098 0.756990 1 0 1.000000
wood_door04
  0 52.220871 47.184425 -1.033489 0.000000 1.000000 0.000000 0.880098 0.998503 1 0 1.000000
  0 57.755695 47.184425 -1.033489 0.000000 1.000000 0.000000 0.802350 0.998503 1 0 1.000000
  0 52.220871 47.184425 -1.620120 0.000000 1.000000 0.000000 0.880098 0.990263 1 0 1.000000
wood_door04
  0 52.220871 47.184425 -1.620120 0.000000 1.000000 0.000000 0.880098 0.990263 1 0 1.000000
  0 57.755695 47.184425 -1.033489 0.000000 1.000000 0.000000 0.802350 0.998503 1 0 1.000000
  0 57.755695 47.184425 -1.620120 0.000000 1.000000 0.000000 0.802350 0.990262 1 0 1.000000
wood_door04
  0 54.257896 36.774242 2.030219 -0.003073 -0.046489 0.998914 0.831034 0.845985 1 0 1.000000
  0 54.626717 36.055386 2.017811 -0.003073 -0.046489 0.998914 0.834728 0.834241 1 0 1.000000
  0 54.713352 37.336575 2.064805 -0.003073 -0.046489 0.998914 0.837441 0.853226 1 0 1.000000
wood_door04
  0 54.626717 36.055386 2.017811 -0.003073 -0.046489 0.998914 0.834728 0.834241 1 0 1.000000
  0 55.364552 36.053303 1.991925 -0.003073 -0.046489 0.998914 0.848051 0.832986 1 0 1.000000
  0 54.713352 37.336575 2.064805 -0.003073 -0.046489 0.998914 0.837441 0.853226 1 0 1.000000
wood_door04
  0 55.364552 36.053303 1.991925 -0.003073 -0.046489 0.998914 0.848051 0.832986 1 0 1.000000
  0 55.718441 36.740383 2.049392 -0.003073 -0.046489 0.998914 0.851555 0.845668 1 0 1.000000
  0 54.713352 37.336575 2.064805 -0.003073 -0.046489 0.998914 0.837441 0.853226 1 0 1.000000
wood_door04
  0 55.718441 36.740383 2.049392 -0.003073 -0.046489 0.998914 0.851555 0.845668 1 0 1.000000
  0 55.329960 37.338341 2.064805 -0.003073 -0.046489 0.998914 0.846103 0.853053 1 0 1.000000
  0 54.713352 37.336575 2.064805 -0.003073 -0.046489 0.998914 0.837441 0.853226 1 0 1.000000
wood_door04
  0 55.718670 36.774242 -2.091937 0.003072 -0.046488 -0.998914 0.831034 0.845985 1 0 1.000000
  0 55.349850 36.055386 -2.079529 0.003072 -0.046488 -0.998914 0.834728 0.834241 1 0 1.000000
  0 55.263214 37.336575 -2.126521 0.003072 -0.046488 -0.998914 0.837441 0.853226 1 0 1.000000
wood_door04
  0 55.349850 36.055386 -2.079529 0.003072 -0.046488 -0.998914 0.834728 0.834241 1 0 1.000000
  0 54.612015 36.053303 -2.053643 0.003072 -0.046488 -0.998914 0.848051 0.832986 1 0 1.000000
  0 55.263214 37.336575 -2.126521 0.003072 -0.046488 -0.998914 0.837441 0.853226 1 0 1.000000
wood_door04
  0 54.612015 36.053303 -2.053643 0.003072 -0.046488 -0.998914 0.848051 0.832986 1 0 1.000000
  0 54.258125 36.740383 -2.111109 0.003072 -0.046488 -0.998914 0.851555 0.845668 1 0 1.000000
  0 55.263214 37.336575 -2.126521 0.003072 -0.046488 -0.998914 0.837441 0.853226 1 0 1.000000
wood_door04
  0 54.258125 36.740383 -2.111109 0.003072 -0.046488 -0.998914 0.851555 0.845668 1 0 1.000000
  0 54.646606 37.338341 -2.126521 0.003072 -0.046488 -0.998914 0.846103 0.853053 1 0 1.000000
  0 55.263214 37.336575 -2.126521 0.003072 -0.046488 -0.998914 0.837441 0.853226 1 0 1.000000
wood_door04
  0 47.318748 43.129974 3.309807 -0.016030 0.000000 0.999871 0.809040 0.678891 1 0 1.000000
  0 54.917801 43.036198 3.431635 0.399324 -0.000001 0.916810 0.806934 0.521940 1 0 1.000000
  0 47.318748 43.974834 3.309807 -0.016030 0.000000 0.999871 0.826575 0.678875 1 0 1.000000
wood_door04
  0 47.318748 43.974834 3.309807 -0.016030 0.000000 0.999871 0.826575 0.678875 1 0 1.000000
  0 54.917801 43.036198 3.431635 0.399324 -0.000001 0.916810 0.806934 0.521940 1 0 1.000000
  0 54.917801 44.068611 3.431635 0.399324 -0.000001 0.916810 0.828394 0.521920 1 0 1.000000
wood_door04
  0 54.917801 44.068611 3.431635 0.399324 -0.000001 0.916810 0.828394 0.521920 1 0 1.000000
  0 54.917801 43.036198 3.431635 0.399324 -0.000001 0.916810 0.806934 0.521940 1 0 1.000000
  0 55.422421 44.068607 2.871388 0.933550 -0.000001 0.358447 0.828382 0.508513 1 0 1.000000
wood_door04
  0 55.422421 44.068607 2.871388 0.933550 -0.000001 0.358447 0.828382 0.508513 1 0 1.000000
  0 54.917801 43.036198 3.431635 0.399324 -0.000001 0.916810 0.806934 0.521940 1 0 1.000000
  0 55.422421 43.036198 2.871387 0.933550 -0.000001 0.358447 0.806922 0.508532 1 0 1.000000
wood_door04
  0 55.422421 44.068607 2.871388 0.933550 -0.000001 0.358447 0.828382 0.508513 1 0 1.000000
  0 55.422421 43.036198 2.871387 0.933550 -0.000001 0.358447 0.806922 0.508532 1 0 1.000000
  0 55.422424 44.068607 1.577087 1.000000 0.000000 0.000001 0.828358 0.482112 1 0 1.000000
wood_door04
  0 55.422424 44.068607 1.577087 1.000000 0.000000 0.000001 0.828358 0.482112 1 0 1.000000
  0 55.422421 43.036198 2.871387 0.933550 -0.000001 0.358447 0.806922 0.508532 1 0 1.000000
  0 55.422421 43.036198 1.577088 1.000000 0.000000 0.000001 0.806898 0.482132 1 0 1.000000
wood_door04
  0 54.616951 43.036198 1.568367 -1.000000 0.000003 0.000000 0.863055 0.595434 1 0 1.000000
  0 54.616955 44.068607 2.731348 -0.915021 0.000002 -0.403407 0.876512 0.579351 1 0 1.000000
  0 54.616955 44.068607 1.568367 -1.000000 0.000003 0.000000 0.876971 0.595027 1 0 1.000000
wood_door04
  0 54.616951 43.036198 2.731348 -0.915021 0.000002 -0.403407 0.862596 0.579759 1 0 1.000000
  0 54.616955 44.068607 2.731348 -0.915021 0.000002 -0.403407 0.876512 0.579351 1 0 1.000000
  0 54.616951 43.036198 1.568367 -1.000000 0.000003 0.000000 0.863055 0.595434 1 0 1.000000
wood_door04
  0 54.616951 43.036198 2.731348 -0.915021 0.000002 -0.403407 0.862596 0.579759 1 0 1.000000
  0 54.388336 44.068607 2.940231 -0.369781 0.000000 -0.929119 0.876389 0.575177 1 0 1.000000
  0 54.616955 44.068607 2.731348 -0.915021 0.000002 -0.403407 0.876512 0.579351 1 0 1.000000
wood_door04
  0 54.388340 43.036194 2.940229 -0.369781 0.000000 -0.929119 0.862474 0.575585 1 0 1.000000
  0 54.388336 44.068607 2.940231 -0.369781 0.000000 -0.929119 0.876389 0.575177 1 0 1.000000
  0 54.616951 43.036198 2.731348 -0.915021 0.000002 -0.403407 0.862596 0.579759 1 0 1.000000
wood_door04
  0 54.388340 43.036194 2.940229 -0.369781 0.000000 -0.929119 0.862474 0.575585 1 0 1.000000
  0 47.316185 43.129971 3.062059 -0.017224 0.000000 -0.999852 0.860945 0.480212 1 0 1.000000
  0 54.388336 44.068607 2.940231 -0.369781 0.000000 -0.929119 0.876389 0.575177 1 0 1.000000
wood_door04
  0 54.388336 44.068607 2.940231 -0.369781 0.000000 -0.929119 0.876389 0.575177 1 0 1.000000
  0 47.316185 43.129971 3.062059 -0.017224 0.000000 -0.999852 0.860945 0.480212 1 0 1.000000
  0 47.316185 43.974834 3.062058 -0.017224 0.000000 -0.999852 0.872332 0.479878 1 0 1.000000
wood_door04
  0 47.316185 43.129971 3.062059 -0.012782 -0.999876 0.009206 0.803880 0.679097 1 0 1.000000
  0 54.388340 43.036194 2.940229 -0.012782 -0.999876 0.009206 0.794484 0.527483 1 0 1.000000
  0 47.318748 43.129974 3.309807 -0.012782 -0.999876 0.009206 0.809040 0.678891 1 0 1.000000
wood_door04
  0 47.318748 43.129974 3.309807 -0.012782 -0.999876 0.009206 0.809040 0.678891 1 0 1.000000
  0 54.388340 43.036194 2.940229 -0.012782 -0.999876 0.009206 0.794484 0.527483 1 0 1.000000
  0 54.917801 43.036198 3.431635 -0.012782 -0.999876 0.009206 0.806934 0.521940 1 0 1.000000
wood_door04
  0 54.388340 43.036194 2.940229 -0.012782 -0.999876 0.009206 0.794484 0.527483 1 0 1.000000
  0 54.616951 43.036198 2.731348 0.000004 -1.000000 0.000000 0.791359 0.511109 1 0 1.000000
  0 54.917801 43.036198 3.431635 -0.012782 -0.999876 0.009206 0.806934 0.521940 1 0 1.000000
wood_door04
  0 54.917801 43.036198 3.431635 -0.012782 -0.999876 0.009206 0.806934 0.521940 1 0 1.000000
  0 54.616951 43.036198 2.731348 0.000004 -1.000000 0.000000 0.791359 0.511109 1 0 1.000000
  0 55.422421 43.036198 2.871387 0.000004 -1.000000 0.000000 0.806922 0.508532 1 0 1.000000
wood_door04
  0 55.422421 43.036198 2.871387 0.000004 -1.000000 0.000000 0.806922 0.508532 1 0 1.000000
  0 54.616951 43.036198 2.731348 0.000004 -1.000000 0.000000 0.791359 0.511109 1 0 1.000000
  0 55.422421 43.036198 1.577088 0.000000 -1.000000 0.000000 0.806898 0.482132 1 0 1.000000
wood_door04
  0 55.422421 43.036198 1.577088 0.000000 -1.000000 0.000000 0.806898 0.482132 1 0 1.000000
  0 54.616951 43.036198 2.731348 0.000004 -1.000000 0.000000 0.791359 0.511109 1 0 1.000000
  0 54.616951 43.036198 1.568367 0.000000 -1.000000 0.000000 0.790155 0.481714 1 0 1.000000
wood_door04
  0 47.318748 43.974834 3.309807 -0.012782 0.999876 0.009197 0.826575 0.678875 1 0 1.000000
  0 54.388336 44.068607 2.940231 -0.012782 0.999876 0.009197 0.840854 0.527441 1 0 1.000000
  0 47.316185 43.974834 3.062058 -0.012782 0.999876 0.009197 0.831734 0.679072 1 0 1.000000
wood_door04
  0 54.917801 44.068611 3.431635 -0.012782 0.999876 0.009197 0.828394 0.521920 1 0 1.000000
  0 54.388336 44.068607 2.940231 -0.012782 0.999876 0.009197 0.840854 0.527441 1 0 1.000000
  0 47.318748 43.974834 3.309807 -0.012782 0.999876 0.009197 0.826575 0.678875 1 0 1.000000
wood_door04
  0 54.388336 44.068607 2.940231 -0.012782 0.999876 0.009197 0.840854 0.527441 1 0 1.000000
  0 54.917801 44.068611 3.431635 -0.012782 0.999876 0.009197 0.828394 0.521920 1 0 1.000000
  0 54.616955 44.068607 2.731348 0.000000 1.000000 -0.000013 0.843949 0.511061 1 0 1.000000
wood_door04
  0 54.616955 44.068607 2.731348 0.000000 1.000000 -0.000013 0.843949 0.511061 1 0 1.000000
  0 54.917801 44.068611 3.431635 -0.012782 0.999876 0.009197 0.828394 0.521920 1 0 1.000000
  0 55.422421 44.068607 2.871388 0.000000 1.000000 -0.000013 0.828382 0.508513 1 0 1.000000
wood_door04
  0 55.422421 44.068607 2.871388 0.000000 1.000000 -0.000013 0.828382 0.508513 1 0 1.000000
  0 55.422424 44.068607 1.577087 0.000000 1.000000 0.000000 0.828358 0.482112 1 0 1.000000
  0 54.616955 44.068607 2.731348 0.000000 1.000000 -0.000013 0.843949 0.511061 1 0 1.000000
wood_door04
  0 54.616955 44.068607 2.731348 0.000000 1.000000 -0.000013 0.843949 0.511061 1 0 1.000000
  0 55.422424 44.068607 1.577087 0.000000 1.000000 0.000000 0.828358 0.482112 1 0 1.000000
  0 54.616955 44.068607 1.568367 0.000000 1.000000 0.000000 0.845100 0.481664 1 0 1.000000
wood_door04
  0 47.318748 43.974834 -3.580326 -0.016030 0.000000 -0.999871 0.809040 0.678891 1 0 1.000000
  0 54.917801 44.068611 -3.702152 0.399325 0.000000 -0.916809 0.806934 0.521940 1 0 1.000000
  0 47.318748 43.129971 -3.580326 -0.016030 0.000000 -0.999871 0.826575 0.678875 1 0 1.000000
wood_door04
  0 47.318748 43.129971 -3.580326 -0.016030 0.000000 -0.999871 0.826575 0.678875 1 0 1.000000
  0 54.917801 44.068611 -3.702152 0.399325 0.000000 -0.916809 0.806934 0.521940 1 0 1.000000
  0 54.917801 43.036198 -3.702152 0.399325 0.000000 -0.916809 0.828394 0.521920 1 0 1.000000
wood_door04
  0 54.917801 43.036198 -3.702152 0.399325 0.000000 -0.916809 0.828394 0.521920 1 0 1.000000
  0 54.917801 44.068611 -3.702152 0.399325 0.000000 -0.916809 0.806934 0.521940 1 0 1.000000
  0 55.422417 43.036198 -3.141907 0.933551 0.000000 -0.358445 0.828382 0.508513 1 0 1.000000
wood_door04
  0 55.422417 43.036198 -3.141907 0.933551 0.000000 -0.358445 0.828382 0.508513 1 0 1.000000
  0 54.917801 44.068611 -3.702152 0.399325 0.000000 -0.916809 0.806934 0.521940 1 0 1.000000
  0 55.422417 44.068607 -3.141907 0.933551 0.000000 -0.358445 0.806922 0.508532 1 0 1.000000
wood_door04
  0 55.422417 43.036198 -3.141907 0.933551 0.000000 -0.358445 0.828382 0.508513 1 0 1.000000
  0 55.422417 44.068607 -3.141907 0.933551 0.000000 -0.358445 0.806922 0.508532 1 0 1.000000
  0 55.422417 43.036198 -1.847607 1.000000 0.000000 0.000000 0.828358 0.482112 1 0 1.000000
wood_door04
  0 55.422417 43.036198 -1.847607 1.000000 0.000000 0.000000 0.828358 0.482112 1 0 1.000000
  0 55.422417 44.068607 -3.141907 0.933551 0.000000 -0.358445 0.806922 0.508532 1 0 1.000000
  0 55.422417 44.068607 -1.847607 1.000000 0.000000 0.000000 0.806898 0.482132 1 0 1.000000
wood_door04
  0 54.616951 44.068607 -1.838886 -1.000000 0.000000 0.000000 0.863376 0.595622 1 0 1.000000
  0 54.616951 43.036198 -3.001867 -0.915021 0.000002 0.403405 0.876963 0.579382 1 0 1.000000
  0 54.616951 43.036198 -1.838886 -1.000000 0.000000 0.000000 0.877427 0.595210 1 0 1.000000
wood_door04
  0 54.616951 44.068607 -3.001867 -0.915021 0.000002 0.403405 0.862912 0.579794 1 0 1.000000
  0 54.616951 43.036198 -3.001867 -0.915021 0.000002 0.403405 0.876963 0.579382 1 0 1.000000
  0 54.616951 44.068607 -1.838886 -1.000000 0.000000 0.000000 0.863376 0.595622 1 0 1.000000
wood_door04
  0 54.616951 44.068607 -3.001867 -0.915021 0.000002 0.403405 0.862912 0.579794 1 0 1.000000
  0 54.388336 43.036198 -3.210749 -0.369783 0.000002 0.929118 0.876840 0.575168 1 0 1.000000
  0 54.616951 43.036198 -3.001867 -0.915021 0.000002 0.403405 0.876963 0.579382 1 0 1.000000
wood_door04
  0 54.388340 44.068611 -3.210749 -0.369783 0.000002 0.929118 0.862789 0.575579 1 0 1.000000
  0 54.388336 43.036198 -3.210749 -0.369783 0.000002 0.929118 0.876840 0.575168 1 0 1.000000
  0 54.616951 44.068607 -3.001867 -0.915021 0.000002 0.403405 0.862912 0.579794 1 0 1.000000
wood_door04
  0 54.388340 44.068611 -3.210749 -0.369783 0.000002 0.929118 0.862789 0.575579 1 0 1.000000
  0 47.316185 43.974834 -3.332577 -0.017224 0.000000 0.999852 0.861245 0.479275 1 0 1.000000
  0 54.388336 43.036198 -3.210749 -0.369783 0.000002 0.929118 0.876840 0.575168 1 0 1.000000
wood_door04
  0 54.388336 43.036198 -3.210749 -0.369783 0.000002 0.929118 0.876840 0.575168 1 0 1.000000
  0 47.316185 43.974834 -3.332577 -0.017224 0.000000 0.999852 0.861245 0.479275 1 0 1.000000
  0 47.316185 43.129971 -3.332577 -0.017224 0.000000 0.999852 0.872743 0.478939 1 0 1.000000
wood_door04
  0 47.316185 43.974834 -3.332577 -0.012782 0.999876 -0.009197 0.803880 0.679097 1 0 1.000000
  0 54.388340 44.068611 -3.210749 -0.012782 0.999876 -0.009197 0.794484 0.527483 1 0 1.000000
  0 47.318748 43.974834 -3.580326 -0.012782 0.999876 -0.009197 0.809040 0.678891 1 0 1.000000
wood_door04
  0 47.318748 43.974834 -3.580326 -0.012782 0.999876 -0.009197 0.809040 0.678891 1 0 1.000000
  0 54.388340 44.068611 -3.210749 -0.012782 0.999876 -0.009197 0.794484 0.527483 1 0 1.000000
  0 54.917801 44.068611 -3.702152 -0.012782 0.999876 -0.009197 0.806934 0.521940 1 0 1.000000
wood_door04
  0 54.388340 44.068611 -3.210749 -0.012782 0.999876 -0.009197 0.794484 0.527483 1 0 1.000000
  0 54.616951 44.068607 -3.001867 0.000003 1.000000 0.000010 0.791359 0.511109 1 0 1.000000
  0 54.917801 44.068611 -3.702152 -0.012782 0.999876 -0.009197 0.806934 0.521940 1 0 1.000000
wood_door04
  0 54.917801 44.068611 -3.702152 -0.012782 0.999876 -0.009197 0.806934 0.521940 1 0 1.000000
  0 54.616951 44.068607 -3.001867 0.000003 1.000000 0.000010 0.791359 0.511109 1 0 1.000000
  0 55.422417 44.068607 -3.141907 0.000003 1.000000 0.000010 0.806922 0.508532 1 0 1.000000
wood_door04
  0 55.422417 44.068607 -3.141907 0.000003 1.000000 0.000010 0.806922 0.508532 1 0 1.000000
  0 54.616951 44.068607 -3.001867 0.000003 1.000000 0.000010 0.791359 0.511109 1 0 1.000000
  0 55.422417 44.068607 -1.847607 0.000000 1.000000 0.000000 0.806898 0.482132 1 0 1.000000
wood_door04
  0 55.422417 44.068607 -1.847607 0.000000 1.000000 0.000000 0.806898 0.482132 1 0 1.000000
  0 54.616951 44.068607 -3.001867 0.000003 1.000000 0.000010 0.791359 0.511109 1 0 1.000000
  0 54.616951 44.068607 -1.838886 0.000000 1.000000 0.000000 0.790155 0.481714 1 0 1.000000
wood_door04
  0 47.318748 43.129971 -3.580326 -0.012782 -0.999876 -0.009206 0.826575 0.678875 1 0 1.000000
  0 54.388336 43.036198 -3.210749 -0.012782 -0.999876 -0.009206 0.840854 0.527441 1 0 1.000000
  0 47.316185 43.129971 -3.332577 -0.012782 -0.999876 -0.009206 0.831734 0.679072 1 0 1.000000
wood_door04
  0 54.917801 43.036198 -3.702152 -0.012782 -0.999876 -0.009206 0.828394 0.521920 1 0 1.000000
  0 54.388336 43.036198 -3.210749 -0.012782 -0.999876 -0.009206 0.840854 0.527441 1 0 1.000000
  0 47.318748 43.129971 -3.580326 -0.012782 -0.999876 -0.009206 0.826575 0.678875 1 0 1.000000
wood_door04
  0 54.388336 43.036198 -3.210749 -0.012782 -0.999876 -0.009206 0.840854 0.527441 1 0 1.000000
  0 54.917801 43.036198 -3.702152 -0.012782 -0.999876 -0.009206 0.828394 0.521920 1 0 1.000000
  0 54.616951 43.036198 -3.001867 0.000000 -1.000000 0.000003 0.843949 0.511061 1 0 1.000000
wood_door04
  0 54.616951 43.036198 -3.001867 0.000000 -1.000000 0.000003 0.843949 0.511061 1 0 1.000000
  0 54.917801 43.036198 -3.702152 -0.012782 -0.999876 -0.009206 0.828394 0.521920 1 0 1.000000
  0 55.422417 43.036198 -3.141907 0.000000 -1.000000 0.000003 0.828382 0.508513 1 0 1.000000
wood_door04
  0 55.422417 43.036198 -3.141907 0.000000 -1.000000 0.000003 0.828382 0.508513 1 0 1.000000
  0 55.422417 43.036198 -1.847607 0.000000 -1.000000 0.000000 0.828358 0.482112 1 0 1.000000
  0 54.616951 43.036198 -3.001867 0.000000 -1.000000 0.000003 0.843949 0.511061 1 0 1.000000
wood_door04
  0 54.616951 43.036198 -3.001867 0.000000 -1.000000 0.000003 0.843949 0.511061 1 0 1.000000
  0 55.422417 43.036198 -1.847607 0.000000 -1.000000 0.000000 0.828358 0.482112 1 0 1.000000
  0 54.616951 43.036198 -1.838886 0.000000 -1.000000 0.000000 0.845100 0.481664 1 0 1.000000
wood_door04
  0 52.220871 30.577801 1.558404 0.000000 0.000000 1.000000 0.802350 0.756990 1 0 1.000000
  0 57.755695 30.577801 1.558403 0.000000 0.000000 1.000000 0.880098 0.756990 1 0 1.000000
  0 54.255089 35.508072 1.558404 0.000000 0.000000 1.000000 0.829794 0.825963 1 0 1.000000
wood_door04
  0 57.755695 30.577801 1.558403 0.000000 0.000000 1.000000 0.880098 0.756990 1 0 1.000000
  0 55.744495 35.509632 1.558404 0.000000 0.000000 1.000000 0.851846 0.825411 1 0 1.000000
  0 54.255089 35.508072 1.558404 0.000000 0.000000 1.000000 0.829794 0.825963 1 0 1.000000
wood_door04
  0 56.357670 36.740383 1.558405 0.000000 0.000000 1.000000 0.860460 0.845541 1 0 1.000000
  0 55.744495 35.509632 1.558404 0.000000 0.000000 1.000000 0.851846 0.825411 1 0 1.000000
  0 57.755695 30.577801 1.558403 0.000000 0.000000 1.000000 0.880098 0.756990 1 0 1.000000
wood_door04
  0 57.755695 30.577801 1.558403 0.000000 0.000000 1.000000 0.880098 0.756990 1 0 1.000000
  0 57.755695 47.184425 1.558403 0.000000 0.000000 1.000000 0.880098 0.990263 1 0 1.000000
  0 56.357670 36.740383 1.558405 0.000000 0.000000 1.000000 0.860460 0.845541 1 0 1.000000
wood_door04
  0 56.357670 36.740383 1.558405 0.000000 0.000000 1.000000 0.860460 0.845541 1 0 1.000000
  0 57.755695 47.184425 1.558403 0.000000 0.000000 1.000000 0.880098 0.990263 1 0 1.000000
  0 55.654293 37.895008 1.558406 0.000000 0.000000 1.000000 0.850579 0.860294 1 0 1.000000
wood_door04
  0 57.755695 47.184425 1.558403 0.000000 0.000000 1.000000 0.880098 0.990263 1 0 1.000000
  0 52.220871 47.184425 1.558404 0.000000 0.000000 1.000000 0.802350 0.990262 1 0 1.000000
  0 55.654293 37.895008 1.558406 0.000000 0.000000 1.000000 0.850579 0.860294 1 0 1.000000
wood_door04
  0 52.220871 47.184425 1.558404 0.000000 0.000000 1.000000 0.802350 0.990262 1 0 1.000000
  0 54.421085 37.890652 1.558405 0.000000 0.000000 1.000000 0.833256 0.860641 1 0 1.000000
  0 55.654293 37.895008 1.558406 0.000000 0.000000 1.000000 0.850579 0.860294 1 0 1.000000
wood_door04
  0 53.672890 36.774242 1.558404 0.000000 0.000000 1.000000 0.822747 0.846121 1 0 1.000000
  0 54.421085 37.890652 1.558405 0.000000 0.000000 1.000000 0.833256 0.860641 1 0 1.000000
  0 52.220871 47.184425 1.558404 0.000000 0.000000 1.000000 0.802350 0.990262 1 0 1.000000
wood_door04
  0 52.220871 30.577801 1.558404 0.000000 0.000000 1.000000 0.802350 0.756990 1 0 1.000000
  0 53.672890 36.774242 1.558404 0.000000 0.000000 1.000000 0.822747 0.846121 1 0 1.000000
  0 52.220871 47.184425 1.558404 0.000000 0.000000 1.000000 0.802350 0.990262 1 0 1.000000
wood_door04
  0 53.672890 36.774242 1.558404 0.000000 0.000000 1.000000 0.822747 0.846121 1 0 1.000000
  0 52.220871 30.577801 1.558404 0.000000 0.000000 1.000000 0.802350 0.756990 1 0 1.000000
  0 54.255089 35.508072 1.558404 0.000000 0.000000 1.000000 0.829794 0.825963 1 0 1.000000
wood_door04
  0 43.050987 77.883057 1.001030 0.000000 0.000000 1.000000 0.198944 0.810571 1 0 1.000000
  0 60.000000 94.000000 1.001030 0.000000 0.000000 1.000000 0.025591 0.975415 1 0 1.000000
  0 16.949013 77.883057 1.001030 0.000000 0.000000 1.000000 0.465893 0.810571 1 0 1.000000
wood_door04
  0 16.949013 77.883057 1.001030 0.000000 0.000000 1.000000 0.465893 0.810571 1 0 1.000000
  0 60.000000 94.000000 1.001030 0.000000 0.000000 1.000000 0.025591 0.975415 1 0 1.000000
  0 0.000000 94.000000 1.001030 0.000000 0.000000 1.000000 0.639214 0.975415 1 0 1.000000
wood_door04
  0 16.949013 77.883057 1.001030 0.000000 0.000000 1.000000 0.465893 0.810571 1 0 1.000000
  0 0.000000 94.000000 1.001030 0.000000 0.000000 1.000000 0.639214 0.975415 1 0 1.000000
  0 16.949013 46.553349 1.001030 0.000000 0.000000 1.000000 0.465890 0.490161 1 0 1.000000
wood_door04
  0 16.949013 46.553349 1.001030 0.000000 0.000000 1.000000 0.465890 0.490161 1 0 1.000000
  0 0.000000 94.000000 1.001030 0.000000 0.000000 1.000000 0.639214 0.975415 1 0 1.000000
  0 0.000000 1.000000 1.001030 0.000000 0.000000 1.000000 0.639211 0.024302 1 0 1.000000
wood_door04
  0 0.000000 1.000000 1.001030 0.000000 0.000000 1.000000 0.639211 0.024302 1 0 1.000000
  0 43.050987 46.553349 1.001030 0.000000 0.000000 1.000000 0.198944 0.490161 1 0 1.000000
  0 16.949013 46.553349 1.001030 0.000000 0.000000 1.000000 0.465890 0.490161 1 0 1.000000
wood_door04
  0 60.000000 1.000000 1.001030 0.000000 0.000000 1.000000 0.025589 0.024302 1 0 1.000000
  0 43.050987 46.553349 1.001030 0.000000 0.000000 1.000000 0.198944 0.490161 1 0 1.000000
  0 0.000000 1.000000 1.001030 0.000000 0.000000 1.000000 0.639211 0.024302 1 0 1.000000
wood_door04
  0 60.000000 1.000000 1.001030 0.000000 0.000000 1.000000 0.025589 0.024302 1 0 1.000000
  0 60.000000 94.000000 1.001030 0.000000 0.000000 1.000000 0.025591 0.975415 1 0 1.000000
  0 43.050987 46.553349 1.001030 0.000000 0.000000 1.000000 0.198944 0.490161 1 0 1.000000
wood_door04
  0 43.050987 46.553349 1.001030 0.000000 0.000000 1.000000 0.198944 0.490161 1 0 1.000000
  0 60.000000 94.000000 1.001030 0.000000 0.000000 1.000000 0.025591 0.975415 1 0 1.000000
  0 43.050987 77.883057 1.001030 0.000000 0.000000 1.000000 0.198944 0.810571 1 0 1.000000
wood_door04
  0 43.050987 46.553349 -1.000000 0.000000 0.000000 -1.000000 0.198944 0.490162 1 0 1.000000
  0 0.000000 1.000000 -1.000000 0.000000 0.000000 -1.000000 0.639213 0.024302 1 0 1.000000
  0 16.949013 46.553349 -1.000000 0.000000 0.000000 -1.000000 0.465889 0.490163 1 0 1.000000
wood_door04
  0 0.000000 1.000000 -1.000000 0.000000 0.000000 -1.000000 0.639213 0.024302 1 0 1.000000
  0 0.000000 94.000000 -1.000000 0.000000 0.000000 -1.000000 0.639210 0.975416 1 0 1.000000
  0 16.949013 46.553349 -1.000000 0.000000 0.000000 -1.000000 0.465889 0.490163 1 0 1.000000
wood_door04
  0 16.949013 46.553349 -1.000000 0.000000 0.000000 -1.000000 0.465889 0.490163 1 0 1.000000
  0 0.000000 94.000000 -1.000000 0.000000 0.000000 -1.000000 0.639210 0.975416 1 0 1.000000
  0 16.949013 77.883057 -1.000000 0.000000 0.000000 -1.000000 0.465886 0.810571 1 0 1.000000
wood_door04
  0 60.000000 94.000000 -1.000000 0.000000 0.000000 -1.000000 0.025589 0.975415 1 0 1.000000
  0 16.949013 77.883057 -1.000000 0.000000 0.000000 -1.000000 0.465886 0.810571 1 0 1.000000
  0 0.000000 94.000000 -1.000000 0.000000 0.000000 -1.000000 0.639210 0.975416 1 0 1.000000
wood_door04
  0 43.050987 77.883057 -1.000000 0.000000 0.000000 -1.000000 0.198944 0.810571 1 0 1.000000
  0 16.949013 77.883057 -1.000000 0.000000 0.000000 -1.000000 0.465886 0.810571 1 0 1.000000
  0 60.000000 94.000000 -1.000000 0.000000 0.000000 -1.000000 0.025589 0.975415 1 0 1.000000
wood_door04
  0 60.000000 94.000000 -1.000000 0.000000 0.000000 -1.000000 0.025589 0.975415 1 0 1.000000
  0 43.050987 46.553349 -1.000000 0.000000 0.000000 -1.000000 0.198944 0.490162 1 0 1.000000
  0 43.050987 77.883057 -1.000000 0.000000 0.000000 -1.000000 0.198944 0.810571 1 0 1.000000
wood_door04
  0 60.000000 1.000000 -1.000000 0.000000 0.000000 -1.000000 0.025591 0.024302 1 0 1.000000
  0 43.050987 46.553349 -1.000000 0.000000 0.000000 -1.000000 0.198944 0.490162 1 0 1.000000
  0 60.000000 94.000000 -1.000000 0.000000 0.000000 -1.000000 0.025589 0.975415 1 0 1.000000
wood_door04
  0 60.000000 1.000000 -1.000000 0.000000 0.000000 -1.000000 0.025591 0.024302 1 0 1.000000
  0 0.000000 1.000000 -1.000000 0.000000 0.000000 -1.000000 0.639213 0.024302 1 0 1.000000
  0 43.050987 46.553349 -1.000000 0.000000 0.000000 -1.000000 0.198944 0.490162 1 0 1.000000
wood_door04
  0 52.220871 47.184425 -1.620120 0.000000 0.000000 -1.000000 0.880098 0.990263 1 0 1.000000
  0 57.755695 47.184425 -1.620120 0.000000 0.000000 -1.000000 0.802350 0.990262 1 0 1.000000
  0 54.322277 37.895004 -1.620120 0.000000 0.000000 -1.000000 0.850579 0.860294 1 0 1.000000
wood_door04
  0 57.755695 47.184425 -1.620120 0.000000 0.000000 -1.000000 0.802350 0.990262 1 0 1.000000
  0 55.555485 37.890652 -1.620120 0.000000 0.000000 -1.000000 0.833256 0.860641 1 0 1.000000
  0 54.322277 37.895004 -1.620120 0.000000 0.000000 -1.000000 0.850579 0.860294 1 0 1.000000
wood_door04
  0 56.303677 36.774242 -1.620120 0.000000 0.000000 -1.000000 0.822747 0.846121 1 0 1.000000
  0 55.555485 37.890652 -1.620120 0.000000 0.000000 -1.000000 0.833256 0.860641 1 0 1.000000
  0 57.755695 47.184425 -1.620120 0.000000 0.000000 -1.000000 0.802350 0.990262 1 0 1.000000
wood_door04
  0 57.755695 30.577801 -1.620120 0.000000 0.000000 -1.000000 0.802350 0.756990 1 0 1.000000
  0 56.303677 36.774242 -1.620120 0.000000 0.000000 -1.000000 0.822747 0.846121 1 0 1.000000
  0 57.755695 47.184425 -1.620120 0.000000 0.000000 -1.000000 0.802350 0.990262 1 0 1.000000
wood_door04
  0 56.303677 36.774242 -1.620120 0.000000 0.000000 -1.000000 0.822747 0.846121 1 0 1.000000
  0 57.755695 30.577801 -1.620120 0.000000 0.000000 -1.000000 0.802350 0.756990 1 0 1.000000
  0 55.721478 35.508072 -1.620120 0.000000 0.000000 -1.000000 0.829794 0.825963 1 0 1.000000
wood_door04
  0 57.755695 30.577801 -1.620120 0.000000 0.000000 -1.000000 0.802350 0.756990 1 0 1.000000
  0 52.220871 30.577801 -1.620120 0.000000 0.000000 -1.000000 0.880098 0.756990 1 0 1.000000
  0 55.721478 35.508072 -1.620120 0.000000 0.000000 -1.000000 0.829794 0.825963 1 0 1.000000
wood_door04
  0 52.220871 30.577801 -1.620120 0.000000 0.000000 -1.000000 0.880098 0.756990 1 0 1.000000
  0 54.232071 35.509632 -1.620120 0.000000 0.000000 -1.000000 0.851846 0.825411 1 0 1.000000
  0 55.721478 35.508072 -1.620120 0.000000 0.000000 -1.000000 0.829794 0.825963 1 0 1.000000
wood_door04
  0 53.618896 36.740383 -1.620120 0.000000 0.000000 -1.000000 0.860460 0.845541 1 0 1.000000
  0 54.232071 35.509632 -1.620120 0.000000 0.000000 -1.000000 0.851846 0.825411 1 0 1.000000
  0 52.220871 30.577801 -1.620120 0.000000 0.000000 -1.000000 0.880098 0.756990 1 0 1.000000
wood_door04
  0 52.220871 30.577801 -1.620120 0.000000 0.000000 -1.000000 0.880098 0.756990 1 0 1.000000
  0 52.220871 47.184425 -1.620120 0.000000 0.000000 -1.000000 0.880098 0.990263 1 0 1.000000
  0 53.618896 36.740383 -1.620120 0.000000 0.000000 -1.000000 0.860460 0.845541 1 0 1.000000
wood_door04
  0 53.618896 36.740383 -1.620120 0.000000 0.000000 -1.000000 0.860460 0.845541 1 0 1.000000
  0 52.220871 47.184425 -1.620120 0.000000 0.000000 -1.000000 0.880098 0.990263 1 0 1.000000
  0 54.322277 37.895004 -1.620120 0.000000 0.000000 -1.000000 0.850579 0.860294 1 0 1.000000
wood_door04
  0 55.744495 35.509632 1.558404 0.293704 -0.491963 0.819579 0.851846 0.825411 1 0 1.000000
  0 56.357670 36.740383 1.558405 0.590901 0.025590 0.806338 0.860460 0.845541 1 0 1.000000
  0 55.364552 36.053303 1.991925 0.293704 -0.491963 0.819579 0.848051 0.832986 1 0 1.000000
wood_door04
  0 55.364552 36.053303 1.991925 0.293704 -0.491963 0.819579 0.848051 0.832986 1 0 1.000000
  0 56.357670 36.740383 1.558405 0.590901 0.025590 0.806338 0.860460 0.845541 1 0 1.000000
  0 55.718441 36.740383 2.049392 0.590901 0.025590 0.806338 0.851555 0.845668 1 0 1.000000
wood_door04
  0 55.654293 37.895008 1.558406 0.300357 0.541153 0.785455 0.850579 0.860294 1 0 1.000000
  0 55.718441 36.740383 2.049392 0.590901 0.025590 0.806338 0.851555 0.845668 1 0 1.000000
  0 56.357670 36.740383 1.558405 0.590901 0.025590 0.806338 0.860460 0.845541 1 0 1.000000
wood_door04
  0 55.329960 37.338341 2.064805 0.300357 0.541153 0.785455 0.846103 0.853053 1 0 1.000000
  0 55.718441 36.740383 2.049392 0.590901 0.025590 0.806338 0.851555 0.845668 1 0 1.000000
  0 55.654293 37.895008 1.558406 0.300357 0.541153 0.785455 0.850579 0.860294 1 0 1.000000
wood_door04
  0 54.421085 37.890652 1.558405 -0.298703 0.560419 0.772468 0.833256 0.860641 1 0 1.000000
  0 55.329960 37.338341 2.064805 0.300357 0.541153 0.785455 0.846103 0.853053 1 0 1.000000
  0 55.654293 37.895008 1.558406 0.300357 0.541153 0.785455 0.850579 0.860294 1 0 1.000000
wood_door04
  0 54.713352 37.336575 2.064805 -0.298703 0.560419 0.772468 0.837441 0.853226 1 0 1.000000
  0 55.329960 37.338341 2.064805 0.300357 0.541153 0.785455 0.846103 0.853053 1 0 1.000000
  0 54.421085 37.890652 1.558405 -0.298703 0.560419 0.772468 0.833256 0.860641 1 0 1.000000
wood_door04
  0 54.421085 37.890652 1.558405 -0.298703 0.560419 0.772468 0.833256 0.860641 1 0 1.000000
  0 54.257896 36.774242 2.030219 -0.608440 0.056744 0.791569 0.831034 0.845985 1 0 1.000000
  0 54.713352 37.336575 2.064805 -0.298703 0.560419 0.772468 0.837441 0.853226 1 0 1.000000
wood_door04
  0 53.672890 36.774242 1.558404 -0.608440 0.056744 0.791569 0.822747 0.846121 1 0 1.000000
  0 54.257896 36.774242 2.030219 -0.608440 0.056744 0.791569 0.831034 0.845985 1 0 1.000000
  0 54.421085 37.890652 1.558405 -0.298703 0.560419 0.772468 0.833256 0.860641 1 0 1.000000
wood_door04
  0 53.672890 36.774242 1.558404 -0.608440 0.056744 0.791569 0.822747 0.846121 1 0 1.000000
  0 54.626717 36.055386 2.017811 -0.304509 -0.487785 0.818132 0.834728 0.834241 1 0 1.000000
  0 54.257896 36.774242 2.030219 -0.608440 0.056744 0.791569 0.831034 0.845985 1 0 1.000000
wood_door04
  0 54.255089 35.508072 1.558404 -0.304509 -0.487785 0.818132 0.829794 0.825963 1 0 1.000000
  0 54.626717 36.055386 2.017811 -0.304509 -0.487785 0.818132 0.834728 0.834241 1 0 1.000000
  0 53.672890 36.774242 1.558404 -0.608440 0.056744 0.791569 0.822747 0.846121 1 0 1.000000
wood_door04
  0 54.626717 36.055386 2.017811 -0.304509 -0.487785 0.818132 0.834728 0.834241 1 0 1.000000
  0 54.255089 35.508072 1.558404 -0.304509 -0.487785 0.818132 0.829794 0.825963 1 0 1.000000
  0 55.364552 36.053303 1.991925 0.293704 -0.491963 0.819579 0.848051 0.832986 1 0 1.000000
wood_door04
  0 55.364552 36.053303 1.991925 0.293704 -0.491963 0.819579 0.848051 0.832986 1 0 1.000000
  0 54.255089 35.508072 1.558404 -0.304509 -0.487785 0.818132 0.829794 0.825963 1 0 1.000000
  0 55.744495 35.509632 1.558404 0.293704 -0.491963 0.819579 0.851846 0.825411 1 0 1.000000
wood_door04
  0 56.303677 36.774242 -1.620120 0.608441 0.056746 -0.791568 0.822747 0.846121 1 0 1.000000
  0 55.349850 36.055386 -2.079529 0.304510 -0.487784 -0.818132 0.834728 0.834241 1 0 1.000000
  0 55.718670 36.774242 -2.091937 0.608441 0.056746 -0.791568 0.831034 0.845985 1 0 1.000000
wood_door04
  0 55.721478 35.508072 -1.620120 0.304510 -0.487784 -0.818132 0.829794 0.825963 1 0 1.000000
  0 55.349850 36.055386 -2.079529 0.304510 -0.487784 -0.818132 0.834728 0.834241 1 0 1.000000
  0 56.303677 36.774242 -1.620120 0.608441 0.056746 -0.791568 0.822747 0.846121 1 0 1.000000
wood_door04
  0 55.349850 36.055386 -2.079529 0.304510 -0.487784 -0.818132 0.834728 0.834241 1 0 1.000000
  0 55.721478 35.508072 -1.620120 0.304510 -0.487784 -0.818132 0.829794 0.825963 1 0 1.000000
  0 54.612015 36.053303 -2.053643 -0.293704 -0.491963 -0.819579 0.848051 0.832986 1 0 1.000000
wood_door04
  0 54.612015 36.053303 -2.053643 -0.293704 -0.491963 -0.819579 0.848051 0.832986 1 0 1.000000
  0 55.721478 35.508072 -1.620120 0.304510 -0.487784 -0.818132 0.829794 0.825963 1 0 1.000000
  0 54.232071 35.509632 -1.620120 -0.293704 -0.491963 -0.819579 0.851846 0.825411 1 0 1.000000
wood_door04
  0 54.232071 35.509632 -1.620120 -0.293704 -0.491963 -0.819579 0.851846 0.825411 1 0 1.000000
  0 53.618896 36.740383 -1.620120 -0.590902 0.025592 -0.806337 0.860460 0.845541 1 0 1.000000
  0 54.612015 36.053303 -2.053643 -0.293704 -0.491963 -0.819579 0.848051 0.832986 1 0 1.000000
wood_door04
  0 54.612015 36.053303 -2.053643 -0.293704 -0.491963 -0.819579 0.848051 0.832986 1 0 1.000000
  0 53.618896 36.740383 -1.620120 -0.590902 0.025592 -0.806337 0.860460 0.845541 1 0 1.000000
  0 54.258125 36.740383 -2.111109 -0.590902 0.025592 -0.806337 0.851555 0.845668 1 0 1.000000
wood_door04
  0 54.322277 37.895004 -1.620120 -0.300358 0.541155 -0.785453 0.850579 0.860294 1 0 1.000000
  0 54.258125 36.740383 -2.111109 -0.590902 0.025592 -0.806337 0.851555 0.845668 1 0 1.000000
  0 53.618896 36.740383 -1.620120 -0.590902 0.025592 -0.806337 0.860460 0.845541 1 0 1.000000
wood_door04
  0 54.646606 37.338341 -2.126521 -0.300358 0.541155 -0.785453 0.846103 0.853053 1 0 1.000000
  0 54.258125 36.740383 -2.111109 -0.590902 0.025592 -0.806337 0.851555 0.845668 1 0 1.000000
  0 54.322277 37.895004 -1.620120 -0.300358 0.541155 -0.785453 0.850579 0.860294 1 0 1.000000
wood_door04
  0 55.555485 37.890652 -1.620120 0.298702 0.560420 -0.772468 0.833256 0.860641 1 0 1.000000
  0 54.646606 37.338341 -2.126521 -0.300358 0.541155 -0.785453 0.846103 0.853053 1 0 1.000000
  0 54.322277 37.895004 -1.620120 -0.300358 0.541155 -0.785453 0.850579 0.860294 1 0 1.000000
wood_door04
  0 55.263214 37.336575 -2.126521 0.298702 0.560420 -0.772468 0.837441 0.853226 1 0 1.000000
  0 54.646606 37.338341 -2.126521 -0.300358 0.541155 -0.785453 0.846103 0.853053 1 0 1.000000
  0 55.555485 37.890652 -1.620120 0.298702 0.560420 -0.772468 0.833256 0.860641 1 0 1.000000
wood_door04
  0 55.555485 37.890652 -1.620120 0.298702 0.560420 -0.772468 0.833256 0.860641 1 0 1.000000
  0 55.718670 36.774242 -2.091937 0.608441 0.056746 -0.791568 0.831034 0.845985 1 0 1.000000
  0 55.263214 37.336575 -2.126521 0.298702 0.560420 -0.772468 0.837441 0.853226 1 0 1.000000
wood_door04
  0 56.303677 36.774242 -1.620120 0.608441 0.056746 -0.791568 0.822747 0.846121 1 0 1.000000
  0 55.718670 36.774242 -2.091937 0.608441 0.056746 -0.791568 0.831034 0.845985 1 0 1.000000
  0 55.555485 37.890652 -1.620120 0.298702 0.560420 -0.772468 0.833256 0.860641 1 0 1.000000
end
