// Created by Crowbar 0.74
version 1
nodes
  0 "static_prop" -1
end
skeleton
  time 0
    0 0.000000 0.000000 0.000000 0.000000 0.000000 0.000000
end
triangles
  phy
    0 30.419958 9.384849 0.000000 -0.145623 0.055120 -0.987803 0 0
    0 30.419958 9.384846 98.876052 -0.505616 -0.095691 -0.857435 0 0
    0 35.937285 9.384850 0.000000 -0.507362 0.048010 0.860395 0 0
  phy
    0 35.937285 9.384850 0.000000 -0.507362 0.048010 0.860395 0 0
    0 30.419958 9.384846 98.876052 -0.505616 -0.095691 -0.857435 0 0
    0 35.937285 9.384847 98.876052 -0.145789 -0.027591 0.988931 0 0
  phy
    0 30.419958 -9.327957 98.876052 0.145789 -0.027591 -0.988931 0 0
    0 30.419958 9.384846 98.876052 -0.505616 -0.095691 -0.857435 0 0
    0 30.419958 9.384849 0.000000 -0.145623 0.055120 -0.987803 0 0
  phy
    0 30.419958 -9.327957 98.876052 0.145789 -0.027591 -0.988931 0 0
    0 30.419958 9.384849 0.000000 -0.145623 0.055120 -0.987803 0 0
    0 30.419958 -9.327953 0.000000 0.507362 0.048010 -0.860395 0 0
  phy
    0 30.419958 -9.327957 98.876052 0.145789 -0.027591 -0.988931 0 0
    0 35.937285 -9.327957 98.876052 0.505617 -0.095691 0.857435 0 0
    0 30.419958 9.384846 98.876052 -0.505616 -0.095691 -0.857435 0 0
  phy
    0 35.937285 -9.327957 98.876052 0.505617 -0.095691 0.857435 0 0
    0 35.937285 9.384847 98.876052 -0.145789 -0.027591 0.988931 0 0
    0 30.419958 9.384846 98.876052 -0.505616 -0.095691 -0.857435 0 0
  phy
    0 30.419958 -9.327953 0.000000 0.507362 0.048010 -0.860395 0 0
    0 35.937285 -9.327957 98.876052 0.505617 -0.095691 0.857435 0 0
    0 30.419958 -9.327957 98.876052 0.145789 -0.027591 -0.988931 0 0
  phy
    0 30.419958 -9.327953 0.000000 0.507362 0.048010 -0.860395 0 0
    0 35.937285 -9.327953 0.000000 0.145623 0.055120 0.987803 0 0
    0 35.937285 -9.327957 98.876052 0.505617 -0.095691 0.857435 0 0
  phy
    0 30.419958 -9.327953 0.000000 0.507362 0.048010 -0.860395 0 0
    0 30.419958 9.384849 0.000000 -0.145623 0.055120 -0.987803 0 0
    0 35.937285 -9.327953 0.000000 0.145623 0.055120 0.987803 0 0
  phy
    0 35.937285 -9.327953 0.000000 0.145623 0.055120 0.987803 0 0
    0 30.419958 9.384849 0.000000 -0.145623 0.055120 -0.987803 0 0
    0 35.937285 9.384850 0.000000 -0.507362 0.048010 0.860395 0 0
  phy
    0 35.937285 9.384847 98.876052 -0.145789 -0.027591 0.988931 0 0
    0 35.937285 -9.327953 0.000000 0.145623 0.055120 0.987803 0 0
    0 35.937285 9.384850 0.000000 -0.507362 0.048010 0.860395 0 0
  phy
    0 35.937285 9.384847 98.876052 -0.145789 -0.027591 0.988931 0 0
    0 35.937285 -9.327957 98.876052 0.505617 -0.095691 0.857435 0 0
    0 35.937285 -9.327953 0.000000 0.145623 0.055120 0.987803 0 0
  phy
    0 39.961732 -9.327957 98.792333 0.373381 0.923543 0.087493 0 0
    0 -39.895815 -9.327960 98.792333 0.369166 0.913117 -0.173011 0 0
    0 -39.895815 9.384843 98.792333 -0.374457 0.926206 -0.043873 0 0
  phy
    0 39.961732 -9.327957 98.792333 0.373381 0.923543 0.087493 0 0
    0 -39.895815 9.384843 98.792333 -0.374457 0.926206 -0.043873 0 0
    0 39.961732 9.384846 98.792333 -0.373381 0.923543 0.087493 0 0
  phy
    0 39.961732 9.384846 98.792333 -0.373381 0.923543 0.087493 0 0
    0 39.961732 9.384846 106.357768 -0.622041 -0.769297 0.145761 0 0
    0 39.961732 -9.327957 98.792333 0.373381 0.923543 0.087493 0 0
  phy
    0 39.961732 9.384846 106.357768 -0.622041 -0.769297 0.145761 0 0
    0 39.961732 -9.327958 106.357768 0.197925 -0.979119 0.046379 0 0
    0 39.961732 -9.327957 98.792333 0.373381 0.923543 0.087493 0 0
  phy
    0 39.961732 -9.327957 98.792333 0.373381 0.923543 0.087493 0 0
    0 -39.895815 -9.327961 106.357768 0.627057 -0.775501 -0.073468 0 0
    0 -39.895815 -9.327960 98.792333 0.369166 0.913117 -0.173011 0 0
  phy
    0 39.961732 -9.327958 106.357768 0.197925 -0.979119 0.046379 0 0
    0 -39.895815 -9.327961 106.357768 0.627057 -0.775501 -0.073468 0 0
    0 39.961732 -9.327957 98.792333 0.373381 0.923543 0.087493 0 0
  phy
    0 -39.895815 9.384843 98.792333 -0.374457 0.926206 -0.043873 0 0
    0 -39.895815 -9.327960 98.792333 0.369166 0.913117 -0.173011 0 0
    0 -39.895815 9.384843 106.357768 -0.197289 -0.975975 -0.092461 0 0
  phy
    0 -39.895815 9.384843 106.357768 -0.197289 -0.975975 -0.092461 0 0
    0 -39.895815 -9.327960 98.792333 0.369166 0.913117 -0.173011 0 0
    0 -39.895815 -9.327961 106.357768 0.627057 -0.775501 -0.073468 0 0
  phy
    0 39.961732 9.384846 98.792333 -0.373381 0.923543 0.087493 0 0
    0 -39.895815 9.384843 98.792333 -0.374457 0.926206 -0.043873 0 0
    0 39.961732 9.384846 106.357768 -0.622041 -0.769297 0.145761 0 0
  phy
    0 39.961732 9.384846 106.357768 -0.622041 -0.769297 0.145761 0 0
    0 -39.895815 9.384843 98.792333 -0.374457 0.926206 -0.043873 0 0
    0 -39.895815 9.384843 106.357768 -0.197289 -0.975975 -0.092461 0 0
  phy
    0 39.961732 -9.327958 106.357768 0.197925 -0.979119 0.046379 0 0
    0 -39.895815 9.384843 106.357768 -0.197289 -0.975975 -0.092461 0 0
    0 -39.895815 -9.327961 106.357768 0.627057 -0.775501 -0.073468 0 0
  phy
    0 39.961732 -9.327958 106.357768 0.197925 -0.979119 0.046379 0 0
    0 39.961732 9.384846 106.357768 -0.622041 -0.769297 0.145761 0 0
    0 -39.895815 9.384843 106.357768 -0.197289 -0.975975 -0.092461 0 0
  phy
    0 -30.830118 -9.327955 0.000000 0.145623 0.055120 0.987803 0 0
    0 -30.830118 9.384843 98.876052 -0.282705 -0.026752 0.958834 0 0
    0 -30.830118 -9.327960 98.876052 0.505616 -0.095691 0.857435 0 0
  phy
    0 -30.830118 -9.327955 0.000000 0.145623 0.055120 0.987803 0 0
    0 -30.830118 9.384848 0.000000 -0.282402 0.053446 0.957806 0 0
    0 -30.830118 9.384843 98.876052 -0.282705 -0.026752 0.958834 0 0
  phy
    0 -30.830118 9.384848 0.000000 -0.282402 0.053446 0.957806 0 0
    0 -30.830118 -9.327955 0.000000 0.145623 0.055120 0.987803 0 0
    0 -36.347445 9.384848 0.000000 -0.505617 0.095691 -0.857435 0 0
  phy
    0 -36.347445 9.384848 0.000000 -0.505617 0.095691 -0.857435 0 0
    0 -30.830118 -9.327955 0.000000 0.145623 0.055120 0.987803 0 0
    0 -36.347445 -9.327956 0.000000 0.282705 0.026752 -0.958834 0 0
  phy
    0 -30.830118 -9.327960 98.876052 0.505616 -0.095691 0.857435 0 0
    0 -36.347445 -9.327956 0.000000 0.282705 0.026752 -0.958834 0 0
    0 -30.830118 -9.327955 0.000000 0.145623 0.055120 0.987803 0 0
  phy
    0 -30.830118 9.384843 98.876052 -0.282705 -0.026752 0.958834 0 0
    0 -36.347445 9.384843 98.876052 -0.145623 -0.055120 -0.987803 0 0
    0 -30.830118 -9.327960 98.876052 0.505616 -0.095691 0.857435 0 0
  phy
    0 -36.347445 9.384843 98.876052 -0.145623 -0.055120 -0.987803 0 0
    0 -36.347445 -9.327961 98.876052 0.282402 -0.053446 -0.957806 0 0
    0 -30.830118 -9.327960 98.876052 0.505616 -0.095691 0.857435 0 0
  phy
    0 -30.830118 -9.327960 98.876052 0.505616 -0.095691 0.857435 0 0
    0 -36.347445 -9.327961 98.876052 0.282402 -0.053446 -0.957806 0 0
    0 -36.347445 -9.327956 0.000000 0.282705 0.026752 -0.958834 0 0
  phy
    0 -30.830118 9.384843 98.876052 -0.282705 -0.026752 0.958834 0 0
    0 -30.830118 9.384848 0.000000 -0.282402 0.053446 0.957806 0 0
    0 -36.347445 9.384848 0.000000 -0.505617 0.095691 -0.857435 0 0
  phy
    0 -30.830118 9.384843 98.876052 -0.282705 -0.026752 0.958834 0 0
    0 -36.347445 9.384848 0.000000 -0.505617 0.095691 -0.857435 0 0
    0 -36.347445 9.384843 98.876052 -0.145623 -0.055120 -0.987803 0 0
  phy
    0 -36.347445 9.384843 98.876052 -0.145623 -0.055120 -0.987803 0 0
    0 -36.347445 9.384848 0.000000 -0.505617 0.095691 -0.857435 0 0
    0 -36.347445 -9.327956 0.000000 0.282705 0.026752 -0.958834 0 0
  phy
    0 -36.347445 9.384843 98.876052 -0.145623 -0.055120 -0.987803 0 0
    0 -36.347445 -9.327956 0.000000 0.282705 0.026752 -0.958834 0 0
    0 -36.347445 -9.327961 98.876052 0.282402 -0.053446 -0.957806 0 0
end
