// Created by Crowbar 0.74
version 1
nodes
  0 "static_prop" -1
end
skeleton
  time 0
    0 0.000000 0.000000 0.000000 0.000000 0.000000 0.000000
end
triangles
wood_door02_old
  0 -36.102524 -9.379558 0.000000 0.000000 -1.000000 0.000000 0.862001 0.002841 1 0 1.000000
  0 -31.204889 -9.379561 95.212303 0.000000 -1.000000 0.000000 0.896037 0.656885 1 0 1.000000
  0 -36.102524 -9.379561 98.066116 0.000000 -1.000000 0.000000 0.862001 0.676718 1 0 1.000000
wood_door02_old
  0 -31.204889 -9.379557 0.000000 0.000000 -1.000000 0.000000 0.896037 0.002841 1 0 1.000000
  0 -31.204889 -9.379561 95.212303 0.000000 -1.000000 0.000000 0.896037 0.656885 1 0 1.000000
  0 -36.102524 -9.379558 0.000000 0.000000 -1.000000 0.000000 0.862001 0.002841 1 0 1.000000
wood_door02_old
  0 30.999823 -9.379555 0.000000 0.000000 -1.000000 0.000000 0.896244 0.002841 1 0 1.000000
  0 35.897476 -9.379554 0.000000 0.000000 -1.000000 0.000000 0.862208 0.002841 1 0 1.000000
  0 30.999823 -9.379559 95.212303 0.000000 -1.000000 0.000000 0.896244 0.656885 1 0 1.000000
wood_door02_old
  0 30.999823 -9.379559 95.212303 0.000000 -1.000000 0.000000 0.896244 0.656885 1 0 1.000000
  0 35.897476 -9.379554 0.000000 0.000000 -1.000000 0.000000 0.862208 0.002841 1 0 1.000000
  0 35.897476 -9.379559 98.066116 0.000000 -1.000000 0.000000 0.862208 0.676718 1 0 1.000000
wood_door02_old
  0 -40.277763 -9.379561 100.614906 -1.000000 0.000000 0.000000 0.034806 0.977685 1 0 1.000000
  0 -40.277760 -9.379562 106.451210 -1.000000 0.000000 0.000000 0.006824 0.977685 1 0 1.000000
  0 -40.277763 9.349609 100.614906 -1.000000 0.000000 0.000000 0.034806 0.887888 1 0 1.000000
wood_door02_old
  0 -40.277763 9.349609 100.614906 -1.000000 0.000000 0.000000 0.034806 0.887888 1 0 1.000000
  0 -40.277760 -9.379562 106.451210 -1.000000 0.000000 0.000000 0.006824 0.977685 1 0 1.000000
  0 -40.277760 9.349608 106.451210 -1.000000 0.000000 0.000000 0.006824 0.887888 1 0 1.000000
wood_door02_old
  0 40.072708 -9.379559 100.614906 0.357193 0.000000 -0.934031 0.034282 0.977708 1 0 1.000000
  0 37.619888 -9.379559 99.676895 0.529992 0.000000 -0.848003 0.046042 0.977708 1 0 1.000000
  0 40.072708 9.349612 100.614906 0.357193 0.000000 -0.934031 0.034282 0.887911 1 0 1.000000
wood_door02_old
  0 40.072708 9.349612 100.614906 0.357193 0.000000 -0.934031 0.034282 0.887911 1 0 1.000000
  0 37.619888 -9.379559 99.676895 0.529992 0.000000 -0.848003 0.046042 0.977708 1 0 1.000000
  0 37.619888 9.349612 99.676895 0.529992 0.000000 -0.848003 0.046042 0.887911 1 0 1.000000
wood_door02_old
  0 37.619888 9.349612 99.676895 0.529992 0.000000 -0.848003 0.046042 0.887911 1 0 1.000000
  0 37.619888 -9.379559 99.676895 0.529992 0.000000 -0.848003 0.046042 0.977708 1 0 1.000000
  0 35.897476 9.349612 98.066116 0.683043 0.000000 -0.730378 0.054300 0.887911 1 0 1.000000
wood_door02_old
  0 35.897476 9.349612 98.066116 0.683043 0.000000 -0.730378 0.054300 0.887911 1 0 1.000000
  0 37.619888 -9.379559 99.676895 0.529992 0.000000 -0.848003 0.046042 0.977708 1 0 1.000000
  0 35.897476 -9.379559 98.066116 0.683043 0.000000 -0.730378 0.054300 0.977708 1 0 1.000000
wood_door02_old
  0 -40.277763 9.349609 100.614906 -0.357194 0.000000 -0.934030 0.034806 0.887888 1 0 1.000000
  0 -37.824947 -9.379561 99.676895 -0.529990 0.000000 -0.848004 0.046566 0.977685 1 0 1.000000
  0 -40.277763 -9.379561 100.614906 -0.357194 0.000000 -0.934030 0.034806 0.977685 1 0 1.000000
wood_door02_old
  0 -37.824947 9.349609 99.676895 -0.529990 0.000000 -0.848004 0.046566 0.887888 1 0 1.000000
  0 -37.824947 -9.379561 99.676895 -0.529990 0.000000 -0.848004 0.046566 0.977685 1 0 1.000000
  0 -40.277763 9.349609 100.614906 -0.357194 0.000000 -0.934030 0.034806 0.887888 1 0 1.000000
wood_door02_old
  0 -36.102524 9.349609 98.066116 -0.683040 0.000000 -0.730381 0.054824 0.887888 1 0 1.000000
  0 -37.824947 -9.379561 99.676895 -0.529990 0.000000 -0.848004 0.046566 0.977685 1 0 1.000000
  0 -37.824947 9.349609 99.676895 -0.529990 0.000000 -0.848004 0.046566 0.887888 1 0 1.000000
wood_door02_old
  0 -36.102524 -9.379561 98.066116 -0.683040 0.000000 -0.730381 0.054824 0.977685 1 0 1.000000
  0 -37.824947 -9.379561 99.676895 -0.529990 0.000000 -0.848004 0.046566 0.977685 1 0 1.000000
  0 -36.102524 9.349609 98.066116 -0.683040 0.000000 -0.730381 0.054824 0.887888 1 0 1.000000
wood_door02_old
  0 40.072708 -9.379559 106.451210 1.000000 0.000000 0.000000 0.006300 0.977708 1 0 1.000000
  0 40.072708 -9.379559 100.614906 1.000000 0.000000 0.000000 0.034282 0.977708 1 0 1.000000
  0 40.072708 9.349612 106.451210 1.000000 0.000000 0.000000 0.006300 0.887911 1 0 1.000000
wood_door02_old
  0 40.072708 9.349612 106.451210 1.000000 0.000000 0.000000 0.006300 0.887911 1 0 1.000000
  0 40.072708 -9.379559 100.614906 1.000000 0.000000 0.000000 0.034282 0.977708 1 0 1.000000
  0 40.072708 9.349612 100.614906 1.000000 0.000000 0.000000 0.034282 0.887911 1 0 1.000000
wood_door02_old
  0 -31.204889 -3.356497 95.212303 1.000000 0.000000 0.000000 0.004224 0.668457 1 0 1.000000
  0 -31.204889 -9.379561 95.212303 1.000000 0.000000 0.000000 0.004224 0.706769 1 0 1.000000
  0 -31.204889 -3.350051 0.000000 1.000000 0.000000 0.000000 0.609864 0.668415 1 0 1.000000
wood_door02_old
  0 -31.204889 -3.350051 0.000000 1.000000 0.000000 0.000000 0.609864 0.668415 1 0 1.000000
  0 -31.204889 -9.379561 95.212303 1.000000 0.000000 0.000000 0.004224 0.706769 1 0 1.000000
  0 -31.204889 -9.379557 0.000000 1.000000 0.000000 0.000000 0.609863 0.706769 1 0 1.000000
wood_door02_old
  0 -31.204889 -3.356497 95.212303 -0.038344 -0.999264 -0.000034 0.611785 0.761649 1 0 1.000000
  0 -31.204889 -3.350051 0.000000 -0.038344 -0.999264 -0.000034 0.006145 0.761649 1 0 1.000000
  0 -30.102526 -3.395555 94.000000 -0.038344 -0.999264 -0.000034 0.604074 0.754637 1 0 1.000000
wood_door02_old
  0 -30.102526 -3.395555 94.000000 -0.038344 -0.999264 -0.000034 0.604074 0.754637 1 0 1.000000
  0 -31.204889 -3.350051 0.000000 -0.038344 -0.999264 -0.000034 0.006145 0.761649 1 0 1.000000
  0 -30.102526 -3.395551 0.000000 -0.038344 -0.999264 -0.000034 0.006145 0.754637 1 0 1.000000
wood_door02_old
  0 30.999823 -3.356494 95.212303 0.000000 0.000000 -1.000000 0.609863 0.668487 1 0 1.000000
  0 30.999823 -9.379559 95.212303 0.000000 0.000000 -1.000000 0.609864 0.706800 1 0 1.000000
  0 -31.204889 -3.356497 95.212303 0.000000 0.000000 -1.000000 0.004261 0.668488 1 0 1.000000
wood_door02_old
  0 -31.204889 -3.356497 95.212303 0.000000 0.000000 -1.000000 0.004261 0.668488 1 0 1.000000
  0 30.999823 -9.379559 95.212303 0.000000 0.000000 -1.000000 0.609864 0.706800 1 0 1.000000
  0 -31.204889 -9.379561 95.212303 0.000000 0.000000 -1.000000 0.004261 0.706800 1 0 1.000000
wood_door02_old
  0 29.897474 -3.395553 94.000000 0.000000 -0.999481 0.032202 0.604035 0.754393 1 0 1.000000
  0 30.999823 -3.356494 95.212303 0.000000 -0.999481 0.032202 0.611047 0.762104 1 0 1.000000
  0 -30.102526 -3.395555 94.000000 0.000000 -0.999481 0.032202 0.032032 0.754393 1 0 1.000000
wood_door02_old
  0 -30.102526 -3.395555 94.000000 0.000000 -0.999481 0.032202 0.032032 0.754393 1 0 1.000000
  0 30.999823 -3.356494 95.212303 0.000000 -0.999481 0.032202 0.611047 0.762104 1 0 1.000000
  0 -31.204889 -3.356497 95.212303 0.000000 -0.999481 0.032202 0.025020 0.762104 1 0 1.000000
wood_door02_old
  0 30.999823 -3.356494 95.212303 0.038344 -0.999264 -0.000034 0.611785 0.761469 1 0 1.000000
  0 29.897474 -3.395553 94.000000 0.038344 -0.999264 -0.000034 0.604073 0.754457 1 0 1.000000
  0 30.999823 -3.350049 0.000000 0.038344 -0.999264 -0.000034 0.006145 0.761469 1 0 1.000000
wood_door02_old
  0 30.999823 -3.350049 0.000000 0.038344 -0.999264 -0.000034 0.006145 0.761469 1 0 1.000000
  0 29.897474 -3.395553 94.000000 0.038344 -0.999264 -0.000034 0.604073 0.754457 1 0 1.000000
  0 29.897474 -3.395549 0.000000 0.038344 -0.999264 -0.000034 0.006145 0.754457 1 0 1.000000
wood_door02_old
  0 30.999823 -9.379559 95.212303 -1.000000 0.000000 0.000000 0.004223 0.706734 1 0 1.000000
  0 30.999823 -3.356494 95.212303 -1.000000 0.000000 0.000000 0.004223 0.668422 1 0 1.000000
  0 30.999823 -9.379555 0.000000 -1.000000 0.000000 0.000000 0.609864 0.706734 1 0 1.000000
wood_door02_old
  0 30.999823 -9.379555 0.000000 -1.000000 0.000000 0.000000 0.609864 0.706734 1 0 1.000000
  0 30.999823 -3.356494 95.212303 -1.000000 0.000000 0.000000 0.004223 0.668422 1 0 1.000000
  0 30.999823 -3.350049 0.000000 -1.000000 0.000000 0.000000 0.609864 0.668381 1 0 1.000000
wood_door02_old
  0 30.999823 3.477126 95.216011 -1.000000 0.000000 0.000000 0.602537 0.803310 1 0 1.000000
  0 30.999823 9.349612 95.224686 -1.000000 0.000000 0.000000 0.602591 0.766353 1 0 1.000000
  0 30.999823 3.477130 0.000000 -1.000000 0.000000 0.000000 0.003315 0.803310 1 0 1.000000
wood_door02_old
  0 30.999823 3.477130 0.000000 -1.000000 0.000000 0.000000 0.003315 0.803310 1 0 1.000000
  0 30.999823 9.349612 95.224686 -1.000000 0.000000 0.000000 0.602591 0.766353 1 0 1.000000
  0 30.999823 9.349616 0.000000 -1.000000 0.000000 0.000000 0.003314 0.766352 1 0 1.000000
wood_door02_old
  0 -31.204887 3.477123 95.216011 0.000000 0.001477 -0.999999 0.603048 0.803352 1 0 1.000000
  0 -31.204887 9.349609 95.224686 0.000000 0.001477 -0.999999 0.601960 0.766394 1 0 1.000000
  0 30.999823 3.477126 95.216011 0.000000 0.001477 -0.999999 0.003603 0.803351 1 0 1.000000
wood_door02_old
  0 30.999823 3.477126 95.216011 0.000000 0.001477 -0.999999 0.003603 0.803351 1 0 1.000000
  0 -31.204887 9.349609 95.224686 0.000000 0.001477 -0.999999 0.601960 0.766394 1 0 1.000000
  0 30.999823 9.349612 95.224686 0.000000 0.001477 -0.999999 0.002783 0.766394 1 0 1.000000
wood_door02_old
  0 -31.204887 9.349609 95.224686 1.000000 0.000000 0.000000 0.602591 0.767068 1 0 1.000000
  0 -31.204887 3.477123 95.216011 1.000000 0.000000 0.000000 0.602537 0.804025 1 0 1.000000
  0 -31.204887 9.349614 0.000000 1.000000 0.000000 0.000000 0.003314 0.767068 1 0 1.000000
wood_door02_old
  0 -31.204887 9.349614 0.000000 1.000000 0.000000 0.000000 0.003314 0.767068 1 0 1.000000
  0 -31.204887 3.477123 95.216011 1.000000 0.000000 0.000000 0.602537 0.804025 1 0 1.000000
  0 -31.204887 3.477128 0.000000 1.000000 0.000000 0.000000 0.003314 0.804025 1 0 1.000000
wood_door02_old
  0 29.897474 3.243881 0.000000 -0.207009 0.978339 0.000000 0.003314 0.810931 1 0 1.000000
  0 29.897474 3.243877 94.000000 -0.207009 0.978339 0.000000 0.594884 0.810931 1 0 1.000000
  0 30.999823 3.477130 0.000000 -0.207009 0.978339 0.000000 0.003315 0.803310 1 0 1.000000
wood_door02_old
  0 30.999823 3.477130 0.000000 -0.207009 0.978339 0.000000 0.003315 0.803310 1 0 1.000000
  0 29.897474 3.243877 94.000000 -0.207009 0.978339 0.000000 0.594884 0.810931 1 0 1.000000
  0 30.999823 3.477126 95.216011 -0.207009 0.978339 0.000000 0.602537 0.803310 1 0 1.000000
wood_door02_old
  0 29.897474 3.243877 94.000000 0.000000 0.982096 -0.188380 0.003371 0.810909 1 0 1.000000
  0 -30.102526 3.243875 94.000000 0.000000 0.982096 -0.188380 0.594428 0.810909 1 0 1.000000
  0 30.999823 3.477126 95.216011 0.000000 0.982096 -0.188380 0.003603 0.803351 1 0 1.000000
wood_door02_old
  0 30.999823 3.477126 95.216011 0.000000 0.982096 -0.188380 0.003603 0.803351 1 0 1.000000
  0 -30.102526 3.243875 94.000000 0.000000 0.982096 -0.188380 0.594428 0.810909 1 0 1.000000
  0 -31.204887 3.477123 95.216011 0.000000 0.982096 -0.188380 0.603048 0.803352 1 0 1.000000
wood_door02_old
  0 -30.102526 3.243879 0.000000 1.000000 0.000000 0.000000 0.006145 0.712404 1 0 1.000000
  0 -30.102526 3.243875 94.000000 1.000000 0.000000 0.000000 0.604073 0.712404 1 0 1.000000
  0 -30.102526 -3.395551 0.000000 1.000000 0.000000 0.000000 0.006145 0.754637 1 0 1.000000
wood_door02_old
  0 -30.102526 -3.395551 0.000000 1.000000 0.000000 0.000000 0.006145 0.754637 1 0 1.000000
  0 -30.102526 3.243875 94.000000 1.000000 0.000000 0.000000 0.604073 0.712404 1 0 1.000000
  0 -30.102526 -3.395555 94.000000 1.000000 0.000000 0.000000 0.604074 0.754637 1 0 1.000000
wood_door02_old
  0 -36.102524 -9.379558 0.000000 -1.000000 0.000000 0.000000 0.524997 0.977685 1 0 1.000000
  0 -36.102524 -9.379561 98.066116 -1.000000 0.000000 0.000000 0.054824 0.977685 1 0 1.000000
  0 -36.102524 9.349613 0.000000 -1.000000 0.000000 0.000000 0.524997 0.887888 1 0 1.000000
wood_door02_old
  0 -36.102524 9.349613 0.000000 -1.000000 0.000000 0.000000 0.524997 0.887888 1 0 1.000000
  0 -36.102524 -9.379561 98.066116 -1.000000 0.000000 0.000000 0.054824 0.977685 1 0 1.000000
  0 -36.102524 9.349609 98.066116 -1.000000 0.000000 0.000000 0.054824 0.887888 1 0 1.000000
wood_door02_old
  0 35.897476 9.349612 98.066116 1.000000 0.000000 0.000000 0.054300 0.887911 1 0 1.000000
  0 35.897476 -9.379559 98.066116 1.000000 0.000000 0.000000 0.054300 0.977708 1 0 1.000000
  0 35.897476 9.349617 0.000000 1.000000 0.000000 0.000000 0.524472 0.887911 1 0 1.000000
wood_door02_old
  0 35.897476 9.349617 0.000000 1.000000 0.000000 0.000000 0.524472 0.887911 1 0 1.000000
  0 35.897476 -9.379559 98.066116 1.000000 0.000000 0.000000 0.054300 0.977708 1 0 1.000000
  0 35.897476 -9.379554 0.000000 1.000000 0.000000 0.000000 0.524472 0.977708 1 0 1.000000
wood_door02_old
  0 -40.277760 9.349608 106.451210 0.000000 0.000000 1.000000 0.046359 0.887802 1 0 1.000000
  0 -40.277760 -9.379562 106.451210 0.000000 0.000000 1.000000 0.046359 0.977598 1 0 1.000000
  0 40.072708 9.349612 106.451210 0.000000 0.000000 1.000000 0.525556 0.887802 1 0 1.000000
wood_door02_old
  0 40.072708 9.349612 106.451210 0.000000 0.000000 1.000000 0.525556 0.887802 1 0 1.000000
  0 -40.277760 -9.379562 106.451210 0.000000 0.000000 1.000000 0.046359 0.977598 1 0 1.000000
  0 40.072708 -9.379559 106.451210 0.000000 0.000000 1.000000 0.525556 0.977598 1 0 1.000000
wood_door02_old
  0 29.897474 3.183181 0.000000 0.000000 1.000000 0.000000 0.379279 0.867882 1 0 1.000000
  0 -30.102526 3.183179 0.000000 0.000000 1.000000 0.000000 0.001681 0.867882 1 0 1.000000
  0 29.897474 3.183181 1.000000 0.000000 1.000000 0.000000 0.379279 0.861589 1 0 1.000000
wood_door02_old
  0 29.897474 3.183181 1.000000 0.000000 1.000000 0.000000 0.379279 0.861589 1 0 1.000000
  0 -30.102526 3.183179 0.000000 0.000000 1.000000 0.000000 0.001681 0.867882 1 0 1.000000
  0 -30.102526 3.183179 1.000000 0.000000 1.000000 0.000000 0.001681 0.861588 1 0 1.000000
wood_door02_old
  0 -30.102526 -3.308484 0.000000 0.000000 -1.000000 0.000000 0.001681 0.814441 1 0 1.000000
  0 29.897474 -3.308482 0.000000 0.000000 -1.000000 0.000000 0.379279 0.814441 1 0 1.000000
  0 -30.102526 -3.308484 1.000000 0.000000 -1.000000 0.000000 0.001681 0.820735 1 0 1.000000
wood_door02_old
  0 -30.102526 -3.308484 1.000000 0.000000 -1.000000 0.000000 0.001681 0.820735 1 0 1.000000
  0 29.897474 -3.308482 0.000000 0.000000 -1.000000 0.000000 0.379279 0.814441 1 0 1.000000
  0 29.897474 -3.308482 1.000000 0.000000 -1.000000 0.000000 0.379279 0.820735 1 0 1.000000
wood_door02_old
  0 29.897474 3.183181 1.000000 0.000000 0.000000 1.000000 0.379279 0.861589 1 0 1.000000
  0 -30.102526 3.183179 1.000000 0.000000 0.000000 1.000000 0.001681 0.861588 1 0 1.000000
  0 29.897474 -3.308482 1.000000 0.000000 0.000000 1.000000 0.379279 0.820735 1 0 1.000000
wood_door02_old
  0 29.897474 -3.308482 1.000000 0.000000 0.000000 1.000000 0.379279 0.820735 1 0 1.000000
  0 -30.102526 3.183179 1.000000 0.000000 0.000000 1.000000 0.001681 0.861588 1 0 1.000000
  0 -30.102526 -3.308484 1.000000 0.000000 0.000000 1.000000 0.001681 0.820735 1 0 1.000000
wood_door02_old
  0 29.897474 -3.395549 0.000000 -1.000000 0.000000 0.000000 0.006145 0.754457 1 0 1.000000
  0 29.897474 -3.395553 94.000000 -1.000000 0.000000 0.000000 0.604073 0.754457 1 0 1.000000
  0 29.897474 3.243881 0.000000 -1.000000 0.000000 0.000000 0.006145 0.712224 1 0 1.000000
wood_door02_old
  0 29.897474 3.243881 0.000000 -1.000000 0.000000 0.000000 0.006145 0.712224 1 0 1.000000
  0 29.897474 -3.395553 94.000000 -1.000000 0.000000 0.000000 0.604073 0.754457 1 0 1.000000
  0 29.897474 3.243877 94.000000 -1.000000 0.000000 0.000000 0.604074 0.712224 1 0 1.000000
wood_door02_old
  0 29.897474 -3.395553 94.000000 0.000000 0.000000 -1.000000 0.604035 0.754393 1 0 1.000000
  0 -30.102526 -3.395555 94.000000 0.000000 0.000000 -1.000000 0.032032 0.754393 1 0 1.000000
  0 29.897474 3.243877 94.000000 0.000000 0.000000 -1.000000 0.604035 0.712160 1 0 1.000000
wood_door02_old
  0 29.897474 3.243877 94.000000 0.000000 0.000000 -1.000000 0.604035 0.712160 1 0 1.000000
  0 -30.102526 -3.395555 94.000000 0.000000 0.000000 -1.000000 0.032032 0.754393 1 0 1.000000
  0 -30.102526 3.243875 94.000000 0.000000 0.000000 -1.000000 0.032033 0.712160 1 0 1.000000
wood_door02_old
  0 -31.204887 3.477123 95.216011 0.207006 0.978340 0.000000 0.602537 0.804025 1 0 1.000000
  0 -30.102526 3.243875 94.000000 0.207006 0.978340 0.000000 0.594884 0.810963 1 0 1.000000
  0 -31.204887 3.477128 0.000000 0.207006 0.978340 0.000000 0.003314 0.804025 1 0 1.000000
wood_door02_old
  0 -31.204887 3.477128 0.000000 0.207006 0.978340 0.000000 0.003314 0.804025 1 0 1.000000
  0 -30.102526 3.243875 94.000000 0.207006 0.978340 0.000000 0.594884 0.810963 1 0 1.000000
  0 -30.102526 3.243879 0.000000 0.207006 0.978340 0.000000 0.003314 0.810962 1 0 1.000000
wood_door02_old
  0 -31.204887 9.349614 0.000000 0.000000 1.000000 0.000000 0.933514 0.003249 1 0 1.000000
  0 -36.102524 9.349613 0.000000 0.000000 1.000000 0.000000 0.899995 0.003249 1 0 1.000000
  0 -31.204887 9.349609 95.224686 0.000000 1.000000 0.000000 0.933514 0.656365 1 0 1.000000
wood_door02_old
  0 -31.204887 9.349609 95.224686 0.000000 1.000000 0.000000 0.933514 0.656365 1 0 1.000000
  0 -36.102524 9.349613 0.000000 0.000000 1.000000 0.000000 0.899995 0.003249 1 0 1.000000
  0 -36.102524 9.349609 98.066116 0.000000 1.000000 0.000000 0.899994 0.677155 1 0 1.000000
wood_door02_old
  0 30.999823 9.349616 0.000000 0.000000 1.000000 0.000000 0.933257 0.003249 1 0 1.000000
  0 30.999823 9.349612 95.224686 0.000000 1.000000 0.000000 0.933257 0.656365 1 0 1.000000
  0 35.897476 9.349617 0.000000 0.000000 1.000000 0.000000 0.899737 0.003249 1 0 1.000000
wood_door02_old
  0 35.897476 9.349617 0.000000 0.000000 1.000000 0.000000 0.899737 0.003249 1 0 1.000000
  0 30.999823 9.349612 95.224686 0.000000 1.000000 0.000000 0.933257 0.656365 1 0 1.000000
  0 35.897476 9.349612 98.066116 0.000000 1.000000 0.000000 0.899737 0.677155 1 0 1.000000
wood_door02_old
  0 -40.277760 9.349608 106.451210 0.000000 1.000000 0.000000 0.994254 0.891482 1 0 1.000000
  0 40.072708 9.349612 106.451210 0.000000 1.000000 0.000000 0.536559 0.891482 1 0 1.000000
  0 -40.277763 9.349609 100.614906 0.000000 1.000000 0.000000 0.994254 0.858237 1 0 1.000000
wood_door02_old
  0 -40.277763 9.349609 100.614906 0.000000 1.000000 0.000000 0.994254 0.858237 1 0 1.000000
  0 40.072708 9.349612 106.451210 0.000000 1.000000 0.000000 0.536559 0.891482 1 0 1.000000
  0 -37.824947 9.349609 99.676895 0.000000 1.000000 0.000000 0.980282 0.852894 1 0 1.000000
wood_door02_old
  0 -37.824947 9.349609 99.676895 0.000000 1.000000 0.000000 0.980282 0.852894 1 0 1.000000
  0 40.072708 9.349612 106.451210 0.000000 1.000000 0.000000 0.536559 0.891482 1 0 1.000000
  0 -36.102524 9.349609 98.066116 0.000000 1.000000 0.000000 0.970471 0.843718 1 0 1.000000
wood_door02_old
  0 -36.102524 9.349609 98.066116 0.000000 1.000000 0.000000 0.970471 0.843718 1 0 1.000000
  0 40.072708 9.349612 106.451210 0.000000 1.000000 0.000000 0.536559 0.891482 1 0 1.000000
  0 -31.204887 9.349609 95.224686 0.000000 1.000000 0.000000 0.942573 0.827533 1 0 1.000000
wood_door02_old
  0 40.072708 9.349612 106.451210 0.000000 1.000000 0.000000 0.536559 0.891482 1 0 1.000000
  0 40.072708 9.349612 100.614906 0.000000 1.000000 0.000000 0.536559 0.858237 1 0 1.000000
  0 -31.204887 9.349609 95.224686 0.000000 1.000000 0.000000 0.942573 0.827533 1 0 1.000000
wood_door02_old
  0 40.072708 9.349612 100.614906 0.000000 1.000000 0.000000 0.536559 0.858237 1 0 1.000000
  0 37.619888 9.349612 99.676895 0.000000 1.000000 0.000000 0.550531 0.852894 1 0 1.000000
  0 -31.204887 9.349609 95.224686 0.000000 1.000000 0.000000 0.942573 0.827533 1 0 1.000000
wood_door02_old
  0 37.619888 9.349612 99.676895 0.000000 1.000000 0.000000 0.550531 0.852894 1 0 1.000000
  0 35.897476 9.349612 98.066116 0.000000 1.000000 0.000000 0.560342 0.843718 1 0 1.000000
  0 -31.204887 9.349609 95.224686 0.000000 1.000000 0.000000 0.942573 0.827533 1 0 1.000000
wood_door02_old
  0 -31.204887 9.349609 95.224686 0.000000 1.000000 0.000000 0.942573 0.827533 1 0 1.000000
  0 35.897476 9.349612 98.066116 0.000000 1.000000 0.000000 0.560342 0.843718 1 0 1.000000
  0 30.999823 9.349612 95.224686 0.000000 1.000000 0.000000 0.588240 0.827533 1 0 1.000000
wood_door02_old
  0 40.072708 -9.379559 106.451210 0.000000 -1.000000 0.000000 1.000292 0.972186 1 0 1.000000
  0 -40.277760 -9.379562 106.451210 0.000000 -1.000000 0.000000 0.542597 0.972186 1 0 1.000000
  0 40.072708 -9.379559 100.614906 0.000000 -1.000000 0.000000 1.000292 0.938941 1 0 1.000000
wood_door02_old
  0 40.072708 -9.379559 100.614906 0.000000 -1.000000 0.000000 1.000292 0.938941 1 0 1.000000
  0 -40.277760 -9.379562 106.451210 0.000000 -1.000000 0.000000 0.542597 0.972186 1 0 1.000000
  0 37.619888 -9.379559 99.676895 0.000000 -1.000000 0.000000 0.986320 0.933598 1 0 1.000000
wood_door02_old
  0 37.619888 -9.379559 99.676895 0.000000 -1.000000 0.000000 0.986320 0.933598 1 0 1.000000
  0 -40.277760 -9.379562 106.451210 0.000000 -1.000000 0.000000 0.542597 0.972186 1 0 1.000000
  0 35.897476 -9.379559 98.066116 0.000000 -1.000000 0.000000 0.976509 0.924422 1 0 1.000000
wood_door02_old
  0 35.897476 -9.379559 98.066116 0.000000 -1.000000 0.000000 0.976509 0.924422 1 0 1.000000
  0 -40.277760 -9.379562 106.451210 0.000000 -1.000000 0.000000 0.542597 0.972186 1 0 1.000000
  0 30.999823 -9.379559 95.212303 0.000000 -1.000000 0.000000 0.948610 0.908166 1 0 1.000000
wood_door02_old
  0 -40.277760 -9.379562 106.451210 0.000000 -1.000000 0.000000 0.542597 0.972186 1 0 1.000000
  0 -40.277763 -9.379561 100.614906 0.000000 -1.000000 0.000000 0.542597 0.938941 1 0 1.000000
  0 30.999823 -9.379559 95.212303 0.000000 -1.000000 0.000000 0.948610 0.908166 1 0 1.000000
wood_door02_old
  0 -40.277763 -9.379561 100.614906 0.000000 -1.000000 0.000000 0.542597 0.938941 1 0 1.000000
  0 -37.824947 -9.379561 99.676895 0.000000 -1.000000 0.000000 0.556569 0.933598 1 0 1.000000
  0 30.999823 -9.379559 95.212303 0.000000 -1.000000 0.000000 0.948610 0.908166 1 0 1.000000
wood_door02_old
  0 -37.824947 -9.379561 99.676895 0.000000 -1.000000 0.000000 0.556569 0.933598 1 0 1.000000
  0 -36.102524 -9.379561 98.066116 0.000000 -1.000000 0.000000 0.566380 0.924422 1 0 1.000000
  0 30.999823 -9.379559 95.212303 0.000000 -1.000000 0.000000 0.948610 0.908166 1 0 1.000000
wood_door02_old
  0 -36.102524 -9.379561 98.066116 0.000000 -1.000000 0.000000 0.566380 0.924422 1 0 1.000000
  0 -31.204889 -9.379561 95.212303 0.000000 -1.000000 0.000000 0.594278 0.908166 1 0 1.000000
  0 30.999823 -9.379559 95.212303 0.000000 -1.000000 0.000000 0.948610 0.908166 1 0 1.000000
end
