version 1
nodes
0 "Locker_01" -1
end
skeleton
time 0
0  0.000000 0.000000 0.000000  0.000000 -0.000000 0.000000
end
triangles
  phy
0  9.991818 0.012507 -10.420916  -0.667046 0.647938 -0.367731  0.000000 0.000000 1 0 1.000000
0  -11.466988 0.012507 -10.420915  -0.892707 -0.433524 -0.123009  0.000000 0.000000 1 0 1.000000
0  9.991818 75.631775 -10.420906  -0.713831 0.693391 0.098258  0.000000 0.000000 1 0 1.000000
  phy
0  9.991818 75.631775 -10.420906  -0.713831 0.693391 0.098258  0.000000 0.000000 1 0 1.000000
0  -11.466988 0.012507 -10.420915  -0.892707 -0.433524 -0.123009  0.000000 0.000000 1 0 1.000000
0  -11.466988 75.631775 -10.420905  -0.443706 -0.862098 0.244768  0.000000 0.000000 1 0 1.000000
  phy
0  -11.466988 75.631775 -10.420905  -0.443706 -0.862098 0.244768  0.000000 0.000000 1 0 1.000000
0  -11.466988 0.012507 -10.420915  -0.892707 -0.433524 -0.123009  0.000000 0.000000 1 0 1.000000
0  -11.466988 0.012505 10.420916  0.443888 -0.862039 -0.244646  0.000000 0.000000 1 0 1.000000
  phy
0  -11.466988 75.631775 -10.420905  -0.443706 -0.862098 0.244768  0.000000 0.000000 1 0 1.000000
0  -11.466988 0.012505 10.420916  0.443888 -0.862039 -0.244646  0.000000 0.000000 1 0 1.000000
0  -11.466988 75.631775 10.420925  0.892723 -0.433466 0.123099  0.000000 0.000000 1 0 1.000000
  phy
0  -11.466988 75.631775 -10.420905  -0.443706 -0.862098 0.244768  0.000000 0.000000 1 0 1.000000
0  9.991818 75.631775 10.420925  0.667042 0.647884 0.367834  0.000000 0.000000 1 0 1.000000
0  9.991818 75.631775 -10.420906  -0.713831 0.693391 0.098258  0.000000 0.000000 1 0 1.000000
  phy
0  -11.466988 75.631775 -10.420905  -0.443706 -0.862098 0.244768  0.000000 0.000000 1 0 1.000000
0  -11.466988 75.631775 10.420925  0.892723 -0.433466 0.123099  0.000000 0.000000 1 0 1.000000
0  9.991818 75.631775 10.420925  0.667042 0.647884 0.367834  0.000000 0.000000 1 0 1.000000
  phy
0  -11.466988 0.012507 -10.420915  -0.892707 -0.433524 -0.123009  0.000000 0.000000 1 0 1.000000
0  9.991818 0.012507 -10.420916  -0.667046 0.647938 -0.367731  0.000000 0.000000 1 0 1.000000
0  -11.466988 0.012505 10.420916  0.443888 -0.862039 -0.244646  0.000000 0.000000 1 0 1.000000
  phy
0  -11.466988 0.012505 10.420916  0.443888 -0.862039 -0.244646  0.000000 0.000000 1 0 1.000000
0  9.991818 0.012507 -10.420916  -0.667046 0.647938 -0.367731  0.000000 0.000000 1 0 1.000000
0  9.991818 0.012505 10.420916  0.713952 0.693251 -0.098369  0.000000 0.000000 1 0 1.000000
  phy
0  9.991818 75.631775 -10.420906  -0.713831 0.693391 0.098258  0.000000 0.000000 1 0 1.000000
0  9.991818 0.012505 10.420916  0.713952 0.693251 -0.098369  0.000000 0.000000 1 0 1.000000
0  9.991818 0.012507 -10.420916  -0.667046 0.647938 -0.367731  0.000000 0.000000 1 0 1.000000
  phy
0  9.991818 75.631775 -10.420906  -0.713831 0.693391 0.098258  0.000000 0.000000 1 0 1.000000
0  9.991818 75.631775 10.420925  0.667042 0.647884 0.367834  0.000000 0.000000 1 0 1.000000
0  9.991818 0.012505 10.420916  0.713952 0.693251 -0.098369  0.000000 0.000000 1 0 1.000000
  phy
0  -11.466988 75.631775 10.420925  0.892723 -0.433466 0.123099  0.000000 0.000000 1 0 1.000000
0  9.991818 0.012505 10.420916  0.713952 0.693251 -0.098369  0.000000 0.000000 1 0 1.000000
0  9.991818 75.631775 10.420925  0.667042 0.647884 0.367834  0.000000 0.000000 1 0 1.000000
  phy
0  -11.466988 75.631775 10.420925  0.892723 -0.433466 0.123099  0.000000 0.000000 1 0 1.000000
0  -11.466988 0.012505 10.420916  0.443888 -0.862039 -0.244646  0.000000 0.000000 1 0 1.000000
0  9.991818 0.012505 10.420916  0.713952 0.693251 -0.098369  0.000000 0.000000 1 0 1.000000
end
