// Created by Crowbar 0.74
version 1
nodes
  0 "static_prop" -1
end
skeleton
  time 0
    0 0.000000 0.000000 0.000000 0.000000 0.000000 0.000000
end
triangles
  phy
    0 55.016364 -24.550879 116.924883 0.284357 -0.931035 0.228724 0 0
    0 30.613061 -24.550879 116.924883 0.503814 -0.299531 -0.810218 0 0
    0 67.275167 -24.550874 83.919979 0.614451 0.478912 0.626972 0 0
  phy
    0 30.613061 -24.550879 116.924883 0.503814 -0.299531 -0.810218 0 0
    0 30.613061 -24.550876 83.919979 0.293019 0.871854 -0.392441 0 0
    0 67.275167 -24.550874 83.919979 0.614451 0.478912 0.626972 0 0
  phy
    0 67.275167 -24.550874 83.919979 0.614451 0.478912 0.626972 0 0
    0 30.613061 -24.550876 83.919979 0.293019 0.871854 -0.392441 0 0
    0 67.275167 24.550872 83.919979 -0.369044 0.883306 0.289097 0 0
  phy
    0 67.275167 24.550872 83.919979 -0.369044 0.883306 0.289097 0 0
    0 30.613061 -24.550876 83.919979 0.293019 0.871854 -0.392441 0 0
    0 30.613056 24.550872 83.919979 -0.477601 0.426586 -0.768064 0 0
  phy
    0 67.275167 -24.550874 83.919979 0.614451 0.478912 0.626972 0 0
    0 67.275167 24.550872 107.918236 -0.084780 -0.346929 0.934052 0 0
    0 67.275167 -24.550876 107.918236 0.167761 -0.343248 0.924141 0 0
  phy
    0 67.275167 -24.550874 83.919979 0.614451 0.478912 0.626972 0 0
    0 67.275167 24.550872 83.919979 -0.369044 0.883306 0.289097 0 0
    0 67.275167 24.550872 107.918236 -0.084780 -0.346929 0.934052 0 0
  phy
    0 67.275167 -24.550874 83.919979 0.614451 0.478912 0.626972 0 0
    0 67.275167 -24.550876 107.918236 0.167761 -0.343248 0.924141 0 0
    0 55.016364 -24.550879 116.924883 0.284357 -0.931035 0.228724 0 0
  phy
    0 30.613061 -24.550876 83.919979 0.293019 0.871854 -0.392441 0 0
    0 30.613061 -24.550879 116.924883 0.503814 -0.299531 -0.810218 0 0
    0 30.613056 24.550872 83.919979 -0.477601 0.426586 -0.768064 0 0
  phy
    0 30.613056 24.550872 83.919979 -0.477601 0.426586 -0.768064 0 0
    0 30.613061 -24.550879 116.924883 0.503814 -0.299531 -0.810218 0 0
    0 30.613056 24.550872 116.924883 -0.268205 -0.798023 -0.539654 0 0
  phy
    0 55.016364 24.550872 116.924883 -0.779883 -0.607852 0.149329 0 0
    0 67.275167 24.550872 107.918236 -0.084780 -0.346929 0.934052 0 0
    0 67.275167 24.550872 83.919979 -0.369044 0.883306 0.289097 0 0
  phy
    0 55.016364 24.550872 116.924883 -0.779883 -0.607852 0.149329 0 0
    0 67.275167 24.550872 83.919979 -0.369044 0.883306 0.289097 0 0
    0 30.613056 24.550872 83.919979 -0.477601 0.426586 -0.768064 0 0
  phy
    0 55.016364 24.550872 116.924883 -0.779883 -0.607852 0.149329 0 0
    0 30.613056 24.550872 83.919979 -0.477601 0.426586 -0.768064 0 0
    0 30.613056 24.550872 116.924883 -0.268205 -0.798023 -0.539654 0 0
  phy
    0 55.016364 -24.550879 116.924883 0.284357 -0.931035 0.228724 0 0
    0 67.275167 -24.550876 107.918236 0.167761 -0.343248 0.924141 0 0
    0 67.275167 24.550872 107.918236 -0.084780 -0.346929 0.934052 0 0
  phy
    0 67.275167 24.550872 107.918236 -0.084780 -0.346929 0.934052 0 0
    0 55.016364 24.550872 116.924883 -0.779883 -0.607852 0.149329 0 0
    0 55.016364 -24.550879 116.924883 0.284357 -0.931035 0.228724 0 0
  phy
    0 30.613056 24.550872 116.924883 -0.268205 -0.798023 -0.539654 0 0
    0 30.613061 -24.550879 116.924883 0.503814 -0.299531 -0.810218 0 0
    0 55.016364 -24.550879 116.924883 0.284357 -0.931035 0.228724 0 0
  phy
    0 55.016364 -24.550879 116.924883 0.284357 -0.931035 0.228724 0 0
    0 55.016364 24.550872 116.924883 -0.779883 -0.607852 0.149329 0 0
    0 30.613056 24.550872 116.924883 -0.268205 -0.798023 -0.539654 0 0
  phy
    0 30.763081 13.154621 110.523241 -0.650257 -0.719129 0.244988 0 0
    0 30.763081 13.154621 101.862949 -0.853961 0.515174 0.073114 0 0
    0 -20.079042 13.154618 110.523241 -0.634350 -0.765376 -0.108623 0 0
  phy
    0 -20.079042 13.154618 110.523241 -0.634350 -0.765376 -0.108623 0 0
    0 30.763081 13.154621 101.862949 -0.853961 0.515174 0.073114 0 0
    0 -30.258666 13.154618 101.862949 -0.441307 0.894679 -0.069264 0 0
  phy
    0 30.763081 13.154621 110.523241 -0.650257 -0.719129 0.244988 0 0
    0 -20.079042 13.154618 110.523241 -0.634350 -0.765376 -0.108623 0 0
    0 30.763081 3.577082 110.523241 0.410731 -0.908467 0.077373 0 0
  phy
    0 -20.079042 13.154618 110.523241 -0.634350 -0.765376 -0.108623 0 0
    0 -20.079042 3.577079 110.523241 0.853961 -0.515174 -0.073114 0 0
    0 30.763081 3.577082 110.523241 0.410731 -0.908467 0.077373 0 0
  phy
    0 30.763081 3.577082 110.523241 0.410731 -0.908467 0.077373 0 0
    0 30.763081 3.577082 101.862949 0.634350 0.765376 0.108623 0 0
    0 30.763081 13.154621 110.523241 -0.650257 -0.719129 0.244988 0 0
  phy
    0 30.763081 3.577082 101.862949 0.634350 0.765376 0.108623 0 0
    0 30.763081 13.154621 101.862949 -0.853961 0.515174 0.073114 0 0
    0 30.763081 13.154621 110.523241 -0.650257 -0.719129 0.244988 0 0
  phy
    0 30.763081 3.577082 110.523241 0.410731 -0.908467 0.077373 0 0
    0 -20.079042 3.577079 110.523241 0.853961 -0.515174 -0.073114 0 0
    0 30.763081 3.577082 101.862949 0.634350 0.765376 0.108623 0 0
  phy
    0 -20.079042 13.154618 110.523241 -0.634350 -0.765376 -0.108623 0 0
    0 -30.258666 3.577079 101.862949 0.780485 0.575169 -0.244999 0 0
    0 -20.079042 3.577079 110.523241 0.853961 -0.515174 -0.073114 0 0
  phy
    0 -20.079042 13.154618 110.523241 -0.634350 -0.765376 -0.108623 0 0
    0 -30.258666 13.154618 101.862949 -0.441307 0.894679 -0.069264 0 0
    0 -30.258666 3.577079 101.862949 0.780485 0.575169 -0.244999 0 0
  phy
    0 -30.258666 3.577079 101.862949 0.780485 0.575169 -0.244999 0 0
    0 -30.258666 13.154618 101.862949 -0.441307 0.894679 -0.069264 0 0
    0 30.763081 3.577082 101.862949 0.634350 0.765376 0.108623 0 0
  phy
    0 30.763081 3.577082 101.862949 0.634350 0.765376 0.108623 0 0
    0 -30.258666 13.154618 101.862949 -0.441307 0.894679 -0.069264 0 0
    0 30.763081 13.154621 101.862949 -0.853961 0.515174 0.073114 0 0
  phy
    0 30.763081 3.577082 101.862949 0.634350 0.765376 0.108623 0 0
    0 -20.079042 3.577079 110.523241 0.853961 -0.515174 -0.073114 0 0
    0 -30.258666 3.577079 101.862949 0.780485 0.575169 -0.244999 0 0
  phy
    0 -21.660579 13.154618 101.999758 -0.669032 -0.070399 0.739892 0 0
    0 -21.660579 3.577079 101.999758 0.410427 -0.086375 0.907793 0 0
    0 -21.660579 13.154623 10.980679 -0.670279 0.035265 0.741271 0 0
  phy
    0 -21.660579 3.577079 101.999758 0.410427 -0.086375 0.907793 0 0
    0 -21.660579 3.577084 10.980677 0.871434 0.091697 0.481865 0 0
    0 -21.660579 13.154623 10.980679 -0.670279 0.035265 0.741271 0 0
  phy
    0 -21.660579 13.154618 101.999758 -0.669032 -0.070399 0.739892 0 0
    0 -30.320880 13.154618 101.999758 -0.871434 -0.091697 -0.481865 0 0
    0 -21.660579 3.577079 101.999758 0.410427 -0.086375 0.907793 0 0
  phy
    0 -30.320880 13.154618 101.999758 -0.871434 -0.091697 -0.481865 0 0
    0 -30.320880 3.577079 101.999758 0.670279 -0.035265 -0.741271 0 0
    0 -21.660579 3.577079 101.999758 0.410427 -0.086375 0.907793 0 0
  phy
    0 -21.660579 13.154618 101.999758 -0.669032 -0.070399 0.739892 0 0
    0 -21.660579 13.154623 10.980679 -0.670279 0.035265 0.741271 0 0
    0 -30.320880 13.154618 101.999758 -0.871434 -0.091697 -0.481865 0 0
  phy
    0 -21.660579 13.154623 10.980679 -0.670279 0.035265 0.741271 0 0
    0 -21.660579 3.577084 10.980677 0.871434 0.091697 0.481865 0 0
    0 -30.320880 13.154623 10.980679 -0.410427 0.086375 -0.907793 0 0
  phy
    0 -30.320880 13.154623 10.980679 -0.410427 0.086375 -0.907793 0 0
    0 -21.660579 3.577084 10.980677 0.871434 0.091697 0.481865 0 0
    0 -30.320880 3.577083 10.980677 0.669032 0.070399 -0.739892 0 0
  phy
    0 -21.660579 3.577084 10.980677 0.871434 0.091697 0.481865 0 0
    0 -30.320880 3.577079 101.999758 0.670279 -0.035265 -0.741271 0 0
    0 -30.320880 3.577083 10.980677 0.669032 0.070399 -0.739892 0 0
  phy
    0 -21.660579 3.577084 10.980677 0.871434 0.091697 0.481865 0 0
    0 -21.660579 3.577079 101.999758 0.410427 -0.086375 0.907793 0 0
    0 -30.320880 3.577079 101.999758 0.670279 -0.035265 -0.741271 0 0
  phy
    0 -30.320880 13.154618 101.999758 -0.871434 -0.091697 -0.481865 0 0
    0 -21.660579 13.154623 10.980679 -0.670279 0.035265 0.741271 0 0
    0 -30.320880 13.154623 10.980679 -0.410427 0.086375 -0.907793 0 0
  phy
    0 -30.320880 13.154618 101.999758 -0.871434 -0.091697 -0.481865 0 0
    0 -30.320880 13.154623 10.980679 -0.410427 0.086375 -0.907793 0 0
    0 -30.320880 3.577079 101.999758 0.670279 -0.035265 -0.741271 0 0
  phy
    0 -30.320880 3.577079 101.999758 0.670279 -0.035265 -0.741271 0 0
    0 -30.320880 13.154623 10.980679 -0.410427 0.086375 -0.907793 0 0
    0 -30.320880 3.577083 10.980677 0.669032 0.070399 -0.739892 0 0
  phy
    0 -0.029056 3.577084 11.204068 0.793740 -0.527764 0.302392 0 0
    0 -20.079042 3.577084 2.543769 0.718862 0.638933 -0.273866 0 0
    0 -0.029056 3.577085 2.543769 0.404214 0.894052 0.193086 0 0
  phy
    0 -0.029056 3.577084 11.204068 0.793740 -0.527764 0.302392 0 0
    0 -30.258666 3.577083 11.204068 0.472254 -0.868671 -0.149622 0 0
    0 -20.079042 3.577084 2.543769 0.718862 0.638933 -0.273866 0 0
  phy
    0 -20.079042 3.577084 2.543769 0.718862 0.638933 -0.273866 0 0
    0 -30.258666 3.577083 11.204068 0.472254 -0.868671 -0.149622 0 0
    0 -30.258666 13.154622 11.204069 -0.915825 -0.198827 -0.348903 0 0
  phy
    0 -20.079042 3.577084 2.543769 0.718862 0.638933 -0.273866 0 0
    0 -30.258666 13.154622 11.204069 -0.915825 -0.198827 -0.348903 0 0
    0 -20.079042 13.154623 2.543769 -0.334835 0.928603 -0.159945 0 0
  phy
    0 -20.079042 3.577084 2.543769 0.718862 0.638933 -0.273866 0 0
    0 -20.079042 13.154623 2.543769 -0.334835 0.928603 -0.159945 0 0
    0 -0.029056 3.577085 2.543769 0.404214 0.894052 0.193086 0 0
  phy
    0 -0.029056 3.577085 2.543769 0.404214 0.894052 0.193086 0 0
    0 -20.079042 13.154623 2.543769 -0.334835 0.928603 -0.159945 0 0
    0 -0.029057 13.154624 2.543769 -0.863990 0.381024 0.329155 0 0
  phy
    0 -0.029057 13.154624 2.543769 -0.863990 0.381024 0.329155 0 0
    0 -0.029056 3.577084 11.204068 0.793740 -0.527764 0.302392 0 0
    0 -0.029056 3.577085 2.543769 0.404214 0.894052 0.193086 0 0
  phy
    0 -0.029057 13.154624 2.543769 -0.863990 0.381024 0.329155 0 0
    0 -0.029057 13.154624 11.204069 -0.408502 -0.903535 0.129424 0 0
    0 -0.029056 3.577084 11.204068 0.793740 -0.527764 0.302392 0 0
  phy
    0 -20.079042 13.154623 2.543769 -0.334835 0.928603 -0.159945 0 0
    0 -30.258666 13.154622 11.204069 -0.915825 -0.198827 -0.348903 0 0
    0 -0.029057 13.154624 2.543769 -0.863990 0.381024 0.329155 0 0
  phy
    0 -0.029057 13.154624 11.204069 -0.408502 -0.903535 0.129424 0 0
    0 -30.258666 3.577083 11.204068 0.472254 -0.868671 -0.149622 0 0
    0 -0.029056 3.577084 11.204068 0.793740 -0.527764 0.302392 0 0
  phy
    0 -30.258666 13.154622 11.204069 -0.915825 -0.198827 -0.348903 0 0
    0 -30.258666 3.577083 11.204068 0.472254 -0.868671 -0.149622 0 0
    0 -0.029057 13.154624 11.204069 -0.408502 -0.903535 0.129424 0 0
  phy
    0 -30.258666 13.154622 11.204069 -0.915825 -0.198827 -0.348903 0 0
    0 -0.029057 13.154624 11.204069 -0.408502 -0.903535 0.129424 0 0
    0 -0.029057 13.154624 2.543769 -0.863990 0.381024 0.329155 0 0
  phy
    0 -30.258666 -12.491965 101.862949 0.890879 0.447790 -0.076275 0 0
    0 30.763081 -12.491964 110.523241 0.703962 -0.707676 0.060272 0 0
    0 -20.079042 -12.491966 110.523241 0.531447 -0.823088 -0.200226 0 0
  phy
    0 -30.258666 -12.491965 101.862949 0.890879 0.447790 -0.076275 0 0
    0 30.763081 -12.491963 101.862949 0.408564 0.903674 0.128251 0 0
    0 30.763081 -12.491964 110.523241 0.703962 -0.707676 0.060272 0 0
  phy
    0 30.763081 -12.491963 101.862949 0.408564 0.903674 0.128251 0 0
    0 -30.258666 -12.491965 101.862949 0.890879 0.447790 -0.076275 0 0
    0 -30.258666 -2.914426 101.862949 -0.471686 0.869247 -0.148065 0 0
  phy
    0 30.763081 -12.491963 101.862949 0.408564 0.903674 0.128251 0 0
    0 -30.258666 -2.914426 101.862949 -0.471686 0.869247 -0.148065 0 0
    0 30.763081 -2.914423 101.862949 -0.853961 0.515174 0.073114 0 0
  phy
    0 30.763081 -2.914423 101.862949 -0.853961 0.515174 0.073114 0 0
    0 30.763081 -2.914423 110.523241 -0.650257 -0.719129 0.244988 0 0
    0 30.763081 -12.491963 101.862949 0.408564 0.903674 0.128251 0 0
  phy
    0 30.763081 -2.914423 110.523241 -0.650257 -0.719129 0.244988 0 0
    0 30.763081 -12.491964 110.523241 0.703962 -0.707676 0.060272 0 0
    0 30.763081 -12.491963 101.862949 0.408564 0.903674 0.128251 0 0
  phy
    0 -20.079042 -12.491966 110.523241 0.531447 -0.823088 -0.200226 0 0
    0 -30.258666 -2.914426 101.862949 -0.471686 0.869247 -0.148065 0 0
    0 -30.258666 -12.491965 101.862949 0.890879 0.447790 -0.076275 0 0
  phy
    0 -20.079042 -12.491966 110.523241 0.531447 -0.823088 -0.200226 0 0
    0 -20.079042 -2.914426 110.523241 -0.669593 -0.740512 -0.057329 0 0
    0 -30.258666 -2.914426 101.862949 -0.471686 0.869247 -0.148065 0 0
  phy
    0 30.763081 -2.914423 101.862949 -0.853961 0.515174 0.073114 0 0
    0 -30.258666 -2.914426 101.862949 -0.471686 0.869247 -0.148065 0 0
    0 -20.079042 -2.914426 110.523241 -0.669593 -0.740512 -0.057329 0 0
  phy
    0 30.763081 -2.914423 101.862949 -0.853961 0.515174 0.073114 0 0
    0 -20.079042 -2.914426 110.523241 -0.669593 -0.740512 -0.057329 0 0
    0 30.763081 -2.914423 110.523241 -0.650257 -0.719129 0.244988 0 0
  phy
    0 -20.079042 -12.491966 110.523241 0.531447 -0.823088 -0.200226 0 0
    0 30.763081 -12.491964 110.523241 0.703962 -0.707676 0.060272 0 0
    0 -20.079042 -2.914426 110.523241 -0.669593 -0.740512 -0.057329 0 0
  phy
    0 30.763081 -12.491964 110.523241 0.703962 -0.707676 0.060272 0 0
    0 30.763081 -2.914423 110.523241 -0.650257 -0.719129 0.244988 0 0
    0 -20.079042 -2.914426 110.523241 -0.669593 -0.740512 -0.057329 0 0
  phy
    0 -21.660579 -12.491960 10.980676 0.669032 0.070399 0.739892 0 0
    0 -30.320880 -12.491966 101.999758 0.874195 -0.045994 -0.483392 0 0
    0 -30.320880 -12.491961 10.980676 0.411580 0.043309 -0.910344 0 0
  phy
    0 -21.660579 -12.491960 10.980676 0.669032 0.070399 0.739892 0 0
    0 -21.660579 -12.491965 101.999758 0.664113 -0.139763 0.734452 0 0
    0 -30.320880 -12.491966 101.999758 0.874195 -0.045994 -0.483392 0 0
  phy
    0 -21.660579 -2.914421 10.980677 -0.669032 0.070399 0.739892 0 0
    0 -21.660579 -12.491960 10.980676 0.669032 0.070399 0.739892 0 0
    0 -30.320880 -2.914422 10.980677 -0.871434 0.091697 -0.481865 0 0
  phy
    0 -30.320880 -2.914422 10.980677 -0.871434 0.091697 -0.481865 0 0
    0 -21.660579 -12.491960 10.980676 0.669032 0.070399 0.739892 0 0
    0 -30.320880 -12.491961 10.980676 0.411580 0.043309 -0.910344 0 0
  phy
    0 -21.660579 -2.914421 10.980677 -0.669032 0.070399 0.739892 0 0
    0 -21.660579 -2.914425 101.999758 -0.670279 -0.035265 0.741271 0 0
    0 -21.660579 -12.491960 10.980676 0.669032 0.070399 0.739892 0 0
  phy
    0 -21.660579 -2.914425 101.999758 -0.670279 -0.035265 0.741271 0 0
    0 -21.660579 -12.491965 101.999758 0.664113 -0.139763 0.734452 0 0
    0 -21.660579 -12.491960 10.980676 0.669032 0.070399 0.739892 0 0
  phy
    0 -30.320880 -2.914422 10.980677 -0.871434 0.091697 -0.481865 0 0
    0 -30.320880 -12.491961 10.980676 0.411580 0.043309 -0.910344 0 0
    0 -30.320880 -2.914426 101.999758 -0.410427 -0.086375 -0.907793 0 0
  phy
    0 -30.320880 -2.914426 101.999758 -0.410427 -0.086375 -0.907793 0 0
    0 -30.320880 -12.491961 10.980676 0.411580 0.043309 -0.910344 0 0
    0 -30.320880 -12.491966 101.999758 0.874195 -0.045994 -0.483392 0 0
  phy
    0 -30.320880 -12.491966 101.999758 0.874195 -0.045994 -0.483392 0 0
    0 -21.660579 -12.491965 101.999758 0.664113 -0.139763 0.734452 0 0
    0 -30.320880 -2.914426 101.999758 -0.410427 -0.086375 -0.907793 0 0
  phy
    0 -21.660579 -12.491965 101.999758 0.664113 -0.139763 0.734452 0 0
    0 -21.660579 -2.914425 101.999758 -0.670279 -0.035265 0.741271 0 0
    0 -30.320880 -2.914426 101.999758 -0.410427 -0.086375 -0.907793 0 0
  phy
    0 -30.320880 -2.914422 10.980677 -0.871434 0.091697 -0.481865 0 0
    0 -30.320880 -2.914426 101.999758 -0.410427 -0.086375 -0.907793 0 0
    0 -21.660579 -2.914425 101.999758 -0.670279 -0.035265 0.741271 0 0
  phy
    0 -30.320880 -2.914422 10.980677 -0.871434 0.091697 -0.481865 0 0
    0 -21.660579 -2.914425 101.999758 -0.670279 -0.035265 0.741271 0 0
    0 -21.660579 -2.914421 10.980677 -0.669032 0.070399 0.739892 0 0
  phy
    0 -20.079042 -12.491960 2.543768 0.499476 0.832825 -0.238591 0 0
    0 -20.079042 -2.914421 2.543769 -0.276992 0.923713 -0.264629 0 0
    0 -0.029055 -12.491959 2.543768 0.742428 0.654829 0.141422 0 0
  phy
    0 -0.029055 -12.491959 2.543768 0.742428 0.654829 0.141422 0 0
    0 -20.079042 -2.914421 2.543769 -0.276992 0.923713 -0.264629 0 0
    0 -0.029056 -2.914420 2.543769 -0.863990 0.381023 0.329155 0 0
  phy
    0 -20.079042 -12.491960 2.543768 0.499476 0.832825 -0.238591 0 0
    0 -0.029055 -12.491959 2.543768 0.742428 0.654829 0.141422 0 0
    0 -30.258666 -12.491963 11.204067 0.721110 -0.636026 -0.274722 0 0
  phy
    0 -0.029055 -12.491959 2.543768 0.742428 0.654829 0.141422 0 0
    0 -0.029055 -12.491960 11.204067 0.617265 -0.682642 0.391132 0 0
    0 -30.258666 -12.491963 11.204067 0.721110 -0.636026 -0.274722 0 0
  phy
    0 -20.079042 -2.914421 2.543769 -0.276992 0.923713 -0.264629 0 0
    0 -20.079042 -12.491960 2.543768 0.499476 0.832825 -0.238591 0 0
    0 -30.258666 -12.491963 11.204067 0.721110 -0.636026 -0.274722 0 0
  phy
    0 -0.029056 -2.914420 2.543769 -0.863990 0.381023 0.329155 0 0
    0 -0.029055 -12.491960 11.204067 0.617265 -0.682642 0.391132 0 0
    0 -0.029055 -12.491959 2.543768 0.742428 0.654829 0.141422 0 0
  phy
    0 -0.029056 -2.914420 2.543769 -0.863990 0.381023 0.329155 0 0
    0 -0.029056 -2.914420 11.204068 -0.408502 -0.903535 0.129424 0 0
    0 -0.029055 -12.491960 11.204067 0.617265 -0.682642 0.391132 0 0
  phy
    0 -30.258666 -2.914422 11.204068 -0.901387 -0.397516 -0.171701 0 0
    0 -20.079042 -2.914421 2.543769 -0.276992 0.923713 -0.264629 0 0
    0 -30.258666 -12.491963 11.204067 0.721110 -0.636026 -0.274722 0 0
  phy
    0 -20.079042 -2.914421 2.543769 -0.276992 0.923713 -0.264629 0 0
    0 -30.258666 -2.914422 11.204068 -0.901387 -0.397516 -0.171701 0 0
    0 -0.029056 -2.914420 2.543769 -0.863990 0.381023 0.329155 0 0
  phy
    0 -0.029056 -2.914420 11.204068 -0.408502 -0.903535 0.129424 0 0
    0 -30.258666 -12.491963 11.204067 0.721110 -0.636026 -0.274722 0 0
    0 -0.029055 -12.491960 11.204067 0.617265 -0.682642 0.391132 0 0
  phy
    0 -30.258666 -2.914422 11.204068 -0.901387 -0.397516 -0.171701 0 0
    0 -30.258666 -12.491963 11.204067 0.721110 -0.636026 -0.274722 0 0
    0 -0.029056 -2.914420 11.204068 -0.408502 -0.903535 0.129424 0 0
  phy
    0 -30.258666 -2.914422 11.204068 -0.901387 -0.397516 -0.171701 0 0
    0 -0.029056 -2.914420 11.204068 -0.408502 -0.903535 0.129424 0 0
    0 -0.029056 -2.914420 2.543769 -0.863990 0.381023 0.329155 0 0
end
