// Created by Crowbar 0.74
version 1
nodes
  0 "static_prop" -1
end
skeleton
  time 0
    0 0.000000 0.000000 0.000000 0.000000 0.000000 0.000000
end
triangles
  phy
    0 -1.990762 18.901587 -8.533636 0.380125 -0.686294 0.620085 0 0
    0 -1.990762 25.293379 -8.533636 -0.989995 -0.104699 0.094598 0 0
    0 -62.073957 25.293374 38.672505 -0.969413 -0.232253 0.079348 0 0
  phy
    0 -62.073957 25.293374 38.672505 -0.969413 -0.232253 0.079348 0 0
    0 -62.073957 18.901582 38.672505 0.988844 -0.105829 -0.104820 0 0
    0 -1.990762 18.901587 -8.533636 0.380125 -0.686294 0.620085 0 0
  phy
    0 -62.073957 25.293374 38.672505 -0.969413 -0.232253 0.079348 0 0
    0 -1.990762 25.293379 -8.533636 -0.989995 -0.104699 0.094598 0 0
    0 -62.073957 25.293377 -14.685620 -0.977058 0.103330 -0.186225 0 0
  phy
    0 -62.073957 25.293374 38.672505 -0.969413 -0.232253 0.079348 0 0
    0 -62.073957 25.293377 -14.685620 -0.977058 0.103330 -0.186225 0 0
    0 -62.073957 18.901582 38.672505 0.988844 -0.105829 -0.104820 0 0
  phy
    0 -1.990762 18.901587 -8.533636 0.380125 -0.686294 0.620085 0 0
    0 -2.701699 25.293379 -14.971868 -0.443876 0.891428 0.091274 0 0
    0 -1.990762 25.293379 -8.533636 -0.989995 -0.104699 0.094598 0 0
  phy
    0 -2.701699 18.901587 -14.971868 0.994263 0.106409 0.010895 0 0
    0 -2.701699 25.293379 -14.971868 -0.443876 0.891428 0.091274 0 0
    0 -1.990762 18.901587 -8.533636 0.380125 -0.686294 0.620085 0 0
  phy
    0 -1.990762 18.901587 -8.533636 0.380125 -0.686294 0.620085 0 0
    0 -62.073957 18.901582 38.672505 0.988844 -0.105829 -0.104820 0 0
    0 -2.701699 18.901587 -14.971868 0.994263 0.106409 0.010895 0 0
  phy
    0 -62.073957 25.293377 -14.685620 -0.977058 0.103330 -0.186225 0 0
    0 -1.990762 25.293379 -8.533636 -0.989995 -0.104699 0.094598 0 0
    0 -2.701699 25.293379 -14.971868 -0.443876 0.891428 0.091274 0 0
  phy
    0 -62.073957 25.293377 -14.685620 -0.977058 0.103330 -0.186225 0 0
    0 -62.073957 18.901582 -14.685620 0.967081 0.231694 -0.105229 0 0
    0 -62.073957 18.901582 38.672505 0.988844 -0.105829 -0.104820 0 0
  phy
    0 -62.073957 18.901582 -14.685620 0.967081 0.231694 -0.105229 0 0
    0 -62.073957 25.293377 -14.685620 -0.977058 0.103330 -0.186225 0 0
    0 -2.701699 25.293379 -14.971868 -0.443876 0.891428 0.091274 0 0
  phy
    0 -2.701699 18.901587 -14.971868 0.994263 0.106409 0.010895 0 0
    0 -62.073957 18.901582 38.672505 0.988844 -0.105829 -0.104820 0 0
    0 -62.073957 18.901582 -14.685620 0.967081 0.231694 -0.105229 0 0
  phy
    0 -2.701699 18.901587 -14.971868 0.994263 0.106409 0.010895 0 0
    0 -62.073957 18.901582 -14.685620 0.967081 0.231694 -0.105229 0 0
    0 -2.701699 25.293379 -14.971868 -0.443876 0.891428 0.091274 0 0
  phy
    0 -55.239041 18.901584 -27.732556 0.741348 0.500157 0.447489 0 0
    0 -62.073957 18.901584 -27.561300 0.456414 0.230402 -0.859419 0 0
    0 -62.073957 25.293377 -27.561298 -0.583032 0.588639 -0.559981 0 0
  phy
    0 -55.239041 18.901584 -27.732556 0.741348 0.500157 0.447489 0 0
    0 -62.073957 25.293377 -27.561298 -0.583032 0.588639 -0.559981 0 0
    0 -55.239041 25.293377 -27.732553 -0.911021 0.307314 0.274953 0 0
  phy
    0 -62.073957 25.293377 -27.561298 -0.583032 0.588639 -0.559981 0 0
    0 -62.073957 18.901584 -27.561300 0.456414 0.230402 -0.859419 0 0
    0 -62.073957 25.293377 -14.899486 -0.823759 -0.277878 -0.494170 0 0
  phy
    0 -62.073957 25.293377 -14.899486 -0.823759 -0.277878 -0.494170 0 0
    0 -62.073957 18.901584 -27.561300 0.456414 0.230402 -0.859419 0 0
    0 -62.073957 18.901584 -14.899486 0.803606 -0.542159 -0.245522 0 0
  phy
    0 -55.239041 18.901584 -27.732556 0.741348 0.500157 0.447489 0 0
    0 -62.073957 18.901584 -14.899486 0.803606 -0.542159 -0.245522 0 0
    0 -62.073957 18.901584 -27.561300 0.456414 0.230402 -0.859419 0 0
  phy
    0 -55.239041 18.901584 -27.732556 0.741348 0.500157 0.447489 0 0
    0 -47.745362 18.901584 -14.741547 0.893546 -0.211055 0.396272 0 0
    0 -62.073957 18.901584 -14.899486 0.803606 -0.542159 -0.245522 0 0
  phy
    0 -55.239041 25.293377 -27.732553 -0.911021 0.307314 0.274953 0 0
    0 -62.073957 25.293377 -27.561298 -0.583032 0.588639 -0.559981 0 0
    0 -62.073957 25.293377 -14.899486 -0.823759 -0.277878 -0.494170 0 0
  phy
    0 -55.239041 25.293377 -27.732553 -0.911021 0.307314 0.274953 0 0
    0 -62.073957 25.293377 -14.899486 -0.823759 -0.277878 -0.494170 0 0
    0 -47.745362 25.293377 -14.741547 -0.705368 -0.333216 0.625638 0 0
  phy
    0 -62.073957 18.901584 -14.899486 0.803606 -0.542159 -0.245522 0 0
    0 -47.745362 25.293377 -14.741547 -0.705368 -0.333216 0.625638 0 0
    0 -62.073957 25.293377 -14.899486 -0.823759 -0.277878 -0.494170 0 0
  phy
    0 -62.073957 18.901584 -14.899486 0.803606 -0.542159 -0.245522 0 0
    0 -47.745362 18.901584 -14.741547 0.893546 -0.211055 0.396272 0 0
    0 -47.745362 25.293377 -14.741547 -0.705368 -0.333216 0.625638 0 0
  phy
    0 -55.239041 25.293377 -27.732553 -0.911021 0.307314 0.274953 0 0
    0 -47.745362 25.293377 -14.741547 -0.705368 -0.333216 0.625638 0 0
    0 -55.239041 18.901584 -27.732556 0.741348 0.500157 0.447489 0 0
  phy
    0 -55.239041 18.901584 -27.732556 0.741348 0.500157 0.447489 0 0
    0 -47.745362 25.293377 -14.741547 -0.705368 -0.333216 0.625638 0 0
    0 -47.745362 18.901584 -14.741547 0.893546 -0.211055 0.396272 0 0
  phy
    0 -62.073953 -161.775848 -27.561307 0.456413 0.230402 -0.859420 0 0
    0 -62.073953 -155.384043 -27.561307 -0.583031 0.588639 -0.559981 0 0
    0 -55.239032 -161.775848 -27.732563 0.864865 0.430910 0.257536 0 0
  phy
    0 -55.239032 -161.775848 -27.732563 0.864865 0.430910 0.257536 0 0
    0 -62.073953 -155.384043 -27.561307 -0.583031 0.588639 -0.559981 0 0
    0 -55.239032 -155.384043 -27.732563 -0.782499 0.402008 0.475483 0 0
  phy
    0 -55.239032 -155.384043 -27.732563 -0.782499 0.402008 0.475483 0 0
    0 -47.745353 -161.775848 -14.741555 0.705368 -0.333216 0.625638 0 0
    0 -55.239032 -161.775848 -27.732563 0.864865 0.430910 0.257536 0 0
  phy
    0 -55.239032 -155.384043 -27.732563 -0.782499 0.402008 0.475483 0 0
    0 -47.745353 -155.384043 -14.741555 -0.893545 -0.211056 0.396273 0 0
    0 -47.745353 -161.775848 -14.741555 0.705368 -0.333216 0.625638 0 0
  phy
    0 -55.239032 -155.384043 -27.732563 -0.782499 0.402008 0.475483 0 0
    0 -62.073953 -155.384043 -27.561307 -0.583031 0.588639 -0.559981 0 0
    0 -62.073953 -155.384043 -14.899493 -0.741348 -0.500157 -0.447489 0 0
  phy
    0 -55.239032 -155.384043 -27.732563 -0.782499 0.402008 0.475483 0 0
    0 -62.073953 -155.384043 -14.899493 -0.741348 -0.500157 -0.447489 0 0
    0 -47.745353 -155.384043 -14.741555 -0.893545 -0.211056 0.396273 0 0
  phy
    0 -47.745353 -155.384043 -14.741555 -0.893545 -0.211056 0.396273 0 0
    0 -62.073953 -155.384043 -14.899493 -0.741348 -0.500157 -0.447489 0 0
    0 -47.745353 -161.775848 -14.741555 0.705368 -0.333216 0.625638 0 0
  phy
    0 -62.073953 -155.384043 -14.899493 -0.741348 -0.500157 -0.447489 0 0
    0 -62.073953 -161.775848 -14.899493 0.911021 -0.307314 -0.274953 0 0
    0 -47.745353 -161.775848 -14.741555 0.705368 -0.333216 0.625638 0 0
  phy
    0 -62.073953 -155.384043 -14.899493 -0.741348 -0.500157 -0.447489 0 0
    0 -62.073953 -161.775848 -27.561307 0.456413 0.230402 -0.859420 0 0
    0 -62.073953 -161.775848 -14.899493 0.911021 -0.307314 -0.274953 0 0
  phy
    0 -62.073953 -161.775848 -27.561307 0.456413 0.230402 -0.859420 0 0
    0 -62.073953 -155.384043 -14.899493 -0.741348 -0.500157 -0.447489 0 0
    0 -62.073953 -155.384043 -27.561307 -0.583031 0.588639 -0.559981 0 0
  phy
    0 -55.239032 -161.775848 -27.732563 0.864865 0.430910 0.257536 0 0
    0 -62.073953 -161.775848 -14.899493 0.911021 -0.307314 -0.274953 0 0
    0 -62.073953 -161.775848 -27.561307 0.456413 0.230402 -0.859420 0 0
  phy
    0 -47.745353 -161.775848 -14.741555 0.705368 -0.333216 0.625638 0 0
    0 -62.073953 -161.775848 -14.899493 0.911021 -0.307314 -0.274953 0 0
    0 -55.239032 -161.775848 -27.732563 0.864865 0.430910 0.257536 0 0
  phy
    0 -62.073953 -155.384043 -14.685628 -0.989995 0.104699 -0.094598 0 0
    0 -2.701691 -155.384043 -14.971874 -0.447427 0.893244 0.043862 0 0
    0 -62.073953 -161.775848 -14.685628 0.961689 0.203410 -0.183787 0 0
  phy
    0 -62.073953 -161.775848 -14.685628 0.961689 0.203410 -0.183787 0 0
    0 -2.701691 -155.384043 -14.971874 -0.447427 0.893244 0.043862 0 0
    0 -2.701691 -161.775848 -14.971874 0.693946 0.705066 0.146016 0 0
  phy
    0 -2.701691 -155.384043 -14.971874 -0.447427 0.893244 0.043862 0 0
    0 -62.073953 -155.384043 -14.685628 -0.989995 0.104699 -0.094598 0 0
    0 -1.990758 -155.384043 -8.533643 -0.961689 -0.203410 0.183787 0 0
  phy
    0 -1.990758 -155.384043 -8.533643 -0.961689 -0.203410 0.183787 0 0
    0 -62.073953 -155.384043 -14.685628 -0.989995 0.104699 -0.094598 0 0
    0 -62.073953 -155.384043 38.672496 -0.986082 -0.118123 -0.116997 0 0
  phy
    0 -62.073953 -155.384043 -14.685628 -0.989995 0.104699 -0.094598 0 0
    0 -62.073953 -161.775848 -14.685628 0.961689 0.203410 -0.183787 0 0
    0 -62.073953 -155.384043 38.672496 -0.986082 -0.118123 -0.116997 0 0
  phy
    0 -62.073953 -155.384043 38.672496 -0.986082 -0.118123 -0.116997 0 0
    0 -62.073953 -161.775848 -14.685628 0.961689 0.203410 -0.183787 0 0
    0 -62.073953 -161.775848 38.672496 0.969413 -0.232253 0.079348 0 0
  phy
    0 -2.701691 -161.775848 -14.971874 0.693946 0.705066 0.146016 0 0
    0 -1.990758 -161.775848 -8.533643 0.989995 -0.104699 0.094598 0 0
    0 -62.073953 -161.775848 -14.685628 0.961689 0.203410 -0.183787 0 0
  phy
    0 -1.990758 -161.775848 -8.533643 0.989995 -0.104699 0.094598 0 0
    0 -62.073953 -161.775848 38.672496 0.969413 -0.232253 0.079348 0 0
    0 -62.073953 -161.775848 -14.685628 0.961689 0.203410 -0.183787 0 0
  phy
    0 -2.701691 -155.384043 -14.971874 -0.447427 0.893244 0.043862 0 0
    0 -1.990758 -155.384043 -8.533643 -0.961689 -0.203410 0.183787 0 0
    0 -2.701691 -161.775848 -14.971874 0.693946 0.705066 0.146016 0 0
  phy
    0 -2.701691 -161.775848 -14.971874 0.693946 0.705066 0.146016 0 0
    0 -1.990758 -155.384043 -8.533643 -0.961689 -0.203410 0.183787 0 0
    0 -1.990758 -161.775848 -8.533643 0.989995 -0.104699 0.094598 0 0
  phy
    0 -62.073953 -155.384043 38.672496 -0.986082 -0.118123 -0.116997 0 0
    0 -62.073953 -161.775848 38.672496 0.969413 -0.232253 0.079348 0 0
    0 -1.990758 -155.384043 -8.533643 -0.961689 -0.203410 0.183787 0 0
  phy
    0 -62.073953 -161.775848 38.672496 0.969413 -0.232253 0.079348 0 0
    0 -1.990758 -161.775848 -8.533643 0.989995 -0.104699 0.094598 0 0
    0 -1.990758 -155.384043 -8.533643 -0.961689 -0.203410 0.183787 0 0
  phy
    0 -55.239022 -338.288067 -27.732570 -0.384833 0.595916 0.704832 0 0
    0 -47.745343 -344.679825 -14.741564 0.825159 -0.265552 0.498593 0 0
    0 -55.239022 -344.679825 -27.732570 0.496240 0.745233 0.445392 0 0
  phy
    0 -55.239022 -338.288067 -27.732570 -0.384833 0.595916 0.704832 0 0
    0 -47.745343 -338.288067 -14.741564 -0.946108 -0.152238 0.285837 0 0
    0 -47.745343 -344.679825 -14.741564 0.825159 -0.265552 0.498593 0 0
  phy
    0 -55.239022 -338.288067 -27.732570 -0.384833 0.595916 0.704832 0 0
    0 -55.239022 -344.679825 -27.732570 0.496240 0.745233 0.445392 0 0
    0 -62.073943 -338.288067 -27.561314 -0.825159 0.265552 -0.498593 0 0
  phy
    0 -62.073943 -338.288067 -27.561314 -0.825159 0.265552 -0.498593 0 0
    0 -55.239022 -344.679825 -27.732570 0.496240 0.745233 0.445392 0 0
    0 -62.073943 -344.679825 -27.561314 0.946108 0.152238 -0.285837 0 0
  phy
    0 -47.745343 -338.288067 -14.741564 -0.946108 -0.152238 0.285837 0 0
    0 -55.239022 -338.288067 -27.732570 -0.384833 0.595916 0.704832 0 0
    0 -62.073943 -338.288067 -27.561314 -0.825159 0.265552 -0.498593 0 0
  phy
    0 -47.745343 -338.288067 -14.741564 -0.946108 -0.152238 0.285837 0 0
    0 -62.073943 -338.288067 -27.561314 -0.825159 0.265552 -0.498593 0 0
    0 -62.073943 -338.288067 -14.899502 -0.669896 -0.676335 -0.306285 0 0
  phy
    0 -62.073943 -338.288067 -14.899502 -0.669896 -0.676335 -0.306285 0 0
    0 -47.745343 -344.679825 -14.741564 0.825159 -0.265552 0.498593 0 0
    0 -47.745343 -338.288067 -14.741564 -0.946108 -0.152238 0.285837 0 0
  phy
    0 -62.073943 -338.288067 -14.899502 -0.669896 -0.676335 -0.306285 0 0
    0 -62.073943 -344.679825 -14.899502 0.696606 -0.351651 -0.625365 0 0
    0 -47.745343 -344.679825 -14.741564 0.825159 -0.265552 0.498593 0 0
  phy
    0 -47.745343 -344.679825 -14.741564 0.825159 -0.265552 0.498593 0 0
    0 -62.073943 -344.679825 -27.561314 0.946108 0.152238 -0.285837 0 0
    0 -55.239022 -344.679825 -27.732570 0.496240 0.745233 0.445392 0 0
  phy
    0 -47.745343 -344.679825 -14.741564 0.825159 -0.265552 0.498593 0 0
    0 -62.073943 -344.679825 -14.899502 0.696606 -0.351651 -0.625365 0 0
    0 -62.073943 -344.679825 -27.561314 0.946108 0.152238 -0.285837 0 0
  phy
    0 -62.073943 -338.288067 -14.899502 -0.669896 -0.676335 -0.306285 0 0
    0 -62.073943 -338.288067 -27.561314 -0.825159 0.265552 -0.498593 0 0
    0 -62.073943 -344.679825 -14.899502 0.696606 -0.351651 -0.625365 0 0
  phy
    0 -62.073943 -344.679825 -14.899502 0.696606 -0.351651 -0.625365 0 0
    0 -62.073943 -338.288067 -27.561314 -0.825159 0.265552 -0.498593 0 0
    0 -62.073943 -344.679825 -27.561314 0.946108 0.152238 -0.285837 0 0
  phy
    0 -62.073943 -338.288067 -14.685636 -0.974062 0.206026 -0.093572 0 0
    0 -62.073943 -338.288067 38.672489 -0.972203 -0.232920 -0.023849 0 0
    0 -1.990750 -338.288067 -8.533652 -0.989995 -0.104698 0.094597 0 0
  phy
    0 -62.073943 -338.288067 -14.685636 -0.974062 0.206026 -0.093572 0 0
    0 -1.990750 -338.288067 -8.533652 -0.989995 -0.104698 0.094597 0 0
    0 -2.701683 -338.288067 -14.971883 -0.693949 0.705063 0.146016 0 0
  phy
    0 -62.073943 -338.288067 38.672489 -0.972203 -0.232920 -0.023849 0 0
    0 -62.073943 -338.288067 -14.685636 -0.974062 0.206026 -0.093572 0 0
    0 -62.073943 -344.679825 -14.685636 0.977059 0.103330 -0.186224 0 0
  phy
    0 -62.073943 -338.288067 38.672489 -0.972203 -0.232920 -0.023849 0 0
    0 -62.073943 -344.679825 -14.685636 0.977059 0.103330 -0.186224 0 0
    0 -62.073943 -344.679825 38.672489 0.992828 -0.118931 -0.012177 0 0
  phy
    0 -2.701683 -344.679825 -14.971883 0.447429 0.893243 0.043862 0 0
    0 -62.073943 -338.288067 -14.685636 -0.974062 0.206026 -0.093572 0 0
    0 -2.701683 -338.288067 -14.971883 -0.693949 0.705063 0.146016 0 0
  phy
    0 -62.073943 -338.288067 -14.685636 -0.974062 0.206026 -0.093572 0 0
    0 -2.701683 -344.679825 -14.971883 0.447429 0.893243 0.043862 0 0
    0 -62.073943 -344.679825 -14.685636 0.977059 0.103330 -0.186224 0 0
  phy
    0 -1.990750 -338.288067 -8.533652 -0.989995 -0.104698 0.094597 0 0
    0 -1.990750 -344.679825 -8.533652 0.961690 -0.203409 0.183785 0 0
    0 -2.701683 -338.288067 -14.971883 -0.693949 0.705063 0.146016 0 0
  phy
    0 -1.990750 -344.679825 -8.533652 0.961690 -0.203409 0.183785 0 0
    0 -2.701683 -344.679825 -14.971883 0.447429 0.893243 0.043862 0 0
    0 -2.701683 -338.288067 -14.971883 -0.693949 0.705063 0.146016 0 0
  phy
    0 -1.990750 -344.679825 -8.533652 0.961690 -0.203409 0.183785 0 0
    0 -62.073943 -344.679825 -14.685636 0.977059 0.103330 -0.186224 0 0
    0 -2.701683 -344.679825 -14.971883 0.447429 0.893243 0.043862 0 0
  phy
    0 -1.990750 -344.679825 -8.533652 0.961690 -0.203409 0.183785 0 0
    0 -62.073943 -344.679825 38.672489 0.992828 -0.118931 -0.012177 0 0
    0 -62.073943 -344.679825 -14.685636 0.977059 0.103330 -0.186224 0 0
  phy
    0 -62.073943 -344.679825 38.672489 0.992828 -0.118931 -0.012177 0 0
    0 -1.990750 -344.679825 -8.533652 0.961690 -0.203409 0.183785 0 0
    0 -62.073943 -338.288067 38.672489 -0.972203 -0.232920 -0.023849 0 0
  phy
    0 -1.990750 -344.679825 -8.533652 0.961690 -0.203409 0.183785 0 0
    0 -1.990750 -338.288067 -8.533652 -0.989995 -0.104698 0.094597 0 0
    0 -62.073943 -338.288067 38.672489 -0.972203 -0.232920 -0.023849 0 0
  phy
    0 -55.239046 203.336111 -27.732546 0.591174 0.601082 0.537786 0 0
    0 -55.239046 209.727907 -27.732546 -0.741348 0.500157 0.447489 0 0
    0 -47.745367 203.336111 -14.741539 0.825158 -0.265553 0.498595 0 0
  phy
    0 -47.745367 203.336111 -14.741539 0.825158 -0.265553 0.498595 0 0
    0 -62.073967 203.336111 -27.561291 0.913901 0.294112 -0.279793 0 0
    0 -55.239046 203.336111 -27.732546 0.591174 0.601082 0.537786 0 0
  phy
    0 -55.239046 209.727907 -27.732546 -0.741348 0.500157 0.447489 0 0
    0 -55.239046 203.336111 -27.732546 0.591174 0.601082 0.537786 0 0
    0 -62.073967 203.336111 -27.561291 0.913901 0.294112 -0.279793 0 0
  phy
    0 -47.745367 203.336111 -14.741539 0.825158 -0.265553 0.498595 0 0
    0 -62.073967 209.727907 -14.899476 -0.803606 -0.542159 -0.245522 0 0
    0 -62.073967 203.336111 -14.899477 0.696604 -0.351652 -0.625367 0 0
  phy
    0 -47.745367 203.336111 -14.741539 0.825158 -0.265553 0.498595 0 0
    0 -47.745367 209.727907 -14.741538 -0.893546 -0.211055 0.396272 0 0
    0 -62.073967 209.727907 -14.899476 -0.803606 -0.542159 -0.245522 0 0
  phy
    0 -62.073967 203.336111 -14.899477 0.696604 -0.351652 -0.625367 0 0
    0 -62.073967 209.727907 -27.561291 -0.456414 0.230402 -0.859419 0 0
    0 -62.073967 203.336111 -27.561291 0.913901 0.294112 -0.279793 0 0
  phy
    0 -62.073967 209.727907 -27.561291 -0.456414 0.230402 -0.859419 0 0
    0 -62.073967 203.336111 -14.899477 0.696604 -0.351652 -0.625367 0 0
    0 -62.073967 209.727907 -14.899476 -0.803606 -0.542159 -0.245522 0 0
  phy
    0 -62.073967 203.336111 -14.899477 0.696604 -0.351652 -0.625367 0 0
    0 -62.073967 203.336111 -27.561291 0.913901 0.294112 -0.279793 0 0
    0 -47.745367 203.336111 -14.741539 0.825158 -0.265553 0.498595 0 0
  phy
    0 -62.073967 209.727907 -14.899476 -0.803606 -0.542159 -0.245522 0 0
    0 -47.745367 209.727907 -14.741538 -0.893546 -0.211055 0.396272 0 0
    0 -55.239046 209.727907 -27.732546 -0.741348 0.500157 0.447489 0 0
  phy
    0 -62.073967 209.727907 -14.899476 -0.803606 -0.542159 -0.245522 0 0
    0 -55.239046 209.727907 -27.732546 -0.741348 0.500157 0.447489 0 0
    0 -62.073967 209.727907 -27.561291 -0.456414 0.230402 -0.859419 0 0
  phy
    0 -62.073967 209.727907 -27.561291 -0.456414 0.230402 -0.859419 0 0
    0 -55.239046 209.727907 -27.732546 -0.741348 0.500157 0.447489 0 0
    0 -62.073967 203.336111 -27.561291 0.913901 0.294112 -0.279793 0 0
  phy
    0 -47.745367 203.336111 -14.741539 0.825158 -0.265553 0.498595 0 0
    0 -55.239046 209.727907 -27.732546 -0.741348 0.500157 0.447489 0 0
    0 -47.745367 209.727907 -14.741538 -0.893546 -0.211055 0.396272 0 0
  phy
    0 -1.990774 209.727907 -8.533627 -0.963346 -0.204980 0.173055 0 0
    0 -62.073967 203.336111 38.672512 0.972203 -0.232921 -0.023849 0 0
    0 -1.990774 203.336111 -8.533628 0.988998 -0.103341 0.105845 0 0
  phy
    0 -1.990774 209.727907 -8.533627 -0.963346 -0.204980 0.173055 0 0
    0 -62.073967 209.727907 38.672512 -0.992828 -0.118931 -0.012178 0 0
    0 -62.073967 203.336111 38.672512 0.972203 -0.232921 -0.023849 0 0
  phy
    0 -2.701707 203.336111 -14.971858 0.703794 0.706709 0.072361 0 0
    0 -2.701707 209.727907 -14.971858 -0.443876 0.891428 0.091274 0 0
    0 -1.990774 203.336111 -8.533628 0.988998 -0.103341 0.105845 0 0
  phy
    0 -2.701707 209.727907 -14.971858 -0.443876 0.891428 0.091274 0 0
    0 -1.990774 209.727907 -8.533627 -0.963346 -0.204980 0.173055 0 0
    0 -1.990774 203.336111 -8.533628 0.988998 -0.103341 0.105845 0 0
  phy
    0 -1.990774 203.336111 -8.533628 0.988998 -0.103341 0.105845 0 0
    0 -62.073967 203.336111 -14.685613 0.974062 0.206027 -0.093572 0 0
    0 -2.701707 203.336111 -14.971858 0.703794 0.706709 0.072361 0 0
  phy
    0 -1.990774 203.336111 -8.533628 0.988998 -0.103341 0.105845 0 0
    0 -62.073967 203.336111 38.672512 0.972203 -0.232921 -0.023849 0 0
    0 -62.073967 203.336111 -14.685613 0.974062 0.206027 -0.093572 0 0
  phy
    0 -2.701707 203.336111 -14.971858 0.703794 0.706709 0.072361 0 0
    0 -62.073967 203.336111 -14.685613 0.974062 0.206027 -0.093572 0 0
    0 -2.701707 209.727907 -14.971858 -0.443876 0.891428 0.091274 0 0
  phy
    0 -2.701707 209.727907 -14.971858 -0.443876 0.891428 0.091274 0 0
    0 -62.073967 203.336111 -14.685613 0.974062 0.206027 -0.093572 0 0
    0 -62.073967 209.727907 -14.685613 -0.977058 0.103330 -0.186225 0 0
  phy
    0 -62.073967 203.336111 -14.685613 0.974062 0.206027 -0.093572 0 0
    0 -62.073967 203.336111 38.672512 0.972203 -0.232921 -0.023849 0 0
    0 -62.073967 209.727907 -14.685613 -0.977058 0.103330 -0.186225 0 0
  phy
    0 -62.073967 209.727907 -14.685613 -0.977058 0.103330 -0.186225 0 0
    0 -62.073967 203.336111 38.672512 0.972203 -0.232921 -0.023849 0 0
    0 -62.073967 209.727907 38.672512 -0.992828 -0.118931 -0.012178 0 0
  phy
    0 -2.701707 209.727907 -14.971858 -0.443876 0.891428 0.091274 0 0
    0 -62.073967 209.727907 -14.685613 -0.977058 0.103330 -0.186225 0 0
    0 -1.990774 209.727907 -8.533627 -0.963346 -0.204980 0.173055 0 0
  phy
    0 -1.990774 209.727907 -8.533627 -0.963346 -0.204980 0.173055 0 0
    0 -62.073967 209.727907 -14.685613 -0.977058 0.103330 -0.186225 0 0
    0 -62.073967 209.727907 38.672512 -0.992828 -0.118931 -0.012178 0 0
  phy
    0 -62.073976 394.626978 -27.561282 -0.456413 0.230402 -0.859420 0 0
    0 -55.239060 394.626978 -27.732537 -0.741348 0.500157 0.447489 0 0
    0 -62.073976 388.235182 -27.561282 0.583031 0.588639 -0.559981 0 0
  phy
    0 -62.073976 388.235182 -27.561282 0.583031 0.588639 -0.559981 0 0
    0 -55.239060 394.626978 -27.732537 -0.741348 0.500157 0.447489 0 0
    0 -55.239055 388.235182 -27.732537 0.911021 0.307314 0.274953 0 0
  phy
    0 -62.073976 394.626978 -27.561282 -0.456413 0.230402 -0.859420 0 0
    0 -62.073976 388.235182 -27.561282 0.583031 0.588639 -0.559981 0 0
    0 -62.073976 388.235182 -14.899469 0.741348 -0.500157 -0.447489 0 0
  phy
    0 -62.073976 394.626978 -27.561282 -0.456413 0.230402 -0.859420 0 0
    0 -62.073976 388.235182 -14.899469 0.741348 -0.500157 -0.447489 0 0
    0 -62.073976 394.626978 -14.899469 -0.911021 -0.307314 -0.274953 0 0
  phy
    0 -62.073976 394.626978 -27.561282 -0.456413 0.230402 -0.859420 0 0
    0 -62.073976 394.626978 -14.899469 -0.911021 -0.307314 -0.274953 0 0
    0 -55.239060 394.626978 -27.732537 -0.741348 0.500157 0.447489 0 0
  phy
    0 -55.239055 388.235182 -27.732537 0.911021 0.307314 0.274953 0 0
    0 -62.073976 388.235182 -14.899469 0.741348 -0.500157 -0.447489 0 0
    0 -62.073976 388.235182 -27.561282 0.583031 0.588639 -0.559981 0 0
  phy
    0 -55.239055 388.235182 -27.732537 0.911021 0.307314 0.274953 0 0
    0 -47.745376 388.235182 -14.741531 0.745990 0.016983 0.665740 0 0
    0 -62.073976 388.235182 -14.899469 0.741348 -0.500157 -0.447489 0 0
  phy
    0 -62.073976 394.626978 -14.899469 -0.911021 -0.307314 -0.274953 0 0
    0 -62.073976 388.235182 -14.899469 0.741348 -0.500157 -0.447489 0 0
    0 -47.745381 394.626978 -14.741531 -0.760999 -0.556568 0.333336 0 0
  phy
    0 -62.073976 388.235182 -14.899469 0.741348 -0.500157 -0.447489 0 0
    0 -47.745376 388.235182 -14.741531 0.745990 0.016983 0.665740 0 0
    0 -47.745381 394.626978 -14.741531 -0.760999 -0.556568 0.333336 0 0
  phy
    0 -62.073976 394.626978 -14.899469 -0.911021 -0.307314 -0.274953 0 0
    0 -47.745381 394.626978 -14.741531 -0.760999 -0.556568 0.333336 0 0
    0 -55.239060 394.626978 -27.732537 -0.741348 0.500157 0.447489 0 0
  phy
    0 -55.239055 388.235182 -27.732537 0.911021 0.307314 0.274953 0 0
    0 -55.239060 394.626978 -27.732537 -0.741348 0.500157 0.447489 0 0
    0 -47.745376 388.235182 -14.741531 0.745990 0.016983 0.665740 0 0
  phy
    0 -47.745376 388.235182 -14.741531 0.745990 0.016983 0.665740 0 0
    0 -55.239060 394.626978 -27.732537 -0.741348 0.500157 0.447489 0 0
    0 -47.745381 394.626978 -14.741531 -0.760999 -0.556568 0.333336 0 0
  phy
    0 -1.990782 394.626978 -8.533615 -0.989995 -0.104699 0.094598 0 0
    0 -1.990782 388.235182 -8.533620 0.961690 -0.203410 0.183786 0 0
    0 -2.701715 394.626978 -14.971850 -0.443876 0.891428 0.091274 0 0
  phy
    0 -1.990782 388.235182 -8.533620 0.961690 -0.203410 0.183786 0 0
    0 -2.701715 388.235182 -14.971850 0.703794 0.706709 0.072361 0 0
    0 -2.701715 394.626978 -14.971850 -0.443876 0.891428 0.091274 0 0
  phy
    0 -1.990782 388.235182 -8.533620 0.961690 -0.203410 0.183786 0 0
    0 -62.073976 394.626978 38.672524 -0.969413 -0.232253 0.079348 0 0
    0 -62.073976 388.235182 38.672519 0.986082 -0.118123 -0.116997 0 0
  phy
    0 -1.990782 388.235182 -8.533620 0.961690 -0.203410 0.183786 0 0
    0 -1.990782 394.626978 -8.533615 -0.989995 -0.104699 0.094598 0 0
    0 -62.073976 394.626978 38.672524 -0.969413 -0.232253 0.079348 0 0
  phy
    0 -1.990782 388.235182 -8.533620 0.961690 -0.203410 0.183786 0 0
    0 -62.073976 388.235182 -14.685604 0.974062 0.206027 -0.093572 0 0
    0 -2.701715 388.235182 -14.971850 0.703794 0.706709 0.072361 0 0
  phy
    0 -1.990782 388.235182 -8.533620 0.961690 -0.203410 0.183786 0 0
    0 -62.073976 388.235182 38.672519 0.986082 -0.118123 -0.116997 0 0
    0 -62.073976 388.235182 -14.685604 0.974062 0.206027 -0.093572 0 0
  phy
    0 -2.701715 388.235182 -14.971850 0.703794 0.706709 0.072361 0 0
    0 -62.073976 388.235182 -14.685604 0.974062 0.206027 -0.093572 0 0
    0 -2.701715 394.626978 -14.971850 -0.443876 0.891428 0.091274 0 0
  phy
    0 -2.701715 394.626978 -14.971850 -0.443876 0.891428 0.091274 0 0
    0 -62.073976 388.235182 -14.685604 0.974062 0.206027 -0.093572 0 0
    0 -62.073976 394.626978 -14.685604 -0.977058 0.103330 -0.186225 0 0
  phy
    0 -62.073976 388.235182 -14.685604 0.974062 0.206027 -0.093572 0 0
    0 -62.073976 388.235182 38.672519 0.986082 -0.118123 -0.116997 0 0
    0 -62.073976 394.626978 -14.685604 -0.977058 0.103330 -0.186225 0 0
  phy
    0 -62.073976 394.626978 -14.685604 -0.977058 0.103330 -0.186225 0 0
    0 -62.073976 388.235182 38.672519 0.986082 -0.118123 -0.116997 0 0
    0 -62.073976 394.626978 38.672524 -0.969413 -0.232253 0.079348 0 0
  phy
    0 -2.701715 394.626978 -14.971850 -0.443876 0.891428 0.091274 0 0
    0 -62.073976 394.626978 -14.685604 -0.977058 0.103330 -0.186225 0 0
    0 -1.990782 394.626978 -8.533615 -0.989995 -0.104699 0.094598 0 0
  phy
    0 -1.990782 394.626978 -8.533615 -0.989995 -0.104699 0.094598 0 0
    0 -62.073976 394.626978 -14.685604 -0.977058 0.103330 -0.186225 0 0
    0 -62.073976 394.626978 38.672524 -0.969413 -0.232253 0.079348 0 0
  phy
    0 -0.663601 -347.007241 -7.002363 0.005099 -0.765627 0.643265 0 0
    0 -0.663636 396.568231 -7.002333 -0.002549 -0.765634 0.643271 0 0
    0 -61.665586 -347.007241 41.837228 0.001330 -0.788477 0.615063 0 0
  phy
    0 -0.663636 396.568231 -7.002333 -0.002549 -0.765634 0.643271 0 0
    0 -61.665623 396.568231 41.837260 -0.002704 -0.811759 0.583986 0 0
    0 -61.665586 -347.007241 41.837228 0.001330 -0.788477 0.615063 0 0
  phy
    0 -61.665586 -347.007241 41.837228 0.001330 -0.788477 0.615063 0 0
    0 -62.176031 -347.007241 39.727322 0.002549 0.765634 -0.643271 0 0
    0 -0.663601 -347.007241 -7.002363 0.005099 -0.765627 0.643265 0 0
  phy
    0 -62.176031 -347.007241 39.727322 0.002549 0.765634 -0.643271 0 0
    0 -2.191240 -347.007241 -8.131981 0.002435 0.810243 -0.586089 0 0
    0 -0.663601 -347.007241 -7.002363 0.005099 -0.765627 0.643265 0 0
  phy
    0 -62.176031 -347.007241 39.727322 0.002549 0.765634 -0.643271 0 0
    0 -61.665586 -347.007241 41.837228 0.001330 -0.788477 0.615063 0 0
    0 -61.665623 396.568231 41.837260 -0.002704 -0.811759 0.583986 0 0
  phy
    0 -0.663601 -347.007241 -7.002363 0.005099 -0.765627 0.643265 0 0
    0 -2.191240 -347.007241 -8.131981 0.002435 0.810243 -0.586089 0 0
    0 -0.663636 396.568231 -7.002333 -0.002549 -0.765634 0.643271 0 0
  phy
    0 -0.663636 396.568231 -7.002333 -0.002549 -0.765634 0.643271 0 0
    0 -2.191240 -347.007241 -8.131981 0.002435 0.810243 -0.586089 0 0
    0 -2.191274 396.568231 -8.131950 -0.001230 0.789065 -0.614309 0 0
  phy
    0 -0.663636 396.568231 -7.002333 -0.002549 -0.765634 0.643271 0 0
    0 -2.191274 396.568231 -8.131950 -0.001230 0.789065 -0.614309 0 0
    0 -62.176069 396.568231 39.727355 -0.005099 0.765627 -0.643265 0 0
  phy
    0 -0.663636 396.568231 -7.002333 -0.002549 -0.765634 0.643271 0 0
    0 -62.176069 396.568231 39.727355 -0.005099 0.765627 -0.643265 0 0
    0 -61.665623 396.568231 41.837260 -0.002704 -0.811759 0.583986 0 0
  phy
    0 -62.176031 -347.007241 39.727322 0.002549 0.765634 -0.643271 0 0
    0 -62.176069 396.568231 39.727355 -0.005099 0.765627 -0.643265 0 0
    0 -2.191274 396.568231 -8.131950 -0.001230 0.789065 -0.614309 0 0
  phy
    0 -2.191240 -347.007241 -8.131981 0.002435 0.810243 -0.586089 0 0
    0 -62.176031 -347.007241 39.727322 0.002549 0.765634 -0.643271 0 0
    0 -2.191274 396.568231 -8.131950 -0.001230 0.789065 -0.614309 0 0
  phy
    0 -62.176069 396.568231 39.727355 -0.005099 0.765627 -0.643265 0 0
    0 -62.176031 -347.007241 39.727322 0.002549 0.765634 -0.643271 0 0
    0 -61.665623 396.568231 41.837260 -0.002704 -0.811759 0.583986 0 0
  phy
    0 -77.232047 371.795039 46.138787 -0.001347 0.873493 -0.486834 0 0
    0 -77.285095 371.795039 48.308898 -0.005891 -0.963454 0.267809 0 0
    0 -62.097710 371.795039 39.844344 -0.005891 0.963454 -0.267809 0 0
  phy
    0 -77.285095 371.795039 48.308898 -0.005891 -0.963454 0.267809 0 0
    0 -61.575292 371.795039 41.786714 -0.001406 -0.873493 0.486834 0 0
    0 -62.097710 371.795039 39.844344 -0.005891 0.963454 -0.267809 0 0
  phy
    0 -77.285095 371.795039 48.308898 -0.005891 -0.963454 0.267809 0 0
    0 -77.232047 371.795039 46.138787 -0.001347 0.873493 -0.486834 0 0
    0 -77.285072 -322.083376 48.308879 0.001496 -0.963470 0.267813 0 0
  phy
    0 -77.285095 371.795039 48.308898 -0.005891 -0.963454 0.267809 0 0
    0 -77.285072 -322.083376 48.308879 0.001496 -0.963470 0.267813 0 0
    0 -61.575292 371.795039 41.786714 -0.001406 -0.873493 0.486834 0 0
  phy
    0 -62.097663 -322.083376 39.844306 0.001449 0.963470 -0.267813 0 0
    0 -77.232047 371.795039 46.138787 -0.001347 0.873493 -0.486834 0 0
    0 -62.097710 371.795039 39.844344 -0.005891 0.963454 -0.267809 0 0
  phy
    0 -77.232024 -322.083376 46.138759 0.005506 0.873481 -0.486827 0 0
    0 -77.232047 371.795039 46.138787 -0.001347 0.873493 -0.486834 0 0
    0 -62.097663 -322.083376 39.844306 0.001449 0.963470 -0.267813 0 0
  phy
    0 -77.232047 371.795039 46.138787 -0.001347 0.873493 -0.486834 0 0
    0 -77.232024 -322.083376 46.138759 0.005506 0.873481 -0.486827 0 0
    0 -77.285072 -322.083376 48.308879 0.001496 -0.963470 0.267813 0 0
  phy
    0 -62.097663 -322.083376 39.844306 0.001449 0.963470 -0.267813 0 0
    0 -61.575240 -322.083376 41.786686 0.005506 -0.873481 0.486827 0 0
    0 -77.232024 -322.083376 46.138759 0.005506 0.873481 -0.486827 0 0
  phy
    0 -61.575240 -322.083376 41.786686 0.005506 -0.873481 0.486827 0 0
    0 -77.285072 -322.083376 48.308879 0.001496 -0.963470 0.267813 0 0
    0 -77.232024 -322.083376 46.138759 0.005506 0.873481 -0.486827 0 0
  phy
    0 -61.575240 -322.083376 41.786686 0.005506 -0.873481 0.486827 0 0
    0 -62.097663 -322.083376 39.844306 0.001449 0.963470 -0.267813 0 0
    0 -61.575292 371.795039 41.786714 -0.001406 -0.873493 0.486834 0 0
  phy
    0 -62.097663 -322.083376 39.844306 0.001449 0.963470 -0.267813 0 0
    0 -62.097710 371.795039 39.844344 -0.005891 0.963454 -0.267809 0 0
    0 -61.575292 371.795039 41.786714 -0.001406 -0.873493 0.486834 0 0
  phy
    0 -61.575292 371.795039 41.786714 -0.001406 -0.873493 0.486834 0 0
    0 -77.285072 -322.083376 48.308879 0.001496 -0.963470 0.267813 0 0
    0 -61.575240 -322.083376 41.786686 0.005506 -0.873481 0.486827 0 0
  phy
    0 -0.326126 -347.007241 -24.229288 0.005034 0.193582 0.981071 0 0
    0 -0.326162 396.568231 -24.229258 -0.002540 0.035974 0.999350 0 0
    0 -0.622965 -347.007241 -6.886577 0.001326 -0.073935 0.997262 0 0
  phy
    0 -0.326162 396.568231 -24.229258 -0.002540 0.035974 0.999350 0 0
    0 -0.623001 396.568231 -6.886545 -0.002628 -0.241954 0.970284 0 0
    0 -0.622965 -347.007241 -6.886577 0.001326 -0.073935 0.997262 0 0
  phy
    0 -0.326126 -347.007241 -24.229288 0.005034 0.193582 0.981071 0 0
    0 -2.585531 -347.007241 -7.092441 0.004941 -0.196963 -0.980398 0 0
    0 -2.164547 -347.007241 -24.122849 0.001227 0.078209 -0.996936 0 0
  phy
    0 -0.326126 -347.007241 -24.229288 0.005034 0.193582 0.981071 0 0
    0 -0.622965 -347.007241 -6.886577 0.001326 -0.073935 0.997262 0 0
    0 -2.585531 -347.007241 -7.092441 0.004941 -0.196963 -0.980398 0 0
  phy
    0 -0.326126 -347.007241 -24.229288 0.005034 0.193582 0.981071 0 0
    0 -2.164547 -347.007241 -24.122849 0.001227 0.078209 -0.996936 0 0
    0 -2.164583 396.568231 -24.122819 -0.002372 0.231208 -0.972902 0 0
  phy
    0 -0.326162 396.568231 -24.229258 -0.002540 0.035974 0.999350 0 0
    0 -0.326126 -347.007241 -24.229288 0.005034 0.193582 0.981071 0 0
    0 -2.164583 396.568231 -24.122819 -0.002372 0.231208 -0.972902 0 0
  phy
    0 -0.622965 -347.007241 -6.886577 0.001326 -0.073935 0.997262 0 0
    0 -0.623001 396.568231 -6.886545 -0.002628 -0.241954 0.970284 0 0
    0 -2.585531 -347.007241 -7.092441 0.004941 -0.196963 -0.980398 0 0
  phy
    0 -0.623001 396.568231 -6.886545 -0.002628 -0.241954 0.970284 0 0
    0 -2.585567 396.568231 -7.092408 -0.002564 -0.032685 -0.999462 0 0
    0 -2.585531 -347.007241 -7.092441 0.004941 -0.196963 -0.980398 0 0
  phy
    0 -0.326162 396.568231 -24.229258 -0.002540 0.035974 0.999350 0 0
    0 -2.164583 396.568231 -24.122819 -0.002372 0.231208 -0.972902 0 0
    0 -2.585567 396.568231 -7.092408 -0.002564 -0.032685 -0.999462 0 0
  phy
    0 -0.326162 396.568231 -24.229258 -0.002540 0.035974 0.999350 0 0
    0 -2.585567 396.568231 -7.092408 -0.002564 -0.032685 -0.999462 0 0
    0 -0.623001 396.568231 -6.886545 -0.002628 -0.241954 0.970284 0 0
  phy
    0 -2.585531 -347.007241 -7.092441 0.004941 -0.196963 -0.980398 0 0
    0 -2.585567 396.568231 -7.092408 -0.002564 -0.032685 -0.999462 0 0
    0 -2.164547 -347.007241 -24.122849 0.001227 0.078209 -0.996936 0 0
  phy
    0 -2.164547 -347.007241 -24.122849 0.001227 0.078209 -0.996936 0 0
    0 -2.585567 396.568231 -7.092408 -0.002564 -0.032685 -0.999462 0 0
    0 -2.164583 396.568231 -24.122819 -0.002372 0.231208 -0.972902 0 0
end
