// Created by Crowbar 0.74
version 1
nodes
  0 "static_prop" -1
end
skeleton
  time 0
    0 0.000000 0.000000 0.000000 0.000000 0.000000 0.000000
end
triangles
  phy
    0 -71.696982 -83.064273 78.222367 0.135618 0.714620 -0.686240 0 0
    0 -71.696982 11.187041 78.222367 -0.035130 0.727179 -0.685549 0 0
    0 -62.383803 -83.064273 78.222367 0.043657 0.903682 0.425974 0 0
  phy
    0 -62.383803 -83.064273 78.222367 0.043657 0.903682 0.425974 0 0
    0 -71.696982 11.187041 78.222367 -0.035130 0.727179 -0.685549 0 0
    0 -62.037345 11.187042 78.222367 -0.086617 0.473396 0.876581 0 0
  phy
    0 -71.696982 -83.064273 78.222367 0.135618 0.714620 -0.686240 0 0
    0 -71.696982 -83.064273 87.165692 0.033872 -0.727210 -0.685578 0 0
    0 -71.696982 11.187041 78.222367 -0.035130 0.727179 -0.685549 0 0
  phy
    0 -71.696982 11.187041 78.222367 -0.035130 0.727179 -0.685549 0 0
    0 -71.696982 -83.064273 87.165692 0.033872 -0.727210 -0.685578 0 0
    0 -71.696982 11.187041 87.165692 -0.137925 -0.726777 -0.672883 0 0
  phy
    0 -62.383798 -83.064273 87.165692 0.090531 -0.459929 0.883329 0 0
    0 -71.696982 -83.064273 87.165692 0.033872 -0.727210 -0.685578 0 0
    0 -71.696982 -83.064273 78.222367 0.135618 0.714620 -0.686240 0 0
  phy
    0 -71.696982 -83.064273 78.222367 0.135618 0.714620 -0.686240 0 0
    0 -62.383803 -83.064273 78.222367 0.043657 0.903682 0.425974 0 0
    0 -62.383798 -83.064273 87.165692 0.090531 -0.459929 0.883329 0 0
  phy
    0 -71.696982 11.187041 78.222367 -0.035130 0.727179 -0.685549 0 0
    0 -71.696982 11.187041 87.165692 -0.137925 -0.726777 -0.672883 0 0
    0 -62.037345 11.187042 78.222367 -0.086617 0.473396 0.876581 0 0
  phy
    0 -62.037345 11.187042 78.222367 -0.086617 0.473396 0.876581 0 0
    0 -71.696982 11.187041 87.165692 -0.137925 -0.726777 -0.672883 0 0
    0 -62.037340 11.187042 87.165692 -0.042094 -0.903742 0.426002 0 0
  phy
    0 -71.696982 -83.064273 87.165692 0.033872 -0.727210 -0.685578 0 0
    0 -62.037340 11.187042 87.165692 -0.042094 -0.903742 0.426002 0 0
    0 -71.696982 11.187041 87.165692 -0.137925 -0.726777 -0.672883 0 0
  phy
    0 -62.383798 -83.064273 87.165692 0.090531 -0.459929 0.883329 0 0
    0 -62.037345 11.187042 78.222367 -0.086617 0.473396 0.876581 0 0
    0 -62.037340 11.187042 87.165692 -0.042094 -0.903742 0.426002 0 0
  phy
    0 -62.383798 -83.064273 87.165692 0.090531 -0.459929 0.883329 0 0
    0 -62.383803 -83.064273 78.222367 0.043657 0.903682 0.425974 0 0
    0 -62.037345 11.187042 78.222367 -0.086617 0.473396 0.876581 0 0
  phy
    0 -62.383798 -83.064273 87.165692 0.090531 -0.459929 0.883329 0 0
    0 -62.037340 11.187042 87.165692 -0.042094 -0.903742 0.426002 0 0
    0 -71.696982 -83.064273 87.165692 0.033872 -0.727210 -0.685578 0 0
  phy
    0 -71.285841 -19.427935 71.469085 -0.222643 -0.603976 -0.765274 0 0
    0 -62.062280 -85.216526 71.469085 0.069934 -0.366169 0.927917 0 0
    0 -61.715823 -19.427935 71.469085 -0.129001 -0.369785 0.920118 0 0
  phy
    0 -71.285841 -19.427935 71.469085 -0.222643 -0.603976 -0.765274 0 0
    0 -71.285841 -85.216526 71.469085 0.136357 -0.188361 -0.972588 0 0
    0 -62.062280 -85.216526 71.469085 0.069934 -0.366169 0.927917 0 0
  phy
    0 -71.285841 -19.427935 71.469085 -0.222643 -0.603976 -0.765274 0 0
    0 -71.285841 -19.427935 47.656490 -0.067502 0.366231 -0.928073 0 0
    0 -71.285841 -85.216526 71.469085 0.136357 -0.188361 -0.972588 0 0
  phy
    0 -71.285841 -85.216526 71.469085 0.136357 -0.188361 -0.972588 0 0
    0 -71.285841 -19.427935 47.656490 -0.067502 0.366231 -0.928073 0 0
    0 -71.285841 -85.216526 47.656485 0.129632 0.358143 -0.924624 0 0
  phy
    0 -71.285841 -19.427935 71.469085 -0.222643 -0.603976 -0.765274 0 0
    0 -61.715823 -19.427935 71.469085 -0.129001 -0.369785 0.920118 0 0
    0 -61.715823 -19.427935 47.656490 -0.136172 0.195171 0.971270 0 0
  phy
    0 -71.285841 -19.427935 71.469085 -0.222643 -0.603976 -0.765274 0 0
    0 -61.715823 -19.427935 47.656490 -0.136172 0.195171 0.971270 0 0
    0 -71.285841 -19.427935 47.656490 -0.067502 0.366231 -0.928073 0 0
  phy
    0 -71.285841 -19.427935 47.656490 -0.067502 0.366231 -0.928073 0 0
    0 -61.715823 -19.427935 47.656490 -0.136172 0.195171 0.971270 0 0
    0 -62.062280 -85.216526 47.656485 0.218807 0.604513 0.765955 0 0
  phy
    0 -71.285841 -19.427935 47.656490 -0.067502 0.366231 -0.928073 0 0
    0 -62.062280 -85.216526 47.656485 0.218807 0.604513 0.765955 0 0
    0 -71.285841 -85.216526 47.656485 0.129632 0.358143 -0.924624 0 0
  phy
    0 -62.062280 -85.216526 47.656485 0.218807 0.604513 0.765955 0 0
    0 -71.285841 -85.216526 71.469085 0.136357 -0.188361 -0.972588 0 0
    0 -71.285841 -85.216526 47.656485 0.129632 0.358143 -0.924624 0 0
  phy
    0 -62.062280 -85.216526 47.656485 0.218807 0.604513 0.765955 0 0
    0 -62.062280 -85.216526 71.469085 0.069934 -0.366169 0.927917 0 0
    0 -71.285841 -85.216526 71.469085 0.136357 -0.188361 -0.972588 0 0
  phy
    0 -61.715823 -19.427935 47.656490 -0.136172 0.195171 0.971270 0 0
    0 -62.062280 -85.216526 71.469085 0.069934 -0.366169 0.927917 0 0
    0 -62.062280 -85.216526 47.656485 0.218807 0.604513 0.765955 0 0
  phy
    0 -61.715823 -19.427935 71.469085 -0.129001 -0.369785 0.920118 0 0
    0 -62.062280 -85.216526 71.469085 0.069934 -0.366169 0.927917 0 0
    0 -61.715823 -19.427935 47.656490 -0.136172 0.195171 0.971270 0 0
  phy
    0 -64.307625 -19.523412 56.453249 0.089158 0.350074 0.932469 0 0
    0 -63.961162 11.187042 63.351815 -0.062051 -0.611866 0.788524 0 0
    0 -64.307625 -19.523412 63.351815 0.268537 -0.578382 0.770300 0 0
  phy
    0 -64.307625 -19.523412 56.453249 0.089158 0.350074 0.932469 0 0
    0 -63.961162 11.187042 56.453249 -0.185548 0.826007 0.532245 0 0
    0 -63.961162 11.187042 63.351815 -0.062051 -0.611866 0.788524 0 0
  phy
    0 -63.961162 11.187042 56.453249 -0.185548 0.826007 0.532245 0 0
    0 -64.307625 -19.523412 56.453249 0.089158 0.350074 0.932469 0 0
    0 -69.487433 -19.523412 56.453249 0.179740 0.826913 -0.532830 0 0
  phy
    0 -63.961162 11.187042 56.453249 -0.185548 0.826007 0.532245 0 0
    0 -69.487433 -19.523412 56.453249 0.179740 0.826913 -0.532830 0 0
    0 -69.487433 11.187042 56.453249 -0.083233 0.370531 -0.925083 0 0
  phy
    0 -64.307625 -19.523412 63.351815 0.268537 -0.578382 0.770300 0 0
    0 -69.487433 -19.523412 56.453249 0.179740 0.826913 -0.532830 0 0
    0 -64.307625 -19.523412 56.453249 0.089158 0.350074 0.932469 0 0
  phy
    0 -64.307625 -19.523412 63.351815 0.268537 -0.578382 0.770300 0 0
    0 -69.487433 -19.523412 63.351815 0.066480 -0.611691 -0.788298 0 0
    0 -69.487433 -19.523412 56.453249 0.179740 0.826913 -0.532830 0 0
  phy
    0 -63.961162 11.187042 63.351815 -0.062051 -0.611866 0.788524 0 0
    0 -63.961162 11.187042 56.453249 -0.185548 0.826007 0.532245 0 0
    0 -69.487433 11.187042 63.351815 -0.270419 -0.601913 -0.751382 0 0
  phy
    0 -69.487433 11.187042 63.351815 -0.270419 -0.601913 -0.751382 0 0
    0 -63.961162 11.187042 56.453249 -0.185548 0.826007 0.532245 0 0
    0 -69.487433 11.187042 56.453249 -0.083233 0.370531 -0.925083 0 0
  phy
    0 -63.961162 11.187042 63.351815 -0.062051 -0.611866 0.788524 0 0
    0 -69.487433 -19.523412 63.351815 0.066480 -0.611691 -0.788298 0 0
    0 -64.307625 -19.523412 63.351815 0.268537 -0.578382 0.770300 0 0
  phy
    0 -63.961162 11.187042 63.351815 -0.062051 -0.611866 0.788524 0 0
    0 -69.487433 11.187042 63.351815 -0.270419 -0.601913 -0.751382 0 0
    0 -69.487433 -19.523412 63.351815 0.066480 -0.611691 -0.788298 0 0
  phy
    0 -69.487433 11.187042 63.351815 -0.270419 -0.601913 -0.751382 0 0
    0 -69.487433 11.187042 56.453249 -0.083233 0.370531 -0.925083 0 0
    0 -69.487433 -19.523412 63.351815 0.066480 -0.611691 -0.788298 0 0
  phy
    0 -69.487433 -19.523412 63.351815 0.066480 -0.611691 -0.788298 0 0
    0 -69.487433 11.187042 56.453249 -0.083233 0.370531 -0.925083 0 0
    0 -69.487433 -19.523412 56.453249 0.179740 0.826913 -0.532830 0 0
  phy
    0 -62.247346 -26.870386 87.241235 0.875058 0.025291 0.483356 0 0
    0 -61.900888 -21.459327 271.150690 -0.867503 -0.025992 0.496752 0 0
    0 -62.247346 -26.870396 271.150690 0.875068 -0.024836 0.483362 0 0
  phy
    0 -62.247346 -26.870396 271.150690 0.875068 -0.024836 0.483362 0 0
    0 -71.696982 -26.870398 271.150690 0.960974 -0.028792 -0.275137 0 0
    0 -62.247346 -26.870386 87.241235 0.875058 0.025291 0.483356 0 0
  phy
    0 -61.900888 -21.459327 271.150690 -0.867503 -0.025992 0.496752 0 0
    0 -71.696982 -26.870398 271.150690 0.960974 -0.028792 -0.275137 0 0
    0 -62.247346 -26.870396 271.150690 0.875068 -0.024836 0.483362 0 0
  phy
    0 -61.900888 -21.459317 87.241235 -0.867493 0.026460 0.496745 0 0
    0 -62.247346 -26.870386 87.241235 0.875058 0.025291 0.483356 0 0
    0 -71.696982 -21.459317 87.241235 -0.963539 0.027848 -0.266115 0 0
  phy
    0 -71.696982 -21.459317 87.241235 -0.963539 0.027848 -0.266115 0 0
    0 -62.247346 -26.870386 87.241235 0.875058 0.025291 0.483356 0 0
    0 -71.696982 -26.870389 87.241235 0.657603 0.019348 -0.753116 0 0
  phy
    0 -71.696982 -21.459317 87.241235 -0.963539 0.027848 -0.266115 0 0
    0 -71.696982 -26.870389 87.241235 0.657603 0.019348 -0.753116 0 0
    0 -71.696982 -21.459327 271.150690 -0.670957 -0.019741 -0.741233 0 0
  phy
    0 -71.696982 -21.459327 271.150690 -0.670957 -0.019741 -0.741233 0 0
    0 -71.696982 -26.870389 87.241235 0.657603 0.019348 -0.753116 0 0
    0 -71.696982 -26.870398 271.150690 0.960974 -0.028792 -0.275137 0 0
  phy
    0 -62.247346 -26.870386 87.241235 0.875058 0.025291 0.483356 0 0
    0 -71.696982 -26.870398 271.150690 0.960974 -0.028792 -0.275137 0 0
    0 -71.696982 -26.870389 87.241235 0.657603 0.019348 -0.753116 0 0
  phy
    0 -71.696982 -21.459327 271.150690 -0.670957 -0.019741 -0.741233 0 0
    0 -71.696982 -26.870398 271.150690 0.960974 -0.028792 -0.275137 0 0
    0 -61.900888 -21.459327 271.150690 -0.867503 -0.025992 0.496752 0 0
  phy
    0 -71.696982 -21.459327 271.150690 -0.670957 -0.019741 -0.741233 0 0
    0 -61.900888 -21.459327 271.150690 -0.867503 -0.025992 0.496752 0 0
    0 -71.696982 -21.459317 87.241235 -0.963539 0.027848 -0.266115 0 0
  phy
    0 -61.900888 -21.459317 87.241235 -0.867493 0.026460 0.496745 0 0
    0 -61.900888 -21.459327 271.150690 -0.867503 -0.025992 0.496752 0 0
    0 -62.247346 -26.870386 87.241235 0.875058 0.025291 0.483356 0 0
  phy
    0 -61.900888 -21.459327 271.150690 -0.867503 -0.025992 0.496752 0 0
    0 -61.900888 -21.459317 87.241235 -0.867493 0.026460 0.496745 0 0
    0 -71.696982 -21.459317 87.241235 -0.963539 0.027848 -0.266115 0 0
  phy
    0 -62.247350 3.169130 87.241235 0.875061 0.025165 0.483358 0 0
    0 -71.696982 3.169129 87.241235 0.657604 0.019252 -0.753118 0 0
    0 -71.696982 8.580198 87.241235 -0.874231 0.050283 -0.482899 0 0
  phy
    0 -62.247350 3.169130 87.241235 0.875061 0.025165 0.483358 0 0
    0 -71.696982 8.580198 87.241235 -0.874231 0.050283 -0.482899 0 0
    0 -61.900888 8.580199 87.241235 -0.962575 0.014344 0.270635 0 0
  phy
    0 -71.696982 3.169129 87.241235 0.657604 0.019252 -0.753118 0 0
    0 -71.696982 3.169121 272.070611 0.961277 -0.014071 -0.275224 0 0
    0 -71.696982 8.580191 272.070611 -0.875061 -0.025165 -0.483358 0 0
  phy
    0 -71.696982 3.169129 87.241235 0.657604 0.019252 -0.753118 0 0
    0 -71.696982 8.580191 272.070611 -0.875061 -0.025165 -0.483358 0 0
    0 -71.696982 8.580198 87.241235 -0.874231 0.050283 -0.482899 0 0
  phy
    0 -62.247350 3.169130 87.241235 0.875061 0.025165 0.483358 0 0
    0 -71.696982 3.169121 272.070611 0.961277 -0.014071 -0.275224 0 0
    0 -71.696982 3.169129 87.241235 0.657604 0.019252 -0.753118 0 0
  phy
    0 -62.247350 3.169130 87.241235 0.875061 0.025165 0.483358 0 0
    0 -61.900883 8.580191 272.070611 -0.643581 -0.020276 0.765109 0 0
    0 -62.247346 3.169121 272.070611 0.874231 -0.050283 0.482899 0 0
  phy
    0 -62.247350 3.169130 87.241235 0.875061 0.025165 0.483358 0 0
    0 -61.900888 8.580199 87.241235 -0.962575 0.014344 0.270635 0 0
    0 -61.900883 8.580191 272.070611 -0.643581 -0.020276 0.765109 0 0
  phy
    0 -62.247346 3.169121 272.070611 0.874231 -0.050283 0.482899 0 0
    0 -71.696982 3.169121 272.070611 0.961277 -0.014071 -0.275224 0 0
    0 -62.247350 3.169130 87.241235 0.875061 0.025165 0.483358 0 0
  phy
    0 -62.247346 3.169121 272.070611 0.874231 -0.050283 0.482899 0 0
    0 -71.696982 8.580191 272.070611 -0.875061 -0.025165 -0.483358 0 0
    0 -71.696982 3.169121 272.070611 0.961277 -0.014071 -0.275224 0 0
  phy
    0 -62.247346 3.169121 272.070611 0.874231 -0.050283 0.482899 0 0
    0 -61.900883 8.580191 272.070611 -0.643581 -0.020276 0.765109 0 0
    0 -71.696982 8.580191 272.070611 -0.875061 -0.025165 -0.483358 0 0
  phy
    0 -71.696982 8.580198 87.241235 -0.874231 0.050283 -0.482899 0 0
    0 -71.696982 8.580191 272.070611 -0.875061 -0.025165 -0.483358 0 0
    0 -61.900888 8.580199 87.241235 -0.962575 0.014344 0.270635 0 0
  phy
    0 -61.900888 8.580199 87.241235 -0.962575 0.014344 0.270635 0 0
    0 -71.696982 8.580191 272.070611 -0.875061 -0.025165 -0.483358 0 0
    0 -61.900883 8.580191 272.070611 -0.643581 -0.020276 0.765109 0 0
  phy
    0 -62.247346 -69.534309 244.913458 0.982083 -0.012719 0.188020 0 0
    0 -71.696982 -69.534300 105.222839 0.931610 0.012287 -0.363253 0 0
    0 -62.247346 -69.534300 105.222820 0.808347 0.040458 0.587314 0 0
  phy
    0 -62.247346 -69.534309 244.913458 0.982083 -0.012719 0.188020 0 0
    0 -71.696982 -69.534309 244.913458 0.930515 -0.049988 -0.362826 0 0
    0 -71.696982 -69.534300 105.222839 0.931610 0.012287 -0.363253 0 0
  phy
    0 -62.247346 -69.534300 105.222820 0.808347 0.040458 0.587314 0 0
    0 -61.900883 -65.849710 244.913458 -0.776517 -0.043303 0.628606 0 0
    0 -62.247346 -69.534309 244.913458 0.982083 -0.012719 0.188020 0 0
  phy
    0 -62.247346 -69.534300 105.222820 0.808347 0.040458 0.587314 0 0
    0 -61.900883 -65.849700 105.222820 -0.982077 0.013185 0.188019 0 0
    0 -61.900883 -65.849710 244.913458 -0.776517 -0.043303 0.628606 0 0
  phy
    0 -62.247346 -69.534300 105.222820 0.808347 0.040458 0.587314 0 0
    0 -71.696982 -65.849700 105.222839 -0.934882 0.048446 -0.351637 0 0
    0 -61.900883 -65.849700 105.222820 -0.982077 0.013185 0.188019 0 0
  phy
    0 -71.696982 -65.849700 105.222839 -0.934882 0.048446 -0.351637 0 0
    0 -62.247346 -69.534300 105.222820 0.808347 0.040458 0.587314 0 0
    0 -71.696982 -69.534300 105.222839 0.931610 0.012287 -0.363253 0 0
  phy
    0 -71.696982 -65.849710 244.913458 -0.935910 -0.012343 -0.352023 0 0
    0 -71.696982 -65.849700 105.222839 -0.934882 0.048446 -0.351637 0 0
    0 -71.696982 -69.534300 105.222839 0.931610 0.012287 -0.363253 0 0
  phy
    0 -71.696982 -65.849710 244.913458 -0.935910 -0.012343 -0.352023 0 0
    0 -71.696982 -69.534300 105.222839 0.931610 0.012287 -0.363253 0 0
    0 -71.696982 -69.534309 244.913458 0.930515 -0.049988 -0.362826 0 0
  phy
    0 -71.696982 -65.849700 105.222839 -0.934882 0.048446 -0.351637 0 0
    0 -71.696982 -65.849710 244.913458 -0.935910 -0.012343 -0.352023 0 0
    0 -61.900883 -65.849700 105.222820 -0.982077 0.013185 0.188019 0 0
  phy
    0 -61.900883 -65.849710 244.913458 -0.776517 -0.043303 0.628606 0 0
    0 -71.696982 -69.534309 244.913458 0.930515 -0.049988 -0.362826 0 0
    0 -62.247346 -69.534309 244.913458 0.982083 -0.012719 0.188020 0 0
  phy
    0 -71.696982 -65.849710 244.913458 -0.935910 -0.012343 -0.352023 0 0
    0 -71.696982 -69.534309 244.913458 0.930515 -0.049988 -0.362826 0 0
    0 -61.900883 -65.849710 244.913458 -0.776517 -0.043303 0.628606 0 0
  phy
    0 -71.696982 -65.849710 244.913458 -0.935910 -0.012343 -0.352023 0 0
    0 -61.900883 -65.849710 244.913458 -0.776517 -0.043303 0.628606 0 0
    0 -61.900883 -65.849700 105.222820 -0.982077 0.013185 0.188019 0 0
  phy
    0 -64.880505 -21.374601 268.895720 0.107358 -0.307607 0.945438 0 0
    0 -68.877006 -21.374587 261.689171 0.143511 0.761635 -0.631915 0 0
    0 -64.534047 -21.374601 261.689171 0.102881 0.482408 0.869884 0 0
  phy
    0 -64.880505 -21.374601 268.895720 0.107358 -0.307607 0.945438 0 0
    0 -68.877006 -21.374587 268.895720 0.047536 -0.484434 -0.873536 0 0
    0 -68.877006 -21.374587 261.689171 0.143511 0.761635 -0.631915 0 0
  phy
    0 -68.877006 -21.374587 261.689171 0.143511 0.761635 -0.631915 0 0
    0 -68.877006 -21.374587 268.895720 0.047536 -0.484434 -0.873536 0 0
    0 -68.877006 15.345939 261.689209 -0.108088 0.286818 -0.951868 0 0
  phy
    0 -68.877006 15.345939 261.689209 -0.108088 0.286818 -0.951868 0 0
    0 -68.877006 -21.374587 268.895720 0.047536 -0.484434 -0.873536 0 0
    0 -68.877006 15.345935 268.895720 -0.094751 -0.482801 -0.870589 0 0
  phy
    0 -68.877006 -21.374587 268.895720 0.047536 -0.484434 -0.873536 0 0
    0 -64.880505 15.345935 268.895720 -0.146881 -0.748426 0.646749 0 0
    0 -68.877006 15.345935 268.895720 -0.094751 -0.482801 -0.870589 0 0
  phy
    0 -68.877006 -21.374587 268.895720 0.047536 -0.484434 -0.873536 0 0
    0 -64.880505 -21.374601 268.895720 0.107358 -0.307607 0.945438 0 0
    0 -64.880505 15.345935 268.895720 -0.146881 -0.748426 0.646749 0 0
  phy
    0 -68.877006 15.345939 261.689209 -0.108088 0.286818 -0.951868 0 0
    0 -68.877006 15.345935 268.895720 -0.094751 -0.482801 -0.870589 0 0
    0 -64.880505 15.345935 268.895720 -0.146881 -0.748426 0.646749 0 0
  phy
    0 -68.877006 15.345939 261.689209 -0.108088 0.286818 -0.951868 0 0
    0 -64.880505 15.345935 268.895720 -0.146881 -0.748426 0.646749 0 0
    0 -64.534047 15.345939 261.689209 -0.051647 0.484335 0.873357 0 0
  phy
    0 -64.880505 15.345935 268.895720 -0.146881 -0.748426 0.646749 0 0
    0 -64.880505 -21.374601 268.895720 0.107358 -0.307607 0.945438 0 0
    0 -64.534047 15.345939 261.689209 -0.051647 0.484335 0.873357 0 0
  phy
    0 -64.880505 -21.374601 268.895720 0.107358 -0.307607 0.945438 0 0
    0 -64.534047 -21.374601 261.689171 0.102881 0.482408 0.869884 0 0
    0 -64.534047 15.345939 261.689209 -0.051647 0.484335 0.873357 0 0
  phy
    0 -68.877006 -21.374587 261.689171 0.143511 0.761635 -0.631915 0 0
    0 -64.534047 15.345939 261.689209 -0.051647 0.484335 0.873357 0 0
    0 -64.534047 -21.374601 261.689171 0.102881 0.482408 0.869884 0 0
  phy
    0 -64.534047 15.345939 261.689209 -0.051647 0.484335 0.873357 0 0
    0 -68.877006 -21.374587 261.689171 0.143511 0.761635 -0.631915 0 0
    0 -68.877006 15.345939 261.689209 -0.108088 0.286818 -0.951868 0 0
  phy
    0 -62.247346 -80.153661 269.572641 -0.676908 -0.651278 0.342977 0 0
    0 -62.247346 -66.050042 244.778723 -0.841003 -0.411441 0.351325 0 0
    0 -71.696982 -80.153670 269.572622 -0.820134 -0.539333 -0.191049 0 0
  phy
    0 -71.696982 -80.153670 269.572622 -0.820134 -0.539333 -0.191049 0 0
    0 -62.247346 -66.050042 244.778723 -0.841003 -0.411441 0.351325 0 0
    0 -71.696982 -66.050061 244.778723 -0.771934 -0.205644 -0.601522 0 0
  phy
    0 -71.696982 -83.344649 267.730322 0.866251 0.357168 -0.349342 0 0
    0 -62.247346 -80.153661 269.572641 -0.676908 -0.651278 0.342977 0 0
    0 -71.696982 -80.153670 269.572622 -0.820134 -0.539333 -0.191049 0 0
  phy
    0 -71.696982 -83.344649 267.730322 0.866251 0.357168 -0.349342 0 0
    0 -61.900883 -83.344659 267.730341 0.725010 0.288898 0.625218 0 0
    0 -62.247346 -80.153661 269.572641 -0.676908 -0.651278 0.342977 0 0
  phy
    0 -71.696982 -83.344649 267.730322 0.866251 0.357168 -0.349342 0 0
    0 -71.696982 -80.153670 269.572622 -0.820134 -0.539333 -0.191049 0 0
    0 -71.696982 -66.050061 244.778723 -0.771934 -0.205644 -0.601522 0 0
  phy
    0 -71.696982 -83.344649 267.730322 0.866251 0.357168 -0.349342 0 0
    0 -71.696982 -66.050061 244.778723 -0.771934 -0.205644 -0.601522 0 0
    0 -71.696982 -69.241017 242.936405 0.748207 0.563792 -0.349749 0 0
  phy
    0 -71.696982 -66.050061 244.778723 -0.771934 -0.205644 -0.601522 0 0
    0 -61.900883 -69.241012 242.936405 0.784607 0.591220 0.186684 0 0
    0 -71.696982 -69.241017 242.936405 0.748207 0.563792 -0.349749 0 0
  phy
    0 -61.900883 -69.241012 242.936405 0.784607 0.591220 0.186684 0 0
    0 -71.696982 -66.050061 244.778723 -0.771934 -0.205644 -0.601522 0 0
    0 -62.247346 -66.050042 244.778723 -0.841003 -0.411441 0.351325 0 0
  phy
    0 -62.247346 -66.050042 244.778723 -0.841003 -0.411441 0.351325 0 0
    0 -61.900883 -83.344659 267.730341 0.725010 0.288898 0.625218 0 0
    0 -61.900883 -69.241012 242.936405 0.784607 0.591220 0.186684 0 0
  phy
    0 -62.247346 -66.050042 244.778723 -0.841003 -0.411441 0.351325 0 0
    0 -62.247346 -80.153661 269.572641 -0.676908 -0.651278 0.342977 0 0
    0 -61.900883 -83.344659 267.730341 0.725010 0.288898 0.625218 0 0
  phy
    0 -71.696982 -83.344649 267.730322 0.866251 0.357168 -0.349342 0 0
    0 -71.696982 -69.241017 242.936405 0.748207 0.563792 -0.349749 0 0
    0 -61.900883 -69.241012 242.936405 0.784607 0.591220 0.186684 0 0
  phy
    0 -61.900883 -69.241012 242.936405 0.784607 0.591220 0.186684 0 0
    0 -61.900883 -83.344659 267.730341 0.725010 0.288898 0.625218 0 0
    0 -71.696982 -83.344649 267.730322 0.866251 0.357168 -0.349342 0 0
  phy
    0 -62.247346 -65.495330 105.120939 -0.891910 0.410259 0.190222 0 0
    0 -62.247350 -77.813507 87.264438 -0.589571 0.577005 0.565218 0 0
    0 -71.696982 -77.813474 87.264448 -0.663594 0.665549 -0.341594 0 0
  phy
    0 -62.247346 -65.495330 105.120939 -0.891910 0.410259 0.190222 0 0
    0 -71.696982 -77.813474 87.264448 -0.663594 0.665549 -0.341594 0 0
    0 -71.696977 -65.495301 105.120939 -0.845079 0.388718 -0.367070 0 0
  phy
    0 -62.247346 -65.495330 105.120939 -0.891910 0.410259 0.190222 0 0
    0 -71.696977 -69.485368 105.369898 0.669245 -0.664629 -0.332234 0 0
    0 -61.900879 -69.485387 105.369898 0.560783 -0.570917 0.599646 0 0
  phy
    0 -62.247346 -65.495330 105.120939 -0.891910 0.410259 0.190222 0 0
    0 -71.696977 -65.495301 105.120939 -0.845079 0.388718 -0.367070 0 0
    0 -71.696977 -69.485368 105.369898 0.669245 -0.664629 -0.332234 0 0
  phy
    0 -61.900879 -69.485387 105.369898 0.560783 -0.570917 0.599646 0 0
    0 -62.247350 -77.813507 87.264438 -0.589571 0.577005 0.565218 0 0
    0 -62.247346 -65.495330 105.120939 -0.891910 0.410259 0.190222 0 0
  phy
    0 -71.696977 -69.485368 105.369898 0.669245 -0.664629 -0.332234 0 0
    0 -61.900883 -83.286884 87.281287 0.879535 -0.404567 0.250487 0 0
    0 -61.900879 -69.485387 105.369898 0.560783 -0.570917 0.599646 0 0
  phy
    0 -61.900879 -69.485387 105.369898 0.560783 -0.570917 0.599646 0 0
    0 -61.900883 -83.286884 87.281287 0.879535 -0.404567 0.250487 0 0
    0 -62.247350 -77.813507 87.264438 -0.589571 0.577005 0.565218 0 0
  phy
    0 -71.696982 -83.286856 87.281297 0.809870 -0.372522 -0.453142 0 0
    0 -71.696977 -69.485368 105.369898 0.669245 -0.664629 -0.332234 0 0
    0 -71.696982 -77.813474 87.264448 -0.663594 0.665549 -0.341594 0 0
  phy
    0 -71.696982 -77.813474 87.264448 -0.663594 0.665549 -0.341594 0 0
    0 -71.696977 -69.485368 105.369898 0.669245 -0.664629 -0.332234 0 0
    0 -71.696977 -65.495301 105.120939 -0.845079 0.388718 -0.367070 0 0
  phy
    0 -71.696982 -83.286856 87.281297 0.809870 -0.372522 -0.453142 0 0
    0 -61.900883 -83.286884 87.281287 0.879535 -0.404567 0.250487 0 0
    0 -71.696977 -69.485368 105.369898 0.669245 -0.664629 -0.332234 0 0
  phy
    0 -71.696982 -77.813474 87.264448 -0.663594 0.665549 -0.341594 0 0
    0 -62.247350 -77.813507 87.264438 -0.589571 0.577005 0.565218 0 0
    0 -61.900883 -83.286884 87.281287 0.879535 -0.404567 0.250487 0 0
  phy
    0 -71.696982 -83.286856 87.281297 0.809870 -0.372522 -0.453142 0 0
    0 -71.696982 -77.813474 87.264448 -0.663594 0.665549 -0.341594 0 0
    0 -61.900883 -83.286884 87.281287 0.879535 -0.404567 0.250487 0 0
  phy
    0 -62.247346 -26.905853 271.007451 -0.031486 -0.981675 0.187945 0 0
    0 -62.247346 -83.311458 271.007451 0.099779 -0.804969 0.584866 0 0
    0 -61.900883 -26.905849 267.322833 -0.061858 0.929895 0.362586 0 0
  phy
    0 -62.247346 -83.311458 271.007451 0.099779 -0.804969 0.584866 0 0
    0 -61.900883 -83.311458 267.322814 0.062967 0.929830 0.362561 0 0
    0 -61.900883 -26.905849 267.322833 -0.061858 0.929895 0.362586 0 0
  phy
    0 -71.696982 -83.311449 267.322833 0.062938 0.980822 -0.184462 0 0
    0 -61.900883 -83.311458 267.322814 0.062967 0.929830 0.362561 0 0
    0 -62.247346 -83.311458 271.007451 0.099779 -0.804969 0.584866 0 0
  phy
    0 -62.247346 -83.311458 271.007451 0.099779 -0.804969 0.584866 0 0
    0 -71.696982 -83.311449 271.007470 0.030416 -0.931248 -0.363113 0 0
    0 -71.696982 -83.311449 267.322833 0.062938 0.980822 -0.184462 0 0
  phy
    0 -62.247346 -26.905853 271.007451 -0.031486 -0.981675 0.187945 0 0
    0 -71.696982 -83.311449 271.007470 0.030416 -0.931248 -0.363113 0 0
    0 -62.247346 -83.311458 271.007451 0.099779 -0.804969 0.584866 0 0
  phy
    0 -71.696982 -26.905851 271.007470 -0.123011 -0.924604 -0.360521 0 0
    0 -71.696982 -26.905846 267.322852 -0.052131 0.798043 -0.600341 0 0
    0 -71.696982 -83.311449 271.007470 0.030416 -0.931248 -0.363113 0 0
  phy
    0 -71.696982 -83.311449 271.007470 0.030416 -0.931248 -0.363113 0 0
    0 -71.696982 -26.905846 267.322852 -0.052131 0.798043 -0.600341 0 0
    0 -71.696982 -83.311449 267.322833 0.062938 0.980822 -0.184462 0 0
  phy
    0 -61.900883 -26.905849 267.322833 -0.061858 0.929895 0.362586 0 0
    0 -71.696982 -26.905851 271.007470 -0.123011 -0.924604 -0.360521 0 0
    0 -62.247346 -26.905853 271.007451 -0.031486 -0.981675 0.187945 0 0
  phy
    0 -71.696982 -26.905851 271.007470 -0.123011 -0.924604 -0.360521 0 0
    0 -61.900883 -26.905849 267.322833 -0.061858 0.929895 0.362586 0 0
    0 -71.696982 -26.905846 267.322852 -0.052131 0.798043 -0.600341 0 0
  phy
    0 -71.696982 -26.905851 271.007470 -0.123011 -0.924604 -0.360521 0 0
    0 -71.696982 -83.311449 271.007470 0.030416 -0.931248 -0.363113 0 0
    0 -62.247346 -26.905853 271.007451 -0.031486 -0.981675 0.187945 0 0
  phy
    0 -71.696982 -83.311449 267.322833 0.062938 0.980822 -0.184462 0 0
    0 -61.900883 -26.905849 267.322833 -0.061858 0.929895 0.362586 0 0
    0 -61.900883 -83.311458 267.322814 0.062967 0.929830 0.362561 0 0
  phy
    0 -61.900883 -26.905849 267.322833 -0.061858 0.929895 0.362586 0 0
    0 -71.696982 -83.311449 267.322833 0.062938 0.980822 -0.184462 0 0
    0 -71.696982 -26.905846 267.322852 -0.052131 0.798043 -0.600341 0 0
  phy
    0 -73.120810 14.162014 253.778405 0.966305 0.127754 -0.223459 0 0
    0 -73.120810 14.162014 276.040149 0.943644 -0.246119 -0.221272 0 0
    0 -73.120819 17.065137 276.040149 -0.899136 -0.117256 -0.421669 0 0
  phy
    0 -73.120810 14.162014 253.778405 0.966305 0.127754 -0.223459 0 0
    0 -73.120819 17.065137 276.040149 -0.899136 -0.117256 -0.421669 0 0
    0 -73.120819 17.065143 253.778405 -0.991247 0.065525 -0.114613 0 0
  phy
    0 -73.120810 14.162014 253.778405 0.966305 0.127754 -0.223459 0 0
    0 -60.739982 14.162000 276.040149 0.991247 -0.065526 0.114612 0 0
    0 -73.120810 14.162014 276.040149 0.943644 -0.246119 -0.221272 0 0
  phy
    0 -73.120810 14.162014 253.778405 0.966305 0.127754 -0.223459 0 0
    0 -60.393524 14.162000 253.778386 0.904125 0.111487 0.412467 0 0
    0 -60.739982 14.162000 276.040149 0.991247 -0.065526 0.114612 0 0
  phy
    0 -60.739982 14.162000 276.040149 0.991247 -0.065526 0.114612 0 0
    0 -60.739982 17.065140 276.040149 -0.966305 -0.127754 0.223459 0 0
    0 -73.120810 14.162014 276.040149 0.943644 -0.246119 -0.221272 0 0
  phy
    0 -60.739982 17.065140 276.040149 -0.966305 -0.127754 0.223459 0 0
    0 -73.120819 17.065137 276.040149 -0.899136 -0.117256 -0.421669 0 0
    0 -73.120810 14.162014 276.040149 0.943644 -0.246119 -0.221272 0 0
  phy
    0 -60.739982 14.162000 276.040149 0.991247 -0.065526 0.114612 0 0
    0 -60.393524 14.162000 253.778386 0.904125 0.111487 0.412467 0 0
    0 -60.739982 17.065140 276.040149 -0.966305 -0.127754 0.223459 0 0
  phy
    0 -60.393524 14.162000 253.778386 0.904125 0.111487 0.412467 0 0
    0 -60.393524 17.065145 253.778386 -0.945664 0.243289 0.215709 0 0
    0 -60.739982 17.065140 276.040149 -0.966305 -0.127754 0.223459 0 0
  phy
    0 -60.393524 14.162000 253.778386 0.904125 0.111487 0.412467 0 0
    0 -73.120810 14.162014 253.778405 0.966305 0.127754 -0.223459 0 0
    0 -60.393524 17.065145 253.778386 -0.945664 0.243289 0.215709 0 0
  phy
    0 -60.393524 17.065145 253.778386 -0.945664 0.243289 0.215709 0 0
    0 -73.120810 14.162014 253.778405 0.966305 0.127754 -0.223459 0 0
    0 -73.120819 17.065143 253.778405 -0.991247 0.065525 -0.114613 0 0
  phy
    0 -73.120819 17.065143 253.778405 -0.991247 0.065525 -0.114613 0 0
    0 -73.120819 17.065137 276.040149 -0.899136 -0.117256 -0.421669 0 0
    0 -60.739982 17.065140 276.040149 -0.966305 -0.127754 0.223459 0 0
  phy
    0 -73.120819 17.065143 253.778405 -0.991247 0.065525 -0.114613 0 0
    0 -60.739982 17.065140 276.040149 -0.966305 -0.127754 0.223459 0 0
    0 -60.393524 17.065145 253.778386 -0.945664 0.243289 0.215709 0 0
  phy
    0 -73.120819 17.315058 92.819422 -0.875950 -0.234466 -0.421588 0 0
    0 -60.739982 17.315058 92.819422 -0.701030 -0.200919 0.684243 0 0
    0 -60.393524 17.315064 70.557679 -0.964117 0.129032 0.232011 0 0
  phy
    0 -73.120819 17.315064 70.557693 -0.811095 0.440287 -0.385061 0 0
    0 -73.120819 17.315058 92.819422 -0.875950 -0.234466 -0.421588 0 0
    0 -60.393524 17.315064 70.557679 -0.964117 0.129032 0.232011 0 0
  phy
    0 -73.120819 17.315058 92.819422 -0.875950 -0.234466 -0.421588 0 0
    0 -60.739982 11.272896 92.819422 0.805526 -0.443381 0.393117 0 0
    0 -60.739982 17.315058 92.819422 -0.701030 -0.200919 0.684243 0 0
  phy
    0 -73.120819 17.315058 92.819422 -0.875950 -0.234466 -0.421588 0 0
    0 -73.120810 11.272896 92.819422 0.964117 -0.129033 -0.232011 0 0
    0 -60.739982 11.272896 92.819422 0.805526 -0.443381 0.393117 0 0
  phy
    0 -73.120810 11.272882 70.557660 0.711535 0.193121 -0.675590 0 0
    0 -73.120819 17.315058 92.819422 -0.875950 -0.234466 -0.421588 0 0
    0 -73.120819 17.315064 70.557693 -0.811095 0.440287 -0.385061 0 0
  phy
    0 -73.120819 17.315058 92.819422 -0.875950 -0.234466 -0.421588 0 0
    0 -73.120810 11.272882 70.557660 0.711535 0.193121 -0.675590 0 0
    0 -73.120810 11.272896 92.819422 0.964117 -0.129033 -0.232011 0 0
  phy
    0 -60.739982 11.272896 92.819422 0.805526 -0.443381 0.393117 0 0
    0 -60.393524 11.272882 70.557646 0.875950 0.234466 0.421588 0 0
    0 -60.739982 17.315058 92.819422 -0.701030 -0.200919 0.684243 0 0
  phy
    0 -60.393524 11.272882 70.557646 0.875950 0.234466 0.421588 0 0
    0 -60.393524 17.315064 70.557679 -0.964117 0.129032 0.232011 0 0
    0 -60.739982 17.315058 92.819422 -0.701030 -0.200919 0.684243 0 0
  phy
    0 -73.120810 11.272882 70.557660 0.711535 0.193121 -0.675590 0 0
    0 -73.120819 17.315064 70.557693 -0.811095 0.440287 -0.385061 0 0
    0 -60.393524 11.272882 70.557646 0.875950 0.234466 0.421588 0 0
  phy
    0 -73.120810 11.272882 70.557660 0.711535 0.193121 -0.675590 0 0
    0 -60.393524 11.272882 70.557646 0.875950 0.234466 0.421588 0 0
    0 -73.120810 11.272896 92.819422 0.964117 -0.129033 -0.232011 0 0
  phy
    0 -73.120810 11.272896 92.819422 0.964117 -0.129033 -0.232011 0 0
    0 -60.393524 11.272882 70.557646 0.875950 0.234466 0.421588 0 0
    0 -60.739982 11.272896 92.819422 0.805526 -0.443381 0.393117 0 0
  phy
    0 -60.393524 11.272882 70.557646 0.875950 0.234466 0.421588 0 0
    0 -73.120819 17.315064 70.557693 -0.811095 0.440287 -0.385061 0 0
    0 -60.393524 17.315064 70.557679 -0.964117 0.129032 0.232011 0 0
  phy
    0 -60.393524 11.272884 47.660188 0.875950 0.234466 0.421588 0 0
    0 -60.739982 17.315059 69.921960 -0.874587 -0.240651 0.420932 0 0
    0 -60.739977 11.272897 69.921960 0.871705 -0.243214 0.425414 0 0
  phy
    0 -60.739977 11.272897 69.921960 0.871705 -0.243214 0.425414 0 0
    0 -73.120810 11.272895 69.921960 0.940905 -0.251852 -0.226425 0 0
    0 -60.393524 11.272884 47.660188 0.875950 0.234466 0.421588 0 0
  phy
    0 -60.739982 17.315059 69.921960 -0.874587 -0.240651 0.420932 0 0
    0 -73.120810 11.272895 69.921960 0.940905 -0.251852 -0.226425 0 0
    0 -60.739977 11.272897 69.921960 0.871705 -0.243214 0.425414 0 0
  phy
    0 -73.120819 17.315058 69.921960 -0.702495 -0.190668 -0.685673 0 0
    0 -73.120819 17.315064 47.660226 -0.939216 0.258435 -0.226019 0 0
    0 -73.120810 11.272882 47.660207 0.711535 0.193121 -0.675590 0 0
  phy
    0 -73.120810 11.272895 69.921960 0.940905 -0.251852 -0.226425 0 0
    0 -73.120819 17.315058 69.921960 -0.702495 -0.190668 -0.685673 0 0
    0 -73.120810 11.272882 47.660207 0.711535 0.193121 -0.675590 0 0
  phy
    0 -73.120819 17.315058 69.921960 -0.702495 -0.190668 -0.685673 0 0
    0 -60.739982 17.315059 69.921960 -0.874587 -0.240651 0.420932 0 0
    0 -73.120819 17.315064 47.660226 -0.939216 0.258435 -0.226019 0 0
  phy
    0 -73.120819 17.315058 69.921960 -0.702495 -0.190668 -0.685673 0 0
    0 -73.120810 11.272895 69.921960 0.940905 -0.251852 -0.226425 0 0
    0 -60.739982 17.315059 69.921960 -0.874587 -0.240651 0.420932 0 0
  phy
    0 -60.393524 11.272884 47.660188 0.875950 0.234466 0.421588 0 0
    0 -60.393529 17.315065 47.660207 -0.878719 0.232005 0.417164 0 0
    0 -60.739982 17.315059 69.921960 -0.874587 -0.240651 0.420932 0 0
  phy
    0 -73.120819 17.315064 47.660226 -0.939216 0.258435 -0.226019 0 0
    0 -60.393524 11.272884 47.660188 0.875950 0.234466 0.421588 0 0
    0 -73.120810 11.272882 47.660207 0.711535 0.193121 -0.675590 0 0
  phy
    0 -60.393524 11.272884 47.660188 0.875950 0.234466 0.421588 0 0
    0 -73.120819 17.315064 47.660226 -0.939216 0.258435 -0.226019 0 0
    0 -60.393529 17.315065 47.660207 -0.878719 0.232005 0.417164 0 0
  phy
    0 -73.120810 11.272895 69.921960 0.940905 -0.251852 -0.226425 0 0
    0 -73.120810 11.272882 47.660207 0.711535 0.193121 -0.675590 0 0
    0 -60.393524 11.272884 47.660188 0.875950 0.234466 0.421588 0 0
  phy
    0 -73.120819 17.315064 47.660226 -0.939216 0.258435 -0.226019 0 0
    0 -60.739982 17.315059 69.921960 -0.874587 -0.240651 0.420932 0 0
    0 -60.393529 17.315065 47.660207 -0.878719 0.232005 0.417164 0 0
  phy
    0 -65.711455 -21.969735 253.722236 -0.253621 -0.252325 0.933814 0 0
    0 -65.364988 1.700244 217.618567 0.180740 0.198024 0.963390 0 0
    0 -65.711455 5.921442 220.172893 -0.658860 -0.431956 0.615888 0 0
  phy
    0 -65.711455 -21.969735 253.722236 -0.253621 -0.252325 0.933814 0 0
    0 -65.364988 -26.190907 251.167928 0.658865 0.431959 0.615880 0 0
    0 -65.364988 1.700244 217.618567 0.180740 0.198024 0.963390 0 0
  phy
    0 -65.711455 -21.969735 253.722236 -0.253621 -0.252325 0.933814 0 0
    0 -65.711455 5.921442 220.172893 -0.658860 -0.431956 0.615888 0 0
    0 -68.691847 -21.969709 253.722236 -0.366098 -0.384033 -0.847639 0 0
  phy
    0 -68.691847 -21.969709 253.722236 -0.366098 -0.384033 -0.847639 0 0
    0 -65.364988 -26.190907 251.167928 0.658865 0.431959 0.615880 0 0
    0 -65.711455 -21.969735 253.722236 -0.253621 -0.252325 0.933814 0 0
  phy
    0 -68.691847 -26.190884 251.167928 0.467755 0.306665 -0.828952 0 0
    0 -68.691856 1.700243 217.618586 0.399213 0.409017 -0.820569 0 0
    0 -65.364988 -26.190907 251.167928 0.658865 0.431959 0.615880 0 0
  phy
    0 -68.691856 1.700243 217.618586 0.399213 0.409017 -0.820569 0 0
    0 -65.364988 1.700244 217.618567 0.180740 0.198024 0.963390 0 0
    0 -65.364988 -26.190907 251.167928 0.658865 0.431959 0.615880 0 0
  phy
    0 -68.691847 -26.190884 251.167928 0.467755 0.306665 -0.828952 0 0
    0 -68.691847 -21.969709 253.722236 -0.366098 -0.384033 -0.847639 0 0
    0 -68.691856 1.700243 217.618586 0.399213 0.409017 -0.820569 0 0
  phy
    0 -68.691856 1.700243 217.618586 0.399213 0.409017 -0.820569 0 0
    0 -68.691847 -21.969709 253.722236 -0.366098 -0.384033 -0.847639 0 0
    0 -68.691856 5.921448 220.172912 -0.432617 -0.283628 -0.855802 0 0
  phy
    0 -68.691847 -26.190884 251.167928 0.467755 0.306665 -0.828952 0 0
    0 -65.364988 -26.190907 251.167928 0.658865 0.431959 0.615880 0 0
    0 -68.691847 -21.969709 253.722236 -0.366098 -0.384033 -0.847639 0 0
  phy
    0 -68.691856 1.700243 217.618586 0.399213 0.409017 -0.820569 0 0
    0 -68.691856 5.921448 220.172912 -0.432617 -0.283628 -0.855802 0 0
    0 -65.711455 5.921442 220.172893 -0.658860 -0.431956 0.615888 0 0
  phy
    0 -68.691856 1.700243 217.618586 0.399213 0.409017 -0.820569 0 0
    0 -65.711455 5.921442 220.172893 -0.658860 -0.431956 0.615888 0 0
    0 -65.364988 1.700244 217.618567 0.180740 0.198024 0.963390 0 0
  phy
    0 -68.691847 -21.969709 253.722236 -0.366098 -0.384033 -0.847639 0 0
    0 -65.711455 5.921442 220.172893 -0.658860 -0.431956 0.615888 0 0
    0 -68.691856 5.921448 220.172912 -0.432617 -0.283628 -0.855802 0 0
  phy
    0 -65.364988 -21.632844 178.303362 -0.300757 0.421906 0.855302 0 0
    0 -65.364988 4.889975 209.996588 -0.440354 0.324579 0.837100 0 0
    0 -65.711455 -24.187142 182.524516 0.309639 -0.215581 0.926093 0 0
  phy
    0 -65.711455 -24.187142 182.524516 0.309639 -0.215581 0.926093 0 0
    0 -65.364988 4.889975 209.996588 -0.440354 0.324579 0.837100 0 0
    0 -65.711460 2.335650 214.217760 0.545559 -0.577433 0.607401 0 0
  phy
    0 -65.711455 -24.187142 182.524516 0.309639 -0.215581 0.926093 0 0
    0 -68.691847 -24.187152 182.524553 0.464334 -0.305877 -0.831164 0 0
    0 -65.364988 -21.632844 178.303362 -0.300757 0.421906 0.855302 0 0
  phy
    0 -65.711460 2.335650 214.217760 0.545559 -0.577433 0.607401 0 0
    0 -68.691847 -24.187152 182.524553 0.464334 -0.305877 -0.831164 0 0
    0 -65.711455 -24.187142 182.524516 0.309639 -0.215581 0.926093 0 0
  phy
    0 -65.364988 -21.632844 178.303362 -0.300757 0.421906 0.855302 0 0
    0 -68.691847 -24.187152 182.524553 0.464334 -0.305877 -0.831164 0 0
    0 -68.691847 -21.632846 178.303399 -0.593009 0.557274 -0.581194 0 0
  phy
    0 -65.364988 -21.632844 178.303362 -0.300757 0.421906 0.855302 0 0
    0 -68.691847 -21.632846 178.303399 -0.593009 0.557274 -0.581194 0 0
    0 -65.364988 4.889975 209.996588 -0.440354 0.324579 0.837100 0 0
  phy
    0 -65.711460 2.335650 214.217760 0.545559 -0.577433 0.607401 0 0
    0 -68.691856 4.889944 209.996588 -0.318893 0.174165 -0.931651 0 0
    0 -68.691856 2.335614 214.217779 0.361045 -0.382139 -0.850656 0 0
  phy
    0 -68.691856 4.889944 209.996588 -0.318893 0.174165 -0.931651 0 0
    0 -65.711460 2.335650 214.217760 0.545559 -0.577433 0.607401 0 0
    0 -65.364988 4.889975 209.996588 -0.440354 0.324579 0.837100 0 0
  phy
    0 -68.691856 2.335614 214.217779 0.361045 -0.382139 -0.850656 0 0
    0 -68.691847 -24.187152 182.524553 0.464334 -0.305877 -0.831164 0 0
    0 -65.711460 2.335650 214.217760 0.545559 -0.577433 0.607401 0 0
  phy
    0 -68.691856 4.889944 209.996588 -0.318893 0.174165 -0.931651 0 0
    0 -68.691847 -21.632846 178.303399 -0.593009 0.557274 -0.581194 0 0
    0 -68.691847 -24.187152 182.524553 0.464334 -0.305877 -0.831164 0 0
  phy
    0 -68.691847 -21.632846 178.303399 -0.593009 0.557274 -0.581194 0 0
    0 -68.691856 4.889944 209.996588 -0.318893 0.174165 -0.931651 0 0
    0 -65.364988 4.889975 209.996588 -0.440354 0.324579 0.837100 0 0
  phy
    0 -68.691856 2.335614 214.217779 0.361045 -0.382139 -0.850656 0 0
    0 -68.691856 4.889944 209.996588 -0.318893 0.174165 -0.931651 0 0
    0 -68.691847 -24.187152 182.524553 0.464334 -0.305877 -0.831164 0 0
  phy
    0 -65.364988 1.700248 137.412473 0.180740 0.198025 0.963389 0 0
    0 -65.711455 -21.969716 173.516105 -0.399213 -0.409017 0.820570 0 0
    0 -65.364988 -26.190905 170.961816 0.635495 0.467373 0.614581 0 0
  phy
    0 -65.364988 1.700248 137.412473 0.180740 0.198025 0.963389 0 0
    0 -65.711455 5.921431 139.966800 -0.497162 -0.257547 0.828553 0 0
    0 -65.711455 -21.969716 173.516105 -0.399213 -0.409017 0.820570 0 0
  phy
    0 -65.711455 5.921431 139.966800 -0.497162 -0.257547 0.828553 0 0
    0 -68.691856 5.921451 139.966818 -0.416902 -0.308615 -0.854956 0 0
    0 -65.711455 -21.969716 173.516105 -0.399213 -0.409017 0.820570 0 0
  phy
    0 -65.711455 -21.969716 173.516105 -0.399213 -0.409017 0.820570 0 0
    0 -68.691856 5.921451 139.966818 -0.416902 -0.308615 -0.854956 0 0
    0 -68.691847 -21.969709 173.516142 -0.368033 -0.381300 -0.848034 0 0
  phy
    0 -68.691856 1.700257 137.412492 0.567415 0.581351 -0.583156 0 0
    0 -65.711455 5.921431 139.966800 -0.497162 -0.257547 0.828553 0 0
    0 -65.364988 1.700248 137.412473 0.180740 0.198025 0.963389 0 0
  phy
    0 -65.711455 5.921431 139.966800 -0.497162 -0.257547 0.828553 0 0
    0 -68.691856 1.700257 137.412492 0.567415 0.581351 -0.583156 0 0
    0 -68.691856 5.921451 139.966818 -0.416902 -0.308615 -0.854956 0 0
  phy
    0 -68.691847 -21.969709 173.516142 -0.368033 -0.381300 -0.848034 0 0
    0 -68.691847 -26.190910 170.961853 0.284232 0.147242 -0.947382 0 0
    0 -65.711455 -21.969716 173.516105 -0.399213 -0.409017 0.820570 0 0
  phy
    0 -68.691847 -26.190910 170.961853 0.284232 0.147242 -0.947382 0 0
    0 -68.691847 -21.969709 173.516142 -0.368033 -0.381300 -0.848034 0 0
    0 -68.691856 5.921451 139.966818 -0.416902 -0.308615 -0.854956 0 0
  phy
    0 -68.691856 1.700257 137.412492 0.567415 0.581351 -0.583156 0 0
    0 -65.364988 1.700248 137.412473 0.180740 0.198025 0.963389 0 0
    0 -65.364988 -26.190905 170.961816 0.635495 0.467373 0.614581 0 0
  phy
    0 -65.364988 -26.190905 170.961816 0.635495 0.467373 0.614581 0 0
    0 -68.691847 -26.190910 170.961853 0.284232 0.147242 -0.947382 0 0
    0 -68.691856 1.700257 137.412492 0.567415 0.581351 -0.583156 0 0
  phy
    0 -68.691856 1.700257 137.412492 0.567415 0.581351 -0.583156 0 0
    0 -68.691847 -26.190910 170.961853 0.284232 0.147242 -0.947382 0 0
    0 -68.691856 5.921451 139.966818 -0.416902 -0.308615 -0.854956 0 0
  phy
    0 -65.711455 -21.969716 173.516105 -0.399213 -0.409017 0.820570 0 0
    0 -68.691847 -26.190910 170.961853 0.284232 0.147242 -0.947382 0 0
    0 -65.364988 -26.190905 170.961816 0.635495 0.467373 0.614581 0 0
  phy
    0 -65.711455 -24.187112 102.318431 0.539784 -0.294807 0.788494 0 0
    0 -65.711460 2.335667 134.011648 0.392920 -0.410688 0.822769 0 0
    0 -68.691847 -24.187147 102.318441 0.437517 -0.326750 -0.837743 0 0
  phy
    0 -65.711460 2.335667 134.011648 0.392920 -0.410688 0.822769 0 0
    0 -68.691856 2.335633 134.011657 0.361045 -0.382139 -0.850656 0 0
    0 -68.691847 -24.187147 102.318441 0.437517 -0.326750 -0.837743 0 0
  phy
    0 -65.711455 -24.187112 102.318431 0.539784 -0.294807 0.788494 0 0
    0 -68.691847 -24.187147 102.318441 0.437517 -0.326750 -0.837743 0 0
    0 -68.691847 -21.632875 98.097249 -0.338179 0.447738 -0.827747 0 0
  phy
    0 -65.711455 -24.187112 102.318431 0.539784 -0.294807 0.788494 0 0
    0 -68.691847 -21.632875 98.097249 -0.338179 0.447738 -0.827747 0 0
    0 -65.364988 -21.632842 98.097249 -0.384182 0.365994 0.847616 0 0
  phy
    0 -65.364988 -21.632842 98.097249 -0.384182 0.365994 0.847616 0 0
    0 -65.711460 2.335667 134.011648 0.392920 -0.410688 0.822769 0 0
    0 -65.711455 -24.187112 102.318431 0.539784 -0.294807 0.788494 0 0
  phy
    0 -68.691847 -21.632875 98.097249 -0.338179 0.447738 -0.827747 0 0
    0 -68.691856 4.889951 129.790466 -0.494168 0.333670 -0.802784 0 0
    0 -65.364988 -21.632842 98.097249 -0.384182 0.365994 0.847616 0 0
  phy
    0 -65.364988 -21.632842 98.097249 -0.384182 0.365994 0.847616 0 0
    0 -68.691856 4.889951 129.790466 -0.494168 0.333670 -0.802784 0 0
    0 -65.364988 4.889982 129.790466 -0.467070 0.303701 0.830429 0 0
  phy
    0 -65.364988 -21.632842 98.097249 -0.384182 0.365994 0.847616 0 0
    0 -65.364988 4.889982 129.790466 -0.467070 0.303701 0.830429 0 0
    0 -65.711460 2.335667 134.011648 0.392920 -0.410688 0.822769 0 0
  phy
    0 -65.711460 2.335667 134.011648 0.392920 -0.410688 0.822769 0 0
    0 -65.364988 4.889982 129.790466 -0.467070 0.303701 0.830429 0 0
    0 -68.691856 4.889951 129.790466 -0.494168 0.333670 -0.802784 0 0
  phy
    0 -65.711460 2.335667 134.011648 0.392920 -0.410688 0.822769 0 0
    0 -68.691856 4.889951 129.790466 -0.494168 0.333670 -0.802784 0 0
    0 -68.691856 2.335633 134.011657 0.361045 -0.382139 -0.850656 0 0
  phy
    0 -68.691856 4.889951 129.790466 -0.494168 0.333670 -0.802784 0 0
    0 -68.691847 -21.632875 98.097249 -0.338179 0.447738 -0.827747 0 0
    0 -68.691847 -24.187147 102.318441 0.437517 -0.326750 -0.837743 0 0
  phy
    0 -68.691856 2.335633 134.011657 0.361045 -0.382139 -0.850656 0 0
    0 -68.691856 4.889951 129.790466 -0.494168 0.333670 -0.802784 0 0
    0 -68.691847 -24.187147 102.318441 0.437517 -0.326750 -0.837743 0 0
  phy
    0 -30.911377 17.315059 108.819487 -0.380768 -0.253910 -0.889127 0 0
    0 -30.911370 9.680136 97.369941 0.607548 0.409358 -0.680670 0 0
    0 -30.911370 9.680136 102.065295 0.746533 -0.626215 -0.224817 0 0
  phy
    0 -30.911370 9.680136 97.369941 0.607548 0.409358 -0.680670 0 0
    0 -30.911377 17.315059 108.819487 -0.380768 -0.253910 -0.889127 0 0
    0 -30.911377 17.315064 90.615796 -0.799640 0.212448 -0.561642 0 0
  phy
    0 -24.372044 9.680122 102.065285 0.864701 -0.414991 0.282976 0 0
    0 -30.911370 9.680136 102.065295 0.746533 -0.626215 -0.224817 0 0
    0 -30.911370 9.680136 97.369941 0.607548 0.409358 -0.680670 0 0
  phy
    0 -30.911370 9.680136 97.369941 0.607548 0.409358 -0.680670 0 0
    0 -24.025576 9.680122 97.369941 0.399126 0.239368 0.885100 0 0
    0 -24.372044 9.680122 102.065285 0.864701 -0.414991 0.282976 0 0
  phy
    0 -30.911370 9.680136 97.369941 0.607548 0.409358 -0.680670 0 0
    0 -30.911377 17.315064 90.615796 -0.799640 0.212448 -0.561642 0 0
    0 -24.025581 17.315064 90.615787 -0.196843 0.581927 0.789059 0 0
  phy
    0 -30.911370 9.680136 97.369941 0.607548 0.409358 -0.680670 0 0
    0 -24.025581 17.315064 90.615787 -0.196843 0.581927 0.789059 0 0
    0 -24.025576 9.680122 97.369941 0.399126 0.239368 0.885100 0 0
  phy
    0 -30.911370 9.680136 102.065295 0.746533 -0.626215 -0.224817 0 0
    0 -24.372037 17.315081 108.819505 -0.607548 -0.409358 0.680670 0 0
    0 -30.911377 17.315059 108.819487 -0.380768 -0.253910 -0.889127 0 0
  phy
    0 -30.911377 17.315064 90.615796 -0.799640 0.212448 -0.561642 0 0
    0 -30.911377 17.315059 108.819487 -0.380768 -0.253910 -0.889127 0 0
    0 -24.372037 17.315081 108.819505 -0.607548 -0.409358 0.680670 0 0
  phy
    0 -24.372044 9.680122 102.065285 0.864701 -0.414991 0.282976 0 0
    0 -24.372037 17.315081 108.819505 -0.607548 -0.409358 0.680670 0 0
    0 -30.911370 9.680136 102.065295 0.746533 -0.626215 -0.224817 0 0
  phy
    0 -24.025576 9.680122 97.369941 0.399126 0.239368 0.885100 0 0
    0 -24.372037 17.315081 108.819505 -0.607548 -0.409358 0.680670 0 0
    0 -24.372044 9.680122 102.065285 0.864701 -0.414991 0.282976 0 0
  phy
    0 -24.025581 17.315064 90.615787 -0.196843 0.581927 0.789059 0 0
    0 -30.911377 17.315064 90.615796 -0.799640 0.212448 -0.561642 0 0
    0 -24.372037 17.315081 108.819505 -0.607548 -0.409358 0.680670 0 0
  phy
    0 -24.025581 17.315064 90.615787 -0.196843 0.581927 0.789059 0 0
    0 -24.372037 17.315081 108.819505 -0.607548 -0.409358 0.680670 0 0
    0 -24.025576 9.680122 97.369941 0.399126 0.239368 0.885100 0 0
  phy
    0 100.520464 9.680130 97.369941 0.528512 0.421028 0.737164 0 0
    0 100.173997 9.680129 102.065285 0.816753 -0.544638 0.190483 0 0
    0 93.634664 9.680144 97.369951 0.864700 0.414991 -0.282979 0 0
  phy
    0 93.634664 9.680144 97.369951 0.864700 0.414991 -0.282979 0 0
    0 100.173997 9.680129 102.065285 0.816753 -0.544638 0.190483 0 0
    0 93.634664 9.680142 102.065295 0.380771 -0.253909 -0.889125 0 0
  phy
    0 93.634664 9.680144 97.369951 0.864700 0.414991 -0.282979 0 0
    0 93.634664 9.680142 102.065295 0.380771 -0.253909 -0.889125 0 0
    0 93.634654 17.315071 90.615796 -0.595861 0.413895 -0.688216 0 0
  phy
    0 100.520464 9.680130 97.369941 0.528512 0.421028 0.737164 0 0
    0 93.634664 9.680144 97.369951 0.864700 0.414991 -0.282979 0 0
    0 93.634654 17.315071 90.615796 -0.595861 0.413895 -0.688216 0 0
  phy
    0 100.173997 9.680129 102.065285 0.816753 -0.544638 0.190483 0 0
    0 93.634654 17.315048 108.819468 -0.176594 -0.574313 -0.799362 0 0
    0 93.634664 9.680142 102.065295 0.380771 -0.253909 -0.889125 0 0
  phy
    0 100.173997 9.680129 102.065285 0.816753 -0.544638 0.190483 0 0
    0 100.173997 17.315065 108.819487 -0.737501 -0.203394 0.643990 0 0
    0 93.634654 17.315048 108.819468 -0.176594 -0.574313 -0.799362 0 0
  phy
    0 93.634664 9.680142 102.065295 0.380771 -0.253909 -0.889125 0 0
    0 93.634654 17.315048 108.819468 -0.176594 -0.574313 -0.799362 0 0
    0 93.634654 17.315071 90.615796 -0.595861 0.413895 -0.688216 0 0
  phy
    0 100.520464 9.680130 97.369941 0.528512 0.421028 0.737164 0 0
    0 93.634654 17.315071 90.615796 -0.595861 0.413895 -0.688216 0 0
    0 100.520455 17.315088 90.615759 -0.481716 0.296268 0.824727 0 0
  phy
    0 100.173997 17.315065 108.819487 -0.737501 -0.203394 0.643990 0 0
    0 100.173997 9.680129 102.065285 0.816753 -0.544638 0.190483 0 0
    0 100.520464 9.680130 97.369941 0.528512 0.421028 0.737164 0 0
  phy
    0 100.520464 9.680130 97.369941 0.528512 0.421028 0.737164 0 0
    0 100.520455 17.315088 90.615759 -0.481716 0.296268 0.824727 0 0
    0 100.173997 17.315065 108.819487 -0.737501 -0.203394 0.643990 0 0
  phy
    0 93.634654 17.315048 108.819468 -0.176594 -0.574313 -0.799362 0 0
    0 100.173997 17.315065 108.819487 -0.737501 -0.203394 0.643990 0 0
    0 93.634654 17.315071 90.615796 -0.595861 0.413895 -0.688216 0 0
  phy
    0 93.634654 17.315071 90.615796 -0.595861 0.413895 -0.688216 0 0
    0 100.173997 17.315065 108.819487 -0.737501 -0.203394 0.643990 0 0
    0 100.520455 17.315088 90.615759 -0.481716 0.296268 0.824727 0 0
end
