// Created by Crowbar 0.74
version 1
nodes
  0 "static_prop" -1
end
skeleton
  time 0
    0 0.000000 0.000000 0.000000 0.000000 0.000000 0.000000
end
triangles
  phy
    0 57.609185 -45.355249 25.575492 0.126927 -0.990704 0.048931 0 0
    0 63.186776 0.091086 24.104721 0.000000 -0.407275 0.913306 0 0
    0 53.874005 0.091085 28.227812 0.000000 -0.995935 0.090070 0 0
  phy
    0 53.874005 0.091085 28.227812 0.000000 -0.995935 0.090070 0 0
    0 63.186776 0.091086 24.104721 0.000000 -0.407275 0.913306 0 0
    0 57.609175 45.537414 25.575497 -0.126927 -0.990704 0.048931 0 0
  phy
    0 53.874005 0.091085 28.227812 0.000000 -0.995935 0.090070 0 0
    0 1.336745 0.091083 29.698265 0.000000 -0.999947 -0.010284 0 0
    0 57.609185 -45.355249 25.575492 0.126927 -0.990704 0.048931 0 0
  phy
    0 57.609175 45.537414 25.575497 -0.126927 -0.990704 0.048931 0 0
    0 1.336745 0.091083 29.698265 0.000000 -0.999947 -0.010284 0 0
    0 53.874005 0.091085 28.227812 0.000000 -0.995935 0.090070 0 0
  phy
    0 1.336745 0.091083 29.698265 0.000000 -0.999947 -0.010284 0 0
    0 -60.283575 49.155674 25.011820 -0.547657 -0.725191 -0.417337 0 0
    0 -60.283570 0.091080 26.254438 0.000000 -0.997120 -0.075835 0 0
  phy
    0 -60.283570 0.091080 26.254438 0.000000 -0.997120 -0.075835 0 0
    0 -60.283565 -48.973513 25.011815 0.404253 -0.875170 -0.265813 0 0
    0 1.336745 0.091083 29.698265 0.000000 -0.999947 -0.010284 0 0
  phy
    0 -60.283570 0.091080 26.254438 0.000000 -0.997120 -0.075835 0 0
    0 -60.283575 49.155674 25.011820 -0.547657 -0.725191 -0.417337 0 0
    0 -60.283565 -48.973513 25.011815 0.404253 -0.875170 -0.265813 0 0
  phy
    0 57.609185 -45.355249 25.575492 0.126927 -0.990704 0.048931 0 0
    0 63.186776 -48.973509 21.452399 0.974063 -0.112438 0.196364 0 0
    0 63.186776 0.091086 24.104721 0.000000 -0.407275 0.913306 0 0
  phy
    0 1.336745 0.091083 29.698265 0.000000 -0.999947 -0.010284 0 0
    0 -60.283565 -48.973513 25.011815 0.404253 -0.875170 -0.265813 0 0
    0 57.609185 -45.355249 25.575492 0.126927 -0.990704 0.048931 0 0
  phy
    0 57.609185 -45.355249 25.575492 0.126927 -0.990704 0.048931 0 0
    0 -60.283565 -48.973513 25.011815 0.404253 -0.875170 -0.265813 0 0
    0 63.186776 -48.973509 21.452399 0.974063 -0.112438 0.196364 0 0
  phy
    0 63.186776 0.091086 24.104721 0.000000 -0.407275 0.913306 0 0
    0 63.186771 49.155683 21.452404 -0.649140 -0.148330 0.746067 0 0
    0 57.609175 45.537414 25.575497 -0.126927 -0.990704 0.048931 0 0
  phy
    0 57.609175 45.537414 25.575497 -0.126927 -0.990704 0.048931 0 0
    0 -60.283575 49.155674 25.011820 -0.547657 -0.725191 -0.417337 0 0
    0 1.336745 0.091083 29.698265 0.000000 -0.999947 -0.010284 0 0
  phy
    0 -60.283575 49.155674 25.011820 -0.547657 -0.725191 -0.417337 0 0
    0 57.609175 45.537414 25.575497 -0.126927 -0.990704 0.048931 0 0
    0 63.186771 49.155683 21.452404 -0.649140 -0.148330 0.746067 0 0
  phy
    0 63.186776 0.091086 24.104721 0.000000 -0.407275 0.913306 0 0
    0 63.186776 -48.973509 21.452399 0.974063 -0.112438 0.196364 0 0
    0 63.186776 -48.973504 -0.000002 0.200916 0.919044 0.339102 0 0
  phy
    0 63.186776 -48.973504 -0.000002 0.200916 0.919044 0.339102 0 0
    0 63.186771 49.155683 21.452404 -0.649140 -0.148330 0.746067 0 0
    0 63.186776 0.091086 24.104721 0.000000 -0.407275 0.913306 0 0
  phy
    0 63.186771 49.155683 0.000002 -0.229563 0.969642 0.084235 0 0
    0 63.186776 -48.973504 -0.000002 0.200916 0.919044 0.339102 0 0
    0 -60.283565 -48.973513 -0.000002 0.226032 0.954728 -0.193402 0 0
  phy
    0 63.186771 49.155683 0.000002 -0.229563 0.969642 0.084235 0 0
    0 -60.283565 -48.973513 -0.000002 0.226032 0.954728 -0.193402 0 0
    0 -60.283575 49.155674 0.000002 -0.242364 0.950871 -0.192621 0 0
  phy
    0 63.186771 49.155683 0.000002 -0.229563 0.969642 0.084235 0 0
    0 -60.283575 49.155674 0.000002 -0.242364 0.950871 -0.192621 0 0
    0 -60.283575 49.155674 25.011820 -0.547657 -0.725191 -0.417337 0 0
  phy
    0 63.186771 49.155683 0.000002 -0.229563 0.969642 0.084235 0 0
    0 -60.283575 49.155674 25.011820 -0.547657 -0.725191 -0.417337 0 0
    0 63.186771 49.155683 21.452404 -0.649140 -0.148330 0.746067 0 0
  phy
    0 63.186771 49.155683 0.000002 -0.229563 0.969642 0.084235 0 0
    0 63.186771 49.155683 21.452404 -0.649140 -0.148330 0.746067 0 0
    0 63.186776 -48.973504 -0.000002 0.200916 0.919044 0.339102 0 0
  phy
    0 -60.283575 49.155674 25.011820 -0.547657 -0.725191 -0.417337 0 0
    0 -60.283575 49.155674 0.000002 -0.242364 0.950871 -0.192621 0 0
    0 -60.283565 -48.973513 -0.000002 0.226032 0.954728 -0.193402 0 0
  phy
    0 63.186776 -48.973509 21.452399 0.974063 -0.112438 0.196364 0 0
    0 -60.283565 -48.973513 -0.000002 0.226032 0.954728 -0.193402 0 0
    0 63.186776 -48.973504 -0.000002 0.200916 0.919044 0.339102 0 0
  phy
    0 -60.283565 -48.973513 25.011815 0.404253 -0.875170 -0.265813 0 0
    0 -60.283575 49.155674 25.011820 -0.547657 -0.725191 -0.417337 0 0
    0 -60.283565 -48.973513 -0.000002 0.226032 0.954728 -0.193402 0 0
  phy
    0 -60.283565 -48.973513 25.011815 0.404253 -0.875170 -0.265813 0 0
    0 -60.283565 -48.973513 -0.000002 0.226032 0.954728 -0.193402 0 0
    0 63.186776 -48.973509 21.452399 0.974063 -0.112438 0.196364 0 0
end
