// Created by Crowbar 0.74
version 1
nodes
  0 "static_prop" -1
end
skeleton
  time 0
    0 0.000000 0.000000 0.000000 0.000000 0.000000 0.000000
end
triangles
bed_01_old
  0 -38.931591 48.468079 17.433706 -0.869424 -0.432886 -0.238143 0.012114 0.525785 1 0 1.000000
  0 -38.919117 49.051548 16.327553 -0.869424 -0.432886 -0.238143 0.004518 0.522100 1 0 1.000000
  0 -38.343208 47.894871 16.327574 -0.869424 -0.432886 -0.238143 0.004518 0.529405 1 0 1.000000
bed_01_old
  0 -60.457424 46.785427 17.429300 -0.876475 0.233814 -0.420858 0.104592 0.647968 1 0 1.000000
  0 -60.457417 -46.657600 17.429296 -0.886597 -0.186165 -0.423424 0.104318 0.242002 1 0 1.000000
  0 -60.457424 46.796547 24.338451 -0.862729 0.233552 0.448499 0.146740 0.642426 1 0 1.000000
bed_01_old
  0 -59.025150 47.497173 16.327574 -0.430303 0.543556 -0.720684 0.098352 0.644155 1 0 1.000000
  0 -60.457417 -46.657600 17.429296 -0.886597 -0.186165 -0.423424 0.104318 0.242002 1 0 1.000000
  0 -60.457424 46.785427 17.429300 -0.876475 0.233814 -0.420858 0.104592 0.647968 1 0 1.000000
bed_01_old
  0 -59.064323 -47.483349 16.327570 -0.417098 -0.543780 -0.728239 0.098675 0.238379 1 0 1.000000
  0 -60.457417 -46.657600 17.429296 -0.886597 -0.186165 -0.423424 0.104318 0.242002 1 0 1.000000
  0 -59.025150 47.497173 16.327574 -0.430303 0.543556 -0.720684 0.098352 0.644155 1 0 1.000000
bed_01_old
  0 -59.019321 -47.109127 25.404482 -0.327344 -0.251509 0.910818 0.148730 0.240269 1 0 1.000000
  0 -60.457417 -46.668716 24.338448 -0.869743 -0.185404 0.457353 0.142611 0.242199 1 0 1.000000
  0 -59.012623 -47.122494 25.392391 -0.252701 -0.578465 0.775578 0.148646 0.240159 1 0 1.000000
bed_01_old
  0 -60.457417 -46.668716 24.338448 -0.869743 -0.185404 0.457353 0.142611 0.242199 1 0 1.000000
  0 -59.840107 -48.115860 24.321257 -0.535591 -0.706809 0.462130 0.143691 0.235017 1 0 1.000000
  0 -59.012623 -47.122494 25.392391 -0.252701 -0.578465 0.775578 0.148646 0.240159 1 0 1.000000
bed_01_old
  0 -59.012623 -47.122494 25.392391 -0.252701 -0.578465 0.775578 0.148646 0.240159 1 0 1.000000
  0 -59.840107 -48.115860 24.321257 -0.535591 -0.706809 0.462130 0.143691 0.235017 1 0 1.000000
  0 -58.411903 -48.320835 24.308620 -0.064937 -0.904301 0.421928 0.144203 0.229736 1 0 1.000000
bed_01_old
  0 -59.840107 -48.115860 24.321257 -0.535591 -0.706809 0.462130 0.143691 0.235017 1 0 1.000000
  0 -59.842506 -48.120365 17.431829 -0.561571 -0.737064 -0.375999 0.103627 0.234573 1 0 1.000000
  0 -58.411903 -48.320835 24.308620 -0.064937 -0.904301 0.421928 0.144203 0.229736 1 0 1.000000
bed_01_old
  0 -58.411903 -48.320835 24.308620 -0.064937 -0.904301 0.421928 0.144203 0.229736 1 0 1.000000
  0 -59.842506 -48.120365 17.431829 -0.561571 -0.737064 -0.375999 0.103627 0.234573 1 0 1.000000
  0 -58.411903 -48.340237 17.433702 -0.072780 -0.952346 -0.296210 0.103400 0.229088 1 0 1.000000
bed_01_old
  0 -58.411903 -48.340237 17.433702 -0.072780 -0.952346 -0.296210 0.103400 0.229088 1 0 1.000000
  0 -59.842506 -48.120365 17.431829 -0.561571 -0.737064 -0.375999 0.103627 0.234573 1 0 1.000000
  0 -59.064323 -47.483349 16.327570 -0.417098 -0.543780 -0.728239 0.096138 0.236474 1 0 1.000000
bed_01_old
  0 -59.064323 -47.483349 16.327570 -0.417098 -0.543780 -0.728239 0.096138 0.236474 1 0 1.000000
  0 -59.842506 -48.120365 17.431829 -0.561571 -0.737064 -0.375999 0.103627 0.234573 1 0 1.000000
  0 -60.457417 -46.657600 17.429296 -0.886597 -0.186165 -0.423424 0.104318 0.242002 1 0 1.000000
bed_01_old
  0 -59.842506 -48.120365 17.431829 -0.561571 -0.737064 -0.375999 0.103627 0.234573 1 0 1.000000
  0 -59.840107 -48.115860 24.321257 -0.535591 -0.706809 0.462130 0.143691 0.235017 1 0 1.000000
  0 -60.457417 -46.657600 17.429296 -0.886597 -0.186165 -0.423424 0.104318 0.242002 1 0 1.000000
bed_01_old
  0 -60.457417 -46.657600 17.429296 -0.886597 -0.186165 -0.423424 0.104318 0.242002 1 0 1.000000
  0 -59.840107 -48.115860 24.321257 -0.535591 -0.706809 0.462130 0.143691 0.235017 1 0 1.000000
  0 -60.457417 -46.668716 24.338448 -0.869743 -0.185404 0.457353 0.142611 0.242199 1 0 1.000000
bed_01_old
  0 -60.457424 46.796547 24.338451 -0.862729 0.233552 0.448499 0.146740 0.642426 1 0 1.000000
  0 -60.457417 -46.657600 17.429296 -0.886597 -0.186165 -0.423424 0.104318 0.242002 1 0 1.000000
  0 -60.457417 -46.668716 24.338448 -0.869743 -0.185404 0.457353 0.142611 0.242199 1 0 1.000000
bed_01_old
  0 -60.457424 46.796547 24.338451 -0.862729 0.233552 0.448499 0.146740 0.642426 1 0 1.000000
  0 -60.457417 -46.668716 24.338448 -0.869743 -0.185404 0.457353 0.142611 0.242199 1 0 1.000000
  0 -59.019329 47.236958 25.404486 -0.327204 0.272942 0.904677 0.152973 0.650004 1 0 1.000000
bed_01_old
  0 -59.019329 47.236958 25.404486 -0.327204 0.272942 0.904677 0.152973 0.650004 1 0 1.000000
  0 -60.457417 -46.668716 24.338448 -0.869743 -0.185404 0.457353 0.142611 0.242199 1 0 1.000000
  0 -59.019321 -47.109127 25.404482 -0.327344 -0.251509 0.910818 0.148485 0.240325 1 0 1.000000
bed_01_old
  0 -59.019329 47.236958 25.404486 -0.327204 0.272942 0.904677 0.152973 0.650004 1 0 1.000000
  0 -59.019321 -47.109127 25.404482 -0.327344 -0.251509 0.910818 0.148485 0.240325 1 0 1.000000
  0 -38.931591 47.236958 25.404486 -0.316243 0.225463 0.921497 0.233069 0.650567 1 0 1.000000
bed_01_old
  0 -38.931591 47.236958 25.404486 -0.316243 0.225463 0.921497 0.233069 0.650567 1 0 1.000000
  0 -59.019321 -47.109127 25.404482 -0.327344 -0.251509 0.910818 0.148485 0.240325 1 0 1.000000
  0 -38.931583 -47.109127 25.404482 -0.316243 -0.225463 0.921497 0.235712 0.240888 1 0 1.000000
bed_01_old
  0 -38.343201 -47.767033 16.327570 -0.005927 -0.839871 -0.542753 0.238382 0.185528 1 0 1.000000
  0 -58.411903 -48.340237 17.433702 -0.072780 -0.952346 -0.296210 0.154128 0.192452 1 0 1.000000
  0 -59.064323 -47.483349 16.327570 -0.417098 -0.543780 -0.728239 0.154101 0.185450 1 0 1.000000
bed_01_old
  0 -38.931583 -48.340237 17.433702 -0.003302 -0.957054 -0.289891 0.235722 0.192541 1 0 1.000000
  0 -58.411903 -48.340237 17.433702 -0.072780 -0.952346 -0.296210 0.154128 0.192452 1 0 1.000000
  0 -38.343201 -47.767033 16.327570 -0.005927 -0.839871 -0.542753 0.238382 0.185528 1 0 1.000000
bed_01_old
  0 -38.931583 -48.340237 17.433702 -0.003302 -0.957054 -0.289891 0.235722 0.192541 1 0 1.000000
  0 -58.411903 -48.320835 24.308620 -0.064937 -0.904301 0.421928 0.151472 0.230793 1 0 1.000000
  0 -58.411903 -48.340237 17.433702 -0.072780 -0.952346 -0.296210 0.154128 0.192452 1 0 1.000000
bed_01_old
  0 -38.932377 -48.330360 24.343037 -0.000596 -0.900911 0.434003 0.235705 0.231950 1 0 1.000000
  0 -58.411903 -48.320835 24.308620 -0.064937 -0.904301 0.421928 0.151472 0.230793 1 0 1.000000
  0 -38.931583 -48.340237 17.433702 -0.003302 -0.957054 -0.289891 0.235722 0.192541 1 0 1.000000
bed_01_old
  0 -59.012623 -47.122494 25.392391 -0.252701 -0.578465 0.775578 0.148760 0.240170 1 0 1.000000
  0 -58.411903 -48.320835 24.308620 -0.064937 -0.904301 0.421928 0.151472 0.230793 1 0 1.000000
  0 -38.932377 -48.330360 24.343037 -0.000596 -0.900911 0.434003 0.235705 0.231950 1 0 1.000000
bed_01_old
  0 -38.931583 -47.109127 25.404482 -0.316243 -0.225463 0.921497 0.235689 0.240742 1 0 1.000000
  0 -59.012623 -47.122494 25.392391 -0.252701 -0.578465 0.775578 0.148760 0.240170 1 0 1.000000
  0 -38.932377 -48.330360 24.343037 -0.000596 -0.900911 0.434003 0.235705 0.231950 1 0 1.000000
bed_01_old
  0 -59.019321 -47.109127 25.404482 -0.327344 -0.251509 0.910818 0.148730 0.240269 1 0 1.000000
  0 -59.012623 -47.122494 25.392391 -0.252701 -0.578465 0.775578 0.148760 0.240170 1 0 1.000000
  0 -38.931583 -47.109127 25.404482 -0.316243 -0.225463 0.921497 0.235689 0.240742 1 0 1.000000
bed_01_old
  0 -59.064323 -47.483349 16.327570 0.000004 -0.000012 1.000000 0.162983 0.020073 1 0 1.000000
  0 -60.109219 -48.701633 16.327557 0.000004 -0.000012 1.000000 0.146057 0.004844 1 0 1.000000
  0 -58.864971 -48.923710 16.327549 0.000004 -0.000012 1.000000 0.146090 0.002641 1 0 1.000000
bed_01_old
  0 -60.109219 -48.701633 16.327557 0.000004 -0.000012 1.000000 0.146057 0.004844 1 0 1.000000
  0 -59.064323 -47.483349 16.327570 0.000004 -0.000012 1.000000 0.162983 0.020073 1 0 1.000000
  0 -60.500748 -47.777588 16.327566 0.000000 -0.000011 1.000000 0.146023 0.007108 1 0 1.000000
bed_01_old
  0 -59.025150 47.497173 16.327574 0.000004 0.000012 1.000000 0.162980 0.020094 1 0 1.000000
  0 -60.043171 48.684254 16.327562 0.000004 0.000012 1.000000 0.146054 0.005029 1 0 1.000000
  0 -60.500755 47.905418 16.327570 0.000000 0.000007 1.000000 0.146023 0.007108 1 0 1.000000
bed_01_old
  0 -59.025150 47.497173 16.327574 0.000004 0.000012 1.000000 0.162980 0.020094 1 0 1.000000
  0 -58.864979 49.051548 16.327553 0.000004 0.000012 1.000000 0.146090 0.002641 1 0 1.000000
  0 -60.043171 48.684254 16.327562 0.000004 0.000012 1.000000 0.146054 0.005029 1 0 1.000000
bed_01_old
  0 -37.123459 -51.622257 22.865383 -0.584623 -0.687567 0.430659 0.274949 0.831065 1 0 1.000000
  0 -38.069904 -48.206059 25.693409 -0.825571 -0.285117 0.486971 0.268985 0.801046 1 0 1.000000
  0 -37.550880 -50.724522 22.402615 -0.908523 -0.356652 0.217679 0.268730 0.828278 1 0 1.000000
bed_01_old
  0 -37.123459 -48.523151 26.383947 -0.523615 -0.422086 0.740048 0.276322 0.800420 1 0 1.000000
  0 -38.069904 -48.206059 25.693409 -0.825571 -0.285117 0.486971 0.268985 0.801046 1 0 1.000000
  0 -37.123459 -51.622257 22.865383 -0.584623 -0.687567 0.430659 0.274949 0.831065 1 0 1.000000
bed_01_old
  0 -37.123459 -48.523151 26.383947 -0.523615 -0.422086 0.740048 0.276322 0.800420 1 0 1.000000
  0 -37.600079 -44.939457 25.941929 -0.932751 0.004343 0.360496 0.269193 0.780629 1 0 1.000000
  0 -38.069904 -48.206059 25.693409 -0.825571 -0.285117 0.486971 0.268985 0.801046 1 0 1.000000
bed_01_old
  0 -37.123459 -56.966373 9.283135 -0.691036 -0.673863 0.261491 0.272984 0.920421 1 0 1.000000
  0 -37.550880 -50.724522 22.402615 -0.908523 -0.356652 0.217679 0.268730 0.828278 1 0 1.000000
  0 -37.310749 -54.405846 8.905384 -0.985392 -0.163993 0.045920 0.259848 0.932656 1 0 1.000000
bed_01_old
  0 -37.123459 -51.622257 22.865383 -0.584623 -0.687567 0.430659 0.274949 0.831065 1 0 1.000000
  0 -37.550880 -50.724522 22.402615 -0.908523 -0.356652 0.217679 0.268730 0.828278 1 0 1.000000
  0 -37.123459 -56.966373 9.283135 -0.691036 -0.673863 0.261491 0.272984 0.920421 1 0 1.000000
bed_01_old
  0 -27.321632 -57.982464 11.000204 -0.089605 -0.919037 0.383850 0.326611 0.917095 1 0 1.000000
  0 -37.123459 -51.622257 22.865383 -0.584623 -0.687567 0.430659 0.274949 0.831065 1 0 1.000000
  0 -37.123459 -56.966373 9.283135 -0.691036 -0.673863 0.261491 0.272984 0.920421 1 0 1.000000
bed_01_old
  0 -31.840984 -51.918625 23.718468 -0.085208 -0.830227 0.550875 0.305579 0.829015 1 0 1.000000
  0 -37.123459 -51.622257 22.865383 -0.584623 -0.687567 0.430659 0.274949 0.831065 1 0 1.000000
  0 -27.321632 -57.982464 11.000204 -0.089605 -0.919037 0.383850 0.326611 0.917095 1 0 1.000000
bed_01_old
  0 -31.840984 -51.918625 23.718468 -0.085208 -0.830227 0.550875 0.305579 0.829015 1 0 1.000000
  0 -37.123459 -48.523151 26.383947 -0.523615 -0.422086 0.740048 0.276322 0.800420 1 0 1.000000
  0 -37.123459 -51.622257 22.865383 -0.584623 -0.687567 0.430659 0.274949 0.831065 1 0 1.000000
bed_01_old
  0 -31.840984 -48.597363 27.355011 -0.082820 -0.474785 0.876196 0.307464 0.797007 1 0 1.000000
  0 -37.123459 -48.523151 26.383947 -0.523615 -0.422086 0.740048 0.276322 0.800420 1 0 1.000000
  0 -31.840984 -51.918625 23.718468 -0.085208 -0.830227 0.550875 0.305579 0.829015 1 0 1.000000
bed_01_old
  0 -31.840984 -48.597363 27.355011 -0.082820 -0.474785 0.876196 0.307464 0.797007 1 0 1.000000
  0 -37.123459 -44.266998 27.342844 -0.607609 -0.097036 0.788286 0.278059 0.773422 1 0 1.000000
  0 -37.123459 -48.523151 26.383947 -0.523615 -0.422086 0.740048 0.276322 0.800420 1 0 1.000000
bed_01_old
  0 -37.123459 -44.266998 27.342844 -0.607609 -0.097036 0.788286 0.278059 0.773422 1 0 1.000000
  0 -37.600079 -44.939457 25.941929 -0.932751 0.004343 0.360496 0.269193 0.780629 1 0 1.000000
  0 -37.123459 -48.523151 26.383947 -0.523615 -0.422086 0.740048 0.276322 0.800420 1 0 1.000000
bed_01_old
  0 -37.123459 -44.266998 27.342844 -0.607609 -0.097036 0.788286 0.278059 0.773422 1 0 1.000000
  0 -36.127068 -23.818008 26.944477 -0.996592 0.041772 0.071129 0.274665 0.640504 1 0 1.000000
  0 -37.600079 -44.939457 25.941929 -0.932751 0.004343 0.360496 0.269193 0.780629 1 0 1.000000
bed_01_old
  0 -31.840984 -48.597363 27.355011 -0.082820 -0.474785 0.876196 0.307464 0.797007 1 0 1.000000
  0 -31.840984 -51.918625 23.718468 -0.085208 -0.830227 0.550875 0.305579 0.829015 1 0 1.000000
  0 -21.321365 -48.682804 27.145708 0.161650 -0.454216 0.876103 0.366452 0.803377 1 0 1.000000
bed_01_old
  0 -21.321365 -48.682804 27.145708 0.161650 -0.454216 0.876103 0.366452 0.803377 1 0 1.000000
  0 -31.840984 -51.918625 23.718468 -0.085208 -0.830227 0.550875 0.305579 0.829015 1 0 1.000000
  0 -21.321365 -52.915756 23.373341 0.144059 -0.812799 0.564451 0.364078 0.839787 1 0 1.000000
bed_01_old
  0 -31.840984 -51.918625 23.718468 -0.085208 -0.830227 0.550875 0.305579 0.829015 1 0 1.000000
  0 -27.321632 -57.982464 11.000204 -0.089605 -0.919037 0.383850 0.326611 0.917095 1 0 1.000000
  0 -21.321365 -52.915756 23.373341 0.144059 -0.812799 0.564451 0.364078 0.839787 1 0 1.000000
bed_01_old
  0 -21.321365 -52.915756 23.373341 0.144059 -0.812799 0.564451 0.364078 0.839787 1 0 1.000000
  0 -27.321632 -57.982464 11.000204 -0.089605 -0.919037 0.383850 0.326611 0.917095 1 0 1.000000
  0 -21.321365 -57.603931 11.403716 0.195839 -0.968206 -0.155642 0.358479 0.926677 1 0 1.000000
bed_01_old
  0 -17.270306 -55.841347 12.451707 0.751339 -0.640817 -0.157619 0.381510 0.919435 1 0 1.000000
  0 -21.321365 -52.915756 23.373341 0.144059 -0.812799 0.564451 0.364078 0.839787 1 0 1.000000
  0 -21.321365 -57.603931 11.403716 0.195839 -0.968206 -0.155642 0.358479 0.926677 1 0 1.000000
bed_01_old
  0 -16.859818 -51.687943 22.395124 0.880568 -0.399350 0.255185 0.390671 0.842773 1 0 1.000000
  0 -21.321365 -52.915756 23.373341 0.144059 -0.812799 0.564451 0.364078 0.839787 1 0 1.000000
  0 -17.270306 -55.841347 12.451707 0.751339 -0.640817 -0.157619 0.381510 0.919435 1 0 1.000000
bed_01_old
  0 -16.859818 -48.375328 25.678720 0.901036 -0.184741 0.392434 0.392609 0.811482 1 0 1.000000
  0 -21.321365 -52.915756 23.373341 0.144059 -0.812799 0.564451 0.364078 0.839787 1 0 1.000000
  0 -16.859818 -51.687943 22.395124 0.880568 -0.399350 0.255185 0.390671 0.842773 1 0 1.000000
bed_01_old
  0 -21.321365 -48.682804 27.145708 0.161650 -0.454216 0.876103 0.366452 0.803377 1 0 1.000000
  0 -21.321365 -52.915756 23.373341 0.144059 -0.812799 0.564451 0.364078 0.839787 1 0 1.000000
  0 -16.859818 -48.375328 25.678720 0.901036 -0.184741 0.392434 0.392609 0.811482 1 0 1.000000
bed_01_old
  0 -16.859818 -44.266994 26.624632 0.891490 -0.105089 0.440684 0.397186 0.785552 1 0 1.000000
  0 -21.321365 -48.682804 27.145708 0.161650 -0.454216 0.876103 0.366452 0.803377 1 0 1.000000
  0 -16.859818 -48.375328 25.678720 0.901036 -0.184741 0.392434 0.392609 0.811482 1 0 1.000000
bed_01_old
  0 -21.321365 -44.266998 28.118628 0.182722 -0.180180 0.966513 0.371447 0.776168 1 0 1.000000
  0 -21.321365 -48.682804 27.145708 0.161650 -0.454216 0.876103 0.366452 0.803377 1 0 1.000000
  0 -16.859818 -44.266994 26.624632 0.891490 -0.105089 0.440684 0.397186 0.785552 1 0 1.000000
bed_01_old
  0 -21.321365 -44.266998 28.118628 0.182722 -0.180180 0.966513 0.371447 0.776168 1 0 1.000000
  0 -31.840984 -48.597363 27.355011 -0.082820 -0.474785 0.876196 0.307464 0.797007 1 0 1.000000
  0 -21.321365 -48.682804 27.145708 0.161650 -0.454216 0.876103 0.366452 0.803377 1 0 1.000000
bed_01_old
  0 -31.840984 -44.266998 28.320429 -0.097991 -0.169260 0.980688 0.309072 0.770648 1 0 1.000000
  0 -31.840984 -48.597363 27.355011 -0.082820 -0.474785 0.876196 0.307464 0.797007 1 0 1.000000
  0 -21.321365 -44.266998 28.118628 0.182722 -0.180180 0.966513 0.371447 0.776168 1 0 1.000000
bed_01_old
  0 -31.840984 -44.266998 28.320429 -0.097991 -0.169260 0.980688 0.309072 0.770648 1 0 1.000000
  0 -37.123459 -44.266998 27.342844 -0.607609 -0.097036 0.788286 0.278059 0.773422 1 0 1.000000
  0 -31.840984 -48.597363 27.355011 -0.082820 -0.474785 0.876196 0.307464 0.797007 1 0 1.000000
bed_01_old
  0 -31.840984 -44.266998 28.320429 -0.097991 -0.169260 0.980688 0.309072 0.770648 1 0 1.000000
  0 -36.100391 -23.818010 29.435007 -0.725854 -0.025435 0.687379 0.290966 0.646115 1 0 1.000000
  0 -37.123459 -44.266998 27.342844 -0.607609 -0.097036 0.788286 0.278059 0.773422 1 0 1.000000
bed_01_old
  0 -36.100391 -23.818010 29.435007 -0.725854 -0.025435 0.687379 0.290966 0.646115 1 0 1.000000
  0 -36.127068 -23.818008 26.944477 -0.996592 0.041772 0.071129 0.274665 0.640504 1 0 1.000000
  0 -37.123459 -44.266998 27.342844 -0.607609 -0.097036 0.788286 0.278059 0.773422 1 0 1.000000
bed_01_old
  0 -36.127068 -23.818008 26.944477 -0.996592 0.041772 0.071129 0.274665 0.640504 1 0 1.000000
  0 -36.100391 -23.818010 29.435007 -0.725854 -0.025435 0.687379 0.290966 0.646115 1 0 1.000000
  0 -35.372982 0.063922 26.943796 -0.999776 -0.000208 0.021178 0.272535 0.488536 1 0 1.000000
bed_01_old
  0 -35.372982 0.063922 26.943796 -0.999776 -0.000208 0.021178 0.272535 0.488536 1 0 1.000000
  0 -36.100391 -23.818010 29.435007 -0.725854 -0.025435 0.687379 0.290966 0.646115 1 0 1.000000
  0 -35.258450 0.063922 30.731449 -0.750972 -0.011327 0.660237 0.292194 0.494565 1 0 1.000000
bed_01_old
  0 -36.100391 23.945850 30.261560 -0.729983 0.027313 0.682920 0.280627 0.342126 1 0 1.000000
  0 -35.372982 0.063922 26.943796 -0.999776 -0.000208 0.021178 0.272535 0.488536 1 0 1.000000
  0 -35.258450 0.063922 30.731449 -0.750972 -0.011327 0.660237 0.292194 0.494565 1 0 1.000000
bed_01_old
  0 -21.321365 -44.266998 28.118628 0.182722 -0.180180 0.966513 0.371447 0.776168 1 0 1.000000
  0 -30.817905 -23.818008 31.035862 -0.135817 -0.086504 0.986950 0.321683 0.643539 1 0 1.000000
  0 -31.840984 -44.266998 28.320429 -0.097991 -0.169260 0.980688 0.309072 0.770648 1 0 1.000000
bed_01_old
  0 -30.817905 -23.818008 31.035862 -0.135817 -0.086504 0.986950 0.321683 0.643539 1 0 1.000000
  0 -36.100391 -23.818010 29.435007 -0.725854 -0.025435 0.687379 0.290966 0.646115 1 0 1.000000
  0 -31.840984 -44.266998 28.320429 -0.097991 -0.169260 0.980688 0.309072 0.770648 1 0 1.000000
bed_01_old
  0 -36.100391 -23.818010 29.435007 -0.725854 -0.025435 0.687379 0.290966 0.646115 1 0 1.000000
  0 -30.817905 -23.818008 31.035862 -0.135817 -0.086504 0.986950 0.321683 0.643539 1 0 1.000000
  0 -35.258450 0.063922 30.731449 -0.750972 -0.011327 0.660237 0.292194 0.494565 1 0 1.000000
bed_01_old
  0 -37.123466 57.094219 9.283141 -0.702661 0.660773 0.263906 0.266207 0.065365 1 0 1.000000
  0 -37.123466 51.750088 22.865387 -0.590988 0.681826 0.431099 0.256914 0.153064 1 0 1.000000
  0 -27.321636 58.110317 12.241805 -0.089927 0.911907 0.400424 0.320286 0.077019 1 0 1.000000
bed_01_old
  0 -27.321636 58.110317 12.241805 -0.089927 0.911907 0.400424 0.320286 0.077019 1 0 1.000000
  0 -37.123466 51.750088 22.865387 -0.590988 0.681826 0.431099 0.256914 0.153064 1 0 1.000000
  0 -31.840988 52.046455 23.718472 -0.085228 0.825377 0.558112 0.288234 0.156244 1 0 1.000000
bed_01_old
  0 -37.123466 51.750088 22.865387 -0.590988 0.681826 0.431099 0.256914 0.153064 1 0 1.000000
  0 -37.123466 48.650986 26.383951 -0.523616 0.422086 0.740047 0.256183 0.183117 1 0 1.000000
  0 -31.840988 52.046455 23.718472 -0.085228 0.825377 0.558112 0.288234 0.156244 1 0 1.000000
bed_01_old
  0 -31.840988 52.046455 23.718472 -0.085228 0.825377 0.558112 0.288234 0.156244 1 0 1.000000
  0 -37.123466 48.650986 26.383951 -0.523616 0.422086 0.740047 0.256183 0.183117 1 0 1.000000
  0 -31.840988 48.725212 27.355015 -0.082821 0.474786 0.876196 0.287942 0.186797 1 0 1.000000
bed_01_old
  0 -37.123466 48.650986 26.383951 -0.523616 0.422086 0.740047 0.256183 0.183117 1 0 1.000000
  0 -37.123466 44.394829 27.342848 -0.610338 0.109584 0.784525 0.259196 0.209752 1 0 1.000000
  0 -31.840988 48.725212 27.355015 -0.082821 0.474786 0.876196 0.287942 0.186797 1 0 1.000000
bed_01_old
  0 -31.840988 48.725212 27.355015 -0.082821 0.474786 0.876196 0.287942 0.186797 1 0 1.000000
  0 -37.123466 44.394829 27.342848 -0.610338 0.109584 0.784525 0.259196 0.209752 1 0 1.000000
  0 -31.840988 44.394829 28.320433 -0.097649 0.188672 0.977173 0.289407 0.213540 1 0 1.000000
bed_01_old
  0 -37.123466 44.394829 27.342848 -0.610338 0.109584 0.784525 0.259196 0.209752 1 0 1.000000
  0 -36.100391 23.945850 30.261560 -0.729983 0.027313 0.682920 0.280627 0.342126 1 0 1.000000
  0 -31.840988 44.394829 28.320433 -0.097649 0.188672 0.977173 0.289407 0.213540 1 0 1.000000
bed_01_old
  0 -31.840988 44.394829 28.320433 -0.097649 0.188672 0.977173 0.289407 0.213540 1 0 1.000000
  0 -36.100391 23.945850 30.261560 -0.729983 0.027313 0.682920 0.280627 0.342126 1 0 1.000000
  0 -30.817909 23.945852 31.862415 -0.135932 0.089002 0.986712 0.311080 0.339736 1 0 1.000000
bed_01_old
  0 -36.100391 23.945850 30.261560 -0.729983 0.027313 0.682920 0.280627 0.342126 1 0 1.000000
  0 -35.258450 0.063922 30.731449 -0.750972 -0.011327 0.660237 0.292194 0.494565 1 0 1.000000
  0 -30.817909 23.945852 31.862415 -0.135932 0.089002 0.986712 0.311080 0.339736 1 0 1.000000
bed_01_old
  0 -30.817909 23.945852 31.862415 -0.135932 0.089002 0.986712 0.311080 0.339736 1 0 1.000000
  0 -35.258450 0.063922 30.731449 -0.750972 -0.011327 0.660237 0.292194 0.494565 1 0 1.000000
  0 -29.975971 0.063922 32.332302 -0.156107 -0.017057 0.987593 0.322468 0.491417 1 0 1.000000
bed_01_old
  0 -35.258450 0.063922 30.731449 -0.750972 -0.011327 0.660237 0.292194 0.494565 1 0 1.000000
  0 -30.817905 -23.818008 31.035862 -0.135817 -0.086504 0.986950 0.321683 0.643539 1 0 1.000000
  0 -29.975971 0.063922 32.332302 -0.156107 -0.017057 0.987593 0.322468 0.491417 1 0 1.000000
bed_01_old
  0 -30.817905 -23.818008 31.035862 -0.135817 -0.086504 0.986950 0.321683 0.643539 1 0 1.000000
  0 -19.705290 -23.818008 31.127155 0.222846 -0.104839 0.969200 0.381406 0.643585 1 0 1.000000
  0 -29.975971 0.063922 32.332302 -0.156107 -0.017057 0.987593 0.322468 0.491417 1 0 1.000000
bed_01_old
  0 -19.705290 -23.818008 31.127155 0.222846 -0.104839 0.969200 0.381406 0.643585 1 0 1.000000
  0 -30.817905 -23.818008 31.035862 -0.135817 -0.086504 0.986950 0.321683 0.643539 1 0 1.000000
  0 -21.321365 -44.266998 28.118628 0.182722 -0.180180 0.966513 0.371447 0.776168 1 0 1.000000
bed_01_old
  0 -21.321365 -44.266998 28.118628 0.182722 -0.180180 0.966513 0.371447 0.776168 1 0 1.000000
  0 -15.864404 -23.818008 29.026611 0.910429 -0.071510 0.407438 0.405756 0.650330 1 0 1.000000
  0 -19.705290 -23.818008 31.127155 0.222846 -0.104839 0.969200 0.381406 0.643585 1 0 1.000000
bed_01_old
  0 -16.859818 -44.266994 26.624632 0.891490 -0.105089 0.440684 0.397186 0.785552 1 0 1.000000
  0 -15.864404 -23.818008 29.026611 0.910429 -0.071510 0.407438 0.405756 0.650330 1 0 1.000000
  0 -21.321365 -44.266998 28.118628 0.182722 -0.180180 0.966513 0.371447 0.776168 1 0 1.000000
bed_01_old
  0 -16.859818 -44.266994 26.624632 0.891490 -0.105089 0.440684 0.397186 0.785552 1 0 1.000000
  0 -16.437366 -23.818008 27.583307 0.931152 0.005609 -0.364588 0.413394 0.655155 1 0 1.000000
  0 -15.864404 -23.818008 29.026611 0.910429 -0.071510 0.407438 0.405756 0.650330 1 0 1.000000
bed_01_old
  0 -17.432781 -44.266994 25.434799 0.909192 0.050088 -0.413353 0.404879 0.790090 1 0 1.000000
  0 -16.437366 -23.818008 27.583307 0.931152 0.005609 -0.364588 0.413394 0.655155 1 0 1.000000
  0 -16.859818 -44.266994 26.624632 0.891490 -0.105089 0.440684 0.397186 0.785552 1 0 1.000000
bed_01_old
  0 -16.859818 -44.266994 26.624632 0.891490 -0.105089 0.440684 0.397186 0.785552 1 0 1.000000
  0 -16.859818 -48.375328 25.678720 0.901036 -0.184741 0.392434 0.392609 0.811482 1 0 1.000000
  0 -17.432781 -44.266994 25.434799 0.909192 0.050088 -0.413353 0.404879 0.790090 1 0 1.000000
bed_01_old
  0 -16.437366 -23.818008 27.583307 0.931152 0.005609 -0.364588 0.413394 0.655155 1 0 1.000000
  0 -16.299311 0.063923 28.613819 0.952507 0.003265 -0.304500 0.410951 0.491743 1 0 1.000000
  0 -15.864404 -23.818008 29.026611 0.910429 -0.071510 0.407438 0.405756 0.650330 1 0 1.000000
bed_01_old
  0 -36.127068 23.945852 26.944481 -0.997356 -0.041814 0.059433 0.263846 0.338476 1 0 1.000000
  0 -35.372982 0.063922 26.943796 -0.999776 -0.000208 0.021178 0.272535 0.488536 1 0 1.000000
  0 -36.100391 23.945850 30.261560 -0.729983 0.027313 0.682920 0.280627 0.342126 1 0 1.000000
bed_01_old
  0 -37.123466 44.394829 27.342848 -0.610338 0.109584 0.784525 0.259196 0.209752 1 0 1.000000
  0 -36.127068 23.945852 26.944481 -0.997356 -0.041814 0.059433 0.263846 0.338476 1 0 1.000000
  0 -36.100391 23.945850 30.261560 -0.729983 0.027313 0.682920 0.280627 0.342126 1 0 1.000000
bed_01_old
  0 -37.600086 45.067287 25.941933 -0.936299 -0.004189 0.351180 0.249909 0.202868 1 0 1.000000
  0 -36.127068 23.945852 26.944481 -0.997356 -0.041814 0.059433 0.263846 0.338476 1 0 1.000000
  0 -37.123466 44.394829 27.342848 -0.610338 0.109584 0.784525 0.259196 0.209752 1 0 1.000000
bed_01_old
  0 -37.123466 44.394829 27.342848 -0.610338 0.109584 0.784525 0.259196 0.209752 1 0 1.000000
  0 -37.123466 48.650986 26.383951 -0.523616 0.422086 0.740047 0.256183 0.183117 1 0 1.000000
  0 -37.600086 45.067287 25.941933 -0.936299 -0.004189 0.351180 0.249909 0.202868 1 0 1.000000
bed_01_old
  0 -37.600086 45.067287 25.941933 -0.936299 -0.004189 0.351180 0.249909 0.202868 1 0 1.000000
  0 -37.123466 48.650986 26.383951 -0.523616 0.422086 0.740047 0.256183 0.183117 1 0 1.000000
  0 -38.069912 48.333897 25.693413 -0.825572 0.285116 0.486970 0.248731 0.182882 1 0 1.000000
bed_01_old
  0 -37.123466 48.650986 26.383951 -0.523616 0.422086 0.740047 0.256183 0.183117 1 0 1.000000
  0 -37.123466 51.750088 22.865387 -0.590988 0.681826 0.431099 0.256914 0.153064 1 0 1.000000
  0 -38.069912 48.333897 25.693413 -0.825572 0.285116 0.486970 0.248731 0.182882 1 0 1.000000
bed_01_old
  0 -38.069912 48.333897 25.693413 -0.825572 0.285116 0.486970 0.248731 0.182882 1 0 1.000000
  0 -37.123466 51.750088 22.865387 -0.590988 0.681826 0.431099 0.256914 0.153064 1 0 1.000000
  0 -37.550888 50.852352 22.402618 -0.908524 0.356652 0.217679 0.250506 0.155814 1 0 1.000000
bed_01_old
  0 -37.123466 51.750088 22.865387 -0.590988 0.681826 0.431099 0.256914 0.153064 1 0 1.000000
  0 -37.123466 57.094219 9.283141 -0.702661 0.660773 0.263906 0.266207 0.065365 1 0 1.000000
  0 -37.550888 50.852352 22.402618 -0.908524 0.356652 0.217679 0.250506 0.155814 1 0 1.000000
bed_01_old
  0 -37.550888 50.852352 22.402618 -0.908524 0.356652 0.217679 0.250506 0.155814 1 0 1.000000
  0 -37.123466 57.094219 9.283141 -0.702661 0.660773 0.263906 0.266207 0.065365 1 0 1.000000
  0 -37.310757 54.533684 8.905388 -0.985392 0.163994 0.045920 0.254794 0.051421 1 0 1.000000
bed_01_old
  0 -17.217075 54.374371 10.548679 0.837999 0.343958 -0.423616 0.382355 0.063287 1 0 1.000000
  0 -17.270309 55.969196 12.451713 0.751339 0.640817 -0.157619 0.373457 0.079044 1 0 1.000000
  0 -17.432785 50.227196 22.345196 0.951800 -0.236057 -0.195843 0.387703 0.157981 1 0 1.000000
bed_01_old
  0 -17.432785 50.227196 22.345196 0.951800 -0.236057 -0.195843 0.387703 0.157981 1 0 1.000000
  0 -17.270309 55.969196 12.451713 0.751339 0.640817 -0.157619 0.373457 0.079044 1 0 1.000000
  0 -16.859821 51.815788 22.395128 0.880568 0.399350 0.255184 0.378457 0.152134 1 0 1.000000
bed_01_old
  0 -17.432785 50.227196 22.345196 0.951800 -0.236057 -0.195843 0.387703 0.157981 1 0 1.000000
  0 -16.859821 51.815788 22.395128 0.880568 0.399350 0.255184 0.378457 0.152134 1 0 1.000000
  0 -17.432785 48.258312 24.510399 0.898875 -0.218980 -0.379568 0.386803 0.177673 1 0 1.000000
bed_01_old
  0 -17.432785 48.258312 24.510399 0.898875 -0.218980 -0.379568 0.386803 0.177673 1 0 1.000000
  0 -16.859821 51.815788 22.395128 0.880568 0.399350 0.255184 0.378457 0.152134 1 0 1.000000
  0 -16.859821 48.503181 25.678724 0.901037 0.184741 0.392432 0.379306 0.181576 1 0 1.000000
bed_01_old
  0 -17.432785 48.258312 24.510399 0.898875 -0.218980 -0.379568 0.386803 0.177673 1 0 1.000000
  0 -16.859821 48.503181 25.678724 0.901037 0.184741 0.392432 0.379306 0.181576 1 0 1.000000
  0 -17.432785 44.394833 25.434803 0.924014 -0.048491 -0.379271 0.382251 0.205997 1 0 1.000000
bed_01_old
  0 -17.432785 44.394833 25.434803 0.924014 -0.048491 -0.379271 0.382251 0.205997 1 0 1.000000
  0 -16.859821 48.503181 25.678724 0.901037 0.184741 0.392432 0.379306 0.181576 1 0 1.000000
  0 -16.859821 44.394833 26.624636 0.885309 0.116190 0.450253 0.373335 0.204739 1 0 1.000000
bed_01_old
  0 -17.432785 44.394833 25.434803 0.924014 -0.048491 -0.379271 0.382251 0.205997 1 0 1.000000
  0 -16.859821 44.394833 26.624636 0.885309 0.116190 0.450253 0.373335 0.204739 1 0 1.000000
  0 -16.437370 23.945852 27.583311 0.952511 -0.000463 -0.304502 0.402089 0.334039 1 0 1.000000
bed_01_old
  0 -16.437370 23.945852 27.583311 0.952511 -0.000463 -0.304502 0.402089 0.334039 1 0 1.000000
  0 -16.859821 44.394833 26.624636 0.885309 0.116190 0.450253 0.373335 0.204739 1 0 1.000000
  0 -15.864406 23.945852 29.679373 0.902461 0.074332 0.424309 0.394721 0.339231 1 0 1.000000
bed_01_old
  0 -15.864406 23.945852 29.679373 0.902461 0.074332 0.424309 0.394721 0.339231 1 0 1.000000
  0 -16.299311 0.063923 28.613819 0.952507 0.003265 -0.304500 0.410951 0.491743 1 0 1.000000
  0 -16.437370 23.945852 27.583311 0.952511 -0.000463 -0.304502 0.402089 0.334039 1 0 1.000000
bed_01_old
  0 -15.726342 0.063923 30.456406 0.918234 -0.007098 0.395974 0.403078 0.496140 1 0 1.000000
  0 -16.299311 0.063923 28.613819 0.952507 0.003265 -0.304500 0.410951 0.491743 1 0 1.000000
  0 -15.864406 23.945852 29.679373 0.902461 0.074332 0.424309 0.394721 0.339231 1 0 1.000000
bed_01_old
  0 -15.864404 -23.818008 29.026611 0.910429 -0.071510 0.407438 0.405756 0.650330 1 0 1.000000
  0 -16.299311 0.063923 28.613819 0.952507 0.003265 -0.304500 0.410951 0.491743 1 0 1.000000
  0 -15.726342 0.063923 30.456406 0.918234 -0.007098 0.395974 0.403078 0.496140 1 0 1.000000
bed_01_old
  0 -15.864404 -23.818008 29.026611 0.910429 -0.071510 0.407438 0.405756 0.650330 1 0 1.000000
  0 -15.726342 0.063923 30.456406 0.918234 -0.007098 0.395974 0.403078 0.496140 1 0 1.000000
  0 -19.705290 -23.818008 31.127155 0.222846 -0.104839 0.969200 0.381406 0.643585 1 0 1.000000
bed_01_old
  0 -19.705290 -23.818008 31.127155 0.222846 -0.104839 0.969200 0.381406 0.643585 1 0 1.000000
  0 -15.726342 0.063923 30.456406 0.918234 -0.007098 0.395974 0.403078 0.496140 1 0 1.000000
  0 -19.141302 0.063923 32.730743 0.251120 -0.016023 0.967823 0.380378 0.489481 1 0 1.000000
bed_01_old
  0 -29.975971 0.063922 32.332302 -0.156107 -0.017057 0.987593 0.322468 0.491417 1 0 1.000000
  0 -19.705290 -23.818008 31.127155 0.222846 -0.104839 0.969200 0.381406 0.643585 1 0 1.000000
  0 -19.141302 0.063923 32.730743 0.251120 -0.016023 0.967823 0.380378 0.489481 1 0 1.000000
bed_01_old
  0 -19.705294 23.945852 31.953712 0.230714 0.107761 0.967036 0.370032 0.335391 1 0 1.000000
  0 -29.975971 0.063922 32.332302 -0.156107 -0.017057 0.987593 0.322468 0.491417 1 0 1.000000
  0 -19.141302 0.063923 32.730743 0.251120 -0.016023 0.967823 0.380378 0.489481 1 0 1.000000
bed_01_old
  0 -30.817909 23.945852 31.862415 -0.135932 0.089002 0.986712 0.311080 0.339736 1 0 1.000000
  0 -29.975971 0.063922 32.332302 -0.156107 -0.017057 0.987593 0.322468 0.491417 1 0 1.000000
  0 -19.705294 23.945852 31.953712 0.230714 0.107761 0.967036 0.370032 0.335391 1 0 1.000000
bed_01_old
  0 -21.321369 44.394829 28.118631 0.186037 0.198273 0.962329 0.347425 0.207034 1 0 1.000000
  0 -30.817909 23.945852 31.862415 -0.135932 0.089002 0.986712 0.311080 0.339736 1 0 1.000000
  0 -19.705294 23.945852 31.953712 0.230714 0.107761 0.967036 0.370032 0.335391 1 0 1.000000
bed_01_old
  0 -31.840988 44.394829 28.320433 -0.097649 0.188672 0.977173 0.289407 0.213540 1 0 1.000000
  0 -30.817909 23.945852 31.862415 -0.135932 0.089002 0.986712 0.311080 0.339736 1 0 1.000000
  0 -21.321369 44.394829 28.118631 0.186037 0.198273 0.962329 0.347425 0.207034 1 0 1.000000
bed_01_old
  0 -21.321369 44.394829 28.118631 0.186037 0.198273 0.962329 0.347425 0.207034 1 0 1.000000
  0 -31.840988 48.725212 27.355015 -0.082821 0.474786 0.876196 0.287942 0.186797 1 0 1.000000
  0 -31.840988 44.394829 28.320433 -0.097649 0.188672 0.977173 0.289407 0.213540 1 0 1.000000
bed_01_old
  0 -21.321369 48.810661 27.145712 0.161651 0.454216 0.876103 0.350326 0.182715 1 0 1.000000
  0 -31.840988 48.725212 27.355015 -0.082821 0.474786 0.876196 0.287942 0.186797 1 0 1.000000
  0 -21.321369 44.394829 28.118631 0.186037 0.198273 0.962329 0.347425 0.207034 1 0 1.000000
bed_01_old
  0 -21.321369 48.810661 27.145712 0.161651 0.454216 0.876103 0.350326 0.182715 1 0 1.000000
  0 -31.840988 52.046455 23.718472 -0.085228 0.825377 0.558112 0.288234 0.156244 1 0 1.000000
  0 -31.840988 48.725212 27.355015 -0.082821 0.474786 0.876196 0.287942 0.186797 1 0 1.000000
bed_01_old
  0 -21.321369 53.043602 23.373344 0.151447 0.808563 0.568585 0.352525 0.154858 1 0 1.000000
  0 -31.840988 52.046455 23.718472 -0.085228 0.825377 0.558112 0.288234 0.156244 1 0 1.000000
  0 -21.321369 48.810661 27.145712 0.161651 0.454216 0.876103 0.350326 0.182715 1 0 1.000000
bed_01_old
  0 -21.321369 53.043602 23.373344 0.151447 0.808563 0.568585 0.352525 0.154858 1 0 1.000000
  0 -27.321636 58.110317 12.241805 -0.089927 0.911907 0.400424 0.320286 0.077019 1 0 1.000000
  0 -31.840988 52.046455 23.718472 -0.085228 0.825377 0.558112 0.288234 0.156244 1 0 1.000000
bed_01_old
  0 -21.321369 57.731770 11.403722 0.196063 0.973069 -0.121229 0.351535 0.071075 1 0 1.000000
  0 -27.321636 58.110317 12.241805 -0.089927 0.911907 0.400424 0.320286 0.077019 1 0 1.000000
  0 -21.321369 53.043602 23.373344 0.151447 0.808563 0.568585 0.352525 0.154858 1 0 1.000000
bed_01_old
  0 -21.321369 53.043602 23.373344 0.151447 0.808563 0.568585 0.352525 0.154858 1 0 1.000000
  0 -17.270309 55.969196 12.451713 0.751339 0.640817 -0.157619 0.373457 0.079044 1 0 1.000000
  0 -21.321369 57.731770 11.403722 0.196063 0.973069 -0.121229 0.351535 0.071075 1 0 1.000000
bed_01_old
  0 -16.859821 51.815788 22.395128 0.880568 0.399350 0.255184 0.378457 0.152134 1 0 1.000000
  0 -17.270309 55.969196 12.451713 0.751339 0.640817 -0.157619 0.373457 0.079044 1 0 1.000000
  0 -21.321369 53.043602 23.373344 0.151447 0.808563 0.568585 0.352525 0.154858 1 0 1.000000
bed_01_old
  0 -16.859821 51.815788 22.395128 0.880568 0.399350 0.255184 0.378457 0.152134 1 0 1.000000
  0 -21.321369 53.043602 23.373344 0.151447 0.808563 0.568585 0.352525 0.154858 1 0 1.000000
  0 -16.859821 48.503181 25.678724 0.901037 0.184741 0.392432 0.379306 0.181576 1 0 1.000000
bed_01_old
  0 -16.859821 48.503181 25.678724 0.901037 0.184741 0.392432 0.379306 0.181576 1 0 1.000000
  0 -21.321369 53.043602 23.373344 0.151447 0.808563 0.568585 0.352525 0.154858 1 0 1.000000
  0 -21.321369 48.810661 27.145712 0.161651 0.454216 0.876103 0.350326 0.182715 1 0 1.000000
bed_01_old
  0 -16.859821 48.503181 25.678724 0.901037 0.184741 0.392432 0.379306 0.181576 1 0 1.000000
  0 -21.321369 48.810661 27.145712 0.161651 0.454216 0.876103 0.350326 0.182715 1 0 1.000000
  0 -16.859821 44.394833 26.624636 0.885309 0.116190 0.450253 0.373335 0.204739 1 0 1.000000
bed_01_old
  0 -16.859821 44.394833 26.624636 0.885309 0.116190 0.450253 0.373335 0.204739 1 0 1.000000
  0 -21.321369 48.810661 27.145712 0.161651 0.454216 0.876103 0.350326 0.182715 1 0 1.000000
  0 -21.321369 44.394829 28.118631 0.186037 0.198273 0.962329 0.347425 0.207034 1 0 1.000000
bed_01_old
  0 -16.859821 44.394833 26.624636 0.885309 0.116190 0.450253 0.373335 0.204739 1 0 1.000000
  0 -21.321369 44.394829 28.118631 0.186037 0.198273 0.962329 0.347425 0.207034 1 0 1.000000
  0 -15.864406 23.945852 29.679373 0.902461 0.074332 0.424309 0.394721 0.339231 1 0 1.000000
bed_01_old
  0 -15.864406 23.945852 29.679373 0.902461 0.074332 0.424309 0.394721 0.339231 1 0 1.000000
  0 -21.321369 44.394829 28.118631 0.186037 0.198273 0.962329 0.347425 0.207034 1 0 1.000000
  0 -19.705294 23.945852 31.953712 0.230714 0.107761 0.967036 0.370032 0.335391 1 0 1.000000
bed_01_old
  0 -19.705294 23.945852 31.953712 0.230714 0.107761 0.967036 0.370032 0.335391 1 0 1.000000
  0 -15.726342 0.063923 30.456406 0.918234 -0.007098 0.395974 0.403078 0.496140 1 0 1.000000
  0 -15.864406 23.945852 29.679373 0.902461 0.074332 0.424309 0.394721 0.339231 1 0 1.000000
bed_01_old
  0 -19.141302 0.063923 32.730743 0.251120 -0.016023 0.967823 0.380378 0.489481 1 0 1.000000
  0 -15.726342 0.063923 30.456406 0.918234 -0.007098 0.395974 0.403078 0.496140 1 0 1.000000
  0 -19.705294 23.945852 31.953712 0.230714 0.107761 0.967036 0.370032 0.335391 1 0 1.000000
bed_01_old
  0 -37.600079 -44.939457 25.941929 -0.344205 -0.021278 0.938653 0.269193 0.780629 1 0 1.000000
  0 -38.931583 -47.109127 25.404482 -0.316243 -0.225463 0.921497 0.262501 0.796230 1 0 1.000000
  0 -38.069904 -48.206059 25.693409 -0.522054 -0.328945 0.786927 0.268985 0.801046 1 0 1.000000
bed_01_old
  0 -36.127068 -23.818008 26.944477 -0.397667 -0.010350 0.917471 0.274665 0.640504 1 0 1.000000
  0 -38.931583 -47.109127 25.404482 -0.316243 -0.225463 0.921497 0.262501 0.796230 1 0 1.000000
  0 -37.600079 -44.939457 25.941929 -0.344205 -0.021278 0.938653 0.269193 0.780629 1 0 1.000000
bed_01_old
  0 -38.931583 -47.109127 25.404482 -0.316243 -0.225463 0.921497 0.262501 0.796230 1 0 1.000000
  0 -36.127068 -23.818008 26.944477 -0.397667 -0.010350 0.917471 0.274665 0.640504 1 0 1.000000
  0 -35.372982 0.063922 26.943796 -0.449730 0.000000 0.893165 0.272535 0.488536 1 0 1.000000
bed_01_old
  0 -36.127068 23.945852 26.944481 -0.397667 0.010350 0.917471 0.263846 0.338476 1 0 1.000000
  0 -38.931583 -47.109127 25.404482 -0.316243 -0.225463 0.921497 0.262501 0.796230 1 0 1.000000
  0 -35.372982 0.063922 26.943796 -0.449730 0.000000 0.893165 0.272535 0.488536 1 0 1.000000
bed_01_old
  0 -38.931591 47.236958 25.404486 -0.316243 0.225463 0.921497 0.242176 0.187471 1 0 1.000000
  0 -38.931583 -47.109127 25.404482 -0.316243 -0.225463 0.921497 0.262501 0.796230 1 0 1.000000
  0 -36.127068 23.945852 26.944481 -0.397667 0.010350 0.917471 0.263846 0.338476 1 0 1.000000
bed_01_old
  0 -36.127068 23.945852 26.944481 -0.397667 0.010350 0.917471 0.263846 0.338476 1 0 1.000000
  0 -37.600086 45.067287 25.941933 -0.344205 0.021277 0.938653 0.249909 0.202868 1 0 1.000000
  0 -38.931591 47.236958 25.404486 -0.316243 0.225463 0.921497 0.242176 0.187471 1 0 1.000000
bed_01_old
  0 -37.600086 45.067287 25.941933 -0.344205 0.021277 0.938653 0.249909 0.202868 1 0 1.000000
  0 -38.069912 48.333897 25.693413 -0.522054 0.328945 0.786927 0.248731 0.182882 1 0 1.000000
  0 -38.931591 47.236958 25.404486 -0.316243 0.225463 0.921497 0.242176 0.187471 1 0 1.000000
bed_01_old
  0 -38.069912 48.333897 25.693413 -0.522054 0.328945 0.786927 0.248731 0.182882 1 0 1.000000
  0 -38.932384 48.458199 24.343040 -0.794481 0.494485 0.352539 0.241089 0.175804 1 0 1.000000
  0 -38.931591 47.236958 25.404486 -0.316243 0.225463 0.921497 0.242176 0.187471 1 0 1.000000
bed_01_old
  0 -37.550888 50.852352 22.402618 -0.551593 0.734034 0.396156 0.250506 0.155814 1 0 1.000000
  0 -38.932384 48.458199 24.343040 -0.794481 0.494485 0.352539 0.241089 0.175804 1 0 1.000000
  0 -38.069912 48.333897 25.693413 -0.522054 0.328945 0.786927 0.248731 0.182882 1 0 1.000000
bed_01_old
  0 -37.550888 50.852352 22.402618 -0.551593 0.734034 0.396156 0.250506 0.155814 1 0 1.000000
  0 -38.931591 50.284885 21.698038 -0.840823 0.506047 0.192180 0.242399 0.151075 1 0 1.000000
  0 -38.932384 48.458199 24.343040 -0.794481 0.494485 0.352539 0.241089 0.175804 1 0 1.000000
bed_01_old
  0 -37.550888 50.852352 22.402618 -0.551593 0.734034 0.396156 0.250506 0.155814 1 0 1.000000
  0 -37.310757 54.533684 8.905388 -0.495426 0.856411 -0.145300 0.254794 0.051421 1 0 1.000000
  0 -38.931591 50.284885 21.698038 -0.840823 0.506047 0.192180 0.242399 0.151075 1 0 1.000000
bed_01_old
  0 -37.310757 54.533684 8.905388 -0.495426 0.856411 -0.145300 0.254794 0.051421 1 0 1.000000
  0 -38.931591 52.926334 8.115788 -0.847848 0.524053 -0.080760 0.240533 0.050026 1 0 1.000000
  0 -38.931591 50.284885 21.698038 -0.840823 0.506047 0.192180 0.242399 0.151075 1 0 1.000000
bed_01_old
  0 -37.310757 54.533684 8.905388 -0.495426 0.856411 -0.145300 0.254794 0.051421 1 0 1.000000
  0 -37.123466 53.711792 6.804655 -0.323790 0.831456 -0.451487 0.249435 0.037552 1 0 1.000000
  0 -38.931591 52.926334 8.115788 -0.847848 0.524053 -0.080760 0.240533 0.050026 1 0 1.000000
bed_01_old
  0 -37.310757 54.533684 8.905388 -0.495426 0.856411 -0.145300 0.254794 0.051421 1 0 1.000000
  0 -27.321636 56.782776 12.055306 -0.057788 0.850832 -0.522250 0.319062 0.068466 1 0 1.000000
  0 -37.123466 53.711792 6.804655 -0.323790 0.831456 -0.451487 0.249435 0.037552 1 0 1.000000
bed_01_old
  0 -21.321369 54.686161 8.374514 0.187509 0.783488 -0.592441 0.357947 0.044215 1 0 1.000000
  0 -37.123466 53.711792 6.804655 -0.323790 0.831456 -0.451487 0.249435 0.037552 1 0 1.000000
  0 -27.321636 56.782776 12.055306 -0.057788 0.850832 -0.522250 0.319062 0.068466 1 0 1.000000
bed_01_old
  0 -21.321369 57.731770 11.403722 0.196063 0.973069 -0.121229 0.351535 0.071075 1 0 1.000000
  0 -21.321369 54.686161 8.374514 0.187509 0.783488 -0.592441 0.357947 0.044215 1 0 1.000000
  0 -27.321636 56.782776 12.055306 -0.057788 0.850832 -0.522250 0.319062 0.068466 1 0 1.000000
bed_01_old
  0 -21.321369 57.731770 11.403722 0.196063 0.973069 -0.121229 0.351535 0.071075 1 0 1.000000
  0 -17.217075 54.374371 10.548679 0.837999 0.343958 -0.423616 0.382355 0.063287 1 0 1.000000
  0 -21.321369 54.686161 8.374514 0.187509 0.783488 -0.592441 0.357947 0.044215 1 0 1.000000
bed_01_old
  0 -17.270309 55.969196 12.451713 0.751339 0.640817 -0.157619 0.373457 0.079044 1 0 1.000000
  0 -17.217075 54.374371 10.548679 0.837999 0.343958 -0.423616 0.382355 0.063287 1 0 1.000000
  0 -21.321369 57.731770 11.403722 0.196063 0.973069 -0.121229 0.351535 0.071075 1 0 1.000000
bed_01_old
  0 -38.931591 52.926334 8.115788 -0.847848 0.524053 -0.080760 0.240533 0.050026 1 0 1.000000
  0 -38.919117 49.051548 16.327553 -0.999993 -0.003280 -0.001569 0.228477 0.115259 1 0 1.000000
  0 -38.931591 50.284885 21.698038 -0.840823 0.506047 0.192180 0.242399 0.151075 1 0 1.000000
bed_01_old
  0 -38.931591 50.284885 21.698038 -0.840823 0.506047 0.192180 0.242399 0.151075 1 0 1.000000
  0 -38.919117 49.051548 16.327553 -0.999993 -0.003280 -0.001569 0.228477 0.115259 1 0 1.000000
  0 -38.931591 48.468079 17.433706 -0.999998 -0.001506 -0.000842 0.226465 0.123698 1 0 1.000000
bed_01_old
  0 -38.932384 48.458199 24.343040 -0.794481 0.494485 0.352539 0.241089 0.175804 1 0 1.000000
  0 -38.931591 50.284885 21.698038 -0.840823 0.506047 0.192180 0.242399 0.151075 1 0 1.000000
  0 -38.931591 48.468079 17.433706 -0.999998 -0.001506 -0.000842 0.226465 0.123698 1 0 1.000000
bed_01_old
  0 51.739796 44.394833 25.434803 0.087280 0.175143 0.980667 0.826480 0.802714 1 0 1.000000
  0 31.505739 48.768284 24.919748 0.023373 0.493872 0.869220 0.703574 0.836938 1 0 1.000000
  0 31.618282 44.904819 25.832378 0.021069 0.170533 0.985127 0.702701 0.809899 1 0 1.000000
bed_01_old
  0 52.619362 48.258312 24.510399 0.079602 0.475592 0.876057 0.831654 0.829603 1 0 1.000000
  0 31.505739 48.768284 24.919748 0.023373 0.493872 0.869220 0.703574 0.836938 1 0 1.000000
  0 51.739796 44.394833 25.434803 0.087280 0.175143 0.980667 0.826480 0.802714 1 0 1.000000
bed_01_old
  0 52.619362 48.258312 24.510399 0.079602 0.475592 0.876057 0.831654 0.829603 1 0 1.000000
  0 31.241066 50.737171 22.773520 0.017988 0.875979 0.482013 0.704567 0.858204 1 0 1.000000
  0 31.505739 48.768284 24.919748 0.023373 0.493872 0.869220 0.703574 0.836938 1 0 1.000000
bed_01_old
  0 31.241066 50.737171 22.773520 0.017988 0.875979 0.482013 0.704567 0.858204 1 0 1.000000
  0 5.736264 48.761856 25.419367 -0.014017 0.492322 0.870300 0.547091 0.840903 1 0 1.000000
  0 31.505739 48.768284 24.919748 0.023373 0.493872 0.869220 0.703574 0.836938 1 0 1.000000
bed_01_old
  0 5.736264 50.730743 23.254160 -0.012747 0.873624 0.486434 0.546393 0.861990 1 0 1.000000
  0 5.736264 48.761856 25.419367 -0.014017 0.492322 0.870300 0.547091 0.840903 1 0 1.000000
  0 31.241066 50.737171 22.773520 0.017988 0.875979 0.482013 0.704567 0.858204 1 0 1.000000
bed_01_old
  0 31.505739 48.768284 24.919748 0.023373 0.493872 0.869220 0.703574 0.836938 1 0 1.000000
  0 5.736263 44.898388 26.343771 -0.014398 0.166485 0.985939 0.541186 0.817813 1 0 1.000000
  0 31.618282 44.904819 25.832378 0.021069 0.170533 0.985127 0.702701 0.809899 1 0 1.000000
bed_01_old
  0 5.736264 48.761856 25.419367 -0.014017 0.492322 0.870300 0.547091 0.840903 1 0 1.000000
  0 5.736263 44.898388 26.343771 -0.014398 0.166485 0.985939 0.541186 0.817813 1 0 1.000000
  0 31.505739 48.768284 24.919748 0.023373 0.493872 0.869220 0.703574 0.836938 1 0 1.000000
bed_01_old
  0 5.736264 48.761856 25.419367 -0.014017 0.492322 0.870300 0.547091 0.840903 1 0 1.000000
  0 -17.432785 48.258312 24.510399 -0.044803 0.492472 0.869174 0.414600 0.828260 1 0 1.000000
  0 5.736263 44.898388 26.343771 -0.014398 0.166485 0.985939 0.541186 0.817813 1 0 1.000000
bed_01_old
  0 5.736264 50.730743 23.254160 -0.012747 0.873624 0.486434 0.546393 0.861990 1 0 1.000000
  0 -17.432785 48.258312 24.510399 -0.044803 0.492472 0.869174 0.414600 0.828260 1 0 1.000000
  0 5.736264 48.761856 25.419367 -0.014017 0.492322 0.870300 0.547091 0.840903 1 0 1.000000
bed_01_old
  0 -17.432785 50.227196 22.345196 -0.020052 0.871101 0.490694 0.410351 0.849253 1 0 1.000000
  0 -17.432785 48.258312 24.510399 -0.044803 0.492472 0.869174 0.414600 0.828260 1 0 1.000000
  0 5.736264 50.730743 23.254160 -0.012747 0.873624 0.486434 0.546393 0.861990 1 0 1.000000
bed_01_old
  0 -17.432785 50.227196 22.345196 -0.020052 0.871101 0.490694 0.410351 0.849253 1 0 1.000000
  0 5.736264 50.730743 23.254160 -0.012747 0.873624 0.486434 0.546393 0.861990 1 0 1.000000
  0 -17.217075 54.374371 10.548679 0.018921 0.999227 -0.034470 0.407108 0.944581 1 0 1.000000
bed_01_old
  0 -17.217075 54.374371 10.548679 0.018921 0.999227 -0.034470 0.407108 0.944581 1 0 1.000000
  0 5.736264 50.730743 23.254160 -0.012747 0.873624 0.486434 0.546393 0.861990 1 0 1.000000
  0 13.490923 53.761349 8.976547 0.004027 0.998096 0.061554 0.598467 0.970405 1 0 1.000000
bed_01_old
  0 5.736264 50.730743 23.254160 -0.012747 0.873624 0.486434 0.546393 0.861990 1 0 1.000000
  0 31.241066 50.737171 22.773520 0.017988 0.875979 0.482013 0.704567 0.858204 1 0 1.000000
  0 13.490923 53.761349 8.976547 0.004027 0.998096 0.061554 0.598467 0.970405 1 0 1.000000
bed_01_old
  0 13.490923 53.761349 8.976547 0.004027 0.998096 0.061554 0.598467 0.970405 1 0 1.000000
  0 31.241066 50.737171 22.773520 0.017988 0.875979 0.482013 0.704567 0.858204 1 0 1.000000
  0 29.394257 55.226563 7.797783 0.011696 0.967439 0.252833 0.699055 0.975869 1 0 1.000000
bed_01_old
  0 31.241066 50.737171 22.773520 0.017988 0.875979 0.482013 0.704567 0.858204 1 0 1.000000
  0 49.522869 53.803391 8.090569 0.047984 0.964123 0.261082 0.825446 0.964054 1 0 1.000000
  0 29.394257 55.226563 7.797783 0.011696 0.967439 0.252833 0.699055 0.975869 1 0 1.000000
bed_01_old
  0 55.578445 49.983994 22.345196 -0.250434 0.718400 0.648987 0.850476 0.848899 1 0 1.000000
  0 49.522869 53.803391 8.090569 0.047984 0.964123 0.261082 0.825446 0.964054 1 0 1.000000
  0 31.241066 50.737171 22.773520 0.017988 0.875979 0.482013 0.704567 0.858204 1 0 1.000000
bed_01_old
  0 55.578445 49.983994 22.345196 -0.250434 0.718400 0.648987 0.850476 0.848899 1 0 1.000000
  0 31.241066 50.737171 22.773520 0.017988 0.875979 0.482013 0.704567 0.858204 1 0 1.000000
  0 52.619362 48.258312 24.510399 0.079602 0.475592 0.876057 0.831654 0.829603 1 0 1.000000
bed_01_old
  0 57.798145 48.115547 23.830143 0.185592 0.425926 0.885518 0.863307 0.831384 1 0 1.000000
  0 55.578445 49.983994 22.345196 -0.250434 0.718400 0.648987 0.850476 0.848899 1 0 1.000000
  0 52.619362 48.258312 24.510399 0.079602 0.475592 0.876057 0.831654 0.829603 1 0 1.000000
bed_01_old
  0 57.798145 48.115547 23.830143 0.185592 0.425926 0.885518 0.863307 0.831384 1 0 1.000000
  0 52.619362 48.258312 24.510399 0.079602 0.475592 0.876057 0.831654 0.829603 1 0 1.000000
  0 51.739796 44.394833 25.434803 0.087280 0.175143 0.980667 0.826480 0.802714 1 0 1.000000
bed_01_old
  0 57.798145 44.394833 24.741180 0.281132 0.158616 0.946470 0.863570 0.805602 1 0 1.000000
  0 57.798145 48.115547 23.830143 0.185592 0.425926 0.885518 0.863307 0.831384 1 0 1.000000
  0 51.739796 44.394833 25.434803 0.087280 0.175143 0.980667 0.826480 0.802714 1 0 1.000000
bed_01_old
  0 57.798145 44.394833 24.741180 0.281132 0.158616 0.946470 0.863570 0.805602 1 0 1.000000
  0 51.739796 44.394833 25.434803 0.087280 0.175143 0.980667 0.826480 0.802714 1 0 1.000000
  0 57.798149 23.945856 26.577112 0.315749 0.057655 0.947089 0.858502 0.663696 1 0 1.000000
bed_01_old
  0 61.953751 23.945856 24.149466 0.801684 0.032453 0.596866 0.888866 0.666936 1 0 1.000000
  0 57.798145 44.394833 24.741180 0.281132 0.158616 0.946470 0.863570 0.805602 1 0 1.000000
  0 57.798149 23.945856 26.577112 0.315749 0.057655 0.947089 0.858502 0.663696 1 0 1.000000
bed_01_old
  0 57.798149 23.945856 26.577112 0.315749 0.057655 0.947089 0.858502 0.663696 1 0 1.000000
  0 61.825729 0.063927 25.021946 0.704362 0.000000 0.709841 0.884902 0.498964 1 0 1.000000
  0 61.953751 23.945856 24.149466 0.801684 0.032453 0.596866 0.888866 0.666936 1 0 1.000000
bed_01_old
  0 5.736263 44.898388 26.343771 -0.014398 0.166485 0.985939 0.541186 0.817813 1 0 1.000000
  0 -17.432785 48.258312 24.510399 -0.044803 0.492472 0.869174 0.414600 0.828260 1 0 1.000000
  0 -17.432785 44.394833 25.434803 -0.038626 0.163598 0.985771 0.416346 0.806302 1 0 1.000000
bed_01_old
  0 -37.123466 53.711792 6.804655 0.030776 0.943283 -0.330560 0.283157 0.966793 1 0 1.000000
  0 -21.321369 54.686161 8.374514 0.030776 0.943283 -0.330560 0.380699 0.959092 1 0 1.000000
  0 13.490923 53.761349 8.976547 0.004027 0.998096 0.061554 0.598467 0.970405 1 0 1.000000
bed_01_old
  0 -21.321369 54.686161 8.374514 0.030776 0.943283 -0.330560 0.380699 0.959092 1 0 1.000000
  0 -17.217075 54.374371 10.548679 0.018921 0.999227 -0.034470 0.407108 0.944581 1 0 1.000000
  0 13.490923 53.761349 8.976547 0.004027 0.998096 0.061554 0.598467 0.970405 1 0 1.000000
bed_01_old
  0 64.279564 47.391285 8.570780 0.986840 -0.048088 0.154384 0.995119 0.839884 1 0 1.000000
  0 61.953751 23.945856 24.149466 0.801684 0.032453 0.596866 0.888866 0.666936 1 0 1.000000
  0 64.279564 -47.263428 8.570776 0.986840 0.048088 0.154384 0.992885 0.160226 1 0 1.000000
bed_01_old
  0 64.279564 47.391285 8.570780 0.986840 -0.048088 0.154384 0.995119 0.839884 1 0 1.000000
  0 62.098053 47.279690 22.148550 0.756803 0.223174 0.614363 0.892808 0.831998 1 0 1.000000
  0 61.953751 23.945856 24.149466 0.801684 0.032453 0.596866 0.888866 0.666936 1 0 1.000000
bed_01_old
  0 62.098053 47.279690 22.148550 0.756803 0.223174 0.614363 0.892808 0.831998 1 0 1.000000
  0 57.798145 44.394833 24.741180 0.281132 0.158616 0.946470 0.863570 0.805602 1 0 1.000000
  0 61.953751 23.945856 24.149466 0.801684 0.032453 0.596866 0.888866 0.666936 1 0 1.000000
bed_01_old
  0 62.098053 47.279690 22.148550 0.756803 0.223174 0.614363 0.892808 0.831998 1 0 1.000000
  0 57.798145 48.115547 23.830143 0.185592 0.425926 0.885518 0.863307 0.831384 1 0 1.000000
  0 57.798145 44.394833 24.741180 0.281132 0.158616 0.946470 0.863570 0.805602 1 0 1.000000
bed_01_old
  0 62.098053 47.279690 22.148550 0.756803 0.223174 0.614363 0.892808 0.831998 1 0 1.000000
  0 60.819313 49.849979 21.113176 0.530080 0.695599 0.484930 0.884636 0.851564 1 0 1.000000
  0 57.798145 48.115547 23.830143 0.185592 0.425926 0.885518 0.863307 0.831384 1 0 1.000000
bed_01_old
  0 60.819313 49.849979 21.113176 0.530080 0.695599 0.484930 0.884636 0.851564 1 0 1.000000
  0 56.695011 50.597073 22.291378 -0.051616 0.785294 0.616967 0.857708 0.852251 1 0 1.000000
  0 57.798145 48.115547 23.830143 0.185592 0.425926 0.885518 0.863307 0.831384 1 0 1.000000
bed_01_old
  0 57.798145 48.115547 23.830143 0.185592 0.425926 0.885518 0.863307 0.831384 1 0 1.000000
  0 56.695011 50.597073 22.291378 -0.051616 0.785294 0.616967 0.857708 0.852251 1 0 1.000000
  0 55.578445 49.983994 22.345196 -0.250434 0.718400 0.648987 0.850476 0.848899 1 0 1.000000
bed_01_old
  0 56.695011 50.597073 22.291378 -0.051616 0.785294 0.616967 0.857708 0.852251 1 0 1.000000
  0 48.979141 55.336788 6.216265 -0.716369 0.517706 0.467756 0.828169 0.981949 1 0 1.000000
  0 55.578445 49.983994 22.345196 -0.250434 0.718400 0.648987 0.850476 0.848899 1 0 1.000000
bed_01_old
  0 50.137524 56.870209 5.036597 -0.359240 0.826024 0.434316 0.838924 0.993399 1 0 1.000000
  0 48.979141 55.336788 6.216265 -0.716369 0.517706 0.467756 0.828169 0.981949 1 0 1.000000
  0 56.695011 50.597073 22.291378 -0.051616 0.785294 0.616967 0.857708 0.852251 1 0 1.000000
bed_01_old
  0 56.695011 50.597073 22.291378 -0.051616 0.785294 0.616967 0.857708 0.852251 1 0 1.000000
  0 52.588638 57.809555 4.456536 0.064558 0.935599 0.347113 0.855699 0.996459 1 0 1.000000
  0 50.137524 56.870209 5.036597 -0.359240 0.826024 0.434316 0.838924 0.993399 1 0 1.000000
bed_01_old
  0 60.819313 49.849979 21.113176 0.530080 0.695599 0.484930 0.884636 0.851564 1 0 1.000000
  0 52.588638 57.809555 4.456536 0.064558 0.935599 0.347113 0.855699 0.996459 1 0 1.000000
  0 56.695011 50.597073 22.291378 -0.051616 0.785294 0.616967 0.857708 0.852251 1 0 1.000000
bed_01_old
  0 62.799629 53.359959 3.095893 0.480740 0.845285 0.233199 0.926378 0.984645 1 0 1.000000
  0 52.588638 57.809555 4.456536 0.064558 0.935599 0.347113 0.855699 0.996459 1 0 1.000000
  0 60.819313 49.849979 21.113176 0.530080 0.695599 0.484930 0.884636 0.851564 1 0 1.000000
bed_01_old
  0 60.819313 49.849979 21.113176 0.530080 0.695599 0.484930 0.884636 0.851564 1 0 1.000000
  0 64.716705 51.770409 3.642882 0.725065 0.648588 0.231548 0.938690 0.973264 1 0 1.000000
  0 62.799629 53.359959 3.095893 0.480740 0.845285 0.233199 0.926378 0.984645 1 0 1.000000
bed_01_old
  0 60.819313 49.849979 21.113176 0.530080 0.695599 0.484930 0.884636 0.851564 1 0 1.000000
  0 65.193794 50.012695 5.385265 0.960936 0.181759 0.208723 0.943181 0.955532 1 0 1.000000
  0 64.716705 51.770409 3.642882 0.725065 0.648588 0.231548 0.938690 0.973264 1 0 1.000000
bed_01_old
  0 62.098053 47.279690 22.148550 0.756803 0.223174 0.614363 0.892808 0.831998 1 0 1.000000
  0 65.193794 50.012695 5.385265 0.960936 0.181759 0.208723 0.943181 0.955532 1 0 1.000000
  0 60.819313 49.849979 21.113176 0.530080 0.695599 0.484930 0.884636 0.851564 1 0 1.000000
bed_01_old
  0 62.098053 47.279690 22.148550 0.756803 0.223174 0.614363 0.892808 0.831998 1 0 1.000000
  0 64.279564 47.391285 8.570780 0.986840 -0.048088 0.154384 0.944045 0.924566 1 0 1.000000
  0 65.193794 50.012695 5.385265 0.960936 0.181759 0.208723 0.943181 0.955532 1 0 1.000000
bed_01_old
  0 48.979141 55.336788 6.216265 -0.716369 0.517706 0.467756 0.828169 0.981949 1 0 1.000000
  0 49.522869 53.803391 8.090569 -0.876898 0.214721 0.430051 0.825446 0.964054 1 0 1.000000
  0 55.578445 49.983994 22.345196 -0.250434 0.718400 0.648987 0.850476 0.848899 1 0 1.000000
bed_01_old
  0 61.953751 23.945856 24.149466 0.801684 0.032453 0.596866 0.888866 0.666936 1 0 1.000000
  0 61.825729 0.063927 25.021946 0.704362 0.000000 0.709841 0.884902 0.498964 1 0 1.000000
  0 64.279564 -47.263428 8.570776 0.986840 0.048088 0.154384 0.992885 0.160226 1 0 1.000000
bed_01_old
  0 61.825729 0.063927 25.021946 0.704362 0.000000 0.709841 0.884902 0.498964 1 0 1.000000
  0 61.953751 -23.818003 24.149462 0.801684 -0.032453 0.596866 0.887669 0.331555 1 0 1.000000
  0 64.279564 -47.263428 8.570776 0.986840 0.048088 0.154384 0.992885 0.160226 1 0 1.000000
bed_01_old
  0 64.279564 -47.263428 8.570776 0.986840 0.048088 0.154384 0.992885 0.160226 1 0 1.000000
  0 61.953751 -23.818003 24.149462 0.801684 -0.032453 0.596866 0.887669 0.331555 1 0 1.000000
  0 62.098061 -47.151852 22.148548 0.756804 -0.223174 0.614363 0.890075 0.166160 1 0 1.000000
bed_01_old
  0 61.953751 -23.818003 24.149462 0.801684 -0.032453 0.596866 0.887669 0.331555 1 0 1.000000
  0 57.798153 -44.266994 24.741177 0.281132 -0.158616 0.946470 0.861386 0.193168 1 0 1.000000
  0 62.098061 -47.151852 22.148548 0.756804 -0.223174 0.614363 0.890075 0.166160 1 0 1.000000
bed_01_old
  0 62.098061 -47.151852 22.148548 0.756804 -0.223174 0.614363 0.890075 0.166160 1 0 1.000000
  0 57.798153 -44.266994 24.741177 0.281132 -0.158616 0.946470 0.861386 0.193168 1 0 1.000000
  0 57.798153 -47.987705 23.830139 0.185591 -0.425927 0.885518 0.860556 0.167396 1 0 1.000000
bed_01_old
  0 57.798153 -44.266994 24.741177 0.281132 -0.158616 0.946470 0.861386 0.193168 1 0 1.000000
  0 51.739803 -44.266994 25.434799 0.087280 -0.175144 0.980666 0.824410 0.196771 1 0 1.000000
  0 57.798153 -47.987705 23.830139 0.185591 -0.425927 0.885518 0.860556 0.167396 1 0 1.000000
bed_01_old
  0 57.798153 -47.987705 23.830139 0.185591 -0.425927 0.885518 0.860556 0.167396 1 0 1.000000
  0 51.739803 -44.266994 25.434799 0.087280 -0.175144 0.980666 0.824410 0.196771 1 0 1.000000
  0 52.619370 -48.130455 24.510395 0.079602 -0.475593 0.876056 0.828893 0.169751 1 0 1.000000
bed_01_old
  0 51.739803 -44.266994 25.434799 0.087280 -0.175144 0.980666 0.824410 0.196771 1 0 1.000000
  0 31.505743 -48.640442 24.919744 0.023373 -0.493873 0.869220 0.700712 0.164504 1 0 1.000000
  0 52.619370 -48.130455 24.510395 0.079602 -0.475593 0.876056 0.828893 0.169751 1 0 1.000000
bed_01_old
  0 31.505743 -48.640442 24.919744 0.023373 -0.493873 0.869220 0.700712 0.164504 1 0 1.000000
  0 31.241070 -50.609318 22.773516 0.017988 -0.875979 0.482013 0.699660 0.143364 1 0 1.000000
  0 52.619370 -48.130455 24.510395 0.079602 -0.475593 0.876056 0.828893 0.169751 1 0 1.000000
bed_01_old
  0 31.505743 -48.640442 24.919744 0.023373 -0.493873 0.869220 0.700712 0.164504 1 0 1.000000
  0 5.736268 -48.634003 25.419363 -0.014017 -0.492322 0.870300 0.544230 0.163856 1 0 1.000000
  0 31.241070 -50.609318 22.773516 0.017988 -0.875979 0.482013 0.699660 0.143364 1 0 1.000000
bed_01_old
  0 31.241070 -50.609318 22.773516 0.017988 -0.875979 0.482013 0.699660 0.143364 1 0 1.000000
  0 5.736268 -48.634003 25.419363 -0.014017 -0.492322 0.870300 0.544230 0.163856 1 0 1.000000
  0 5.736269 -50.602894 23.254156 -0.012747 -0.873624 0.486434 0.544187 0.142699 1 0 1.000000
bed_01_old
  0 5.736268 -48.634003 25.419363 -0.014017 -0.492322 0.870300 0.544230 0.163856 1 0 1.000000
  0 -17.432781 -48.130455 24.510395 -0.044803 -0.492472 0.869174 0.402479 0.162129 1 0 1.000000
  0 5.736269 -50.602894 23.254156 -0.012747 -0.873624 0.486434 0.544187 0.142699 1 0 1.000000
bed_01_old
  0 5.736269 -50.602894 23.254156 -0.012747 -0.873624 0.486434 0.544187 0.142699 1 0 1.000000
  0 -17.432781 -48.130455 24.510395 -0.044803 -0.492472 0.869174 0.402479 0.162129 1 0 1.000000
  0 -17.432781 -50.099346 22.345192 -0.020051 -0.871101 0.490695 0.402466 0.140817 1 0 1.000000
bed_01_old
  0 -17.217072 -54.246536 10.548676 0.018921 -0.999226 -0.034472 0.403711 0.046306 1 0 1.000000
  0 5.736269 -50.602894 23.254156 -0.012747 -0.873624 0.486434 0.544187 0.142699 1 0 1.000000
  0 -17.432781 -50.099346 22.345192 -0.020051 -0.871101 0.490695 0.402466 0.140817 1 0 1.000000
bed_01_old
  0 13.490927 -53.633499 8.976543 0.004027 -0.998096 0.061553 0.594047 0.033442 1 0 1.000000
  0 5.736269 -50.602894 23.254156 -0.012747 -0.873624 0.486434 0.544187 0.142699 1 0 1.000000
  0 -17.217072 -54.246536 10.548676 0.018921 -0.999226 -0.034472 0.403711 0.046306 1 0 1.000000
bed_01_old
  0 13.490927 -53.633499 8.976543 0.004027 -0.998096 0.061553 0.594047 0.033442 1 0 1.000000
  0 -17.217072 -54.246536 10.548676 0.018921 -0.999226 -0.034472 0.403711 0.046306 1 0 1.000000
  0 -21.321365 -54.558311 8.374508 0.030776 -0.943282 -0.330564 0.378352 0.029935 1 0 1.000000
bed_01_old
  0 -37.123459 -53.583950 6.804650 0.030776 -0.943282 -0.330564 0.281473 0.015470 1 0 1.000000
  0 13.490927 -53.633499 8.976543 0.004027 -0.998096 0.061553 0.594047 0.033442 1 0 1.000000
  0 -21.321365 -54.558311 8.374508 0.030776 -0.943282 -0.330564 0.378352 0.029935 1 0 1.000000
bed_01_old
  0 62.098061 -47.151852 22.148548 0.756804 -0.223174 0.614363 0.890075 0.166160 1 0 1.000000
  0 57.798153 -47.987705 23.830139 0.185591 -0.425927 0.885518 0.860556 0.167396 1 0 1.000000
  0 60.819321 -49.722137 21.113173 0.530079 -0.695600 0.484930 0.881429 0.146785 1 0 1.000000
bed_01_old
  0 62.098061 -47.151852 22.148548 0.756804 -0.223174 0.614363 0.890075 0.166160 1 0 1.000000
  0 65.193794 -49.884834 5.385261 0.960936 -0.181760 0.208723 0.937490 0.041473 1 0 1.000000
  0 64.279564 -47.263428 8.570776 0.986840 0.048088 0.154384 0.939089 0.072412 1 0 1.000000
bed_01_old
  0 60.819321 -49.722137 21.113173 0.530079 -0.695600 0.484930 0.881429 0.146785 1 0 1.000000
  0 65.193794 -49.884834 5.385261 0.960936 -0.181760 0.208723 0.937490 0.041473 1 0 1.000000
  0 62.098061 -47.151852 22.148548 0.756804 -0.223174 0.614363 0.890075 0.166160 1 0 1.000000
bed_01_old
  0 64.716705 -51.642559 3.642878 0.725064 -0.648589 0.231548 0.932591 0.023853 1 0 1.000000
  0 65.193794 -49.884834 5.385261 0.960936 -0.181760 0.208723 0.937490 0.041473 1 0 1.000000
  0 60.819321 -49.722137 21.113173 0.530079 -0.695600 0.484930 0.881429 0.146785 1 0 1.000000
bed_01_old
  0 60.819321 -49.722137 21.113173 0.530079 -0.695600 0.484930 0.881429 0.146785 1 0 1.000000
  0 62.799637 -53.232098 3.095889 0.480739 -0.845286 0.233198 0.920028 0.012731 1 0 1.000000
  0 64.716705 -51.642559 3.642878 0.725064 -0.648589 0.231548 0.932591 0.023853 1 0 1.000000
bed_01_old
  0 60.819321 -49.722137 21.113173 0.530079 -0.695600 0.484930 0.881429 0.146785 1 0 1.000000
  0 52.588646 -57.681698 4.456532 0.064556 -0.935599 0.347113 0.849144 0.002492 1 0 1.000000
  0 62.799637 -53.232098 3.095889 0.480739 -0.845286 0.233198 0.920028 0.012731 1 0 1.000000
bed_01_old
  0 56.695019 -50.469219 22.291374 -0.051616 -0.785295 0.616966 0.854480 0.146669 1 0 1.000000
  0 52.588646 -57.681698 4.456532 0.064556 -0.935599 0.347113 0.849144 0.002492 1 0 1.000000
  0 60.819321 -49.722137 21.113173 0.530079 -0.695600 0.484930 0.881429 0.146785 1 0 1.000000
bed_01_old
  0 60.819321 -49.722137 21.113173 0.530079 -0.695600 0.484930 0.881429 0.146785 1 0 1.000000
  0 57.798153 -47.987705 23.830139 0.185591 -0.425927 0.885518 0.860556 0.167396 1 0 1.000000
  0 56.695019 -50.469219 22.291374 -0.051616 -0.785295 0.616966 0.854480 0.146669 1 0 1.000000
bed_01_old
  0 57.798153 -47.987705 23.830139 0.185591 -0.425927 0.885518 0.860556 0.167396 1 0 1.000000
  0 55.578453 -49.856140 22.345192 -0.250434 -0.718400 0.648987 0.847314 0.150169 1 0 1.000000
  0 56.695019 -50.469219 22.291374 -0.051616 -0.785295 0.616966 0.854480 0.146669 1 0 1.000000
bed_01_old
  0 57.798153 -47.987705 23.830139 0.185591 -0.425927 0.885518 0.860556 0.167396 1 0 1.000000
  0 52.619370 -48.130455 24.510395 0.079602 -0.475593 0.876056 0.828893 0.169751 1 0 1.000000
  0 55.578453 -49.856140 22.345192 -0.250434 -0.718400 0.648987 0.847314 0.150169 1 0 1.000000
bed_01_old
  0 52.619370 -48.130455 24.510395 0.079602 -0.475593 0.876056 0.828893 0.169751 1 0 1.000000
  0 31.241070 -50.609318 22.773516 0.017988 -0.875979 0.482013 0.699660 0.143364 1 0 1.000000
  0 55.578453 -49.856140 22.345192 -0.250434 -0.718400 0.648987 0.847314 0.150169 1 0 1.000000
bed_01_old
  0 31.241070 -50.609318 22.773516 0.017988 -0.875979 0.482013 0.699660 0.143364 1 0 1.000000
  0 49.522877 -53.675541 8.090565 0.047984 -0.964123 0.261082 0.819686 0.035693 1 0 1.000000
  0 55.578453 -49.856140 22.345192 -0.250434 -0.718400 0.648987 0.847314 0.150169 1 0 1.000000
bed_01_old
  0 29.394260 -55.098713 7.797779 0.011696 -0.967439 0.252834 0.693683 0.025911 1 0 1.000000
  0 49.522877 -53.675541 8.090565 0.047984 -0.964123 0.261082 0.819686 0.035693 1 0 1.000000
  0 31.241070 -50.609318 22.773516 0.017988 -0.875979 0.482013 0.699660 0.143364 1 0 1.000000
bed_01_old
  0 31.241070 -50.609318 22.773516 0.017988 -0.875979 0.482013 0.699660 0.143364 1 0 1.000000
  0 13.490927 -53.633499 8.976543 0.004027 -0.998096 0.061553 0.594047 0.033442 1 0 1.000000
  0 29.394260 -55.098713 7.797779 0.011696 -0.967439 0.252834 0.693683 0.025911 1 0 1.000000
bed_01_old
  0 5.736269 -50.602894 23.254156 -0.012747 -0.873624 0.486434 0.544187 0.142699 1 0 1.000000
  0 13.490927 -53.633499 8.976543 0.004027 -0.998096 0.061553 0.594047 0.033442 1 0 1.000000
  0 31.241070 -50.609318 22.773516 0.017988 -0.875979 0.482013 0.699660 0.143364 1 0 1.000000
bed_01_old
  0 48.979149 -55.208950 6.216260 -0.716367 -0.517706 0.467758 0.822000 0.017731 1 0 1.000000
  0 55.578453 -49.856140 22.345192 -0.250434 -0.718400 0.648987 0.847314 0.150169 1 0 1.000000
  0 49.522877 -53.675541 8.090565 -0.876898 -0.214719 0.430054 0.819686 0.035693 1 0 1.000000
bed_01_old
  0 55.578453 -49.856140 22.345192 -0.250434 -0.718400 0.648987 0.847314 0.150169 1 0 1.000000
  0 48.979149 -55.208950 6.216260 -0.716367 -0.517706 0.467758 0.822000 0.017731 1 0 1.000000
  0 56.695019 -50.469219 22.291374 -0.051616 -0.785295 0.616966 0.854480 0.146669 1 0 1.000000
bed_01_old
  0 56.695019 -50.469219 22.291374 -0.051616 -0.785295 0.616966 0.854480 0.146669 1 0 1.000000
  0 48.979149 -55.208950 6.216260 -0.716367 -0.517706 0.467758 0.822000 0.017731 1 0 1.000000
  0 50.137531 -56.742355 5.036592 -0.359239 -0.826025 0.434316 0.832461 0.006019 1 0 1.000000
bed_01_old
  0 56.695019 -50.469219 22.291374 -0.051616 -0.785295 0.616966 0.854480 0.146669 1 0 1.000000
  0 50.137531 -56.742355 5.036592 -0.359239 -0.826025 0.434316 0.832461 0.006019 1 0 1.000000
  0 52.588646 -57.681698 4.456532 0.064556 -0.935599 0.347113 0.849144 0.002492 1 0 1.000000
bed_01_old
  0 -38.931583 -48.340237 17.433702 -0.869419 0.432894 -0.238145 0.012114 0.525785 1 0 1.000000
  0 -38.343201 -47.767033 16.327570 -0.869419 0.432894 -0.238145 0.004518 0.529405 1 0 1.000000
  0 -38.919109 -48.923710 16.327549 -0.869419 0.432894 -0.238145 0.004518 0.522100 1 0 1.000000
bed_01_old
  0 -16.299311 0.063923 28.613819 -0.029866 0.000000 0.999554 0.411455 0.499457 1 0 1.000000
  0 3.040862 0.063924 29.271887 -0.020020 0.000000 0.999799 0.527278 0.498895 1 0 1.000000
  0 -16.437370 23.945852 27.583311 -0.031899 0.070522 0.997000 0.414365 0.664686 1 0 1.000000
bed_01_old
  0 -16.437366 -23.818008 27.583307 -0.031899 -0.070522 0.997000 0.409812 0.333164 1 0 1.000000
  0 3.040862 0.063924 29.271887 -0.020020 0.000000 0.999799 0.527278 0.498895 1 0 1.000000
  0 -16.299311 0.063923 28.613819 -0.029866 0.000000 0.999554 0.411455 0.499457 1 0 1.000000
bed_01_old
  0 3.875877 -23.818008 28.110052 -0.018315 -0.072365 0.997210 0.531466 0.334697 1 0 1.000000
  0 3.040862 0.063924 29.271887 -0.020020 0.000000 0.999799 0.527278 0.498895 1 0 1.000000
  0 -16.437366 -23.818008 27.583307 -0.031899 -0.070522 0.997000 0.409812 0.333164 1 0 1.000000
bed_01_old
  0 -17.432781 -44.266994 25.434799 -0.038626 -0.163599 0.985770 0.403595 0.189555 1 0 1.000000
  0 3.875877 -23.818008 28.110052 -0.018315 -0.072365 0.997210 0.531466 0.334697 1 0 1.000000
  0 -16.437366 -23.818008 27.583307 -0.031899 -0.070522 0.997000 0.409812 0.333164 1 0 1.000000
bed_01_old
  0 5.736267 -44.770538 26.343767 -0.014398 -0.166485 0.985939 0.543912 0.190769 1 0 1.000000
  0 3.875877 -23.818008 28.110052 -0.018315 -0.072365 0.997210 0.531466 0.334697 1 0 1.000000
  0 -17.432781 -44.266994 25.434799 -0.038626 -0.163599 0.985770 0.403595 0.189555 1 0 1.000000
bed_01_old
  0 -17.432781 -48.130455 24.510395 -0.044803 -0.492472 0.869174 0.402479 0.162129 1 0 1.000000
  0 5.736267 -44.770538 26.343767 -0.014398 -0.166485 0.985939 0.543912 0.190769 1 0 1.000000
  0 -17.432781 -44.266994 25.434799 -0.038626 -0.163599 0.985770 0.403595 0.189555 1 0 1.000000
bed_01_old
  0 5.736268 -48.634003 25.419363 -0.014017 -0.492322 0.870300 0.544230 0.163856 1 0 1.000000
  0 5.736267 -44.770538 26.343767 -0.014398 -0.166485 0.985939 0.543912 0.190769 1 0 1.000000
  0 -17.432781 -48.130455 24.510395 -0.044803 -0.492472 0.869174 0.402479 0.162129 1 0 1.000000
bed_01_old
  0 31.505743 -48.640442 24.919744 0.023373 -0.493873 0.869220 0.700712 0.164504 1 0 1.000000
  0 5.736267 -44.770538 26.343767 -0.014398 -0.166485 0.985939 0.543912 0.190769 1 0 1.000000
  0 5.736268 -48.634003 25.419363 -0.014017 -0.492322 0.870300 0.544230 0.163856 1 0 1.000000
bed_01_old
  0 31.618286 -44.776970 25.832375 0.021069 -0.170533 0.985127 0.701710 0.191405 1 0 1.000000
  0 5.736267 -44.770538 26.343767 -0.014398 -0.166485 0.985939 0.543912 0.190769 1 0 1.000000
  0 31.505743 -48.640442 24.919744 0.023373 -0.493873 0.869220 0.700712 0.164504 1 0 1.000000
bed_01_old
  0 31.618286 -44.776970 25.832375 0.021069 -0.170533 0.985127 0.701710 0.191405 1 0 1.000000
  0 31.505743 -48.640442 24.919744 0.023373 -0.493873 0.869220 0.700712 0.164504 1 0 1.000000
  0 51.739803 -44.266994 25.434799 0.087280 -0.175144 0.980666 0.824410 0.196771 1 0 1.000000
bed_01_old
  0 51.739803 -44.266994 25.434799 0.087280 -0.175144 0.980666 0.824410 0.196771 1 0 1.000000
  0 32.161846 -23.818007 28.580370 0.022345 -0.073941 0.997012 0.702567 0.336049 1 0 1.000000
  0 31.618286 -44.776970 25.832375 0.021069 -0.170533 0.985127 0.701710 0.191405 1 0 1.000000
bed_01_old
  0 51.739799 -23.818005 27.448225 0.092769 -0.067799 0.993377 0.820753 0.336509 1 0 1.000000
  0 32.161846 -23.818007 28.580370 0.022345 -0.073941 0.997012 0.702567 0.336049 1 0 1.000000
  0 51.739803 -44.266994 25.434799 0.087280 -0.175144 0.980666 0.824410 0.196771 1 0 1.000000
bed_01_old
  0 51.739799 0.063926 28.202269 0.101798 0.000000 0.994805 0.819027 0.500116 1 0 1.000000
  0 32.161846 -23.818007 28.580370 0.022345 -0.073941 0.997012 0.702567 0.336049 1 0 1.000000
  0 51.739799 -23.818005 27.448225 0.092769 -0.067799 0.993377 0.820753 0.336509 1 0 1.000000
bed_01_old
  0 32.171642 0.063925 29.385929 0.024446 0.000000 0.999701 0.702230 0.500302 1 0 1.000000
  0 32.161846 -23.818007 28.580370 0.022345 -0.073941 0.997012 0.702567 0.336049 1 0 1.000000
  0 51.739799 0.063926 28.202269 0.101798 0.000000 0.994805 0.819027 0.500116 1 0 1.000000
bed_01_old
  0 32.171642 0.063925 29.385929 0.024446 0.000000 0.999701 0.702230 0.500302 1 0 1.000000
  0 51.739799 0.063926 28.202269 0.101798 0.000000 0.994805 0.819027 0.500116 1 0 1.000000
  0 32.161846 23.945854 28.580374 0.022345 0.073941 0.997012 0.702746 0.666612 1 0 1.000000
bed_01_old
  0 3.875875 23.945852 28.110056 -0.018315 0.072365 0.997210 0.536702 0.663169 1 0 1.000000
  0 32.171642 0.063925 29.385929 0.024446 0.000000 0.999701 0.702230 0.500302 1 0 1.000000
  0 32.161846 23.945854 28.580374 0.022345 0.073941 0.997012 0.702746 0.666612 1 0 1.000000
bed_01_old
  0 3.040862 0.063924 29.271887 -0.020020 0.000000 0.999799 0.527278 0.498895 1 0 1.000000
  0 32.171642 0.063925 29.385929 0.024446 0.000000 0.999701 0.702230 0.500302 1 0 1.000000
  0 3.875875 23.945852 28.110056 -0.018315 0.072365 0.997210 0.536702 0.663169 1 0 1.000000
bed_01_old
  0 3.040862 0.063924 29.271887 -0.020020 0.000000 0.999799 0.527278 0.498895 1 0 1.000000
  0 3.875877 -23.818008 28.110052 -0.018315 -0.072365 0.997210 0.531466 0.334697 1 0 1.000000
  0 32.171642 0.063925 29.385929 0.024446 0.000000 0.999701 0.702230 0.500302 1 0 1.000000
bed_01_old
  0 32.171642 0.063925 29.385929 0.024446 0.000000 0.999701 0.702230 0.500302 1 0 1.000000
  0 3.875877 -23.818008 28.110052 -0.018315 -0.072365 0.997210 0.531466 0.334697 1 0 1.000000
  0 32.161846 -23.818007 28.580370 0.022345 -0.073941 0.997012 0.702567 0.336049 1 0 1.000000
bed_01_old
  0 3.875877 -23.818008 28.110052 -0.018315 -0.072365 0.997210 0.531466 0.334697 1 0 1.000000
  0 5.736267 -44.770538 26.343767 -0.014398 -0.166485 0.985939 0.543912 0.190769 1 0 1.000000
  0 32.161846 -23.818007 28.580370 0.022345 -0.073941 0.997012 0.702567 0.336049 1 0 1.000000
bed_01_old
  0 32.161846 -23.818007 28.580370 0.022345 -0.073941 0.997012 0.702567 0.336049 1 0 1.000000
  0 5.736267 -44.770538 26.343767 -0.014398 -0.166485 0.985939 0.543912 0.190769 1 0 1.000000
  0 31.618286 -44.776970 25.832375 0.021069 -0.170533 0.985127 0.701710 0.191405 1 0 1.000000
bed_01_old
  0 32.161846 23.945854 28.580374 0.022345 0.073941 0.997012 0.702746 0.666612 1 0 1.000000
  0 51.739799 0.063926 28.202269 0.101798 0.000000 0.994805 0.819027 0.500116 1 0 1.000000
  0 51.739799 23.945856 27.448229 0.092769 0.067799 0.993377 0.821717 0.663309 1 0 1.000000
bed_01_old
  0 51.739799 0.063926 28.202269 0.101798 0.000000 0.994805 0.819027 0.500116 1 0 1.000000
  0 57.798149 0.063926 27.303228 0.322081 0.000000 0.946712 0.855657 0.499605 1 0 1.000000
  0 51.739799 23.945856 27.448229 0.092769 0.067799 0.993377 0.821717 0.663309 1 0 1.000000
bed_01_old
  0 51.739799 0.063926 28.202269 0.101798 0.000000 0.994805 0.819027 0.500116 1 0 1.000000
  0 51.739799 -23.818005 27.448225 0.092769 -0.067799 0.993377 0.820753 0.336509 1 0 1.000000
  0 57.798149 0.063926 27.303228 0.322081 0.000000 0.946712 0.855657 0.499605 1 0 1.000000
bed_01_old
  0 57.798149 0.063926 27.303228 0.322081 0.000000 0.946712 0.855657 0.499605 1 0 1.000000
  0 51.739799 -23.818005 27.448225 0.092769 -0.067799 0.993377 0.820753 0.336509 1 0 1.000000
  0 57.798149 -23.818005 26.577108 0.315748 -0.057655 0.947090 0.857402 0.335245 1 0 1.000000
bed_01_old
  0 51.739799 -23.818005 27.448225 0.092769 -0.067799 0.993377 0.820753 0.336509 1 0 1.000000
  0 51.739803 -44.266994 25.434799 0.087280 -0.175144 0.980666 0.824410 0.196771 1 0 1.000000
  0 57.798149 -23.818005 26.577108 0.315748 -0.057655 0.947090 0.857402 0.335245 1 0 1.000000
bed_01_old
  0 57.798149 -23.818005 26.577108 0.315748 -0.057655 0.947090 0.857402 0.335245 1 0 1.000000
  0 51.739803 -44.266994 25.434799 0.087280 -0.175144 0.980666 0.824410 0.196771 1 0 1.000000
  0 57.798153 -44.266994 24.741177 0.281132 -0.158616 0.946470 0.861386 0.193168 1 0 1.000000
bed_01_old
  0 57.798149 -23.818005 26.577108 0.315748 -0.057655 0.947090 0.857402 0.335245 1 0 1.000000
  0 57.798153 -44.266994 24.741177 0.281132 -0.158616 0.946470 0.861386 0.193168 1 0 1.000000
  0 61.953751 -23.818003 24.149462 0.801684 -0.032453 0.596866 0.887669 0.331555 1 0 1.000000
bed_01_old
  0 61.825729 0.063927 25.021946 0.704362 0.000000 0.709841 0.884902 0.498964 1 0 1.000000
  0 57.798149 -23.818005 26.577108 0.315748 -0.057655 0.947090 0.857402 0.335245 1 0 1.000000
  0 61.953751 -23.818003 24.149462 0.801684 -0.032453 0.596866 0.887669 0.331555 1 0 1.000000
bed_01_old
  0 57.798149 0.063926 27.303228 0.322081 0.000000 0.946712 0.855657 0.499605 1 0 1.000000
  0 57.798149 -23.818005 26.577108 0.315748 -0.057655 0.947090 0.857402 0.335245 1 0 1.000000
  0 61.825729 0.063927 25.021946 0.704362 0.000000 0.709841 0.884902 0.498964 1 0 1.000000
bed_01_old
  0 57.798149 0.063926 27.303228 0.322081 0.000000 0.946712 0.855657 0.499605 1 0 1.000000
  0 61.825729 0.063927 25.021946 0.704362 0.000000 0.709841 0.884902 0.498964 1 0 1.000000
  0 57.798149 23.945856 26.577112 0.315749 0.057655 0.947089 0.858502 0.663696 1 0 1.000000
bed_01_old
  0 51.739799 23.945856 27.448229 0.092769 0.067799 0.993377 0.821717 0.663309 1 0 1.000000
  0 57.798149 0.063926 27.303228 0.322081 0.000000 0.946712 0.855657 0.499605 1 0 1.000000
  0 57.798149 23.945856 26.577112 0.315749 0.057655 0.947089 0.858502 0.663696 1 0 1.000000
bed_01_old
  0 57.798149 23.945856 26.577112 0.315749 0.057655 0.947089 0.858502 0.663696 1 0 1.000000
  0 51.739796 44.394833 25.434803 0.087280 0.175143 0.980667 0.826480 0.802714 1 0 1.000000
  0 51.739799 23.945856 27.448229 0.092769 0.067799 0.993377 0.821717 0.663309 1 0 1.000000
bed_01_old
  0 51.739799 23.945856 27.448229 0.092769 0.067799 0.993377 0.821717 0.663309 1 0 1.000000
  0 51.739796 44.394833 25.434803 0.087280 0.175143 0.980667 0.826480 0.802714 1 0 1.000000
  0 32.161846 23.945854 28.580374 0.022345 0.073941 0.997012 0.702746 0.666612 1 0 1.000000
bed_01_old
  0 32.161846 23.945854 28.580374 0.022345 0.073941 0.997012 0.702746 0.666612 1 0 1.000000
  0 51.739796 44.394833 25.434803 0.087280 0.175143 0.980667 0.826480 0.802714 1 0 1.000000
  0 31.618282 44.904819 25.832378 0.021069 0.170533 0.985127 0.702701 0.809899 1 0 1.000000
bed_01_old
  0 31.618282 44.904819 25.832378 0.021069 0.170533 0.985127 0.702701 0.809899 1 0 1.000000
  0 5.736263 44.898388 26.343771 -0.014398 0.166485 0.985939 0.541186 0.817813 1 0 1.000000
  0 32.161846 23.945854 28.580374 0.022345 0.073941 0.997012 0.702746 0.666612 1 0 1.000000
bed_01_old
  0 32.161846 23.945854 28.580374 0.022345 0.073941 0.997012 0.702746 0.666612 1 0 1.000000
  0 5.736263 44.898388 26.343771 -0.014398 0.166485 0.985939 0.541186 0.817813 1 0 1.000000
  0 3.875875 23.945852 28.110056 -0.018315 0.072365 0.997210 0.536702 0.663169 1 0 1.000000
bed_01_old
  0 -17.432785 44.394833 25.434803 -0.038626 0.163598 0.985771 0.416346 0.806302 1 0 1.000000
  0 3.875875 23.945852 28.110056 -0.018315 0.072365 0.997210 0.536702 0.663169 1 0 1.000000
  0 5.736263 44.898388 26.343771 -0.014398 0.166485 0.985939 0.541186 0.817813 1 0 1.000000
bed_01_old
  0 -16.437370 23.945852 27.583311 -0.031899 0.070522 0.997000 0.414365 0.664686 1 0 1.000000
  0 3.875875 23.945852 28.110056 -0.018315 0.072365 0.997210 0.536702 0.663169 1 0 1.000000
  0 -17.432785 44.394833 25.434803 -0.038626 0.163598 0.985771 0.416346 0.806302 1 0 1.000000
bed_01_old
  0 -16.437370 23.945852 27.583311 -0.031899 0.070522 0.997000 0.414365 0.664686 1 0 1.000000
  0 3.040862 0.063924 29.271887 -0.020020 0.000000 0.999799 0.527278 0.498895 1 0 1.000000
  0 3.875875 23.945852 28.110056 -0.018315 0.072365 0.997210 0.536702 0.663169 1 0 1.000000
bed_01_old
  0 -17.432781 -44.266994 25.434799 0.909192 0.050088 -0.413353 0.404879 0.790090 1 0 1.000000
  0 -16.859818 -48.375328 25.678720 0.901036 -0.184741 0.392434 0.392609 0.811482 1 0 1.000000
  0 -17.432781 -48.130455 24.510395 0.898875 0.218979 -0.379567 0.399431 0.816715 1 0 1.000000
bed_01_old
  0 -16.859818 -48.375328 25.678720 0.901036 -0.184741 0.392434 0.392609 0.811482 1 0 1.000000
  0 -16.859818 -51.687943 22.395124 0.880568 -0.399350 0.255185 0.390671 0.842773 1 0 1.000000
  0 -17.432781 -48.130455 24.510395 0.898875 0.218979 -0.379567 0.399431 0.816715 1 0 1.000000
bed_01_old
  0 -17.432781 -48.130455 24.510395 0.898875 0.218979 -0.379567 0.399431 0.816715 1 0 1.000000
  0 -16.859818 -51.687943 22.395124 0.880568 -0.399350 0.255185 0.390671 0.842773 1 0 1.000000
  0 -17.432781 -50.099346 22.345192 0.951800 0.236056 -0.195843 0.399637 0.836835 1 0 1.000000
bed_01_old
  0 -16.859818 -51.687943 22.395124 0.880568 -0.399350 0.255185 0.390671 0.842773 1 0 1.000000
  0 -17.270306 -55.841347 12.451707 0.751339 -0.640817 -0.157619 0.381510 0.919435 1 0 1.000000
  0 -17.432781 -50.099346 22.345192 0.951800 0.236056 -0.195843 0.399637 0.836835 1 0 1.000000
bed_01_old
  0 -17.432781 -50.099346 22.345192 0.951800 0.236056 -0.195843 0.399637 0.836835 1 0 1.000000
  0 -17.270306 -55.841347 12.451707 0.751339 -0.640817 -0.157619 0.381510 0.919435 1 0 1.000000
  0 -17.217072 -54.246536 10.548676 0.838000 -0.343958 -0.423615 0.389198 0.935409 1 0 1.000000
bed_01_old
  0 -17.270306 -55.841347 12.451707 0.751339 -0.640817 -0.157619 0.381510 0.919435 1 0 1.000000
  0 -21.321365 -57.603931 11.403716 0.195839 -0.968206 -0.155642 0.358479 0.926677 1 0 1.000000
  0 -17.217072 -54.246536 10.548676 0.838000 -0.343958 -0.423615 0.389198 0.935409 1 0 1.000000
bed_01_old
  0 -17.217072 -54.246536 10.548676 0.838000 -0.343958 -0.423615 0.389198 0.935409 1 0 1.000000
  0 -21.321365 -57.603931 11.403716 0.195839 -0.968206 -0.155642 0.358479 0.926677 1 0 1.000000
  0 -21.321365 -54.558311 8.374508 0.198133 -0.752159 -0.628491 0.363199 0.953383 1 0 1.000000
bed_01_old
  0 -21.321365 -57.603931 11.403716 0.195839 -0.968206 -0.155642 0.358479 0.926677 1 0 1.000000
  0 -27.321632 -56.654930 10.813704 -0.030295 -0.798441 -0.601310 0.326024 0.925575 1 0 1.000000
  0 -21.321365 -54.558311 8.374508 0.198133 -0.752159 -0.628491 0.363199 0.953383 1 0 1.000000
bed_01_old
  0 -21.321365 -54.558311 8.374508 0.198133 -0.752159 -0.628491 0.363199 0.953383 1 0 1.000000
  0 -27.321632 -56.654930 10.813704 -0.030295 -0.798441 -0.601310 0.326024 0.925575 1 0 1.000000
  0 -37.123459 -53.583950 6.804650 -0.309033 -0.810113 -0.498212 0.254071 0.946112 1 0 1.000000
bed_01_old
  0 -27.321632 -56.654930 10.813704 -0.030295 -0.798441 -0.601310 0.326024 0.925575 1 0 1.000000
  0 -37.310749 -54.405846 8.905384 -0.492172 -0.853286 -0.172247 0.259848 0.932656 1 0 1.000000
  0 -37.123459 -53.583950 6.804650 -0.309033 -0.810113 -0.498212 0.254071 0.946112 1 0 1.000000
bed_01_old
  0 -37.310749 -54.405846 8.905384 -0.492172 -0.853286 -0.172247 0.259848 0.932656 1 0 1.000000
  0 -38.931583 -52.798492 8.115785 -0.847847 -0.524054 -0.080761 0.245561 0.933306 1 0 1.000000
  0 -37.123459 -53.583950 6.804650 -0.309033 -0.810113 -0.498212 0.254071 0.946112 1 0 1.000000
bed_01_old
  0 -37.310749 -54.405846 8.905384 -0.492172 -0.853286 -0.172247 0.259848 0.932656 1 0 1.000000
  0 -38.931583 -50.157051 21.698034 -0.840822 -0.506048 0.192180 0.260099 0.832251 1 0 1.000000
  0 -38.931583 -52.798492 8.115785 -0.847847 -0.524054 -0.080761 0.245561 0.933306 1 0 1.000000
bed_01_old
  0 -38.931583 -52.798492 8.115785 -0.847847 -0.524054 -0.080761 0.245561 0.933306 1 0 1.000000
  0 -38.931583 -50.157051 21.698034 -0.840822 -0.506048 0.192180 0.260099 0.832251 1 0 1.000000
  0 -38.919109 -48.923710 16.327549 -0.999993 0.003280 -0.001570 0.243173 0.866644 1 0 1.000000
bed_01_old
  0 -38.919109 -48.923710 16.327549 -0.999993 0.003280 -0.001570 0.243173 0.866644 1 0 1.000000
  0 -38.931583 -50.157051 21.698034 -0.840822 -0.506048 0.192180 0.260099 0.832251 1 0 1.000000
  0 -38.931583 -48.340237 17.433702 -0.999998 0.001506 -0.000842 0.242230 0.858001 1 0 1.000000
bed_01_old
  0 -38.932377 -48.330360 24.343037 -0.794481 -0.494486 0.352540 0.260944 0.807740 1 0 1.000000
  0 -38.931583 -48.340237 17.433702 -0.999998 0.001506 -0.000842 0.242230 0.858001 1 0 1.000000
  0 -38.931583 -50.157051 21.698034 -0.840822 -0.506048 0.192180 0.260099 0.832251 1 0 1.000000
bed_01_old
  0 -37.550880 -50.724522 22.402615 -0.551590 -0.734036 0.396157 0.268730 0.828278 1 0 1.000000
  0 -38.932377 -48.330360 24.343037 -0.794481 -0.494486 0.352540 0.260944 0.807740 1 0 1.000000
  0 -38.931583 -50.157051 21.698034 -0.840822 -0.506048 0.192180 0.260099 0.832251 1 0 1.000000
bed_01_old
  0 -38.069904 -48.206059 25.693409 -0.522054 -0.328945 0.786927 0.268985 0.801046 1 0 1.000000
  0 -38.932377 -48.330360 24.343037 -0.794481 -0.494486 0.352540 0.260944 0.807740 1 0 1.000000
  0 -37.550880 -50.724522 22.402615 -0.551590 -0.734036 0.396157 0.268730 0.828278 1 0 1.000000
bed_01_old
  0 -38.931583 -47.109127 25.404482 -0.316243 -0.225463 0.921497 0.262501 0.796230 1 0 1.000000
  0 -38.932377 -48.330360 24.343037 -0.794481 -0.494486 0.352540 0.260944 0.807740 1 0 1.000000
  0 -38.069904 -48.206059 25.693409 -0.522054 -0.328945 0.786927 0.268985 0.801046 1 0 1.000000
bed_01_old
  0 -37.550880 -50.724522 22.402615 -0.551590 -0.734036 0.396157 0.268730 0.828278 1 0 1.000000
  0 -38.931583 -50.157051 21.698034 -0.840822 -0.506048 0.192180 0.260099 0.832251 1 0 1.000000
  0 -37.310749 -54.405846 8.905384 -0.492172 -0.853286 -0.172247 0.259848 0.932656 1 0 1.000000
bed_01_old
  0 -59.019329 47.236958 25.404486 -0.327204 0.272942 0.904677 0.148730 0.234797 1 0 1.000000
  0 -38.931591 47.236958 25.404486 -0.316243 0.225463 0.921497 0.235689 0.240742 1 0 1.000000
  0 -59.012451 47.250671 25.392082 -0.281011 0.606104 0.744090 0.148760 0.234732 1 0 1.000000
bed_01_old
  0 -38.931591 47.236958 25.404486 -0.316243 0.225463 0.921497 0.235689 0.240742 1 0 1.000000
  0 -38.932384 48.458199 24.343040 -0.000597 0.900910 0.434005 0.235705 0.231950 1 0 1.000000
  0 -59.012451 47.250671 25.392082 -0.281011 0.606104 0.744090 0.148760 0.234732 1 0 1.000000
bed_01_old
  0 -38.932384 48.458199 24.343040 -0.000597 0.900910 0.434005 0.235705 0.231950 1 0 1.000000
  0 -58.411911 48.448673 24.308624 -0.122083 0.903162 0.411575 0.151472 0.230793 1 0 1.000000
  0 -59.012451 47.250671 25.392082 -0.281011 0.606104 0.744090 0.148760 0.234732 1 0 1.000000
bed_01_old
  0 -38.932384 48.458199 24.343040 -0.000597 0.900910 0.434005 0.235705 0.231950 1 0 1.000000
  0 -38.931591 48.468079 17.433706 -0.004516 0.951251 -0.308385 0.235722 0.192541 1 0 1.000000
  0 -58.411911 48.448673 24.308624 -0.122083 0.903162 0.411575 0.151472 0.230793 1 0 1.000000
bed_01_old
  0 -58.411911 48.448673 24.308624 -0.122083 0.903162 0.411575 0.151472 0.230793 1 0 1.000000
  0 -38.931591 48.468079 17.433706 -0.004516 0.951251 -0.308385 0.235722 0.192541 1 0 1.000000
  0 -58.411911 48.468079 17.433706 -0.131009 0.941504 -0.310495 0.154128 0.192452 1 0 1.000000
bed_01_old
  0 -38.931591 48.468079 17.433706 -0.004516 0.951251 -0.308385 0.235722 0.192541 1 0 1.000000
  0 -38.343208 47.894871 16.327574 -0.008120 0.820026 -0.572269 0.238382 0.185528 1 0 1.000000
  0 -58.411911 48.468079 17.433706 -0.131009 0.941504 -0.310495 0.154128 0.192452 1 0 1.000000
bed_01_old
  0 -58.411911 48.468079 17.433706 -0.131009 0.941504 -0.310495 0.154128 0.192452 1 0 1.000000
  0 -38.343208 47.894871 16.327574 -0.008120 0.820026 -0.572269 0.238382 0.185528 1 0 1.000000
  0 -59.025150 47.497173 16.327574 -0.430303 0.543556 -0.720684 0.154101 0.185450 1 0 1.000000
bed_01_old
  0 -59.019329 47.236958 25.404486 -0.327204 0.272942 0.904677 0.148730 0.234797 1 0 1.000000
  0 -59.012451 47.250671 25.392082 -0.281011 0.606104 0.744090 0.148644 0.234724 1 0 1.000000
  0 -60.457424 46.796547 24.338451 -0.862729 0.233552 0.448499 0.142994 0.236051 1 0 1.000000
bed_01_old
  0 -59.012451 47.250671 25.392082 -0.281011 0.606104 0.744090 0.148644 0.234724 1 0 1.000000
  0 -59.742107 48.088173 24.321640 -0.557279 0.718650 0.415910 0.143675 0.231495 1 0 1.000000
  0 -60.457424 46.796547 24.338451 -0.862729 0.233552 0.448499 0.142994 0.236051 1 0 1.000000
bed_01_old
  0 -59.742107 48.088173 24.321640 -0.557279 0.718650 0.415910 0.143675 0.231495 1 0 1.000000
  0 -59.012451 47.250671 25.392082 -0.281011 0.606104 0.744090 0.148644 0.234724 1 0 1.000000
  0 -58.411911 48.448673 24.308624 -0.122083 0.903162 0.411575 0.144203 0.227968 1 0 1.000000
bed_01_old
  0 -58.411911 48.448673 24.308624 -0.122083 0.903162 0.411575 0.144203 0.227968 1 0 1.000000
  0 -59.744587 48.092216 17.431778 -0.577390 0.735215 -0.355075 0.103634 0.231211 1 0 1.000000
  0 -59.742107 48.088173 24.321640 -0.557279 0.718650 0.415910 0.143675 0.231495 1 0 1.000000
bed_01_old
  0 -58.411911 48.468079 17.433706 -0.131009 0.941504 -0.310495 0.103400 0.227548 1 0 1.000000
  0 -59.744587 48.092216 17.431778 -0.577390 0.735215 -0.355075 0.103634 0.231211 1 0 1.000000
  0 -58.411911 48.448673 24.308624 -0.122083 0.903162 0.411575 0.144203 0.227968 1 0 1.000000
bed_01_old
  0 -58.411911 48.468079 17.433706 -0.131009 0.941504 -0.310495 0.103400 0.227548 1 0 1.000000
  0 -59.025150 47.497173 16.327574 -0.430303 0.543556 -0.720684 0.096140 0.232352 1 0 1.000000
  0 -59.744587 48.092216 17.431778 -0.577390 0.735215 -0.355075 0.103634 0.231211 1 0 1.000000
bed_01_old
  0 -59.744587 48.092216 17.431778 -0.577390 0.735215 -0.355075 0.103634 0.231211 1 0 1.000000
  0 -59.025150 47.497173 16.327574 -0.430303 0.543556 -0.720684 0.096140 0.232352 1 0 1.000000
  0 -60.457424 46.785427 17.429300 -0.876475 0.233814 -0.420858 0.103935 0.235920 1 0 1.000000
bed_01_old
  0 -59.744587 48.092216 17.431778 -0.577390 0.735215 -0.355075 0.103634 0.231211 1 0 1.000000
  0 -60.457424 46.785427 17.429300 -0.876475 0.233814 -0.420858 0.103935 0.235920 1 0 1.000000
  0 -59.742107 48.088173 24.321640 -0.557279 0.718650 0.415910 0.143675 0.231495 1 0 1.000000
bed_01_old
  0 -59.742107 48.088173 24.321640 -0.557279 0.718650 0.415910 0.143675 0.231495 1 0 1.000000
  0 -60.457424 46.785427 17.429300 -0.876475 0.233814 -0.420858 0.103935 0.235920 1 0 1.000000
  0 -60.457424 46.796547 24.338451 -0.862729 0.233552 0.448499 0.142994 0.236051 1 0 1.000000
bed_01_old
  0 -60.500755 47.905418 -0.016112 -0.964936 0.262486 0.000000 0.102050 0.224876 1 0 1.000000
  0 -60.500748 -47.777588 -0.016116 -0.979989 -0.199050 0.000000 0.102050 0.006872 1 0 1.000000
  0 -60.500755 47.905418 16.327570 -0.964936 0.262486 0.000000 0.145584 0.224876 1 0 1.000000
bed_01_old
  0 -60.500755 47.905418 16.327570 -0.964936 0.262486 0.000000 0.145584 0.224876 1 0 1.000000
  0 -60.500748 -47.777588 -0.016116 -0.979989 -0.199050 0.000000 0.102050 0.006872 1 0 1.000000
  0 -60.500748 -47.777588 16.327566 -0.979989 -0.199050 0.000000 0.145584 0.006872 1 0 1.000000
bed_01_old
  0 -60.500755 47.905418 16.327570 -0.000003 0.000000 1.000000 0.155465 0.180175 1 0 1.000000
  0 -60.500748 -47.777588 16.327566 -0.000003 0.000000 1.000000 0.155465 0.010583 1 0 1.000000
  0 -59.025150 47.497173 16.327574 -0.000003 0.000000 1.000000 0.161217 0.178583 1 0 1.000000
bed_01_old
  0 -59.025150 47.497173 16.327574 -0.000003 0.000000 1.000000 0.161217 0.178583 1 0 1.000000
  0 -60.500748 -47.777588 16.327566 -0.000003 0.000000 1.000000 0.155465 0.010583 1 0 1.000000
  0 -59.064323 -47.483349 16.327570 -0.000003 0.000000 1.000000 0.161064 0.011730 1 0 1.000000
bed_01_old
  0 -21.321365 -57.603931 11.403716 0.075159 -0.138726 -0.987475 0.358479 0.926677 1 0 1.000000
  0 -27.321632 -57.982464 11.000204 0.116102 -0.136697 -0.983786 0.326611 0.917095 1 0 1.000000
  0 -27.321632 -56.654930 10.813704 0.116102 -0.136697 -0.983786 0.326024 0.925575 1 0 1.000000
bed_01_old
  0 -27.321632 -57.982464 11.000204 0.116102 -0.136697 -0.983786 0.326611 0.917095 1 0 1.000000
  0 -37.123459 -56.966373 9.283135 0.157049 -0.134424 -0.978400 0.272984 0.920421 1 0 1.000000
  0 -27.321632 -56.654930 10.813704 0.116102 -0.136697 -0.983786 0.326024 0.925575 1 0 1.000000
bed_01_old
  0 -27.321632 -56.654930 10.813704 0.116102 -0.136697 -0.983786 0.326024 0.925575 1 0 1.000000
  0 -37.123459 -56.966373 9.283135 0.157049 -0.134424 -0.978400 0.272984 0.920421 1 0 1.000000
  0 -37.310749 -54.405846 8.905384 0.157049 -0.134424 -0.978400 0.259848 0.932656 1 0 1.000000
bed_01_old
  0 -58.864971 -48.923710 16.327549 -0.088374 -0.996087 0.000155 0.146090 0.002641 1 0 1.000000
  0 -60.109219 -48.701633 16.327557 -0.623584 -0.781756 0.000000 0.146057 0.004844 1 0 1.000000
  0 -58.864971 -48.923710 -0.011453 -0.088374 -0.996087 0.000155 0.101849 0.001797 1 0 1.000000
bed_01_old
  0 -58.864971 -48.923710 -0.011453 -0.088374 -0.996087 0.000155 0.101849 0.001797 1 0 1.000000
  0 -60.109219 -48.701633 16.327557 -0.623584 -0.781756 0.000000 0.146057 0.004844 1 0 1.000000
  0 -60.109219 -48.701633 -0.013752 -0.623584 -0.781756 0.000000 0.101833 0.004278 1 0 1.000000
bed_01_old
  0 -60.109219 -48.701633 -0.013752 -0.623584 -0.781756 0.000000 0.101833 0.004278 1 0 1.000000
  0 -60.109219 -48.701633 16.327557 -0.623584 -0.781756 0.000000 0.146057 0.004844 1 0 1.000000
  0 -60.500748 -47.777588 -0.016116 -0.979989 -0.199050 0.000000 0.101817 0.006826 1 0 1.000000
bed_01_old
  0 -60.500748 -47.777588 -0.016116 -0.979989 -0.199050 0.000000 0.101817 0.006826 1 0 1.000000
  0 -60.109219 -48.701633 16.327557 -0.623584 -0.781756 0.000000 0.146057 0.004844 1 0 1.000000
  0 -60.500748 -47.777588 16.327566 -0.979989 -0.199050 0.000000 0.146023 0.007108 1 0 1.000000
bed_01_old
  0 -58.864979 49.051548 16.327553 -0.150701 0.988579 0.000156 0.095334 0.006520 1 0 1.000000
  0 -38.919117 49.051548 16.327553 -0.000360 1.000000 0.000308 0.095799 0.099973 1 0 1.000000
  0 -58.864979 49.051548 -0.011449 -0.150701 0.988579 0.000156 0.002587 0.005312 1 0 1.000000
bed_01_old
  0 -58.864979 49.051548 -0.011449 -0.150701 0.988579 0.000156 0.002587 0.005312 1 0 1.000000
  0 -38.919117 49.051548 16.327553 -0.000360 1.000000 0.000308 0.095799 0.099973 1 0 1.000000
  0 62.018806 49.097801 -0.018915 0.397389 0.917014 -0.034172 0.002509 0.575702 1 0 1.000000
bed_01_old
  0 -38.919117 49.051548 16.327553 -0.000360 1.000000 0.000308 0.095799 0.099973 1 0 1.000000
  0 62.687458 49.097801 7.722806 0.397389 0.917014 -0.034172 0.041878 0.579187 1 0 1.000000
  0 62.018806 49.097801 -0.018915 0.397389 0.917014 -0.034172 0.002509 0.575702 1 0 1.000000
bed_01_old
  0 62.018806 49.097801 -0.018915 0.397389 0.917014 -0.034172 0.002509 0.575702 1 0 1.000000
  0 62.687458 49.097801 7.722806 0.397389 0.917014 -0.034172 0.041878 0.579187 1 0 1.000000
  0 62.687870 48.382530 -0.019014 0.728848 0.681775 -0.062951 0.002500 0.580736 1 0 1.000000
bed_01_old
  0 -58.864979 49.051548 16.327553 -0.150701 0.988579 0.000156 0.146090 0.002641 1 0 1.000000
  0 -58.864979 49.051548 -0.011449 -0.150701 0.988579 0.000156 0.101849 0.001797 1 0 1.000000
  0 -60.043171 48.684254 16.327562 -0.621689 0.783264 0.000000 0.146054 0.005029 1 0 1.000000
bed_01_old
  0 -60.043171 48.684254 16.327562 -0.621689 0.783264 0.000000 0.146054 0.005029 1 0 1.000000
  0 -58.864979 49.051548 -0.011449 -0.150701 0.988579 0.000156 0.101849 0.001797 1 0 1.000000
  0 -60.043171 48.684254 -0.013942 -0.621689 0.783264 0.000000 0.101832 0.004486 1 0 1.000000
bed_01_old
  0 -60.043171 48.684254 16.327562 -0.621689 0.783264 0.000000 0.146054 0.005029 1 0 1.000000
  0 -60.043171 48.684254 -0.013942 -0.621689 0.783264 0.000000 0.101832 0.004486 1 0 1.000000
  0 -60.500755 47.905418 16.327570 -0.964936 0.262486 0.000000 0.146023 0.007108 1 0 1.000000
bed_01_old
  0 -60.500755 47.905418 16.327570 -0.964936 0.262486 0.000000 0.146023 0.007108 1 0 1.000000
  0 -60.043171 48.684254 -0.013942 -0.621689 0.783264 0.000000 0.101832 0.004486 1 0 1.000000
  0 -60.500755 47.905418 -0.016112 -0.964936 0.262486 0.000000 0.101817 0.006826 1 0 1.000000
bed_01_old
  0 -58.864971 -48.923710 16.327549 -0.088374 -0.996087 0.000155 0.095334 0.006520 1 0 1.000000
  0 -58.864971 -48.923710 -0.011453 -0.088374 -0.996087 0.000155 0.002587 0.005312 1 0 1.000000
  0 -38.919109 -48.923710 16.327549 -0.000360 -1.000000 0.000308 0.095799 0.099973 1 0 1.000000
bed_01_old
  0 -58.864971 -48.923710 -0.011453 -0.088374 -0.996087 0.000155 0.002587 0.005312 1 0 1.000000
  0 62.018814 -48.969948 -0.018919 0.397387 -0.917014 -0.034172 0.002509 0.575702 1 0 1.000000
  0 -38.919109 -48.923710 16.327549 -0.000360 -1.000000 0.000308 0.095799 0.099973 1 0 1.000000
bed_01_old
  0 -38.919109 -48.923710 16.327549 -0.000360 -1.000000 0.000308 0.095799 0.099973 1 0 1.000000
  0 62.018814 -48.969948 -0.018919 0.397387 -0.917014 -0.034172 0.002509 0.575702 1 0 1.000000
  0 62.687466 -48.969948 7.722802 0.397387 -0.917014 -0.034172 0.041878 0.579187 1 0 1.000000
bed_01_old
  0 62.018814 -48.969948 -0.018919 0.397387 -0.917014 -0.034172 0.002509 0.575702 1 0 1.000000
  0 62.687878 -48.254677 -0.019018 0.728846 -0.681777 -0.062951 0.002500 0.580736 1 0 1.000000
  0 62.687466 -48.969948 7.722802 0.397387 -0.917014 -0.034172 0.041878 0.579187 1 0 1.000000
bed_01_old
  0 -21.321369 57.731770 11.403722 -0.128467 0.137965 -0.982070 0.351535 0.071075 1 0 1.000000
  0 -27.321636 56.782776 12.055306 0.072593 0.134397 -0.988265 0.319062 0.068466 1 0 1.000000
  0 -27.321636 58.110317 12.241805 0.072593 0.134397 -0.988265 0.320286 0.077019 1 0 1.000000
bed_01_old
  0 -27.321636 56.782776 12.055306 0.072593 0.134397 -0.988265 0.319062 0.068466 1 0 1.000000
  0 -37.123466 57.094219 9.283141 0.273687 0.125211 -0.953634 0.266207 0.065365 1 0 1.000000
  0 -27.321636 58.110317 12.241805 0.072593 0.134397 -0.988265 0.320286 0.077019 1 0 1.000000
bed_01_old
  0 -37.310757 54.533684 8.905388 0.273687 0.125211 -0.953634 0.254794 0.051421 1 0 1.000000
  0 -37.123466 57.094219 9.283141 0.273687 0.125211 -0.953634 0.266207 0.065365 1 0 1.000000
  0 -27.321636 56.782776 12.055306 0.072593 0.134397 -0.988265 0.319062 0.068466 1 0 1.000000
bed_01_old
  0 -38.343201 -47.767033 16.327570 0.000000 -0.000016 1.000000 0.102107 0.102672 1 0 1.000000
  0 -59.064323 -47.483349 16.327570 0.000000 -0.000016 1.000000 0.100856 0.007201 1 0 1.000000
  0 -38.919109 -48.923710 16.327549 0.000000 -0.000016 1.000000 0.095799 0.099973 1 0 1.000000
bed_01_old
  0 -38.919109 -48.923710 16.327549 0.000000 -0.000016 1.000000 0.095799 0.099973 1 0 1.000000
  0 -59.064323 -47.483349 16.327570 0.000000 -0.000016 1.000000 0.100856 0.007201 1 0 1.000000
  0 -58.864971 -48.923710 16.327549 0.000000 -0.000016 1.000000 0.095334 0.006520 1 0 1.000000
bed_01_old
  0 -38.343208 47.894871 16.327574 0.000000 0.000017 1.000000 0.102107 0.102672 1 0 1.000000
  0 -38.919117 49.051548 16.327553 0.000000 0.000017 1.000000 0.095799 0.099973 1 0 1.000000
  0 -59.025150 47.497173 16.327574 0.000000 0.000017 1.000000 0.100851 0.007159 1 0 1.000000
bed_01_old
  0 -59.025150 47.497173 16.327574 0.000000 0.000017 1.000000 0.100851 0.007159 1 0 1.000000
  0 -38.919117 49.051548 16.327553 0.000000 0.000017 1.000000 0.095799 0.099973 1 0 1.000000
  0 -58.864979 49.051548 16.327553 0.000000 0.000017 1.000000 0.095334 0.006520 1 0 1.000000
bed_01_old
  0 62.687878 -48.254677 -0.019018 1.000000 0.000000 0.000052 0.014367 0.478445 1 0 1.000000
  0 62.687870 48.382530 -0.019014 1.000000 0.000000 0.000052 0.014367 0.116564 1 0 1.000000
  0 62.687466 -48.969948 7.722802 1.000000 0.000000 0.000052 0.045769 0.482216 1 0 1.000000
bed_01_old
  0 62.687466 -48.969948 7.722802 1.000000 0.000000 0.000052 0.045769 0.482216 1 0 1.000000
  0 62.687870 48.382530 -0.019014 1.000000 0.000000 0.000052 0.014367 0.116564 1 0 1.000000
  0 62.687458 49.097801 7.722806 1.000000 0.000000 0.000052 0.045769 0.112793 1 0 1.000000
bed_01_old
  0 62.687458 49.097801 7.722806 0.470095 0.000000 -0.882616 0.930699 0.178157 1 0 1.000000
  0 64.279564 47.391285 8.570780 0.470095 0.000000 -0.882616 0.941149 0.189358 1 0 1.000000
  0 62.687466 -48.969948 7.722802 0.470095 0.000000 -0.882616 0.930699 0.821843 1 0 1.000000
bed_01_old
  0 62.687466 -48.969948 7.722802 0.470095 0.000000 -0.882616 0.930699 0.821843 1 0 1.000000
  0 64.279564 47.391285 8.570780 0.470095 0.000000 -0.882616 0.941149 0.189358 1 0 1.000000
  0 64.279564 -47.263428 8.570776 0.470095 0.000000 -0.882616 0.941149 0.810642 1 0 1.000000
end
