// Created by Crowbar 0.74
version 1
nodes
  0 "static_prop" -1
end
skeleton
  time 0
    0 0.000000 0.000000 0.000000 0.000000 0.000000 0.000000
end
triangles
  phy
    0 15.773503 -24.461868 -0.000001 0.787593 0.110568 0.606194 0 0
    0 -16.006262 -24.461873 87.116844 0.902795 -0.253482 -0.347431 0 0
    0 -16.006262 -24.461868 -0.000001 0.520935 0.292531 -0.801906 0 0
  phy
    0 15.773503 -24.461868 -0.000001 0.787593 0.110568 0.606194 0 0
    0 15.773503 -24.461873 87.116844 0.773536 -0.217189 0.595375 0 0
    0 -16.006262 -24.461873 87.116844 0.902795 -0.253482 -0.347431 0 0
  phy
    0 -16.006263 -0.001638 0.000000 -0.925367 0.129910 -0.356118 0 0
    0 -16.006262 -24.461868 -0.000001 0.520935 0.292531 -0.801906 0 0
    0 -16.006263 -0.001642 87.116844 -0.538502 -0.151198 -0.828948 0 0
  phy
    0 -16.006263 -0.001642 87.116844 -0.538502 -0.151198 -0.828948 0 0
    0 -16.006262 -24.461868 -0.000001 0.520935 0.292531 -0.801906 0 0
    0 -16.006262 -24.461873 87.116844 0.902795 -0.253482 -0.347431 0 0
  phy
    0 15.773503 -24.461868 -0.000001 0.787593 0.110568 0.606194 0 0
    0 -16.006262 -24.461868 -0.000001 0.520935 0.292531 -0.801906 0 0
    0 15.773502 -0.001636 0.000000 -0.724002 0.406563 0.557250 0 0
  phy
    0 15.773502 -0.001636 0.000000 -0.724002 0.406563 0.557250 0 0
    0 -16.006262 -24.461868 -0.000001 0.520935 0.292531 -0.801906 0 0
    0 -16.006263 -0.001638 0.000000 -0.925367 0.129910 -0.356118 0 0
  phy
    0 15.773502 -0.001636 0.000000 -0.724002 0.406563 0.557250 0 0
    0 -16.006263 -0.001638 0.000000 -0.925367 0.129910 -0.356118 0 0
    0 15.773502 -0.001640 87.116844 -0.773536 -0.217190 0.595375 0 0
  phy
    0 15.773502 -0.001640 87.116844 -0.773536 -0.217190 0.595375 0 0
    0 -16.006263 -0.001638 0.000000 -0.925367 0.129910 -0.356118 0 0
    0 -16.006263 -0.001642 87.116844 -0.538502 -0.151198 -0.828948 0 0
  phy
    0 -16.006262 -24.461873 87.116844 0.902795 -0.253482 -0.347431 0 0
    0 15.773502 -0.001640 87.116844 -0.773536 -0.217190 0.595375 0 0
    0 -16.006263 -0.001642 87.116844 -0.538502 -0.151198 -0.828948 0 0
  phy
    0 -16.006262 -24.461873 87.116844 0.902795 -0.253482 -0.347431 0 0
    0 15.773503 -24.461873 87.116844 0.773536 -0.217189 0.595375 0 0
    0 15.773502 -0.001640 87.116844 -0.773536 -0.217190 0.595375 0 0
  phy
    0 15.773503 -24.461868 -0.000001 0.787593 0.110568 0.606194 0 0
    0 15.773502 -0.001640 87.116844 -0.773536 -0.217190 0.595375 0 0
    0 15.773503 -24.461873 87.116844 0.773536 -0.217189 0.595375 0 0
  phy
    0 15.773503 -24.461868 -0.000001 0.787593 0.110568 0.606194 0 0
    0 15.773502 -0.001636 0.000000 -0.724002 0.406563 0.557250 0 0
    0 15.773502 -0.001640 87.116844 -0.773536 -0.217190 0.595375 0 0
end
