// Created by Crowbar 0.74
version 1
nodes
  0 "static_prop" -1
end
skeleton
  time 0
    0 0.000000 0.000000 0.000000 0.000000 0.000000 0.000000
end
triangles
wardrobe_02
  0 -15.154574 -24.674040 49.326611 -0.000012 0.000015 1.000000 0.996087 0.063240 1 0 1.000000
  0 -14.813113 -24.674042 49.326614 -0.000012 0.000015 1.000000 0.996088 0.053796 1 0 1.000000
  0 -15.273433 -24.466450 49.326607 -0.000012 0.000015 1.000000 0.996087 0.069749 1 0 1.000000
wardrobe_02
  0 -15.273433 -24.466450 49.326607 -0.000012 0.000015 1.000000 0.996087 0.069749 1 0 1.000000
  0 -14.813113 -24.674042 49.326614 -0.000012 0.000015 1.000000 0.996088 0.053796 1 0 1.000000
  0 -14.694255 -24.466454 49.326614 -0.000012 0.000015 1.000000 0.996088 0.047287 1 0 1.000000
wardrobe_02
  0 -15.273433 -25.137276 45.974136 -0.875778 -0.479451 0.056029 0.905894 0.069749 1 0 1.000000
  0 -15.154574 -25.349634 45.974136 -0.508570 -0.855387 0.098331 0.905894 0.063240 1 0 1.000000
  0 -15.273433 -24.945457 47.574898 -0.875778 -0.479451 0.056029 0.948960 0.069749 1 0 1.000000
wardrobe_02
  0 -15.273433 -24.945457 47.574898 -0.875778 -0.479451 0.056029 0.948960 0.069749 1 0 1.000000
  0 -15.154574 -25.349634 45.974136 -0.508570 -0.855387 0.098331 0.905894 0.063240 1 0 1.000000
  0 -15.154574 -25.157812 47.656258 -0.508570 -0.855387 0.098331 0.951149 0.063240 1 0 1.000000
wardrobe_02
  0 -15.154574 -25.349634 45.974136 -0.508570 -0.855387 0.098331 0.905894 0.063240 1 0 1.000000
  0 -14.813113 -25.349634 45.974140 0.508572 -0.855386 0.098332 0.905894 0.053796 1 0 1.000000
  0 -15.154574 -25.157812 47.656258 -0.508570 -0.855387 0.098331 0.951149 0.063240 1 0 1.000000
wardrobe_02
  0 -15.154574 -25.157812 47.656258 -0.508570 -0.855387 0.098331 0.951149 0.063240 1 0 1.000000
  0 -14.813113 -25.349634 45.974140 0.508572 -0.855386 0.098332 0.905894 0.053796 1 0 1.000000
  0 -14.813113 -25.157812 47.656258 0.508572 -0.855386 0.098332 0.951149 0.053796 1 0 1.000000
wardrobe_02
  0 -14.813113 -25.349634 45.974140 0.508572 -0.855386 0.098332 0.905894 0.053796 1 0 1.000000
  0 -14.694255 -24.945456 47.574898 0.875781 -0.479446 0.056029 0.948960 0.047287 1 0 1.000000
  0 -14.813113 -25.157812 47.656258 0.508572 -0.855386 0.098332 0.951149 0.053796 1 0 1.000000
wardrobe_02
  0 -14.694255 -25.137276 45.974140 0.875781 -0.479446 0.056029 0.905894 0.047287 1 0 1.000000
  0 -14.694255 -24.945456 47.574898 0.875781 -0.479446 0.056029 0.948960 0.047287 1 0 1.000000
  0 -14.813113 -25.349634 45.974140 0.508572 -0.855386 0.098332 0.905894 0.053796 1 0 1.000000
wardrobe_02
  0 15.782285 -23.420387 4.916610 0.000000 -1.000000 0.000000 0.996694 0.124515 1 0 1.000000
  0 -0.252570 -23.420389 -0.000001 0.000000 -1.000000 0.000000 0.855662 0.078149 1 0 1.000000
  0 15.782285 -23.420387 -0.000001 0.000000 -1.000000 0.000000 0.996694 0.078149 1 0 1.000000
wardrobe_02
  0 -0.252570 -23.420389 4.916610 0.000000 -1.000000 0.000000 0.855662 0.124515 1 0 1.000000
  0 -0.252570 -23.420389 -0.000001 0.000000 -1.000000 0.000000 0.855662 0.078149 1 0 1.000000
  0 15.782285 -23.420387 4.916610 0.000000 -1.000000 0.000000 0.996694 0.124515 1 0 1.000000
wardrobe_02
  0 -0.252570 -23.420389 4.916610 0.000000 -1.000000 0.000000 0.855662 0.124515 1 0 1.000000
  0 -16.287439 -23.420389 -0.000001 0.000000 -1.000000 0.000000 0.714630 0.078149 1 0 1.000000
  0 -0.252570 -23.420389 -0.000001 0.000000 -1.000000 0.000000 0.855662 0.078149 1 0 1.000000
wardrobe_02
  0 -16.287439 -23.420389 4.916609 0.000000 -1.000000 0.000000 0.714630 0.124515 1 0 1.000000
  0 -16.287439 -23.420389 -0.000001 0.000000 -1.000000 0.000000 0.714630 0.078149 1 0 1.000000
  0 -0.252570 -23.420389 4.916610 0.000000 -1.000000 0.000000 0.855662 0.124515 1 0 1.000000
wardrobe_02
  0 -16.287441 -0.066257 46.077606 0.000000 1.000000 0.000000 0.446740 0.564633 1 0 1.000000
  0 -0.252579 -0.066258 87.238564 0.000000 1.000000 0.000000 0.571620 0.994394 1 0 1.000000
  0 -0.252579 -0.066256 46.077606 0.000000 1.000000 0.000000 0.571620 0.564633 1 0 1.000000
wardrobe_02
  0 -16.287441 -0.066259 87.238564 0.000000 1.000000 0.000000 0.446740 0.994394 1 0 1.000000
  0 -0.252579 -0.066258 87.238564 0.000000 1.000000 0.000000 0.571620 0.994394 1 0 1.000000
  0 -16.287441 -0.066257 46.077606 0.000000 1.000000 0.000000 0.446740 0.564633 1 0 1.000000
wardrobe_02
  0 -16.287441 -0.066257 46.077606 0.000000 1.000000 0.000000 0.446740 0.564633 1 0 1.000000
  0 -0.252579 -0.066256 46.077606 0.000000 1.000000 0.000000 0.571620 0.564633 1 0 1.000000
  0 -16.287441 -0.066255 4.916611 0.000000 1.000000 0.000000 0.446740 0.134872 1 0 1.000000
wardrobe_02
  0 -16.287441 -0.066255 4.916611 0.000000 1.000000 0.000000 0.446740 0.134872 1 0 1.000000
  0 -0.252579 -0.066256 46.077606 0.000000 1.000000 0.000000 0.571620 0.564633 1 0 1.000000
  0 -0.252579 -0.066254 4.916611 0.000000 1.000000 0.000000 0.571620 0.134872 1 0 1.000000
wardrobe_02
  0 -0.252579 -0.066256 46.077606 0.000000 1.000000 0.000000 0.571620 0.564633 1 0 1.000000
  0 15.782284 -0.066254 4.916611 0.000000 1.000000 0.000000 0.696501 0.134872 1 0 1.000000
  0 -0.252579 -0.066254 4.916611 0.000000 1.000000 0.000000 0.571620 0.134872 1 0 1.000000
wardrobe_02
  0 15.782284 -0.066255 46.077606 0.000000 1.000000 0.000000 0.696501 0.564633 1 0 1.000000
  0 15.782284 -0.066254 4.916611 0.000000 1.000000 0.000000 0.696501 0.134872 1 0 1.000000
  0 -0.252579 -0.066256 46.077606 0.000000 1.000000 0.000000 0.571620 0.564633 1 0 1.000000
wardrobe_02
  0 -0.252579 -0.066258 87.238564 0.000000 1.000000 0.000000 0.571620 0.994394 1 0 1.000000
  0 15.782284 -0.066255 46.077606 0.000000 1.000000 0.000000 0.696501 0.564633 1 0 1.000000
  0 -0.252579 -0.066256 46.077606 0.000000 1.000000 0.000000 0.571620 0.564633 1 0 1.000000
wardrobe_02
  0 15.782284 -0.066257 87.238571 0.000000 1.000000 0.000000 0.696501 0.994394 1 0 1.000000
  0 15.782284 -0.066255 46.077606 0.000000 1.000000 0.000000 0.696501 0.564633 1 0 1.000000
  0 -0.252579 -0.066258 87.238564 0.000000 1.000000 0.000000 0.571620 0.994394 1 0 1.000000
wardrobe_02
  0 1.239415 -24.945456 8.462819 0.056029 -0.479449 -0.875779 0.862828 0.069749 1 0 1.000000
  0 -0.361346 -25.349632 8.581677 0.098331 -0.855387 -0.508571 0.905894 0.063240 1 0 1.000000
  0 -0.361346 -25.137274 8.462819 0.056029 -0.479449 -0.875779 0.905894 0.069749 1 0 1.000000
wardrobe_02
  0 1.320771 -25.157812 8.581677 0.098331 -0.855387 -0.508571 0.860639 0.063240 1 0 1.000000
  0 -0.361346 -25.349632 8.581677 0.098331 -0.855387 -0.508571 0.905894 0.063240 1 0 1.000000
  0 1.239415 -24.945456 8.462819 0.056029 -0.479449 -0.875779 0.862828 0.069749 1 0 1.000000
wardrobe_02
  0 1.320771 -25.157812 8.581677 0.098331 -0.855387 -0.508571 0.860639 0.063240 1 0 1.000000
  0 1.320771 -25.157812 8.923139 0.098331 -0.855386 0.508572 0.860639 0.053796 1 0 1.000000
  0 -0.361346 -25.349632 8.581677 0.098331 -0.855387 -0.508571 0.905894 0.063240 1 0 1.000000
wardrobe_02
  0 -0.361346 -25.349632 8.581677 0.098331 -0.855387 -0.508571 0.905894 0.063240 1 0 1.000000
  0 1.320771 -25.157812 8.923139 0.098331 -0.855386 0.508572 0.860639 0.053796 1 0 1.000000
  0 -0.361350 -25.349632 8.923139 0.098331 -0.855386 0.508572 0.905894 0.053796 1 0 1.000000
wardrobe_02
  0 1.320771 -25.157812 8.923139 0.098331 -0.855386 0.508572 0.860639 0.053796 1 0 1.000000
  0 1.239415 -24.945456 9.041997 0.056029 -0.479448 0.875780 0.862828 0.047287 1 0 1.000000
  0 -0.361350 -25.349632 8.923139 0.098331 -0.855386 0.508572 0.905894 0.053796 1 0 1.000000
wardrobe_02
  0 -0.361350 -25.349632 8.923139 0.098331 -0.855386 0.508572 0.905894 0.053796 1 0 1.000000
  0 1.239415 -24.945456 9.041997 0.056029 -0.479448 0.875780 0.862828 0.047287 1 0 1.000000
  0 -0.361350 -25.137274 9.041997 0.056029 -0.479448 0.875780 0.905894 0.047287 1 0 1.000000
wardrobe_02
  0 15.773892 -24.470812 46.077606 0.999999 -0.000932 0.000093 0.714159 0.563742 1 0 1.000000
  0 15.782285 -12.570596 87.238564 1.000000 -0.000353 0.000000 0.581206 0.997395 1 0 1.000000
  0 15.773892 -24.470814 87.238571 1.000000 -0.000705 0.000000 0.714159 0.997395 1 0 1.000000
wardrobe_02
  0 15.768659 -24.477343 12.787833 0.999999 -0.000932 0.000093 0.714159 0.212926 1 0 1.000000
  0 15.782285 -12.570593 46.077606 1.000000 -0.000466 0.000046 0.581206 0.563742 1 0 1.000000
  0 15.769696 -24.476036 20.653330 0.999999 -0.000932 0.000093 0.714159 0.295763 1 0 1.000000
wardrobe_02
  0 15.782285 -12.570593 46.077606 1.000000 -0.000466 0.000046 0.581206 0.563742 1 0 1.000000
  0 15.773892 -24.470812 46.077606 0.999999 -0.000932 0.000093 0.714159 0.563742 1 0 1.000000
  0 15.769696 -24.476036 20.653330 0.999999 -0.000932 0.000093 0.714159 0.295763 1 0 1.000000
wardrobe_02
  0 15.782285 -12.570593 46.077606 1.000000 -0.000466 0.000046 0.581206 0.563742 1 0 1.000000
  0 15.782285 -12.570596 87.238564 1.000000 -0.000353 0.000000 0.581206 0.997395 1 0 1.000000
  0 15.773892 -24.470812 46.077606 0.999999 -0.000932 0.000093 0.714159 0.563742 1 0 1.000000
wardrobe_02
  0 15.782285 -12.570593 46.077606 1.000000 -0.000466 0.000046 0.581206 0.563742 1 0 1.000000
  0 15.782284 -0.066257 87.238571 1.000000 0.000000 0.000000 0.441380 0.997395 1 0 1.000000
  0 15.782285 -12.570596 87.238564 1.000000 -0.000353 0.000000 0.581206 0.997395 1 0 1.000000
wardrobe_02
  0 15.773900 -24.470810 4.916645 0.999999 -0.000932 0.000093 0.714159 0.130089 1 0 1.000000
  0 15.782285 -23.420387 4.916610 0.999999 -0.000932 0.000093 0.701805 0.130088 1 0 1.000000
  0 15.768659 -24.477343 12.787833 0.999999 -0.000932 0.000093 0.714159 0.212926 1 0 1.000000
wardrobe_02
  0 15.782285 -23.420387 4.916610 0.999999 -0.000932 0.000093 0.701805 0.130088 1 0 1.000000
  0 15.782285 -12.570593 46.077606 1.000000 -0.000466 0.000046 0.581206 0.563742 1 0 1.000000
  0 15.768659 -24.477343 12.787833 0.999999 -0.000932 0.000093 0.714159 0.212926 1 0 1.000000
wardrobe_02
  0 15.782285 -12.570592 4.916611 1.000000 -0.000466 0.000046 0.580817 0.130088 1 0 1.000000
  0 15.782285 -12.570593 46.077606 1.000000 -0.000466 0.000046 0.581206 0.563742 1 0 1.000000
  0 15.782285 -23.420387 4.916610 0.999999 -0.000932 0.000093 0.701805 0.130088 1 0 1.000000
wardrobe_02
  0 15.782285 -12.570592 4.916611 1.000000 -0.000466 0.000046 0.580817 0.130088 1 0 1.000000
  0 15.782284 -0.066255 46.077606 1.000000 0.000000 0.000000 0.441380 0.563742 1 0 1.000000
  0 15.782285 -12.570593 46.077606 1.000000 -0.000466 0.000046 0.581206 0.563742 1 0 1.000000
wardrobe_02
  0 15.782284 -0.066255 46.077606 1.000000 0.000000 0.000000 0.441380 0.563742 1 0 1.000000
  0 15.782284 -0.066257 87.238571 1.000000 0.000000 0.000000 0.441380 0.997395 1 0 1.000000
  0 15.782285 -12.570593 46.077606 1.000000 -0.000466 0.000046 0.581206 0.563742 1 0 1.000000
wardrobe_02
  0 15.782284 -0.066254 4.916611 1.000000 0.000000 0.000000 0.441380 0.130088 1 0 1.000000
  0 15.782284 -0.066255 46.077606 1.000000 0.000000 0.000000 0.441380 0.563742 1 0 1.000000
  0 15.782285 -12.570592 4.916611 1.000000 -0.000466 0.000046 0.580817 0.130088 1 0 1.000000
wardrobe_02
  0 1.239415 -24.945456 16.498285 0.056029 -0.479445 -0.875781 0.862828 0.069749 1 0 1.000000
  0 -0.361346 -25.349632 16.617144 0.098331 -0.855386 -0.508572 0.905894 0.063240 1 0 1.000000
  0 -0.361346 -25.137274 16.498285 0.056029 -0.479445 -0.875781 0.905894 0.069749 1 0 1.000000
wardrobe_02
  0 1.320771 -25.157812 16.617144 0.098331 -0.855386 -0.508572 0.860639 0.063240 1 0 1.000000
  0 -0.361346 -25.349632 16.617144 0.098331 -0.855386 -0.508572 0.905894 0.063240 1 0 1.000000
  0 1.239415 -24.945456 16.498285 0.056029 -0.479445 -0.875781 0.862828 0.069749 1 0 1.000000
wardrobe_02
  0 1.320771 -25.157812 16.617144 0.098331 -0.855386 -0.508572 0.860639 0.063240 1 0 1.000000
  0 1.320771 -25.157812 16.958605 0.098331 -0.855385 0.508573 0.860639 0.053796 1 0 1.000000
  0 -0.361346 -25.349632 16.617144 0.098331 -0.855386 -0.508572 0.905894 0.063240 1 0 1.000000
wardrobe_02
  0 -0.361346 -25.349632 16.617144 0.098331 -0.855386 -0.508572 0.905894 0.063240 1 0 1.000000
  0 1.320771 -25.157812 16.958605 0.098331 -0.855385 0.508573 0.860639 0.053796 1 0 1.000000
  0 -0.361350 -25.349632 16.958605 0.098331 -0.855385 0.508573 0.905894 0.053796 1 0 1.000000
wardrobe_02
  0 1.320771 -25.157812 16.958605 0.098331 -0.855385 0.508573 0.860639 0.053796 1 0 1.000000
  0 1.239415 -24.945456 17.077463 0.056029 -0.479445 0.875781 0.862828 0.047287 1 0 1.000000
  0 -0.361350 -25.349632 16.958605 0.098331 -0.855385 0.508573 0.905894 0.053796 1 0 1.000000
wardrobe_02
  0 -0.361350 -25.349632 16.958605 0.098331 -0.855385 0.508573 0.905894 0.053796 1 0 1.000000
  0 1.239415 -24.945456 17.077463 0.056029 -0.479445 0.875781 0.862828 0.047287 1 0 1.000000
  0 -0.361350 -25.137274 17.077463 0.056029 -0.479445 0.875781 0.905894 0.047287 1 0 1.000000
wardrobe_02
  0 15.782284 -0.066253 0.000000 1.000000 0.000000 0.000000 0.439252 0.078233 1 0 1.000000
  0 15.782284 -0.066254 4.916611 1.000000 0.000000 0.000000 0.439252 0.124290 1 0 1.000000
  0 15.782285 -12.570591 -0.000001 1.000000 0.000000 0.000000 0.586756 0.078233 1 0 1.000000
wardrobe_02
  0 15.782285 -12.570591 -0.000001 1.000000 0.000000 0.000000 0.586756 0.078233 1 0 1.000000
  0 15.782284 -0.066254 4.916611 1.000000 0.000000 0.000000 0.439252 0.124290 1 0 1.000000
  0 15.782285 -12.570592 4.916611 1.000000 0.000000 0.000000 0.586756 0.124290 1 0 1.000000
wardrobe_02
  0 15.782285 -12.570591 -0.000001 1.000000 0.000000 0.000000 0.586756 0.078233 1 0 1.000000
  0 15.782285 -12.570592 4.916611 1.000000 0.000000 0.000000 0.586756 0.124290 1 0 1.000000
  0 15.782285 -23.420387 -0.000001 1.000000 0.000000 0.000000 0.714742 0.078233 1 0 1.000000
wardrobe_02
  0 15.782285 -23.420387 -0.000001 1.000000 0.000000 0.000000 0.714742 0.078233 1 0 1.000000
  0 15.782285 -12.570592 4.916611 1.000000 0.000000 0.000000 0.586756 0.124290 1 0 1.000000
  0 15.782285 -23.420387 4.916610 1.000000 0.000000 0.000000 0.714742 0.124290 1 0 1.000000
wardrobe_02
  0 -1.962108 -24.945456 8.462819 -0.132638 -0.313486 -0.940284 0.948960 0.069749 1 0 1.000000
  0 -2.947806 -24.884907 8.581677 -0.257648 -0.776744 -0.574705 0.975479 0.063240 1 0 1.000000
  0 -2.834884 -24.466448 8.462819 -0.132638 -0.313486 -0.940284 0.972441 0.069749 1 0 1.000000
wardrobe_02
  0 -2.043467 -25.157810 8.581677 -0.257648 -0.776744 -0.574705 0.951149 0.063240 1 0 1.000000
  0 -2.947806 -24.884907 8.581677 -0.257648 -0.776744 -0.574705 0.975479 0.063240 1 0 1.000000
  0 -1.962108 -24.945456 8.462819 -0.132638 -0.313486 -0.940284 0.948960 0.069749 1 0 1.000000
wardrobe_02
  0 -2.043467 -25.157810 8.581677 -0.257648 -0.776744 -0.574705 0.951149 0.063240 1 0 1.000000
  0 -2.043467 -25.157810 8.923139 -0.257647 -0.776746 0.574703 0.951149 0.053796 1 0 1.000000
  0 -2.947806 -24.884907 8.581677 -0.257648 -0.776744 -0.574705 0.975479 0.063240 1 0 1.000000
wardrobe_02
  0 -2.947806 -24.884907 8.581677 -0.257648 -0.776744 -0.574705 0.975479 0.063240 1 0 1.000000
  0 -2.043467 -25.157810 8.923139 -0.257647 -0.776746 0.574703 0.951149 0.053796 1 0 1.000000
  0 -2.947810 -24.884907 8.923139 -0.257647 -0.776746 0.574703 0.975479 0.053796 1 0 1.000000
wardrobe_02
  0 -2.043467 -25.157810 8.923139 -0.257647 -0.776746 0.574703 0.951149 0.053796 1 0 1.000000
  0 -1.962108 -24.945454 9.041997 -0.132637 -0.313489 0.940283 0.948960 0.047287 1 0 1.000000
  0 -2.947810 -24.884907 8.923139 -0.257647 -0.776746 0.574703 0.975479 0.053796 1 0 1.000000
wardrobe_02
  0 -2.947810 -24.884907 8.923139 -0.257647 -0.776746 0.574703 0.975479 0.053796 1 0 1.000000
  0 -1.962108 -24.945454 9.041997 -0.132637 -0.313489 0.940283 0.948960 0.047287 1 0 1.000000
  0 -2.834891 -24.466450 9.041997 -0.132637 -0.313489 0.940283 0.972441 0.047287 1 0 1.000000
wardrobe_02
  0 -16.287441 -0.066254 0.000000 -1.000000 0.000000 0.000000 0.439252 0.078233 1 0 1.000000
  0 -16.287441 -12.570592 -0.000001 -1.000000 0.000000 0.000000 0.586756 0.078233 1 0 1.000000
  0 -16.287441 -0.066255 4.916611 -1.000000 0.000000 0.000000 0.439252 0.124290 1 0 1.000000
wardrobe_02
  0 -16.287441 -0.066255 4.916611 -1.000000 0.000000 0.000000 0.439252 0.124290 1 0 1.000000
  0 -16.287441 -12.570592 -0.000001 -1.000000 0.000000 0.000000 0.586756 0.078233 1 0 1.000000
  0 -16.287441 -12.570593 4.916611 -1.000000 0.000000 0.000000 0.586756 0.124290 1 0 1.000000
wardrobe_02
  0 -16.287441 -12.570593 4.916611 -1.000000 0.000000 0.000000 0.586756 0.124290 1 0 1.000000
  0 -16.287441 -12.570592 -0.000001 -1.000000 0.000000 0.000000 0.586756 0.078233 1 0 1.000000
  0 -16.287439 -23.420389 4.916609 -1.000000 0.000000 0.000000 0.714742 0.124290 1 0 1.000000
wardrobe_02
  0 -16.287439 -23.420389 4.916609 -1.000000 0.000000 0.000000 0.714742 0.124290 1 0 1.000000
  0 -16.287441 -12.570592 -0.000001 -1.000000 0.000000 0.000000 0.586756 0.078233 1 0 1.000000
  0 -16.287439 -23.420389 -0.000001 -1.000000 0.000000 0.000000 0.714742 0.078233 1 0 1.000000
wardrobe_02
  0 1.239415 -24.945456 9.041997 0.132637 -0.313486 0.940284 0.862828 0.047287 1 0 1.000000
  0 2.225122 -24.884907 8.923139 0.257646 -0.776745 0.574705 0.836309 0.053796 1 0 1.000000
  0 2.112199 -24.466448 9.041997 0.132637 -0.313486 0.940284 0.839347 0.047287 1 0 1.000000
wardrobe_02
  0 1.320771 -25.157812 8.923139 0.257646 -0.776745 0.574705 0.860639 0.053796 1 0 1.000000
  0 2.225122 -24.884907 8.923139 0.257646 -0.776745 0.574705 0.836309 0.053796 1 0 1.000000
  0 1.239415 -24.945456 9.041997 0.132637 -0.313486 0.940284 0.862828 0.047287 1 0 1.000000
wardrobe_02
  0 1.320771 -25.157812 8.923139 0.257646 -0.776745 0.574705 0.860639 0.053796 1 0 1.000000
  0 1.320771 -25.157812 8.581677 0.257645 -0.776746 -0.574704 0.860639 0.063240 1 0 1.000000
  0 2.225122 -24.884907 8.923139 0.257646 -0.776745 0.574705 0.836309 0.053796 1 0 1.000000
wardrobe_02
  0 2.225122 -24.884907 8.923139 0.257646 -0.776745 0.574705 0.836309 0.053796 1 0 1.000000
  0 1.320771 -25.157812 8.581677 0.257645 -0.776746 -0.574704 0.860639 0.063240 1 0 1.000000
  0 2.225122 -24.884907 8.581677 0.257645 -0.776746 -0.574704 0.836309 0.063240 1 0 1.000000
wardrobe_02
  0 1.320771 -25.157812 8.581677 0.257645 -0.776746 -0.574704 0.860639 0.063240 1 0 1.000000
  0 1.239415 -24.945456 8.462819 0.132637 -0.313487 -0.940284 0.862828 0.069749 1 0 1.000000
  0 2.225122 -24.884907 8.581677 0.257645 -0.776746 -0.574704 0.836309 0.063240 1 0 1.000000
wardrobe_02
  0 2.225122 -24.884907 8.581677 0.257645 -0.776746 -0.574704 0.836309 0.063240 1 0 1.000000
  0 1.239415 -24.945456 8.462819 0.132637 -0.313487 -0.940284 0.862828 0.069749 1 0 1.000000
  0 2.112199 -24.466448 8.462819 0.132637 -0.313487 -0.940284 0.839347 0.069749 1 0 1.000000
wardrobe_02
  0 -16.287441 -0.066255 4.916611 0.000000 1.000000 0.000000 0.562065 0.122662 1 0 1.000000
  0 -0.252579 -0.066254 4.916611 0.000000 1.000000 0.000000 0.705710 0.122662 1 0 1.000000
  0 -16.287441 -0.066254 0.000000 0.000000 1.000000 0.000000 0.562065 0.078102 1 0 1.000000
wardrobe_02
  0 -16.287441 -0.066254 0.000000 0.000000 1.000000 0.000000 0.562065 0.078102 1 0 1.000000
  0 -0.252579 -0.066254 4.916611 0.000000 1.000000 0.000000 0.705710 0.122662 1 0 1.000000
  0 -0.252579 -0.066254 0.000000 0.000000 1.000000 0.000000 0.705710 0.078102 1 0 1.000000
wardrobe_02
  0 -0.252579 -0.066254 4.916611 0.000000 1.000000 0.000000 0.705710 0.122662 1 0 1.000000
  0 15.782284 -0.066253 0.000000 0.000000 1.000000 0.000000 0.849356 0.078102 1 0 1.000000
  0 -0.252579 -0.066254 0.000000 0.000000 1.000000 0.000000 0.705710 0.078102 1 0 1.000000
wardrobe_02
  0 15.782284 -0.066254 4.916611 0.000000 1.000000 0.000000 0.849356 0.122662 1 0 1.000000
  0 15.782284 -0.066253 0.000000 0.000000 1.000000 0.000000 0.849356 0.078102 1 0 1.000000
  0 -0.252579 -0.066254 4.916611 0.000000 1.000000 0.000000 0.705710 0.122662 1 0 1.000000
wardrobe_02
  0 -1.962108 -24.945456 16.498285 -0.132638 -0.313485 -0.940284 0.948960 0.069749 1 0 1.000000
  0 -2.947806 -24.884907 16.617144 -0.257647 -0.776744 -0.574706 0.975479 0.063240 1 0 1.000000
  0 -2.834884 -24.466448 16.498285 -0.132638 -0.313485 -0.940284 0.972441 0.069749 1 0 1.000000
wardrobe_02
  0 -2.043467 -25.157810 16.617144 -0.257647 -0.776744 -0.574706 0.951149 0.063240 1 0 1.000000
  0 -2.947806 -24.884907 16.617144 -0.257647 -0.776744 -0.574706 0.975479 0.063240 1 0 1.000000
  0 -1.962108 -24.945456 16.498285 -0.132638 -0.313485 -0.940284 0.948960 0.069749 1 0 1.000000
wardrobe_02
  0 -2.043467 -25.157810 16.617144 -0.257647 -0.776744 -0.574706 0.951149 0.063240 1 0 1.000000
  0 -2.043467 -25.157810 16.958605 -0.257648 -0.776744 0.574705 0.951149 0.053796 1 0 1.000000
  0 -2.947806 -24.884907 16.617144 -0.257647 -0.776744 -0.574706 0.975479 0.063240 1 0 1.000000
wardrobe_02
  0 -2.947806 -24.884907 16.617144 -0.257647 -0.776744 -0.574706 0.975479 0.063240 1 0 1.000000
  0 -2.043467 -25.157810 16.958605 -0.257648 -0.776744 0.574705 0.951149 0.053796 1 0 1.000000
  0 -2.947810 -24.884907 16.958605 -0.257648 -0.776744 0.574705 0.975479 0.053796 1 0 1.000000
wardrobe_02
  0 -2.043467 -25.157810 16.958605 -0.257648 -0.776744 0.574705 0.951149 0.053796 1 0 1.000000
  0 -1.962108 -24.945454 17.077463 -0.132637 -0.313484 0.940285 0.948960 0.047287 1 0 1.000000
  0 -2.947810 -24.884907 16.958605 -0.257648 -0.776744 0.574705 0.975479 0.053796 1 0 1.000000
wardrobe_02
  0 -2.947810 -24.884907 16.958605 -0.257648 -0.776744 0.574705 0.975479 0.053796 1 0 1.000000
  0 -1.962108 -24.945454 17.077463 -0.132637 -0.313484 0.940285 0.948960 0.047287 1 0 1.000000
  0 -2.834891 -24.466450 17.077463 -0.132637 -0.313484 0.940285 0.972441 0.047287 1 0 1.000000
wardrobe_02
  0 -16.244417 -24.476038 12.785219 -0.000020 -1.000000 -0.000332 0.001354 0.736664 1 0 1.000000
  0 15.768659 -24.477343 12.787833 -0.000020 -1.000000 -0.000332 0.001412 0.359625 1 0 1.000000
  0 -16.244417 -24.476038 20.648661 -0.000020 -1.000000 0.000083 0.104426 0.736664 1 0 1.000000
wardrobe_02
  0 -16.244417 -24.476038 20.648661 -0.000020 -1.000000 0.000083 0.104426 0.736664 1 0 1.000000
  0 15.768659 -24.477343 12.787833 -0.000020 -1.000000 -0.000332 0.001412 0.359625 1 0 1.000000
  0 15.769696 -24.476036 20.653330 -0.000020 -1.000000 0.000083 0.104658 0.359624 1 0 1.000000
wardrobe_02
  0 -13.203635 -24.092535 43.488152 -0.853895 -0.520445 0.000000 0.396172 0.035231 1 0 1.000000
  0 -13.203639 -24.092535 23.249039 -0.853895 -0.520445 0.000000 0.396186 0.210227 1 0 1.000000
  0 -12.994544 -24.435595 43.232880 -0.853895 -0.520445 0.000000 0.393267 0.038181 1 0 1.000000
wardrobe_02
  0 -12.994544 -24.435595 43.232880 -0.853895 -0.520445 0.000000 0.393267 0.038181 1 0 1.000000
  0 -13.203639 -24.092535 23.249039 -0.853895 -0.520445 0.000000 0.396186 0.210227 1 0 1.000000
  0 -12.994544 -24.435595 23.504318 -0.853895 -0.520445 0.000000 0.393318 0.207250 1 0 1.000000
wardrobe_02
  0 12.739045 -24.092535 43.488152 0.000000 -0.596978 0.802257 0.143024 0.035284 1 0 1.000000
  0 -13.203635 -24.092535 43.488152 0.000000 -0.596978 0.802257 0.396172 0.035231 1 0 1.000000
  0 12.529946 -24.435595 43.232864 0.000000 -0.596978 0.802257 0.145892 0.038250 1 0 1.000000
wardrobe_02
  0 12.529946 -24.435595 43.232864 0.000000 -0.596978 0.802257 0.145892 0.038250 1 0 1.000000
  0 -13.203635 -24.092535 43.488152 0.000000 -0.596978 0.802257 0.396172 0.035231 1 0 1.000000
  0 -12.994544 -24.435595 43.232880 0.000000 -0.596978 0.802257 0.393267 0.038181 1 0 1.000000
wardrobe_02
  0 12.739038 -24.092533 23.249035 0.853893 -0.520448 0.000000 0.143054 0.210182 1 0 1.000000
  0 12.739045 -24.092535 43.488152 0.853893 -0.520448 0.000000 0.143024 0.035284 1 0 1.000000
  0 12.529946 -24.435593 23.504307 0.853893 -0.520448 0.000000 0.145959 0.207244 1 0 1.000000
wardrobe_02
  0 12.529946 -24.435593 23.504307 0.853893 -0.520448 0.000000 0.145959 0.207244 1 0 1.000000
  0 12.739045 -24.092535 43.488152 0.853893 -0.520448 0.000000 0.143024 0.035284 1 0 1.000000
  0 12.529946 -24.435595 43.232864 0.853893 -0.520448 0.000000 0.145892 0.038250 1 0 1.000000
wardrobe_02
  0 -13.203639 -24.092535 23.249039 0.000000 -0.596978 -0.802258 0.396186 0.210227 1 0 1.000000
  0 12.739038 -24.092533 23.249035 0.000000 -0.596978 -0.802258 0.143054 0.210182 1 0 1.000000
  0 -12.994544 -24.435595 23.504318 0.000000 -0.596978 -0.802258 0.393318 0.207250 1 0 1.000000
wardrobe_02
  0 -12.994544 -24.435595 23.504318 0.000000 -0.596978 -0.802258 0.393318 0.207250 1 0 1.000000
  0 12.739038 -24.092533 23.249035 0.000000 -0.596978 -0.802258 0.143054 0.210182 1 0 1.000000
  0 12.529946 -24.435593 23.504307 0.000000 -0.596978 -0.802258 0.145959 0.207244 1 0 1.000000
wardrobe_02
  0 -14.138564 -24.092539 22.392273 0.000000 -1.000000 0.000004 0.405284 0.217605 1 0 1.000000
  0 13.673966 -24.092537 22.392273 0.000000 -1.000000 0.000004 0.133864 0.217398 1 0 1.000000
  0 -13.203639 -24.092535 23.249039 0.000000 -1.000000 0.000004 0.396186 0.210227 1 0 1.000000
wardrobe_02
  0 -13.203639 -24.092535 23.249039 0.000000 -1.000000 0.000004 0.396186 0.210227 1 0 1.000000
  0 13.673966 -24.092537 22.392273 0.000000 -1.000000 0.000004 0.133864 0.217398 1 0 1.000000
  0 12.739038 -24.092533 23.249035 0.000000 -1.000000 0.000004 0.143054 0.210182 1 0 1.000000
wardrobe_02
  0 13.673966 -24.092537 22.392273 0.000000 -1.000000 0.000004 0.133864 0.217398 1 0 1.000000
  0 13.673959 -24.092539 44.344925 -0.000003 -1.000000 0.000000 0.133925 0.027980 1 0 1.000000
  0 12.739038 -24.092533 23.249035 0.000000 -1.000000 0.000004 0.143054 0.210182 1 0 1.000000
wardrobe_02
  0 12.739038 -24.092533 23.249035 0.000000 -1.000000 0.000004 0.143054 0.210182 1 0 1.000000
  0 13.673959 -24.092539 44.344925 -0.000003 -1.000000 0.000000 0.133925 0.027980 1 0 1.000000
  0 12.739045 -24.092535 43.488152 -0.000003 -1.000000 0.000000 0.143024 0.035284 1 0 1.000000
wardrobe_02
  0 13.673959 -24.092539 44.344925 -0.000003 -1.000000 0.000000 0.133925 0.027980 1 0 1.000000
  0 -14.138560 -24.092539 44.344925 0.000000 -1.000000 -0.000004 0.405363 0.027942 1 0 1.000000
  0 12.739045 -24.092535 43.488152 -0.000003 -1.000000 0.000000 0.143024 0.035284 1 0 1.000000
wardrobe_02
  0 12.739045 -24.092535 43.488152 -0.000003 -1.000000 0.000000 0.143024 0.035284 1 0 1.000000
  0 -14.138560 -24.092539 44.344925 0.000000 -1.000000 -0.000004 0.405363 0.027942 1 0 1.000000
  0 -13.203635 -24.092535 43.488152 0.000000 -1.000000 -0.000004 0.396172 0.035231 1 0 1.000000
wardrobe_02
  0 -14.138560 -24.092539 44.344925 0.000000 -1.000000 -0.000004 0.405363 0.027942 1 0 1.000000
  0 -14.138564 -24.092539 22.392273 0.000000 -1.000000 0.000004 0.405284 0.217605 1 0 1.000000
  0 -13.203635 -24.092535 43.488152 0.000000 -1.000000 -0.000004 0.396172 0.035231 1 0 1.000000
wardrobe_02
  0 -13.203635 -24.092535 43.488152 0.000000 -1.000000 -0.000004 0.396172 0.035231 1 0 1.000000
  0 -14.138564 -24.092539 22.392273 0.000000 -1.000000 0.000004 0.405284 0.217605 1 0 1.000000
  0 -13.203639 -24.092535 23.249039 0.000000 -1.000000 0.000004 0.396186 0.210227 1 0 1.000000
wardrobe_02
  0 -14.388099 -24.481264 44.651451 0.841532 -0.540208 0.000000 0.408800 0.024453 1 0 1.000000
  0 -14.388099 -24.481264 22.085747 0.841532 -0.540208 0.000000 0.408678 0.221125 1 0 1.000000
  0 -14.138560 -24.092539 44.344925 0.841532 -0.540208 0.000000 0.405363 0.027942 1 0 1.000000
wardrobe_02
  0 -14.138560 -24.092539 44.344925 0.841532 -0.540208 0.000000 0.405363 0.027942 1 0 1.000000
  0 -14.388099 -24.481264 22.085747 0.841532 -0.540208 0.000000 0.408678 0.221125 1 0 1.000000
  0 -14.138564 -24.092539 22.392273 0.841532 -0.540208 0.000000 0.405284 0.217605 1 0 1.000000
wardrobe_02
  0 13.923501 -24.481264 44.651451 0.000000 -0.619193 -0.785238 0.130531 0.024481 1 0 1.000000
  0 -14.388099 -24.481264 44.651451 0.000000 -0.619193 -0.785238 0.408800 0.024453 1 0 1.000000
  0 13.673959 -24.092539 44.344925 0.000000 -0.619193 -0.785238 0.133925 0.027980 1 0 1.000000
wardrobe_02
  0 13.673959 -24.092539 44.344925 0.000000 -0.619193 -0.785238 0.133925 0.027980 1 0 1.000000
  0 -14.388099 -24.481264 44.651451 0.000000 -0.619193 -0.785238 0.408800 0.024453 1 0 1.000000
  0 -14.138560 -24.092539 44.344925 0.000000 -0.619193 -0.785238 0.405363 0.027942 1 0 1.000000
wardrobe_02
  0 13.923501 -24.481262 22.085747 -0.841530 -0.540211 0.000000 0.130426 0.220864 1 0 1.000000
  0 13.923501 -24.481264 44.651451 -0.841530 -0.540211 0.000000 0.130531 0.024481 1 0 1.000000
  0 13.673966 -24.092537 22.392273 -0.841530 -0.540211 0.000000 0.133864 0.217398 1 0 1.000000
wardrobe_02
  0 13.673966 -24.092537 22.392273 -0.841530 -0.540211 0.000000 0.133864 0.217398 1 0 1.000000
  0 13.923501 -24.481264 44.651451 -0.841530 -0.540211 0.000000 0.130531 0.024481 1 0 1.000000
  0 13.673959 -24.092539 44.344925 -0.841530 -0.540211 0.000000 0.133925 0.027980 1 0 1.000000
wardrobe_02
  0 -14.388099 -24.481264 22.085747 0.000000 -0.619191 0.785240 0.408678 0.221125 1 0 1.000000
  0 13.923501 -24.481262 22.085747 0.000000 -0.619191 0.785240 0.130426 0.220864 1 0 1.000000
  0 -14.138564 -24.092539 22.392273 0.000000 -0.619191 0.785240 0.405284 0.217605 1 0 1.000000
wardrobe_02
  0 -14.138564 -24.092539 22.392273 0.000000 -0.619191 0.785240 0.405284 0.217605 1 0 1.000000
  0 13.923501 -24.481262 22.085747 0.000000 -0.619191 0.785240 0.130426 0.220864 1 0 1.000000
  0 13.673966 -24.092537 22.392273 0.000000 -0.619191 0.785240 0.133864 0.217398 1 0 1.000000
wardrobe_02
  0 -12.994544 -24.435595 23.504318 0.000000 -1.000000 0.000000 0.393318 0.207250 1 0 1.000000
  0 12.529946 -24.435593 23.504307 0.000000 -1.000000 0.000000 0.145959 0.207244 1 0 1.000000
  0 -12.994544 -24.435595 43.232880 0.000000 -1.000000 0.000000 0.393267 0.038181 1 0 1.000000
wardrobe_02
  0 -12.994544 -24.435595 43.232880 0.000000 -1.000000 0.000000 0.393267 0.038181 1 0 1.000000
  0 12.529946 -24.435593 23.504307 0.000000 -1.000000 0.000000 0.145959 0.207244 1 0 1.000000
  0 12.529946 -24.435595 43.232864 0.000000 -1.000000 0.000000 0.145892 0.038250 1 0 1.000000
wardrobe_02
  0 -13.203635 -24.092537 84.649109 -0.853894 -0.520446 0.000000 0.400907 0.649108 1 0 1.000000
  0 -13.203639 -24.092535 48.667053 -0.853894 -0.520446 0.000000 0.400907 0.267998 1 0 1.000000
  0 -12.994544 -24.435596 84.393837 -0.853894 -0.520446 0.000000 0.397765 0.645682 1 0 1.000000
wardrobe_02
  0 -12.994544 -24.435596 84.393837 -0.853894 -0.520446 0.000000 0.397765 0.645682 1 0 1.000000
  0 -13.203639 -24.092535 48.667053 -0.853894 -0.520446 0.000000 0.400907 0.267998 1 0 1.000000
  0 -12.994544 -24.435595 48.922333 -0.853894 -0.520446 0.000000 0.397765 0.271424 1 0 1.000000
wardrobe_02
  0 12.739045 -24.092537 84.649109 0.000000 -0.596984 0.802253 0.147052 0.648631 1 0 1.000000
  0 -13.203635 -24.092537 84.649109 0.000000 -0.596984 0.802253 0.400907 0.649108 1 0 1.000000
  0 12.529946 -24.435596 84.393822 0.000000 -0.596984 0.802253 0.150195 0.645214 1 0 1.000000
wardrobe_02
  0 12.529946 -24.435596 84.393822 0.000000 -0.596984 0.802253 0.150195 0.645214 1 0 1.000000
  0 -13.203635 -24.092537 84.649109 0.000000 -0.596984 0.802253 0.400907 0.649108 1 0 1.000000
  0 -12.994544 -24.435596 84.393837 0.000000 -0.596984 0.802253 0.397765 0.645682 1 0 1.000000
wardrobe_02
  0 12.739038 -24.092535 48.667049 0.853892 -0.520450 0.000000 0.147052 0.267936 1 0 1.000000
  0 12.739045 -24.092537 84.649109 0.853892 -0.520450 0.000000 0.147052 0.648631 1 0 1.000000
  0 12.529946 -24.435595 48.922321 0.853892 -0.520450 0.000000 0.150195 0.271352 1 0 1.000000
wardrobe_02
  0 12.529946 -24.435595 48.922321 0.853892 -0.520450 0.000000 0.150195 0.271352 1 0 1.000000
  0 12.739045 -24.092537 84.649109 0.853892 -0.520450 0.000000 0.147052 0.648631 1 0 1.000000
  0 12.529946 -24.435596 84.393822 0.853892 -0.520450 0.000000 0.150195 0.645214 1 0 1.000000
wardrobe_02
  0 -13.203639 -24.092535 48.667053 0.000000 -0.596968 -0.802265 0.400907 0.267998 1 0 1.000000
  0 12.739038 -24.092535 48.667049 0.000000 -0.596968 -0.802265 0.147052 0.267936 1 0 1.000000
  0 -12.994544 -24.435595 48.922333 0.000000 -0.596968 -0.802265 0.397765 0.271424 1 0 1.000000
wardrobe_02
  0 -12.994544 -24.435595 48.922333 0.000000 -0.596968 -0.802265 0.397765 0.271424 1 0 1.000000
  0 12.739038 -24.092535 48.667049 0.000000 -0.596968 -0.802265 0.147052 0.267936 1 0 1.000000
  0 12.529946 -24.435595 48.922321 0.000000 -0.596968 -0.802265 0.150195 0.271352 1 0 1.000000
wardrobe_02
  0 -14.388099 -24.481266 85.812408 0.841532 -0.540208 0.000000 0.415125 0.662278 1 0 1.000000
  0 -14.388099 -24.481264 47.503761 0.841532 -0.540208 0.000000 0.415125 0.254828 1 0 1.000000
  0 -14.138560 -24.092541 85.505882 0.841532 -0.540208 0.000000 0.411458 0.658198 1 0 1.000000
wardrobe_02
  0 -14.138560 -24.092541 85.505882 0.841532 -0.540208 0.000000 0.411458 0.658198 1 0 1.000000
  0 -14.388099 -24.481264 47.503761 0.841532 -0.540208 0.000000 0.415125 0.254828 1 0 1.000000
  0 -14.138564 -24.092539 47.810287 0.841532 -0.540208 0.000000 0.411459 0.258907 1 0 1.000000
wardrobe_02
  0 13.923501 -24.481266 85.812408 0.000000 -0.619192 -0.785240 0.130472 0.661729 1 0 1.000000
  0 -14.388099 -24.481266 85.812408 0.000000 -0.619192 -0.785240 0.415125 0.662278 1 0 1.000000
  0 13.673959 -24.092541 85.505882 0.000000 -0.619192 -0.785240 0.134139 0.657666 1 0 1.000000
wardrobe_02
  0 13.673959 -24.092541 85.505882 0.000000 -0.619192 -0.785240 0.134139 0.657666 1 0 1.000000
  0 -14.388099 -24.481266 85.812408 0.000000 -0.619192 -0.785240 0.415125 0.662278 1 0 1.000000
  0 -14.138560 -24.092541 85.505882 0.000000 -0.619192 -0.785240 0.411458 0.658198 1 0 1.000000
wardrobe_02
  0 13.923501 -24.481264 47.503761 -0.841530 -0.540211 0.000000 0.130472 0.254838 1 0 1.000000
  0 13.923501 -24.481266 85.812408 -0.841530 -0.540211 0.000000 0.130472 0.661729 1 0 1.000000
  0 13.673966 -24.092539 47.810287 -0.841530 -0.540211 0.000000 0.134139 0.258901 1 0 1.000000
wardrobe_02
  0 13.673966 -24.092539 47.810287 -0.841530 -0.540211 0.000000 0.134139 0.258901 1 0 1.000000
  0 13.923501 -24.481266 85.812408 -0.841530 -0.540211 0.000000 0.130472 0.661729 1 0 1.000000
  0 13.673959 -24.092541 85.505882 -0.841530 -0.540211 0.000000 0.134139 0.657666 1 0 1.000000
wardrobe_02
  0 -14.388099 -24.481264 47.503761 0.000000 -0.619195 0.785237 0.415125 0.254828 1 0 1.000000
  0 13.923501 -24.481264 47.503761 0.000000 -0.619195 0.785237 0.130472 0.254838 1 0 1.000000
  0 -14.138564 -24.092539 47.810287 0.000000 -0.619195 0.785237 0.411459 0.258907 1 0 1.000000
wardrobe_02
  0 -14.138564 -24.092539 47.810287 0.000000 -0.619195 0.785237 0.411459 0.258907 1 0 1.000000
  0 13.923501 -24.481264 47.503761 0.000000 -0.619195 0.785237 0.130472 0.254838 1 0 1.000000
  0 13.673966 -24.092539 47.810287 0.000000 -0.619195 0.785237 0.134139 0.258901 1 0 1.000000
wardrobe_02
  0 -16.258760 -24.470812 46.077606 0.000000 -0.999973 -0.007329 0.433206 0.239568 1 0 1.000000
  0 15.773892 -24.470812 46.077606 0.000000 -0.999973 -0.007329 0.112391 0.239698 1 0 1.000000
  0 -14.388099 -24.481264 47.503761 0.000000 -0.999973 -0.007329 0.415125 0.254828 1 0 1.000000
wardrobe_02
  0 -14.388099 -24.481264 47.503761 0.000000 -0.999973 -0.007329 0.415125 0.254828 1 0 1.000000
  0 15.773892 -24.470812 46.077606 0.000000 -0.999973 -0.007329 0.112391 0.239698 1 0 1.000000
  0 13.923501 -24.481264 47.503761 0.000000 -0.999973 -0.007329 0.130472 0.254838 1 0 1.000000
wardrobe_02
  0 15.773892 -24.470812 46.077606 0.000000 -0.999973 -0.007329 0.112391 0.239698 1 0 1.000000
  0 15.773892 -24.470814 87.238571 0.005649 -0.999984 0.000000 0.112391 0.676617 1 0 1.000000
  0 13.923501 -24.481264 47.503761 0.000000 -0.999973 -0.007329 0.130472 0.254838 1 0 1.000000
wardrobe_02
  0 13.923501 -24.481264 47.503761 0.000000 -0.999973 -0.007329 0.130472 0.254838 1 0 1.000000
  0 15.773892 -24.470814 87.238571 0.005649 -0.999984 0.000000 0.112391 0.676617 1 0 1.000000
  0 13.923501 -24.481266 85.812408 0.005649 -0.999984 0.000000 0.130472 0.661729 1 0 1.000000
wardrobe_02
  0 15.773892 -24.470814 87.238571 0.005649 -0.999984 0.000000 0.112391 0.676617 1 0 1.000000
  0 -14.388099 -24.481266 85.812408 0.000000 -0.999973 0.007329 0.415125 0.662278 1 0 1.000000
  0 13.923501 -24.481266 85.812408 0.005649 -0.999984 0.000000 0.130472 0.661729 1 0 1.000000
wardrobe_02
  0 -16.258760 -24.470814 87.238571 0.000000 -0.999973 0.007329 0.433206 0.677286 1 0 1.000000
  0 -14.388099 -24.481266 85.812408 0.000000 -0.999973 0.007329 0.415125 0.662278 1 0 1.000000
  0 15.773892 -24.470814 87.238571 0.005649 -0.999984 0.000000 0.112391 0.676617 1 0 1.000000
wardrobe_02
  0 -16.258760 -24.470814 87.238571 0.000000 -0.999973 0.007329 0.433206 0.677286 1 0 1.000000
  0 -16.258760 -24.470812 46.077606 0.000000 -0.999973 -0.007329 0.433206 0.239568 1 0 1.000000
  0 -14.388099 -24.481266 85.812408 0.000000 -0.999973 0.007329 0.415125 0.662278 1 0 1.000000
wardrobe_02
  0 -14.388099 -24.481266 85.812408 0.000000 -0.999973 0.007329 0.415125 0.662278 1 0 1.000000
  0 -16.258760 -24.470812 46.077606 0.000000 -0.999973 -0.007329 0.433206 0.239568 1 0 1.000000
  0 -14.388099 -24.481264 47.503761 0.000000 -0.999973 -0.007329 0.415125 0.254828 1 0 1.000000
wardrobe_02
  0 -12.994544 -24.435595 48.922333 0.000000 -1.000000 0.000000 0.397765 0.271424 1 0 1.000000
  0 12.529946 -24.435595 48.922321 0.000000 -1.000000 0.000000 0.150195 0.271352 1 0 1.000000
  0 -12.994544 -24.435596 84.393837 0.000000 -1.000000 0.000000 0.397765 0.645682 1 0 1.000000
wardrobe_02
  0 -12.994544 -24.435596 84.393837 0.000000 -1.000000 0.000000 0.397765 0.645682 1 0 1.000000
  0 12.529946 -24.435595 48.922321 0.000000 -1.000000 0.000000 0.150195 0.271352 1 0 1.000000
  0 12.529946 -24.435596 84.393822 0.000000 -1.000000 0.000000 0.150195 0.645214 1 0 1.000000
wardrobe_02
  0 15.773900 -24.470810 4.916645 -0.000020 -1.000000 -0.000747 0.001545 0.000420 1 0 1.000000
  0 15.768659 -24.477343 12.787833 -0.000020 -1.000000 -0.000332 0.104573 0.000419 1 0 1.000000
  0 -16.258757 -24.470810 4.916645 -0.000020 -1.000000 -0.000747 0.001545 0.361261 1 0 1.000000
wardrobe_02
  0 -16.258757 -24.470810 4.916645 -0.000020 -1.000000 -0.000747 0.001545 0.361261 1 0 1.000000
  0 15.768659 -24.477343 12.787833 -0.000020 -1.000000 -0.000332 0.104573 0.000419 1 0 1.000000
  0 -16.244417 -24.476038 12.785219 -0.000020 -1.000000 -0.000332 0.104515 0.361260 1 0 1.000000
wardrobe_02
  0 15.765515 -23.441296 4.916610 0.000000 -0.000034 -1.000000 1.214598 0.683774 1 0 1.000000
  0 15.773900 -24.470810 4.916645 0.000000 -0.000034 -1.000000 1.222680 0.683774 1 0 1.000000
  0 -16.230074 -23.441296 4.916610 0.000000 -0.000034 -1.000000 1.214598 0.998008 1 0 1.000000
wardrobe_02
  0 -16.230074 -23.441296 4.916610 0.000000 -0.000034 -1.000000 1.214598 0.998008 1 0 1.000000
  0 15.773900 -24.470810 4.916645 0.000000 -0.000034 -1.000000 1.222680 0.683774 1 0 1.000000
  0 -16.258757 -24.470810 4.916645 0.000000 -0.000034 -1.000000 1.222680 0.998008 1 0 1.000000
wardrobe_02
  0 2.991048 -24.674036 8.923139 1.000000 -0.000735 0.000008 0.815703 0.053796 1 0 1.000000
  0 2.991052 -24.674036 8.581677 1.000000 -0.000735 0.000008 0.815703 0.063240 1 0 1.000000
  0 2.991200 -24.466450 9.041997 1.000000 -0.000735 0.000008 0.815699 0.047287 1 0 1.000000
wardrobe_02
  0 2.991200 -24.466450 9.041997 1.000000 -0.000735 0.000008 0.815699 0.047287 1 0 1.000000
  0 2.991052 -24.674036 8.581677 1.000000 -0.000735 0.000008 0.815703 0.063240 1 0 1.000000
  0 2.991204 -24.466448 8.462819 1.000000 -0.000735 0.000008 0.815699 0.069749 1 0 1.000000
wardrobe_02
  0 -3.713820 -24.674038 8.581677 -1.000000 0.000009 -0.000012 0.996087 0.063240 1 0 1.000000
  0 -3.713824 -24.674040 8.923139 -1.000000 0.000009 -0.000012 0.996088 0.053796 1 0 1.000000
  0 -3.713817 -24.466448 8.462819 -1.000000 0.000009 -0.000012 0.996087 0.069749 1 0 1.000000
wardrobe_02
  0 -3.713817 -24.466448 8.462819 -1.000000 0.000009 -0.000012 0.996087 0.069749 1 0 1.000000
  0 -3.713824 -24.674040 8.923139 -1.000000 0.000009 -0.000012 0.996088 0.053796 1 0 1.000000
  0 -3.713824 -24.466452 9.041997 -1.000000 0.000009 -0.000012 0.996088 0.047287 1 0 1.000000
wardrobe_02
  0 -0.361346 -25.137274 8.462819 -0.056030 -0.479450 -0.875779 0.905894 0.069749 1 0 1.000000
  0 -0.361346 -25.349632 8.581677 -0.098331 -0.855387 -0.508571 0.905894 0.063240 1 0 1.000000
  0 -1.962108 -24.945456 8.462819 -0.056030 -0.479450 -0.875779 0.948960 0.069749 1 0 1.000000
wardrobe_02
  0 -1.962108 -24.945456 8.462819 -0.056030 -0.479450 -0.875779 0.948960 0.069749 1 0 1.000000
  0 -0.361346 -25.349632 8.581677 -0.098331 -0.855387 -0.508571 0.905894 0.063240 1 0 1.000000
  0 -2.043467 -25.157810 8.581677 -0.098331 -0.855387 -0.508571 0.951149 0.063240 1 0 1.000000
wardrobe_02
  0 -0.361346 -25.349632 8.581677 -0.098331 -0.855387 -0.508571 0.905894 0.063240 1 0 1.000000
  0 -0.361350 -25.349632 8.923139 -0.098331 -0.855387 0.508571 0.905894 0.053796 1 0 1.000000
  0 -2.043467 -25.157810 8.581677 -0.098331 -0.855387 -0.508571 0.951149 0.063240 1 0 1.000000
wardrobe_02
  0 -2.043467 -25.157810 8.581677 -0.098331 -0.855387 -0.508571 0.951149 0.063240 1 0 1.000000
  0 -0.361350 -25.349632 8.923139 -0.098331 -0.855387 0.508571 0.905894 0.053796 1 0 1.000000
  0 -2.043467 -25.157810 8.923139 -0.098331 -0.855387 0.508571 0.951149 0.053796 1 0 1.000000
wardrobe_02
  0 -0.361350 -25.349632 8.923139 -0.098331 -0.855387 0.508571 0.905894 0.053796 1 0 1.000000
  0 -1.962108 -24.945454 9.041997 -0.056030 -0.479449 0.875779 0.948960 0.047287 1 0 1.000000
  0 -2.043467 -25.157810 8.923139 -0.098331 -0.855387 0.508571 0.951149 0.053796 1 0 1.000000
wardrobe_02
  0 -0.361350 -25.137274 9.041997 -0.056030 -0.479449 0.875779 0.905894 0.047287 1 0 1.000000
  0 -1.962108 -24.945454 9.041997 -0.056030 -0.479449 0.875779 0.948960 0.047287 1 0 1.000000
  0 -0.361350 -25.349632 8.923139 -0.098331 -0.855387 0.508571 0.905894 0.053796 1 0 1.000000
wardrobe_02
  0 1.239415 -24.945456 17.077463 0.132637 -0.313487 0.940284 0.862828 0.047287 1 0 1.000000
  0 2.225122 -24.884907 16.958605 0.257645 -0.776746 0.574704 0.836309 0.053796 1 0 1.000000
  0 2.112199 -24.466448 17.077463 0.132637 -0.313487 0.940284 0.839347 0.047287 1 0 1.000000
wardrobe_02
  0 1.320771 -25.157812 16.958605 0.257645 -0.776746 0.574704 0.860639 0.053796 1 0 1.000000
  0 2.225122 -24.884907 16.958605 0.257645 -0.776746 0.574704 0.836309 0.053796 1 0 1.000000
  0 1.239415 -24.945456 17.077463 0.132637 -0.313487 0.940284 0.862828 0.047287 1 0 1.000000
wardrobe_02
  0 1.320771 -25.157812 16.958605 0.257645 -0.776746 0.574704 0.860639 0.053796 1 0 1.000000
  0 1.320771 -25.157812 16.617144 0.257645 -0.776746 -0.574703 0.860639 0.063240 1 0 1.000000
  0 2.225122 -24.884907 16.958605 0.257645 -0.776746 0.574704 0.836309 0.053796 1 0 1.000000
wardrobe_02
  0 2.225122 -24.884907 16.958605 0.257645 -0.776746 0.574704 0.836309 0.053796 1 0 1.000000
  0 1.320771 -25.157812 16.617144 0.257645 -0.776746 -0.574703 0.860639 0.063240 1 0 1.000000
  0 2.225122 -24.884907 16.617144 0.257645 -0.776746 -0.574703 0.836309 0.063240 1 0 1.000000
wardrobe_02
  0 1.320771 -25.157812 16.617144 0.257645 -0.776746 -0.574703 0.860639 0.063240 1 0 1.000000
  0 1.239415 -24.945456 16.498285 0.132637 -0.313490 -0.940283 0.862828 0.069749 1 0 1.000000
  0 2.225122 -24.884907 16.617144 0.257645 -0.776746 -0.574703 0.836309 0.063240 1 0 1.000000
wardrobe_02
  0 2.225122 -24.884907 16.617144 0.257645 -0.776746 -0.574703 0.836309 0.063240 1 0 1.000000
  0 1.239415 -24.945456 16.498285 0.132637 -0.313490 -0.940283 0.862828 0.069749 1 0 1.000000
  0 2.112199 -24.466448 16.498285 0.132637 -0.313490 -0.940283 0.839347 0.069749 1 0 1.000000
wardrobe_02
  0 2.991048 -24.674036 16.958605 1.000000 -0.000735 0.000008 0.815703 0.053796 1 0 1.000000
  0 2.991052 -24.674036 16.617144 1.000000 -0.000735 0.000008 0.815703 0.063240 1 0 1.000000
  0 2.991200 -24.466450 17.077463 1.000000 -0.000735 0.000008 0.815699 0.047287 1 0 1.000000
wardrobe_02
  0 2.991200 -24.466450 17.077463 1.000000 -0.000735 0.000008 0.815699 0.047287 1 0 1.000000
  0 2.991052 -24.674036 16.617144 1.000000 -0.000735 0.000008 0.815703 0.063240 1 0 1.000000
  0 2.991204 -24.466448 16.498285 1.000000 -0.000735 0.000008 0.815699 0.069749 1 0 1.000000
wardrobe_02
  0 -3.713820 -24.674038 16.617144 -1.000000 0.000009 -0.000012 0.996087 0.063240 1 0 1.000000
  0 -3.713824 -24.674040 16.958605 -1.000000 0.000009 -0.000012 0.996088 0.053796 1 0 1.000000
  0 -3.713817 -24.466448 16.498285 -1.000000 0.000009 -0.000012 0.996087 0.069749 1 0 1.000000
wardrobe_02
  0 -3.713817 -24.466448 16.498285 -1.000000 0.000009 -0.000012 0.996087 0.069749 1 0 1.000000
  0 -3.713824 -24.674040 16.958605 -1.000000 0.000009 -0.000012 0.996088 0.053796 1 0 1.000000
  0 -3.713824 -24.466452 17.077463 -1.000000 0.000009 -0.000012 0.996088 0.047287 1 0 1.000000
wardrobe_02
  0 -14.813113 -24.674038 42.621742 0.000008 -0.000734 -1.000000 0.815703 0.053796 1 0 1.000000
  0 -15.154574 -24.674038 42.621738 0.000008 -0.000734 -1.000000 0.815703 0.063240 1 0 1.000000
  0 -14.694255 -24.466452 42.621590 0.000008 -0.000734 -1.000000 0.815699 0.047287 1 0 1.000000
wardrobe_02
  0 -14.694255 -24.466452 42.621590 0.000008 -0.000734 -1.000000 0.815699 0.047287 1 0 1.000000
  0 -15.154574 -24.674038 42.621738 0.000008 -0.000734 -1.000000 0.815703 0.063240 1 0 1.000000
  0 -15.273433 -24.466450 42.621586 0.000008 -0.000734 -1.000000 0.815699 0.069749 1 0 1.000000
wardrobe_02
  0 -0.252579 -0.066258 87.238564 0.000000 -0.000001 1.000000 0.435282 0.994102 1 0 1.000000
  0 15.782285 -12.570596 87.238564 0.000000 0.000000 1.000000 0.154549 0.837786 1 0 1.000000
  0 15.782284 -0.066257 87.238571 0.000000 -0.000001 1.000000 0.154549 0.994102 1 0 1.000000
wardrobe_02
  0 -0.252578 -12.570597 87.238564 0.000000 0.000000 1.000000 0.435282 0.837786 1 0 1.000000
  0 15.782285 -12.570596 87.238564 0.000000 0.000000 1.000000 0.154549 0.837786 1 0 1.000000
  0 -0.252579 -0.066258 87.238564 0.000000 -0.000001 1.000000 0.435282 0.994102 1 0 1.000000
wardrobe_02
  0 -16.287441 -0.066259 87.238564 0.000000 -0.000001 1.000000 0.154549 0.994102 1 0 1.000000
  0 -0.252578 -12.570597 87.238564 0.000000 0.000000 1.000000 0.435282 0.837786 1 0 1.000000
  0 -0.252579 -0.066258 87.238564 0.000000 -0.000001 1.000000 0.435282 0.994102 1 0 1.000000
wardrobe_02
  0 -16.287441 -12.570597 87.238556 0.000000 0.000000 1.000000 0.154549 0.837786 1 0 1.000000
  0 -0.252578 -12.570597 87.238564 0.000000 0.000000 1.000000 0.435282 0.837786 1 0 1.000000
  0 -16.287441 -0.066259 87.238564 0.000000 -0.000001 1.000000 0.154549 0.994102 1 0 1.000000
wardrobe_02
  0 -16.258760 -24.470814 87.238571 0.000000 0.000001 1.000000 0.154549 0.689152 1 0 1.000000
  0 -0.252578 -12.570597 87.238564 0.000000 0.000000 1.000000 0.435282 0.837786 1 0 1.000000
  0 -16.287441 -12.570597 87.238556 0.000000 0.000000 1.000000 0.154549 0.837786 1 0 1.000000
wardrobe_02
  0 -0.252578 -24.460363 87.238579 0.000000 0.000001 1.000000 0.435282 0.689152 1 0 1.000000
  0 -0.252578 -12.570597 87.238564 0.000000 0.000000 1.000000 0.435282 0.837786 1 0 1.000000
  0 -16.258760 -24.470814 87.238571 0.000000 0.000001 1.000000 0.154549 0.689152 1 0 1.000000
wardrobe_02
  0 -0.252578 -24.460363 87.238579 0.000000 0.000001 1.000000 0.435282 0.689152 1 0 1.000000
  0 15.782285 -12.570596 87.238564 0.000000 0.000000 1.000000 0.154549 0.837786 1 0 1.000000
  0 -0.252578 -12.570597 87.238564 0.000000 0.000000 1.000000 0.435282 0.837786 1 0 1.000000
wardrobe_02
  0 15.773892 -24.470814 87.238571 0.000000 0.000001 1.000000 0.154549 0.689152 1 0 1.000000
  0 15.782285 -12.570596 87.238564 0.000000 0.000000 1.000000 0.154549 0.837786 1 0 1.000000
  0 -0.252578 -24.460363 87.238579 0.000000 0.000001 1.000000 0.435282 0.689152 1 0 1.000000
wardrobe_02
  0 -15.273433 -24.945457 44.373375 -0.875780 -0.479447 -0.056028 0.862828 0.069749 1 0 1.000000
  0 -15.154574 -25.349634 45.974136 -0.508572 -0.855386 -0.098330 0.905894 0.063240 1 0 1.000000
  0 -15.273433 -25.137276 45.974136 -0.875780 -0.479447 -0.056028 0.905894 0.069749 1 0 1.000000
wardrobe_02
  0 -15.154574 -25.157814 44.292019 -0.508572 -0.855386 -0.098330 0.860639 0.063240 1 0 1.000000
  0 -15.154574 -25.349634 45.974136 -0.508572 -0.855386 -0.098330 0.905894 0.063240 1 0 1.000000
  0 -15.273433 -24.945457 44.373375 -0.875780 -0.479447 -0.056028 0.862828 0.069749 1 0 1.000000
wardrobe_02
  0 -15.154574 -25.157814 44.292019 -0.508572 -0.855386 -0.098330 0.860639 0.063240 1 0 1.000000
  0 -14.813113 -25.157814 44.292019 0.508572 -0.855386 -0.098331 0.860639 0.053796 1 0 1.000000
  0 -15.154574 -25.349634 45.974136 -0.508572 -0.855386 -0.098330 0.905894 0.063240 1 0 1.000000
wardrobe_02
  0 -15.154574 -25.349634 45.974136 -0.508572 -0.855386 -0.098330 0.905894 0.063240 1 0 1.000000
  0 -14.813113 -25.157814 44.292019 0.508572 -0.855386 -0.098331 0.860639 0.053796 1 0 1.000000
  0 -14.813113 -25.349634 45.974140 0.508572 -0.855386 -0.098331 0.905894 0.053796 1 0 1.000000
wardrobe_02
  0 -14.813113 -25.157814 44.292019 0.508572 -0.855386 -0.098331 0.860639 0.053796 1 0 1.000000
  0 -14.694255 -24.945457 44.373375 0.875780 -0.479448 -0.056029 0.862828 0.047287 1 0 1.000000
  0 -14.813113 -25.349634 45.974140 0.508572 -0.855386 -0.098331 0.905894 0.053796 1 0 1.000000
wardrobe_02
  0 -14.813113 -25.349634 45.974140 0.508572 -0.855386 -0.098331 0.905894 0.053796 1 0 1.000000
  0 -14.694255 -24.945457 44.373375 0.875780 -0.479448 -0.056029 0.862828 0.047287 1 0 1.000000
  0 -14.694255 -25.137276 45.974140 0.875780 -0.479448 -0.056029 0.905894 0.047287 1 0 1.000000
wardrobe_02
  0 -2.834884 -24.466448 8.462819 -0.044559 -0.347593 -0.936586 0.972441 0.069749 1 0 1.000000
  0 -2.947806 -24.884907 8.581677 -0.188852 -0.799194 -0.570635 0.975479 0.063240 1 0 1.000000
  0 -3.713817 -24.466448 8.462819 -0.044559 -0.347593 -0.936586 0.996087 0.069749 1 0 1.000000
wardrobe_02
  0 -3.713817 -24.466448 8.462819 -0.044559 -0.347593 -0.936586 0.996087 0.069749 1 0 1.000000
  0 -2.947806 -24.884907 8.581677 -0.188852 -0.799194 -0.570635 0.975479 0.063240 1 0 1.000000
  0 -3.713820 -24.674038 8.581677 -0.188852 -0.799194 -0.570635 0.996087 0.063240 1 0 1.000000
wardrobe_02
  0 -2.947806 -24.884907 8.581677 -0.188852 -0.799194 -0.570635 0.975479 0.063240 1 0 1.000000
  0 -2.947810 -24.884907 8.923139 -0.188853 -0.799198 0.570629 0.975479 0.053796 1 0 1.000000
  0 -3.713820 -24.674038 8.581677 -0.188852 -0.799194 -0.570635 0.996087 0.063240 1 0 1.000000
wardrobe_02
  0 -3.713820 -24.674038 8.581677 -0.188852 -0.799194 -0.570635 0.996087 0.063240 1 0 1.000000
  0 -2.947810 -24.884907 8.923139 -0.188853 -0.799198 0.570629 0.975479 0.053796 1 0 1.000000
  0 -3.713824 -24.674040 8.923139 -0.188853 -0.799198 0.570629 0.996088 0.053796 1 0 1.000000
wardrobe_02
  0 -2.947810 -24.884907 8.923139 -0.188853 -0.799198 0.570629 0.975479 0.053796 1 0 1.000000
  0 -3.713824 -24.466452 9.041997 -0.044559 -0.347595 0.936585 0.996088 0.047287 1 0 1.000000
  0 -3.713824 -24.674040 8.923139 -0.188853 -0.799198 0.570629 0.996088 0.053796 1 0 1.000000
wardrobe_02
  0 -2.834891 -24.466450 9.041997 -0.044559 -0.347595 0.936585 0.972441 0.047287 1 0 1.000000
  0 -3.713824 -24.466452 9.041997 -0.044559 -0.347595 0.936585 0.996088 0.047287 1 0 1.000000
  0 -2.947810 -24.884907 8.923139 -0.188853 -0.799198 0.570629 0.975479 0.053796 1 0 1.000000
wardrobe_02
  0 -14.694255 -24.945457 44.373375 0.940283 -0.313487 -0.132639 0.862828 0.047287 1 0 1.000000
  0 -14.813113 -24.884909 43.387669 0.574704 -0.776745 -0.257647 0.836309 0.053796 1 0 1.000000
  0 -14.694255 -24.466450 43.500591 0.940283 -0.313487 -0.132639 0.839347 0.047287 1 0 1.000000
wardrobe_02
  0 -14.813113 -25.157814 44.292019 0.574704 -0.776745 -0.257647 0.860639 0.053796 1 0 1.000000
  0 -14.813113 -24.884909 43.387669 0.574704 -0.776745 -0.257647 0.836309 0.053796 1 0 1.000000
  0 -14.694255 -24.945457 44.373375 0.940283 -0.313487 -0.132639 0.862828 0.047287 1 0 1.000000
wardrobe_02
  0 -14.813113 -25.157814 44.292019 0.574704 -0.776745 -0.257647 0.860639 0.053796 1 0 1.000000
  0 -15.154574 -25.157814 44.292019 -0.574704 -0.776745 -0.257647 0.860639 0.063240 1 0 1.000000
  0 -14.813113 -24.884909 43.387669 0.574704 -0.776745 -0.257647 0.836309 0.053796 1 0 1.000000
wardrobe_02
  0 -14.813113 -24.884909 43.387669 0.574704 -0.776745 -0.257647 0.836309 0.053796 1 0 1.000000
  0 -15.154574 -25.157814 44.292019 -0.574704 -0.776745 -0.257647 0.860639 0.063240 1 0 1.000000
  0 -15.154574 -24.884909 43.387669 -0.574704 -0.776745 -0.257647 0.836309 0.063240 1 0 1.000000
wardrobe_02
  0 -15.154574 -25.157814 44.292019 -0.574704 -0.776745 -0.257647 0.860639 0.063240 1 0 1.000000
  0 -15.273433 -24.945457 44.373375 -0.940283 -0.313487 -0.132639 0.862828 0.069749 1 0 1.000000
  0 -15.154574 -24.884909 43.387669 -0.574704 -0.776745 -0.257647 0.836309 0.063240 1 0 1.000000
wardrobe_02
  0 -15.154574 -24.884909 43.387669 -0.574704 -0.776745 -0.257647 0.836309 0.063240 1 0 1.000000
  0 -15.273433 -24.945457 44.373375 -0.940283 -0.313487 -0.132639 0.862828 0.069749 1 0 1.000000
  0 -15.273433 -24.466450 43.500591 -0.940283 -0.313487 -0.132639 0.839347 0.069749 1 0 1.000000
wardrobe_02
  0 2.112199 -24.466448 9.041997 0.044561 -0.347605 0.936582 0.839347 0.047287 1 0 1.000000
  0 2.225122 -24.884907 8.923139 0.188872 -0.799194 0.570628 0.836309 0.053796 1 0 1.000000
  0 2.991200 -24.466450 9.041997 0.044561 -0.347605 0.936582 0.815699 0.047287 1 0 1.000000
wardrobe_02
  0 2.991200 -24.466450 9.041997 0.044561 -0.347605 0.936582 0.815699 0.047287 1 0 1.000000
  0 2.225122 -24.884907 8.923139 0.188872 -0.799194 0.570628 0.836309 0.053796 1 0 1.000000
  0 2.991048 -24.674036 8.923139 0.188872 -0.799194 0.570628 0.815703 0.053796 1 0 1.000000
wardrobe_02
  0 2.225122 -24.884907 8.923139 0.188872 -0.799194 0.570628 0.836309 0.053796 1 0 1.000000
  0 2.225122 -24.884907 8.581677 0.188872 -0.799194 -0.570627 0.836309 0.063240 1 0 1.000000
  0 2.991048 -24.674036 8.923139 0.188872 -0.799194 0.570628 0.815703 0.053796 1 0 1.000000
wardrobe_02
  0 2.991048 -24.674036 8.923139 0.188872 -0.799194 0.570628 0.815703 0.053796 1 0 1.000000
  0 2.225122 -24.884907 8.581677 0.188872 -0.799194 -0.570627 0.836309 0.063240 1 0 1.000000
  0 2.991052 -24.674036 8.581677 0.188872 -0.799194 -0.570627 0.815703 0.063240 1 0 1.000000
wardrobe_02
  0 2.225122 -24.884907 8.581677 0.188872 -0.799194 -0.570627 0.836309 0.063240 1 0 1.000000
  0 2.991204 -24.466448 8.462819 0.044561 -0.347604 -0.936582 0.815699 0.069749 1 0 1.000000
  0 2.991052 -24.674036 8.581677 0.188872 -0.799194 -0.570627 0.815703 0.063240 1 0 1.000000
wardrobe_02
  0 2.112199 -24.466448 8.462819 0.044561 -0.347604 -0.936582 0.839347 0.069749 1 0 1.000000
  0 2.991204 -24.466448 8.462819 0.044561 -0.347604 -0.936582 0.815699 0.069749 1 0 1.000000
  0 2.225122 -24.884907 8.581677 0.188872 -0.799194 -0.570627 0.836309 0.063240 1 0 1.000000
wardrobe_02
  0 -15.273433 -24.945457 47.574898 -0.940283 -0.313489 0.132639 0.948960 0.069749 1 0 1.000000
  0 -15.154574 -24.884909 48.560596 -0.574703 -0.776745 0.257648 0.975479 0.063240 1 0 1.000000
  0 -15.273433 -24.466450 48.447674 -0.940283 -0.313489 0.132639 0.972441 0.069749 1 0 1.000000
wardrobe_02
  0 -15.154574 -25.157812 47.656258 -0.574703 -0.776745 0.257648 0.951149 0.063240 1 0 1.000000
  0 -15.154574 -24.884909 48.560596 -0.574703 -0.776745 0.257648 0.975479 0.063240 1 0 1.000000
  0 -15.273433 -24.945457 47.574898 -0.940283 -0.313489 0.132639 0.948960 0.069749 1 0 1.000000
wardrobe_02
  0 -15.154574 -25.157812 47.656258 -0.574703 -0.776745 0.257648 0.951149 0.063240 1 0 1.000000
  0 -14.813113 -25.157812 47.656258 0.574703 -0.776746 0.257647 0.951149 0.053796 1 0 1.000000
  0 -15.154574 -24.884909 48.560596 -0.574703 -0.776745 0.257648 0.975479 0.063240 1 0 1.000000
wardrobe_02
  0 -15.154574 -24.884909 48.560596 -0.574703 -0.776745 0.257648 0.975479 0.063240 1 0 1.000000
  0 -14.813113 -25.157812 47.656258 0.574703 -0.776746 0.257647 0.951149 0.053796 1 0 1.000000
  0 -14.813113 -24.884909 48.560600 0.574703 -0.776746 0.257647 0.975479 0.053796 1 0 1.000000
wardrobe_02
  0 -14.813113 -25.157812 47.656258 0.574703 -0.776746 0.257647 0.951149 0.053796 1 0 1.000000
  0 -14.694255 -24.945456 47.574898 0.940283 -0.313490 0.132637 0.948960 0.047287 1 0 1.000000
  0 -14.813113 -24.884909 48.560600 0.574703 -0.776746 0.257647 0.975479 0.053796 1 0 1.000000
wardrobe_02
  0 -14.813113 -24.884909 48.560600 0.574703 -0.776746 0.257647 0.975479 0.053796 1 0 1.000000
  0 -14.694255 -24.945456 47.574898 0.940283 -0.313490 0.132637 0.948960 0.047287 1 0 1.000000
  0 -14.694255 -24.466452 48.447681 0.940283 -0.313490 0.132637 0.972441 0.047287 1 0 1.000000
wardrobe_02
  0 -2.834884 -24.466448 16.498285 -0.044559 -0.347594 -0.936586 0.972441 0.069749 1 0 1.000000
  0 -2.947806 -24.884907 16.617144 -0.188852 -0.799194 -0.570634 0.975479 0.063240 1 0 1.000000
  0 -3.713817 -24.466448 16.498285 -0.044559 -0.347594 -0.936586 0.996087 0.069749 1 0 1.000000
wardrobe_02
  0 -3.713817 -24.466448 16.498285 -0.044559 -0.347594 -0.936586 0.996087 0.069749 1 0 1.000000
  0 -2.947806 -24.884907 16.617144 -0.188852 -0.799194 -0.570634 0.975479 0.063240 1 0 1.000000
  0 -3.713820 -24.674038 16.617144 -0.188852 -0.799194 -0.570634 0.996087 0.063240 1 0 1.000000
wardrobe_02
  0 -2.947806 -24.884907 16.617144 -0.188852 -0.799194 -0.570634 0.975479 0.063240 1 0 1.000000
  0 -2.947810 -24.884907 16.958605 -0.188853 -0.799197 0.570630 0.975479 0.053796 1 0 1.000000
  0 -3.713820 -24.674038 16.617144 -0.188852 -0.799194 -0.570634 0.996087 0.063240 1 0 1.000000
wardrobe_02
  0 -3.713820 -24.674038 16.617144 -0.188852 -0.799194 -0.570634 0.996087 0.063240 1 0 1.000000
  0 -2.947810 -24.884907 16.958605 -0.188853 -0.799197 0.570630 0.975479 0.053796 1 0 1.000000
  0 -3.713824 -24.674040 16.958605 -0.188853 -0.799197 0.570630 0.996088 0.053796 1 0 1.000000
wardrobe_02
  0 -2.947810 -24.884907 16.958605 -0.188853 -0.799197 0.570630 0.975479 0.053796 1 0 1.000000
  0 -3.713824 -24.466452 17.077463 -0.044559 -0.347594 0.936586 0.996088 0.047287 1 0 1.000000
  0 -3.713824 -24.674040 16.958605 -0.188853 -0.799197 0.570630 0.996088 0.053796 1 0 1.000000
wardrobe_02
  0 -2.834891 -24.466450 17.077463 -0.044559 -0.347594 0.936586 0.972441 0.047287 1 0 1.000000
  0 -3.713824 -24.466452 17.077463 -0.044559 -0.347594 0.936586 0.996088 0.047287 1 0 1.000000
  0 -2.947810 -24.884907 16.958605 -0.188853 -0.799197 0.570630 0.975479 0.053796 1 0 1.000000
wardrobe_02
  0 -16.287441 -0.066255 4.916611 -1.000000 0.000000 0.000000 0.441380 0.130088 1 0 1.000000
  0 -16.287441 -12.570593 4.916611 -0.999999 -0.001577 -0.000108 0.580817 0.130088 1 0 1.000000
  0 -16.287441 -0.066257 46.077606 -1.000000 0.000000 0.000000 0.441380 0.563742 1 0 1.000000
wardrobe_02
  0 -16.287441 -0.066257 46.077606 -1.000000 0.000000 0.000000 0.441380 0.563742 1 0 1.000000
  0 -16.287441 -12.570593 4.916611 -0.999999 -0.001577 -0.000108 0.580817 0.130088 1 0 1.000000
  0 -16.287445 -12.570595 46.077606 -0.999999 -0.001577 -0.000108 0.581206 0.563742 1 0 1.000000
wardrobe_02
  0 -16.287441 -0.066257 46.077606 -1.000000 0.000000 0.000000 0.441380 0.563742 1 0 1.000000
  0 -16.287445 -12.570595 46.077606 -0.999999 -0.001577 -0.000108 0.581206 0.563742 1 0 1.000000
  0 -16.287441 -0.066259 87.238564 -1.000000 0.000000 0.000000 0.441380 0.997395 1 0 1.000000
wardrobe_02
  0 -16.287441 -0.066259 87.238564 -1.000000 0.000000 0.000000 0.441380 0.997395 1 0 1.000000
  0 -16.287445 -12.570595 46.077606 -0.999999 -0.001577 -0.000108 0.581206 0.563742 1 0 1.000000
  0 -16.287441 -12.570597 87.238556 -0.999999 -0.001205 0.000000 0.581206 0.997395 1 0 1.000000
wardrobe_02
  0 -16.287441 -12.570597 87.238556 -0.999999 -0.001205 0.000000 0.581206 0.997395 1 0 1.000000
  0 -16.287445 -12.570595 46.077606 -0.999999 -0.001577 -0.000108 0.581206 0.563742 1 0 1.000000
  0 -16.258760 -24.470814 87.238571 -0.999997 -0.002410 0.000000 0.714159 0.997395 1 0 1.000000
wardrobe_02
  0 -16.258760 -24.470814 87.238571 -0.999997 -0.002410 0.000000 0.714159 0.997395 1 0 1.000000
  0 -16.287445 -12.570595 46.077606 -0.999999 -0.001577 -0.000108 0.581206 0.563742 1 0 1.000000
  0 -16.258760 -24.470812 46.077606 -0.999995 -0.003154 -0.000215 0.714159 0.563742 1 0 1.000000
wardrobe_02
  0 -16.287445 -12.570595 46.077606 -0.999999 -0.001577 -0.000108 0.581206 0.563742 1 0 1.000000
  0 -16.244417 -24.476038 20.648661 -0.999995 -0.003154 -0.000215 0.714159 0.295773 1 0 1.000000
  0 -16.258760 -24.470812 46.077606 -0.999995 -0.003154 -0.000215 0.714159 0.563742 1 0 1.000000
wardrobe_02
  0 -16.287441 -12.570593 4.916611 -0.999999 -0.001577 -0.000108 0.580817 0.130088 1 0 1.000000
  0 -16.244417 -24.476038 20.648661 -0.999995 -0.003154 -0.000215 0.714159 0.295773 1 0 1.000000
  0 -16.287445 -12.570595 46.077606 -0.999999 -0.001577 -0.000108 0.581206 0.563742 1 0 1.000000
wardrobe_02
  0 -16.244417 -24.476038 20.648661 -0.999995 -0.003154 -0.000215 0.714159 0.295773 1 0 1.000000
  0 -16.287441 -12.570593 4.916611 -0.999999 -0.001577 -0.000108 0.580817 0.130088 1 0 1.000000
  0 -16.244417 -24.476038 12.785219 -0.999993 -0.003614 0.000000 0.714159 0.212931 1 0 1.000000
wardrobe_02
  0 -16.244417 -24.476038 12.785219 -0.999993 -0.003614 0.000000 0.714159 0.212931 1 0 1.000000
  0 -16.287441 -12.570593 4.916611 -0.999999 -0.001577 -0.000108 0.580817 0.130088 1 0 1.000000
  0 -16.287439 -23.420389 4.916609 -0.999984 -0.002410 0.005144 0.701805 0.130088 1 0 1.000000
wardrobe_02
  0 -16.258757 -24.470810 4.916645 -0.999984 -0.002410 0.005144 0.714159 0.130089 1 0 1.000000
  0 -16.244417 -24.476038 12.785219 -0.999993 -0.003614 0.000000 0.714159 0.212931 1 0 1.000000
  0 -16.287439 -23.420389 4.916609 -0.999984 -0.002410 0.005144 0.701805 0.130088 1 0 1.000000
wardrobe_02
  0 2.112199 -24.466448 17.077463 0.044561 -0.347603 0.936582 0.839347 0.047287 1 0 1.000000
  0 2.225122 -24.884907 16.958605 0.188872 -0.799193 0.570629 0.836309 0.053796 1 0 1.000000
  0 2.991200 -24.466450 17.077463 0.044561 -0.347603 0.936582 0.815699 0.047287 1 0 1.000000
wardrobe_02
  0 2.991200 -24.466450 17.077463 0.044561 -0.347603 0.936582 0.815699 0.047287 1 0 1.000000
  0 2.225122 -24.884907 16.958605 0.188872 -0.799193 0.570629 0.836309 0.053796 1 0 1.000000
  0 2.991048 -24.674036 16.958605 0.188872 -0.799193 0.570629 0.815703 0.053796 1 0 1.000000
wardrobe_02
  0 2.225122 -24.884907 16.958605 0.188872 -0.799193 0.570629 0.836309 0.053796 1 0 1.000000
  0 2.225122 -24.884907 16.617144 0.188872 -0.799194 -0.570627 0.836309 0.063240 1 0 1.000000
  0 2.991048 -24.674036 16.958605 0.188872 -0.799193 0.570629 0.815703 0.053796 1 0 1.000000
wardrobe_02
  0 2.991048 -24.674036 16.958605 0.188872 -0.799193 0.570629 0.815703 0.053796 1 0 1.000000
  0 2.225122 -24.884907 16.617144 0.188872 -0.799194 -0.570627 0.836309 0.063240 1 0 1.000000
  0 2.991052 -24.674036 16.617144 0.188872 -0.799194 -0.570627 0.815703 0.063240 1 0 1.000000
wardrobe_02
  0 2.225122 -24.884907 16.617144 0.188872 -0.799194 -0.570627 0.836309 0.063240 1 0 1.000000
  0 2.991204 -24.466448 16.498285 0.044561 -0.347604 -0.936582 0.815699 0.069749 1 0 1.000000
  0 2.991052 -24.674036 16.617144 0.188872 -0.799194 -0.570627 0.815703 0.063240 1 0 1.000000
wardrobe_02
  0 2.112199 -24.466448 16.498285 0.044561 -0.347604 -0.936582 0.839347 0.069749 1 0 1.000000
  0 2.991204 -24.466448 16.498285 0.044561 -0.347604 -0.936582 0.815699 0.069749 1 0 1.000000
  0 2.225122 -24.884907 16.617144 0.188872 -0.799194 -0.570627 0.836309 0.063240 1 0 1.000000
wardrobe_02
  0 12.739045 -24.092537 84.649109 -0.000003 -1.000000 0.000000 0.147052 0.648631 1 0 1.000000
  0 -14.138560 -24.092541 85.505882 0.000000 -1.000000 -0.000004 0.411458 0.658198 1 0 1.000000
  0 -13.203635 -24.092537 84.649109 0.000000 -1.000000 -0.000004 0.400907 0.649108 1 0 1.000000
wardrobe_02
  0 -14.138560 -24.092541 85.505882 0.000000 -1.000000 -0.000004 0.411458 0.658198 1 0 1.000000
  0 -14.138564 -24.092539 47.810287 0.000000 -1.000000 0.000004 0.411459 0.258907 1 0 1.000000
  0 -13.203635 -24.092537 84.649109 0.000000 -1.000000 -0.000004 0.400907 0.649108 1 0 1.000000
wardrobe_02
  0 -13.203635 -24.092537 84.649109 0.000000 -1.000000 -0.000004 0.400907 0.649108 1 0 1.000000
  0 -14.138564 -24.092539 47.810287 0.000000 -1.000000 0.000004 0.411459 0.258907 1 0 1.000000
  0 -13.203639 -24.092535 48.667053 0.000000 -1.000000 0.000004 0.400907 0.267998 1 0 1.000000
wardrobe_02
  0 -14.138564 -24.092539 47.810287 0.000000 -1.000000 0.000004 0.411459 0.258907 1 0 1.000000
  0 13.673966 -24.092539 47.810287 0.000000 -1.000000 0.000004 0.134139 0.258901 1 0 1.000000
  0 -13.203639 -24.092535 48.667053 0.000000 -1.000000 0.000004 0.400907 0.267998 1 0 1.000000
wardrobe_02
  0 -13.203639 -24.092535 48.667053 0.000000 -1.000000 0.000004 0.400907 0.267998 1 0 1.000000
  0 13.673966 -24.092539 47.810287 0.000000 -1.000000 0.000004 0.134139 0.258901 1 0 1.000000
  0 12.739038 -24.092535 48.667049 0.000000 -1.000000 0.000004 0.147052 0.267936 1 0 1.000000
wardrobe_02
  0 13.673966 -24.092539 47.810287 0.000000 -1.000000 0.000004 0.134139 0.258901 1 0 1.000000
  0 13.673959 -24.092541 85.505882 -0.000003 -1.000000 0.000000 0.134139 0.657666 1 0 1.000000
  0 12.739038 -24.092535 48.667049 0.000000 -1.000000 0.000004 0.147052 0.267936 1 0 1.000000
wardrobe_02
  0 12.739038 -24.092535 48.667049 0.000000 -1.000000 0.000004 0.147052 0.267936 1 0 1.000000
  0 13.673959 -24.092541 85.505882 -0.000003 -1.000000 0.000000 0.134139 0.657666 1 0 1.000000
  0 12.739045 -24.092537 84.649109 -0.000003 -1.000000 0.000000 0.147052 0.648631 1 0 1.000000
wardrobe_02
  0 13.673959 -24.092541 85.505882 -0.000003 -1.000000 0.000000 0.134139 0.657666 1 0 1.000000
  0 -14.138560 -24.092541 85.505882 0.000000 -1.000000 -0.000004 0.411458 0.658198 1 0 1.000000
  0 12.739045 -24.092537 84.649109 -0.000003 -1.000000 0.000000 0.147052 0.648631 1 0 1.000000
wardrobe_02
  0 -0.361346 -25.137274 16.498285 -0.056030 -0.479450 -0.875779 0.905894 0.069749 1 0 1.000000
  0 -0.361346 -25.349632 16.617144 -0.098331 -0.855387 -0.508571 0.905894 0.063240 1 0 1.000000
  0 -1.962108 -24.945456 16.498285 -0.056030 -0.479450 -0.875779 0.948960 0.069749 1 0 1.000000
wardrobe_02
  0 -1.962108 -24.945456 16.498285 -0.056030 -0.479450 -0.875779 0.948960 0.069749 1 0 1.000000
  0 -0.361346 -25.349632 16.617144 -0.098331 -0.855387 -0.508571 0.905894 0.063240 1 0 1.000000
  0 -2.043467 -25.157810 16.617144 -0.098331 -0.855387 -0.508571 0.951149 0.063240 1 0 1.000000
wardrobe_02
  0 -0.361346 -25.349632 16.617144 -0.098331 -0.855387 -0.508571 0.905894 0.063240 1 0 1.000000
  0 -0.361350 -25.349632 16.958605 -0.098331 -0.855386 0.508572 0.905894 0.053796 1 0 1.000000
  0 -2.043467 -25.157810 16.617144 -0.098331 -0.855387 -0.508571 0.951149 0.063240 1 0 1.000000
wardrobe_02
  0 -2.043467 -25.157810 16.617144 -0.098331 -0.855387 -0.508571 0.951149 0.063240 1 0 1.000000
  0 -0.361350 -25.349632 16.958605 -0.098331 -0.855386 0.508572 0.905894 0.053796 1 0 1.000000
  0 -2.043467 -25.157810 16.958605 -0.098331 -0.855386 0.508572 0.951149 0.053796 1 0 1.000000
wardrobe_02
  0 -0.361350 -25.349632 16.958605 -0.098331 -0.855386 0.508572 0.905894 0.053796 1 0 1.000000
  0 -1.962108 -24.945454 17.077463 -0.056030 -0.479445 0.875781 0.948960 0.047287 1 0 1.000000
  0 -2.043467 -25.157810 16.958605 -0.098331 -0.855386 0.508572 0.951149 0.053796 1 0 1.000000
wardrobe_02
  0 -0.361350 -25.137274 17.077463 -0.056030 -0.479445 0.875781 0.905894 0.047287 1 0 1.000000
  0 -1.962108 -24.945454 17.077463 -0.056030 -0.479445 0.875781 0.948960 0.047287 1 0 1.000000
  0 -0.361350 -25.349632 16.958605 -0.098331 -0.855386 0.508572 0.905894 0.053796 1 0 1.000000
wardrobe_02
  0 -16.244417 -24.476038 20.648661 0.000000 -0.999993 -0.003643 0.426771 0.233609 1 0 1.000000
  0 15.769696 -24.476036 20.653330 0.000000 -0.999993 -0.003643 0.112179 0.232923 1 0 1.000000
  0 -14.388099 -24.481264 22.085747 0.000000 -0.999993 -0.003643 0.408678 0.221125 1 0 1.000000
wardrobe_02
  0 -14.388099 -24.481264 22.085747 0.000000 -0.999993 -0.003643 0.408678 0.221125 1 0 1.000000
  0 15.769696 -24.476036 20.653330 0.000000 -0.999993 -0.003643 0.112179 0.232923 1 0 1.000000
  0 13.923501 -24.481262 22.085747 0.000000 -0.999993 -0.003643 0.130426 0.220864 1 0 1.000000
wardrobe_02
  0 15.769696 -24.476036 20.653330 0.000000 -0.999993 -0.003643 0.112179 0.232923 1 0 1.000000
  0 15.773892 -24.470812 46.077606 0.004242 -0.999991 0.000109 0.112437 0.012205 1 0 1.000000
  0 13.923501 -24.481262 22.085747 0.000000 -0.999993 -0.003643 0.130426 0.220864 1 0 1.000000
wardrobe_02
  0 13.923501 -24.481262 22.085747 0.000000 -0.999993 -0.003643 0.130426 0.220864 1 0 1.000000
  0 15.773892 -24.470812 46.077606 0.004242 -0.999991 0.000109 0.112437 0.012205 1 0 1.000000
  0 13.923501 -24.481264 44.651451 0.004242 -0.999991 0.000109 0.130531 0.024481 1 0 1.000000
wardrobe_02
  0 15.773892 -24.470812 46.077606 0.004242 -0.999991 0.000109 0.112437 0.012205 1 0 1.000000
  0 -14.388099 -24.481264 44.651451 0.000000 -0.999973 0.007329 0.408800 0.024453 1 0 1.000000
  0 13.923501 -24.481264 44.651451 0.004242 -0.999991 0.000109 0.130531 0.024481 1 0 1.000000
wardrobe_02
  0 -16.258760 -24.470812 46.077606 0.000000 -0.999973 0.007329 0.427049 0.012188 1 0 1.000000
  0 -14.388099 -24.481264 44.651451 0.000000 -0.999973 0.007329 0.408800 0.024453 1 0 1.000000
  0 15.773892 -24.470812 46.077606 0.004242 -0.999991 0.000109 0.112437 0.012205 1 0 1.000000
wardrobe_02
  0 -16.258760 -24.470812 46.077606 0.000000 -0.999973 0.007329 0.427049 0.012188 1 0 1.000000
  0 -16.244417 -24.476038 20.648661 0.000000 -0.999993 -0.003643 0.426771 0.233609 1 0 1.000000
  0 -14.388099 -24.481264 44.651451 0.000000 -0.999973 0.007329 0.408800 0.024453 1 0 1.000000
wardrobe_02
  0 -14.388099 -24.481264 44.651451 0.000000 -0.999973 0.007329 0.408800 0.024453 1 0 1.000000
  0 -16.244417 -24.476038 20.648661 0.000000 -0.999993 -0.003643 0.426771 0.233609 1 0 1.000000
  0 -14.388099 -24.481264 22.085747 0.000000 -0.999993 -0.003643 0.408678 0.221125 1 0 1.000000
wardrobe_02
  0 -14.694255 -24.466450 43.500591 0.936583 -0.347602 -0.044560 0.839347 0.047287 1 0 1.000000
  0 -14.813113 -24.884909 43.387669 0.570629 -0.799193 -0.188872 0.836309 0.053796 1 0 1.000000
  0 -14.694255 -24.466452 42.621590 0.936583 -0.347602 -0.044560 0.815699 0.047287 1 0 1.000000
wardrobe_02
  0 -14.694255 -24.466452 42.621590 0.936583 -0.347602 -0.044560 0.815699 0.047287 1 0 1.000000
  0 -14.813113 -24.884909 43.387669 0.570629 -0.799193 -0.188872 0.836309 0.053796 1 0 1.000000
  0 -14.813113 -24.674038 42.621742 0.570629 -0.799193 -0.188872 0.815703 0.053796 1 0 1.000000
wardrobe_02
  0 -14.813113 -24.884909 43.387669 0.570629 -0.799193 -0.188872 0.836309 0.053796 1 0 1.000000
  0 -15.154574 -24.884909 43.387669 -0.570629 -0.799193 -0.188872 0.836309 0.063240 1 0 1.000000
  0 -14.813113 -24.674038 42.621742 0.570629 -0.799193 -0.188872 0.815703 0.053796 1 0 1.000000
wardrobe_02
  0 -14.813113 -24.674038 42.621742 0.570629 -0.799193 -0.188872 0.815703 0.053796 1 0 1.000000
  0 -15.154574 -24.884909 43.387669 -0.570629 -0.799193 -0.188872 0.836309 0.063240 1 0 1.000000
  0 -15.154574 -24.674038 42.621738 -0.570629 -0.799193 -0.188872 0.815703 0.063240 1 0 1.000000
wardrobe_02
  0 -15.154574 -24.884909 43.387669 -0.570629 -0.799193 -0.188872 0.836309 0.063240 1 0 1.000000
  0 -15.273433 -24.466450 42.621586 -0.936583 -0.347601 -0.044560 0.815699 0.069749 1 0 1.000000
  0 -15.154574 -24.674038 42.621738 -0.570629 -0.799193 -0.188872 0.815703 0.063240 1 0 1.000000
wardrobe_02
  0 -15.273433 -24.466450 43.500591 -0.936583 -0.347601 -0.044560 0.839347 0.069749 1 0 1.000000
  0 -15.273433 -24.466450 42.621586 -0.936583 -0.347601 -0.044560 0.815699 0.069749 1 0 1.000000
  0 -15.154574 -24.884909 43.387669 -0.570629 -0.799193 -0.188872 0.836309 0.063240 1 0 1.000000
wardrobe_02
  0 -15.273433 -24.466450 48.447674 -0.936586 -0.347592 0.044558 0.972441 0.069749 1 0 1.000000
  0 -15.154574 -24.884909 48.560596 -0.570636 -0.799193 0.188851 0.975479 0.063240 1 0 1.000000
  0 -15.273433 -24.466450 49.326607 -0.936586 -0.347592 0.044558 0.996087 0.069749 1 0 1.000000
wardrobe_02
  0 -15.273433 -24.466450 49.326607 -0.936586 -0.347592 0.044558 0.996087 0.069749 1 0 1.000000
  0 -15.154574 -24.884909 48.560596 -0.570636 -0.799193 0.188851 0.975479 0.063240 1 0 1.000000
  0 -15.154574 -24.674040 49.326611 -0.570636 -0.799193 0.188851 0.996087 0.063240 1 0 1.000000
wardrobe_02
  0 -15.154574 -24.884909 48.560596 -0.570636 -0.799193 0.188851 0.975479 0.063240 1 0 1.000000
  0 -14.813113 -24.884909 48.560600 0.570628 -0.799199 0.188852 0.975479 0.053796 1 0 1.000000
  0 -15.154574 -24.674040 49.326611 -0.570636 -0.799193 0.188851 0.996087 0.063240 1 0 1.000000
wardrobe_02
  0 -15.154574 -24.674040 49.326611 -0.570636 -0.799193 0.188851 0.996087 0.063240 1 0 1.000000
  0 -14.813113 -24.884909 48.560600 0.570628 -0.799199 0.188852 0.975479 0.053796 1 0 1.000000
  0 -14.813113 -24.674042 49.326614 0.570628 -0.799199 0.188852 0.996088 0.053796 1 0 1.000000
wardrobe_02
  0 -14.813113 -24.884909 48.560600 0.570628 -0.799199 0.188852 0.975479 0.053796 1 0 1.000000
  0 -14.694255 -24.466454 49.326614 0.936585 -0.347597 0.044558 0.996088 0.047287 1 0 1.000000
  0 -14.813113 -24.674042 49.326614 0.570628 -0.799199 0.188852 0.996088 0.053796 1 0 1.000000
wardrobe_02
  0 -14.694255 -24.466452 48.447681 0.936585 -0.347597 0.044558 0.972441 0.047287 1 0 1.000000
  0 -14.694255 -24.466454 49.326614 0.936585 -0.347597 0.044558 0.996088 0.047287 1 0 1.000000
  0 -14.813113 -24.884909 48.560600 0.570628 -0.799199 0.188852 0.975479 0.053796 1 0 1.000000
end
