// Created by Crowbar 0.74
version 1
nodes
  0 "static_prop" -1
end
skeleton
  time 0
    0 0.000000 0.000000 0.000000 0.000000 0.000000 0.000000
end
triangles
wardrobe_02
  0 -18.162651 -24.071634 47.810287 0.000000 -0.619192 0.785240 0.746183 0.583452 1 0 1.000000
  0 -1.880755 -24.460360 47.503761 0.000000 -0.619192 0.785240 0.969320 0.578768 1 0 1.000000
  0 -2.130294 -24.071632 47.810287 0.000000 -0.619192 0.785240 0.963483 0.583452 1 0 1.000000
wardrobe_02
  0 -18.412189 -24.460361 47.503761 0.000000 -0.619192 0.785240 0.739740 0.578768 1 0 1.000000
  0 -1.880755 -24.460360 47.503761 0.000000 -0.619192 0.785240 0.969320 0.578768 1 0 1.000000
  0 -18.162651 -24.071634 47.810287 0.000000 -0.619192 0.785240 0.746183 0.583452 1 0 1.000000
wardrobe_02
  0 -20.254166 -0.066255 0.000000 -1.000000 0.000000 0.000000 0.439252 0.078233 1 0 1.000000
  0 -20.254166 -12.570593 -0.000001 -1.000000 0.000000 0.000000 0.586756 0.078233 1 0 1.000000
  0 -20.254166 -0.066255 4.916611 -1.000000 0.000000 0.000000 0.439252 0.124290 1 0 1.000000
wardrobe_02
  0 -20.254166 -0.066255 4.916611 -1.000000 0.000000 0.000000 0.439252 0.124290 1 0 1.000000
  0 -20.254166 -12.570593 -0.000001 -1.000000 0.000000 0.000000 0.586756 0.078233 1 0 1.000000
  0 -20.254166 -12.570593 4.916611 -1.000000 0.000000 0.000000 0.586756 0.124290 1 0 1.000000
wardrobe_02
  0 -20.254166 -12.570593 4.916611 -1.000000 0.000000 0.000000 0.586756 0.124290 1 0 1.000000
  0 -20.254166 -12.570593 -0.000001 -1.000000 0.000000 0.000000 0.586756 0.078233 1 0 1.000000
  0 -20.254164 -23.420391 4.916610 -1.000000 0.000000 0.000000 0.714742 0.124290 1 0 1.000000
wardrobe_02
  0 -20.254164 -23.420391 4.916610 -1.000000 0.000000 0.000000 0.714742 0.124290 1 0 1.000000
  0 -20.254166 -12.570593 -0.000001 -1.000000 0.000000 0.000000 0.586756 0.078233 1 0 1.000000
  0 -20.254164 -23.420389 -0.000001 -1.000000 0.000000 0.000000 0.714742 0.078233 1 0 1.000000
wardrobe_02
  0 -20.254166 -0.066255 4.916611 -1.000000 0.000000 0.000000 0.441380 0.130088 1 0 1.000000
  0 -20.254166 -12.570593 4.916611 -1.000000 0.000000 0.000000 0.580817 0.130088 1 0 1.000000
  0 -20.254166 -0.066257 46.077606 -1.000000 0.000000 0.000000 0.441380 0.563742 1 0 1.000000
wardrobe_02
  0 -20.254166 -0.066257 46.077606 -1.000000 0.000000 0.000000 0.441380 0.563742 1 0 1.000000
  0 -20.254166 -12.570593 4.916611 -1.000000 0.000000 0.000000 0.580817 0.130088 1 0 1.000000
  0 -20.254166 -12.570595 46.077606 -1.000000 0.000000 0.000000 0.581206 0.563742 1 0 1.000000
wardrobe_02
  0 -20.254166 -0.066257 46.077606 -1.000000 0.000000 0.000000 0.441380 0.563742 1 0 1.000000
  0 -20.254166 -12.570595 46.077606 -1.000000 0.000000 0.000000 0.581206 0.563742 1 0 1.000000
  0 -20.254166 -0.066259 87.238564 -1.000000 0.000000 0.000000 0.441380 0.997395 1 0 1.000000
wardrobe_02
  0 -20.254166 -0.066259 87.238564 -1.000000 0.000000 0.000000 0.441380 0.997395 1 0 1.000000
  0 -20.254166 -12.570595 46.077606 -1.000000 0.000000 0.000000 0.581206 0.563742 1 0 1.000000
  0 -20.254166 -12.570597 87.238556 -1.000000 0.000000 0.000000 0.581206 0.997395 1 0 1.000000
wardrobe_02
  0 -20.254166 -12.570597 87.238556 -1.000000 0.000000 0.000000 0.581206 0.997395 1 0 1.000000
  0 -20.254166 -12.570595 46.077606 -1.000000 0.000000 0.000000 0.581206 0.563742 1 0 1.000000
  0 -20.254166 -24.460361 87.238564 -1.000000 0.000000 0.000000 0.714159 0.997395 1 0 1.000000
wardrobe_02
  0 -20.254166 -24.460361 87.238564 -1.000000 0.000000 0.000000 0.714159 0.997395 1 0 1.000000
  0 -20.254166 -12.570595 46.077606 -1.000000 0.000000 0.000000 0.581206 0.563742 1 0 1.000000
  0 -20.254166 -24.460361 46.077606 -1.000000 0.000000 0.000000 0.714159 0.563742 1 0 1.000000
wardrobe_02
  0 -20.254166 -12.570595 46.077606 -1.000000 0.000000 0.000000 0.581206 0.563742 1 0 1.000000
  0 -20.254166 -12.570593 4.916611 -1.000000 0.000000 0.000000 0.580817 0.130088 1 0 1.000000
  0 -20.254166 -24.460361 46.077606 -1.000000 0.000000 0.000000 0.714159 0.563742 1 0 1.000000
wardrobe_02
  0 -20.254166 -12.570593 4.916611 -1.000000 0.000000 0.000000 0.580817 0.130088 1 0 1.000000
  0 -20.254164 -23.420391 4.916610 -1.000000 0.000000 0.000000 0.701805 0.130088 1 0 1.000000
  0 -20.254166 -24.460361 46.077606 -1.000000 0.000000 0.000000 0.714159 0.563742 1 0 1.000000
wardrobe_02
  0 -20.254164 -24.460360 4.916647 -1.000000 0.000000 0.000000 0.714159 0.130089 1 0 1.000000
  0 -20.254166 -24.460361 46.077606 -1.000000 0.000000 0.000000 0.714159 0.563742 1 0 1.000000
  0 -20.254164 -23.420391 4.916610 -1.000000 0.000000 0.000000 0.701805 0.130088 1 0 1.000000
wardrobe_02
  0 -20.254166 -0.066255 4.916611 0.000000 1.000000 0.000000 0.562065 0.122662 1 0 1.000000
  0 -0.038780 -0.066254 4.916611 0.000000 1.000000 0.000000 0.705710 0.122662 1 0 1.000000
  0 -20.254166 -0.066255 0.000000 0.000000 1.000000 0.000000 0.562065 0.078102 1 0 1.000000
wardrobe_02
  0 -20.254166 -0.066255 0.000000 0.000000 1.000000 0.000000 0.562065 0.078102 1 0 1.000000
  0 -0.038780 -0.066254 4.916611 0.000000 1.000000 0.000000 0.705710 0.122662 1 0 1.000000
  0 -0.038780 -0.066254 0.000000 0.000000 1.000000 0.000000 0.705710 0.078102 1 0 1.000000
wardrobe_02
  0 -0.038780 -0.066254 4.916611 0.000000 1.000000 0.000000 0.705710 0.122662 1 0 1.000000
  0 20.176603 -0.066253 0.000000 0.000000 1.000000 0.000000 0.849356 0.078102 1 0 1.000000
  0 -0.038780 -0.066254 0.000000 0.000000 1.000000 0.000000 0.705710 0.078102 1 0 1.000000
wardrobe_02
  0 20.176603 -0.066253 4.916611 0.000000 1.000000 0.000000 0.849356 0.122662 1 0 1.000000
  0 20.176603 -0.066253 0.000000 0.000000 1.000000 0.000000 0.849356 0.078102 1 0 1.000000
  0 -0.038780 -0.066254 4.916611 0.000000 1.000000 0.000000 0.705710 0.122662 1 0 1.000000
wardrobe_02
  0 20.176605 -23.420389 4.916610 0.000000 -1.000000 0.000000 0.996694 0.124515 1 0 1.000000
  0 -0.038780 -23.420389 -0.000001 0.000000 -1.000000 0.000000 0.855662 0.078149 1 0 1.000000
  0 20.176605 -23.420389 -0.000001 0.000000 -1.000000 0.000000 0.996694 0.078149 1 0 1.000000
wardrobe_02
  0 -0.038780 -23.420389 4.916610 0.000000 -1.000000 0.000000 0.855662 0.124515 1 0 1.000000
  0 -0.038780 -23.420389 -0.000001 0.000000 -1.000000 0.000000 0.855662 0.078149 1 0 1.000000
  0 20.176605 -23.420389 4.916610 0.000000 -1.000000 0.000000 0.996694 0.124515 1 0 1.000000
wardrobe_02
  0 -0.038780 -23.420389 4.916610 0.000000 -1.000000 0.000000 0.855662 0.124515 1 0 1.000000
  0 -20.254164 -23.420389 -0.000001 0.000000 -1.000000 0.000000 0.714630 0.078149 1 0 1.000000
  0 -0.038780 -23.420389 -0.000001 0.000000 -1.000000 0.000000 0.855662 0.078149 1 0 1.000000
wardrobe_02
  0 -20.254164 -23.420391 4.916610 0.000000 -1.000000 0.000000 0.714630 0.124515 1 0 1.000000
  0 -20.254164 -23.420389 -0.000001 0.000000 -1.000000 0.000000 0.714630 0.078149 1 0 1.000000
  0 -0.038780 -23.420389 4.916610 0.000000 -1.000000 0.000000 0.855662 0.124515 1 0 1.000000
wardrobe_02
  0 0.944556 -24.945456 44.373371 -0.875781 -0.479445 -0.056029 0.862828 0.069749 1 0 1.000000
  0 1.063413 -25.349632 45.974136 -0.508573 -0.855386 -0.098331 0.905894 0.063240 1 0 1.000000
  0 0.944556 -25.137276 45.974136 -0.875781 -0.479445 -0.056029 0.905894 0.069749 1 0 1.000000
wardrobe_02
  0 1.063413 -25.157812 44.292015 -0.508573 -0.855386 -0.098331 0.860639 0.063240 1 0 1.000000
  0 1.063413 -25.349632 45.974136 -0.508573 -0.855386 -0.098331 0.905894 0.063240 1 0 1.000000
  0 0.944556 -24.945456 44.373371 -0.875781 -0.479445 -0.056029 0.862828 0.069749 1 0 1.000000
wardrobe_02
  0 1.063413 -25.157812 44.292015 -0.508573 -0.855386 -0.098331 0.860639 0.063240 1 0 1.000000
  0 1.404876 -25.157812 44.292015 0.508573 -0.855386 -0.098331 0.860639 0.053796 1 0 1.000000
  0 1.063413 -25.349632 45.974136 -0.508573 -0.855386 -0.098331 0.905894 0.063240 1 0 1.000000
wardrobe_02
  0 1.063413 -25.349632 45.974136 -0.508573 -0.855386 -0.098331 0.905894 0.063240 1 0 1.000000
  0 1.404876 -25.157812 44.292015 0.508573 -0.855386 -0.098331 0.860639 0.053796 1 0 1.000000
  0 1.404876 -25.349632 45.974136 0.508573 -0.855386 -0.098331 0.905894 0.053796 1 0 1.000000
wardrobe_02
  0 1.404876 -25.157812 44.292015 0.508573 -0.855386 -0.098331 0.860639 0.053796 1 0 1.000000
  0 1.523733 -24.945456 44.373371 0.875781 -0.479445 -0.056028 0.862828 0.047287 1 0 1.000000
  0 1.404876 -25.349632 45.974136 0.508573 -0.855386 -0.098331 0.905894 0.053796 1 0 1.000000
wardrobe_02
  0 1.404876 -25.349632 45.974136 0.508573 -0.855386 -0.098331 0.905894 0.053796 1 0 1.000000
  0 1.523733 -24.945456 44.373371 0.875781 -0.479445 -0.056028 0.862828 0.047287 1 0 1.000000
  0 1.523733 -25.137276 45.974136 0.875781 -0.479445 -0.056028 0.905894 0.047287 1 0 1.000000
wardrobe_02
  0 -20.254166 -12.570597 87.238556 0.000000 0.000000 1.000000 0.154549 0.837786 1 0 1.000000
  0 -0.038778 -12.570596 87.238564 0.000000 0.000000 1.000000 0.435282 0.837786 1 0 1.000000
  0 -20.254166 -0.066259 87.238564 0.000000 -0.000001 1.000000 0.154549 0.994102 1 0 1.000000
wardrobe_02
  0 -20.254166 -0.066259 87.238564 0.000000 -0.000001 1.000000 0.154549 0.994102 1 0 1.000000
  0 -0.038778 -12.570596 87.238564 0.000000 0.000000 1.000000 0.435282 0.837786 1 0 1.000000
  0 -0.038777 -0.066258 87.238564 0.000000 -0.000001 1.000000 0.435282 0.994102 1 0 1.000000
wardrobe_02
  0 -20.254166 -24.460361 87.238564 0.000000 0.000001 1.000000 0.154549 0.689152 1 0 1.000000
  0 -0.038779 -24.460361 87.238571 0.000000 0.000001 1.000000 0.435282 0.689152 1 0 1.000000
  0 -20.254166 -12.570597 87.238556 0.000000 0.000000 1.000000 0.154549 0.837786 1 0 1.000000
wardrobe_02
  0 -20.254166 -12.570597 87.238556 0.000000 0.000000 1.000000 0.154549 0.837786 1 0 1.000000
  0 -0.038779 -24.460361 87.238571 0.000000 0.000001 1.000000 0.435282 0.689152 1 0 1.000000
  0 -0.038778 -12.570596 87.238564 0.000000 0.000000 1.000000 0.435282 0.837786 1 0 1.000000
wardrobe_02
  0 -0.038779 -24.460361 87.238571 0.000000 0.000001 1.000000 0.435282 0.689152 1 0 1.000000
  0 20.176603 -12.570595 87.238556 0.000000 0.000001 1.000000 0.154549 0.837786 1 0 1.000000
  0 -0.038778 -12.570596 87.238564 0.000000 0.000000 1.000000 0.435282 0.837786 1 0 1.000000
wardrobe_02
  0 -0.038778 -12.570596 87.238564 0.000000 0.000000 1.000000 0.435282 0.837786 1 0 1.000000
  0 20.176603 -12.570595 87.238556 0.000000 0.000001 1.000000 0.154549 0.837786 1 0 1.000000
  0 -0.038777 -0.066258 87.238564 0.000000 -0.000001 1.000000 0.435282 0.994102 1 0 1.000000
wardrobe_02
  0 -0.038777 -0.066258 87.238564 0.000000 -0.000001 1.000000 0.435282 0.994102 1 0 1.000000
  0 20.176603 -12.570595 87.238556 0.000000 0.000001 1.000000 0.154549 0.837786 1 0 1.000000
  0 20.176603 -0.066257 87.238564 0.000000 -0.000001 1.000000 0.154549 0.994102 1 0 1.000000
wardrobe_02
  0 20.176607 -24.460361 87.238564 0.000000 0.000002 1.000000 0.154549 0.689152 1 0 1.000000
  0 20.176603 -12.570595 87.238556 0.000000 0.000001 1.000000 0.154549 0.837786 1 0 1.000000
  0 -0.038779 -24.460361 87.238571 0.000000 0.000001 1.000000 0.435282 0.689152 1 0 1.000000
wardrobe_02
  0 -1.880755 -24.460360 47.503761 0.000000 -1.000000 0.000000 0.969320 0.578768 1 0 1.000000
  0 -0.038779 -24.460361 87.238571 0.000000 -1.000000 0.000000 0.996970 0.997395 1 0 1.000000
  0 -1.880759 -24.460361 85.812408 0.000000 -1.000000 0.000000 0.969320 0.982370 1 0 1.000000
wardrobe_02
  0 -0.038779 -24.460361 87.238571 0.000000 -1.000000 0.000000 0.996970 0.997395 1 0 1.000000
  0 -20.254166 -24.460361 87.238564 0.000000 -1.000000 0.000000 0.714159 0.997395 1 0 1.000000
  0 -1.880759 -24.460361 85.812408 0.000000 -1.000000 0.000000 0.969320 0.982370 1 0 1.000000
wardrobe_02
  0 -1.880759 -24.460361 85.812408 0.000000 -1.000000 0.000000 0.969320 0.982370 1 0 1.000000
  0 -20.254166 -24.460361 87.238564 0.000000 -1.000000 0.000000 0.714159 0.997395 1 0 1.000000
  0 -18.412188 -24.460361 85.812408 0.000000 -1.000000 0.000000 0.739740 0.982370 1 0 1.000000
wardrobe_02
  0 -20.254166 -24.460361 87.238564 0.000000 -1.000000 0.000000 0.714159 0.997395 1 0 1.000000
  0 -20.254166 -24.460361 46.077606 0.000000 -1.000000 0.000000 0.714159 0.563742 1 0 1.000000
  0 -18.412188 -24.460361 85.812408 0.000000 -1.000000 0.000000 0.739740 0.982370 1 0 1.000000
wardrobe_02
  0 -18.412188 -24.460361 85.812408 0.000000 -1.000000 0.000000 0.739740 0.982370 1 0 1.000000
  0 -20.254166 -24.460361 46.077606 0.000000 -1.000000 0.000000 0.714159 0.563742 1 0 1.000000
  0 -18.412189 -24.460361 47.503761 0.000000 -1.000000 0.000000 0.739740 0.578768 1 0 1.000000
wardrobe_02
  0 -20.254166 -24.460361 46.077606 0.000000 -1.000000 0.000000 0.714159 0.563742 1 0 1.000000
  0 -0.038780 -24.460360 46.077606 0.000000 -1.000000 0.000000 0.996970 0.563742 1 0 1.000000
  0 -18.412189 -24.460361 47.503761 0.000000 -1.000000 0.000000 0.739740 0.578768 1 0 1.000000
wardrobe_02
  0 -18.412189 -24.460361 47.503761 0.000000 -1.000000 0.000000 0.739740 0.578768 1 0 1.000000
  0 -0.038780 -24.460360 46.077606 0.000000 -1.000000 0.000000 0.996970 0.563742 1 0 1.000000
  0 -1.880755 -24.460360 47.503761 0.000000 -1.000000 0.000000 0.969320 0.578768 1 0 1.000000
wardrobe_02
  0 -0.038780 -24.460360 46.077606 0.000000 -1.000000 0.000000 0.996970 0.563742 1 0 1.000000
  0 -0.038779 -24.460361 87.238571 0.000000 -1.000000 0.000000 0.996970 0.997395 1 0 1.000000
  0 -1.880755 -24.460360 47.503761 0.000000 -1.000000 0.000000 0.969320 0.578768 1 0 1.000000
wardrobe_02
  0 -0.038780 -24.460358 4.916649 0.000000 -1.000000 0.000000 0.996970 0.130089 1 0 1.000000
  0 -0.038780 -24.460360 46.077606 0.000000 -1.000000 0.000000 0.996970 0.563742 1 0 1.000000
  0 -1.880755 -24.460358 6.342805 0.000000 -1.000000 0.000000 0.969320 0.145114 1 0 1.000000
wardrobe_02
  0 -1.880755 -24.460358 6.342805 0.000000 -1.000000 0.000000 0.969320 0.145114 1 0 1.000000
  0 -0.038780 -24.460360 46.077606 0.000000 -1.000000 0.000000 0.996970 0.563742 1 0 1.000000
  0 -1.880759 -24.460360 44.651451 0.000000 -1.000000 0.000000 0.969320 0.548717 1 0 1.000000
wardrobe_02
  0 -0.038780 -24.460360 46.077606 0.000000 -1.000000 0.000000 0.996970 0.563742 1 0 1.000000
  0 -20.254166 -24.460361 46.077606 0.000000 -1.000000 0.000000 0.714159 0.563742 1 0 1.000000
  0 -1.880759 -24.460360 44.651451 0.000000 -1.000000 0.000000 0.969320 0.548717 1 0 1.000000
wardrobe_02
  0 -1.880759 -24.460360 44.651451 0.000000 -1.000000 0.000000 0.969320 0.548717 1 0 1.000000
  0 -20.254166 -24.460361 46.077606 0.000000 -1.000000 0.000000 0.714159 0.563742 1 0 1.000000
  0 -18.412188 -24.460360 44.651451 0.000000 -1.000000 0.000000 0.739740 0.548717 1 0 1.000000
wardrobe_02
  0 -20.254166 -24.460361 46.077606 0.000000 -1.000000 0.000000 0.714159 0.563742 1 0 1.000000
  0 -20.254164 -24.460360 4.916647 0.000000 -1.000000 0.000000 0.714159 0.130089 1 0 1.000000
  0 -18.412188 -24.460360 44.651451 0.000000 -1.000000 0.000000 0.739740 0.548717 1 0 1.000000
wardrobe_02
  0 -18.412188 -24.460360 44.651451 0.000000 -1.000000 0.000000 0.739740 0.548717 1 0 1.000000
  0 -20.254164 -24.460360 4.916647 0.000000 -1.000000 0.000000 0.714159 0.130089 1 0 1.000000
  0 -18.412189 -24.460360 6.342805 0.000000 -1.000000 0.000000 0.739740 0.145114 1 0 1.000000
wardrobe_02
  0 -20.254164 -24.460360 4.916647 0.000000 -1.000000 0.000000 0.714159 0.130089 1 0 1.000000
  0 -0.038780 -24.460358 4.916649 0.000000 -1.000000 0.000000 0.996970 0.130089 1 0 1.000000
  0 -18.412189 -24.460360 6.342805 0.000000 -1.000000 0.000000 0.739740 0.145114 1 0 1.000000
wardrobe_02
  0 -18.412189 -24.460360 6.342805 0.000000 -1.000000 0.000000 0.739740 0.145114 1 0 1.000000
  0 -0.038780 -24.460358 4.916649 0.000000 -1.000000 0.000000 0.996970 0.130089 1 0 1.000000
  0 -1.880755 -24.460358 6.342805 0.000000 -1.000000 0.000000 0.969320 0.145114 1 0 1.000000
wardrobe_02
  0 20.176607 -24.460358 4.916647 0.000000 -1.000000 0.000000 0.714159 0.997395 1 0 1.000000
  0 18.334629 -24.460360 44.651451 0.000000 -1.000000 0.000000 0.739740 0.578767 1 0 1.000000
  0 18.334631 -24.460358 6.342805 0.000000 -1.000000 0.000000 0.739740 0.982370 1 0 1.000000
wardrobe_02
  0 20.176607 -24.460358 4.916647 0.000000 -1.000000 0.000000 0.714159 0.997395 1 0 1.000000
  0 18.334631 -24.460358 6.342805 0.000000 -1.000000 0.000000 0.739740 0.982370 1 0 1.000000
  0 -0.038780 -24.460358 4.916649 0.000000 -1.000000 0.000000 0.996970 0.997395 1 0 1.000000
wardrobe_02
  0 -0.038780 -24.460358 4.916649 0.000000 -1.000000 0.000000 0.996970 0.997395 1 0 1.000000
  0 18.334631 -24.460358 6.342805 0.000000 -1.000000 0.000000 0.739740 0.982370 1 0 1.000000
  0 1.803195 -24.460358 6.342805 0.000000 -1.000000 0.000000 0.969320 0.982370 1 0 1.000000
wardrobe_02
  0 -0.038780 -24.460358 4.916649 0.000000 -1.000000 0.000000 0.996970 0.997395 1 0 1.000000
  0 1.803195 -24.460358 6.342805 0.000000 -1.000000 0.000000 0.969320 0.982370 1 0 1.000000
  0 -0.038780 -24.460360 46.077606 0.000000 -1.000000 0.000000 0.996970 0.563742 1 0 1.000000
wardrobe_02
  0 -0.038780 -24.460360 46.077606 0.000000 -1.000000 0.000000 0.996970 0.563742 1 0 1.000000
  0 1.803195 -24.460358 6.342805 0.000000 -1.000000 0.000000 0.969320 0.982370 1 0 1.000000
  0 1.803199 -24.460360 44.651451 0.000000 -1.000000 0.000000 0.969320 0.578767 1 0 1.000000
wardrobe_02
  0 -0.038780 -24.460360 46.077606 0.000000 -1.000000 0.000000 0.996970 0.563742 1 0 1.000000
  0 1.803199 -24.460360 44.651451 0.000000 -1.000000 0.000000 0.969320 0.578767 1 0 1.000000
  0 20.176607 -24.460360 46.077606 0.000000 -1.000000 0.000000 0.714159 0.563742 1 0 1.000000
wardrobe_02
  0 20.176607 -24.460360 46.077606 0.000000 -1.000000 0.000000 0.714159 0.563742 1 0 1.000000
  0 18.334631 -24.460360 47.503761 0.000000 -1.000000 0.000000 0.739740 0.548717 1 0 1.000000
  0 -0.038780 -24.460360 46.077606 0.000000 -1.000000 0.000000 0.996970 0.563742 1 0 1.000000
wardrobe_02
  0 20.176607 -24.460360 46.077606 0.000000 -1.000000 0.000000 0.714159 0.563742 1 0 1.000000
  0 18.334629 -24.460361 85.812408 0.000000 -1.000000 0.000000 0.739740 0.145114 1 0 1.000000
  0 18.334631 -24.460360 47.503761 0.000000 -1.000000 0.000000 0.739740 0.548717 1 0 1.000000
wardrobe_02
  0 20.176607 -24.460361 87.238564 0.000000 -1.000000 0.000000 0.714159 0.130089 1 0 1.000000
  0 18.334629 -24.460361 85.812408 0.000000 -1.000000 0.000000 0.739740 0.145114 1 0 1.000000
  0 20.176607 -24.460360 46.077606 0.000000 -1.000000 0.000000 0.714159 0.563742 1 0 1.000000
wardrobe_02
  0 20.176607 -24.460361 87.238564 0.000000 -1.000000 0.000000 0.714159 0.130089 1 0 1.000000
  0 1.803199 -24.460361 85.812408 0.000000 -1.000000 0.000000 0.969320 0.145114 1 0 1.000000
  0 18.334629 -24.460361 85.812408 0.000000 -1.000000 0.000000 0.739740 0.145114 1 0 1.000000
wardrobe_02
  0 -0.038779 -24.460361 87.238571 0.000000 -1.000000 0.000000 0.996970 0.130089 1 0 1.000000
  0 1.803199 -24.460361 85.812408 0.000000 -1.000000 0.000000 0.969320 0.145114 1 0 1.000000
  0 20.176607 -24.460361 87.238564 0.000000 -1.000000 0.000000 0.714159 0.130089 1 0 1.000000
wardrobe_02
  0 -0.038779 -24.460361 87.238571 0.000000 -1.000000 0.000000 0.996970 0.130089 1 0 1.000000
  0 1.803195 -24.460360 47.503761 0.000000 -1.000000 0.000000 0.969320 0.548717 1 0 1.000000
  0 1.803199 -24.460361 85.812408 0.000000 -1.000000 0.000000 0.969320 0.145114 1 0 1.000000
wardrobe_02
  0 -0.038780 -24.460360 46.077606 0.000000 -1.000000 0.000000 0.996970 0.563742 1 0 1.000000
  0 1.803195 -24.460360 47.503761 0.000000 -1.000000 0.000000 0.969320 0.548717 1 0 1.000000
  0 -0.038779 -24.460361 87.238571 0.000000 -1.000000 0.000000 0.996970 0.130089 1 0 1.000000
wardrobe_02
  0 -0.038780 -24.460360 46.077606 0.000000 -1.000000 0.000000 0.996970 0.563742 1 0 1.000000
  0 18.334631 -24.460360 47.503761 0.000000 -1.000000 0.000000 0.739740 0.548717 1 0 1.000000
  0 1.803195 -24.460360 47.503761 0.000000 -1.000000 0.000000 0.969320 0.548717 1 0 1.000000
wardrobe_02
  0 20.176607 -24.460360 46.077606 0.000000 -1.000000 0.000000 0.714159 0.563742 1 0 1.000000
  0 18.334629 -24.460360 44.651451 0.000000 -1.000000 0.000000 0.739740 0.578767 1 0 1.000000
  0 20.176607 -24.460358 4.916647 0.000000 -1.000000 0.000000 0.714159 0.997395 1 0 1.000000
wardrobe_02
  0 20.176607 -24.460360 46.077606 0.000000 -1.000000 0.000000 0.714159 0.563742 1 0 1.000000
  0 1.803199 -24.460360 44.651451 0.000000 -1.000000 0.000000 0.969320 0.578767 1 0 1.000000
  0 18.334629 -24.460360 44.651451 0.000000 -1.000000 0.000000 0.739740 0.578767 1 0 1.000000
wardrobe_02
  0 -17.018635 -24.414692 48.922333 0.000000 -1.000000 0.000000 0.760375 0.593713 1 0 1.000000
  0 -3.274314 -24.414690 48.922321 0.000000 -1.000000 0.000000 0.949967 0.593713 1 0 1.000000
  0 -17.018633 -24.414690 84.393837 0.000000 -1.000000 0.000000 0.760375 0.967425 1 0 1.000000
wardrobe_02
  0 -17.018633 -24.414690 84.393837 0.000000 -1.000000 0.000000 0.760375 0.967425 1 0 1.000000
  0 -3.274314 -24.414690 48.922321 0.000000 -1.000000 0.000000 0.949967 0.593713 1 0 1.000000
  0 -3.274310 -24.414690 84.393822 0.000000 -1.000000 0.000000 0.949967 0.967424 1 0 1.000000
wardrobe_02
  0 1.404876 -24.674038 42.621742 0.000000 -0.000739 -1.000000 0.815703 0.053796 1 0 1.000000
  0 1.063413 -24.674038 42.621742 0.000000 -0.000739 -1.000000 0.815703 0.063240 1 0 1.000000
  0 1.523733 -24.466450 42.621590 0.000000 -0.000739 -1.000000 0.815699 0.047287 1 0 1.000000
wardrobe_02
  0 1.523733 -24.466450 42.621590 0.000000 -0.000739 -1.000000 0.815699 0.047287 1 0 1.000000
  0 1.063413 -24.674038 42.621742 0.000000 -0.000739 -1.000000 0.815703 0.063240 1 0 1.000000
  0 0.944556 -24.466450 42.621590 0.000000 -0.000739 -1.000000 0.815699 0.069749 1 0 1.000000
wardrobe_02
  0 1.063413 -24.674038 49.326611 0.000000 0.000015 1.000000 0.996087 0.063240 1 0 1.000000
  0 1.404876 -24.674038 49.326611 0.000000 0.000015 1.000000 0.996088 0.053796 1 0 1.000000
  0 0.944556 -24.466450 49.326611 0.000000 0.000015 1.000000 0.996087 0.069749 1 0 1.000000
wardrobe_02
  0 0.944556 -24.466450 49.326611 0.000000 0.000015 1.000000 0.996087 0.069749 1 0 1.000000
  0 1.404876 -24.674038 49.326611 0.000000 0.000015 1.000000 0.996088 0.053796 1 0 1.000000
  0 1.523733 -24.466450 49.326611 0.000000 0.000015 1.000000 0.996088 0.047287 1 0 1.000000
wardrobe_02
  0 -1.204024 -24.674038 42.621742 0.000000 -0.000739 -1.000000 0.815703 0.053796 1 0 1.000000
  0 -1.545486 -24.674038 42.621742 0.000000 -0.000739 -1.000000 0.815703 0.063240 1 0 1.000000
  0 -1.085166 -24.466450 42.621590 0.000000 -0.000739 -1.000000 0.815699 0.047287 1 0 1.000000
wardrobe_02
  0 -1.085166 -24.466450 42.621590 0.000000 -0.000739 -1.000000 0.815699 0.047287 1 0 1.000000
  0 -1.545486 -24.674038 42.621742 0.000000 -0.000739 -1.000000 0.815703 0.063240 1 0 1.000000
  0 -1.664344 -24.466450 42.621590 0.000000 -0.000739 -1.000000 0.815699 0.069749 1 0 1.000000
wardrobe_02
  0 -1.545486 -24.674038 49.326611 0.000000 0.000015 1.000000 0.996087 0.063240 1 0 1.000000
  0 -1.204024 -24.674038 49.326611 0.000000 0.000015 1.000000 0.996088 0.053796 1 0 1.000000
  0 -1.664344 -24.466450 49.326611 0.000000 0.000015 1.000000 0.996087 0.069749 1 0 1.000000
wardrobe_02
  0 -1.664344 -24.466450 49.326611 0.000000 0.000015 1.000000 0.996087 0.069749 1 0 1.000000
  0 -1.204024 -24.674038 49.326611 0.000000 0.000015 1.000000 0.996088 0.053796 1 0 1.000000
  0 -1.085166 -24.466450 49.326611 0.000000 0.000015 1.000000 0.996088 0.047287 1 0 1.000000
wardrobe_02
  0 -1.664344 -25.137276 45.974136 -0.875781 -0.479446 0.056028 0.905894 0.069749 1 0 1.000000
  0 -1.545486 -25.349632 45.974136 -0.508572 -0.855386 0.098330 0.905894 0.063240 1 0 1.000000
  0 -1.664344 -24.945456 47.574898 -0.875781 -0.479446 0.056028 0.948960 0.069749 1 0 1.000000
wardrobe_02
  0 -1.664344 -24.945456 47.574898 -0.875781 -0.479446 0.056028 0.948960 0.069749 1 0 1.000000
  0 -1.545486 -25.349632 45.974136 -0.508572 -0.855386 0.098330 0.905894 0.063240 1 0 1.000000
  0 -1.545486 -25.157812 47.656258 -0.508572 -0.855386 0.098330 0.951149 0.063240 1 0 1.000000
wardrobe_02
  0 -1.545486 -25.349632 45.974136 -0.508572 -0.855386 0.098330 0.905894 0.063240 1 0 1.000000
  0 -1.204024 -25.349632 45.974136 0.508572 -0.855386 0.098330 0.905894 0.053796 1 0 1.000000
  0 -1.545486 -25.157812 47.656258 -0.508572 -0.855386 0.098330 0.951149 0.063240 1 0 1.000000
wardrobe_02
  0 -1.545486 -25.157812 47.656258 -0.508572 -0.855386 0.098330 0.951149 0.063240 1 0 1.000000
  0 -1.204024 -25.349632 45.974136 0.508572 -0.855386 0.098330 0.905894 0.053796 1 0 1.000000
  0 -1.204024 -25.157812 47.656258 0.508572 -0.855386 0.098330 0.951149 0.053796 1 0 1.000000
wardrobe_02
  0 -1.204024 -25.349632 45.974136 0.508572 -0.855386 0.098330 0.905894 0.053796 1 0 1.000000
  0 -1.085166 -24.945456 47.574898 0.875781 -0.479446 0.056028 0.948960 0.047287 1 0 1.000000
  0 -1.204024 -25.157812 47.656258 0.508572 -0.855386 0.098330 0.951149 0.053796 1 0 1.000000
wardrobe_02
  0 -1.085166 -25.137276 45.974136 0.875781 -0.479446 0.056028 0.905894 0.047287 1 0 1.000000
  0 -1.085166 -24.945456 47.574898 0.875781 -0.479446 0.056028 0.948960 0.047287 1 0 1.000000
  0 -1.204024 -25.349632 45.974136 0.508572 -0.855386 0.098330 0.905894 0.053796 1 0 1.000000
wardrobe_02
  0 -1.664344 -24.945456 44.373371 -0.875781 -0.479445 -0.056028 0.862828 0.069749 1 0 1.000000
  0 -1.545486 -25.349632 45.974136 -0.508573 -0.855386 -0.098330 0.905894 0.063240 1 0 1.000000
  0 -1.664344 -25.137276 45.974136 -0.875781 -0.479445 -0.056028 0.905894 0.069749 1 0 1.000000
wardrobe_02
  0 -1.545486 -25.157812 44.292015 -0.508573 -0.855386 -0.098330 0.860639 0.063240 1 0 1.000000
  0 -1.545486 -25.349632 45.974136 -0.508573 -0.855386 -0.098330 0.905894 0.063240 1 0 1.000000
  0 -1.664344 -24.945456 44.373371 -0.875781 -0.479445 -0.056028 0.862828 0.069749 1 0 1.000000
wardrobe_02
  0 -1.545486 -25.157812 44.292015 -0.508573 -0.855386 -0.098330 0.860639 0.063240 1 0 1.000000
  0 -1.204024 -25.157812 44.292015 0.508573 -0.855386 -0.098331 0.860639 0.053796 1 0 1.000000
  0 -1.545486 -25.349632 45.974136 -0.508573 -0.855386 -0.098330 0.905894 0.063240 1 0 1.000000
wardrobe_02
  0 -1.545486 -25.349632 45.974136 -0.508573 -0.855386 -0.098330 0.905894 0.063240 1 0 1.000000
  0 -1.204024 -25.157812 44.292015 0.508573 -0.855386 -0.098331 0.860639 0.053796 1 0 1.000000
  0 -1.204024 -25.349632 45.974136 0.508573 -0.855386 -0.098331 0.905894 0.053796 1 0 1.000000
wardrobe_02
  0 -1.204024 -25.157812 44.292015 0.508573 -0.855386 -0.098331 0.860639 0.053796 1 0 1.000000
  0 -1.085166 -24.945456 44.373371 0.875781 -0.479445 -0.056028 0.862828 0.047287 1 0 1.000000
  0 -1.204024 -25.349632 45.974136 0.508573 -0.855386 -0.098331 0.905894 0.053796 1 0 1.000000
wardrobe_02
  0 -1.204024 -25.349632 45.974136 0.508573 -0.855386 -0.098331 0.905894 0.053796 1 0 1.000000
  0 -1.085166 -24.945456 44.373371 0.875781 -0.479445 -0.056028 0.862828 0.047287 1 0 1.000000
  0 -1.085166 -25.137276 45.974136 0.875781 -0.479445 -0.056028 0.905894 0.047287 1 0 1.000000
wardrobe_02
  0 20.176603 -0.066255 46.077606 1.000000 0.000000 0.000000 0.441380 0.563742 1 0 1.000000
  0 20.176603 -0.066257 87.238564 1.000000 0.000000 0.000000 0.441380 0.997395 1 0 1.000000
  0 20.176603 -12.570593 46.077606 1.000000 0.000000 0.000000 0.581206 0.563742 1 0 1.000000
wardrobe_02
  0 20.176603 -12.570593 46.077606 1.000000 0.000000 0.000000 0.581206 0.563742 1 0 1.000000
  0 20.176603 -0.066257 87.238564 1.000000 0.000000 0.000000 0.441380 0.997395 1 0 1.000000
  0 20.176603 -12.570595 87.238556 1.000000 0.000000 0.000000 0.581206 0.997395 1 0 1.000000
wardrobe_02
  0 20.176607 -24.460360 46.077606 1.000000 0.000000 0.000000 0.714159 0.563742 1 0 1.000000
  0 20.176603 -12.570595 87.238556 1.000000 0.000000 0.000000 0.581206 0.997395 1 0 1.000000
  0 20.176607 -24.460361 87.238564 1.000000 0.000000 0.000000 0.714159 0.997395 1 0 1.000000
wardrobe_02
  0 20.176603 -12.570593 46.077606 1.000000 0.000000 0.000000 0.581206 0.563742 1 0 1.000000
  0 20.176603 -12.570595 87.238556 1.000000 0.000000 0.000000 0.581206 0.997395 1 0 1.000000
  0 20.176607 -24.460360 46.077606 1.000000 0.000000 0.000000 0.714159 0.563742 1 0 1.000000
wardrobe_02
  0 20.176607 -24.460360 46.077606 1.000000 0.000000 0.000000 0.714159 0.563742 1 0 1.000000
  0 20.176607 -24.460358 4.916647 1.000000 0.000000 0.000000 0.714159 0.130089 1 0 1.000000
  0 20.176603 -12.570593 46.077606 1.000000 0.000000 0.000000 0.581206 0.563742 1 0 1.000000
wardrobe_02
  0 20.176603 -12.570593 46.077606 1.000000 0.000000 0.000000 0.581206 0.563742 1 0 1.000000
  0 20.176607 -24.460358 4.916647 1.000000 0.000000 0.000000 0.714159 0.130089 1 0 1.000000
  0 20.176605 -23.420389 4.916610 1.000000 0.000000 0.000000 0.701805 0.130088 1 0 1.000000
wardrobe_02
  0 20.176603 -12.570591 4.916611 1.000000 0.000000 0.000000 0.580817 0.130088 1 0 1.000000
  0 20.176603 -12.570593 46.077606 1.000000 0.000000 0.000000 0.581206 0.563742 1 0 1.000000
  0 20.176605 -23.420389 4.916610 1.000000 0.000000 0.000000 0.701805 0.130088 1 0 1.000000
wardrobe_02
  0 20.176603 -12.570591 4.916611 1.000000 0.000000 0.000000 0.580817 0.130088 1 0 1.000000
  0 20.176603 -0.066255 46.077606 1.000000 0.000000 0.000000 0.441380 0.563742 1 0 1.000000
  0 20.176603 -12.570593 46.077606 1.000000 0.000000 0.000000 0.581206 0.563742 1 0 1.000000
wardrobe_02
  0 20.176603 -0.066253 4.916611 1.000000 0.000000 0.000000 0.441380 0.130088 1 0 1.000000
  0 20.176603 -0.066255 46.077606 1.000000 0.000000 0.000000 0.441380 0.563742 1 0 1.000000
  0 20.176603 -12.570591 4.916611 1.000000 0.000000 0.000000 0.580817 0.130088 1 0 1.000000
wardrobe_02
  0 -1.664344 -24.945456 47.574898 -0.940284 -0.313486 0.132638 0.948960 0.069749 1 0 1.000000
  0 -1.545486 -24.884909 48.560600 -0.574705 -0.776745 0.257647 0.975479 0.063240 1 0 1.000000
  0 -1.664344 -24.466450 48.447678 -0.940284 -0.313486 0.132638 0.972441 0.069749 1 0 1.000000
wardrobe_02
  0 -1.545486 -25.157812 47.656258 -0.574705 -0.776745 0.257647 0.951149 0.063240 1 0 1.000000
  0 -1.545486 -24.884909 48.560600 -0.574705 -0.776745 0.257647 0.975479 0.063240 1 0 1.000000
  0 -1.664344 -24.945456 47.574898 -0.940284 -0.313486 0.132638 0.948960 0.069749 1 0 1.000000
wardrobe_02
  0 -1.545486 -25.157812 47.656258 -0.574705 -0.776745 0.257647 0.951149 0.063240 1 0 1.000000
  0 -1.204024 -25.157812 47.656258 0.574705 -0.776745 0.257647 0.951149 0.053796 1 0 1.000000
  0 -1.545486 -24.884909 48.560600 -0.574705 -0.776745 0.257647 0.975479 0.063240 1 0 1.000000
wardrobe_02
  0 -1.545486 -24.884909 48.560600 -0.574705 -0.776745 0.257647 0.975479 0.063240 1 0 1.000000
  0 -1.204024 -25.157812 47.656258 0.574705 -0.776745 0.257647 0.951149 0.053796 1 0 1.000000
  0 -1.204024 -24.884909 48.560600 0.574705 -0.776745 0.257647 0.975479 0.053796 1 0 1.000000
wardrobe_02
  0 -1.204024 -25.157812 47.656258 0.574705 -0.776745 0.257647 0.951149 0.053796 1 0 1.000000
  0 -1.085166 -24.945456 47.574898 0.940284 -0.313486 0.132638 0.948960 0.047287 1 0 1.000000
  0 -1.204024 -24.884909 48.560600 0.574705 -0.776745 0.257647 0.975479 0.053796 1 0 1.000000
wardrobe_02
  0 -1.204024 -24.884909 48.560600 0.574705 -0.776745 0.257647 0.975479 0.053796 1 0 1.000000
  0 -1.085166 -24.945456 47.574898 0.940284 -0.313486 0.132638 0.948960 0.047287 1 0 1.000000
  0 -1.085166 -24.466450 48.447678 0.940284 -0.313486 0.132638 0.972441 0.047287 1 0 1.000000
wardrobe_02
  0 20.176603 -0.066253 0.000000 1.000000 0.000000 0.000000 0.439252 0.078233 1 0 1.000000
  0 20.176603 -0.066253 4.916611 1.000000 0.000000 0.000000 0.439252 0.124290 1 0 1.000000
  0 20.176603 -12.570591 -0.000001 1.000000 0.000000 0.000000 0.586756 0.078233 1 0 1.000000
wardrobe_02
  0 20.176603 -12.570591 -0.000001 1.000000 0.000000 0.000000 0.586756 0.078233 1 0 1.000000
  0 20.176603 -0.066253 4.916611 1.000000 0.000000 0.000000 0.439252 0.124290 1 0 1.000000
  0 20.176603 -12.570591 4.916611 1.000000 0.000000 0.000000 0.586756 0.124290 1 0 1.000000
wardrobe_02
  0 20.176603 -12.570591 -0.000001 1.000000 0.000000 0.000000 0.586756 0.078233 1 0 1.000000
  0 20.176603 -12.570591 4.916611 1.000000 0.000000 0.000000 0.586756 0.124290 1 0 1.000000
  0 20.176605 -23.420389 -0.000001 1.000000 0.000000 0.000000 0.714742 0.078233 1 0 1.000000
wardrobe_02
  0 20.176605 -23.420389 -0.000001 1.000000 0.000000 0.000000 0.714742 0.078233 1 0 1.000000
  0 20.176603 -12.570591 4.916611 1.000000 0.000000 0.000000 0.586756 0.124290 1 0 1.000000
  0 20.176605 -23.420389 4.916610 1.000000 0.000000 0.000000 0.714742 0.124290 1 0 1.000000
wardrobe_02
  0 -20.254166 -0.066257 46.077606 0.000000 1.000000 0.000000 0.446740 0.564633 1 0 1.000000
  0 -0.038777 -0.066258 87.238564 0.000000 1.000000 0.000000 0.571620 0.994394 1 0 1.000000
  0 -0.038780 -0.066256 46.077606 0.000000 1.000000 0.000000 0.571620 0.564633 1 0 1.000000
wardrobe_02
  0 -20.254166 -0.066259 87.238564 0.000000 1.000000 0.000000 0.446740 0.994394 1 0 1.000000
  0 -0.038777 -0.066258 87.238564 0.000000 1.000000 0.000000 0.571620 0.994394 1 0 1.000000
  0 -20.254166 -0.066257 46.077606 0.000000 1.000000 0.000000 0.446740 0.564633 1 0 1.000000
wardrobe_02
  0 -20.254166 -0.066257 46.077606 0.000000 1.000000 0.000000 0.446740 0.564633 1 0 1.000000
  0 -0.038780 -0.066256 46.077606 0.000000 1.000000 0.000000 0.571620 0.564633 1 0 1.000000
  0 -20.254166 -0.066255 4.916611 0.000000 1.000000 0.000000 0.446740 0.134872 1 0 1.000000
wardrobe_02
  0 -20.254166 -0.066255 4.916611 0.000000 1.000000 0.000000 0.446740 0.134872 1 0 1.000000
  0 -0.038780 -0.066256 46.077606 0.000000 1.000000 0.000000 0.571620 0.564633 1 0 1.000000
  0 -0.038780 -0.066254 4.916611 0.000000 1.000000 0.000000 0.571620 0.134872 1 0 1.000000
wardrobe_02
  0 -0.038780 -0.066256 46.077606 0.000000 1.000000 0.000000 0.571620 0.564633 1 0 1.000000
  0 20.176603 -0.066253 4.916611 0.000000 1.000000 0.000000 0.696501 0.134872 1 0 1.000000
  0 -0.038780 -0.066254 4.916611 0.000000 1.000000 0.000000 0.571620 0.134872 1 0 1.000000
wardrobe_02
  0 20.176603 -0.066255 46.077606 0.000000 1.000000 0.000000 0.696501 0.564633 1 0 1.000000
  0 20.176603 -0.066253 4.916611 0.000000 1.000000 0.000000 0.696501 0.134872 1 0 1.000000
  0 -0.038780 -0.066256 46.077606 0.000000 1.000000 0.000000 0.571620 0.564633 1 0 1.000000
wardrobe_02
  0 -0.038777 -0.066258 87.238564 0.000000 1.000000 0.000000 0.571620 0.994394 1 0 1.000000
  0 20.176603 -0.066255 46.077606 0.000000 1.000000 0.000000 0.696501 0.564633 1 0 1.000000
  0 -0.038780 -0.066256 46.077606 0.000000 1.000000 0.000000 0.571620 0.564633 1 0 1.000000
wardrobe_02
  0 20.176603 -0.066257 87.238564 0.000000 1.000000 0.000000 0.696501 0.994394 1 0 1.000000
  0 20.176603 -0.066255 46.077606 0.000000 1.000000 0.000000 0.696501 0.564633 1 0 1.000000
  0 -0.038777 -0.066258 87.238564 0.000000 1.000000 0.000000 0.571620 0.994394 1 0 1.000000
wardrobe_02
  0 0.944556 -24.945456 47.574898 -0.940284 -0.313486 0.132638 0.948960 0.069749 1 0 1.000000
  0 1.063413 -24.884909 48.560600 -0.574705 -0.776745 0.257647 0.975479 0.063240 1 0 1.000000
  0 0.944556 -24.466450 48.447678 -0.940284 -0.313486 0.132638 0.972441 0.069749 1 0 1.000000
wardrobe_02
  0 1.063413 -25.157812 47.656258 -0.574705 -0.776745 0.257647 0.951149 0.063240 1 0 1.000000
  0 1.063413 -24.884909 48.560600 -0.574705 -0.776745 0.257647 0.975479 0.063240 1 0 1.000000
  0 0.944556 -24.945456 47.574898 -0.940284 -0.313486 0.132638 0.948960 0.069749 1 0 1.000000
wardrobe_02
  0 1.063413 -25.157812 47.656258 -0.574705 -0.776745 0.257647 0.951149 0.063240 1 0 1.000000
  0 1.404876 -25.157812 47.656258 0.574705 -0.776745 0.257647 0.951149 0.053796 1 0 1.000000
  0 1.063413 -24.884909 48.560600 -0.574705 -0.776745 0.257647 0.975479 0.063240 1 0 1.000000
wardrobe_02
  0 1.063413 -24.884909 48.560600 -0.574705 -0.776745 0.257647 0.975479 0.063240 1 0 1.000000
  0 1.404876 -25.157812 47.656258 0.574705 -0.776745 0.257647 0.951149 0.053796 1 0 1.000000
  0 1.404876 -24.884909 48.560600 0.574705 -0.776745 0.257647 0.975479 0.053796 1 0 1.000000
wardrobe_02
  0 1.404876 -25.157812 47.656258 0.574705 -0.776745 0.257647 0.951149 0.053796 1 0 1.000000
  0 1.523733 -24.945456 47.574898 0.940284 -0.313486 0.132638 0.948960 0.047287 1 0 1.000000
  0 1.404876 -24.884909 48.560600 0.574705 -0.776745 0.257647 0.975479 0.053796 1 0 1.000000
wardrobe_02
  0 1.404876 -24.884909 48.560600 0.574705 -0.776745 0.257647 0.975479 0.053796 1 0 1.000000
  0 1.523733 -24.945456 47.574898 0.940284 -0.313486 0.132638 0.948960 0.047287 1 0 1.000000
  0 1.523733 -24.466450 48.447678 0.940284 -0.313486 0.132638 0.972441 0.047287 1 0 1.000000
wardrobe_02
  0 17.150167 -24.071630 43.488152 0.853895 -0.520445 0.000000 0.753965 0.589879 1 0 1.000000
  0 16.941074 -24.414688 43.232880 0.853895 -0.520445 0.000000 0.760375 0.593713 1 0 1.000000
  0 17.150169 -24.071629 7.506097 0.853895 -0.520445 0.000000 0.753965 0.971407 1 0 1.000000
wardrobe_02
  0 17.150169 -24.071629 7.506097 0.853895 -0.520445 0.000000 0.753965 0.971407 1 0 1.000000
  0 16.941074 -24.414688 43.232880 0.853895 -0.520445 0.000000 0.760375 0.593713 1 0 1.000000
  0 16.941076 -24.414688 7.761376 0.853895 -0.520445 0.000000 0.760375 0.967425 1 0 1.000000
wardrobe_02
  0 2.987655 -24.071629 43.488152 0.000000 -0.596980 0.802256 0.955243 0.589879 1 0 1.000000
  0 3.196750 -24.414688 43.232864 0.000000 -0.596980 0.802256 0.949967 0.593713 1 0 1.000000
  0 17.150167 -24.071630 43.488152 0.000000 -0.596980 0.802256 0.753965 0.589879 1 0 1.000000
wardrobe_02
  0 17.150167 -24.071630 43.488152 0.000000 -0.596980 0.802256 0.753965 0.589879 1 0 1.000000
  0 3.196750 -24.414688 43.232864 0.000000 -0.596980 0.802256 0.949967 0.593713 1 0 1.000000
  0 16.941074 -24.414688 43.232880 0.000000 -0.596980 0.802256 0.760375 0.593713 1 0 1.000000
wardrobe_02
  0 2.987659 -24.071629 7.506093 -0.853893 -0.520448 0.000000 0.955243 0.971407 1 0 1.000000
  0 3.196754 -24.414688 7.761365 -0.853893 -0.520448 0.000000 0.949967 0.967425 1 0 1.000000
  0 2.987655 -24.071629 43.488152 -0.853893 -0.520448 0.000000 0.955243 0.589879 1 0 1.000000
wardrobe_02
  0 2.987655 -24.071629 43.488152 -0.853893 -0.520448 0.000000 0.955243 0.589879 1 0 1.000000
  0 3.196754 -24.414688 7.761365 -0.853893 -0.520448 0.000000 0.949967 0.967425 1 0 1.000000
  0 3.196750 -24.414688 43.232864 -0.853893 -0.520448 0.000000 0.949967 0.593713 1 0 1.000000
wardrobe_02
  0 17.150169 -24.071629 7.506097 0.000000 -0.596974 -0.802261 0.753965 0.971407 1 0 1.000000
  0 16.941076 -24.414688 7.761376 0.000000 -0.596974 -0.802261 0.760375 0.967425 1 0 1.000000
  0 2.987659 -24.071629 7.506093 0.000000 -0.596974 -0.802261 0.955243 0.971407 1 0 1.000000
wardrobe_02
  0 2.987659 -24.071629 7.506093 0.000000 -0.596974 -0.802261 0.955243 0.971407 1 0 1.000000
  0 16.941076 -24.414688 7.761376 0.000000 -0.596974 -0.802261 0.760375 0.967425 1 0 1.000000
  0 3.196754 -24.414688 7.761365 0.000000 -0.596974 -0.802261 0.949967 0.967425 1 0 1.000000
wardrobe_02
  0 18.085093 -24.071630 6.649331 0.000000 -1.000000 0.000002 0.746183 0.977847 1 0 1.000000
  0 17.150169 -24.071629 7.506097 0.000000 -1.000000 0.000002 0.753965 0.971407 1 0 1.000000
  0 2.052733 -24.071630 6.649331 0.000000 -1.000000 0.000002 0.963483 0.977847 1 0 1.000000
wardrobe_02
  0 2.052733 -24.071630 6.649331 0.000000 -1.000000 0.000002 0.963483 0.977847 1 0 1.000000
  0 17.150169 -24.071629 7.506097 0.000000 -1.000000 0.000002 0.753965 0.971407 1 0 1.000000
  0 2.987659 -24.071629 7.506093 0.000000 -1.000000 0.000002 0.955243 0.971407 1 0 1.000000
wardrobe_02
  0 2.052733 -24.071630 6.649331 0.000000 -1.000000 0.000002 0.963483 0.977847 1 0 1.000000
  0 2.987659 -24.071629 7.506093 0.000000 -1.000000 0.000002 0.955243 0.971407 1 0 1.000000
  0 2.052737 -24.071632 44.344925 0.000005 -1.000000 0.000000 0.963483 0.583141 1 0 1.000000
wardrobe_02
  0 2.052737 -24.071632 44.344925 0.000005 -1.000000 0.000000 0.963483 0.583141 1 0 1.000000
  0 2.987659 -24.071629 7.506093 0.000000 -1.000000 0.000002 0.955243 0.971407 1 0 1.000000
  0 2.987655 -24.071629 43.488152 0.000005 -1.000000 0.000000 0.955243 0.589879 1 0 1.000000
wardrobe_02
  0 2.052737 -24.071632 44.344925 0.000005 -1.000000 0.000000 0.963483 0.583141 1 0 1.000000
  0 2.987655 -24.071629 43.488152 0.000005 -1.000000 0.000000 0.955243 0.589879 1 0 1.000000
  0 18.085091 -24.071632 44.344925 0.000000 -1.000000 -0.000003 0.746183 0.583141 1 0 1.000000
wardrobe_02
  0 18.085091 -24.071632 44.344925 0.000000 -1.000000 -0.000003 0.746183 0.583141 1 0 1.000000
  0 2.987655 -24.071629 43.488152 0.000005 -1.000000 0.000000 0.955243 0.589879 1 0 1.000000
  0 17.150167 -24.071630 43.488152 0.000000 -1.000000 -0.000003 0.753965 0.589879 1 0 1.000000
wardrobe_02
  0 18.085091 -24.071632 44.344925 0.000000 -1.000000 -0.000003 0.746183 0.583141 1 0 1.000000
  0 17.150167 -24.071630 43.488152 0.000000 -1.000000 -0.000003 0.753965 0.589879 1 0 1.000000
  0 18.085093 -24.071630 6.649331 0.000000 -1.000000 0.000002 0.746183 0.977847 1 0 1.000000
wardrobe_02
  0 18.085093 -24.071630 6.649331 0.000000 -1.000000 0.000002 0.746183 0.977847 1 0 1.000000
  0 17.150167 -24.071630 43.488152 0.000000 -1.000000 -0.000003 0.753965 0.589879 1 0 1.000000
  0 17.150169 -24.071629 7.506097 0.000000 -1.000000 0.000002 0.753965 0.971407 1 0 1.000000
wardrobe_02
  0 1.523733 -24.945456 44.373371 0.940283 -0.313489 -0.132638 0.862828 0.047287 1 0 1.000000
  0 1.404876 -24.884909 43.387669 0.574704 -0.776746 -0.257645 0.836309 0.053796 1 0 1.000000
  0 1.523733 -24.466450 43.500591 0.940283 -0.313489 -0.132638 0.839347 0.047287 1 0 1.000000
wardrobe_02
  0 1.404876 -25.157812 44.292015 0.574704 -0.776746 -0.257645 0.860639 0.053796 1 0 1.000000
  0 1.404876 -24.884909 43.387669 0.574704 -0.776746 -0.257645 0.836309 0.053796 1 0 1.000000
  0 1.523733 -24.945456 44.373371 0.940283 -0.313489 -0.132638 0.862828 0.047287 1 0 1.000000
wardrobe_02
  0 1.404876 -25.157812 44.292015 0.574704 -0.776746 -0.257645 0.860639 0.053796 1 0 1.000000
  0 1.063413 -25.157812 44.292015 -0.574704 -0.776746 -0.257645 0.860639 0.063240 1 0 1.000000
  0 1.404876 -24.884909 43.387669 0.574704 -0.776746 -0.257645 0.836309 0.053796 1 0 1.000000
wardrobe_02
  0 1.404876 -24.884909 43.387669 0.574704 -0.776746 -0.257645 0.836309 0.053796 1 0 1.000000
  0 1.063413 -25.157812 44.292015 -0.574704 -0.776746 -0.257645 0.860639 0.063240 1 0 1.000000
  0 1.063413 -24.884909 43.387669 -0.574704 -0.776746 -0.257645 0.836309 0.063240 1 0 1.000000
wardrobe_02
  0 1.063413 -25.157812 44.292015 -0.574704 -0.776746 -0.257645 0.860639 0.063240 1 0 1.000000
  0 0.944556 -24.945456 44.373371 -0.940283 -0.313489 -0.132638 0.862828 0.069749 1 0 1.000000
  0 1.063413 -24.884909 43.387669 -0.574704 -0.776746 -0.257645 0.836309 0.063240 1 0 1.000000
wardrobe_02
  0 1.063413 -24.884909 43.387669 -0.574704 -0.776746 -0.257645 0.836309 0.063240 1 0 1.000000
  0 0.944556 -24.945456 44.373371 -0.940283 -0.313489 -0.132638 0.862828 0.069749 1 0 1.000000
  0 0.944556 -24.466450 43.500591 -0.940283 -0.313489 -0.132638 0.839347 0.069749 1 0 1.000000
wardrobe_02
  0 18.334629 -24.460360 44.651451 -0.841530 -0.540210 0.000000 0.739740 0.578767 1 0 1.000000
  0 18.085091 -24.071632 44.344925 -0.841530 -0.540210 0.000000 0.746183 0.583141 1 0 1.000000
  0 18.334631 -24.460358 6.342805 -0.841530 -0.540210 0.000000 0.739740 0.982370 1 0 1.000000
wardrobe_02
  0 18.334631 -24.460358 6.342805 -0.841530 -0.540210 0.000000 0.739740 0.982370 1 0 1.000000
  0 18.085091 -24.071632 44.344925 -0.841530 -0.540210 0.000000 0.746183 0.583141 1 0 1.000000
  0 18.085093 -24.071630 6.649331 -0.841530 -0.540210 0.000000 0.746183 0.977847 1 0 1.000000
wardrobe_02
  0 1.803199 -24.460360 44.651451 0.000000 -0.619188 -0.785242 0.969320 0.578767 1 0 1.000000
  0 2.052737 -24.071632 44.344925 0.000000 -0.619188 -0.785242 0.963483 0.583141 1 0 1.000000
  0 18.334629 -24.460360 44.651451 0.000000 -0.619188 -0.785242 0.739740 0.578767 1 0 1.000000
wardrobe_02
  0 18.334629 -24.460360 44.651451 0.000000 -0.619188 -0.785242 0.739740 0.578767 1 0 1.000000
  0 2.052737 -24.071632 44.344925 0.000000 -0.619188 -0.785242 0.963483 0.583141 1 0 1.000000
  0 18.085091 -24.071632 44.344925 0.000000 -0.619188 -0.785242 0.746183 0.583141 1 0 1.000000
wardrobe_02
  0 1.803195 -24.460358 6.342805 0.841530 -0.540210 0.000000 0.969320 0.982370 1 0 1.000000
  0 2.052733 -24.071630 6.649331 0.841530 -0.540210 0.000000 0.963483 0.977847 1 0 1.000000
  0 1.803199 -24.460360 44.651451 0.841530 -0.540210 0.000000 0.969320 0.578767 1 0 1.000000
wardrobe_02
  0 1.803199 -24.460360 44.651451 0.841530 -0.540210 0.000000 0.969320 0.578767 1 0 1.000000
  0 2.052733 -24.071630 6.649331 0.841530 -0.540210 0.000000 0.963483 0.977847 1 0 1.000000
  0 2.052737 -24.071632 44.344925 0.841530 -0.540210 0.000000 0.963483 0.583141 1 0 1.000000
wardrobe_02
  0 18.334631 -24.460358 6.342805 0.000000 -0.619191 0.785240 0.739740 0.982370 1 0 1.000000
  0 18.085093 -24.071630 6.649331 0.000000 -0.619191 0.785240 0.746183 0.977847 1 0 1.000000
  0 1.803195 -24.460358 6.342805 0.000000 -0.619191 0.785240 0.969320 0.982370 1 0 1.000000
wardrobe_02
  0 1.803195 -24.460358 6.342805 0.000000 -0.619191 0.785240 0.969320 0.982370 1 0 1.000000
  0 18.085093 -24.071630 6.649331 0.000000 -0.619191 0.785240 0.746183 0.977847 1 0 1.000000
  0 2.052733 -24.071630 6.649331 0.000000 -0.619191 0.785240 0.963483 0.977847 1 0 1.000000
wardrobe_02
  0 16.941076 -24.414688 7.761376 0.000000 -1.000000 0.000000 0.760375 0.967425 1 0 1.000000
  0 16.941074 -24.414688 43.232880 0.000000 -1.000000 0.000000 0.760375 0.593713 1 0 1.000000
  0 3.196754 -24.414688 7.761365 0.000000 -1.000000 0.000000 0.949967 0.967425 1 0 1.000000
wardrobe_02
  0 3.196754 -24.414688 7.761365 0.000000 -1.000000 0.000000 0.949967 0.967425 1 0 1.000000
  0 16.941074 -24.414688 43.232880 0.000000 -1.000000 0.000000 0.760375 0.593713 1 0 1.000000
  0 3.196750 -24.414688 43.232864 0.000000 -1.000000 0.000000 0.949967 0.593713 1 0 1.000000
wardrobe_02
  0 17.150167 -24.071632 84.649109 0.853895 -0.520445 0.000000 0.753965 0.156241 1 0 1.000000
  0 16.941074 -24.414690 84.393837 0.853895 -0.520445 0.000000 0.760375 0.160060 1 0 1.000000
  0 17.150169 -24.071630 48.667053 0.853895 -0.520445 0.000000 0.753965 0.537916 1 0 1.000000
wardrobe_02
  0 17.150169 -24.071630 48.667053 0.853895 -0.520445 0.000000 0.753965 0.537916 1 0 1.000000
  0 16.941074 -24.414690 84.393837 0.853895 -0.520445 0.000000 0.760375 0.160060 1 0 1.000000
  0 16.941076 -24.414690 48.922333 0.853895 -0.520445 0.000000 0.760375 0.533771 1 0 1.000000
wardrobe_02
  0 2.987655 -24.071630 84.649109 0.000000 -0.596980 0.802256 0.955243 0.156241 1 0 1.000000
  0 3.196750 -24.414690 84.393822 0.000000 -0.596980 0.802256 0.949967 0.160060 1 0 1.000000
  0 17.150167 -24.071632 84.649109 0.000000 -0.596980 0.802256 0.753965 0.156241 1 0 1.000000
wardrobe_02
  0 17.150167 -24.071632 84.649109 0.000000 -0.596980 0.802256 0.753965 0.156241 1 0 1.000000
  0 3.196750 -24.414690 84.393822 0.000000 -0.596980 0.802256 0.949967 0.160060 1 0 1.000000
  0 16.941074 -24.414690 84.393837 0.000000 -0.596980 0.802256 0.760375 0.160060 1 0 1.000000
wardrobe_02
  0 2.987659 -24.071630 48.667049 -0.853893 -0.520449 0.000000 0.955243 0.537916 1 0 1.000000
  0 3.196754 -24.414690 48.922321 -0.853893 -0.520449 0.000000 0.949967 0.533771 1 0 1.000000
  0 2.987655 -24.071630 84.649109 -0.853893 -0.520449 0.000000 0.955243 0.156241 1 0 1.000000
wardrobe_02
  0 2.987655 -24.071630 84.649109 -0.853893 -0.520449 0.000000 0.955243 0.156241 1 0 1.000000
  0 3.196754 -24.414690 48.922321 -0.853893 -0.520449 0.000000 0.949967 0.533771 1 0 1.000000
  0 3.196750 -24.414690 84.393822 -0.853893 -0.520449 0.000000 0.949967 0.160060 1 0 1.000000
wardrobe_02
  0 17.150169 -24.071630 48.667053 0.000000 -0.596966 -0.802267 0.753965 0.537916 1 0 1.000000
  0 16.941076 -24.414690 48.922333 0.000000 -0.596966 -0.802267 0.760375 0.533771 1 0 1.000000
  0 2.987659 -24.071630 48.667049 0.000000 -0.596966 -0.802267 0.955243 0.537916 1 0 1.000000
wardrobe_02
  0 2.987659 -24.071630 48.667049 0.000000 -0.596966 -0.802267 0.955243 0.537916 1 0 1.000000
  0 16.941076 -24.414690 48.922333 0.000000 -0.596966 -0.802267 0.760375 0.533771 1 0 1.000000
  0 3.196754 -24.414690 48.922321 0.000000 -0.596966 -0.802267 0.949967 0.533771 1 0 1.000000
wardrobe_02
  0 18.334629 -24.460361 85.812408 -0.841530 -0.540210 0.000000 0.739740 0.145114 1 0 1.000000
  0 18.085091 -24.071634 85.505882 -0.841530 -0.540210 0.000000 0.746183 0.149472 1 0 1.000000
  0 18.334631 -24.460360 47.503761 -0.841530 -0.540210 0.000000 0.739740 0.548717 1 0 1.000000
wardrobe_02
  0 18.334631 -24.460360 47.503761 -0.841530 -0.540210 0.000000 0.739740 0.548717 1 0 1.000000
  0 18.085091 -24.071634 85.505882 -0.841530 -0.540210 0.000000 0.746183 0.149472 1 0 1.000000
  0 18.085093 -24.071632 47.810287 -0.841530 -0.540210 0.000000 0.746183 0.544032 1 0 1.000000
wardrobe_02
  0 1.803199 -24.460361 85.812408 0.000000 -0.619193 -0.785239 0.969320 0.145114 1 0 1.000000
  0 2.052737 -24.071634 85.505882 0.000000 -0.619193 -0.785239 0.963483 0.149472 1 0 1.000000
  0 18.334629 -24.460361 85.812408 0.000000 -0.619193 -0.785239 0.739740 0.145114 1 0 1.000000
wardrobe_02
  0 18.334629 -24.460361 85.812408 0.000000 -0.619193 -0.785239 0.739740 0.145114 1 0 1.000000
  0 2.052737 -24.071634 85.505882 0.000000 -0.619193 -0.785239 0.963483 0.149472 1 0 1.000000
  0 18.085091 -24.071634 85.505882 0.000000 -0.619193 -0.785239 0.746183 0.149472 1 0 1.000000
wardrobe_02
  0 1.803195 -24.460360 47.503761 0.841530 -0.540210 0.000000 0.969320 0.548717 1 0 1.000000
  0 2.052733 -24.071632 47.810287 0.841530 -0.540210 0.000000 0.963483 0.544032 1 0 1.000000
  0 1.803199 -24.460361 85.812408 0.841530 -0.540210 0.000000 0.969320 0.145114 1 0 1.000000
wardrobe_02
  0 1.803199 -24.460361 85.812408 0.841530 -0.540210 0.000000 0.969320 0.145114 1 0 1.000000
  0 2.052733 -24.071632 47.810287 0.841530 -0.540210 0.000000 0.963483 0.544032 1 0 1.000000
  0 2.052737 -24.071634 85.505882 0.841530 -0.540210 0.000000 0.963483 0.149472 1 0 1.000000
wardrobe_02
  0 18.334631 -24.460360 47.503761 0.000000 -0.619193 0.785239 0.739740 0.548717 1 0 1.000000
  0 18.085093 -24.071632 47.810287 0.000000 -0.619193 0.785239 0.746183 0.544032 1 0 1.000000
  0 1.803195 -24.460360 47.503761 0.000000 -0.619193 0.785239 0.969320 0.548717 1 0 1.000000
wardrobe_02
  0 1.803195 -24.460360 47.503761 0.000000 -0.619193 0.785239 0.969320 0.548717 1 0 1.000000
  0 18.085093 -24.071632 47.810287 0.000000 -0.619193 0.785239 0.746183 0.544032 1 0 1.000000
  0 2.052733 -24.071632 47.810287 0.000000 -0.619193 0.785239 0.963483 0.544032 1 0 1.000000
wardrobe_02
  0 16.941076 -24.414690 48.922333 0.000000 -1.000000 0.000000 0.760375 0.533771 1 0 1.000000
  0 16.941074 -24.414690 84.393837 0.000000 -1.000000 0.000000 0.760375 0.160060 1 0 1.000000
  0 3.196754 -24.414690 48.922321 0.000000 -1.000000 0.000000 0.949967 0.533771 1 0 1.000000
wardrobe_02
  0 3.196754 -24.414690 48.922321 0.000000 -1.000000 0.000000 0.949967 0.533771 1 0 1.000000
  0 16.941074 -24.414690 84.393837 0.000000 -1.000000 0.000000 0.760375 0.160060 1 0 1.000000
  0 3.196750 -24.414690 84.393822 0.000000 -1.000000 0.000000 0.949967 0.160060 1 0 1.000000
wardrobe_02
  0 -17.227726 -24.071630 43.488152 -0.853895 -0.520445 0.000000 0.753965 0.537605 1 0 1.000000
  0 -17.227728 -24.071630 7.506097 -0.853895 -0.520445 0.000000 0.753965 0.156077 1 0 1.000000
  0 -17.018633 -24.414688 43.232880 -0.853895 -0.520445 0.000000 0.760375 0.533771 1 0 1.000000
wardrobe_02
  0 -17.018633 -24.414688 43.232880 -0.853895 -0.520445 0.000000 0.760375 0.533771 1 0 1.000000
  0 -17.227728 -24.071630 7.506097 -0.853895 -0.520445 0.000000 0.753965 0.156077 1 0 1.000000
  0 -17.018635 -24.414690 7.761376 -0.853895 -0.520445 0.000000 0.760375 0.160059 1 0 1.000000
wardrobe_02
  0 -3.065215 -24.071629 43.488152 0.000000 -0.596980 0.802256 0.955243 0.537605 1 0 1.000000
  0 -17.227726 -24.071630 43.488152 0.000000 -0.596980 0.802256 0.753965 0.537605 1 0 1.000000
  0 -3.274310 -24.414688 43.232864 0.000000 -0.596980 0.802256 0.949967 0.533771 1 0 1.000000
wardrobe_02
  0 -3.274310 -24.414688 43.232864 0.000000 -0.596980 0.802256 0.949967 0.533771 1 0 1.000000
  0 -17.227726 -24.071630 43.488152 0.000000 -0.596980 0.802256 0.753965 0.537605 1 0 1.000000
  0 -17.018633 -24.414688 43.232880 0.000000 -0.596980 0.802256 0.760375 0.533771 1 0 1.000000
wardrobe_02
  0 -3.065219 -24.071629 7.506093 0.853893 -0.520449 0.000000 0.955243 0.156077 1 0 1.000000
  0 -3.065215 -24.071629 43.488152 0.853893 -0.520449 0.000000 0.955243 0.537605 1 0 1.000000
  0 -3.274314 -24.414688 7.761365 0.853893 -0.520449 0.000000 0.949967 0.160059 1 0 1.000000
wardrobe_02
  0 -3.274314 -24.414688 7.761365 0.853893 -0.520449 0.000000 0.949967 0.160059 1 0 1.000000
  0 -3.065215 -24.071629 43.488152 0.853893 -0.520449 0.000000 0.955243 0.537605 1 0 1.000000
  0 -3.274310 -24.414688 43.232864 0.853893 -0.520449 0.000000 0.949967 0.533771 1 0 1.000000
wardrobe_02
  0 -17.227728 -24.071630 7.506097 0.000000 -0.596974 -0.802261 0.753965 0.156077 1 0 1.000000
  0 -3.065219 -24.071629 7.506093 0.000000 -0.596974 -0.802261 0.955243 0.156077 1 0 1.000000
  0 -17.018635 -24.414690 7.761376 0.000000 -0.596974 -0.802261 0.760375 0.160059 1 0 1.000000
wardrobe_02
  0 -17.018635 -24.414690 7.761376 0.000000 -0.596974 -0.802261 0.760375 0.160059 1 0 1.000000
  0 -3.065219 -24.071629 7.506093 0.000000 -0.596974 -0.802261 0.955243 0.156077 1 0 1.000000
  0 -3.274314 -24.414688 7.761365 0.000000 -0.596974 -0.802261 0.949967 0.160059 1 0 1.000000
wardrobe_02
  0 -18.162651 -24.071632 6.649331 0.000000 -1.000000 0.000002 0.746183 0.149637 1 0 1.000000
  0 -2.130294 -24.071630 6.649331 0.000000 -1.000000 0.000002 0.963483 0.149637 1 0 1.000000
  0 -17.227728 -24.071630 7.506097 0.000000 -1.000000 0.000002 0.753965 0.156077 1 0 1.000000
wardrobe_02
  0 -17.227728 -24.071630 7.506097 0.000000 -1.000000 0.000002 0.753965 0.156077 1 0 1.000000
  0 -2.130294 -24.071630 6.649331 0.000000 -1.000000 0.000002 0.963483 0.149637 1 0 1.000000
  0 -3.065219 -24.071629 7.506093 0.000000 -1.000000 0.000002 0.955243 0.156077 1 0 1.000000
wardrobe_02
  0 -2.130294 -24.071630 6.649331 0.000000 -1.000000 0.000002 0.963483 0.149637 1 0 1.000000
  0 -2.130298 -24.071632 44.344925 -0.000005 -1.000000 0.000000 0.963483 0.544343 1 0 1.000000
  0 -3.065219 -24.071629 7.506093 0.000000 -1.000000 0.000002 0.955243 0.156077 1 0 1.000000
wardrobe_02
  0 -3.065219 -24.071629 7.506093 0.000000 -1.000000 0.000002 0.955243 0.156077 1 0 1.000000
  0 -2.130298 -24.071632 44.344925 -0.000005 -1.000000 0.000000 0.963483 0.544343 1 0 1.000000
  0 -3.065215 -24.071629 43.488152 -0.000005 -1.000000 0.000000 0.955243 0.537605 1 0 1.000000
wardrobe_02
  0 -2.130298 -24.071632 44.344925 -0.000005 -1.000000 0.000000 0.963483 0.544343 1 0 1.000000
  0 -18.162649 -24.071632 44.344925 0.000000 -1.000000 -0.000003 0.746183 0.544343 1 0 1.000000
  0 -3.065215 -24.071629 43.488152 -0.000005 -1.000000 0.000000 0.955243 0.537605 1 0 1.000000
wardrobe_02
  0 -3.065215 -24.071629 43.488152 -0.000005 -1.000000 0.000000 0.955243 0.537605 1 0 1.000000
  0 -18.162649 -24.071632 44.344925 0.000000 -1.000000 -0.000003 0.746183 0.544343 1 0 1.000000
  0 -17.227726 -24.071630 43.488152 0.000000 -1.000000 -0.000003 0.753965 0.537605 1 0 1.000000
wardrobe_02
  0 -18.162649 -24.071632 44.344925 0.000000 -1.000000 -0.000003 0.746183 0.544343 1 0 1.000000
  0 -18.162651 -24.071632 6.649331 0.000000 -1.000000 0.000002 0.746183 0.149637 1 0 1.000000
  0 -17.227726 -24.071630 43.488152 0.000000 -1.000000 -0.000003 0.753965 0.537605 1 0 1.000000
wardrobe_02
  0 -17.227726 -24.071630 43.488152 0.000000 -1.000000 -0.000003 0.753965 0.537605 1 0 1.000000
  0 -18.162651 -24.071632 6.649331 0.000000 -1.000000 0.000002 0.746183 0.149637 1 0 1.000000
  0 -17.227728 -24.071630 7.506097 0.000000 -1.000000 0.000002 0.753965 0.156077 1 0 1.000000
wardrobe_02
  0 -18.412188 -24.460360 44.651451 0.841531 -0.540209 0.000000 0.739740 0.548717 1 0 1.000000
  0 -18.412189 -24.460360 6.342805 0.841531 -0.540209 0.000000 0.739740 0.145114 1 0 1.000000
  0 -18.162649 -24.071632 44.344925 0.841531 -0.540209 0.000000 0.746183 0.544343 1 0 1.000000
wardrobe_02
  0 -18.162649 -24.071632 44.344925 0.841531 -0.540209 0.000000 0.746183 0.544343 1 0 1.000000
  0 -18.412189 -24.460360 6.342805 0.841531 -0.540209 0.000000 0.739740 0.145114 1 0 1.000000
  0 -18.162651 -24.071632 6.649331 0.841531 -0.540209 0.000000 0.746183 0.149637 1 0 1.000000
wardrobe_02
  0 -1.880759 -24.460360 44.651451 0.000000 -0.619188 -0.785243 0.969320 0.548717 1 0 1.000000
  0 -18.412188 -24.460360 44.651451 0.000000 -0.619188 -0.785243 0.739740 0.548717 1 0 1.000000
  0 -2.130298 -24.071632 44.344925 0.000000 -0.619188 -0.785243 0.963483 0.544343 1 0 1.000000
wardrobe_02
  0 -2.130298 -24.071632 44.344925 0.000000 -0.619188 -0.785243 0.963483 0.544343 1 0 1.000000
  0 -18.412188 -24.460360 44.651451 0.000000 -0.619188 -0.785243 0.739740 0.548717 1 0 1.000000
  0 -18.162649 -24.071632 44.344925 0.000000 -0.619188 -0.785243 0.746183 0.544343 1 0 1.000000
wardrobe_02
  0 -1.880755 -24.460358 6.342805 -0.841531 -0.540209 0.000000 0.969320 0.145114 1 0 1.000000
  0 -1.880759 -24.460360 44.651451 -0.841531 -0.540209 0.000000 0.969320 0.548717 1 0 1.000000
  0 -2.130294 -24.071630 6.649331 -0.841531 -0.540209 0.000000 0.963483 0.149637 1 0 1.000000
wardrobe_02
  0 -2.130294 -24.071630 6.649331 -0.841531 -0.540209 0.000000 0.963483 0.149637 1 0 1.000000
  0 -1.880759 -24.460360 44.651451 -0.841531 -0.540209 0.000000 0.969320 0.548717 1 0 1.000000
  0 -2.130298 -24.071632 44.344925 -0.841531 -0.540209 0.000000 0.963483 0.544343 1 0 1.000000
wardrobe_02
  0 -18.412189 -24.460360 6.342805 0.000000 -0.619191 0.785240 0.739740 0.145114 1 0 1.000000
  0 -1.880755 -24.460358 6.342805 0.000000 -0.619191 0.785240 0.969320 0.145114 1 0 1.000000
  0 -18.162651 -24.071632 6.649331 0.000000 -0.619191 0.785240 0.746183 0.149637 1 0 1.000000
wardrobe_02
  0 -18.162651 -24.071632 6.649331 0.000000 -0.619191 0.785240 0.746183 0.149637 1 0 1.000000
  0 -1.880755 -24.460358 6.342805 0.000000 -0.619191 0.785240 0.969320 0.145114 1 0 1.000000
  0 -2.130294 -24.071630 6.649331 0.000000 -0.619191 0.785240 0.963483 0.149637 1 0 1.000000
wardrobe_02
  0 -17.018635 -24.414690 7.761376 0.000000 -1.000000 0.000000 0.760375 0.160059 1 0 1.000000
  0 -3.274314 -24.414688 7.761365 0.000000 -1.000000 0.000000 0.949967 0.160059 1 0 1.000000
  0 -17.018633 -24.414688 43.232880 0.000000 -1.000000 0.000000 0.760375 0.533771 1 0 1.000000
wardrobe_02
  0 -17.018633 -24.414688 43.232880 0.000000 -1.000000 0.000000 0.760375 0.533771 1 0 1.000000
  0 -3.274314 -24.414688 7.761365 0.000000 -1.000000 0.000000 0.949967 0.160059 1 0 1.000000
  0 -3.274310 -24.414688 43.232864 0.000000 -1.000000 0.000000 0.949967 0.533771 1 0 1.000000
wardrobe_02
  0 -17.227726 -24.071632 84.649109 -0.853895 -0.520445 0.000000 0.753965 0.971243 1 0 1.000000
  0 -17.227728 -24.071632 48.667053 -0.853895 -0.520445 0.000000 0.753965 0.589568 1 0 1.000000
  0 -17.018633 -24.414690 84.393837 -0.853895 -0.520445 0.000000 0.760375 0.967425 1 0 1.000000
wardrobe_02
  0 -17.018633 -24.414690 84.393837 -0.853895 -0.520445 0.000000 0.760375 0.967425 1 0 1.000000
  0 -17.227728 -24.071632 48.667053 -0.853895 -0.520445 0.000000 0.753965 0.589568 1 0 1.000000
  0 -17.018635 -24.414692 48.922333 -0.853895 -0.520445 0.000000 0.760375 0.593713 1 0 1.000000
wardrobe_02
  0 -3.065215 -24.071630 84.649109 0.000000 -0.596975 0.802260 0.955243 0.971243 1 0 1.000000
  0 -17.227726 -24.071632 84.649109 0.000000 -0.596975 0.802260 0.753965 0.971243 1 0 1.000000
  0 -3.274310 -24.414690 84.393822 0.000000 -0.596975 0.802260 0.949967 0.967424 1 0 1.000000
wardrobe_02
  0 -3.274310 -24.414690 84.393822 0.000000 -0.596975 0.802260 0.949967 0.967424 1 0 1.000000
  0 -17.227726 -24.071632 84.649109 0.000000 -0.596975 0.802260 0.753965 0.971243 1 0 1.000000
  0 -17.018633 -24.414690 84.393837 0.000000 -0.596975 0.802260 0.760375 0.967425 1 0 1.000000
wardrobe_02
  0 -3.065219 -24.071630 48.667049 0.853893 -0.520449 0.000000 0.955243 0.589568 1 0 1.000000
  0 -3.065215 -24.071630 84.649109 0.853893 -0.520449 0.000000 0.955243 0.971243 1 0 1.000000
  0 -3.274314 -24.414690 48.922321 0.853893 -0.520449 0.000000 0.949967 0.593713 1 0 1.000000
wardrobe_02
  0 -3.274314 -24.414690 48.922321 0.853893 -0.520449 0.000000 0.949967 0.593713 1 0 1.000000
  0 -3.065215 -24.071630 84.649109 0.853893 -0.520449 0.000000 0.955243 0.971243 1 0 1.000000
  0 -3.274310 -24.414690 84.393822 0.853893 -0.520449 0.000000 0.949967 0.967424 1 0 1.000000
wardrobe_02
  0 -17.227728 -24.071632 48.667053 0.000000 -0.596965 -0.802267 0.753965 0.589568 1 0 1.000000
  0 -3.065219 -24.071630 48.667049 0.000000 -0.596965 -0.802267 0.955243 0.589568 1 0 1.000000
  0 -17.018635 -24.414692 48.922333 0.000000 -0.596965 -0.802267 0.760375 0.593713 1 0 1.000000
wardrobe_02
  0 -17.018635 -24.414692 48.922333 0.000000 -0.596965 -0.802267 0.760375 0.593713 1 0 1.000000
  0 -3.065219 -24.071630 48.667049 0.000000 -0.596965 -0.802267 0.955243 0.589568 1 0 1.000000
  0 -3.274314 -24.414690 48.922321 0.000000 -0.596965 -0.802267 0.949967 0.593713 1 0 1.000000
wardrobe_02
  0 -18.412188 -24.460361 85.812408 0.841531 -0.540209 0.000000 0.739740 0.982370 1 0 1.000000
  0 -18.412189 -24.460361 47.503761 0.841531 -0.540209 0.000000 0.739740 0.578768 1 0 1.000000
  0 -18.162649 -24.071634 85.505882 0.841531 -0.540209 0.000000 0.746183 0.978012 1 0 1.000000
wardrobe_02
  0 -18.162649 -24.071634 85.505882 0.841531 -0.540209 0.000000 0.746183 0.978012 1 0 1.000000
  0 -18.412189 -24.460361 47.503761 0.841531 -0.540209 0.000000 0.739740 0.578768 1 0 1.000000
  0 -18.162651 -24.071634 47.810287 0.841531 -0.540209 0.000000 0.746183 0.583452 1 0 1.000000
wardrobe_02
  0 -1.880759 -24.460361 85.812408 0.000000 -0.619193 -0.785239 0.969320 0.982370 1 0 1.000000
  0 -18.412188 -24.460361 85.812408 0.000000 -0.619193 -0.785239 0.739740 0.982370 1 0 1.000000
  0 -2.130298 -24.071634 85.505882 0.000000 -0.619193 -0.785239 0.963483 0.978012 1 0 1.000000
wardrobe_02
  0 -2.130298 -24.071634 85.505882 0.000000 -0.619193 -0.785239 0.963483 0.978012 1 0 1.000000
  0 -18.412188 -24.460361 85.812408 0.000000 -0.619193 -0.785239 0.739740 0.982370 1 0 1.000000
  0 -18.162649 -24.071634 85.505882 0.000000 -0.619193 -0.785239 0.746183 0.978012 1 0 1.000000
wardrobe_02
  0 -1.880755 -24.460360 47.503761 -0.841531 -0.540209 0.000000 0.969320 0.578768 1 0 1.000000
  0 -1.880759 -24.460361 85.812408 -0.841531 -0.540209 0.000000 0.969320 0.982370 1 0 1.000000
  0 -2.130294 -24.071632 47.810287 -0.841531 -0.540209 0.000000 0.963483 0.583452 1 0 1.000000
wardrobe_02
  0 -2.130294 -24.071632 47.810287 -0.841531 -0.540209 0.000000 0.963483 0.583452 1 0 1.000000
  0 -1.880759 -24.460361 85.812408 -0.841531 -0.540209 0.000000 0.969320 0.982370 1 0 1.000000
  0 -2.130298 -24.071634 85.505882 -0.841531 -0.540209 0.000000 0.963483 0.978012 1 0 1.000000
wardrobe_02
  0 0.944556 -24.466450 48.447678 -0.936586 -0.347592 0.044559 0.972441 0.069749 1 0 1.000000
  0 1.063413 -24.884909 48.560600 -0.570633 -0.799195 0.188855 0.975479 0.063240 1 0 1.000000
  0 0.944556 -24.466450 49.326611 -0.936586 -0.347592 0.044559 0.996087 0.069749 1 0 1.000000
wardrobe_02
  0 0.944556 -24.466450 49.326611 -0.936586 -0.347592 0.044559 0.996087 0.069749 1 0 1.000000
  0 1.063413 -24.884909 48.560600 -0.570633 -0.799195 0.188855 0.975479 0.063240 1 0 1.000000
  0 1.063413 -24.674038 49.326611 -0.570633 -0.799195 0.188855 0.996087 0.063240 1 0 1.000000
wardrobe_02
  0 1.063413 -24.884909 48.560600 -0.570633 -0.799195 0.188855 0.975479 0.063240 1 0 1.000000
  0 1.404876 -24.884909 48.560600 0.570633 -0.799195 0.188855 0.975479 0.053796 1 0 1.000000
  0 1.063413 -24.674038 49.326611 -0.570633 -0.799195 0.188855 0.996087 0.063240 1 0 1.000000
wardrobe_02
  0 1.063413 -24.674038 49.326611 -0.570633 -0.799195 0.188855 0.996087 0.063240 1 0 1.000000
  0 1.404876 -24.884909 48.560600 0.570633 -0.799195 0.188855 0.975479 0.053796 1 0 1.000000
  0 1.404876 -24.674038 49.326611 0.570633 -0.799195 0.188855 0.996088 0.053796 1 0 1.000000
wardrobe_02
  0 1.404876 -24.884909 48.560600 0.570633 -0.799195 0.188855 0.975479 0.053796 1 0 1.000000
  0 1.523733 -24.466450 49.326611 0.936586 -0.347592 0.044559 0.996088 0.047287 1 0 1.000000
  0 1.404876 -24.674038 49.326611 0.570633 -0.799195 0.188855 0.996088 0.053796 1 0 1.000000
wardrobe_02
  0 1.523733 -24.466450 48.447678 0.936586 -0.347592 0.044559 0.972441 0.047287 1 0 1.000000
  0 1.523733 -24.466450 49.326611 0.936586 -0.347592 0.044559 0.996088 0.047287 1 0 1.000000
  0 1.404876 -24.884909 48.560600 0.570633 -0.799195 0.188855 0.975479 0.053796 1 0 1.000000
wardrobe_02
  0 -1.085166 -24.945456 44.373371 0.940283 -0.313489 -0.132638 0.862828 0.047287 1 0 1.000000
  0 -1.204024 -24.884909 43.387669 0.574704 -0.776746 -0.257645 0.836309 0.053796 1 0 1.000000
  0 -1.085166 -24.466450 43.500591 0.940283 -0.313489 -0.132638 0.839347 0.047287 1 0 1.000000
wardrobe_02
  0 -1.204024 -25.157812 44.292015 0.574704 -0.776746 -0.257645 0.860639 0.053796 1 0 1.000000
  0 -1.204024 -24.884909 43.387669 0.574704 -0.776746 -0.257645 0.836309 0.053796 1 0 1.000000
  0 -1.085166 -24.945456 44.373371 0.940283 -0.313489 -0.132638 0.862828 0.047287 1 0 1.000000
wardrobe_02
  0 -1.204024 -25.157812 44.292015 0.574704 -0.776746 -0.257645 0.860639 0.053796 1 0 1.000000
  0 -1.545486 -25.157812 44.292015 -0.574704 -0.776746 -0.257645 0.860639 0.063240 1 0 1.000000
  0 -1.204024 -24.884909 43.387669 0.574704 -0.776746 -0.257645 0.836309 0.053796 1 0 1.000000
wardrobe_02
  0 -1.204024 -24.884909 43.387669 0.574704 -0.776746 -0.257645 0.836309 0.053796 1 0 1.000000
  0 -1.545486 -25.157812 44.292015 -0.574704 -0.776746 -0.257645 0.860639 0.063240 1 0 1.000000
  0 -1.545486 -24.884909 43.387669 -0.574704 -0.776746 -0.257645 0.836309 0.063240 1 0 1.000000
wardrobe_02
  0 -1.545486 -25.157812 44.292015 -0.574704 -0.776746 -0.257645 0.860639 0.063240 1 0 1.000000
  0 -1.664344 -24.945456 44.373371 -0.940283 -0.313489 -0.132638 0.862828 0.069749 1 0 1.000000
  0 -1.545486 -24.884909 43.387669 -0.574704 -0.776746 -0.257645 0.836309 0.063240 1 0 1.000000
wardrobe_02
  0 -1.545486 -24.884909 43.387669 -0.574704 -0.776746 -0.257645 0.836309 0.063240 1 0 1.000000
  0 -1.664344 -24.945456 44.373371 -0.940283 -0.313489 -0.132638 0.862828 0.069749 1 0 1.000000
  0 -1.664344 -24.466450 43.500591 -0.940283 -0.313489 -0.132638 0.839347 0.069749 1 0 1.000000
wardrobe_02
  0 1.523733 -24.466450 43.500591 0.936584 -0.347598 -0.044560 0.839347 0.047287 1 0 1.000000
  0 1.404876 -24.884909 43.387669 0.570630 -0.799192 -0.188872 0.836309 0.053796 1 0 1.000000
  0 1.523733 -24.466450 42.621590 0.936584 -0.347598 -0.044560 0.815699 0.047287 1 0 1.000000
wardrobe_02
  0 1.523733 -24.466450 42.621590 0.936584 -0.347598 -0.044560 0.815699 0.047287 1 0 1.000000
  0 1.404876 -24.884909 43.387669 0.570630 -0.799192 -0.188872 0.836309 0.053796 1 0 1.000000
  0 1.404876 -24.674038 42.621742 0.570630 -0.799192 -0.188872 0.815703 0.053796 1 0 1.000000
wardrobe_02
  0 1.404876 -24.884909 43.387669 0.570630 -0.799192 -0.188872 0.836309 0.053796 1 0 1.000000
  0 1.063413 -24.884909 43.387669 -0.570630 -0.799192 -0.188872 0.836309 0.063240 1 0 1.000000
  0 1.404876 -24.674038 42.621742 0.570630 -0.799192 -0.188872 0.815703 0.053796 1 0 1.000000
wardrobe_02
  0 1.404876 -24.674038 42.621742 0.570630 -0.799192 -0.188872 0.815703 0.053796 1 0 1.000000
  0 1.063413 -24.884909 43.387669 -0.570630 -0.799192 -0.188872 0.836309 0.063240 1 0 1.000000
  0 1.063413 -24.674038 42.621742 -0.570630 -0.799192 -0.188872 0.815703 0.063240 1 0 1.000000
wardrobe_02
  0 1.063413 -24.884909 43.387669 -0.570630 -0.799192 -0.188872 0.836309 0.063240 1 0 1.000000
  0 0.944556 -24.466450 42.621590 -0.936584 -0.347598 -0.044560 0.815699 0.069749 1 0 1.000000
  0 1.063413 -24.674038 42.621742 -0.570630 -0.799192 -0.188872 0.815703 0.063240 1 0 1.000000
wardrobe_02
  0 0.944556 -24.466450 43.500591 -0.936584 -0.347598 -0.044560 0.839347 0.069749 1 0 1.000000
  0 0.944556 -24.466450 42.621590 -0.936584 -0.347598 -0.044560 0.815699 0.069749 1 0 1.000000
  0 1.063413 -24.884909 43.387669 -0.570630 -0.799192 -0.188872 0.836309 0.063240 1 0 1.000000
wardrobe_02
  0 18.085093 -24.071632 47.810287 0.000000 -1.000000 0.000002 0.746183 0.544032 1 0 1.000000
  0 17.150167 -24.071632 84.649109 0.000000 -1.000000 -0.000003 0.753965 0.156241 1 0 1.000000
  0 17.150169 -24.071630 48.667053 0.000000 -1.000000 0.000002 0.753965 0.537916 1 0 1.000000
wardrobe_02
  0 18.085091 -24.071634 85.505882 0.000000 -1.000000 -0.000003 0.746183 0.149472 1 0 1.000000
  0 17.150167 -24.071632 84.649109 0.000000 -1.000000 -0.000003 0.753965 0.156241 1 0 1.000000
  0 18.085093 -24.071632 47.810287 0.000000 -1.000000 0.000002 0.746183 0.544032 1 0 1.000000
wardrobe_02
  0 18.085091 -24.071634 85.505882 0.000000 -1.000000 -0.000003 0.746183 0.149472 1 0 1.000000
  0 2.987655 -24.071630 84.649109 0.000002 -1.000000 0.000000 0.955243 0.156241 1 0 1.000000
  0 17.150167 -24.071632 84.649109 0.000000 -1.000000 -0.000003 0.753965 0.156241 1 0 1.000000
wardrobe_02
  0 2.052737 -24.071634 85.505882 0.000002 -1.000000 0.000000 0.963483 0.149472 1 0 1.000000
  0 2.987655 -24.071630 84.649109 0.000002 -1.000000 0.000000 0.955243 0.156241 1 0 1.000000
  0 18.085091 -24.071634 85.505882 0.000000 -1.000000 -0.000003 0.746183 0.149472 1 0 1.000000
wardrobe_02
  0 2.052737 -24.071634 85.505882 0.000002 -1.000000 0.000000 0.963483 0.149472 1 0 1.000000
  0 2.987659 -24.071630 48.667049 0.000000 -1.000000 0.000002 0.955243 0.537916 1 0 1.000000
  0 2.987655 -24.071630 84.649109 0.000002 -1.000000 0.000000 0.955243 0.156241 1 0 1.000000
wardrobe_02
  0 2.052733 -24.071632 47.810287 0.000000 -1.000000 0.000002 0.963483 0.544032 1 0 1.000000
  0 2.987659 -24.071630 48.667049 0.000000 -1.000000 0.000002 0.955243 0.537916 1 0 1.000000
  0 2.052737 -24.071634 85.505882 0.000002 -1.000000 0.000000 0.963483 0.149472 1 0 1.000000
wardrobe_02
  0 2.052733 -24.071632 47.810287 0.000000 -1.000000 0.000002 0.963483 0.544032 1 0 1.000000
  0 17.150169 -24.071630 48.667053 0.000000 -1.000000 0.000002 0.753965 0.537916 1 0 1.000000
  0 2.987659 -24.071630 48.667049 0.000000 -1.000000 0.000002 0.955243 0.537916 1 0 1.000000
wardrobe_02
  0 18.085093 -24.071632 47.810287 0.000000 -1.000000 0.000002 0.746183 0.544032 1 0 1.000000
  0 17.150169 -24.071630 48.667053 0.000000 -1.000000 0.000002 0.753965 0.537916 1 0 1.000000
  0 2.052733 -24.071632 47.810287 0.000000 -1.000000 0.000002 0.963483 0.544032 1 0 1.000000
wardrobe_02
  0 -3.065215 -24.071630 84.649109 -0.000002 -1.000000 0.000000 0.955243 0.971243 1 0 1.000000
  0 -18.162649 -24.071634 85.505882 0.000000 -1.000000 -0.000003 0.746183 0.978012 1 0 1.000000
  0 -17.227726 -24.071632 84.649109 0.000000 -1.000000 -0.000003 0.753965 0.971243 1 0 1.000000
wardrobe_02
  0 -18.162649 -24.071634 85.505882 0.000000 -1.000000 -0.000003 0.746183 0.978012 1 0 1.000000
  0 -18.162651 -24.071634 47.810287 0.000000 -1.000000 0.000002 0.746183 0.583452 1 0 1.000000
  0 -17.227726 -24.071632 84.649109 0.000000 -1.000000 -0.000003 0.753965 0.971243 1 0 1.000000
wardrobe_02
  0 -17.227726 -24.071632 84.649109 0.000000 -1.000000 -0.000003 0.753965 0.971243 1 0 1.000000
  0 -18.162651 -24.071634 47.810287 0.000000 -1.000000 0.000002 0.746183 0.583452 1 0 1.000000
  0 -17.227728 -24.071632 48.667053 0.000000 -1.000000 0.000002 0.753965 0.589568 1 0 1.000000
wardrobe_02
  0 -18.162651 -24.071634 47.810287 0.000000 -1.000000 0.000002 0.746183 0.583452 1 0 1.000000
  0 -2.130294 -24.071632 47.810287 0.000000 -1.000000 0.000002 0.963483 0.583452 1 0 1.000000
  0 -17.227728 -24.071632 48.667053 0.000000 -1.000000 0.000002 0.753965 0.589568 1 0 1.000000
wardrobe_02
  0 -17.227728 -24.071632 48.667053 0.000000 -1.000000 0.000002 0.753965 0.589568 1 0 1.000000
  0 -2.130294 -24.071632 47.810287 0.000000 -1.000000 0.000002 0.963483 0.583452 1 0 1.000000
  0 -3.065219 -24.071630 48.667049 0.000000 -1.000000 0.000002 0.955243 0.589568 1 0 1.000000
wardrobe_02
  0 -2.130294 -24.071632 47.810287 0.000000 -1.000000 0.000002 0.963483 0.583452 1 0 1.000000
  0 -2.130298 -24.071634 85.505882 -0.000002 -1.000000 0.000000 0.963483 0.978012 1 0 1.000000
  0 -3.065219 -24.071630 48.667049 0.000000 -1.000000 0.000002 0.955243 0.589568 1 0 1.000000
wardrobe_02
  0 -3.065219 -24.071630 48.667049 0.000000 -1.000000 0.000002 0.955243 0.589568 1 0 1.000000
  0 -2.130298 -24.071634 85.505882 -0.000002 -1.000000 0.000000 0.963483 0.978012 1 0 1.000000
  0 -3.065215 -24.071630 84.649109 -0.000002 -1.000000 0.000000 0.955243 0.971243 1 0 1.000000
wardrobe_02
  0 -2.130298 -24.071634 85.505882 -0.000002 -1.000000 0.000000 0.963483 0.978012 1 0 1.000000
  0 -18.162649 -24.071634 85.505882 0.000000 -1.000000 -0.000003 0.746183 0.978012 1 0 1.000000
  0 -3.065215 -24.071630 84.649109 -0.000002 -1.000000 0.000000 0.955243 0.971243 1 0 1.000000
wardrobe_02
  0 1.523733 -25.137276 45.974136 0.875781 -0.479446 0.056028 0.905894 0.047287 1 0 1.000000
  0 1.523733 -24.945456 47.574898 0.875781 -0.479446 0.056028 0.948960 0.047287 1 0 1.000000
  0 1.404876 -25.349632 45.974136 0.508572 -0.855386 0.098330 0.905894 0.053796 1 0 1.000000
wardrobe_02
  0 1.404876 -25.349632 45.974136 0.508572 -0.855386 0.098330 0.905894 0.053796 1 0 1.000000
  0 1.523733 -24.945456 47.574898 0.875781 -0.479446 0.056028 0.948960 0.047287 1 0 1.000000
  0 1.404876 -25.157812 47.656258 0.508572 -0.855386 0.098330 0.951149 0.053796 1 0 1.000000
wardrobe_02
  0 1.063413 -25.157812 47.656258 -0.508572 -0.855386 0.098330 0.951149 0.063240 1 0 1.000000
  0 1.404876 -25.349632 45.974136 0.508572 -0.855386 0.098330 0.905894 0.053796 1 0 1.000000
  0 1.404876 -25.157812 47.656258 0.508572 -0.855386 0.098330 0.951149 0.053796 1 0 1.000000
wardrobe_02
  0 1.063413 -25.349632 45.974136 -0.508572 -0.855386 0.098330 0.905894 0.063240 1 0 1.000000
  0 1.404876 -25.349632 45.974136 0.508572 -0.855386 0.098330 0.905894 0.053796 1 0 1.000000
  0 1.063413 -25.157812 47.656258 -0.508572 -0.855386 0.098330 0.951149 0.063240 1 0 1.000000
wardrobe_02
  0 0.944556 -24.945456 47.574898 -0.875781 -0.479446 0.056028 0.948960 0.069749 1 0 1.000000
  0 1.063413 -25.349632 45.974136 -0.508572 -0.855386 0.098330 0.905894 0.063240 1 0 1.000000
  0 1.063413 -25.157812 47.656258 -0.508572 -0.855386 0.098330 0.951149 0.063240 1 0 1.000000
wardrobe_02
  0 0.944556 -25.137276 45.974136 -0.875781 -0.479446 0.056028 0.905894 0.069749 1 0 1.000000
  0 1.063413 -25.349632 45.974136 -0.508572 -0.855386 0.098330 0.905894 0.063240 1 0 1.000000
  0 0.944556 -24.945456 47.574898 -0.875781 -0.479446 0.056028 0.948960 0.069749 1 0 1.000000
wardrobe_02
  0 -1.664344 -24.466450 48.447678 -0.936586 -0.347592 0.044559 0.972441 0.069749 1 0 1.000000
  0 -1.545486 -24.884909 48.560600 -0.570633 -0.799195 0.188855 0.975479 0.063240 1 0 1.000000
  0 -1.664344 -24.466450 49.326611 -0.936586 -0.347592 0.044559 0.996087 0.069749 1 0 1.000000
wardrobe_02
  0 -1.664344 -24.466450 49.326611 -0.936586 -0.347592 0.044559 0.996087 0.069749 1 0 1.000000
  0 -1.545486 -24.884909 48.560600 -0.570633 -0.799195 0.188855 0.975479 0.063240 1 0 1.000000
  0 -1.545486 -24.674038 49.326611 -0.570633 -0.799195 0.188855 0.996087 0.063240 1 0 1.000000
wardrobe_02
  0 -1.545486 -24.884909 48.560600 -0.570633 -0.799195 0.188855 0.975479 0.063240 1 0 1.000000
  0 -1.204024 -24.884909 48.560600 0.570633 -0.799195 0.188855 0.975479 0.053796 1 0 1.000000
  0 -1.545486 -24.674038 49.326611 -0.570633 -0.799195 0.188855 0.996087 0.063240 1 0 1.000000
wardrobe_02
  0 -1.545486 -24.674038 49.326611 -0.570633 -0.799195 0.188855 0.996087 0.063240 1 0 1.000000
  0 -1.204024 -24.884909 48.560600 0.570633 -0.799195 0.188855 0.975479 0.053796 1 0 1.000000
  0 -1.204024 -24.674038 49.326611 0.570633 -0.799195 0.188855 0.996088 0.053796 1 0 1.000000
wardrobe_02
  0 -1.204024 -24.884909 48.560600 0.570633 -0.799195 0.188855 0.975479 0.053796 1 0 1.000000
  0 -1.085166 -24.466450 49.326611 0.936586 -0.347592 0.044559 0.996088 0.047287 1 0 1.000000
  0 -1.204024 -24.674038 49.326611 0.570633 -0.799195 0.188855 0.996088 0.053796 1 0 1.000000
wardrobe_02
  0 -1.085166 -24.466450 48.447678 0.936586 -0.347592 0.044559 0.972441 0.047287 1 0 1.000000
  0 -1.085166 -24.466450 49.326611 0.936586 -0.347592 0.044559 0.996088 0.047287 1 0 1.000000
  0 -1.204024 -24.884909 48.560600 0.570633 -0.799195 0.188855 0.975479 0.053796 1 0 1.000000
wardrobe_02
  0 -1.085166 -24.466450 43.500591 0.936584 -0.347598 -0.044560 0.839347 0.047287 1 0 1.000000
  0 -1.204024 -24.884909 43.387669 0.570630 -0.799192 -0.188872 0.836309 0.053796 1 0 1.000000
  0 -1.085166 -24.466450 42.621590 0.936584 -0.347598 -0.044560 0.815699 0.047287 1 0 1.000000
wardrobe_02
  0 -1.085166 -24.466450 42.621590 0.936584 -0.347598 -0.044560 0.815699 0.047287 1 0 1.000000
  0 -1.204024 -24.884909 43.387669 0.570630 -0.799192 -0.188872 0.836309 0.053796 1 0 1.000000
  0 -1.204024 -24.674038 42.621742 0.570630 -0.799192 -0.188872 0.815703 0.053796 1 0 1.000000
wardrobe_02
  0 -1.204024 -24.884909 43.387669 0.570630 -0.799192 -0.188872 0.836309 0.053796 1 0 1.000000
  0 -1.545486 -24.884909 43.387669 -0.570630 -0.799192 -0.188872 0.836309 0.063240 1 0 1.000000
  0 -1.204024 -24.674038 42.621742 0.570630 -0.799192 -0.188872 0.815703 0.053796 1 0 1.000000
wardrobe_02
  0 -1.204024 -24.674038 42.621742 0.570630 -0.799192 -0.188872 0.815703 0.053796 1 0 1.000000
  0 -1.545486 -24.884909 43.387669 -0.570630 -0.799192 -0.188872 0.836309 0.063240 1 0 1.000000
  0 -1.545486 -24.674038 42.621742 -0.570630 -0.799192 -0.188872 0.815703 0.063240 1 0 1.000000
wardrobe_02
  0 -1.545486 -24.884909 43.387669 -0.570630 -0.799192 -0.188872 0.836309 0.063240 1 0 1.000000
  0 -1.664344 -24.466450 42.621590 -0.936584 -0.347598 -0.044560 0.815699 0.069749 1 0 1.000000
  0 -1.545486 -24.674038 42.621742 -0.570630 -0.799192 -0.188872 0.815703 0.063240 1 0 1.000000
wardrobe_02
  0 -1.664344 -24.466450 43.500591 -0.936584 -0.347598 -0.044560 0.839347 0.069749 1 0 1.000000
  0 -1.664344 -24.466450 42.621590 -0.936584 -0.347598 -0.044560 0.815699 0.069749 1 0 1.000000
  0 -1.545486 -24.884909 43.387669 -0.570630 -0.799192 -0.188872 0.836309 0.063240 1 0 1.000000
end
