// Created by Crowbar 0.74
version 1
nodes
  0 "static_prop" -1
end
skeleton
  time 0
    0 0.000000 0.000000 0.000000 0.000000 0.000000 0.000000
end
triangles
  phy
    0 20.102248 -24.461868 -0.000001 0.948548 0.133164 0.287271 0 0
    0 -20.280654 -24.461873 87.116844 0.831684 -0.233516 -0.503757 0 0
    0 -20.280654 -24.461868 -0.000001 0.771007 0.432959 -0.467005 0 0
  phy
    0 20.102248 -24.461868 -0.000001 0.948548 0.133164 0.287271 0 0
    0 20.102248 -24.461873 87.116844 0.626671 -0.175954 0.759160 0 0
    0 -20.280654 -24.461873 87.116844 0.831684 -0.233516 -0.503757 0 0
  phy
    0 20.102248 -24.461868 -0.000001 0.948548 0.133164 0.287271 0 0
    0 -20.280654 -24.461868 -0.000001 0.771007 0.432959 -0.467005 0 0
    0 20.102246 -0.001636 0.000000 -0.599451 0.336622 0.726184 0 0
  phy
    0 20.102246 -0.001636 0.000000 -0.599451 0.336622 0.726184 0 0
    0 -20.280654 -24.461868 -0.000001 0.771007 0.432959 -0.467005 0 0
    0 -20.280656 -0.001638 0.000000 -0.849231 0.119221 -0.514386 0 0
  phy
    0 -20.280656 -0.001638 0.000000 -0.849231 0.119221 -0.514386 0 0
    0 -20.280654 -24.461868 -0.000001 0.771007 0.432959 -0.467005 0 0
    0 -20.280654 -24.461873 87.116844 0.831684 -0.233516 -0.503757 0 0
  phy
    0 20.102246 -0.001636 0.000000 -0.599451 0.336622 0.726184 0 0
    0 -20.280656 -0.001638 0.000000 -0.849231 0.119221 -0.514386 0 0
    0 20.102246 -0.001640 87.116844 -0.924281 -0.259515 0.279922 0 0
  phy
    0 20.102246 -0.001640 87.116844 -0.924281 -0.259515 0.279922 0 0
    0 -20.280656 -0.001638 0.000000 -0.849231 0.119221 -0.514386 0 0
    0 -20.280656 -0.001642 87.116844 -0.831684 -0.233516 -0.503758 0 0
  phy
    0 -20.280656 -0.001642 87.116844 -0.831684 -0.233516 -0.503758 0 0
    0 -20.280656 -0.001638 0.000000 -0.849231 0.119221 -0.514386 0 0
    0 -20.280654 -24.461873 87.116844 0.831684 -0.233516 -0.503757 0 0
  phy
    0 -20.280654 -24.461873 87.116844 0.831684 -0.233516 -0.503757 0 0
    0 20.102246 -0.001640 87.116844 -0.924281 -0.259515 0.279922 0 0
    0 -20.280656 -0.001642 87.116844 -0.831684 -0.233516 -0.503758 0 0
  phy
    0 -20.280654 -24.461873 87.116844 0.831684 -0.233516 -0.503757 0 0
    0 20.102248 -24.461873 87.116844 0.626671 -0.175954 0.759160 0 0
    0 20.102246 -0.001640 87.116844 -0.924281 -0.259515 0.279922 0 0
  phy
    0 20.102248 -24.461868 -0.000001 0.948548 0.133164 0.287271 0 0
    0 20.102246 -0.001636 0.000000 -0.599451 0.336622 0.726184 0 0
    0 20.102248 -24.461873 87.116844 0.626671 -0.175954 0.759160 0 0
  phy
    0 20.102248 -24.461873 87.116844 0.626671 -0.175954 0.759160 0 0
    0 20.102246 -0.001636 0.000000 -0.599451 0.336622 0.726184 0 0
    0 20.102246 -0.001640 87.116844 -0.924281 -0.259515 0.279922 0 0
end
