// Created by Crowbar 0.74
version 1
nodes
  0 "static_prop" -1
end
skeleton
  time 0
    0 0.000000 0.000000 0.000000 0.000000 0.000000 0.000000
end
triangles
  phy
    0 8.488786 -70.840383 5.300056 0.024818 0.968942 -0.246038 0 0
    0 13.212611 -70.840383 5.300056 0.090972 0.887913 0.450925 0 0
    0 8.488786 -70.840383 7.699043 0.071696 -0.699774 -0.710758 0 0
  phy
    0 13.212611 -70.840383 5.300056 0.090972 0.887913 0.450925 0 0
    0 13.212611 -70.840383 7.699043 0.022832 -0.891378 0.452685 0 0
    0 8.488786 -70.840383 7.699043 0.071696 -0.699774 -0.710758 0 0
  phy
    0 8.488786 -70.840383 5.300056 0.024818 0.968942 -0.246038 0 0
    0 8.488786 -70.840383 7.699043 0.071696 -0.699774 -0.710758 0 0
    0 8.488784 -24.010609 5.300058 -0.071696 0.699774 -0.710758 0 0
  phy
    0 8.488784 -24.010609 5.300058 -0.071696 0.699774 -0.710758 0 0
    0 8.488786 -70.840383 7.699043 0.071696 -0.699774 -0.710758 0 0
    0 8.488784 -24.010609 7.699045 -0.024818 -0.968942 -0.246038 0 0
  phy
    0 13.212611 -70.840383 7.699043 0.022832 -0.891378 0.452685 0 0
    0 8.488784 -24.010609 7.699045 -0.024818 -0.968942 -0.246038 0 0
    0 8.488786 -70.840383 7.699043 0.071696 -0.699774 -0.710758 0 0
  phy
    0 13.212611 -70.840383 7.699043 0.022832 -0.891378 0.452685 0 0
    0 13.212610 -24.010609 5.300058 -0.022832 0.891378 0.452685 0 0
    0 13.212610 -24.010609 7.699045 -0.090972 -0.887914 0.450925 0 0
  phy
    0 13.212611 -70.840383 7.699043 0.022832 -0.891378 0.452685 0 0
    0 13.212611 -70.840383 5.300056 0.090972 0.887913 0.450925 0 0
    0 13.212610 -24.010609 5.300058 -0.022832 0.891378 0.452685 0 0
  phy
    0 13.212610 -24.010609 7.699045 -0.090972 -0.887914 0.450925 0 0
    0 8.488784 -24.010609 5.300058 -0.071696 0.699774 -0.710758 0 0
    0 8.488784 -24.010609 7.699045 -0.024818 -0.968942 -0.246038 0 0
  phy
    0 8.488784 -24.010609 5.300058 -0.071696 0.699774 -0.710758 0 0
    0 13.212610 -24.010609 7.699045 -0.090972 -0.887914 0.450925 0 0
    0 13.212610 -24.010609 5.300058 -0.022832 0.891378 0.452685 0 0
  phy
    0 13.212610 -24.010609 7.699045 -0.090972 -0.887914 0.450925 0 0
    0 8.488784 -24.010609 7.699045 -0.024818 -0.968942 -0.246038 0 0
    0 13.212611 -70.840383 7.699043 0.022832 -0.891378 0.452685 0 0
  phy
    0 8.488786 -70.840383 5.300056 0.024818 0.968942 -0.246038 0 0
    0 8.488784 -24.010609 5.300058 -0.071696 0.699774 -0.710758 0 0
    0 13.212610 -24.010609 5.300058 -0.022832 0.891378 0.452685 0 0
  phy
    0 13.212611 -70.840383 5.300056 0.090972 0.887913 0.450925 0 0
    0 8.488786 -70.840383 5.300056 0.024818 0.968942 -0.246038 0 0
    0 13.212610 -24.010609 5.300058 -0.022832 0.891378 0.452685 0 0
  phy
    0 12.503987 -24.010612 89.260481 -0.047247 0.725375 0.686731 0 0
    0 12.503989 -70.840383 89.260481 0.051301 0.725229 0.686593 0 0
    0 9.004932 -70.840383 89.260481 0.060400 0.927302 -0.369409 0 0
  phy
    0 12.503987 -24.010612 89.260481 -0.047247 0.725375 0.686731 0 0
    0 9.004932 -70.840383 89.260481 0.060400 0.927302 -0.369409 0 0
    0 9.004930 -24.010612 89.260481 -0.031628 0.531290 -0.846599 0 0
  phy
    0 12.503987 -24.010612 89.260481 -0.047247 0.725375 0.686731 0 0
    0 12.503989 -70.840383 92.573128 0.050877 -0.781098 0.622332 0 0
    0 12.503989 -70.840383 89.260481 0.051301 0.725229 0.686593 0 0
  phy
    0 12.503989 -70.840383 89.260481 0.051301 0.725229 0.686593 0 0
    0 12.503989 -70.840383 92.573128 0.050877 -0.781098 0.622332 0 0
    0 9.004932 -70.840383 89.260481 0.060400 0.927302 -0.369409 0 0
  phy
    0 12.503987 -24.010612 92.573128 -0.055241 -0.780917 0.622187 0 0
    0 12.503987 -24.010612 89.260481 -0.047247 0.725375 0.686731 0 0
    0 9.004930 -24.010612 92.048316 -0.057019 -0.875397 -0.480030 0 0
  phy
    0 9.004930 -24.010612 92.048316 -0.057019 -0.875397 -0.480030 0 0
    0 12.503987 -24.010612 89.260481 -0.047247 0.725375 0.686731 0 0
    0 9.004930 -24.010612 89.260481 -0.031628 0.531290 -0.846599 0 0
  phy
    0 9.004930 -24.010612 92.048316 -0.057019 -0.875397 -0.480030 0 0
    0 9.004930 -24.010612 89.260481 -0.031628 0.531290 -0.846599 0 0
    0 9.004932 -70.840383 92.048316 0.029606 -0.497321 -0.867061 0 0
  phy
    0 9.004932 -70.840383 92.048316 0.029606 -0.497321 -0.867061 0 0
    0 9.004930 -24.010612 89.260481 -0.031628 0.531290 -0.846599 0 0
    0 9.004932 -70.840383 89.260481 0.060400 0.927302 -0.369409 0 0
  phy
    0 9.004932 -70.840383 89.260481 0.060400 0.927302 -0.369409 0 0
    0 12.503989 -70.840383 92.573128 0.050877 -0.781098 0.622332 0 0
    0 9.004932 -70.840383 92.048316 0.029606 -0.497321 -0.867061 0 0
  phy
    0 12.503989 -70.840383 92.573128 0.050877 -0.781098 0.622332 0 0
    0 9.004930 -24.010612 92.048316 -0.057019 -0.875397 -0.480030 0 0
    0 9.004932 -70.840383 92.048316 0.029606 -0.497321 -0.867061 0 0
  phy
    0 12.503987 -24.010612 92.573128 -0.055241 -0.780917 0.622187 0 0
    0 12.503989 -70.840383 92.573128 0.050877 -0.781098 0.622332 0 0
    0 12.503987 -24.010612 89.260481 -0.047247 0.725375 0.686731 0 0
  phy
    0 12.503987 -24.010612 92.573128 -0.055241 -0.780917 0.622187 0 0
    0 9.004930 -24.010612 92.048316 -0.057019 -0.875397 -0.480030 0 0
    0 12.503989 -70.840383 92.573128 0.050877 -0.781098 0.622332 0 0
  phy
    0 8.553614 -22.618810 117.294488 -0.513516 -0.035916 -0.857328 0 0
    0 13.156797 -26.462486 117.262790 0.766305 -0.053612 0.640237 0 0
    0 13.156797 -22.618810 117.262790 -0.767521 -0.013422 0.640883 0 0
  phy
    0 8.553614 -22.618810 117.294488 -0.513516 -0.035916 -0.857328 0 0
    0 8.553614 -26.462486 117.294488 0.922703 -0.016136 -0.385175 0 0
    0 13.156797 -26.462486 117.262790 0.766305 -0.053612 0.640237 0 0
  phy
    0 13.156797 -26.462486 117.262790 0.766305 -0.053612 0.640237 0 0
    0 13.156797 -26.462482 7.384355 0.767567 0.013423 0.640829 0 0
    0 13.156797 -22.618810 117.262790 -0.767521 -0.013422 0.640883 0 0
  phy
    0 13.156797 -26.462482 7.384355 0.767567 0.013423 0.640829 0 0
    0 13.156797 -22.618806 7.384355 -0.766486 0.053625 0.640019 0 0
    0 13.156797 -22.618810 117.262790 -0.767521 -0.013422 0.640883 0 0
  phy
    0 8.553614 -26.462486 117.294488 0.922703 -0.016136 -0.385175 0 0
    0 13.156797 -26.462482 7.384355 0.767567 0.013423 0.640829 0 0
    0 13.156797 -26.462486 117.262790 0.766305 -0.053612 0.640237 0 0
  phy
    0 8.553614 -26.462486 117.294488 0.922703 -0.016136 -0.385175 0 0
    0 8.553614 -26.462482 7.384355 0.513407 0.035909 -0.857394 0 0
    0 13.156797 -26.462482 7.384355 0.767567 0.013423 0.640829 0 0
  phy
    0 13.156797 -22.618810 117.262790 -0.767521 -0.013422 0.640883 0 0
    0 13.156797 -22.618806 7.384355 -0.766486 0.053625 0.640019 0 0
    0 8.553614 -22.618806 7.384355 -0.922663 0.016136 -0.385269 0 0
  phy
    0 13.156797 -22.618810 117.262790 -0.767521 -0.013422 0.640883 0 0
    0 8.553614 -22.618806 7.384355 -0.922663 0.016136 -0.385269 0 0
    0 8.553614 -22.618810 117.294488 -0.513516 -0.035916 -0.857328 0 0
  phy
    0 13.156797 -22.618806 7.384355 -0.766486 0.053625 0.640019 0 0
    0 13.156797 -26.462482 7.384355 0.767567 0.013423 0.640829 0 0
    0 8.553614 -26.462482 7.384355 0.513407 0.035909 -0.857394 0 0
  phy
    0 13.156797 -22.618806 7.384355 -0.766486 0.053625 0.640019 0 0
    0 8.553614 -26.462482 7.384355 0.513407 0.035909 -0.857394 0 0
    0 8.553614 -22.618806 7.384355 -0.922663 0.016136 -0.385269 0 0
  phy
    0 8.553614 -22.618806 7.384355 -0.922663 0.016136 -0.385269 0 0
    0 8.553614 -26.462482 7.384355 0.513407 0.035909 -0.857394 0 0
    0 8.553614 -22.618810 117.294488 -0.513516 -0.035916 -0.857328 0 0
  phy
    0 8.553614 -22.618810 117.294488 -0.513516 -0.035916 -0.857328 0 0
    0 8.553614 -26.462482 7.384355 0.513407 0.035909 -0.857394 0 0
    0 8.553614 -26.462486 117.294488 0.922703 -0.016136 -0.385175 0 0
  phy
    0 13.156800 -72.246175 117.262790 0.767269 -0.026836 0.640764 0 0
    0 8.553616 -68.402502 117.294488 -0.513516 -0.035916 -0.857328 0 0
    0 8.553616 -72.246175 117.294488 0.767405 -0.026837 -0.640601 0 0
  phy
    0 13.156800 -72.246175 117.262790 0.767269 -0.026836 0.640764 0 0
    0 13.156800 -68.402502 117.262790 -0.922663 -0.016136 0.385269 0 0
    0 8.553616 -68.402502 117.294488 -0.513516 -0.035916 -0.857328 0 0
  phy
    0 13.156800 -72.246175 117.262790 0.767269 -0.026836 0.640764 0 0
    0 8.553616 -72.246170 7.384353 0.767269 0.026836 -0.640764 0 0
    0 13.156800 -72.246170 7.384353 0.767314 0.026842 0.640710 0 0
  phy
    0 13.156800 -72.246175 117.262790 0.767269 -0.026836 0.640764 0 0
    0 8.553616 -72.246175 117.294488 0.767405 -0.026837 -0.640601 0 0
    0 8.553616 -72.246170 7.384353 0.767269 0.026836 -0.640764 0 0
  phy
    0 13.156800 -72.246170 7.384353 0.767314 0.026842 0.640710 0 0
    0 13.156800 -68.402497 7.384353 -0.513407 0.035919 0.857393 0 0
    0 13.156800 -72.246175 117.262790 0.767269 -0.026836 0.640764 0 0
  phy
    0 13.156800 -68.402497 7.384353 -0.513407 0.035919 0.857393 0 0
    0 13.156800 -68.402502 117.262790 -0.922663 -0.016136 0.385269 0 0
    0 13.156800 -72.246175 117.262790 0.767269 -0.026836 0.640764 0 0
  phy
    0 13.156800 -72.246170 7.384353 0.767314 0.026842 0.640710 0 0
    0 8.553616 -72.246170 7.384353 0.767269 0.026836 -0.640764 0 0
    0 13.156800 -68.402497 7.384353 -0.513407 0.035919 0.857393 0 0
  phy
    0 13.156800 -68.402497 7.384353 -0.513407 0.035919 0.857393 0 0
    0 8.553616 -72.246170 7.384353 0.767269 0.026836 -0.640764 0 0
    0 8.553616 -68.402497 7.384353 -0.922663 0.016136 -0.385269 0 0
  phy
    0 13.156800 -68.402502 117.262790 -0.922663 -0.016136 0.385269 0 0
    0 13.156800 -68.402497 7.384353 -0.513407 0.035919 0.857393 0 0
    0 8.553616 -68.402497 7.384353 -0.922663 0.016136 -0.385269 0 0
  phy
    0 13.156800 -68.402502 117.262790 -0.922663 -0.016136 0.385269 0 0
    0 8.553616 -68.402497 7.384353 -0.922663 0.016136 -0.385269 0 0
    0 8.553616 -68.402502 117.294488 -0.513516 -0.035916 -0.857328 0 0
  phy
    0 8.553616 -68.402497 7.384353 -0.922663 0.016136 -0.385269 0 0
    0 8.553616 -72.246170 7.384353 0.767269 0.026836 -0.640764 0 0
    0 8.553616 -68.402502 117.294488 -0.513516 -0.035916 -0.857328 0 0
  phy
    0 8.553616 -68.402502 117.294488 -0.513516 -0.035916 -0.857328 0 0
    0 8.553616 -72.246170 7.384353 0.767269 0.026836 -0.640764 0 0
    0 8.553616 -72.246175 117.294488 0.767405 -0.026837 -0.640601 0 0
  phy
    0 8.488786 -70.840393 115.347782 0.049591 0.968049 -0.245810 0 0
    0 8.488786 -70.840393 117.746761 0.022832 -0.891379 -0.452684 0 0
    0 8.488784 -24.010612 115.347782 -0.071696 0.699775 -0.710757 0 0
  phy
    0 8.488784 -24.010612 115.347782 -0.071696 0.699775 -0.710757 0 0
    0 8.488786 -70.840393 117.746761 0.022832 -0.891379 -0.452684 0 0
    0 8.488784 -24.010612 117.746761 -0.045628 -0.890683 -0.452330 0 0
  phy
    0 13.212611 -70.840393 115.347782 0.035917 0.701128 0.712131 0 0
    0 8.488786 -70.840393 115.347782 0.049591 0.968049 -0.245810 0 0
    0 13.212610 -24.010612 115.347782 -0.024818 0.968943 0.246037 0 0
  phy
    0 13.212610 -24.010612 115.347782 -0.024818 0.968943 0.246037 0 0
    0 8.488786 -70.840393 115.347782 0.049591 0.968049 -0.245810 0 0
    0 8.488784 -24.010612 115.347782 -0.071696 0.699775 -0.710757 0 0
  phy
    0 13.212611 -70.840393 115.347782 0.035917 0.701128 0.712131 0 0
    0 13.212611 -70.840393 117.746761 0.090971 -0.887914 0.450924 0 0
    0 8.488786 -70.840393 115.347782 0.049591 0.968049 -0.245810 0 0
  phy
    0 13.212611 -70.840393 117.746761 0.090971 -0.887914 0.450924 0 0
    0 8.488786 -70.840393 117.746761 0.022832 -0.891379 -0.452684 0 0
    0 8.488786 -70.840393 115.347782 0.049591 0.968049 -0.245810 0 0
  phy
    0 13.212611 -70.840393 115.347782 0.035917 0.701128 0.712131 0 0
    0 13.212610 -24.010612 117.746761 -0.045628 -0.890683 0.452330 0 0
    0 13.212611 -70.840393 117.746761 0.090971 -0.887914 0.450924 0 0
  phy
    0 13.212611 -70.840393 115.347782 0.035917 0.701128 0.712131 0 0
    0 13.212610 -24.010612 115.347782 -0.024818 0.968943 0.246037 0 0
    0 13.212610 -24.010612 117.746761 -0.045628 -0.890683 0.452330 0 0
  phy
    0 13.212611 -70.840393 117.746761 0.090971 -0.887914 0.450924 0 0
    0 13.212610 -24.010612 117.746761 -0.045628 -0.890683 0.452330 0 0
    0 8.488786 -70.840393 117.746761 0.022832 -0.891379 -0.452684 0 0
  phy
    0 13.212610 -24.010612 117.746761 -0.045628 -0.890683 0.452330 0 0
    0 8.488784 -24.010612 117.746761 -0.045628 -0.890683 -0.452330 0 0
    0 8.488786 -70.840393 117.746761 0.022832 -0.891379 -0.452684 0 0
  phy
    0 13.212610 -24.010612 117.746761 -0.045628 -0.890683 0.452330 0 0
    0 13.212610 -24.010612 115.347782 -0.024818 0.968943 0.246037 0 0
    0 8.488784 -24.010612 115.347782 -0.071696 0.699775 -0.710757 0 0
  phy
    0 13.212610 -24.010612 117.746761 -0.045628 -0.890683 0.452330 0 0
    0 8.488784 -24.010612 115.347782 -0.071696 0.699775 -0.710757 0 0
    0 8.488784 -24.010612 117.746761 -0.045628 -0.890683 -0.452330 0 0
  phy
    0 18.307626 -70.632034 121.378598 -0.854427 -0.080399 0.513313 0 0
    0 -0.092025 -76.157502 121.410297 0.987855 -0.046470 -0.148268 0 0
    0 18.307626 -76.157502 121.378598 0.956754 -0.045014 0.287394 0 0
  phy
    0 18.307626 -70.632034 121.378598 -0.854427 -0.080399 0.513313 0 0
    0 -0.092025 -70.632034 121.410297 -0.957503 -0.022521 -0.287541 0 0
    0 -0.092025 -76.157502 121.410297 0.987855 -0.046470 -0.148268 0 0
  phy
    0 18.307626 -76.157502 121.378598 0.956754 -0.045014 0.287394 0 0
    0 18.307626 -76.157493 3.935936 0.957514 0.022522 0.287505 0 0
    0 18.307626 -70.632034 121.378598 -0.854427 -0.080399 0.513313 0 0
  phy
    0 18.307626 -76.157493 3.935936 0.957514 0.022522 0.287505 0 0
    0 18.307626 -70.632025 3.935936 -0.987849 0.046470 0.148307 0 0
    0 18.307626 -70.632034 121.378598 -0.854427 -0.080399 0.513313 0 0
  phy
    0 18.307626 -76.157502 121.378598 0.956754 -0.045014 0.287394 0 0
    0 -0.092025 -76.157502 121.410297 0.987855 -0.046470 -0.148268 0 0
    0 18.307626 -76.157493 3.935936 0.957514 0.022522 0.287505 0 0
  phy
    0 18.307626 -70.632025 3.935936 -0.987849 0.046470 0.148307 0 0
    0 18.307626 -76.157493 3.935936 0.957514 0.022522 0.287505 0 0
    0 -0.092025 -76.157493 3.935936 0.854490 0.080383 -0.513211 0 0
  phy
    0 18.307626 -70.632025 3.935936 -0.987849 0.046470 0.148307 0 0
    0 -0.092025 -76.157493 3.935936 0.854490 0.080383 -0.513211 0 0
    0 -0.092025 -70.632025 3.935936 -0.956776 0.045002 -0.287323 0 0
  phy
    0 18.307626 -76.157493 3.935936 0.957514 0.022522 0.287505 0 0
    0 -0.092025 -76.157502 121.410297 0.987855 -0.046470 -0.148268 0 0
    0 -0.092025 -76.157493 3.935936 0.854490 0.080383 -0.513211 0 0
  phy
    0 -0.092025 -70.632025 3.935936 -0.956776 0.045002 -0.287323 0 0
    0 -0.092025 -76.157493 3.935936 0.854490 0.080383 -0.513211 0 0
    0 -0.092025 -70.632034 121.410297 -0.957503 -0.022521 -0.287541 0 0
  phy
    0 -0.092025 -70.632034 121.410297 -0.957503 -0.022521 -0.287541 0 0
    0 -0.092025 -76.157493 3.935936 0.854490 0.080383 -0.513211 0 0
    0 -0.092025 -76.157502 121.410297 0.987855 -0.046470 -0.148268 0 0
  phy
    0 18.307626 -70.632034 121.378598 -0.854427 -0.080399 0.513313 0 0
    0 18.307626 -70.632025 3.935936 -0.987849 0.046470 0.148307 0 0
    0 -0.092025 -70.632034 121.410297 -0.957503 -0.022521 -0.287541 0 0
  phy
    0 -0.092025 -70.632034 121.410297 -0.957503 -0.022521 -0.287541 0 0
    0 18.307626 -70.632025 3.935936 -0.987849 0.046470 0.148307 0 0
    0 -0.092025 -70.632025 3.935936 -0.956776 0.045002 -0.287323 0 0
  phy
    0 18.307623 -18.173673 3.935938 -0.986277 0.049366 0.157548 0 0
    0 18.307623 -18.173677 121.378598 -0.839588 -0.084059 0.536681 0 0
    0 18.307624 -24.052790 3.935938 0.841887 0.042144 0.538005 0 0
  phy
    0 18.307623 -18.173677 121.378598 -0.839588 -0.084059 0.536681 0 0
    0 18.307624 -24.052795 121.378598 0.987173 -0.024705 0.157734 0 0
    0 18.307624 -24.052790 3.935938 0.841887 0.042144 0.538005 0 0
  phy
    0 18.307624 -24.052795 121.378598 0.987173 -0.024705 0.157734 0 0
    0 -0.092027 -24.052790 3.935938 0.951463 0.047623 -0.304056 0 0
    0 18.307624 -24.052790 3.935938 0.841887 0.042144 0.538005 0 0
  phy
    0 18.307624 -24.052795 121.378598 0.987173 -0.024705 0.157734 0 0
    0 -0.092027 -24.052795 121.410297 0.948303 -0.094917 -0.302841 0 0
    0 -0.092027 -24.052790 3.935938 0.951463 0.047623 -0.304056 0 0
  phy
    0 18.307624 -24.052790 3.935938 0.841887 0.042144 0.538005 0 0
    0 -0.092027 -24.052790 3.935938 0.951463 0.047623 -0.304056 0 0
    0 18.307623 -18.173673 3.935938 -0.986277 0.049366 0.157548 0 0
  phy
    0 18.307623 -18.173677 121.378598 -0.839588 -0.084059 0.536681 0 0
    0 -0.092027 -24.052795 121.410297 0.948303 -0.094917 -0.302841 0 0
    0 18.307624 -24.052795 121.378598 0.987173 -0.024705 0.157734 0 0
  phy
    0 18.307623 -18.173677 121.378598 -0.839588 -0.084059 0.536681 0 0
    0 -0.092027 -18.173677 121.410297 -0.952285 -0.023832 -0.304277 0 0
    0 -0.092027 -24.052795 121.410297 0.948303 -0.094917 -0.302841 0 0
  phy
    0 -0.092027 -18.173677 121.410297 -0.952285 -0.023832 -0.304277 0 0
    0 18.307623 -18.173677 121.378598 -0.839588 -0.084059 0.536681 0 0
    0 18.307623 -18.173673 3.935938 -0.986277 0.049366 0.157548 0 0
  phy
    0 -0.092027 -18.173677 121.410297 -0.952285 -0.023832 -0.304277 0 0
    0 -0.092027 -18.173673 3.935938 -0.951475 0.047617 -0.304019 0 0
    0 -0.092027 -24.052790 3.935938 0.951463 0.047623 -0.304056 0 0
  phy
    0 -0.092027 -18.173677 121.410297 -0.952285 -0.023832 -0.304277 0 0
    0 -0.092027 -24.052790 3.935938 0.951463 0.047623 -0.304056 0 0
    0 -0.092027 -24.052795 121.410297 0.948303 -0.094917 -0.302841 0 0
  phy
    0 -0.092027 -24.052790 3.935938 0.951463 0.047623 -0.304056 0 0
    0 -0.092027 -18.173673 3.935938 -0.951475 0.047617 -0.304019 0 0
    0 18.307623 -18.173673 3.935938 -0.986277 0.049366 0.157548 0 0
  phy
    0 -0.092027 -18.173673 3.935938 -0.951475 0.047617 -0.304019 0 0
    0 -0.092027 -18.173677 121.410297 -0.952285 -0.023832 -0.304277 0 0
    0 18.307623 -18.173673 3.935938 -0.986277 0.049366 0.157548 0 0
  phy
    0 18.307626 -70.872466 121.608381 0.170265 -0.882744 0.437918 0 0
    0 -0.092025 -70.872466 117.060312 0.093178 0.966170 -0.240484 0 0
    0 18.307626 -70.872466 117.060312 0.092895 0.966585 0.238923 0 0
  phy
    0 18.307626 -70.872466 121.608381 0.170265 -0.882744 0.437918 0 0
    0 -0.092025 -70.872466 121.640070 0.047972 -0.991410 -0.121676 0 0
    0 -0.092025 -70.872466 117.060312 0.093178 0.966170 -0.240484 0 0
  phy
    0 18.307624 -23.549056 117.060312 -0.046598 0.969728 0.239700 0 0
    0 18.307626 -70.872466 117.060312 0.092895 0.966585 0.238923 0 0
    0 -0.092025 -70.872466 117.060312 0.093178 0.966170 -0.240484 0 0
  phy
    0 18.307624 -23.549056 117.060312 -0.046598 0.969728 0.239700 0 0
    0 -0.092025 -70.872466 117.060312 0.093178 0.966170 -0.240484 0 0
    0 -0.092027 -23.549056 117.060312 -0.183976 0.953828 -0.237412 0 0
  phy
    0 18.307624 -23.549056 117.060312 -0.046598 0.969728 0.239700 0 0
    0 18.307626 -70.872466 121.608381 0.170265 -0.882744 0.437918 0 0
    0 18.307626 -70.872466 117.060312 0.092895 0.966585 0.238923 0 0
  phy
    0 18.307624 -23.549056 117.060312 -0.046598 0.969728 0.239700 0 0
    0 -0.092027 -23.549056 117.060312 -0.183976 0.953828 -0.237412 0 0
    0 18.307624 -23.549056 121.608381 -0.095257 -0.987728 0.123776 0 0
  phy
    0 18.307624 -23.549056 121.608381 -0.095257 -0.987728 0.123776 0 0
    0 -0.092027 -23.549056 117.060312 -0.183976 0.953828 -0.237412 0 0
    0 -0.092027 -23.549056 121.640070 -0.086370 -0.892477 -0.442746 0 0
  phy
    0 18.307624 -23.549056 121.608381 -0.095257 -0.987728 0.123776 0 0
    0 -0.092025 -70.872466 121.640070 0.047972 -0.991410 -0.121676 0 0
    0 18.307626 -70.872466 121.608381 0.170265 -0.882744 0.437918 0 0
  phy
    0 18.307624 -23.549056 121.608381 -0.095257 -0.987728 0.123776 0 0
    0 -0.092027 -23.549056 121.640070 -0.086370 -0.892477 -0.442746 0 0
    0 -0.092025 -70.872466 121.640070 0.047972 -0.991410 -0.121676 0 0
  phy
    0 18.307624 -23.549056 121.608381 -0.095257 -0.987728 0.123776 0 0
    0 18.307626 -70.872466 121.608381 0.170265 -0.882744 0.437918 0 0
    0 18.307624 -23.549056 117.060312 -0.046598 0.969728 0.239700 0 0
  phy
    0 -0.092027 -23.549056 121.640070 -0.086370 -0.892477 -0.442746 0 0
    0 -0.092027 -23.549056 117.060312 -0.183976 0.953828 -0.237412 0 0
    0 -0.092025 -70.872466 117.060312 0.093178 0.966170 -0.240484 0 0
  phy
    0 -0.092027 -23.549056 121.640070 -0.086370 -0.892477 -0.442746 0 0
    0 -0.092025 -70.872466 117.060312 0.093178 0.966170 -0.240484 0 0
    0 -0.092025 -70.872466 121.640070 0.047972 -0.991410 -0.121676 0 0
  phy
    0 23.215918 -82.678232 2.294267 0.019547 -0.828500 0.559649 0 0
    0 23.087521 -11.258657 2.405096 -0.010529 -0.917371 0.397894 0 0
    0 12.766878 -82.678232 6.006686 0.039852 -0.981518 0.187175 0 0
  phy
    0 12.766878 -82.678232 6.006686 0.039852 -0.981518 0.187175 0 0
    0 23.126818 -82.678232 0.693566 0.128925 0.989986 0.057505 0 0
    0 23.215918 -82.678232 2.294267 0.019547 -0.828500 0.559649 0 0
  phy
    0 23.215918 -82.678232 2.294267 0.019547 -0.828500 0.559649 0 0
    0 23.126813 -11.258657 0.693570 -0.065177 0.996071 0.059962 0 0
    0 23.087521 -11.258657 2.405096 -0.010529 -0.917371 0.397894 0 0
  phy
    0 23.126818 -82.678232 0.693566 0.128925 0.989986 0.057505 0 0
    0 23.126813 -11.258657 0.693570 -0.065177 0.996071 0.059962 0 0
    0 23.215918 -82.678232 2.294267 0.019547 -0.828500 0.559649 0 0
  phy
    0 -4.943618 -11.258657 6.030842 -0.164044 -0.841849 -0.514179 0 0
    0 -4.856136 -82.678232 0.663648 0.036774 0.981735 -0.186666 0 0
    0 -4.943615 -82.678232 6.030839 0.095195 -0.984368 -0.148181 0 0
  phy
    0 -4.943618 -11.258657 6.030842 -0.164044 -0.841849 -0.514179 0 0
    0 -4.856139 -11.258657 0.663652 -0.073400 0.979750 -0.186288 0 0
    0 -4.856136 -82.678232 0.663648 0.036774 0.981735 -0.186666 0 0
  phy
    0 -4.943618 -11.258657 6.030842 -0.164044 -0.841849 -0.514179 0 0
    0 -4.943615 -82.678232 6.030839 0.095195 -0.984368 -0.148181 0 0
    0 12.766877 -11.258657 6.006689 -0.033963 -0.996257 0.079495 0 0
  phy
    0 -4.943618 -11.258657 6.030842 -0.164044 -0.841849 -0.514179 0 0
    0 12.766877 -11.258657 6.006689 -0.033963 -0.996257 0.079495 0 0
    0 23.126813 -11.258657 0.693570 -0.065177 0.996071 0.059962 0 0
  phy
    0 -4.856139 -11.258657 0.663652 -0.073400 0.979750 -0.186288 0 0
    0 -4.943618 -11.258657 6.030842 -0.164044 -0.841849 -0.514179 0 0
    0 23.126813 -11.258657 0.693570 -0.065177 0.996071 0.059962 0 0
  phy
    0 23.087521 -11.258657 2.405096 -0.010529 -0.917371 0.397894 0 0
    0 12.766877 -11.258657 6.006689 -0.033963 -0.996257 0.079495 0 0
    0 12.766878 -82.678232 6.006686 0.039852 -0.981518 0.187175 0 0
  phy
    0 12.766877 -11.258657 6.006689 -0.033963 -0.996257 0.079495 0 0
    0 -4.943615 -82.678232 6.030839 0.095195 -0.984368 -0.148181 0 0
    0 12.766878 -82.678232 6.006686 0.039852 -0.981518 0.187175 0 0
  phy
    0 -4.943615 -82.678232 6.030839 0.095195 -0.984368 -0.148181 0 0
    0 23.126818 -82.678232 0.693566 0.128925 0.989986 0.057505 0 0
    0 12.766878 -82.678232 6.006686 0.039852 -0.981518 0.187175 0 0
  phy
    0 12.766877 -11.258657 6.006689 -0.033963 -0.996257 0.079495 0 0
    0 23.087521 -11.258657 2.405096 -0.010529 -0.917371 0.397894 0 0
    0 23.126813 -11.258657 0.693570 -0.065177 0.996071 0.059962 0 0
  phy
    0 -4.856136 -82.678232 0.663648 0.036774 0.981735 -0.186666 0 0
    0 -4.856139 -11.258657 0.663652 -0.073400 0.979750 -0.186288 0 0
    0 23.126813 -11.258657 0.693570 -0.065177 0.996071 0.059962 0 0
  phy
    0 -4.856136 -82.678232 0.663648 0.036774 0.981735 -0.186666 0 0
    0 23.126813 -11.258657 0.693570 -0.065177 0.996071 0.059962 0 0
    0 23.126818 -82.678232 0.693566 0.128925 0.989986 0.057505 0 0
  phy
    0 -4.856136 -82.678232 0.663648 0.036774 0.981735 -0.186666 0 0
    0 23.126818 -82.678232 0.693566 0.128925 0.989986 0.057505 0 0
    0 -4.943615 -82.678232 6.030839 0.095195 -0.984368 -0.148181 0 0
end
