// Created by Crowbar 0.74
version 1
nodes
  0 "static_prop" -1
end
skeleton
  time 0
    0 0.000000 0.000000 0.000000 0.000000 0.000000 0.000000
end
triangles
hotel_window
  0 9.085896 -68.817802 89.291336 0.000000 0.000000 -1.000000 0.906157 0.675100 1 0 1.000000
  0 12.392367 -25.843763 89.291336 0.000000 0.000000 -1.000000 0.948380 0.282337 1 0 1.000000
  0 12.392369 -68.817802 89.291336 0.000000 0.000000 -1.000000 0.948380 0.675100 1 0 1.000000
hotel_window
  0 9.085894 -25.843763 89.291336 0.000000 0.000000 -1.000000 0.906157 0.282337 1 0 1.000000
  0 12.392367 -25.843763 89.291336 0.000000 0.000000 -1.000000 0.948380 0.282337 1 0 1.000000
  0 9.085896 -68.817802 89.291336 0.000000 0.000000 -1.000000 0.906157 0.675100 1 0 1.000000
hotel_window
  0 9.085896 -68.817802 92.234230 0.000000 0.000000 1.000000 0.905324 0.675312 1 0 1.000000
  0 12.392369 -68.817802 92.234230 0.000000 0.000000 1.000000 0.949446 0.675313 1 0 1.000000
  0 9.085894 -25.843763 92.234230 0.000000 0.000000 1.000000 0.905324 0.282549 1 0 1.000000
hotel_window
  0 9.085894 -25.843763 92.234230 0.000000 0.000000 1.000000 0.905324 0.282549 1 0 1.000000
  0 12.392369 -68.817802 92.234230 0.000000 0.000000 1.000000 0.949446 0.675313 1 0 1.000000
  0 12.392367 -25.843763 92.234230 0.000000 0.000000 1.000000 0.949446 0.282549 1 0 1.000000
hotel_window
  0 12.877301 -68.598251 114.658165 0.000000 1.000000 0.000000 0.949192 0.942649 1 0 1.000000
  0 12.877301 -68.598244 7.961189 0.000000 1.000000 0.000000 0.949192 0.054931 1 0 1.000000
  0 8.751246 -68.598251 114.658165 0.000000 1.000000 0.000000 0.905226 0.942649 1 0 1.000000
hotel_window
  0 8.751246 -68.598251 114.658165 0.000000 1.000000 0.000000 0.905226 0.942649 1 0 1.000000
  0 12.877301 -68.598244 7.961189 0.000000 1.000000 0.000000 0.949192 0.054931 1 0 1.000000
  0 8.751246 -68.598244 7.961189 0.000000 1.000000 0.000000 0.905226 0.054931 1 0 1.000000
hotel_window
  0 12.877299 -25.988035 114.658165 0.000000 0.000000 -1.000000 0.949856 0.323675 1 0 1.000000
  0 12.877301 -68.598251 114.658165 0.000000 0.000000 -1.000000 0.949856 0.713159 1 0 1.000000
  0 8.751245 -25.988035 114.658165 0.000000 0.000000 -1.000000 0.905675 0.323675 1 0 1.000000
hotel_window
  0 8.751245 -25.988035 114.658165 0.000000 0.000000 -1.000000 0.905675 0.323675 1 0 1.000000
  0 12.877301 -68.598251 114.658165 0.000000 0.000000 -1.000000 0.949856 0.713159 1 0 1.000000
  0 8.751246 -68.598251 114.658165 0.000000 0.000000 -1.000000 0.905675 0.713159 1 0 1.000000
hotel_window
  0 12.877299 -25.988031 7.961191 0.000000 -1.000000 0.000000 0.948564 0.055389 1 0 1.000000
  0 12.877299 -25.988035 114.658165 0.000000 -1.000000 0.000000 0.948564 0.943107 1 0 1.000000
  0 8.751245 -25.988031 7.961191 0.000000 -1.000000 0.000000 0.905539 0.055389 1 0 1.000000
hotel_window
  0 8.751245 -25.988031 7.961191 0.000000 -1.000000 0.000000 0.905539 0.055389 1 0 1.000000
  0 12.877299 -25.988035 114.658165 0.000000 -1.000000 0.000000 0.948564 0.943107 1 0 1.000000
  0 8.751245 -25.988035 114.658165 0.000000 -1.000000 0.000000 0.905539 0.943107 1 0 1.000000
hotel_window
  0 12.877301 -68.598244 7.961189 0.000000 0.000000 1.000000 0.949139 0.055922 1 0 1.000000
  0 12.877299 -25.988031 7.961191 0.000000 0.000000 1.000000 0.949140 0.445404 1 0 1.000000
  0 8.751246 -68.598244 7.961189 0.000000 0.000000 1.000000 0.905808 0.055922 1 0 1.000000
hotel_window
  0 8.751246 -68.598244 7.961189 0.000000 0.000000 1.000000 0.905808 0.055922 1 0 1.000000
  0 12.877299 -25.988031 7.961191 0.000000 0.000000 1.000000 0.949140 0.445404 1 0 1.000000
  0 8.751245 -25.988031 7.961191 0.000000 0.000000 1.000000 0.905808 0.445404 1 0 1.000000
hotel_window
  0 8.802297 -23.698088 116.840538 -0.999751 0.022288 0.000000 0.969231 0.962786 1 0 1.000000
  0 8.802297 -23.698084 5.778818 -0.999751 0.022288 0.000000 0.969231 0.035710 1 0 1.000000
  0 8.751245 -25.988035 114.658165 -0.999751 0.022288 0.000000 0.948583 0.943107 1 0 1.000000
hotel_window
  0 8.751245 -25.988035 114.658165 -0.999751 0.022288 0.000000 0.948583 0.943107 1 0 1.000000
  0 8.802297 -23.698084 5.778818 -0.999751 0.022288 0.000000 0.969231 0.035710 1 0 1.000000
  0 8.751245 -25.988031 7.961191 -0.999751 0.022288 0.000000 0.948583 0.055389 1 0 1.000000
hotel_window
  0 8.802299 -70.888229 116.840538 -0.999726 0.000000 0.023387 0.968909 0.733809 1 0 1.000000
  0 8.802297 -23.698088 116.840538 -0.999726 0.000000 0.023387 0.968909 0.303026 1 0 1.000000
  0 8.751246 -68.598251 114.658165 -0.999726 0.000000 0.023387 0.949229 0.713159 1 0 1.000000
hotel_window
  0 8.751246 -68.598251 114.658165 -0.999726 0.000000 0.023387 0.949229 0.713159 1 0 1.000000
  0 8.802297 -23.698088 116.840538 -0.999726 0.000000 0.023387 0.968909 0.303026 1 0 1.000000
  0 8.751245 -25.988035 114.658165 -0.999726 0.000000 0.023387 0.949229 0.323675 1 0 1.000000
hotel_window
  0 8.802299 -70.888222 5.778816 -0.999751 -0.022288 0.000000 0.968680 0.035252 1 0 1.000000
  0 8.802299 -70.888229 116.840538 -0.999751 -0.022288 0.000000 0.968680 0.962328 1 0 1.000000
  0 8.751246 -68.598244 7.961189 -0.999751 -0.022288 0.000000 0.949192 0.054931 1 0 1.000000
hotel_window
  0 8.751246 -68.598244 7.961189 -0.999751 -0.022288 0.000000 0.949192 0.054931 1 0 1.000000
  0 8.802299 -70.888229 116.840538 -0.999751 -0.022288 0.000000 0.968680 0.962328 1 0 1.000000
  0 8.751246 -68.598251 114.658165 -0.999751 -0.022288 0.000000 0.949192 0.942649 1 0 1.000000
hotel_window
  0 8.802297 -23.698084 5.778818 -0.999726 0.000000 -0.023387 0.968848 0.466053 1 0 1.000000
  0 8.802299 -70.888222 5.778816 -0.999726 0.000000 -0.023387 0.968849 0.035272 1 0 1.000000
  0 8.751245 -25.988031 7.961191 -0.999726 0.000000 -0.023387 0.949169 0.445404 1 0 1.000000
hotel_window
  0 8.751245 -25.988031 7.961191 -0.999726 0.000000 -0.023387 0.949169 0.445404 1 0 1.000000
  0 8.802299 -70.888222 5.778816 -0.999726 0.000000 -0.023387 0.968849 0.035272 1 0 1.000000
  0 8.751246 -68.598244 7.961189 -0.999726 0.000000 -0.023387 0.949170 0.055922 1 0 1.000000
hotel_window
  0 12.877301 -70.888222 5.379081 1.000000 0.000000 0.000000 0.969430 0.031647 1 0 1.000000
  0 12.877301 -68.598244 7.961189 1.000000 0.000000 0.000000 0.949473 0.054931 1 0 1.000000
  0 12.877301 -70.888229 116.840538 1.000000 0.000000 0.000000 0.969430 0.962329 1 0 1.000000
hotel_window
  0 12.877301 -70.888229 116.840538 1.000000 0.000000 0.000000 0.969430 0.962329 1 0 1.000000
  0 12.877301 -68.598244 7.961189 1.000000 0.000000 0.000000 0.949473 0.054931 1 0 1.000000
  0 12.877301 -68.598251 114.658165 1.000000 0.000000 0.000000 0.949473 0.942649 1 0 1.000000
hotel_window
  0 12.877299 -23.698088 116.840538 1.000000 0.000000 0.000000 0.969456 0.303026 1 0 1.000000
  0 12.877301 -70.888229 116.840538 1.000000 0.000000 0.000000 0.969456 0.733808 1 0 1.000000
  0 12.877299 -25.988035 114.658165 1.000000 0.000000 0.000000 0.949856 0.323675 1 0 1.000000
hotel_window
  0 12.877299 -25.988035 114.658165 1.000000 0.000000 0.000000 0.949856 0.323675 1 0 1.000000
  0 12.877301 -70.888229 116.840538 1.000000 0.000000 0.000000 0.969456 0.733808 1 0 1.000000
  0 12.877301 -68.598251 114.658165 1.000000 0.000000 0.000000 0.949856 0.713159 1 0 1.000000
hotel_window
  0 12.877299 -23.698084 5.379083 1.000000 0.000000 0.000000 0.969213 0.032106 1 0 1.000000
  0 12.877299 -23.698088 116.840538 1.000000 0.000000 0.000000 0.969213 0.962786 1 0 1.000000
  0 12.877299 -25.988031 7.961191 1.000000 0.000000 0.000000 0.948564 0.055389 1 0 1.000000
hotel_window
  0 12.877299 -25.988031 7.961191 1.000000 0.000000 0.000000 0.948564 0.055389 1 0 1.000000
  0 12.877299 -23.698088 116.840538 1.000000 0.000000 0.000000 0.969213 0.962786 1 0 1.000000
  0 12.877299 -25.988035 114.658165 1.000000 0.000000 0.000000 0.948564 0.943107 1 0 1.000000
hotel_window
  0 12.877301 -70.888222 5.379081 1.000000 0.000000 0.000000 0.969373 0.035273 1 0 1.000000
  0 12.877299 -23.698084 5.379083 1.000000 0.000000 0.000000 0.969374 0.466053 1 0 1.000000
  0 12.877301 -68.598244 7.961189 1.000000 0.000000 0.000000 0.949139 0.055922 1 0 1.000000
hotel_window
  0 12.877301 -68.598244 7.961189 1.000000 0.000000 0.000000 0.949139 0.055922 1 0 1.000000
  0 12.877299 -23.698084 5.379083 1.000000 0.000000 0.000000 0.969374 0.466053 1 0 1.000000
  0 12.877299 -25.988031 7.961191 1.000000 0.000000 0.000000 0.949140 0.445404 1 0 1.000000
hotel_window
  0 18.041277 -70.809547 2.948120 0.000000 1.000000 0.000000 0.059820 0.006184 1 0 1.000000
  0 0.149549 -70.809563 5.493683 0.000000 1.000000 0.000000 0.271496 0.029139 1 0 1.000000
  0 18.041277 -70.809555 116.723457 0.000000 1.000000 0.000000 0.059820 0.957732 1 0 1.000000
hotel_window
  0 18.041277 -70.809555 116.723457 0.000000 1.000000 0.000000 0.059820 0.957732 1 0 1.000000
  0 0.149549 -70.809563 5.493683 0.000000 1.000000 0.000000 0.271496 0.029139 1 0 1.000000
  0 0.149549 -70.809540 116.723457 0.000000 1.000000 0.000000 0.271496 0.957731 1 0 1.000000
hotel_window
  0 18.041275 -23.830198 116.723457 0.000000 0.000000 -1.000000 0.059642 0.520377 1 0 1.000000
  0 18.041277 -70.809555 116.723457 0.000000 0.000000 -1.000000 0.059642 0.953170 1 0 1.000000
  0 0.149547 -23.830185 116.723457 0.000000 0.000000 -1.000000 0.271320 0.520377 1 0 1.000000
hotel_window
  0 0.149547 -23.830185 116.723457 0.000000 0.000000 -1.000000 0.271320 0.520377 1 0 1.000000
  0 18.041277 -70.809555 116.723457 0.000000 0.000000 -1.000000 0.059642 0.953170 1 0 1.000000
  0 0.149549 -70.809540 116.723457 0.000000 0.000000 -1.000000 0.271320 0.953170 1 0 1.000000
hotel_window
  0 18.041275 -23.830194 2.948122 0.000000 -1.000000 0.000000 0.059653 0.006060 1 0 1.000000
  0 18.041275 -23.830198 116.723457 0.000000 -1.000000 0.000000 0.059653 0.957607 1 0 1.000000
  0 0.149547 -23.830210 5.493685 0.000000 -1.000000 0.000000 0.271330 0.029015 1 0 1.000000
hotel_window
  0 0.149547 -23.830210 5.493685 0.000000 -1.000000 0.000000 0.271330 0.029015 1 0 1.000000
  0 18.041275 -23.830198 116.723457 0.000000 -1.000000 0.000000 0.059653 0.957607 1 0 1.000000
  0 0.149547 -23.830185 116.723457 0.000000 -1.000000 0.000000 0.271330 0.957608 1 0 1.000000
hotel_window
  0 0.125466 -18.295670 121.200859 -0.999994 -0.002175 -0.002689 0.314552 0.997981 1 0 1.000000
  0 0.125466 -18.295664 5.526956 -0.999990 -0.004351 0.000000 0.314552 0.029315 1 0 1.000000
  0 0.149547 -23.830185 116.723457 -0.999994 -0.002175 -0.002689 0.271330 0.957608 1 0 1.000000
hotel_window
  0 0.149547 -23.830185 116.723457 -0.999994 -0.002175 -0.002689 0.271330 0.957608 1 0 1.000000
  0 0.125466 -18.295664 5.526956 -0.999990 -0.004351 0.000000 0.314552 0.029315 1 0 1.000000
  0 0.149547 -23.830210 5.493685 -0.999990 -0.004351 0.000000 0.271330 0.029015 1 0 1.000000
hotel_window
  0 0.125466 -18.295670 121.200859 -0.999994 -0.002175 -0.002689 0.314622 0.477179 1 0 1.000000
  0 0.149547 -23.830185 116.723457 -0.999994 -0.002175 -0.002689 0.271320 0.520377 1 0 1.000000
  0 0.125468 -76.119980 121.200859 -0.999994 0.002267 -0.002689 0.314622 0.992456 1 0 1.000000
hotel_window
  0 0.125468 -76.119980 121.200859 -0.999994 0.002267 -0.002689 0.314622 0.992456 1 0 1.000000
  0 0.149547 -23.830185 116.723457 -0.999994 -0.002175 -0.002689 0.271320 0.520377 1 0 1.000000
  0 0.149549 -70.809540 116.723457 -0.999994 0.002267 -0.002689 0.271320 0.953170 1 0 1.000000
hotel_window
  0 0.125468 -76.119980 121.200859 -0.999994 0.002267 -0.002689 0.314695 0.998105 1 0 1.000000
  0 0.149549 -70.809540 116.723457 -0.999994 0.002267 -0.002689 0.271496 0.957731 1 0 1.000000
  0 0.125468 -76.119972 5.526954 -0.999990 0.004534 0.000000 0.314694 0.029439 1 0 1.000000
hotel_window
  0 0.125468 -76.119972 5.526954 -0.999990 0.004534 0.000000 0.314694 0.029439 1 0 1.000000
  0 0.149549 -70.809540 116.723457 -0.999994 0.002267 -0.002689 0.271496 0.957731 1 0 1.000000
  0 0.149549 -70.809563 5.493683 -0.999990 0.004534 0.000000 0.271496 0.029139 1 0 1.000000
hotel_window
  0 18.041277 -76.119980 121.200859 1.000000 0.000000 0.000000 0.017462 0.998105 1 0 1.000000
  0 18.041277 -76.119972 2.981392 1.000000 0.000000 0.000000 0.017462 0.006484 1 0 1.000000
  0 18.041277 -70.809555 116.723457 1.000000 0.000000 0.000000 0.059820 0.957732 1 0 1.000000
hotel_window
  0 18.041277 -70.809555 116.723457 1.000000 0.000000 0.000000 0.059820 0.957732 1 0 1.000000
  0 18.041277 -76.119972 2.981392 1.000000 0.000000 0.000000 0.017462 0.006484 1 0 1.000000
  0 18.041277 -70.809547 2.948120 1.000000 0.000000 0.000000 0.059820 0.006184 1 0 1.000000
hotel_window
  0 18.041273 -18.295668 121.200859 1.000000 0.000000 0.000000 0.017316 0.477179 1 0 1.000000
  0 18.041277 -76.119980 121.200859 1.000000 0.000000 0.000000 0.017316 0.992455 1 0 1.000000
  0 18.041275 -23.830198 116.723457 1.000000 0.000000 0.000000 0.059642 0.520377 1 0 1.000000
hotel_window
  0 18.041275 -23.830198 116.723457 1.000000 0.000000 0.000000 0.059642 0.520377 1 0 1.000000
  0 18.041277 -76.119980 121.200859 1.000000 0.000000 0.000000 0.017316 0.992455 1 0 1.000000
  0 18.041277 -70.809555 116.723457 1.000000 0.000000 0.000000 0.059642 0.953170 1 0 1.000000
hotel_window
  0 18.041273 -18.295668 121.200859 1.000000 0.000000 0.000000 0.017296 0.997981 1 0 1.000000
  0 18.041275 -23.830198 116.723457 1.000000 0.000000 0.000000 0.059653 0.957607 1 0 1.000000
  0 18.041273 -18.295664 2.981394 1.000000 0.000000 0.000000 0.017296 0.006361 1 0 1.000000
hotel_window
  0 18.041273 -18.295664 2.981394 1.000000 0.000000 0.000000 0.017296 0.006361 1 0 1.000000
  0 18.041275 -23.830198 116.723457 1.000000 0.000000 0.000000 0.059653 0.957607 1 0 1.000000
  0 18.041275 -23.830194 2.948122 1.000000 0.000000 0.000000 0.059653 0.006060 1 0 1.000000
hotel_window
  0 0.125466 -18.295670 121.200859 0.000000 1.000000 0.000000 0.271476 0.951629 1 0 1.000000
  0 18.041273 -18.295668 121.200859 0.000000 1.000000 0.000000 0.059622 0.951782 1 0 1.000000
  0 0.125466 -18.295664 5.526956 0.000000 1.000000 0.000000 0.271476 0.043222 1 0 1.000000
hotel_window
  0 0.125466 -18.295664 5.526956 0.000000 1.000000 0.000000 0.271476 0.043222 1 0 1.000000
  0 18.041273 -18.295668 121.200859 0.000000 1.000000 0.000000 0.059622 0.951782 1 0 1.000000
  0 18.041273 -18.295664 2.981394 0.000000 1.000000 0.000000 0.059622 0.042298 1 0 1.000000
hotel_window
  0 0.125468 -76.119980 121.200859 0.000000 0.000000 1.000000 0.271257 0.951678 1 0 1.000000
  0 18.041277 -76.119980 121.200859 0.000000 0.000000 1.000000 0.059631 0.951678 1 0 1.000000
  0 0.125466 -18.295670 121.200859 0.000000 0.000000 1.000000 0.271257 0.481925 1 0 1.000000
hotel_window
  0 0.125466 -18.295670 121.200859 0.000000 0.000000 1.000000 0.271257 0.481925 1 0 1.000000
  0 18.041277 -76.119980 121.200859 0.000000 0.000000 1.000000 0.059631 0.951678 1 0 1.000000
  0 18.041273 -18.295668 121.200859 0.000000 0.000000 1.000000 0.059631 0.481925 1 0 1.000000
hotel_window
  0 18.041277 -76.119972 2.981392 0.000000 -1.000000 0.000000 0.059698 0.042303 1 0 1.000000
  0 18.041277 -76.119980 121.200859 0.000000 -1.000000 0.000000 0.059698 0.951784 1 0 1.000000
  0 0.125468 -76.119972 5.526954 0.000000 -1.000000 0.000000 0.271265 0.043227 1 0 1.000000
hotel_window
  0 0.125468 -76.119972 5.526954 0.000000 -1.000000 0.000000 0.271265 0.043227 1 0 1.000000
  0 18.041277 -76.119980 121.200859 0.000000 -1.000000 0.000000 0.059698 0.951784 1 0 1.000000
  0 0.125468 -76.119980 121.200859 0.000000 -1.000000 0.000000 0.271265 0.951632 1 0 1.000000
hotel_window
  0 -4.951010 -82.671959 2.334853 -0.067738 0.000000 -0.997703 0.617007 0.615656 1 0 1.000000
  0 -4.951014 -11.435328 2.334857 -0.067738 0.000000 -0.997703 0.617007 0.412545 1 0 1.000000
  0 23.353130 -82.671959 0.413184 -0.067738 0.000000 -0.997703 0.719263 0.615656 1 0 1.000000
hotel_window
  0 23.353130 -82.671959 0.413184 -0.067738 0.000000 -0.997703 0.719263 0.615656 1 0 1.000000
  0 -4.951014 -11.435328 2.334857 -0.067738 0.000000 -0.997703 0.617007 0.412545 1 0 1.000000
  0 23.353127 -11.435327 0.413188 -0.067738 0.000000 -0.997703 0.719263 0.412545 1 0 1.000000
hotel_window
  0 23.353130 -82.671959 2.135604 1.000000 0.000000 0.000000 0.838049 0.987359 1 0 1.000000
  0 23.353130 -82.671959 0.413184 1.000000 0.000000 0.000000 0.863013 0.987613 1 0 1.000000
  0 23.353127 -11.435327 2.135607 1.000000 0.000000 0.000000 0.838136 0.056905 1 0 1.000000
hotel_window
  0 23.353127 -11.435327 2.135607 1.000000 0.000000 0.000000 0.838136 0.056905 1 0 1.000000
  0 23.353130 -82.671959 0.413184 1.000000 0.000000 0.000000 0.863013 0.987613 1 0 1.000000
  0 23.353127 -11.435327 0.413188 1.000000 0.000000 0.000000 0.863013 0.056619 1 0 1.000000
hotel_window
  0 9.085894 -25.843763 89.291336 -1.000000 0.000000 0.000000 0.968983 0.282337 1 0 1.000000
  0 9.085896 -68.817802 89.291336 -1.000000 0.000000 0.000000 0.968983 0.675100 1 0 1.000000
  0 9.085894 -25.843763 92.234230 -1.000000 0.000000 0.000000 0.948470 0.282337 1 0 1.000000
hotel_window
  0 9.085894 -25.843763 92.234230 -1.000000 0.000000 0.000000 0.948470 0.282337 1 0 1.000000
  0 9.085896 -68.817802 89.291336 -1.000000 0.000000 0.000000 0.968983 0.675100 1 0 1.000000
  0 9.085896 -68.817802 92.234230 -1.000000 0.000000 0.000000 0.948470 0.675100 1 0 1.000000
hotel_window
  0 12.392369 -68.817802 89.291336 1.000000 0.000000 0.000000 0.968924 0.675312 1 0 1.000000
  0 12.392367 -25.843763 89.291336 1.000000 0.000000 0.000000 0.968924 0.282549 1 0 1.000000
  0 12.392369 -68.817802 92.234230 1.000000 0.000000 0.000000 0.949446 0.675313 1 0 1.000000
hotel_window
  0 12.392369 -68.817802 92.234230 1.000000 0.000000 0.000000 0.949446 0.675313 1 0 1.000000
  0 12.392367 -25.843763 89.291336 1.000000 0.000000 0.000000 0.968924 0.282549 1 0 1.000000
  0 12.392367 -25.843763 92.234230 1.000000 0.000000 0.000000 0.949446 0.282549 1 0 1.000000
hotel_window
  0 23.353127 -11.435327 0.413188 0.000000 1.000000 0.000000 0.834750 0.012180 1 0 1.000000
  0 -4.951014 -11.435328 2.334857 0.000000 1.000000 0.000000 0.389474 0.033710 1 0 1.000000
  0 23.353127 -11.435327 2.135607 0.000000 1.000000 0.000000 0.838136 0.056905 1 0 1.000000
hotel_window
  0 23.353127 -11.435327 2.135607 0.000000 1.000000 0.000000 0.838136 0.056905 1 0 1.000000
  0 -4.951014 -11.435328 2.334857 0.000000 1.000000 0.000000 0.389474 0.033710 1 0 1.000000
  0 11.690110 -11.435328 5.988925 0.000000 1.000000 0.000000 0.689480 0.080631 1 0 1.000000
hotel_window
  0 -4.951014 -11.435328 2.334857 0.000000 1.000000 0.000000 0.389474 0.033710 1 0 1.000000
  0 -4.951014 -11.435328 4.580066 0.000000 1.000000 0.000000 0.386503 0.070434 1 0 1.000000
  0 11.690110 -11.435328 5.988925 0.000000 1.000000 0.000000 0.689480 0.080631 1 0 1.000000
hotel_window
  0 -4.951014 -11.435328 4.580066 0.000000 1.000000 0.000000 0.386503 0.070434 1 0 1.000000
  0 -3.245631 -11.435328 5.988925 0.000000 1.000000 0.000000 0.410552 0.079176 1 0 1.000000
  0 11.690110 -11.435328 5.988925 0.000000 1.000000 0.000000 0.689480 0.080631 1 0 1.000000
hotel_window
  0 23.353127 -11.435327 2.135607 0.313709 0.000000 0.949519 0.838136 0.056905 1 0 1.000000
  0 11.690113 -82.671959 5.988921 0.158873 0.000000 0.987299 0.689442 0.963446 1 0 1.000000
  0 23.353130 -82.671959 2.135604 0.313709 0.000000 0.949519 0.838049 0.987359 1 0 1.000000
hotel_window
  0 11.690110 -11.435328 5.988925 0.158873 0.000000 0.987299 0.689480 0.080631 1 0 1.000000
  0 11.690113 -82.671959 5.988921 0.158873 0.000000 0.987299 0.689442 0.963446 1 0 1.000000
  0 23.353127 -11.435327 2.135607 0.313709 0.000000 0.949519 0.838136 0.056905 1 0 1.000000
hotel_window
  0 11.690110 -11.435328 5.988925 0.158873 0.000000 0.987299 0.689480 0.080631 1 0 1.000000
  0 -3.245628 -82.671959 5.988921 -0.338418 0.000000 0.940996 0.410380 0.964480 1 0 1.000000
  0 11.690113 -82.671959 5.988921 0.158873 0.000000 0.987299 0.689442 0.963446 1 0 1.000000
hotel_window
  0 -3.245631 -11.435328 5.988925 -0.338418 0.000000 0.940996 0.410552 0.079176 1 0 1.000000
  0 -3.245628 -82.671959 5.988921 -0.338418 0.000000 0.940996 0.410380 0.964480 1 0 1.000000
  0 11.690110 -11.435328 5.988925 0.158873 0.000000 0.987299 0.689480 0.080631 1 0 1.000000
hotel_window
  0 -4.951014 -11.435328 4.580066 -0.904682 0.000000 0.426087 0.386503 0.070434 1 0 1.000000
  0 -3.245628 -82.671959 5.988921 -0.338418 0.000000 0.940996 0.410380 0.964480 1 0 1.000000
  0 -3.245631 -11.435328 5.988925 -0.338418 0.000000 0.940996 0.410552 0.079176 1 0 1.000000
hotel_window
  0 -4.951010 -82.671959 4.580062 -0.904682 0.000000 0.426087 0.386133 0.972595 1 0 1.000000
  0 -3.245628 -82.671959 5.988921 -0.338418 0.000000 0.940996 0.410380 0.964480 1 0 1.000000
  0 -4.951014 -11.435328 4.580066 -0.904682 0.000000 0.426087 0.386503 0.070434 1 0 1.000000
hotel_window
  0 -4.951014 -11.435328 4.580066 -0.904682 0.000000 0.426087 0.386503 0.070434 1 0 1.000000
  0 -4.951010 -82.671959 2.334853 -1.000000 0.000000 0.000000 0.355200 0.971517 1 0 1.000000
  0 -4.951010 -82.671959 4.580062 -0.904682 0.000000 0.426087 0.386133 0.972595 1 0 1.000000
hotel_window
  0 -4.951014 -11.435328 2.334857 -1.000000 0.000000 0.000000 0.355809 0.070879 1 0 1.000000
  0 -4.951010 -82.671959 2.334853 -1.000000 0.000000 0.000000 0.355200 0.971517 1 0 1.000000
  0 -4.951014 -11.435328 4.580066 -0.904682 0.000000 0.426087 0.386503 0.070434 1 0 1.000000
hotel_window
  0 23.353130 -82.671959 0.413184 0.000000 -1.000000 0.000000 0.834850 0.011867 1 0 1.000000
  0 23.353130 -82.671959 2.135604 0.000000 -1.000000 0.000000 0.838355 0.056624 1 0 1.000000
  0 -4.951010 -82.671959 2.334853 0.000000 -1.000000 0.000000 0.389606 0.034069 1 0 1.000000
hotel_window
  0 23.353130 -82.671959 2.135604 0.000000 -1.000000 0.000000 0.838355 0.056624 1 0 1.000000
  0 11.690113 -82.671959 5.988921 0.000000 -1.000000 0.000000 0.689749 0.080537 1 0 1.000000
  0 -4.951010 -82.671959 2.334853 0.000000 -1.000000 0.000000 0.389606 0.034069 1 0 1.000000
hotel_window
  0 -4.951010 -82.671959 2.334853 0.000000 -1.000000 0.000000 0.389606 0.034069 1 0 1.000000
  0 11.690113 -82.671959 5.988921 0.000000 -1.000000 0.000000 0.689749 0.080537 1 0 1.000000
  0 -4.951010 -82.671959 4.580062 0.000000 -1.000000 0.000000 0.386439 0.071389 1 0 1.000000
hotel_window
  0 11.690113 -82.671959 5.988921 0.000000 -1.000000 0.000000 0.689749 0.080537 1 0 1.000000
  0 -3.245628 -82.671959 5.988921 0.000000 -1.000000 0.000000 0.410687 0.079503 1 0 1.000000
  0 -4.951010 -82.671959 4.580062 0.000000 -1.000000 0.000000 0.386439 0.071389 1 0 1.000000
end
