// Created by Crowbar 0.74
version 1
nodes
  0 "static_prop" -1
end
skeleton
  time 0
    0 0.000000 0.000000 0.000000 0.000000 0.000000 0.000000
end
triangles
  phy
    0 2.299036 -5.379892 25.877218 -0.911002 -0.308835 0.273306 0 0
    0 -17.920223 -11.293694 54.410513 -0.876164 -0.477408 0.066465 0 0
    0 8.383970 -15.556345 43.706420 0.935552 0.311655 -0.166173 0 0
  phy
    0 -17.920223 -11.293694 54.410513 -0.876164 -0.477408 0.066465 0 0
    0 2.299036 -5.379892 25.877218 -0.911002 -0.308835 0.273306 0 0
    0 -16.123556 0.841465 17.024260 0.868832 0.393241 -0.300819 0 0
  phy
    0 8.383970 -15.556345 43.706420 0.935552 0.311655 -0.166173 0 0
    0 -16.123556 0.841465 17.024260 0.868832 0.393241 -0.300819 0 0
    0 2.299036 -5.379892 25.877218 -0.911002 -0.308835 0.273306 0 0
  phy
    0 -17.920223 -11.293694 54.410513 -0.876164 -0.477408 0.066465 0 0
    0 -16.123556 0.841465 17.024260 0.868832 0.393241 -0.300819 0 0
    0 8.383970 -15.556345 43.706420 0.935552 0.311655 -0.166173 0 0
  phy
    0 32.956112 2.512203 53.562682 -0.644514 -0.549366 -0.531787 0 0
    0 2.299036 -5.379892 25.877218 -0.656689 -0.396104 -0.641764 0 0
    0 8.383970 -15.556345 43.706420 0.711513 0.420535 0.562938 0 0
  phy
    0 2.299036 -5.379892 25.877218 -0.656689 -0.396104 -0.641764 0 0
    0 32.956112 2.512203 53.562682 -0.644514 -0.549366 -0.531787 0 0
    0 31.396287 15.409571 29.653283 0.563024 0.536038 0.629020 0 0
  phy
    0 2.299036 -5.379892 25.877218 -0.656689 -0.396104 -0.641764 0 0
    0 31.396287 15.409571 29.653283 0.563024 0.536038 0.629020 0 0
    0 8.383970 -15.556345 43.706420 0.711513 0.420535 0.562938 0 0
  phy
    0 8.383970 -15.556345 43.706420 0.711513 0.420535 0.562938 0 0
    0 31.396287 15.409571 29.653283 0.563024 0.536038 0.629020 0 0
    0 32.956112 2.512203 53.562682 -0.644514 -0.549366 -0.531787 0 0
  phy
    0 -4.308978 28.047979 25.277595 -0.401470 0.544749 -0.736255 0 0
    0 -11.885499 10.140058 34.130558 0.370488 -0.414708 0.831117 0 0
    0 -27.972596 4.830163 51.959753 -0.165083 0.426955 -0.889077 0 0
  phy
    0 -4.308978 28.047979 25.277595 -0.401470 0.544749 -0.736255 0 0
    0 -21.762179 30.743698 62.663856 -0.019918 -0.673034 0.739343 0 0
    0 -11.885499 10.140058 34.130558 0.370488 -0.414708 0.831117 0 0
  phy
    0 -11.885499 10.140058 34.130558 0.370488 -0.414708 0.831117 0 0
    0 -21.762179 30.743698 62.663856 -0.019918 -0.673034 0.739343 0 0
    0 -27.972596 4.830163 51.959753 -0.165083 0.426955 -0.889077 0 0
  phy
    0 -4.308978 28.047979 25.277595 -0.401470 0.544749 -0.736255 0 0
    0 -27.972596 4.830163 51.959753 -0.165083 0.426955 -0.889077 0 0
    0 -21.762179 30.743698 62.663856 -0.019918 -0.673034 0.739343 0 0
  phy
    0 -27.972596 4.830163 51.959753 0.398175 0.445228 -0.802016 0 0
    0 1.192883 -20.425108 37.906623 0.568514 0.637971 -0.519408 0 0
    0 -11.784854 -21.019770 61.816019 -0.357275 -0.682100 0.638039 0 0
  phy
    0 1.192883 -20.425108 37.906623 0.568514 0.637971 -0.519408 0 0
    0 -27.972596 4.830163 51.959753 0.398175 0.445228 -0.802016 0 0
    0 -11.885499 10.140058 34.130558 -0.591058 -0.396104 0.702675 0 0
  phy
    0 -11.784854 -21.019770 61.816019 -0.357275 -0.682100 0.638039 0 0
    0 -11.885499 10.140058 34.130558 -0.591058 -0.396104 0.702675 0 0
    0 -27.972596 4.830163 51.959753 0.398175 0.445228 -0.802016 0 0
  phy
    0 1.192883 -20.425108 37.906623 0.568514 0.637971 -0.519408 0 0
    0 -11.885499 10.140058 34.130558 -0.591058 -0.396104 0.702675 0 0
    0 -11.784854 -21.019770 61.816019 -0.357275 -0.682100 0.638039 0 0
  phy
    0 2.402951 11.257689 39.446767 0.851751 -0.308835 -0.423250 0 0
    0 19.510043 2.014079 30.593806 -0.805540 0.393241 0.443246 0 0
    0 23.330567 13.671421 67.980055 0.852350 -0.477408 -0.213497 0 0
  phy
    0 23.330567 13.671421 67.980055 0.852350 -0.477408 -0.213497 0 0
    0 -1.875720 22.315697 57.275966 -0.894043 0.311655 0.321803 0 0
    0 2.402951 11.257689 39.446767 0.851751 -0.308835 -0.423250 0 0
  phy
    0 19.510043 2.014079 30.593806 -0.805540 0.393241 0.443246 0 0
    0 2.402951 11.257689 39.446767 0.851751 -0.308835 -0.423250 0 0
    0 -1.875720 22.315697 57.275966 -0.894043 0.311655 0.321803 0 0
  phy
    0 23.330567 13.671421 67.980055 0.852350 -0.477408 -0.213497 0 0
    0 19.510043 2.014079 30.593806 -0.805540 0.393241 0.443246 0 0
    0 -1.875720 22.315697 57.275966 -0.894043 0.311655 0.321803 0 0
  phy
    0 -29.146669 8.657069 67.132223 0.725075 -0.549366 0.415286 0 0
    0 -29.787663 -4.318459 43.222829 -0.661179 0.536038 -0.524886 0 0
    0 2.402951 11.257689 39.446767 0.755650 -0.396104 0.521626 0 0
  phy
    0 2.402951 11.257689 39.446767 0.755650 -0.396104 0.521626 0 0
    0 -1.875720 22.315697 57.275966 -0.796373 0.420535 -0.434673 0 0
    0 -29.146669 8.657069 67.132223 0.725075 -0.549366 0.415286 0 0
  phy
    0 2.402951 11.257689 39.446767 0.755650 -0.396104 0.521626 0 0
    0 -29.787663 -4.318459 43.222829 -0.661179 0.536038 -0.524886 0 0
    0 -1.875720 22.315697 57.275966 -0.796373 0.420535 -0.434673 0 0
  phy
    0 -29.787663 -4.318459 43.222829 -0.661179 0.536038 -0.524886 0 0
    0 -29.146669 8.657069 67.132223 0.725075 -0.549366 0.415286 0 0
    0 -1.875720 22.315697 57.275966 -0.796373 0.420535 -0.434673 0 0
  phy
    0 26.231394 4.585951 51.862222 -0.055739 0.125026 -0.990587 0 0
    0 29.589841 -9.956382 35.422829 0.049065 -0.031148 0.998310 0 0
    0 24.238970 -23.233264 71.899046 0.197027 0.025927 -0.980055 0 0
  phy
    0 26.231394 4.585951 51.862222 -0.055739 0.125026 -0.990587 0 0
    0 25.560856 5.006169 74.015419 -0.045479 -0.161177 0.985877 0 0
    0 29.589841 -9.956382 35.422829 0.049065 -0.031148 0.998310 0 0
  phy
    0 26.231394 4.585951 51.862222 -0.055739 0.125026 -0.990587 0 0
    0 24.238970 -23.233264 71.899046 0.197027 0.025927 -0.980055 0 0
    0 25.560856 5.006169 74.015419 -0.045479 -0.161177 0.985877 0 0
  phy
    0 29.589841 -9.956382 35.422829 0.049065 -0.031148 0.998310 0 0
    0 25.560856 5.006169 74.015419 -0.045479 -0.161177 0.985877 0 0
    0 24.238970 -23.233264 71.899046 0.197027 0.025927 -0.980055 0 0
  phy
    0 -0.232428 23.068987 78.644738 0.742028 0.006215 -0.670340 0 0
    0 26.231394 4.585951 51.862222 0.794978 0.159394 -0.585324 0 0
    0 25.560856 5.006169 74.015419 -0.735195 -0.146574 0.661819 0 0
  phy
    0 -0.232428 23.068987 78.644738 0.742028 0.006215 -0.670340 0 0
    0 25.560856 5.006169 74.015419 -0.735195 -0.146574 0.661819 0 0
    0 -0.420764 28.666969 51.416384 -0.818964 -0.001834 0.573843 0 0
  phy
    0 25.560856 5.006169 74.015419 -0.735195 -0.146574 0.661819 0 0
    0 26.231394 4.585951 51.862222 0.794978 0.159394 -0.585324 0 0
    0 -0.420764 28.666969 51.416384 -0.818964 -0.001834 0.573843 0 0
  phy
    0 -0.232428 23.068987 78.644738 0.742028 0.006215 -0.670340 0 0
    0 -0.420764 28.666969 51.416384 -0.818964 -0.001834 0.573843 0 0
    0 26.231394 4.585951 51.862222 0.794978 0.159394 -0.585324 0 0
  phy
    0 15.277512 -4.638097 75.767510 -0.702943 0.080197 -0.706711 0 0
    0 6.641397 -16.810875 59.328107 0.702450 -0.028966 0.711143 0 0
    0 -6.836113 -26.199139 95.804329 -0.601491 0.025928 -0.798458 0 0
  phy
    0 15.277512 -4.638097 75.767510 -0.702943 0.080197 -0.706711 0 0
    0 15.145978 -3.857758 97.920707 0.664097 -0.102702 0.740559 0 0
    0 6.641397 -16.810875 59.328107 0.702450 -0.028966 0.711143 0 0
  phy
    0 15.277512 -4.638097 75.767510 -0.702943 0.080197 -0.706711 0 0
    0 -6.836113 -26.199139 95.804329 -0.601491 0.025928 -0.798458 0 0
    0 15.145978 -3.857758 97.920707 0.664097 -0.102702 0.740559 0 0
  phy
    0 6.641397 -16.810875 59.328107 0.702450 -0.028966 0.711143 0 0
    0 15.145978 -3.857758 97.920707 0.664097 -0.102702 0.740559 0 0
    0 -6.836113 -26.199139 95.804329 -0.601491 0.025928 -0.798458 0 0
  phy
    0 15.145978 -3.857758 97.920707 0.005287 -0.203302 0.979102 0 0
    0 15.277512 -4.638097 75.767510 0.112601 0.193110 -0.974694 0 0
    0 15.564048 31.280593 75.321676 -0.138649 -0.000996 0.990341 0 0
  phy
    0 15.564048 31.280593 75.321676 -0.138649 -0.000996 0.990341 0 0
    0 9.921883 33.423633 102.550017 -0.007900 0.006215 -0.999949 0 0
    0 15.145978 -3.857758 97.920707 0.005287 -0.203302 0.979102 0 0
  phy
    0 15.277512 -4.638097 75.767510 0.112601 0.193110 -0.974694 0 0
    0 15.145978 -3.857758 97.920707 0.005287 -0.203302 0.979102 0 0
    0 9.921883 33.423633 102.550017 -0.007900 0.006215 -0.999949 0 0
  phy
    0 15.564048 31.280593 75.321676 -0.138649 -0.000996 0.990341 0 0
    0 15.277512 -4.638097 75.767510 0.112601 0.193110 -0.974694 0 0
    0 9.921883 33.423633 102.550017 -0.007900 0.006215 -0.999949 0 0
  phy
    0 10.369662 -16.183906 138.708025 0.390762 -0.268968 -0.880319 0 0
    0 -8.826573 -1.463243 94.518417 0.375598 -0.240731 -0.894972 0 0
    0 7.793718 -31.098566 105.860947 -0.365534 0.265746 0.892056 0 0
  phy
    0 -8.826573 -1.463243 94.518417 0.375598 -0.240731 -0.894972 0 0
    0 10.369662 -16.183906 138.708025 0.390762 -0.268968 -0.880319 0 0
    0 -1.327759 6.670148 130.877955 -0.398929 0.250320 0.882154 0 0
  phy
    0 7.793718 -31.098566 105.860947 -0.365534 0.265746 0.892056 0 0
    0 -1.327759 6.670148 130.877955 -0.398929 0.250320 0.882154 0 0
    0 10.369662 -16.183906 138.708025 0.390762 -0.268968 -0.880319 0 0
  phy
    0 -8.826573 -1.463243 94.518417 0.375598 -0.240731 -0.894972 0 0
    0 -1.327759 6.670148 130.877955 -0.398929 0.250320 0.882154 0 0
    0 7.793718 -31.098566 105.860947 -0.365534 0.265746 0.892056 0 0
  phy
    0 3.291551 14.015193 58.343138 -0.353794 0.249539 -0.901421 0 0
    0 -2.746729 -0.858496 73.413314 0.355640 -0.156495 0.921428 0 0
    0 -8.826573 -1.463243 94.518417 -0.257167 0.129875 -0.957600 0 0
  phy
    0 3.291551 14.015193 58.343138 -0.353794 0.249539 -0.901421 0 0
    0 1.123549 25.026838 96.132539 0.112296 -0.272094 0.955696 0 0
    0 -2.746729 -0.858496 73.413314 0.355640 -0.156495 0.921428 0 0
  phy
    0 -2.746729 -0.858496 73.413314 0.355640 -0.156495 0.921428 0 0
    0 1.123549 25.026838 96.132539 0.112296 -0.272094 0.955696 0 0
    0 -8.826573 -1.463243 94.518417 -0.257167 0.129875 -0.957600 0 0
  phy
    0 3.291551 14.015193 58.343138 -0.353794 0.249539 -0.901421 0 0
    0 -8.826573 -1.463243 94.518417 -0.257167 0.129875 -0.957600 0 0
    0 1.123549 25.026838 96.132539 0.112296 -0.272094 0.955696 0 0
  phy
    0 7.793718 -31.098566 105.860947 -0.455239 -0.258490 0.852021 0 0
    0 -8.826573 -1.463243 94.518417 0.448568 0.130849 -0.884118 0 0
    0 14.415607 -36.487166 79.591115 0.544134 0.246609 -0.801936 0 0
  phy
    0 7.793718 -31.098566 105.860947 -0.455239 -0.258490 0.852021 0 0
    0 -2.746729 -0.858496 73.413314 -0.517385 -0.107862 0.848928 0 0
    0 -8.826573 -1.463243 94.518417 0.448568 0.130849 -0.884118 0 0
  phy
    0 14.415607 -36.487166 79.591115 0.544134 0.246609 -0.801936 0 0
    0 -8.826573 -1.463243 94.518417 0.448568 0.130849 -0.884118 0 0
    0 -2.746729 -0.858496 73.413314 -0.517385 -0.107862 0.848928 0 0
  phy
    0 14.415607 -36.487166 79.591115 0.544134 0.246609 -0.801936 0 0
    0 -2.746729 -0.858496 73.413314 -0.517385 -0.107862 0.848928 0 0
    0 7.793718 -31.098566 105.860947 -0.455239 -0.258490 0.852021 0 0
  phy
    0 -1.373441 -0.156887 117.283797 -0.776944 0.107390 -0.620344 0 0
    0 -10.472448 -12.329662 101.155784 0.778581 -0.013322 0.627402 0 0
    0 -22.906588 -17.152937 138.086925 -0.601444 0.003223 -0.798908 0 0
  phy
    0 -1.373441 -0.156887 117.283797 -0.776944 0.107390 -0.620344 0 0
    0 -0.875315 0.623451 139.430555 0.706047 -0.141415 0.693901 0 0
    0 -10.472448 -12.329662 101.155784 0.778581 -0.013322 0.627402 0 0
  phy
    0 -1.373441 -0.156887 117.283797 -0.776944 0.107390 -0.620344 0 0
    0 -22.906588 -17.152937 138.086925 -0.601444 0.003223 -0.798908 0 0
    0 -0.875315 0.623451 139.430555 0.706047 -0.141415 0.693901 0 0
  phy
    0 -10.472448 -12.329662 101.155784 0.778581 -0.013322 0.627402 0 0
    0 -0.875315 0.623451 139.430555 0.706047 -0.141415 0.693901 0 0
    0 -22.906588 -17.152937 138.086925 -0.601444 0.003223 -0.798908 0 0
  phy
    0 -0.875315 0.623451 139.430555 -0.027980 -0.122975 0.992015 0 0
    0 -5.427708 25.349431 144.185344 0.025903 -0.023391 -0.999391 0 0
    0 -1.373441 -0.156887 117.283797 0.153390 0.139031 -0.978336 0 0
  phy
    0 -0.875315 0.623451 139.430555 -0.027980 -0.122975 0.992015 0 0
    0 -2.145252 29.209873 116.828126 -0.186323 0.028654 0.982071 0 0
    0 -5.427708 25.349431 144.185344 0.025903 -0.023391 -0.999391 0 0
  phy
    0 -1.373441 -0.156887 117.283797 0.153390 0.139031 -0.978336 0 0
    0 -2.145252 29.209873 116.828126 -0.186323 0.028654 0.982071 0 0
    0 -0.875315 0.623451 139.430555 -0.027980 -0.122975 0.992015 0 0
  phy
    0 -1.373441 -0.156887 117.283797 0.153390 0.139031 -0.978336 0 0
    0 -5.427708 25.349431 144.185344 0.025903 -0.023391 -0.999391 0 0
    0 -2.145252 29.209873 116.828126 -0.186323 0.028654 0.982071 0 0
  phy
    0 17.467148 -7.147110 111.288686 0.630883 0.093682 0.770201 0 0
    0 5.730012 -21.503305 132.091815 0.795140 -0.003223 0.606417 0 0
    0 5.414414 -16.404552 95.160674 -0.638339 -0.006235 -0.769730 0 0
  phy
    0 17.467148 -7.147110 111.288686 0.630883 0.093682 0.770201 0 0
    0 5.414414 -16.404552 95.160674 -0.638339 -0.006235 -0.769730 0 0
    0 18.157791 -6.530617 133.435435 -0.716042 -0.104755 -0.690152 0 0
  phy
    0 17.467148 -7.147110 111.288686 0.630883 0.093682 0.770201 0 0
    0 18.157791 -6.530617 133.435435 -0.716042 -0.104755 -0.690152 0 0
    0 5.730012 -21.503305 132.091815 0.795140 -0.003223 0.606417 0 0
  phy
    0 5.414414 -16.404552 95.160674 -0.638339 -0.006235 -0.769730 0 0
    0 5.730012 -21.503305 132.091815 0.795140 -0.003223 0.606417 0 0
    0 18.157791 -6.530617 133.435435 -0.716042 -0.104755 -0.690152 0 0
  phy
    0 18.157791 -6.530617 133.435435 0.241423 -0.122975 0.962596 0 0
    0 20.464020 18.504950 138.190234 -0.245418 -0.023391 -0.969135 0 0
    0 17.467148 -7.147110 111.288686 -0.116990 0.139031 -0.983353 0 0
  phy
    0 18.157791 -6.530617 133.435435 0.241423 -0.122975 0.962596 0 0
    0 24.668410 21.333481 110.833016 0.086295 0.028654 0.995858 0 0
    0 20.464020 18.504950 138.190234 -0.245418 -0.023391 -0.969135 0 0
  phy
    0 17.467148 -7.147110 111.288686 -0.116990 0.139031 -0.983353 0 0
    0 24.668410 21.333481 110.833016 0.086295 0.028654 0.995858 0 0
    0 18.157791 -6.530617 133.435435 0.241423 -0.122975 0.962596 0 0
  phy
    0 17.467148 -7.147110 111.288686 -0.116990 0.139031 -0.983353 0 0
    0 20.464020 18.504950 138.190234 -0.245418 -0.023391 -0.969135 0 0
    0 24.668410 21.333481 110.833016 0.086295 0.028654 0.995858 0 0
  phy
    0 -21.572906 2.756919 78.937960 0.148613 0.591033 -0.792839 0 0
    0 -1.338442 -1.992979 60.373592 0.294572 0.717133 -0.631623 0 0
    0 -11.190867 -13.574558 76.502233 -0.192769 -0.700082 0.687550 0 0
  phy
    0 -1.338442 -1.992979 60.373592 0.294572 0.717133 -0.631623 0 0
    0 -21.572906 2.756919 78.937960 0.148613 0.591033 -0.792839 0 0
    0 0.054254 18.941984 53.241342 -0.333823 -0.654252 0.678614 0 0
  phy
    0 -1.338442 -1.992979 60.373592 0.294572 0.717133 -0.631623 0 0
    0 0.054254 18.941984 53.241342 -0.333823 -0.654252 0.678614 0 0
    0 -11.190867 -13.574558 76.502233 -0.192769 -0.700082 0.687550 0 0
  phy
    0 -11.190867 -13.574558 76.502233 -0.192769 -0.700082 0.687550 0 0
    0 0.054254 18.941984 53.241342 -0.333823 -0.654252 0.678614 0 0
    0 -21.572906 2.756919 78.937960 0.148613 0.591033 -0.792839 0 0
  phy
    0 22.492780 -18.874975 63.580002 0.721367 0.655149 -0.224522 0 0
    0 8.022964 -27.815491 85.597883 -0.638821 -0.679328 0.361138 0 0
    0 -11.190867 -13.574558 76.502233 0.706743 0.565958 -0.424508 0 0
  phy
    0 22.492780 -18.874975 63.580002 0.721367 0.655149 -0.224522 0 0
    0 -11.190867 -13.574558 76.502233 0.706743 0.565958 -0.424508 0 0
    0 -1.338442 -1.992979 60.373592 -0.781019 -0.532045 0.327012 0 0
  phy
    0 -11.190867 -13.574558 76.502233 0.706743 0.565958 -0.424508 0 0
    0 8.022964 -27.815491 85.597883 -0.638821 -0.679328 0.361138 0 0
    0 -1.338442 -1.992979 60.373592 -0.781019 -0.532045 0.327012 0 0
  phy
    0 8.022964 -27.815491 85.597883 -0.638821 -0.679328 0.361138 0 0
    0 22.492780 -18.874975 63.580002 0.721367 0.655149 -0.224522 0 0
    0 -1.338442 -1.992979 60.373592 -0.781019 -0.532045 0.327012 0 0
  phy
    0 16.207458 5.430465 47.152793 -0.932933 0.340734 -0.116348 0 0
    0 0.356190 -3.595155 34.558677 0.942462 -0.264196 0.204856 0 0
    0 -21.639548 -6.287631 34.697394 -0.909693 0.322258 -0.261934 0 0
  phy
    0 16.207458 5.430465 47.152793 -0.932933 0.340734 -0.116348 0 0
    0 2.108891 6.139067 60.612541 0.867960 -0.484457 0.109301 0 0
    0 0.356190 -3.595155 34.558677 0.942462 -0.264196 0.204856 0 0
  phy
    0 0.356190 -3.595155 34.558677 0.942462 -0.264196 0.204856 0 0
    0 2.108891 6.139067 60.612541 0.867960 -0.484457 0.109301 0 0
    0 -21.639548 -6.287631 34.697394 -0.909693 0.322258 -0.261934 0 0
  phy
    0 16.207458 5.430465 47.152793 -0.932933 0.340734 -0.116348 0 0
    0 -21.639548 -6.287631 34.697394 -0.909693 0.322258 -0.261934 0 0
    0 2.108891 6.139067 60.612541 0.867960 -0.484457 0.109301 0 0
  phy
    0 16.207458 5.430465 47.152793 0.788540 -0.050960 0.612869 0 0
    0 0.356190 -3.595155 34.558677 -0.731360 -0.040071 -0.680813 0 0
    0 14.634605 5.962112 10.726019 0.794098 0.166589 0.584513 0 0
  phy
    0 14.634605 5.962112 10.726019 0.794098 0.166589 0.584513 0 0
    0 29.732024 18.951659 30.153692 -0.856359 -0.034745 -0.515211 0 0
    0 16.207458 5.430465 47.152793 0.788540 -0.050960 0.612869 0 0
  phy
    0 0.356190 -3.595155 34.558677 -0.731360 -0.040071 -0.680813 0 0
    0 16.207458 5.430465 47.152793 0.788540 -0.050960 0.612869 0 0
    0 29.732024 18.951659 30.153692 -0.856359 -0.034745 -0.515211 0 0
  phy
    0 14.634605 5.962112 10.726019 0.794098 0.166589 0.584513 0 0
    0 0.356190 -3.595155 34.558677 -0.731360 -0.040071 -0.680813 0 0
    0 29.732024 18.951659 30.153692 -0.856359 -0.034745 -0.515211 0 0
  phy
    0 -0.086915 -4.577076 51.355493 -0.978681 -0.165509 -0.121612 0 0
    0 -3.381947 -4.799922 26.906701 -0.964528 0.043651 -0.260348 0 0
    0 -14.380106 -8.829079 42.650564 0.987076 0.012535 0.159763 0 0
  phy
    0 -3.381947 -4.799922 26.906701 -0.964528 0.043651 -0.260348 0 0
    0 -0.086915 -4.577076 51.355493 -0.978681 -0.165509 -0.121612 0 0
    0 15.452219 -1.694033 22.379988 0.952473 0.032144 0.302923 0 0
  phy
    0 -3.381947 -4.799922 26.906701 -0.964528 0.043651 -0.260348 0 0
    0 15.452219 -1.694033 22.379988 0.952473 0.032144 0.302923 0 0
    0 -14.380106 -8.829079 42.650564 0.987076 0.012535 0.159763 0 0
  phy
    0 -14.380106 -8.829079 42.650564 0.987076 0.012535 0.159763 0 0
    0 15.452219 -1.694033 22.379988 0.952473 0.032144 0.302923 0 0
    0 -0.086915 -4.577076 51.355493 -0.978681 -0.165509 -0.121612 0 0
  phy
    0 -14.380106 -8.829079 42.650564 -0.726594 0.106101 -0.678825 0 0
    0 -18.367703 -20.838054 12.952899 -0.654535 0.313185 -0.688113 0 0
    0 -27.311418 -25.926002 35.331153 0.763087 -0.227339 0.604991 0 0
  phy
    0 -18.367703 -20.838054 12.952899 -0.654535 0.313185 -0.688113 0 0
    0 -14.380106 -8.829079 42.650564 -0.726594 0.106101 -0.678825 0 0
    0 -3.381947 -4.799922 26.906701 0.637555 -0.156524 0.754337 0 0
  phy
    0 -27.311418 -25.926002 35.331153 0.763087 -0.227339 0.604991 0 0
    0 -3.381947 -4.799922 26.906701 0.637555 -0.156524 0.754337 0 0
    0 -14.380106 -8.829079 42.650564 -0.726594 0.106101 -0.678825 0 0
  phy
    0 -18.367703 -20.838054 12.952899 -0.654535 0.313185 -0.688113 0 0
    0 -3.381947 -4.799922 26.906701 0.637555 -0.156524 0.754337 0 0
    0 -27.311418 -25.926002 35.331153 0.763087 -0.227339 0.604991 0 0
  phy
    0 -18.367703 -20.838054 12.952899 0.555848 0.765437 -0.324251 0 0
    0 -50.233086 -22.291198 65.532815 0.168470 0.444251 -0.879920 0 0
    0 -37.519732 17.995743 35.149056 -0.305379 0.631943 -0.712314 0 0
  phy
    0 -50.233086 -22.291198 65.532815 0.168470 0.444251 -0.879920 0 0
    0 -50.472397 7.208861 58.937073 0.000436 0.386490 -0.922293 0 0
    0 -37.519732 17.995743 35.149056 -0.305379 0.631943 -0.712314 0 0
  phy
    0 -50.472397 7.208861 58.937073 0.000436 0.386490 -0.922293 0 0
    0 -50.233086 -22.291198 65.532815 0.168470 0.444251 -0.879920 0 0
    0 -56.651971 10.856036 80.812991 -0.465967 -0.069127 -0.882097 0 0
  phy
    0 -50.233086 -22.291198 65.532815 0.168470 0.444251 -0.879920 0 0
    0 -48.301943 -33.758869 72.582627 0.644738 0.001265 -0.764402 0 0
    0 -56.651971 10.856036 80.812991 -0.465967 -0.069127 -0.882097 0 0
  phy
    0 -50.233086 -22.291198 65.532815 0.168470 0.444251 -0.879920 0 0
    0 -18.367703 -20.838054 12.952899 0.555848 0.765437 -0.324251 0 0
    0 -48.301943 -33.758869 72.582627 0.644738 0.001265 -0.764402 0 0
  phy
    0 0.924842 33.617348 159.050893 -0.921535 -0.340043 0.187466 0 0
    0 12.260719 19.117563 184.777327 -0.858167 -0.337017 0.387258 0 0
    0 9.608854 56.337052 85.372549 -0.965141 -0.213597 0.151258 0 0
  phy
    0 12.260719 19.117563 184.777327 -0.858167 -0.337017 0.387258 0 0
    0 39.981988 35.143718 105.558042 -0.852349 -0.307861 0.422756 0 0
    0 9.608854 56.337052 85.372549 -0.965141 -0.213597 0.151258 0 0
  phy
    0 12.260719 19.117563 184.777327 -0.858167 -0.337017 0.387258 0 0
    0 0.924842 33.617348 159.050893 -0.921535 -0.340043 0.187466 0 0
    0 -20.301497 22.630889 193.207602 -0.725494 -0.327979 -0.605052 0 0
  phy
    0 12.198424 18.003727 187.212482 -0.390251 -0.499608 0.773366 0 0
    0 12.260719 19.117563 184.777327 -0.858167 -0.337017 0.387258 0 0
    0 -20.301497 22.630889 193.207602 -0.725494 -0.327979 -0.605052 0 0
  phy
    0 39.981988 35.143718 105.558042 -0.852349 -0.307861 0.422756 0 0
    0 12.260719 19.117563 184.777327 -0.858167 -0.337017 0.387258 0 0
    0 61.585898 39.144240 61.597829 -0.498819 0.112352 0.859393 0 0
  phy
    0 12.260719 19.117563 184.777327 -0.858167 -0.337017 0.387258 0 0
    0 12.198424 18.003727 187.212482 -0.390251 -0.499608 0.773366 0 0
    0 61.585898 39.144240 61.597829 -0.498819 0.112352 0.859393 0 0
  phy
    0 -1.705965 36.741828 33.392662 -0.832691 0.551407 -0.050763 0 0
    0 -4.308978 28.047979 25.277595 -0.488150 0.828231 -0.275216 0 0
    0 -37.519732 17.995743 35.149056 -0.305379 0.631943 -0.712314 0 0
  phy
    0 -37.519732 17.995743 35.149056 -0.305379 0.631943 -0.712314 0 0
    0 -4.308978 28.047979 25.277595 -0.488150 0.828231 -0.275216 0 0
    0 -16.123556 0.841465 17.024260 -0.320662 0.884065 -0.340007 0 0
  phy
    0 -4.308978 28.047979 25.277595 -0.488150 0.828231 -0.275216 0 0
    0 -1.705965 36.741828 33.392662 -0.832691 0.551407 -0.050763 0 0
    0 14.634605 5.962112 10.726019 -0.323406 0.880055 0.347724 0 0
  phy
    0 -4.308978 28.047979 25.277595 -0.488150 0.828231 -0.275216 0 0
    0 14.634605 5.962112 10.726019 -0.323406 0.880055 0.347724 0 0
    0 -16.123556 0.841465 17.024260 -0.320662 0.884065 -0.340007 0 0
  phy
    0 4.006131 50.478784 64.073853 -0.921308 0.371969 0.113275 0 0
    0 -1.705965 36.741828 33.392662 -0.832691 0.551407 -0.050763 0 0
    0 -23.998278 53.096395 70.092368 -0.836427 -0.011783 -0.547951 0 0
  phy
    0 4.006131 50.478784 64.073853 -0.921308 0.371969 0.113275 0 0
    0 -23.998278 53.096395 70.092368 -0.836427 -0.011783 -0.547951 0 0
    0 9.608854 56.337052 85.372549 -0.965141 -0.213597 0.151258 0 0
  phy
    0 -1.705965 36.741828 33.392662 -0.832691 0.551407 -0.050763 0 0
    0 4.006131 50.478784 64.073853 -0.921308 0.371969 0.113275 0 0
    0 61.585898 39.144240 61.597829 -0.498819 0.112352 0.859393 0 0
  phy
    0 61.585898 39.144240 61.597829 -0.498819 0.112352 0.859393 0 0
    0 4.006131 50.478784 64.073853 -0.921308 0.371969 0.113275 0 0
    0 9.608854 56.337052 85.372549 -0.965141 -0.213597 0.151258 0 0
  phy
    0 -1.705965 36.741828 33.392662 -0.832691 0.551407 -0.050763 0 0
    0 14.898583 36.613045 39.708610 -0.661751 0.693821 0.284073 0 0
    0 14.634605 5.962112 10.726019 -0.323406 0.880055 0.347724 0 0
  phy
    0 14.898583 36.613045 39.708610 -0.661751 0.693821 0.284073 0 0
    0 -1.705965 36.741828 33.392662 -0.832691 0.551407 -0.050763 0 0
    0 61.585898 39.144240 61.597829 -0.498819 0.112352 0.859393 0 0
  phy
    0 14.634605 5.962112 10.726019 -0.323406 0.880055 0.347724 0 0
    0 14.898583 36.613045 39.708610 -0.661751 0.693821 0.284073 0 0
    0 61.585898 39.144240 61.597829 -0.498819 0.112352 0.859393 0 0
  phy
    0 45.395212 -10.471221 34.203837 0.400204 0.609156 0.684665 0 0
    0 36.397018 -40.049131 57.279472 0.636824 0.166021 0.752922 0 0
    0 1.264855 -65.794432 59.688049 0.936499 0.348644 -0.037649 0 0
  phy
    0 26.271327 -49.911850 98.761489 0.782383 -0.272911 0.559818 0 0
    0 1.264855 -65.794432 59.688049 0.936499 0.348644 -0.037649 0 0
    0 36.397018 -40.049131 57.279472 0.636824 0.166021 0.752922 0 0
  phy
    0 45.395212 -10.471221 34.203837 0.400204 0.609156 0.684665 0 0
    0 53.708431 -11.092494 87.699017 0.326180 -0.177858 0.928425 0 0
    0 36.397018 -40.049131 57.279472 0.636824 0.166021 0.752922 0 0
  phy
    0 36.397018 -40.049131 57.279472 0.636824 0.166021 0.752922 0 0
    0 53.708431 -11.092494 87.699017 0.326180 -0.177858 0.928425 0 0
    0 26.271327 -49.911850 98.761489 0.782383 -0.272911 0.559818 0 0
  phy
    0 20.705745 2.014412 177.602881 -0.189002 -0.396684 0.898287 0 0
    0 7.514226 -12.041551 208.430271 0.589896 -0.444821 0.673912 0 0
    0 37.880629 5.603538 134.963557 0.002213 -0.344887 0.938642 0 0
  phy
    0 12.198424 18.003727 187.212482 -0.390251 -0.499608 0.773366 0 0
    0 7.514226 -12.041551 208.430271 0.589896 -0.444821 0.673912 0 0
    0 20.705745 2.014412 177.602881 -0.189002 -0.396684 0.898287 0 0
  phy
    0 37.880629 5.603538 134.963557 0.002213 -0.344887 0.938642 0 0
    0 61.585898 39.144240 61.597829 -0.498819 0.112352 0.859393 0 0
    0 20.705745 2.014412 177.602881 -0.189002 -0.396684 0.898287 0 0
  phy
    0 20.705745 2.014412 177.602881 -0.189002 -0.396684 0.898287 0 0
    0 61.585898 39.144240 61.597829 -0.498819 0.112352 0.859393 0 0
    0 12.198424 18.003727 187.212482 -0.390251 -0.499608 0.773366 0 0
  phy
    0 -17.908232 -2.951472 200.918265 0.357488 -0.460110 -0.812713 0 0
    0 -16.585187 -49.607181 122.076705 0.901279 -0.318527 -0.293660 0 0
    0 -0.467838 -14.301407 202.113155 0.785571 -0.457890 -0.416190 0 0
  phy
    0 -0.467838 -14.301407 202.113155 0.785571 -0.457890 -0.416190 0 0
    0 7.514226 -12.041551 208.430271 0.589896 -0.444821 0.673912 0 0
    0 -17.908232 -2.951472 200.918265 0.357488 -0.460110 -0.812713 0 0
  phy
    0 -16.585187 -49.607181 122.076705 0.901279 -0.318527 -0.293660 0 0
    0 7.514226 -12.041551 208.430271 0.589896 -0.444821 0.673912 0 0
    0 -0.467838 -14.301407 202.113155 0.785571 -0.457890 -0.416190 0 0
  phy
    0 -3.724674 5.800254 209.471673 -0.456949 -0.885419 0.085028 0 0
    0 12.198424 18.003727 187.212482 -0.390251 -0.499608 0.773366 0 0
    0 -20.301497 22.630889 193.207602 -0.725494 -0.327979 -0.605052 0 0
  phy
    0 -3.724674 5.800254 209.471673 -0.456949 -0.885419 0.085028 0 0
    0 7.514226 -12.041551 208.430271 0.589896 -0.444821 0.673912 0 0
    0 12.198424 18.003727 187.212482 -0.390251 -0.499608 0.773366 0 0
  phy
    0 -3.724674 5.800254 209.471673 -0.456949 -0.885419 0.085028 0 0
    0 -20.301497 22.630889 193.207602 -0.725494 -0.327979 -0.605052 0 0
    0 -17.908232 -2.951472 200.918265 0.357488 -0.460110 -0.812713 0 0
  phy
    0 -17.908232 -2.951472 200.918265 0.357488 -0.460110 -0.812713 0 0
    0 7.514226 -12.041551 208.430271 0.589896 -0.444821 0.673912 0 0
    0 -3.724674 5.800254 209.471673 -0.456949 -0.885419 0.085028 0 0
  phy
    0 -54.841638 -0.422676 99.369785 0.153936 -0.287630 -0.945290 0 0
    0 -25.614284 -17.376828 162.678234 0.490127 -0.310544 -0.814455 0 0
    0 -17.908232 -2.951472 200.918265 0.357488 -0.460110 -0.812713 0 0
  phy
    0 -25.614284 -17.376828 162.678234 0.490127 -0.310544 -0.814455 0 0
    0 -54.841638 -0.422676 99.369785 0.153936 -0.287630 -0.945290 0 0
    0 -48.301943 -33.758869 72.582627 0.644738 0.001265 -0.764402 0 0
  phy
    0 -25.614284 -17.376828 162.678234 0.490127 -0.310544 -0.814455 0 0
    0 -16.585187 -49.607181 122.076705 0.901279 -0.318527 -0.293660 0 0
    0 -17.908232 -2.951472 200.918265 0.357488 -0.460110 -0.812713 0 0
  phy
    0 -16.585187 -49.607181 122.076705 0.901279 -0.318527 -0.293660 0 0
    0 -25.614284 -17.376828 162.678234 0.490127 -0.310544 -0.814455 0 0
    0 -48.301943 -33.758869 72.582627 0.644738 0.001265 -0.764402 0 0
  phy
    0 -54.841638 -0.422676 99.369785 0.153936 -0.287630 -0.945290 0 0
    0 -17.908232 -2.951472 200.918265 0.357488 -0.460110 -0.812713 0 0
    0 -20.301497 22.630889 193.207602 -0.725494 -0.327979 -0.605052 0 0
  phy
    0 -54.841638 -0.422676 99.369785 0.153936 -0.287630 -0.945290 0 0
    0 -20.301497 22.630889 193.207602 -0.725494 -0.327979 -0.605052 0 0
    0 -56.651971 10.856036 80.812991 -0.465967 -0.069127 -0.882097 0 0
  phy
    0 -48.301943 -33.758869 72.582627 0.644738 0.001265 -0.764402 0 0
    0 -54.841638 -0.422676 99.369785 0.153936 -0.287630 -0.945290 0 0
    0 -56.651971 10.856036 80.812991 -0.465967 -0.069127 -0.882097 0 0
  phy
    0 -37.519732 17.995743 35.149056 -0.305379 0.631943 -0.712314 0 0
    0 -38.330226 24.997536 47.016730 -0.552609 0.247093 -0.795970 0 0
    0 -23.998278 53.096395 70.092368 -0.836427 -0.011783 -0.547951 0 0
  phy
    0 -38.330226 24.997536 47.016730 -0.552609 0.247093 -0.795970 0 0
    0 -37.519732 17.995743 35.149056 -0.305379 0.631943 -0.712314 0 0
    0 -56.651971 10.856036 80.812991 -0.465967 -0.069127 -0.882097 0 0
  phy
    0 -23.998278 53.096395 70.092368 -0.836427 -0.011783 -0.547951 0 0
    0 -38.330226 24.997536 47.016730 -0.552609 0.247093 -0.795970 0 0
    0 -56.651971 10.856036 80.812991 -0.465967 -0.069127 -0.882097 0 0
  phy
    0 7.492424 -10.860295 17.797285 0.492647 0.798406 0.346190 0 0
    0 -18.367703 -20.838054 12.952899 0.555848 0.765437 -0.324251 0 0
    0 14.634605 5.962112 10.726019 -0.323406 0.880055 0.347724 0 0
  phy
    0 14.634605 5.962112 10.726019 -0.323406 0.880055 0.347724 0 0
    0 -18.367703 -20.838054 12.952899 0.555848 0.765437 -0.324251 0 0
    0 -16.123556 0.841465 17.024260 -0.320662 0.884065 -0.340007 0 0
  phy
    0 45.395212 -10.471221 34.203837 0.400204 0.609156 0.684665 0 0
    0 -18.367703 -20.838054 12.952899 0.555848 0.765437 -0.324251 0 0
    0 7.492424 -10.860295 17.797285 0.492647 0.798406 0.346190 0 0
  phy
    0 -18.367703 -20.838054 12.952899 0.555848 0.765437 -0.324251 0 0
    0 45.395212 -10.471221 34.203837 0.400204 0.609156 0.684665 0 0
    0 1.264855 -65.794432 59.688049 0.936499 0.348644 -0.037649 0 0
  phy
    0 -18.367703 -20.838054 12.952899 0.555848 0.765437 -0.324251 0 0
    0 1.264855 -65.794432 59.688049 0.936499 0.348644 -0.037649 0 0
    0 -48.301943 -33.758869 72.582627 0.644738 0.001265 -0.764402 0 0
  phy
    0 -18.367703 -20.838054 12.952899 0.555848 0.765437 -0.324251 0 0
    0 -37.519732 17.995743 35.149056 -0.305379 0.631943 -0.712314 0 0
    0 -16.123556 0.841465 17.024260 -0.320662 0.884065 -0.340007 0 0
  phy
    0 -37.519732 17.995743 35.149056 -0.305379 0.631943 -0.712314 0 0
    0 -50.472397 7.208861 58.937073 0.000436 0.386490 -0.922293 0 0
    0 -56.651971 10.856036 80.812991 -0.465967 -0.069127 -0.882097 0 0
  phy
    0 -20.301497 22.630889 193.207602 -0.725494 -0.327979 -0.605052 0 0
    0 0.924842 33.617348 159.050893 -0.921535 -0.340043 0.187466 0 0
    0 9.608854 56.337052 85.372549 -0.965141 -0.213597 0.151258 0 0
  phy
    0 39.981988 35.143718 105.558042 -0.852349 -0.307861 0.422756 0 0
    0 61.585898 39.144240 61.597829 -0.498819 0.112352 0.859393 0 0
    0 9.608854 56.337052 85.372549 -0.965141 -0.213597 0.151258 0 0
  phy
    0 -1.705965 36.741828 33.392662 -0.832691 0.551407 -0.050763 0 0
    0 -37.519732 17.995743 35.149056 -0.305379 0.631943 -0.712314 0 0
    0 -23.998278 53.096395 70.092368 -0.836427 -0.011783 -0.547951 0 0
  phy
    0 45.395212 -10.471221 34.203837 0.400204 0.609156 0.684665 0 0
    0 7.492424 -10.860295 17.797285 0.492647 0.798406 0.346190 0 0
    0 14.634605 5.962112 10.726019 -0.323406 0.880055 0.347724 0 0
  phy
    0 45.395212 -10.471221 34.203837 0.400204 0.609156 0.684665 0 0
    0 14.634605 5.962112 10.726019 -0.323406 0.880055 0.347724 0 0
    0 61.585898 39.144240 61.597829 -0.498819 0.112352 0.859393 0 0
  phy
    0 45.395212 -10.471221 34.203837 0.400204 0.609156 0.684665 0 0
    0 61.585898 39.144240 61.597829 -0.498819 0.112352 0.859393 0 0
    0 53.708431 -11.092494 87.699017 0.326180 -0.177858 0.928425 0 0
  phy
    0 53.708431 -11.092494 87.699017 0.326180 -0.177858 0.928425 0 0
    0 61.585898 39.144240 61.597829 -0.498819 0.112352 0.859393 0 0
    0 37.880629 5.603538 134.963557 0.002213 -0.344887 0.938642 0 0
  phy
    0 37.880629 5.603538 134.963557 0.002213 -0.344887 0.938642 0 0
    0 7.514226 -12.041551 208.430271 0.589896 -0.444821 0.673912 0 0
    0 53.708431 -11.092494 87.699017 0.326180 -0.177858 0.928425 0 0
  phy
    0 26.271327 -49.911850 98.761489 0.782383 -0.272911 0.559818 0 0
    0 7.514226 -12.041551 208.430271 0.589896 -0.444821 0.673912 0 0
    0 -16.585187 -49.607181 122.076705 0.901279 -0.318527 -0.293660 0 0
  phy
    0 -16.585187 -49.607181 122.076705 0.901279 -0.318527 -0.293660 0 0
    0 1.264855 -65.794432 59.688049 0.936499 0.348644 -0.037649 0 0
    0 26.271327 -49.911850 98.761489 0.782383 -0.272911 0.559818 0 0
  phy
    0 53.708431 -11.092494 87.699017 0.326180 -0.177858 0.928425 0 0
    0 7.514226 -12.041551 208.430271 0.589896 -0.444821 0.673912 0 0
    0 26.271327 -49.911850 98.761489 0.782383 -0.272911 0.559818 0 0
  phy
    0 -48.301943 -33.758869 72.582627 0.644738 0.001265 -0.764402 0 0
    0 1.264855 -65.794432 59.688049 0.936499 0.348644 -0.037649 0 0
    0 -16.585187 -49.607181 122.076705 0.901279 -0.318527 -0.293660 0 0
  phy
    0 -20.301497 22.630889 193.207602 -0.725494 -0.327979 -0.605052 0 0
    0 -23.998278 53.096395 70.092368 -0.836427 -0.011783 -0.547951 0 0
    0 -56.651971 10.856036 80.812991 -0.465967 -0.069127 -0.882097 0 0
  phy
    0 -23.998278 53.096395 70.092368 -0.836427 -0.011783 -0.547951 0 0
    0 -20.301497 22.630889 193.207602 -0.725494 -0.327979 -0.605052 0 0
    0 9.608854 56.337052 85.372549 -0.965141 -0.213597 0.151258 0 0
end
