// Created by Crowbar 0.74
version 1
nodes
  0 "static_prop" -1
end
skeleton
  time 0
    0 0.000000 0.000000 0.000000 0.000000 0.000000 0.000000
end
triangles
Tree_02_leaves_old
  0 6.168641 -11.461761 53.509216 0.982172 -0.068749 0.174960 0.000000 0.673162 1 0 1.000000
  0 -1.782074 -46.559986 84.350586 0.982172 -0.068749 0.174960 0.439326 0.673162 1 0 1.000000
  0 1.264855 -65.794434 59.688049 0.982172 -0.068749 0.174960 0.439326 0.992449 1 0 1.000000
Tree_02_leaves_old
  0 6.264476 -1.836218 146.840881 -0.214221 -0.898150 0.383973 0.875504 0.673162 1 0 1.000000
  0 -11.888779 15.467888 177.189026 -0.214221 -0.898150 0.383973 0.436179 0.992449 1 0 1.000000
  0 -15.458331 2.893128 145.508942 -0.218923 -0.898202 0.381190 0.875504 0.992449 1 0 1.000000
Tree_02_leaves_old
  0 6.264476 -1.836218 146.840881 -0.214221 -0.898150 0.383973 0.875504 0.673162 1 0 1.000000
  0 8.088018 13.484726 183.405945 -0.209512 -0.898072 0.386745 0.436179 0.673162 1 0 1.000000
  0 -11.888779 15.467888 177.189026 -0.214221 -0.898150 0.383973 0.436179 0.992449 1 0 1.000000
Tree_02_leaves_old
  0 9.162394 14.248356 106.490326 0.266176 -0.891268 0.367139 0.875504 0.673162 1 0 1.000000
  0 -25.249205 21.977394 150.201797 0.266176 -0.891268 0.367139 0.436179 0.992449 1 0 1.000000
  0 -21.069401 4.642236 104.678177 0.262105 -0.893616 0.364350 0.875504 0.992449 1 0 1.000000
Tree_02_leaves_old
  0 9.162394 14.248356 106.490326 0.266176 -0.891268 0.367139 0.875504 0.673162 1 0 1.000000
  0 0.924842 33.617348 159.050888 0.270239 -0.888893 0.369918 0.436179 0.673162 1 0 1.000000
  0 -25.249205 21.977394 150.201797 0.266176 -0.891268 0.367139 0.436179 0.992449 1 0 1.000000
Tree_02_leaves_old
  0 -3.302056 22.033859 69.440155 0.632864 -0.631425 0.448090 0.875504 0.673162 1 0 1.000000
  0 -41.496635 12.114911 109.407356 0.632864 -0.631425 0.448090 0.436179 0.992449 1 0 1.000000
  0 -24.341698 -1.477444 65.688553 0.630832 -0.635542 0.445126 0.875504 0.992449 1 0 1.000000
Tree_02_leaves_old
  0 -3.302056 22.033859 69.440155 0.632864 -0.631425 0.448090 0.875504 0.673162 1 0 1.000000
  0 -25.723330 35.456158 119.667206 0.634878 -0.627290 0.451041 0.436179 0.673162 1 0 1.000000
  0 -41.496635 12.114911 109.407356 0.632864 -0.631425 0.448090 0.436179 0.992449 1 0 1.000000
Tree_02_leaves_old
  0 5.730012 -21.503305 132.091812 0.724839 -0.685903 -0.064385 0.021521 0.542506 1 0 1.000000
  0 17.467148 -7.147110 111.288689 0.724839 -0.685903 -0.064385 0.343102 0.002037 1 0 1.000000
  0 18.157791 -6.530617 133.435440 0.724839 -0.685903 -0.064385 0.391496 0.377111 1 0 1.000000
Tree_02_leaves_old
  0 5.414414 -16.404552 95.160675 0.724839 -0.685903 -0.064385 0.021521 0.002037 1 0 1.000000
  0 17.467148 -7.147110 111.288689 0.724839 -0.685903 -0.064385 0.343102 0.002037 1 0 1.000000
  0 5.730012 -21.503305 132.091812 0.724839 -0.685903 -0.064385 0.021521 0.542506 1 0 1.000000
Tree_02_leaves_old
  0 2.402951 11.257689 39.446766 -0.473874 0.744633 -0.470068 0.343102 0.002037 1 0 1.000000
  0 -29.787663 -4.318460 43.222832 -0.473874 0.744633 -0.470068 0.814244 0.002037 1 0 1.000000
  0 -1.875720 22.315699 57.275967 -0.473874 0.744633 -0.470068 0.391496 0.377111 1 0 1.000000
Tree_02_leaves_old
  0 -1.875720 22.315699 57.275967 -0.473874 0.744633 -0.470068 0.391496 0.377111 1 0 1.000000
  0 -29.787663 -4.318460 43.222832 -0.473874 0.744633 -0.470068 0.814244 0.002037 1 0 1.000000
  0 -29.146669 8.657069 67.132225 -0.473874 0.744633 -0.470068 0.814244 0.382710 1 0 1.000000
Tree_02_leaves_old
  0 17.467148 -7.147110 111.288689 0.981844 -0.179385 0.061675 0.343102 0.002037 1 0 1.000000
  0 24.668411 21.333481 110.833015 0.981844 -0.179385 0.061675 0.814244 0.002037 1 0 1.000000
  0 18.157791 -6.530617 133.435440 0.981844 -0.179385 0.061675 0.391496 0.377111 1 0 1.000000
Tree_02_leaves_old
  0 18.157791 -6.530617 133.435440 0.981844 -0.179385 0.061675 0.391496 0.377111 1 0 1.000000
  0 24.668411 21.333481 110.833015 0.981844 -0.179385 0.061675 0.814244 0.002037 1 0 1.000000
  0 20.464020 18.504950 138.190231 0.981844 -0.179385 0.061675 0.814244 0.382710 1 0 1.000000
Tree_02_leaves_old
  0 2.056359 -26.254208 32.237057 -0.860558 -0.108495 0.497663 0.000000 0.673162 1 0 1.000000
  0 29.923012 -19.411682 81.915802 -0.860558 -0.108495 0.497663 0.439326 0.992449 1 0 1.000000
  0 6.258836 2.737821 45.824497 -0.860558 -0.108495 0.497663 0.000000 0.992449 1 0 1.000000
Tree_02_leaves_old
  0 6.168641 -11.461761 53.509216 0.903331 -0.128085 -0.409375 0.000000 0.673162 1 0 1.000000
  0 1.264855 -65.794434 59.688049 0.903331 -0.128085 -0.409375 0.439326 0.992449 1 0 1.000000
  0 -7.280331 -27.377270 28.812229 0.903331 -0.128085 -0.409375 0.000000 0.992449 1 0 1.000000
Tree_02_leaves_old
  0 2.056359 -26.254208 32.237057 -0.586442 -0.690143 0.424014 0.000000 0.673162 1 0 1.000000
  0 36.397018 -40.049129 57.279472 -0.586442 -0.690143 0.424014 0.439326 0.673162 1 0 1.000000
  0 29.923012 -19.411682 81.915802 -0.586442 -0.690143 0.424014 0.439326 0.992449 1 0 1.000000
Tree_02_leaves_old
  0 8.383970 -15.556345 43.706421 0.614465 -0.783027 -0.096443 0.391496 0.377111 1 0 1.000000
  0 32.956112 2.512203 53.562683 0.614465 -0.783027 -0.096443 0.814244 0.382710 1 0 1.000000
  0 30.095522 -3.924177 87.594452 0.614465 -0.783027 -0.096443 0.814244 0.677712 1 0 1.000000
Tree_02_leaves_old
  0 5.044491 -10.658212 16.663923 -0.541247 -0.752696 0.374832 0.875504 0.673162 1 0 1.000000
  0 34.011879 -6.932765 65.973061 -0.541247 -0.752696 0.374832 0.436179 0.992449 1 0 1.000000
  0 -3.765845 8.713335 42.841835 -0.541247 -0.752696 0.374832 0.875504 0.992449 1 0 1.000000
Tree_02_leaves_old
  0 2.299036 -5.379892 25.877218 0.592837 -0.653896 -0.470068 0.343102 0.002037 1 0 1.000000
  0 31.396286 15.409572 29.653282 0.592837 -0.653896 -0.470068 0.814244 0.002037 1 0 1.000000
  0 8.383970 -15.556345 43.706421 0.592837 -0.653896 -0.470068 0.391496 0.377111 1 0 1.000000
Tree_02_leaves_old
  0 8.383970 -15.556345 43.706421 0.592837 -0.653896 -0.470068 0.391496 0.377111 1 0 1.000000
  0 31.396286 15.409572 29.653282 0.592837 -0.653896 -0.470068 0.814244 0.002037 1 0 1.000000
  0 32.956112 2.512203 53.562683 0.592837 -0.653896 -0.470068 0.814244 0.382710 1 0 1.000000
Tree_02_leaves_old
  0 -16.123556 0.841465 17.024260 -0.227507 -0.908862 -0.349586 0.021521 0.002037 1 0 1.000000
  0 2.299036 -5.379892 25.877218 -0.227507 -0.908862 -0.349586 0.343102 0.002037 1 0 1.000000
  0 -17.920223 -11.293694 54.410515 -0.227507 -0.908862 -0.349586 0.021521 0.542506 1 0 1.000000
Tree_02_leaves_old
  0 -17.920223 -11.293694 54.410515 -0.227507 -0.908862 -0.349586 0.021521 0.542506 1 0 1.000000
  0 2.299036 -5.379892 25.877218 -0.227507 -0.908862 -0.349586 0.343102 0.002037 1 0 1.000000
  0 8.383970 -15.556345 43.706421 -0.227507 -0.908862 -0.349586 0.391496 0.377111 1 0 1.000000
Tree_02_leaves_old
  0 -17.920223 -11.293694 54.410515 -0.181828 -0.981742 -0.055867 0.021521 0.542506 1 0 1.000000
  0 8.383970 -15.556345 43.706421 -0.181828 -0.981742 -0.055867 0.391496 0.377111 1 0 1.000000
  0 7.833599 -17.634357 82.014145 -0.181828 -0.981742 -0.055867 0.382792 0.677712 1 0 1.000000
Tree_02_leaves_old
  0 5.044491 -10.658212 16.663923 -0.037675 -0.994544 0.097273 0.875504 0.673162 1 0 1.000000
  0 45.395214 -10.471221 34.203838 -0.037675 -0.994544 0.097273 0.436179 0.673162 1 0 1.000000
  0 34.011879 -6.932765 65.973061 -0.037675 -0.994544 0.097273 0.436179 0.992449 1 0 1.000000
Tree_02_leaves_old
  0 8.383970 -15.556345 43.706421 0.530947 -0.846539 -0.038293 0.391496 0.377111 1 0 1.000000
  0 30.095522 -3.924177 87.594452 0.530947 -0.846539 -0.038293 0.814244 0.677712 1 0 1.000000
  0 7.833599 -17.634357 82.014145 0.530947 -0.846539 -0.038293 0.382792 0.677712 1 0 1.000000
Tree_02_leaves_old
  0 7.492424 -10.860295 17.797285 -0.884352 -0.022663 -0.466270 0.875504 0.673162 1 0 1.000000
  0 -17.212032 -29.906343 65.578804 -0.884352 -0.022663 -0.466270 0.436179 0.992449 1 0 1.000000
  0 -5.487818 8.781958 41.461567 -0.884352 -0.022663 -0.466270 0.875504 0.992449 1 0 1.000000
Tree_02_leaves_old
  0 -1.263021 -12.547950 62.785904 0.663315 0.711652 0.231439 0.000000 0.673162 1 0 1.000000
  0 1.376702 -30.413069 110.153778 0.663315 0.711652 0.231439 0.439326 0.673162 1 0 1.000000
  0 26.271326 -49.911850 98.761490 0.663315 0.711652 0.231439 0.439326 0.992449 1 0 1.000000
Tree_02_leaves_old
  0 7.492424 -10.860295 17.797285 -0.590047 -0.597334 -0.543173 0.875504 0.673162 1 0 1.000000
  0 8.219584 -42.008080 51.260963 -0.590047 -0.597334 -0.543173 0.436179 0.673162 1 0 1.000000
  0 -17.212032 -29.906343 65.578804 -0.590047 -0.597334 -0.543173 0.436179 0.992449 1 0 1.000000
Tree_02_leaves_old
  0 -1.263021 -12.547950 62.785904 0.876951 0.418111 -0.236939 0.000000 0.673162 1 0 1.000000
  0 26.271326 -49.911850 98.761490 0.876951 0.418111 -0.236939 0.439326 0.992449 1 0 1.000000
  0 9.117965 -42.330414 48.652401 0.876951 0.418111 -0.236939 0.000000 0.992449 1 0 1.000000
Tree_02_leaves_old
  0 -27.972597 4.830163 51.959755 -0.883741 -0.466406 -0.038293 0.391496 0.377111 1 0 1.000000
  0 -17.990229 -17.687635 95.847778 -0.883741 -0.466406 -0.038293 0.814244 0.677712 1 0 1.000000
  0 -30.003834 5.533811 90.267479 -0.883741 -0.466406 -0.038293 0.382792 0.677712 1 0 1.000000
Tree_02_leaves_old
  0 -5.620771 -9.196389 68.567642 -0.060622 -0.981308 0.182645 0.000000 0.673162 1 0 1.000000
  0 -24.824886 0.532220 114.463196 -0.060622 -0.981308 0.182645 0.439326 0.673162 1 0 1.000000
  0 -54.841640 -0.422676 99.369781 -0.060622 -0.981308 0.182645 0.439326 0.992449 1 0 1.000000
Tree_02_leaves_old
  0 -21.762178 30.743698 62.663857 -0.965468 0.254460 -0.055867 0.021521 0.542506 1 0 1.000000
  0 -27.972597 4.830163 51.959755 -0.965468 0.254460 -0.055867 0.391496 0.377111 1 0 1.000000
  0 -30.003834 5.533811 90.267479 -0.965468 0.254460 -0.055867 0.382792 0.677712 1 0 1.000000
Tree_02_leaves_old
  0 -5.620771 -9.196389 68.567642 -0.356755 -0.877648 -0.320093 0.000000 0.673162 1 0 1.000000
  0 -54.841640 -0.422676 99.369781 -0.356755 -0.877648 -0.320093 0.439326 0.992449 1 0 1.000000
  0 -31.139545 7.213949 52.014431 -0.356755 -0.877648 -0.320093 0.000000 0.992449 1 0 1.000000
Tree_02_leaves_old
  0 -4.308978 28.047979 25.277596 -0.826181 0.280569 -0.488575 0.021521 0.002037 1 0 1.000000
  0 -11.885499 10.140059 34.130558 -0.826181 0.280569 -0.488575 0.343102 0.002037 1 0 1.000000
  0 -21.762178 30.743698 62.663857 -0.826181 0.280569 -0.488575 0.021521 0.542506 1 0 1.000000
Tree_02_leaves_old
  0 -21.762178 30.743698 62.663857 -0.826181 0.280569 -0.488575 0.021521 0.542506 1 0 1.000000
  0 -11.885499 10.140059 34.130558 -0.826181 0.280569 -0.488575 0.343102 0.002037 1 0 1.000000
  0 -27.972597 4.830163 51.959755 -0.826181 0.280569 -0.488575 0.391496 0.377111 1 0 1.000000
Tree_02_leaves_old
  0 -11.885499 10.140059 34.130558 -0.683394 -0.486132 -0.544655 0.343102 0.002037 1 0 1.000000
  0 1.192883 -20.425110 37.906624 -0.683394 -0.486132 -0.544655 0.814244 0.002037 1 0 1.000000
  0 -27.972597 4.830163 51.959755 -0.683394 -0.486132 -0.544655 0.391496 0.377111 1 0 1.000000
Tree_02_leaves_old
  0 -27.972597 4.830163 51.959755 -0.683394 -0.486132 -0.544655 0.391496 0.377111 1 0 1.000000
  0 1.192883 -20.425110 37.906624 -0.683394 -0.486132 -0.544655 0.814244 0.002037 1 0 1.000000
  0 -11.784854 -21.019772 61.816021 -0.683394 -0.486132 -0.544655 0.814244 0.382710 1 0 1.000000
Tree_02_leaves_old
  0 -27.972597 4.830163 51.959755 -0.826628 -0.554423 -0.096443 0.391496 0.377111 1 0 1.000000
  0 -11.784854 -21.019772 61.816021 -0.826628 -0.554423 -0.096443 0.814244 0.382710 1 0 1.000000
  0 -17.990229 -17.687635 95.847778 -0.826628 -0.554423 -0.096443 0.814244 0.677712 1 0 1.000000
Tree_02_leaves_old
  0 -12.674722 2.653227 48.985664 -0.048202 -0.981308 0.186308 0.000000 0.673162 1 0 1.000000
  0 -27.702965 11.748795 93.005081 -0.048202 -0.981308 0.186308 0.439326 0.673162 1 0 1.000000
  0 -56.651974 10.856035 80.812996 -0.048202 -0.981308 0.186308 0.439326 0.992449 1 0 1.000000
Tree_02_leaves_old
  0 -33.918182 10.926343 40.490395 -0.044083 0.866250 0.497663 0.000000 0.673162 1 0 1.000000
  0 -29.170683 -17.372631 90.169144 -0.044083 0.866250 0.497663 0.439326 0.992449 1 0 1.000000
  0 -5.319794 4.575689 54.077835 -0.044083 0.866250 0.497663 0.000000 0.992449 1 0 1.000000
Tree_02_leaves_old
  0 -12.674722 2.653227 48.985664 -0.377473 -0.877648 -0.295377 0.000000 0.673162 1 0 1.000000
  0 -56.651974 10.856035 80.812996 -0.377473 -0.877648 -0.295377 0.439326 0.992449 1 0 1.000000
  0 -37.519733 17.995743 35.149055 -0.377473 -0.877648 -0.295377 0.000000 0.992449 1 0 1.000000
Tree_02_leaves_old
  0 -33.918182 10.926343 40.490395 -0.644536 0.636227 0.424014 0.000000 0.673162 1 0 1.000000
  0 -50.233086 -22.291199 65.532814 -0.644536 0.636227 0.424014 0.439326 0.673162 1 0 1.000000
  0 -29.170683 -17.372631 90.169144 -0.644536 0.636227 0.424014 0.439326 0.992449 1 0 1.000000
Tree_02_leaves_old
  0 -14.380106 -8.829080 42.650562 -0.711520 0.651184 -0.264004 0.391496 0.377111 1 0 1.000000
  0 -27.311419 -25.926003 35.331154 -0.711520 0.651184 -0.264004 0.814244 0.382710 1 0 1.000000
  0 -48.301945 -33.758869 72.582626 -0.711520 0.651184 -0.264004 0.814244 0.677712 1 0 1.000000
Tree_02_leaves_old
  0 -19.960102 7.331819 24.917263 -0.710283 0.595818 0.374832 0.875504 0.673162 1 0 1.000000
  0 -18.403013 -21.832615 74.226410 -0.710283 0.595818 0.374832 0.436179 0.992449 1 0 1.000000
  0 0.013964 14.674527 51.095173 -0.710283 0.595818 0.374832 0.875504 0.992449 1 0 1.000000
Tree_02_leaves_old
  0 -3.381947 -4.799922 26.906700 -0.686603 0.701379 -0.191427 0.343102 0.002037 1 0 1.000000
  0 -18.367702 -20.838055 12.952899 -0.686603 0.701379 -0.191427 0.814244 0.002037 1 0 1.000000
  0 -14.380106 -8.829080 42.650562 -0.686603 0.701379 -0.191427 0.391496 0.377111 1 0 1.000000
Tree_02_leaves_old
  0 -14.380106 -8.829080 42.650562 -0.686603 0.701379 -0.191427 0.391496 0.377111 1 0 1.000000
  0 -18.367702 -20.838055 12.952899 -0.686603 0.701379 -0.191427 0.814244 0.002037 1 0 1.000000
  0 -27.311419 -25.926003 35.331154 -0.686603 0.701379 -0.191427 0.814244 0.382710 1 0 1.000000
Tree_02_leaves_old
  0 15.452219 -1.694033 22.379988 -0.219262 0.975447 0.020659 0.021521 0.002037 1 0 1.000000
  0 -3.381947 -4.799922 26.906700 -0.219262 0.975447 0.020659 0.343102 0.002037 1 0 1.000000
  0 -0.086915 -4.577076 51.355492 -0.219262 0.975447 0.020659 0.021521 0.542506 1 0 1.000000
Tree_02_leaves_old
  0 -0.086915 -4.577076 51.355492 -0.219262 0.975447 0.020659 0.021521 0.542506 1 0 1.000000
  0 -3.381947 -4.799922 26.906700 -0.219262 0.975447 0.020659 0.343102 0.002037 1 0 1.000000
  0 -14.380106 -8.829080 42.650562 -0.219262 0.975447 0.020659 0.391496 0.377111 1 0 1.000000
Tree_02_leaves_old
  0 -0.086915 -4.577076 51.355492 -0.361889 0.920978 0.144349 0.021521 0.542506 1 0 1.000000
  0 -14.380106 -8.829080 42.650562 -0.361889 0.920978 0.144349 0.391496 0.377111 1 0 1.000000
  0 -31.547161 -20.080763 71.400253 -0.361889 0.920978 0.144349 0.382792 0.677712 1 0 1.000000
Tree_02_leaves_old
  0 -19.960102 7.331819 24.917263 -0.988974 0.111662 0.097273 0.875504 0.673162 1 0 1.000000
  0 -22.779688 -32.920708 42.457180 -0.988974 0.111662 0.097273 0.436179 0.673162 1 0 1.000000
  0 -18.403013 -21.832615 74.226410 -0.988974 0.111662 0.097273 0.436179 0.992449 1 0 1.000000
Tree_02_leaves_old
  0 -14.380106 -8.829080 42.650562 -0.633773 0.769655 -0.077222 0.391496 0.377111 1 0 1.000000
  0 -48.301945 -33.758869 72.582626 -0.633773 0.769655 -0.077222 0.814244 0.677712 1 0 1.000000
  0 -31.547161 -20.080763 71.400253 -0.633773 0.769655 -0.077222 0.382792 0.677712 1 0 1.000000
Tree_02_leaves_old
  0 -19.520073 5.709782 26.050625 0.043282 0.883583 -0.466270 0.875504 0.673162 1 0 1.000000
  0 -36.672726 31.764482 73.832153 0.043282 0.883583 -0.466270 0.436179 0.992449 1 0 1.000000
  0 1.034611 17.190639 49.714909 0.043282 0.883583 -0.466270 0.875504 0.992449 1 0 1.000000
Tree_02_leaves_old
  0 16.207458 5.430465 47.152794 0.617224 -0.776536 -0.126596 0.391496 0.377111 1 0 1.000000
  0 29.732025 18.951660 30.153692 0.617224 -0.776536 -0.126596 0.814244 0.382710 1 0 1.000000
  0 61.585899 39.144241 61.597832 0.617224 -0.776536 -0.126596 0.814244 0.677712 1 0 1.000000
Tree_02_leaves_old
  0 -19.520073 5.709782 26.050625 -0.551717 0.632908 -0.543173 0.875504 0.673162 1 0 1.000000
  0 -50.635452 7.305095 59.514297 -0.551717 0.632908 -0.543173 0.436179 0.673162 1 0 1.000000
  0 -36.672726 31.764482 73.832153 -0.551717 0.632908 -0.543173 0.436179 0.992449 1 0 1.000000
Tree_02_leaves_old
  0 0.356190 -3.595155 34.558678 0.604863 -0.795435 -0.037726 0.343102 0.002037 1 0 1.000000
  0 14.634605 5.962112 10.726019 0.604863 -0.795435 -0.037726 0.814244 0.002037 1 0 1.000000
  0 16.207458 5.430465 47.152794 0.604863 -0.795435 -0.037726 0.391496 0.377111 1 0 1.000000
Tree_02_leaves_old
  0 16.207458 5.430465 47.152794 0.604863 -0.795435 -0.037726 0.391496 0.377111 1 0 1.000000
  0 14.634605 5.962112 10.726019 0.604863 -0.795435 -0.037726 0.814244 0.002037 1 0 1.000000
  0 29.732025 18.951660 30.153692 0.604863 -0.795435 -0.037726 0.814244 0.382710 1 0 1.000000
Tree_02_leaves_old
  0 -21.639549 -6.287631 34.697395 0.176731 -0.925847 0.334025 0.021521 0.002037 1 0 1.000000
  0 0.356190 -3.595155 34.558678 0.176731 -0.925847 0.334025 0.343102 0.002037 1 0 1.000000
  0 2.108891 6.139067 60.612541 0.176731 -0.925847 0.334025 0.021521 0.542506 1 0 1.000000
Tree_02_leaves_old
  0 2.108891 6.139067 60.612541 0.176731 -0.925847 0.334025 0.021521 0.542506 1 0 1.000000
  0 0.356190 -3.595155 34.558678 0.176731 -0.925847 0.334025 0.343102 0.002037 1 0 1.000000
  0 16.207458 5.430465 47.152794 0.176731 -0.925847 0.334025 0.391496 0.377111 1 0 1.000000
Tree_02_leaves_old
  0 2.108891 6.139067 60.612541 0.343041 -0.848017 0.403967 0.021521 0.542506 1 0 1.000000
  0 16.207458 5.430465 47.152794 0.343041 -0.848017 0.403967 0.391496 0.377111 1 0 1.000000
  0 42.115623 26.373594 69.116325 0.343041 -0.848017 0.403967 0.382792 0.677712 1 0 1.000000
Tree_02_leaves_old
  0 -1.875720 22.315699 57.275967 -0.380335 0.924056 -0.038293 0.391496 0.377111 1 0 1.000000
  0 -25.240049 14.517805 101.164001 -0.380335 0.924056 -0.038293 0.814244 0.677712 1 0 1.000000
  0 -0.982273 24.270897 95.583694 -0.380335 0.924056 -0.038293 0.382792 0.677712 1 0 1.000000
Tree_02_leaves_old
  0 16.207458 5.430465 47.152794 0.572530 -0.813696 0.100537 0.391496 0.377111 1 0 1.000000
  0 61.585899 39.144241 61.597832 0.572530 -0.813696 0.100537 0.814244 0.677712 1 0 1.000000
  0 42.115623 26.373594 69.116325 0.572530 -0.813696 0.100537 0.382792 0.677712 1 0 1.000000
Tree_02_leaves_old
  0 23.330568 13.671421 67.980057 0.345035 0.936926 -0.055867 0.021521 0.542506 1 0 1.000000
  0 -1.875720 22.315699 57.275967 0.345035 0.936926 -0.055867 0.391496 0.377111 1 0 1.000000
  0 -0.982273 24.270897 95.583694 0.345035 0.936926 -0.055867 0.382792 0.677712 1 0 1.000000
Tree_02_leaves_old
  0 6.390118 8.186988 21.705603 0.577814 -0.163452 0.799634 0.000000 0.673162 1 0 1.000000
  0 -1.705965 36.741829 33.392662 0.577814 -0.163452 0.799634 0.439326 0.673162 1 0 1.000000
  0 -28.225817 28.715397 50.915188 0.577814 -0.163452 0.799634 0.439326 0.992449 1 0 1.000000
Tree_02_leaves_old
  0 19.510044 2.014079 30.593807 0.377748 0.857377 -0.349586 0.021521 0.002037 1 0 1.000000
  0 2.402951 11.257689 39.446766 0.377748 0.857377 -0.349586 0.343102 0.002037 1 0 1.000000
  0 23.330568 13.671421 67.980057 0.377748 0.857377 -0.349586 0.021521 0.542506 1 0 1.000000
Tree_02_leaves_old
  0 23.330568 13.671421 67.980057 0.377748 0.857377 -0.349586 0.021521 0.542506 1 0 1.000000
  0 2.402951 11.257689 39.446766 0.377748 0.857377 -0.349586 0.343102 0.002037 1 0 1.000000
  0 -1.875720 22.315699 57.275967 0.377748 0.857377 -0.349586 0.391496 0.377111 1 0 1.000000
Tree_02_leaves_old
  0 -1.875720 22.315699 57.275967 -0.473381 0.875562 -0.096443 0.391496 0.377111 1 0 1.000000
  0 -29.146669 8.657069 67.132225 -0.473381 0.875562 -0.096443 0.814244 0.382710 1 0 1.000000
  0 -25.240049 14.517805 101.164001 -0.473381 0.875562 -0.096443 0.814244 0.677712 1 0 1.000000
Tree_02_leaves_old
  0 6.390118 8.186988 21.705603 0.319911 -0.554088 0.768533 0.000000 0.673162 1 0 1.000000
  0 -28.225817 28.715397 50.915188 0.319911 -0.554088 0.768533 0.439326 0.992449 1 0 1.000000
  0 -22.385994 -6.393938 23.171602 0.319911 -0.554088 0.768533 0.000000 0.992449 1 0 1.000000
Tree_02_leaves_old
  0 -2.734963 13.338048 53.545212 -0.837816 0.459148 -0.295377 0.000000 0.673162 1 0 1.000000
  0 9.608854 56.337055 85.372551 -0.837816 0.459148 -0.295377 0.439326 0.992449 1 0 1.000000
  0 14.898583 36.613045 39.708611 -0.837816 0.459148 -0.295377 0.000000 0.992449 1 0 1.000000
Tree_02_leaves_old
  0 -11.190867 -13.574558 76.502235 -0.258067 -0.742775 -0.617808 0.391496 0.377111 1 0 1.000000
  0 8.022964 -27.815491 85.597885 -0.258067 -0.742775 -0.617808 0.814244 0.382710 1 0 1.000000
  0 -16.585188 -49.607182 122.076706 -0.258067 -0.742775 -0.617808 0.814244 0.677712 1 0 1.000000
Tree_02_leaves_old
  0 -2.734963 13.338048 53.545212 -0.972290 0.141215 0.186308 0.000000 0.673162 1 0 1.000000
  0 7.747241 27.434177 97.564636 -0.972290 0.141215 0.186308 0.439326 0.673162 1 0 1.000000
  0 9.608854 56.337055 85.372551 -0.972290 0.141215 0.186308 0.439326 0.992449 1 0 1.000000
Tree_02_leaves_old
  0 -1.338442 -1.992979 60.373592 -0.345195 -0.716867 -0.605757 0.343102 0.002037 1 0 1.000000
  0 22.492779 -18.874975 63.580002 -0.345195 -0.716867 -0.605757 0.814244 0.002037 1 0 1.000000
  0 -11.190867 -13.574558 76.502235 -0.345195 -0.716867 -0.605757 0.391496 0.377111 1 0 1.000000
Tree_02_leaves_old
  0 -11.190867 -13.574558 76.502235 -0.345195 -0.716867 -0.605757 0.391496 0.377111 1 0 1.000000
  0 22.492779 -18.874975 63.580002 -0.345195 -0.716867 -0.605757 0.814244 0.002037 1 0 1.000000
  0 8.022964 -27.815491 85.597885 -0.345195 -0.716867 -0.605757 0.814244 0.382710 1 0 1.000000
Tree_02_leaves_old
  0 0.054254 18.941984 53.241344 -0.685708 -0.251487 -0.683051 0.021521 0.002037 1 0 1.000000
  0 -1.338442 -1.992979 60.373592 -0.685708 -0.251487 -0.683051 0.343102 0.002037 1 0 1.000000
  0 -21.572906 2.756919 78.937958 -0.685708 -0.251487 -0.683051 0.021521 0.542506 1 0 1.000000
Tree_02_leaves_old
  0 -21.572906 2.756919 78.937958 -0.685708 -0.251487 -0.683051 0.021521 0.542506 1 0 1.000000
  0 -1.338442 -1.992979 60.373592 -0.685708 -0.251487 -0.683051 0.343102 0.002037 1 0 1.000000
  0 -11.190867 -13.574558 76.502235 -0.685708 -0.251487 -0.683051 0.391496 0.377111 1 0 1.000000
Tree_02_leaves_old
  0 -21.572906 2.756919 78.937958 -0.738789 -0.387408 -0.551458 0.021521 0.542506 1 0 1.000000
  0 -11.190867 -13.574558 76.502235 -0.738789 -0.387408 -0.551458 0.391496 0.377111 1 0 1.000000
  0 -26.148626 -31.283140 108.981720 -0.738789 -0.387408 -0.551458 0.382792 0.677712 1 0 1.000000
Tree_02_leaves_old
  0 1.472337 18.366453 29.476816 0.660604 0.650463 0.374832 0.875504 0.673162 1 0 1.000000
  0 -27.708105 19.587221 78.785965 0.660604 0.650463 0.374832 0.436179 0.992449 1 0 1.000000
  0 6.884168 -2.214874 55.654724 0.660604 0.650463 0.374832 0.875504 0.992449 1 0 1.000000
Tree_02_leaves_old
  0 -11.190867 -13.574558 76.502235 -0.474891 -0.662129 -0.579710 0.391496 0.377111 1 0 1.000000
  0 -16.585188 -49.607182 122.076706 -0.474891 -0.662129 -0.579710 0.814244 0.677712 1 0 1.000000
  0 -26.148626 -31.283140 108.981720 -0.474891 -0.662129 -0.579710 0.382792 0.677712 1 0 1.000000
Tree_02_leaves_old
  0 1.472337 18.366453 29.476816 0.205115 0.973892 0.097273 0.875504 0.673162 1 0 1.000000
  0 -38.330227 24.997536 47.016731 0.205115 0.973892 0.097273 0.436179 0.673162 1 0 1.000000
  0 -27.708105 19.587221 78.785965 0.205115 0.973892 0.097273 0.436179 0.992449 1 0 1.000000
Tree_02_leaves_old
  0 0.511345 5.459004 67.657204 0.943763 0.056589 0.325743 0.000000 0.673162 1 0 1.000000
  0 -6.565689 -14.384537 91.608459 0.943763 0.056589 0.325743 0.439326 0.673162 1 0 1.000000
  0 0.012804 -43.269127 77.566757 0.943763 0.056589 0.325743 0.439326 0.992449 1 0 1.000000
Tree_02_leaves_old
  0 -0.538125 19.655710 30.610180 0.875474 -0.127032 -0.466270 0.875504 0.673162 1 0 1.000000
  0 27.028334 34.255428 78.391701 0.875474 -0.127032 -0.466270 0.436179 0.992449 1 0 1.000000
  0 8.937980 -1.896734 54.274467 0.875474 -0.127032 -0.466270 0.875504 0.992449 1 0 1.000000
Tree_02_leaves_old
  0 0.511345 5.459004 67.657204 0.990619 -0.036893 -0.131579 0.000000 0.673162 1 0 1.000000
  0 0.012804 -43.269127 77.566757 0.990619 -0.036893 -0.131579 0.439326 0.992449 1 0 1.000000
  0 -3.544188 -14.735594 42.786575 0.990619 -0.036893 -0.131579 0.000000 0.992449 1 0 1.000000
Tree_02_leaves_old
  0 -0.538125 19.655710 30.610180 0.682461 0.489091 -0.543173 0.875504 0.673162 1 0 1.000000
  0 4.006131 50.478783 64.073853 0.682461 0.489091 -0.543173 0.436179 0.673162 1 0 1.000000
  0 27.028334 34.255428 78.391701 0.682461 0.489091 -0.543173 0.436179 0.992449 1 0 1.000000
Tree_02_leaves_old
  0 18.157791 -6.530617 133.435440 0.979003 -0.121298 0.163829 0.391496 0.377111 1 0 1.000000
  0 20.464020 18.504950 138.190231 0.979003 -0.121298 0.163829 0.814244 0.382710 1 0 1.000000
  0 12.198424 18.003727 187.212479 0.979003 -0.121298 0.163829 0.814244 0.677712 1 0 1.000000
Tree_02_leaves_old
  0 25.560856 5.006169 74.015419 0.612266 0.589064 0.527384 0.391496 0.377111 1 0 1.000000
  0 -8.657142 9.502610 108.718460 0.612266 0.589064 0.527384 0.814244 0.677712 1 0 1.000000
  0 11.042360 -8.185019 105.604630 0.612266 0.589064 0.527384 0.382792 0.677712 1 0 1.000000
Tree_02_leaves_old
  0 5.730012 -21.503305 132.091812 0.727455 -0.628513 0.275281 0.021521 0.542506 1 0 1.000000
  0 18.157791 -6.530617 133.435440 0.727455 -0.628513 0.275281 0.391496 0.377111 1 0 1.000000
  0 7.606628 -1.400290 173.031219 0.727455 -0.628513 0.275281 0.382792 0.677712 1 0 1.000000
Tree_02_leaves_old
  0 24.238970 -23.233265 71.899048 0.917361 -0.072278 0.391440 0.021521 0.542506 1 0 1.000000
  0 25.560856 5.006169 74.015419 0.917361 -0.072278 0.391440 0.391496 0.377111 1 0 1.000000
  0 11.042360 -8.185019 105.604630 0.917361 -0.072278 0.391440 0.382792 0.677712 1 0 1.000000
Tree_02_leaves_old
  0 18.157791 -6.530617 133.435440 0.865553 -0.412447 0.284085 0.391496 0.377111 1 0 1.000000
  0 12.198424 18.003727 187.212479 0.865553 -0.412447 0.284085 0.814244 0.677712 1 0 1.000000
  0 7.606628 -1.400290 173.031219 0.865553 -0.412447 0.284085 0.382792 0.677712 1 0 1.000000
Tree_02_leaves_old
  0 29.589842 -9.956382 35.422829 0.994701 0.002778 0.102768 0.021521 0.002037 1 0 1.000000
  0 26.231394 4.585951 51.862221 0.994701 0.002778 0.102768 0.343102 0.002037 1 0 1.000000
  0 24.238970 -23.233265 71.899048 0.994701 0.002778 0.102768 0.021521 0.542506 1 0 1.000000
Tree_02_leaves_old
  0 24.238970 -23.233265 71.899048 0.994701 0.002778 0.102768 0.021521 0.542506 1 0 1.000000
  0 26.231394 4.585951 51.862221 0.994701 0.002778 0.102768 0.343102 0.002037 1 0 1.000000
  0 25.560856 5.006169 74.015419 0.994701 0.002778 0.102768 0.391496 0.377111 1 0 1.000000
Tree_02_leaves_old
  0 26.231394 4.585951 51.862221 0.628224 0.773131 0.087199 0.343102 0.002037 1 0 1.000000
  0 -0.420764 28.666969 51.416386 0.628224 0.773131 0.087199 0.814244 0.002037 1 0 1.000000
  0 25.560856 5.006169 74.015419 0.628224 0.773131 0.087199 0.391496 0.377111 1 0 1.000000
Tree_02_leaves_old
  0 25.560856 5.006169 74.015419 0.628224 0.773131 0.087199 0.391496 0.377111 1 0 1.000000
  0 -0.420764 28.666969 51.416386 0.628224 0.773131 0.087199 0.814244 0.002037 1 0 1.000000
  0 -0.232428 23.068989 78.644737 0.628224 0.773131 0.087199 0.814244 0.382710 1 0 1.000000
Tree_02_leaves_old
  0 25.560856 5.006169 74.015419 0.562169 0.683395 0.465765 0.391496 0.377111 1 0 1.000000
  0 -0.232428 23.068989 78.644737 0.562169 0.683395 0.465765 0.814244 0.382710 1 0 1.000000
  0 -8.657142 9.502610 108.718460 0.562169 0.683395 0.465765 0.814244 0.677712 1 0 1.000000
Tree_02_leaves_old
  0 -0.875315 0.623451 139.430557 0.948399 0.118020 0.294298 0.391496 0.377111 1 0 1.000000
  0 -5.427708 25.349430 144.185349 0.948399 0.118020 0.294298 0.814244 0.382710 1 0 1.000000
  0 -20.301497 22.630890 193.207596 0.948399 0.118020 0.294298 0.814244 0.677712 1 0 1.000000
Tree_02_leaves_old
  0 13.083338 6.912592 56.549580 0.181110 0.973577 0.139092 0.000000 0.673162 1 0 1.000000
  0 38.081924 -4.937508 106.944420 0.181110 0.973577 0.139092 0.439326 0.992449 1 0 1.000000
  0 44.282333 1.064273 56.861221 0.181110 0.973577 0.139092 0.000000 0.992449 1 0 1.000000
Tree_02_leaves_old
  0 -1.373441 -0.156887 117.283798 0.993762 0.092912 0.061675 0.343102 0.002037 1 0 1.000000
  0 -2.145252 29.209873 116.828125 0.993762 0.092912 0.061675 0.814244 0.002037 1 0 1.000000
  0 -0.875315 0.623451 139.430557 0.993762 0.092912 0.061675 0.391496 0.377111 1 0 1.000000
Tree_02_leaves_old
  0 -0.875315 0.623451 139.430557 0.993762 0.092912 0.061675 0.391496 0.377111 1 0 1.000000
  0 -2.145252 29.209873 116.828125 0.993762 0.092912 0.061675 0.814244 0.002037 1 0 1.000000
  0 -5.427708 25.349430 144.185349 0.993762 0.092912 0.061675 0.814244 0.382710 1 0 1.000000
Tree_02_leaves_old
  0 -10.472448 -12.329662 101.155785 0.666026 -0.741202 0.083839 0.021521 0.002037 1 0 1.000000
  0 -1.373441 -0.156887 117.283798 0.666026 -0.741202 0.083839 0.343102 0.002037 1 0 1.000000
  0 -22.906590 -17.152937 138.086929 0.666026 -0.741202 0.083839 0.021521 0.542506 1 0 1.000000
Tree_02_leaves_old
  0 -22.906590 -17.152937 138.086929 0.666026 -0.741202 0.083839 0.021521 0.542506 1 0 1.000000
  0 -1.373441 -0.156887 117.283798 0.666026 -0.741202 0.083839 0.343102 0.002037 1 0 1.000000
  0 -0.875315 0.623451 139.430557 0.666026 -0.741202 0.083839 0.391496 0.377111 1 0 1.000000
Tree_02_leaves_old
  0 -22.906590 -17.152937 138.086929 0.584533 -0.748174 0.313939 0.021521 0.542506 1 0 1.000000
  0 -0.875315 0.623451 139.430557 0.584533 -0.748174 0.313939 0.391496 0.377111 1 0 1.000000
  0 -19.472912 2.708191 179.026337 0.584533 -0.748174 0.313939 0.382792 0.677712 1 0 1.000000
Tree_02_leaves_old
  0 13.083338 6.912592 56.549580 -0.380110 0.840462 0.386186 0.000000 0.673162 1 0 1.000000
  0 9.457084 -14.013603 98.522362 -0.380110 0.840462 0.386186 0.439326 0.673162 1 0 1.000000
  0 38.081924 -4.937508 106.944420 -0.380110 0.840462 0.386186 0.439326 0.992449 1 0 1.000000
Tree_02_leaves_old
  0 -0.875315 0.623451 139.430557 0.867631 -0.263879 0.421408 0.391496 0.377111 1 0 1.000000
  0 -20.301497 22.630890 193.207596 0.867631 -0.263879 0.421408 0.814244 0.677712 1 0 1.000000
  0 -19.472912 2.708191 179.026337 0.867631 -0.263879 0.421408 0.382792 0.677712 1 0 1.000000
Tree_02_leaves_old
  0 48.053612 10.732496 66.798370 0.050611 -0.972046 0.229270 0.000000 0.673162 1 0 1.000000
  0 13.777663 19.342590 110.869415 0.050611 -0.972046 0.229270 0.439326 0.992449 1 0 1.000000
  0 16.785425 7.879900 61.606510 0.050611 -0.972046 0.229270 0.000000 0.992449 1 0 1.000000
Tree_02_leaves_old
  0 28.154047 16.325344 45.868118 0.878114 0.384958 -0.284119 0.875504 0.673162 1 0 1.000000
  0 42.341709 17.529127 91.348320 0.878114 0.384958 -0.284119 0.436179 0.673162 1 0 1.000000
  0 53.708431 -11.092494 87.699020 0.878114 0.384958 -0.284119 0.436179 0.992449 1 0 1.000000
Tree_02_leaves_old
  0 48.053612 10.732496 66.798370 0.513855 -0.673596 0.531246 0.000000 0.673162 1 0 1.000000
  0 39.981991 35.143719 105.558044 0.513855 -0.673596 0.531246 0.439326 0.673162 1 0 1.000000
  0 13.777663 19.342590 110.869415 0.513855 -0.673596 0.531246 0.439326 0.992449 1 0 1.000000
Tree_02_leaves_old
  0 28.154047 16.325344 45.868118 0.791649 -0.161258 -0.589311 0.875504 0.673162 1 0 1.000000
  0 53.708431 -11.092494 87.699020 0.791649 -0.161258 -0.589311 0.436179 0.992449 1 0 1.000000
  0 24.095175 -15.031693 48.996113 0.791649 -0.161258 -0.589311 0.875504 0.992449 1 0 1.000000
Tree_02_leaves_old
  0 0.985484 21.398584 47.236832 0.654339 0.579512 -0.485804 0.875504 0.673162 1 0 1.000000
  0 31.115582 27.707888 95.345963 0.654339 0.579512 -0.485804 0.436179 0.992449 1 0 1.000000
  0 24.434687 1.032602 54.526596 0.654339 0.579512 -0.485804 0.875504 0.992449 1 0 1.000000
Tree_02_leaves_old
  0 7.518991 33.699425 45.049950 0.694584 0.581175 0.424015 0.000000 0.673162 1 0 1.000000
  0 -23.998278 53.096397 70.092369 0.694584 0.581175 0.424015 0.439326 0.673162 1 0 1.000000
  0 -21.103018 31.661970 94.728691 0.694584 0.581175 0.424015 0.439326 0.992449 1 0 1.000000
Tree_02_leaves_old
  0 0.985484 21.398584 47.236832 0.197677 0.948332 -0.248172 0.875504 0.673162 1 0 1.000000
  0 0.747252 33.544529 93.459984 0.197677 0.948332 -0.248172 0.436179 0.673162 1 0 1.000000
  0 31.115582 27.707888 95.345963 0.197677 0.948332 -0.248172 0.436179 0.992449 1 0 1.000000
Tree_02_leaves_old
  0 7.518991 33.699425 45.049950 0.866519 -0.038415 0.497663 0.000000 0.673162 1 0 1.000000
  0 -21.103018 31.661970 94.728691 0.866519 -0.038415 0.497663 0.439326 0.992449 1 0 1.000000
  0 -1.519962 5.833744 58.637394 0.866519 -0.038415 0.497663 0.000000 0.992449 1 0 1.000000
Tree_02_leaves_old
  0 35.305897 11.216015 42.738079 0.584375 -0.609012 0.536293 0.875504 0.673162 1 0 1.000000
  0 3.520418 21.203157 88.714668 0.584375 -0.609012 0.536293 0.436179 0.992449 1 0 1.000000
  0 10.112585 -7.167348 49.314053 0.584375 -0.609012 0.536293 0.875504 0.992449 1 0 1.000000
Tree_02_leaves_old
  0 -8.944581 -13.804387 150.255753 -0.964527 -0.213238 0.155620 0.000000 0.673162 1 0 1.000000
  0 -0.467838 -14.301408 202.113159 -0.964527 -0.213238 0.155620 0.439326 0.673162 1 0 1.000000
  0 -3.724674 5.800254 209.471680 -0.964527 -0.213238 0.155620 0.439326 0.992449 1 0 1.000000
Tree_02_leaves_old
  0 35.305897 11.216015 42.738079 0.822551 -0.000136 0.568692 0.875504 0.673162 1 0 1.000000
  0 17.138220 42.646587 69.023125 0.822551 -0.000136 0.568692 0.436179 0.673162 1 0 1.000000
  0 3.520418 21.203157 88.714668 0.822551 -0.000136 0.568692 0.436179 0.992449 1 0 1.000000
Tree_02_leaves_old
  0 -8.944581 -13.804387 150.255753 -0.852920 0.513367 -0.094775 0.000000 0.673162 1 0 1.000000
  0 -3.724674 5.800254 209.471680 -0.852920 0.513367 -0.094775 0.439326 0.992449 1 0 1.000000
  0 7.143850 13.443461 153.062363 -0.852920 0.513367 -0.094775 0.000000 0.992449 1 0 1.000000
Tree_02_leaves_old
  0 15.145978 -3.857759 97.920708 0.850171 -0.018641 0.526177 0.391496 0.377111 1 0 1.000000
  0 -5.597127 29.657621 132.623734 0.850171 -0.018641 0.526177 0.814244 0.677712 1 0 1.000000
  0 -4.359097 -1.773028 129.509903 0.850171 -0.018641 0.526177 0.382792 0.677712 1 0 1.000000
Tree_02_leaves_old
  0 7.486515 6.459291 120.376335 0.831208 -0.432502 0.349336 0.000000 0.673162 1 0 1.000000
  0 -8.780247 11.756207 165.639252 0.831208 -0.432502 0.349336 0.439326 0.673162 1 0 1.000000
  0 -23.579178 -15.412940 167.214523 0.831208 -0.432502 0.349336 0.439326 0.992449 1 0 1.000000
Tree_02_leaves_old
  0 -6.836113 -26.199141 95.804329 0.623556 -0.654090 0.428188 0.021521 0.542506 1 0 1.000000
  0 15.145978 -3.857759 97.920708 0.623556 -0.654090 0.428188 0.391496 0.377111 1 0 1.000000
  0 -4.359097 -1.773028 129.509903 0.623556 -0.654090 0.428188 0.382792 0.677712 1 0 1.000000
Tree_02_leaves_old
  0 7.486515 6.459291 120.376335 0.578906 -0.815388 0.003197 0.000000 0.673162 1 0 1.000000
  0 -23.579178 -15.412940 167.214523 0.578906 -0.815388 0.003197 0.439326 0.992449 1 0 1.000000
  0 -17.525576 -11.333942 111.384521 0.578906 -0.815388 0.003197 0.000000 0.992449 1 0 1.000000
Tree_02_leaves_old
  0 6.641397 -16.810875 59.328110 0.727674 -0.682473 0.068707 0.021521 0.002037 1 0 1.000000
  0 15.277512 -4.638097 75.767509 0.727674 -0.682473 0.068707 0.343102 0.002037 1 0 1.000000
  0 -6.836113 -26.199141 95.804329 0.727674 -0.682473 0.068707 0.021521 0.542506 1 0 1.000000
Tree_02_leaves_old
  0 -6.836113 -26.199141 95.804329 0.727674 -0.682473 0.068707 0.021521 0.542506 1 0 1.000000
  0 15.277512 -4.638097 75.767509 0.727674 -0.682473 0.068707 0.343102 0.002037 1 0 1.000000
  0 15.145978 -3.857759 97.920708 0.727674 -0.682473 0.068707 0.391496 0.377111 1 0 1.000000
Tree_02_leaves_old
  0 15.277512 -4.638097 75.767509 0.991823 0.060478 0.112384 0.343102 0.002037 1 0 1.000000
  0 15.564049 31.280592 75.321678 0.991823 0.060478 0.112384 0.814244 0.002037 1 0 1.000000
  0 15.145978 -3.857759 97.920708 0.991823 0.060478 0.112384 0.391496 0.377111 1 0 1.000000
Tree_02_leaves_old
  0 15.145978 -3.857759 97.920708 0.991823 0.060478 0.112384 0.391496 0.377111 1 0 1.000000
  0 15.564049 31.280592 75.321678 0.991823 0.060478 0.112384 0.814244 0.002037 1 0 1.000000
  0 9.921883 33.423634 102.550018 0.991823 0.060478 0.112384 0.814244 0.382710 1 0 1.000000
Tree_02_leaves_old
  0 15.145978 -3.857759 97.920708 0.883310 0.066146 0.464100 0.391496 0.377111 1 0 1.000000
  0 9.921883 33.423634 102.550018 0.883310 0.066146 0.464100 0.814244 0.382710 1 0 1.000000
  0 -5.597127 29.657621 132.623734 0.883310 0.066146 0.464100 0.814244 0.677712 1 0 1.000000
Tree_02_leaves_old
  0 -16.172619 4.786745 115.951492 -0.382510 0.862343 0.331738 0.000000 0.673162 1 0 1.000000
  0 -25.614285 -17.376829 162.678238 -0.382510 0.862343 0.331738 0.439326 0.673162 1 0 1.000000
  0 0.193937 -10.114471 173.558090 -0.382510 0.862343 0.331738 0.439326 0.992449 1 0 1.000000
Tree_02_leaves_old
  0 7.497407 4.979087 86.507729 0.883749 0.456170 0.104384 0.000000 0.673162 1 0 1.000000
  0 15.252477 -21.576778 136.902573 0.883749 0.456170 0.104384 0.439326 0.992449 1 0 1.000000
  0 23.857683 -26.787422 86.819382 0.883749 0.456170 0.104384 0.000000 0.992449 1 0 1.000000
Tree_02_leaves_old
  0 -16.172619 4.786745 115.951492 0.304786 0.939487 0.156426 0.000000 0.673162 1 0 1.000000
  0 0.193937 -10.114471 173.558090 0.304786 0.939487 0.156426 0.439326 0.992449 1 0 1.000000
  0 13.943210 -5.187280 117.176163 0.304786 0.939487 0.156426 0.000000 0.992449 1 0 1.000000
Tree_02_leaves_old
  0 7.497407 4.979087 86.507729 0.375518 0.842524 0.386186 0.000000 0.673162 1 0 1.000000
  0 -10.550584 -6.215789 128.480530 0.375518 0.842524 0.386186 0.439326 0.673162 1 0 1.000000
  0 15.252477 -21.576778 136.902573 0.375518 0.842524 0.386186 0.439326 0.992449 1 0 1.000000
Tree_02_leaves_old
  0 -11.071858 -15.925083 91.899651 -0.603223 -0.782039 0.156643 0.000000 0.673162 1 0 1.000000
  0 -5.529500 -10.518781 140.233841 -0.603223 -0.782039 0.156643 0.439326 0.673162 1 0 1.000000
  0 -29.368925 8.802390 144.890427 -0.603223 -0.782039 0.156643 0.439326 0.992449 1 0 1.000000
Tree_02_leaves_old
  0 21.984203 -13.836720 90.703651 -0.688780 -0.665137 0.288399 0.000000 0.673162 1 0 1.000000
  0 4.736831 23.132603 134.774704 -0.688780 -0.665137 0.288399 0.439326 0.992449 1 0 1.000000
  0 -0.924358 7.634998 85.511795 -0.688780 -0.665137 0.288399 0.000000 0.992449 1 0 1.000000
Tree_02_leaves_old
  0 -11.071858 -15.925083 91.899651 -0.911901 -0.387978 -0.133823 0.000000 0.673162 1 0 1.000000
  0 -29.368925 8.802390 144.890427 -0.911901 -0.387978 -0.133823 0.439326 0.992449 1 0 1.000000
  0 -23.116302 13.338986 89.131195 -0.911901 -0.387978 -0.133823 0.000000 0.992449 1 0 1.000000
Tree_02_leaves_old
  0 21.984203 -13.836720 90.703651 -0.074524 -0.778174 0.623612 0.000000 0.673162 1 0 1.000000
  0 34.499821 16.025835 129.463318 -0.074524 -0.778174 0.623612 0.439326 0.673162 1 0 1.000000
  0 4.736831 23.132603 134.774704 -0.074524 -0.778174 0.623612 0.439326 0.992449 1 0 1.000000
Tree_02_leaves_old
  0 -2.232804 6.244020 139.921753 0.273015 0.938442 0.211636 0.000000 0.673162 1 0 1.000000
  0 -17.908232 -2.951473 200.918274 0.273015 0.938442 0.211636 0.439326 0.673162 1 0 1.000000
  0 7.514226 -12.041552 208.430283 0.273015 0.938442 0.211636 0.439326 0.992449 1 0 1.000000
Tree_02_leaves_old
  0 26.794960 -8.169075 74.290779 -0.038653 -0.788558 0.613744 0.875504 0.673162 1 0 1.000000
  0 11.898586 28.345276 120.267395 -0.038653 -0.788558 0.613744 0.436179 0.992449 1 0 1.000000
  0 -3.683400 -1.556937 80.866760 -0.038653 -0.788558 0.613744 0.875504 0.992449 1 0 1.000000
Tree_02_leaves_old
  0 -2.232804 6.244020 139.921753 0.856898 0.515250 0.015610 0.000000 0.673162 1 0 1.000000
  0 7.514226 -12.041552 208.430283 0.856898 0.515250 0.015610 0.439326 0.992449 1 0 1.000000
  0 14.128171 -20.957499 139.658920 0.856898 0.515250 0.015610 0.000000 0.992449 1 0 1.000000
Tree_02_leaves_old
  0 26.794960 -8.169075 74.290779 0.603000 -0.517952 0.606726 0.875504 0.673162 1 0 1.000000
  0 36.643353 34.086605 100.575836 0.603000 -0.517952 0.606726 0.436179 0.673162 1 0 1.000000
  0 11.898586 28.345276 120.267395 0.603000 -0.517952 0.606726 0.436179 0.992449 1 0 1.000000
Tree_02_leaves_old
  0 8.856062 4.743503 117.274521 -0.571017 -0.732113 -0.371417 0.875504 0.673162 1 0 1.000000
  0 11.761489 -20.555414 162.675339 -0.571017 -0.732113 -0.371417 0.436179 0.673162 1 0 1.000000
  0 -16.608957 2.919076 160.020660 -0.571017 -0.732113 -0.371417 0.436179 0.992449 1 0 1.000000
Tree_02_leaves_old
  0 27.712315 -6.317778 76.194962 -0.139351 -0.751949 -0.644324 0.875504 0.673162 1 0 1.000000
  0 1.045179 -37.219563 118.025833 -0.139351 -0.751949 -0.644324 0.436179 0.992449 1 0 1.000000
  0 -3.749010 -3.167682 79.322952 -0.139351 -0.751949 -0.644324 0.875504 0.992449 1 0 1.000000
Tree_02_leaves_old
  0 8.856062 4.743503 117.274521 -0.114043 -0.987358 -0.110079 0.875504 0.673162 1 0 1.000000
  0 -16.608957 2.919076 160.020660 -0.114043 -0.987358 -0.110079 0.436179 0.992449 1 0 1.000000
  0 -22.500669 7.893603 121.505409 -0.114043 -0.987358 -0.110079 0.875504 0.992449 1 0 1.000000
Tree_02_leaves_old
  0 27.712315 -6.317778 76.194962 0.408090 -0.839091 -0.359706 0.875504 0.673162 1 0 1.000000
  0 29.326006 -25.029646 121.675133 0.408090 -0.839091 -0.359706 0.436179 0.673162 1 0 1.000000
  0 1.045179 -37.219563 118.025833 0.408090 -0.839091 -0.359706 0.436179 0.992449 1 0 1.000000
Tree_02_leaves_old
  0 8.910931 -0.798658 115.403488 0.534832 -0.679053 0.502834 0.875504 0.673162 1 0 1.000000
  0 20.023386 27.111065 141.274643 0.534832 -0.679053 0.502834 0.436179 0.673162 1 0 1.000000
  0 -4.478105 23.039320 161.836578 0.534832 -0.679053 0.502834 0.436179 0.992449 1 0 1.000000
Tree_02_leaves_old
  0 -4.913493 22.393391 93.609474 0.689665 0.522199 -0.501667 0.000000 0.673162 1 0 1.000000
  0 37.880630 5.603539 134.963562 0.689665 0.522199 -0.501667 0.439326 0.992449 1 0 1.000000
  0 12.445083 -3.976791 90.023697 0.689665 0.522199 -0.501667 0.000000 0.992449 1 0 1.000000
Tree_02_leaves_old
  0 8.910931 -0.798658 115.403488 -0.085827 -0.896170 0.435331 0.875504 0.673162 1 0 1.000000
  0 -4.478105 23.039320 161.836578 -0.085827 -0.896170 0.435331 0.436179 0.992449 1 0 1.000000
  0 -21.365332 5.813481 123.046135 -0.085827 -0.896170 0.435331 0.875504 0.992449 1 0 1.000000
Tree_02_leaves_old
  0 -4.913493 22.393391 93.609474 0.382345 0.923790 -0.020598 0.000000 0.673162 1 0 1.000000
  0 10.222319 17.235178 143.225922 0.382345 0.923790 -0.020598 0.439326 0.673162 1 0 1.000000
  0 37.880630 5.603539 134.963562 0.382345 0.923790 -0.020598 0.439326 0.992449 1 0 1.000000
Tree_02_leaves_old
  0 13.411544 -12.571788 131.977066 -0.215859 -0.919517 0.328472 0.000000 0.673162 1 0 1.000000
  0 20.705746 2.014412 177.602875 -0.215859 -0.919517 0.328472 0.439326 0.673162 1 0 1.000000
  0 -8.349133 11.097922 183.937363 -0.215859 -0.919517 0.328472 0.439326 0.992449 1 0 1.000000
Tree_02_leaves_old
  0 -8.826573 -1.463243 94.518417 -0.892056 -0.365535 0.265746 0.391496 0.377111 1 0 1.000000
  0 10.369661 -16.183907 138.708023 -0.892056 -0.365535 0.265746 0.814244 0.677712 1 0 1.000000
  0 -1.327759 6.670147 130.877960 -0.892056 -0.365535 0.265746 0.382792 0.677712 1 0 1.000000
Tree_02_leaves_old
  0 13.411544 -12.571788 131.977066 -0.685503 -0.726741 0.043971 0.000000 0.673162 1 0 1.000000
  0 -8.349133 11.097922 183.937363 -0.685503 -0.726741 0.043971 0.439326 0.992449 1 0 1.000000
  0 -9.633135 8.899926 127.591995 -0.685503 -0.726741 0.043971 0.000000 0.992449 1 0 1.000000
Tree_02_leaves_old
  0 1.123549 25.026838 96.132538 -0.932170 0.343101 0.115502 0.021521 0.542506 1 0 1.000000
  0 -8.826573 -1.463243 94.518417 -0.932170 0.343101 0.115502 0.391496 0.377111 1 0 1.000000
  0 -1.327759 6.670147 130.877960 -0.932170 0.343101 0.115502 0.382792 0.677712 1 0 1.000000
Tree_02_leaves_old
  0 -7.961234 3.782403 93.626152 0.899704 0.108624 0.422768 0.000000 0.673162 1 0 1.000000
  0 -30.704638 7.968691 140.951492 0.899704 0.108624 0.422768 0.439326 0.673162 1 0 1.000000
  0 -29.237904 -20.291039 145.091003 0.899704 0.108624 0.422768 0.439326 0.992449 1 0 1.000000
Tree_02_leaves_old
  0 3.291551 14.015193 58.343140 -0.935444 0.301623 -0.184302 0.021521 0.002037 1 0 1.000000
  0 -2.746729 -0.858496 73.413315 -0.935444 0.301623 -0.184302 0.343102 0.002037 1 0 1.000000
  0 1.123549 25.026838 96.132538 -0.935444 0.301623 -0.184302 0.021521 0.542506 1 0 1.000000
Tree_02_leaves_old
  0 1.123549 25.026838 96.132538 -0.935444 0.301623 -0.184302 0.021521 0.542506 1 0 1.000000
  0 -2.746729 -0.858496 73.413315 -0.935444 0.301623 -0.184302 0.343102 0.002037 1 0 1.000000
  0 -8.826573 -1.463243 94.518417 -0.935444 0.301623 -0.184302 0.391496 0.377111 1 0 1.000000
Tree_02_leaves_old
  0 -2.746729 -0.858496 73.413315 -0.853210 -0.489780 -0.179297 0.343102 0.002037 1 0 1.000000
  0 14.415607 -36.487167 79.591118 -0.853210 -0.489780 -0.179297 0.814244 0.002037 1 0 1.000000
  0 -8.826573 -1.463243 94.518417 -0.853210 -0.489780 -0.179297 0.391496 0.377111 1 0 1.000000
Tree_02_leaves_old
  0 -8.826573 -1.463243 94.518417 -0.853210 -0.489780 -0.179297 0.391496 0.377111 1 0 1.000000
  0 14.415607 -36.487167 79.591118 -0.853210 -0.489780 -0.179297 0.814244 0.002037 1 0 1.000000
  0 7.793718 -31.098566 105.860947 -0.853210 -0.489780 -0.179297 0.814244 0.382710 1 0 1.000000
Tree_02_leaves_old
  0 -8.826573 -1.463243 94.518417 -0.882154 -0.398929 0.250320 0.391496 0.377111 1 0 1.000000
  0 7.793718 -31.098566 105.860947 -0.882154 -0.398929 0.250320 0.814244 0.382710 1 0 1.000000
  0 10.369661 -16.183907 138.708023 -0.882154 -0.398929 0.250320 0.814244 0.677712 1 0 1.000000
Tree_02_leaves_old
  0 -7.961234 3.782403 93.626152 0.847752 -0.519378 0.107532 0.000000 0.673162 1 0 1.000000
  0 -29.237904 -20.291039 145.091003 0.847752 -0.519378 0.107532 0.439326 0.992449 1 0 1.000000
  0 -23.604439 -23.155996 86.840843 0.847752 -0.519378 0.107532 0.000000 0.992449 1 0 1.000000
Tree_02_leaves_old
  0 3.948815 -3.319946 86.603531 -0.519798 -0.848936 0.095489 0.000000 0.673162 1 0 1.000000
  0 -30.044676 22.015574 126.801582 -0.519798 -0.848936 0.095489 0.439326 0.992449 1 0 1.000000
  0 -22.514559 11.767182 76.679680 -0.519798 -0.848936 0.095489 0.000000 0.992449 1 0 1.000000
Tree_02_leaves_old
  0 -11.629095 -7.372011 63.521687 -0.713903 0.468217 -0.520687 0.875504 0.673162 1 0 1.000000
  0 -33.211189 3.983882 103.324043 -0.713903 0.468217 -0.520687 0.436179 0.673162 1 0 1.000000
  0 -15.002492 35.295467 106.514763 -0.713903 0.468217 -0.520687 0.436179 0.992449 1 0 1.000000
Tree_02_leaves_old
  0 3.948815 -3.319946 86.603531 -0.051747 -0.864014 0.500801 0.000000 0.673162 1 0 1.000000
  0 0.805269 21.926727 129.835953 -0.051747 -0.864014 0.500801 0.439326 0.673162 1 0 1.000000
  0 -30.044676 22.015574 126.801582 -0.051747 -0.864014 0.500801 0.439326 0.992449 1 0 1.000000
Tree_02_leaves_old
  0 -11.629095 -7.372011 63.521687 0.001169 0.709835 -0.704367 0.875504 0.673162 1 0 1.000000
  0 -15.002492 35.295467 106.514763 0.001169 0.709835 -0.704367 0.436179 0.992449 1 0 1.000000
  0 14.529942 5.929941 76.970314 0.001169 0.709835 -0.704367 0.875504 0.992449 1 0 1.000000
Tree_02_leaves_old
  0 -16.713917 6.803953 77.625435 0.151170 0.944664 0.291130 0.000000 0.673162 1 0 1.000000
  0 -1.425344 -11.851961 130.221939 0.151170 0.944664 0.291130 0.439326 0.992449 1 0 1.000000
  0 13.763541 -0.018113 83.936348 0.151170 0.944664 0.291130 0.000000 0.992449 1 0 1.000000
Tree_02_leaves_old
  0 -10.790674 -4.456948 58.529217 -0.923802 0.225300 0.309563 0.875504 0.673162 1 0 1.000000
  0 -11.292826 -44.496593 86.171471 -0.923802 0.225300 0.309563 0.436179 0.673162 1 0 1.000000
  0 1.297254 -28.229538 111.903770 -0.923802 0.225300 0.309563 0.436179 0.992449 1 0 1.000000
Tree_02_leaves_old
  0 -16.713917 6.803953 77.625435 -0.562424 0.714123 0.416782 0.000000 0.673162 1 0 1.000000
  0 -27.967966 -23.470980 114.312447 -0.562424 0.714123 0.416782 0.439326 0.673162 1 0 1.000000
  0 -1.425344 -11.851961 130.221939 -0.562424 0.714123 0.416782 0.439326 0.992449 1 0 1.000000
Tree_02_leaves_old
  0 -10.790674 -4.456948 58.529217 -0.555018 0.705885 0.440092 0.875504 0.673162 1 0 1.000000
  0 1.297254 -28.229538 111.903770 -0.555018 0.705885 0.440092 0.436179 0.992449 1 0 1.000000
  0 15.212043 5.364646 75.568939 -0.555018 0.705885 0.440092 0.875504 0.992449 1 0 1.000000
end
