version 1
nodes
0 "blender_implicit" -1
1 "root" -1
2 "remote" 1
3 "back_l" 1
4 "back_r" 1
5 "frontrot_l" 1
6 "front_l" 5
7 "frontrot_r" 1
8 "front_r" 7
end
skeleton
time 0
0  0.000000 0.000000 0.000000  0.000000 -0.000000 0.000000
1  0.000000 0.000000 0.000000  1.570796 -0.000000 0.000000
2  15.600002 30.900000 20.400000  0.000000 -0.000000 0.000000
3  15.600151 7.199999 -8.399999  0.000000 -0.000000 0.000000
4  -15.600151 7.199999 -8.399999  0.000000 -0.000000 0.000000
5  15.599999 7.800001 10.500001  0.000000 -0.000000 0.000000
6  -0.000006 -4.200000 -1.560001  0.000001 -0.000000 0.000000
7  -15.599999 7.800001 10.500001  0.000000 -0.000000 0.000000
8  0.000006 -4.200000 -1.560001  0.000001 -0.000000 0.000000
end
triangles
phy
0  -15.039999 -20.000000 4.400000  -0.565309 -0.654938 -0.501480  0.375000 0.000000 1 1 1.000000
0  -15.039999 11.799999 22.399996  -0.575867 0.607120 0.547525  0.625000 0.250000 1 1 1.000000
0  -15.039999 10.599999 4.200000  -0.580513 0.554538 -0.596232  0.375000 0.250000 1 1 1.000000
phy
0  -15.039999 10.599999 4.200000  -0.580513 0.554538 -0.596232  0.375000 0.250000 1 1 1.000000
0  15.039999 11.799999 22.399996  0.575862 0.607107 0.547544  0.625000 0.500000 1 1 1.000000
0  15.039999 10.599999 4.200000  0.580540 0.554542 -0.596202  0.375000 0.500000 1 1 1.000000
phy
0  15.039999 10.599999 4.200000  0.580540 0.554542 -0.596202  0.375000 0.500000 1 1 1.000000
0  15.039999 -15.000000 23.400000  0.589807 -0.481023 0.648649  0.625000 0.750000 1 1 1.000000
0  15.039999 -20.000000 4.400000  0.565278 -0.654940 -0.501513  0.375000 0.750000 1 1 1.000000
phy
0  15.039999 -20.000000 4.400000  0.565278 -0.654940 -0.501513  0.375000 0.750000 1 1 1.000000
0  -15.039999 -15.000000 23.400000  -0.589801 -0.481014 0.648661  0.625000 1.000000 1 1 1.000000
0  -15.039999 -20.000000 4.400000  -0.565309 -0.654938 -0.501480  0.375000 1.000000 1 1 1.000000
phy
0  -15.039999 10.599999 4.200000  -0.580513 0.554538 -0.596232  0.125000 0.500000 1 1 1.000000
0  15.039999 -20.000000 4.400000  0.565278 -0.654940 -0.501513  0.375000 0.750000 1 1 1.000000
0  -15.039999 -20.000000 4.400000  -0.565309 -0.654938 -0.501480  0.125000 0.750000 1 1 1.000000
phy
0  15.039999 11.799999 22.399996  0.575862 0.607107 0.547544  0.625000 0.500000 1 1 1.000000
0  -15.039999 -15.000000 23.400000  -0.589801 -0.481014 0.648661  0.875000 0.750000 1 1 1.000000
0  15.039999 -15.000000 23.400000  0.589807 -0.481023 0.648649  0.625000 0.750000 1 1 1.000000
phy
0  -13.200001 9.364737 21.484283  -0.668512 -0.741417 -0.058249  0.375000 0.000000 1 1 1.000000
0  -13.200001 19.600273 46.199997  -0.568403 0.671480 0.475429  0.625000 0.250000 1 1 1.000000
0  -13.200001 11.199999 14.599998  -0.541354 0.000433 -0.840795  0.375000 0.250000 1 1 1.000000
phy
0  -13.200001 11.199999 14.599998  -0.541354 0.000433 -0.840795  0.375000 0.250000 1 1 1.000000
0  13.200001 19.600273 46.199997  0.568427 0.671492 0.475383  0.625000 0.500000 1 1 1.000000
0  13.200001 11.199999 14.599998  0.541288 0.000297 -0.840837  0.375000 0.500000 1 1 1.000000
phy
0  13.200001 11.199999 14.599998  0.541288 0.000297 -0.840837  0.375000 0.500000 1 1 1.000000
0  13.200001 12.000000 46.799995  0.578678 -0.521735 0.626836  0.625000 0.750000 1 1 1.000000
0  13.200001 9.364737 21.484283  0.668525 -0.741406 -0.058241  0.375000 0.750000 1 1 1.000000
phy
0  13.200001 9.364737 21.484283  0.668525 -0.741406 -0.058241  0.375000 0.750000 1 1 1.000000
0  -13.200001 12.000000 46.799995  -0.578665 -0.521773 0.626817  0.625000 1.000000 1 1 1.000000
0  -13.200001 9.364737 21.484283  -0.668512 -0.741417 -0.058249  0.375000 1.000000 1 1 1.000000
phy
0  -13.200001 11.199999 14.599998  -0.541354 0.000433 -0.840795  0.125000 0.500000 1 1 1.000000
0  13.200001 9.364737 21.484283  0.668525 -0.741406 -0.058241  0.375000 0.750000 1 1 1.000000
0  -13.200001 9.364737 21.484283  -0.668512 -0.741417 -0.058249  0.125000 0.750000 1 1 1.000000
phy
0  13.200001 19.600273 46.199997  0.568427 0.671492 0.475383  0.625000 0.500000 1 1 1.000000
0  -13.200001 12.000000 46.799995  -0.578665 -0.521773 0.626817  0.875000 0.750000 1 1 1.000000
0  13.200001 12.000000 46.799995  0.578678 -0.521735 0.626836  0.625000 0.750000 1 1 1.000000
phy
0  14.400001 -21.000002 25.200001  -0.509611 -0.518168 -0.686876  0.375000 0.000000 1 1 1.000000
0  12.600000 10.200000 31.200001  -0.630828 0.676811 0.379451  0.625000 0.250000 1 1 1.000000
0  14.400001 7.800000 25.200001  -0.491018 0.452815 -0.744218  0.375000 0.250000 1 1 1.000000
phy
0  14.400001 7.800000 25.200001  -0.491018 0.452815 -0.744218  0.375000 0.250000 1 1 1.000000
0  18.600000 10.200000 31.200001  0.635908 0.672748 0.378195  0.625000 0.500000 1 1 1.000000
0  16.800001 7.800000 25.200001  0.498219 0.448071 -0.742300  0.375000 0.500000 1 1 1.000000
phy
0  16.800001 7.800000 25.200001  0.498219 0.448071 -0.742300  0.375000 0.500000 1 1 1.000000
0  18.600000 -22.800001 33.600002  0.624432 -0.606010 0.492784  0.625000 0.750000 1 1 1.000000
0  16.800001 -21.000002 25.200001  0.514658 -0.514658 -0.685751  0.375000 0.750000 1 1 1.000000
phy
0  16.800001 -21.000002 25.200001  0.514658 -0.514658 -0.685751  0.375000 0.750000 1 1 1.000000
0  12.600000 -22.800001 33.600002  -0.620573 -0.608999 0.493973  0.625000 1.000000 1 1 1.000000
0  14.400001 -21.000002 25.200001  -0.509611 -0.518168 -0.686876  0.375000 1.000000 1 1 1.000000
phy
0  14.400001 7.800000 25.200001  -0.491018 0.452815 -0.744218  0.125000 0.500000 1 1 1.000000
0  16.800001 -21.000002 25.200001  0.514658 -0.514658 -0.685751  0.375000 0.750000 1 1 1.000000
0  14.400001 -21.000002 25.200001  -0.509611 -0.518168 -0.686876  0.125000 0.750000 1 1 1.000000
phy
0  18.600000 10.200000 31.200001  0.635908 0.672748 0.378195  0.625000 0.500000 1 1 1.000000
0  12.600000 -22.800001 33.600002  -0.620573 -0.608999 0.493973  0.875000 0.750000 1 1 1.000000
0  18.600000 -22.800001 33.600002  0.624432 -0.606010 0.492784  0.625000 0.750000 1 1 1.000000
phy
0  -14.400001 -12.000000 25.200001  0.494910 -0.419909 -0.760750  0.375000 0.000000 1 1 1.000000
0  -12.600000 10.200000 31.200001  0.631719 0.660247 0.406208  0.625000 0.250000 1 1 1.000000
0  -12.600000 -15.000000 31.200001  0.624966 -0.679370 0.384544  0.625000 0.000000 1 1 1.000000
phy
0  -14.400001 7.800000 25.200001  0.491020 0.452816 -0.744216  0.375000 0.250000 1 1 1.000000
0  -18.600000 10.200000 31.200001  -0.631722 0.660253 0.406193  0.625000 0.500000 1 1 1.000000
0  -12.600000 10.200000 31.200001  0.631719 0.660247 0.406208  0.625000 0.250000 1 1 1.000000
phy
0  -16.800001 7.800000 25.200001  -0.491000 0.452826 -0.744223  0.375000 0.500000 1 1 1.000000
0  -18.600000 -15.000000 31.200001  -0.624966 -0.679365 0.384554  0.625000 0.750000 1 1 1.000000
0  -18.600000 10.200000 31.200001  -0.631722 0.660253 0.406193  0.625000 0.500000 1 1 1.000000
phy
0  -16.800001 -12.000000 25.200001  -0.494924 -0.419903 -0.760744  0.375000 0.750000 1 1 1.000000
0  -12.600000 -15.000000 31.200001  0.624966 -0.679370 0.384544  0.625000 1.000000 1 1 1.000000
0  -18.600000 -15.000000 31.200001  -0.624966 -0.679365 0.384554  0.625000 0.750000 1 1 1.000000
phy
0  -14.400001 7.800000 25.200001  0.491020 0.452816 -0.744216  0.125000 0.500000 1 1 1.000000
0  -16.800001 -12.000000 25.200001  -0.494924 -0.419903 -0.760744  0.375000 0.750000 1 1 1.000000
0  -16.800001 7.800000 25.200001  -0.491000 0.452826 -0.744223  0.375000 0.500000 1 1 1.000000
phy
0  -18.600000 10.200000 31.200001  -0.631722 0.660253 0.406193  0.625000 0.500000 1 1 1.000000
0  -12.600000 -15.000000 31.200001  0.624966 -0.679370 0.384544  0.875000 0.750000 1 1 1.000000
0  -12.600000 10.200000 31.200001  0.631719 0.660247 0.406208  0.875000 0.500000 1 1 1.000000
phy
0  12.600000 14.400000 45.000000  -0.028385 -0.009469 -0.999552  0.375000 0.000000 1 1 1.000000
0  11.400001 18.599998 51.599998  -0.593171 0.296568 0.748462  0.625000 0.250000 1 1 1.000000
0  11.400001 18.599998 49.199997  -0.725509 0.612824 -0.313182  0.375000 0.250000 1 1 1.000000
phy
0  11.400001 18.599998 49.199997  -0.725509 0.612824 -0.313182  0.375000 0.250000 1 1 1.000000
0  13.800001 18.599998 51.599998  0.582251 0.301466 0.755051  0.625000 0.500000 1 1 1.000000
0  13.800001 18.599998 49.199997  0.699973 0.643002 -0.310783  0.375000 0.500000 1 1 1.000000
phy
0  13.800001 18.599998 49.199997  0.699973 0.643002 -0.310783  0.375000 0.500000 1 1 1.000000
0  12.600000 12.599999 45.599998  -0.016330 -0.924816 -0.380063  0.625000 0.750000 1 1 1.000000
0  12.600000 14.400000 45.000000  -0.028385 -0.009469 -0.999552  0.375000 0.750000 1 1 1.000000
phy
0  11.400001 18.599998 49.199997  -0.725509 0.612824 -0.313182  0.125000 0.500000 1 1 1.000000
0  13.800001 18.599998 49.199997  0.699973 0.643002 -0.310783  0.375000 0.500000 1 1 1.000000
0  12.600000 14.400000 45.000000  -0.028385 -0.009469 -0.999552  0.125000 0.750000 1 1 1.000000
phy
0  13.800001 18.599998 51.599998  0.582133 0.301159 0.755265  0.625000 0.500000 1 1 1.000000
0  11.400001 18.599998 51.599998  -0.593171 0.296568 0.748462  0.875000 0.500000 1 1 1.000000
0  12.600000 12.599999 45.599998  -0.016330 -0.924816 -0.380063  0.625000 0.750000 1 1 1.000000
phy
0  11.400001 28.199999 46.799999  -0.565526 0.507577 -0.650035  0.375000 0.250000 1 1 1.000000
0  13.800001 28.199999 49.199997  0.591318 0.635650 0.496278  0.625000 0.500000 1 1 1.000000
0  13.800001 28.199999 46.799999  0.565552 0.507554 -0.650031  0.375000 0.500000 1 1 1.000000
phy
0  11.400001 18.599998 49.199997  -0.591429 -0.635520 -0.496312  0.375000 0.250000 1 1 1.000000
0  13.800001 18.599998 51.599998  0.565470 -0.507606 0.650062  0.625000 0.500000 1 1 1.000000
0  11.400001 18.599998 51.599998  -0.565544 -0.507564 0.650030  0.625000 0.250000 1 1 1.000000
phy
0  13.800001 28.199999 49.199997  0.591318 0.635650 0.496278  0.625000 0.500000 1 1 1.000000
0  13.800001 18.599998 49.199997  0.591329 -0.635633 -0.496287  0.375000 0.500000 1 1 1.000000
0  13.800001 28.199999 46.799999  0.565552 0.507554 -0.650031  0.375000 0.500000 1 1 1.000000
phy
0  13.800001 28.199999 46.799999  0.565552 0.507554 -0.650031  0.375000 0.500000 1 1 1.000000
0  11.400001 18.599998 49.199997  -0.591398 -0.635702 -0.496116  0.375000 0.250000 1 1 1.000000
0  11.400001 28.199999 46.799999  -0.565526 0.507577 -0.650035  0.375000 0.250000 1 1 1.000000
phy
0  11.400001 28.199999 49.199997  -0.591339 0.635630 0.496278  0.625000 0.250000 1 1 1.000000
0  13.800001 18.599998 51.599998  0.565595 -0.507517 0.650022  0.625000 0.500000 1 1 1.000000
0  13.800001 28.199999 49.199997  0.591318 0.635650 0.496278  0.625000 0.500000 1 1 1.000000
phy
0  11.400001 28.199999 46.799999  -0.565526 0.507577 -0.650035  0.375000 0.250000 1 1 1.000000
0  11.400001 18.599998 51.599998  -0.565510 -0.507508 0.650104  0.625000 0.250000 1 1 1.000000
0  11.400001 28.199999 49.199997  -0.591339 0.635630 0.496278  0.625000 0.250000 1 1 1.000000
phy
0  -12.600000 14.400000 45.000000  0.028385 -0.009469 -0.999552  0.375000 0.000000 1 1 1.000000
0  -11.400001 18.599998 51.599998  0.593141 0.296568 0.748486  0.625000 0.250000 1 1 1.000000
0  -12.600000 12.599999 45.599998  0.016330 -0.924816 -0.380063  0.625000 0.000000 1 1 1.000000
phy
0  -11.400001 18.599998 49.199997  0.725433 0.612902 -0.313208  0.375000 0.250000 1 1 1.000000
0  -13.800001 18.599998 51.599998  -0.582223 0.301466 0.755073  0.625000 0.500000 1 1 1.000000
0  -11.400001 18.599998 51.599998  0.593110 0.296755 0.748436  0.625000 0.250000 1 1 1.000000
phy
0  -13.800001 18.599998 49.199997  -0.699977 0.643011 -0.310755  0.375000 0.500000 1 1 1.000000
0  -12.600000 12.599999 45.599998  0.016330 -0.924816 -0.380063  0.625000 0.750000 1 1 1.000000
0  -13.800001 18.599998 51.599998  -0.582289 0.301245 0.755110  0.625000 0.500000 1 1 1.000000
phy
0  -11.400001 18.599998 49.199997  0.725348 0.613053 -0.313108  0.125000 0.500000 1 1 1.000000
0  -12.600000 14.400000 45.000000  0.028385 -0.009469 -0.999552  0.125000 0.750000 1 1 1.000000
0  -13.800001 18.599998 49.199997  -0.700078 0.642942 -0.310670  0.375000 0.500000 1 1 1.000000
phy
0  -13.800001 18.599998 51.599998  -0.582289 0.301245 0.755110  0.625000 0.500000 1 1 1.000000
0  -12.600000 12.599999 45.599998  0.016330 -0.924816 -0.380063  0.625000 0.750000 1 1 1.000000
0  -11.400001 18.599998 51.599998  0.593141 0.296568 0.748486  0.875000 0.500000 1 1 1.000000
phy
0  -11.400001 28.199999 46.799999  0.565517 0.507577 -0.650044  0.375000 0.250000 1 1 1.000000
0  -13.800001 28.199999 49.199997  -0.591291 0.635660 0.496297  0.625000 0.500000 1 1 1.000000
0  -11.400001 28.199999 49.199997  0.591349 0.635629 0.496269  0.625000 0.250000 1 1 1.000000
phy
0  -11.400001 18.599998 49.199997  0.591370 -0.635520 -0.496382  0.375000 0.250000 1 1 1.000000
0  -13.800001 18.599998 51.599998  -0.565603 -0.507606 0.649946  0.625000 0.500000 1 1 1.000000
0  -13.800001 18.599998 49.199997  -0.591381 -0.635484 -0.496416  0.375000 0.500000 1 1 1.000000
phy
0  -13.800001 28.199999 49.199997  -0.591317 0.635676 0.496246  0.625000 0.500000 1 1 1.000000
0  -13.800001 18.599998 49.199997  -0.591317 -0.635625 -0.496312  0.375000 0.500000 1 1 1.000000
0  -13.800001 18.599998 51.599998  -0.565549 -0.507594 0.650002  0.625000 0.500000 1 1 1.000000
phy
0  -13.800001 28.199999 46.799999  -0.565504 0.507594 -0.650041  0.375000 0.500000 1 1 1.000000
0  -11.400001 18.599998 49.199997  0.591429 -0.635667 -0.496125  0.375000 0.250000 1 1 1.000000
0  -13.800001 18.599998 49.199997  -0.591453 -0.635639 -0.496132  0.375000 0.500000 1 1 1.000000
phy
0  -11.400001 28.199999 49.199997  0.591349 0.635629 0.496269  0.625000 0.250000 1 1 1.000000
0  -13.800001 18.599998 51.599998  -0.565495 -0.507602 0.650043  0.625000 0.500000 1 1 1.000000
0  -11.400001 18.599998 51.599998  0.565451 -0.507768 0.649951  0.625000 0.250000 1 1 1.000000
phy
0  -11.400001 28.199999 46.799999  0.565517 0.507577 -0.650044  0.375000 0.250000 1 1 1.000000
0  -11.400001 18.599998 51.599998  0.565451 -0.507768 0.649951  0.625000 0.250000 1 1 1.000000
0  -11.400001 18.599998 49.199997  0.591316 -0.635670 -0.496255  0.375000 0.250000 1 1 1.000000
phy
0  -15.039999 -20.000000 4.400000  -0.565309 -0.654938 -0.501480  0.375000 0.000000 1 1 1.000000
0  -15.039999 -15.000000 23.400000  -0.589801 -0.481014 0.648661  0.625000 0.000000 1 1 1.000000
0  -15.039999 11.799999 22.399996  -0.575867 0.607120 0.547525  0.625000 0.250000 1 1 1.000000
phy
0  -15.039999 10.599999 4.200000  -0.580513 0.554538 -0.596232  0.375000 0.250000 1 1 1.000000
0  -15.039999 11.799999 22.399996  -0.575867 0.607120 0.547525  0.625000 0.250000 1 1 1.000000
0  15.039999 11.799999 22.399996  0.575862 0.607107 0.547544  0.625000 0.500000 1 1 1.000000
phy
0  15.039999 10.599999 4.200000  0.580540 0.554542 -0.596202  0.375000 0.500000 1 1 1.000000
0  15.039999 11.799999 22.399996  0.575862 0.607107 0.547544  0.625000 0.500000 1 1 1.000000
0  15.039999 -15.000000 23.400000  0.589807 -0.481023 0.648649  0.625000 0.750000 1 1 1.000000
phy
0  15.039999 -20.000000 4.400000  0.565278 -0.654940 -0.501513  0.375000 0.750000 1 1 1.000000
0  15.039999 -15.000000 23.400000  0.589807 -0.481023 0.648649  0.625000 0.750000 1 1 1.000000
0  -15.039999 -15.000000 23.400000  -0.589801 -0.481014 0.648661  0.625000 1.000000 1 1 1.000000
phy
0  -15.039999 10.599999 4.200000  -0.580513 0.554538 -0.596232  0.125000 0.500000 1 1 1.000000
0  15.039999 10.599999 4.200000  0.580540 0.554542 -0.596202  0.375000 0.500000 1 1 1.000000
0  15.039999 -20.000000 4.400000  0.565278 -0.654940 -0.501513  0.375000 0.750000 1 1 1.000000
phy
0  15.039999 11.799999 22.399996  0.575862 0.607107 0.547544  0.625000 0.500000 1 1 1.000000
0  -15.039999 11.799999 22.399996  -0.575867 0.607120 0.547525  0.875000 0.500000 1 1 1.000000
0  -15.039999 -15.000000 23.400000  -0.589801 -0.481014 0.648661  0.875000 0.750000 1 1 1.000000
phy
0  -13.200001 9.364737 21.484283  -0.668512 -0.741417 -0.058249  0.375000 0.000000 1 1 1.000000
0  -13.200001 12.000000 46.799995  -0.578665 -0.521773 0.626817  0.625000 0.000000 1 1 1.000000
0  -13.200001 19.600273 46.199997  -0.568403 0.671480 0.475429  0.625000 0.250000 1 1 1.000000
phy
0  -13.200001 11.199999 14.599998  -0.541354 0.000433 -0.840795  0.375000 0.250000 1 1 1.000000
0  -13.200001 19.600273 46.199997  -0.568403 0.671480 0.475429  0.625000 0.250000 1 1 1.000000
0  13.200001 19.600273 46.199997  0.568427 0.671492 0.475383  0.625000 0.500000 1 1 1.000000
phy
0  13.200001 11.199999 14.599998  0.541288 0.000297 -0.840837  0.375000 0.500000 1 1 1.000000
0  13.200001 19.600273 46.199997  0.568427 0.671492 0.475383  0.625000 0.500000 1 1 1.000000
0  13.200001 12.000000 46.799995  0.578678 -0.521735 0.626836  0.625000 0.750000 1 1 1.000000
phy
0  13.200001 9.364737 21.484283  0.668525 -0.741406 -0.058241  0.375000 0.750000 1 1 1.000000
0  13.200001 12.000000 46.799995  0.578678 -0.521735 0.626836  0.625000 0.750000 1 1 1.000000
0  -13.200001 12.000000 46.799995  -0.578665 -0.521773 0.626817  0.625000 1.000000 1 1 1.000000
phy
0  -13.200001 11.199999 14.599998  -0.541354 0.000433 -0.840795  0.125000 0.500000 1 1 1.000000
0  13.200001 11.199999 14.599998  0.541288 0.000297 -0.840837  0.375000 0.500000 1 1 1.000000
0  13.200001 9.364737 21.484283  0.668525 -0.741406 -0.058241  0.375000 0.750000 1 1 1.000000
phy
0  13.200001 19.600273 46.199997  0.568427 0.671492 0.475383  0.625000 0.500000 1 1 1.000000
0  -13.200001 19.600273 46.199997  -0.568403 0.671480 0.475429  0.875000 0.500000 1 1 1.000000
0  -13.200001 12.000000 46.799995  -0.578665 -0.521773 0.626817  0.875000 0.750000 1 1 1.000000
phy
0  14.400001 -21.000002 25.200001  -0.509611 -0.518168 -0.686876  0.375000 0.000000 1 1 1.000000
0  12.600000 -22.800001 33.600002  -0.620573 -0.608999 0.493973  0.625000 0.000000 1 1 1.000000
0  12.600000 10.200000 31.200001  -0.630828 0.676811 0.379451  0.625000 0.250000 1 1 1.000000
phy
0  14.400001 7.800000 25.200001  -0.491018 0.452815 -0.744218  0.375000 0.250000 1 1 1.000000
0  12.600000 10.200000 31.200001  -0.630828 0.676811 0.379451  0.625000 0.250000 1 1 1.000000
0  18.600000 10.200000 31.200001  0.635908 0.672748 0.378195  0.625000 0.500000 1 1 1.000000
phy
0  16.800001 7.800000 25.200001  0.498219 0.448071 -0.742300  0.375000 0.500000 1 1 1.000000
0  18.600000 10.200000 31.200001  0.635908 0.672748 0.378195  0.625000 0.500000 1 1 1.000000
0  18.600000 -22.800001 33.600002  0.624432 -0.606010 0.492784  0.625000 0.750000 1 1 1.000000
phy
0  16.800001 -21.000002 25.200001  0.514658 -0.514658 -0.685751  0.375000 0.750000 1 1 1.000000
0  18.600000 -22.800001 33.600002  0.624432 -0.606010 0.492784  0.625000 0.750000 1 1 1.000000
0  12.600000 -22.800001 33.600002  -0.620573 -0.608999 0.493973  0.625000 1.000000 1 1 1.000000
phy
0  14.400001 7.800000 25.200001  -0.491018 0.452815 -0.744218  0.125000 0.500000 1 1 1.000000
0  16.800001 7.800000 25.200001  0.498219 0.448071 -0.742300  0.375000 0.500000 1 1 1.000000
0  16.800001 -21.000002 25.200001  0.514658 -0.514658 -0.685751  0.375000 0.750000 1 1 1.000000
phy
0  18.600000 10.200000 31.200001  0.635908 0.672748 0.378195  0.625000 0.500000 1 1 1.000000
0  12.600000 10.200000 31.200001  -0.630828 0.676811 0.379451  0.875000 0.500000 1 1 1.000000
0  12.600000 -22.800001 33.600002  -0.620573 -0.608999 0.493973  0.875000 0.750000 1 1 1.000000
phy
0  -14.400001 -12.000000 25.200001  0.494910 -0.419909 -0.760750  0.375000 0.000000 1 1 1.000000
0  -14.400001 7.800000 25.200001  0.491020 0.452816 -0.744216  0.375000 0.250000 1 1 1.000000
0  -12.600000 10.200000 31.200001  0.631719 0.660247 0.406208  0.625000 0.250000 1 1 1.000000
phy
0  -14.400001 7.800000 25.200001  0.491020 0.452816 -0.744216  0.375000 0.250000 1 1 1.000000
0  -16.800001 7.800000 25.200001  -0.491000 0.452826 -0.744223  0.375000 0.500000 1 1 1.000000
0  -18.600000 10.200000 31.200001  -0.631722 0.660253 0.406193  0.625000 0.500000 1 1 1.000000
phy
0  -16.800001 7.800000 25.200001  -0.491000 0.452826 -0.744223  0.375000 0.500000 1 1 1.000000
0  -16.800001 -12.000000 25.200001  -0.494924 -0.419903 -0.760744  0.375000 0.750000 1 1 1.000000
0  -18.600000 -15.000000 31.200001  -0.624966 -0.679365 0.384554  0.625000 0.750000 1 1 1.000000
phy
0  -16.800001 -12.000000 25.200001  -0.494924 -0.419903 -0.760744  0.375000 0.750000 1 1 1.000000
0  -14.400001 -12.000000 25.200001  0.494910 -0.419909 -0.760750  0.375000 1.000000 1 1 1.000000
0  -12.600000 -15.000000 31.200001  0.624966 -0.679370 0.384544  0.625000 1.000000 1 1 1.000000
phy
0  -14.400001 7.800000 25.200001  0.491020 0.452816 -0.744216  0.125000 0.500000 1 1 1.000000
0  -14.400001 -12.000000 25.200001  0.494910 -0.419909 -0.760750  0.125000 0.750000 1 1 1.000000
0  -16.800001 -12.000000 25.200001  -0.494924 -0.419903 -0.760744  0.375000 0.750000 1 1 1.000000
phy
0  -18.600000 10.200000 31.200001  -0.631722 0.660253 0.406193  0.625000 0.500000 1 1 1.000000
0  -18.600000 -15.000000 31.200001  -0.624966 -0.679365 0.384554  0.625000 0.750000 1 1 1.000000
0  -12.600000 -15.000000 31.200001  0.624966 -0.679370 0.384544  0.875000 0.750000 1 1 1.000000
phy
0  12.600000 14.400000 45.000000  -0.028385 -0.009469 -0.999552  0.375000 0.000000 1 1 1.000000
0  12.600000 12.599999 45.599998  -0.016330 -0.924816 -0.380063  0.625000 0.000000 1 1 1.000000
0  11.400001 18.599998 51.599998  -0.593171 0.296568 0.748462  0.625000 0.250000 1 1 1.000000
phy
0  11.400001 18.599998 49.199997  -0.725447 0.612902 -0.313175  0.375000 0.250000 1 1 1.000000
0  11.400001 18.599998 51.599998  -0.593111 0.296755 0.748436  0.625000 0.250000 1 1 1.000000
0  13.800001 18.599998 51.599998  0.582256 0.301466 0.755047  0.625000 0.500000 1 1 1.000000
phy
0  13.800001 18.599998 49.199997  0.699973 0.643002 -0.310783  0.375000 0.500000 1 1 1.000000
0  13.800001 18.599998 51.599998  0.582240 0.301247 0.755147  0.625000 0.500000 1 1 1.000000
0  12.600000 12.599999 45.599998  -0.016330 -0.924816 -0.380063  0.625000 0.750000 1 1 1.000000
phy
0  11.400001 28.199999 46.799999  -0.565526 0.507577 -0.650035  0.375000 0.250000 1 1 1.000000
0  11.400001 28.199999 49.199997  -0.591339 0.635630 0.496278  0.625000 0.250000 1 1 1.000000
0  13.800001 28.199999 49.199997  0.591318 0.635650 0.496278  0.625000 0.500000 1 1 1.000000
phy
0  11.400001 18.599998 49.199997  -0.591507 -0.635612 -0.496102  0.375000 0.250000 1 1 1.000000
0  13.800001 18.599998 49.199997  0.591329 -0.635633 -0.496287  0.375000 0.500000 1 1 1.000000
0  13.800001 18.599998 51.599998  0.565574 -0.507606 0.649971  0.625000 0.500000 1 1 1.000000
phy
0  13.800001 28.199999 49.199997  0.591318 0.635650 0.496278  0.625000 0.500000 1 1 1.000000
0  13.800001 18.599998 51.599998  0.565549 -0.507583 0.650010  0.625000 0.500000 1 1 1.000000
0  13.800001 18.599998 49.199997  0.591329 -0.635633 -0.496287  0.375000 0.500000 1 1 1.000000
phy
0  13.800001 28.199999 46.799999  0.565552 0.507554 -0.650031  0.375000 0.500000 1 1 1.000000
0  13.800001 18.599998 49.199997  0.591329 -0.635633 -0.496287  0.375000 0.500000 1 1 1.000000
0  11.400001 18.599998 49.199997  -0.591507 -0.635612 -0.496102  0.375000 0.250000 1 1 1.000000
phy
0  11.400001 28.199999 49.199997  -0.591489 0.635597 0.496142  0.625000 0.250000 1 1 1.000000
0  11.400001 18.599998 51.599998  -0.565544 -0.507519 0.650065  0.625000 0.250000 1 1 1.000000
0  13.800001 18.599998 51.599998  0.565486 -0.507609 0.650045  0.625000 0.500000 1 1 1.000000
phy
0  11.400001 28.199999 46.799999  -0.565510 0.507508 -0.650103  0.375000 0.250000 1 1 1.000000
0  11.400001 18.599998 49.199997  -0.591316 -0.635678 -0.496244  0.375000 0.250000 1 1 1.000000
0  11.400001 18.599998 51.599998  -0.565509 -0.507604 0.650028  0.625000 0.250000 1 1 1.000000
phy
0  -12.600000 14.400000 45.000000  0.028385 -0.009469 -0.999552  0.375000 0.000000 1 1 1.000000
0  -11.400001 18.599998 49.199997  0.725348 0.613053 -0.313108  0.375000 0.250000 1 1 1.000000
0  -11.400001 18.599998 51.599998  0.593141 0.296568 0.748486  0.625000 0.250000 1 1 1.000000
phy
0  -11.400001 18.599998 49.199997  0.725487 0.612902 -0.313081  0.375000 0.250000 1 1 1.000000
0  -13.800001 18.599998 49.199997  -0.700075 0.642857 -0.310855  0.375000 0.500000 1 1 1.000000
0  -13.800001 18.599998 51.599998  -0.582218 0.301466 0.755076  0.625000 0.500000 1 1 1.000000
phy
0  -13.800001 18.599998 49.199997  -0.699844 0.643122 -0.310824  0.375000 0.500000 1 1 1.000000
0  -12.600000 14.400000 45.000000  0.028385 -0.009469 -0.999552  0.375000 0.750000 1 1 1.000000
0  -12.600000 12.599999 45.599998  0.016330 -0.924816 -0.380063  0.625000 0.750000 1 1 1.000000
phy
0  -11.400001 28.199999 46.799999  0.565517 0.507577 -0.650044  0.375000 0.250000 1 1 1.000000
0  -13.800001 28.199999 46.799999  -0.565568 0.507588 -0.649990  0.375000 0.500000 1 1 1.000000
0  -13.800001 28.199999 49.199997  -0.591291 0.635660 0.496297  0.625000 0.500000 1 1 1.000000
phy
0  -11.400001 18.599998 49.199997  0.591450 -0.635520 -0.496286  0.375000 0.250000 1 1 1.000000
0  -11.400001 18.599998 51.599998  0.565544 -0.507564 0.650029  0.625000 0.250000 1 1 1.000000
0  -13.800001 18.599998 51.599998  -0.565498 -0.507606 0.650037  0.625000 0.500000 1 1 1.000000
phy
0  -13.800001 28.199999 49.199997  -0.591291 0.635660 0.496297  0.625000 0.500000 1 1 1.000000
0  -13.800001 28.199999 46.799999  -0.565568 0.507588 -0.649990  0.375000 0.500000 1 1 1.000000
0  -13.800001 18.599998 49.199997  -0.591317 -0.635585 -0.496364  0.375000 0.500000 1 1 1.000000
phy
0  -13.800001 28.199999 46.799999  -0.565568 0.507588 -0.649990  0.375000 0.500000 1 1 1.000000
0  -11.400001 28.199999 46.799999  0.565517 0.507577 -0.650044  0.375000 0.250000 1 1 1.000000
0  -11.400001 18.599998 49.199997  0.591420 -0.635677 -0.496123  0.375000 0.250000 1 1 1.000000
phy
0  -11.400001 28.199999 49.199997  0.591349 0.635629 0.496269  0.625000 0.250000 1 1 1.000000
0  -13.800001 28.199999 49.199997  -0.591291 0.635660 0.496297  0.625000 0.500000 1 1 1.000000
0  -13.800001 18.599998 51.599998  -0.565504 -0.507594 0.650042  0.625000 0.500000 1 1 1.000000
phy
0  -11.400001 28.199999 46.799999  0.565517 0.507577 -0.650044  0.375000 0.250000 1 1 1.000000
0  -11.400001 28.199999 49.199997  0.591349 0.635629 0.496269  0.625000 0.250000 1 1 1.000000
0  -11.400001 18.599998 51.599998  0.565451 -0.507768 0.649951  0.625000 0.250000 1 1 1.000000
end
