// Created by Crowbar 0.74
version 1
nodes
  0 "Rig_Buggy.Frame" -1
  1 "Rig_Buggy.Shock_RR_Sleeve" 0
  2 "Rig_Buggy.Shock_FR_Sleeve" 0
  3 "Rig_Buggy.Axel_RR" 0
  4 "Rig_Buggy.Wheel_RR" 3
  5 "Rig_Buggy.Shock_RR_Piston" 3
  6 "Rig_Buggy.Steer_Arm" 0
  7 "Rig_Buggy.Shock_FL_Sleeve" 0
  8 "Rig_Buggy.Axel_RL" 0
  9 "Rig_Buggy.Wheel_RL" 8
  10 "Rig_Buggy.Shock_RL_Piston" 8
  11 "Rig_Buggy.Shock_RL_Sleeve" 0
  12 "Rig_Buggy.view" 0
  13 "Rig_Buggy.Gun_Base" 0
  14 "Rig_Buggy.Gun_Parent" 13
  15 "Rig_Buggy.Gun" 14
  16 "Rig_Buggy.Speedo" 0
  17 "Rig_Buggy.Wheel_FR_Turn_parent" 0
  18 "Rig_Buggy.Wheel_FR_Turn" 17
  19 "Rig_Buggy.Wheel_FR_Rotate" 18
  20 "Rig_Buggy.Axel_FR" 0
  21 "Rig_Buggy.Shock_FR_Piston" 20
  22 "Rig_Buggy.Wheel_FL_Turn_parent" 0
  23 "Rig_Buggy.Wheel_FL_Turn" 22
  24 "Rig_Buggy.Wheel_FL_Rotate" 23
  25 "Rig_Buggy.Axel_FL" 0
  26 "Rig_Buggy.Shock_FL_Piston" 25
  27 "Rig_Buggy.Steer_Wheel" 0
  28 "Rig_Buggy.lid" 0
  29 "Rig_Buggy.latch" 28
  30 "Rig_Buggy.gun_cylinders" 15
end
skeleton
  time 0
    0 0.000000 35.485321 34.046600 1.570796 0.000000 0.000000
    1 -26.737438 9.978985 -63.177883 0.007403 -0.264986 -1.495672
    2 -26.847315 6.445412 78.520195 0.268794 0.005691 -3.065482
    3 -4.313085 -13.578558 -57.058857 -3.141593 0.000000 -3.141593
    4 38.013966 0.147196 -0.193550 -3.141593 0.000000 3.141593
    5 20.686598 0.469204 -0.164131 -3.110558 -0.264987 1.495673
    6 0.016516 -11.367849 70.181595 0.000000 0.000000 0.000000
    7 26.847315 6.445412 78.520195 2.876405 -0.019503 -0.071313
    8 4.313085 -13.578558 -57.058857 0.000000 0.000000 0.000000
    9 38.013966 0.147198 0.193550 -3.141593 0.000000 -3.141593
    10 20.605600 0.473753 0.167809 -0.024410 0.265136 1.494187
    11 26.690825 9.982029 -63.178234 0.007043 -0.265136 -1.647406
    12 9.429615 20.728470 -11.982517 0.000000 -1.570796 -1.570796
    13 -16.873423 9.784611 52.968445 0.000000 0.000000 0.000000
    14 0.020790 5.827110 -0.224472 0.000000 -1.570796 -1.570796
    15 0.000002 0.000002 0.000000 0.000000 0.000000 0.000000
    16 5.664327 9.038128 28.830690 -1.230457 0.000000 0.000000
    17 -34.710712 -15.133160 78.859528 0.000000 0.000000 0.000000
    18 0.000000 0.217955 -0.009628 0.000000 0.000000 0.000000
    19 -6.579208 0.000000 -0.000004 0.000000 0.000000 0.000000
    20 -14.319742 -15.458982 88.923615 -1.655486 0.445706 -2.888000
    21 11.574886 -2.180904 1.427973 -1.940707 -0.171070 2.830508
    22 34.710712 -15.133160 78.859528 -3.141593 0.000000 3.141593
    23 0.000000 0.217958 0.009628 0.000000 0.000000 0.000000
    24 -6.579208 0.000002 0.000000 0.000000 0.000000 0.000000
    25 14.319742 -15.458982 88.923615 -0.057762 0.445706 -0.253592
    26 11.620373 -2.905371 2.149563 -0.263171 -0.211841 0.098316
    27 8.930669 9.895988 16.516954 -1.178097 0.000000 0.000000
    28 -10.478000 3.596272 -57.675579 0.000000 0.000000 0.000000
    29 20.682631 -0.459137 -0.000008 0.000000 0.000000 0.000000
    30 -8.438859 0.038662 0.559093 1.570796 0.000000 1.570796
end
triangles
barracuda
  0 -35.450134 2.998047 47.370914 -0.004522 -0.131577 0.991296 0.717931 0.517619 1 0 1.000000
  0 -32.252525 0.115192 47.002853 -0.004522 -0.131577 0.991296 0.706431 0.528867 1 0 1.000000
  0 -32.272701 4.715843 47.613415 -0.004522 -0.131577 0.991296 0.705832 0.511657 1 0 1.000000
barracuda
  0 -37.679821 -2.901993 20.260366 -0.906076 -0.014649 -0.422862 0.826350 0.541868 1 0 1.000000
  0 -40.733883 57.299774 24.718891 -0.953510 -0.014771 -0.301001 0.815599 0.316846 1 0 1.000000
  0 -39.500164 56.793495 21.823545 -0.906074 -0.014651 -0.422865 0.826350 0.318992 1 0 1.000000
barracuda
  0 -39.378868 -4.588207 23.690042 -0.953499 -0.014776 -0.301035 0.813392 0.547797 1 0 1.000000
  0 -40.733883 57.299774 24.718891 -0.953510 -0.014771 -0.301001 0.815599 0.316846 1 0 1.000000
  0 -37.679821 -2.901993 20.260366 -0.906076 -0.014649 -0.422862 0.826350 0.541868 1 0 1.000000
barracuda
  0 -40.797333 -6.079491 30.410948 -0.997740 -0.013827 -0.065754 0.788174 0.552703 1 0 1.000000
  0 -40.733883 57.299774 24.718891 -0.953510 -0.014771 -0.301001 0.815599 0.316846 1 0 1.000000
  0 -39.378868 -4.588207 23.690042 -0.953499 -0.014776 -0.301035 0.813392 0.547797 1 0 1.000000
barracuda
  0 -41.732323 58.585754 31.691729 -0.997738 -0.013828 -0.065779 0.789728 0.311369 1 0 1.000000
  0 -40.733883 57.299774 24.718891 -0.953510 -0.014771 -0.301001 0.815599 0.316846 1 0 1.000000
  0 -40.797333 -6.079491 30.410948 -0.997740 -0.013827 -0.065754 0.788174 0.552703 1 0 1.000000
barracuda
  0 -40.797333 -6.079491 30.410948 -0.997740 -0.013827 -0.065754 0.788174 0.552703 1 0 1.000000
  0 -41.167561 58.582912 41.076347 -0.998981 -0.012854 0.043255 0.754697 0.310462 1 0 1.000000
  0 -41.732323 58.585754 31.691729 -0.997738 -0.013828 -0.065779 0.789728 0.311369 1 0 1.000000
barracuda
  0 -40.596466 -6.602516 38.565914 -0.998984 -0.012846 0.043194 0.757710 0.553858 1 0 1.000000
  0 -41.167561 58.582912 41.076347 -0.998981 -0.012854 0.043255 0.754697 0.310462 1 0 1.000000
  0 -40.797333 -6.079491 30.410948 -0.997740 -0.013827 -0.065754 0.788174 0.552703 1 0 1.000000
barracuda
  0 -32.272701 4.715843 47.613415 0.366147 0.755154 0.543764 0.441464 0.525784 1 0 1.000000
  0 -33.671700 7.024155 46.180592 0.366116 0.755166 0.543768 0.444954 0.518994 1 0 1.000000
  0 -34.318298 5.634729 47.962341 0.401011 0.646133 0.649387 0.449136 0.524853 1 0 1.000000
barracuda
  0 -29.924294 9.485220 38.438881 0.274527 0.616630 0.737836 0.423601 0.494829 1 0 1.000000
  0 -33.671700 7.024155 46.180592 0.366116 0.755166 0.543768 0.444954 0.518994 1 0 1.000000
  0 -32.272701 4.715843 47.613415 0.366147 0.755154 0.543764 0.441464 0.525784 1 0 1.000000
barracuda
  0 -34.506485 9.689812 39.407394 0.274515 0.616628 0.737842 0.440853 0.493601 1 0 1.000000
  0 -33.671700 7.024155 46.180592 0.366116 0.755166 0.543768 0.444954 0.518994 1 0 1.000000
  0 -29.924294 9.485220 38.438881 0.274527 0.616630 0.737836 0.423601 0.494829 1 0 1.000000
barracuda
  0 -29.924294 9.485220 38.438881 0.274527 0.616630 0.737836 0.423601 0.494829 1 0 1.000000
  0 -34.624569 17.391546 36.893131 0.199950 0.137271 0.970143 0.440610 0.465123 1 0 1.000000
  0 -34.506485 9.689812 39.407394 0.274515 0.616628 0.737842 0.440853 0.493601 1 0 1.000000
barracuda
  0 -30.084974 17.977013 35.946453 0.199940 0.137304 0.970140 0.423631 0.463386 1 0 1.000000
  0 -34.624569 17.391546 36.893131 0.199950 0.137271 0.970143 0.440610 0.465123 1 0 1.000000
  0 -29.924294 9.485220 38.438881 0.274527 0.616630 0.737836 0.423601 0.494829 1 0 1.000000
barracuda
  0 -30.084974 17.977013 35.946453 0.199940 0.137304 0.970140 0.423631 0.463386 1 0 1.000000
  0 -30.618101 44.726830 36.650803 0.209852 -0.022093 0.977483 0.423532 0.363519 1 0 1.000000
  0 -34.624569 17.391546 36.893131 0.199950 0.137271 0.970143 0.440610 0.465123 1 0 1.000000
barracuda
  0 -34.624569 17.391546 36.893131 0.199950 0.137271 0.970143 0.440610 0.465123 1 0 1.000000
  0 -30.618101 44.726830 36.650803 0.209852 -0.022093 0.977483 0.423532 0.363519 1 0 1.000000
  0 -35.070023 48.696133 37.712963 0.209886 -0.022098 0.977476 0.439829 0.348265 1 0 1.000000
barracuda
  0 -39.997437 48.751053 45.503765 0.013594 -0.998586 -0.051394 0.324860 0.567255 1 0 1.000000
  0 -40.944073 48.803898 44.226555 0.013594 -0.998586 -0.051394 0.324714 0.558277 1 0 1.000000
  0 -40.377316 48.833652 43.798283 0.013594 -0.998586 -0.051394 0.328727 0.558169 1 0 1.000000
barracuda
  0 -38.761868 -4.290359 46.189209 0.000000 -0.956952 0.290245 0.729597 0.561077 1 0 1.000000
  0 -34.216103 -6.602516 38.565914 0.000000 -0.993368 0.114979 0.758029 0.577663 1 0 1.000000
  0 -34.350449 -4.290359 46.189209 0.000000 -0.956952 0.290245 0.729816 0.577536 1 0 1.000000
barracuda
  0 -40.596466 -6.602516 38.565914 0.000000 -0.993370 0.114957 0.757710 0.553858 1 0 1.000000
  0 -34.216103 -6.602516 38.565914 0.000000 -0.993368 0.114979 0.758029 0.577663 1 0 1.000000
  0 -38.761868 -4.290359 46.189209 0.000000 -0.956952 0.290245 0.729597 0.561077 1 0 1.000000
barracuda
  0 -40.596466 -6.602516 38.565914 0.000000 -0.993370 0.114957 0.757710 0.553858 1 0 1.000000
  0 -40.797333 -6.079491 30.410948 0.000000 -0.990032 -0.140845 0.788174 0.552703 1 0 1.000000
  0 -34.216103 -6.602516 38.565914 0.000000 -0.993368 0.114979 0.758029 0.577663 1 0 1.000000
barracuda
  0 -34.216103 -6.602516 38.565914 0.000000 -0.993368 0.114979 0.758029 0.577663 1 0 1.000000
  0 -40.797333 -6.079491 30.410948 0.000000 -0.990032 -0.140845 0.788174 0.552703 1 0 1.000000
  0 -33.866428 -6.079491 30.410948 0.000000 -0.990095 -0.140395 0.788514 0.578563 1 0 1.000000
barracuda
  0 -40.797333 -6.079491 30.410948 0.000000 -0.990032 -0.140845 0.788174 0.552703 1 0 1.000000
  0 -39.378868 -4.588207 23.690042 0.000000 -0.943535 -0.331272 0.813454 0.557661 1 0 1.000000
  0 -33.866428 -6.079491 30.410948 0.000000 -0.990095 -0.140395 0.788514 0.578563 1 0 1.000000
barracuda
  0 -33.866428 -6.079491 30.410948 0.000000 -0.990095 -0.140395 0.788514 0.578563 1 0 1.000000
  0 -39.378868 -4.588207 23.690042 0.000000 -0.943535 -0.331272 0.813454 0.557661 1 0 1.000000
  0 -33.745842 -4.588207 23.690042 0.000000 -0.943488 -0.331407 0.813733 0.578678 1 0 1.000000
barracuda
  0 -39.378868 -4.588207 23.690042 0.000000 -0.943535 -0.331272 0.813454 0.557661 1 0 1.000000
  0 -37.679821 -2.901993 20.260366 0.000000 -0.897403 -0.441211 0.826495 0.563828 1 0 1.000000
  0 -33.745842 -4.588207 23.690042 0.000000 -0.943488 -0.331407 0.813733 0.578678 1 0 1.000000
barracuda
  0 -33.745842 -4.588207 23.690042 0.000000 -0.943488 -0.331407 0.813733 0.578678 1 0 1.000000
  0 -37.679821 -2.901993 20.260366 0.000000 -0.897403 -0.441211 0.826495 0.563828 1 0 1.000000
  0 -34.053692 -2.901993 20.260366 0.000000 -0.897403 -0.441212 0.826674 0.577357 1 0 1.000000
barracuda
  0 -40.076653 53.634842 45.596497 -0.145114 0.986996 0.069142 0.298107 0.566679 1 0 1.000000
  0 -40.434456 53.695660 43.977295 -0.145114 0.986996 0.069142 0.294726 0.558242 1 0 1.000000
  0 -40.994850 53.583820 44.397659 -0.145114 0.986996 0.069142 0.298608 0.558418 1 0 1.000000
barracuda
  0 -31.333786 20.787571 42.544247 0.246154 -0.332955 0.910247 0.250078 0.549536 1 0 1.000000
  0 -32.896851 20.438059 42.694122 0.152128 -0.823602 0.546386 0.252705 0.559079 1 0 1.000000
  0 -31.398748 20.448566 42.292843 0.152131 -0.823606 0.546378 0.252705 0.549536 1 0 1.000000
barracuda
  0 -32.831890 20.777063 42.945522 0.246150 -0.332953 0.910249 0.250078 0.559079 1 0 1.000000
  0 -32.896851 20.438059 42.694122 0.152128 -0.823602 0.546386 0.252705 0.559079 1 0 1.000000
  0 -31.333786 20.787571 42.544247 0.246154 -0.332955 0.910247 0.250078 0.549536 1 0 1.000000
barracuda
  0 -31.333786 21.214441 42.555424 0.246154 0.284866 0.926423 0.247450 0.549536 1 0 1.000000
  0 -32.831890 20.777063 42.945522 0.246150 -0.332953 0.910249 0.250078 0.559079 1 0 1.000000
  0 -31.333786 20.787571 42.544247 0.246154 -0.332955 0.910247 0.250078 0.549536 1 0 1.000000
barracuda
  0 -32.831890 21.203934 42.956699 0.246152 0.284861 0.926425 0.247450 0.559079 1 0 1.000000
  0 -32.831890 20.777063 42.945522 0.246150 -0.332953 0.910249 0.250078 0.559079 1 0 1.000000
  0 -31.333786 21.214441 42.555424 0.246154 0.284866 0.926423 0.247450 0.549536 1 0 1.000000
barracuda
  0 -31.398748 21.566135 42.322109 0.152131 0.793880 0.588736 0.244822 0.549536 1 0 1.000000
  0 -32.831890 21.203934 42.956699 0.246152 0.284861 0.926425 0.247450 0.559079 1 0 1.000000
  0 -31.333786 21.214441 42.555424 0.246154 0.284866 0.926423 0.247450 0.549536 1 0 1.000000
barracuda
  0 -32.896851 21.555628 42.723385 0.152131 0.793877 0.588741 0.244822 0.559079 1 0 1.000000
  0 -32.831890 21.203934 42.956699 0.246152 0.284861 0.926425 0.247450 0.559079 1 0 1.000000
  0 -31.398748 21.566135 42.322109 0.152131 0.793880 0.588736 0.244822 0.549536 1 0 1.000000
barracuda
  0 -31.503859 21.708313 41.933414 0.000000 0.999657 0.026179 0.242195 0.549536 1 0 1.000000
  0 -32.896851 21.555628 42.723385 0.152131 0.793877 0.588741 0.244822 0.559079 1 0 1.000000
  0 -31.398748 21.566135 42.322109 0.152131 0.793880 0.588736 0.244822 0.549536 1 0 1.000000
barracuda
  0 -33.001957 21.697805 42.334690 -0.000002 0.999657 0.026173 0.242195 0.559079 1 0 1.000000
  0 -32.896851 21.555628 42.723385 0.152131 0.793877 0.588741 0.244822 0.559079 1 0 1.000000
  0 -31.503859 21.708313 41.933414 0.000000 0.999657 0.026179 0.242195 0.549536 1 0 1.000000
barracuda
  0 -31.608969 21.586674 41.537815 -0.152133 0.823606 -0.546378 0.239571 0.549536 1 0 1.000000
  0 -33.001957 21.697805 42.334690 -0.000002 0.999657 0.026173 0.242195 0.559079 1 0 1.000000
  0 -31.503859 21.708313 41.933414 0.000000 0.999657 0.026179 0.242195 0.549536 1 0 1.000000
barracuda
  0 -33.107071 21.576164 41.939095 -0.152130 0.823601 -0.546386 0.239571 0.559079 1 0 1.000000
  0 -33.001957 21.697805 42.334690 -0.000002 0.999657 0.026173 0.242195 0.559079 1 0 1.000000
  0 -31.608969 21.586674 41.537815 -0.152133 0.823606 -0.546378 0.239571 0.549536 1 0 1.000000
barracuda
  0 -31.673931 21.247671 41.286407 -0.246156 0.332958 -0.910245 0.236936 0.549536 1 0 1.000000
  0 -33.107071 21.576164 41.939095 -0.152130 0.823601 -0.546386 0.239571 0.559079 1 0 1.000000
  0 -31.608969 21.586674 41.537815 -0.152133 0.823606 -0.546378 0.239571 0.549536 1 0 1.000000
barracuda
  0 -33.172035 21.237164 41.687691 -0.246153 0.332957 -0.910246 0.236936 0.559079 1 0 1.000000
  0 -33.107071 21.576164 41.939095 -0.152130 0.823601 -0.546386 0.239571 0.559079 1 0 1.000000
  0 -31.673931 21.247671 41.286407 -0.246156 0.332958 -0.910245 0.236936 0.549536 1 0 1.000000
barracuda
  0 -31.673931 20.820801 41.275230 -0.246155 -0.284862 -0.926424 0.234312 0.549536 1 0 1.000000
  0 -33.172035 21.237164 41.687691 -0.246153 0.332957 -0.910246 0.236936 0.559079 1 0 1.000000
  0 -31.673931 21.247671 41.286407 -0.246156 0.332958 -0.910245 0.236936 0.549536 1 0 1.000000
barracuda
  0 -33.172035 20.810295 41.676514 -0.246156 -0.284863 -0.926423 0.234312 0.559079 1 0 1.000000
  0 -33.172035 21.237164 41.687691 -0.246153 0.332957 -0.910246 0.236936 0.559079 1 0 1.000000
  0 -31.673931 20.820801 41.275230 -0.246155 -0.284862 -0.926424 0.234312 0.549536 1 0 1.000000
barracuda
  0 -31.608974 20.469105 41.508549 -0.152130 -0.793880 -0.588737 0.231684 0.549536 1 0 1.000000
  0 -33.172035 20.810295 41.676514 -0.246156 -0.284863 -0.926423 0.234312 0.559079 1 0 1.000000
  0 -31.673931 20.820801 41.275230 -0.246155 -0.284862 -0.926424 0.234312 0.549536 1 0 1.000000
barracuda
  0 -33.107071 20.458595 41.909832 -0.152130 -0.793877 -0.588740 0.231684 0.559079 1 0 1.000000
  0 -33.172035 20.810295 41.676514 -0.246156 -0.284863 -0.926423 0.234312 0.559079 1 0 1.000000
  0 -31.608974 20.469105 41.508549 -0.152130 -0.793880 -0.588737 0.231684 0.549536 1 0 1.000000
barracuda
  0 -31.503859 20.326931 41.897240 0.000000 -0.999657 -0.026182 0.229056 0.549536 1 0 1.000000
  0 -33.107071 20.458595 41.909832 -0.152130 -0.793877 -0.588740 0.231684 0.559079 1 0 1.000000
  0 -31.608974 20.469105 41.508549 -0.152130 -0.793880 -0.588737 0.231684 0.549536 1 0 1.000000
barracuda
  0 -33.001957 20.316422 42.298515 -0.000001 -0.999657 -0.026180 0.229056 0.559079 1 0 1.000000
  0 -33.107071 20.458595 41.909832 -0.152130 -0.793877 -0.588740 0.231684 0.559079 1 0 1.000000
  0 -31.503859 20.326931 41.897240 0.000000 -0.999657 -0.026182 0.229056 0.549536 1 0 1.000000
barracuda
  0 -31.398748 20.448566 42.292843 0.152131 -0.823606 0.546378 0.226429 0.549536 1 0 1.000000
  0 -33.001957 20.316422 42.298515 -0.000001 -0.999657 -0.026180 0.229056 0.559079 1 0 1.000000
  0 -31.503859 20.326931 41.897240 0.000000 -0.999657 -0.026182 0.229056 0.549536 1 0 1.000000
barracuda
  0 -32.896851 20.438059 42.694122 0.152128 -0.823602 0.546386 0.226429 0.559079 1 0 1.000000
  0 -33.001957 20.316422 42.298515 -0.000001 -0.999657 -0.026180 0.229056 0.559079 1 0 1.000000
  0 -31.398748 20.448566 42.292843 0.152131 -0.823606 0.546378 0.226429 0.549536 1 0 1.000000
barracuda
  0 -40.434456 53.695660 43.977295 -0.603436 0.022129 -0.797105 0.298135 0.554587 1 0 1.000000
  0 -40.377316 48.833652 43.798283 -0.602721 0.022292 -0.797640 0.324605 0.554404 1 0 1.000000
  0 -40.994850 53.583820 44.397659 -0.603497 0.022116 -0.797058 0.298608 0.558418 1 0 1.000000
barracuda
  0 -40.994850 53.583820 44.397659 -0.603497 0.022116 -0.797058 0.298608 0.558418 1 0 1.000000
  0 -40.377316 48.833652 43.798283 -0.602721 0.022292 -0.797640 0.324605 0.554404 1 0 1.000000
  0 -40.944073 48.803898 44.226555 -0.602711 0.022295 -0.797648 0.324714 0.558277 1 0 1.000000
barracuda
  0 -37.087852 4.926525 47.762218 0.197545 0.296607 -0.934345 0.383573 0.539275 1 0 1.000000
  0 -40.219570 6.081533 47.706863 -0.223571 -0.001406 -0.974687 0.386215 0.554237 1 0 1.000000
  0 -36.934204 6.079294 47.792408 0.298042 -0.007428 -0.954524 0.378686 0.541312 1 0 1.000000
barracuda
  0 -37.087852 4.926525 47.762218 0.197545 0.296607 -0.934345 0.395660 0.517557 1 0 1.000000
  0 -36.934204 6.079294 47.792408 0.298042 -0.007428 -0.954524 0.399321 0.513176 1 0 1.000000
  0 -35.892750 4.906462 48.528442 0.911419 0.246322 -0.329608 0.401468 0.521404 1 0 1.000000
barracuda
  0 -35.892750 4.906462 48.528442 0.911419 0.246322 -0.329608 0.401468 0.521404 1 0 1.000000
  0 -36.934204 6.079294 47.792408 0.298042 -0.007428 -0.954524 0.399321 0.513176 1 0 1.000000
  0 -35.784248 6.059231 48.558628 0.862432 -0.070430 -0.501249 0.404971 0.516927 1 0 1.000000
barracuda
  0 -35.892750 4.906462 48.528442 0.911419 0.246322 -0.329608 0.401468 0.521404 1 0 1.000000
  0 -35.784248 6.059231 48.558628 0.862432 -0.070430 -0.501249 0.404971 0.516927 1 0 1.000000
  0 -35.755978 4.846775 50.807732 0.918511 -0.245787 0.309720 0.410070 0.527462 1 0 1.000000
barracuda
  0 -35.755978 4.846775 50.807732 0.918511 -0.245787 0.309720 0.410070 0.527462 1 0 1.000000
  0 -35.784248 6.059231 48.558628 0.862432 -0.070430 -0.501249 0.404971 0.516927 1 0 1.000000
  0 -35.647472 5.992651 51.101166 0.928181 -0.157937 0.336951 0.414853 0.524579 1 0 1.000000
barracuda
  0 -35.755978 4.846775 50.807732 0.918511 -0.245787 0.309720 0.410070 0.527462 1 0 1.000000
  0 -35.647472 5.992651 51.101166 0.928181 -0.157937 0.336951 0.414853 0.524579 1 0 1.000000
  0 -37.002319 4.622498 52.104839 0.386274 -0.339538 0.857616 0.413316 0.534334 1 0 1.000000
barracuda
  0 -37.002319 4.622498 52.104839 0.386274 -0.339538 0.857616 0.413316 0.534334 1 0 1.000000
  0 -35.647472 5.992651 51.101166 0.928181 -0.157937 0.336951 0.414853 0.524579 1 0 1.000000
  0 -36.941540 5.959091 52.382877 0.380596 -0.221148 0.897909 0.419546 0.533213 1 0 1.000000
barracuda
  0 -37.002319 4.622498 52.104839 0.386274 -0.339538 0.857616 0.413316 0.534334 1 0 1.000000
  0 -36.941540 5.959091 52.382877 0.380596 -0.221148 0.897909 0.419546 0.533213 1 0 1.000000
  0 -39.507748 4.622894 52.089710 -0.236410 -0.336904 0.911376 0.413316 0.544268 1 0 1.000000
barracuda
  0 -39.507748 4.622894 52.089710 -0.236410 -0.336904 0.911376 0.413316 0.544268 1 0 1.000000
  0 -36.941540 5.959091 52.382877 0.380596 -0.221148 0.897909 0.419546 0.533213 1 0 1.000000
  0 -39.637699 5.959484 52.367752 -0.238699 -0.212010 0.947668 0.419195 0.547595 1 0 1.000000
barracuda
  0 -39.507748 4.622894 52.089710 -0.236410 -0.336904 0.911376 0.413316 0.544268 1 0 1.000000
  0 -39.637699 5.959484 52.367752 -0.238699 -0.212010 0.947668 0.419195 0.547595 1 0 1.000000
  0 -41.783104 4.801956 50.949677 -0.779587 -0.394415 0.486499 0.404823 0.556414 1 0 1.000000
barracuda
  0 -41.783104 4.801956 50.949677 -0.779587 -0.394415 0.486499 0.404823 0.556414 1 0 1.000000
  0 -39.637699 5.959484 52.367752 -0.238699 -0.212010 0.947668 0.419195 0.547595 1 0 1.000000
  0 -41.913055 5.991543 51.143436 -0.828327 -0.185349 0.528697 0.408161 0.561046 1 0 1.000000
barracuda
  0 -42.071487 6.056379 48.667458 -0.865884 -0.086209 -0.492760 0.394431 0.561058 1 0 1.000000
  0 -41.783104 4.801956 50.949677 -0.779587 -0.394415 0.486499 0.404823 0.556414 1 0 1.000000
  0 -41.913055 5.991543 51.143436 -0.828327 -0.185349 0.528697 0.408161 0.561046 1 0 1.000000
barracuda
  0 -41.941532 4.903608 48.637272 -0.811370 -0.331212 -0.481640 0.395754 0.556207 1 0 1.000000
  0 -41.783104 4.801956 50.949677 -0.779587 -0.394415 0.486499 0.404823 0.556414 1 0 1.000000
  0 -42.071487 6.056379 48.667458 -0.865884 -0.086209 -0.492760 0.394431 0.561058 1 0 1.000000
barracuda
  0 -40.219570 6.081533 47.706863 -0.223571 -0.001406 -0.974687 0.386215 0.554237 1 0 1.000000
  0 -41.941532 4.903608 48.637272 -0.811370 -0.331212 -0.481640 0.395754 0.556207 1 0 1.000000
  0 -42.071487 6.056379 48.667458 -0.865884 -0.086209 -0.492760 0.394431 0.561058 1 0 1.000000
barracuda
  0 -40.089622 4.928762 47.676674 -0.225737 -0.127813 -0.965767 0.389691 0.550552 1 0 1.000000
  0 -41.941532 4.903608 48.637272 -0.811370 -0.331212 -0.481640 0.395754 0.556207 1 0 1.000000
  0 -40.219570 6.081533 47.706863 -0.223571 -0.001406 -0.974687 0.386215 0.554237 1 0 1.000000
barracuda
  0 -40.089622 4.928762 47.676674 -0.225737 -0.127813 -0.965767 0.389691 0.550552 1 0 1.000000
  0 -40.219570 6.081533 47.706863 -0.223571 -0.001406 -0.974687 0.386215 0.554237 1 0 1.000000
  0 -37.087852 4.926525 47.762218 0.197545 0.296607 -0.934345 0.383573 0.539275 1 0 1.000000
barracuda
  0 -37.087852 4.926525 47.762218 0.197545 0.296607 -0.934345 0.383573 0.539275 1 0 1.000000
  0 -39.134716 3.231201 47.883144 -0.226592 -0.448068 -0.864807 0.393391 0.543620 1 0 1.000000
  0 -40.089622 4.928762 47.676674 -0.225737 -0.127813 -0.965767 0.389691 0.550552 1 0 1.000000
barracuda
  0 -36.922417 2.733738 47.948765 0.273926 -0.489942 -0.827600 0.392073 0.534210 1 0 1.000000
  0 -39.134716 3.231201 47.883144 -0.226592 -0.448068 -0.864807 0.393391 0.543620 1 0 1.000000
  0 -37.087852 4.926525 47.762218 0.197545 0.296607 -0.934345 0.383573 0.539275 1 0 1.000000
barracuda
  0 -36.922417 2.733738 47.948765 0.273926 -0.489942 -0.827600 0.392073 0.534210 1 0 1.000000
  0 -38.222485 2.277500 48.285164 -0.161956 -0.689913 -0.705542 0.395594 0.539298 1 0 1.000000
  0 -39.134716 3.231201 47.883144 -0.226592 -0.448068 -0.864807 0.393391 0.543620 1 0 1.000000
barracuda
  0 -37.190571 2.393337 48.321949 0.370669 -0.644934 -0.668330 0.394567 0.535338 1 0 1.000000
  0 -38.222485 2.277500 48.285164 -0.161956 -0.689913 -0.705542 0.395594 0.539298 1 0 1.000000
  0 -36.922417 2.733738 47.948765 0.273926 -0.489942 -0.827600 0.392073 0.534210 1 0 1.000000
barracuda
  0 -38.222485 2.277500 48.285164 -0.161956 -0.689913 -0.705542 0.395594 0.539298 1 0 1.000000
  0 -37.190571 2.393337 48.321949 0.370669 -0.644934 -0.668330 0.394567 0.535338 1 0 1.000000
  0 -37.500919 1.751255 48.747349 0.196611 -0.860008 -0.470883 0.397302 0.536905 1 0 1.000000
barracuda
  0 -37.190571 2.393337 48.321949 0.370669 -0.644934 -0.668330 0.394567 0.535338 1 0 1.000000
  0 -36.603424 2.113918 49.322487 0.633815 -0.771054 -0.061278 0.399211 0.534057 1 0 1.000000
  0 -37.500919 1.751255 48.747349 0.196611 -0.860008 -0.470883 0.397302 0.536905 1 0 1.000000
barracuda
  0 -36.603424 2.113918 49.322487 0.633815 -0.771054 -0.061278 0.399211 0.534057 1 0 1.000000
  0 -37.552059 1.942966 50.603626 0.231798 -0.841119 0.488660 0.402727 0.537241 1 0 1.000000
  0 -37.500919 1.751255 48.747349 0.196611 -0.860008 -0.470883 0.397302 0.536905 1 0 1.000000
barracuda
  0 -36.603424 2.113918 49.322487 0.633815 -0.771054 -0.061278 0.399211 0.534057 1 0 1.000000
  0 -36.222195 2.932636 49.868725 0.844864 -0.497769 0.196039 0.402002 0.531848 1 0 1.000000
  0 -37.552059 1.942966 50.603626 0.231798 -0.841119 0.488660 0.402727 0.537241 1 0 1.000000
barracuda
  0 -37.552059 1.942966 50.603626 0.231798 -0.841119 0.488660 0.402727 0.537241 1 0 1.000000
  0 -36.222195 2.932636 49.868725 0.844864 -0.497769 0.196039 0.402002 0.531848 1 0 1.000000
  0 -37.329700 2.895042 51.304440 0.367958 -0.562914 0.740091 0.406253 0.536280 1 0 1.000000
barracuda
  0 -36.222195 2.932636 49.868725 0.844864 -0.497769 0.196039 0.402002 0.531848 1 0 1.000000
  0 -35.755978 4.846775 50.807732 0.918511 -0.245787 0.309720 0.410070 0.527462 1 0 1.000000
  0 -37.329700 2.895042 51.304440 0.367958 -0.562914 0.740091 0.406253 0.536280 1 0 1.000000
barracuda
  0 -37.329700 2.895042 51.304440 0.367958 -0.562914 0.740091 0.406253 0.536280 1 0 1.000000
  0 -35.755978 4.846775 50.807732 0.918511 -0.245787 0.309720 0.410070 0.527462 1 0 1.000000
  0 -37.002319 4.622498 52.104839 0.386274 -0.339538 0.857616 0.413316 0.534334 1 0 1.000000
barracuda
  0 -37.329700 2.895042 51.304440 0.367958 -0.562914 0.740091 0.406253 0.536280 1 0 1.000000
  0 -37.002319 4.622498 52.104839 0.386274 -0.339538 0.857616 0.413316 0.534334 1 0 1.000000
  0 -39.111931 2.894077 51.341278 -0.235613 -0.587949 0.773823 0.406272 0.541826 1 0 1.000000
barracuda
  0 -39.111931 2.894077 51.341278 -0.235613 -0.587949 0.773823 0.406272 0.541826 1 0 1.000000
  0 -37.002319 4.622498 52.104839 0.386274 -0.339538 0.857616 0.413316 0.534334 1 0 1.000000
  0 -39.507748 4.622894 52.089710 -0.236410 -0.336904 0.911376 0.413316 0.544268 1 0 1.000000
barracuda
  0 -39.507748 4.622894 52.089710 -0.236410 -0.336904 0.911376 0.413316 0.544268 1 0 1.000000
  0 -40.608635 3.058601 50.444519 -0.599611 -0.742875 0.297665 0.402513 0.547700 1 0 1.000000
  0 -39.111931 2.894077 51.341278 -0.235613 -0.587949 0.773823 0.406272 0.541826 1 0 1.000000
barracuda
  0 -41.783104 4.801956 50.949677 -0.779587 -0.394415 0.486499 0.404823 0.556414 1 0 1.000000
  0 -40.608635 3.058601 50.444519 -0.599611 -0.742875 0.297665 0.402513 0.547700 1 0 1.000000
  0 -39.507748 4.622894 52.089710 -0.236410 -0.336904 0.911376 0.413316 0.544268 1 0 1.000000
barracuda
  0 -41.783104 4.801956 50.949677 -0.779587 -0.394415 0.486499 0.404823 0.556414 1 0 1.000000
  0 -40.679932 3.171455 48.858746 -0.618450 -0.678419 -0.396570 0.397506 0.548203 1 0 1.000000
  0 -40.608635 3.058601 50.444519 -0.599611 -0.742875 0.297665 0.402513 0.547700 1 0 1.000000
barracuda
  0 -41.941532 4.903608 48.637272 -0.811370 -0.331212 -0.481640 0.395754 0.556207 1 0 1.000000
  0 -40.679932 3.171455 48.858746 -0.618450 -0.678419 -0.396570 0.397506 0.548203 1 0 1.000000
  0 -41.783104 4.801956 50.949677 -0.779587 -0.394415 0.486499 0.404823 0.556414 1 0 1.000000
barracuda
  0 -40.089622 4.928762 47.676674 -0.225737 -0.127813 -0.965767 0.389691 0.550552 1 0 1.000000
  0 -40.679932 3.171455 48.858746 -0.618450 -0.678419 -0.396570 0.397506 0.548203 1 0 1.000000
  0 -41.941532 4.903608 48.637272 -0.811370 -0.331212 -0.481640 0.395754 0.556207 1 0 1.000000
barracuda
  0 -39.134716 3.231201 47.883144 -0.226592 -0.448068 -0.864807 0.393391 0.543620 1 0 1.000000
  0 -40.679932 3.171455 48.858746 -0.618450 -0.678419 -0.396570 0.397506 0.548203 1 0 1.000000
  0 -40.089622 4.928762 47.676674 -0.225737 -0.127813 -0.965767 0.389691 0.550552 1 0 1.000000
barracuda
  0 -39.134716 3.231201 47.883144 -0.226592 -0.448068 -0.864807 0.393391 0.543620 1 0 1.000000
  0 -39.235779 2.123676 49.168137 -0.497724 -0.846963 -0.186881 0.398644 0.542251 1 0 1.000000
  0 -40.679932 3.171455 48.858746 -0.618450 -0.678419 -0.396570 0.397506 0.548203 1 0 1.000000
barracuda
  0 -38.222485 2.277500 48.285164 -0.161956 -0.689913 -0.705542 0.395594 0.539298 1 0 1.000000
  0 -39.235779 2.123676 49.168137 -0.497724 -0.846963 -0.186881 0.398644 0.542251 1 0 1.000000
  0 -39.134716 3.231201 47.883144 -0.226592 -0.448068 -0.864807 0.393391 0.543620 1 0 1.000000
barracuda
  0 -38.222485 2.277500 48.285164 -0.161956 -0.689913 -0.705542 0.395594 0.539298 1 0 1.000000
  0 -38.398067 1.598957 49.757500 -0.185484 -0.980318 0.067620 0.400273 0.539446 1 0 1.000000
  0 -39.235779 2.123676 49.168137 -0.497724 -0.846963 -0.186881 0.398644 0.542251 1 0 1.000000
barracuda
  0 -37.500919 1.751255 48.747349 0.196611 -0.860008 -0.470883 0.397302 0.536905 1 0 1.000000
  0 -38.398067 1.598957 49.757500 -0.185484 -0.980318 0.067620 0.400273 0.539446 1 0 1.000000
  0 -38.222485 2.277500 48.285164 -0.161956 -0.689913 -0.705542 0.395594 0.539298 1 0 1.000000
barracuda
  0 -37.500919 1.751255 48.747349 0.196611 -0.860008 -0.470883 0.397302 0.536905 1 0 1.000000
  0 -37.552059 1.942966 50.603626 0.231798 -0.841119 0.488660 0.402727 0.537241 1 0 1.000000
  0 -38.398067 1.598957 49.757500 -0.185484 -0.980318 0.067620 0.400273 0.539446 1 0 1.000000
barracuda
  0 -38.398067 1.598957 49.757500 -0.185484 -0.980318 0.067620 0.400273 0.539446 1 0 1.000000
  0 -37.552059 1.942966 50.603626 0.231798 -0.841119 0.488660 0.402727 0.537241 1 0 1.000000
  0 -38.764984 1.956448 50.393280 -0.350663 -0.838468 0.417141 0.402188 0.540518 1 0 1.000000
barracuda
  0 -37.552059 1.942966 50.603626 0.231798 -0.841119 0.488660 0.402727 0.537241 1 0 1.000000
  0 -37.329700 2.895042 51.304440 0.367958 -0.562914 0.740091 0.406253 0.536280 1 0 1.000000
  0 -38.764984 1.956448 50.393280 -0.350663 -0.838468 0.417141 0.402188 0.540518 1 0 1.000000
barracuda
  0 -38.764984 1.956448 50.393280 -0.350663 -0.838468 0.417141 0.402188 0.540518 1 0 1.000000
  0 -37.329700 2.895042 51.304440 0.367958 -0.562914 0.740091 0.406253 0.536280 1 0 1.000000
  0 -39.111931 2.894077 51.341278 -0.235613 -0.587949 0.773823 0.406272 0.541826 1 0 1.000000
barracuda
  0 -39.111931 2.894077 51.341278 -0.235613 -0.587949 0.773823 0.406272 0.541826 1 0 1.000000
  0 -40.608635 3.058601 50.444519 -0.599611 -0.742875 0.297665 0.402513 0.547700 1 0 1.000000
  0 -38.764984 1.956448 50.393280 -0.350663 -0.838468 0.417141 0.402188 0.540518 1 0 1.000000
barracuda
  0 -40.608635 3.058601 50.444519 -0.599611 -0.742875 0.297665 0.402513 0.547700 1 0 1.000000
  0 -39.235779 2.123676 49.168137 -0.497724 -0.846963 -0.186881 0.398644 0.542251 1 0 1.000000
  0 -38.764984 1.956448 50.393280 -0.350663 -0.838468 0.417141 0.402188 0.540518 1 0 1.000000
barracuda
  0 -40.679932 3.171455 48.858746 -0.618450 -0.678419 -0.396570 0.397506 0.548203 1 0 1.000000
  0 -39.235779 2.123676 49.168137 -0.497724 -0.846963 -0.186881 0.398644 0.542251 1 0 1.000000
  0 -40.608635 3.058601 50.444519 -0.599611 -0.742875 0.297665 0.402513 0.547700 1 0 1.000000
barracuda
  0 -39.235779 2.123676 49.168137 -0.497724 -0.846963 -0.186881 0.398644 0.542251 1 0 1.000000
  0 -38.398067 1.598957 49.757500 -0.185484 -0.980318 0.067620 0.400273 0.539446 1 0 1.000000
  0 -38.764984 1.956448 50.393280 -0.350663 -0.838468 0.417141 0.402188 0.540518 1 0 1.000000
barracuda
  0 -36.922417 2.733738 47.948765 0.273926 -0.489942 -0.827600 0.392073 0.534210 1 0 1.000000
  0 -36.226433 2.969612 48.456818 0.885900 -0.432343 -0.168108 0.396171 0.529380 1 0 1.000000
  0 -37.190571 2.393337 48.321949 0.370669 -0.644934 -0.668330 0.394567 0.535338 1 0 1.000000
barracuda
  0 -36.603424 2.113918 49.322487 0.633815 -0.771054 -0.061278 0.399211 0.534057 1 0 1.000000
  0 -37.190571 2.393337 48.321949 0.370669 -0.644934 -0.668330 0.394567 0.535338 1 0 1.000000
  0 -36.226433 2.969612 48.456818 0.885900 -0.432343 -0.168108 0.396171 0.529380 1 0 1.000000
barracuda
  0 -36.222195 2.932636 49.868725 0.844864 -0.497769 0.196039 0.402002 0.531848 1 0 1.000000
  0 -36.603424 2.113918 49.322487 0.633815 -0.771054 -0.061278 0.399211 0.534057 1 0 1.000000
  0 -36.226433 2.969612 48.456818 0.885900 -0.432343 -0.168108 0.396171 0.529380 1 0 1.000000
barracuda
  0 -36.226433 2.969612 48.456818 0.885900 -0.432343 -0.168108 0.396171 0.529380 1 0 1.000000
  0 -35.892750 4.906462 48.528442 0.911419 0.246322 -0.329608 0.401468 0.521404 1 0 1.000000
  0 -36.222195 2.932636 49.868725 0.844864 -0.497769 0.196039 0.402002 0.531848 1 0 1.000000
barracuda
  0 -36.222195 2.932636 49.868725 0.844864 -0.497769 0.196039 0.402002 0.531848 1 0 1.000000
  0 -35.892750 4.906462 48.528442 0.911419 0.246322 -0.329608 0.401468 0.521404 1 0 1.000000
  0 -35.755978 4.846775 50.807732 0.918511 -0.245787 0.309720 0.410070 0.527462 1 0 1.000000
barracuda
  0 -35.244022 47.058327 28.789217 0.999012 0.035413 -0.026865 0.617259 0.351362 1 0 1.000000
  0 -34.352848 16.415314 28.153521 0.999206 0.031978 -0.023777 0.620792 0.466432 1 0 1.000000
  0 -33.745842 -4.588207 23.690042 0.998810 0.032546 -0.036314 0.608639 0.545546 1 0 1.000000
barracuda
  0 -34.352848 16.415314 28.153521 0.999206 0.031978 -0.023777 0.620792 0.466432 1 0 1.000000
  0 -33.866428 -6.079491 30.410948 0.999206 0.031976 -0.023767 0.633952 0.549924 1 0 1.000000
  0 -33.745842 -4.588207 23.690042 0.998810 0.032546 -0.036314 0.608639 0.545546 1 0 1.000000
barracuda
  0 -35.832752 57.299774 24.718895 0.998809 0.032589 -0.036322 0.601604 0.314697 1 0 1.000000
  0 -34.053692 -2.901993 20.260366 0.688934 0.040924 -0.723668 0.595560 0.539864 1 0 1.000000
  0 -35.874031 56.793499 21.823545 0.688955 0.040928 -0.723648 0.590901 0.317092 1 0 1.000000
barracuda
  0 -33.745842 -4.588207 23.690042 0.998810 0.032546 -0.036314 0.608639 0.545546 1 0 1.000000
  0 -34.053692 -2.901993 20.260366 0.688934 0.040924 -0.723668 0.595560 0.539864 1 0 1.000000
  0 -35.832752 57.299774 24.718895 0.998809 0.032589 -0.036322 0.601604 0.314697 1 0 1.000000
barracuda
  0 -35.832752 57.299774 24.718895 0.998809 0.032589 -0.036322 0.601604 0.314697 1 0 1.000000
  0 -35.244022 47.058327 28.789217 0.999012 0.035413 -0.026865 0.617259 0.351362 1 0 1.000000
  0 -33.745842 -4.588207 23.690042 0.998810 0.032546 -0.036314 0.608639 0.545546 1 0 1.000000
barracuda
  0 -35.634991 58.585754 31.691729 0.999012 0.035410 -0.026849 0.627367 0.308679 1 0 1.000000
  0 -35.244022 47.058327 28.789217 0.999012 0.035413 -0.026865 0.617259 0.351362 1 0 1.000000
  0 -35.832752 57.299774 24.718895 0.998809 0.032589 -0.036322 0.601604 0.314697 1 0 1.000000
barracuda
  0 -35.244022 47.058327 28.789217 0.999012 0.035413 -0.026865 0.617259 0.351362 1 0 1.000000
  0 -35.634991 58.585754 31.691729 0.999012 0.035410 -0.026849 0.627367 0.308679 1 0 1.000000
  0 -35.070023 48.696133 37.712963 0.993549 0.041187 -0.105662 0.650480 0.344025 1 0 1.000000
barracuda
  0 -35.070023 48.696133 37.712963 0.993549 0.041187 -0.105662 0.650480 0.344025 1 0 1.000000
  0 -35.634991 58.585754 31.691729 0.999012 0.035410 -0.026849 0.627367 0.308679 1 0 1.000000
  0 -35.324097 58.582916 41.076347 0.994158 0.060360 -0.089482 0.662346 0.307041 1 0 1.000000
barracuda
  0 -35.324097 58.582916 41.076347 0.994158 0.060360 -0.089482 0.662346 0.307041 1 0 1.000000
  0 -33.337437 45.726723 47.184017 0.987807 -0.011026 0.155295 0.687370 0.353886 1 0 1.000000
  0 -35.070023 48.696133 37.712963 0.993549 0.041187 -0.105662 0.650480 0.344025 1 0 1.000000
barracuda
  0 -33.757427 56.120857 50.487705 0.986065 -0.016314 0.165557 0.697857 0.314565 1 0 1.000000
  0 -33.337437 45.726723 47.184017 0.987807 -0.011026 0.155295 0.687370 0.353886 1 0 1.000000
  0 -35.324097 58.582916 41.076347 0.994158 0.060360 -0.089482 0.662346 0.307041 1 0 1.000000
barracuda
  0 -33.757427 56.120857 50.487705 0.986065 -0.016314 0.165557 0.697857 0.314565 1 0 1.000000
  0 -34.487316 54.009602 51.391598 0.879748 -0.112522 0.461933 0.701597 0.322275 1 0 1.000000
  0 -33.337437 45.726723 47.184017 0.987807 -0.011026 0.155295 0.687370 0.353886 1 0 1.000000
barracuda
  0 -33.337437 45.726723 47.184017 0.987807 -0.011026 0.155295 0.687370 0.353886 1 0 1.000000
  0 -34.487316 54.009602 51.391598 0.879748 -0.112522 0.461933 0.701597 0.322275 1 0 1.000000
  0 -34.520840 45.444702 49.341007 0.895838 -0.063438 0.439829 0.695459 0.354559 1 0 1.000000
barracuda
  0 -33.337437 45.726723 47.184017 0.987807 -0.011026 0.155295 0.687370 0.353886 1 0 1.000000
  0 -34.520840 45.444702 49.341007 0.895838 -0.063438 0.439829 0.695459 0.354559 1 0 1.000000
  0 -33.671700 7.024155 46.180592 0.989402 -0.005790 0.145087 0.690428 0.498315 1 0 1.000000
barracuda
  0 -33.671700 7.024155 46.180592 0.989402 -0.005790 0.145087 0.690428 0.498315 1 0 1.000000
  0 -34.520840 45.444702 49.341007 0.895838 -0.063438 0.439829 0.695459 0.354559 1 0 1.000000
  0 -34.318298 5.634729 47.962341 0.909079 -0.014163 0.416384 0.697313 0.503181 1 0 1.000000
barracuda
  0 -33.671700 7.024155 46.180592 0.989402 -0.005790 0.145087 0.690428 0.498315 1 0 1.000000
  0 -34.506485 9.689812 39.407394 0.990456 0.003033 -0.137793 0.664714 0.489569 1 0 1.000000
  0 -33.337437 45.726723 47.184017 0.987807 -0.011026 0.155295 0.687370 0.353886 1 0 1.000000
barracuda
  0 -34.506485 9.689812 39.407394 0.990456 0.003033 -0.137793 0.664714 0.489569 1 0 1.000000
  0 -34.624569 17.391546 36.893131 0.990455 0.003038 -0.137805 0.653990 0.461305 1 0 1.000000
  0 -33.337437 45.726723 47.184017 0.987807 -0.011026 0.155295 0.687370 0.353886 1 0 1.000000
barracuda
  0 -34.624569 17.391546 36.893131 0.990455 0.003038 -0.137805 0.653990 0.461305 1 0 1.000000
  0 -35.070023 48.696133 37.712963 0.993549 0.041187 -0.105662 0.650480 0.344025 1 0 1.000000
  0 -33.337437 45.726723 47.184017 0.987807 -0.011026 0.155295 0.687370 0.353886 1 0 1.000000
barracuda
  0 -34.350449 -4.290359 46.189209 -0.001677 -0.166518 0.986037 0.714899 0.545061 1 0 1.000000
  0 -32.252525 0.115192 47.002853 -0.001632 -0.166476 0.986044 0.706431 0.528867 1 0 1.000000
  0 -35.450134 2.998047 47.370914 -0.001604 -0.166478 0.986044 0.717931 0.517619 1 0 1.000000
barracuda
  0 -36.471241 2.750561 47.416973 -0.001617 -0.166477 0.986044 0.721774 0.518388 1 0 1.000000
  0 -34.350449 -4.290359 46.189209 -0.001677 -0.166518 0.986037 0.714899 0.545061 1 0 1.000000
  0 -35.450134 2.998047 47.370914 -0.001604 -0.166478 0.986044 0.717931 0.517619 1 0 1.000000
barracuda
  0 -38.761868 -4.290359 46.189209 -0.001589 -0.166531 0.986035 0.730422 0.544453 1 0 1.000000
  0 -34.350449 -4.290359 46.189209 -0.001677 -0.166518 0.986037 0.714899 0.545061 1 0 1.000000
  0 -36.471241 2.750561 47.416973 -0.001617 -0.166477 0.986044 0.721774 0.518388 1 0 1.000000
barracuda
  0 -30.618101 44.726830 36.650803 0.629170 0.763873 -0.143680 0.649040 0.360010 1 0 1.000000
  0 -30.598528 43.954895 32.086716 0.629412 0.763732 -0.143367 0.632951 0.363878 1 0 1.000000
  0 -35.070023 48.696133 37.712963 0.629250 0.763826 -0.143577 0.650480 0.344025 1 0 1.000000
barracuda
  0 -35.070023 48.696133 37.712963 0.629250 0.763826 -0.143577 0.650480 0.344025 1 0 1.000000
  0 -30.598528 43.954895 32.086716 0.629412 0.763732 -0.143367 0.632951 0.363878 1 0 1.000000
  0 -35.244022 47.058327 28.789217 0.629155 0.763881 -0.143697 0.617259 0.351362 1 0 1.000000
barracuda
  0 -35.244022 47.058327 28.789217 0.607307 0.030591 -0.793878 0.617259 0.351362 1 0 1.000000
  0 -30.598528 43.954895 32.086716 0.889760 0.025491 -0.455717 0.632951 0.363878 1 0 1.000000
  0 -34.352848 16.415314 28.153521 0.672905 -0.025212 -0.739299 0.620792 0.466432 1 0 1.000000
barracuda
  0 -30.084974 17.977013 35.946453 0.998913 0.006460 -0.046175 0.650359 0.459289 1 0 1.000000
  0 -30.598528 43.954895 32.086716 0.889760 0.025491 -0.455717 0.632951 0.363878 1 0 1.000000
  0 -30.618101 44.726830 36.650803 0.999459 0.015441 -0.029042 0.649040 0.360010 1 0 1.000000
barracuda
  0 -30.350533 17.522465 31.394575 0.905487 -0.010105 -0.424254 0.634196 0.461842 1 0 1.000000
  0 -30.598528 43.954895 32.086716 0.889760 0.025491 -0.455717 0.632951 0.363878 1 0 1.000000
  0 -30.084974 17.977013 35.946453 0.998913 0.006460 -0.046175 0.650359 0.459289 1 0 1.000000
barracuda
  0 -34.352848 16.415314 28.153521 0.672905 -0.025212 -0.739299 0.620792 0.466432 1 0 1.000000
  0 -30.598528 43.954895 32.086716 0.889760 0.025491 -0.455717 0.632951 0.363878 1 0 1.000000
  0 -30.350533 17.522465 31.394575 0.905487 -0.010105 -0.424254 0.634196 0.461842 1 0 1.000000
barracuda
  0 -30.250240 6.135118 33.812359 0.978384 -0.167216 -0.121670 0.644484 0.503801 1 0 1.000000
  0 -34.352848 16.415314 28.153521 0.672905 -0.025212 -0.739299 0.620792 0.466432 1 0 1.000000
  0 -30.350533 17.522465 31.394575 0.905487 -0.010105 -0.424254 0.634196 0.461842 1 0 1.000000
barracuda
  0 -33.866428 -6.079491 30.410948 0.913473 -0.200335 -0.354164 0.633952 0.549924 1 0 1.000000
  0 -34.352848 16.415314 28.153521 0.672905 -0.025212 -0.739299 0.620792 0.466432 1 0 1.000000
  0 -30.250240 6.135118 33.812359 0.978384 -0.167216 -0.121670 0.644484 0.503801 1 0 1.000000
barracuda
  0 -30.250240 6.135118 33.812359 0.978384 -0.167216 -0.121670 0.644484 0.503801 1 0 1.000000
  0 -34.216103 -6.602516 38.565914 0.936399 -0.345418 0.061994 0.664439 0.550442 1 0 1.000000
  0 -33.866428 -6.079491 30.410948 0.913473 -0.200335 -0.354164 0.633952 0.549924 1 0 1.000000
barracuda
  0 -29.924294 9.485220 38.438881 0.997371 -0.063845 0.034274 0.661140 0.490502 1 0 1.000000
  0 -30.350533 17.522465 31.394575 0.905487 -0.010105 -0.424254 0.634196 0.461842 1 0 1.000000
  0 -30.084974 17.977013 35.946453 0.998913 0.006460 -0.046175 0.650359 0.459289 1 0 1.000000
barracuda
  0 -30.250240 6.135118 33.812359 0.978384 -0.167216 -0.121670 0.644484 0.503801 1 0 1.000000
  0 -30.350533 17.522465 31.394575 0.905487 -0.010105 -0.424254 0.634196 0.461842 1 0 1.000000
  0 -29.924294 9.485220 38.438881 0.997371 -0.063845 0.034274 0.661140 0.490502 1 0 1.000000
barracuda
  0 -32.272701 4.715843 47.613415 0.983509 -0.124349 0.131329 0.696174 0.506667 1 0 1.000000
  0 -32.252525 0.115192 47.002853 0.951313 -0.291866 0.099089 0.694706 0.523921 1 0 1.000000
  0 -29.924294 9.485220 38.438881 0.997371 -0.063845 0.034274 0.661140 0.490502 1 0 1.000000
barracuda
  0 -29.924294 9.485220 38.438881 0.997371 -0.063845 0.034274 0.661140 0.490502 1 0 1.000000
  0 -32.252525 0.115192 47.002853 0.951313 -0.291866 0.099089 0.694706 0.523921 1 0 1.000000
  0 -30.250240 6.135118 33.812359 0.978384 -0.167216 -0.121670 0.644484 0.503801 1 0 1.000000
barracuda
  0 -30.250240 6.135118 33.812359 0.978384 -0.167216 -0.121670 0.644484 0.503801 1 0 1.000000
  0 -32.252525 0.115192 47.002853 0.951313 -0.291866 0.099089 0.694706 0.523921 1 0 1.000000
  0 -34.216103 -6.602516 38.565914 0.936399 -0.345418 0.061994 0.664439 0.550442 1 0 1.000000
barracuda
  0 -34.216103 -6.602516 38.565914 0.936399 -0.345418 0.061994 0.664439 0.550442 1 0 1.000000
  0 -32.252525 0.115192 47.002853 0.951313 -0.291866 0.099089 0.694706 0.523921 1 0 1.000000
  0 -34.350449 -4.290359 46.189209 0.881326 -0.447630 0.151298 0.692447 0.540484 1 0 1.000000
barracuda
  0 -31.398748 21.566135 42.322109 0.965928 0.006777 -0.258723 0.242396 0.545515 1 0 1.000000
  0 -31.333786 21.214441 42.555424 0.965927 0.006773 -0.258727 0.241497 0.543031 1 0 1.000000
  0 -31.503859 21.708313 41.933414 0.965927 0.006774 -0.258727 0.241661 0.548000 1 0 1.000000
barracuda
  0 -31.333786 21.214441 42.555424 0.965927 0.006773 -0.258727 0.241497 0.543031 1 0 1.000000
  0 -31.333786 20.787571 42.544247 0.965926 0.006772 -0.258730 0.239309 0.541496 1 0 1.000000
  0 -31.503859 21.708313 41.933414 0.965927 0.006774 -0.258727 0.241661 0.548000 1 0 1.000000
barracuda
  0 -31.333786 20.787571 42.544247 0.965926 0.006772 -0.258730 0.239309 0.541496 1 0 1.000000
  0 -31.398748 20.448566 42.292843 0.965927 0.006775 -0.258727 0.236667 0.541496 1 0 1.000000
  0 -31.503859 21.708313 41.933414 0.965927 0.006774 -0.258727 0.241661 0.548000 1 0 1.000000
barracuda
  0 -31.398748 20.448566 42.292843 0.965927 0.006775 -0.258727 0.236667 0.541496 1 0 1.000000
  0 -31.503859 20.326931 41.897240 0.965925 0.006777 -0.258733 0.234580 0.543031 1 0 1.000000
  0 -31.503859 21.708313 41.933414 0.965927 0.006774 -0.258727 0.241661 0.548000 1 0 1.000000
barracuda
  0 -31.503859 20.326931 41.897240 0.965925 0.006777 -0.258733 0.234580 0.543031 1 0 1.000000
  0 -31.608974 20.469105 41.508549 0.965925 0.006771 -0.258735 0.233846 0.545515 1 0 1.000000
  0 -31.503859 21.708313 41.933414 0.965927 0.006774 -0.258727 0.241661 0.548000 1 0 1.000000
barracuda
  0 -31.608974 20.469105 41.508549 0.965925 0.006771 -0.258735 0.233846 0.545515 1 0 1.000000
  0 -31.673931 20.820801 41.275230 0.965928 0.006766 -0.258724 0.234744 0.548000 1 0 1.000000
  0 -31.503859 21.708313 41.933414 0.965927 0.006774 -0.258727 0.241661 0.548000 1 0 1.000000
barracuda
  0 -31.673931 20.820801 41.275230 0.965928 0.006766 -0.258724 0.234744 0.548000 1 0 1.000000
  0 -31.673931 21.247671 41.286407 0.965927 0.006773 -0.258724 0.236936 0.549536 1 0 1.000000
  0 -31.503859 21.708313 41.933414 0.965927 0.006774 -0.258727 0.241661 0.548000 1 0 1.000000
barracuda
  0 -31.673931 21.247671 41.286407 0.965927 0.006773 -0.258724 0.236936 0.549536 1 0 1.000000
  0 -31.608969 21.586674 41.537815 0.965928 0.006777 -0.258721 0.239571 0.549536 1 0 1.000000
  0 -31.503859 21.708313 41.933414 0.965927 0.006774 -0.258727 0.241661 0.548000 1 0 1.000000
barracuda
  0 -36.821999 4.931843 47.559139 -0.413306 -0.048129 0.909319 0.722763 0.510193 1 0 1.000000
  0 -39.098293 8.141081 46.508305 -0.413311 -0.048147 0.909316 0.730154 0.498044 1 0 1.000000
  0 -36.471241 2.750561 47.416973 -0.413256 -0.048113 0.909343 0.721774 0.518388 1 0 1.000000
barracuda
  0 -36.471241 2.750561 47.416973 -0.413256 -0.048113 0.909343 0.721774 0.518388 1 0 1.000000
  0 -39.098293 8.141081 46.508305 -0.413311 -0.048147 0.909316 0.730154 0.498044 1 0 1.000000
  0 -38.761868 -4.290359 46.189209 -0.413292 -0.048134 0.909325 0.730422 0.544453 1 0 1.000000
barracuda
  0 -39.113525 56.001701 50.484585 -0.006564 0.401628 0.915779 0.721602 0.319197 1 0 1.000000
  0 -36.830402 54.009602 51.391598 -0.006424 0.401457 0.915855 0.715615 0.326891 1 0 1.000000
  0 -33.757427 56.120857 50.487705 -0.006644 0.401726 0.915736 0.703852 0.319559 1 0 1.000000
barracuda
  0 -33.757427 56.120857 50.487705 -0.006644 0.401726 0.915736 0.703852 0.319559 1 0 1.000000
  0 -36.830402 54.009602 51.391598 -0.006424 0.401457 0.915855 0.715615 0.326891 1 0 1.000000
  0 -34.487316 54.009602 51.391598 -0.006600 0.401671 0.915760 0.706879 0.327233 1 0 1.000000
barracuda
  0 -37.168953 45.444702 49.341007 -0.304369 -0.129945 0.943649 0.718135 0.358966 1 0 1.000000
  0 -34.520840 45.444702 49.341007 -0.036634 -0.136988 0.989895 0.708262 0.359352 1 0 1.000000
  0 -36.830402 54.009602 51.391598 -0.290187 -0.220928 0.931119 0.715615 0.326891 1 0 1.000000
barracuda
  0 -36.830402 54.009602 51.391598 -0.290187 -0.220928 0.931119 0.715615 0.326891 1 0 1.000000
  0 -34.520840 45.444702 49.341007 -0.036634 -0.136988 0.989895 0.708262 0.359352 1 0 1.000000
  0 -34.487316 54.009602 51.391598 0.000000 -0.232837 0.972516 0.706879 0.327233 1 0 1.000000
barracuda
  0 -34.318298 5.634729 47.962341 -0.072911 -0.039655 0.996550 0.713324 0.507899 1 0 1.000000
  0 -34.520840 45.444702 49.341007 -0.036634 -0.136988 0.989895 0.708262 0.359352 1 0 1.000000
  0 -35.636261 4.927074 47.741249 -0.072889 -0.039655 0.996551 0.718342 0.510366 1 0 1.000000
barracuda
  0 -36.821999 4.931843 47.559139 -0.315850 -0.039022 0.948006 0.722763 0.510193 1 0 1.000000
  0 -35.636261 4.927074 47.741249 -0.072889 -0.039655 0.996551 0.718342 0.510366 1 0 1.000000
  0 -34.520840 45.444702 49.341007 -0.036634 -0.136988 0.989895 0.708262 0.359352 1 0 1.000000
barracuda
  0 -37.168953 45.444702 49.341007 -0.304369 -0.129945 0.943649 0.718135 0.358966 1 0 1.000000
  0 -36.821999 4.931843 47.559139 -0.315850 -0.039022 0.948006 0.722763 0.510193 1 0 1.000000
  0 -34.520840 45.444702 49.341007 -0.036634 -0.136988 0.989895 0.708262 0.359352 1 0 1.000000
barracuda
  0 -37.168953 45.444702 49.341007 -0.304369 -0.129945 0.943649 0.718135 0.358966 1 0 1.000000
  0 -39.098293 8.141081 46.508305 -0.539401 -0.035981 0.841280 0.730154 0.498044 1 0 1.000000
  0 -36.821999 4.931843 47.559139 -0.315850 -0.039022 0.948006 0.722763 0.510193 1 0 1.000000
barracuda
  0 -39.116959 45.484467 47.822395 -0.549115 -0.113343 0.828025 0.726833 0.358672 1 0 1.000000
  0 -39.098293 8.141081 46.508305 -0.539401 -0.035981 0.841280 0.730154 0.498044 1 0 1.000000
  0 -37.168953 45.444702 49.341007 -0.304369 -0.129945 0.943649 0.718135 0.358966 1 0 1.000000
barracuda
  0 -36.830402 54.009602 51.391598 -0.290187 -0.220928 0.931119 0.715615 0.326891 1 0 1.000000
  0 -39.116959 45.484467 47.822395 -0.549115 -0.113343 0.828025 0.726833 0.358672 1 0 1.000000
  0 -37.168953 45.444702 49.341007 -0.304369 -0.129945 0.943649 0.718135 0.358966 1 0 1.000000
barracuda
  0 -39.113525 56.001701 50.484585 -0.555391 -0.189986 0.809597 0.721602 0.319197 1 0 1.000000
  0 -39.116959 45.484467 47.822395 -0.549115 -0.113343 0.828025 0.726833 0.358672 1 0 1.000000
  0 -36.830402 54.009602 51.391598 -0.290187 -0.220928 0.931119 0.715615 0.326891 1 0 1.000000
barracuda
  0 -35.636261 4.927074 47.741249 0.022651 -0.228063 0.973383 0.718342 0.510366 1 0 1.000000
  0 -35.450134 2.998047 47.370914 0.022650 -0.228061 0.973383 0.717931 0.517619 1 0 1.000000
  0 -34.318298 5.634729 47.962341 0.022682 -0.228074 0.973380 0.713324 0.507899 1 0 1.000000
barracuda
  0 -34.318298 5.634729 47.962341 0.022682 -0.228074 0.973380 0.713324 0.507899 1 0 1.000000
  0 -35.450134 2.998047 47.370914 0.022650 -0.228061 0.973383 0.717931 0.517619 1 0 1.000000
  0 -32.272701 4.715843 47.613415 0.022683 -0.228074 0.973380 0.705832 0.511657 1 0 1.000000
barracuda
  0 -39.500164 56.793495 21.823545 -0.000001 0.026177 -0.999657 0.826350 0.318992 1 0 1.000000
  0 -35.874031 56.793499 21.823545 0.688955 0.040928 -0.723648 0.839874 0.319378 1 0 1.000000
  0 -37.679821 -2.901993 20.260366 -0.000001 0.026177 -0.999657 0.826350 0.541868 1 0 1.000000
barracuda
  0 -37.679821 -2.901993 20.260366 -0.000001 0.026177 -0.999657 0.826350 0.541868 1 0 1.000000
  0 -35.874031 56.793499 21.823545 0.688955 0.040928 -0.723648 0.839874 0.319378 1 0 1.000000
  0 -34.053692 -2.901993 20.260366 0.688934 0.040924 -0.723668 0.839874 0.542307 1 0 1.000000
barracuda
  0 -40.199375 53.452602 42.801716 -0.976210 -0.021052 0.215801 0.300035 0.543163 1 0 1.000000
  0 -40.141113 49.182674 42.654747 -0.976258 -0.020970 0.215592 0.322475 0.543086 1 0 1.000000
  0 -39.874321 53.399334 44.272961 -0.976209 -0.021055 0.215807 0.299739 0.551124 1 0 1.000000
barracuda
  0 -39.874321 53.399334 44.272961 -0.976209 -0.021055 0.215807 0.299739 0.551124 1 0 1.000000
  0 -40.141113 49.182674 42.654747 -0.976258 -0.020970 0.215592 0.322475 0.543086 1 0 1.000000
  0 -39.817181 49.116089 44.109104 -0.976257 -0.020973 0.215598 0.322979 0.550947 1 0 1.000000
barracuda
  0 -36.471241 2.750561 47.416973 -0.711388 -0.091022 -0.696881 0.373045 0.535812 1 0 1.000000
  0 -36.922417 2.733738 47.948765 -0.711405 -0.091020 -0.696863 0.369163 0.533953 1 0 1.000000
  0 -36.821999 4.931843 47.559139 -0.711393 -0.091025 -0.696875 0.377326 0.522839 1 0 1.000000
barracuda
  0 -36.821999 4.931843 47.559139 -0.711393 -0.091025 -0.696875 0.377326 0.522839 1 0 1.000000
  0 -36.922417 2.733738 47.948765 -0.711405 -0.091020 -0.696863 0.369163 0.533953 1 0 1.000000
  0 -37.087852 4.926525 47.762218 -0.711405 -0.091034 -0.696861 0.375490 0.521894 1 0 1.000000
barracuda
  0 -35.450134 2.998047 47.370914 0.230762 -0.961650 0.148252 0.374863 0.542042 1 0 1.000000
  0 -36.226433 2.969612 48.456818 0.231020 -0.961599 0.148178 0.367170 0.539093 1 0 1.000000
  0 -36.471241 2.750561 47.416973 0.231134 -0.961577 0.148147 0.373045 0.535812 1 0 1.000000
barracuda
  0 -36.471241 2.750561 47.416973 0.231134 -0.961577 0.148147 0.373045 0.535812 1 0 1.000000
  0 -36.226433 2.969612 48.456818 0.231020 -0.961599 0.148178 0.367170 0.539093 1 0 1.000000
  0 -36.922417 2.733738 47.948765 0.230856 -0.961632 0.148221 0.369163 0.533953 1 0 1.000000
barracuda
  0 -35.450134 2.998047 47.370914 0.873279 -0.088115 0.479186 0.374863 0.542042 1 0 1.000000
  0 -35.636261 4.927074 47.741249 0.873275 -0.088114 0.479194 0.368459 0.552397 1 0 1.000000
  0 -36.226433 2.969612 48.456818 0.873261 -0.088105 0.479220 0.367170 0.539093 1 0 1.000000
barracuda
  0 -36.226433 2.969612 48.456818 0.873261 -0.088105 0.479220 0.367170 0.539093 1 0 1.000000
  0 -35.636261 4.927074 47.741249 0.873275 -0.088114 0.479194 0.368459 0.552397 1 0 1.000000
  0 -35.892750 4.906462 48.528442 0.873285 -0.088120 0.479175 0.363637 0.550704 1 0 1.000000
barracuda
  0 -35.636261 4.927074 47.741249 0.000000 0.999657 0.026176 0.368459 0.552397 1 0 1.000000
  0 -36.821999 4.931843 47.559139 0.000000 0.999657 0.026178 0.364908 0.558893 1 0 1.000000
  0 -35.892750 4.906462 48.528442 0.911419 0.246322 -0.329608 0.363637 0.550704 1 0 1.000000
barracuda
  0 -35.892750 4.906462 48.528442 0.911419 0.246322 -0.329608 0.363637 0.550704 1 0 1.000000
  0 -36.821999 4.931843 47.559139 0.000000 0.999657 0.026178 0.364908 0.558893 1 0 1.000000
  0 -37.087852 4.926525 47.762218 0.197545 0.296607 -0.934345 0.362916 0.559434 1 0 1.000000
barracuda
  0 -42.071487 6.056379 48.667458 0.000000 0.999657 0.026177 0.201421 0.519718 1 0 1.000000
  0 -41.913055 5.991543 51.143436 0.000000 0.999657 0.026177 0.216926 0.520710 1 0 1.000000
  0 -40.219570 6.081533 47.706863 0.000000 0.999657 0.026177 0.195405 0.531310 1 0 1.000000
barracuda
  0 -41.913055 5.991543 51.143436 0.000000 0.999657 0.026177 0.216926 0.520710 1 0 1.000000
  0 -39.637699 5.959484 52.367752 -0.000001 0.999657 0.026177 0.224593 0.534953 1 0 1.000000
  0 -40.219570 6.081533 47.706863 0.000000 0.999657 0.026177 0.195405 0.531310 1 0 1.000000
barracuda
  0 -40.219570 6.081533 47.706863 0.000000 0.999657 0.026177 0.195405 0.531310 1 0 1.000000
  0 -39.637699 5.959484 52.367752 -0.000001 0.999657 0.026177 0.224593 0.534953 1 0 1.000000
  0 -36.934204 6.079294 47.792408 0.000000 0.999657 0.026177 0.195941 0.551878 1 0 1.000000
barracuda
  0 -39.637699 5.959484 52.367752 -0.000001 0.999657 0.026177 0.224593 0.534953 1 0 1.000000
  0 -36.941540 5.959091 52.382877 0.000000 0.999657 0.026176 0.224687 0.551832 1 0 1.000000
  0 -36.934204 6.079294 47.792408 0.000000 0.999657 0.026177 0.195941 0.551878 1 0 1.000000
barracuda
  0 -36.941540 5.959091 52.382877 0.000000 0.999657 0.026176 0.224687 0.551832 1 0 1.000000
  0 -35.647472 5.992651 51.101166 0.000002 0.999657 0.026177 0.216661 0.559932 1 0 1.000000
  0 -36.934204 6.079294 47.792408 0.000000 0.999657 0.026177 0.195941 0.551878 1 0 1.000000
barracuda
  0 -35.647472 5.992651 51.101166 0.000002 0.999657 0.026177 0.216661 0.559932 1 0 1.000000
  0 -35.784248 6.059231 48.558628 0.000000 0.999657 0.026177 0.200740 0.559077 1 0 1.000000
  0 -36.934204 6.079294 47.792408 0.000000 0.999657 0.026177 0.195941 0.551878 1 0 1.000000
barracuda
  0 -32.574081 21.227888 41.595848 -0.258816 0.025284 -0.965596 0.235636 0.246395 1 0 1.000000
  0 -32.574081 16.650909 41.475998 -0.258827 0.025285 -0.965593 0.235005 0.268292 1 0 1.000000
  0 -33.013927 21.224804 41.713665 -0.258816 0.025284 -0.965596 0.238010 0.246526 1 0 1.000000
barracuda
  0 -33.013927 21.224804 41.713665 -0.258816 0.025284 -0.965596 0.238010 0.246526 1 0 1.000000
  0 -32.574081 16.650909 41.475998 -0.258827 0.025285 -0.965593 0.235005 0.268292 1 0 1.000000
  0 -33.013927 15.042847 41.551788 -0.258827 0.025285 -0.965593 0.235538 0.276035 1 0 1.000000
barracuda
  0 -33.013927 15.042847 41.551788 0.929271 -0.266249 -0.256062 0.235538 0.276035 1 0 1.000000
  0 -32.574081 16.650909 41.475998 0.929272 -0.266248 -0.256059 0.235005 0.268292 1 0 1.000000
  0 -32.705914 15.012756 42.700893 0.929271 -0.266248 -0.256060 0.229002 0.276024 1 0 1.000000
barracuda
  0 -32.705914 15.012756 42.700893 0.929271 -0.266248 -0.256060 0.229002 0.276024 1 0 1.000000
  0 -32.574081 16.650909 41.475998 0.929272 -0.266248 -0.256059 0.235005 0.268292 1 0 1.000000
  0 -32.266068 16.620819 42.625103 0.929273 -0.266246 -0.256057 0.230200 0.268301 1 0 1.000000
barracuda
  0 -32.705914 15.012756 42.700893 0.258816 -0.025285 0.965596 0.229002 0.276024 1 0 1.000000
  0 -32.266068 16.620819 42.625103 0.258816 -0.025285 0.965596 0.230200 0.268301 1 0 1.000000
  0 -32.705914 21.194712 42.862770 0.258831 -0.025284 0.965592 0.227576 0.246459 1 0 1.000000
barracuda
  0 -32.705914 21.194712 42.862770 0.258831 -0.025284 0.965592 0.227576 0.246459 1 0 1.000000
  0 -32.266068 16.620819 42.625103 0.258816 -0.025285 0.965596 0.230200 0.268301 1 0 1.000000
  0 -32.266071 21.197800 42.744953 0.258832 -0.025284 0.965591 0.229855 0.246391 1 0 1.000000
barracuda
  0 -32.705914 21.194712 42.862770 -0.000005 0.999657 0.026175 0.229899 0.244211 1 0 1.000000
  0 -32.266071 21.197800 42.744953 -0.000003 0.999657 0.026176 0.229855 0.246391 1 0 1.000000
  0 -33.013927 21.224804 41.713665 0.000000 0.999657 0.026178 0.235596 0.244215 1 0 1.000000
barracuda
  0 -33.013927 21.224804 41.713665 0.000000 0.999657 0.026178 0.235596 0.244215 1 0 1.000000
  0 -32.266071 21.197800 42.744953 -0.000003 0.999657 0.026176 0.229855 0.246391 1 0 1.000000
  0 -32.574081 21.227888 41.595848 0.000002 0.999657 0.026179 0.235636 0.246395 1 0 1.000000
barracuda
  0 -32.574081 21.227888 41.595848 0.965926 0.006775 -0.258731 0.235636 0.246395 1 0 1.000000
  0 -32.266071 21.197800 42.744953 0.965925 0.006775 -0.258732 0.229855 0.246391 1 0 1.000000
  0 -32.574081 16.650909 41.475998 0.965925 0.006776 -0.258734 0.235005 0.268292 1 0 1.000000
barracuda
  0 -32.574081 16.650909 41.475998 0.965925 0.006776 -0.258734 0.235005 0.268292 1 0 1.000000
  0 -32.266071 21.197800 42.744953 0.965925 0.006775 -0.258732 0.229855 0.246391 1 0 1.000000
  0 -32.266068 16.620819 42.625103 0.965925 0.006776 -0.258734 0.230200 0.268301 1 0 1.000000
barracuda
  0 -32.705914 21.194712 42.862770 -0.965925 -0.006776 0.258735 0.227576 0.246459 1 0 1.000000
  0 -33.013927 21.224804 41.713665 -0.965925 -0.006776 0.258735 0.222080 0.246722 1 0 1.000000
  0 -32.705914 15.012756 42.700893 -0.965924 -0.006775 0.258737 0.229002 0.276024 1 0 1.000000
barracuda
  0 -32.705914 15.012756 42.700893 -0.965924 -0.006775 0.258737 0.229002 0.276024 1 0 1.000000
  0 -33.013927 21.224804 41.713665 -0.965925 -0.006776 0.258735 0.222080 0.246722 1 0 1.000000
  0 -33.013927 15.042847 41.551788 -0.965924 -0.006775 0.258737 0.223506 0.276291 1 0 1.000000
barracuda
  0 -34.388817 52.931660 45.282948 0.258824 -0.025285 0.965594 0.200983 0.246394 1 0 1.000000
  0 -34.388813 47.639278 45.144360 0.258824 -0.025285 0.965594 0.200983 0.271738 1 0 1.000000
  0 -33.528790 52.937691 45.052582 0.258824 -0.025285 0.965594 0.205100 0.246394 1 0 1.000000
barracuda
  0 -33.528790 52.937691 45.052582 0.258824 -0.025285 0.965594 0.205100 0.246394 1 0 1.000000
  0 -34.388813 47.639278 45.144360 0.258824 -0.025285 0.965594 0.200983 0.271738 1 0 1.000000
  0 -33.528786 47.645309 44.913994 0.258815 -0.025285 0.965596 0.205100 0.271738 1 0 1.000000
barracuda
  0 -34.388813 47.639278 45.144360 -0.000002 -0.999657 -0.026182 0.205005 0.276000 1 0 1.000000
  0 -34.991062 47.698112 42.897511 -0.000002 -0.999657 -0.026182 0.216144 0.276000 1 0 1.000000
  0 -33.528786 47.645309 44.913994 -0.000002 -0.999657 -0.026182 0.205100 0.271738 1 0 1.000000
barracuda
  0 -33.528786 47.645309 44.913994 -0.000002 -0.999657 -0.026182 0.205100 0.271738 1 0 1.000000
  0 -34.991062 47.698112 42.897511 -0.000002 -0.999657 -0.026182 0.216144 0.276000 1 0 1.000000
  0 -34.131031 47.704147 42.667141 0.000001 -0.999657 -0.026175 0.216049 0.271738 1 0 1.000000
barracuda
  0 -34.991062 47.698112 42.897511 -0.258817 0.025285 -0.965595 0.220166 0.271738 1 0 1.000000
  0 -34.991066 52.990494 43.036098 -0.258817 0.025285 -0.965595 0.220166 0.246394 1 0 1.000000
  0 -34.131031 47.704147 42.667141 -0.258817 0.025285 -0.965595 0.216049 0.271738 1 0 1.000000
barracuda
  0 -34.131031 47.704147 42.667141 -0.258817 0.025285 -0.965595 0.216049 0.271738 1 0 1.000000
  0 -34.991066 52.990494 43.036098 -0.258817 0.025285 -0.965595 0.220166 0.246394 1 0 1.000000
  0 -34.131035 52.996529 42.805729 -0.258823 0.025285 -0.965594 0.216049 0.246394 1 0 1.000000
barracuda
  0 -34.991066 52.990494 43.036098 -0.000002 0.999657 0.026176 0.216144 0.242132 1 0 1.000000
  0 -34.388817 52.931660 45.282948 -0.000002 0.999657 0.026176 0.205005 0.242132 1 0 1.000000
  0 -34.131035 52.996529 42.805729 -0.000002 0.999657 0.026176 0.216049 0.246394 1 0 1.000000
barracuda
  0 -34.131035 52.996529 42.805729 -0.000002 0.999657 0.026176 0.216049 0.246394 1 0 1.000000
  0 -34.388817 52.931660 45.282948 -0.000002 0.999657 0.026176 0.205005 0.242132 1 0 1.000000
  0 -33.528790 52.937691 45.052582 -0.000002 0.999657 0.026179 0.205100 0.246394 1 0 1.000000
barracuda
  0 -33.528790 52.937691 45.052582 0.965926 0.006775 -0.258730 0.205100 0.246394 1 0 1.000000
  0 -33.528786 47.645309 44.913994 0.965926 0.006776 -0.258728 0.205100 0.271738 1 0 1.000000
  0 -34.131035 52.996529 42.805729 0.965926 0.006776 -0.258729 0.216049 0.246394 1 0 1.000000
barracuda
  0 -34.131035 52.996529 42.805729 0.965926 0.006776 -0.258729 0.216049 0.246394 1 0 1.000000
  0 -33.528786 47.645309 44.913994 0.965926 0.006776 -0.258728 0.205100 0.271738 1 0 1.000000
  0 -34.131031 47.704147 42.667141 0.965927 0.006776 -0.258728 0.216049 0.271738 1 0 1.000000
barracuda
  0 -40.759518 53.750916 42.506107 -0.499362 -0.862827 0.078534 0.298250 0.539978 1 0 1.000000
  0 -40.199375 53.452602 42.801716 -0.499441 -0.862783 0.078510 0.300035 0.543163 1 0 1.000000
  0 -40.434456 53.695660 43.977295 -0.499587 -0.862703 0.078464 0.296550 0.548509 1 0 1.000000
barracuda
  0 -40.434456 53.695660 43.977295 -0.499587 -0.862703 0.078464 0.296550 0.548509 1 0 1.000000
  0 -40.199375 53.452602 42.801716 -0.499441 -0.862783 0.078510 0.300035 0.543163 1 0 1.000000
  0 -39.874321 53.399334 44.272961 -0.499423 -0.862793 0.078515 0.299739 0.551124 1 0 1.000000
barracuda
  0 -40.759518 53.750916 42.506107 -0.476132 -0.035873 0.878642 0.298250 0.539978 1 0 1.000000
  0 -40.701248 48.904091 42.344032 -0.476220 -0.035860 0.878595 0.324171 0.539866 1 0 1.000000
  0 -40.199375 53.452602 42.801716 -0.476127 -0.035874 0.878644 0.300035 0.543163 1 0 1.000000
barracuda
  0 -40.199375 53.452602 42.801716 -0.476127 -0.035874 0.878644 0.300035 0.543163 1 0 1.000000
  0 -40.701248 48.904091 42.344032 -0.476220 -0.035860 0.878595 0.324171 0.539866 1 0 1.000000
  0 -40.141113 49.182674 42.654747 -0.476201 -0.035864 0.878605 0.322475 0.543086 1 0 1.000000
barracuda
  0 -40.701248 48.904091 42.344032 -0.509152 0.846911 0.153313 0.324171 0.539866 1 0 1.000000
  0 -40.377316 48.833652 43.798283 -0.509206 0.846882 0.153299 0.326141 0.548270 1 0 1.000000
  0 -40.141113 49.182674 42.654747 -0.509180 0.846896 0.153304 0.322475 0.543086 1 0 1.000000
barracuda
  0 -40.141113 49.182674 42.654747 -0.509180 0.846896 0.153304 0.322475 0.543086 1 0 1.000000
  0 -40.377316 48.833652 43.798283 -0.509206 0.846882 0.153299 0.326141 0.548270 1 0 1.000000
  0 -39.817181 49.116089 44.109104 -0.509192 0.846889 0.153305 0.322979 0.550947 1 0 1.000000
barracuda
  0 -39.817181 49.116089 44.109104 0.476117 0.038883 -0.878522 0.322979 0.550947 1 0 1.000000
  0 -40.377316 48.833652 43.798283 0.476096 0.038887 -0.878533 0.324605 0.554404 1 0 1.000000
  0 -39.874321 53.399334 44.272961 0.476092 0.038886 -0.878535 0.299739 0.551124 1 0 1.000000
barracuda
  0 -39.874321 53.399334 44.272961 0.476092 0.038886 -0.878535 0.299739 0.551124 1 0 1.000000
  0 -40.377316 48.833652 43.798283 0.476096 0.038887 -0.878533 0.324605 0.554404 1 0 1.000000
  0 -40.434456 53.695660 43.977295 0.476093 0.038886 -0.878535 0.298135 0.554587 1 0 1.000000
barracuda
  0 -40.076653 53.634842 45.596497 -0.798512 -0.027162 0.601366 0.298107 0.566679 1 0 1.000000
  0 -40.994850 53.583820 44.397659 -0.798503 -0.027157 0.601379 0.298608 0.558418 1 0 1.000000
  0 -39.997437 48.751053 45.503765 -0.798514 -0.027164 0.601362 0.324860 0.567255 1 0 1.000000
barracuda
  0 -39.997437 48.751053 45.503765 -0.798514 -0.027164 0.601362 0.324860 0.567255 1 0 1.000000
  0 -40.994850 53.583820 44.397659 -0.798503 -0.027157 0.601379 0.298608 0.558418 1 0 1.000000
  0 -40.944073 48.803898 44.226555 -0.798530 -0.027172 0.601342 0.324714 0.558277 1 0 1.000000
barracuda
  0 -39.113525 56.001701 50.484585 -0.973853 -0.037757 0.224019 0.721602 0.319197 1 0 1.000000
  0 -40.076653 53.634842 45.596497 -0.974757 -0.031453 0.221041 0.737366 0.328478 1 0 1.000000
  0 -39.116959 45.484467 47.822395 -0.970153 -0.033146 0.240217 0.726833 0.358672 1 0 1.000000
barracuda
  0 -39.116959 45.484467 47.822395 -0.970153 -0.033146 0.240217 0.726833 0.358672 1 0 1.000000
  0 -40.076653 53.634842 45.596497 -0.974757 -0.031453 0.221041 0.737366 0.328478 1 0 1.000000
  0 -39.997437 48.751053 45.503765 -0.970156 -0.033151 0.240205 0.737235 0.346704 1 0 1.000000
barracuda
  0 -39.098293 8.141081 46.508305 -0.970979 -0.018248 0.238468 0.730154 0.498044 1 0 1.000000
  0 -39.116959 45.484467 47.822395 -0.970153 -0.033146 0.240217 0.726833 0.358672 1 0 1.000000
  0 -39.997437 48.751053 45.503765 -0.970156 -0.033151 0.240205 0.737235 0.346704 1 0 1.000000
barracuda
  0 -40.377316 48.833652 43.798283 -0.972977 -0.017648 0.230227 0.743605 0.346563 1 0 1.000000
  0 -39.098293 8.141081 46.508305 -0.970979 -0.018248 0.238468 0.730154 0.498044 1 0 1.000000
  0 -39.997437 48.751053 45.503765 -0.970156 -0.033151 0.240205 0.737235 0.346704 1 0 1.000000
barracuda
  0 -38.761868 -4.290359 46.189209 -0.970973 -0.018244 0.238491 0.730422 0.544453 1 0 1.000000
  0 -39.098293 8.141081 46.508305 -0.970979 -0.018248 0.238468 0.730154 0.498044 1 0 1.000000
  0 -40.377316 48.833652 43.798283 -0.972977 -0.017648 0.230227 0.743605 0.346563 1 0 1.000000
barracuda
  0 -40.596466 -6.602516 38.565914 -0.972987 -0.017645 0.230186 0.757710 0.553858 1 0 1.000000
  0 -38.761868 -4.290359 46.189209 -0.970973 -0.018244 0.238491 0.730422 0.544453 1 0 1.000000
  0 -40.377316 48.833652 43.798283 -0.972977 -0.017648 0.230227 0.743605 0.346563 1 0 1.000000
barracuda
  0 -40.596466 -6.602516 38.565914 -0.972987 -0.017645 0.230186 0.757710 0.553858 1 0 1.000000
  0 -40.377316 48.833652 43.798283 -0.972977 -0.017648 0.230227 0.743605 0.346563 1 0 1.000000
  0 -40.701248 48.904091 42.344032 -0.974903 -0.017049 0.221978 0.749036 0.346442 1 0 1.000000
barracuda
  0 -40.759518 53.750916 42.506107 -0.975748 -0.018078 0.218151 0.748905 0.328347 1 0 1.000000
  0 -40.596466 -6.602516 38.565914 -0.972987 -0.017645 0.230186 0.757710 0.553858 1 0 1.000000
  0 -40.701248 48.904091 42.344032 -0.974903 -0.017049 0.221978 0.749036 0.346442 1 0 1.000000
barracuda
  0 -41.167561 58.582912 41.076347 -0.976489 -0.020479 0.214592 0.754697 0.310462 1 0 1.000000
  0 -40.596466 -6.602516 38.565914 -0.972987 -0.017645 0.230186 0.757710 0.553858 1 0 1.000000
  0 -40.759518 53.750916 42.506107 -0.975748 -0.018078 0.218151 0.748905 0.328347 1 0 1.000000
barracuda
  0 -41.167561 58.582912 41.076347 -0.976489 -0.020479 0.214592 0.754697 0.310462 1 0 1.000000
  0 -40.759518 53.750916 42.506107 -0.975748 -0.018078 0.218151 0.748905 0.328347 1 0 1.000000
  0 -40.434456 53.695660 43.977295 -0.976422 -0.018819 0.215050 0.743412 0.328409 1 0 1.000000
barracuda
  0 -41.167561 58.582912 41.076347 -0.976489 -0.020479 0.214592 0.754697 0.310462 1 0 1.000000
  0 -40.434456 53.695660 43.977295 -0.976422 -0.018819 0.215050 0.743412 0.328409 1 0 1.000000
  0 -40.076653 53.634842 45.596497 -0.974757 -0.031453 0.221041 0.737366 0.328478 1 0 1.000000
barracuda
  0 -41.167561 58.582912 41.076347 -0.976489 -0.020479 0.214592 0.754697 0.310462 1 0 1.000000
  0 -40.076653 53.634842 45.596497 -0.974757 -0.031453 0.221041 0.737366 0.328478 1 0 1.000000
  0 -39.113525 56.001701 50.484585 -0.973853 -0.037757 0.224019 0.721602 0.319197 1 0 1.000000
barracuda
  0 -33.140396 17.964729 41.207985 0.965925 0.006800 -0.258733 0.261270 0.536277 1 0 1.000000
  0 -32.873970 18.273052 42.210709 0.965926 0.006779 -0.258730 0.255971 0.540169 1 0 1.000000
  0 -33.305050 17.105463 40.570755 0.965926 0.006776 -0.258730 0.267949 0.536277 1 0 1.000000
barracuda
  0 -32.873970 18.273052 42.210709 0.965926 0.006779 -0.258730 0.255971 0.540169 1 0 1.000000
  0 -32.607548 17.912672 43.195919 0.965926 0.006771 -0.258730 0.254110 0.546467 1 0 1.000000
  0 -33.305050 17.105463 40.570755 0.965926 0.006776 -0.258730 0.267949 0.536277 1 0 1.000000
barracuda
  0 -32.607548 17.912672 43.195919 0.965926 0.006771 -0.258730 0.254110 0.546467 1 0 1.000000
  0 -32.442886 17.021236 43.787300 0.965926 0.006774 -0.258730 0.256387 0.552764 1 0 1.000000
  0 -33.305050 17.105463 40.570755 0.965926 0.006776 -0.258730 0.267949 0.536277 1 0 1.000000
barracuda
  0 -32.442886 17.021236 43.787300 0.965926 0.006774 -0.258730 0.256387 0.552764 1 0 1.000000
  0 -32.442886 15.939253 43.758968 0.965926 0.006776 -0.258731 0.261934 0.556657 1 0 1.000000
  0 -33.305050 17.105463 40.570755 0.965926 0.006776 -0.258730 0.267949 0.536277 1 0 1.000000
barracuda
  0 -32.442886 15.939253 43.758968 0.965926 0.006776 -0.258731 0.261934 0.556657 1 0 1.000000
  0 -32.607548 15.079990 43.121742 0.965926 0.006775 -0.258731 0.268630 0.556657 1 0 1.000000
  0 -33.305050 17.105463 40.570755 0.965926 0.006776 -0.258730 0.267949 0.536277 1 0 1.000000
barracuda
  0 -32.607548 15.079990 43.121742 0.965926 0.006775 -0.258731 0.268630 0.556657 1 0 1.000000
  0 -32.873970 14.771667 42.119022 0.965925 0.006771 -0.258732 0.273919 0.552765 1 0 1.000000
  0 -33.305050 17.105463 40.570755 0.965926 0.006776 -0.258730 0.267949 0.536277 1 0 1.000000
barracuda
  0 -32.873970 14.771667 42.119022 0.965925 0.006771 -0.258732 0.273919 0.552765 1 0 1.000000
  0 -33.140396 15.132046 41.133812 0.965925 0.006767 -0.258734 0.275781 0.546467 1 0 1.000000
  0 -33.305050 17.105463 40.570755 0.965926 0.006776 -0.258730 0.267949 0.536277 1 0 1.000000
barracuda
  0 -33.140396 15.132046 41.133812 0.965925 0.006767 -0.258734 0.275781 0.546467 1 0 1.000000
  0 -33.305050 16.023479 40.542423 0.965929 0.006775 -0.258720 0.273504 0.540169 1 0 1.000000
  0 -33.305050 17.105463 40.570755 0.965926 0.006776 -0.258730 0.267949 0.536277 1 0 1.000000
barracuda
  0 -33.554962 15.073345 43.375515 0.152130 -0.823602 0.546384 0.294580 0.530241 1 0 1.000000
  0 -32.873970 14.771667 42.119022 0.000002 -0.999657 -0.026175 0.287920 0.536277 1 0 1.000000
  0 -32.607548 15.079990 43.121742 0.152131 -0.823602 0.546385 0.294580 0.536277 1 0 1.000000
barracuda
  0 -33.821388 14.765022 42.372791 0.000002 -0.999657 -0.026177 0.287920 0.530241 1 0 1.000000
  0 -32.873970 14.771667 42.119022 0.000002 -0.999657 -0.026175 0.287920 0.536277 1 0 1.000000
  0 -33.554962 15.073345 43.375515 0.152130 -0.823602 0.546384 0.294580 0.530241 1 0 1.000000
barracuda
  0 -33.821388 14.765022 42.372791 0.000002 -0.999657 -0.026177 0.287920 0.530241 1 0 1.000000
  0 -33.140396 15.132046 41.133812 -0.152128 -0.793878 -0.588740 0.281260 0.536277 1 0 1.000000
  0 -32.873970 14.771667 42.119022 0.000002 -0.999657 -0.026175 0.287920 0.536277 1 0 1.000000
barracuda
  0 -34.087814 15.125401 41.387581 -0.152129 -0.793878 -0.588740 0.281260 0.530241 1 0 1.000000
  0 -33.140396 15.132046 41.133812 -0.152128 -0.793878 -0.588740 0.281260 0.536277 1 0 1.000000
  0 -33.821388 14.765022 42.372791 0.000002 -0.999657 -0.026177 0.287920 0.530241 1 0 1.000000
barracuda
  0 -34.087814 15.125401 41.387581 -0.152129 -0.793878 -0.588740 0.281260 0.530241 1 0 1.000000
  0 -33.305050 16.023479 40.542423 -0.246151 -0.284863 -0.926425 0.274600 0.536277 1 0 1.000000
  0 -33.140396 15.132046 41.133812 -0.152128 -0.793878 -0.588740 0.281260 0.536277 1 0 1.000000
barracuda
  0 -34.252476 16.016836 40.796200 -0.246152 -0.284864 -0.926424 0.274600 0.530241 1 0 1.000000
  0 -33.305050 16.023479 40.542423 -0.246151 -0.284863 -0.926425 0.274600 0.536277 1 0 1.000000
  0 -34.087814 15.125401 41.387581 -0.152129 -0.793878 -0.588740 0.281260 0.530241 1 0 1.000000
barracuda
  0 -34.252476 16.016836 40.796200 -0.246152 -0.284864 -0.926424 0.274600 0.530241 1 0 1.000000
  0 -33.305050 17.105463 40.570755 -0.246152 0.332956 -0.910247 0.267949 0.536277 1 0 1.000000
  0 -33.305050 16.023479 40.542423 -0.246151 -0.284863 -0.926425 0.274600 0.536277 1 0 1.000000
barracuda
  0 -34.252476 17.098820 40.824532 -0.246155 0.332956 -0.910246 0.267940 0.530241 1 0 1.000000
  0 -33.305050 17.105463 40.570755 -0.246152 0.332956 -0.910247 0.267949 0.536277 1 0 1.000000
  0 -34.252476 16.016836 40.796200 -0.246152 -0.284864 -0.926424 0.274600 0.530241 1 0 1.000000
barracuda
  0 -34.252476 17.098820 40.824532 -0.246155 0.332956 -0.910246 0.267940 0.530241 1 0 1.000000
  0 -33.140396 17.964729 41.207985 -0.152131 0.823601 -0.546386 0.261270 0.536277 1 0 1.000000
  0 -33.305050 17.105463 40.570755 -0.246152 0.332956 -0.910247 0.267949 0.536277 1 0 1.000000
barracuda
  0 -34.087814 17.958084 41.461758 -0.152133 0.823600 -0.546387 0.261279 0.530241 1 0 1.000000
  0 -33.140396 17.964729 41.207985 -0.152131 0.823601 -0.546386 0.261270 0.536277 1 0 1.000000
  0 -34.252476 17.098820 40.824532 -0.246155 0.332956 -0.910246 0.267940 0.530241 1 0 1.000000
barracuda
  0 -34.087814 17.958084 41.461758 -0.152133 0.823600 -0.546387 0.261279 0.530241 1 0 1.000000
  0 -32.873970 18.273052 42.210709 0.000000 0.999657 0.026179 0.254620 0.536277 1 0 1.000000
  0 -33.140396 17.964729 41.207985 -0.152131 0.823601 -0.546386 0.261270 0.536277 1 0 1.000000
barracuda
  0 -33.821388 18.266407 42.464478 0.000001 0.999657 0.026177 0.254619 0.530241 1 0 1.000000
  0 -32.873970 18.273052 42.210709 0.000000 0.999657 0.026179 0.254620 0.536277 1 0 1.000000
  0 -34.087814 17.958084 41.461758 -0.152133 0.823600 -0.546387 0.261279 0.530241 1 0 1.000000
barracuda
  0 -33.821388 18.266407 42.464478 0.000001 0.999657 0.026177 0.254619 0.530241 1 0 1.000000
  0 -32.607548 17.912672 43.195919 0.152131 0.793877 0.588740 0.247959 0.536276 1 0 1.000000
  0 -32.873970 18.273052 42.210709 0.000000 0.999657 0.026179 0.254620 0.536277 1 0 1.000000
barracuda
  0 -33.554962 17.906027 43.449688 0.152131 0.793878 0.588740 0.247959 0.530241 1 0 1.000000
  0 -32.607548 17.912672 43.195919 0.152131 0.793877 0.588740 0.247959 0.536276 1 0 1.000000
  0 -33.821388 18.266407 42.464478 0.000001 0.999657 0.026177 0.254619 0.530241 1 0 1.000000
barracuda
  0 -33.554962 17.906027 43.449688 0.152131 0.793878 0.588740 0.247959 0.530241 1 0 1.000000
  0 -32.442886 17.021236 43.787300 0.246155 0.284864 0.926423 0.241299 0.536276 1 0 1.000000
  0 -32.607548 17.912672 43.195919 0.152131 0.793877 0.588740 0.247959 0.536276 1 0 1.000000
barracuda
  0 -33.390305 17.014591 44.041077 0.246153 0.284866 0.926423 0.241299 0.530241 1 0 1.000000
  0 -32.442886 17.021236 43.787300 0.246155 0.284864 0.926423 0.241299 0.536276 1 0 1.000000
  0 -33.554962 17.906027 43.449688 0.152131 0.793878 0.588740 0.247959 0.530241 1 0 1.000000
barracuda
  0 -33.390305 17.014591 44.041077 0.246153 0.284866 0.926423 0.241299 0.530241 1 0 1.000000
  0 -32.442886 15.939253 43.758968 0.246156 -0.332957 0.910245 0.234639 0.536277 1 0 1.000000
  0 -32.442886 17.021236 43.787300 0.246155 0.284864 0.926423 0.241299 0.536276 1 0 1.000000
barracuda
  0 -33.390305 15.932608 44.012745 0.246153 -0.332957 0.910246 0.234639 0.530241 1 0 1.000000
  0 -32.442886 15.939253 43.758968 0.246156 -0.332957 0.910245 0.234639 0.536277 1 0 1.000000
  0 -33.390305 17.014591 44.041077 0.246153 0.284866 0.926423 0.241299 0.530241 1 0 1.000000
barracuda
  0 -33.390305 15.932608 44.012745 0.246153 -0.332957 0.910246 0.234639 0.530241 1 0 1.000000
  0 -32.607548 15.079990 43.121742 0.152131 -0.823602 0.546385 0.227978 0.536276 1 0 1.000000
  0 -32.442886 15.939253 43.758968 0.246156 -0.332957 0.910245 0.234639 0.536277 1 0 1.000000
barracuda
  0 -33.554962 15.073345 43.375515 0.152130 -0.823602 0.546384 0.227978 0.530241 1 0 1.000000
  0 -32.607548 15.079990 43.121742 0.152131 -0.823602 0.546385 0.227978 0.536276 1 0 1.000000
  0 -33.390305 15.932608 44.012745 0.246153 -0.332957 0.910246 0.234639 0.530241 1 0 1.000000
barracuda
  0 -35.324097 58.582916 41.076347 -0.005224 0.991289 0.131604 0.753937 0.288671 1 0 1.000000
  0 -39.113525 56.001701 50.484585 -0.010405 0.965373 0.260666 0.719097 0.304013 1 0 1.000000
  0 -33.757427 56.120857 50.487705 -0.010388 0.965371 0.260673 0.718413 0.284039 1 0 1.000000
barracuda
  0 -41.167561 58.582912 41.076347 -0.005230 0.991281 0.131663 0.754697 0.310462 1 0 1.000000
  0 -39.113525 56.001701 50.484585 -0.010405 0.965373 0.260666 0.719097 0.304013 1 0 1.000000
  0 -35.324097 58.582916 41.076347 -0.005224 0.991289 0.131604 0.753937 0.288671 1 0 1.000000
barracuda
  0 -35.634991 58.585754 31.691729 0.000000 0.995861 -0.090886 0.788962 0.288632 1 0 1.000000
  0 -41.167561 58.582912 41.076347 -0.005230 0.991281 0.131663 0.754697 0.310462 1 0 1.000000
  0 -35.324097 58.582916 41.076347 -0.005224 0.991289 0.131604 0.753937 0.288671 1 0 1.000000
barracuda
  0 -41.732323 58.585754 31.691729 0.000000 0.995863 -0.090867 0.789728 0.311369 1 0 1.000000
  0 -41.167561 58.582912 41.076347 -0.005230 0.991281 0.131663 0.754697 0.310462 1 0 1.000000
  0 -35.634991 58.585754 31.691729 0.000000 0.995861 -0.090886 0.788962 0.288632 1 0 1.000000
barracuda
  0 -41.732323 58.585754 31.691729 0.000000 0.995863 -0.090867 0.789728 0.311369 1 0 1.000000
  0 -35.634991 58.585754 31.691729 0.000000 0.995861 -0.090886 0.788962 0.288632 1 0 1.000000
  0 -40.733883 57.299774 24.718891 0.000000 0.984329 -0.176340 0.815482 0.306759 1 0 1.000000
barracuda
  0 -40.733883 57.299774 24.718891 0.000000 0.984329 -0.176340 0.815482 0.306759 1 0 1.000000
  0 -35.634991 58.585754 31.691729 0.000000 0.995861 -0.090886 0.788962 0.288632 1 0 1.000000
  0 -35.832752 57.299774 24.718895 0.000000 0.984234 -0.176870 0.814856 0.288483 1 0 1.000000
barracuda
  0 -40.733883 57.299774 24.718891 0.000000 0.984329 -0.176340 0.815482 0.306759 1 0 1.000000
  0 -35.832752 57.299774 24.718895 0.000000 0.984234 -0.176870 0.814856 0.288483 1 0 1.000000
  0 -39.500164 56.793495 21.823545 0.000000 0.985054 -0.172247 0.826069 0.301791 1 0 1.000000
barracuda
  0 -39.500164 56.793495 21.823545 0.000000 0.985054 -0.172247 0.826069 0.301791 1 0 1.000000
  0 -35.832752 57.299774 24.718895 0.000000 0.984234 -0.176870 0.814856 0.288483 1 0 1.000000
  0 -35.874031 56.793499 21.823545 -0.000001 0.985054 -0.172246 0.825606 0.288269 1 0 1.000000
barracuda
  0 -32.896851 21.555628 42.723385 -0.965932 -0.006842 0.258704 0.242396 0.563100 1 0 1.000000
  0 -33.001957 21.697805 42.334690 -0.965926 -0.006781 0.258728 0.241661 0.560615 1 0 1.000000
  0 -32.831890 21.203934 42.956699 -0.965927 -0.006783 0.258725 0.241497 0.565584 1 0 1.000000
barracuda
  0 -33.001957 21.697805 42.334690 -0.965926 -0.006781 0.258728 0.241661 0.560615 1 0 1.000000
  0 -33.107071 21.576164 41.939095 -0.965927 -0.006777 0.258727 0.239571 0.559079 1 0 1.000000
  0 -32.831890 21.203934 42.956699 -0.965927 -0.006783 0.258725 0.241497 0.565584 1 0 1.000000
barracuda
  0 -33.107071 21.576164 41.939095 -0.965927 -0.006777 0.258727 0.239571 0.559079 1 0 1.000000
  0 -33.172035 21.237164 41.687691 -0.965926 -0.006775 0.258729 0.236936 0.559079 1 0 1.000000
  0 -32.831890 21.203934 42.956699 -0.965927 -0.006783 0.258725 0.241497 0.565584 1 0 1.000000
barracuda
  0 -33.172035 21.237164 41.687691 -0.965926 -0.006775 0.258729 0.236936 0.559079 1 0 1.000000
  0 -33.172035 20.810295 41.676514 -0.965926 -0.006773 0.258730 0.234744 0.560615 1 0 1.000000
  0 -32.831890 21.203934 42.956699 -0.965927 -0.006783 0.258725 0.241497 0.565584 1 0 1.000000
barracuda
  0 -33.172035 20.810295 41.676514 -0.965926 -0.006773 0.258730 0.234744 0.560615 1 0 1.000000
  0 -33.107071 20.458595 41.909832 -0.965926 -0.006778 0.258730 0.233846 0.563099 1 0 1.000000
  0 -32.831890 21.203934 42.956699 -0.965927 -0.006783 0.258725 0.241497 0.565584 1 0 1.000000
barracuda
  0 -33.107071 20.458595 41.909832 -0.965926 -0.006778 0.258730 0.233846 0.563099 1 0 1.000000
  0 -33.001957 20.316422 42.298515 -0.965926 -0.006779 0.258728 0.234580 0.565584 1 0 1.000000
  0 -32.831890 21.203934 42.956699 -0.965927 -0.006783 0.258725 0.241497 0.565584 1 0 1.000000
barracuda
  0 -33.001957 20.316422 42.298515 -0.965926 -0.006779 0.258728 0.234580 0.565584 1 0 1.000000
  0 -32.896851 20.438059 42.694122 -0.965930 -0.006758 0.258716 0.236667 0.567120 1 0 1.000000
  0 -32.831890 21.203934 42.956699 -0.965927 -0.006783 0.258725 0.241497 0.565584 1 0 1.000000
barracuda
  0 -32.896851 20.438059 42.694122 -0.965930 -0.006758 0.258716 0.236667 0.567120 1 0 1.000000
  0 -32.831890 20.777063 42.945522 -0.965925 -0.006782 0.258733 0.239309 0.567120 1 0 1.000000
  0 -32.831890 21.203934 42.956699 -0.965927 -0.006783 0.258725 0.241497 0.565584 1 0 1.000000
end
