// Created by Crowbar 0.74
version 1
nodes
  0 "Rig_Buggy.Frame" -1
  1 "Rig_Buggy.Shock_RR_Sleeve" 0
  2 "Rig_Buggy.Shock_FR_Sleeve" 0
  3 "Rig_Buggy.Axel_RR" 0
  4 "Rig_Buggy.Wheel_RR" 3
  5 "Rig_Buggy.Shock_RR_Piston" 3
  6 "Rig_Buggy.Steer_Arm" 0
  7 "Rig_Buggy.Shock_FL_Sleeve" 0
  8 "Rig_Buggy.Axel_RL" 0
  9 "Rig_Buggy.Wheel_RL" 8
  10 "Rig_Buggy.Shock_RL_Piston" 8
  11 "Rig_Buggy.Shock_RL_Sleeve" 0
  12 "Rig_Buggy.view" 0
  13 "Rig_Buggy.Gun_Base" 0
  14 "Rig_Buggy.Gun_Parent" 13
  15 "Rig_Buggy.Gun" 14
  16 "Rig_Buggy.Speedo" 0
  17 "Rig_Buggy.Wheel_FR_Turn_parent" 0
  18 "Rig_Buggy.Wheel_FR_Turn" 17
  19 "Rig_Buggy.Wheel_FR_Rotate" 18
  20 "Rig_Buggy.Axel_FR" 0
  21 "Rig_Buggy.Shock_FR_Piston" 20
  22 "Rig_Buggy.Wheel_FL_Turn_parent" 0
  23 "Rig_Buggy.Wheel_FL_Turn" 22
  24 "Rig_Buggy.Wheel_FL_Rotate" 23
  25 "Rig_Buggy.Axel_FL" 0
  26 "Rig_Buggy.Shock_FL_Piston" 25
  27 "Rig_Buggy.Steer_Wheel" 0
  28 "Rig_Buggy.lid" 0
  29 "Rig_Buggy.latch" 28
  30 "Rig_Buggy.gun_cylinders" 15
end
skeleton
  time 0
    0 0.000000 35.485321 34.046600 1.570796 0.000000 0.000000
    1 -26.737438 9.978985 -63.177883 0.007403 -0.264986 -1.495672
    2 -26.847315 6.445412 78.520195 0.268794 0.005691 -3.065482
    3 -4.313085 -13.578558 -57.058857 -3.141593 0.000000 -3.141593
    4 38.013966 0.147196 -0.193550 -3.141593 0.000000 3.141593
    5 20.686598 0.469204 -0.164131 -3.110558 -0.264987 1.495673
    6 0.016516 -11.367849 70.181595 0.000000 0.000000 0.000000
    7 26.847315 6.445412 78.520195 2.876405 -0.019503 -0.071313
    8 4.313085 -13.578558 -57.058857 0.000000 0.000000 0.000000
    9 38.013966 0.147198 0.193550 -3.141593 0.000000 -3.141593
    10 20.605600 0.473753 0.167809 -0.024410 0.265136 1.494187
    11 26.690825 9.982029 -63.178234 0.007043 -0.265136 -1.647406
    12 9.429615 20.728470 -11.982517 0.000000 -1.570796 -1.570796
    13 -16.873423 9.784611 52.968445 0.000000 0.000000 0.000000
    14 0.020790 5.827110 -0.224472 0.000000 -1.570796 -1.570796
    15 0.000002 0.000002 0.000000 0.000000 0.000000 0.000000
    16 5.664327 9.038128 28.830690 -1.230457 0.000000 0.000000
    17 -34.710712 -15.133160 78.859528 0.000000 0.000000 0.000000
    18 0.000000 0.217955 -0.009628 0.000000 0.000000 0.000000
    19 -6.579208 0.000000 -0.000004 0.000000 0.000000 0.000000
    20 -14.319742 -15.458982 88.923615 -1.655486 0.445706 -2.888000
    21 11.574886 -2.180904 1.427973 -1.940707 -0.171070 2.830508
    22 34.710712 -15.133160 78.859528 -3.141593 0.000000 3.141593
    23 0.000000 0.217958 0.009628 0.000000 0.000000 0.000000
    24 -6.579208 0.000002 0.000000 0.000000 0.000000 0.000000
    25 14.319742 -15.458982 88.923615 -0.057762 0.445706 -0.253592
    26 11.620373 -2.905371 2.149563 -0.263171 -0.211841 0.098316
    27 8.930669 9.895988 16.516954 -1.178097 0.000000 0.000000
    28 -10.478000 3.596272 -57.675579 0.000000 0.000000 0.000000
    29 20.682631 -0.459137 -0.000008 0.000000 0.000000 0.000000
    30 -8.438859 0.038662 0.559093 1.570796 0.000000 1.570796
end
triangles
  phy
    0 -36.558453 3.434026 89.391030 -0.017157 0.993662 0.111096 0 0
    0 -38.491706 3.469556 65.151130 -0.076432 0.993883 -0.079716 0 0
    0 -39.314503 -0.036191 96.634234 -0.352429 0.525300 0.774502 0 0
  phy
    0 -39.314503 -0.036191 96.634234 -0.352429 0.525300 0.774502 0 0
    0 -38.491706 3.469556 65.151130 -0.076432 0.993883 -0.079716 0 0
    0 -41.656128 -0.445569 45.908870 -0.231682 0.863142 -0.448675 0 0
  phy
    0 -38.491706 3.469556 65.151130 -0.076432 0.993883 -0.079716 0 0
    0 -36.558453 3.434026 89.391030 -0.017157 0.993662 0.111096 0 0
    0 39.109879 3.469676 65.151170 0.039163 0.995408 -0.087351 0 0
  phy
    0 -38.491706 3.469556 65.151130 -0.076432 0.993883 -0.079716 0 0
    0 39.109879 3.469676 65.151170 0.039163 0.995408 -0.087351 0 0
    0 -41.656128 -0.445569 45.908870 -0.231682 0.863142 -0.448675 0 0
  phy
    0 39.109879 3.469676 65.151170 0.039163 0.995408 -0.087351 0 0
    0 37.176590 3.434139 89.391058 0.034676 0.993359 0.109708 0 0
    0 39.932653 -0.036067 96.634263 0.330307 0.738251 0.588117 0 0
  phy
    0 39.932653 -0.036067 96.634263 0.330307 0.738251 0.588117 0 0
    0 42.388425 -0.445442 45.908916 0.403041 0.824301 -0.397601 0 0
    0 39.109879 3.469676 65.151170 0.039163 0.995408 -0.087351 0 0
  phy
    0 39.186191 -6.604447 97.727151 0.360898 -0.765409 0.532825 0 0
    0 42.388425 -0.445442 45.908916 0.403041 0.824301 -0.397601 0 0
    0 39.932653 -0.036067 96.634263 0.330307 0.738251 0.588117 0 0
  phy
    0 39.932653 -0.036067 96.634263 0.330307 0.738251 0.588117 0 0
    0 -36.558453 3.434026 89.391030 -0.017157 0.993662 0.111096 0 0
    0 -39.314503 -0.036191 96.634234 -0.352429 0.525300 0.774502 0 0
  phy
    0 -36.558453 3.434026 89.391030 -0.017157 0.993662 0.111096 0 0
    0 39.932653 -0.036067 96.634263 0.330307 0.738251 0.588117 0 0
    0 37.176590 3.434139 89.391058 0.034676 0.993359 0.109708 0 0
  phy
    0 39.932653 -0.036067 96.634263 0.330307 0.738251 0.588117 0 0
    0 -39.314503 -0.036191 96.634234 -0.352429 0.525300 0.774502 0 0
    0 39.186191 -6.604447 97.727151 0.360898 -0.765409 0.532825 0 0
  phy
    0 -40.323542 -9.123112 42.151749 -0.225654 -0.951979 -0.206921 0 0
    0 -38.568016 -6.604564 97.727104 -0.405199 -0.825121 0.393687 0 0
    0 -41.656128 -0.445569 45.908870 -0.231682 0.863142 -0.448675 0 0
  phy
    0 -38.568016 -6.604564 97.727104 -0.405199 -0.825121 0.393687 0 0
    0 -39.314503 -0.036191 96.634234 -0.352429 0.525300 0.774502 0 0
    0 -41.656128 -0.445569 45.908870 -0.231682 0.863142 -0.448675 0 0
  phy
    0 39.186191 -6.604447 97.727151 0.360898 -0.765409 0.532825 0 0
    0 -39.314503 -0.036191 96.634234 -0.352429 0.525300 0.774502 0 0
    0 -38.568016 -6.604564 97.727104 -0.405199 -0.825121 0.393687 0 0
  phy
    0 -38.568016 -6.604564 97.727104 -0.405199 -0.825121 0.393687 0 0
    0 -0.244302 -12.058540 96.562858 0.006569 -0.997206 0.074416 0 0
    0 39.186191 -6.604447 97.727151 0.360898 -0.765409 0.532825 0 0
  phy
    0 -40.323542 -9.123112 42.151749 -0.225654 -0.951979 -0.206921 0 0
    0 -0.244302 -12.058540 96.562858 0.006569 -0.997206 0.074416 0 0
    0 -38.568016 -6.604564 97.727104 -0.405199 -0.825121 0.393687 0 0
  phy
    0 39.109879 3.469676 65.151170 0.039163 0.995408 -0.087351 0 0
    0 -36.558453 3.434026 89.391030 -0.017157 0.993662 0.111096 0 0
    0 37.176590 3.434139 89.391058 0.034676 0.993359 0.109708 0 0
  phy
    0 40.941783 -8.071945 42.179317 0.226701 -0.902342 -0.366587 0 0
    0 42.388425 -0.445442 45.908916 0.403041 0.824301 -0.397601 0 0
    0 39.186191 -6.604447 97.727151 0.360898 -0.765409 0.532825 0 0
  phy
    0 39.186191 -6.604447 97.727151 0.360898 -0.765409 0.532825 0 0
    0 -0.244302 -12.058540 96.562858 0.006569 -0.997206 0.074416 0 0
    0 40.941783 -8.071945 42.179317 0.226701 -0.902342 -0.366587 0 0
  phy
    0 -40.323542 -9.123112 42.151749 -0.225654 -0.951979 -0.206921 0 0
    0 0.309123 -12.805994 42.231911 0.012929 -0.997907 -0.063360 0 0
    0 -0.244302 -12.058540 96.562858 0.006569 -0.997206 0.074416 0 0
  phy
    0 -40.323542 -9.123112 42.151749 -0.225654 -0.951979 -0.206921 0 0
    0 40.941783 -8.071945 42.179317 0.226701 -0.902342 -0.366587 0 0
    0 0.309123 -12.805994 42.231911 0.012929 -0.997907 -0.063360 0 0
  phy
    0 40.941783 -8.071945 42.179317 0.226701 -0.902342 -0.366587 0 0
    0 -40.323542 -9.123112 42.151749 -0.225654 -0.951979 -0.206921 0 0
    0 -41.656128 -0.445569 45.908870 -0.231682 0.863142 -0.448675 0 0
  phy
    0 39.109879 3.469676 65.151170 0.039163 0.995408 -0.087351 0 0
    0 42.388425 -0.445442 45.908916 0.403041 0.824301 -0.397601 0 0
    0 -41.656128 -0.445569 45.908870 -0.231682 0.863142 -0.448675 0 0
  phy
    0 -0.244302 -12.058540 96.562858 0.006569 -0.997206 0.074416 0 0
    0 0.309123 -12.805994 42.231911 0.012929 -0.997907 -0.063360 0 0
    0 40.941783 -8.071945 42.179317 0.226701 -0.902342 -0.366587 0 0
  phy
    0 42.388425 -0.445442 45.908916 0.403041 0.824301 -0.397601 0 0
    0 40.941783 -8.071945 42.179317 0.226701 -0.902342 -0.366587 0 0
    0 -41.656128 -0.445569 45.908870 -0.231682 0.863142 -0.448675 0 0
  phy
    0 -23.750017 15.960982 93.538167 -0.320144 0.940621 0.112873 0 0
    0 23.749985 15.961055 93.538195 0.340063 0.931904 0.126144 0 0
    0 -18.999934 20.704671 -67.244871 -0.343457 0.938728 -0.028756 0 0
  phy
    0 -23.750017 15.960982 93.538167 -0.320144 0.940621 0.112873 0 0
    0 -23.769380 -0.271551 94.031745 -0.342758 -0.937188 0.064773 0 0
    0 23.749985 15.961055 93.538195 0.340063 0.931904 0.126144 0 0
  phy
    0 -23.750017 15.960982 93.538167 -0.320144 0.940621 0.112873 0 0
    0 -18.999934 20.704671 -67.244871 -0.343457 0.938728 -0.028756 0 0
    0 -23.769380 -0.271551 94.031745 -0.342758 -0.937188 0.064773 0 0
  phy
    0 23.749985 15.961055 93.538195 0.340063 0.931904 0.126144 0 0
    0 23.750086 3.956090 -67.412857 0.341767 -0.937128 -0.070616 0 0
    0 23.750060 20.704736 -67.244843 0.359288 0.918712 -0.163954 0 0
  phy
    0 23.749985 15.961055 93.538195 0.340063 0.931904 0.126144 0 0
    0 23.750010 -0.271478 94.031774 0.323112 -0.943739 0.070391 0 0
    0 23.750086 3.956090 -67.412857 0.341767 -0.937128 -0.070616 0 0
  phy
    0 -18.999909 3.956025 -67.412885 -0.356356 -0.907346 -0.223012 0 0
    0 23.750086 3.956090 -67.412857 0.341767 -0.937128 -0.070616 0 0
    0 -23.769380 -0.271551 94.031745 -0.342758 -0.937188 0.064773 0 0
  phy
    0 23.750086 3.956090 -67.412857 0.341767 -0.937128 -0.070616 0 0
    0 23.750010 -0.271478 94.031774 0.323112 -0.943739 0.070391 0 0
    0 -23.769380 -0.271551 94.031745 -0.342758 -0.937188 0.064773 0 0
  phy
    0 23.749985 15.961055 93.538195 0.340063 0.931904 0.126144 0 0
    0 -23.769380 -0.271551 94.031745 -0.342758 -0.937188 0.064773 0 0
    0 23.750010 -0.271478 94.031774 0.323112 -0.943739 0.070391 0 0
  phy
    0 23.750060 20.704736 -67.244843 0.359288 0.918712 -0.163954 0 0
    0 -18.999909 3.956025 -67.412885 -0.356356 -0.907346 -0.223012 0 0
    0 -18.999934 20.704671 -67.244871 -0.343457 0.938728 -0.028756 0 0
  phy
    0 -18.999909 3.956025 -67.412885 -0.356356 -0.907346 -0.223012 0 0
    0 23.750060 20.704736 -67.244843 0.359288 0.918712 -0.163954 0 0
    0 23.750086 3.956090 -67.412857 0.341767 -0.937128 -0.070616 0 0
  phy
    0 -18.999934 20.704671 -67.244871 -0.343457 0.938728 -0.028756 0 0
    0 -18.999909 3.956025 -67.412885 -0.356356 -0.907346 -0.223012 0 0
    0 -23.769380 -0.271551 94.031745 -0.342758 -0.937188 0.064773 0 0
  phy
    0 23.749985 15.961055 93.538195 0.340063 0.931904 0.126144 0 0
    0 23.750060 20.704736 -67.244843 0.359288 0.918712 -0.163954 0 0
    0 -18.999934 20.704671 -67.244871 -0.343457 0.938728 -0.028756 0 0
  phy
    0 36.885670 -3.882374 110.836286 0.213188 -0.679314 0.702199 0 0
    0 39.186191 -7.355110 94.628803 0.456770 -0.717104 -0.526425 0 0
    0 35.935413 8.148021 111.151314 0.577328 0.529457 0.621585 0 0
  phy
    0 35.935413 8.148021 111.151314 0.577328 0.529457 0.621585 0 0
    0 39.186191 -7.355110 94.628803 0.456770 -0.717104 -0.526425 0 0
    0 37.176574 15.660327 93.919909 0.218083 0.972525 -0.081454 0 0
  phy
    0 35.935413 8.148021 111.151314 0.577328 0.529457 0.621585 0 0
    0 0.251282 10.653488 115.452070 -0.000009 0.685966 0.727634 0 0
    0 36.885670 -3.882374 110.836286 0.213188 -0.679314 0.702199 0 0
  phy
    0 35.935413 8.148021 111.151314 0.577328 0.529457 0.621585 0 0
    0 37.176574 15.660327 93.919909 0.218083 0.972525 -0.081454 0 0
    0 0.251282 10.653488 115.452070 -0.000009 0.685966 0.727634 0 0
  phy
    0 0.249231 -5.419337 115.182953 -0.016822 -0.772319 0.635012 0 0
    0 0.251282 10.653488 115.452070 -0.000009 0.685966 0.727634 0 0
    0 -36.268058 -3.889226 110.836065 -0.262542 -0.431831 0.862898 0 0
  phy
    0 -36.268058 -3.889226 110.836065 -0.262542 -0.431831 0.862898 0 0
    0 0.251282 10.653488 115.452070 -0.000009 0.685966 0.727634 0 0
    0 -35.317306 8.147911 111.151267 -0.578473 0.528816 0.621065 0 0
  phy
    0 -36.268058 -3.889226 110.836065 -0.262542 -0.431831 0.862898 0 0
    0 -38.568018 -7.355227 94.628761 -0.281705 -0.785772 -0.550641 0 0
    0 0.249231 -5.419337 115.182953 -0.016822 -0.772319 0.635012 0 0
  phy
    0 -36.268058 -3.889226 110.836065 -0.262542 -0.431831 0.862898 0 0
    0 -35.317306 8.147911 111.151267 -0.578473 0.528816 0.621065 0 0
    0 -38.568018 -7.355227 94.628761 -0.281705 -0.785772 -0.550641 0 0
  phy
    0 36.885670 -3.882374 110.836286 0.213188 -0.679314 0.702199 0 0
    0 0.249231 -5.419337 115.182953 -0.016822 -0.772319 0.635012 0 0
    0 0.309088 -9.436705 97.229505 0.018182 -0.991629 0.127834 0 0
  phy
    0 0.309088 -9.436705 97.229505 0.018182 -0.991629 0.127834 0 0
    0 39.186191 -7.355110 94.628803 0.456770 -0.717104 -0.526425 0 0
    0 36.885670 -3.882374 110.836286 0.213188 -0.679314 0.702199 0 0
  phy
    0 36.885670 -3.882374 110.836286 0.213188 -0.679314 0.702199 0 0
    0 0.251282 10.653488 115.452070 -0.000009 0.685966 0.727634 0 0
    0 0.249231 -5.419337 115.182953 -0.016822 -0.772319 0.635012 0 0
  phy
    0 0.249231 -5.419337 115.182953 -0.016822 -0.772319 0.635012 0 0
    0 -38.568018 -7.355227 94.628761 -0.281705 -0.785772 -0.550641 0 0
    0 0.309088 -9.436705 97.229505 0.018182 -0.991629 0.127834 0 0
  phy
    0 0.309088 -9.436705 97.229505 0.018182 -0.991629 0.127834 0 0
    0 -38.568018 -7.355227 94.628761 -0.281705 -0.785772 -0.550641 0 0
    0 39.186191 -7.355110 94.628803 0.456770 -0.717104 -0.526425 0 0
  phy
    0 37.176574 15.660327 93.919909 0.218083 0.972525 -0.081454 0 0
    0 39.186191 -7.355110 94.628803 0.456770 -0.717104 -0.526425 0 0
    0 37.176597 3.806234 89.685641 0.030539 -0.033435 -0.998974 0 0
  phy
    0 37.176574 15.660327 93.919909 0.218083 0.972525 -0.081454 0 0
    0 37.176597 3.806234 89.685641 0.030539 -0.033435 -0.998974 0 0
    0 -36.558476 15.660217 93.919871 -0.183720 0.918809 -0.349339 0 0
  phy
    0 0.251282 10.653488 115.452070 -0.000009 0.685966 0.727634 0 0
    0 37.176574 15.660327 93.919909 0.218083 0.972525 -0.081454 0 0
    0 -36.558476 15.660217 93.919871 -0.183720 0.918809 -0.349339 0 0
  phy
    0 37.176597 3.806234 89.685641 0.030539 -0.033435 -0.998974 0 0
    0 -36.558453 3.806121 89.685603 -0.061377 -0.025373 -0.997792 0 0
    0 -36.558476 15.660217 93.919871 -0.183720 0.918809 -0.349339 0 0
  phy
    0 -36.558453 3.806121 89.685603 -0.061377 -0.025373 -0.997792 0 0
    0 37.176597 3.806234 89.685641 0.030539 -0.033435 -0.998974 0 0
    0 -38.568018 -7.355227 94.628761 -0.281705 -0.785772 -0.550641 0 0
  phy
    0 -36.558476 15.660217 93.919871 -0.183720 0.918809 -0.349339 0 0
    0 -36.558453 3.806121 89.685603 -0.061377 -0.025373 -0.997792 0 0
    0 -38.568018 -7.355227 94.628761 -0.281705 -0.785772 -0.550641 0 0
  phy
    0 37.176597 3.806234 89.685641 0.030539 -0.033435 -0.998974 0 0
    0 39.186191 -7.355110 94.628803 0.456770 -0.717104 -0.526425 0 0
    0 -38.568018 -7.355227 94.628761 -0.281705 -0.785772 -0.550641 0 0
  phy
    0 -35.317306 8.147911 111.151267 -0.578473 0.528816 0.621065 0 0
    0 0.251282 10.653488 115.452070 -0.000009 0.685966 0.727634 0 0
    0 -36.558476 15.660217 93.919871 -0.183720 0.918809 -0.349339 0 0
  phy
    0 -35.317306 8.147911 111.151267 -0.578473 0.528816 0.621065 0 0
    0 -36.558476 15.660217 93.919871 -0.183720 0.918809 -0.349339 0 0
    0 -38.568018 -7.355227 94.628761 -0.281705 -0.785772 -0.550641 0 0
  phy
    0 39.109869 17.585441 43.572951 0.145900 0.104551 -0.983759 0 0
    0 -38.491715 17.585323 43.572909 -0.076370 0.525091 -0.847613 0 0
    0 39.109855 21.282466 52.855119 0.088251 0.833118 0.546009 0 0
  phy
    0 -38.491715 17.585323 43.572909 -0.076370 0.525091 -0.847613 0 0
    0 -38.491729 21.282349 52.855077 -0.285144 0.809556 0.513139 0 0
    0 39.109855 21.282466 52.855119 0.088251 0.833118 0.546009 0 0
  phy
    0 -38.491715 17.585323 43.572909 -0.076370 0.525091 -0.847613 0 0
    0 39.109869 17.585441 43.572951 0.145900 0.104551 -0.983759 0 0
    0 -40.958064 -0.989098 46.272157 -0.154182 -0.485288 -0.860653 0 0
  phy
    0 -38.491729 21.282349 52.855077 -0.285144 0.809556 0.513139 0 0
    0 -38.491715 17.585323 43.572909 -0.076370 0.525091 -0.847613 0 0
    0 -40.958064 -0.989098 46.272157 -0.154182 -0.485288 -0.860653 0 0
  phy
    0 39.109869 17.585441 43.572951 0.145900 0.104551 -0.983759 0 0
    0 41.506577 -0.988971 46.272202 0.086238 -0.876369 -0.473856 0 0
    0 -40.958064 -0.989098 46.272157 -0.154182 -0.485288 -0.860653 0 0
  phy
    0 39.109869 17.585441 43.572951 0.145900 0.104551 -0.983759 0 0
    0 42.388420 -0.313897 60.191873 0.378531 -0.896375 0.230708 0 0
    0 41.506577 -0.988971 46.272202 0.086238 -0.876369 -0.473856 0 0
  phy
    0 39.109855 21.282466 52.855119 0.088251 0.833118 0.546009 0 0
    0 42.388420 -0.313897 60.191873 0.378531 -0.896375 0.230708 0 0
    0 39.109869 17.585441 43.572951 0.145900 0.104551 -0.983759 0 0
  phy
    0 39.109879 3.267821 65.419257 0.070453 0.152124 0.985847 0 0
    0 39.109855 21.282466 52.855119 0.088251 0.833118 0.546009 0 0
    0 -38.491706 3.267703 65.419215 -0.030004 0.481621 0.875866 0 0
  phy
    0 -38.491706 3.267703 65.419215 -0.030004 0.481621 0.875866 0 0
    0 39.109855 21.282466 52.855119 0.088251 0.833118 0.546009 0 0
    0 -38.491729 21.282349 52.855077 -0.285144 0.809556 0.513139 0 0
  phy
    0 -38.491706 3.267703 65.419215 -0.030004 0.481621 0.875866 0 0
    0 -41.656137 -0.303024 61.957806 -0.138953 -0.963589 0.228448 0 0
    0 39.109879 3.267821 65.419257 0.070453 0.152124 0.985847 0 0
  phy
    0 -38.491706 3.267703 65.419215 -0.030004 0.481621 0.875866 0 0
    0 -38.491729 21.282349 52.855077 -0.285144 0.809556 0.513139 0 0
    0 -41.656137 -0.303024 61.957806 -0.138953 -0.963589 0.228448 0 0
  phy
    0 41.506577 -0.988971 46.272202 0.086238 -0.876369 -0.473856 0 0
    0 -41.656137 -0.303024 61.957806 -0.138953 -0.963589 0.228448 0 0
    0 -40.958064 -0.989098 46.272157 -0.154182 -0.485288 -0.860653 0 0
  phy
    0 42.388420 -0.313897 60.191873 0.378531 -0.896375 0.230708 0 0
    0 -41.656137 -0.303024 61.957806 -0.138953 -0.963589 0.228448 0 0
    0 41.506577 -0.988971 46.272202 0.086238 -0.876369 -0.473856 0 0
  phy
    0 39.109879 3.267821 65.419257 0.070453 0.152124 0.985847 0 0
    0 42.388420 -0.313897 60.191873 0.378531 -0.896375 0.230708 0 0
    0 39.109855 21.282466 52.855119 0.088251 0.833118 0.546009 0 0
  phy
    0 39.109879 3.267821 65.419257 0.070453 0.152124 0.985847 0 0
    0 -41.656137 -0.303024 61.957806 -0.138953 -0.963589 0.228448 0 0
    0 42.388420 -0.313897 60.191873 0.378531 -0.896375 0.230708 0 0
  phy
    0 -38.491729 21.282349 52.855077 -0.285144 0.809556 0.513139 0 0
    0 -40.958064 -0.989098 46.272157 -0.154182 -0.485288 -0.860653 0 0
    0 -41.656137 -0.303024 61.957806 -0.138953 -0.963589 0.228448 0 0
  phy
    0 39.112324 21.305013 51.994055 0.044555 0.996004 0.077395 0 0
    0 39.112366 23.398669 -29.856953 0.050299 0.998489 -0.022118 0 0
    0 -38.439362 23.398553 -29.857000 -0.025490 0.999398 -0.023541 0 0
  phy
    0 39.112324 21.305013 51.994055 0.044555 0.996004 0.077395 0 0
    0 40.406045 19.690524 -17.947868 0.044558 -0.996004 -0.077395 0 0
    0 39.112366 23.398669 -29.856953 0.050299 0.998489 -0.022118 0 0
  phy
    0 39.112366 23.398669 -29.856953 0.050299 0.998489 -0.022118 0 0
    0 40.406045 19.690524 -17.947868 0.044558 -0.996004 -0.077395 0 0
    0 -38.439362 23.398553 -29.857000 -0.025490 0.999398 -0.023541 0 0
  phy
    0 -38.439404 21.304896 51.994006 -0.087289 0.993320 0.075470 0 0
    0 -39.733080 17.753617 42.944280 -0.021034 -0.999521 0.022683 0 0
    0 39.112324 21.305013 51.994055 0.044555 0.996004 0.077395 0 0
  phy
    0 -39.733080 17.753617 42.944280 -0.021034 -0.999521 0.022683 0 0
    0 40.406012 17.753734 42.944324 0.042253 -0.998823 0.023837 0 0
    0 39.112324 21.305013 51.994055 0.044555 0.996004 0.077395 0 0
  phy
    0 40.406012 17.753734 42.944324 0.042253 -0.998823 0.023837 0 0
    0 40.406045 19.690524 -17.947868 0.044558 -0.996004 -0.077395 0 0
    0 39.112324 21.305013 51.994055 0.044555 0.996004 0.077395 0 0
  phy
    0 40.406012 17.753734 42.944324 0.042253 -0.998823 0.023837 0 0
    0 -39.733080 17.753617 42.944280 -0.021034 -0.999521 0.022683 0 0
    0 40.406045 19.690524 -17.947868 0.044558 -0.996004 -0.077395 0 0
  phy
    0 -39.733048 19.690404 -17.947826 -0.090038 -0.992833 -0.078584 0 0
    0 -38.439404 21.304896 51.994006 -0.087289 0.993320 0.075470 0 0
    0 -38.439362 23.398553 -29.857000 -0.025490 0.999398 -0.023541 0 0
  phy
    0 -38.439404 21.304896 51.994006 -0.087289 0.993320 0.075470 0 0
    0 -39.733048 19.690404 -17.947826 -0.090038 -0.992833 -0.078584 0 0
    0 -39.733080 17.753617 42.944280 -0.021034 -0.999521 0.022683 0 0
  phy
    0 -38.439362 23.398553 -29.857000 -0.025490 0.999398 -0.023541 0 0
    0 40.406045 19.690524 -17.947868 0.044558 -0.996004 -0.077395 0 0
    0 -39.733048 19.690404 -17.947826 -0.090038 -0.992833 -0.078584 0 0
  phy
    0 40.406045 19.690524 -17.947868 0.044558 -0.996004 -0.077395 0 0
    0 -39.733080 17.753617 42.944280 -0.021034 -0.999521 0.022683 0 0
    0 -39.733048 19.690404 -17.947826 -0.090038 -0.992833 -0.078584 0 0
  phy
    0 -38.439404 21.304896 51.994006 -0.087289 0.993320 0.075470 0 0
    0 39.112324 21.305013 51.994055 0.044555 0.996004 0.077395 0 0
    0 -38.439362 23.398553 -29.857000 -0.025490 0.999398 -0.023541 0 0
  phy
    0 40.406045 19.700973 -18.346717 0.143160 0.153212 0.977768 0 0
    0 39.112366 23.409116 -30.255872 0.087430 0.955632 -0.281288 0 0
    0 -39.733048 19.700851 -18.346759 -0.180985 0.617961 0.765094 0 0
  phy
    0 -39.733048 19.700851 -18.346759 -0.180985 0.617961 0.765094 0 0
    0 39.112366 23.409116 -30.255872 0.087430 0.955632 -0.281288 0 0
    0 -38.439364 23.408999 -30.255914 -0.073019 0.603315 -0.794153 0 0
  phy
    0 40.406045 19.700973 -18.346717 0.143160 0.153212 0.977768 0 0
    0 41.683251 7.268708 -35.277305 0.155490 -0.092691 -0.983479 0 0
    0 39.112366 23.409116 -30.255872 0.087430 0.955632 -0.281288 0 0
  phy
    0 39.112366 23.409116 -30.255872 0.087430 0.955632 -0.281288 0 0
    0 41.683251 7.268708 -35.277305 0.155490 -0.092691 -0.983479 0 0
    0 -38.439364 23.408999 -30.255914 -0.073019 0.603315 -0.794153 0 0
  phy
    0 -39.733048 19.700851 -18.346759 -0.180985 0.617961 0.765094 0 0
    0 -41.026703 0.728948 -21.290369 -0.093134 -0.530487 0.842561 0 0
    0 40.406045 19.700973 -18.346717 0.143160 0.153212 0.977768 0 0
  phy
    0 40.406045 19.700973 -18.346717 0.143160 0.153212 0.977768 0 0
    0 -41.026703 0.728948 -21.290369 -0.093134 -0.530487 0.842561 0 0
    0 41.699761 0.729074 -21.290327 0.110149 -0.974451 0.195738 0 0
  phy
    0 40.406045 19.700973 -18.346717 0.143160 0.153212 0.977768 0 0
    0 41.699761 0.729074 -21.290327 0.110149 -0.974451 0.195738 0 0
    0 41.683251 7.268708 -35.277305 0.155490 -0.092691 -0.983479 0 0
  phy
    0 -41.007559 7.096430 -35.281857 -0.160761 -0.598089 -0.785140 0 0
    0 -39.733048 19.700851 -18.346759 -0.180985 0.617961 0.765094 0 0
    0 -38.439364 23.408999 -30.255914 -0.073019 0.603315 -0.794153 0 0
  phy
    0 -39.733048 19.700851 -18.346759 -0.180985 0.617961 0.765094 0 0
    0 -41.007559 7.096430 -35.281857 -0.160761 -0.598089 -0.785140 0 0
    0 -41.026703 0.728948 -21.290369 -0.093134 -0.530487 0.842561 0 0
  phy
    0 41.683251 7.268708 -35.277305 0.155490 -0.092691 -0.983479 0 0
    0 -41.007559 7.096430 -35.281857 -0.160761 -0.598089 -0.785140 0 0
    0 -38.439364 23.408999 -30.255914 -0.073019 0.603315 -0.794153 0 0
  phy
    0 41.683251 7.268708 -35.277305 0.155490 -0.092691 -0.983479 0 0
    0 41.699761 0.729074 -21.290327 0.110149 -0.974451 0.195738 0 0
    0 -41.007559 7.096430 -35.281857 -0.160761 -0.598089 -0.785140 0 0
  phy
    0 41.699761 0.729074 -21.290327 0.110149 -0.974451 0.195738 0 0
    0 -41.026703 0.728948 -21.290369 -0.093134 -0.530487 0.842561 0 0
    0 -41.007559 7.096430 -35.281857 -0.160761 -0.598089 -0.785140 0 0
  phy
    0 37.675019 -13.156602 -35.857880 0.300952 -0.953338 0.023964 0 0
    0 -37.001899 -13.156719 -35.857923 -0.163204 -0.985945 0.035737 0 0
    0 36.696170 -9.932131 -63.562148 0.089924 -0.794945 -0.599980 0 0
  phy
    0 39.163795 -8.070331 -19.183990 0.054011 -0.859186 0.508804 0 0
    0 -37.001899 -13.156719 -35.857923 -0.163204 -0.985945 0.035737 0 0
    0 37.675019 -13.156602 -35.857880 0.300952 -0.953338 0.023964 0 0
  phy
    0 37.675019 -13.156602 -35.857880 0.300952 -0.953338 0.023964 0 0
    0 41.699761 0.412613 -21.298615 0.262822 0.684197 0.680294 0 0
    0 39.163795 -8.070331 -19.183990 0.054011 -0.859186 0.508804 0 0
  phy
    0 41.659268 4.591997 -59.971062 0.430217 0.737908 -0.520005 0 0
    0 41.699761 0.412613 -21.298615 0.262822 0.684197 0.680294 0 0
    0 37.675019 -13.156602 -35.857880 0.300952 -0.953338 0.023964 0 0
  phy
    0 36.696170 -9.932131 -63.562148 0.089924 -0.794945 -0.599980 0 0
    0 41.659268 4.591997 -59.971062 0.430217 0.737908 -0.520005 0 0
    0 37.675019 -13.156602 -35.857880 0.300952 -0.953338 0.023964 0 0
  phy
    0 36.696170 -9.932131 -63.562148 0.089924 -0.794945 -0.599980 0 0
    0 -37.001899 -13.156719 -35.857923 -0.163204 -0.985945 0.035737 0 0
    0 -36.023041 -9.932243 -63.562186 -0.176855 -0.806388 -0.564323 0 0
  phy
    0 36.696170 -9.932131 -63.562148 0.089924 -0.794945 -0.599980 0 0
    0 -36.023041 -9.932243 -63.562186 -0.176855 -0.806388 -0.564323 0 0
    0 -40.986181 4.591868 -59.971100 -0.226574 0.830382 -0.509047 0 0
  phy
    0 36.696170 -9.932131 -63.562148 0.089924 -0.794945 -0.599980 0 0
    0 -40.986181 4.591868 -59.971100 -0.226574 0.830382 -0.509047 0 0
    0 41.659268 4.591997 -59.971062 0.430217 0.737908 -0.520005 0 0
  phy
    0 41.683251 6.952248 -35.285588 0.036084 0.998874 0.030795 0 0
    0 -41.007827 6.807746 -34.976846 -0.043711 0.978973 0.199254 0 0
    0 41.699761 0.412613 -21.298615 0.262822 0.684197 0.680294 0 0
  phy
    0 41.699761 0.412613 -21.298615 0.262822 0.684197 0.680294 0 0
    0 -41.007827 6.807746 -34.976846 -0.043711 0.978973 0.199254 0 0
    0 -41.026703 0.412489 -21.298662 -0.491998 0.586482 0.643410 0 0
  phy
    0 -41.007827 6.807746 -34.976846 -0.043711 0.978973 0.199254 0 0
    0 41.683251 6.952248 -35.285588 0.036084 0.998874 0.030795 0 0
    0 -40.986181 4.591868 -59.971100 -0.226574 0.830382 -0.509047 0 0
  phy
    0 -41.007827 6.807746 -34.976846 -0.043711 0.978973 0.199254 0 0
    0 -40.986181 4.591868 -59.971100 -0.226574 0.830382 -0.509047 0 0
    0 -41.026703 0.412489 -21.298662 -0.491998 0.586482 0.643410 0 0
  phy
    0 39.163795 -8.070331 -19.183990 0.054011 -0.859186 0.508804 0 0
    0 41.699761 0.412613 -21.298615 0.262822 0.684197 0.680294 0 0
    0 -38.490711 -8.070448 -19.184032 -0.075093 -0.493923 0.866257 0 0
  phy
    0 41.699761 0.412613 -21.298615 0.262822 0.684197 0.680294 0 0
    0 -41.026703 0.412489 -21.298662 -0.491998 0.586482 0.643410 0 0
    0 -38.490711 -8.070448 -19.184032 -0.075093 -0.493923 0.866257 0 0
  phy
    0 -38.490711 -8.070448 -19.184032 -0.075093 -0.493923 0.866257 0 0
    0 -37.001899 -13.156719 -35.857923 -0.163204 -0.985945 0.035737 0 0
    0 39.163795 -8.070331 -19.183990 0.054011 -0.859186 0.508804 0 0
  phy
    0 -37.001899 -13.156719 -35.857923 -0.163204 -0.985945 0.035737 0 0
    0 -38.490711 -8.070448 -19.184032 -0.075093 -0.493923 0.866257 0 0
    0 -41.026703 0.412489 -21.298662 -0.491998 0.586482 0.643410 0 0
  phy
    0 -40.986181 4.591868 -59.971100 -0.226574 0.830382 -0.509047 0 0
    0 -36.023041 -9.932243 -63.562186 -0.176855 -0.806388 -0.564323 0 0
    0 -37.001899 -13.156719 -35.857923 -0.163204 -0.985945 0.035737 0 0
  phy
    0 -40.986181 4.591868 -59.971100 -0.226574 0.830382 -0.509047 0 0
    0 41.683251 6.952248 -35.285588 0.036084 0.998874 0.030795 0 0
    0 41.659268 4.591997 -59.971062 0.430217 0.737908 -0.520005 0 0
  phy
    0 41.683251 6.952248 -35.285588 0.036084 0.998874 0.030795 0 0
    0 41.699761 0.412613 -21.298615 0.262822 0.684197 0.680294 0 0
    0 41.659268 4.591997 -59.971062 0.430217 0.737908 -0.520005 0 0
  phy
    0 -40.986181 4.591868 -59.971100 -0.226574 0.830382 -0.509047 0 0
    0 -37.001899 -13.156719 -35.857923 -0.163204 -0.985945 0.035737 0 0
    0 -41.026703 0.412489 -21.298662 -0.491998 0.586482 0.643410 0 0
  phy
    0 -25.904505 -25.679517 -27.747172 -0.154157 -0.941479 -0.299754 0 0
    0 -27.738976 -25.257315 -16.706754 -0.072273 0.566397 0.820958 0 0
    0 -36.865506 -12.760747 -35.695207 -0.145114 0.926399 0.347458 0 0
  phy
    0 -34.964392 -11.070352 -57.549926 -0.150597 -0.422186 -0.893913 0 0
    0 -25.904505 -25.679517 -27.747172 -0.154157 -0.941479 -0.299754 0 0
    0 -36.865506 -12.760747 -35.695207 -0.145114 0.926399 0.347458 0 0
  phy
    0 -25.904505 -25.679517 -27.747172 -0.154157 -0.941479 -0.299754 0 0
    0 26.577648 -25.679427 -27.747153 0.074386 -0.942676 -0.325312 0 0
    0 -27.738976 -25.257315 -16.706754 -0.072273 0.566397 0.820958 0 0
  phy
    0 -34.964392 -11.070352 -57.549926 -0.150597 -0.422186 -0.893913 0 0
    0 26.577648 -25.679427 -27.747153 0.074386 -0.942676 -0.325312 0 0
    0 -25.904505 -25.679517 -27.747172 -0.154157 -0.941479 -0.299754 0 0
  phy
    0 -27.738976 -25.257315 -16.706754 -0.072273 0.566397 0.820958 0 0
    0 26.577648 -25.679427 -27.747153 0.074386 -0.942676 -0.325312 0 0
    0 28.412110 -25.257221 -16.706712 0.185888 0.395622 0.899405 0 0
  phy
    0 -27.738976 -25.257315 -16.706754 -0.072273 0.566397 0.820958 0 0
    0 28.412110 -25.257221 -16.706712 0.185888 0.395622 0.899405 0 0
    0 37.538646 -12.760607 -35.695179 0.074383 0.942677 0.325312 0 0
  phy
    0 -27.738976 -25.257315 -16.706754 -0.072273 0.566397 0.820958 0 0
    0 37.538646 -12.760607 -35.695179 0.074383 0.942677 0.325312 0 0
    0 -36.865506 -12.760747 -35.695207 -0.145114 0.926399 0.347458 0 0
  phy
    0 26.577648 -25.679427 -27.747153 0.074386 -0.942676 -0.325312 0 0
    0 37.538646 -12.760607 -35.695179 0.074383 0.942677 0.325312 0 0
    0 28.412110 -25.257221 -16.706712 0.185888 0.395622 0.899405 0 0
  phy
    0 35.637528 -11.070244 -57.549879 0.209327 -0.635062 -0.743558 0 0
    0 26.577648 -25.679427 -27.747153 0.074386 -0.942676 -0.325312 0 0
    0 -34.964392 -11.070352 -57.549926 -0.150597 -0.422186 -0.893913 0 0
  phy
    0 35.637528 -11.070244 -57.549879 0.209327 -0.635062 -0.743558 0 0
    0 -34.964392 -11.070352 -57.549926 -0.150597 -0.422186 -0.893913 0 0
    0 37.538646 -12.760607 -35.695179 0.074383 0.942677 0.325312 0 0
  phy
    0 35.637528 -11.070244 -57.549879 0.209327 -0.635062 -0.743558 0 0
    0 37.538646 -12.760607 -35.695179 0.074383 0.942677 0.325312 0 0
    0 26.577648 -25.679427 -27.747153 0.074386 -0.942676 -0.325312 0 0
  phy
    0 37.538646 -12.760607 -35.695179 0.074383 0.942677 0.325312 0 0
    0 -34.964392 -11.070352 -57.549926 -0.150597 -0.422186 -0.893913 0 0
    0 -36.865506 -12.760747 -35.695207 -0.145114 0.926399 0.347458 0 0
  phy
    0 25.061003 -26.987609 -29.550287 0.058183 -0.993716 -0.095616 0 0
    0 25.060982 -28.540389 16.677224 0.069532 -0.996690 0.042116 0 0
    0 -24.387855 -26.987675 -29.550320 -0.029591 -0.994571 -0.099764 0 0
  phy
    0 -24.387855 -26.987675 -29.550320 -0.029591 -0.994571 -0.099764 0 0
    0 27.440585 -23.456040 -34.715730 0.069529 0.996691 -0.042116 0 0
    0 25.061003 -26.987609 -29.550287 0.058183 -0.993716 -0.095616 0 0
  phy
    0 25.061003 -26.987609 -29.550287 0.058183 -0.993716 -0.095616 0 0
    0 27.440585 -23.456040 -34.715730 0.069529 0.996691 -0.042116 0 0
    0 25.060982 -28.540389 16.677224 0.069532 -0.996690 0.042116 0 0
  phy
    0 -24.387881 -28.540455 16.677198 -0.132558 -0.990532 0.035689 0 0
    0 -26.767435 -23.456120 -34.715749 -0.145274 0.988190 -0.048741 0 0
    0 -24.387855 -26.987675 -29.550320 -0.029591 -0.994571 -0.099764 0 0
  phy
    0 -26.767435 -23.456120 -34.715749 -0.145274 0.988190 -0.048741 0 0
    0 -24.387881 -28.540455 16.677198 -0.132558 -0.990532 0.035689 0 0
    0 -26.767465 -24.858032 20.718493 -0.038224 0.994587 0.096626 0 0
  phy
    0 -24.387855 -26.987675 -29.550320 -0.029591 -0.994571 -0.099764 0 0
    0 25.060982 -28.540389 16.677224 0.069532 -0.996690 0.042116 0 0
    0 -24.387881 -28.540455 16.677198 -0.132558 -0.990532 0.035689 0 0
  phy
    0 25.060982 -28.540389 16.677224 0.069532 -0.996690 0.042116 0 0
    0 -26.767465 -24.858032 20.718493 -0.038224 0.994587 0.096626 0 0
    0 -24.387881 -28.540455 16.677198 -0.132558 -0.990532 0.035689 0 0
  phy
    0 -26.767435 -23.456120 -34.715749 -0.145274 0.988190 -0.048741 0 0
    0 27.440585 -23.456040 -34.715730 0.069529 0.996691 -0.042116 0 0
    0 -24.387855 -26.987675 -29.550320 -0.029591 -0.994571 -0.099764 0 0
  phy
    0 27.440585 -23.456040 -34.715730 0.069529 0.996691 -0.042116 0 0
    0 -26.767435 -23.456120 -34.715749 -0.145274 0.988190 -0.048741 0 0
    0 -26.767465 -24.858032 20.718493 -0.038224 0.994587 0.096626 0 0
  phy
    0 25.060982 -28.540389 16.677224 0.069532 -0.996690 0.042116 0 0
    0 27.440585 -23.456040 -34.715730 0.069529 0.996691 -0.042116 0 0
    0 27.440552 -24.857952 20.718521 0.078394 0.991717 0.101742 0 0
  phy
    0 27.440552 -24.857952 20.718521 0.078394 0.991717 0.101742 0 0
    0 -26.767465 -24.858032 20.718493 -0.038224 0.994587 0.096626 0 0
    0 25.060982 -28.540389 16.677224 0.069532 -0.996690 0.042116 0 0
  phy
    0 27.440552 -24.857952 20.718521 0.078394 0.991717 0.101742 0 0
    0 27.440585 -23.456040 -34.715730 0.069529 0.996691 -0.042116 0 0
    0 -26.767465 -24.858032 20.718493 -0.038224 0.994587 0.096626 0 0
  phy
    0 35.717330 -6.695518 -91.730084 0.156098 -0.890215 -0.427962 0 0
    0 41.659268 4.598070 -60.202901 0.368580 0.007916 0.929562 0 0
    0 36.696170 -9.926058 -63.793987 0.161310 -0.938353 0.305732 0 0
  phy
    0 38.144389 4.994514 -94.710987 0.607173 -0.014739 -0.794433 0 0
    0 41.659268 4.598070 -60.202901 0.368580 0.007916 0.929562 0 0
    0 35.717330 -6.695518 -91.730084 0.156098 -0.890215 -0.427962 0 0
  phy
    0 36.696170 -9.926058 -63.793987 0.161310 -0.938353 0.305732 0 0
    0 -36.023041 -9.926170 -63.794025 -0.082834 -0.933127 0.349874 0 0
    0 35.717330 -6.695518 -91.730084 0.156098 -0.890215 -0.427962 0 0
  phy
    0 -36.023041 -9.926170 -63.794025 -0.082834 -0.933127 0.349874 0 0
    0 -35.044173 -6.695626 -91.730150 -0.293701 -0.866201 -0.404272 0 0
    0 35.717330 -6.695518 -91.730084 0.156098 -0.890215 -0.427962 0 0
  phy
    0 38.144389 4.994514 -94.710987 0.607173 -0.014739 -0.794433 0 0
    0 35.717330 -6.695518 -91.730084 0.156098 -0.890215 -0.427962 0 0
    0 -37.471262 4.994395 -94.711052 -0.379856 -0.066820 -0.922629 0 0
  phy
    0 -37.471262 4.994395 -94.711052 -0.379856 -0.066820 -0.922629 0 0
    0 35.717330 -6.695518 -91.730084 0.156098 -0.890215 -0.427962 0 0
    0 -35.044173 -6.695626 -91.730150 -0.293701 -0.866201 -0.404272 0 0
  phy
    0 36.696170 -9.926058 -63.793987 0.161310 -0.938353 0.305732 0 0
    0 41.659268 4.598070 -60.202901 0.368580 0.007916 0.929562 0 0
    0 -36.023041 -9.926170 -63.794025 -0.082834 -0.933127 0.349874 0 0
  phy
    0 -37.471262 4.994395 -94.711052 -0.379856 -0.066820 -0.922629 0 0
    0 -34.977446 10.720787 -94.084436 -0.063322 0.863340 -0.500635 0 0
    0 35.650552 10.720897 -94.084389 0.032074 0.860762 -0.507997 0 0
  phy
    0 -34.977446 10.720787 -94.084436 -0.063322 0.863340 -0.500635 0 0
    0 -37.471262 4.994395 -94.711052 -0.379856 -0.066820 -0.922629 0 0
    0 -34.977475 20.721919 -67.904530 -0.153018 0.985178 -0.077528 0 0
  phy
    0 35.650552 10.720897 -94.084389 0.032074 0.860762 -0.507997 0 0
    0 -34.977446 10.720787 -94.084436 -0.063322 0.863340 -0.500635 0 0
    0 -34.977475 20.721919 -67.904530 -0.153018 0.985178 -0.077528 0 0
  phy
    0 38.144389 4.994514 -94.710987 0.607173 -0.014739 -0.794433 0 0
    0 -37.471262 4.994395 -94.711052 -0.379856 -0.066820 -0.922629 0 0
    0 35.650552 10.720897 -94.084389 0.032074 0.860762 -0.507997 0 0
  phy
    0 38.144389 4.994514 -94.710987 0.607173 -0.014739 -0.794433 0 0
    0 35.650552 10.720897 -94.084389 0.032074 0.860762 -0.507997 0 0
    0 35.650524 20.722029 -67.904483 0.185925 0.873622 0.449684 0 0
  phy
    0 35.650524 20.722029 -67.904483 0.185925 0.873622 0.449684 0 0
    0 41.659268 4.598070 -60.202901 0.368580 0.007916 0.929562 0 0
    0 38.144389 4.994514 -94.710987 0.607173 -0.014739 -0.794433 0 0
  phy
    0 -37.471262 4.994395 -94.711052 -0.379856 -0.066820 -0.922629 0 0
    0 -35.044173 -6.695626 -91.730150 -0.293701 -0.866201 -0.404272 0 0
    0 -40.986181 4.597941 -60.202948 -0.352735 0.214420 0.910825 0 0
  phy
    0 -34.977475 20.721919 -67.904530 -0.153018 0.985178 -0.077528 0 0
    0 -37.471262 4.994395 -94.711052 -0.379856 -0.066820 -0.922629 0 0
    0 -40.986181 4.597941 -60.202948 -0.352735 0.214420 0.910825 0 0
  phy
    0 -35.044173 -6.695626 -91.730150 -0.293701 -0.866201 -0.404272 0 0
    0 -36.023041 -9.926170 -63.794025 -0.082834 -0.933127 0.349874 0 0
    0 -40.986181 4.597941 -60.202948 -0.352735 0.214420 0.910825 0 0
  phy
    0 41.659268 4.598070 -60.202901 0.368580 0.007916 0.929562 0 0
    0 -40.986181 4.597941 -60.202948 -0.352735 0.214420 0.910825 0 0
    0 -36.023041 -9.926170 -63.794025 -0.082834 -0.933127 0.349874 0 0
  phy
    0 35.650524 20.722029 -67.904483 0.185925 0.873622 0.449684 0 0
    0 35.650552 10.720897 -94.084389 0.032074 0.860762 -0.507997 0 0
    0 -34.977475 20.721919 -67.904530 -0.153018 0.985178 -0.077528 0 0
  phy
    0 -34.977475 20.721919 -67.904530 -0.153018 0.985178 -0.077528 0 0
    0 -40.986181 4.597941 -60.202948 -0.352735 0.214420 0.910825 0 0
    0 35.650524 20.722029 -67.904483 0.185925 0.873622 0.449684 0 0
  phy
    0 35.650524 20.722029 -67.904483 0.185925 0.873622 0.449684 0 0
    0 -40.986181 4.597941 -60.202948 -0.352735 0.214420 0.910825 0 0
    0 41.659268 4.598070 -60.202901 0.368580 0.007916 0.929562 0 0
  phy
    0 -40.717425 10.905100 -22.689598 -0.995236 0.097489 0.000780 0 0
    0 -41.656128 -0.445569 45.908870 -0.999471 -0.031873 -0.006483 0 0
    0 -41.656137 -0.303024 61.957806 -0.997437 0.065600 0.028581 0 0
  phy
    0 -41.656128 -0.445569 45.908870 -0.999471 -0.031873 -0.006483 0 0
    0 -40.717425 10.905100 -22.689598 -0.995236 0.097489 0.000780 0 0
    0 -41.007559 7.096430 -35.281857 -0.997031 0.076781 -0.005766 0 0
  phy
    0 -39.733048 19.700851 -18.346759 -0.987065 0.160297 -0.002577 0 0
    0 -40.717425 10.905100 -22.689598 -0.995236 0.097489 0.000780 0 0
    0 -41.656137 -0.303024 61.957806 -0.997437 0.065600 0.028581 0 0
  phy
    0 -40.717425 10.905100 -22.689598 -0.995236 0.097489 0.000780 0 0
    0 -39.733048 19.700851 -18.346759 -0.987065 0.160297 -0.002577 0 0
    0 -41.007559 7.096430 -35.281857 -0.997031 0.076781 -0.005766 0 0
  phy
    0 -40.323542 -9.123112 42.151749 -0.869631 -0.493606 0.009781 0 0
    0 -41.656128 -0.445569 45.908870 -0.999471 -0.031873 -0.006483 0 0
    0 -41.026703 0.412489 -21.298662 -0.976611 -0.213851 -0.022345 0 0
  phy
    0 -41.656128 -0.445569 45.908870 -0.999471 -0.031873 -0.006483 0 0
    0 -40.323542 -9.123112 42.151749 -0.869631 -0.493606 0.009781 0 0
    0 -41.704154 -0.959313 56.954514 -0.988324 -0.152360 0.001353 0 0
  phy
    0 -41.656137 -0.303024 61.957806 -0.997437 0.065600 0.028581 0 0
    0 -41.656128 -0.445569 45.908870 -0.999471 -0.031873 -0.006483 0 0
    0 -41.704154 -0.959313 56.954514 -0.988324 -0.152360 0.001353 0 0
  phy
    0 -41.026703 0.412489 -21.298662 -0.976611 -0.213851 -0.022345 0 0
    0 -41.656128 -0.445569 45.908870 -0.999471 -0.031873 -0.006483 0 0
    0 -40.986181 4.597941 -60.202948 -0.996152 -0.067593 -0.055797 0 0
  phy
    0 -41.656128 -0.445569 45.908870 -0.999471 -0.031873 -0.006483 0 0
    0 -41.007559 7.096430 -35.281857 -0.997031 0.076781 -0.005766 0 0
    0 -40.986181 4.597941 -60.202948 -0.996152 -0.067593 -0.055797 0 0
  phy
    0 41.683251 7.268708 -35.277305 0.997755 0.066875 -0.003678 0 0
    0 41.659268 4.598070 -60.202901 0.996050 0.067984 -0.057116 0 0
    0 41.319723 11.750623 -22.258455 0.994676 0.103039 -0.001687 0 0
  phy
    0 41.319723 11.750623 -22.258455 0.994676 0.103039 -0.001687 0 0
    0 42.388425 -0.445442 45.908916 0.999278 -0.037482 -0.006187 0 0
    0 41.683251 7.268708 -35.277305 0.997755 0.066875 -0.003678 0 0
  phy
    0 41.683251 7.268708 -35.277305 0.997755 0.066875 -0.003678 0 0
    0 42.388425 -0.445442 45.908916 0.999278 -0.037482 -0.006187 0 0
    0 41.659268 4.598070 -60.202901 0.996050 0.067984 -0.057116 0 0
  phy
    0 42.388420 -0.313897 60.191873 0.999455 0.031383 0.010237 0 0
    0 40.406012 17.711055 44.287683 0.987880 0.154614 0.013667 0 0
    0 42.285760 0.506400 62.928939 0.990430 0.120274 0.067692 0 0
  phy
    0 42.388420 -0.313897 60.191873 0.999455 0.031383 0.010237 0 0
    0 40.406045 19.700973 -18.346717 0.986057 0.166392 -0.002325 0 0
    0 40.406012 17.711055 44.287683 0.987880 0.154614 0.013667 0 0
  phy
    0 42.388420 -0.313897 60.191873 0.999455 0.031383 0.010237 0 0
    0 41.319723 11.750623 -22.258455 0.994676 0.103039 -0.001687 0 0
    0 40.406045 19.700973 -18.346717 0.986057 0.166392 -0.002325 0 0
  phy
    0 40.406012 17.711055 44.287683 0.987880 0.154614 0.013667 0 0
    0 39.109855 21.282466 52.855121 0.162118 0.983512 0.080140 0 0
    0 42.285760 0.506400 62.928939 0.990430 0.120274 0.067692 0 0
  phy
    0 42.285760 0.506400 62.928939 0.990430 0.120274 0.067692 0 0
    0 39.109855 21.282466 52.855121 0.162118 0.983512 0.080140 0 0
    0 39.932653 -0.036067 96.634263 0.985684 0.135598 0.100196 0 0
  phy
    0 39.932653 -0.036067 96.634263 0.985684 0.135598 0.100196 0 0
    0 39.186191 -6.604447 97.727151 0.694570 -0.688236 0.209530 0 0
    0 42.285760 0.506400 62.928939 0.990430 0.120274 0.067692 0 0
  phy
    0 42.285760 0.506400 62.928939 0.990430 0.120274 0.067692 0 0
    0 39.186191 -6.604447 97.727151 0.694570 -0.688236 0.209530 0 0
    0 42.388420 -0.313897 60.191873 0.999455 0.031383 0.010237 0 0
  phy
    0 37.176574 15.660327 93.919909 0.492747 0.830427 0.259985 0 0
    0 23.749987 15.961055 93.538200 0.003800 0.985489 0.169696 0 0
    0 0.251282 10.653488 115.452070 -0.000002 0.804494 0.593961 0 0
  phy
    0 35.935413 8.148021 111.151314 0.377549 0.402347 0.834011 0 0
    0 37.176574 15.660327 93.919909 0.492747 0.830427 0.259985 0 0
    0 0.251282 10.653488 115.452070 -0.000002 0.804494 0.593961 0 0
  phy
    0 23.749987 15.961055 93.538200 0.003800 0.985489 0.169696 0 0
    0 37.176574 15.660327 93.919909 0.492747 0.830427 0.259985 0 0
    0 39.109855 21.282466 52.855121 0.162118 0.983512 0.080140 0 0
  phy
    0 37.176574 15.660327 93.919909 0.492747 0.830427 0.259985 0 0
    0 35.935413 8.148021 111.151314 0.377549 0.402347 0.834011 0 0
    0 39.932653 -0.036067 96.634263 0.985684 0.135598 0.100196 0 0
  phy
    0 39.932653 -0.036067 96.634263 0.985684 0.135598 0.100196 0 0
    0 39.109855 21.282466 52.855121 0.162118 0.983512 0.080140 0 0
    0 37.176574 15.660327 93.919909 0.492747 0.830427 0.259985 0 0
  phy
    0 -36.558476 15.660217 93.919871 -0.501841 0.824669 0.260914 0 0
    0 -35.317306 8.147911 111.151267 -0.378533 0.402220 0.833626 0 0
    0 0.251282 10.653488 115.452070 -0.000002 0.804494 0.593961 0 0
  phy
    0 -23.749961 15.960983 93.538167 -0.002103 0.988437 0.151619 0 0
    0 -36.558476 15.660217 93.919871 -0.501841 0.824669 0.260914 0 0
    0 0.251282 10.653488 115.452070 -0.000002 0.804494 0.593961 0 0
  phy
    0 -35.317306 8.147911 111.151267 -0.378533 0.402220 0.833626 0 0
    0 -36.558476 15.660217 93.919871 -0.501841 0.824669 0.260914 0 0
    0 -39.314503 -0.036189 96.634216 -0.986556 0.131446 0.097103 0 0
  phy
    0 -39.314503 -0.036189 96.634216 -0.986556 0.131446 0.097103 0 0
    0 -36.558476 15.660217 93.919871 -0.501841 0.824669 0.260914 0 0
    0 -38.491729 21.282348 52.855078 -0.125181 0.990657 0.054119 0 0
  phy
    0 -36.558476 15.660217 93.919871 -0.501841 0.824669 0.260914 0 0
    0 -23.749961 15.960983 93.538167 -0.002103 0.988437 0.151619 0 0
    0 -38.491729 21.282348 52.855078 -0.125181 0.990657 0.054119 0 0
  phy
    0 -36.253474 -3.704585 110.840899 -0.184008 -0.918963 0.348782 0 0
    0 -24.387881 -28.540455 16.677198 -0.162851 -0.979884 0.115352 0 0
    0 -0.244302 -12.058540 96.562858 0.000001 -0.970993 0.239108 0 0
  phy
    0 -38.568016 -6.604564 97.727104 -0.663184 -0.716670 0.215803 0 0
    0 -24.387881 -28.540455 16.677198 -0.162851 -0.979884 0.115352 0 0
    0 -36.253474 -3.704585 110.840899 -0.184008 -0.918963 0.348782 0 0
  phy
    0 -36.253474 -3.704585 110.840899 -0.184008 -0.918963 0.348782 0 0
    0 -35.317306 8.147911 111.151267 -0.378533 0.402220 0.833626 0 0
    0 -39.314503 -0.036189 96.634216 -0.986556 0.131446 0.097103 0 0
  phy
    0 -36.253474 -3.704585 110.840899 -0.184008 -0.918963 0.348782 0 0
    0 -39.314503 -0.036189 96.634216 -0.986556 0.131446 0.097103 0 0
    0 -38.568016 -6.604564 97.727104 -0.663184 -0.716670 0.215803 0 0
  phy
    0 -0.244302 -12.058540 96.562858 0.000001 -0.970993 0.239108 0 0
    0 0.249233 -5.397593 115.183319 0.000000 -0.487267 0.873253 0 0
    0 -36.253474 -3.704585 110.840899 -0.184008 -0.918963 0.348782 0 0
  phy
    0 -36.253474 -3.704585 110.840899 -0.184008 -0.918963 0.348782 0 0
    0 0.249233 -5.397593 115.183319 0.000000 -0.487267 0.873253 0 0
    0 -35.317306 8.147911 111.151267 -0.378533 0.402220 0.833626 0 0
  phy
    0 -41.007559 7.096430 -35.281857 -0.997031 0.076781 -0.005766 0 0
    0 -39.733048 19.700851 -18.346759 -0.987065 0.160297 -0.002577 0 0
    0 -40.986181 4.597941 -60.202948 -0.996152 -0.067593 -0.055797 0 0
  phy
    0 -39.733048 19.700851 -18.346759 -0.987065 0.160297 -0.002577 0 0
    0 -38.439364 23.408998 -30.255914 -0.141508 0.989505 -0.029247 0 0
    0 -40.986181 4.597941 -60.202948 -0.996152 -0.067593 -0.055797 0 0
  phy
    0 -39.733048 19.700851 -18.346759 -0.987065 0.160297 -0.002577 0 0
    0 -41.656137 -0.303024 61.957806 -0.997437 0.065600 0.028581 0 0
    0 -39.733080 17.753617 42.944280 -0.988472 0.150765 0.013884 0 0
  phy
    0 -38.439364 23.408998 -30.255914 -0.141508 0.989505 -0.029247 0 0
    0 -39.733048 19.700851 -18.346759 -0.987065 0.160297 -0.002577 0 0
    0 -38.491729 21.282348 52.855078 -0.125181 0.990657 0.054119 0 0
  phy
    0 -39.733048 19.700851 -18.346759 -0.987065 0.160297 -0.002577 0 0
    0 -39.733080 17.753617 42.944280 -0.988472 0.150765 0.013884 0 0
    0 -38.491729 21.282348 52.855078 -0.125181 0.990657 0.054119 0 0
  phy
    0 -38.568018 -7.355227 94.628761 -0.812711 -0.580344 0.051972 0 0
    0 -41.656137 -0.303024 61.957806 -0.997437 0.065600 0.028581 0 0
    0 -40.323542 -9.123112 42.151749 -0.869631 -0.493606 0.009781 0 0
  phy
    0 -40.323542 -9.123112 42.151749 -0.869631 -0.493606 0.009781 0 0
    0 -41.656137 -0.303024 61.957806 -0.997437 0.065600 0.028581 0 0
    0 -41.704154 -0.959313 56.954514 -0.988324 -0.152360 0.001353 0 0
  phy
    0 -41.656137 -0.303024 61.957806 -0.997437 0.065600 0.028581 0 0
    0 -38.568018 -7.355227 94.628761 -0.812711 -0.580344 0.051972 0 0
    0 -38.568016 -6.604564 97.727104 -0.663184 -0.716670 0.215803 0 0
  phy
    0 -39.314503 -0.036189 96.634216 -0.986556 0.131446 0.097103 0 0
    0 -41.656137 -0.303024 61.957806 -0.997437 0.065600 0.028581 0 0
    0 -38.568016 -6.604564 97.727104 -0.663184 -0.716670 0.215803 0 0
  phy
    0 -41.656137 -0.303024 61.957806 -0.997437 0.065600 0.028581 0 0
    0 -39.314503 -0.036189 96.634216 -0.986556 0.131446 0.097103 0 0
    0 -38.491729 21.282348 52.855078 -0.125181 0.990657 0.054119 0 0
  phy
    0 -39.733080 17.753617 42.944280 -0.988472 0.150765 0.013884 0 0
    0 -41.656137 -0.303024 61.957806 -0.997437 0.065600 0.028581 0 0
    0 -38.491729 21.282348 52.855078 -0.125181 0.990657 0.054119 0 0
  phy
    0 41.319723 11.750623 -22.258455 0.994676 0.103039 -0.001687 0 0
    0 41.659268 4.598070 -60.202901 0.996050 0.067984 -0.057116 0 0
    0 40.406045 19.700973 -18.346717 0.986057 0.166392 -0.002325 0 0
  phy
    0 42.388420 -0.313897 60.191873 0.999455 0.031383 0.010237 0 0
    0 42.388425 -0.445442 45.908916 0.999278 -0.037482 -0.006187 0 0
    0 41.319723 11.750623 -22.258455 0.994676 0.103039 -0.001687 0 0
  phy
    0 39.112366 23.409116 -30.255872 0.109231 0.994016 -0.001021 0 0
    0 38.144389 4.994514 -94.710987 0.594188 -0.013094 -0.804220 0 0
    0 35.650524 20.722029 -67.904483 0.085095 0.984610 -0.152647 0 0
  phy
    0 41.659268 4.598070 -60.202901 0.996050 0.067984 -0.057116 0 0
    0 38.144389 4.994514 -94.710987 0.594188 -0.013094 -0.804220 0 0
    0 39.112366 23.409116 -30.255872 0.109231 0.994016 -0.001021 0 0
  phy
    0 39.112366 23.409116 -30.255872 0.109231 0.994016 -0.001021 0 0
    0 -38.439364 23.408998 -30.255914 -0.141508 0.989505 -0.029247 0 0
    0 -38.491729 21.282348 52.855078 -0.125181 0.990657 0.054119 0 0
  phy
    0 39.112366 23.409116 -30.255872 0.109231 0.994016 -0.001021 0 0
    0 -38.491729 21.282348 52.855078 -0.125181 0.990657 0.054119 0 0
    0 39.109855 21.282466 52.855121 0.162118 0.983512 0.080140 0 0
  phy
    0 40.406045 19.700973 -18.346717 0.986057 0.166392 -0.002325 0 0
    0 41.659268 4.598070 -60.202901 0.996050 0.067984 -0.057116 0 0
    0 39.112366 23.409116 -30.255872 0.109231 0.994016 -0.001021 0 0
  phy
    0 -38.439364 23.408998 -30.255914 -0.141508 0.989505 -0.029247 0 0
    0 39.112366 23.409116 -30.255872 0.109231 0.994016 -0.001021 0 0
    0 35.650524 20.722029 -67.904483 0.085095 0.984610 -0.152647 0 0
  phy
    0 39.112366 23.409116 -30.255872 0.109231 0.994016 -0.001021 0 0
    0 39.109855 21.282466 52.855121 0.162118 0.983512 0.080140 0 0
    0 40.406045 19.700973 -18.346717 0.986057 0.166392 -0.002325 0 0
  phy
    0 40.406045 19.700973 -18.346717 0.986057 0.166392 -0.002325 0 0
    0 39.109855 21.282466 52.855121 0.162118 0.983512 0.080140 0 0
    0 40.406012 17.711055 44.287683 0.987880 0.154614 0.013667 0 0
  phy
    0 35.935413 8.148021 111.151314 0.377549 0.402347 0.834011 0 0
    0 36.871619 -3.704475 110.840946 0.179691 -0.920662 0.346544 0 0
    0 39.932653 -0.036067 96.634263 0.985684 0.135598 0.100196 0 0
  phy
    0 39.932653 -0.036067 96.634263 0.985684 0.135598 0.100196 0 0
    0 36.871619 -3.704475 110.840946 0.179691 -0.920662 0.346544 0 0
    0 39.186191 -6.604447 97.727151 0.694570 -0.688236 0.209530 0 0
  phy
    0 23.749987 15.961055 93.538200 0.003800 0.985489 0.169696 0 0
    0 -23.749961 15.960983 93.538167 -0.002103 0.988437 0.151619 0 0
    0 0.251282 10.653488 115.452070 -0.000002 0.804494 0.593961 0 0
  phy
    0 -23.749961 15.960983 93.538167 -0.002103 0.988437 0.151619 0 0
    0 23.749987 15.961055 93.538200 0.003800 0.985489 0.169696 0 0
    0 39.109855 21.282466 52.855121 0.162118 0.983512 0.080140 0 0
  phy
    0 28.412110 -25.257221 -16.706712 0.769867 -0.638202 -0.002034 0 0
    0 37.675019 -13.156602 -35.857880 0.875349 -0.481663 -0.042019 0 0
    0 40.941783 -8.071945 42.179317 0.878969 -0.476822 0.007319 0 0
  phy
    0 40.941783 -8.071945 42.179317 0.878969 -0.476822 0.007319 0 0
    0 25.060982 -28.540389 16.677224 0.201111 -0.969011 0.143430 0 0
    0 28.412110 -25.257221 -16.706712 0.769867 -0.638202 -0.002034 0 0
  phy
    0 25.087029 -26.968892 -29.607639 0.072681 -0.977108 -0.199943 0 0
    0 37.675019 -13.156602 -35.857880 0.875349 -0.481663 -0.042019 0 0
    0 28.412110 -25.257221 -16.706712 0.769867 -0.638202 -0.002034 0 0
  phy
    0 28.412110 -25.257221 -16.706712 0.769867 -0.638202 -0.002034 0 0
    0 25.060982 -28.540389 16.677224 0.201111 -0.969011 0.143430 0 0
    0 25.087029 -26.968892 -29.607639 0.072681 -0.977108 -0.199943 0 0
  phy
    0 -38.568018 -7.355227 94.628761 -0.812711 -0.580344 0.051972 0 0
    0 -40.323542 -9.123112 42.151749 -0.869631 -0.493606 0.009781 0 0
    0 -24.387881 -28.540455 16.677198 -0.162851 -0.979884 0.115352 0 0
  phy
    0 -38.568018 -7.355227 94.628761 -0.812711 -0.580344 0.051972 0 0
    0 -24.387881 -28.540455 16.677198 -0.162851 -0.979884 0.115352 0 0
    0 -38.568016 -6.604564 97.727104 -0.663184 -0.716670 0.215803 0 0
  phy
    0 -35.317306 8.147911 111.151267 -0.378533 0.402220 0.833626 0 0
    0 0.249233 -5.397593 115.183319 0.000000 -0.487267 0.873253 0 0
    0 0.251282 10.653488 115.452070 -0.000002 0.804494 0.593961 0 0
  phy
    0 -38.491729 21.282348 52.855078 -0.125181 0.990657 0.054119 0 0
    0 -23.749961 15.960983 93.538167 -0.002103 0.988437 0.151619 0 0
    0 39.109855 21.282466 52.855121 0.162118 0.983512 0.080140 0 0
  phy
    0 -37.471262 4.994395 -94.711052 -0.667412 0.083912 -0.739946 0 0
    0 -38.439364 23.408998 -30.255914 -0.141508 0.989505 -0.029247 0 0
    0 -34.977475 20.721919 -67.904530 -0.096846 0.964323 -0.246380 0 0
  phy
    0 -38.439364 23.408998 -30.255914 -0.141508 0.989505 -0.029247 0 0
    0 -37.471262 4.994395 -94.711052 -0.667412 0.083912 -0.739946 0 0
    0 -40.986181 4.597941 -60.202948 -0.996152 -0.067593 -0.055797 0 0
  phy
    0 -38.439364 23.408998 -30.255914 -0.141508 0.989505 -0.029247 0 0
    0 35.650524 20.722029 -67.904483 0.085095 0.984610 -0.152647 0 0
    0 -34.977475 20.721919 -67.904530 -0.096846 0.964323 -0.246380 0 0
  phy
    0 35.650524 20.722029 -67.904483 0.085095 0.984610 -0.152647 0 0
    0 35.650552 10.720897 -94.084389 0.032074 0.860762 -0.507997 0 0
    0 -34.977475 20.721919 -67.904530 -0.096846 0.964323 -0.246380 0 0
  phy
    0 -34.977475 20.721919 -67.904530 -0.096846 0.964323 -0.246380 0 0
    0 35.650552 10.720897 -94.084389 0.032074 0.860762 -0.507997 0 0
    0 -34.977446 10.720787 -94.084436 -0.063322 0.863340 -0.500635 0 0
  phy
    0 -37.471262 4.994395 -94.711052 -0.667412 0.083912 -0.739946 0 0
    0 35.650552 10.720897 -94.084389 0.032074 0.860762 -0.507997 0 0
    0 38.144389 4.994514 -94.710987 0.594188 -0.013094 -0.804220 0 0
  phy
    0 35.650552 10.720897 -94.084389 0.032074 0.860762 -0.507997 0 0
    0 -37.471262 4.994395 -94.711052 -0.667412 0.083912 -0.739946 0 0
    0 -34.977446 10.720787 -94.084436 -0.063322 0.863340 -0.500635 0 0
  phy
    0 35.650524 20.722029 -67.904483 0.085095 0.984610 -0.152647 0 0
    0 38.144389 4.994514 -94.710987 0.594188 -0.013094 -0.804220 0 0
    0 35.650552 10.720897 -94.084389 0.032074 0.860762 -0.507997 0 0
  phy
    0 0.251282 10.653488 115.452070 -0.000002 0.804494 0.593961 0 0
    0 0.249233 -5.397593 115.183319 0.000000 -0.487267 0.873253 0 0
    0 35.935413 8.148021 111.151314 0.377549 0.402347 0.834011 0 0
  phy
    0 35.935413 8.148021 111.151314 0.377549 0.402347 0.834011 0 0
    0 0.249233 -5.397593 115.183319 0.000000 -0.487267 0.873253 0 0
    0 36.871619 -3.704475 110.840946 0.179691 -0.920662 0.346544 0 0
  phy
    0 41.559874 2.771025 -53.412420 0.964765 -0.260356 -0.037993 0 0
    0 42.388425 -0.445442 45.908916 0.999278 -0.037482 -0.006187 0 0
    0 41.699761 0.412613 -21.298615 0.983618 -0.179720 -0.014026 0 0
  phy
    0 41.659268 4.598070 -60.202901 0.996050 0.067984 -0.057116 0 0
    0 42.388425 -0.445442 45.908916 0.999278 -0.037482 -0.006187 0 0
    0 41.559874 2.771025 -53.412420 0.964765 -0.260356 -0.037993 0 0
  phy
    0 41.559874 2.771025 -53.412420 0.964765 -0.260356 -0.037993 0 0
    0 41.699761 0.412613 -21.298615 0.983618 -0.179720 -0.014026 0 0
    0 40.941783 -8.071945 42.179317 0.878969 -0.476822 0.007319 0 0
  phy
    0 40.941783 -8.071945 42.179317 0.878969 -0.476822 0.007319 0 0
    0 37.675019 -13.156602 -35.857880 0.875349 -0.481663 -0.042019 0 0
    0 41.559874 2.771025 -53.412420 0.964765 -0.260356 -0.037993 0 0
  phy
    0 41.559874 2.771025 -53.412420 0.964765 -0.260356 -0.037993 0 0
    0 35.717325 -6.695532 -91.730084 0.225334 -0.884672 -0.408143 0 0
    0 41.659268 4.598070 -60.202901 0.996050 0.067984 -0.057116 0 0
  phy
    0 41.559874 2.771025 -53.412420 0.964765 -0.260356 -0.037993 0 0
    0 37.675019 -13.156602 -35.857880 0.875349 -0.481663 -0.042019 0 0
    0 35.717325 -6.695532 -91.730084 0.225334 -0.884672 -0.408143 0 0
  phy
    0 -34.826442 -8.836815 -85.169011 -0.190736 -0.939056 -0.285997 0 0
    0 35.717325 -6.695532 -91.730084 0.225334 -0.884672 -0.408143 0 0
    0 25.087029 -26.968892 -29.607639 0.072681 -0.977108 -0.199943 0 0
  phy
    0 25.087029 -26.968892 -29.607639 0.072681 -0.977108 -0.199943 0 0
    0 35.717325 -6.695532 -91.730084 0.225334 -0.884672 -0.408143 0 0
    0 35.499590 -8.836722 -85.168955 0.710803 -0.695461 -0.105329 0 0
  phy
    0 25.087029 -26.968892 -29.607639 0.072681 -0.977108 -0.199943 0 0
    0 -24.413901 -26.968944 -29.607714 -0.076177 -0.980369 -0.181860 0 0
    0 -34.826442 -8.836815 -85.169011 -0.190736 -0.939056 -0.285997 0 0
  phy
    0 35.499590 -8.836722 -85.168955 0.710803 -0.695461 -0.105329 0 0
    0 37.675019 -13.156602 -35.857880 0.875349 -0.481663 -0.042019 0 0
    0 25.087029 -26.968892 -29.607639 0.072681 -0.977108 -0.199943 0 0
  phy
    0 -24.387881 -28.540455 16.677198 -0.162851 -0.979884 0.115352 0 0
    0 -24.413901 -26.968944 -29.607714 -0.076177 -0.980369 -0.181860 0 0
    0 25.087029 -26.968892 -29.607639 0.072681 -0.977108 -0.199943 0 0
  phy
    0 25.087029 -26.968892 -29.607639 0.072681 -0.977108 -0.199943 0 0
    0 25.060982 -28.540389 16.677224 0.201111 -0.969011 0.143430 0 0
    0 -24.387881 -28.540455 16.677198 -0.162851 -0.979884 0.115352 0 0
  phy
    0 -40.323542 -9.123112 42.151749 -0.869631 -0.493606 0.009781 0 0
    0 -41.026703 0.412489 -21.298662 -0.976611 -0.213851 -0.022345 0 0
    0 -37.001899 -13.156719 -35.857923 -0.892947 -0.448446 -0.039266 0 0
  phy
    0 -27.738976 -25.257315 -16.706754 -0.749954 -0.660856 -0.028954 0 0
    0 -40.323542 -9.123112 42.151749 -0.869631 -0.493606 0.009781 0 0
    0 -37.001899 -13.156719 -35.857923 -0.892947 -0.448446 -0.039266 0 0
  phy
    0 -40.323542 -9.123112 42.151749 -0.869631 -0.493606 0.009781 0 0
    0 -27.738976 -25.257315 -16.706754 -0.749954 -0.660856 -0.028954 0 0
    0 -24.387881 -28.540455 16.677198 -0.162851 -0.979884 0.115352 0 0
  phy
    0 -35.044180 -6.695622 -91.730150 -0.242094 -0.463289 -0.852499 0 0
    0 -37.471262 4.994395 -94.711052 -0.667412 0.083912 -0.739946 0 0
    0 38.144389 4.994514 -94.710987 0.594188 -0.013094 -0.804220 0 0
  phy
    0 -37.471262 4.994395 -94.711052 -0.667412 0.083912 -0.739946 0 0
    0 -34.977475 20.721919 -67.904530 -0.096846 0.964323 -0.246380 0 0
    0 -34.977446 10.720787 -94.084436 -0.063322 0.863340 -0.500635 0 0
  phy
    0 -37.471262 4.994395 -94.711052 -0.667412 0.083912 -0.739946 0 0
    0 -35.044180 -6.695622 -91.730150 -0.242094 -0.463289 -0.852499 0 0
    0 -40.986181 4.597941 -60.202948 -0.996152 -0.067593 -0.055797 0 0
  phy
    0 -35.044180 -6.695622 -91.730150 -0.242094 -0.463289 -0.852499 0 0
    0 -34.826442 -8.836815 -85.169011 -0.190736 -0.939056 -0.285997 0 0
    0 -40.986181 4.597941 -60.202948 -0.996152 -0.067593 -0.055797 0 0
  phy
    0 -40.986181 4.597941 -60.202948 -0.996152 -0.067593 -0.055797 0 0
    0 -34.826442 -8.836815 -85.169011 -0.190736 -0.939056 -0.285997 0 0
    0 -37.001899 -13.156719 -35.857923 -0.892947 -0.448446 -0.039266 0 0
  phy
    0 -35.044180 -6.695622 -91.730150 -0.242094 -0.463289 -0.852499 0 0
    0 35.717325 -6.695532 -91.730084 0.225334 -0.884672 -0.408143 0 0
    0 -34.826442 -8.836815 -85.169011 -0.190736 -0.939056 -0.285997 0 0
  phy
    0 -34.826442 -8.836815 -85.169011 -0.190736 -0.939056 -0.285997 0 0
    0 -27.738976 -25.257315 -16.706754 -0.749954 -0.660856 -0.028954 0 0
    0 -37.001899 -13.156719 -35.857923 -0.892947 -0.448446 -0.039266 0 0
  phy
    0 -27.738976 -25.257315 -16.706754 -0.749954 -0.660856 -0.028954 0 0
    0 -34.826442 -8.836815 -85.169011 -0.190736 -0.939056 -0.285997 0 0
    0 -24.413901 -26.968944 -29.607714 -0.076177 -0.980369 -0.181860 0 0
  phy
    0 -41.026703 0.412489 -21.298662 -0.976611 -0.213851 -0.022345 0 0
    0 -40.986181 4.597941 -60.202948 -0.996152 -0.067593 -0.055797 0 0
    0 -37.001899 -13.156719 -35.857923 -0.892947 -0.448446 -0.039266 0 0
  phy
    0 41.699761 0.412613 -21.298615 0.983618 -0.179720 -0.014026 0 0
    0 42.388425 -0.445442 45.908916 0.999278 -0.037482 -0.006187 0 0
    0 40.941783 -8.071945 42.179317 0.878969 -0.476822 0.007319 0 0
  phy
    0 40.941783 -8.071945 42.179317 0.878969 -0.476822 0.007319 0 0
    0 42.388425 -0.445442 45.908916 0.999278 -0.037482 -0.006187 0 0
    0 42.388420 -0.313897 60.191873 0.999455 0.031383 0.010237 0 0
  phy
    0 42.388420 -0.313897 60.191873 0.999455 0.031383 0.010237 0 0
    0 39.186191 -7.355110 94.628803 0.822109 -0.567852 0.040985 0 0
    0 40.941783 -8.071945 42.179317 0.878969 -0.476822 0.007319 0 0
  phy
    0 39.186191 -7.355110 94.628803 0.822109 -0.567852 0.040985 0 0
    0 25.060982 -28.540389 16.677224 0.201111 -0.969011 0.143430 0 0
    0 40.941783 -8.071945 42.179317 0.878969 -0.476822 0.007319 0 0
  phy
    0 39.186191 -6.604447 97.727151 0.694570 -0.688236 0.209530 0 0
    0 39.186191 -7.355110 94.628803 0.822109 -0.567852 0.040985 0 0
    0 42.388420 -0.313897 60.191873 0.999455 0.031383 0.010237 0 0
  phy
    0 39.186191 -6.604447 97.727151 0.694570 -0.688236 0.209530 0 0
    0 25.060982 -28.540389 16.677224 0.201111 -0.969011 0.143430 0 0
    0 39.186191 -7.355110 94.628803 0.822109 -0.567852 0.040985 0 0
  phy
    0 36.871619 -3.704475 110.840946 0.179691 -0.920662 0.346544 0 0
    0 25.060982 -28.540389 16.677224 0.201111 -0.969011 0.143430 0 0
    0 39.186191 -6.604447 97.727151 0.694570 -0.688236 0.209530 0 0
  phy
    0 35.717325 -6.695532 -91.730084 0.225334 -0.884672 -0.408143 0 0
    0 37.675019 -13.156602 -35.857880 0.875349 -0.481663 -0.042019 0 0
    0 35.499590 -8.836722 -85.168955 0.710803 -0.695461 -0.105329 0 0
  phy
    0 36.871619 -3.704475 110.840946 0.179691 -0.920662 0.346544 0 0
    0 0.249233 -5.397593 115.183319 0.000000 -0.487267 0.873253 0 0
    0 -0.244302 -12.058540 96.562858 0.000001 -0.970993 0.239108 0 0
  phy
    0 -0.244302 -12.058540 96.562858 0.000001 -0.970993 0.239108 0 0
    0 25.060982 -28.540389 16.677224 0.201111 -0.969011 0.143430 0 0
    0 36.871619 -3.704475 110.840946 0.179691 -0.920662 0.346544 0 0
  phy
    0 -24.387881 -28.540455 16.677198 -0.162851 -0.979884 0.115352 0 0
    0 25.060982 -28.540389 16.677224 0.201111 -0.969011 0.143430 0 0
    0 -0.244302 -12.058540 96.562858 0.000001 -0.970993 0.239108 0 0
  phy
    0 -27.738976 -25.257315 -16.706754 -0.749954 -0.660856 -0.028954 0 0
    0 -24.413901 -26.968944 -29.607714 -0.076177 -0.980369 -0.181860 0 0
    0 -24.387881 -28.540455 16.677198 -0.162851 -0.979884 0.115352 0 0
  phy
    0 35.717325 -6.695532 -91.730084 0.225334 -0.884672 -0.408143 0 0
    0 -35.044180 -6.695622 -91.730150 -0.242094 -0.463289 -0.852499 0 0
    0 38.144389 4.994514 -94.710987 0.594188 -0.013094 -0.804220 0 0
  phy
    0 35.717325 -6.695532 -91.730084 0.225334 -0.884672 -0.408143 0 0
    0 38.144389 4.994514 -94.710987 0.594188 -0.013094 -0.804220 0 0
    0 41.659268 4.598070 -60.202901 0.996050 0.067984 -0.057116 0 0
end
