// Created by Crowbar 0.74
version 1
nodes
  0 "Rig_Buggy.Frame" -1
  1 "Rig_Buggy.Shock_RR_Sleeve" 0
  2 "Rig_Buggy.Shock_FR_Sleeve" 0
  3 "Rig_Buggy.Axel_RR" 0
  4 "Rig_Buggy.Wheel_RR" 3
  5 "Rig_Buggy.Shock_RR_Piston" 3
  6 "Rig_Buggy.Steer_Arm" 0
  7 "Rig_Buggy.Shock_FL_Sleeve" 0
  8 "Rig_Buggy.Axel_RL" 0
  9 "Rig_Buggy.Wheel_RL" 8
  10 "Rig_Buggy.Shock_RL_Piston" 8
  11 "Rig_Buggy.Shock_RL_Sleeve" 0
  12 "Rig_Buggy.view" 0
  13 "Rig_Buggy.Gun_Base" 0
  14 "Rig_Buggy.Gun_Parent" 13
  15 "Rig_Buggy.Gun" 14
  16 "Rig_Buggy.Speedo" 0
  17 "Rig_Buggy.Wheel_FR_Turn_parent" 0
  18 "Rig_Buggy.Wheel_FR_Turn" 17
  19 "Rig_Buggy.Wheel_FR_Rotate" 18
  20 "Rig_Buggy.Axel_FR" 0
  21 "Rig_Buggy.Shock_FR_Piston" 20
  22 "Rig_Buggy.Wheel_FL_Turn_parent" 0
  23 "Rig_Buggy.Wheel_FL_Turn" 22
  24 "Rig_Buggy.Wheel_FL_Rotate" 23
  25 "Rig_Buggy.Axel_FL" 0
  26 "Rig_Buggy.Shock_FL_Piston" 25
  27 "Rig_Buggy.Steer_Wheel" 0
  28 "Rig_Buggy.lid" 0
  29 "Rig_Buggy.latch" 28
  30 "Rig_Buggy.gun_cylinders" 15
end
skeleton
  time 0
    0 0.000000 35.485321 34.046600 1.570796 0.000000 0.000000
    1 -26.737438 9.978985 -63.177883 0.007403 -0.264986 -1.495672
    2 -26.847315 6.445412 78.520195 0.268794 0.005691 -3.065482
    3 -4.313085 -13.578558 -57.058857 -3.141593 0.000000 -3.141593
    4 38.013966 0.147196 -0.193550 -3.141593 0.000000 3.141593
    5 20.686598 0.469204 -0.164131 -3.110558 -0.264987 1.495673
    6 0.016516 -11.367849 70.181595 0.000000 0.000000 0.000000
    7 26.847315 6.445412 78.520195 2.876405 -0.019503 -0.071313
    8 4.313085 -13.578558 -57.058857 0.000000 0.000000 0.000000
    9 38.013966 0.147198 0.193550 -3.141593 0.000000 -3.141593
    10 20.605600 0.473753 0.167809 -0.024410 0.265136 1.494187
    11 26.690825 9.982029 -63.178234 0.007043 -0.265136 -1.647406
    12 9.429615 20.728470 -11.982517 0.000000 -1.570796 -1.570796
    13 -16.873423 9.784611 52.968445 0.000000 0.000000 0.000000
    14 0.020790 5.827110 -0.224472 0.000000 -1.570796 -1.570796
    15 0.000002 0.000002 0.000000 0.000000 0.000000 0.000000
    16 5.664327 9.038128 28.830690 -1.230457 0.000000 0.000000
    17 -34.710712 -15.133160 78.859528 0.000000 0.000000 0.000000
    18 0.000000 0.217955 -0.009628 0.000000 0.000000 0.000000
    19 -6.579208 0.000000 -0.000004 0.000000 0.000000 0.000000
    20 -14.319742 -15.458982 88.923615 -1.655486 0.445706 -2.888000
    21 11.574886 -2.180904 1.427973 -1.940707 -0.171070 2.830508
    22 34.710712 -15.133160 78.859528 -3.141593 0.000000 3.141593
    23 0.000000 0.217958 0.009628 0.000000 0.000000 0.000000
    24 -6.579208 0.000002 0.000000 0.000000 0.000000 0.000000
    25 14.319742 -15.458982 88.923615 -0.057762 0.445706 -0.253592
    26 11.620373 -2.905371 2.149563 -0.263171 -0.211841 0.098316
    27 8.930669 9.895988 16.516954 -1.178097 0.000000 0.000000
    28 -10.478000 3.596272 -57.675579 0.000000 0.000000 0.000000
    29 20.682631 -0.459137 -0.000008 0.000000 0.000000 0.000000
    30 -8.438859 0.038662 0.559093 1.570796 0.000000 1.570796
end
triangles
barracuda
  0 34.904537 2.998058 47.370914 0.004520 -0.131578 0.991296 0.717931 0.517619 1 0 1.000000
  0 31.727098 4.715855 47.613419 0.004520 -0.131578 0.991296 0.705832 0.511657 1 0 1.000000
  0 31.706930 0.115204 47.002853 0.004520 -0.131578 0.991296 0.706431 0.528867 1 0 1.000000
barracuda
  0 30.072487 44.726837 36.650799 -0.209853 -0.022093 0.977483 0.423532 0.363519 1 0 1.000000
  0 34.078964 17.391556 36.893127 -0.199927 0.137308 0.970142 0.440610 0.465123 1 0 1.000000
  0 34.524410 48.696140 37.712959 -0.209933 -0.022105 0.977466 0.439829 0.348265 1 0 1.000000
barracuda
  0 29.539368 17.977018 35.946445 -0.199942 0.137302 0.970140 0.423631 0.463386 1 0 1.000000
  0 34.078964 17.391556 36.893127 -0.199927 0.137308 0.970142 0.440610 0.465123 1 0 1.000000
  0 30.072487 44.726837 36.650799 -0.209853 -0.022093 0.977483 0.423532 0.363519 1 0 1.000000
barracuda
  0 29.378691 9.485231 38.438873 -0.274528 0.616629 0.737836 0.423601 0.494829 1 0 1.000000
  0 34.078964 17.391556 36.893127 -0.199927 0.137308 0.970142 0.440610 0.465123 1 0 1.000000
  0 29.539368 17.977018 35.946445 -0.199942 0.137302 0.970140 0.423631 0.463386 1 0 1.000000
barracuda
  0 33.960876 9.689821 39.407394 -0.274517 0.616628 0.737842 0.440853 0.493601 1 0 1.000000
  0 34.078964 17.391556 36.893127 -0.199927 0.137308 0.970142 0.440610 0.465123 1 0 1.000000
  0 29.378691 9.485231 38.438873 -0.274528 0.616629 0.737836 0.423601 0.494829 1 0 1.000000
barracuda
  0 29.378691 9.485231 38.438873 -0.274528 0.616629 0.737836 0.423601 0.494829 1 0 1.000000
  0 33.126102 7.024166 46.180592 -0.366164 0.755151 0.543757 0.444954 0.518994 1 0 1.000000
  0 33.960876 9.689821 39.407394 -0.274517 0.616628 0.737842 0.440853 0.493601 1 0 1.000000
barracuda
  0 31.727098 4.715855 47.613419 -0.366147 0.755155 0.543762 0.441464 0.525784 1 0 1.000000
  0 33.126102 7.024166 46.180592 -0.366164 0.755151 0.543757 0.444954 0.518994 1 0 1.000000
  0 29.378691 9.485231 38.438873 -0.274528 0.616629 0.737836 0.423601 0.494829 1 0 1.000000
barracuda
  0 31.727098 4.715855 47.613419 -0.366147 0.755155 0.543762 0.441464 0.525784 1 0 1.000000
  0 33.772701 5.634741 47.962345 -0.401013 0.646133 0.649384 0.449136 0.524853 1 0 1.000000
  0 33.126102 7.024166 46.180592 -0.366164 0.755151 0.543757 0.444954 0.518994 1 0 1.000000
barracuda
  0 32.160316 21.194723 42.862770 0.965927 -0.006775 0.258724 0.227576 0.246459 1 0 1.000000
  0 32.160316 15.012768 42.700893 0.965927 -0.006775 0.258726 0.229002 0.276024 1 0 1.000000
  0 32.468319 21.224813 41.713665 0.965927 -0.006775 0.258724 0.222080 0.246722 1 0 1.000000
barracuda
  0 32.468319 21.224813 41.713665 0.965927 -0.006775 0.258724 0.222080 0.246722 1 0 1.000000
  0 32.160316 15.012768 42.700893 0.965927 -0.006775 0.258726 0.229002 0.276024 1 0 1.000000
  0 32.468319 15.042858 41.551788 0.965927 -0.006775 0.258726 0.223506 0.276291 1 0 1.000000
barracuda
  0 39.451820 48.751064 45.503765 -0.013594 -0.998586 -0.051393 0.324860 0.567255 1 0 1.000000
  0 39.831699 48.833668 43.798283 -0.013594 -0.998586 -0.051393 0.328727 0.558169 1 0 1.000000
  0 40.398472 48.803909 44.226555 -0.013594 -0.998586 -0.051393 0.324714 0.558277 1 0 1.000000
barracuda
  0 40.449226 53.583832 44.397663 0.798530 -0.027170 0.601341 0.298608 0.558418 1 0 1.000000
  0 39.451820 48.751064 45.503765 0.798483 -0.027148 0.601404 0.324860 0.567255 1 0 1.000000
  0 40.398472 48.803909 44.226555 0.798497 -0.027156 0.601386 0.324714 0.558277 1 0 1.000000
barracuda
  0 39.531036 53.634857 45.596497 0.798514 -0.027161 0.601364 0.298107 0.566679 1 0 1.000000
  0 39.451820 48.751064 45.503765 0.798483 -0.027148 0.601404 0.324860 0.567255 1 0 1.000000
  0 40.449226 53.583832 44.397663 0.798530 -0.027170 0.601341 0.298608 0.558418 1 0 1.000000
barracuda
  0 37.134228 -2.901978 20.260363 0.000000 -0.897403 -0.441211 0.826495 0.563828 1 0 1.000000
  0 33.200249 -4.588192 23.690039 0.000000 -0.943471 -0.331454 0.813733 0.578678 1 0 1.000000
  0 33.508099 -2.901978 20.260363 0.000000 -0.897403 -0.441211 0.826674 0.577357 1 0 1.000000
barracuda
  0 38.833271 -4.588192 23.690039 0.000000 -0.943535 -0.331272 0.813454 0.557661 1 0 1.000000
  0 33.200249 -4.588192 23.690039 0.000000 -0.943471 -0.331454 0.813733 0.578678 1 0 1.000000
  0 37.134228 -2.901978 20.260363 0.000000 -0.897403 -0.441211 0.826495 0.563828 1 0 1.000000
barracuda
  0 38.833271 -4.588192 23.690039 0.000000 -0.943535 -0.331272 0.813454 0.557661 1 0 1.000000
  0 33.320835 -6.079475 30.410944 0.000000 -0.990089 -0.140444 0.788514 0.578563 1 0 1.000000
  0 33.200249 -4.588192 23.690039 0.000000 -0.943471 -0.331454 0.813733 0.578678 1 0 1.000000
barracuda
  0 40.251736 -6.079475 30.410948 0.000000 -0.990032 -0.140844 0.788174 0.552703 1 0 1.000000
  0 33.320835 -6.079475 30.410944 0.000000 -0.990089 -0.140444 0.788514 0.578563 1 0 1.000000
  0 38.833271 -4.588192 23.690039 0.000000 -0.943535 -0.331272 0.813454 0.557661 1 0 1.000000
barracuda
  0 40.251736 -6.079475 30.410948 0.000000 -0.990032 -0.140844 0.788174 0.552703 1 0 1.000000
  0 33.670506 -6.602501 38.565914 0.000000 -0.993368 0.114978 0.758029 0.577663 1 0 1.000000
  0 33.320835 -6.079475 30.410944 0.000000 -0.990089 -0.140444 0.788514 0.578563 1 0 1.000000
barracuda
  0 40.050869 -6.602501 38.565914 0.000000 -0.993370 0.114957 0.757710 0.553858 1 0 1.000000
  0 33.670506 -6.602501 38.565914 0.000000 -0.993368 0.114978 0.758029 0.577663 1 0 1.000000
  0 40.251736 -6.079475 30.410948 0.000000 -0.990032 -0.140844 0.788174 0.552703 1 0 1.000000
barracuda
  0 38.216282 -4.290344 46.189209 0.000000 -0.956952 0.290245 0.729597 0.561077 1 0 1.000000
  0 33.670506 -6.602501 38.565914 0.000000 -0.993368 0.114978 0.758029 0.577663 1 0 1.000000
  0 40.050869 -6.602501 38.565914 0.000000 -0.993370 0.114957 0.757710 0.553858 1 0 1.000000
barracuda
  0 33.804855 -4.290348 46.189213 0.000001 -0.956953 0.290244 0.729816 0.577536 1 0 1.000000
  0 33.670506 -6.602501 38.565914 0.000000 -0.993368 0.114978 0.758029 0.577663 1 0 1.000000
  0 38.216282 -4.290344 46.189209 0.000000 -0.956952 0.290245 0.729597 0.561077 1 0 1.000000
barracuda
  0 30.072487 44.726837 36.650799 -0.629170 0.763873 -0.143677 0.649040 0.360010 1 0 1.000000
  0 34.524410 48.696140 37.712959 -0.629139 0.763891 -0.143719 0.650480 0.344025 1 0 1.000000
  0 30.052916 43.954903 32.086712 -0.629078 0.763926 -0.143797 0.632951 0.363878 1 0 1.000000
barracuda
  0 30.052916 43.954903 32.086712 -0.629078 0.763926 -0.143797 0.632951 0.363878 1 0 1.000000
  0 34.524410 48.696140 37.712959 -0.629139 0.763891 -0.143719 0.650480 0.344025 1 0 1.000000
  0 34.698402 47.058342 28.789215 -0.629184 0.763865 -0.143662 0.617259 0.351362 1 0 1.000000
barracuda
  0 39.328697 53.399349 44.272961 0.499372 -0.862821 0.078531 0.299739 0.551124 1 0 1.000000
  0 39.653755 53.452618 42.801716 0.499440 -0.862784 0.078507 0.300035 0.543163 1 0 1.000000
  0 39.888832 53.695671 43.977295 0.499377 -0.862819 0.078528 0.296550 0.548509 1 0 1.000000
barracuda
  0 39.888832 53.695671 43.977295 0.499377 -0.862819 0.078528 0.296550 0.548509 1 0 1.000000
  0 39.653755 53.452618 42.801716 0.499440 -0.862784 0.078507 0.300035 0.543163 1 0 1.000000
  0 40.213898 53.750931 42.506111 0.499445 -0.862782 0.078505 0.298250 0.539978 1 0 1.000000
barracuda
  0 40.213898 53.750931 42.506111 0.476179 -0.035868 0.878616 0.298250 0.539978 1 0 1.000000
  0 39.653755 53.452618 42.801716 0.476216 -0.035861 0.878597 0.300035 0.543163 1 0 1.000000
  0 40.155636 48.904106 42.344032 0.476091 -0.035882 0.878664 0.324171 0.539866 1 0 1.000000
barracuda
  0 40.155636 48.904106 42.344032 0.476091 -0.035882 0.878664 0.324171 0.539866 1 0 1.000000
  0 39.653755 53.452618 42.801716 0.476216 -0.035861 0.878597 0.300035 0.543163 1 0 1.000000
  0 39.595505 49.182690 42.654747 0.476153 -0.035871 0.878630 0.322475 0.543086 1 0 1.000000
barracuda
  0 40.155636 48.904106 42.344032 0.508998 0.846992 0.153379 0.324171 0.539866 1 0 1.000000
  0 39.595505 49.182690 42.654747 0.508824 0.847085 0.153443 0.322475 0.543086 1 0 1.000000
  0 39.831699 48.833668 43.798283 0.509570 0.846687 0.153166 0.326141 0.548270 1 0 1.000000
barracuda
  0 39.831699 48.833668 43.798283 0.509570 0.846687 0.153166 0.326141 0.548270 1 0 1.000000
  0 39.595505 49.182690 42.654747 0.508824 0.847085 0.153443 0.322475 0.543086 1 0 1.000000
  0 39.271564 49.116104 44.109108 0.509314 0.846824 0.153259 0.322979 0.550947 1 0 1.000000
barracuda
  0 39.271564 49.116104 44.109108 -0.476091 0.038888 -0.878536 0.322979 0.550947 1 0 1.000000
  0 39.328697 53.399349 44.272961 -0.476136 0.038877 -0.878512 0.299739 0.551124 1 0 1.000000
  0 39.831699 48.833668 43.798283 -0.476069 0.038892 -0.878547 0.324605 0.554404 1 0 1.000000
barracuda
  0 39.831699 48.833668 43.798283 -0.476069 0.038892 -0.878547 0.324605 0.554404 1 0 1.000000
  0 39.328697 53.399349 44.272961 -0.476136 0.038877 -0.878512 0.299739 0.551124 1 0 1.000000
  0 39.888832 53.695671 43.977295 -0.476136 0.038877 -0.878512 0.298135 0.554587 1 0 1.000000
barracuda
  0 39.531036 53.634857 45.596497 0.145115 0.986996 0.069142 0.298107 0.566679 1 0 1.000000
  0 40.449226 53.583832 44.397663 0.145115 0.986996 0.069142 0.298608 0.558418 1 0 1.000000
  0 39.888832 53.695671 43.977295 0.145115 0.986996 0.069142 0.294726 0.558242 1 0 1.000000
barracuda
  0 35.210381 4.846786 50.807735 -0.918511 -0.245787 0.309720 0.410070 0.527462 1 0 1.000000
  0 36.784107 2.895054 51.304443 -0.367968 -0.562956 0.740054 0.406253 0.536280 1 0 1.000000
  0 36.456726 4.622509 52.104839 -0.386284 -0.339590 0.857592 0.413316 0.534334 1 0 1.000000
barracuda
  0 35.676601 2.932648 49.868725 -0.844864 -0.497769 0.196039 0.402002 0.531848 1 0 1.000000
  0 36.784107 2.895054 51.304443 -0.367968 -0.562956 0.740054 0.406253 0.536280 1 0 1.000000
  0 35.210381 4.846786 50.807735 -0.918511 -0.245787 0.309720 0.410070 0.527462 1 0 1.000000
barracuda
  0 36.784107 2.895054 51.304443 -0.367968 -0.562956 0.740054 0.406253 0.536280 1 0 1.000000
  0 35.676601 2.932648 49.868725 -0.844864 -0.497769 0.196039 0.402002 0.531848 1 0 1.000000
  0 37.006466 1.942978 50.603630 -0.231783 -0.841119 0.488668 0.402727 0.537241 1 0 1.000000
barracuda
  0 37.006466 1.942978 50.603630 -0.231783 -0.841119 0.488668 0.402727 0.537241 1 0 1.000000
  0 35.676601 2.932648 49.868725 -0.844864 -0.497769 0.196039 0.402002 0.531848 1 0 1.000000
  0 36.057827 2.113930 49.322491 -0.633816 -0.771053 -0.061276 0.399211 0.534057 1 0 1.000000
barracuda
  0 36.955322 1.751266 48.747353 -0.196618 -0.860009 -0.470878 0.397302 0.536905 1 0 1.000000
  0 37.006466 1.942978 50.603630 -0.231783 -0.841119 0.488668 0.402727 0.537241 1 0 1.000000
  0 36.057827 2.113930 49.322491 -0.633816 -0.771053 -0.061276 0.399211 0.534057 1 0 1.000000
barracuda
  0 36.644966 2.393349 48.321949 -0.370669 -0.644935 -0.668329 0.394567 0.535338 1 0 1.000000
  0 36.955322 1.751266 48.747353 -0.196618 -0.860009 -0.470878 0.397302 0.536905 1 0 1.000000
  0 36.057827 2.113930 49.322491 -0.633816 -0.771053 -0.061276 0.399211 0.534057 1 0 1.000000
barracuda
  0 36.057827 2.113930 49.322491 -0.633816 -0.771053 -0.061276 0.399211 0.534057 1 0 1.000000
  0 35.680836 2.969620 48.456821 -0.885901 -0.432342 -0.168108 0.396171 0.529380 1 0 1.000000
  0 36.644966 2.393349 48.321949 -0.370669 -0.644935 -0.668329 0.394567 0.535338 1 0 1.000000
barracuda
  0 35.676601 2.932648 49.868725 -0.844864 -0.497769 0.196039 0.402002 0.531848 1 0 1.000000
  0 35.680836 2.969620 48.456821 -0.885901 -0.432342 -0.168108 0.396171 0.529380 1 0 1.000000
  0 36.057827 2.113930 49.322491 -0.633816 -0.771053 -0.061276 0.399211 0.534057 1 0 1.000000
barracuda
  0 35.680836 2.969620 48.456821 -0.885901 -0.432342 -0.168108 0.396171 0.529380 1 0 1.000000
  0 35.676601 2.932648 49.868725 -0.844864 -0.497769 0.196039 0.402002 0.531848 1 0 1.000000
  0 35.347153 4.906471 48.528442 -0.911419 0.246320 -0.329608 0.401468 0.521404 1 0 1.000000
barracuda
  0 35.347153 4.906471 48.528442 -0.911419 0.246320 -0.329608 0.401468 0.521404 1 0 1.000000
  0 35.676601 2.932648 49.868725 -0.844864 -0.497769 0.196039 0.402002 0.531848 1 0 1.000000
  0 35.210381 4.846786 50.807735 -0.918511 -0.245787 0.309720 0.410070 0.527462 1 0 1.000000
barracuda
  0 35.210381 4.846786 50.807735 -0.918511 -0.245787 0.309720 0.410070 0.527462 1 0 1.000000
  0 35.238647 6.059242 48.558628 -0.862460 -0.070426 -0.501201 0.404971 0.516927 1 0 1.000000
  0 35.347153 4.906471 48.528442 -0.911419 0.246320 -0.329608 0.401468 0.521404 1 0 1.000000
barracuda
  0 35.101875 5.992662 51.101166 -0.928181 -0.157937 0.336952 0.414853 0.524579 1 0 1.000000
  0 35.238647 6.059242 48.558628 -0.862460 -0.070426 -0.501201 0.404971 0.516927 1 0 1.000000
  0 35.210381 4.846786 50.807735 -0.918511 -0.245787 0.309720 0.410070 0.527462 1 0 1.000000
barracuda
  0 36.456726 4.622509 52.104839 -0.386284 -0.339590 0.857592 0.413316 0.534334 1 0 1.000000
  0 35.101875 5.992662 51.101166 -0.928181 -0.157937 0.336952 0.414853 0.524579 1 0 1.000000
  0 35.210381 4.846786 50.807735 -0.918511 -0.245787 0.309720 0.410070 0.527462 1 0 1.000000
barracuda
  0 36.395943 5.959099 52.382881 -0.380598 -0.221149 0.897908 0.419546 0.533213 1 0 1.000000
  0 35.101875 5.992662 51.101166 -0.928181 -0.157937 0.336952 0.414853 0.524579 1 0 1.000000
  0 36.456726 4.622509 52.104839 -0.386284 -0.339590 0.857592 0.413316 0.534334 1 0 1.000000
barracuda
  0 38.962154 4.622908 52.089710 0.236411 -0.336904 0.911376 0.413316 0.544268 1 0 1.000000
  0 36.395943 5.959099 52.382881 -0.380598 -0.221149 0.897908 0.419546 0.533213 1 0 1.000000
  0 36.456726 4.622509 52.104839 -0.386284 -0.339590 0.857592 0.413316 0.534334 1 0 1.000000
barracuda
  0 39.092106 5.959497 52.367756 0.238699 -0.212013 0.947667 0.419195 0.547595 1 0 1.000000
  0 36.395943 5.959099 52.382881 -0.380598 -0.221149 0.897908 0.419546 0.533213 1 0 1.000000
  0 38.962154 4.622908 52.089710 0.236411 -0.336904 0.911376 0.413316 0.544268 1 0 1.000000
barracuda
  0 41.237511 4.801970 50.949677 0.779586 -0.394413 0.486501 0.404823 0.556414 1 0 1.000000
  0 39.092106 5.959497 52.367756 0.238699 -0.212013 0.947667 0.419195 0.547595 1 0 1.000000
  0 38.962154 4.622908 52.089710 0.236411 -0.336904 0.911376 0.413316 0.544268 1 0 1.000000
barracuda
  0 41.367462 5.991558 51.143436 0.828303 -0.185322 0.528743 0.408161 0.561046 1 0 1.000000
  0 39.092106 5.959497 52.367756 0.238699 -0.212013 0.947667 0.419195 0.547595 1 0 1.000000
  0 41.237511 4.801970 50.949677 0.779586 -0.394413 0.486501 0.404823 0.556414 1 0 1.000000
barracuda
  0 41.237511 4.801970 50.949677 0.779586 -0.394413 0.486501 0.404823 0.556414 1 0 1.000000
  0 41.525894 6.056395 48.667458 0.865884 -0.086204 -0.492761 0.394431 0.561058 1 0 1.000000
  0 41.367462 5.991558 51.143436 0.828303 -0.185322 0.528743 0.408161 0.561046 1 0 1.000000
barracuda
  0 41.395947 4.903624 48.637268 0.811371 -0.331211 -0.481639 0.395754 0.556207 1 0 1.000000
  0 41.525894 6.056395 48.667458 0.865884 -0.086204 -0.492761 0.394431 0.561058 1 0 1.000000
  0 41.237511 4.801970 50.949677 0.779586 -0.394413 0.486501 0.404823 0.556414 1 0 1.000000
barracuda
  0 41.395947 4.903624 48.637268 0.811371 -0.331211 -0.481639 0.395754 0.556207 1 0 1.000000
  0 39.673985 6.081547 47.706863 0.223572 -0.001405 -0.974686 0.386215 0.554237 1 0 1.000000
  0 41.525894 6.056395 48.667458 0.865884 -0.086204 -0.492761 0.394431 0.561058 1 0 1.000000
barracuda
  0 39.544037 4.928778 47.676674 0.225695 -0.127782 -0.965781 0.389691 0.550552 1 0 1.000000
  0 39.673985 6.081547 47.706863 0.223572 -0.001405 -0.974686 0.386215 0.554237 1 0 1.000000
  0 41.395947 4.903624 48.637268 0.811371 -0.331211 -0.481639 0.395754 0.556207 1 0 1.000000
barracuda
  0 36.542255 4.926537 47.762218 -0.197546 0.296605 -0.934345 0.383573 0.539275 1 0 1.000000
  0 39.673985 6.081547 47.706863 0.223572 -0.001405 -0.974686 0.386215 0.554237 1 0 1.000000
  0 39.544037 4.928778 47.676674 0.225695 -0.127782 -0.965781 0.389691 0.550552 1 0 1.000000
barracuda
  0 36.376823 2.733746 47.948769 -0.273929 -0.489941 -0.827600 0.392073 0.534210 1 0 1.000000
  0 36.644966 2.393349 48.321949 -0.370669 -0.644935 -0.668329 0.394567 0.535338 1 0 1.000000
  0 35.680836 2.969620 48.456821 -0.885901 -0.432342 -0.168108 0.396171 0.529380 1 0 1.000000
barracuda
  0 36.388607 6.079306 47.792408 -0.298043 -0.007430 -0.954524 0.378686 0.541312 1 0 1.000000
  0 39.673985 6.081547 47.706863 0.223572 -0.001405 -0.974686 0.386215 0.554237 1 0 1.000000
  0 36.542255 4.926537 47.762218 -0.197546 0.296605 -0.934345 0.383573 0.539275 1 0 1.000000
barracuda
  0 35.238647 6.059242 48.558628 -0.862460 -0.070426 -0.501201 0.404971 0.516927 1 0 1.000000
  0 36.388607 6.079306 47.792408 -0.298043 -0.007430 -0.954524 0.399321 0.513176 1 0 1.000000
  0 35.347153 4.906471 48.528442 -0.911419 0.246320 -0.329608 0.401468 0.521404 1 0 1.000000
barracuda
  0 35.347153 4.906471 48.528442 -0.911419 0.246320 -0.329608 0.401468 0.521404 1 0 1.000000
  0 36.388607 6.079306 47.792408 -0.298043 -0.007430 -0.954524 0.399321 0.513176 1 0 1.000000
  0 36.542255 4.926537 47.762218 -0.197546 0.296605 -0.934345 0.395660 0.517557 1 0 1.000000
barracuda
  0 39.544037 4.928778 47.676674 0.225695 -0.127782 -0.965781 0.389691 0.550552 1 0 1.000000
  0 38.589123 3.231213 47.883148 0.226583 -0.448119 -0.864783 0.393391 0.543620 1 0 1.000000
  0 36.542255 4.926537 47.762218 -0.197546 0.296605 -0.934345 0.383573 0.539275 1 0 1.000000
barracuda
  0 36.542255 4.926537 47.762218 -0.197546 0.296605 -0.934345 0.383573 0.539275 1 0 1.000000
  0 38.589123 3.231213 47.883148 0.226583 -0.448119 -0.864783 0.393391 0.543620 1 0 1.000000
  0 36.376823 2.733746 47.948769 -0.273929 -0.489941 -0.827600 0.392073 0.534210 1 0 1.000000
barracuda
  0 38.589123 3.231213 47.883148 0.226583 -0.448119 -0.864783 0.393391 0.543620 1 0 1.000000
  0 37.676891 2.277512 48.285168 0.161959 -0.689913 -0.705542 0.395594 0.539298 1 0 1.000000
  0 36.376823 2.733746 47.948769 -0.273929 -0.489941 -0.827600 0.392073 0.534210 1 0 1.000000
barracuda
  0 36.376823 2.733746 47.948769 -0.273929 -0.489941 -0.827600 0.392073 0.534210 1 0 1.000000
  0 37.676891 2.277512 48.285168 0.161959 -0.689913 -0.705542 0.395594 0.539298 1 0 1.000000
  0 36.644966 2.393349 48.321949 -0.370669 -0.644935 -0.668329 0.394567 0.535338 1 0 1.000000
barracuda
  0 37.676891 2.277512 48.285168 0.161959 -0.689913 -0.705542 0.395594 0.539298 1 0 1.000000
  0 36.955322 1.751266 48.747353 -0.196618 -0.860009 -0.470878 0.397302 0.536905 1 0 1.000000
  0 36.644966 2.393349 48.321949 -0.370669 -0.644935 -0.668329 0.394567 0.535338 1 0 1.000000
barracuda
  0 37.676891 2.277512 48.285168 0.161959 -0.689913 -0.705542 0.395594 0.539298 1 0 1.000000
  0 37.852470 1.598969 49.757504 0.185478 -0.980319 0.067621 0.400273 0.539446 1 0 1.000000
  0 36.955322 1.751266 48.747353 -0.196618 -0.860009 -0.470878 0.397302 0.536905 1 0 1.000000
barracuda
  0 37.852470 1.598969 49.757504 0.185478 -0.980319 0.067621 0.400273 0.539446 1 0 1.000000
  0 37.006466 1.942978 50.603630 -0.231783 -0.841119 0.488668 0.402727 0.537241 1 0 1.000000
  0 36.955322 1.751266 48.747353 -0.196618 -0.860009 -0.470878 0.397302 0.536905 1 0 1.000000
barracuda
  0 37.852470 1.598969 49.757504 0.185478 -0.980319 0.067621 0.400273 0.539446 1 0 1.000000
  0 38.219398 1.956459 50.393280 0.350664 -0.838469 0.417138 0.402188 0.540518 1 0 1.000000
  0 37.006466 1.942978 50.603630 -0.231783 -0.841119 0.488668 0.402727 0.537241 1 0 1.000000
barracuda
  0 38.219398 1.956459 50.393280 0.350664 -0.838469 0.417138 0.402188 0.540518 1 0 1.000000
  0 36.784107 2.895054 51.304443 -0.367968 -0.562956 0.740054 0.406253 0.536280 1 0 1.000000
  0 37.006466 1.942978 50.603630 -0.231783 -0.841119 0.488668 0.402727 0.537241 1 0 1.000000
barracuda
  0 38.566334 2.894089 51.341282 0.235614 -0.587949 0.773823 0.406272 0.541826 1 0 1.000000
  0 36.784107 2.895054 51.304443 -0.367968 -0.562956 0.740054 0.406253 0.536280 1 0 1.000000
  0 38.219398 1.956459 50.393280 0.350664 -0.838469 0.417138 0.402188 0.540518 1 0 1.000000
barracuda
  0 36.784107 2.895054 51.304443 -0.367968 -0.562956 0.740054 0.406253 0.536280 1 0 1.000000
  0 38.566334 2.894089 51.341282 0.235614 -0.587949 0.773823 0.406272 0.541826 1 0 1.000000
  0 36.456726 4.622509 52.104839 -0.386284 -0.339590 0.857592 0.413316 0.534334 1 0 1.000000
barracuda
  0 36.456726 4.622509 52.104839 -0.386284 -0.339590 0.857592 0.413316 0.534334 1 0 1.000000
  0 38.566334 2.894089 51.341282 0.235614 -0.587949 0.773823 0.406272 0.541826 1 0 1.000000
  0 38.962154 4.622908 52.089710 0.236411 -0.336904 0.911376 0.413316 0.544268 1 0 1.000000
barracuda
  0 40.063038 3.058617 50.444519 0.599616 -0.742872 0.297662 0.402513 0.547700 1 0 1.000000
  0 38.962154 4.622908 52.089710 0.236411 -0.336904 0.911376 0.413316 0.544268 1 0 1.000000
  0 38.566334 2.894089 51.341282 0.235614 -0.587949 0.773823 0.406272 0.541826 1 0 1.000000
barracuda
  0 41.237511 4.801970 50.949677 0.779586 -0.394413 0.486501 0.404823 0.556414 1 0 1.000000
  0 38.962154 4.622908 52.089710 0.236411 -0.336904 0.911376 0.413316 0.544268 1 0 1.000000
  0 40.063038 3.058617 50.444519 0.599616 -0.742872 0.297662 0.402513 0.547700 1 0 1.000000
barracuda
  0 40.134335 3.171471 48.858749 0.618449 -0.678421 -0.396568 0.397506 0.548203 1 0 1.000000
  0 41.237511 4.801970 50.949677 0.779586 -0.394413 0.486501 0.404823 0.556414 1 0 1.000000
  0 40.063038 3.058617 50.444519 0.599616 -0.742872 0.297662 0.402513 0.547700 1 0 1.000000
barracuda
  0 41.395947 4.903624 48.637268 0.811371 -0.331211 -0.481639 0.395754 0.556207 1 0 1.000000
  0 41.237511 4.801970 50.949677 0.779586 -0.394413 0.486501 0.404823 0.556414 1 0 1.000000
  0 40.134335 3.171471 48.858749 0.618449 -0.678421 -0.396568 0.397506 0.548203 1 0 1.000000
barracuda
  0 41.395947 4.903624 48.637268 0.811371 -0.331211 -0.481639 0.395754 0.556207 1 0 1.000000
  0 40.134335 3.171471 48.858749 0.618449 -0.678421 -0.396568 0.397506 0.548203 1 0 1.000000
  0 39.544037 4.928778 47.676674 0.225695 -0.127782 -0.965781 0.389691 0.550552 1 0 1.000000
barracuda
  0 39.544037 4.928778 47.676674 0.225695 -0.127782 -0.965781 0.389691 0.550552 1 0 1.000000
  0 40.134335 3.171471 48.858749 0.618449 -0.678421 -0.396568 0.397506 0.548203 1 0 1.000000
  0 38.589123 3.231213 47.883148 0.226583 -0.448119 -0.864783 0.393391 0.543620 1 0 1.000000
barracuda
  0 40.134335 3.171471 48.858749 0.618449 -0.678421 -0.396568 0.397506 0.548203 1 0 1.000000
  0 40.063038 3.058617 50.444519 0.599616 -0.742872 0.297662 0.402513 0.547700 1 0 1.000000
  0 38.690182 2.123688 49.168137 0.497726 -0.846961 -0.186882 0.398644 0.542251 1 0 1.000000
barracuda
  0 40.134335 3.171471 48.858749 0.618449 -0.678421 -0.396568 0.397506 0.548203 1 0 1.000000
  0 38.690182 2.123688 49.168137 0.497726 -0.846961 -0.186882 0.398644 0.542251 1 0 1.000000
  0 38.589123 3.231213 47.883148 0.226583 -0.448119 -0.864783 0.393391 0.543620 1 0 1.000000
barracuda
  0 38.589123 3.231213 47.883148 0.226583 -0.448119 -0.864783 0.393391 0.543620 1 0 1.000000
  0 38.690182 2.123688 49.168137 0.497726 -0.846961 -0.186882 0.398644 0.542251 1 0 1.000000
  0 37.676891 2.277512 48.285168 0.161959 -0.689913 -0.705542 0.395594 0.539298 1 0 1.000000
barracuda
  0 38.690182 2.123688 49.168137 0.497726 -0.846961 -0.186882 0.398644 0.542251 1 0 1.000000
  0 37.852470 1.598969 49.757504 0.185478 -0.980319 0.067621 0.400273 0.539446 1 0 1.000000
  0 37.676891 2.277512 48.285168 0.161959 -0.689913 -0.705542 0.395594 0.539298 1 0 1.000000
barracuda
  0 38.690182 2.123688 49.168137 0.497726 -0.846961 -0.186882 0.398644 0.542251 1 0 1.000000
  0 38.219398 1.956459 50.393280 0.350664 -0.838469 0.417138 0.402188 0.540518 1 0 1.000000
  0 37.852470 1.598969 49.757504 0.185478 -0.980319 0.067621 0.400273 0.539446 1 0 1.000000
barracuda
  0 40.063038 3.058617 50.444519 0.599616 -0.742872 0.297662 0.402513 0.547700 1 0 1.000000
  0 38.219398 1.956459 50.393280 0.350664 -0.838469 0.417138 0.402188 0.540518 1 0 1.000000
  0 38.690182 2.123688 49.168137 0.497726 -0.846961 -0.186882 0.398644 0.542251 1 0 1.000000
barracuda
  0 38.566334 2.894089 51.341282 0.235614 -0.587949 0.773823 0.406272 0.541826 1 0 1.000000
  0 38.219398 1.956459 50.393280 0.350664 -0.838469 0.417138 0.402188 0.540518 1 0 1.000000
  0 40.063038 3.058617 50.444519 0.599616 -0.742872 0.297662 0.402513 0.547700 1 0 1.000000
barracuda
  0 33.807243 16.415325 28.153517 -0.672905 -0.025213 -0.739299 0.620792 0.466432 1 0 1.000000
  0 29.704634 6.135130 33.812351 -0.978382 -0.167225 -0.121671 0.644484 0.503801 1 0 1.000000
  0 29.804926 17.522472 31.394571 -0.905486 -0.010099 -0.424256 0.634196 0.461842 1 0 1.000000
barracuda
  0 33.320835 -6.079475 30.410944 -0.913473 -0.200336 -0.354165 0.633952 0.549924 1 0 1.000000
  0 29.704634 6.135130 33.812351 -0.978382 -0.167225 -0.121671 0.644484 0.503801 1 0 1.000000
  0 33.807243 16.415325 28.153517 -0.672905 -0.025213 -0.739299 0.620792 0.466432 1 0 1.000000
barracuda
  0 29.704634 6.135130 33.812351 -0.978382 -0.167225 -0.121671 0.644484 0.503801 1 0 1.000000
  0 33.320835 -6.079475 30.410944 -0.913473 -0.200336 -0.354165 0.633952 0.549924 1 0 1.000000
  0 33.670506 -6.602501 38.565914 -0.936399 -0.345418 0.061995 0.664439 0.550442 1 0 1.000000
barracuda
  0 33.807243 16.415325 28.153517 -0.672905 -0.025213 -0.739299 0.620792 0.466432 1 0 1.000000
  0 30.052916 43.954903 32.086712 -0.889760 0.025491 -0.455717 0.632951 0.363878 1 0 1.000000
  0 34.698402 47.058342 28.789215 -0.607307 0.030590 -0.793878 0.617259 0.351362 1 0 1.000000
barracuda
  0 29.804926 17.522472 31.394571 -0.905486 -0.010099 -0.424256 0.634196 0.461842 1 0 1.000000
  0 30.052916 43.954903 32.086712 -0.889760 0.025491 -0.455717 0.632951 0.363878 1 0 1.000000
  0 33.807243 16.415325 28.153517 -0.672905 -0.025213 -0.739299 0.620792 0.466432 1 0 1.000000
barracuda
  0 29.539368 17.977018 35.946445 -0.998913 0.006459 -0.046174 0.650359 0.459289 1 0 1.000000
  0 30.052916 43.954903 32.086712 -0.889760 0.025491 -0.455717 0.632951 0.363878 1 0 1.000000
  0 29.804926 17.522472 31.394571 -0.905486 -0.010099 -0.424256 0.634196 0.461842 1 0 1.000000
barracuda
  0 29.539368 17.977018 35.946445 -0.998913 0.006459 -0.046174 0.650359 0.459289 1 0 1.000000
  0 29.804926 17.522472 31.394571 -0.905486 -0.010099 -0.424256 0.634196 0.461842 1 0 1.000000
  0 29.378691 9.485231 38.438873 -0.997371 -0.063843 0.034273 0.661140 0.490502 1 0 1.000000
barracuda
  0 29.378691 9.485231 38.438873 -0.997371 -0.063843 0.034273 0.661140 0.490502 1 0 1.000000
  0 29.804926 17.522472 31.394571 -0.905486 -0.010099 -0.424256 0.634196 0.461842 1 0 1.000000
  0 29.704634 6.135130 33.812351 -0.978382 -0.167225 -0.121671 0.644484 0.503801 1 0 1.000000
barracuda
  0 29.704634 6.135130 33.812351 -0.978382 -0.167225 -0.121671 0.644484 0.503801 1 0 1.000000
  0 31.706930 0.115204 47.002853 -0.951312 -0.291866 0.099089 0.694706 0.523921 1 0 1.000000
  0 29.378691 9.485231 38.438873 -0.997371 -0.063843 0.034273 0.661140 0.490502 1 0 1.000000
barracuda
  0 29.704634 6.135130 33.812351 -0.978382 -0.167225 -0.121671 0.644484 0.503801 1 0 1.000000
  0 33.670506 -6.602501 38.565914 -0.936399 -0.345418 0.061995 0.664439 0.550442 1 0 1.000000
  0 31.706930 0.115204 47.002853 -0.951312 -0.291866 0.099089 0.694706 0.523921 1 0 1.000000
barracuda
  0 33.670506 -6.602501 38.565914 -0.936399 -0.345418 0.061995 0.664439 0.550442 1 0 1.000000
  0 33.804855 -4.290348 46.189213 -0.881327 -0.447629 0.151299 0.692447 0.540484 1 0 1.000000
  0 31.706930 0.115204 47.002853 -0.951312 -0.291866 0.099089 0.694706 0.523921 1 0 1.000000
barracuda
  0 30.072487 44.726837 36.650799 -0.999459 0.015441 -0.029042 0.649040 0.360010 1 0 1.000000
  0 30.052916 43.954903 32.086712 -0.889760 0.025491 -0.455717 0.632951 0.363878 1 0 1.000000
  0 29.539368 17.977018 35.946445 -0.998913 0.006459 -0.046174 0.650359 0.459289 1 0 1.000000
barracuda
  0 29.378691 9.485231 38.438873 -0.997371 -0.063843 0.034273 0.661140 0.490502 1 0 1.000000
  0 31.706930 0.115204 47.002853 -0.951312 -0.291866 0.099089 0.694706 0.523921 1 0 1.000000
  0 31.727098 4.715855 47.613419 -0.983509 -0.124352 0.131327 0.696174 0.506667 1 0 1.000000
barracuda
  0 36.284786 54.009617 51.391602 0.290187 -0.220927 0.931119 0.715615 0.326891 1 0 1.000000
  0 33.975231 45.444714 49.341007 0.036679 -0.136986 0.989894 0.708262 0.359352 1 0 1.000000
  0 36.623344 45.444714 49.341011 0.304368 -0.129945 0.943649 0.718135 0.358966 1 0 1.000000
barracuda
  0 33.941696 54.009617 51.391602 0.000000 -0.232839 0.972515 0.706879 0.327233 1 0 1.000000
  0 33.975231 45.444714 49.341007 0.036679 -0.136986 0.989894 0.708262 0.359352 1 0 1.000000
  0 36.284786 54.009617 51.391602 0.290187 -0.220927 0.931119 0.715615 0.326891 1 0 1.000000
barracuda
  0 38.567909 56.001713 50.484589 0.555390 -0.189987 0.809597 0.721602 0.319197 1 0 1.000000
  0 36.284786 54.009617 51.391602 0.290187 -0.220927 0.931119 0.715615 0.326891 1 0 1.000000
  0 38.571350 45.484478 47.822395 0.549116 -0.113343 0.828025 0.726833 0.358672 1 0 1.000000
barracuda
  0 38.571350 45.484478 47.822395 0.549116 -0.113343 0.828025 0.726833 0.358672 1 0 1.000000
  0 36.284786 54.009617 51.391602 0.290187 -0.220927 0.931119 0.715615 0.326891 1 0 1.000000
  0 36.623344 45.444714 49.341011 0.304368 -0.129945 0.943649 0.718135 0.358966 1 0 1.000000
barracuda
  0 38.571350 45.484478 47.822395 0.549116 -0.113343 0.828025 0.726833 0.358672 1 0 1.000000
  0 36.623344 45.444714 49.341011 0.304368 -0.129945 0.943649 0.718135 0.358966 1 0 1.000000
  0 38.552685 8.141094 46.508308 0.539409 -0.035990 0.841275 0.730154 0.498044 1 0 1.000000
barracuda
  0 38.552685 8.141094 46.508308 0.539409 -0.035990 0.841275 0.730154 0.498044 1 0 1.000000
  0 36.623344 45.444714 49.341011 0.304368 -0.129945 0.943649 0.718135 0.358966 1 0 1.000000
  0 36.276398 4.931854 47.559139 0.315856 -0.039021 0.948004 0.722763 0.510193 1 0 1.000000
barracuda
  0 36.623344 45.444714 49.341011 0.304368 -0.129945 0.943649 0.718135 0.358966 1 0 1.000000
  0 33.975231 45.444714 49.341007 0.036679 -0.136986 0.989894 0.708262 0.359352 1 0 1.000000
  0 36.276398 4.931854 47.559139 0.315856 -0.039021 0.948004 0.722763 0.510193 1 0 1.000000
barracuda
  0 33.975231 45.444714 49.341007 0.036679 -0.136986 0.989894 0.708262 0.359352 1 0 1.000000
  0 35.090668 4.927086 47.741253 0.072886 -0.039654 0.996552 0.718342 0.510366 1 0 1.000000
  0 36.276398 4.931854 47.559139 0.315856 -0.039021 0.948004 0.722763 0.510193 1 0 1.000000
barracuda
  0 33.772701 5.634741 47.962345 0.072894 -0.039655 0.996551 0.713324 0.507899 1 0 1.000000
  0 35.090668 4.927086 47.741253 0.072886 -0.039654 0.996552 0.718342 0.510366 1 0 1.000000
  0 33.975231 45.444714 49.341007 0.036679 -0.136986 0.989894 0.708262 0.359352 1 0 1.000000
barracuda
  0 31.720467 21.197809 42.744961 -0.965925 0.006775 -0.258733 0.229855 0.246391 1 0 1.000000
  0 32.028477 16.650919 41.475998 -0.965925 0.006776 -0.258733 0.235005 0.268292 1 0 1.000000
  0 31.720467 16.620831 42.625107 -0.965925 0.006776 -0.258732 0.230200 0.268301 1 0 1.000000
barracuda
  0 32.028477 21.227898 41.595852 -0.965925 0.006775 -0.258733 0.235636 0.246395 1 0 1.000000
  0 32.028477 16.650919 41.475998 -0.965925 0.006776 -0.258733 0.235005 0.268292 1 0 1.000000
  0 31.720467 21.197809 42.744961 -0.965925 0.006775 -0.258733 0.229855 0.246391 1 0 1.000000
barracuda
  0 32.351242 20.438070 42.694126 -0.152130 -0.823600 0.546388 0.252705 0.559079 1 0 1.000000
  0 30.788183 20.787580 42.544247 -0.246156 -0.332955 0.910246 0.250078 0.549536 1 0 1.000000
  0 30.853148 20.448578 42.292843 -0.152132 -0.823606 0.546379 0.252705 0.549536 1 0 1.000000
barracuda
  0 32.286278 20.777073 42.945522 -0.246151 -0.332949 0.910250 0.250078 0.559079 1 0 1.000000
  0 30.788183 20.787580 42.544247 -0.246156 -0.332955 0.910246 0.250078 0.549536 1 0 1.000000
  0 32.351242 20.438070 42.694126 -0.152130 -0.823600 0.546388 0.252705 0.559079 1 0 1.000000
barracuda
  0 32.286278 20.777073 42.945522 -0.246151 -0.332949 0.910250 0.250078 0.559079 1 0 1.000000
  0 30.788183 21.214451 42.555424 -0.246155 0.284864 0.926423 0.247450 0.549536 1 0 1.000000
  0 30.788183 20.787580 42.544247 -0.246156 -0.332955 0.910246 0.250078 0.549536 1 0 1.000000
barracuda
  0 32.286278 21.203943 42.956699 -0.246153 0.284860 0.926425 0.247450 0.559079 1 0 1.000000
  0 30.788183 21.214451 42.555424 -0.246155 0.284864 0.926423 0.247450 0.549536 1 0 1.000000
  0 32.286278 20.777073 42.945522 -0.246151 -0.332949 0.910250 0.250078 0.559079 1 0 1.000000
barracuda
  0 32.286278 21.203943 42.956699 -0.246153 0.284860 0.926425 0.247450 0.559079 1 0 1.000000
  0 30.853148 21.566147 42.322109 -0.152132 0.793880 0.588736 0.244822 0.549536 1 0 1.000000
  0 30.788183 21.214451 42.555424 -0.246155 0.284864 0.926423 0.247450 0.549536 1 0 1.000000
barracuda
  0 32.351242 21.555639 42.723389 -0.152131 0.793877 0.588740 0.244822 0.559079 1 0 1.000000
  0 30.853148 21.566147 42.322109 -0.152132 0.793880 0.588736 0.244822 0.549536 1 0 1.000000
  0 32.286278 21.203943 42.956699 -0.246153 0.284860 0.926425 0.247450 0.559079 1 0 1.000000
barracuda
  0 32.351242 21.555639 42.723389 -0.152131 0.793877 0.588740 0.244822 0.559079 1 0 1.000000
  0 30.958256 21.708323 41.933414 -0.000001 0.999657 0.026178 0.242195 0.549536 1 0 1.000000
  0 30.853148 21.566147 42.322109 -0.152132 0.793880 0.588736 0.244822 0.549536 1 0 1.000000
barracuda
  0 32.456356 21.697813 42.334694 0.000002 0.999657 0.026172 0.242195 0.559079 1 0 1.000000
  0 30.958256 21.708323 41.933414 -0.000001 0.999657 0.026178 0.242195 0.549536 1 0 1.000000
  0 32.351242 21.555639 42.723389 -0.152131 0.793877 0.588740 0.244822 0.559079 1 0 1.000000
barracuda
  0 32.456356 21.697813 42.334694 0.000002 0.999657 0.026172 0.242195 0.559079 1 0 1.000000
  0 31.063374 21.586685 41.537815 0.152133 0.823603 -0.546382 0.239571 0.549536 1 0 1.000000
  0 30.958256 21.708323 41.933414 -0.000001 0.999657 0.026178 0.242195 0.549536 1 0 1.000000
barracuda
  0 32.561470 21.576176 41.939095 0.152129 0.823603 -0.546383 0.239571 0.559079 1 0 1.000000
  0 31.063374 21.586685 41.537815 0.152133 0.823603 -0.546382 0.239571 0.549536 1 0 1.000000
  0 32.456356 21.697813 42.334694 0.000002 0.999657 0.026172 0.242195 0.559079 1 0 1.000000
barracuda
  0 32.561470 21.576176 41.939095 0.152129 0.823603 -0.546383 0.239571 0.559079 1 0 1.000000
  0 31.128328 21.247681 41.286411 0.246157 0.332953 -0.910247 0.236936 0.549536 1 0 1.000000
  0 31.063374 21.586685 41.537815 0.152133 0.823603 -0.546382 0.239571 0.549536 1 0 1.000000
barracuda
  0 32.626423 21.237173 41.687691 0.246150 0.332957 -0.910247 0.236936 0.559079 1 0 1.000000
  0 31.128328 21.247681 41.286411 0.246157 0.332953 -0.910247 0.236936 0.549536 1 0 1.000000
  0 32.561470 21.576176 41.939095 0.152129 0.823603 -0.546383 0.239571 0.559079 1 0 1.000000
barracuda
  0 32.626423 21.237173 41.687691 0.246150 0.332957 -0.910247 0.236936 0.559079 1 0 1.000000
  0 31.128328 20.820810 41.275234 0.246153 -0.284860 -0.926425 0.234312 0.549536 1 0 1.000000
  0 31.128328 21.247681 41.286411 0.246157 0.332953 -0.910247 0.236936 0.549536 1 0 1.000000
barracuda
  0 32.626423 20.810305 41.676514 0.246153 -0.284863 -0.926424 0.234312 0.559079 1 0 1.000000
  0 31.128328 20.820810 41.275234 0.246153 -0.284860 -0.926425 0.234312 0.549536 1 0 1.000000
  0 32.626423 21.237173 41.687691 0.246150 0.332957 -0.910247 0.236936 0.559079 1 0 1.000000
barracuda
  0 32.626423 20.810305 41.676514 0.246153 -0.284863 -0.926424 0.234312 0.559079 1 0 1.000000
  0 31.063374 20.469116 41.508549 0.152129 -0.793878 -0.588740 0.231684 0.549536 1 0 1.000000
  0 31.128328 20.820810 41.275234 0.246153 -0.284860 -0.926425 0.234312 0.549536 1 0 1.000000
barracuda
  0 32.561470 20.458607 41.909832 0.152130 -0.793878 -0.588739 0.231684 0.559079 1 0 1.000000
  0 31.063374 20.469116 41.508549 0.152129 -0.793878 -0.588740 0.231684 0.549536 1 0 1.000000
  0 32.626423 20.810305 41.676514 0.246153 -0.284863 -0.926424 0.234312 0.559079 1 0 1.000000
barracuda
  0 32.561470 20.458607 41.909832 0.152130 -0.793878 -0.588739 0.231684 0.559079 1 0 1.000000
  0 30.958256 20.326941 41.897243 0.000001 -0.999657 -0.026178 0.229056 0.549536 1 0 1.000000
  0 31.063374 20.469116 41.508549 0.152129 -0.793878 -0.588740 0.231684 0.549536 1 0 1.000000
barracuda
  0 32.456356 20.316431 42.298519 0.000000 -0.999657 -0.026180 0.229056 0.559079 1 0 1.000000
  0 30.958256 20.326941 41.897243 0.000001 -0.999657 -0.026178 0.229056 0.549536 1 0 1.000000
  0 32.561470 20.458607 41.909832 0.152130 -0.793878 -0.588739 0.231684 0.559079 1 0 1.000000
barracuda
  0 32.456356 20.316431 42.298519 0.000000 -0.999657 -0.026180 0.229056 0.559079 1 0 1.000000
  0 30.853148 20.448578 42.292843 -0.152132 -0.823606 0.546379 0.226429 0.549536 1 0 1.000000
  0 30.958256 20.326941 41.897243 0.000001 -0.999657 -0.026178 0.229056 0.549536 1 0 1.000000
barracuda
  0 32.351242 20.438070 42.694126 -0.152130 -0.823600 0.546388 0.226429 0.559079 1 0 1.000000
  0 30.853148 20.448578 42.292843 -0.152132 -0.823606 0.546379 0.226429 0.549536 1 0 1.000000
  0 32.456356 20.316431 42.298519 0.000000 -0.999657 -0.026180 0.229056 0.559079 1 0 1.000000
barracuda
  0 33.960876 9.689821 39.407394 -0.990457 0.003033 -0.137792 0.664714 0.489569 1 0 1.000000
  0 32.791824 45.726730 47.184017 -0.987807 -0.011027 0.155295 0.687370 0.353886 1 0 1.000000
  0 34.078964 17.391556 36.893127 -0.990454 0.003038 -0.137806 0.653990 0.461305 1 0 1.000000
barracuda
  0 33.126102 7.024166 46.180592 -0.989402 -0.005790 0.145088 0.690428 0.498315 1 0 1.000000
  0 32.791824 45.726730 47.184017 -0.987807 -0.011027 0.155295 0.687370 0.353886 1 0 1.000000
  0 33.960876 9.689821 39.407394 -0.990457 0.003033 -0.137792 0.664714 0.489569 1 0 1.000000
barracuda
  0 33.126102 7.024166 46.180592 -0.989402 -0.005790 0.145088 0.690428 0.498315 1 0 1.000000
  0 33.975231 45.444714 49.341007 -0.895838 -0.063438 0.439830 0.695459 0.354559 1 0 1.000000
  0 32.791824 45.726730 47.184017 -0.987807 -0.011027 0.155295 0.687370 0.353886 1 0 1.000000
barracuda
  0 33.975231 45.444714 49.341007 -0.895838 -0.063438 0.439830 0.695459 0.354559 1 0 1.000000
  0 33.941696 54.009617 51.391602 -0.879748 -0.112524 0.461932 0.701597 0.322275 1 0 1.000000
  0 32.791824 45.726730 47.184017 -0.987807 -0.011027 0.155295 0.687370 0.353886 1 0 1.000000
barracuda
  0 32.791824 45.726730 47.184017 -0.987807 -0.011027 0.155295 0.687370 0.353886 1 0 1.000000
  0 33.941696 54.009617 51.391602 -0.879748 -0.112524 0.461932 0.701597 0.322275 1 0 1.000000
  0 33.211811 56.120869 50.487709 -0.986065 -0.016315 0.165557 0.697857 0.314565 1 0 1.000000
barracuda
  0 34.778477 58.582928 41.076347 -0.994158 0.060359 -0.089482 0.662346 0.307041 1 0 1.000000
  0 32.791824 45.726730 47.184017 -0.987807 -0.011027 0.155295 0.687370 0.353886 1 0 1.000000
  0 33.211811 56.120869 50.487709 -0.986065 -0.016315 0.165557 0.697857 0.314565 1 0 1.000000
barracuda
  0 34.524410 48.696140 37.712959 -0.993549 0.041187 -0.105661 0.650480 0.344025 1 0 1.000000
  0 32.791824 45.726730 47.184017 -0.987807 -0.011027 0.155295 0.687370 0.353886 1 0 1.000000
  0 34.778477 58.582928 41.076347 -0.994158 0.060359 -0.089482 0.662346 0.307041 1 0 1.000000
barracuda
  0 34.778477 58.582928 41.076347 -0.994158 0.060359 -0.089482 0.662346 0.307041 1 0 1.000000
  0 35.089375 58.585766 31.691725 -0.999012 0.035409 -0.026849 0.627367 0.308679 1 0 1.000000
  0 34.524410 48.696140 37.712959 -0.993549 0.041187 -0.105661 0.650480 0.344025 1 0 1.000000
barracuda
  0 34.524410 48.696140 37.712959 -0.993549 0.041187 -0.105661 0.650480 0.344025 1 0 1.000000
  0 35.089375 58.585766 31.691725 -0.999012 0.035409 -0.026849 0.627367 0.308679 1 0 1.000000
  0 34.698402 47.058342 28.789215 -0.999012 0.035411 -0.026865 0.617259 0.351362 1 0 1.000000
barracuda
  0 35.089375 58.585766 31.691725 -0.999012 0.035409 -0.026849 0.627367 0.308679 1 0 1.000000
  0 35.287128 57.299786 24.718889 -0.998809 0.032624 -0.036291 0.601604 0.314697 1 0 1.000000
  0 34.698402 47.058342 28.789215 -0.999012 0.035411 -0.026865 0.617259 0.351362 1 0 1.000000
barracuda
  0 35.287128 57.299786 24.718889 -0.998809 0.032624 -0.036291 0.601604 0.314697 1 0 1.000000
  0 33.200249 -4.588192 23.690039 -0.998810 0.032545 -0.036314 0.608639 0.545546 1 0 1.000000
  0 34.698402 47.058342 28.789215 -0.999012 0.035411 -0.026865 0.617259 0.351362 1 0 1.000000
barracuda
  0 35.287128 57.299786 24.718889 -0.998809 0.032624 -0.036291 0.601604 0.314697 1 0 1.000000
  0 33.508099 -2.901978 20.260363 -0.688935 0.040924 -0.723667 0.595560 0.539864 1 0 1.000000
  0 33.200249 -4.588192 23.690039 -0.998810 0.032545 -0.036314 0.608639 0.545546 1 0 1.000000
barracuda
  0 35.328419 56.793507 21.823540 -0.688953 0.040927 -0.723649 0.590901 0.317092 1 0 1.000000
  0 33.508099 -2.901978 20.260363 -0.688935 0.040924 -0.723667 0.595560 0.539864 1 0 1.000000
  0 35.287128 57.299786 24.718889 -0.998809 0.032624 -0.036291 0.601604 0.314697 1 0 1.000000
barracuda
  0 32.791824 45.726730 47.184017 -0.987807 -0.011027 0.155295 0.687370 0.353886 1 0 1.000000
  0 34.524410 48.696140 37.712959 -0.993549 0.041187 -0.105661 0.650480 0.344025 1 0 1.000000
  0 34.078964 17.391556 36.893127 -0.990454 0.003038 -0.137806 0.653990 0.461305 1 0 1.000000
barracuda
  0 33.772701 5.634741 47.962345 -0.909078 -0.014163 0.416384 0.697313 0.503181 1 0 1.000000
  0 33.975231 45.444714 49.341007 -0.895838 -0.063438 0.439830 0.695459 0.354559 1 0 1.000000
  0 33.126102 7.024166 46.180592 -0.989402 -0.005790 0.145088 0.690428 0.498315 1 0 1.000000
barracuda
  0 34.698402 47.058342 28.789215 -0.999012 0.035411 -0.026865 0.617259 0.351362 1 0 1.000000
  0 33.200249 -4.588192 23.690039 -0.998810 0.032545 -0.036314 0.608639 0.545546 1 0 1.000000
  0 33.807243 16.415325 28.153517 -0.999206 0.031978 -0.023778 0.620792 0.466432 1 0 1.000000
barracuda
  0 33.200249 -4.588192 23.690039 -0.998810 0.032545 -0.036314 0.608639 0.545546 1 0 1.000000
  0 33.320835 -6.079475 30.410944 -0.999206 0.031975 -0.023768 0.633952 0.549924 1 0 1.000000
  0 33.807243 16.415325 28.153517 -0.999206 0.031978 -0.023778 0.620792 0.466432 1 0 1.000000
barracuda
  0 35.090668 4.927086 47.741253 0.000000 0.999657 0.026177 0.368459 0.552397 1 0 1.000000
  0 35.347153 4.906471 48.528442 -0.911419 0.246320 -0.329608 0.363637 0.550704 1 0 1.000000
  0 36.276398 4.931854 47.559139 0.000001 0.999657 0.026177 0.364908 0.558893 1 0 1.000000
barracuda
  0 36.276398 4.931854 47.559139 0.000001 0.999657 0.026177 0.364908 0.558893 1 0 1.000000
  0 35.347153 4.906471 48.528442 -0.911419 0.246320 -0.329608 0.363637 0.550704 1 0 1.000000
  0 36.542255 4.926537 47.762218 -0.197546 0.296605 -0.934345 0.362916 0.559434 1 0 1.000000
barracuda
  0 34.904537 2.998058 47.370914 -0.873278 -0.088115 0.479189 0.374863 0.542042 1 0 1.000000
  0 35.680836 2.969620 48.456821 -0.873279 -0.088124 0.479184 0.367170 0.539093 1 0 1.000000
  0 35.090668 4.927086 47.741253 -0.873275 -0.088113 0.479195 0.368459 0.552397 1 0 1.000000
barracuda
  0 35.090668 4.927086 47.741253 -0.873275 -0.088113 0.479195 0.368459 0.552397 1 0 1.000000
  0 35.680836 2.969620 48.456821 -0.873279 -0.088124 0.479184 0.367170 0.539093 1 0 1.000000
  0 35.347153 4.906471 48.528442 -0.873266 -0.088098 0.479213 0.363637 0.550704 1 0 1.000000
barracuda
  0 36.376823 2.733746 47.948769 -0.230852 -0.961634 0.148217 0.369163 0.533953 1 0 1.000000
  0 35.680836 2.969620 48.456821 -0.231065 -0.961591 0.148162 0.367170 0.539093 1 0 1.000000
  0 35.925648 2.750572 47.416977 -0.231134 -0.961577 0.148143 0.373045 0.535812 1 0 1.000000
barracuda
  0 35.925648 2.750572 47.416977 -0.231134 -0.961577 0.148143 0.373045 0.535812 1 0 1.000000
  0 35.680836 2.969620 48.456821 -0.231065 -0.961591 0.148162 0.367170 0.539093 1 0 1.000000
  0 34.904537 2.998058 47.370914 -0.230765 -0.961650 0.148249 0.374863 0.542042 1 0 1.000000
barracuda
  0 36.542255 4.926537 47.762218 0.711384 -0.091015 -0.696885 0.375490 0.521894 1 0 1.000000
  0 36.376823 2.733746 47.948769 0.711374 -0.091033 -0.696893 0.369163 0.533953 1 0 1.000000
  0 36.276398 4.931854 47.559139 0.711410 -0.091018 -0.696858 0.377326 0.522839 1 0 1.000000
barracuda
  0 36.276398 4.931854 47.559139 0.711410 -0.091018 -0.696858 0.377326 0.522839 1 0 1.000000
  0 36.376823 2.733746 47.948769 0.711374 -0.091033 -0.696893 0.369163 0.533953 1 0 1.000000
  0 35.925648 2.750572 47.416977 0.711392 -0.091030 -0.696875 0.373045 0.535812 1 0 1.000000
barracuda
  0 39.271564 49.116104 44.109108 0.976316 -0.020864 0.215341 0.322979 0.550947 1 0 1.000000
  0 39.595505 49.182690 42.654747 0.976357 -0.020791 0.215161 0.322475 0.543086 1 0 1.000000
  0 39.328697 53.399349 44.272961 0.976108 -0.021223 0.216246 0.299739 0.551124 1 0 1.000000
barracuda
  0 39.328697 53.399349 44.272961 0.976108 -0.021223 0.216246 0.299739 0.551124 1 0 1.000000
  0 39.595505 49.182690 42.654747 0.976357 -0.020791 0.215161 0.322475 0.543086 1 0 1.000000
  0 39.653755 53.452618 42.801716 0.976140 -0.021169 0.216109 0.300035 0.543163 1 0 1.000000
barracuda
  0 33.508099 -2.901978 20.260363 -0.688935 0.040924 -0.723667 0.839874 0.542307 1 0 1.000000
  0 35.328419 56.793507 21.823540 -0.688953 0.040927 -0.723649 0.839874 0.319378 1 0 1.000000
  0 37.134228 -2.901978 20.260363 0.000000 0.026177 -0.999657 0.826350 0.541868 1 0 1.000000
barracuda
  0 37.134228 -2.901978 20.260363 0.000000 0.026177 -0.999657 0.826350 0.541868 1 0 1.000000
  0 35.328419 56.793507 21.823540 -0.688953 0.040927 -0.723649 0.839874 0.319378 1 0 1.000000
  0 38.954548 56.793507 21.823540 0.000000 0.026177 -0.999657 0.826350 0.318992 1 0 1.000000
barracuda
  0 35.090668 4.927086 47.741253 -0.022652 -0.228064 0.973383 0.718342 0.510366 1 0 1.000000
  0 33.772701 5.634741 47.962345 -0.022547 -0.228020 0.973395 0.713324 0.507899 1 0 1.000000
  0 34.904537 2.998058 47.370914 -0.022650 -0.228062 0.973383 0.717931 0.517619 1 0 1.000000
barracuda
  0 34.904537 2.998058 47.370914 -0.022650 -0.228062 0.973383 0.717931 0.517619 1 0 1.000000
  0 33.772701 5.634741 47.962345 -0.022547 -0.228020 0.973395 0.713324 0.507899 1 0 1.000000
  0 31.727098 4.715855 47.613419 -0.022683 -0.228075 0.973379 0.705832 0.511657 1 0 1.000000
barracuda
  0 38.567909 56.001713 50.484589 0.006565 0.401628 0.915779 0.721602 0.319197 1 0 1.000000
  0 33.211811 56.120869 50.487709 0.006616 0.401692 0.915751 0.703852 0.319559 1 0 1.000000
  0 36.284786 54.009617 51.391602 0.006454 0.401492 0.915840 0.715615 0.326891 1 0 1.000000
barracuda
  0 36.284786 54.009617 51.391602 0.006454 0.401492 0.915840 0.715615 0.326891 1 0 1.000000
  0 33.211811 56.120869 50.487709 0.006616 0.401692 0.915751 0.703852 0.319559 1 0 1.000000
  0 33.941696 54.009617 51.391602 0.006600 0.401673 0.915759 0.706879 0.327233 1 0 1.000000
barracuda
  0 38.216282 -4.290344 46.189209 0.413291 -0.048134 0.909326 0.730422 0.544453 1 0 1.000000
  0 38.552685 8.141094 46.508308 0.413308 -0.048145 0.909318 0.730154 0.498044 1 0 1.000000
  0 35.925648 2.750572 47.416977 0.413218 -0.048090 0.909362 0.721774 0.518388 1 0 1.000000
barracuda
  0 35.925648 2.750572 47.416977 0.413218 -0.048090 0.909362 0.721774 0.518388 1 0 1.000000
  0 38.552685 8.141094 46.508308 0.413308 -0.048145 0.909318 0.730154 0.498044 1 0 1.000000
  0 36.276398 4.931854 47.559139 0.413300 -0.048125 0.909322 0.722763 0.510193 1 0 1.000000
barracuda
  0 32.983173 52.937698 45.052582 -0.965927 0.006775 -0.258727 0.205100 0.246394 1 0 1.000000
  0 33.585415 52.996536 42.805733 -0.965927 0.006775 -0.258727 0.216049 0.246394 1 0 1.000000
  0 32.983177 47.645317 44.913994 -0.965927 0.006775 -0.258727 0.205100 0.271738 1 0 1.000000
barracuda
  0 32.983177 47.645317 44.913994 -0.965927 0.006775 -0.258727 0.205100 0.271738 1 0 1.000000
  0 33.585415 52.996536 42.805733 -0.965927 0.006775 -0.258727 0.216049 0.246394 1 0 1.000000
  0 33.585419 47.704155 42.667145 -0.965927 0.006774 -0.258727 0.216049 0.271738 1 0 1.000000
barracuda
  0 34.445450 52.990509 43.036098 -0.000002 0.999657 0.026177 0.216144 0.242132 1 0 1.000000
  0 33.585415 52.996536 42.805733 -0.000003 0.999657 0.026178 0.216049 0.246394 1 0 1.000000
  0 33.843197 52.931667 45.282951 -0.000003 0.999657 0.026179 0.205005 0.242132 1 0 1.000000
barracuda
  0 33.843197 52.931667 45.282951 -0.000003 0.999657 0.026179 0.205005 0.242132 1 0 1.000000
  0 33.585415 52.996536 42.805733 -0.000003 0.999657 0.026178 0.216049 0.246394 1 0 1.000000
  0 32.983173 52.937698 45.052582 -0.000003 0.999657 0.026179 0.205100 0.246394 1 0 1.000000
barracuda
  0 34.445454 47.698124 42.897511 0.258815 0.025285 -0.965596 0.220166 0.271738 1 0 1.000000
  0 33.585419 47.704155 42.667145 0.258815 0.025285 -0.965596 0.216049 0.271738 1 0 1.000000
  0 34.445450 52.990509 43.036098 0.258815 0.025286 -0.965596 0.220166 0.246394 1 0 1.000000
barracuda
  0 34.445450 52.990509 43.036098 0.258815 0.025286 -0.965596 0.220166 0.246394 1 0 1.000000
  0 33.585419 47.704155 42.667145 0.258815 0.025285 -0.965596 0.216049 0.271738 1 0 1.000000
  0 33.585415 52.996536 42.805733 0.258815 0.025286 -0.965596 0.216049 0.246394 1 0 1.000000
barracuda
  0 33.843201 47.639286 45.144363 -0.000001 -0.999657 -0.026176 0.205005 0.276000 1 0 1.000000
  0 32.983177 47.645317 44.913994 -0.000001 -0.999657 -0.026176 0.205100 0.271738 1 0 1.000000
  0 34.445454 47.698124 42.897511 0.000001 -0.999657 -0.026178 0.216144 0.276000 1 0 1.000000
barracuda
  0 34.445454 47.698124 42.897511 0.000001 -0.999657 -0.026178 0.216144 0.276000 1 0 1.000000
  0 32.983177 47.645317 44.913994 -0.000001 -0.999657 -0.026176 0.205100 0.271738 1 0 1.000000
  0 33.585419 47.704155 42.667145 0.000002 -0.999657 -0.026179 0.216049 0.271738 1 0 1.000000
barracuda
  0 33.843197 52.931667 45.282951 -0.258823 -0.025285 0.965594 0.200983 0.246394 1 0 1.000000
  0 32.983173 52.937698 45.052582 -0.258823 -0.025285 0.965594 0.205100 0.246394 1 0 1.000000
  0 33.843201 47.639286 45.144363 -0.258819 -0.025286 0.965595 0.200983 0.271738 1 0 1.000000
barracuda
  0 33.843201 47.639286 45.144363 -0.258819 -0.025286 0.965595 0.200983 0.271738 1 0 1.000000
  0 32.983173 52.937698 45.052582 -0.258823 -0.025285 0.965594 0.205100 0.246394 1 0 1.000000
  0 32.983177 47.645317 44.913994 -0.258818 -0.025286 0.965595 0.205100 0.271738 1 0 1.000000
barracuda
  0 39.888832 53.695671 43.977295 0.603436 0.022133 -0.797104 0.298135 0.554587 1 0 1.000000
  0 40.449226 53.583832 44.397663 0.603535 0.022110 -0.797030 0.298608 0.558418 1 0 1.000000
  0 39.831699 48.833668 43.798283 0.602717 0.022292 -0.797643 0.324605 0.554404 1 0 1.000000
barracuda
  0 39.831699 48.833668 43.798283 0.602717 0.022292 -0.797643 0.324605 0.554404 1 0 1.000000
  0 40.449226 53.583832 44.397663 0.603535 0.022110 -0.797030 0.298608 0.558418 1 0 1.000000
  0 40.398472 48.803909 44.226555 0.602707 0.022294 -0.797651 0.324714 0.558277 1 0 1.000000
barracuda
  0 32.468319 15.042858 41.551788 0.258827 0.025285 -0.965593 0.235538 0.276035 1 0 1.000000
  0 32.028477 16.650919 41.475998 0.258827 0.025285 -0.965593 0.235005 0.268292 1 0 1.000000
  0 32.468319 21.224813 41.713665 0.258820 0.025285 -0.965595 0.238010 0.246526 1 0 1.000000
barracuda
  0 32.468319 21.224813 41.713665 0.258820 0.025285 -0.965595 0.238010 0.246526 1 0 1.000000
  0 32.028477 16.650919 41.475998 0.258827 0.025285 -0.965593 0.235005 0.268292 1 0 1.000000
  0 32.028477 21.227898 41.595852 0.258820 0.025285 -0.965595 0.235636 0.246395 1 0 1.000000
barracuda
  0 32.468319 15.042858 41.551788 -0.929275 -0.266245 -0.256050 0.235538 0.276035 1 0 1.000000
  0 32.160316 15.012768 42.700893 -0.929274 -0.266246 -0.256053 0.229002 0.276024 1 0 1.000000
  0 32.028477 16.650919 41.475998 -0.929273 -0.266246 -0.256054 0.235005 0.268292 1 0 1.000000
barracuda
  0 32.028477 16.650919 41.475998 -0.929273 -0.266246 -0.256054 0.235005 0.268292 1 0 1.000000
  0 32.160316 15.012768 42.700893 -0.929274 -0.266246 -0.256053 0.229002 0.276024 1 0 1.000000
  0 31.720467 16.620831 42.625107 -0.929272 -0.266247 -0.256057 0.230200 0.268301 1 0 1.000000
barracuda
  0 32.160316 15.012768 42.700893 -0.258821 -0.025284 0.965594 0.229002 0.276024 1 0 1.000000
  0 32.160316 21.194723 42.862770 -0.258791 -0.025286 0.965602 0.227576 0.246459 1 0 1.000000
  0 31.720467 16.620831 42.625107 -0.258820 -0.025284 0.965595 0.230200 0.268301 1 0 1.000000
barracuda
  0 31.720467 16.620831 42.625107 -0.258820 -0.025284 0.965595 0.230200 0.268301 1 0 1.000000
  0 32.160316 21.194723 42.862770 -0.258791 -0.025286 0.965602 0.227576 0.246459 1 0 1.000000
  0 31.720467 21.197809 42.744961 -0.258789 -0.025286 0.965603 0.229855 0.246391 1 0 1.000000
barracuda
  0 32.160316 21.194723 42.862770 0.000002 0.999657 0.026181 0.229899 0.244211 1 0 1.000000
  0 32.468319 21.224813 41.713665 -0.000001 0.999657 0.026179 0.235596 0.244215 1 0 1.000000
  0 31.720467 21.197809 42.744961 0.000001 0.999657 0.026180 0.229855 0.246391 1 0 1.000000
barracuda
  0 31.720467 21.197809 42.744961 0.000001 0.999657 0.026180 0.229855 0.246391 1 0 1.000000
  0 32.468319 21.224813 41.713665 -0.000001 0.999657 0.026179 0.235596 0.244215 1 0 1.000000
  0 32.028477 21.227898 41.595852 -0.000002 0.999657 0.026178 0.235636 0.246395 1 0 1.000000
barracuda
  0 38.216282 -4.290344 46.189209 0.001604 -0.166486 0.986042 0.730422 0.544453 1 0 1.000000
  0 35.925648 2.750572 47.416977 0.001622 -0.166477 0.986044 0.721774 0.518388 1 0 1.000000
  0 33.804855 -4.290348 46.189213 0.001636 -0.166494 0.986041 0.714899 0.545061 1 0 1.000000
barracuda
  0 35.925648 2.750572 47.416977 0.001622 -0.166477 0.986044 0.721774 0.518388 1 0 1.000000
  0 34.904537 2.998058 47.370914 0.001608 -0.166477 0.986044 0.717931 0.517619 1 0 1.000000
  0 33.804855 -4.290348 46.189213 0.001636 -0.166494 0.986041 0.714899 0.545061 1 0 1.000000
barracuda
  0 33.804855 -4.290348 46.189213 0.001636 -0.166494 0.986041 0.714899 0.545061 1 0 1.000000
  0 34.904537 2.998058 47.370914 0.001608 -0.166477 0.986044 0.717931 0.517619 1 0 1.000000
  0 31.706930 0.115204 47.002853 0.001631 -0.166475 0.986044 0.706431 0.528867 1 0 1.000000
barracuda
  0 40.050869 -6.602501 38.565914 0.998984 -0.012845 0.043194 0.757710 0.553858 1 0 1.000000
  0 40.251736 -6.079475 30.410948 0.997740 -0.013827 -0.065754 0.788174 0.552703 1 0 1.000000
  0 40.621944 58.582928 41.076347 0.998984 -0.012846 0.043208 0.754697 0.310462 1 0 1.000000
barracuda
  0 40.621944 58.582928 41.076347 0.998984 -0.012846 0.043208 0.754697 0.310462 1 0 1.000000
  0 40.251736 -6.079475 30.410948 0.997740 -0.013827 -0.065754 0.788174 0.552703 1 0 1.000000
  0 41.186707 58.585770 31.691725 0.997738 -0.013824 -0.065779 0.789728 0.311369 1 0 1.000000
barracuda
  0 40.251736 -6.079475 30.410948 0.997740 -0.013827 -0.065754 0.788174 0.552703 1 0 1.000000
  0 40.188263 57.299789 24.718891 0.953510 -0.014771 -0.301000 0.815599 0.316846 1 0 1.000000
  0 41.186707 58.585770 31.691725 0.997738 -0.013824 -0.065779 0.789728 0.311369 1 0 1.000000
barracuda
  0 38.833271 -4.588192 23.690039 0.953514 -0.014769 -0.300986 0.813392 0.547797 1 0 1.000000
  0 40.188263 57.299789 24.718891 0.953510 -0.014771 -0.301000 0.815599 0.316846 1 0 1.000000
  0 40.251736 -6.079475 30.410948 0.997740 -0.013827 -0.065754 0.788174 0.552703 1 0 1.000000
barracuda
  0 38.833271 -4.588192 23.690039 0.953514 -0.014769 -0.300986 0.813392 0.547797 1 0 1.000000
  0 37.134228 -2.901978 20.260363 0.906076 -0.014649 -0.422861 0.826350 0.541868 1 0 1.000000
  0 40.188263 57.299789 24.718891 0.953510 -0.014771 -0.301000 0.815599 0.316846 1 0 1.000000
barracuda
  0 40.188263 57.299789 24.718891 0.953510 -0.014771 -0.301000 0.815599 0.316846 1 0 1.000000
  0 37.134228 -2.901978 20.260363 0.906076 -0.014649 -0.422861 0.826350 0.541868 1 0 1.000000
  0 38.954548 56.793507 21.823540 0.906075 -0.014651 -0.422864 0.826350 0.318992 1 0 1.000000
barracuda
  0 41.525894 6.056395 48.667458 0.000000 0.999657 0.026177 0.201421 0.519718 1 0 1.000000
  0 39.673985 6.081547 47.706863 0.000000 0.999657 0.026177 0.195405 0.531310 1 0 1.000000
  0 41.367462 5.991558 51.143436 0.000000 0.999657 0.026177 0.216926 0.520710 1 0 1.000000
barracuda
  0 41.367462 5.991558 51.143436 0.000000 0.999657 0.026177 0.216926 0.520710 1 0 1.000000
  0 39.673985 6.081547 47.706863 0.000000 0.999657 0.026177 0.195405 0.531310 1 0 1.000000
  0 39.092106 5.959497 52.367756 0.000000 0.999657 0.026177 0.224593 0.534953 1 0 1.000000
barracuda
  0 39.673985 6.081547 47.706863 0.000000 0.999657 0.026177 0.195405 0.531310 1 0 1.000000
  0 36.388607 6.079306 47.792408 0.000000 0.999657 0.026177 0.195941 0.551878 1 0 1.000000
  0 39.092106 5.959497 52.367756 0.000000 0.999657 0.026177 0.224593 0.534953 1 0 1.000000
barracuda
  0 39.092106 5.959497 52.367756 0.000000 0.999657 0.026177 0.224593 0.534953 1 0 1.000000
  0 36.388607 6.079306 47.792408 0.000000 0.999657 0.026177 0.195941 0.551878 1 0 1.000000
  0 36.395943 5.959099 52.382881 -0.000001 0.999657 0.026177 0.224687 0.551832 1 0 1.000000
barracuda
  0 36.395943 5.959099 52.382881 -0.000001 0.999657 0.026177 0.224687 0.551832 1 0 1.000000
  0 36.388607 6.079306 47.792408 0.000000 0.999657 0.026177 0.195941 0.551878 1 0 1.000000
  0 35.101875 5.992662 51.101166 0.000000 0.999657 0.026177 0.216661 0.559932 1 0 1.000000
barracuda
  0 36.388607 6.079306 47.792408 0.000000 0.999657 0.026177 0.195941 0.551878 1 0 1.000000
  0 35.238647 6.059242 48.558628 0.000000 0.999657 0.026177 0.200740 0.559077 1 0 1.000000
  0 35.101875 5.992662 51.101166 0.000000 0.999657 0.026177 0.216661 0.559932 1 0 1.000000
barracuda
  0 32.328369 14.771679 42.119026 0.000000 -0.999657 -0.026176 0.287920 0.536277 1 0 1.000000
  0 33.009369 15.073357 43.375515 -0.152129 -0.823603 0.546383 0.294580 0.530241 1 0 1.000000
  0 32.061947 15.080002 43.121742 -0.152131 -0.823602 0.546385 0.294580 0.536277 1 0 1.000000
barracuda
  0 33.275787 14.765034 42.372795 0.000000 -0.999657 -0.026176 0.287920 0.530241 1 0 1.000000
  0 33.009369 15.073357 43.375515 -0.152129 -0.823603 0.546383 0.294580 0.530241 1 0 1.000000
  0 32.328369 14.771679 42.119026 0.000000 -0.999657 -0.026176 0.287920 0.536277 1 0 1.000000
barracuda
  0 32.594788 15.132057 41.133812 0.152132 -0.793877 -0.588741 0.281260 0.536277 1 0 1.000000
  0 33.275787 14.765034 42.372795 0.000000 -0.999657 -0.026176 0.287920 0.530241 1 0 1.000000
  0 32.328369 14.771679 42.119026 0.000000 -0.999657 -0.026176 0.287920 0.536277 1 0 1.000000
barracuda
  0 33.542206 15.125412 41.387581 0.152127 -0.793878 -0.588740 0.281260 0.530241 1 0 1.000000
  0 33.275787 14.765034 42.372795 0.000000 -0.999657 -0.026176 0.287920 0.530241 1 0 1.000000
  0 32.594788 15.132057 41.133812 0.152132 -0.793877 -0.588741 0.281260 0.536277 1 0 1.000000
barracuda
  0 32.759445 16.023491 40.542427 0.246151 -0.284863 -0.926425 0.274600 0.536277 1 0 1.000000
  0 33.542206 15.125412 41.387581 0.152127 -0.793878 -0.588740 0.281260 0.530241 1 0 1.000000
  0 32.594788 15.132057 41.133812 0.152132 -0.793877 -0.588741 0.281260 0.536277 1 0 1.000000
barracuda
  0 33.706863 16.016846 40.796200 0.246148 -0.284865 -0.926425 0.274600 0.530241 1 0 1.000000
  0 33.542206 15.125412 41.387581 0.152127 -0.793878 -0.588740 0.281260 0.530241 1 0 1.000000
  0 32.759445 16.023491 40.542427 0.246151 -0.284863 -0.926425 0.274600 0.536277 1 0 1.000000
barracuda
  0 32.759445 17.105474 40.570759 0.246148 0.332956 -0.910248 0.267949 0.536277 1 0 1.000000
  0 33.706863 16.016846 40.796200 0.246148 -0.284865 -0.926425 0.274600 0.530241 1 0 1.000000
  0 32.759445 16.023491 40.542427 0.246151 -0.284863 -0.926425 0.274600 0.536277 1 0 1.000000
barracuda
  0 33.706863 17.098829 40.824532 0.246151 0.332956 -0.910247 0.267940 0.530241 1 0 1.000000
  0 33.706863 16.016846 40.796200 0.246148 -0.284865 -0.926425 0.274600 0.530241 1 0 1.000000
  0 32.759445 17.105474 40.570759 0.246148 0.332956 -0.910248 0.267949 0.536277 1 0 1.000000
barracuda
  0 32.594788 17.964739 41.207985 0.152131 0.823601 -0.546386 0.261270 0.536277 1 0 1.000000
  0 33.706863 17.098829 40.824532 0.246151 0.332956 -0.910247 0.267940 0.530241 1 0 1.000000
  0 32.759445 17.105474 40.570759 0.246148 0.332956 -0.910248 0.267949 0.536277 1 0 1.000000
barracuda
  0 33.542206 17.958096 41.461758 0.152133 0.823601 -0.546386 0.261279 0.530241 1 0 1.000000
  0 33.706863 17.098829 40.824532 0.246151 0.332956 -0.910247 0.267940 0.530241 1 0 1.000000
  0 32.594788 17.964739 41.207985 0.152131 0.823601 -0.546386 0.261270 0.536277 1 0 1.000000
barracuda
  0 32.328369 18.273062 42.210712 -0.000002 0.999657 0.026178 0.254620 0.536277 1 0 1.000000
  0 33.542206 17.958096 41.461758 0.152133 0.823601 -0.546386 0.261279 0.530241 1 0 1.000000
  0 32.594788 17.964739 41.207985 0.152131 0.823601 -0.546386 0.261270 0.536277 1 0 1.000000
barracuda
  0 33.275787 18.266418 42.464481 -0.000002 0.999657 0.026178 0.254619 0.530241 1 0 1.000000
  0 33.542206 17.958096 41.461758 0.152133 0.823601 -0.546386 0.261279 0.530241 1 0 1.000000
  0 32.328369 18.273062 42.210712 -0.000002 0.999657 0.026178 0.254620 0.536277 1 0 1.000000
barracuda
  0 32.061947 17.912683 43.195919 -0.152131 0.793876 0.588741 0.247959 0.536276 1 0 1.000000
  0 33.275787 18.266418 42.464481 -0.000002 0.999657 0.026178 0.254619 0.530241 1 0 1.000000
  0 32.328369 18.273062 42.210712 -0.000002 0.999657 0.026178 0.254620 0.536277 1 0 1.000000
barracuda
  0 33.009369 17.906038 43.449688 -0.152128 0.793877 0.588741 0.247959 0.530241 1 0 1.000000
  0 33.275787 18.266418 42.464481 -0.000002 0.999657 0.026178 0.254619 0.530241 1 0 1.000000
  0 32.061947 17.912683 43.195919 -0.152131 0.793876 0.588741 0.247959 0.536276 1 0 1.000000
barracuda
  0 31.897284 17.021246 43.787304 -0.246149 0.284865 0.926425 0.241299 0.536276 1 0 1.000000
  0 33.009369 17.906038 43.449688 -0.152128 0.793877 0.588741 0.247959 0.530241 1 0 1.000000
  0 32.061947 17.912683 43.195919 -0.152131 0.793876 0.588741 0.247959 0.536276 1 0 1.000000
barracuda
  0 32.844704 17.014603 44.041077 -0.246148 0.284868 0.926424 0.241299 0.530241 1 0 1.000000
  0 33.009369 17.906038 43.449688 -0.152128 0.793877 0.588741 0.247959 0.530241 1 0 1.000000
  0 31.897284 17.021246 43.787304 -0.246149 0.284865 0.926425 0.241299 0.536276 1 0 1.000000
barracuda
  0 31.897284 15.939262 43.758972 -0.246152 -0.332960 0.910246 0.234639 0.536277 1 0 1.000000
  0 32.844704 17.014603 44.041077 -0.246148 0.284868 0.926424 0.241299 0.530241 1 0 1.000000
  0 31.897284 17.021246 43.787304 -0.246149 0.284865 0.926425 0.241299 0.536276 1 0 1.000000
barracuda
  0 32.844704 15.932619 44.012745 -0.246151 -0.332960 0.910246 0.234639 0.530241 1 0 1.000000
  0 32.844704 17.014603 44.041077 -0.246148 0.284868 0.926424 0.241299 0.530241 1 0 1.000000
  0 31.897284 15.939262 43.758972 -0.246152 -0.332960 0.910246 0.234639 0.536277 1 0 1.000000
barracuda
  0 32.061947 15.080002 43.121742 -0.152131 -0.823602 0.546385 0.227978 0.536276 1 0 1.000000
  0 32.844704 15.932619 44.012745 -0.246151 -0.332960 0.910246 0.234639 0.530241 1 0 1.000000
  0 31.897284 15.939262 43.758972 -0.246152 -0.332960 0.910246 0.234639 0.536277 1 0 1.000000
barracuda
  0 33.009369 15.073357 43.375515 -0.152129 -0.823603 0.546383 0.227978 0.530241 1 0 1.000000
  0 32.844704 15.932619 44.012745 -0.246151 -0.332960 0.910246 0.234639 0.530241 1 0 1.000000
  0 32.061947 15.080002 43.121742 -0.152131 -0.823602 0.546385 0.227978 0.536276 1 0 1.000000
barracuda
  0 30.853148 21.566147 42.322109 -0.965929 0.006777 -0.258719 0.242396 0.545515 1 0 1.000000
  0 30.958256 21.708323 41.933414 -0.965924 0.006773 -0.258736 0.241661 0.548000 1 0 1.000000
  0 30.788183 21.214451 42.555424 -0.965926 0.006775 -0.258731 0.241497 0.543031 1 0 1.000000
barracuda
  0 30.958256 21.708323 41.933414 -0.965924 0.006773 -0.258736 0.241661 0.548000 1 0 1.000000
  0 31.063374 21.586685 41.537815 -0.965925 0.006777 -0.258732 0.239571 0.549536 1 0 1.000000
  0 30.788183 21.214451 42.555424 -0.965926 0.006775 -0.258731 0.241497 0.543031 1 0 1.000000
barracuda
  0 31.063374 21.586685 41.537815 -0.965925 0.006777 -0.258732 0.239571 0.549536 1 0 1.000000
  0 31.128328 21.247681 41.286411 -0.965926 0.006775 -0.258729 0.236936 0.549536 1 0 1.000000
  0 30.788183 21.214451 42.555424 -0.965926 0.006775 -0.258731 0.241497 0.543031 1 0 1.000000
barracuda
  0 31.128328 21.247681 41.286411 -0.965926 0.006775 -0.258729 0.236936 0.549536 1 0 1.000000
  0 31.128328 20.820810 41.275234 -0.965927 0.006773 -0.258728 0.234744 0.548000 1 0 1.000000
  0 30.788183 21.214451 42.555424 -0.965926 0.006775 -0.258731 0.241497 0.543031 1 0 1.000000
barracuda
  0 31.128328 20.820810 41.275234 -0.965927 0.006773 -0.258728 0.234744 0.548000 1 0 1.000000
  0 31.063374 20.469116 41.508549 -0.965925 0.006772 -0.258732 0.233846 0.545515 1 0 1.000000
  0 30.788183 21.214451 42.555424 -0.965926 0.006775 -0.258731 0.241497 0.543031 1 0 1.000000
barracuda
  0 31.063374 20.469116 41.508549 -0.965925 0.006772 -0.258732 0.233846 0.545515 1 0 1.000000
  0 30.958256 20.326941 41.897243 -0.965924 0.006772 -0.258736 0.234580 0.543031 1 0 1.000000
  0 30.788183 21.214451 42.555424 -0.965926 0.006775 -0.258731 0.241497 0.543031 1 0 1.000000
barracuda
  0 30.958256 20.326941 41.897243 -0.965924 0.006772 -0.258736 0.234580 0.543031 1 0 1.000000
  0 30.853148 20.448578 42.292843 -0.965926 0.006774 -0.258730 0.236667 0.541496 1 0 1.000000
  0 30.788183 21.214451 42.555424 -0.965926 0.006775 -0.258731 0.241497 0.543031 1 0 1.000000
barracuda
  0 30.853148 20.448578 42.292843 -0.965926 0.006774 -0.258730 0.236667 0.541496 1 0 1.000000
  0 30.788183 20.787580 42.544247 -0.965925 0.006783 -0.258733 0.239309 0.541496 1 0 1.000000
  0 30.788183 21.214451 42.555424 -0.965926 0.006775 -0.258731 0.241497 0.543031 1 0 1.000000
barracuda
  0 32.351242 21.555639 42.723389 0.965925 -0.006745 0.258734 0.242396 0.563100 1 0 1.000000
  0 32.286278 21.203943 42.956699 0.965924 -0.006769 0.258736 0.241497 0.565584 1 0 1.000000
  0 32.456356 21.697813 42.334694 0.965925 -0.006774 0.258732 0.241661 0.560615 1 0 1.000000
barracuda
  0 32.286278 21.203943 42.956699 0.965924 -0.006769 0.258736 0.241497 0.565584 1 0 1.000000
  0 32.286278 20.777073 42.945522 0.965925 -0.006780 0.258735 0.239309 0.567120 1 0 1.000000
  0 32.456356 21.697813 42.334694 0.965925 -0.006774 0.258732 0.241661 0.560615 1 0 1.000000
barracuda
  0 32.286278 20.777073 42.945522 0.965925 -0.006780 0.258735 0.239309 0.567120 1 0 1.000000
  0 32.351242 20.438070 42.694126 0.965925 -0.006779 0.258734 0.236667 0.567120 1 0 1.000000
  0 32.456356 21.697813 42.334694 0.965925 -0.006774 0.258732 0.241661 0.560615 1 0 1.000000
barracuda
  0 32.351242 20.438070 42.694126 0.965925 -0.006779 0.258734 0.236667 0.567120 1 0 1.000000
  0 32.456356 20.316431 42.298519 0.965925 -0.006775 0.258733 0.234580 0.565584 1 0 1.000000
  0 32.456356 21.697813 42.334694 0.965925 -0.006774 0.258732 0.241661 0.560615 1 0 1.000000
barracuda
  0 32.456356 20.316431 42.298519 0.965925 -0.006775 0.258733 0.234580 0.565584 1 0 1.000000
  0 32.561470 20.458607 41.909832 0.965926 -0.006772 0.258729 0.233846 0.563099 1 0 1.000000
  0 32.456356 21.697813 42.334694 0.965925 -0.006774 0.258732 0.241661 0.560615 1 0 1.000000
barracuda
  0 32.561470 20.458607 41.909832 0.965926 -0.006772 0.258729 0.233846 0.563099 1 0 1.000000
  0 32.626423 20.810305 41.676514 0.965928 -0.006769 0.258721 0.234744 0.560615 1 0 1.000000
  0 32.456356 21.697813 42.334694 0.965925 -0.006774 0.258732 0.241661 0.560615 1 0 1.000000
barracuda
  0 32.626423 20.810305 41.676514 0.965928 -0.006769 0.258721 0.234744 0.560615 1 0 1.000000
  0 32.626423 21.237173 41.687691 0.965928 -0.006767 0.258724 0.236936 0.559079 1 0 1.000000
  0 32.456356 21.697813 42.334694 0.965925 -0.006774 0.258732 0.241661 0.560615 1 0 1.000000
barracuda
  0 32.626423 21.237173 41.687691 0.965928 -0.006767 0.258724 0.236936 0.559079 1 0 1.000000
  0 32.561470 21.576176 41.939095 0.965924 -0.006810 0.258738 0.239571 0.559079 1 0 1.000000
  0 32.456356 21.697813 42.334694 0.965925 -0.006774 0.258732 0.241661 0.560615 1 0 1.000000
barracuda
  0 32.594788 17.964739 41.207985 -0.965928 0.006770 -0.258723 0.261270 0.536277 1 0 1.000000
  0 32.759445 17.105474 40.570759 -0.965927 0.006775 -0.258726 0.267949 0.536277 1 0 1.000000
  0 32.328369 18.273062 42.210712 -0.965926 0.006775 -0.258728 0.255971 0.540169 1 0 1.000000
barracuda
  0 32.759445 17.105474 40.570759 -0.965927 0.006775 -0.258726 0.267949 0.536277 1 0 1.000000
  0 32.759445 16.023491 40.542427 -0.965927 0.006775 -0.258727 0.273504 0.540169 1 0 1.000000
  0 32.328369 18.273062 42.210712 -0.965926 0.006775 -0.258728 0.255971 0.540169 1 0 1.000000
barracuda
  0 32.759445 16.023491 40.542427 -0.965927 0.006775 -0.258727 0.273504 0.540169 1 0 1.000000
  0 32.594788 15.132057 41.133812 -0.965927 0.006775 -0.258726 0.275781 0.546467 1 0 1.000000
  0 32.328369 18.273062 42.210712 -0.965926 0.006775 -0.258728 0.255971 0.540169 1 0 1.000000
barracuda
  0 32.594788 15.132057 41.133812 -0.965927 0.006775 -0.258726 0.275781 0.546467 1 0 1.000000
  0 32.328369 14.771679 42.119026 -0.965926 0.006774 -0.258729 0.273919 0.552765 1 0 1.000000
  0 32.328369 18.273062 42.210712 -0.965926 0.006775 -0.258728 0.255971 0.540169 1 0 1.000000
barracuda
  0 32.328369 14.771679 42.119026 -0.965926 0.006774 -0.258729 0.273919 0.552765 1 0 1.000000
  0 32.061947 15.080002 43.121742 -0.965925 0.006773 -0.258732 0.268630 0.556657 1 0 1.000000
  0 32.328369 18.273062 42.210712 -0.965926 0.006775 -0.258728 0.255971 0.540169 1 0 1.000000
barracuda
  0 32.061947 15.080002 43.121742 -0.965925 0.006773 -0.258732 0.268630 0.556657 1 0 1.000000
  0 31.897284 15.939262 43.758972 -0.965925 0.006773 -0.258732 0.261934 0.556657 1 0 1.000000
  0 32.328369 18.273062 42.210712 -0.965926 0.006775 -0.258728 0.255971 0.540169 1 0 1.000000
barracuda
  0 31.897284 15.939262 43.758972 -0.965925 0.006773 -0.258732 0.261934 0.556657 1 0 1.000000
  0 31.897284 17.021246 43.787304 -0.965925 0.006776 -0.258732 0.256387 0.552764 1 0 1.000000
  0 32.328369 18.273062 42.210712 -0.965926 0.006775 -0.258728 0.255971 0.540169 1 0 1.000000
barracuda
  0 31.897284 17.021246 43.787304 -0.965925 0.006776 -0.258732 0.256387 0.552764 1 0 1.000000
  0 32.061947 17.912683 43.195919 -0.965926 0.006780 -0.258728 0.254110 0.546467 1 0 1.000000
  0 32.328369 18.273062 42.210712 -0.965926 0.006775 -0.258728 0.255971 0.540169 1 0 1.000000
barracuda
  0 35.328419 56.793507 21.823540 0.000000 0.985054 -0.172247 0.825606 0.288269 1 0 1.000000
  0 35.287128 57.299786 24.718889 0.000000 0.984234 -0.176869 0.814856 0.288483 1 0 1.000000
  0 38.954548 56.793507 21.823540 0.000000 0.985054 -0.172248 0.826069 0.301791 1 0 1.000000
barracuda
  0 38.954548 56.793507 21.823540 0.000000 0.985054 -0.172248 0.826069 0.301791 1 0 1.000000
  0 35.287128 57.299786 24.718889 0.000000 0.984234 -0.176869 0.814856 0.288483 1 0 1.000000
  0 40.188263 57.299789 24.718891 -0.000001 0.984338 -0.176294 0.815482 0.306759 1 0 1.000000
barracuda
  0 35.287128 57.299786 24.718889 0.000000 0.984234 -0.176869 0.814856 0.288483 1 0 1.000000
  0 35.089375 58.585766 31.691725 -0.000001 0.995861 -0.090886 0.788962 0.288632 1 0 1.000000
  0 40.188263 57.299789 24.718891 -0.000001 0.984338 -0.176294 0.815482 0.306759 1 0 1.000000
barracuda
  0 40.188263 57.299789 24.718891 -0.000001 0.984338 -0.176294 0.815482 0.306759 1 0 1.000000
  0 35.089375 58.585766 31.691725 -0.000001 0.995861 -0.090886 0.788962 0.288632 1 0 1.000000
  0 41.186707 58.585770 31.691725 -0.000001 0.995863 -0.090868 0.789728 0.311369 1 0 1.000000
barracuda
  0 41.186707 58.585770 31.691725 -0.000001 0.995863 -0.090868 0.789728 0.311369 1 0 1.000000
  0 35.089375 58.585766 31.691725 -0.000001 0.995861 -0.090886 0.788962 0.288632 1 0 1.000000
  0 40.621944 58.582928 41.076347 0.005230 0.991281 0.131663 0.754697 0.310462 1 0 1.000000
barracuda
  0 40.621944 58.582928 41.076347 0.005230 0.991281 0.131663 0.754697 0.310462 1 0 1.000000
  0 35.089375 58.585766 31.691725 -0.000001 0.995861 -0.090886 0.788962 0.288632 1 0 1.000000
  0 34.778477 58.582928 41.076347 0.005224 0.991289 0.131604 0.753937 0.288671 1 0 1.000000
barracuda
  0 40.621944 58.582928 41.076347 0.005230 0.991281 0.131663 0.754697 0.310462 1 0 1.000000
  0 34.778477 58.582928 41.076347 0.005224 0.991289 0.131604 0.753937 0.288671 1 0 1.000000
  0 38.567909 56.001713 50.484589 0.010405 0.965373 0.260666 0.719097 0.304013 1 0 1.000000
barracuda
  0 38.567909 56.001713 50.484589 0.010405 0.965373 0.260666 0.719097 0.304013 1 0 1.000000
  0 34.778477 58.582928 41.076347 0.005224 0.991289 0.131604 0.753937 0.288671 1 0 1.000000
  0 33.211811 56.120869 50.487709 0.010388 0.965371 0.260673 0.718413 0.284039 1 0 1.000000
barracuda
  0 40.213898 53.750931 42.506111 0.975597 -0.017791 0.218849 0.748905 0.328347 1 0 1.000000
  0 40.155636 48.904106 42.344032 0.974919 -0.017041 0.221906 0.749036 0.346442 1 0 1.000000
  0 40.050869 -6.602501 38.565914 0.972987 -0.017644 0.230185 0.757710 0.553858 1 0 1.000000
barracuda
  0 40.050869 -6.602501 38.565914 0.972987 -0.017644 0.230185 0.757710 0.553858 1 0 1.000000
  0 40.155636 48.904106 42.344032 0.974919 -0.017041 0.221906 0.749036 0.346442 1 0 1.000000
  0 39.831699 48.833668 43.798283 0.972977 -0.017648 0.230229 0.743605 0.346563 1 0 1.000000
barracuda
  0 40.050869 -6.602501 38.565914 0.972987 -0.017644 0.230185 0.757710 0.553858 1 0 1.000000
  0 39.831699 48.833668 43.798283 0.972977 -0.017648 0.230229 0.743605 0.346563 1 0 1.000000
  0 38.216282 -4.290344 46.189209 0.970962 -0.018237 0.238536 0.730422 0.544453 1 0 1.000000
barracuda
  0 38.216282 -4.290344 46.189209 0.970962 -0.018237 0.238536 0.730422 0.544453 1 0 1.000000
  0 39.831699 48.833668 43.798283 0.972977 -0.017648 0.230229 0.743605 0.346563 1 0 1.000000
  0 38.552685 8.141094 46.508308 0.970988 -0.018250 0.238432 0.730154 0.498044 1 0 1.000000
barracuda
  0 39.831699 48.833668 43.798283 0.972977 -0.017648 0.230229 0.743605 0.346563 1 0 1.000000
  0 39.451820 48.751064 45.503765 0.970156 -0.033152 0.240204 0.737235 0.346704 1 0 1.000000
  0 38.552685 8.141094 46.508308 0.970988 -0.018250 0.238432 0.730154 0.498044 1 0 1.000000
barracuda
  0 39.451820 48.751064 45.503765 0.970156 -0.033152 0.240204 0.737235 0.346704 1 0 1.000000
  0 38.571350 45.484478 47.822395 0.970154 -0.033146 0.240215 0.726833 0.358672 1 0 1.000000
  0 38.552685 8.141094 46.508308 0.970988 -0.018250 0.238432 0.730154 0.498044 1 0 1.000000
barracuda
  0 39.531036 53.634857 45.596497 0.974756 -0.031313 0.221068 0.737366 0.328478 1 0 1.000000
  0 38.571350 45.484478 47.822395 0.970154 -0.033146 0.240215 0.726833 0.358672 1 0 1.000000
  0 39.451820 48.751064 45.503765 0.970156 -0.033152 0.240204 0.737235 0.346704 1 0 1.000000
barracuda
  0 38.567909 56.001713 50.484589 0.973854 -0.037755 0.224017 0.721602 0.319197 1 0 1.000000
  0 38.571350 45.484478 47.822395 0.970154 -0.033146 0.240215 0.726833 0.358672 1 0 1.000000
  0 39.531036 53.634857 45.596497 0.974756 -0.031313 0.221068 0.737366 0.328478 1 0 1.000000
barracuda
  0 40.621944 58.582928 41.076347 0.976489 -0.020480 0.214592 0.754697 0.310462 1 0 1.000000
  0 38.567909 56.001713 50.484589 0.973854 -0.037755 0.224017 0.721602 0.319197 1 0 1.000000
  0 39.531036 53.634857 45.596497 0.974756 -0.031313 0.221068 0.737366 0.328478 1 0 1.000000
barracuda
  0 40.621944 58.582928 41.076347 0.976489 -0.020480 0.214592 0.754697 0.310462 1 0 1.000000
  0 39.531036 53.634857 45.596497 0.974756 -0.031313 0.221068 0.737366 0.328478 1 0 1.000000
  0 39.888832 53.695671 43.977295 0.976422 -0.018821 0.215048 0.743412 0.328409 1 0 1.000000
barracuda
  0 40.621944 58.582928 41.076347 0.976489 -0.020480 0.214592 0.754697 0.310462 1 0 1.000000
  0 39.888832 53.695671 43.977295 0.976422 -0.018821 0.215048 0.743412 0.328409 1 0 1.000000
  0 40.213898 53.750931 42.506111 0.975597 -0.017791 0.218849 0.748905 0.328347 1 0 1.000000
barracuda
  0 40.621944 58.582928 41.076347 0.976489 -0.020480 0.214592 0.754697 0.310462 1 0 1.000000
  0 40.213898 53.750931 42.506111 0.975597 -0.017791 0.218849 0.748905 0.328347 1 0 1.000000
  0 40.050869 -6.602501 38.565914 0.972987 -0.017644 0.230185 0.757710 0.553858 1 0 1.000000
end
