// Created by Crowbar 0.74
version 1
nodes
  0 "Rig_Buggy.Frame" -1
  1 "Rig_Buggy.Shock_RR_Sleeve" 0
  2 "Rig_Buggy.Shock_FR_Sleeve" 0
  3 "Rig_Buggy.Axel_RR" 0
  4 "Rig_Buggy.Wheel_RR" 3
  5 "Rig_Buggy.Shock_RR_Piston" 3
  6 "Rig_Buggy.Steer_Arm" 0
  7 "Rig_Buggy.Shock_FL_Sleeve" 0
  8 "Rig_Buggy.Axel_RL" 0
  9 "Rig_Buggy.Wheel_RL" 8
  10 "Rig_Buggy.Shock_RL_Piston" 8
  11 "Rig_Buggy.Shock_RL_Sleeve" 0
  12 "Rig_Buggy.view" 0
  13 "Rig_Buggy.Gun_Base" 0
  14 "Rig_Buggy.Gun_Parent" 13
  15 "Rig_Buggy.Gun" 14
  16 "Rig_Buggy.Speedo" 0
  17 "Rig_Buggy.Wheel_FR_Turn_parent" 0
  18 "Rig_Buggy.Wheel_FR_Turn" 17
  19 "Rig_Buggy.Wheel_FR_Rotate" 18
  20 "Rig_Buggy.Axel_FR" 0
  21 "Rig_Buggy.Shock_FR_Piston" 20
  22 "Rig_Buggy.Wheel_FL_Turn_parent" 0
  23 "Rig_Buggy.Wheel_FL_Turn" 22
  24 "Rig_Buggy.Wheel_FL_Rotate" 23
  25 "Rig_Buggy.Axel_FL" 0
  26 "Rig_Buggy.Shock_FL_Piston" 25
  27 "Rig_Buggy.Steer_Wheel" 0
  28 "Rig_Buggy.lid" 0
  29 "Rig_Buggy.latch" 28
  30 "Rig_Buggy.gun_cylinders" 15
end
skeleton
  time 0
    0 0.000000 35.485321 34.046600 1.570796 0.000000 0.000000
    1 -26.737438 9.978985 -63.177883 0.007403 -0.264986 -1.495672
    2 -26.847315 6.445412 78.520195 0.268794 0.005691 -3.065482
    3 -4.313085 -13.578558 -57.058857 -3.141593 0.000000 -3.141593
    4 38.013966 0.147196 -0.193550 -3.141593 0.000000 3.141593
    5 20.686598 0.469204 -0.164131 -3.110558 -0.264987 1.495673
    6 0.016516 -11.367849 70.181595 0.000000 0.000000 0.000000
    7 26.847315 6.445412 78.520195 2.876405 -0.019503 -0.071313
    8 4.313085 -13.578558 -57.058857 0.000000 0.000000 0.000000
    9 38.013966 0.147198 0.193550 -3.141593 0.000000 -3.141593
    10 20.605600 0.473753 0.167809 -0.024410 0.265136 1.494187
    11 26.690825 9.982029 -63.178234 0.007043 -0.265136 -1.647406
    12 9.429615 20.728470 -11.982517 0.000000 -1.570796 -1.570796
    13 -16.873423 9.784611 52.968445 0.000000 0.000000 0.000000
    14 0.020790 5.827110 -0.224472 0.000000 -1.570796 -1.570796
    15 0.000002 0.000002 0.000000 0.000000 0.000000 0.000000
    16 5.664327 9.038128 28.830690 -1.230457 0.000000 0.000000
    17 -34.710712 -15.133160 78.859528 0.000000 0.000000 0.000000
    18 0.000000 0.217955 -0.009628 0.000000 0.000000 0.000000
    19 -6.579208 0.000000 -0.000004 0.000000 0.000000 0.000000
    20 -14.319742 -15.458982 88.923615 -1.655486 0.445706 -2.888000
    21 11.574886 -2.180904 1.427973 -1.940707 -0.171070 2.830508
    22 34.710712 -15.133160 78.859528 -3.141593 0.000000 3.141593
    23 0.000000 0.217958 0.009628 0.000000 0.000000 0.000000
    24 -6.579208 0.000002 0.000000 0.000000 0.000000 0.000000
    25 14.319742 -15.458982 88.923615 -0.057762 0.445706 -0.253592
    26 11.620373 -2.905371 2.149563 -0.263171 -0.211841 0.098316
    27 8.930669 9.895988 16.516954 -1.178097 0.000000 0.000000
    28 -10.478000 3.596272 -57.675579 0.000000 0.000000 0.000000
    29 20.682631 -0.459137 -0.000008 0.000000 0.000000 0.000000
    30 -8.438859 0.038662 0.559093 1.570796 0.000000 1.570796
end
triangles
barracuda_glass
  0 -34.107983 69.194046 55.062252 -0.921507 -0.055534 0.384371 0.596080 0.923178 1 0 1.000000
  0 -34.573063 54.909767 51.437546 -0.921508 -0.055503 0.384372 0.797907 0.992934 1 0 1.000000
  0 -28.792467 54.728481 65.269989 -0.921507 -0.055540 0.384370 0.820342 0.776956 1 0 1.000000
barracuda_glass
  0 -28.792467 54.728481 65.269989 -0.921507 -0.055540 0.384370 0.820342 0.776956 1 0 1.000000
  0 -34.573063 54.909767 51.437546 -0.921508 -0.055503 0.384372 0.797907 0.992934 1 0 1.000000
  0 -28.798119 49.993752 65.017532 -0.921506 -0.055558 0.384370 0.888330 0.786608 1 0 1.000000
barracuda_glass
  0 27.832945 17.471376 62.859688 0.265565 -0.620759 0.737654 0.356558 0.086989 1 0 1.000000
  0 23.648254 16.047218 64.235016 0.203409 -0.647309 0.734585 0.354642 0.151603 1 0 1.000000
  0 29.728771 12.958462 58.711235 0.283907 -0.608139 0.741326 0.270328 0.062670 1 0 1.000000
barracuda_glass
  0 31.849995 6.981388 53.072765 0.323552 -0.595141 0.735609 0.155351 0.034006 1 0 1.000000
  0 29.646698 -0.760410 47.778404 0.304384 -0.603937 0.736621 0.025460 0.069013 1 0 1.000000
  0 33.553101 1.353382 47.654789 0.344809 -0.594758 0.726202 0.046201 0.010539 1 0 1.000000
barracuda_glass
  0 29.728771 12.958462 58.711235 0.283907 -0.608139 0.741326 0.270328 0.062670 1 0 1.000000
  0 29.646698 -0.760410 47.778404 0.304384 -0.603937 0.736621 0.025460 0.069013 1 0 1.000000
  0 31.849995 6.981388 53.072765 0.323552 -0.595141 0.735609 0.155351 0.034006 1 0 1.000000
barracuda_glass
  0 23.648254 16.047218 64.235016 0.203409 -0.647309 0.734585 0.354642 0.151603 1 0 1.000000
  0 29.646698 -0.760410 47.778404 0.304384 -0.603937 0.736621 0.025460 0.069013 1 0 1.000000
  0 29.728771 12.958462 58.711235 0.283907 -0.608139 0.741326 0.270328 0.062670 1 0 1.000000
barracuda_glass
  0 22.985224 -2.226543 47.963634 0.203395 -0.647315 0.734584 0.013069 0.163481 1 0 1.000000
  0 29.646698 -0.760410 47.778404 0.304384 -0.603937 0.736621 0.025460 0.069013 1 0 1.000000
  0 23.648254 16.047218 64.235016 0.203409 -0.647309 0.734585 0.354642 0.151603 1 0 1.000000
barracuda_glass
  0 23.648254 16.047218 64.235016 0.203409 -0.647309 0.734585 0.354642 0.151603 1 0 1.000000
  0 11.607777 14.309250 65.391663 0.088171 -0.685584 0.722634 0.348629 0.322129 1 0 1.000000
  0 22.985224 -2.226543 47.963634 0.203395 -0.647315 0.734584 0.013069 0.163481 1 0 1.000000
barracuda_glass
  0 22.985224 -2.226543 47.963634 0.203395 -0.647315 0.734584 0.013069 0.163481 1 0 1.000000
  0 11.607777 14.309250 65.391663 0.088171 -0.685584 0.722634 0.348629 0.322129 1 0 1.000000
  0 14.852693 -3.262383 48.138569 0.088184 -0.685579 0.722637 0.004662 0.277672 1 0 1.000000
barracuda_glass
  0 11.607777 14.309250 65.391663 0.088171 -0.685584 0.722634 0.348629 0.322129 1 0 1.000000
  0 -0.289824 -3.627678 48.470924 0.000003 -0.698283 0.715822 0.004783 0.489223 1 0 1.000000
  0 14.852693 -3.262383 48.138569 0.088184 -0.685579 0.722637 0.004662 0.277672 1 0 1.000000
barracuda_glass
  0 -0.289826 13.804100 65.563278 0.000004 -0.698762 0.715354 0.345673 0.488399 1 0 1.000000
  0 -0.289824 -3.627678 48.470924 0.000003 -0.698283 0.715822 0.004783 0.489223 1 0 1.000000
  0 11.607777 14.309250 65.391663 0.088171 -0.685584 0.722634 0.348629 0.322129 1 0 1.000000
barracuda_glass
  0 -12.187429 14.309156 65.391685 -0.088257 -0.685551 0.722655 0.349433 0.654652 1 0 1.000000
  0 -0.289824 -3.627678 48.470924 0.000003 -0.698283 0.715822 0.004783 0.489223 1 0 1.000000
  0 -0.289826 13.804100 65.563278 0.000004 -0.698762 0.715354 0.345673 0.488399 1 0 1.000000
barracuda_glass
  0 -15.432340 -3.262478 48.138580 -0.088181 -0.685580 0.722637 0.005684 0.700772 1 0 1.000000
  0 -0.289824 -3.627678 48.470924 0.000003 -0.698283 0.715822 0.004783 0.489223 1 0 1.000000
  0 -12.187429 14.309156 65.391685 -0.088257 -0.685551 0.722655 0.349433 0.654652 1 0 1.000000
barracuda_glass
  0 -12.187429 14.309156 65.391685 -0.088257 -0.685551 0.722655 0.349433 0.654652 1 0 1.000000
  0 -23.564873 -2.226635 47.963657 -0.206393 -0.648107 0.733048 0.014643 0.814921 1 0 1.000000
  0 -15.432340 -3.262478 48.138580 -0.088181 -0.685580 0.722637 0.005684 0.700772 1 0 1.000000
barracuda_glass
  0 -24.227907 16.047123 64.235031 -0.206386 -0.648105 0.733052 0.356270 0.825148 1 0 1.000000
  0 -23.564873 -2.226635 47.963657 -0.206393 -0.648107 0.733048 0.014643 0.814921 1 0 1.000000
  0 -12.187429 14.309156 65.391685 -0.088257 -0.685551 0.722655 0.349433 0.654652 1 0 1.000000
barracuda_glass
  0 -24.227907 16.047123 64.235031 -0.206386 -0.648105 0.733052 0.356270 0.825148 1 0 1.000000
  0 -30.226349 -0.760506 47.778423 -0.304573 -0.601488 0.738544 0.027910 0.909270 1 0 1.000000
  0 -23.564873 -2.226635 47.963657 -0.206393 -0.648107 0.733048 0.014643 0.814921 1 0 1.000000
barracuda_glass
  0 -28.412603 17.471281 62.859703 -0.304575 -0.601487 0.738544 0.358688 0.889744 1 0 1.000000
  0 -30.226349 -0.760506 47.778423 -0.304573 -0.601488 0.738544 0.027910 0.909270 1 0 1.000000
  0 -24.227907 16.047123 64.235031 -0.206386 -0.648105 0.733052 0.356270 0.825148 1 0 1.000000
barracuda_glass
  0 -28.412603 17.471281 62.859703 -0.304575 -0.601487 0.738544 0.358688 0.889744 1 0 1.000000
  0 -34.132751 1.353283 47.654804 -0.337259 -0.579901 0.741601 0.048799 0.967691 1 0 1.000000
  0 -30.226349 -0.760506 47.778423 -0.304573 -0.601488 0.738544 0.027910 0.909270 1 0 1.000000
barracuda_glass
  0 33.548622 69.194061 55.062252 0.921505 -0.055582 0.384370 0.595223 0.923369 1 0 1.000000
  0 28.233105 54.728493 65.269989 0.921506 -0.055540 0.384372 0.820228 0.777425 1 0 1.000000
  0 34.013702 54.909779 51.437546 0.921503 -0.055599 0.384370 0.797238 0.993729 1 0 1.000000
barracuda_glass
  0 34.013702 54.909779 51.437546 0.921503 -0.055599 0.384370 0.797238 0.993729 1 0 1.000000
  0 28.233105 54.728493 65.269989 0.921506 -0.055540 0.384372 0.820228 0.777425 1 0 1.000000
  0 28.238762 49.993759 65.017532 0.921506 -0.055557 0.384370 0.888313 0.787257 1 0 1.000000
barracuda_glass
  0 30.366505 94.653717 55.543896 0.247455 0.349323 0.903736 0.395031 0.040954 1 0 1.000000
  0 25.526039 72.047928 65.547943 0.363803 0.310706 0.878128 0.735530 0.107256 1 0 1.000000
  0 31.491272 93.164841 55.480900 0.363766 0.310722 0.878138 0.413812 0.023394 1 0 1.000000
barracuda_glass
  0 24.411861 70.629333 66.387604 0.247316 0.349404 0.903743 0.758028 0.122897 1 0 1.000000
  0 25.526039 72.047928 65.547943 0.363803 0.310706 0.878128 0.735530 0.107256 1 0 1.000000
  0 30.366505 94.653717 55.543896 0.247455 0.349323 0.903736 0.395031 0.040954 1 0 1.000000
barracuda_glass
  0 24.411861 70.629333 66.387604 0.247316 0.349404 0.903743 0.758028 0.122897 1 0 1.000000
  0 30.366505 94.653717 55.543896 0.247455 0.349323 0.903736 0.395031 0.040954 1 0 1.000000
  0 15.990435 71.821701 67.083778 0.086885 0.384168 0.919166 0.746797 0.239881 1 0 1.000000
barracuda_glass
  0 15.990435 71.821701 67.083778 0.086885 0.384168 0.919166 0.746797 0.239881 1 0 1.000000
  0 30.366505 94.653717 55.543896 0.247455 0.349323 0.903736 0.395031 0.040954 1 0 1.000000
  0 16.614397 97.484756 56.241165 0.086958 0.384150 0.919167 0.363124 0.231899 1 0 1.000000
barracuda_glass
  0 15.990435 71.821701 67.083778 0.086885 0.384168 0.919166 0.746797 0.239881 1 0 1.000000
  0 16.614397 97.484756 56.241165 0.086958 0.384150 0.919167 0.363124 0.231899 1 0 1.000000
  0 -0.215061 72.827225 67.395164 0.000000 0.385686 0.922630 0.736062 0.463262 1 0 1.000000
barracuda_glass
  0 -0.215061 72.827225 67.395164 0.000000 0.385686 0.922630 0.736062 0.463262 1 0 1.000000
  0 16.614397 97.484756 56.241165 0.086958 0.384150 0.919167 0.363124 0.231899 1 0 1.000000
  0 -0.215066 98.494461 56.761887 0.000000 0.385445 0.922731 0.353462 0.463987 1 0 1.000000
barracuda_glass
  0 -0.215066 98.494461 56.761887 0.000000 0.385445 0.922731 0.353462 0.463987 1 0 1.000000
  0 -17.044531 97.484756 56.241165 -0.086958 0.384149 0.919167 0.364003 0.696038 1 0 1.000000
  0 -0.215061 72.827225 67.395164 0.000000 0.385686 0.922630 0.736062 0.463262 1 0 1.000000
barracuda_glass
  0 -0.215061 72.827225 67.395164 0.000000 0.385686 0.922630 0.736062 0.463262 1 0 1.000000
  0 -17.044531 97.484756 56.241165 -0.086958 0.384149 0.919167 0.364003 0.696038 1 0 1.000000
  0 -16.420555 71.821701 67.083778 -0.086933 0.384039 0.919215 0.747644 0.686602 1 0 1.000000
barracuda_glass
  0 -17.044531 97.484756 56.241165 -0.086958 0.384149 0.919167 0.364003 0.696038 1 0 1.000000
  0 -30.796635 94.653717 55.543896 -0.247153 0.349497 0.903752 0.396632 0.886862 1 0 1.000000
  0 -16.420555 71.821701 67.083778 -0.086933 0.384039 0.919215 0.747644 0.686602 1 0 1.000000
barracuda_glass
  0 -16.420555 71.821701 67.083778 -0.086933 0.384039 0.919215 0.747644 0.686602 1 0 1.000000
  0 -30.796635 94.653717 55.543896 -0.247153 0.349497 0.903752 0.396632 0.886862 1 0 1.000000
  0 -24.841984 70.629318 66.387604 -0.247316 0.349404 0.903743 0.759319 0.803543 1 0 1.000000
barracuda_glass
  0 -30.796635 94.653717 55.543896 -0.247153 0.349497 0.903752 0.396632 0.886862 1 0 1.000000
  0 -25.956161 72.047913 65.547943 -0.363758 0.310719 0.878142 0.736880 0.819269 1 0 1.000000
  0 -24.841984 70.629318 66.387604 -0.247316 0.349404 0.903743 0.759319 0.803543 1 0 1.000000
barracuda_glass
  0 -31.921396 93.164825 55.480900 -0.363767 0.310717 0.878139 0.415480 0.904349 1 0 1.000000
  0 -25.956161 72.047913 65.547943 -0.363758 0.310719 0.878142 0.736880 0.819269 1 0 1.000000
  0 -30.796635 94.653717 55.543896 -0.247153 0.349497 0.903752 0.396632 0.886862 1 0 1.000000
end
