// Created by Crowbar 0.74
version 1
nodes
  0 "Rig_Buggy.Frame" -1
  1 "Rig_Buggy.Shock_RR_Sleeve" 0
  2 "Rig_Buggy.Shock_FR_Sleeve" 0
  3 "Rig_Buggy.Axel_RR" 0
  4 "Rig_Buggy.Wheel_RR" 3
  5 "Rig_Buggy.Shock_RR_Piston" 3
  6 "Rig_Buggy.Steer_Arm" 0
  7 "Rig_Buggy.Shock_FL_Sleeve" 0
  8 "Rig_Buggy.Axel_RL" 0
  9 "Rig_Buggy.Wheel_RL" 8
  10 "Rig_Buggy.Shock_RL_Piston" 8
  11 "Rig_Buggy.Shock_RL_Sleeve" 0
  12 "Rig_Buggy.view" 0
  13 "Rig_Buggy.Gun_Base" 0
  14 "Rig_Buggy.Gun_Parent" 13
  15 "Rig_Buggy.Gun" 14
  16 "Rig_Buggy.Speedo" 0
  17 "Rig_Buggy.Wheel_FR_Turn_parent" 0
  18 "Rig_Buggy.Wheel_FR_Turn" 17
  19 "Rig_Buggy.Wheel_FR_Rotate" 18
  20 "Rig_Buggy.Axel_FR" 0
  21 "Rig_Buggy.Shock_FR_Piston" 20
  22 "Rig_Buggy.Wheel_FL_Turn_parent" 0
  23 "Rig_Buggy.Wheel_FL_Turn" 22
  24 "Rig_Buggy.Wheel_FL_Rotate" 23
  25 "Rig_Buggy.Axel_FL" 0
  26 "Rig_Buggy.Shock_FL_Piston" 25
  27 "Rig_Buggy.Steer_Wheel" 0
  28 "Rig_Buggy.lid" 0
  29 "Rig_Buggy.latch" 28
  30 "Rig_Buggy.gun_cylinders" 15
end
skeleton
  time 0
    0 0.000000 35.485321 34.046600 1.570796 0.000000 0.000000
    1 -26.737438 9.978985 -63.177883 0.007403 -0.264986 -1.495672
    2 -26.847315 6.445412 78.520195 0.268794 0.005691 -3.065482
    3 -4.313085 -13.578558 -57.058857 -3.141593 0.000000 -3.141593
    4 38.013966 0.147196 -0.193550 -3.141593 0.000000 3.141593
    5 20.686598 0.469204 -0.164131 -3.110558 -0.264987 1.495673
    6 0.016516 -11.367849 70.181595 0.000000 0.000000 0.000000
    7 26.847315 6.445412 78.520195 2.876405 -0.019503 -0.071313
    8 4.313085 -13.578558 -57.058857 0.000000 0.000000 0.000000
    9 38.013966 0.147198 0.193550 -3.141593 0.000000 -3.141593
    10 20.605600 0.473753 0.167809 -0.024410 0.265136 1.494187
    11 26.690825 9.982029 -63.178234 0.007043 -0.265136 -1.647406
    12 9.429615 20.728470 -11.982517 0.000000 -1.570796 -1.570796
    13 -16.873423 9.784611 52.968445 0.000000 0.000000 0.000000
    14 0.020790 5.827110 -0.224472 0.000000 -1.570796 -1.570796
    15 0.000002 0.000002 0.000000 0.000000 0.000000 0.000000
    16 5.664327 9.038128 28.830690 -1.230457 0.000000 0.000000
    17 -34.710712 -15.133160 78.859528 0.000000 0.000000 0.000000
    18 0.000000 0.217955 -0.009628 0.000000 0.000000 0.000000
    19 -6.579208 0.000000 -0.000004 0.000000 0.000000 0.000000
    20 -14.319742 -15.458982 88.923615 -1.655486 0.445706 -2.888000
    21 11.574886 -2.180904 1.427973 -1.940707 -0.171070 2.830508
    22 34.710712 -15.133160 78.859528 -3.141593 0.000000 3.141593
    23 0.000000 0.217958 0.009628 0.000000 0.000000 0.000000
    24 -6.579208 0.000002 0.000000 0.000000 0.000000 0.000000
    25 14.319742 -15.458982 88.923615 -0.057762 0.445706 -0.253592
    26 11.620373 -2.905371 2.149563 -0.263171 -0.211841 0.098316
    27 8.930669 9.895988 16.516954 -1.178097 0.000000 0.000000
    28 -10.478000 3.596272 -57.675579 0.000000 0.000000 0.000000
    29 20.682631 -0.459137 -0.000008 0.000000 0.000000 0.000000
    30 -8.438859 0.038662 0.559093 1.570796 0.000000 1.570796
end
triangles
barracuda
  4 -29.026405 104.918991 20.451839 0.866202 0.499694 -0.000005 0.751043 0.737290 1 4 1.000000
  4 -29.026409 104.138092 24.880587 0.866198 0.469564 0.170909 0.738594 0.752126 1 4 1.000000
  4 -29.026405 104.138084 16.023096 0.866184 0.469585 -0.170922 0.767816 0.727606 1 4 1.000000
barracuda
  4 -29.026384 79.802322 16.023111 0.866201 -0.469562 -0.170900 0.835184 0.807892 1 4 1.000000
  4 -29.026382 82.050850 12.128535 0.866197 -0.382797 -0.321200 0.841808 0.789693 1 4 1.000000
  4 -29.026381 79.021416 20.451859 0.866200 -0.499698 0.000006 0.822734 0.822729 1 4 1.000000
barracuda
  4 -29.026381 79.021416 20.451859 0.866200 -0.499698 0.000006 0.822734 0.822729 1 4 1.000000
  4 -29.026382 82.050850 12.128535 0.866197 -0.382797 -0.321200 0.841808 0.789693 1 4 1.000000
  4 -29.026386 82.050865 28.775177 0.866202 -0.382784 0.321203 0.786889 0.835775 1 4 1.000000
barracuda
  4 -29.026382 82.050850 12.128535 0.866197 -0.382797 -0.321200 0.841808 0.789693 1 4 1.000000
  4 -29.026405 104.138084 16.023096 0.866184 0.469585 -0.170922 0.767816 0.727606 1 4 1.000000
  4 -29.026386 82.050865 28.775177 0.866202 -0.382784 0.321203 0.786889 0.835775 1 4 1.000000
barracuda
  4 -29.026402 98.444611 31.665825 0.866203 0.249844 0.432747 0.731970 0.789475 1 4 1.000000
  4 -29.026386 82.050865 28.775177 0.866202 -0.382784 0.321203 0.786889 0.835775 1 4 1.000000
  4 -29.026405 104.138084 16.023096 0.866184 0.469585 -0.170922 0.767816 0.727606 1 4 1.000000
barracuda
  4 -29.026409 104.138092 24.880587 0.866198 0.469564 0.170909 0.738594 0.752126 1 4 1.000000
  4 -29.026402 98.444611 31.665825 0.866203 0.249844 0.432747 0.731970 0.789475 1 4 1.000000
  4 -29.026405 104.138084 16.023096 0.866184 0.469585 -0.170922 0.767816 0.727606 1 4 1.000000
barracuda
  4 -29.026405 101.889565 28.775164 0.866203 0.382790 0.321192 0.731970 0.770543 1 4 1.000000
  4 -29.026402 98.444611 31.665825 0.866203 0.249844 0.432747 0.731970 0.789475 1 4 1.000000
  4 -29.026409 104.138092 24.880587 0.866198 0.469564 0.170909 0.738594 0.752126 1 4 1.000000
barracuda
  4 -29.026386 79.802330 24.880604 0.866202 -0.469557 0.170912 0.805962 0.832412 1 4 1.000000
  4 -29.026381 79.021416 20.451859 0.866200 -0.499698 0.000006 0.822734 0.822729 1 4 1.000000
  4 -29.026386 82.050865 28.775177 0.866202 -0.382784 0.321203 0.786889 0.835775 1 4 1.000000
barracuda
  4 -29.026402 94.218750 33.203918 0.866202 0.086778 0.492102 0.738594 0.807892 1 4 1.000000
  4 -29.026398 89.721680 33.203918 0.866199 -0.086765 0.492109 0.751043 0.822729 1 4 1.000000
  4 -29.026402 98.444611 31.665825 0.866203 0.249844 0.432747 0.731970 0.789475 1 4 1.000000
barracuda
  4 -29.026398 89.721680 33.203918 0.866199 -0.086765 0.492109 0.751043 0.822729 1 4 1.000000
  4 -29.026386 82.050865 28.775177 0.866202 -0.382784 0.321203 0.786889 0.835775 1 4 1.000000
  4 -29.026402 98.444611 31.665825 0.866203 0.249844 0.432747 0.731970 0.789475 1 4 1.000000
barracuda
  4 -29.026394 85.495811 31.665833 0.866202 -0.249841 0.432752 0.767816 0.832412 1 4 1.000000
  4 -29.026386 82.050865 28.775177 0.866202 -0.382784 0.321203 0.786889 0.835775 1 4 1.000000
  4 -29.026398 89.721680 33.203918 0.866199 -0.086765 0.492109 0.751043 0.822729 1 4 1.000000
barracuda
  4 -29.026390 85.495796 9.237875 0.866201 -0.249852 -0.432747 0.841808 0.770325 1 4 1.000000
  4 -29.026390 89.721664 7.699787 0.866200 -0.086768 -0.492107 0.835184 0.752126 1 4 1.000000
  4 -29.026382 82.050850 12.128535 0.866197 -0.382797 -0.321200 0.841808 0.789693 1 4 1.000000
barracuda
  4 -29.026390 89.721664 7.699787 0.866200 -0.086768 -0.492107 0.835184 0.752126 1 4 1.000000
  4 -29.026403 98.444595 9.237865 0.866203 0.249840 -0.432750 0.805962 0.727606 1 4 1.000000
  4 -29.026382 82.050850 12.128535 0.866197 -0.382797 -0.321200 0.841808 0.789693 1 4 1.000000
barracuda
  4 -29.026403 98.444595 9.237865 0.866203 0.249840 -0.432750 0.805962 0.727606 1 4 1.000000
  4 -29.026405 104.138084 16.023096 0.866184 0.469585 -0.170922 0.767816 0.727606 1 4 1.000000
  4 -29.026382 82.050850 12.128535 0.866197 -0.382797 -0.321200 0.841808 0.789693 1 4 1.000000
barracuda
  4 -29.026405 101.889549 12.128525 0.866202 0.382785 -0.321201 0.786889 0.724243 1 4 1.000000
  4 -29.026405 104.138084 16.023096 0.866184 0.469585 -0.170922 0.767816 0.727606 1 4 1.000000
  4 -29.026403 98.444595 9.237865 0.866203 0.249840 -0.432750 0.805962 0.727606 1 4 1.000000
barracuda
  4 -29.026394 94.218735 7.699783 0.866203 0.086767 -0.492101 0.822734 0.737290 1 4 1.000000
  4 -29.026403 98.444595 9.237865 0.866203 0.249840 -0.432750 0.805962 0.727606 1 4 1.000000
  4 -29.026390 89.721664 7.699787 0.866200 -0.086768 -0.492107 0.835184 0.752126 1 4 1.000000
barracuda
  4 -41.313702 82.050842 12.128533 -0.964560 -0.202133 -0.169608 0.848839 0.833158 1 4 1.000000
  4 -39.470791 80.617310 10.925659 -0.387711 -0.706127 -0.592507 0.859584 0.834047 1 4 1.000000
  4 -41.313698 79.802307 16.023109 -0.964559 -0.247954 -0.090245 0.848839 0.806162 1 4 1.000000
barracuda
  4 -30.869308 94.543701 35.046829 0.387712 0.160068 0.907776 0.909735 0.641060 1 4 1.000000
  4 -29.026398 89.721680 33.203918 0.866199 -0.086765 0.492109 0.920481 0.670316 1 4 1.000000
  4 -29.026402 94.218750 33.203918 0.866202 0.086778 0.492102 0.920481 0.641211 1 4 1.000000
barracuda
  4 -30.869301 89.396729 35.046829 0.387713 -0.160063 0.907777 0.909735 0.670467 1 4 1.000000
  4 -29.026398 89.721680 33.203918 0.866199 -0.086765 0.492109 0.920481 0.670316 1 4 1.000000
  4 -30.869308 94.543701 35.046829 0.387712 0.160068 0.907776 0.909735 0.641060 1 4 1.000000
barracuda
  4 -30.869301 89.396729 35.046829 0.387713 -0.160063 0.907777 0.909735 0.670467 1 4 1.000000
  4 -29.026394 85.495811 31.665833 0.866202 -0.249841 0.432752 0.920481 0.697665 1 4 1.000000
  4 -29.026398 89.721680 33.203918 0.866199 -0.086765 0.492109 0.920481 0.670316 1 4 1.000000
barracuda
  4 -30.869303 84.560150 33.286469 0.387713 -0.460891 0.798285 0.909735 0.698099 1 4 1.000000
  4 -29.026394 85.495811 31.665833 0.866202 -0.249841 0.432752 0.920481 0.697665 1 4 1.000000
  4 -30.869301 89.396729 35.046829 0.387713 -0.160063 0.907777 0.909735 0.670467 1 4 1.000000
barracuda
  4 -30.869303 84.560150 33.286469 0.387713 -0.460891 0.798285 0.909735 0.698099 1 4 1.000000
  4 -29.026386 82.050865 28.775177 0.866202 -0.382784 0.321203 0.920481 0.722707 1 4 1.000000
  4 -29.026394 85.495811 31.665833 0.866202 -0.249841 0.432752 0.920481 0.697665 1 4 1.000000
barracuda
  4 -30.869293 80.617332 29.978056 0.387714 -0.706124 0.592509 0.909735 0.722456 1 4 1.000000
  4 -29.026386 82.050865 28.775177 0.866202 -0.382784 0.321203 0.920481 0.722707 1 4 1.000000
  4 -30.869303 84.560150 33.286469 0.387713 -0.460891 0.798285 0.909735 0.698099 1 4 1.000000
barracuda
  4 -30.869293 80.617332 29.978056 0.387714 -0.706124 0.592509 0.909735 0.722456 1 4 1.000000
  4 -29.026386 79.802330 24.880604 0.866202 -0.469557 0.170912 0.920481 0.748837 1 4 1.000000
  4 -29.026386 82.050865 28.775177 0.866202 -0.382784 0.321203 0.920481 0.722707 1 4 1.000000
barracuda
  4 -30.869291 78.043846 25.520641 0.387714 -0.866189 0.315269 0.909735 0.748540 1 4 1.000000
  4 -29.026386 79.802330 24.880604 0.866202 -0.469557 0.170912 0.920481 0.748837 1 4 1.000000
  4 -30.869293 80.617332 29.978056 0.387714 -0.706124 0.592509 0.909735 0.722456 1 4 1.000000
barracuda
  4 -30.869291 78.043846 25.520641 0.387714 -0.866189 0.315269 0.909735 0.748540 1 4 1.000000
  4 -29.026381 79.021416 20.451859 0.866200 -0.499698 0.000006 0.920481 0.777499 1 4 1.000000
  4 -29.026386 79.802330 24.880604 0.866202 -0.469557 0.170912 0.920481 0.748837 1 4 1.000000
barracuda
  4 -30.869293 77.150078 20.451860 0.387713 -0.921780 0.000003 0.909735 0.777499 1 4 1.000000
  4 -29.026381 79.021416 20.451859 0.866200 -0.499698 0.000006 0.920481 0.777499 1 4 1.000000
  4 -30.869291 78.043846 25.520641 0.387714 -0.866189 0.315269 0.909735 0.748540 1 4 1.000000
barracuda
  4 -30.869293 77.150078 20.451860 0.387713 -0.921780 0.000003 0.909735 0.777499 1 4 1.000000
  4 -29.026384 79.802322 16.023111 0.866201 -0.469562 -0.170900 0.920481 0.806162 1 4 1.000000
  4 -29.026381 79.021416 20.451859 0.866200 -0.499698 0.000006 0.920481 0.777499 1 4 1.000000
barracuda
  4 -30.869295 78.043831 15.383074 0.387713 -0.866190 -0.315268 0.909735 0.806459 1 4 1.000000
  4 -29.026384 79.802322 16.023111 0.866201 -0.469562 -0.170900 0.920481 0.806162 1 4 1.000000
  4 -30.869293 77.150078 20.451860 0.387713 -0.921780 0.000003 0.909735 0.777499 1 4 1.000000
barracuda
  4 -30.869295 78.043831 15.383074 0.387713 -0.866190 -0.315268 0.909735 0.806459 1 4 1.000000
  4 -29.026382 82.050850 12.128535 0.866197 -0.382797 -0.321200 0.920481 0.833158 1 4 1.000000
  4 -29.026384 79.802322 16.023111 0.866201 -0.469562 -0.170900 0.920481 0.806162 1 4 1.000000
barracuda
  4 -30.869293 80.617325 10.925660 0.387714 -0.706124 -0.592509 0.909735 0.834047 1 4 1.000000
  4 -29.026382 82.050850 12.128535 0.866197 -0.382797 -0.321200 0.920481 0.833158 1 4 1.000000
  4 -30.869295 78.043831 15.383074 0.387713 -0.866190 -0.315268 0.909735 0.806459 1 4 1.000000
barracuda
  4 -30.869293 80.617325 10.925660 0.387714 -0.706124 -0.592509 0.909735 0.834047 1 4 1.000000
  4 -30.869295 78.043831 15.383074 0.387713 -0.866190 -0.315268 0.909735 0.806459 1 4 1.000000
  4 -39.470791 80.617310 10.925659 -0.387711 -0.706127 -0.592507 0.859584 0.834047 1 4 1.000000
barracuda
  4 -39.470791 80.617310 10.925659 -0.387711 -0.706127 -0.592507 0.859584 0.834047 1 4 1.000000
  4 -30.869295 78.043831 15.383074 0.387713 -0.866190 -0.315268 0.909735 0.806459 1 4 1.000000
  4 -39.470787 78.043823 15.383074 -0.387712 -0.866191 -0.315266 0.859584 0.806459 1 4 1.000000
barracuda
  4 -41.313698 79.802307 16.023109 -0.964559 -0.247954 -0.090245 0.848839 0.806162 1 4 1.000000
  4 -39.470791 80.617310 10.925659 -0.387711 -0.706127 -0.592507 0.859584 0.834047 1 4 1.000000
  4 -39.470787 78.043823 15.383074 -0.387712 -0.866191 -0.315266 0.859584 0.806459 1 4 1.000000
barracuda
  4 -41.313698 79.802307 16.023109 -0.964559 -0.247954 -0.090245 0.848839 0.806162 1 4 1.000000
  4 -39.470787 78.043823 15.383074 -0.387712 -0.866191 -0.315266 0.859584 0.806459 1 4 1.000000
  4 -41.313694 79.021408 20.451857 -0.964559 -0.263866 0.000001 0.848839 0.777499 1 4 1.000000
barracuda
  4 -30.869316 99.380287 33.286453 0.387711 0.460892 0.798285 0.909735 0.613427 1 4 1.000000
  4 -30.869318 103.323090 29.978037 0.387711 0.706127 0.592507 0.909735 0.589070 1 4 1.000000
  4 -39.470806 99.380280 33.286453 -0.387713 0.460890 0.798285 0.859322 0.613565 1 4 1.000000
barracuda
  4 -39.470798 94.543686 35.046833 -0.387712 0.160066 0.907776 0.859725 0.641408 1 4 1.000000
  4 -30.869316 99.380287 33.286453 0.387711 0.460892 0.798285 0.909735 0.613427 1 4 1.000000
  4 -39.470806 99.380280 33.286453 -0.387713 0.460890 0.798285 0.859322 0.613565 1 4 1.000000
barracuda
  4 -30.869308 94.543701 35.046829 0.387712 0.160068 0.907776 0.909735 0.641060 1 4 1.000000
  4 -30.869316 99.380287 33.286453 0.387711 0.460892 0.798285 0.909735 0.613427 1 4 1.000000
  4 -39.470798 94.543686 35.046833 -0.387712 0.160066 0.907776 0.859725 0.641408 1 4 1.000000
barracuda
  4 -39.470791 89.396721 35.046837 -0.387712 -0.160065 0.907777 0.859725 0.670119 1 4 1.000000
  4 -30.869308 94.543701 35.046829 0.387712 0.160068 0.907776 0.909735 0.641060 1 4 1.000000
  4 -39.470798 94.543686 35.046833 -0.387712 0.160066 0.907776 0.859725 0.641408 1 4 1.000000
barracuda
  4 -30.869301 89.396729 35.046829 0.387713 -0.160063 0.907777 0.909735 0.670467 1 4 1.000000
  4 -30.869308 94.543701 35.046829 0.387712 0.160068 0.907776 0.909735 0.641060 1 4 1.000000
  4 -39.470791 89.396721 35.046837 -0.387712 -0.160065 0.907777 0.859725 0.670119 1 4 1.000000
barracuda
  4 -39.470795 84.560135 33.286465 -0.387712 -0.460890 0.798285 0.859322 0.697962 1 4 1.000000
  4 -30.869301 89.396729 35.046829 0.387713 -0.160063 0.907777 0.909735 0.670467 1 4 1.000000
  4 -39.470791 89.396721 35.046837 -0.387712 -0.160065 0.907777 0.859725 0.670119 1 4 1.000000
barracuda
  4 -30.869303 84.560150 33.286469 0.387713 -0.460891 0.798285 0.909735 0.698099 1 4 1.000000
  4 -30.869301 89.396729 35.046829 0.387713 -0.160063 0.907777 0.909735 0.670467 1 4 1.000000
  4 -39.470795 84.560135 33.286465 -0.387712 -0.460890 0.798285 0.859322 0.697962 1 4 1.000000
barracuda
  4 -39.470787 80.617325 29.978058 -0.387712 -0.706124 0.592510 0.859584 0.722456 1 4 1.000000
  4 -30.869303 84.560150 33.286469 0.387713 -0.460891 0.798285 0.909735 0.698099 1 4 1.000000
  4 -39.470795 84.560135 33.286465 -0.387712 -0.460890 0.798285 0.859322 0.697962 1 4 1.000000
barracuda
  4 -30.869293 80.617332 29.978056 0.387714 -0.706124 0.592509 0.909735 0.722456 1 4 1.000000
  4 -30.869303 84.560150 33.286469 0.387713 -0.460891 0.798285 0.909735 0.698099 1 4 1.000000
  4 -39.470787 80.617325 29.978058 -0.387712 -0.706124 0.592510 0.859584 0.722456 1 4 1.000000
barracuda
  4 -39.470783 78.043839 25.520643 -0.387712 -0.866190 0.315268 0.859584 0.748540 1 4 1.000000
  4 -30.869293 80.617332 29.978056 0.387714 -0.706124 0.592509 0.909735 0.722456 1 4 1.000000
  4 -39.470787 80.617325 29.978058 -0.387712 -0.706124 0.592510 0.859584 0.722456 1 4 1.000000
barracuda
  4 -30.869291 78.043846 25.520641 0.387714 -0.866189 0.315269 0.909735 0.748540 1 4 1.000000
  4 -30.869293 80.617332 29.978056 0.387714 -0.706124 0.592509 0.909735 0.722456 1 4 1.000000
  4 -39.470783 78.043839 25.520643 -0.387712 -0.866190 0.315268 0.859584 0.748540 1 4 1.000000
barracuda
  4 -39.470783 77.150070 20.451860 -0.387712 -0.921781 0.000001 0.859584 0.777499 1 4 1.000000
  4 -30.869291 78.043846 25.520641 0.387714 -0.866189 0.315269 0.909735 0.748540 1 4 1.000000
  4 -39.470783 78.043839 25.520643 -0.387712 -0.866190 0.315268 0.859584 0.748540 1 4 1.000000
barracuda
  4 -30.869293 77.150078 20.451860 0.387713 -0.921780 0.000003 0.909735 0.777499 1 4 1.000000
  4 -30.869291 78.043846 25.520641 0.387714 -0.866189 0.315269 0.909735 0.748540 1 4 1.000000
  4 -39.470783 77.150070 20.451860 -0.387712 -0.921781 0.000001 0.859584 0.777499 1 4 1.000000
barracuda
  4 -39.470787 78.043823 15.383074 -0.387712 -0.866191 -0.315266 0.859584 0.806459 1 4 1.000000
  4 -30.869293 77.150078 20.451860 0.387713 -0.921780 0.000003 0.909735 0.777499 1 4 1.000000
  4 -39.470783 77.150070 20.451860 -0.387712 -0.921781 0.000001 0.859584 0.777499 1 4 1.000000
barracuda
  4 -30.869295 78.043831 15.383074 0.387713 -0.866190 -0.315268 0.909735 0.806459 1 4 1.000000
  4 -30.869293 77.150078 20.451860 0.387713 -0.921780 0.000003 0.909735 0.777499 1 4 1.000000
  4 -39.470787 78.043823 15.383074 -0.387712 -0.866191 -0.315266 0.859584 0.806459 1 4 1.000000
barracuda
  4 -41.313694 79.021408 20.451857 -0.964559 -0.263866 0.000001 0.848839 0.777499 1 4 1.000000
  4 -39.470787 78.043823 15.383074 -0.387712 -0.866191 -0.315266 0.859584 0.806459 1 4 1.000000
  4 -39.470783 77.150070 20.451860 -0.387712 -0.921781 0.000001 0.859584 0.777499 1 4 1.000000
barracuda
  4 -41.313694 79.021408 20.451857 -0.964559 -0.263866 0.000001 0.848839 0.777499 1 4 1.000000
  4 -39.470783 77.150070 20.451860 -0.387712 -0.921781 0.000001 0.859584 0.777499 1 4 1.000000
  4 -41.313698 79.802315 24.880604 -0.964559 -0.247953 0.090248 0.848839 0.748837 1 4 1.000000
barracuda
  4 -41.313698 79.802315 24.880604 -0.964559 -0.247953 0.090248 0.848839 0.748837 1 4 1.000000
  4 -39.470783 77.150070 20.451860 -0.387712 -0.921781 0.000001 0.859584 0.777499 1 4 1.000000
  4 -39.470783 78.043839 25.520643 -0.387712 -0.866190 0.315268 0.859584 0.748540 1 4 1.000000
barracuda
  4 -41.313698 79.802315 24.880604 -0.964559 -0.247953 0.090248 0.848839 0.748837 1 4 1.000000
  4 -39.470783 78.043839 25.520643 -0.387712 -0.866190 0.315268 0.859584 0.748540 1 4 1.000000
  4 -41.313702 82.050850 28.775179 -0.964559 -0.202131 0.169611 0.848839 0.722707 1 4 1.000000
barracuda
  4 -41.313702 82.050850 28.775179 -0.964559 -0.202131 0.169611 0.848839 0.722707 1 4 1.000000
  4 -39.470783 78.043839 25.520643 -0.387712 -0.866190 0.315268 0.859584 0.748540 1 4 1.000000
  4 -39.470787 80.617325 29.978058 -0.387712 -0.706124 0.592510 0.859584 0.722456 1 4 1.000000
barracuda
  4 -41.313702 82.050850 28.775179 -0.964559 -0.202131 0.169611 0.848839 0.722707 1 4 1.000000
  4 -39.470787 80.617325 29.978058 -0.387712 -0.706124 0.592510 0.859584 0.722456 1 4 1.000000
  4 -41.313702 85.495804 31.665831 -0.964560 -0.131931 0.228514 0.848482 0.697268 1 4 1.000000
barracuda
  4 -41.313702 85.495804 31.665831 -0.964560 -0.131931 0.228514 0.848482 0.697268 1 4 1.000000
  4 -39.470787 80.617325 29.978058 -0.387712 -0.706124 0.592510 0.859584 0.722456 1 4 1.000000
  4 -39.470795 84.560135 33.286465 -0.387712 -0.460890 0.798285 0.859322 0.697962 1 4 1.000000
barracuda
  4 -41.313702 85.495804 31.665831 -0.964560 -0.131931 0.228514 0.848482 0.697268 1 4 1.000000
  4 -39.470795 84.560135 33.286465 -0.387712 -0.460890 0.798285 0.859322 0.697962 1 4 1.000000
  4 -41.313709 89.721664 33.203918 -0.964560 -0.045819 0.259856 0.848950 0.669926 1 4 1.000000
barracuda
  4 -41.313709 89.721664 33.203918 -0.964560 -0.045819 0.259856 0.848950 0.669926 1 4 1.000000
  4 -39.470795 84.560135 33.286465 -0.387712 -0.460890 0.798285 0.859322 0.697962 1 4 1.000000
  4 -39.470791 89.396721 35.046837 -0.387712 -0.160065 0.907777 0.859725 0.670119 1 4 1.000000
barracuda
  4 -41.313709 89.721664 33.203918 -0.964560 -0.045819 0.259856 0.848950 0.669926 1 4 1.000000
  4 -39.470791 89.396721 35.046837 -0.387712 -0.160065 0.907777 0.859725 0.670119 1 4 1.000000
  4 -41.313713 94.218742 33.203915 -0.964560 0.045821 0.259856 0.848952 0.641752 1 4 1.000000
barracuda
  4 -41.313713 94.218742 33.203915 -0.964560 0.045821 0.259856 0.848952 0.641752 1 4 1.000000
  4 -39.470791 89.396721 35.046837 -0.387712 -0.160065 0.907777 0.859725 0.670119 1 4 1.000000
  4 -39.470798 94.543686 35.046833 -0.387712 0.160066 0.907776 0.859725 0.641408 1 4 1.000000
barracuda
  4 -41.313713 94.218742 33.203915 -0.964560 0.045821 0.259856 0.848952 0.641752 1 4 1.000000
  4 -39.470798 94.543686 35.046833 -0.387712 0.160066 0.907776 0.859725 0.641408 1 4 1.000000
  4 -41.313713 98.444595 31.665827 -0.964560 0.131933 0.228513 0.848476 0.614343 1 4 1.000000
barracuda
  4 -41.313713 98.444595 31.665827 -0.964560 0.131933 0.228513 0.848476 0.614343 1 4 1.000000
  4 -39.470798 94.543686 35.046833 -0.387712 0.160066 0.907776 0.859725 0.641408 1 4 1.000000
  4 -39.470806 99.380280 33.286453 -0.387713 0.460890 0.798285 0.859322 0.613565 1 4 1.000000
barracuda
  4 -41.313713 98.444595 31.665827 -0.964560 0.131933 0.228513 0.848476 0.614343 1 4 1.000000
  4 -39.470806 99.380280 33.286453 -0.387713 0.460890 0.798285 0.859322 0.613565 1 4 1.000000
  4 -41.313725 101.889549 28.775166 -0.964559 0.202124 0.169620 0.848842 0.588585 1 4 1.000000
barracuda
  4 -41.313725 101.889549 28.775166 -0.964559 0.202124 0.169620 0.848842 0.588585 1 4 1.000000
  4 -39.470806 99.380280 33.286453 -0.387713 0.460890 0.798285 0.859322 0.613565 1 4 1.000000
  4 -39.470806 103.323090 29.978039 -0.387712 0.706125 0.592509 0.859584 0.589070 1 4 1.000000
barracuda
  4 -41.313725 101.889549 28.775166 -0.964559 0.202124 0.169620 0.848842 0.588585 1 4 1.000000
  4 -39.470806 103.323090 29.978039 -0.387712 0.706125 0.592509 0.859584 0.589070 1 4 1.000000
  4 -41.313721 104.138077 24.880585 -0.964560 0.247952 0.090245 0.848839 0.562690 1 4 1.000000
barracuda
  4 -41.313721 104.138077 24.880585 -0.964560 0.247952 0.090245 0.848839 0.562690 1 4 1.000000
  4 -39.470806 103.323090 29.978039 -0.387712 0.706125 0.592509 0.859584 0.589070 1 4 1.000000
  4 -39.470806 105.896576 25.520622 -0.387713 0.866190 0.315268 0.859584 0.562987 1 4 1.000000
barracuda
  4 -41.313721 104.138077 24.880585 -0.964560 0.247952 0.090245 0.848839 0.562690 1 4 1.000000
  4 -39.470806 105.896576 25.520622 -0.387713 0.866190 0.315268 0.859584 0.562987 1 4 1.000000
  4 -41.313717 104.918983 20.451838 -0.964560 0.263865 -0.000002 0.848839 0.534027 1 4 1.000000
barracuda
  4 -30.869297 84.560135 7.617247 0.387713 -0.460892 -0.798284 0.909735 0.369956 1 4 1.000000
  4 -29.026390 89.721664 7.699787 0.866200 -0.086768 -0.492107 0.920481 0.397739 1 4 1.000000
  4 -29.026390 85.495796 9.237875 0.866201 -0.249852 -0.432747 0.920481 0.370390 1 4 1.000000
barracuda
  4 -30.869301 89.396706 5.856874 0.387713 -0.160066 -0.907776 0.909735 0.397589 1 4 1.000000
  4 -29.026390 89.721664 7.699787 0.866200 -0.086768 -0.492107 0.920481 0.397739 1 4 1.000000
  4 -30.869297 84.560135 7.617247 0.387713 -0.460892 -0.798284 0.909735 0.369956 1 4 1.000000
barracuda
  4 -30.869301 89.396706 5.856874 0.387713 -0.160066 -0.907776 0.909735 0.397589 1 4 1.000000
  4 -30.869297 84.560135 7.617247 0.387713 -0.460892 -0.798284 0.909735 0.369956 1 4 1.000000
  4 -39.470798 89.396698 5.856874 -0.387712 -0.160066 -0.907777 0.859584 0.397589 1 4 1.000000
barracuda
  4 -39.470802 94.543671 5.856870 -0.387713 0.160066 -0.907776 0.859584 0.426995 1 4 1.000000
  4 -30.869301 89.396706 5.856874 0.387713 -0.160066 -0.907776 0.909735 0.397589 1 4 1.000000
  4 -39.470798 89.396698 5.856874 -0.387712 -0.160066 -0.907777 0.859584 0.397589 1 4 1.000000
barracuda
  4 -30.869307 94.543686 5.856871 0.387713 0.160066 -0.907776 0.909735 0.426995 1 4 1.000000
  4 -30.869301 89.396706 5.856874 0.387713 -0.160066 -0.907776 0.909735 0.397589 1 4 1.000000
  4 -39.470802 94.543671 5.856870 -0.387713 0.160066 -0.907776 0.859584 0.426995 1 4 1.000000
barracuda
  4 -39.470802 99.380249 7.617234 -0.387713 0.460891 -0.798285 0.859584 0.454627 1 4 1.000000
  4 -30.869307 94.543686 5.856871 0.387713 0.160066 -0.907776 0.909735 0.426995 1 4 1.000000
  4 -39.470802 94.543671 5.856870 -0.387713 0.160066 -0.907776 0.859584 0.426995 1 4 1.000000
barracuda
  4 -30.869312 99.380264 7.617236 0.387712 0.460890 -0.798285 0.909735 0.454627 1 4 1.000000
  4 -30.869307 94.543686 5.856871 0.387713 0.160066 -0.907776 0.909735 0.426995 1 4 1.000000
  4 -39.470802 99.380249 7.617234 -0.387713 0.460891 -0.798285 0.859584 0.454627 1 4 1.000000
barracuda
  4 -39.470806 103.323074 10.925648 -0.387713 0.706125 -0.592508 0.859584 0.478985 1 4 1.000000
  4 -30.869312 99.380264 7.617236 0.387712 0.460890 -0.798285 0.909735 0.454627 1 4 1.000000
  4 -39.470802 99.380249 7.617234 -0.387713 0.460891 -0.798285 0.859584 0.454627 1 4 1.000000
barracuda
  4 -30.869316 103.323074 10.925650 0.387712 0.706124 -0.592510 0.909735 0.478985 1 4 1.000000
  4 -30.869312 99.380264 7.617236 0.387712 0.460890 -0.798285 0.909735 0.454627 1 4 1.000000
  4 -39.470806 103.323074 10.925648 -0.387713 0.706125 -0.592508 0.859584 0.478985 1 4 1.000000
barracuda
  4 -39.470818 105.896561 15.383055 -0.387715 0.866190 -0.315266 0.859584 0.505068 1 4 1.000000
  4 -30.869316 103.323074 10.925650 0.387712 0.706124 -0.592510 0.909735 0.478985 1 4 1.000000
  4 -39.470806 103.323074 10.925648 -0.387713 0.706125 -0.592508 0.859584 0.478985 1 4 1.000000
barracuda
  4 -30.869320 105.896576 15.383056 0.387712 0.866190 -0.315269 0.909735 0.505068 1 4 1.000000
  4 -30.869316 103.323074 10.925650 0.387712 0.706124 -0.592510 0.909735 0.478985 1 4 1.000000
  4 -39.470818 105.896561 15.383055 -0.387715 0.866190 -0.315266 0.859584 0.505068 1 4 1.000000
barracuda
  4 -39.470814 106.790329 20.451836 -0.387713 0.921780 0.000001 0.859584 0.534027 1 4 1.000000
  4 -30.869320 105.896576 15.383056 0.387712 0.866190 -0.315269 0.909735 0.505068 1 4 1.000000
  4 -39.470818 105.896561 15.383055 -0.387715 0.866190 -0.315266 0.859584 0.505068 1 4 1.000000
barracuda
  4 -30.869324 106.790329 20.451836 0.387711 0.921781 0.000000 0.909735 0.534027 1 4 1.000000
  4 -30.869320 105.896576 15.383056 0.387712 0.866190 -0.315269 0.909735 0.505068 1 4 1.000000
  4 -39.470814 106.790329 20.451836 -0.387713 0.921780 0.000001 0.859584 0.534027 1 4 1.000000
barracuda
  4 -39.470806 105.896576 25.520622 -0.387713 0.866190 0.315268 0.859584 0.562987 1 4 1.000000
  4 -30.869324 106.790329 20.451836 0.387711 0.921781 0.000000 0.909735 0.534027 1 4 1.000000
  4 -39.470814 106.790329 20.451836 -0.387713 0.921780 0.000001 0.859584 0.534027 1 4 1.000000
barracuda
  4 -30.869320 105.896584 25.520620 0.387712 0.866191 0.315265 0.909735 0.562987 1 4 1.000000
  4 -30.869324 106.790329 20.451836 0.387711 0.921781 0.000000 0.909735 0.534027 1 4 1.000000
  4 -39.470806 105.896576 25.520622 -0.387713 0.866190 0.315268 0.859584 0.562987 1 4 1.000000
barracuda
  4 -39.470806 103.323090 29.978039 -0.387712 0.706125 0.592509 0.859584 0.589070 1 4 1.000000
  4 -30.869320 105.896584 25.520620 0.387712 0.866191 0.315265 0.909735 0.562987 1 4 1.000000
  4 -39.470806 105.896576 25.520622 -0.387713 0.866190 0.315268 0.859584 0.562987 1 4 1.000000
barracuda
  4 -30.869318 103.323090 29.978037 0.387711 0.706127 0.592507 0.909735 0.589070 1 4 1.000000
  4 -30.869320 105.896584 25.520620 0.387712 0.866191 0.315265 0.909735 0.562987 1 4 1.000000
  4 -39.470806 103.323090 29.978039 -0.387712 0.706125 0.592509 0.859584 0.589070 1 4 1.000000
barracuda
  4 -39.470806 99.380280 33.286453 -0.387713 0.460890 0.798285 0.859322 0.613565 1 4 1.000000
  4 -30.869318 103.323090 29.978037 0.387711 0.706127 0.592507 0.909735 0.589070 1 4 1.000000
  4 -39.470806 103.323090 29.978039 -0.387712 0.706125 0.592509 0.859584 0.589070 1 4 1.000000
barracuda
  4 -30.869301 89.396706 5.856874 0.387713 -0.160066 -0.907776 0.909735 0.397589 1 4 1.000000
  4 -29.026394 94.218735 7.699783 0.866203 0.086767 -0.492101 0.920481 0.426844 1 4 1.000000
  4 -29.026390 89.721664 7.699787 0.866200 -0.086768 -0.492107 0.920481 0.397739 1 4 1.000000
barracuda
  4 -30.869307 94.543686 5.856871 0.387713 0.160066 -0.907776 0.909735 0.426995 1 4 1.000000
  4 -29.026394 94.218735 7.699783 0.866203 0.086767 -0.492101 0.920481 0.426844 1 4 1.000000
  4 -30.869301 89.396706 5.856874 0.387713 -0.160066 -0.907776 0.909735 0.397589 1 4 1.000000
barracuda
  4 -30.869307 94.543686 5.856871 0.387713 0.160066 -0.907776 0.909735 0.426995 1 4 1.000000
  4 -29.026403 98.444595 9.237865 0.866203 0.249840 -0.432750 0.920481 0.454193 1 4 1.000000
  4 -29.026394 94.218735 7.699783 0.866203 0.086767 -0.492101 0.920481 0.426844 1 4 1.000000
barracuda
  4 -30.869312 99.380264 7.617236 0.387712 0.460890 -0.798285 0.909735 0.454627 1 4 1.000000
  4 -29.026403 98.444595 9.237865 0.866203 0.249840 -0.432750 0.920481 0.454193 1 4 1.000000
  4 -30.869307 94.543686 5.856871 0.387713 0.160066 -0.907776 0.909735 0.426995 1 4 1.000000
barracuda
  4 -30.869312 99.380264 7.617236 0.387712 0.460890 -0.798285 0.909735 0.454627 1 4 1.000000
  4 -29.026405 101.889549 12.128525 0.866202 0.382785 -0.321201 0.920481 0.479235 1 4 1.000000
  4 -29.026403 98.444595 9.237865 0.866203 0.249840 -0.432750 0.920481 0.454193 1 4 1.000000
barracuda
  4 -30.869316 103.323074 10.925650 0.387712 0.706124 -0.592510 0.909735 0.478985 1 4 1.000000
  4 -29.026405 101.889549 12.128525 0.866202 0.382785 -0.321201 0.920481 0.479235 1 4 1.000000
  4 -30.869312 99.380264 7.617236 0.387712 0.460890 -0.798285 0.909735 0.454627 1 4 1.000000
barracuda
  4 -30.869316 103.323074 10.925650 0.387712 0.706124 -0.592510 0.909735 0.478985 1 4 1.000000
  4 -29.026405 104.138084 16.023096 0.866184 0.469585 -0.170922 0.920481 0.505365 1 4 1.000000
  4 -29.026405 101.889549 12.128525 0.866202 0.382785 -0.321201 0.920481 0.479235 1 4 1.000000
barracuda
  4 -30.869320 105.896576 15.383056 0.387712 0.866190 -0.315269 0.909735 0.505068 1 4 1.000000
  4 -29.026405 104.138084 16.023096 0.866184 0.469585 -0.170922 0.920481 0.505365 1 4 1.000000
  4 -30.869316 103.323074 10.925650 0.387712 0.706124 -0.592510 0.909735 0.478985 1 4 1.000000
barracuda
  4 -29.026405 104.138084 16.023096 0.866184 0.469585 -0.170922 0.920481 0.505365 1 4 1.000000
  4 -30.869320 105.896576 15.383056 0.387712 0.866190 -0.315269 0.909735 0.505068 1 4 1.000000
  4 -29.026405 104.918991 20.451839 0.866202 0.499694 -0.000005 0.920481 0.534027 1 4 1.000000
barracuda
  4 -29.026405 104.918991 20.451839 0.866202 0.499694 -0.000005 0.920481 0.534027 1 4 1.000000
  4 -30.869320 105.896576 15.383056 0.387712 0.866190 -0.315269 0.909735 0.505068 1 4 1.000000
  4 -30.869324 106.790329 20.451836 0.387711 0.921781 0.000000 0.909735 0.534027 1 4 1.000000
barracuda
  4 -30.869324 106.790329 20.451836 0.387711 0.921781 0.000000 0.909735 0.534027 1 4 1.000000
  4 -29.026409 104.138092 24.880587 0.866198 0.469564 0.170909 0.920481 0.562690 1 4 1.000000
  4 -29.026405 104.918991 20.451839 0.866202 0.499694 -0.000005 0.920481 0.534027 1 4 1.000000
barracuda
  4 -30.869320 105.896584 25.520620 0.387712 0.866191 0.315265 0.909735 0.562987 1 4 1.000000
  4 -29.026409 104.138092 24.880587 0.866198 0.469564 0.170909 0.920481 0.562690 1 4 1.000000
  4 -30.869324 106.790329 20.451836 0.387711 0.921781 0.000000 0.909735 0.534027 1 4 1.000000
barracuda
  4 -30.869320 105.896584 25.520620 0.387712 0.866191 0.315265 0.909735 0.562987 1 4 1.000000
  4 -29.026405 101.889565 28.775164 0.866203 0.382790 0.321192 0.920481 0.588525 1 4 1.000000
  4 -29.026409 104.138092 24.880587 0.866198 0.469564 0.170909 0.920481 0.562690 1 4 1.000000
barracuda
  4 -30.869318 103.323090 29.978037 0.387711 0.706127 0.592507 0.909735 0.589070 1 4 1.000000
  4 -29.026405 101.889565 28.775164 0.866203 0.382790 0.321192 0.920481 0.588525 1 4 1.000000
  4 -30.869320 105.896584 25.520620 0.387712 0.866191 0.315265 0.909735 0.562987 1 4 1.000000
barracuda
  4 -30.869318 103.323090 29.978037 0.387711 0.706127 0.592507 0.909735 0.589070 1 4 1.000000
  4 -29.026402 98.444611 31.665825 0.866203 0.249844 0.432747 0.920481 0.614156 1 4 1.000000
  4 -29.026405 101.889565 28.775164 0.866203 0.382790 0.321192 0.920481 0.588525 1 4 1.000000
barracuda
  4 -30.869316 99.380287 33.286453 0.387711 0.460892 0.798285 0.909735 0.613427 1 4 1.000000
  4 -29.026402 98.444611 31.665825 0.866203 0.249844 0.432747 0.920481 0.614156 1 4 1.000000
  4 -30.869318 103.323090 29.978037 0.387711 0.706127 0.592507 0.909735 0.589070 1 4 1.000000
barracuda
  4 -30.869316 99.380287 33.286453 0.387711 0.460892 0.798285 0.909735 0.613427 1 4 1.000000
  4 -29.026402 94.218750 33.203918 0.866202 0.086778 0.492102 0.920481 0.641211 1 4 1.000000
  4 -29.026402 98.444611 31.665825 0.866203 0.249844 0.432747 0.920481 0.614156 1 4 1.000000
barracuda
  4 -30.869308 94.543701 35.046829 0.387712 0.160068 0.907776 0.909735 0.641060 1 4 1.000000
  4 -29.026402 94.218750 33.203918 0.866202 0.086778 0.492102 0.920481 0.641211 1 4 1.000000
  4 -30.869316 99.380287 33.286453 0.387711 0.460892 0.798285 0.909735 0.613427 1 4 1.000000
barracuda
  4 -41.313717 104.918983 20.451838 -0.964560 0.263865 -0.000002 0.848839 0.534027 1 4 1.000000
  4 -39.470806 105.896576 25.520622 -0.387713 0.866190 0.315268 0.859584 0.562987 1 4 1.000000
  4 -39.470814 106.790329 20.451836 -0.387713 0.921780 0.000001 0.859584 0.534027 1 4 1.000000
barracuda
  4 -39.470814 106.790329 20.451836 -0.387713 0.921780 0.000001 0.859584 0.534027 1 4 1.000000
  4 -41.313717 104.138069 16.023094 -0.964560 0.247949 -0.090248 0.848839 0.505365 1 4 1.000000
  4 -41.313717 104.918983 20.451838 -0.964560 0.263865 -0.000002 0.848839 0.534027 1 4 1.000000
barracuda
  4 -39.470818 105.896561 15.383055 -0.387715 0.866190 -0.315266 0.859584 0.505068 1 4 1.000000
  4 -41.313717 104.138069 16.023094 -0.964560 0.247949 -0.090248 0.848839 0.505365 1 4 1.000000
  4 -39.470814 106.790329 20.451836 -0.387713 0.921780 0.000001 0.859584 0.534027 1 4 1.000000
barracuda
  4 -41.313717 104.138069 16.023094 -0.964560 0.247949 -0.090248 0.848839 0.505365 1 4 1.000000
  4 -39.470818 105.896561 15.383055 -0.387715 0.866190 -0.315266 0.859584 0.505068 1 4 1.000000
  4 -41.313721 101.889542 12.128523 -0.964560 0.202130 -0.169611 0.848839 0.479235 1 4 1.000000
barracuda
  4 -41.313721 101.889542 12.128523 -0.964560 0.202130 -0.169611 0.848839 0.479235 1 4 1.000000
  4 -39.470818 105.896561 15.383055 -0.387715 0.866190 -0.315266 0.859584 0.505068 1 4 1.000000
  4 -39.470806 103.323074 10.925648 -0.387713 0.706125 -0.592508 0.859584 0.478985 1 4 1.000000
barracuda
  4 -41.313721 101.889542 12.128523 -0.964560 0.202130 -0.169611 0.848839 0.479235 1 4 1.000000
  4 -39.470806 103.323074 10.925648 -0.387713 0.706125 -0.592508 0.859584 0.478985 1 4 1.000000
  4 -41.313717 98.444580 9.237864 -0.964560 0.131930 -0.228515 0.848839 0.454193 1 4 1.000000
barracuda
  4 -41.313717 98.444580 9.237864 -0.964560 0.131930 -0.228515 0.848839 0.454193 1 4 1.000000
  4 -39.470806 103.323074 10.925648 -0.387713 0.706125 -0.592508 0.859584 0.478985 1 4 1.000000
  4 -39.470802 99.380249 7.617234 -0.387713 0.460891 -0.798285 0.859584 0.454627 1 4 1.000000
barracuda
  4 -41.313717 98.444580 9.237864 -0.964560 0.131930 -0.228515 0.848839 0.454193 1 4 1.000000
  4 -39.470802 99.380249 7.617234 -0.387713 0.460891 -0.798285 0.859584 0.454627 1 4 1.000000
  4 -41.313713 94.218727 7.699781 -0.964560 0.045817 -0.259856 0.848839 0.426844 1 4 1.000000
barracuda
  4 -41.313713 94.218727 7.699781 -0.964560 0.045817 -0.259856 0.848839 0.426844 1 4 1.000000
  4 -39.470802 99.380249 7.617234 -0.387713 0.460891 -0.798285 0.859584 0.454627 1 4 1.000000
  4 -39.470802 94.543671 5.856870 -0.387713 0.160066 -0.907776 0.859584 0.426995 1 4 1.000000
barracuda
  4 -41.313713 94.218727 7.699781 -0.964560 0.045817 -0.259856 0.848839 0.426844 1 4 1.000000
  4 -39.470802 94.543671 5.856870 -0.387713 0.160066 -0.907776 0.859584 0.426995 1 4 1.000000
  4 -41.313709 89.721657 7.699785 -0.964560 -0.045822 -0.259855 0.848839 0.397739 1 4 1.000000
barracuda
  4 -41.313709 89.721657 7.699785 -0.964560 -0.045822 -0.259855 0.848839 0.397739 1 4 1.000000
  4 -39.470802 94.543671 5.856870 -0.387713 0.160066 -0.907776 0.859584 0.426995 1 4 1.000000
  4 -39.470798 89.396698 5.856874 -0.387712 -0.160066 -0.907777 0.859584 0.397589 1 4 1.000000
barracuda
  4 -41.313709 89.721657 7.699785 -0.964560 -0.045822 -0.259855 0.848839 0.397739 1 4 1.000000
  4 -39.470798 89.396698 5.856874 -0.387712 -0.160066 -0.907777 0.859584 0.397589 1 4 1.000000
  4 -41.313702 85.495789 9.237874 -0.964559 -0.131935 -0.228513 0.848839 0.370390 1 4 1.000000
barracuda
  4 -41.313702 85.495789 9.237874 -0.964559 -0.131935 -0.228513 0.848839 0.370390 1 4 1.000000
  4 -39.470798 89.396698 5.856874 -0.387712 -0.160066 -0.907777 0.859584 0.397589 1 4 1.000000
  4 -39.470787 84.560120 7.617246 -0.387711 -0.460890 -0.798286 0.859584 0.369956 1 4 1.000000
barracuda
  4 -41.313702 85.495789 9.237874 -0.964559 -0.131935 -0.228513 0.848839 0.370390 1 4 1.000000
  4 -39.470787 84.560120 7.617246 -0.387711 -0.460890 -0.798286 0.859584 0.369956 1 4 1.000000
  4 -41.313702 82.050842 12.128533 -0.964560 -0.202133 -0.169608 0.848839 0.344483 1 4 1.000000
barracuda
  4 -41.313702 82.050842 12.128533 -0.964560 -0.202133 -0.169608 0.848839 0.344483 1 4 1.000000
  4 -39.470787 84.560120 7.617246 -0.387711 -0.460890 -0.798286 0.859584 0.369956 1 4 1.000000
  4 -39.470791 80.617310 10.925659 -0.387711 -0.706127 -0.592507 0.859584 0.344343 1 4 1.000000
barracuda
  4 -39.470787 84.560120 7.617246 -0.387711 -0.460890 -0.798286 0.859584 0.369956 1 4 1.000000
  4 -30.869293 80.617325 10.925660 0.387714 -0.706124 -0.592509 0.909735 0.344343 1 4 1.000000
  4 -39.470791 80.617310 10.925659 -0.387711 -0.706127 -0.592507 0.859584 0.344343 1 4 1.000000
barracuda
  4 -30.869297 84.560135 7.617247 0.387713 -0.460892 -0.798284 0.909735 0.369956 1 4 1.000000
  4 -30.869293 80.617325 10.925660 0.387714 -0.706124 -0.592509 0.909735 0.344343 1 4 1.000000
  4 -39.470787 84.560120 7.617246 -0.387711 -0.460890 -0.798286 0.859584 0.369956 1 4 1.000000
barracuda
  4 -30.869297 84.560135 7.617247 0.387713 -0.460892 -0.798284 0.909735 0.369956 1 4 1.000000
  4 -29.026390 85.495796 9.237875 0.866201 -0.249852 -0.432747 0.920481 0.370390 1 4 1.000000
  4 -30.869293 80.617325 10.925660 0.387714 -0.706124 -0.592509 0.909735 0.344343 1 4 1.000000
barracuda
  4 -39.470798 89.396698 5.856874 -0.387712 -0.160066 -0.907777 0.859584 0.397589 1 4 1.000000
  4 -30.869297 84.560135 7.617247 0.387713 -0.460892 -0.798284 0.909735 0.369956 1 4 1.000000
  4 -39.470787 84.560120 7.617246 -0.387711 -0.460890 -0.798286 0.859584 0.369956 1 4 1.000000
barracuda
  4 -30.869293 80.617325 10.925660 0.387714 -0.706124 -0.592509 0.909735 0.344343 1 4 1.000000
  4 -29.026390 85.495796 9.237875 0.866201 -0.249852 -0.432747 0.920481 0.370390 1 4 1.000000
  4 -29.026382 82.050850 12.128535 0.866197 -0.382797 -0.321200 0.920481 0.344483 1 4 1.000000
barracuda
  4 -40.367214 98.925690 26.288197 -0.971356 -0.182035 -0.152745 0.817526 0.626030 1 4 1.000000
  4 -41.313721 104.138077 24.880585 -0.964560 0.247952 0.090245 0.819551 0.597136 1 4 1.000000
  4 -40.367218 100.502380 23.557301 -0.971356 -0.223298 -0.081274 0.806622 0.613187 1 4 1.000000
barracuda
  4 -41.313721 104.138077 24.880585 -0.964560 0.247952 0.090245 0.819551 0.597136 1 4 1.000000
  4 -41.313717 104.918983 20.451838 -0.964560 0.263865 -0.000002 0.797776 0.584707 1 4 1.000000
  4 -40.367218 100.502380 23.557301 -0.971356 -0.223298 -0.081274 0.806622 0.613187 1 4 1.000000
barracuda
  4 -40.367218 100.502380 23.557301 -0.971356 -0.223298 -0.081274 0.806622 0.613187 1 4 1.000000
  4 -41.313717 104.918983 20.451838 -0.964560 0.263865 -0.000002 0.797776 0.584707 1 4 1.000000
  4 -40.367218 101.049950 20.451839 -0.971356 -0.237627 0.000000 0.790900 0.604090 1 4 1.000000
barracuda
  4 -41.313717 104.918983 20.451838 -0.964560 0.263865 -0.000002 0.797776 0.584707 1 4 1.000000
  4 -41.313717 104.138069 16.023094 -0.964560 0.247949 -0.090248 0.773036 0.580635 1 4 1.000000
  4 -40.367218 101.049950 20.451839 -0.971356 -0.237627 0.000000 0.790900 0.604090 1 4 1.000000
barracuda
  4 -40.367218 101.049950 20.451839 -0.971356 -0.237627 0.000000 0.790900 0.604090 1 4 1.000000
  4 -41.313717 104.138069 16.023094 -0.964560 0.247949 -0.090248 0.773036 0.580635 1 4 1.000000
  4 -40.367210 100.502373 17.346386 -0.971356 -0.223297 0.081273 0.772960 0.601246 1 4 1.000000
barracuda
  4 -41.313717 104.138069 16.023094 -0.964560 0.247949 -0.090248 0.773036 0.580635 1 4 1.000000
  4 -41.313721 101.889542 12.128523 -0.964560 0.202130 -0.169611 0.749359 0.584892 1 4 1.000000
  4 -40.367210 100.502373 17.346386 -0.971356 -0.223297 0.081273 0.772960 0.601246 1 4 1.000000
barracuda
  4 -40.367210 100.502373 17.346386 -0.971356 -0.223297 0.081273 0.772960 0.601246 1 4 1.000000
  4 -41.313721 101.889542 12.128523 -0.964560 0.202130 -0.169611 0.749359 0.584892 1 4 1.000000
  4 -40.367214 98.925682 14.615490 -0.971356 -0.182033 0.152745 0.756400 0.604346 1 4 1.000000
barracuda
  4 -41.313721 101.889542 12.128523 -0.964560 0.202130 -0.169611 0.749359 0.584892 1 4 1.000000
  4 -41.313717 98.444580 9.237864 -0.964560 0.131930 -0.228515 0.728659 0.597115 1 4 1.000000
  4 -40.367214 98.925682 14.615490 -0.971356 -0.182033 0.152745 0.756400 0.604346 1 4 1.000000
barracuda
  4 -40.367214 98.925682 14.615490 -0.971356 -0.182033 0.152745 0.756400 0.604346 1 4 1.000000
  4 -41.313717 98.444580 9.237864 -0.964560 0.131930 -0.228515 0.728659 0.597115 1 4 1.000000
  4 -40.367207 96.510063 12.588544 -0.971356 -0.118815 0.205792 0.742341 0.612601 1 4 1.000000
barracuda
  4 -41.313717 98.444580 9.237864 -0.964560 0.131930 -0.228515 0.728659 0.597115 1 4 1.000000
  4 -41.313713 94.218727 7.699781 -0.964560 0.045817 -0.259856 0.712591 0.616335 1 4 1.000000
  4 -40.367207 96.510063 12.588544 -0.971356 -0.118815 0.205792 0.742341 0.612601 1 4 1.000000
barracuda
  4 -40.367207 96.510063 12.588544 -0.971356 -0.118815 0.205792 0.742341 0.612601 1 4 1.000000
  4 -41.313713 94.218727 7.699781 -0.964560 0.045817 -0.259856 0.712591 0.616335 1 4 1.000000
  4 -40.367207 93.546875 11.510032 -0.971356 -0.041262 0.234019 0.730555 0.626369 1 4 1.000000
barracuda
  4 -41.313713 94.218727 7.699781 -0.964560 0.045817 -0.259856 0.712591 0.616335 1 4 1.000000
  4 -41.313709 89.721657 7.699785 -0.964560 -0.045822 -0.259855 0.704206 0.639971 1 4 1.000000
  4 -40.367207 93.546875 11.510032 -0.971356 -0.041262 0.234019 0.730555 0.626369 1 4 1.000000
barracuda
  4 -40.367207 93.546875 11.510032 -0.971356 -0.041262 0.234019 0.730555 0.626369 1 4 1.000000
  4 -41.313709 89.721657 7.699785 -0.964560 -0.045822 -0.259855 0.704206 0.639971 1 4 1.000000
  4 -40.367207 90.393494 11.510034 -0.971356 0.041265 0.234019 0.724478 0.643501 1 4 1.000000
barracuda
  4 -41.313709 89.721657 7.699785 -0.964560 -0.045822 -0.259855 0.704206 0.639971 1 4 1.000000
  4 -41.313702 85.495789 9.237874 -0.964559 -0.131935 -0.228513 0.704570 0.665020 1 4 1.000000
  4 -40.367207 90.393494 11.510034 -0.971356 0.041265 0.234019 0.724478 0.643501 1 4 1.000000
barracuda
  4 -40.367207 90.393494 11.510034 -0.971356 0.041265 0.234019 0.724478 0.643501 1 4 1.000000
  4 -41.313702 85.495789 9.237874 -0.964559 -0.131935 -0.228513 0.704570 0.665020 1 4 1.000000
  4 -40.367199 87.430305 12.588552 -0.971356 0.118814 0.205792 0.724953 0.661618 1 4 1.000000
barracuda
  4 -41.313702 85.495789 9.237874 -0.964559 -0.131935 -0.228513 0.704570 0.665020 1 4 1.000000
  4 -41.313702 82.050842 12.128533 -0.964560 -0.202133 -0.169608 0.712940 0.687555 1 4 1.000000
  4 -40.367199 87.430305 12.588552 -0.971356 0.118814 0.205792 0.724953 0.661618 1 4 1.000000
barracuda
  4 -40.367199 87.430305 12.588552 -0.971356 0.118814 0.205792 0.724953 0.661618 1 4 1.000000
  4 -41.313702 82.050842 12.128533 -0.964560 -0.202133 -0.169608 0.712940 0.687555 1 4 1.000000
  4 -40.367203 85.014694 14.615501 -0.971356 0.182034 0.152744 0.730667 0.676887 1 4 1.000000
barracuda
  4 -41.313702 82.050842 12.128533 -0.964560 -0.202133 -0.169608 0.712940 0.687555 1 4 1.000000
  4 -41.313698 79.802307 16.023109 -0.964559 -0.247954 -0.090245 0.728642 0.705781 1 4 1.000000
  4 -40.367203 85.014694 14.615501 -0.971356 0.182034 0.152744 0.730667 0.676887 1 4 1.000000
barracuda
  4 -40.367203 85.014694 14.615501 -0.971356 0.182034 0.152744 0.730667 0.676887 1 4 1.000000
  4 -41.313698 79.802307 16.023109 -0.964559 -0.247954 -0.090245 0.728642 0.705781 1 4 1.000000
  4 -40.367199 83.438011 17.346392 -0.971357 0.223296 0.081273 0.741571 0.689730 1 4 1.000000
barracuda
  4 -41.313698 79.802307 16.023109 -0.964559 -0.247954 -0.090245 0.728642 0.705781 1 4 1.000000
  4 -41.313694 79.021408 20.451857 -0.964559 -0.263866 0.000001 0.750417 0.718210 1 4 1.000000
  4 -40.367199 83.438011 17.346392 -0.971357 0.223296 0.081273 0.741571 0.689730 1 4 1.000000
barracuda
  4 -40.367199 83.438011 17.346392 -0.971357 0.223296 0.081273 0.741571 0.689730 1 4 1.000000
  4 -41.313694 79.021408 20.451857 -0.964559 -0.263866 0.000001 0.750417 0.718210 1 4 1.000000
  4 -40.367199 82.890442 20.451855 -0.971357 0.237627 -0.000001 0.757292 0.698828 1 4 1.000000
barracuda
  4 -41.313694 79.021408 20.451857 -0.964559 -0.263866 0.000001 0.750417 0.718210 1 4 1.000000
  4 -41.313698 79.802315 24.880604 -0.964559 -0.247953 0.090248 0.775156 0.722282 1 4 1.000000
  4 -40.367199 82.890442 20.451855 -0.971357 0.237627 -0.000001 0.757292 0.698828 1 4 1.000000
barracuda
  4 -40.367199 82.890442 20.451855 -0.971357 0.237627 -0.000001 0.757292 0.698828 1 4 1.000000
  4 -41.313698 79.802315 24.880604 -0.964559 -0.247953 0.090248 0.775156 0.722282 1 4 1.000000
  4 -40.367199 83.438019 23.557316 -0.971356 0.223297 -0.081274 0.775233 0.701671 1 4 1.000000
barracuda
  4 -41.313698 79.802315 24.880604 -0.964559 -0.247953 0.090248 0.775156 0.722282 1 4 1.000000
  4 -41.313702 82.050850 28.775179 -0.964559 -0.202131 0.169611 0.798834 0.718025 1 4 1.000000
  4 -40.367199 83.438019 23.557316 -0.971356 0.223297 -0.081274 0.775233 0.701671 1 4 1.000000
barracuda
  4 -40.367199 83.438019 23.557316 -0.971356 0.223297 -0.081274 0.775233 0.701671 1 4 1.000000
  4 -41.313702 82.050850 28.775179 -0.964559 -0.202131 0.169611 0.798834 0.718025 1 4 1.000000
  4 -40.367199 85.014702 26.288208 -0.971356 0.182033 -0.152745 0.791792 0.698571 1 4 1.000000
barracuda
  4 -41.313702 82.050850 28.775179 -0.964559 -0.202131 0.169611 0.798834 0.718025 1 4 1.000000
  4 -41.313702 85.495804 31.665831 -0.964560 -0.131931 0.228514 0.819534 0.705802 1 4 1.000000
  4 -40.367199 85.014702 26.288208 -0.971356 0.182033 -0.152745 0.791792 0.698571 1 4 1.000000
barracuda
  4 -40.367199 85.014702 26.288208 -0.971356 0.182033 -0.152745 0.791792 0.698571 1 4 1.000000
  4 -41.313702 85.495804 31.665831 -0.964560 -0.131931 0.228514 0.819534 0.705802 1 4 1.000000
  4 -40.367203 87.430321 28.315153 -0.971357 0.118811 -0.205792 0.805851 0.690316 1 4 1.000000
barracuda
  4 -41.313702 85.495804 31.665831 -0.964560 -0.131931 0.228514 0.819534 0.705802 1 4 1.000000
  4 -41.313709 89.721664 33.203918 -0.964560 -0.045819 0.259856 0.835602 0.686582 1 4 1.000000
  4 -40.367203 87.430321 28.315153 -0.971357 0.118811 -0.205792 0.805851 0.690316 1 4 1.000000
barracuda
  4 -40.367203 87.430321 28.315153 -0.971357 0.118811 -0.205792 0.805851 0.690316 1 4 1.000000
  4 -41.313709 89.721664 33.203918 -0.964560 -0.045819 0.259856 0.835602 0.686582 1 4 1.000000
  4 -40.367210 90.393509 29.393671 -0.971357 0.041261 -0.234017 0.817637 0.676548 1 4 1.000000
barracuda
  4 -41.313709 89.721664 33.203918 -0.964560 -0.045819 0.259856 0.835602 0.686582 1 4 1.000000
  4 -41.313713 94.218742 33.203915 -0.964560 0.045821 0.259856 0.843984 0.662808 1 4 1.000000
  4 -40.367210 90.393509 29.393671 -0.971357 0.041261 -0.234017 0.817637 0.676548 1 4 1.000000
barracuda
  4 -40.367210 90.393509 29.393671 -0.971357 0.041261 -0.234017 0.817637 0.676548 1 4 1.000000
  4 -41.313713 94.218742 33.203915 -0.964560 0.045821 0.259856 0.843984 0.662808 1 4 1.000000
  4 -40.367214 93.546890 29.393669 -0.971356 -0.041265 -0.234019 0.823714 0.659416 1 4 1.000000
barracuda
  4 -41.313713 94.218742 33.203915 -0.964560 0.045821 0.259856 0.843984 0.662808 1 4 1.000000
  4 -41.313713 98.444595 31.665827 -0.964560 0.131933 0.228513 0.843551 0.637834 1 4 1.000000
  4 -40.367214 93.546890 29.393669 -0.971356 -0.041265 -0.234019 0.823714 0.659416 1 4 1.000000
barracuda
  4 -40.367214 93.546890 29.393669 -0.971356 -0.041265 -0.234019 0.823714 0.659416 1 4 1.000000
  4 -41.313713 98.444595 31.665827 -0.964560 0.131933 0.228513 0.843551 0.637834 1 4 1.000000
  4 -40.367210 96.510078 28.315145 -0.971356 -0.118816 -0.205793 0.823239 0.641299 1 4 1.000000
barracuda
  4 -41.313713 98.444595 31.665827 -0.964560 0.131933 0.228513 0.843551 0.637834 1 4 1.000000
  4 -41.313725 101.889549 28.775166 -0.964559 0.202124 0.169620 0.835328 0.615562 1 4 1.000000
  4 -40.367210 96.510078 28.315145 -0.971356 -0.118816 -0.205793 0.823239 0.641299 1 4 1.000000
barracuda
  4 -40.367210 96.510078 28.315145 -0.971356 -0.118816 -0.205793 0.823239 0.641299 1 4 1.000000
  4 -41.313725 101.889549 28.775166 -0.964559 0.202124 0.169620 0.835328 0.615562 1 4 1.000000
  4 -40.367214 98.925690 26.288197 -0.971356 -0.182035 -0.152745 0.817526 0.626030 1 4 1.000000
barracuda
  4 -41.313725 101.889549 28.775166 -0.964559 0.202124 0.169620 0.835328 0.615562 1 4 1.000000
  4 -41.313721 104.138077 24.880585 -0.964560 0.247952 0.090245 0.819551 0.597136 1 4 1.000000
  4 -40.367214 98.925690 26.288197 -0.971356 -0.182035 -0.152745 0.817526 0.626030 1 4 1.000000
barracuda
  4 -41.050373 90.190544 19.490299 -1.000000 0.000026 0.000000 0.734686 0.717398 1 4 1.000000
  4 -41.050373 89.928070 20.469872 -1.000000 0.000011 0.000002 0.727077 0.717398 1 4 1.000000
  4 -41.050377 90.907646 18.773205 -1.000000 0.000002 0.000001 0.741275 0.721203 1 4 1.000000
barracuda
  4 -41.050373 89.928070 20.469872 -1.000000 0.000011 0.000002 0.727077 0.717398 1 4 1.000000
  4 -41.050369 90.190544 21.449438 -1.000000 0.000001 0.000001 0.720488 0.721203 1 4 1.000000
  4 -41.050377 90.907646 18.773205 -1.000000 0.000002 0.000001 0.741275 0.721203 1 4 1.000000
barracuda
  4 -41.050369 90.190544 21.449438 -1.000000 0.000001 0.000001 0.720488 0.721203 1 4 1.000000
  4 -41.050369 90.907646 22.166533 -1.000000 -0.000001 0.000001 0.716684 0.727878 1 4 1.000000
  4 -41.050377 90.907646 18.773205 -1.000000 0.000002 0.000001 0.741275 0.721203 1 4 1.000000
barracuda
  4 -41.050369 90.907646 22.166533 -1.000000 -0.000001 0.000001 0.716684 0.727878 1 4 1.000000
  4 -41.050373 91.887215 22.429008 -1.000000 -0.000001 0.000001 0.716684 0.735335 1 4 1.000000
  4 -41.050377 90.907646 18.773205 -1.000000 0.000002 0.000001 0.741275 0.721203 1 4 1.000000
barracuda
  4 -41.050373 91.887215 22.429008 -1.000000 -0.000001 0.000001 0.716684 0.735335 1 4 1.000000
  4 -41.050373 92.866783 22.166533 -1.000000 -0.000003 0.000001 0.720488 0.741989 1 4 1.000000
  4 -41.050377 90.907646 18.773205 -1.000000 0.000002 0.000001 0.741275 0.721203 1 4 1.000000
barracuda
  4 -41.050373 92.866783 22.166533 -1.000000 -0.000003 0.000001 0.720488 0.741989 1 4 1.000000
  4 -41.050373 93.583878 21.449436 -1.000000 -0.000005 0.000002 0.727077 0.745794 1 4 1.000000
  4 -41.050377 90.907646 18.773205 -1.000000 0.000002 0.000001 0.741275 0.721203 1 4 1.000000
barracuda
  4 -41.050373 93.583878 21.449436 -1.000000 -0.000005 0.000002 0.727077 0.745794 1 4 1.000000
  4 -41.050377 93.846352 20.469868 -1.000000 -0.000004 0.000002 0.734686 0.745794 1 4 1.000000
  4 -41.050377 90.907646 18.773205 -1.000000 0.000002 0.000001 0.741275 0.721203 1 4 1.000000
barracuda
  4 -41.050377 93.846352 20.469868 -1.000000 -0.000004 0.000002 0.734686 0.745794 1 4 1.000000
  4 -41.050377 93.583878 19.490295 -1.000000 -0.000002 0.000000 0.741275 0.741989 1 4 1.000000
  4 -41.050377 90.907646 18.773205 -1.000000 0.000002 0.000001 0.741275 0.721203 1 4 1.000000
barracuda
  4 -41.050377 93.583878 19.490295 -1.000000 -0.000002 0.000000 0.741275 0.741989 1 4 1.000000
  4 -41.050377 92.866783 18.773201 -1.000000 -0.000001 0.000000 0.745079 0.735400 1 4 1.000000
  4 -41.050377 90.907646 18.773205 -1.000000 0.000002 0.000001 0.741275 0.721203 1 4 1.000000
barracuda
  4 -41.050377 92.866783 18.773201 -1.000000 -0.000001 0.000000 0.745079 0.735400 1 4 1.000000
  4 -41.050377 91.887215 18.510727 -1.000000 -0.000001 0.000000 0.745079 0.727792 1 4 1.000000
  4 -41.050377 90.907646 18.773205 -1.000000 0.000002 0.000001 0.741275 0.721203 1 4 1.000000
barracuda
  4 -41.037411 96.371483 12.828564 -0.977166 -0.106238 0.184010 0.744186 0.615686 1 4 1.000000
  4 -41.037407 93.498741 11.782972 -0.977166 -0.036897 0.209248 0.733510 0.628282 1 4 1.000000
  4 -39.123363 91.970200 20.451849 -1.000000 -0.000001 -0.000001 0.774096 0.651459 1 4 1.000000
barracuda
  4 -41.037407 93.498741 11.782972 -0.977166 -0.036897 0.209248 0.733510 0.628282 1 4 1.000000
  4 -41.037403 90.441628 11.782975 -0.977167 0.036895 0.209247 0.727978 0.643878 1 4 1.000000
  4 -39.123363 91.970200 20.451849 -1.000000 -0.000001 -0.000001 0.774096 0.651459 1 4 1.000000
barracuda
  4 -41.037403 90.441628 11.782975 -0.977167 0.036895 0.209247 0.727978 0.643878 1 4 1.000000
  4 -41.037403 87.568886 12.828570 -0.977167 0.106237 0.184009 0.728330 0.660385 1 4 1.000000
  4 -39.123363 91.970200 20.451849 -1.000000 -0.000001 -0.000001 0.774096 0.651459 1 4 1.000000
barracuda
  4 -41.037403 87.568886 12.828570 -0.977167 0.106237 0.184009 0.728330 0.660385 1 4 1.000000
  4 -41.037395 85.227005 14.793648 -0.977167 0.162765 0.136576 0.733803 0.674854 1 4 1.000000
  4 -39.123363 91.970200 20.451849 -1.000000 -0.000001 -0.000001 0.774096 0.651459 1 4 1.000000
barracuda
  4 -41.037395 85.227005 14.793648 -0.977167 0.162765 0.136576 0.733803 0.674854 1 4 1.000000
  4 -41.037395 83.698448 17.441185 -0.977167 0.199661 0.072670 0.744130 0.687271 1 4 1.000000
  4 -39.123363 91.970200 20.451849 -1.000000 -0.000001 -0.000001 0.774096 0.651459 1 4 1.000000
barracuda
  4 -41.037395 83.698448 17.441185 -0.977167 0.199661 0.072670 0.744130 0.687271 1 4 1.000000
  4 -41.037399 83.167587 20.451855 -0.977167 0.212475 -0.000002 0.758466 0.695519 1 4 1.000000
  4 -39.123363 91.970200 20.451849 -1.000000 -0.000001 -0.000001 0.774096 0.651459 1 4 1.000000
barracuda
  4 -41.037399 83.167587 20.451855 -0.977167 0.212475 -0.000002 0.758466 0.695519 1 4 1.000000
  4 -41.037403 83.698456 23.462526 -0.977166 0.199661 -0.072672 0.774794 0.698149 1 4 1.000000
  4 -39.123363 91.970200 20.451849 -1.000000 -0.000001 -0.000001 0.774096 0.651459 1 4 1.000000
barracuda
  4 -41.037403 83.698456 23.462526 -0.977166 0.199661 -0.072672 0.774794 0.698149 1 4 1.000000
  4 -41.037403 85.227013 26.110062 -0.977166 0.162766 -0.136576 0.790639 0.695016 1 4 1.000000
  4 -39.123363 91.970200 20.451849 -1.000000 -0.000001 -0.000001 0.774096 0.651459 1 4 1.000000
barracuda
  4 -41.037403 85.227013 26.110062 -0.977166 0.162766 -0.136576 0.790639 0.695016 1 4 1.000000
  4 -41.037399 87.568893 28.075138 -0.977166 0.106237 -0.184010 0.804006 0.687231 1 4 1.000000
  4 -39.123363 91.970200 20.451849 -1.000000 -0.000001 -0.000001 0.774096 0.651459 1 4 1.000000
barracuda
  4 -41.037399 87.568893 28.075138 -0.977166 0.106237 -0.184010 0.804006 0.687231 1 4 1.000000
  4 -41.037411 90.441635 29.120729 -0.977166 0.036894 -0.209250 0.814682 0.674635 1 4 1.000000
  4 -39.123363 91.970200 20.451849 -1.000000 -0.000001 -0.000001 0.774096 0.651459 1 4 1.000000
barracuda
  4 -41.037411 90.441635 29.120729 -0.977166 0.036894 -0.209250 0.814682 0.674635 1 4 1.000000
  4 -41.037415 93.498756 29.120726 -0.977166 -0.036896 -0.209248 0.820214 0.659039 1 4 1.000000
  4 -39.123363 91.970200 20.451849 -1.000000 -0.000001 -0.000001 0.774096 0.651459 1 4 1.000000
barracuda
  4 -41.037415 93.498756 29.120726 -0.977166 -0.036896 -0.209248 0.820214 0.659039 1 4 1.000000
  4 -41.037411 96.371498 28.075130 -0.977166 -0.106238 -0.184010 0.819863 0.642531 1 4 1.000000
  4 -39.123363 91.970200 20.451849 -1.000000 -0.000001 -0.000001 0.774096 0.651459 1 4 1.000000
barracuda
  4 -41.037411 96.371498 28.075130 -0.977166 -0.106238 -0.184010 0.819863 0.642531 1 4 1.000000
  4 -41.037418 98.713371 26.110050 -0.977166 -0.162767 -0.136578 0.814390 0.628063 1 4 1.000000
  4 -39.123363 91.970200 20.451849 -1.000000 -0.000001 -0.000001 0.774096 0.651459 1 4 1.000000
barracuda
  4 -41.037418 98.713371 26.110050 -0.977166 -0.162767 -0.136578 0.814390 0.628063 1 4 1.000000
  4 -41.037415 100.241936 23.462513 -0.977166 -0.199663 -0.072672 0.804062 0.615645 1 4 1.000000
  4 -39.123363 91.970200 20.451849 -1.000000 -0.000001 -0.000001 0.774096 0.651459 1 4 1.000000
barracuda
  4 -41.037415 100.241936 23.462513 -0.977166 -0.199663 -0.072672 0.804062 0.615645 1 4 1.000000
  4 -41.037415 100.772789 20.451841 -0.977166 -0.212476 0.000000 0.789726 0.607398 1 4 1.000000
  4 -39.123363 91.970200 20.451849 -1.000000 -0.000001 -0.000001 0.774096 0.651459 1 4 1.000000
barracuda
  4 -41.037415 100.772789 20.451841 -0.977166 -0.212476 0.000000 0.789726 0.607398 1 4 1.000000
  4 -41.037415 100.241936 17.441177 -0.977166 -0.199662 0.072671 0.773398 0.604768 1 4 1.000000
  4 -39.123363 91.970200 20.451849 -1.000000 -0.000001 -0.000001 0.774096 0.651459 1 4 1.000000
barracuda
  4 -41.037415 100.241936 17.441177 -0.977166 -0.199662 0.072671 0.773398 0.604768 1 4 1.000000
  4 -41.037411 98.713364 14.793641 -0.977166 -0.162766 0.136577 0.757554 0.607901 1 4 1.000000
  4 -39.123363 91.970200 20.451849 -1.000000 -0.000001 -0.000001 0.774096 0.651459 1 4 1.000000
barracuda
  4 -41.037411 98.713364 14.793641 -0.977166 -0.162766 0.136577 0.757554 0.607901 1 4 1.000000
  4 -41.037411 96.371483 12.828564 -0.977166 -0.106238 0.184010 0.744186 0.615686 1 4 1.000000
  4 -39.123363 91.970200 20.451849 -1.000000 -0.000001 -0.000001 0.774096 0.651459 1 4 1.000000
barracuda
  4 -41.050369 90.190544 21.449438 0.000001 -0.866025 0.500001 0.716684 0.722541 1 4 1.000000
  4 -41.050373 89.928070 20.469872 0.000001 -1.000000 -0.000001 0.716684 0.715192 1 4 1.000000
  4 -38.988277 90.190552 21.449438 0.000001 -0.866027 0.499997 0.701213 0.722541 1 4 1.000000
barracuda
  4 -38.988277 90.190552 21.449438 0.000001 -0.866027 0.499997 0.701213 0.722541 1 4 1.000000
  4 -41.050373 89.928070 20.469872 0.000001 -1.000000 -0.000001 0.716684 0.715192 1 4 1.000000
  4 -38.988274 89.928078 20.469872 0.000001 -1.000000 -0.000006 0.701213 0.715192 1 4 1.000000
barracuda
  4 -41.050373 89.928070 20.469872 0.000001 -1.000000 -0.000001 0.716684 0.715192 1 4 1.000000
  4 -41.050373 90.190544 19.490299 0.000001 -0.866026 -0.499999 0.716684 0.707842 1 4 1.000000
  4 -38.988274 89.928078 20.469872 0.000001 -1.000000 -0.000006 0.701213 0.715192 1 4 1.000000
barracuda
  4 -38.988274 89.928078 20.469872 0.000001 -1.000000 -0.000006 0.701213 0.715192 1 4 1.000000
  4 -41.050373 90.190544 19.490299 0.000001 -0.866026 -0.499999 0.716684 0.707842 1 4 1.000000
  4 -38.988274 90.190552 19.490299 0.000001 -0.866024 -0.500002 0.701213 0.707842 1 4 1.000000
barracuda
  4 -41.050373 90.190544 19.490299 0.000001 -0.866026 -0.499999 0.716684 0.707842 1 4 1.000000
  4 -41.050377 90.907646 18.773205 0.000000 -0.500002 -0.866024 0.716684 0.702462 1 4 1.000000
  4 -38.988274 90.190552 19.490299 0.000001 -0.866024 -0.500002 0.701213 0.707842 1 4 1.000000
barracuda
  4 -38.988274 90.190552 19.490299 0.000001 -0.866024 -0.500002 0.701213 0.707842 1 4 1.000000
  4 -41.050377 90.907646 18.773205 0.000000 -0.500002 -0.866024 0.716684 0.702462 1 4 1.000000
  4 -38.988277 90.907654 18.773205 -0.000001 -0.500000 -0.866025 0.701213 0.702462 1 4 1.000000
barracuda
  4 -41.050377 90.907646 18.773205 0.000000 -0.500002 -0.866024 0.716684 0.782777 1 4 1.000000
  4 -41.050377 91.887215 18.510727 0.000001 -0.000003 -1.000000 0.716684 0.775428 1 4 1.000000
  4 -38.988277 90.907654 18.773205 -0.000001 -0.500000 -0.866025 0.701213 0.782777 1 4 1.000000
barracuda
  4 -38.988277 90.907654 18.773205 -0.000001 -0.500000 -0.866025 0.701213 0.782777 1 4 1.000000
  4 -41.050377 91.887215 18.510727 0.000001 -0.000003 -1.000000 0.716684 0.775428 1 4 1.000000
  4 -38.988277 91.887215 18.510729 0.000000 -0.000004 -1.000000 0.701213 0.775428 1 4 1.000000
barracuda
  4 -41.050377 91.887215 18.510727 0.000001 -0.000003 -1.000000 0.716684 0.775428 1 4 1.000000
  4 -41.050377 92.866783 18.773201 0.000002 0.499997 -0.866027 0.716684 0.768079 1 4 1.000000
  4 -38.988277 91.887215 18.510729 0.000000 -0.000004 -1.000000 0.701213 0.775428 1 4 1.000000
barracuda
  4 -38.988277 91.887215 18.510729 0.000000 -0.000004 -1.000000 0.701213 0.775428 1 4 1.000000
  4 -41.050377 92.866783 18.773201 0.000002 0.499997 -0.866027 0.716684 0.768079 1 4 1.000000
  4 -38.988277 92.866783 18.773203 0.000001 0.499998 -0.866027 0.701213 0.768079 1 4 1.000000
barracuda
  4 -41.050377 92.866783 18.773201 0.000002 0.499997 -0.866027 0.716684 0.768079 1 4 1.000000
  4 -41.050377 93.583878 19.490295 0.000000 0.866024 -0.500003 0.716684 0.762699 1 4 1.000000
  4 -38.988277 92.866783 18.773203 0.000001 0.499998 -0.866027 0.701213 0.768079 1 4 1.000000
barracuda
  4 -38.988277 92.866783 18.773203 0.000001 0.499998 -0.866027 0.701213 0.768079 1 4 1.000000
  4 -41.050377 93.583878 19.490295 0.000000 0.866024 -0.500003 0.716684 0.762699 1 4 1.000000
  4 -38.988277 93.583885 19.490297 -0.000001 0.866028 -0.499996 0.701213 0.762699 1 4 1.000000
barracuda
  4 -41.050377 93.583878 19.490295 0.000000 0.866024 -0.500003 0.716684 0.762699 1 4 1.000000
  4 -41.050377 93.846352 20.469868 -0.000001 1.000000 -0.000002 0.716684 0.755349 1 4 1.000000
  4 -38.988277 93.583885 19.490297 -0.000001 0.866028 -0.499996 0.701213 0.762699 1 4 1.000000
barracuda
  4 -38.988277 93.583885 19.490297 -0.000001 0.866028 -0.499996 0.701213 0.762699 1 4 1.000000
  4 -41.050377 93.846352 20.469868 -0.000001 1.000000 -0.000002 0.716684 0.755349 1 4 1.000000
  4 -38.988281 93.846359 20.469868 -0.000001 1.000000 0.000011 0.701213 0.755349 1 4 1.000000
barracuda
  4 -41.050377 93.846352 20.469868 -0.000001 1.000000 -0.000002 0.716684 0.755349 1 4 1.000000
  4 -41.050373 93.583878 21.449436 -0.000001 0.866028 0.499996 0.716684 0.748000 1 4 1.000000
  4 -38.988281 93.846359 20.469868 -0.000001 1.000000 0.000011 0.701213 0.755349 1 4 1.000000
barracuda
  4 -38.988281 93.846359 20.469868 -0.000001 1.000000 0.000011 0.701213 0.755349 1 4 1.000000
  4 -41.050373 93.583878 21.449436 -0.000001 0.866028 0.499996 0.716684 0.748000 1 4 1.000000
  4 -38.988281 93.583885 21.449438 -0.000001 0.866023 0.500004 0.701213 0.748000 1 4 1.000000
barracuda
  4 -41.050373 93.583878 21.449436 -0.000001 0.866028 0.499996 0.716684 0.748000 1 4 1.000000
  4 -41.050373 92.866783 22.166533 0.000000 0.500001 0.866025 0.716684 0.742620 1 4 1.000000
  4 -38.988281 93.583885 21.449438 -0.000001 0.866023 0.500004 0.701213 0.748000 1 4 1.000000
barracuda
  4 -38.988281 93.583885 21.449438 -0.000001 0.866023 0.500004 0.701213 0.748000 1 4 1.000000
  4 -41.050373 92.866783 22.166533 0.000000 0.500001 0.866025 0.716684 0.742620 1 4 1.000000
  4 -38.988281 92.866791 22.166533 0.000000 0.499998 0.866027 0.701213 0.742620 1 4 1.000000
barracuda
  4 -41.050373 92.866783 22.166533 0.000000 0.500001 0.866025 0.716684 0.742620 1 4 1.000000
  4 -41.050373 91.887215 22.429008 0.000000 0.000000 1.000000 0.716684 0.735335 1 4 1.000000
  4 -38.988281 92.866791 22.166533 0.000000 0.499998 0.866027 0.701213 0.742620 1 4 1.000000
barracuda
  4 -38.988281 92.866791 22.166533 0.000000 0.499998 0.866027 0.701213 0.742620 1 4 1.000000
  4 -41.050373 91.887215 22.429008 0.000000 0.000000 1.000000 0.716684 0.735335 1 4 1.000000
  4 -38.988281 91.887222 22.429008 0.000000 0.000000 1.000000 0.701213 0.735335 1 4 1.000000
barracuda
  4 -41.050373 91.887215 22.429008 0.000000 0.000000 1.000000 0.716684 0.735335 1 4 1.000000
  4 -41.050369 90.907646 22.166533 0.000001 -0.500001 0.866025 0.716684 0.727878 1 4 1.000000
  4 -38.988281 91.887222 22.429008 0.000000 0.000000 1.000000 0.701213 0.735335 1 4 1.000000
barracuda
  4 -38.988281 91.887222 22.429008 0.000000 0.000000 1.000000 0.701213 0.735335 1 4 1.000000
  4 -41.050369 90.907646 22.166533 0.000001 -0.500001 0.866025 0.716684 0.727878 1 4 1.000000
  4 -38.988277 90.907654 22.166533 0.000001 -0.500001 0.866025 0.701213 0.727878 1 4 1.000000
barracuda
  4 -41.050369 90.907646 22.166533 0.000001 -0.500001 0.866025 0.716684 0.727878 1 4 1.000000
  4 -41.050369 90.190544 21.449438 0.000001 -0.866025 0.500001 0.716684 0.722541 1 4 1.000000
  4 -38.988277 90.907654 22.166533 0.000001 -0.500001 0.866025 0.701213 0.727878 1 4 1.000000
barracuda
  4 -38.988277 90.907654 22.166533 0.000001 -0.500001 0.866025 0.701213 0.727878 1 4 1.000000
  4 -41.050369 90.190544 21.449438 0.000001 -0.866025 0.500001 0.716684 0.722541 1 4 1.000000
  4 -38.988277 90.190552 21.449438 0.000001 -0.866027 0.499997 0.701213 0.722541 1 4 1.000000
barracuda
  4 -41.037411 96.371498 28.075130 -0.382145 0.462049 0.800297 0.819863 0.642531 1 4 1.000000
  4 -40.367214 98.925690 26.288197 -0.382149 0.707901 0.594002 0.817526 0.626030 1 4 1.000000
  4 -41.037418 98.713371 26.110050 -0.382151 0.707900 0.594002 0.814390 0.628063 1 4 1.000000
barracuda
  4 -40.367214 98.925690 26.288197 -0.382149 0.707901 0.594002 0.817526 0.626030 1 4 1.000000
  4 -40.367218 100.502380 23.557301 -0.382159 0.868368 0.316057 0.806622 0.613187 1 4 1.000000
  4 -41.037418 98.713371 26.110050 -0.382151 0.707900 0.594002 0.814390 0.628063 1 4 1.000000
barracuda
  4 -41.037418 98.713371 26.110050 -0.382151 0.707900 0.594002 0.814390 0.628063 1 4 1.000000
  4 -40.367218 100.502380 23.557301 -0.382159 0.868368 0.316057 0.806622 0.613187 1 4 1.000000
  4 -41.037415 100.241936 23.462513 -0.382159 0.868367 0.316058 0.804062 0.615645 1 4 1.000000
barracuda
  4 -40.367218 100.502380 23.557301 -0.382159 0.868368 0.316057 0.806622 0.613187 1 4 1.000000
  4 -40.367218 101.049950 20.451839 -0.382155 0.924098 0.000000 0.790900 0.604090 1 4 1.000000
  4 -41.037415 100.241936 23.462513 -0.382159 0.868367 0.316058 0.804062 0.615645 1 4 1.000000
barracuda
  4 -41.037415 100.241936 23.462513 -0.382159 0.868367 0.316058 0.804062 0.615645 1 4 1.000000
  4 -40.367218 101.049950 20.451839 -0.382155 0.924098 0.000000 0.790900 0.604090 1 4 1.000000
  4 -41.037415 100.772789 20.451841 -0.382154 0.924099 0.000000 0.789726 0.607398 1 4 1.000000
barracuda
  4 -40.367218 101.049950 20.451839 -0.382155 0.924098 0.000000 0.790900 0.604090 1 4 1.000000
  4 -40.367210 100.502373 17.346386 -0.382149 0.868371 -0.316061 0.772960 0.601246 1 4 1.000000
  4 -41.037415 100.772789 20.451841 -0.382154 0.924099 0.000000 0.789726 0.607398 1 4 1.000000
barracuda
  4 -41.037415 100.772789 20.451841 -0.382154 0.924099 0.000000 0.789726 0.607398 1 4 1.000000
  4 -40.367210 100.502373 17.346386 -0.382149 0.868371 -0.316061 0.772960 0.601246 1 4 1.000000
  4 -41.037415 100.241936 17.441177 -0.382149 0.868370 -0.316063 0.773398 0.604768 1 4 1.000000
barracuda
  4 -40.367210 100.502373 17.346386 -0.382149 0.868371 -0.316061 0.772960 0.601246 1 4 1.000000
  4 -40.367214 98.925682 14.615490 -0.382154 0.707898 -0.594002 0.756400 0.604346 1 4 1.000000
  4 -41.037415 100.241936 17.441177 -0.382149 0.868370 -0.316063 0.773398 0.604768 1 4 1.000000
barracuda
  4 -41.037415 100.241936 17.441177 -0.382149 0.868370 -0.316063 0.773398 0.604768 1 4 1.000000
  4 -40.367214 98.925682 14.615490 -0.382154 0.707898 -0.594002 0.756400 0.604346 1 4 1.000000
  4 -41.037411 98.713364 14.793641 -0.382155 0.707898 -0.594002 0.757554 0.607901 1 4 1.000000
barracuda
  4 -40.367214 98.925682 14.615490 -0.382154 0.707898 -0.594002 0.756400 0.604346 1 4 1.000000
  4 -40.367207 96.510063 12.588544 -0.382148 0.462053 -0.800294 0.742341 0.612601 1 4 1.000000
  4 -41.037411 98.713364 14.793641 -0.382155 0.707898 -0.594002 0.757554 0.607901 1 4 1.000000
barracuda
  4 -41.037411 98.713364 14.793641 -0.382155 0.707898 -0.594002 0.757554 0.607901 1 4 1.000000
  4 -40.367207 96.510063 12.588544 -0.382148 0.462053 -0.800294 0.742341 0.612601 1 4 1.000000
  4 -41.037411 96.371483 12.828564 -0.382148 0.462053 -0.800294 0.744186 0.615686 1 4 1.000000
barracuda
  4 -40.367207 96.510063 12.588544 -0.382148 0.462053 -0.800294 0.742341 0.612601 1 4 1.000000
  4 -40.367207 93.546875 11.510032 -0.382150 0.160469 -0.910061 0.730555 0.626369 1 4 1.000000
  4 -41.037411 96.371483 12.828564 -0.382148 0.462053 -0.800294 0.744186 0.615686 1 4 1.000000
barracuda
  4 -41.037411 96.371483 12.828564 -0.382148 0.462053 -0.800294 0.744186 0.615686 1 4 1.000000
  4 -40.367207 93.546875 11.510032 -0.382150 0.160469 -0.910061 0.730555 0.626369 1 4 1.000000
  4 -41.037407 93.498741 11.782972 -0.382150 0.160465 -0.910062 0.733510 0.628282 1 4 1.000000
barracuda
  4 -40.367207 93.546875 11.510032 -0.382150 0.160469 -0.910061 0.730555 0.626369 1 4 1.000000
  4 -40.367207 90.393494 11.510034 -0.382152 -0.160471 -0.910060 0.724478 0.643501 1 4 1.000000
  4 -41.037407 93.498741 11.782972 -0.382150 0.160465 -0.910062 0.733510 0.628282 1 4 1.000000
barracuda
  4 -41.037407 93.498741 11.782972 -0.382150 0.160465 -0.910062 0.733510 0.628282 1 4 1.000000
  4 -40.367207 90.393494 11.510034 -0.382152 -0.160471 -0.910060 0.724478 0.643501 1 4 1.000000
  4 -41.037403 90.441628 11.782975 -0.382151 -0.160469 -0.910061 0.727978 0.643878 1 4 1.000000
barracuda
  4 -40.367207 90.393494 11.510034 -0.382152 -0.160471 -0.910060 0.724478 0.643501 1 4 1.000000
  4 -40.367199 87.430305 12.588552 -0.382147 -0.462051 -0.800295 0.724953 0.661618 1 4 1.000000
  4 -41.037403 90.441628 11.782975 -0.382151 -0.160469 -0.910061 0.727978 0.643878 1 4 1.000000
barracuda
  4 -41.037403 90.441628 11.782975 -0.382151 -0.160469 -0.910061 0.727978 0.643878 1 4 1.000000
  4 -40.367199 87.430305 12.588552 -0.382147 -0.462051 -0.800295 0.724953 0.661618 1 4 1.000000
  4 -41.037403 87.568886 12.828570 -0.382147 -0.462050 -0.800296 0.728330 0.660385 1 4 1.000000
barracuda
  4 -40.367199 87.430305 12.588552 -0.382147 -0.462051 -0.800295 0.724953 0.661618 1 4 1.000000
  4 -40.367203 85.014694 14.615501 -0.382143 -0.707906 -0.594000 0.730667 0.676887 1 4 1.000000
  4 -41.037403 87.568886 12.828570 -0.382147 -0.462050 -0.800296 0.728330 0.660385 1 4 1.000000
barracuda
  4 -41.037403 87.568886 12.828570 -0.382147 -0.462050 -0.800296 0.728330 0.660385 1 4 1.000000
  4 -40.367203 85.014694 14.615501 -0.382143 -0.707906 -0.594000 0.730667 0.676887 1 4 1.000000
  4 -41.037395 85.227005 14.793648 -0.382143 -0.707907 -0.593999 0.733803 0.674854 1 4 1.000000
barracuda
  4 -40.367203 85.014694 14.615501 -0.382143 -0.707906 -0.594000 0.730667 0.676887 1 4 1.000000
  4 -40.367199 83.438011 17.346392 -0.382151 -0.868370 -0.316059 0.741571 0.689730 1 4 1.000000
  4 -41.037395 85.227005 14.793648 -0.382143 -0.707907 -0.593999 0.733803 0.674854 1 4 1.000000
barracuda
  4 -41.037395 85.227005 14.793648 -0.382143 -0.707907 -0.593999 0.733803 0.674854 1 4 1.000000
  4 -40.367199 83.438011 17.346392 -0.382151 -0.868370 -0.316059 0.741571 0.689730 1 4 1.000000
  4 -41.037395 83.698448 17.441185 -0.382151 -0.868370 -0.316059 0.744130 0.687271 1 4 1.000000
barracuda
  4 -40.367199 83.438011 17.346392 -0.382151 -0.868370 -0.316059 0.741571 0.689730 1 4 1.000000
  4 -40.367199 82.890442 20.451855 -0.382141 -0.924104 0.000002 0.757292 0.698828 1 4 1.000000
  4 -41.037395 83.698448 17.441185 -0.382151 -0.868370 -0.316059 0.744130 0.687271 1 4 1.000000
barracuda
  4 -41.037395 83.698448 17.441185 -0.382151 -0.868370 -0.316059 0.744130 0.687271 1 4 1.000000
  4 -40.367199 82.890442 20.451855 -0.382141 -0.924104 0.000002 0.757292 0.698828 1 4 1.000000
  4 -41.037399 83.167587 20.451855 -0.382141 -0.924104 0.000002 0.758466 0.695519 1 4 1.000000
barracuda
  4 -40.367199 82.890442 20.451855 -0.382141 -0.924104 0.000002 0.757292 0.698828 1 4 1.000000
  4 -40.367199 83.438019 23.557316 -0.382145 -0.868373 0.316059 0.775233 0.701671 1 4 1.000000
  4 -41.037399 83.167587 20.451855 -0.382141 -0.924104 0.000002 0.758466 0.695519 1 4 1.000000
barracuda
  4 -41.037399 83.167587 20.451855 -0.382141 -0.924104 0.000002 0.758466 0.695519 1 4 1.000000
  4 -40.367199 83.438019 23.557316 -0.382145 -0.868373 0.316059 0.775233 0.701671 1 4 1.000000
  4 -41.037403 83.698456 23.462526 -0.382146 -0.868372 0.316061 0.774794 0.698149 1 4 1.000000
barracuda
  4 -40.367199 83.438019 23.557316 -0.382145 -0.868373 0.316059 0.775233 0.701671 1 4 1.000000
  4 -40.367199 85.014702 26.288208 -0.382140 -0.707905 0.594003 0.791792 0.698571 1 4 1.000000
  4 -41.037403 83.698456 23.462526 -0.382146 -0.868372 0.316061 0.774794 0.698149 1 4 1.000000
barracuda
  4 -41.037403 83.698456 23.462526 -0.382146 -0.868372 0.316061 0.774794 0.698149 1 4 1.000000
  4 -40.367199 85.014702 26.288208 -0.382140 -0.707905 0.594003 0.791792 0.698571 1 4 1.000000
  4 -41.037403 85.227013 26.110062 -0.382140 -0.707905 0.594003 0.790639 0.695016 1 4 1.000000
barracuda
  4 -40.367199 85.014702 26.288208 -0.382140 -0.707905 0.594003 0.791792 0.698571 1 4 1.000000
  4 -40.367203 87.430321 28.315153 -0.382142 -0.462053 0.800296 0.805851 0.690316 1 4 1.000000
  4 -41.037403 85.227013 26.110062 -0.382140 -0.707905 0.594003 0.790639 0.695016 1 4 1.000000
barracuda
  4 -41.037403 85.227013 26.110062 -0.382140 -0.707905 0.594003 0.790639 0.695016 1 4 1.000000
  4 -40.367203 87.430321 28.315153 -0.382142 -0.462053 0.800296 0.805851 0.690316 1 4 1.000000
  4 -41.037399 87.568893 28.075138 -0.382144 -0.462052 0.800297 0.804006 0.687231 1 4 1.000000
barracuda
  4 -40.367203 87.430321 28.315153 -0.382142 -0.462053 0.800296 0.805851 0.690316 1 4 1.000000
  4 -40.367210 90.393509 29.393671 -0.382150 -0.160469 0.910061 0.817637 0.676548 1 4 1.000000
  4 -41.037399 87.568893 28.075138 -0.382144 -0.462052 0.800297 0.804006 0.687231 1 4 1.000000
barracuda
  4 -41.037399 87.568893 28.075138 -0.382144 -0.462052 0.800297 0.804006 0.687231 1 4 1.000000
  4 -40.367210 90.393509 29.393671 -0.382150 -0.160469 0.910061 0.817637 0.676548 1 4 1.000000
  4 -41.037411 90.441635 29.120729 -0.382150 -0.160469 0.910061 0.814682 0.674635 1 4 1.000000
barracuda
  4 -40.367210 90.393509 29.393671 -0.382150 -0.160469 0.910061 0.817637 0.676548 1 4 1.000000
  4 -40.367214 93.546890 29.393669 -0.382149 0.160471 0.910061 0.823714 0.659416 1 4 1.000000
  4 -41.037411 90.441635 29.120729 -0.382150 -0.160469 0.910061 0.814682 0.674635 1 4 1.000000
barracuda
  4 -41.037411 90.441635 29.120729 -0.382150 -0.160469 0.910061 0.814682 0.674635 1 4 1.000000
  4 -40.367214 93.546890 29.393669 -0.382149 0.160471 0.910061 0.823714 0.659416 1 4 1.000000
  4 -41.037415 93.498756 29.120726 -0.382148 0.160469 0.910062 0.820214 0.659039 1 4 1.000000
barracuda
  4 -40.367214 93.546890 29.393669 -0.382149 0.160471 0.910061 0.823714 0.659416 1 4 1.000000
  4 -40.367210 96.510078 28.315145 -0.382145 0.462051 0.800296 0.823239 0.641299 1 4 1.000000
  4 -41.037415 93.498756 29.120726 -0.382148 0.160469 0.910062 0.820214 0.659039 1 4 1.000000
barracuda
  4 -41.037415 93.498756 29.120726 -0.382148 0.160469 0.910062 0.820214 0.659039 1 4 1.000000
  4 -40.367210 96.510078 28.315145 -0.382145 0.462051 0.800296 0.823239 0.641299 1 4 1.000000
  4 -41.037411 96.371498 28.075130 -0.382145 0.462049 0.800297 0.819863 0.642531 1 4 1.000000
barracuda
  4 -40.367210 96.510078 28.315145 -0.382145 0.462051 0.800296 0.823239 0.641299 1 4 1.000000
  4 -40.367214 98.925690 26.288197 -0.382149 0.707901 0.594002 0.817526 0.626030 1 4 1.000000
  4 -41.037411 96.371498 28.075130 -0.382145 0.462049 0.800297 0.819863 0.642531 1 4 1.000000
end
