// Created by Crowbar 0.74
version 1
nodes
  0 "Rig_Buggy.Frame" -1
  1 "Rig_Buggy.Shock_RR_Sleeve" 0
  2 "Rig_Buggy.Shock_FR_Sleeve" 0
  3 "Rig_Buggy.Axel_RR" 0
  4 "Rig_Buggy.Wheel_RR" 3
  5 "Rig_Buggy.Shock_RR_Piston" 3
  6 "Rig_Buggy.Steer_Arm" 0
  7 "Rig_Buggy.Shock_FL_Sleeve" 0
  8 "Rig_Buggy.Axel_RL" 0
  9 "Rig_Buggy.Wheel_RL" 8
  10 "Rig_Buggy.Shock_RL_Piston" 8
  11 "Rig_Buggy.Shock_RL_Sleeve" 0
  12 "Rig_Buggy.view" 0
  13 "Rig_Buggy.Gun_Base" 0
  14 "Rig_Buggy.Gun_Parent" 13
  15 "Rig_Buggy.Gun" 14
  16 "Rig_Buggy.Speedo" 0
  17 "Rig_Buggy.Wheel_FR_Turn_parent" 0
  18 "Rig_Buggy.Wheel_FR_Turn" 17
  19 "Rig_Buggy.Wheel_FR_Rotate" 18
  20 "Rig_Buggy.Axel_FR" 0
  21 "Rig_Buggy.Shock_FR_Piston" 20
  22 "Rig_Buggy.Wheel_FL_Turn_parent" 0
  23 "Rig_Buggy.Wheel_FL_Turn" 22
  24 "Rig_Buggy.Wheel_FL_Rotate" 23
  25 "Rig_Buggy.Axel_FL" 0
  26 "Rig_Buggy.Shock_FL_Piston" 25
  27 "Rig_Buggy.Steer_Wheel" 0
  28 "Rig_Buggy.lid" 0
  29 "Rig_Buggy.latch" 28
  30 "Rig_Buggy.gun_cylinders" 15
end
skeleton
  time 0
    0 0.000000 35.485321 34.046600 1.570796 0.000000 0.000000
    1 -26.737438 9.978985 -63.177883 0.007403 -0.264986 -1.495672
    2 -26.847315 6.445412 78.520195 0.268794 0.005691 -3.065482
    3 -4.313085 -13.578558 -57.058857 -3.141593 0.000000 -3.141593
    4 38.013966 0.147196 -0.193550 -3.141593 0.000000 3.141593
    5 20.686598 0.469204 -0.164131 -3.110558 -0.264987 1.495673
    6 0.016516 -11.367849 70.181595 0.000000 0.000000 0.000000
    7 26.847315 6.445412 78.520195 2.876405 -0.019503 -0.071313
    8 4.313085 -13.578558 -57.058857 0.000000 0.000000 0.000000
    9 38.013966 0.147198 0.193550 -3.141593 0.000000 -3.141593
    10 20.605600 0.473753 0.167809 -0.024410 0.265136 1.494187
    11 26.690825 9.982029 -63.178234 0.007043 -0.265136 -1.647406
    12 9.429615 20.728470 -11.982517 0.000000 -1.570796 -1.570796
    13 -16.873423 9.784611 52.968445 0.000000 0.000000 0.000000
    14 0.020790 5.827110 -0.224472 0.000000 -1.570796 -1.570796
    15 0.000002 0.000002 0.000000 0.000000 0.000000 0.000000
    16 5.664327 9.038128 28.830690 -1.230457 0.000000 0.000000
    17 -34.710712 -15.133160 78.859528 0.000000 0.000000 0.000000
    18 0.000000 0.217955 -0.009628 0.000000 0.000000 0.000000
    19 -6.579208 0.000000 -0.000004 0.000000 0.000000 0.000000
    20 -14.319742 -15.458982 88.923615 -1.655486 0.445706 -2.888000
    21 11.574886 -2.180904 1.427973 -1.940707 -0.171070 2.830508
    22 34.710712 -15.133160 78.859528 -3.141593 0.000000 3.141593
    23 0.000000 0.217958 0.009628 0.000000 0.000000 0.000000
    24 -6.579208 0.000002 0.000000 0.000000 0.000000 0.000000
    25 14.319742 -15.458982 88.923615 -0.057762 0.445706 -0.253592
    26 11.620373 -2.905371 2.149563 -0.263171 -0.211841 0.098316
    27 8.930669 9.895988 16.516954 -1.178097 0.000000 0.000000
    28 -10.478000 3.596272 -57.675579 0.000000 0.000000 0.000000
    29 20.682631 -0.459137 -0.000008 0.000000 0.000000 0.000000
    30 -8.438859 0.038662 0.559093 1.570796 0.000000 1.570796
end
triangles
barracuda
  24 28.974510 -56.394779 18.952621 -0.866203 -0.499693 -0.000005 0.751043 0.737290 1 24 1.000000
  24 28.974516 -55.613876 23.381369 -0.866199 -0.469563 0.170909 0.738594 0.752126 1 24 1.000000
  24 28.974510 -55.613876 14.523879 -0.866185 -0.469585 -0.170922 0.767816 0.727606 1 24 1.000000
barracuda
  24 28.974510 -31.278111 14.523878 -0.866202 0.469560 -0.170901 0.835184 0.807892 1 24 1.000000
  24 28.974506 -33.526649 10.629303 -0.866197 0.382796 -0.321201 0.841808 0.789693 1 24 1.000000
  24 28.974506 -30.497206 18.952623 -0.866199 0.499700 0.000005 0.822734 0.822729 1 24 1.000000
barracuda
  24 28.974506 -30.497206 18.952623 -0.866199 0.499700 0.000005 0.822734 0.822729 1 24 1.000000
  24 28.974506 -33.526649 10.629303 -0.866197 0.382796 -0.321201 0.841808 0.789693 1 24 1.000000
  24 28.974506 -33.526649 27.275946 -0.866201 0.382785 0.321203 0.786889 0.835775 1 24 1.000000
barracuda
  24 28.974506 -33.526649 10.629303 -0.866197 0.382796 -0.321201 0.841808 0.789693 1 24 1.000000
  24 28.974510 -55.613876 14.523879 -0.866185 -0.469585 -0.170922 0.767816 0.727606 1 24 1.000000
  24 28.974506 -33.526649 27.275946 -0.866201 0.382785 0.321203 0.786889 0.835775 1 24 1.000000
barracuda
  24 28.974510 -49.920391 30.166607 -0.866203 -0.249843 0.432748 0.731970 0.789475 1 24 1.000000
  24 28.974506 -33.526649 27.275946 -0.866201 0.382785 0.321203 0.786889 0.835775 1 24 1.000000
  24 28.974510 -55.613876 14.523879 -0.866185 -0.469585 -0.170922 0.767816 0.727606 1 24 1.000000
barracuda
  24 28.974516 -55.613876 23.381369 -0.866199 -0.469563 0.170909 0.738594 0.752126 1 24 1.000000
  24 28.974510 -49.920391 30.166607 -0.866203 -0.249843 0.432748 0.731970 0.789475 1 24 1.000000
  24 28.974510 -55.613876 14.523879 -0.866185 -0.469585 -0.170922 0.767816 0.727606 1 24 1.000000
barracuda
  24 28.974510 -53.365345 27.275944 -0.866204 -0.382789 0.321191 0.731970 0.770543 1 24 1.000000
  24 28.974510 -49.920391 30.166607 -0.866203 -0.249843 0.432748 0.731970 0.789475 1 24 1.000000
  24 28.974516 -55.613876 23.381369 -0.866199 -0.469563 0.170909 0.738594 0.752126 1 24 1.000000
barracuda
  24 28.974510 -31.278114 23.381371 -0.866202 0.469557 0.170911 0.805962 0.832412 1 24 1.000000
  24 28.974506 -30.497206 18.952623 -0.866199 0.499700 0.000005 0.822734 0.822729 1 24 1.000000
  24 28.974506 -33.526649 27.275946 -0.866201 0.382785 0.321203 0.786889 0.835775 1 24 1.000000
barracuda
  24 28.974514 -45.694530 31.704693 -0.866202 -0.086777 0.492102 0.738594 0.807892 1 24 1.000000
  24 28.974514 -41.197456 31.704693 -0.866199 0.086767 0.492109 0.751043 0.822729 1 24 1.000000
  24 28.974510 -49.920391 30.166607 -0.866203 -0.249843 0.432748 0.731970 0.789475 1 24 1.000000
barracuda
  24 28.974514 -41.197456 31.704693 -0.866199 0.086767 0.492109 0.751043 0.822729 1 24 1.000000
  24 28.974506 -33.526649 27.275946 -0.866201 0.382785 0.321203 0.786889 0.835775 1 24 1.000000
  24 28.974510 -49.920391 30.166607 -0.866203 -0.249843 0.432748 0.731970 0.789475 1 24 1.000000
barracuda
  24 28.974514 -36.971600 30.166603 -0.866202 0.249843 0.432751 0.767816 0.832412 1 24 1.000000
  24 28.974506 -33.526649 27.275946 -0.866201 0.382785 0.321203 0.786889 0.835775 1 24 1.000000
  24 28.974514 -41.197456 31.704693 -0.866199 0.086767 0.492109 0.751043 0.822729 1 24 1.000000
barracuda
  24 28.974510 -36.971596 7.738645 -0.866202 0.249851 -0.432746 0.841808 0.770325 1 24 1.000000
  24 28.974506 -41.197468 6.200559 -0.866199 0.086768 -0.492108 0.835184 0.752126 1 24 1.000000
  24 28.974506 -33.526649 10.629303 -0.866197 0.382796 -0.321201 0.841808 0.789693 1 24 1.000000
barracuda
  24 28.974506 -41.197468 6.200559 -0.866199 0.086768 -0.492108 0.835184 0.752126 1 24 1.000000
  24 28.974514 -49.920387 7.738645 -0.866203 -0.249840 -0.432750 0.805962 0.727606 1 24 1.000000
  24 28.974506 -33.526649 10.629303 -0.866197 0.382796 -0.321201 0.841808 0.789693 1 24 1.000000
barracuda
  24 28.974514 -49.920387 7.738645 -0.866203 -0.249840 -0.432750 0.805962 0.727606 1 24 1.000000
  24 28.974510 -55.613876 14.523879 -0.866185 -0.469585 -0.170922 0.767816 0.727606 1 24 1.000000
  24 28.974506 -33.526649 10.629303 -0.866197 0.382796 -0.321201 0.841808 0.789693 1 24 1.000000
barracuda
  24 28.974514 -53.365345 10.629303 -0.866202 -0.382785 -0.321201 0.786889 0.724243 1 24 1.000000
  24 28.974510 -55.613876 14.523879 -0.866185 -0.469585 -0.170922 0.767816 0.727606 1 24 1.000000
  24 28.974514 -49.920387 7.738645 -0.866203 -0.249840 -0.432750 0.805962 0.727606 1 24 1.000000
barracuda
  24 28.974506 -45.694534 6.200559 -0.866203 -0.086765 -0.492102 0.822734 0.737290 1 24 1.000000
  24 28.974514 -49.920387 7.738645 -0.866203 -0.249840 -0.432750 0.805962 0.727606 1 24 1.000000
  24 28.974506 -41.197468 6.200559 -0.866199 0.086768 -0.492108 0.835184 0.752126 1 24 1.000000
barracuda
  24 41.261826 -33.526649 10.629302 0.964560 0.202132 -0.169608 0.848839 0.833158 1 24 1.000000
  24 39.418915 -32.093117 9.426426 0.387713 0.706125 -0.592508 0.859584 0.834047 1 24 1.000000
  24 41.261822 -31.278111 14.523878 0.964559 0.247953 -0.090245 0.848839 0.806162 1 24 1.000000
barracuda
  24 30.817421 -46.019482 33.547604 -0.387713 -0.160067 0.907776 0.909735 0.641060 1 24 1.000000
  24 28.974514 -41.197456 31.704693 -0.866199 0.086767 0.492109 0.920481 0.670316 1 24 1.000000
  24 28.974514 -45.694530 31.704693 -0.866202 -0.086777 0.492102 0.920481 0.641211 1 24 1.000000
barracuda
  24 30.817421 -40.872509 33.547604 -0.387713 0.160064 0.907776 0.909735 0.670467 1 24 1.000000
  24 28.974514 -41.197456 31.704693 -0.866199 0.086767 0.492109 0.920481 0.670316 1 24 1.000000
  24 30.817421 -46.019482 33.547604 -0.387713 -0.160067 0.907776 0.909735 0.641060 1 24 1.000000
barracuda
  24 30.817421 -40.872509 33.547604 -0.387713 0.160064 0.907776 0.909735 0.670467 1 24 1.000000
  24 28.974514 -36.971600 30.166603 -0.866202 0.249843 0.432751 0.920481 0.697665 1 24 1.000000
  24 28.974514 -41.197456 31.704693 -0.866199 0.086767 0.492109 0.920481 0.670316 1 24 1.000000
barracuda
  24 30.817425 -36.035927 31.787231 -0.387713 0.460892 0.798284 0.909735 0.698099 1 24 1.000000
  24 28.974514 -36.971600 30.166603 -0.866202 0.249843 0.432751 0.920481 0.697665 1 24 1.000000
  24 30.817421 -40.872509 33.547604 -0.387713 0.160064 0.907776 0.909735 0.670467 1 24 1.000000
barracuda
  24 30.817425 -36.035927 31.787231 -0.387713 0.460892 0.798284 0.909735 0.698099 1 24 1.000000
  24 28.974506 -33.526649 27.275946 -0.866201 0.382785 0.321203 0.920481 0.722707 1 24 1.000000
  24 28.974514 -36.971600 30.166603 -0.866202 0.249843 0.432751 0.920481 0.697665 1 24 1.000000
barracuda
  24 30.817421 -32.093117 28.478821 -0.387714 0.706123 0.592510 0.909735 0.722456 1 24 1.000000
  24 28.974506 -33.526649 27.275946 -0.866201 0.382785 0.321203 0.920481 0.722707 1 24 1.000000
  24 30.817425 -36.035927 31.787231 -0.387713 0.460892 0.798284 0.909735 0.698099 1 24 1.000000
barracuda
  24 30.817421 -32.093117 28.478821 -0.387714 0.706123 0.592510 0.909735 0.722456 1 24 1.000000
  24 28.974510 -31.278114 23.381371 -0.866202 0.469557 0.170911 0.920481 0.748837 1 24 1.000000
  24 28.974506 -33.526649 27.275946 -0.866201 0.382785 0.321203 0.920481 0.722707 1 24 1.000000
barracuda
  24 30.817419 -29.519629 24.021404 -0.387713 0.866190 0.315268 0.909735 0.748540 1 24 1.000000
  24 28.974510 -31.278114 23.381371 -0.866202 0.469557 0.170911 0.920481 0.748837 1 24 1.000000
  24 30.817421 -32.093117 28.478821 -0.387714 0.706123 0.592510 0.909735 0.722456 1 24 1.000000
barracuda
  24 30.817419 -29.519629 24.021404 -0.387713 0.866190 0.315268 0.909735 0.748540 1 24 1.000000
  24 28.974506 -30.497206 18.952623 -0.866199 0.499700 0.000005 0.920481 0.777499 1 24 1.000000
  24 28.974510 -31.278114 23.381371 -0.866202 0.469557 0.170911 0.920481 0.748837 1 24 1.000000
barracuda
  24 30.817423 -28.625864 18.952623 -0.387712 0.921781 0.000001 0.909735 0.777499 1 24 1.000000
  24 28.974506 -30.497206 18.952623 -0.866199 0.499700 0.000005 0.920481 0.777499 1 24 1.000000
  24 30.817419 -29.519629 24.021404 -0.387713 0.866190 0.315268 0.909735 0.748540 1 24 1.000000
barracuda
  24 30.817423 -28.625864 18.952623 -0.387712 0.921781 0.000001 0.909735 0.777499 1 24 1.000000
  24 28.974510 -31.278111 14.523878 -0.866202 0.469560 -0.170901 0.920481 0.806162 1 24 1.000000
  24 28.974506 -30.497206 18.952623 -0.866199 0.499700 0.000005 0.920481 0.777499 1 24 1.000000
barracuda
  24 30.817423 -29.519627 13.883839 -0.387713 0.866190 -0.315268 0.909735 0.806459 1 24 1.000000
  24 28.974510 -31.278111 14.523878 -0.866202 0.469560 -0.170901 0.920481 0.806162 1 24 1.000000
  24 30.817423 -28.625864 18.952623 -0.387712 0.921781 0.000001 0.909735 0.777499 1 24 1.000000
barracuda
  24 30.817423 -29.519627 13.883839 -0.387713 0.866190 -0.315268 0.909735 0.806459 1 24 1.000000
  24 28.974506 -33.526649 10.629303 -0.866197 0.382796 -0.321201 0.920481 0.833158 1 24 1.000000
  24 28.974510 -31.278111 14.523878 -0.866202 0.469560 -0.170901 0.920481 0.806162 1 24 1.000000
barracuda
  24 30.817417 -32.093117 9.426428 -0.387713 0.706124 -0.592510 0.909735 0.834047 1 24 1.000000
  24 28.974506 -33.526649 10.629303 -0.866197 0.382796 -0.321201 0.920481 0.833158 1 24 1.000000
  24 30.817423 -29.519627 13.883839 -0.387713 0.866190 -0.315268 0.909735 0.806459 1 24 1.000000
barracuda
  24 30.817417 -32.093117 9.426428 -0.387713 0.706124 -0.592510 0.909735 0.834047 1 24 1.000000
  24 30.817423 -29.519627 13.883839 -0.387713 0.866190 -0.315268 0.909735 0.806459 1 24 1.000000
  24 39.418915 -32.093117 9.426426 0.387713 0.706125 -0.592508 0.859584 0.834047 1 24 1.000000
barracuda
  24 39.418915 -32.093117 9.426426 0.387713 0.706125 -0.592508 0.859584 0.834047 1 24 1.000000
  24 30.817423 -29.519627 13.883839 -0.387713 0.866190 -0.315268 0.909735 0.806459 1 24 1.000000
  24 39.418911 -29.519623 13.883838 0.387712 0.866190 -0.315267 0.859584 0.806459 1 24 1.000000
barracuda
  24 41.261822 -31.278111 14.523878 0.964559 0.247953 -0.090245 0.848839 0.806162 1 24 1.000000
  24 39.418915 -32.093117 9.426426 0.387713 0.706125 -0.592508 0.859584 0.834047 1 24 1.000000
  24 39.418911 -29.519623 13.883838 0.387712 0.866190 -0.315267 0.859584 0.806459 1 24 1.000000
barracuda
  24 41.261822 -31.278111 14.523878 0.964559 0.247953 -0.090245 0.848839 0.806162 1 24 1.000000
  24 39.418911 -29.519623 13.883838 0.387712 0.866190 -0.315267 0.859584 0.806459 1 24 1.000000
  24 41.261818 -30.497206 18.952625 0.964560 0.263865 0.000001 0.848839 0.777499 1 24 1.000000
barracuda
  24 30.817425 -50.856060 31.787231 -0.387711 -0.460891 0.798285 0.909735 0.613427 1 24 1.000000
  24 30.817421 -54.798874 28.478819 -0.387712 -0.706126 0.592508 0.909735 0.589070 1 24 1.000000
  24 39.418915 -50.856060 31.787233 0.387713 -0.460889 0.798286 0.859322 0.613565 1 24 1.000000
barracuda
  24 39.418915 -46.019478 33.547607 0.387713 -0.160065 0.907776 0.859725 0.641408 1 24 1.000000
  24 30.817425 -50.856060 31.787231 -0.387711 -0.460891 0.798285 0.909735 0.613427 1 24 1.000000
  24 39.418915 -50.856060 31.787233 0.387713 -0.460889 0.798286 0.859322 0.613565 1 24 1.000000
barracuda
  24 30.817421 -46.019482 33.547604 -0.387713 -0.160067 0.907776 0.909735 0.641060 1 24 1.000000
  24 30.817425 -50.856060 31.787231 -0.387711 -0.460891 0.798285 0.909735 0.613427 1 24 1.000000
  24 39.418915 -46.019478 33.547607 0.387713 -0.160065 0.907776 0.859725 0.641408 1 24 1.000000
barracuda
  24 39.418911 -40.872505 33.547607 0.387713 0.160066 0.907776 0.859725 0.670119 1 24 1.000000
  24 30.817421 -46.019482 33.547604 -0.387713 -0.160067 0.907776 0.909735 0.641060 1 24 1.000000
  24 39.418915 -46.019478 33.547607 0.387713 -0.160065 0.907776 0.859725 0.641408 1 24 1.000000
barracuda
  24 30.817421 -40.872509 33.547604 -0.387713 0.160064 0.907776 0.909735 0.670467 1 24 1.000000
  24 30.817421 -46.019482 33.547604 -0.387713 -0.160067 0.907776 0.909735 0.641060 1 24 1.000000
  24 39.418911 -40.872505 33.547607 0.387713 0.160066 0.907776 0.859725 0.670119 1 24 1.000000
barracuda
  24 39.418915 -36.035927 31.787233 0.387713 0.460890 0.798285 0.859322 0.697962 1 24 1.000000
  24 30.817421 -40.872509 33.547604 -0.387713 0.160064 0.907776 0.909735 0.670467 1 24 1.000000
  24 39.418911 -40.872505 33.547607 0.387713 0.160066 0.907776 0.859725 0.670119 1 24 1.000000
barracuda
  24 30.817425 -36.035927 31.787231 -0.387713 0.460892 0.798284 0.909735 0.698099 1 24 1.000000
  24 30.817421 -40.872509 33.547604 -0.387713 0.160064 0.907776 0.909735 0.670467 1 24 1.000000
  24 39.418915 -36.035927 31.787233 0.387713 0.460890 0.798285 0.859322 0.697962 1 24 1.000000
barracuda
  24 39.418911 -32.093113 28.478825 0.387712 0.706125 0.592509 0.859584 0.722456 1 24 1.000000
  24 30.817425 -36.035927 31.787231 -0.387713 0.460892 0.798284 0.909735 0.698099 1 24 1.000000
  24 39.418915 -36.035927 31.787233 0.387713 0.460890 0.798285 0.859322 0.697962 1 24 1.000000
barracuda
  24 30.817421 -32.093117 28.478821 -0.387714 0.706123 0.592510 0.909735 0.722456 1 24 1.000000
  24 30.817425 -36.035927 31.787231 -0.387713 0.460892 0.798284 0.909735 0.698099 1 24 1.000000
  24 39.418911 -32.093113 28.478825 0.387712 0.706125 0.592509 0.859584 0.722456 1 24 1.000000
barracuda
  24 39.418907 -29.519625 24.021408 0.387712 0.866191 0.315267 0.859584 0.748540 1 24 1.000000
  24 30.817421 -32.093117 28.478821 -0.387714 0.706123 0.592510 0.909735 0.722456 1 24 1.000000
  24 39.418911 -32.093113 28.478825 0.387712 0.706125 0.592509 0.859584 0.722456 1 24 1.000000
barracuda
  24 30.817419 -29.519629 24.021404 -0.387713 0.866190 0.315268 0.909735 0.748540 1 24 1.000000
  24 30.817421 -32.093117 28.478821 -0.387714 0.706123 0.592510 0.909735 0.722456 1 24 1.000000
  24 39.418907 -29.519625 24.021408 0.387712 0.866191 0.315267 0.859584 0.748540 1 24 1.000000
barracuda
  24 39.418911 -28.625864 18.952625 0.387712 0.921780 0.000000 0.859584 0.777499 1 24 1.000000
  24 30.817419 -29.519629 24.021404 -0.387713 0.866190 0.315268 0.909735 0.748540 1 24 1.000000
  24 39.418907 -29.519625 24.021408 0.387712 0.866191 0.315267 0.859584 0.748540 1 24 1.000000
barracuda
  24 30.817423 -28.625864 18.952623 -0.387712 0.921781 0.000001 0.909735 0.777499 1 24 1.000000
  24 30.817419 -29.519629 24.021404 -0.387713 0.866190 0.315268 0.909735 0.748540 1 24 1.000000
  24 39.418911 -28.625864 18.952625 0.387712 0.921780 0.000000 0.859584 0.777499 1 24 1.000000
barracuda
  24 39.418911 -29.519623 13.883838 0.387712 0.866190 -0.315267 0.859584 0.806459 1 24 1.000000
  24 30.817423 -28.625864 18.952623 -0.387712 0.921781 0.000001 0.909735 0.777499 1 24 1.000000
  24 39.418911 -28.625864 18.952625 0.387712 0.921780 0.000000 0.859584 0.777499 1 24 1.000000
barracuda
  24 30.817423 -29.519627 13.883839 -0.387713 0.866190 -0.315268 0.909735 0.806459 1 24 1.000000
  24 30.817423 -28.625864 18.952623 -0.387712 0.921781 0.000001 0.909735 0.777499 1 24 1.000000
  24 39.418911 -29.519623 13.883838 0.387712 0.866190 -0.315267 0.859584 0.806459 1 24 1.000000
barracuda
  24 41.261818 -30.497206 18.952625 0.964560 0.263865 0.000001 0.848839 0.777499 1 24 1.000000
  24 39.418911 -29.519623 13.883838 0.387712 0.866190 -0.315267 0.859584 0.806459 1 24 1.000000
  24 39.418911 -28.625864 18.952625 0.387712 0.921780 0.000000 0.859584 0.777499 1 24 1.000000
barracuda
  24 41.261818 -30.497206 18.952625 0.964560 0.263865 0.000001 0.848839 0.777499 1 24 1.000000
  24 39.418911 -28.625864 18.952625 0.387712 0.921780 0.000000 0.859584 0.777499 1 24 1.000000
  24 41.261822 -31.278112 23.381367 0.964559 0.247953 0.090248 0.848839 0.748837 1 24 1.000000
barracuda
  24 41.261822 -31.278112 23.381367 0.964559 0.247953 0.090248 0.848839 0.748837 1 24 1.000000
  24 39.418911 -28.625864 18.952625 0.387712 0.921780 0.000000 0.859584 0.777499 1 24 1.000000
  24 39.418907 -29.519625 24.021408 0.387712 0.866191 0.315267 0.859584 0.748540 1 24 1.000000
barracuda
  24 41.261822 -31.278112 23.381367 0.964559 0.247953 0.090248 0.848839 0.748837 1 24 1.000000
  24 39.418907 -29.519625 24.021408 0.387712 0.866191 0.315267 0.859584 0.748540 1 24 1.000000
  24 41.261826 -33.526646 27.275948 0.964559 0.202132 0.169610 0.848839 0.722707 1 24 1.000000
barracuda
  24 41.261826 -33.526646 27.275948 0.964559 0.202132 0.169610 0.848839 0.722707 1 24 1.000000
  24 39.418907 -29.519625 24.021408 0.387712 0.866191 0.315267 0.859584 0.748540 1 24 1.000000
  24 39.418911 -32.093113 28.478825 0.387712 0.706125 0.592509 0.859584 0.722456 1 24 1.000000
barracuda
  24 41.261826 -33.526646 27.275948 0.964559 0.202132 0.169610 0.848839 0.722707 1 24 1.000000
  24 39.418911 -32.093113 28.478825 0.387712 0.706125 0.592509 0.859584 0.722456 1 24 1.000000
  24 41.261826 -36.971596 30.166599 0.964560 0.131930 0.228513 0.848482 0.697268 1 24 1.000000
barracuda
  24 41.261826 -36.971596 30.166599 0.964560 0.131930 0.228513 0.848482 0.697268 1 24 1.000000
  24 39.418911 -32.093113 28.478825 0.387712 0.706125 0.592509 0.859584 0.722456 1 24 1.000000
  24 39.418915 -36.035927 31.787233 0.387713 0.460890 0.798285 0.859322 0.697962 1 24 1.000000
barracuda
  24 41.261826 -36.971596 30.166599 0.964560 0.131930 0.228513 0.848482 0.697268 1 24 1.000000
  24 39.418915 -36.035927 31.787233 0.387713 0.460890 0.798285 0.859322 0.697962 1 24 1.000000
  24 41.261826 -41.197456 31.704687 0.964560 0.045818 0.259855 0.848950 0.669926 1 24 1.000000
barracuda
  24 41.261826 -41.197456 31.704687 0.964560 0.045818 0.259855 0.848950 0.669926 1 24 1.000000
  24 39.418915 -36.035927 31.787233 0.387713 0.460890 0.798285 0.859322 0.697962 1 24 1.000000
  24 39.418911 -40.872505 33.547607 0.387713 0.160066 0.907776 0.859725 0.670119 1 24 1.000000
barracuda
  24 41.261826 -41.197456 31.704687 0.964560 0.045818 0.259855 0.848950 0.669926 1 24 1.000000
  24 39.418911 -40.872505 33.547607 0.387713 0.160066 0.907776 0.859725 0.670119 1 24 1.000000
  24 41.261826 -45.694527 31.704687 0.964560 -0.045821 0.259855 0.848952 0.641752 1 24 1.000000
barracuda
  24 41.261826 -45.694527 31.704687 0.964560 -0.045821 0.259855 0.848952 0.641752 1 24 1.000000
  24 39.418911 -40.872505 33.547607 0.387713 0.160066 0.907776 0.859725 0.670119 1 24 1.000000
  24 39.418915 -46.019478 33.547607 0.387713 -0.160065 0.907776 0.859725 0.641408 1 24 1.000000
barracuda
  24 41.261826 -45.694527 31.704687 0.964560 -0.045821 0.259855 0.848952 0.641752 1 24 1.000000
  24 39.418915 -46.019478 33.547607 0.387713 -0.160065 0.907776 0.859725 0.641408 1 24 1.000000
  24 41.261822 -49.920387 30.166607 0.964559 -0.131933 0.228514 0.848476 0.614343 1 24 1.000000
barracuda
  24 41.261822 -49.920387 30.166607 0.964559 -0.131933 0.228514 0.848476 0.614343 1 24 1.000000
  24 39.418915 -46.019478 33.547607 0.387713 -0.160065 0.907776 0.859725 0.641408 1 24 1.000000
  24 39.418915 -50.856060 31.787233 0.387713 -0.460889 0.798286 0.859322 0.613565 1 24 1.000000
barracuda
  24 41.261822 -49.920387 30.166607 0.964559 -0.131933 0.228514 0.848476 0.614343 1 24 1.000000
  24 39.418915 -50.856060 31.787233 0.387713 -0.460889 0.798286 0.859322 0.613565 1 24 1.000000
  24 41.261829 -53.365345 27.275944 0.964559 -0.202123 0.169621 0.848842 0.588585 1 24 1.000000
barracuda
  24 41.261829 -53.365345 27.275944 0.964559 -0.202123 0.169621 0.848842 0.588585 1 24 1.000000
  24 39.418915 -50.856060 31.787233 0.387713 -0.460889 0.798286 0.859322 0.613565 1 24 1.000000
  24 39.418915 -54.798874 28.478825 0.387712 -0.706124 0.592510 0.859584 0.589070 1 24 1.000000
barracuda
  24 41.261829 -53.365345 27.275944 0.964559 -0.202123 0.169621 0.848842 0.588585 1 24 1.000000
  24 39.418915 -54.798874 28.478825 0.387712 -0.706124 0.592510 0.859584 0.589070 1 24 1.000000
  24 41.261826 -55.613876 23.381367 0.964560 -0.247952 0.090245 0.848839 0.562690 1 24 1.000000
barracuda
  24 41.261826 -55.613876 23.381367 0.964560 -0.247952 0.090245 0.848839 0.562690 1 24 1.000000
  24 39.418915 -54.798874 28.478825 0.387712 -0.706124 0.592510 0.859584 0.589070 1 24 1.000000
  24 39.418915 -57.372368 24.021408 0.387713 -0.866190 0.315268 0.859584 0.562987 1 24 1.000000
barracuda
  24 41.261826 -55.613876 23.381367 0.964560 -0.247952 0.090245 0.848839 0.562690 1 24 1.000000
  24 39.418915 -57.372368 24.021408 0.387713 -0.866190 0.315268 0.859584 0.562987 1 24 1.000000
  24 41.261822 -56.394779 18.952621 0.964560 -0.263865 -0.000002 0.848839 0.534027 1 24 1.000000
barracuda
  24 30.817417 -36.035931 6.118016 -0.387713 0.460891 -0.798285 0.909735 0.369956 1 24 1.000000
  24 28.974506 -41.197468 6.200559 -0.866199 0.086768 -0.492108 0.920481 0.397739 1 24 1.000000
  24 28.974510 -36.971596 7.738645 -0.866202 0.249851 -0.432746 0.920481 0.370390 1 24 1.000000
barracuda
  24 30.817421 -40.872505 4.357648 -0.387713 0.160066 -0.907776 0.909735 0.397589 1 24 1.000000
  24 28.974506 -41.197468 6.200559 -0.866199 0.086768 -0.492108 0.920481 0.397739 1 24 1.000000
  24 30.817417 -36.035931 6.118016 -0.387713 0.460891 -0.798285 0.909735 0.369956 1 24 1.000000
barracuda
  24 30.817421 -40.872505 4.357648 -0.387713 0.160066 -0.907776 0.909735 0.397589 1 24 1.000000
  24 30.817417 -36.035931 6.118016 -0.387713 0.460891 -0.798285 0.909735 0.369956 1 24 1.000000
  24 39.418915 -40.872505 4.357647 0.387712 0.160064 -0.907777 0.859584 0.397589 1 24 1.000000
barracuda
  24 39.418915 -46.019485 4.357647 0.387712 -0.160067 -0.907776 0.859584 0.426995 1 24 1.000000
  24 30.817421 -40.872505 4.357648 -0.387713 0.160066 -0.907776 0.909735 0.397589 1 24 1.000000
  24 39.418915 -40.872505 4.357647 0.387712 0.160064 -0.907777 0.859584 0.397589 1 24 1.000000
barracuda
  24 30.817421 -46.019485 4.357648 -0.387713 -0.160065 -0.907776 0.909735 0.426995 1 24 1.000000
  24 30.817421 -40.872505 4.357648 -0.387713 0.160066 -0.907776 0.909735 0.397589 1 24 1.000000
  24 39.418915 -46.019485 4.357647 0.387712 -0.160067 -0.907776 0.859584 0.426995 1 24 1.000000
barracuda
  24 39.418907 -50.856060 6.118014 0.387712 -0.460892 -0.798285 0.859584 0.454627 1 24 1.000000
  24 30.817421 -46.019485 4.357648 -0.387713 -0.160065 -0.907776 0.909735 0.426995 1 24 1.000000
  24 39.418915 -46.019485 4.357647 0.387712 -0.160067 -0.907776 0.859584 0.426995 1 24 1.000000
barracuda
  24 30.817421 -50.856060 6.118014 -0.387713 -0.460890 -0.798285 0.909735 0.454627 1 24 1.000000
  24 30.817421 -46.019485 4.357648 -0.387713 -0.160065 -0.907776 0.909735 0.426995 1 24 1.000000
  24 39.418907 -50.856060 6.118014 0.387712 -0.460892 -0.798285 0.859584 0.454627 1 24 1.000000
barracuda
  24 39.418911 -54.798874 9.426431 0.387712 -0.706125 -0.592509 0.859584 0.478985 1 24 1.000000
  24 30.817421 -50.856060 6.118014 -0.387713 -0.460890 -0.798285 0.909735 0.454627 1 24 1.000000
  24 39.418907 -50.856060 6.118014 0.387712 -0.460892 -0.798285 0.859584 0.454627 1 24 1.000000
barracuda
  24 30.817421 -54.798874 9.426431 -0.387713 -0.706125 -0.592509 0.909735 0.478985 1 24 1.000000
  24 30.817421 -50.856060 6.118014 -0.387713 -0.460890 -0.798285 0.909735 0.454627 1 24 1.000000
  24 39.418911 -54.798874 9.426431 0.387712 -0.706125 -0.592509 0.859584 0.478985 1 24 1.000000
barracuda
  24 39.418919 -57.372368 13.883839 0.387714 -0.866190 -0.315267 0.859584 0.505068 1 24 1.000000
  24 30.817421 -54.798874 9.426431 -0.387713 -0.706125 -0.592509 0.909735 0.478985 1 24 1.000000
  24 39.418911 -54.798874 9.426431 0.387712 -0.706125 -0.592509 0.859584 0.478985 1 24 1.000000
barracuda
  24 30.817423 -57.372368 13.883840 -0.387713 -0.866190 -0.315267 0.909735 0.505068 1 24 1.000000
  24 30.817421 -54.798874 9.426431 -0.387713 -0.706125 -0.592509 0.909735 0.478985 1 24 1.000000
  24 39.418919 -57.372368 13.883839 0.387714 -0.866190 -0.315267 0.859584 0.505068 1 24 1.000000
barracuda
  24 39.418915 -58.266121 18.952621 0.387713 -0.921780 0.000001 0.859584 0.534027 1 24 1.000000
  24 30.817423 -57.372368 13.883840 -0.387713 -0.866190 -0.315267 0.909735 0.505068 1 24 1.000000
  24 39.418919 -57.372368 13.883839 0.387714 -0.866190 -0.315267 0.859584 0.505068 1 24 1.000000
barracuda
  24 30.817425 -58.266121 18.952621 -0.387712 -0.921780 0.000000 0.909735 0.534027 1 24 1.000000
  24 30.817423 -57.372368 13.883840 -0.387713 -0.866190 -0.315267 0.909735 0.505068 1 24 1.000000
  24 39.418915 -58.266121 18.952621 0.387713 -0.921780 0.000001 0.859584 0.534027 1 24 1.000000
barracuda
  24 39.418915 -57.372368 24.021408 0.387713 -0.866190 0.315268 0.859584 0.562987 1 24 1.000000
  24 30.817425 -58.266121 18.952621 -0.387712 -0.921780 0.000000 0.909735 0.534027 1 24 1.000000
  24 39.418915 -58.266121 18.952621 0.387713 -0.921780 0.000001 0.859584 0.534027 1 24 1.000000
barracuda
  24 30.817423 -57.372368 24.021402 -0.387713 -0.866190 0.315267 0.909735 0.562987 1 24 1.000000
  24 30.817425 -58.266121 18.952621 -0.387712 -0.921780 0.000000 0.909735 0.534027 1 24 1.000000
  24 39.418915 -57.372368 24.021408 0.387713 -0.866190 0.315268 0.859584 0.562987 1 24 1.000000
barracuda
  24 39.418915 -54.798874 28.478825 0.387712 -0.706124 0.592510 0.859584 0.589070 1 24 1.000000
  24 30.817423 -57.372368 24.021402 -0.387713 -0.866190 0.315267 0.909735 0.562987 1 24 1.000000
  24 39.418915 -57.372368 24.021408 0.387713 -0.866190 0.315268 0.859584 0.562987 1 24 1.000000
barracuda
  24 30.817421 -54.798874 28.478819 -0.387712 -0.706126 0.592508 0.909735 0.589070 1 24 1.000000
  24 30.817423 -57.372368 24.021402 -0.387713 -0.866190 0.315267 0.909735 0.562987 1 24 1.000000
  24 39.418915 -54.798874 28.478825 0.387712 -0.706124 0.592510 0.859584 0.589070 1 24 1.000000
barracuda
  24 39.418915 -50.856060 31.787233 0.387713 -0.460889 0.798286 0.859322 0.613565 1 24 1.000000
  24 30.817421 -54.798874 28.478819 -0.387712 -0.706126 0.592508 0.909735 0.589070 1 24 1.000000
  24 39.418915 -54.798874 28.478825 0.387712 -0.706124 0.592510 0.859584 0.589070 1 24 1.000000
barracuda
  24 30.817421 -40.872505 4.357648 -0.387713 0.160066 -0.907776 0.909735 0.397589 1 24 1.000000
  24 28.974506 -45.694534 6.200559 -0.866203 -0.086765 -0.492102 0.920481 0.426844 1 24 1.000000
  24 28.974506 -41.197468 6.200559 -0.866199 0.086768 -0.492108 0.920481 0.397739 1 24 1.000000
barracuda
  24 30.817421 -46.019485 4.357648 -0.387713 -0.160065 -0.907776 0.909735 0.426995 1 24 1.000000
  24 28.974506 -45.694534 6.200559 -0.866203 -0.086765 -0.492102 0.920481 0.426844 1 24 1.000000
  24 30.817421 -40.872505 4.357648 -0.387713 0.160066 -0.907776 0.909735 0.397589 1 24 1.000000
barracuda
  24 30.817421 -46.019485 4.357648 -0.387713 -0.160065 -0.907776 0.909735 0.426995 1 24 1.000000
  24 28.974514 -49.920387 7.738645 -0.866203 -0.249840 -0.432750 0.920481 0.454193 1 24 1.000000
  24 28.974506 -45.694534 6.200559 -0.866203 -0.086765 -0.492102 0.920481 0.426844 1 24 1.000000
barracuda
  24 30.817421 -50.856060 6.118014 -0.387713 -0.460890 -0.798285 0.909735 0.454627 1 24 1.000000
  24 28.974514 -49.920387 7.738645 -0.866203 -0.249840 -0.432750 0.920481 0.454193 1 24 1.000000
  24 30.817421 -46.019485 4.357648 -0.387713 -0.160065 -0.907776 0.909735 0.426995 1 24 1.000000
barracuda
  24 30.817421 -50.856060 6.118014 -0.387713 -0.460890 -0.798285 0.909735 0.454627 1 24 1.000000
  24 28.974514 -53.365345 10.629303 -0.866202 -0.382785 -0.321201 0.920481 0.479235 1 24 1.000000
  24 28.974514 -49.920387 7.738645 -0.866203 -0.249840 -0.432750 0.920481 0.454193 1 24 1.000000
barracuda
  24 30.817421 -54.798874 9.426431 -0.387713 -0.706125 -0.592509 0.909735 0.478985 1 24 1.000000
  24 28.974514 -53.365345 10.629303 -0.866202 -0.382785 -0.321201 0.920481 0.479235 1 24 1.000000
  24 30.817421 -50.856060 6.118014 -0.387713 -0.460890 -0.798285 0.909735 0.454627 1 24 1.000000
barracuda
  24 30.817421 -54.798874 9.426431 -0.387713 -0.706125 -0.592509 0.909735 0.478985 1 24 1.000000
  24 28.974510 -55.613876 14.523879 -0.866185 -0.469585 -0.170922 0.920481 0.505365 1 24 1.000000
  24 28.974514 -53.365345 10.629303 -0.866202 -0.382785 -0.321201 0.920481 0.479235 1 24 1.000000
barracuda
  24 30.817423 -57.372368 13.883840 -0.387713 -0.866190 -0.315267 0.909735 0.505068 1 24 1.000000
  24 28.974510 -55.613876 14.523879 -0.866185 -0.469585 -0.170922 0.920481 0.505365 1 24 1.000000
  24 30.817421 -54.798874 9.426431 -0.387713 -0.706125 -0.592509 0.909735 0.478985 1 24 1.000000
barracuda
  24 28.974510 -55.613876 14.523879 -0.866185 -0.469585 -0.170922 0.920481 0.505365 1 24 1.000000
  24 30.817423 -57.372368 13.883840 -0.387713 -0.866190 -0.315267 0.909735 0.505068 1 24 1.000000
  24 28.974510 -56.394779 18.952621 -0.866203 -0.499693 -0.000005 0.920481 0.534027 1 24 1.000000
barracuda
  24 28.974510 -56.394779 18.952621 -0.866203 -0.499693 -0.000005 0.920481 0.534027 1 24 1.000000
  24 30.817423 -57.372368 13.883840 -0.387713 -0.866190 -0.315267 0.909735 0.505068 1 24 1.000000
  24 30.817425 -58.266121 18.952621 -0.387712 -0.921780 0.000000 0.909735 0.534027 1 24 1.000000
barracuda
  24 30.817425 -58.266121 18.952621 -0.387712 -0.921780 0.000000 0.909735 0.534027 1 24 1.000000
  24 28.974516 -55.613876 23.381369 -0.866199 -0.469563 0.170909 0.920481 0.562690 1 24 1.000000
  24 28.974510 -56.394779 18.952621 -0.866203 -0.499693 -0.000005 0.920481 0.534027 1 24 1.000000
barracuda
  24 30.817423 -57.372368 24.021402 -0.387713 -0.866190 0.315267 0.909735 0.562987 1 24 1.000000
  24 28.974516 -55.613876 23.381369 -0.866199 -0.469563 0.170909 0.920481 0.562690 1 24 1.000000
  24 30.817425 -58.266121 18.952621 -0.387712 -0.921780 0.000000 0.909735 0.534027 1 24 1.000000
barracuda
  24 30.817423 -57.372368 24.021402 -0.387713 -0.866190 0.315267 0.909735 0.562987 1 24 1.000000
  24 28.974510 -53.365345 27.275944 -0.866204 -0.382789 0.321191 0.920481 0.588525 1 24 1.000000
  24 28.974516 -55.613876 23.381369 -0.866199 -0.469563 0.170909 0.920481 0.562690 1 24 1.000000
barracuda
  24 30.817421 -54.798874 28.478819 -0.387712 -0.706126 0.592508 0.909735 0.589070 1 24 1.000000
  24 28.974510 -53.365345 27.275944 -0.866204 -0.382789 0.321191 0.920481 0.588525 1 24 1.000000
  24 30.817423 -57.372368 24.021402 -0.387713 -0.866190 0.315267 0.909735 0.562987 1 24 1.000000
barracuda
  24 30.817421 -54.798874 28.478819 -0.387712 -0.706126 0.592508 0.909735 0.589070 1 24 1.000000
  24 28.974510 -49.920391 30.166607 -0.866203 -0.249843 0.432748 0.920481 0.614156 1 24 1.000000
  24 28.974510 -53.365345 27.275944 -0.866204 -0.382789 0.321191 0.920481 0.588525 1 24 1.000000
barracuda
  24 30.817425 -50.856060 31.787231 -0.387711 -0.460891 0.798285 0.909735 0.613427 1 24 1.000000
  24 28.974510 -49.920391 30.166607 -0.866203 -0.249843 0.432748 0.920481 0.614156 1 24 1.000000
  24 30.817421 -54.798874 28.478819 -0.387712 -0.706126 0.592508 0.909735 0.589070 1 24 1.000000
barracuda
  24 30.817425 -50.856060 31.787231 -0.387711 -0.460891 0.798285 0.909735 0.613427 1 24 1.000000
  24 28.974514 -45.694530 31.704693 -0.866202 -0.086777 0.492102 0.920481 0.641211 1 24 1.000000
  24 28.974510 -49.920391 30.166607 -0.866203 -0.249843 0.432748 0.920481 0.614156 1 24 1.000000
barracuda
  24 30.817421 -46.019482 33.547604 -0.387713 -0.160067 0.907776 0.909735 0.641060 1 24 1.000000
  24 28.974514 -45.694530 31.704693 -0.866202 -0.086777 0.492102 0.920481 0.641211 1 24 1.000000
  24 30.817425 -50.856060 31.787231 -0.387711 -0.460891 0.798285 0.909735 0.613427 1 24 1.000000
barracuda
  24 41.261822 -56.394779 18.952621 0.964560 -0.263865 -0.000002 0.848839 0.534027 1 24 1.000000
  24 39.418915 -57.372368 24.021408 0.387713 -0.866190 0.315268 0.859584 0.562987 1 24 1.000000
  24 39.418915 -58.266121 18.952621 0.387713 -0.921780 0.000001 0.859584 0.534027 1 24 1.000000
barracuda
  24 39.418915 -58.266121 18.952621 0.387713 -0.921780 0.000001 0.859584 0.534027 1 24 1.000000
  24 41.261822 -55.613876 14.523878 0.964560 -0.247950 -0.090248 0.848839 0.505365 1 24 1.000000
  24 41.261822 -56.394779 18.952621 0.964560 -0.263865 -0.000002 0.848839 0.534027 1 24 1.000000
barracuda
  24 39.418919 -57.372368 13.883839 0.387714 -0.866190 -0.315267 0.859584 0.505068 1 24 1.000000
  24 41.261822 -55.613876 14.523878 0.964560 -0.247950 -0.090248 0.848839 0.505365 1 24 1.000000
  24 39.418915 -58.266121 18.952621 0.387713 -0.921780 0.000001 0.859584 0.534027 1 24 1.000000
barracuda
  24 41.261822 -55.613876 14.523878 0.964560 -0.247950 -0.090248 0.848839 0.505365 1 24 1.000000
  24 39.418919 -57.372368 13.883839 0.387714 -0.866190 -0.315267 0.859584 0.505068 1 24 1.000000
  24 41.261822 -53.365345 10.629303 0.964559 -0.202132 -0.169611 0.848839 0.479235 1 24 1.000000
barracuda
  24 41.261822 -53.365345 10.629303 0.964559 -0.202132 -0.169611 0.848839 0.479235 1 24 1.000000
  24 39.418919 -57.372368 13.883839 0.387714 -0.866190 -0.315267 0.859584 0.505068 1 24 1.000000
  24 39.418911 -54.798874 9.426431 0.387712 -0.706125 -0.592509 0.859584 0.478985 1 24 1.000000
barracuda
  24 41.261822 -53.365345 10.629303 0.964559 -0.202132 -0.169611 0.848839 0.479235 1 24 1.000000
  24 39.418911 -54.798874 9.426431 0.387712 -0.706125 -0.592509 0.859584 0.478985 1 24 1.000000
  24 41.261822 -49.920387 7.738644 0.964560 -0.131932 -0.228514 0.848839 0.454193 1 24 1.000000
barracuda
  24 41.261822 -49.920387 7.738644 0.964560 -0.131932 -0.228514 0.848839 0.454193 1 24 1.000000
  24 39.418911 -54.798874 9.426431 0.387712 -0.706125 -0.592509 0.859584 0.478985 1 24 1.000000
  24 39.418907 -50.856060 6.118014 0.387712 -0.460892 -0.798285 0.859584 0.454627 1 24 1.000000
barracuda
  24 41.261822 -49.920387 7.738644 0.964560 -0.131932 -0.228514 0.848839 0.454193 1 24 1.000000
  24 39.418907 -50.856060 6.118014 0.387712 -0.460892 -0.798285 0.859584 0.454627 1 24 1.000000
  24 41.261826 -45.694534 6.200558 0.964560 -0.045819 -0.259856 0.848839 0.426844 1 24 1.000000
barracuda
  24 41.261826 -45.694534 6.200558 0.964560 -0.045819 -0.259856 0.848839 0.426844 1 24 1.000000
  24 39.418907 -50.856060 6.118014 0.387712 -0.460892 -0.798285 0.859584 0.454627 1 24 1.000000
  24 39.418915 -46.019485 4.357647 0.387712 -0.160067 -0.907776 0.859584 0.426995 1 24 1.000000
barracuda
  24 41.261826 -45.694534 6.200558 0.964560 -0.045819 -0.259856 0.848839 0.426844 1 24 1.000000
  24 39.418915 -46.019485 4.357647 0.387712 -0.160067 -0.907776 0.859584 0.426995 1 24 1.000000
  24 41.261826 -41.197468 6.200558 0.964560 0.045821 -0.259855 0.848839 0.397739 1 24 1.000000
barracuda
  24 41.261826 -41.197468 6.200558 0.964560 0.045821 -0.259855 0.848839 0.397739 1 24 1.000000
  24 39.418915 -46.019485 4.357647 0.387712 -0.160067 -0.907776 0.859584 0.426995 1 24 1.000000
  24 39.418915 -40.872505 4.357647 0.387712 0.160064 -0.907777 0.859584 0.397589 1 24 1.000000
barracuda
  24 41.261826 -41.197468 6.200558 0.964560 0.045821 -0.259855 0.848839 0.397739 1 24 1.000000
  24 39.418915 -40.872505 4.357647 0.387712 0.160064 -0.907777 0.859584 0.397589 1 24 1.000000
  24 41.261822 -36.971596 7.738644 0.964560 0.131934 -0.228513 0.848839 0.370390 1 24 1.000000
barracuda
  24 41.261822 -36.971596 7.738644 0.964560 0.131934 -0.228513 0.848839 0.370390 1 24 1.000000
  24 39.418915 -40.872505 4.357647 0.387712 0.160064 -0.907777 0.859584 0.397589 1 24 1.000000
  24 39.418907 -36.035931 6.118014 0.387712 0.460889 -0.798286 0.859584 0.369956 1 24 1.000000
barracuda
  24 41.261822 -36.971596 7.738644 0.964560 0.131934 -0.228513 0.848839 0.370390 1 24 1.000000
  24 39.418907 -36.035931 6.118014 0.387712 0.460889 -0.798286 0.859584 0.369956 1 24 1.000000
  24 41.261826 -33.526649 10.629302 0.964560 0.202132 -0.169608 0.848839 0.344483 1 24 1.000000
barracuda
  24 41.261826 -33.526649 10.629302 0.964560 0.202132 -0.169608 0.848839 0.344483 1 24 1.000000
  24 39.418907 -36.035931 6.118014 0.387712 0.460889 -0.798286 0.859584 0.369956 1 24 1.000000
  24 39.418915 -32.093117 9.426426 0.387713 0.706125 -0.592508 0.859584 0.344343 1 24 1.000000
barracuda
  24 39.418907 -36.035931 6.118014 0.387712 0.460889 -0.798286 0.859584 0.369956 1 24 1.000000
  24 30.817417 -32.093117 9.426428 -0.387713 0.706124 -0.592510 0.909735 0.344343 1 24 1.000000
  24 39.418915 -32.093117 9.426426 0.387713 0.706125 -0.592508 0.859584 0.344343 1 24 1.000000
barracuda
  24 30.817417 -36.035931 6.118016 -0.387713 0.460891 -0.798285 0.909735 0.369956 1 24 1.000000
  24 30.817417 -32.093117 9.426428 -0.387713 0.706124 -0.592510 0.909735 0.344343 1 24 1.000000
  24 39.418907 -36.035931 6.118014 0.387712 0.460889 -0.798286 0.859584 0.369956 1 24 1.000000
barracuda
  24 30.817417 -36.035931 6.118016 -0.387713 0.460891 -0.798285 0.909735 0.369956 1 24 1.000000
  24 28.974510 -36.971596 7.738645 -0.866202 0.249851 -0.432746 0.920481 0.370390 1 24 1.000000
  24 30.817417 -32.093117 9.426428 -0.387713 0.706124 -0.592510 0.909735 0.344343 1 24 1.000000
barracuda
  24 39.418915 -40.872505 4.357647 0.387712 0.160064 -0.907777 0.859584 0.397589 1 24 1.000000
  24 30.817417 -36.035931 6.118016 -0.387713 0.460891 -0.798285 0.909735 0.369956 1 24 1.000000
  24 39.418907 -36.035931 6.118014 0.387712 0.460889 -0.798286 0.859584 0.369956 1 24 1.000000
barracuda
  24 30.817417 -32.093117 9.426428 -0.387713 0.706124 -0.592510 0.909735 0.344343 1 24 1.000000
  24 28.974510 -36.971596 7.738645 -0.866202 0.249851 -0.432746 0.920481 0.370390 1 24 1.000000
  24 28.974506 -33.526649 10.629303 -0.866197 0.382796 -0.321201 0.920481 0.344483 1 24 1.000000
barracuda
  24 40.315323 -50.401482 24.788979 0.971356 0.182035 -0.152745 0.817526 0.626030 1 24 1.000000
  24 41.261826 -55.613876 23.381367 0.964560 -0.247952 0.090245 0.819551 0.597136 1 24 1.000000
  24 40.315323 -51.978172 22.058083 0.971356 0.223297 -0.081274 0.806622 0.613187 1 24 1.000000
barracuda
  24 41.261826 -55.613876 23.381367 0.964560 -0.247952 0.090245 0.819551 0.597136 1 24 1.000000
  24 41.261822 -56.394779 18.952621 0.964560 -0.263865 -0.000002 0.797776 0.584707 1 24 1.000000
  24 40.315323 -51.978172 22.058083 0.971356 0.223297 -0.081274 0.806622 0.613187 1 24 1.000000
barracuda
  24 40.315323 -51.978172 22.058083 0.971356 0.223297 -0.081274 0.806622 0.613187 1 24 1.000000
  24 41.261822 -56.394779 18.952621 0.964560 -0.263865 -0.000002 0.797776 0.584707 1 24 1.000000
  24 40.315323 -52.525745 18.952623 0.971357 0.237627 0.000000 0.790900 0.604090 1 24 1.000000
barracuda
  24 41.261822 -56.394779 18.952621 0.964560 -0.263865 -0.000002 0.797776 0.584707 1 24 1.000000
  24 41.261822 -55.613876 14.523878 0.964560 -0.247950 -0.090248 0.773036 0.580635 1 24 1.000000
  24 40.315323 -52.525745 18.952623 0.971357 0.237627 0.000000 0.790900 0.604090 1 24 1.000000
barracuda
  24 40.315323 -52.525745 18.952623 0.971357 0.237627 0.000000 0.790900 0.604090 1 24 1.000000
  24 41.261822 -55.613876 14.523878 0.964560 -0.247950 -0.090248 0.773036 0.580635 1 24 1.000000
  24 40.315319 -51.978172 15.847164 0.971356 0.223297 0.081273 0.772960 0.601246 1 24 1.000000
barracuda
  24 41.261822 -55.613876 14.523878 0.964560 -0.247950 -0.090248 0.773036 0.580635 1 24 1.000000
  24 41.261822 -53.365345 10.629303 0.964559 -0.202132 -0.169611 0.749359 0.584892 1 24 1.000000
  24 40.315319 -51.978172 15.847164 0.971356 0.223297 0.081273 0.772960 0.601246 1 24 1.000000
barracuda
  24 40.315319 -51.978172 15.847164 0.971356 0.223297 0.081273 0.772960 0.601246 1 24 1.000000
  24 41.261822 -53.365345 10.629303 0.964559 -0.202132 -0.169611 0.749359 0.584892 1 24 1.000000
  24 40.315323 -50.401482 13.116269 0.971357 0.182032 0.152744 0.756400 0.604346 1 24 1.000000
barracuda
  24 41.261822 -53.365345 10.629303 0.964559 -0.202132 -0.169611 0.749359 0.584892 1 24 1.000000
  24 41.261822 -49.920387 7.738644 0.964560 -0.131932 -0.228514 0.728659 0.597115 1 24 1.000000
  24 40.315323 -50.401482 13.116269 0.971357 0.182032 0.152744 0.756400 0.604346 1 24 1.000000
barracuda
  24 40.315323 -50.401482 13.116269 0.971357 0.182032 0.152744 0.756400 0.604346 1 24 1.000000
  24 41.261822 -49.920387 7.738644 0.964560 -0.131932 -0.228514 0.728659 0.597115 1 24 1.000000
  24 40.315315 -47.985870 11.089322 0.971356 0.118815 0.205792 0.742341 0.612601 1 24 1.000000
barracuda
  24 41.261822 -49.920387 7.738644 0.964560 -0.131932 -0.228514 0.728659 0.597115 1 24 1.000000
  24 41.261826 -45.694534 6.200558 0.964560 -0.045819 -0.259856 0.712591 0.616335 1 24 1.000000
  24 40.315315 -47.985870 11.089322 0.971356 0.118815 0.205792 0.742341 0.612601 1 24 1.000000
barracuda
  24 40.315315 -47.985870 11.089322 0.971356 0.118815 0.205792 0.742341 0.612601 1 24 1.000000
  24 41.261826 -45.694534 6.200558 0.964560 -0.045819 -0.259856 0.712591 0.616335 1 24 1.000000
  24 40.315319 -45.022678 10.010806 0.971356 0.041264 0.234019 0.730555 0.626369 1 24 1.000000
barracuda
  24 41.261826 -45.694534 6.200558 0.964560 -0.045819 -0.259856 0.712591 0.616335 1 24 1.000000
  24 41.261826 -41.197468 6.200558 0.964560 0.045821 -0.259855 0.704206 0.639971 1 24 1.000000
  24 40.315319 -45.022678 10.010806 0.971356 0.041264 0.234019 0.730555 0.626369 1 24 1.000000
barracuda
  24 40.315319 -45.022678 10.010806 0.971356 0.041264 0.234019 0.730555 0.626369 1 24 1.000000
  24 41.261826 -41.197468 6.200558 0.964560 0.045821 -0.259855 0.704206 0.639971 1 24 1.000000
  24 40.315319 -41.869305 10.010807 0.971356 -0.041263 0.234020 0.724478 0.643501 1 24 1.000000
barracuda
  24 41.261826 -41.197468 6.200558 0.964560 0.045821 -0.259855 0.704206 0.639971 1 24 1.000000
  24 41.261822 -36.971596 7.738644 0.964560 0.131934 -0.228513 0.704570 0.665020 1 24 1.000000
  24 40.315319 -41.869305 10.010807 0.971356 -0.041263 0.234020 0.724478 0.643501 1 24 1.000000
barracuda
  24 40.315319 -41.869305 10.010807 0.971356 -0.041263 0.234020 0.724478 0.643501 1 24 1.000000
  24 41.261822 -36.971596 7.738644 0.964560 0.131934 -0.228513 0.704570 0.665020 1 24 1.000000
  24 40.315315 -38.906109 11.089323 0.971356 -0.118815 0.205793 0.724953 0.661618 1 24 1.000000
barracuda
  24 41.261822 -36.971596 7.738644 0.964560 0.131934 -0.228513 0.704570 0.665020 1 24 1.000000
  24 41.261826 -33.526649 10.629302 0.964560 0.202132 -0.169608 0.712940 0.687555 1 24 1.000000
  24 40.315315 -38.906109 11.089323 0.971356 -0.118815 0.205793 0.724953 0.661618 1 24 1.000000
barracuda
  24 40.315315 -38.906109 11.089323 0.971356 -0.118815 0.205793 0.724953 0.661618 1 24 1.000000
  24 41.261826 -33.526649 10.629302 0.964560 0.202132 -0.169608 0.712940 0.687555 1 24 1.000000
  24 40.315323 -36.490501 13.116271 0.971356 -0.182035 0.152744 0.730667 0.676887 1 24 1.000000
barracuda
  24 41.261826 -33.526649 10.629302 0.964560 0.202132 -0.169608 0.712940 0.687555 1 24 1.000000
  24 41.261822 -31.278111 14.523878 0.964559 0.247953 -0.090245 0.728642 0.705781 1 24 1.000000
  24 40.315323 -36.490501 13.116271 0.971356 -0.182035 0.152744 0.730667 0.676887 1 24 1.000000
barracuda
  24 40.315323 -36.490501 13.116271 0.971356 -0.182035 0.152744 0.730667 0.676887 1 24 1.000000
  24 41.261822 -31.278111 14.523878 0.964559 0.247953 -0.090245 0.728642 0.705781 1 24 1.000000
  24 40.315319 -34.913815 15.847162 0.971356 -0.223297 0.081274 0.741571 0.689730 1 24 1.000000
barracuda
  24 41.261822 -31.278111 14.523878 0.964559 0.247953 -0.090245 0.728642 0.705781 1 24 1.000000
  24 41.261818 -30.497206 18.952625 0.964560 0.263865 0.000001 0.750417 0.718210 1 24 1.000000
  24 40.315319 -34.913815 15.847162 0.971356 -0.223297 0.081274 0.741571 0.689730 1 24 1.000000
barracuda
  24 40.315319 -34.913815 15.847162 0.971356 -0.223297 0.081274 0.741571 0.689730 1 24 1.000000
  24 41.261818 -30.497206 18.952625 0.964560 0.263865 0.000001 0.750417 0.718210 1 24 1.000000
  24 40.315319 -34.366241 18.952623 0.971356 -0.237627 -0.000001 0.757292 0.698828 1 24 1.000000
barracuda
  24 41.261818 -30.497206 18.952625 0.964560 0.263865 0.000001 0.750417 0.718210 1 24 1.000000
  24 41.261822 -31.278112 23.381367 0.964559 0.247953 0.090248 0.775156 0.722282 1 24 1.000000
  24 40.315319 -34.366241 18.952623 0.971356 -0.237627 -0.000001 0.757292 0.698828 1 24 1.000000
barracuda
  24 40.315319 -34.366241 18.952623 0.971356 -0.237627 -0.000001 0.757292 0.698828 1 24 1.000000
  24 41.261822 -31.278112 23.381367 0.964559 0.247953 0.090248 0.775156 0.722282 1 24 1.000000
  24 40.315323 -34.913815 22.058083 0.971357 -0.223294 -0.081274 0.775233 0.701671 1 24 1.000000
barracuda
  24 41.261822 -31.278112 23.381367 0.964559 0.247953 0.090248 0.775156 0.722282 1 24 1.000000
  24 41.261826 -33.526646 27.275948 0.964559 0.202132 0.169610 0.798834 0.718025 1 24 1.000000
  24 40.315323 -34.913815 22.058083 0.971357 -0.223294 -0.081274 0.775233 0.701671 1 24 1.000000
barracuda
  24 40.315323 -34.913815 22.058083 0.971357 -0.223294 -0.081274 0.775233 0.701671 1 24 1.000000
  24 41.261826 -33.526646 27.275948 0.964559 0.202132 0.169610 0.798834 0.718025 1 24 1.000000
  24 40.315323 -36.490501 24.788979 0.971356 -0.182034 -0.152744 0.791792 0.698571 1 24 1.000000
barracuda
  24 41.261826 -33.526646 27.275948 0.964559 0.202132 0.169610 0.798834 0.718025 1 24 1.000000
  24 41.261826 -36.971596 30.166599 0.964560 0.131930 0.228513 0.819534 0.705802 1 24 1.000000
  24 40.315323 -36.490501 24.788979 0.971356 -0.182034 -0.152744 0.791792 0.698571 1 24 1.000000
barracuda
  24 40.315323 -36.490501 24.788979 0.971356 -0.182034 -0.152744 0.791792 0.698571 1 24 1.000000
  24 41.261826 -36.971596 30.166599 0.964560 0.131930 0.228513 0.819534 0.705802 1 24 1.000000
  24 40.315323 -38.906109 26.815926 0.971356 -0.118815 -0.205792 0.805851 0.690316 1 24 1.000000
barracuda
  24 41.261826 -36.971596 30.166599 0.964560 0.131930 0.228513 0.819534 0.705802 1 24 1.000000
  24 41.261826 -41.197456 31.704687 0.964560 0.045818 0.259855 0.835602 0.686582 1 24 1.000000
  24 40.315323 -38.906109 26.815926 0.971356 -0.118815 -0.205792 0.805851 0.690316 1 24 1.000000
barracuda
  24 40.315323 -38.906109 26.815926 0.971356 -0.118815 -0.205792 0.805851 0.690316 1 24 1.000000
  24 41.261826 -41.197456 31.704687 0.964560 0.045818 0.259855 0.835602 0.686582 1 24 1.000000
  24 40.315327 -41.869305 27.894445 0.971356 -0.041264 -0.234018 0.817637 0.676548 1 24 1.000000
barracuda
  24 41.261826 -41.197456 31.704687 0.964560 0.045818 0.259855 0.835602 0.686582 1 24 1.000000
  24 41.261826 -45.694527 31.704687 0.964560 -0.045821 0.259855 0.843984 0.662808 1 24 1.000000
  24 40.315327 -41.869305 27.894445 0.971356 -0.041264 -0.234018 0.817637 0.676548 1 24 1.000000
barracuda
  24 40.315327 -41.869305 27.894445 0.971356 -0.041264 -0.234018 0.817637 0.676548 1 24 1.000000
  24 41.261826 -45.694527 31.704687 0.964560 -0.045821 0.259855 0.843984 0.662808 1 24 1.000000
  24 40.315327 -45.022678 27.894444 0.971356 0.041263 -0.234018 0.823714 0.659416 1 24 1.000000
barracuda
  24 41.261826 -45.694527 31.704687 0.964560 -0.045821 0.259855 0.843984 0.662808 1 24 1.000000
  24 41.261822 -49.920387 30.166607 0.964559 -0.131933 0.228514 0.843551 0.637834 1 24 1.000000
  24 40.315327 -45.022678 27.894444 0.971356 0.041263 -0.234018 0.823714 0.659416 1 24 1.000000
barracuda
  24 40.315327 -45.022678 27.894444 0.971356 0.041263 -0.234018 0.823714 0.659416 1 24 1.000000
  24 41.261822 -49.920387 30.166607 0.964559 -0.131933 0.228514 0.843551 0.637834 1 24 1.000000
  24 40.315323 -47.985870 26.815926 0.971356 0.118814 -0.205791 0.823239 0.641299 1 24 1.000000
barracuda
  24 41.261822 -49.920387 30.166607 0.964559 -0.131933 0.228514 0.843551 0.637834 1 24 1.000000
  24 41.261829 -53.365345 27.275944 0.964559 -0.202123 0.169621 0.835328 0.615562 1 24 1.000000
  24 40.315323 -47.985870 26.815926 0.971356 0.118814 -0.205791 0.823239 0.641299 1 24 1.000000
barracuda
  24 40.315323 -47.985870 26.815926 0.971356 0.118814 -0.205791 0.823239 0.641299 1 24 1.000000
  24 41.261829 -53.365345 27.275944 0.964559 -0.202123 0.169621 0.835328 0.615562 1 24 1.000000
  24 40.315323 -50.401482 24.788979 0.971356 0.182035 -0.152745 0.817526 0.626030 1 24 1.000000
barracuda
  24 41.261829 -53.365345 27.275944 0.964559 -0.202123 0.169621 0.835328 0.615562 1 24 1.000000
  24 41.261826 -55.613876 23.381367 0.964560 -0.247952 0.090245 0.819551 0.597136 1 24 1.000000
  24 40.315323 -50.401482 24.788979 0.971356 0.182035 -0.152745 0.817526 0.626030 1 24 1.000000
barracuda
  24 40.998489 -41.666348 17.991074 1.000000 0.000000 0.000000 0.734686 0.717398 1 24 1.000000
  24 40.998489 -41.403873 18.970644 1.000000 -0.000009 0.000000 0.727077 0.717398 1 24 1.000000
  24 40.998489 -42.383446 17.273977 1.000000 -0.000001 0.000000 0.741275 0.721203 1 24 1.000000
barracuda
  24 40.998489 -41.403873 18.970644 1.000000 -0.000009 0.000000 0.727077 0.717398 1 24 1.000000
  24 40.998489 -41.666348 19.950212 1.000000 -0.000002 0.000000 0.720488 0.721203 1 24 1.000000
  24 40.998489 -42.383446 17.273977 1.000000 -0.000001 0.000000 0.741275 0.721203 1 24 1.000000
barracuda
  24 40.998489 -41.666348 19.950212 1.000000 -0.000002 0.000000 0.720488 0.721203 1 24 1.000000
  24 40.998489 -42.383446 20.667307 1.000000 0.000000 0.000000 0.716684 0.727878 1 24 1.000000
  24 40.998489 -42.383446 17.273977 1.000000 -0.000001 0.000000 0.741275 0.721203 1 24 1.000000
barracuda
  24 40.998489 -42.383446 20.667307 1.000000 0.000000 0.000000 0.716684 0.727878 1 24 1.000000
  24 40.998489 -43.363010 20.929783 1.000000 0.000000 0.000000 0.716684 0.735335 1 24 1.000000
  24 40.998489 -42.383446 17.273977 1.000000 -0.000001 0.000000 0.741275 0.721203 1 24 1.000000
barracuda
  24 40.998489 -43.363010 20.929783 1.000000 0.000000 0.000000 0.716684 0.735335 1 24 1.000000
  24 40.998489 -44.342583 20.667307 1.000000 0.000000 0.000000 0.720488 0.741989 1 24 1.000000
  24 40.998489 -42.383446 17.273977 1.000000 -0.000001 0.000000 0.741275 0.721203 1 24 1.000000
barracuda
  24 40.998489 -44.342583 20.667307 1.000000 0.000000 0.000000 0.720488 0.741989 1 24 1.000000
  24 40.998489 -45.059677 19.950212 1.000000 0.000002 0.000001 0.727077 0.745794 1 24 1.000000
  24 40.998489 -42.383446 17.273977 1.000000 -0.000001 0.000000 0.741275 0.721203 1 24 1.000000
barracuda
  24 40.998489 -45.059677 19.950212 1.000000 0.000002 0.000001 0.727077 0.745794 1 24 1.000000
  24 40.998493 -45.322151 18.970644 1.000000 0.000002 0.000001 0.734686 0.745794 1 24 1.000000
  24 40.998489 -42.383446 17.273977 1.000000 -0.000001 0.000000 0.741275 0.721203 1 24 1.000000
barracuda
  24 40.998493 -45.322151 18.970644 1.000000 0.000002 0.000001 0.734686 0.745794 1 24 1.000000
  24 40.998489 -45.059677 17.991074 1.000000 -0.000001 -0.000003 0.741275 0.741989 1 24 1.000000
  24 40.998489 -42.383446 17.273977 1.000000 -0.000001 0.000000 0.741275 0.721203 1 24 1.000000
barracuda
  24 40.998489 -45.059677 17.991074 1.000000 -0.000001 -0.000003 0.741275 0.741989 1 24 1.000000
  24 40.998489 -44.342583 17.273977 1.000000 0.000000 0.000000 0.745079 0.735400 1 24 1.000000
  24 40.998489 -42.383446 17.273977 1.000000 -0.000001 0.000000 0.741275 0.721203 1 24 1.000000
barracuda
  24 40.998489 -44.342583 17.273977 1.000000 0.000000 0.000000 0.745079 0.735400 1 24 1.000000
  24 40.998489 -43.363010 17.011501 1.000000 0.000000 0.000000 0.745079 0.727792 1 24 1.000000
  24 40.998489 -42.383446 17.273977 1.000000 -0.000001 0.000000 0.741275 0.721203 1 24 1.000000
barracuda
  24 40.985519 -47.847290 11.329340 0.977167 0.106237 0.184009 0.744186 0.615686 1 24 1.000000
  24 40.985519 -44.974548 10.283747 0.977167 0.036895 0.209247 0.733510 0.628282 1 24 1.000000
  24 39.071480 -43.445992 18.952623 1.000000 0.000000 0.000000 0.774096 0.651459 1 24 1.000000
barracuda
  24 40.985519 -44.974548 10.283747 0.977167 0.036895 0.209247 0.733510 0.628282 1 24 1.000000
  24 40.985519 -41.917435 10.283748 0.977167 -0.036895 0.209247 0.727978 0.643878 1 24 1.000000
  24 39.071480 -43.445992 18.952623 1.000000 0.000000 0.000000 0.774096 0.651459 1 24 1.000000
barracuda
  24 40.985519 -41.917435 10.283748 0.977167 -0.036895 0.209247 0.727978 0.643878 1 24 1.000000
  24 40.985519 -39.044689 11.329342 0.977166 -0.106236 0.184010 0.728330 0.660385 1 24 1.000000
  24 39.071480 -43.445992 18.952623 1.000000 0.000000 0.000000 0.774096 0.651459 1 24 1.000000
barracuda
  24 40.985519 -39.044689 11.329342 0.977166 -0.106236 0.184010 0.728330 0.660385 1 24 1.000000
  24 40.985516 -36.702805 13.294418 0.977167 -0.162765 0.136577 0.733803 0.674854 1 24 1.000000
  24 39.071480 -43.445992 18.952623 1.000000 0.000000 0.000000 0.774096 0.651459 1 24 1.000000
barracuda
  24 40.985516 -36.702805 13.294418 0.977167 -0.162765 0.136577 0.733803 0.674854 1 24 1.000000
  24 40.985516 -35.174252 15.941954 0.977166 -0.199662 0.072670 0.744130 0.687271 1 24 1.000000
  24 39.071480 -43.445992 18.952623 1.000000 0.000000 0.000000 0.774096 0.651459 1 24 1.000000
barracuda
  24 40.985516 -35.174252 15.941954 0.977166 -0.199662 0.072670 0.744130 0.687271 1 24 1.000000
  24 40.985519 -34.643387 18.952623 0.977166 -0.212475 -0.000001 0.758466 0.695519 1 24 1.000000
  24 39.071480 -43.445992 18.952623 1.000000 0.000000 0.000000 0.774096 0.651459 1 24 1.000000
barracuda
  24 40.985519 -34.643387 18.952623 0.977166 -0.212475 -0.000001 0.758466 0.695519 1 24 1.000000
  24 40.985523 -35.174252 21.963293 0.977166 -0.199662 -0.072671 0.774794 0.698149 1 24 1.000000
  24 39.071480 -43.445992 18.952623 1.000000 0.000000 0.000000 0.774096 0.651459 1 24 1.000000
barracuda
  24 40.985523 -35.174252 21.963293 0.977166 -0.199662 -0.072671 0.774794 0.698149 1 24 1.000000
  24 40.985523 -36.702805 24.610828 0.977166 -0.162767 -0.136576 0.790639 0.695016 1 24 1.000000
  24 39.071480 -43.445992 18.952623 1.000000 0.000000 0.000000 0.774096 0.651459 1 24 1.000000
barracuda
  24 40.985523 -36.702805 24.610828 0.977166 -0.162767 -0.136576 0.790639 0.695016 1 24 1.000000
  24 40.985519 -39.044685 26.575909 0.977166 -0.106237 -0.184009 0.804006 0.687231 1 24 1.000000
  24 39.071480 -43.445992 18.952623 1.000000 0.000000 0.000000 0.774096 0.651459 1 24 1.000000
barracuda
  24 40.985519 -39.044685 26.575909 0.977166 -0.106237 -0.184009 0.804006 0.687231 1 24 1.000000
  24 40.985527 -41.917431 27.621502 0.977166 -0.036895 -0.209249 0.814682 0.674635 1 24 1.000000
  24 39.071480 -43.445992 18.952623 1.000000 0.000000 0.000000 0.774096 0.651459 1 24 1.000000
barracuda
  24 40.985527 -41.917431 27.621502 0.977166 -0.036895 -0.209249 0.814682 0.674635 1 24 1.000000
  24 40.985527 -44.974548 27.621502 0.977166 0.036895 -0.209248 0.820214 0.659039 1 24 1.000000
  24 39.071480 -43.445992 18.952623 1.000000 0.000000 0.000000 0.774096 0.651459 1 24 1.000000
barracuda
  24 40.985527 -44.974548 27.621502 0.977166 0.036895 -0.209248 0.820214 0.659039 1 24 1.000000
  24 40.985519 -47.847290 26.575909 0.977166 0.106237 -0.184009 0.819863 0.642531 1 24 1.000000
  24 39.071480 -43.445992 18.952623 1.000000 0.000000 0.000000 0.774096 0.651459 1 24 1.000000
barracuda
  24 40.985519 -47.847290 26.575909 0.977166 0.106237 -0.184009 0.819863 0.642531 1 24 1.000000
  24 40.985527 -50.189171 24.610828 0.977166 0.162767 -0.136577 0.814390 0.628063 1 24 1.000000
  24 39.071480 -43.445992 18.952623 1.000000 0.000000 0.000000 0.774096 0.651459 1 24 1.000000
barracuda
  24 40.985527 -50.189171 24.610828 0.977166 0.162767 -0.136577 0.814390 0.628063 1 24 1.000000
  24 40.985527 -51.717735 21.963293 0.977166 0.199662 -0.072671 0.804062 0.615645 1 24 1.000000
  24 39.071480 -43.445992 18.952623 1.000000 0.000000 0.000000 0.774096 0.651459 1 24 1.000000
barracuda
  24 40.985527 -51.717735 21.963293 0.977166 0.199662 -0.072671 0.804062 0.615645 1 24 1.000000
  24 40.985523 -52.248592 18.952623 0.977166 0.212476 0.000000 0.789726 0.607398 1 24 1.000000
  24 39.071480 -43.445992 18.952623 1.000000 0.000000 0.000000 0.774096 0.651459 1 24 1.000000
barracuda
  24 40.985523 -52.248592 18.952623 0.977166 0.212476 0.000000 0.789726 0.607398 1 24 1.000000
  24 40.985523 -51.717735 15.941957 0.977166 0.199662 0.072671 0.773398 0.604768 1 24 1.000000
  24 39.071480 -43.445992 18.952623 1.000000 0.000000 0.000000 0.774096 0.651459 1 24 1.000000
barracuda
  24 40.985523 -51.717735 15.941957 0.977166 0.199662 0.072671 0.773398 0.604768 1 24 1.000000
  24 40.985523 -50.189171 13.294420 0.977166 0.162766 0.136577 0.757554 0.607901 1 24 1.000000
  24 39.071480 -43.445992 18.952623 1.000000 0.000000 0.000000 0.774096 0.651459 1 24 1.000000
barracuda
  24 40.985523 -50.189171 13.294420 0.977166 0.162766 0.136577 0.757554 0.607901 1 24 1.000000
  24 40.985519 -47.847290 11.329340 0.977167 0.106237 0.184009 0.744186 0.615686 1 24 1.000000
  24 39.071480 -43.445992 18.952623 1.000000 0.000000 0.000000 0.774096 0.651459 1 24 1.000000
barracuda
  24 40.998489 -41.666348 19.950212 0.000000 0.866026 0.499999 0.716684 0.722541 1 24 1.000000
  24 40.998489 -41.403873 18.970644 0.000000 1.000000 -0.000001 0.716684 0.715192 1 24 1.000000
  24 38.936398 -41.666348 19.950212 0.000000 0.866024 0.500002 0.701213 0.722541 1 24 1.000000
barracuda
  24 38.936398 -41.666348 19.950212 0.000000 0.866024 0.500002 0.701213 0.722541 1 24 1.000000
  24 40.998489 -41.403873 18.970644 0.000000 1.000000 -0.000001 0.716684 0.715192 1 24 1.000000
  24 38.936390 -41.403873 18.970644 0.000000 1.000000 0.000000 0.701213 0.715192 1 24 1.000000
barracuda
  24 40.998489 -41.403873 18.970644 0.000000 1.000000 -0.000001 0.716684 0.715192 1 24 1.000000
  24 40.998489 -41.666348 17.991074 0.000000 0.866025 -0.500001 0.716684 0.707842 1 24 1.000000
  24 38.936390 -41.403873 18.970644 0.000000 1.000000 0.000000 0.701213 0.715192 1 24 1.000000
barracuda
  24 38.936390 -41.403873 18.970644 0.000000 1.000000 0.000000 0.701213 0.715192 1 24 1.000000
  24 40.998489 -41.666348 17.991074 0.000000 0.866025 -0.500001 0.716684 0.707842 1 24 1.000000
  24 38.936390 -41.666348 17.991074 0.000000 0.866024 -0.500002 0.701213 0.707842 1 24 1.000000
barracuda
  24 40.998489 -41.666348 17.991074 0.000000 0.866025 -0.500001 0.716684 0.707842 1 24 1.000000
  24 40.998489 -42.383446 17.273977 0.000000 0.500001 -0.866025 0.716684 0.702462 1 24 1.000000
  24 38.936390 -41.666348 17.991074 0.000000 0.866024 -0.500002 0.701213 0.707842 1 24 1.000000
barracuda
  24 38.936390 -41.666348 17.991074 0.000000 0.866024 -0.500002 0.701213 0.707842 1 24 1.000000
  24 40.998489 -42.383446 17.273977 0.000000 0.500001 -0.866025 0.716684 0.702462 1 24 1.000000
  24 38.936390 -42.383446 17.273977 0.000000 0.500000 -0.866025 0.701213 0.702462 1 24 1.000000
barracuda
  24 40.998489 -42.383446 17.273977 0.000000 0.500001 -0.866025 0.716684 0.782777 1 24 1.000000
  24 40.998489 -43.363010 17.011501 0.000000 0.000000 -1.000000 0.716684 0.775428 1 24 1.000000
  24 38.936390 -42.383446 17.273977 0.000000 0.500000 -0.866025 0.701213 0.782777 1 24 1.000000
barracuda
  24 38.936390 -42.383446 17.273977 0.000000 0.500000 -0.866025 0.701213 0.782777 1 24 1.000000
  24 40.998489 -43.363010 17.011501 0.000000 0.000000 -1.000000 0.716684 0.775428 1 24 1.000000
  24 38.936390 -43.363010 17.011501 0.000000 0.000000 -1.000000 0.701213 0.775428 1 24 1.000000
barracuda
  24 40.998489 -43.363010 17.011501 0.000000 0.000000 -1.000000 0.716684 0.775428 1 24 1.000000
  24 40.998489 -44.342583 17.273977 0.000000 -0.500000 -0.866026 0.716684 0.768079 1 24 1.000000
  24 38.936390 -43.363010 17.011501 0.000000 0.000000 -1.000000 0.701213 0.775428 1 24 1.000000
barracuda
  24 38.936390 -43.363010 17.011501 0.000000 0.000000 -1.000000 0.701213 0.775428 1 24 1.000000
  24 40.998489 -44.342583 17.273977 0.000000 -0.500000 -0.866026 0.716684 0.768079 1 24 1.000000
  24 38.936394 -44.342583 17.273977 0.000000 -0.500001 -0.866025 0.701213 0.768079 1 24 1.000000
barracuda
  24 40.998489 -44.342583 17.273977 0.000000 -0.500000 -0.866026 0.716684 0.768079 1 24 1.000000
  24 40.998489 -45.059677 17.991074 0.000000 -0.866026 -0.499999 0.716684 0.762699 1 24 1.000000
  24 38.936394 -44.342583 17.273977 0.000000 -0.500001 -0.866025 0.701213 0.768079 1 24 1.000000
barracuda
  24 38.936394 -44.342583 17.273977 0.000000 -0.500001 -0.866025 0.701213 0.768079 1 24 1.000000
  24 40.998489 -45.059677 17.991074 0.000000 -0.866026 -0.499999 0.716684 0.762699 1 24 1.000000
  24 38.936394 -45.059677 17.991074 0.000000 -0.866027 -0.499997 0.701213 0.762699 1 24 1.000000
barracuda
  24 40.998489 -45.059677 17.991074 0.000000 -0.866026 -0.499999 0.716684 0.762699 1 24 1.000000
  24 40.998493 -45.322151 18.970644 0.000000 -1.000000 -0.000003 0.716684 0.755349 1 24 1.000000
  24 38.936394 -45.059677 17.991074 0.000000 -0.866027 -0.499997 0.701213 0.762699 1 24 1.000000
barracuda
  24 38.936394 -45.059677 17.991074 0.000000 -0.866027 -0.499997 0.701213 0.762699 1 24 1.000000
  24 40.998493 -45.322151 18.970644 0.000000 -1.000000 -0.000003 0.716684 0.755349 1 24 1.000000
  24 38.936394 -45.322151 18.970644 0.000000 -1.000000 -0.000001 0.701213 0.755349 1 24 1.000000
barracuda
  24 40.998493 -45.322151 18.970644 0.000000 -1.000000 -0.000003 0.716684 0.755349 1 24 1.000000
  24 40.998489 -45.059677 19.950212 0.000000 -0.866026 0.499999 0.716684 0.748000 1 24 1.000000
  24 38.936394 -45.322151 18.970644 0.000000 -1.000000 -0.000001 0.701213 0.755349 1 24 1.000000
barracuda
  24 38.936394 -45.322151 18.970644 0.000000 -1.000000 -0.000001 0.701213 0.755349 1 24 1.000000
  24 40.998489 -45.059677 19.950212 0.000000 -0.866026 0.499999 0.716684 0.748000 1 24 1.000000
  24 38.936398 -45.059677 19.950212 0.000000 -0.866026 0.499999 0.701213 0.748000 1 24 1.000000
barracuda
  24 40.998489 -45.059677 19.950212 0.000000 -0.866026 0.499999 0.716684 0.748000 1 24 1.000000
  24 40.998489 -44.342583 20.667307 0.000001 -0.499999 0.866026 0.716684 0.742620 1 24 1.000000
  24 38.936398 -45.059677 19.950212 0.000000 -0.866026 0.499999 0.701213 0.748000 1 24 1.000000
barracuda
  24 38.936398 -45.059677 19.950212 0.000000 -0.866026 0.499999 0.701213 0.748000 1 24 1.000000
  24 40.998489 -44.342583 20.667307 0.000001 -0.499999 0.866026 0.716684 0.742620 1 24 1.000000
  24 38.936398 -44.342583 20.667307 0.000000 -0.500001 0.866025 0.701213 0.742620 1 24 1.000000
barracuda
  24 40.998489 -44.342583 20.667307 0.000001 -0.499999 0.866026 0.716684 0.742620 1 24 1.000000
  24 40.998489 -43.363010 20.929783 0.000001 0.000001 1.000000 0.716684 0.735335 1 24 1.000000
  24 38.936398 -44.342583 20.667307 0.000000 -0.500001 0.866025 0.701213 0.742620 1 24 1.000000
barracuda
  24 38.936398 -44.342583 20.667307 0.000000 -0.500001 0.866025 0.701213 0.742620 1 24 1.000000
  24 40.998489 -43.363010 20.929783 0.000001 0.000001 1.000000 0.716684 0.735335 1 24 1.000000
  24 38.936398 -43.363010 20.929785 0.000000 0.000001 1.000000 0.701213 0.735335 1 24 1.000000
barracuda
  24 40.998489 -43.363010 20.929783 0.000001 0.000001 1.000000 0.716684 0.735335 1 24 1.000000
  24 40.998489 -42.383446 20.667307 0.000001 0.500001 0.866025 0.716684 0.727878 1 24 1.000000
  24 38.936398 -43.363010 20.929785 0.000000 0.000001 1.000000 0.701213 0.735335 1 24 1.000000
barracuda
  24 38.936398 -43.363010 20.929785 0.000000 0.000001 1.000000 0.701213 0.735335 1 24 1.000000
  24 40.998489 -42.383446 20.667307 0.000001 0.500001 0.866025 0.716684 0.727878 1 24 1.000000
  24 38.936398 -42.383446 20.667307 0.000000 0.500001 0.866025 0.701213 0.727878 1 24 1.000000
barracuda
  24 40.998489 -42.383446 20.667307 0.000001 0.500001 0.866025 0.716684 0.727878 1 24 1.000000
  24 40.998489 -41.666348 19.950212 0.000000 0.866026 0.499999 0.716684 0.722541 1 24 1.000000
  24 38.936398 -42.383446 20.667307 0.000000 0.500001 0.866025 0.701213 0.727878 1 24 1.000000
barracuda
  24 38.936398 -42.383446 20.667307 0.000000 0.500001 0.866025 0.701213 0.727878 1 24 1.000000
  24 40.998489 -41.666348 19.950212 0.000000 0.866026 0.499999 0.716684 0.722541 1 24 1.000000
  24 38.936398 -41.666348 19.950212 0.000000 0.866024 0.500002 0.701213 0.722541 1 24 1.000000
barracuda
  24 40.985519 -47.847290 26.575909 0.382148 -0.462053 0.800294 0.819863 0.642531 1 24 1.000000
  24 40.315323 -50.401482 24.788979 0.382147 -0.707902 0.594002 0.817526 0.626030 1 24 1.000000
  24 40.985527 -50.189171 24.610828 0.382147 -0.707902 0.594002 0.814390 0.628063 1 24 1.000000
barracuda
  24 40.315323 -50.401482 24.788979 0.382147 -0.707902 0.594002 0.817526 0.626030 1 24 1.000000
  24 40.315323 -51.978172 22.058083 0.382150 -0.868370 0.316061 0.806622 0.613187 1 24 1.000000
  24 40.985527 -50.189171 24.610828 0.382147 -0.707902 0.594002 0.814390 0.628063 1 24 1.000000
barracuda
  24 40.985527 -50.189171 24.610828 0.382147 -0.707902 0.594002 0.814390 0.628063 1 24 1.000000
  24 40.315323 -51.978172 22.058083 0.382150 -0.868370 0.316061 0.806622 0.613187 1 24 1.000000
  24 40.985527 -51.717735 21.963293 0.382150 -0.868370 0.316061 0.804062 0.615645 1 24 1.000000
barracuda
  24 40.315323 -51.978172 22.058083 0.382150 -0.868370 0.316061 0.806622 0.613187 1 24 1.000000
  24 40.315323 -52.525745 18.952623 0.382152 -0.924099 -0.000001 0.790900 0.604090 1 24 1.000000
  24 40.985527 -51.717735 21.963293 0.382150 -0.868370 0.316061 0.804062 0.615645 1 24 1.000000
barracuda
  24 40.985527 -51.717735 21.963293 0.382150 -0.868370 0.316061 0.804062 0.615645 1 24 1.000000
  24 40.315323 -52.525745 18.952623 0.382152 -0.924099 -0.000001 0.790900 0.604090 1 24 1.000000
  24 40.985523 -52.248592 18.952623 0.382152 -0.924099 -0.000001 0.789726 0.607398 1 24 1.000000
barracuda
  24 40.315323 -52.525745 18.952623 0.382152 -0.924099 -0.000001 0.790900 0.604090 1 24 1.000000
  24 40.315319 -51.978172 15.847164 0.382149 -0.868371 -0.316061 0.772960 0.601246 1 24 1.000000
  24 40.985523 -52.248592 18.952623 0.382152 -0.924099 -0.000001 0.789726 0.607398 1 24 1.000000
barracuda
  24 40.985523 -52.248592 18.952623 0.382152 -0.924099 -0.000001 0.789726 0.607398 1 24 1.000000
  24 40.315319 -51.978172 15.847164 0.382149 -0.868371 -0.316061 0.772960 0.601246 1 24 1.000000
  24 40.985523 -51.717735 15.941957 0.382149 -0.868371 -0.316061 0.773398 0.604768 1 24 1.000000
barracuda
  24 40.315319 -51.978172 15.847164 0.382149 -0.868371 -0.316061 0.772960 0.601246 1 24 1.000000
  24 40.315323 -50.401482 13.116269 0.382148 -0.707902 -0.594001 0.756400 0.604346 1 24 1.000000
  24 40.985523 -51.717735 15.941957 0.382149 -0.868371 -0.316061 0.773398 0.604768 1 24 1.000000
barracuda
  24 40.985523 -51.717735 15.941957 0.382149 -0.868371 -0.316061 0.773398 0.604768 1 24 1.000000
  24 40.315323 -50.401482 13.116269 0.382148 -0.707902 -0.594001 0.756400 0.604346 1 24 1.000000
  24 40.985523 -50.189171 13.294420 0.382148 -0.707902 -0.594001 0.757554 0.607901 1 24 1.000000
barracuda
  24 40.315323 -50.401482 13.116269 0.382148 -0.707902 -0.594001 0.756400 0.604346 1 24 1.000000
  24 40.315315 -47.985870 11.089322 0.382146 -0.462054 -0.800294 0.742341 0.612601 1 24 1.000000
  24 40.985523 -50.189171 13.294420 0.382148 -0.707902 -0.594001 0.757554 0.607901 1 24 1.000000
barracuda
  24 40.985523 -50.189171 13.294420 0.382148 -0.707902 -0.594001 0.757554 0.607901 1 24 1.000000
  24 40.315315 -47.985870 11.089322 0.382146 -0.462054 -0.800294 0.742341 0.612601 1 24 1.000000
  24 40.985519 -47.847290 11.329340 0.382146 -0.462053 -0.800295 0.744186 0.615686 1 24 1.000000
barracuda
  24 40.315315 -47.985870 11.089322 0.382146 -0.462054 -0.800294 0.742341 0.612601 1 24 1.000000
  24 40.315319 -45.022678 10.010806 0.382147 -0.160470 -0.910062 0.730555 0.626369 1 24 1.000000
  24 40.985519 -47.847290 11.329340 0.382146 -0.462053 -0.800295 0.744186 0.615686 1 24 1.000000
barracuda
  24 40.985519 -47.847290 11.329340 0.382146 -0.462053 -0.800295 0.744186 0.615686 1 24 1.000000
  24 40.315319 -45.022678 10.010806 0.382147 -0.160470 -0.910062 0.730555 0.626369 1 24 1.000000
  24 40.985519 -44.974548 10.283747 0.382148 -0.160469 -0.910062 0.733510 0.628282 1 24 1.000000
barracuda
  24 40.315319 -45.022678 10.010806 0.382147 -0.160470 -0.910062 0.730555 0.626369 1 24 1.000000
  24 40.315319 -41.869305 10.010807 0.382147 0.160469 -0.910062 0.724478 0.643501 1 24 1.000000
  24 40.985519 -44.974548 10.283747 0.382148 -0.160469 -0.910062 0.733510 0.628282 1 24 1.000000
barracuda
  24 40.985519 -44.974548 10.283747 0.382148 -0.160469 -0.910062 0.733510 0.628282 1 24 1.000000
  24 40.315319 -41.869305 10.010807 0.382147 0.160469 -0.910062 0.724478 0.643501 1 24 1.000000
  24 40.985519 -41.917435 10.283748 0.382147 0.160469 -0.910062 0.727978 0.643878 1 24 1.000000
barracuda
  24 40.315319 -41.869305 10.010807 0.382147 0.160469 -0.910062 0.724478 0.643501 1 24 1.000000
  24 40.315315 -38.906109 11.089323 0.382146 0.462055 -0.800294 0.724953 0.661618 1 24 1.000000
  24 40.985519 -41.917435 10.283748 0.382147 0.160469 -0.910062 0.727978 0.643878 1 24 1.000000
barracuda
  24 40.985519 -41.917435 10.283748 0.382147 0.160469 -0.910062 0.727978 0.643878 1 24 1.000000
  24 40.315315 -38.906109 11.089323 0.382146 0.462055 -0.800294 0.724953 0.661618 1 24 1.000000
  24 40.985519 -39.044689 11.329342 0.382146 0.462053 -0.800294 0.728330 0.660385 1 24 1.000000
barracuda
  24 40.315315 -38.906109 11.089323 0.382146 0.462055 -0.800294 0.724953 0.661618 1 24 1.000000
  24 40.315323 -36.490501 13.116271 0.382145 0.707901 -0.594005 0.730667 0.676887 1 24 1.000000
  24 40.985519 -39.044689 11.329342 0.382146 0.462053 -0.800294 0.728330 0.660385 1 24 1.000000
barracuda
  24 40.985519 -39.044689 11.329342 0.382146 0.462053 -0.800294 0.728330 0.660385 1 24 1.000000
  24 40.315323 -36.490501 13.116271 0.382145 0.707901 -0.594005 0.730667 0.676887 1 24 1.000000
  24 40.985516 -36.702805 13.294418 0.382145 0.707901 -0.594004 0.733803 0.674854 1 24 1.000000
barracuda
  24 40.315323 -36.490501 13.116271 0.382145 0.707901 -0.594005 0.730667 0.676887 1 24 1.000000
  24 40.315319 -34.913815 15.847162 0.382148 0.868372 -0.316060 0.741571 0.689730 1 24 1.000000
  24 40.985516 -36.702805 13.294418 0.382145 0.707901 -0.594004 0.733803 0.674854 1 24 1.000000
barracuda
  24 40.985516 -36.702805 13.294418 0.382145 0.707901 -0.594004 0.733803 0.674854 1 24 1.000000
  24 40.315319 -34.913815 15.847162 0.382148 0.868372 -0.316060 0.741571 0.689730 1 24 1.000000
  24 40.985516 -35.174252 15.941954 0.382148 0.868372 -0.316059 0.744130 0.687271 1 24 1.000000
barracuda
  24 40.315319 -34.913815 15.847162 0.382148 0.868372 -0.316060 0.741571 0.689730 1 24 1.000000
  24 40.315319 -34.366241 18.952623 0.382144 0.924103 -0.000002 0.757292 0.698828 1 24 1.000000
  24 40.985516 -35.174252 15.941954 0.382148 0.868372 -0.316059 0.744130 0.687271 1 24 1.000000
barracuda
  24 40.985516 -35.174252 15.941954 0.382148 0.868372 -0.316059 0.744130 0.687271 1 24 1.000000
  24 40.315319 -34.366241 18.952623 0.382144 0.924103 -0.000002 0.757292 0.698828 1 24 1.000000
  24 40.985519 -34.643387 18.952623 0.382144 0.924103 -0.000002 0.758466 0.695519 1 24 1.000000
barracuda
  24 40.315319 -34.366241 18.952623 0.382144 0.924103 -0.000002 0.757292 0.698828 1 24 1.000000
  24 40.315323 -34.913815 22.058083 0.382145 0.868372 0.316061 0.775233 0.701671 1 24 1.000000
  24 40.985519 -34.643387 18.952623 0.382144 0.924103 -0.000002 0.758466 0.695519 1 24 1.000000
barracuda
  24 40.985519 -34.643387 18.952623 0.382144 0.924103 -0.000002 0.758466 0.695519 1 24 1.000000
  24 40.315323 -34.913815 22.058083 0.382145 0.868372 0.316061 0.775233 0.701671 1 24 1.000000
  24 40.985523 -35.174252 21.963293 0.382145 0.868372 0.316062 0.774794 0.698149 1 24 1.000000
barracuda
  24 40.315323 -34.913815 22.058083 0.382145 0.868372 0.316061 0.775233 0.701671 1 24 1.000000
  24 40.315323 -36.490501 24.788979 0.382141 0.707905 0.594002 0.791792 0.698571 1 24 1.000000
  24 40.985523 -35.174252 21.963293 0.382145 0.868372 0.316062 0.774794 0.698149 1 24 1.000000
barracuda
  24 40.985523 -35.174252 21.963293 0.382145 0.868372 0.316062 0.774794 0.698149 1 24 1.000000
  24 40.315323 -36.490501 24.788979 0.382141 0.707905 0.594002 0.791792 0.698571 1 24 1.000000
  24 40.985523 -36.702805 24.610828 0.382142 0.707906 0.594001 0.790639 0.695016 1 24 1.000000
barracuda
  24 40.315323 -36.490501 24.788979 0.382141 0.707905 0.594002 0.791792 0.698571 1 24 1.000000
  24 40.315323 -38.906109 26.815926 0.382145 0.462054 0.800295 0.805851 0.690316 1 24 1.000000
  24 40.985523 -36.702805 24.610828 0.382142 0.707906 0.594001 0.790639 0.695016 1 24 1.000000
barracuda
  24 40.985523 -36.702805 24.610828 0.382142 0.707906 0.594001 0.790639 0.695016 1 24 1.000000
  24 40.315323 -38.906109 26.815926 0.382145 0.462054 0.800295 0.805851 0.690316 1 24 1.000000
  24 40.985519 -39.044685 26.575909 0.382146 0.462054 0.800294 0.804006 0.687231 1 24 1.000000
barracuda
  24 40.315323 -38.906109 26.815926 0.382145 0.462054 0.800295 0.805851 0.690316 1 24 1.000000
  24 40.315327 -41.869305 27.894445 0.382151 0.160468 0.910061 0.817637 0.676548 1 24 1.000000
  24 40.985519 -39.044685 26.575909 0.382146 0.462054 0.800294 0.804006 0.687231 1 24 1.000000
barracuda
  24 40.985519 -39.044685 26.575909 0.382146 0.462054 0.800294 0.804006 0.687231 1 24 1.000000
  24 40.315327 -41.869305 27.894445 0.382151 0.160468 0.910061 0.817637 0.676548 1 24 1.000000
  24 40.985527 -41.917431 27.621502 0.382151 0.160468 0.910061 0.814682 0.674635 1 24 1.000000
barracuda
  24 40.315327 -41.869305 27.894445 0.382151 0.160468 0.910061 0.817637 0.676548 1 24 1.000000
  24 40.315327 -45.022678 27.894444 0.382151 -0.160469 0.910061 0.823714 0.659416 1 24 1.000000
  24 40.985527 -41.917431 27.621502 0.382151 0.160468 0.910061 0.814682 0.674635 1 24 1.000000
barracuda
  24 40.985527 -41.917431 27.621502 0.382151 0.160468 0.910061 0.814682 0.674635 1 24 1.000000
  24 40.315327 -45.022678 27.894444 0.382151 -0.160469 0.910061 0.823714 0.659416 1 24 1.000000
  24 40.985527 -44.974548 27.621502 0.382151 -0.160468 0.910061 0.820214 0.659039 1 24 1.000000
barracuda
  24 40.315327 -45.022678 27.894444 0.382151 -0.160469 0.910061 0.823714 0.659416 1 24 1.000000
  24 40.315323 -47.985870 26.815926 0.382149 -0.462054 0.800293 0.823239 0.641299 1 24 1.000000
  24 40.985527 -44.974548 27.621502 0.382151 -0.160468 0.910061 0.820214 0.659039 1 24 1.000000
barracuda
  24 40.985527 -44.974548 27.621502 0.382151 -0.160468 0.910061 0.820214 0.659039 1 24 1.000000
  24 40.315323 -47.985870 26.815926 0.382149 -0.462054 0.800293 0.823239 0.641299 1 24 1.000000
  24 40.985519 -47.847290 26.575909 0.382148 -0.462053 0.800294 0.819863 0.642531 1 24 1.000000
barracuda
  24 40.315323 -47.985870 26.815926 0.382149 -0.462054 0.800293 0.823239 0.641299 1 24 1.000000
  24 40.315323 -50.401482 24.788979 0.382147 -0.707902 0.594002 0.817526 0.626030 1 24 1.000000
  24 40.985519 -47.847290 26.575909 0.382148 -0.462053 0.800294 0.819863 0.642531 1 24 1.000000
end
