// Created by Crowbar 0.74
version 1
nodes
  0 "Rig_Buggy.Frame" -1
  1 "Rig_Buggy.Shock_RR_Sleeve" 0
  2 "Rig_Buggy.Shock_FR_Sleeve" 0
  3 "Rig_Buggy.Axel_RR" 0
  4 "Rig_Buggy.Wheel_RR" 3
  5 "Rig_Buggy.Shock_RR_Piston" 3
  6 "Rig_Buggy.Steer_Arm" 0
  7 "Rig_Buggy.Shock_FL_Sleeve" 0
  8 "Rig_Buggy.Axel_RL" 0
  9 "Rig_Buggy.Wheel_RL" 8
  10 "Rig_Buggy.Shock_RL_Piston" 8
  11 "Rig_Buggy.Shock_RL_Sleeve" 0
  12 "Rig_Buggy.view" 0
  13 "Rig_Buggy.Gun_Base" 0
  14 "Rig_Buggy.Gun_Parent" 13
  15 "Rig_Buggy.Gun" 14
  16 "Rig_Buggy.Speedo" 0
  17 "Rig_Buggy.Wheel_FR_Turn_parent" 0
  18 "Rig_Buggy.Wheel_FR_Turn" 17
  19 "Rig_Buggy.Wheel_FR_Rotate" 18
  20 "Rig_Buggy.Axel_FR" 0
  21 "Rig_Buggy.Shock_FR_Piston" 20
  22 "Rig_Buggy.Wheel_FL_Turn_parent" 0
  23 "Rig_Buggy.Wheel_FL_Turn" 22
  24 "Rig_Buggy.Wheel_FL_Rotate" 23
  25 "Rig_Buggy.Axel_FL" 0
  26 "Rig_Buggy.Shock_FL_Piston" 25
  27 "Rig_Buggy.Steer_Wheel" 0
  28 "Rig_Buggy.lid" 0
  29 "Rig_Buggy.latch" 28
  30 "Rig_Buggy.gun_cylinders" 15
end
skeleton
  time 0
    0 0.000000 35.485321 34.046600 1.570796 0.000000 0.000000
    1 -26.737438 9.978985 -63.177883 0.007403 -0.264986 -1.495672
    2 -26.847315 6.445412 78.520195 0.268794 0.005691 -3.065482
    3 -4.313085 -13.578558 -57.058857 -3.141593 0.000000 -3.141593
    4 38.013966 0.147196 -0.193550 -3.141593 0.000000 3.141593
    5 20.686598 0.469204 -0.164131 -3.110558 -0.264987 1.495673
    6 0.016516 -11.367849 70.181595 0.000000 0.000000 0.000000
    7 26.847315 6.445412 78.520195 2.876405 -0.019503 -0.071313
    8 4.313085 -13.578558 -57.058857 0.000000 0.000000 0.000000
    9 38.013966 0.147198 0.193550 -3.141593 0.000000 -3.141593
    10 20.605600 0.473753 0.167809 -0.024410 0.265136 1.494187
    11 26.690825 9.982029 -63.178234 0.007043 -0.265136 -1.647406
    12 9.429615 20.728470 -11.982517 0.000000 -1.570796 -1.570796
    13 -16.873423 9.784611 52.968445 0.000000 0.000000 0.000000
    14 0.020790 5.827110 -0.224472 0.000000 -1.570796 -1.570796
    15 0.000002 0.000002 0.000000 0.000000 0.000000 0.000000
    16 5.664327 9.038128 28.830690 -1.230457 0.000000 0.000000
    17 -34.710712 -15.133160 78.859528 0.000000 0.000000 0.000000
    18 0.000000 0.217955 -0.009628 0.000000 0.000000 0.000000
    19 -6.579208 0.000000 -0.000004 0.000000 0.000000 0.000000
    20 -14.319742 -15.458982 88.923615 -1.655486 0.445706 -2.888000
    21 11.574886 -2.180904 1.427973 -1.940707 -0.171070 2.830508
    22 34.710712 -15.133160 78.859528 -3.141593 0.000000 3.141593
    23 0.000000 0.217958 0.009628 0.000000 0.000000 0.000000
    24 -6.579208 0.000002 0.000000 0.000000 0.000000 0.000000
    25 14.319742 -15.458982 88.923615 -0.057762 0.445706 -0.253592
    26 11.620373 -2.905371 2.149563 -0.263171 -0.211841 0.098316
    27 8.930669 9.895988 16.516954 -1.178097 0.000000 0.000000
    28 -10.478000 3.596272 -57.675579 0.000000 0.000000 0.000000
    29 20.682631 -0.459137 -0.000008 0.000000 0.000000 0.000000
    30 -8.438859 0.038662 0.559093 1.570796 0.000000 1.570796
end
triangles
barracuda
  19 -28.974506 -30.591677 18.952610 0.866202 0.499693 -0.000005 0.751043 0.737290 1 19 1.000000
  19 -28.974512 -31.372580 23.381357 0.866199 0.469562 0.170909 0.738594 0.752126 1 19 1.000000
  19 -28.974504 -31.372587 14.523867 0.866185 0.469584 -0.170922 0.767816 0.727606 1 19 1.000000
barracuda
  19 -28.974516 -55.708347 14.523882 0.866201 -0.469563 -0.170900 0.835184 0.807892 1 19 1.000000
  19 -28.974510 -53.459812 10.629305 0.866197 -0.382797 -0.321200 0.841808 0.789693 1 19 1.000000
  19 -28.974514 -56.489254 18.952627 0.866199 -0.499700 0.000006 0.822734 0.822729 1 19 1.000000
barracuda
  19 -28.974514 -56.489254 18.952627 0.866199 -0.499700 0.000006 0.822734 0.822729 1 19 1.000000
  19 -28.974510 -53.459812 10.629305 0.866197 -0.382797 -0.321200 0.841808 0.789693 1 19 1.000000
  19 -28.974516 -53.459805 27.275948 0.866201 -0.382786 0.321203 0.786889 0.835775 1 19 1.000000
barracuda
  19 -28.974510 -53.459812 10.629305 0.866197 -0.382797 -0.321200 0.841808 0.789693 1 19 1.000000
  19 -28.974504 -31.372587 14.523867 0.866185 0.469584 -0.170922 0.767816 0.727606 1 19 1.000000
  19 -28.974516 -53.459805 27.275948 0.866201 -0.382786 0.321203 0.786889 0.835775 1 19 1.000000
barracuda
  19 -28.974512 -37.066063 30.166595 0.866203 0.249843 0.432748 0.731970 0.789475 1 19 1.000000
  19 -28.974516 -53.459805 27.275948 0.866201 -0.382786 0.321203 0.786889 0.835775 1 19 1.000000
  19 -28.974504 -31.372587 14.523867 0.866185 0.469584 -0.170922 0.767816 0.727606 1 19 1.000000
barracuda
  19 -28.974512 -31.372580 23.381357 0.866199 0.469562 0.170909 0.738594 0.752126 1 19 1.000000
  19 -28.974512 -37.066063 30.166595 0.866203 0.249843 0.432748 0.731970 0.789475 1 19 1.000000
  19 -28.974504 -31.372587 14.523867 0.866185 0.469584 -0.170922 0.767816 0.727606 1 19 1.000000
barracuda
  19 -28.974510 -33.621109 27.275932 0.866204 0.382789 0.321191 0.731970 0.770543 1 19 1.000000
  19 -28.974512 -37.066063 30.166595 0.866203 0.249843 0.432748 0.731970 0.789475 1 19 1.000000
  19 -28.974512 -31.372580 23.381357 0.866199 0.469562 0.170909 0.738594 0.752126 1 19 1.000000
barracuda
  19 -28.974520 -55.708340 23.381374 0.866201 -0.469558 0.170911 0.805962 0.832412 1 19 1.000000
  19 -28.974514 -56.489254 18.952627 0.866199 -0.499700 0.000006 0.822734 0.822729 1 19 1.000000
  19 -28.974516 -53.459805 27.275948 0.866201 -0.382786 0.321203 0.786889 0.835775 1 19 1.000000
barracuda
  19 -28.974518 -41.291920 31.704685 0.866202 0.086777 0.492102 0.738594 0.807892 1 19 1.000000
  19 -28.974518 -45.788994 31.704689 0.866199 -0.086766 0.492109 0.751043 0.822729 1 19 1.000000
  19 -28.974512 -37.066063 30.166595 0.866203 0.249843 0.432748 0.731970 0.789475 1 19 1.000000
barracuda
  19 -28.974518 -45.788994 31.704689 0.866199 -0.086766 0.492109 0.751043 0.822729 1 19 1.000000
  19 -28.974516 -53.459805 27.275948 0.866201 -0.382786 0.321203 0.786889 0.835775 1 19 1.000000
  19 -28.974512 -37.066063 30.166595 0.866203 0.249843 0.432748 0.731970 0.789475 1 19 1.000000
barracuda
  19 -28.974520 -50.014851 30.166603 0.866202 -0.249841 0.432751 0.767816 0.832412 1 19 1.000000
  19 -28.974516 -53.459805 27.275948 0.866201 -0.382786 0.321203 0.786889 0.835775 1 19 1.000000
  19 -28.974518 -45.788994 31.704689 0.866199 -0.086766 0.492109 0.751043 0.822729 1 19 1.000000
barracuda
  19 -28.974514 -50.014870 7.738646 0.866201 -0.249853 -0.432746 0.841808 0.770325 1 19 1.000000
  19 -28.974506 -45.789001 6.200558 0.866199 -0.086769 -0.492107 0.835184 0.752126 1 19 1.000000
  19 -28.974510 -53.459812 10.629305 0.866197 -0.382797 -0.321200 0.841808 0.789693 1 19 1.000000
barracuda
  19 -28.974506 -45.789001 6.200558 0.866199 -0.086769 -0.492107 0.835184 0.752126 1 19 1.000000
  19 -28.974510 -37.066078 7.738634 0.866203 0.249839 -0.432750 0.805962 0.727606 1 19 1.000000
  19 -28.974510 -53.459812 10.629305 0.866197 -0.382797 -0.321200 0.841808 0.789693 1 19 1.000000
barracuda
  19 -28.974510 -37.066078 7.738634 0.866203 0.249839 -0.432750 0.805962 0.727606 1 19 1.000000
  19 -28.974504 -31.372587 14.523867 0.866185 0.469584 -0.170922 0.767816 0.727606 1 19 1.000000
  19 -28.974510 -53.459812 10.629305 0.866197 -0.382797 -0.321200 0.841808 0.789693 1 19 1.000000
barracuda
  19 -28.974508 -33.621117 10.629294 0.866202 0.382784 -0.321201 0.786889 0.724243 1 19 1.000000
  19 -28.974504 -31.372587 14.523867 0.866185 0.469584 -0.170922 0.767816 0.727606 1 19 1.000000
  19 -28.974510 -37.066078 7.738634 0.866203 0.249839 -0.432750 0.805962 0.727606 1 19 1.000000
barracuda
  19 -28.974506 -41.291931 6.200554 0.866203 0.086766 -0.492102 0.822734 0.737290 1 19 1.000000
  19 -28.974510 -37.066078 7.738634 0.866203 0.249839 -0.432750 0.805962 0.727606 1 19 1.000000
  19 -28.974506 -45.789001 6.200558 0.866199 -0.086769 -0.492107 0.835184 0.752126 1 19 1.000000
barracuda
  19 -41.261829 -53.459808 10.629301 -0.964560 -0.202132 -0.169608 0.848839 0.833158 1 19 1.000000
  19 -39.418919 -54.893349 9.426428 -0.387713 -0.706126 -0.592507 0.859584 0.834047 1 19 1.000000
  19 -41.261829 -55.708347 14.523879 -0.964559 -0.247953 -0.090245 0.848839 0.806162 1 19 1.000000
barracuda
  19 -30.817425 -40.966969 33.547600 0.387712 0.160067 0.907776 0.909735 0.641060 1 19 1.000000
  19 -28.974518 -45.788994 31.704689 0.866199 -0.086766 0.492109 0.920481 0.670316 1 19 1.000000
  19 -28.974518 -41.291920 31.704685 0.866202 0.086777 0.492102 0.920481 0.641211 1 19 1.000000
barracuda
  19 -30.817425 -46.113941 33.547600 0.387713 -0.160064 0.907777 0.909735 0.670467 1 19 1.000000
  19 -28.974518 -45.788994 31.704689 0.866199 -0.086766 0.492109 0.920481 0.670316 1 19 1.000000
  19 -30.817425 -40.966969 33.547600 0.387712 0.160067 0.907776 0.909735 0.641060 1 19 1.000000
barracuda
  19 -30.817425 -46.113941 33.547600 0.387713 -0.160064 0.907777 0.909735 0.670467 1 19 1.000000
  19 -28.974520 -50.014851 30.166603 0.866202 -0.249841 0.432751 0.920481 0.697665 1 19 1.000000
  19 -28.974518 -45.788994 31.704689 0.866199 -0.086766 0.492109 0.920481 0.670316 1 19 1.000000
barracuda
  19 -30.817430 -50.950523 31.787235 0.387712 -0.460892 0.798285 0.909735 0.698099 1 19 1.000000
  19 -28.974520 -50.014851 30.166603 0.866202 -0.249841 0.432751 0.920481 0.697665 1 19 1.000000
  19 -30.817425 -46.113941 33.547600 0.387713 -0.160064 0.907777 0.909735 0.670467 1 19 1.000000
barracuda
  19 -30.817430 -50.950523 31.787235 0.387712 -0.460892 0.798285 0.909735 0.698099 1 19 1.000000
  19 -28.974516 -53.459805 27.275948 0.866201 -0.382786 0.321203 0.920481 0.722707 1 19 1.000000
  19 -28.974520 -50.014851 30.166603 0.866202 -0.249841 0.432751 0.920481 0.697665 1 19 1.000000
barracuda
  19 -30.817427 -54.893337 28.478825 0.387713 -0.706124 0.592510 0.909735 0.722456 1 19 1.000000
  19 -28.974516 -53.459805 27.275948 0.866201 -0.382786 0.321203 0.920481 0.722707 1 19 1.000000
  19 -30.817430 -50.950523 31.787235 0.387712 -0.460892 0.798285 0.909735 0.698099 1 19 1.000000
barracuda
  19 -30.817427 -54.893337 28.478825 0.387713 -0.706124 0.592510 0.909735 0.722456 1 19 1.000000
  19 -28.974520 -55.708340 23.381374 0.866201 -0.469558 0.170911 0.920481 0.748837 1 19 1.000000
  19 -28.974516 -53.459805 27.275948 0.866201 -0.382786 0.321203 0.920481 0.722707 1 19 1.000000
barracuda
  19 -30.817427 -57.466827 24.021412 0.387713 -0.866189 0.315269 0.909735 0.748540 1 19 1.000000
  19 -28.974520 -55.708340 23.381374 0.866201 -0.469558 0.170911 0.920481 0.748837 1 19 1.000000
  19 -30.817427 -54.893337 28.478825 0.387713 -0.706124 0.592510 0.909735 0.722456 1 19 1.000000
barracuda
  19 -30.817427 -57.466827 24.021412 0.387713 -0.866189 0.315269 0.909735 0.748540 1 19 1.000000
  19 -28.974514 -56.489254 18.952627 0.866199 -0.499700 0.000006 0.920481 0.777499 1 19 1.000000
  19 -28.974520 -55.708340 23.381374 0.866201 -0.469558 0.170911 0.920481 0.748837 1 19 1.000000
barracuda
  19 -30.817429 -58.360592 18.952629 0.387712 -0.921781 0.000002 0.909735 0.777499 1 19 1.000000
  19 -28.974514 -56.489254 18.952627 0.866199 -0.499700 0.000006 0.920481 0.777499 1 19 1.000000
  19 -30.817427 -57.466827 24.021412 0.387713 -0.866189 0.315269 0.909735 0.748540 1 19 1.000000
barracuda
  19 -30.817429 -58.360592 18.952629 0.387712 -0.921781 0.000002 0.909735 0.777499 1 19 1.000000
  19 -28.974516 -55.708347 14.523882 0.866201 -0.469563 -0.170900 0.920481 0.806162 1 19 1.000000
  19 -28.974514 -56.489254 18.952627 0.866199 -0.499700 0.000006 0.920481 0.777499 1 19 1.000000
barracuda
  19 -30.817429 -57.466835 13.883843 0.387712 -0.866190 -0.315268 0.909735 0.806459 1 19 1.000000
  19 -28.974516 -55.708347 14.523882 0.866201 -0.469563 -0.170900 0.920481 0.806162 1 19 1.000000
  19 -30.817429 -58.360592 18.952629 0.387712 -0.921781 0.000002 0.909735 0.777499 1 19 1.000000
barracuda
  19 -30.817429 -57.466835 13.883843 0.387712 -0.866190 -0.315268 0.909735 0.806459 1 19 1.000000
  19 -28.974510 -53.459812 10.629305 0.866197 -0.382797 -0.321200 0.920481 0.833158 1 19 1.000000
  19 -28.974516 -55.708347 14.523882 0.866201 -0.469563 -0.170900 0.920481 0.806162 1 19 1.000000
barracuda
  19 -30.817423 -54.893349 9.426431 0.387713 -0.706124 -0.592510 0.909735 0.834047 1 19 1.000000
  19 -28.974510 -53.459812 10.629305 0.866197 -0.382797 -0.321200 0.920481 0.833158 1 19 1.000000
  19 -30.817429 -57.466835 13.883843 0.387712 -0.866190 -0.315268 0.909735 0.806459 1 19 1.000000
barracuda
  19 -30.817423 -54.893349 9.426431 0.387713 -0.706124 -0.592510 0.909735 0.834047 1 19 1.000000
  19 -30.817429 -57.466835 13.883843 0.387712 -0.866190 -0.315268 0.909735 0.806459 1 19 1.000000
  19 -39.418919 -54.893349 9.426428 -0.387713 -0.706126 -0.592507 0.859584 0.834047 1 19 1.000000
barracuda
  19 -39.418919 -54.893349 9.426428 -0.387713 -0.706126 -0.592507 0.859584 0.834047 1 19 1.000000
  19 -30.817429 -57.466835 13.883843 0.387712 -0.866190 -0.315268 0.909735 0.806459 1 19 1.000000
  19 -39.418919 -57.466835 13.883842 -0.387713 -0.866191 -0.315266 0.859584 0.806459 1 19 1.000000
barracuda
  19 -41.261829 -55.708347 14.523879 -0.964559 -0.247953 -0.090245 0.848839 0.806162 1 19 1.000000
  19 -39.418919 -54.893349 9.426428 -0.387713 -0.706126 -0.592507 0.859584 0.834047 1 19 1.000000
  19 -39.418919 -57.466835 13.883842 -0.387713 -0.866191 -0.315266 0.859584 0.806459 1 19 1.000000
barracuda
  19 -41.261829 -55.708347 14.523879 -0.964559 -0.247953 -0.090245 0.848839 0.806162 1 19 1.000000
  19 -39.418919 -57.466835 13.883842 -0.387713 -0.866191 -0.315266 0.859584 0.806459 1 19 1.000000
  19 -41.261826 -56.489246 18.952623 -0.964560 -0.263864 0.000001 0.848839 0.777499 1 19 1.000000
barracuda
  19 -30.817427 -36.130386 31.787224 0.387712 0.460892 0.798285 0.909735 0.613427 1 19 1.000000
  19 -30.817423 -32.187576 28.478807 0.387713 0.706126 0.592507 0.909735 0.589070 1 19 1.000000
  19 -39.418915 -36.130383 31.787220 -0.387712 0.460890 0.798286 0.859322 0.613565 1 19 1.000000
barracuda
  19 -39.418915 -40.966969 33.547600 -0.387712 0.160066 0.907776 0.859725 0.641408 1 19 1.000000
  19 -30.817427 -36.130386 31.787224 0.387712 0.460892 0.798285 0.909735 0.613427 1 19 1.000000
  19 -39.418915 -36.130383 31.787220 -0.387712 0.460890 0.798286 0.859322 0.613565 1 19 1.000000
barracuda
  19 -30.817425 -40.966969 33.547600 0.387712 0.160067 0.907776 0.909735 0.641060 1 19 1.000000
  19 -30.817427 -36.130386 31.787224 0.387712 0.460892 0.798285 0.909735 0.613427 1 19 1.000000
  19 -39.418915 -40.966969 33.547600 -0.387712 0.160066 0.907776 0.859725 0.641408 1 19 1.000000
barracuda
  19 -39.418915 -46.113941 33.547600 -0.387712 -0.160065 0.907777 0.859725 0.670119 1 19 1.000000
  19 -30.817425 -40.966969 33.547600 0.387712 0.160067 0.907776 0.909735 0.641060 1 19 1.000000
  19 -39.418915 -40.966969 33.547600 -0.387712 0.160066 0.907776 0.859725 0.641408 1 19 1.000000
barracuda
  19 -30.817425 -46.113941 33.547600 0.387713 -0.160064 0.907777 0.909735 0.670467 1 19 1.000000
  19 -30.817425 -40.966969 33.547600 0.387712 0.160067 0.907776 0.909735 0.641060 1 19 1.000000
  19 -39.418915 -46.113941 33.547600 -0.387712 -0.160065 0.907777 0.859725 0.670119 1 19 1.000000
barracuda
  19 -39.418922 -50.950520 31.787231 -0.387714 -0.460889 0.798285 0.859322 0.697962 1 19 1.000000
  19 -30.817425 -46.113941 33.547600 0.387713 -0.160064 0.907777 0.909735 0.670467 1 19 1.000000
  19 -39.418915 -46.113941 33.547600 -0.387712 -0.160065 0.907777 0.859725 0.670119 1 19 1.000000
barracuda
  19 -30.817430 -50.950523 31.787235 0.387712 -0.460892 0.798285 0.909735 0.698099 1 19 1.000000
  19 -30.817425 -46.113941 33.547600 0.387713 -0.160064 0.907777 0.909735 0.670467 1 19 1.000000
  19 -39.418922 -50.950520 31.787231 -0.387714 -0.460889 0.798285 0.859322 0.697962 1 19 1.000000
barracuda
  19 -39.418919 -54.893337 28.478825 -0.387713 -0.706124 0.592509 0.859584 0.722456 1 19 1.000000
  19 -30.817430 -50.950523 31.787235 0.387712 -0.460892 0.798285 0.909735 0.698099 1 19 1.000000
  19 -39.418922 -50.950520 31.787231 -0.387714 -0.460889 0.798285 0.859322 0.697962 1 19 1.000000
barracuda
  19 -30.817427 -54.893337 28.478825 0.387713 -0.706124 0.592510 0.909735 0.722456 1 19 1.000000
  19 -30.817430 -50.950523 31.787235 0.387712 -0.460892 0.798285 0.909735 0.698099 1 19 1.000000
  19 -39.418919 -54.893337 28.478825 -0.387713 -0.706124 0.592509 0.859584 0.722456 1 19 1.000000
barracuda
  19 -39.418919 -57.466824 24.021412 -0.387713 -0.866190 0.315268 0.859584 0.748540 1 19 1.000000
  19 -30.817427 -54.893337 28.478825 0.387713 -0.706124 0.592510 0.909735 0.722456 1 19 1.000000
  19 -39.418919 -54.893337 28.478825 -0.387713 -0.706124 0.592509 0.859584 0.722456 1 19 1.000000
barracuda
  19 -30.817427 -57.466827 24.021412 0.387713 -0.866189 0.315269 0.909735 0.748540 1 19 1.000000
  19 -30.817427 -54.893337 28.478825 0.387713 -0.706124 0.592510 0.909735 0.722456 1 19 1.000000
  19 -39.418919 -57.466824 24.021412 -0.387713 -0.866190 0.315268 0.859584 0.748540 1 19 1.000000
barracuda
  19 -39.418919 -58.360592 18.952627 -0.387713 -0.921780 0.000001 0.859584 0.777499 1 19 1.000000
  19 -30.817427 -57.466827 24.021412 0.387713 -0.866189 0.315269 0.909735 0.748540 1 19 1.000000
  19 -39.418919 -57.466824 24.021412 -0.387713 -0.866190 0.315268 0.859584 0.748540 1 19 1.000000
barracuda
  19 -30.817429 -58.360592 18.952629 0.387712 -0.921781 0.000002 0.909735 0.777499 1 19 1.000000
  19 -30.817427 -57.466827 24.021412 0.387713 -0.866189 0.315269 0.909735 0.748540 1 19 1.000000
  19 -39.418919 -58.360592 18.952627 -0.387713 -0.921780 0.000001 0.859584 0.777499 1 19 1.000000
barracuda
  19 -39.418919 -57.466835 13.883842 -0.387713 -0.866191 -0.315266 0.859584 0.806459 1 19 1.000000
  19 -30.817429 -58.360592 18.952629 0.387712 -0.921781 0.000002 0.909735 0.777499 1 19 1.000000
  19 -39.418919 -58.360592 18.952627 -0.387713 -0.921780 0.000001 0.859584 0.777499 1 19 1.000000
barracuda
  19 -30.817429 -57.466835 13.883843 0.387712 -0.866190 -0.315268 0.909735 0.806459 1 19 1.000000
  19 -30.817429 -58.360592 18.952629 0.387712 -0.921781 0.000002 0.909735 0.777499 1 19 1.000000
  19 -39.418919 -57.466835 13.883842 -0.387713 -0.866191 -0.315266 0.859584 0.806459 1 19 1.000000
barracuda
  19 -41.261826 -56.489246 18.952623 -0.964560 -0.263864 0.000001 0.848839 0.777499 1 19 1.000000
  19 -39.418919 -57.466835 13.883842 -0.387713 -0.866191 -0.315266 0.859584 0.806459 1 19 1.000000
  19 -39.418919 -58.360592 18.952627 -0.387713 -0.921780 0.000001 0.859584 0.777499 1 19 1.000000
barracuda
  19 -41.261826 -56.489246 18.952623 -0.964560 -0.263864 0.000001 0.848839 0.777499 1 19 1.000000
  19 -39.418919 -58.360592 18.952627 -0.387713 -0.921780 0.000001 0.859584 0.777499 1 19 1.000000
  19 -41.261829 -55.708340 23.381371 -0.964559 -0.247952 0.090248 0.848839 0.748837 1 19 1.000000
barracuda
  19 -41.261829 -55.708340 23.381371 -0.964559 -0.247952 0.090248 0.848839 0.748837 1 19 1.000000
  19 -39.418919 -58.360592 18.952627 -0.387713 -0.921780 0.000001 0.859584 0.777499 1 19 1.000000
  19 -39.418919 -57.466824 24.021412 -0.387713 -0.866190 0.315268 0.859584 0.748540 1 19 1.000000
barracuda
  19 -41.261829 -55.708340 23.381371 -0.964559 -0.247952 0.090248 0.848839 0.748837 1 19 1.000000
  19 -39.418919 -57.466824 24.021412 -0.387713 -0.866190 0.315268 0.859584 0.748540 1 19 1.000000
  19 -41.261833 -53.459801 27.275948 -0.964560 -0.202130 0.169610 0.848839 0.722707 1 19 1.000000
barracuda
  19 -41.261833 -53.459801 27.275948 -0.964560 -0.202130 0.169610 0.848839 0.722707 1 19 1.000000
  19 -39.418919 -57.466824 24.021412 -0.387713 -0.866190 0.315268 0.859584 0.748540 1 19 1.000000
  19 -39.418919 -54.893337 28.478825 -0.387713 -0.706124 0.592509 0.859584 0.722456 1 19 1.000000
barracuda
  19 -41.261833 -53.459801 27.275948 -0.964560 -0.202130 0.169610 0.848839 0.722707 1 19 1.000000
  19 -39.418919 -54.893337 28.478825 -0.387713 -0.706124 0.592509 0.859584 0.722456 1 19 1.000000
  19 -41.261829 -50.014851 30.166599 -0.964560 -0.131930 0.228513 0.848482 0.697268 1 19 1.000000
barracuda
  19 -41.261829 -50.014851 30.166599 -0.964560 -0.131930 0.228513 0.848482 0.697268 1 19 1.000000
  19 -39.418919 -54.893337 28.478825 -0.387713 -0.706124 0.592509 0.859584 0.722456 1 19 1.000000
  19 -39.418922 -50.950520 31.787231 -0.387714 -0.460889 0.798285 0.859322 0.697962 1 19 1.000000
barracuda
  19 -41.261829 -50.014851 30.166599 -0.964560 -0.131930 0.228513 0.848482 0.697268 1 19 1.000000
  19 -39.418922 -50.950520 31.787231 -0.387714 -0.460889 0.798285 0.859322 0.697962 1 19 1.000000
  19 -41.261829 -45.788990 31.704685 -0.964560 -0.045818 0.259856 0.848950 0.669926 1 19 1.000000
barracuda
  19 -41.261829 -45.788990 31.704685 -0.964560 -0.045818 0.259856 0.848950 0.669926 1 19 1.000000
  19 -39.418922 -50.950520 31.787231 -0.387714 -0.460889 0.798285 0.859322 0.697962 1 19 1.000000
  19 -39.418915 -46.113941 33.547600 -0.387712 -0.160065 0.907777 0.859725 0.670119 1 19 1.000000
barracuda
  19 -41.261829 -45.788990 31.704685 -0.964560 -0.045818 0.259856 0.848950 0.669926 1 19 1.000000
  19 -39.418915 -46.113941 33.547600 -0.387712 -0.160065 0.907777 0.859725 0.670119 1 19 1.000000
  19 -41.261829 -41.291916 31.704681 -0.964560 0.045822 0.259855 0.848952 0.641752 1 19 1.000000
barracuda
  19 -41.261829 -41.291916 31.704681 -0.964560 0.045822 0.259855 0.848952 0.641752 1 19 1.000000
  19 -39.418915 -46.113941 33.547600 -0.387712 -0.160065 0.907777 0.859725 0.670119 1 19 1.000000
  19 -39.418915 -40.966969 33.547600 -0.387712 0.160066 0.907776 0.859725 0.641408 1 19 1.000000
barracuda
  19 -41.261829 -41.291916 31.704681 -0.964560 0.045822 0.259855 0.848952 0.641752 1 19 1.000000
  19 -39.418915 -40.966969 33.547600 -0.387712 0.160066 0.907776 0.859725 0.641408 1 19 1.000000
  19 -41.261826 -37.066059 30.166595 -0.964559 0.131935 0.228514 0.848476 0.614343 1 19 1.000000
barracuda
  19 -41.261826 -37.066059 30.166595 -0.964559 0.131935 0.228514 0.848476 0.614343 1 19 1.000000
  19 -39.418915 -40.966969 33.547600 -0.387712 0.160066 0.907776 0.859725 0.641408 1 19 1.000000
  19 -39.418915 -36.130383 31.787220 -0.387712 0.460890 0.798286 0.859322 0.613565 1 19 1.000000
barracuda
  19 -41.261826 -37.066059 30.166595 -0.964559 0.131935 0.228514 0.848476 0.614343 1 19 1.000000
  19 -39.418915 -36.130383 31.787220 -0.387712 0.460890 0.798286 0.859322 0.613565 1 19 1.000000
  19 -41.261829 -33.621105 27.275932 -0.964559 0.202125 0.169620 0.848842 0.588585 1 19 1.000000
barracuda
  19 -41.261829 -33.621105 27.275932 -0.964559 0.202125 0.169620 0.848842 0.588585 1 19 1.000000
  19 -39.418915 -36.130383 31.787220 -0.387712 0.460890 0.798286 0.859322 0.613565 1 19 1.000000
  19 -39.418911 -32.187576 28.478807 -0.387712 0.706125 0.592509 0.859584 0.589070 1 19 1.000000
barracuda
  19 -41.261829 -33.621105 27.275932 -0.964559 0.202125 0.169620 0.848842 0.588585 1 19 1.000000
  19 -39.418911 -32.187576 28.478807 -0.387712 0.706125 0.592509 0.859584 0.589070 1 19 1.000000
  19 -41.261822 -31.372576 23.381353 -0.964559 0.247953 0.090245 0.848839 0.562690 1 19 1.000000
barracuda
  19 -41.261822 -31.372576 23.381353 -0.964559 0.247953 0.090245 0.848839 0.562690 1 19 1.000000
  19 -39.418911 -32.187576 28.478807 -0.387712 0.706125 0.592509 0.859584 0.589070 1 19 1.000000
  19 -39.418907 -29.614084 24.021389 -0.387712 0.866190 0.315267 0.859584 0.562987 1 19 1.000000
barracuda
  19 -41.261822 -31.372576 23.381353 -0.964559 0.247953 0.090245 0.848839 0.562690 1 19 1.000000
  19 -39.418907 -29.614084 24.021389 -0.387712 0.866190 0.315267 0.859584 0.562987 1 19 1.000000
  19 -41.261818 -30.591673 18.952606 -0.964559 0.263866 -0.000002 0.848839 0.534027 1 19 1.000000
barracuda
  19 -30.817421 -50.950535 6.118016 0.387712 -0.460891 -0.798285 0.909735 0.369956 1 19 1.000000
  19 -28.974506 -45.789001 6.200558 0.866199 -0.086769 -0.492107 0.920481 0.397739 1 19 1.000000
  19 -28.974514 -50.014870 7.738646 0.866201 -0.249853 -0.432746 0.920481 0.370390 1 19 1.000000
barracuda
  19 -30.817419 -46.113964 4.357645 0.387713 -0.160066 -0.907776 0.909735 0.397589 1 19 1.000000
  19 -28.974506 -45.789001 6.200558 0.866199 -0.086769 -0.492107 0.920481 0.397739 1 19 1.000000
  19 -30.817421 -50.950535 6.118016 0.387712 -0.460891 -0.798285 0.909735 0.369956 1 19 1.000000
barracuda
  19 -30.817419 -46.113964 4.357645 0.387713 -0.160066 -0.907776 0.909735 0.397589 1 19 1.000000
  19 -30.817421 -50.950535 6.118016 0.387712 -0.460891 -0.798285 0.909735 0.369956 1 19 1.000000
  19 -39.418915 -46.113960 4.357643 -0.387712 -0.160065 -0.907777 0.859584 0.397589 1 19 1.000000
barracuda
  19 -39.418915 -40.966980 4.357639 -0.387712 0.160066 -0.907776 0.859584 0.426995 1 19 1.000000
  19 -30.817419 -46.113964 4.357645 0.387713 -0.160066 -0.907776 0.909735 0.397589 1 19 1.000000
  19 -39.418915 -46.113960 4.357643 -0.387712 -0.160065 -0.907777 0.859584 0.397589 1 19 1.000000
barracuda
  19 -30.817417 -40.966984 4.357641 0.387713 0.160065 -0.907776 0.909735 0.426995 1 19 1.000000
  19 -30.817419 -46.113964 4.357645 0.387713 -0.160066 -0.907776 0.909735 0.397589 1 19 1.000000
  19 -39.418915 -40.966980 4.357639 -0.387712 0.160066 -0.907776 0.859584 0.426995 1 19 1.000000
barracuda
  19 -39.418907 -36.130405 6.118004 -0.387712 0.460891 -0.798285 0.859584 0.454627 1 19 1.000000
  19 -30.817417 -40.966984 4.357641 0.387713 0.160065 -0.907776 0.909735 0.426995 1 19 1.000000
  19 -39.418915 -40.966980 4.357639 -0.387712 0.160066 -0.907776 0.859584 0.426995 1 19 1.000000
barracuda
  19 -30.817417 -36.130405 6.118006 0.387713 0.460889 -0.798286 0.909735 0.454627 1 19 1.000000
  19 -30.817417 -40.966984 4.357641 0.387713 0.160065 -0.907776 0.909735 0.426995 1 19 1.000000
  19 -39.418907 -36.130405 6.118004 -0.387712 0.460891 -0.798285 0.859584 0.454627 1 19 1.000000
barracuda
  19 -39.418907 -32.187592 9.426416 -0.387711 0.706125 -0.592510 0.859584 0.478985 1 19 1.000000
  19 -30.817417 -36.130405 6.118006 0.387713 0.460889 -0.798286 0.909735 0.454627 1 19 1.000000
  19 -39.418907 -36.130405 6.118004 -0.387712 0.460891 -0.798285 0.859584 0.454627 1 19 1.000000
barracuda
  19 -30.817417 -32.187592 9.426419 0.387713 0.706124 -0.592510 0.909735 0.478985 1 19 1.000000
  19 -30.817417 -36.130405 6.118006 0.387713 0.460889 -0.798286 0.909735 0.454627 1 19 1.000000
  19 -39.418907 -32.187592 9.426416 -0.387711 0.706125 -0.592510 0.859584 0.478985 1 19 1.000000
barracuda
  19 -39.418915 -29.614094 13.883823 -0.387714 0.866190 -0.315266 0.859584 0.505068 1 19 1.000000
  19 -30.817417 -32.187592 9.426419 0.387713 0.706124 -0.592510 0.909735 0.478985 1 19 1.000000
  19 -39.418907 -32.187592 9.426416 -0.387711 0.706125 -0.592510 0.859584 0.478985 1 19 1.000000
barracuda
  19 -30.817417 -29.614094 13.883825 0.387713 0.866190 -0.315268 0.909735 0.505068 1 19 1.000000
  19 -30.817417 -32.187592 9.426419 0.387713 0.706124 -0.592510 0.909735 0.478985 1 19 1.000000
  19 -39.418915 -29.614094 13.883823 -0.387714 0.866190 -0.315266 0.859584 0.505068 1 19 1.000000
barracuda
  19 -39.418911 -28.720333 18.952604 -0.387712 0.921780 0.000001 0.859584 0.534027 1 19 1.000000
  19 -30.817417 -29.614094 13.883825 0.387713 0.866190 -0.315268 0.909735 0.505068 1 19 1.000000
  19 -39.418915 -29.614094 13.883823 -0.387714 0.866190 -0.315266 0.859584 0.505068 1 19 1.000000
barracuda
  19 -30.817423 -28.720333 18.952606 0.387712 0.921780 0.000000 0.909735 0.534027 1 19 1.000000
  19 -30.817417 -29.614094 13.883825 0.387713 0.866190 -0.315268 0.909735 0.505068 1 19 1.000000
  19 -39.418911 -28.720333 18.952604 -0.387712 0.921780 0.000001 0.859584 0.534027 1 19 1.000000
barracuda
  19 -39.418907 -29.614084 24.021389 -0.387712 0.866190 0.315267 0.859584 0.562987 1 19 1.000000
  19 -30.817423 -28.720333 18.952606 0.387712 0.921780 0.000000 0.909735 0.534027 1 19 1.000000
  19 -39.418911 -28.720333 18.952604 -0.387712 0.921780 0.000001 0.859584 0.534027 1 19 1.000000
barracuda
  19 -30.817419 -29.614086 24.021389 0.387714 0.866190 0.315266 0.909735 0.562987 1 19 1.000000
  19 -30.817423 -28.720333 18.952606 0.387712 0.921780 0.000000 0.909735 0.534027 1 19 1.000000
  19 -39.418907 -29.614084 24.021389 -0.387712 0.866190 0.315267 0.859584 0.562987 1 19 1.000000
barracuda
  19 -39.418911 -32.187576 28.478807 -0.387712 0.706125 0.592509 0.859584 0.589070 1 19 1.000000
  19 -30.817419 -29.614086 24.021389 0.387714 0.866190 0.315266 0.909735 0.562987 1 19 1.000000
  19 -39.418907 -29.614084 24.021389 -0.387712 0.866190 0.315267 0.859584 0.562987 1 19 1.000000
barracuda
  19 -30.817423 -32.187576 28.478807 0.387713 0.706126 0.592507 0.909735 0.589070 1 19 1.000000
  19 -30.817419 -29.614086 24.021389 0.387714 0.866190 0.315266 0.909735 0.562987 1 19 1.000000
  19 -39.418911 -32.187576 28.478807 -0.387712 0.706125 0.592509 0.859584 0.589070 1 19 1.000000
barracuda
  19 -39.418915 -36.130383 31.787220 -0.387712 0.460890 0.798286 0.859322 0.613565 1 19 1.000000
  19 -30.817423 -32.187576 28.478807 0.387713 0.706126 0.592507 0.909735 0.589070 1 19 1.000000
  19 -39.418911 -32.187576 28.478807 -0.387712 0.706125 0.592509 0.859584 0.589070 1 19 1.000000
barracuda
  19 -30.817419 -46.113964 4.357645 0.387713 -0.160066 -0.907776 0.909735 0.397589 1 19 1.000000
  19 -28.974506 -41.291931 6.200554 0.866203 0.086766 -0.492102 0.920481 0.426844 1 19 1.000000
  19 -28.974506 -45.789001 6.200558 0.866199 -0.086769 -0.492107 0.920481 0.397739 1 19 1.000000
barracuda
  19 -30.817417 -40.966984 4.357641 0.387713 0.160065 -0.907776 0.909735 0.426995 1 19 1.000000
  19 -28.974506 -41.291931 6.200554 0.866203 0.086766 -0.492102 0.920481 0.426844 1 19 1.000000
  19 -30.817419 -46.113964 4.357645 0.387713 -0.160066 -0.907776 0.909735 0.397589 1 19 1.000000
barracuda
  19 -30.817417 -40.966984 4.357641 0.387713 0.160065 -0.907776 0.909735 0.426995 1 19 1.000000
  19 -28.974510 -37.066078 7.738634 0.866203 0.249839 -0.432750 0.920481 0.454193 1 19 1.000000
  19 -28.974506 -41.291931 6.200554 0.866203 0.086766 -0.492102 0.920481 0.426844 1 19 1.000000
barracuda
  19 -30.817417 -36.130405 6.118006 0.387713 0.460889 -0.798286 0.909735 0.454627 1 19 1.000000
  19 -28.974510 -37.066078 7.738634 0.866203 0.249839 -0.432750 0.920481 0.454193 1 19 1.000000
  19 -30.817417 -40.966984 4.357641 0.387713 0.160065 -0.907776 0.909735 0.426995 1 19 1.000000
barracuda
  19 -30.817417 -36.130405 6.118006 0.387713 0.460889 -0.798286 0.909735 0.454627 1 19 1.000000
  19 -28.974508 -33.621117 10.629294 0.866202 0.382784 -0.321201 0.920481 0.479235 1 19 1.000000
  19 -28.974510 -37.066078 7.738634 0.866203 0.249839 -0.432750 0.920481 0.454193 1 19 1.000000
barracuda
  19 -30.817417 -32.187592 9.426419 0.387713 0.706124 -0.592510 0.909735 0.478985 1 19 1.000000
  19 -28.974508 -33.621117 10.629294 0.866202 0.382784 -0.321201 0.920481 0.479235 1 19 1.000000
  19 -30.817417 -36.130405 6.118006 0.387713 0.460889 -0.798286 0.909735 0.454627 1 19 1.000000
barracuda
  19 -30.817417 -32.187592 9.426419 0.387713 0.706124 -0.592510 0.909735 0.478985 1 19 1.000000
  19 -28.974504 -31.372587 14.523867 0.866185 0.469584 -0.170922 0.920481 0.505365 1 19 1.000000
  19 -28.974508 -33.621117 10.629294 0.866202 0.382784 -0.321201 0.920481 0.479235 1 19 1.000000
barracuda
  19 -30.817417 -29.614094 13.883825 0.387713 0.866190 -0.315268 0.909735 0.505068 1 19 1.000000
  19 -28.974504 -31.372587 14.523867 0.866185 0.469584 -0.170922 0.920481 0.505365 1 19 1.000000
  19 -30.817417 -32.187592 9.426419 0.387713 0.706124 -0.592510 0.909735 0.478985 1 19 1.000000
barracuda
  19 -28.974504 -31.372587 14.523867 0.866185 0.469584 -0.170922 0.920481 0.505365 1 19 1.000000
  19 -30.817417 -29.614094 13.883825 0.387713 0.866190 -0.315268 0.909735 0.505068 1 19 1.000000
  19 -28.974506 -30.591677 18.952610 0.866202 0.499693 -0.000005 0.920481 0.534027 1 19 1.000000
barracuda
  19 -28.974506 -30.591677 18.952610 0.866202 0.499693 -0.000005 0.920481 0.534027 1 19 1.000000
  19 -30.817417 -29.614094 13.883825 0.387713 0.866190 -0.315268 0.909735 0.505068 1 19 1.000000
  19 -30.817423 -28.720333 18.952606 0.387712 0.921780 0.000000 0.909735 0.534027 1 19 1.000000
barracuda
  19 -30.817423 -28.720333 18.952606 0.387712 0.921780 0.000000 0.909735 0.534027 1 19 1.000000
  19 -28.974512 -31.372580 23.381357 0.866199 0.469562 0.170909 0.920481 0.562690 1 19 1.000000
  19 -28.974506 -30.591677 18.952610 0.866202 0.499693 -0.000005 0.920481 0.534027 1 19 1.000000
barracuda
  19 -30.817419 -29.614086 24.021389 0.387714 0.866190 0.315266 0.909735 0.562987 1 19 1.000000
  19 -28.974512 -31.372580 23.381357 0.866199 0.469562 0.170909 0.920481 0.562690 1 19 1.000000
  19 -30.817423 -28.720333 18.952606 0.387712 0.921780 0.000000 0.909735 0.534027 1 19 1.000000
barracuda
  19 -30.817419 -29.614086 24.021389 0.387714 0.866190 0.315266 0.909735 0.562987 1 19 1.000000
  19 -28.974510 -33.621109 27.275932 0.866204 0.382789 0.321191 0.920481 0.588525 1 19 1.000000
  19 -28.974512 -31.372580 23.381357 0.866199 0.469562 0.170909 0.920481 0.562690 1 19 1.000000
barracuda
  19 -30.817423 -32.187576 28.478807 0.387713 0.706126 0.592507 0.909735 0.589070 1 19 1.000000
  19 -28.974510 -33.621109 27.275932 0.866204 0.382789 0.321191 0.920481 0.588525 1 19 1.000000
  19 -30.817419 -29.614086 24.021389 0.387714 0.866190 0.315266 0.909735 0.562987 1 19 1.000000
barracuda
  19 -30.817423 -32.187576 28.478807 0.387713 0.706126 0.592507 0.909735 0.589070 1 19 1.000000
  19 -28.974512 -37.066063 30.166595 0.866203 0.249843 0.432748 0.920481 0.614156 1 19 1.000000
  19 -28.974510 -33.621109 27.275932 0.866204 0.382789 0.321191 0.920481 0.588525 1 19 1.000000
barracuda
  19 -30.817427 -36.130386 31.787224 0.387712 0.460892 0.798285 0.909735 0.613427 1 19 1.000000
  19 -28.974512 -37.066063 30.166595 0.866203 0.249843 0.432748 0.920481 0.614156 1 19 1.000000
  19 -30.817423 -32.187576 28.478807 0.387713 0.706126 0.592507 0.909735 0.589070 1 19 1.000000
barracuda
  19 -30.817427 -36.130386 31.787224 0.387712 0.460892 0.798285 0.909735 0.613427 1 19 1.000000
  19 -28.974518 -41.291920 31.704685 0.866202 0.086777 0.492102 0.920481 0.641211 1 19 1.000000
  19 -28.974512 -37.066063 30.166595 0.866203 0.249843 0.432748 0.920481 0.614156 1 19 1.000000
barracuda
  19 -30.817425 -40.966969 33.547600 0.387712 0.160067 0.907776 0.909735 0.641060 1 19 1.000000
  19 -28.974518 -41.291920 31.704685 0.866202 0.086777 0.492102 0.920481 0.641211 1 19 1.000000
  19 -30.817427 -36.130386 31.787224 0.387712 0.460892 0.798285 0.909735 0.613427 1 19 1.000000
barracuda
  19 -41.261818 -30.591673 18.952606 -0.964559 0.263866 -0.000002 0.848839 0.534027 1 19 1.000000
  19 -39.418907 -29.614084 24.021389 -0.387712 0.866190 0.315267 0.859584 0.562987 1 19 1.000000
  19 -39.418911 -28.720333 18.952604 -0.387712 0.921780 0.000001 0.859584 0.534027 1 19 1.000000
barracuda
  19 -39.418911 -28.720333 18.952604 -0.387712 0.921780 0.000001 0.859584 0.534027 1 19 1.000000
  19 -41.261818 -31.372583 14.523863 -0.964560 0.247950 -0.090247 0.848839 0.505365 1 19 1.000000
  19 -41.261818 -30.591673 18.952606 -0.964559 0.263866 -0.000002 0.848839 0.534027 1 19 1.000000
barracuda
  19 -39.418915 -29.614094 13.883823 -0.387714 0.866190 -0.315266 0.859584 0.505068 1 19 1.000000
  19 -41.261818 -31.372583 14.523863 -0.964560 0.247950 -0.090247 0.848839 0.505365 1 19 1.000000
  19 -39.418911 -28.720333 18.952604 -0.387712 0.921780 0.000001 0.859584 0.534027 1 19 1.000000
barracuda
  19 -41.261818 -31.372583 14.523863 -0.964560 0.247950 -0.090247 0.848839 0.505365 1 19 1.000000
  19 -39.418915 -29.614094 13.883823 -0.387714 0.866190 -0.315266 0.859584 0.505068 1 19 1.000000
  19 -41.261822 -33.621117 10.629291 -0.964559 0.202132 -0.169611 0.848839 0.479235 1 19 1.000000
barracuda
  19 -41.261822 -33.621117 10.629291 -0.964559 0.202132 -0.169611 0.848839 0.479235 1 19 1.000000
  19 -39.418915 -29.614094 13.883823 -0.387714 0.866190 -0.315266 0.859584 0.505068 1 19 1.000000
  19 -39.418907 -32.187592 9.426416 -0.387711 0.706125 -0.592510 0.859584 0.478985 1 19 1.000000
barracuda
  19 -41.261822 -33.621117 10.629291 -0.964559 0.202132 -0.169611 0.848839 0.479235 1 19 1.000000
  19 -39.418907 -32.187592 9.426416 -0.387711 0.706125 -0.592510 0.859584 0.478985 1 19 1.000000
  19 -41.261822 -37.066074 7.738632 -0.964559 0.131931 -0.228515 0.848839 0.454193 1 19 1.000000
barracuda
  19 -41.261822 -37.066074 7.738632 -0.964559 0.131931 -0.228515 0.848839 0.454193 1 19 1.000000
  19 -39.418907 -32.187592 9.426416 -0.387711 0.706125 -0.592510 0.859584 0.478985 1 19 1.000000
  19 -39.418907 -36.130405 6.118004 -0.387712 0.460891 -0.798285 0.859584 0.454627 1 19 1.000000
barracuda
  19 -41.261822 -37.066074 7.738632 -0.964559 0.131931 -0.228515 0.848839 0.454193 1 19 1.000000
  19 -39.418907 -36.130405 6.118004 -0.387712 0.460891 -0.798285 0.859584 0.454627 1 19 1.000000
  19 -41.261826 -41.291927 6.200550 -0.964560 0.045818 -0.259856 0.848839 0.426844 1 19 1.000000
barracuda
  19 -41.261826 -41.291927 6.200550 -0.964560 0.045818 -0.259856 0.848839 0.426844 1 19 1.000000
  19 -39.418907 -36.130405 6.118004 -0.387712 0.460891 -0.798285 0.859584 0.454627 1 19 1.000000
  19 -39.418915 -40.966980 4.357639 -0.387712 0.160066 -0.907776 0.859584 0.426995 1 19 1.000000
barracuda
  19 -41.261826 -41.291927 6.200550 -0.964560 0.045818 -0.259856 0.848839 0.426844 1 19 1.000000
  19 -39.418915 -40.966980 4.357639 -0.387712 0.160066 -0.907776 0.859584 0.426995 1 19 1.000000
  19 -41.261826 -45.788998 6.200554 -0.964560 -0.045820 -0.259855 0.848839 0.397739 1 19 1.000000
barracuda
  19 -41.261826 -45.788998 6.200554 -0.964560 -0.045820 -0.259855 0.848839 0.397739 1 19 1.000000
  19 -39.418915 -40.966980 4.357639 -0.387712 0.160066 -0.907776 0.859584 0.426995 1 19 1.000000
  19 -39.418915 -46.113960 4.357643 -0.387712 -0.160065 -0.907777 0.859584 0.397589 1 19 1.000000
barracuda
  19 -41.261826 -45.788998 6.200554 -0.964560 -0.045820 -0.259855 0.848839 0.397739 1 19 1.000000
  19 -39.418915 -46.113960 4.357643 -0.387712 -0.160065 -0.907777 0.859584 0.397589 1 19 1.000000
  19 -41.261826 -50.014866 7.738642 -0.964559 -0.131934 -0.228514 0.848839 0.370390 1 19 1.000000
barracuda
  19 -41.261826 -50.014866 7.738642 -0.964559 -0.131934 -0.228514 0.848839 0.370390 1 19 1.000000
  19 -39.418915 -46.113960 4.357643 -0.387712 -0.160065 -0.907777 0.859584 0.397589 1 19 1.000000
  19 -39.418911 -50.950531 6.118015 -0.387711 -0.460890 -0.798286 0.859584 0.369956 1 19 1.000000
barracuda
  19 -41.261826 -50.014866 7.738642 -0.964559 -0.131934 -0.228514 0.848839 0.370390 1 19 1.000000
  19 -39.418911 -50.950531 6.118015 -0.387711 -0.460890 -0.798286 0.859584 0.369956 1 19 1.000000
  19 -41.261829 -53.459808 10.629301 -0.964560 -0.202132 -0.169608 0.848839 0.344483 1 19 1.000000
barracuda
  19 -41.261829 -53.459808 10.629301 -0.964560 -0.202132 -0.169608 0.848839 0.344483 1 19 1.000000
  19 -39.418911 -50.950531 6.118015 -0.387711 -0.460890 -0.798286 0.859584 0.369956 1 19 1.000000
  19 -39.418919 -54.893349 9.426428 -0.387713 -0.706126 -0.592507 0.859584 0.344343 1 19 1.000000
barracuda
  19 -39.418911 -50.950531 6.118015 -0.387711 -0.460890 -0.798286 0.859584 0.369956 1 19 1.000000
  19 -30.817423 -54.893349 9.426431 0.387713 -0.706124 -0.592510 0.909735 0.344343 1 19 1.000000
  19 -39.418919 -54.893349 9.426428 -0.387713 -0.706126 -0.592507 0.859584 0.344343 1 19 1.000000
barracuda
  19 -30.817421 -50.950535 6.118016 0.387712 -0.460891 -0.798285 0.909735 0.369956 1 19 1.000000
  19 -30.817423 -54.893349 9.426431 0.387713 -0.706124 -0.592510 0.909735 0.344343 1 19 1.000000
  19 -39.418911 -50.950531 6.118015 -0.387711 -0.460890 -0.798286 0.859584 0.369956 1 19 1.000000
barracuda
  19 -30.817421 -50.950535 6.118016 0.387712 -0.460891 -0.798285 0.909735 0.369956 1 19 1.000000
  19 -28.974514 -50.014870 7.738646 0.866201 -0.249853 -0.432746 0.920481 0.370390 1 19 1.000000
  19 -30.817423 -54.893349 9.426431 0.387713 -0.706124 -0.592510 0.909735 0.344343 1 19 1.000000
barracuda
  19 -39.418915 -46.113960 4.357643 -0.387712 -0.160065 -0.907777 0.859584 0.397589 1 19 1.000000
  19 -30.817421 -50.950535 6.118016 0.387712 -0.460891 -0.798285 0.909735 0.369956 1 19 1.000000
  19 -39.418911 -50.950531 6.118015 -0.387711 -0.460890 -0.798286 0.859584 0.369956 1 19 1.000000
barracuda
  19 -30.817423 -54.893349 9.426431 0.387713 -0.706124 -0.592510 0.909735 0.344343 1 19 1.000000
  19 -28.974514 -50.014870 7.738646 0.866201 -0.249853 -0.432746 0.920481 0.370390 1 19 1.000000
  19 -28.974510 -53.459812 10.629305 0.866197 -0.382797 -0.321200 0.920481 0.344483 1 19 1.000000
barracuda
  19 -40.315323 -36.584965 24.788965 -0.971356 -0.182034 -0.152745 0.817526 0.626030 1 19 1.000000
  19 -41.261822 -31.372576 23.381353 -0.964559 0.247953 0.090245 0.819551 0.597136 1 19 1.000000
  19 -40.315323 -35.008278 22.058069 -0.971356 -0.223297 -0.081274 0.806622 0.613187 1 19 1.000000
barracuda
  19 -41.261822 -31.372576 23.381353 -0.964559 0.247953 0.090245 0.819551 0.597136 1 19 1.000000
  19 -41.261818 -30.591673 18.952606 -0.964559 0.263866 -0.000002 0.797776 0.584707 1 19 1.000000
  19 -40.315323 -35.008278 22.058069 -0.971356 -0.223297 -0.081274 0.806622 0.613187 1 19 1.000000
barracuda
  19 -40.315323 -35.008278 22.058069 -0.971356 -0.223297 -0.081274 0.806622 0.613187 1 19 1.000000
  19 -41.261818 -30.591673 18.952606 -0.964559 0.263866 -0.000002 0.797776 0.584707 1 19 1.000000
  19 -40.315323 -34.460709 18.952608 -0.971357 -0.237626 0.000000 0.790900 0.604090 1 19 1.000000
barracuda
  19 -41.261818 -30.591673 18.952606 -0.964559 0.263866 -0.000002 0.797776 0.584707 1 19 1.000000
  19 -41.261818 -31.372583 14.523863 -0.964560 0.247950 -0.090247 0.773036 0.580635 1 19 1.000000
  19 -40.315323 -34.460709 18.952608 -0.971357 -0.237626 0.000000 0.790900 0.604090 1 19 1.000000
barracuda
  19 -40.315323 -34.460709 18.952608 -0.971357 -0.237626 0.000000 0.790900 0.604090 1 19 1.000000
  19 -41.261818 -31.372583 14.523863 -0.964560 0.247950 -0.090247 0.773036 0.580635 1 19 1.000000
  19 -40.315315 -35.008282 15.847152 -0.971356 -0.223297 0.081273 0.772960 0.601246 1 19 1.000000
barracuda
  19 -41.261818 -31.372583 14.523863 -0.964560 0.247950 -0.090247 0.773036 0.580635 1 19 1.000000
  19 -41.261822 -33.621117 10.629291 -0.964559 0.202132 -0.169611 0.749359 0.584892 1 19 1.000000
  19 -40.315315 -35.008282 15.847152 -0.971356 -0.223297 0.081273 0.772960 0.601246 1 19 1.000000
barracuda
  19 -40.315315 -35.008282 15.847152 -0.971356 -0.223297 0.081273 0.772960 0.601246 1 19 1.000000
  19 -41.261822 -33.621117 10.629291 -0.964559 0.202132 -0.169611 0.749359 0.584892 1 19 1.000000
  19 -40.315323 -36.584976 13.116259 -0.971356 -0.182033 0.152745 0.756400 0.604346 1 19 1.000000
barracuda
  19 -41.261822 -33.621117 10.629291 -0.964559 0.202132 -0.169611 0.749359 0.584892 1 19 1.000000
  19 -41.261822 -37.066074 7.738632 -0.964559 0.131931 -0.228515 0.728659 0.597115 1 19 1.000000
  19 -40.315323 -36.584976 13.116259 -0.971356 -0.182033 0.152745 0.756400 0.604346 1 19 1.000000
barracuda
  19 -40.315323 -36.584976 13.116259 -0.971356 -0.182033 0.152745 0.756400 0.604346 1 19 1.000000
  19 -41.261822 -37.066074 7.738632 -0.964559 0.131931 -0.228515 0.728659 0.597115 1 19 1.000000
  19 -40.315315 -39.000591 11.089312 -0.971356 -0.118816 0.205792 0.742341 0.612601 1 19 1.000000
barracuda
  19 -41.261822 -37.066074 7.738632 -0.964559 0.131931 -0.228515 0.728659 0.597115 1 19 1.000000
  19 -41.261826 -41.291927 6.200550 -0.964560 0.045818 -0.259856 0.712591 0.616335 1 19 1.000000
  19 -40.315315 -39.000591 11.089312 -0.971356 -0.118816 0.205792 0.742341 0.612601 1 19 1.000000
barracuda
  19 -40.315315 -39.000591 11.089312 -0.971356 -0.118816 0.205792 0.742341 0.612601 1 19 1.000000
  19 -41.261826 -41.291927 6.200550 -0.964560 0.045818 -0.259856 0.712591 0.616335 1 19 1.000000
  19 -40.315319 -41.963783 10.010799 -0.971356 -0.041261 0.234019 0.730555 0.626369 1 19 1.000000
barracuda
  19 -41.261826 -41.291927 6.200550 -0.964560 0.045818 -0.259856 0.712591 0.616335 1 19 1.000000
  19 -41.261826 -45.788998 6.200554 -0.964560 -0.045820 -0.259855 0.704206 0.639971 1 19 1.000000
  19 -40.315319 -41.963783 10.010799 -0.971356 -0.041261 0.234019 0.730555 0.626369 1 19 1.000000
barracuda
  19 -40.315319 -41.963783 10.010799 -0.971356 -0.041261 0.234019 0.730555 0.626369 1 19 1.000000
  19 -41.261826 -45.788998 6.200554 -0.964560 -0.045820 -0.259855 0.704206 0.639971 1 19 1.000000
  19 -40.315323 -45.117157 10.010801 -0.971356 0.041265 0.234019 0.724478 0.643501 1 19 1.000000
barracuda
  19 -41.261826 -45.788998 6.200554 -0.964560 -0.045820 -0.259855 0.704206 0.639971 1 19 1.000000
  19 -41.261826 -50.014866 7.738642 -0.964559 -0.131934 -0.228514 0.704570 0.665020 1 19 1.000000
  19 -40.315323 -45.117157 10.010801 -0.971356 0.041265 0.234019 0.724478 0.643501 1 19 1.000000
barracuda
  19 -40.315323 -45.117157 10.010801 -0.971356 0.041265 0.234019 0.724478 0.643501 1 19 1.000000
  19 -41.261826 -50.014866 7.738642 -0.964559 -0.131934 -0.228514 0.704570 0.665020 1 19 1.000000
  19 -40.315319 -48.080349 11.089320 -0.971356 0.118814 0.205792 0.724953 0.661618 1 19 1.000000
barracuda
  19 -41.261826 -50.014866 7.738642 -0.964559 -0.131934 -0.228514 0.704570 0.665020 1 19 1.000000
  19 -41.261829 -53.459808 10.629301 -0.964560 -0.202132 -0.169608 0.712940 0.687555 1 19 1.000000
  19 -40.315319 -48.080349 11.089320 -0.971356 0.118814 0.205792 0.724953 0.661618 1 19 1.000000
barracuda
  19 -40.315319 -48.080349 11.089320 -0.971356 0.118814 0.205792 0.724953 0.661618 1 19 1.000000
  19 -41.261829 -53.459808 10.629301 -0.964560 -0.202132 -0.169608 0.712940 0.687555 1 19 1.000000
  19 -40.315327 -50.495960 13.116269 -0.971356 0.182035 0.152743 0.730667 0.676887 1 19 1.000000
barracuda
  19 -41.261829 -53.459808 10.629301 -0.964560 -0.202132 -0.169608 0.712940 0.687555 1 19 1.000000
  19 -41.261829 -55.708347 14.523879 -0.964559 -0.247953 -0.090245 0.728642 0.705781 1 19 1.000000
  19 -40.315327 -50.495960 13.116269 -0.971356 0.182035 0.152743 0.730667 0.676887 1 19 1.000000
barracuda
  19 -40.315327 -50.495960 13.116269 -0.971356 0.182035 0.152743 0.730667 0.676887 1 19 1.000000
  19 -41.261829 -55.708347 14.523879 -0.964559 -0.247953 -0.090245 0.728642 0.705781 1 19 1.000000
  19 -40.315327 -52.072639 15.847161 -0.971356 0.223297 0.081274 0.741571 0.689730 1 19 1.000000
barracuda
  19 -41.261829 -55.708347 14.523879 -0.964559 -0.247953 -0.090245 0.728642 0.705781 1 19 1.000000
  19 -41.261826 -56.489246 18.952623 -0.964560 -0.263864 0.000001 0.750417 0.718210 1 19 1.000000
  19 -40.315327 -52.072639 15.847161 -0.971356 0.223297 0.081274 0.741571 0.689730 1 19 1.000000
barracuda
  19 -40.315327 -52.072639 15.847161 -0.971356 0.223297 0.081274 0.741571 0.689730 1 19 1.000000
  19 -41.261826 -56.489246 18.952623 -0.964560 -0.263864 0.000001 0.750417 0.718210 1 19 1.000000
  19 -40.315327 -52.620209 18.952623 -0.971356 0.237628 0.000000 0.757292 0.698828 1 19 1.000000
barracuda
  19 -41.261826 -56.489246 18.952623 -0.964560 -0.263864 0.000001 0.750417 0.718210 1 19 1.000000
  19 -41.261829 -55.708340 23.381371 -0.964559 -0.247952 0.090248 0.775156 0.722282 1 19 1.000000
  19 -40.315327 -52.620209 18.952623 -0.971356 0.237628 0.000000 0.757292 0.698828 1 19 1.000000
barracuda
  19 -40.315327 -52.620209 18.952623 -0.971356 0.237628 0.000000 0.757292 0.698828 1 19 1.000000
  19 -41.261829 -55.708340 23.381371 -0.964559 -0.247952 0.090248 0.775156 0.722282 1 19 1.000000
  19 -40.315327 -52.072636 22.058083 -0.971356 0.223298 -0.081274 0.775233 0.701671 1 19 1.000000
barracuda
  19 -41.261829 -55.708340 23.381371 -0.964559 -0.247952 0.090248 0.775156 0.722282 1 19 1.000000
  19 -41.261833 -53.459801 27.275948 -0.964560 -0.202130 0.169610 0.798834 0.718025 1 19 1.000000
  19 -40.315327 -52.072636 22.058083 -0.971356 0.223298 -0.081274 0.775233 0.701671 1 19 1.000000
barracuda
  19 -40.315327 -52.072636 22.058083 -0.971356 0.223298 -0.081274 0.775233 0.701671 1 19 1.000000
  19 -41.261833 -53.459801 27.275948 -0.964560 -0.202130 0.169610 0.798834 0.718025 1 19 1.000000
  19 -40.315327 -50.495953 24.788977 -0.971356 0.182034 -0.152745 0.791792 0.698571 1 19 1.000000
barracuda
  19 -41.261833 -53.459801 27.275948 -0.964560 -0.202130 0.169610 0.798834 0.718025 1 19 1.000000
  19 -41.261829 -50.014851 30.166599 -0.964560 -0.131930 0.228513 0.819534 0.705802 1 19 1.000000
  19 -40.315327 -50.495953 24.788977 -0.971356 0.182034 -0.152745 0.791792 0.698571 1 19 1.000000
barracuda
  19 -40.315327 -50.495953 24.788977 -0.971356 0.182034 -0.152745 0.791792 0.698571 1 19 1.000000
  19 -41.261829 -50.014851 30.166599 -0.964560 -0.131930 0.228513 0.819534 0.705802 1 19 1.000000
  19 -40.315327 -48.080338 26.815922 -0.971356 0.118812 -0.205792 0.805851 0.690316 1 19 1.000000
barracuda
  19 -41.261829 -50.014851 30.166599 -0.964560 -0.131930 0.228513 0.819534 0.705802 1 19 1.000000
  19 -41.261829 -45.788990 31.704685 -0.964560 -0.045818 0.259856 0.835602 0.686582 1 19 1.000000
  19 -40.315327 -48.080338 26.815922 -0.971356 0.118812 -0.205792 0.805851 0.690316 1 19 1.000000
barracuda
  19 -40.315327 -48.080338 26.815922 -0.971356 0.118812 -0.205792 0.805851 0.690316 1 19 1.000000
  19 -41.261829 -45.788990 31.704685 -0.964560 -0.045818 0.259856 0.835602 0.686582 1 19 1.000000
  19 -40.315331 -45.117142 27.894440 -0.971356 0.041262 -0.234018 0.817637 0.676548 1 19 1.000000
barracuda
  19 -41.261829 -45.788990 31.704685 -0.964560 -0.045818 0.259856 0.835602 0.686582 1 19 1.000000
  19 -41.261829 -41.291916 31.704681 -0.964560 0.045822 0.259855 0.843984 0.662808 1 19 1.000000
  19 -40.315331 -45.117142 27.894440 -0.971356 0.041262 -0.234018 0.817637 0.676548 1 19 1.000000
barracuda
  19 -40.315331 -45.117142 27.894440 -0.971356 0.041262 -0.234018 0.817637 0.676548 1 19 1.000000
  19 -41.261829 -41.291916 31.704681 -0.964560 0.045822 0.259855 0.843984 0.662808 1 19 1.000000
  19 -40.315331 -41.963772 27.894436 -0.971356 -0.041264 -0.234018 0.823714 0.659416 1 19 1.000000
barracuda
  19 -41.261829 -41.291916 31.704681 -0.964560 0.045822 0.259855 0.843984 0.662808 1 19 1.000000
  19 -41.261826 -37.066059 30.166595 -0.964559 0.131935 0.228514 0.843551 0.637834 1 19 1.000000
  19 -40.315331 -41.963772 27.894436 -0.971356 -0.041264 -0.234018 0.823714 0.659416 1 19 1.000000
barracuda
  19 -40.315331 -41.963772 27.894436 -0.971356 -0.041264 -0.234018 0.823714 0.659416 1 19 1.000000
  19 -41.261826 -37.066059 30.166595 -0.964559 0.131935 0.228514 0.843551 0.637834 1 19 1.000000
  19 -40.315323 -39.000580 26.815914 -0.971356 -0.118815 -0.205792 0.823239 0.641299 1 19 1.000000
barracuda
  19 -41.261826 -37.066059 30.166595 -0.964559 0.131935 0.228514 0.843551 0.637834 1 19 1.000000
  19 -41.261829 -33.621105 27.275932 -0.964559 0.202125 0.169620 0.835328 0.615562 1 19 1.000000
  19 -40.315323 -39.000580 26.815914 -0.971356 -0.118815 -0.205792 0.823239 0.641299 1 19 1.000000
barracuda
  19 -40.315323 -39.000580 26.815914 -0.971356 -0.118815 -0.205792 0.823239 0.641299 1 19 1.000000
  19 -41.261829 -33.621105 27.275932 -0.964559 0.202125 0.169620 0.835328 0.615562 1 19 1.000000
  19 -40.315323 -36.584965 24.788965 -0.971356 -0.182034 -0.152745 0.817526 0.626030 1 19 1.000000
barracuda
  19 -41.261829 -33.621105 27.275932 -0.964559 0.202125 0.169620 0.835328 0.615562 1 19 1.000000
  19 -41.261822 -31.372576 23.381353 -0.964559 0.247953 0.090245 0.819551 0.597136 1 19 1.000000
  19 -40.315323 -36.584965 24.788965 -0.971356 -0.182034 -0.152745 0.817526 0.626030 1 19 1.000000
barracuda
  19 -40.998493 -45.320107 17.991068 -1.000000 0.000027 0.000000 0.734686 0.717398 1 19 1.000000
  19 -40.998493 -45.582584 18.970638 -1.000000 0.000011 0.000002 0.727077 0.717398 1 19 1.000000
  19 -40.998493 -44.603012 17.273972 -1.000000 0.000003 0.000001 0.741275 0.721203 1 19 1.000000
barracuda
  19 -40.998493 -45.582584 18.970638 -1.000000 0.000011 0.000002 0.727077 0.717398 1 19 1.000000
  19 -40.998489 -45.320103 19.950207 -1.000000 0.000002 0.000001 0.720488 0.721203 1 19 1.000000
  19 -40.998493 -44.603012 17.273972 -1.000000 0.000003 0.000001 0.741275 0.721203 1 19 1.000000
barracuda
  19 -40.998489 -45.320103 19.950207 -1.000000 0.000002 0.000001 0.720488 0.721203 1 19 1.000000
  19 -40.998489 -44.603008 20.667301 -1.000000 0.000000 0.000001 0.716684 0.727878 1 19 1.000000
  19 -40.998493 -44.603012 17.273972 -1.000000 0.000003 0.000001 0.741275 0.721203 1 19 1.000000
barracuda
  19 -40.998489 -44.603008 20.667301 -1.000000 0.000000 0.000001 0.716684 0.727878 1 19 1.000000
  19 -40.998489 -43.623440 20.929777 -1.000000 0.000000 0.000001 0.716684 0.735335 1 19 1.000000
  19 -40.998493 -44.603012 17.273972 -1.000000 0.000003 0.000001 0.741275 0.721203 1 19 1.000000
barracuda
  19 -40.998489 -43.623440 20.929777 -1.000000 0.000000 0.000001 0.716684 0.735335 1 19 1.000000
  19 -40.998489 -42.643867 20.667301 -1.000000 -0.000002 0.000001 0.720488 0.741989 1 19 1.000000
  19 -40.998493 -44.603012 17.273972 -1.000000 0.000003 0.000001 0.741275 0.721203 1 19 1.000000
barracuda
  19 -40.998489 -42.643867 20.667301 -1.000000 -0.000002 0.000001 0.720488 0.741989 1 19 1.000000
  19 -40.998489 -41.926773 19.950203 -1.000000 -0.000004 0.000002 0.727077 0.745794 1 19 1.000000
  19 -40.998493 -44.603012 17.273972 -1.000000 0.000003 0.000001 0.741275 0.721203 1 19 1.000000
barracuda
  19 -40.998489 -41.926773 19.950203 -1.000000 -0.000004 0.000002 0.727077 0.745794 1 19 1.000000
  19 -40.998493 -41.664303 18.970634 -1.000000 -0.000003 0.000002 0.734686 0.745794 1 19 1.000000
  19 -40.998493 -44.603012 17.273972 -1.000000 0.000003 0.000001 0.741275 0.721203 1 19 1.000000
barracuda
  19 -40.998493 -41.664303 18.970634 -1.000000 -0.000003 0.000002 0.734686 0.745794 1 19 1.000000
  19 -40.998493 -41.926777 17.991064 -1.000000 -0.000001 0.000000 0.741275 0.741989 1 19 1.000000
  19 -40.998493 -44.603012 17.273972 -1.000000 0.000003 0.000001 0.741275 0.721203 1 19 1.000000
barracuda
  19 -40.998493 -41.926777 17.991064 -1.000000 -0.000001 0.000000 0.741275 0.741989 1 19 1.000000
  19 -40.998493 -42.643871 17.273968 -1.000000 0.000000 0.000000 0.745079 0.735400 1 19 1.000000
  19 -40.998493 -44.603012 17.273972 -1.000000 0.000003 0.000001 0.741275 0.721203 1 19 1.000000
barracuda
  19 -40.998493 -42.643871 17.273968 -1.000000 0.000000 0.000000 0.745079 0.735400 1 19 1.000000
  19 -40.998493 -43.623444 17.011494 -1.000000 0.000000 0.000000 0.745079 0.727792 1 19 1.000000
  19 -40.998493 -44.603012 17.273972 -1.000000 0.000003 0.000001 0.741275 0.721203 1 19 1.000000
barracuda
  19 -40.985519 -39.139172 11.329331 -0.977166 -0.106237 0.184009 0.744186 0.615686 1 19 1.000000
  19 -40.985519 -42.011913 10.283740 -0.977166 -0.036896 0.209248 0.733510 0.628282 1 19 1.000000
  19 -39.071480 -43.540466 18.952618 -1.000000 0.000000 0.000000 0.774096 0.651459 1 19 1.000000
barracuda
  19 -40.985519 -42.011913 10.283740 -0.977166 -0.036896 0.209248 0.733510 0.628282 1 19 1.000000
  19 -40.985519 -45.069023 10.283743 -0.977166 0.036896 0.209248 0.727978 0.643878 1 19 1.000000
  19 -39.071480 -43.540466 18.952618 -1.000000 0.000000 0.000000 0.774096 0.651459 1 19 1.000000
barracuda
  19 -40.985519 -45.069023 10.283743 -0.977166 0.036896 0.209248 0.727978 0.643878 1 19 1.000000
  19 -40.985523 -47.941769 11.329339 -0.977166 0.106238 0.184010 0.728330 0.660385 1 19 1.000000
  19 -39.071480 -43.540466 18.952618 -1.000000 0.000000 0.000000 0.774096 0.651459 1 19 1.000000
barracuda
  19 -40.985523 -47.941769 11.329339 -0.977166 0.106238 0.184010 0.728330 0.660385 1 19 1.000000
  19 -40.985519 -50.283657 13.294415 -0.977166 0.162766 0.136577 0.733803 0.674854 1 19 1.000000
  19 -39.071480 -43.540466 18.952618 -1.000000 0.000000 0.000000 0.774096 0.651459 1 19 1.000000
barracuda
  19 -40.985519 -50.283657 13.294415 -0.977166 0.162766 0.136577 0.733803 0.674854 1 19 1.000000
  19 -40.985523 -51.812202 15.941954 -0.977166 0.199663 0.072670 0.744130 0.687271 1 19 1.000000
  19 -39.071480 -43.540466 18.952618 -1.000000 0.000000 0.000000 0.774096 0.651459 1 19 1.000000
barracuda
  19 -40.985523 -51.812202 15.941954 -0.977166 0.199663 0.072670 0.744130 0.687271 1 19 1.000000
  19 -40.985527 -52.343063 18.952623 -0.977166 0.212476 -0.000001 0.758466 0.695519 1 19 1.000000
  19 -39.071480 -43.540466 18.952618 -1.000000 0.000000 0.000000 0.774096 0.651459 1 19 1.000000
barracuda
  19 -40.985527 -52.343063 18.952623 -0.977166 0.212476 -0.000001 0.758466 0.695519 1 19 1.000000
  19 -40.985531 -51.812199 21.963295 -0.977166 0.199662 -0.072672 0.774794 0.698149 1 19 1.000000
  19 -39.071480 -43.540466 18.952618 -1.000000 0.000000 0.000000 0.774096 0.651459 1 19 1.000000
barracuda
  19 -40.985531 -51.812199 21.963295 -0.977166 0.199662 -0.072672 0.774794 0.698149 1 19 1.000000
  19 -40.985531 -50.283646 24.610828 -0.977166 0.162767 -0.136576 0.790639 0.695016 1 19 1.000000
  19 -39.071480 -43.540466 18.952618 -1.000000 0.000000 0.000000 0.774096 0.651459 1 19 1.000000
barracuda
  19 -40.985531 -50.283646 24.610828 -0.977166 0.162767 -0.136576 0.790639 0.695016 1 19 1.000000
  19 -40.985523 -47.941765 26.575907 -0.977166 0.106238 -0.184010 0.804006 0.687231 1 19 1.000000
  19 -39.071480 -43.540466 18.952618 -1.000000 0.000000 0.000000 0.774096 0.651459 1 19 1.000000
barracuda
  19 -40.985523 -47.941765 26.575907 -0.977166 0.106238 -0.184010 0.804006 0.687231 1 19 1.000000
  19 -40.985531 -45.069016 27.621498 -0.977166 0.036895 -0.209249 0.814682 0.674635 1 19 1.000000
  19 -39.071480 -43.540466 18.952618 -1.000000 0.000000 0.000000 0.774096 0.651459 1 19 1.000000
barracuda
  19 -40.985531 -45.069016 27.621498 -0.977166 0.036895 -0.209249 0.814682 0.674635 1 19 1.000000
  19 -40.985531 -42.011902 27.621494 -0.977166 -0.036895 -0.209249 0.820214 0.659039 1 19 1.000000
  19 -39.071480 -43.540466 18.952618 -1.000000 0.000000 0.000000 0.774096 0.651459 1 19 1.000000
barracuda
  19 -40.985531 -42.011902 27.621494 -0.977166 -0.036895 -0.209249 0.820214 0.659039 1 19 1.000000
  19 -40.985523 -39.139160 26.575899 -0.977166 -0.106237 -0.184010 0.819863 0.642531 1 19 1.000000
  19 -39.071480 -43.540466 18.952618 -1.000000 0.000000 0.000000 0.774096 0.651459 1 19 1.000000
barracuda
  19 -40.985523 -39.139160 26.575899 -0.977166 -0.106237 -0.184010 0.819863 0.642531 1 19 1.000000
  19 -40.985527 -36.797276 24.610819 -0.977166 -0.162766 -0.136577 0.814390 0.628063 1 19 1.000000
  19 -39.071480 -43.540466 18.952618 -1.000000 0.000000 0.000000 0.774096 0.651459 1 19 1.000000
barracuda
  19 -40.985527 -36.797276 24.610819 -0.977166 -0.162766 -0.136577 0.814390 0.628063 1 19 1.000000
  19 -40.985523 -35.268719 21.963280 -0.977166 -0.199662 -0.072672 0.804062 0.615645 1 19 1.000000
  19 -39.071480 -43.540466 18.952618 -1.000000 0.000000 0.000000 0.774096 0.651459 1 19 1.000000
barracuda
  19 -40.985523 -35.268719 21.963280 -0.977166 -0.199662 -0.072672 0.804062 0.615645 1 19 1.000000
  19 -40.985519 -34.737862 18.952610 -0.977166 -0.212475 0.000000 0.789726 0.607398 1 19 1.000000
  19 -39.071480 -43.540466 18.952618 -1.000000 0.000000 0.000000 0.774096 0.651459 1 19 1.000000
barracuda
  19 -40.985519 -34.737862 18.952610 -0.977166 -0.212475 0.000000 0.789726 0.607398 1 19 1.000000
  19 -40.985519 -35.268723 15.941944 -0.977166 -0.199662 0.072671 0.773398 0.604768 1 19 1.000000
  19 -39.071480 -43.540466 18.952618 -1.000000 0.000000 0.000000 0.774096 0.651459 1 19 1.000000
barracuda
  19 -40.985519 -35.268723 15.941944 -0.977166 -0.199662 0.072671 0.773398 0.604768 1 19 1.000000
  19 -40.985519 -36.797287 13.294409 -0.977166 -0.162765 0.136577 0.757554 0.607901 1 19 1.000000
  19 -39.071480 -43.540466 18.952618 -1.000000 0.000000 0.000000 0.774096 0.651459 1 19 1.000000
barracuda
  19 -40.985519 -36.797287 13.294409 -0.977166 -0.162765 0.136577 0.757554 0.607901 1 19 1.000000
  19 -40.985519 -39.139172 11.329331 -0.977166 -0.106237 0.184009 0.744186 0.615686 1 19 1.000000
  19 -39.071480 -43.540466 18.952618 -1.000000 0.000000 0.000000 0.774096 0.651459 1 19 1.000000
barracuda
  19 -40.998489 -45.320103 19.950207 0.000000 -0.866022 0.500005 0.716684 0.722541 1 19 1.000000
  19 -40.998493 -45.582584 18.970638 0.000000 -1.000000 0.000005 0.716684 0.715192 1 19 1.000000
  19 -38.936398 -45.320103 19.950207 0.000000 -0.866025 0.500000 0.701213 0.722541 1 19 1.000000
barracuda
  19 -38.936398 -45.320103 19.950207 0.000000 -0.866025 0.500000 0.701213 0.722541 1 19 1.000000
  19 -40.998493 -45.582584 18.970638 0.000000 -1.000000 0.000005 0.716684 0.715192 1 19 1.000000
  19 -38.936394 -45.582584 18.970638 0.000000 -1.000000 -0.000002 0.701213 0.715192 1 19 1.000000
barracuda
  19 -40.998493 -45.582584 18.970638 0.000000 -1.000000 0.000005 0.716684 0.715192 1 19 1.000000
  19 -40.998493 -45.320107 17.991068 0.000000 -0.866026 -0.499999 0.716684 0.707842 1 19 1.000000
  19 -38.936394 -45.582584 18.970638 0.000000 -1.000000 -0.000002 0.701213 0.715192 1 19 1.000000
barracuda
  19 -38.936394 -45.582584 18.970638 0.000000 -1.000000 -0.000002 0.701213 0.715192 1 19 1.000000
  19 -40.998493 -45.320107 17.991068 0.000000 -0.866026 -0.499999 0.716684 0.707842 1 19 1.000000
  19 -38.936394 -45.320107 17.991068 0.000000 -0.866024 -0.500002 0.701213 0.707842 1 19 1.000000
barracuda
  19 -40.998493 -45.320107 17.991068 0.000000 -0.866026 -0.499999 0.716684 0.707842 1 19 1.000000
  19 -40.998493 -44.603012 17.273972 0.000000 -0.500001 -0.866025 0.716684 0.702462 1 19 1.000000
  19 -38.936394 -45.320107 17.991068 0.000000 -0.866024 -0.500002 0.701213 0.707842 1 19 1.000000
barracuda
  19 -38.936394 -45.320107 17.991068 0.000000 -0.866024 -0.500002 0.701213 0.707842 1 19 1.000000
  19 -40.998493 -44.603012 17.273972 0.000000 -0.500001 -0.866025 0.716684 0.702462 1 19 1.000000
  19 -38.936394 -44.603012 17.273972 0.000000 -0.500001 -0.866025 0.701213 0.702462 1 19 1.000000
barracuda
  19 -40.998493 -44.603012 17.273972 0.000000 -0.500001 -0.866025 0.716684 0.782777 1 19 1.000000
  19 -40.998493 -43.623444 17.011494 0.000001 -0.000002 -1.000000 0.716684 0.775428 1 19 1.000000
  19 -38.936394 -44.603012 17.273972 0.000000 -0.500001 -0.866025 0.701213 0.782777 1 19 1.000000
barracuda
  19 -38.936394 -44.603012 17.273972 0.000000 -0.500001 -0.866025 0.701213 0.782777 1 19 1.000000
  19 -40.998493 -43.623444 17.011494 0.000001 -0.000002 -1.000000 0.716684 0.775428 1 19 1.000000
  19 -38.936394 -43.623444 17.011496 0.000001 -0.000002 -1.000000 0.701213 0.775428 1 19 1.000000
barracuda
  19 -40.998493 -43.623444 17.011494 0.000001 -0.000002 -1.000000 0.716684 0.775428 1 19 1.000000
  19 -40.998493 -42.643871 17.273968 0.000001 0.500000 -0.866026 0.716684 0.768079 1 19 1.000000
  19 -38.936394 -43.623444 17.011496 0.000001 -0.000002 -1.000000 0.701213 0.775428 1 19 1.000000
barracuda
  19 -38.936394 -43.623444 17.011496 0.000001 -0.000002 -1.000000 0.701213 0.775428 1 19 1.000000
  19 -40.998493 -42.643871 17.273968 0.000001 0.500000 -0.866026 0.716684 0.768079 1 19 1.000000
  19 -38.936394 -42.643871 17.273970 0.000002 0.500000 -0.866025 0.701213 0.768079 1 19 1.000000
barracuda
  19 -40.998493 -42.643871 17.273968 0.000001 0.500000 -0.866026 0.716684 0.768079 1 19 1.000000
  19 -40.998493 -41.926777 17.991064 0.000000 0.866026 -0.499999 0.716684 0.762699 1 19 1.000000
  19 -38.936394 -42.643871 17.273970 0.000002 0.500000 -0.866025 0.701213 0.768079 1 19 1.000000
barracuda
  19 -38.936394 -42.643871 17.273970 0.000002 0.500000 -0.866025 0.701213 0.768079 1 19 1.000000
  19 -40.998493 -41.926777 17.991064 0.000000 0.866026 -0.499999 0.716684 0.762699 1 19 1.000000
  19 -38.936394 -41.926777 17.991066 0.000001 0.866026 -0.499999 0.701213 0.762699 1 19 1.000000
barracuda
  19 -40.998493 -41.926777 17.991064 0.000000 0.866026 -0.499999 0.716684 0.762699 1 19 1.000000
  19 -40.998493 -41.664303 18.970634 0.000000 1.000000 -0.000003 0.716684 0.755349 1 19 1.000000
  19 -38.936394 -41.926777 17.991066 0.000001 0.866026 -0.499999 0.701213 0.762699 1 19 1.000000
barracuda
  19 -38.936394 -41.926777 17.991066 0.000001 0.866026 -0.499999 0.701213 0.762699 1 19 1.000000
  19 -40.998493 -41.664303 18.970634 0.000000 1.000000 -0.000003 0.716684 0.755349 1 19 1.000000
  19 -38.936394 -41.664303 18.970634 0.000000 1.000000 -0.000001 0.701213 0.755349 1 19 1.000000
barracuda
  19 -40.998493 -41.664303 18.970634 0.000000 1.000000 -0.000003 0.716684 0.755349 1 19 1.000000
  19 -40.998489 -41.926773 19.950203 -0.000001 0.866027 0.499997 0.716684 0.748000 1 19 1.000000
  19 -38.936394 -41.664303 18.970634 0.000000 1.000000 -0.000001 0.701213 0.755349 1 19 1.000000
barracuda
  19 -38.936394 -41.664303 18.970634 0.000000 1.000000 -0.000001 0.701213 0.755349 1 19 1.000000
  19 -40.998489 -41.926773 19.950203 -0.000001 0.866027 0.499997 0.716684 0.748000 1 19 1.000000
  19 -38.936398 -41.926773 19.950205 0.000000 0.866026 0.499999 0.701213 0.748000 1 19 1.000000
barracuda
  19 -40.998489 -41.926773 19.950203 -0.000001 0.866027 0.499997 0.716684 0.748000 1 19 1.000000
  19 -40.998489 -42.643867 20.667301 -0.000001 0.500000 0.866025 0.716684 0.742620 1 19 1.000000
  19 -38.936398 -41.926773 19.950205 0.000000 0.866026 0.499999 0.701213 0.748000 1 19 1.000000
barracuda
  19 -38.936398 -41.926773 19.950205 0.000000 0.866026 0.499999 0.701213 0.748000 1 19 1.000000
  19 -40.998489 -42.643867 20.667301 -0.000001 0.500000 0.866025 0.716684 0.742620 1 19 1.000000
  19 -38.936398 -42.643867 20.667301 0.000000 0.500002 0.866024 0.701213 0.742620 1 19 1.000000
barracuda
  19 -40.998489 -42.643867 20.667301 -0.000001 0.500000 0.866025 0.716684 0.742620 1 19 1.000000
  19 -40.998489 -43.623440 20.929777 0.000000 0.000000 1.000000 0.716684 0.735335 1 19 1.000000
  19 -38.936398 -42.643867 20.667301 0.000000 0.500002 0.866024 0.701213 0.742620 1 19 1.000000
barracuda
  19 -38.936398 -42.643867 20.667301 0.000000 0.500002 0.866024 0.701213 0.742620 1 19 1.000000
  19 -40.998489 -43.623440 20.929777 0.000000 0.000000 1.000000 0.716684 0.735335 1 19 1.000000
  19 -38.936398 -43.623440 20.929777 0.000000 -0.000001 1.000000 0.701213 0.735335 1 19 1.000000
barracuda
  19 -40.998489 -43.623440 20.929777 0.000000 0.000000 1.000000 0.716684 0.735335 1 19 1.000000
  19 -40.998489 -44.603008 20.667301 0.000000 -0.499999 0.866026 0.716684 0.727878 1 19 1.000000
  19 -38.936398 -43.623440 20.929777 0.000000 -0.000001 1.000000 0.701213 0.735335 1 19 1.000000
barracuda
  19 -38.936398 -43.623440 20.929777 0.000000 -0.000001 1.000000 0.701213 0.735335 1 19 1.000000
  19 -40.998489 -44.603008 20.667301 0.000000 -0.499999 0.866026 0.716684 0.727878 1 19 1.000000
  19 -38.936398 -44.603008 20.667301 0.000000 -0.500001 0.866025 0.701213 0.727878 1 19 1.000000
barracuda
  19 -40.998489 -44.603008 20.667301 0.000000 -0.499999 0.866026 0.716684 0.727878 1 19 1.000000
  19 -40.998489 -45.320103 19.950207 0.000000 -0.866022 0.500005 0.716684 0.722541 1 19 1.000000
  19 -38.936398 -44.603008 20.667301 0.000000 -0.500001 0.866025 0.701213 0.727878 1 19 1.000000
barracuda
  19 -38.936398 -44.603008 20.667301 0.000000 -0.500001 0.866025 0.701213 0.727878 1 19 1.000000
  19 -40.998489 -45.320103 19.950207 0.000000 -0.866022 0.500005 0.716684 0.722541 1 19 1.000000
  19 -38.936398 -45.320103 19.950207 0.000000 -0.866025 0.500000 0.701213 0.722541 1 19 1.000000
barracuda
  19 -40.985523 -39.139160 26.575899 -0.382145 0.462051 0.800296 0.819863 0.642531 1 19 1.000000
  19 -40.315323 -36.584965 24.788965 -0.382144 0.707902 0.594004 0.817526 0.626030 1 19 1.000000
  19 -40.985527 -36.797276 24.610819 -0.382144 0.707901 0.594005 0.814390 0.628063 1 19 1.000000
barracuda
  19 -40.315323 -36.584965 24.788965 -0.382144 0.707902 0.594004 0.817526 0.626030 1 19 1.000000
  19 -40.315323 -35.008278 22.058069 -0.382150 0.868371 0.316059 0.806622 0.613187 1 19 1.000000
  19 -40.985527 -36.797276 24.610819 -0.382144 0.707901 0.594005 0.814390 0.628063 1 19 1.000000
barracuda
  19 -40.985527 -36.797276 24.610819 -0.382144 0.707901 0.594005 0.814390 0.628063 1 19 1.000000
  19 -40.315323 -35.008278 22.058069 -0.382150 0.868371 0.316059 0.806622 0.613187 1 19 1.000000
  19 -40.985523 -35.268719 21.963280 -0.382151 0.868370 0.316060 0.804062 0.615645 1 19 1.000000
barracuda
  19 -40.315323 -35.008278 22.058069 -0.382150 0.868371 0.316059 0.806622 0.613187 1 19 1.000000
  19 -40.315323 -34.460709 18.952608 -0.382151 0.924100 -0.000001 0.790900 0.604090 1 19 1.000000
  19 -40.985523 -35.268719 21.963280 -0.382151 0.868370 0.316060 0.804062 0.615645 1 19 1.000000
barracuda
  19 -40.985523 -35.268719 21.963280 -0.382151 0.868370 0.316060 0.804062 0.615645 1 19 1.000000
  19 -40.315323 -34.460709 18.952608 -0.382151 0.924100 -0.000001 0.790900 0.604090 1 19 1.000000
  19 -40.985519 -34.737862 18.952610 -0.382151 0.924100 0.000000 0.789726 0.607398 1 19 1.000000
barracuda
  19 -40.315323 -34.460709 18.952608 -0.382151 0.924100 -0.000001 0.790900 0.604090 1 19 1.000000
  19 -40.315315 -35.008282 15.847152 -0.382148 0.868371 -0.316061 0.772960 0.601246 1 19 1.000000
  19 -40.985519 -34.737862 18.952610 -0.382151 0.924100 0.000000 0.789726 0.607398 1 19 1.000000
barracuda
  19 -40.985519 -34.737862 18.952610 -0.382151 0.924100 0.000000 0.789726 0.607398 1 19 1.000000
  19 -40.315315 -35.008282 15.847152 -0.382148 0.868371 -0.316061 0.772960 0.601246 1 19 1.000000
  19 -40.985519 -35.268723 15.941944 -0.382148 0.868371 -0.316061 0.773398 0.604768 1 19 1.000000
barracuda
  19 -40.315315 -35.008282 15.847152 -0.382148 0.868371 -0.316061 0.772960 0.601246 1 19 1.000000
  19 -40.315323 -36.584976 13.116259 -0.382151 0.707899 -0.594003 0.756400 0.604346 1 19 1.000000
  19 -40.985519 -35.268723 15.941944 -0.382148 0.868371 -0.316061 0.773398 0.604768 1 19 1.000000
barracuda
  19 -40.985519 -35.268723 15.941944 -0.382148 0.868371 -0.316061 0.773398 0.604768 1 19 1.000000
  19 -40.315323 -36.584976 13.116259 -0.382151 0.707899 -0.594003 0.756400 0.604346 1 19 1.000000
  19 -40.985519 -36.797287 13.294409 -0.382151 0.707899 -0.594003 0.757554 0.607901 1 19 1.000000
barracuda
  19 -40.315323 -36.584976 13.116259 -0.382151 0.707899 -0.594003 0.756400 0.604346 1 19 1.000000
  19 -40.315315 -39.000591 11.089312 -0.382147 0.462053 -0.800294 0.742341 0.612601 1 19 1.000000
  19 -40.985519 -36.797287 13.294409 -0.382151 0.707899 -0.594003 0.757554 0.607901 1 19 1.000000
barracuda
  19 -40.985519 -36.797287 13.294409 -0.382151 0.707899 -0.594003 0.757554 0.607901 1 19 1.000000
  19 -40.315315 -39.000591 11.089312 -0.382147 0.462053 -0.800294 0.742341 0.612601 1 19 1.000000
  19 -40.985519 -39.139172 11.329331 -0.382147 0.462052 -0.800294 0.744186 0.615686 1 19 1.000000
barracuda
  19 -40.315315 -39.000591 11.089312 -0.382147 0.462053 -0.800294 0.742341 0.612601 1 19 1.000000
  19 -40.315319 -41.963783 10.010799 -0.382147 0.160469 -0.910062 0.730555 0.626369 1 19 1.000000
  19 -40.985519 -39.139172 11.329331 -0.382147 0.462052 -0.800294 0.744186 0.615686 1 19 1.000000
barracuda
  19 -40.985519 -39.139172 11.329331 -0.382147 0.462052 -0.800294 0.744186 0.615686 1 19 1.000000
  19 -40.315319 -41.963783 10.010799 -0.382147 0.160469 -0.910062 0.730555 0.626369 1 19 1.000000
  19 -40.985519 -42.011913 10.283740 -0.382148 0.160468 -0.910062 0.733510 0.628282 1 19 1.000000
barracuda
  19 -40.315319 -41.963783 10.010799 -0.382147 0.160469 -0.910062 0.730555 0.626369 1 19 1.000000
  19 -40.315323 -45.117157 10.010801 -0.382152 -0.160471 -0.910060 0.724478 0.643501 1 19 1.000000
  19 -40.985519 -42.011913 10.283740 -0.382148 0.160468 -0.910062 0.733510 0.628282 1 19 1.000000
barracuda
  19 -40.985519 -42.011913 10.283740 -0.382148 0.160468 -0.910062 0.733510 0.628282 1 19 1.000000
  19 -40.315323 -45.117157 10.010801 -0.382152 -0.160471 -0.910060 0.724478 0.643501 1 19 1.000000
  19 -40.985519 -45.069023 10.283743 -0.382152 -0.160469 -0.910060 0.727978 0.643878 1 19 1.000000
barracuda
  19 -40.315323 -45.117157 10.010801 -0.382152 -0.160471 -0.910060 0.724478 0.643501 1 19 1.000000
  19 -40.315319 -48.080349 11.089320 -0.382148 -0.462050 -0.800295 0.724953 0.661618 1 19 1.000000
  19 -40.985519 -45.069023 10.283743 -0.382152 -0.160469 -0.910060 0.727978 0.643878 1 19 1.000000
barracuda
  19 -40.985519 -45.069023 10.283743 -0.382152 -0.160469 -0.910060 0.727978 0.643878 1 19 1.000000
  19 -40.315319 -48.080349 11.089320 -0.382148 -0.462050 -0.800295 0.724953 0.661618 1 19 1.000000
  19 -40.985523 -47.941769 11.329339 -0.382147 -0.462050 -0.800296 0.728330 0.660385 1 19 1.000000
barracuda
  19 -40.315319 -48.080349 11.089320 -0.382148 -0.462050 -0.800295 0.724953 0.661618 1 19 1.000000
  19 -40.315327 -50.495960 13.116269 -0.382141 -0.707906 -0.594001 0.730667 0.676887 1 19 1.000000
  19 -40.985523 -47.941769 11.329339 -0.382147 -0.462050 -0.800296 0.728330 0.660385 1 19 1.000000
barracuda
  19 -40.985523 -47.941769 11.329339 -0.382147 -0.462050 -0.800296 0.728330 0.660385 1 19 1.000000
  19 -40.315327 -50.495960 13.116269 -0.382141 -0.707906 -0.594001 0.730667 0.676887 1 19 1.000000
  19 -40.985519 -50.283657 13.294415 -0.382141 -0.707907 -0.594000 0.733803 0.674854 1 19 1.000000
barracuda
  19 -40.315327 -50.495960 13.116269 -0.382141 -0.707906 -0.594001 0.730667 0.676887 1 19 1.000000
  19 -40.315327 -52.072639 15.847161 -0.382149 -0.868371 -0.316059 0.741571 0.689730 1 19 1.000000
  19 -40.985519 -50.283657 13.294415 -0.382141 -0.707907 -0.594000 0.733803 0.674854 1 19 1.000000
barracuda
  19 -40.985519 -50.283657 13.294415 -0.382141 -0.707907 -0.594000 0.733803 0.674854 1 19 1.000000
  19 -40.315327 -52.072639 15.847161 -0.382149 -0.868371 -0.316059 0.741571 0.689730 1 19 1.000000
  19 -40.985523 -51.812202 15.941954 -0.382149 -0.868372 -0.316058 0.744130 0.687271 1 19 1.000000
barracuda
  19 -40.315327 -52.072639 15.847161 -0.382149 -0.868371 -0.316059 0.741571 0.689730 1 19 1.000000
  19 -40.315327 -52.620209 18.952623 -0.382141 -0.924104 0.000000 0.757292 0.698828 1 19 1.000000
  19 -40.985523 -51.812202 15.941954 -0.382149 -0.868372 -0.316058 0.744130 0.687271 1 19 1.000000
barracuda
  19 -40.985523 -51.812202 15.941954 -0.382149 -0.868372 -0.316058 0.744130 0.687271 1 19 1.000000
  19 -40.315327 -52.620209 18.952623 -0.382141 -0.924104 0.000000 0.757292 0.698828 1 19 1.000000
  19 -40.985527 -52.343063 18.952623 -0.382140 -0.924104 0.000000 0.758466 0.695519 1 19 1.000000
barracuda
  19 -40.315327 -52.620209 18.952623 -0.382141 -0.924104 0.000000 0.757292 0.698828 1 19 1.000000
  19 -40.315327 -52.072636 22.058083 -0.382142 -0.868374 0.316061 0.775233 0.701671 1 19 1.000000
  19 -40.985527 -52.343063 18.952623 -0.382140 -0.924104 0.000000 0.758466 0.695519 1 19 1.000000
barracuda
  19 -40.985527 -52.343063 18.952623 -0.382140 -0.924104 0.000000 0.758466 0.695519 1 19 1.000000
  19 -40.315327 -52.072636 22.058083 -0.382142 -0.868374 0.316061 0.775233 0.701671 1 19 1.000000
  19 -40.985531 -51.812199 21.963295 -0.382142 -0.868373 0.316062 0.774794 0.698149 1 19 1.000000
barracuda
  19 -40.315327 -52.072636 22.058083 -0.382142 -0.868374 0.316061 0.775233 0.701671 1 19 1.000000
  19 -40.315327 -50.495953 24.788977 -0.382140 -0.707904 0.594004 0.791792 0.698571 1 19 1.000000
  19 -40.985531 -51.812199 21.963295 -0.382142 -0.868373 0.316062 0.774794 0.698149 1 19 1.000000
barracuda
  19 -40.985531 -51.812199 21.963295 -0.382142 -0.868373 0.316062 0.774794 0.698149 1 19 1.000000
  19 -40.315327 -50.495953 24.788977 -0.382140 -0.707904 0.594004 0.791792 0.698571 1 19 1.000000
  19 -40.985531 -50.283646 24.610828 -0.382141 -0.707904 0.594004 0.790639 0.695016 1 19 1.000000
barracuda
  19 -40.315327 -50.495953 24.788977 -0.382140 -0.707904 0.594004 0.791792 0.698571 1 19 1.000000
  19 -40.315327 -48.080338 26.815922 -0.382143 -0.462053 0.800296 0.805851 0.690316 1 19 1.000000
  19 -40.985531 -50.283646 24.610828 -0.382141 -0.707904 0.594004 0.790639 0.695016 1 19 1.000000
barracuda
  19 -40.985531 -50.283646 24.610828 -0.382141 -0.707904 0.594004 0.790639 0.695016 1 19 1.000000
  19 -40.315327 -48.080338 26.815922 -0.382143 -0.462053 0.800296 0.805851 0.690316 1 19 1.000000
  19 -40.985523 -47.941765 26.575907 -0.382143 -0.462052 0.800296 0.804006 0.687231 1 19 1.000000
barracuda
  19 -40.315327 -48.080338 26.815922 -0.382143 -0.462053 0.800296 0.805851 0.690316 1 19 1.000000
  19 -40.315331 -45.117142 27.894440 -0.382147 -0.160468 0.910062 0.817637 0.676548 1 19 1.000000
  19 -40.985523 -47.941765 26.575907 -0.382143 -0.462052 0.800296 0.804006 0.687231 1 19 1.000000
barracuda
  19 -40.985523 -47.941765 26.575907 -0.382143 -0.462052 0.800296 0.804006 0.687231 1 19 1.000000
  19 -40.315331 -45.117142 27.894440 -0.382147 -0.160468 0.910062 0.817637 0.676548 1 19 1.000000
  19 -40.985531 -45.069016 27.621498 -0.382148 -0.160468 0.910062 0.814682 0.674635 1 19 1.000000
barracuda
  19 -40.315331 -45.117142 27.894440 -0.382147 -0.160468 0.910062 0.817637 0.676548 1 19 1.000000
  19 -40.315331 -41.963772 27.894436 -0.382150 0.160471 0.910061 0.823714 0.659416 1 19 1.000000
  19 -40.985531 -45.069016 27.621498 -0.382148 -0.160468 0.910062 0.814682 0.674635 1 19 1.000000
barracuda
  19 -40.985531 -45.069016 27.621498 -0.382148 -0.160468 0.910062 0.814682 0.674635 1 19 1.000000
  19 -40.315331 -41.963772 27.894436 -0.382150 0.160471 0.910061 0.823714 0.659416 1 19 1.000000
  19 -40.985531 -42.011902 27.621494 -0.382150 0.160470 0.910061 0.820214 0.659039 1 19 1.000000
barracuda
  19 -40.315331 -41.963772 27.894436 -0.382150 0.160471 0.910061 0.823714 0.659416 1 19 1.000000
  19 -40.315323 -39.000580 26.815914 -0.382146 0.462053 0.800295 0.823239 0.641299 1 19 1.000000
  19 -40.985531 -42.011902 27.621494 -0.382150 0.160470 0.910061 0.820214 0.659039 1 19 1.000000
barracuda
  19 -40.985531 -42.011902 27.621494 -0.382150 0.160470 0.910061 0.820214 0.659039 1 19 1.000000
  19 -40.315323 -39.000580 26.815914 -0.382146 0.462053 0.800295 0.823239 0.641299 1 19 1.000000
  19 -40.985523 -39.139160 26.575899 -0.382145 0.462051 0.800296 0.819863 0.642531 1 19 1.000000
barracuda
  19 -40.315323 -39.000580 26.815914 -0.382146 0.462053 0.800295 0.823239 0.641299 1 19 1.000000
  19 -40.315323 -36.584965 24.788965 -0.382144 0.707902 0.594004 0.817526 0.626030 1 19 1.000000
  19 -40.985523 -39.139160 26.575899 -0.382145 0.462051 0.800296 0.819863 0.642531 1 19 1.000000
end
