// Created by Crowbar 0.74
version 1
nodes
  0 "Rig_Buggy.Frame" -1
  1 "Rig_Buggy.Shock_RR_Sleeve" 0
  2 "Rig_Buggy.Shock_FR_Sleeve" 0
  3 "Rig_Buggy.Axel_RR" 0
  4 "Rig_Buggy.Wheel_RR" 3
  5 "Rig_Buggy.Shock_RR_Piston" 3
  6 "Rig_Buggy.Steer_Arm" 0
  7 "Rig_Buggy.Shock_FL_Sleeve" 0
  8 "Rig_Buggy.Axel_RL" 0
  9 "Rig_Buggy.Wheel_RL" 8
  10 "Rig_Buggy.Shock_RL_Piston" 8
  11 "Rig_Buggy.Shock_RL_Sleeve" 0
  12 "Rig_Buggy.view" 0
  13 "Rig_Buggy.Gun_Base" 0
  14 "Rig_Buggy.Gun_Parent" 13
  15 "Rig_Buggy.Gun" 14
  16 "Rig_Buggy.Speedo" 0
  17 "Rig_Buggy.Wheel_FR_Turn_parent" 0
  18 "Rig_Buggy.Wheel_FR_Turn" 17
  19 "Rig_Buggy.Wheel_FR_Rotate" 18
  20 "Rig_Buggy.Axel_FR" 0
  21 "Rig_Buggy.Shock_FR_Piston" 20
  22 "Rig_Buggy.Wheel_FL_Turn_parent" 0
  23 "Rig_Buggy.Wheel_FL_Turn" 22
  24 "Rig_Buggy.Wheel_FL_Rotate" 23
  25 "Rig_Buggy.Axel_FL" 0
  26 "Rig_Buggy.Shock_FL_Piston" 25
  27 "Rig_Buggy.Steer_Wheel" 0
  28 "Rig_Buggy.lid" 0
  29 "Rig_Buggy.latch" 28
  30 "Rig_Buggy.gun_cylinders" 15
end
skeleton
  time 0
    0 0.000000 35.485321 34.046600 1.570796 0.000000 0.000000
    1 -26.737438 9.978985 -63.177883 0.007403 -0.264986 -1.495672
    2 -26.847315 6.445412 78.520195 0.268794 0.005691 -3.065482
    3 -4.313085 -13.578558 -57.058857 -3.141593 0.000000 -3.141593
    4 38.013966 0.147196 -0.193550 -3.141593 0.000000 3.141593
    5 20.686598 0.469204 -0.164131 -3.110558 -0.264987 1.495673
    6 0.016516 -11.367849 70.181595 0.000000 0.000000 0.000000
    7 26.847315 6.445412 78.520195 2.876405 -0.019503 -0.071313
    8 4.313085 -13.578558 -57.058857 0.000000 0.000000 0.000000
    9 38.013966 0.147198 0.193550 -3.141593 0.000000 -3.141593
    10 20.605600 0.473753 0.167809 -0.024410 0.265136 1.494187
    11 26.690825 9.982029 -63.178234 0.007043 -0.265136 -1.647406
    12 9.429615 20.728470 -11.982517 0.000000 -1.570796 -1.570796
    13 -16.873423 9.784611 52.968445 0.000000 0.000000 0.000000
    14 0.020790 5.827110 -0.224472 0.000000 -1.570796 -1.570796
    15 0.000002 0.000002 0.000000 0.000000 0.000000 0.000000
    16 5.664327 9.038128 28.830690 -1.230457 0.000000 0.000000
    17 -34.710712 -15.133160 78.859528 0.000000 0.000000 0.000000
    18 0.000000 0.217955 -0.009628 0.000000 0.000000 0.000000
    19 -6.579208 0.000000 -0.000004 0.000000 0.000000 0.000000
    20 -14.319742 -15.458982 88.923615 -1.655486 0.445706 -2.888000
    21 11.574886 -2.180904 1.427973 -1.940707 -0.171070 2.830508
    22 34.710712 -15.133160 78.859528 -3.141593 0.000000 3.141593
    23 0.000000 0.217958 0.009628 0.000000 0.000000 0.000000
    24 -6.579208 0.000002 0.000000 0.000000 0.000000 0.000000
    25 14.319742 -15.458982 88.923615 -0.057762 0.445706 -0.253592
    26 11.620373 -2.905371 2.149563 -0.263171 -0.211841 0.098316
    27 8.930669 9.895988 16.516954 -1.178097 0.000000 0.000000
    28 -10.478000 3.596272 -57.675579 0.000000 0.000000 0.000000
    29 20.682631 -0.459137 -0.000008 0.000000 0.000000 0.000000
    30 -8.438859 0.038662 0.559093 1.570796 0.000000 1.570796
end
triangles
barracuda
  9 29.026388 79.115997 20.451838 -0.866203 -0.499692 -0.000005 0.751043 0.737290 1 9 1.000000
  9 29.026396 79.896904 24.880585 -0.866200 -0.469562 0.170910 0.738594 0.752126 1 9 1.000000
  9 29.026388 79.896904 16.023094 -0.866185 -0.469583 -0.170922 0.767816 0.727606 1 9 1.000000
barracuda
  9 29.026402 104.232666 16.023094 -0.866201 0.469563 -0.170901 0.835184 0.807892 1 9 1.000000
  9 29.026394 101.984131 12.128518 -0.866196 0.382797 -0.321201 0.841808 0.789693 1 9 1.000000
  9 29.026398 105.013573 20.451839 -0.866198 0.499700 0.000005 0.822734 0.822729 1 9 1.000000
barracuda
  9 29.026398 105.013573 20.451839 -0.866198 0.499700 0.000005 0.822734 0.822729 1 9 1.000000
  9 29.026394 101.984131 12.128518 -0.866196 0.382797 -0.321201 0.841808 0.789693 1 9 1.000000
  9 29.026402 101.984131 28.775160 -0.866201 0.382786 0.321202 0.786889 0.835775 1 9 1.000000
barracuda
  9 29.026394 101.984131 12.128518 -0.866196 0.382797 -0.321201 0.841808 0.789693 1 9 1.000000
  9 29.026388 79.896904 16.023094 -0.866185 -0.469583 -0.170922 0.767816 0.727606 1 9 1.000000
  9 29.026402 101.984131 28.775160 -0.866201 0.382786 0.321202 0.786889 0.835775 1 9 1.000000
barracuda
  9 29.026398 85.590393 31.665817 -0.866203 -0.249842 0.432748 0.731970 0.789475 1 9 1.000000
  9 29.026402 101.984131 28.775160 -0.866201 0.382786 0.321202 0.786889 0.835775 1 9 1.000000
  9 29.026388 79.896904 16.023094 -0.866185 -0.469583 -0.170922 0.767816 0.727606 1 9 1.000000
barracuda
  9 29.026396 79.896904 24.880585 -0.866200 -0.469562 0.170910 0.738594 0.752126 1 9 1.000000
  9 29.026398 85.590393 31.665817 -0.866203 -0.249842 0.432748 0.731970 0.789475 1 9 1.000000
  9 29.026388 79.896904 16.023094 -0.866185 -0.469583 -0.170922 0.767816 0.727606 1 9 1.000000
barracuda
  9 29.026394 82.145439 28.775158 -0.866204 -0.382788 0.321191 0.731970 0.770543 1 9 1.000000
  9 29.026398 85.590393 31.665817 -0.866203 -0.249842 0.432748 0.731970 0.789475 1 9 1.000000
  9 29.026396 79.896904 24.880585 -0.866200 -0.469562 0.170910 0.738594 0.752126 1 9 1.000000
barracuda
  9 29.026403 104.232666 24.880587 -0.866202 0.469558 0.170911 0.805962 0.832412 1 9 1.000000
  9 29.026398 105.013573 20.451839 -0.866198 0.499700 0.000005 0.822734 0.822729 1 9 1.000000
  9 29.026402 101.984131 28.775160 -0.866201 0.382786 0.321202 0.786889 0.835775 1 9 1.000000
barracuda
  9 29.026402 89.816246 33.203907 -0.866202 -0.086776 0.492102 0.738594 0.807892 1 9 1.000000
  9 29.026405 94.313324 33.203907 -0.866199 0.086768 0.492109 0.751043 0.822729 1 9 1.000000
  9 29.026398 85.590393 31.665817 -0.866203 -0.249842 0.432748 0.731970 0.789475 1 9 1.000000
barracuda
  9 29.026405 94.313324 33.203907 -0.866199 0.086768 0.492109 0.751043 0.822729 1 9 1.000000
  9 29.026402 101.984131 28.775160 -0.866201 0.382786 0.321202 0.786889 0.835775 1 9 1.000000
  9 29.026398 85.590393 31.665817 -0.866203 -0.249842 0.432748 0.731970 0.789475 1 9 1.000000
barracuda
  9 29.026405 98.539185 31.665819 -0.866202 0.249842 0.432751 0.767816 0.832412 1 9 1.000000
  9 29.026402 101.984131 28.775160 -0.866201 0.382786 0.321202 0.786889 0.835775 1 9 1.000000
  9 29.026405 94.313324 33.203907 -0.866199 0.086768 0.492109 0.751043 0.822729 1 9 1.000000
barracuda
  9 29.026394 98.539185 9.237862 -0.866202 0.249852 -0.432746 0.841808 0.770325 1 9 1.000000
  9 29.026390 94.313309 7.699776 -0.866200 0.086769 -0.492107 0.835184 0.752126 1 9 1.000000
  9 29.026394 101.984131 12.128518 -0.866196 0.382797 -0.321201 0.841808 0.789693 1 9 1.000000
barracuda
  9 29.026390 94.313309 7.699776 -0.866200 0.086769 -0.492107 0.835184 0.752126 1 9 1.000000
  9 29.026394 85.590393 9.237861 -0.866203 -0.249840 -0.432749 0.805962 0.727606 1 9 1.000000
  9 29.026394 101.984131 12.128518 -0.866196 0.382797 -0.321201 0.841808 0.789693 1 9 1.000000
barracuda
  9 29.026394 85.590393 9.237861 -0.866203 -0.249840 -0.432749 0.805962 0.727606 1 9 1.000000
  9 29.026388 79.896904 16.023094 -0.866185 -0.469583 -0.170922 0.767816 0.727606 1 9 1.000000
  9 29.026394 101.984131 12.128518 -0.866196 0.382797 -0.321201 0.841808 0.789693 1 9 1.000000
barracuda
  9 29.026390 82.145439 12.128520 -0.866203 -0.382782 -0.321201 0.786889 0.724243 1 9 1.000000
  9 29.026388 79.896904 16.023094 -0.866185 -0.469583 -0.170922 0.767816 0.727606 1 9 1.000000
  9 29.026394 85.590393 9.237861 -0.866203 -0.249840 -0.432749 0.805962 0.727606 1 9 1.000000
barracuda
  9 29.026386 89.816238 7.699775 -0.866204 -0.086765 -0.492101 0.822734 0.737290 1 9 1.000000
  9 29.026394 85.590393 9.237861 -0.866203 -0.249840 -0.432749 0.805962 0.727606 1 9 1.000000
  9 29.026390 94.313309 7.699776 -0.866200 0.086769 -0.492107 0.835184 0.752126 1 9 1.000000
barracuda
  9 41.313709 101.984123 12.128514 0.964560 0.202131 -0.169608 0.848839 0.833158 1 9 1.000000
  9 39.470806 103.417664 10.925639 0.387713 0.706126 -0.592507 0.859584 0.834047 1 9 1.000000
  9 41.313713 104.232658 16.023090 0.964560 0.247952 -0.090245 0.848839 0.806162 1 9 1.000000
barracuda
  9 30.869308 89.491302 35.046818 -0.387712 -0.160066 0.907776 0.909735 0.641060 1 9 1.000000
  9 29.026405 94.313324 33.203907 -0.866199 0.086768 0.492109 0.920481 0.670316 1 9 1.000000
  9 29.026402 89.816246 33.203907 -0.866202 -0.086776 0.492102 0.920481 0.641211 1 9 1.000000
barracuda
  9 30.869312 94.638275 35.046818 -0.387713 0.160064 0.907776 0.909735 0.670467 1 9 1.000000
  9 29.026405 94.313324 33.203907 -0.866199 0.086768 0.492109 0.920481 0.670316 1 9 1.000000
  9 30.869308 89.491302 35.046818 -0.387712 -0.160066 0.907776 0.909735 0.641060 1 9 1.000000
barracuda
  9 30.869312 94.638275 35.046818 -0.387713 0.160064 0.907776 0.909735 0.670467 1 9 1.000000
  9 29.026405 98.539185 31.665819 -0.866202 0.249842 0.432751 0.920481 0.697665 1 9 1.000000
  9 29.026405 94.313324 33.203907 -0.866199 0.086768 0.492109 0.920481 0.670316 1 9 1.000000
barracuda
  9 30.869316 99.474854 33.286449 -0.387711 0.460892 0.798285 0.909735 0.698099 1 9 1.000000
  9 29.026405 98.539185 31.665819 -0.866202 0.249842 0.432751 0.920481 0.697665 1 9 1.000000
  9 30.869312 94.638275 35.046818 -0.387713 0.160064 0.907776 0.909735 0.670467 1 9 1.000000
barracuda
  9 30.869316 99.474854 33.286449 -0.387711 0.460892 0.798285 0.909735 0.698099 1 9 1.000000
  9 29.026402 101.984131 28.775160 -0.866201 0.382786 0.321202 0.920481 0.722707 1 9 1.000000
  9 29.026405 98.539185 31.665819 -0.866202 0.249842 0.432751 0.920481 0.697665 1 9 1.000000
barracuda
  9 30.869316 103.417671 29.978037 -0.387713 0.706124 0.592509 0.909735 0.722456 1 9 1.000000
  9 29.026402 101.984131 28.775160 -0.866201 0.382786 0.321202 0.920481 0.722707 1 9 1.000000
  9 30.869316 99.474854 33.286449 -0.387711 0.460892 0.798285 0.909735 0.698099 1 9 1.000000
barracuda
  9 30.869316 103.417671 29.978037 -0.387713 0.706124 0.592509 0.909735 0.722456 1 9 1.000000
  9 29.026403 104.232666 24.880587 -0.866202 0.469558 0.170911 0.920481 0.748837 1 9 1.000000
  9 29.026402 101.984131 28.775160 -0.866201 0.382786 0.321202 0.920481 0.722707 1 9 1.000000
barracuda
  9 30.869312 105.991150 25.520620 -0.387712 0.866190 0.315268 0.909735 0.748540 1 9 1.000000
  9 29.026403 104.232666 24.880587 -0.866202 0.469558 0.170911 0.920481 0.748837 1 9 1.000000
  9 30.869316 103.417671 29.978037 -0.387713 0.706124 0.592509 0.909735 0.722456 1 9 1.000000
barracuda
  9 30.869312 105.991150 25.520620 -0.387712 0.866190 0.315268 0.909735 0.748540 1 9 1.000000
  9 29.026398 105.013573 20.451839 -0.866198 0.499700 0.000005 0.920481 0.777499 1 9 1.000000
  9 29.026403 104.232666 24.880587 -0.866202 0.469558 0.170911 0.920481 0.748837 1 9 1.000000
barracuda
  9 30.869316 106.884918 20.451838 -0.387711 0.921781 0.000002 0.909735 0.777499 1 9 1.000000
  9 29.026398 105.013573 20.451839 -0.866198 0.499700 0.000005 0.920481 0.777499 1 9 1.000000
  9 30.869312 105.991150 25.520620 -0.387712 0.866190 0.315268 0.909735 0.748540 1 9 1.000000
barracuda
  9 30.869316 106.884918 20.451838 -0.387711 0.921781 0.000002 0.909735 0.777499 1 9 1.000000
  9 29.026402 104.232666 16.023094 -0.866201 0.469563 -0.170901 0.920481 0.806162 1 9 1.000000
  9 29.026398 105.013573 20.451839 -0.866198 0.499700 0.000005 0.920481 0.777499 1 9 1.000000
barracuda
  9 30.869314 105.991150 15.383053 -0.387712 0.866190 -0.315268 0.909735 0.806459 1 9 1.000000
  9 29.026402 104.232666 16.023094 -0.866201 0.469563 -0.170901 0.920481 0.806162 1 9 1.000000
  9 30.869316 106.884918 20.451838 -0.387711 0.921781 0.000002 0.909735 0.777499 1 9 1.000000
barracuda
  9 30.869314 105.991150 15.383053 -0.387712 0.866190 -0.315268 0.909735 0.806459 1 9 1.000000
  9 29.026394 101.984131 12.128518 -0.866196 0.382797 -0.321201 0.920481 0.833158 1 9 1.000000
  9 29.026402 104.232666 16.023094 -0.866201 0.469563 -0.170901 0.920481 0.806162 1 9 1.000000
barracuda
  9 30.869308 103.417664 10.925643 -0.387713 0.706123 -0.592511 0.909735 0.834047 1 9 1.000000
  9 29.026394 101.984131 12.128518 -0.866196 0.382797 -0.321201 0.920481 0.833158 1 9 1.000000
  9 30.869314 105.991150 15.383053 -0.387712 0.866190 -0.315268 0.909735 0.806459 1 9 1.000000
barracuda
  9 30.869308 103.417664 10.925643 -0.387713 0.706123 -0.592511 0.909735 0.834047 1 9 1.000000
  9 30.869314 105.991150 15.383053 -0.387712 0.866190 -0.315268 0.909735 0.806459 1 9 1.000000
  9 39.470806 103.417664 10.925639 0.387713 0.706126 -0.592507 0.859584 0.834047 1 9 1.000000
barracuda
  9 39.470806 103.417664 10.925639 0.387713 0.706126 -0.592507 0.859584 0.834047 1 9 1.000000
  9 30.869314 105.991150 15.383053 -0.387712 0.866190 -0.315268 0.909735 0.806459 1 9 1.000000
  9 39.470798 105.991142 15.383051 0.387712 0.866191 -0.315266 0.859584 0.806459 1 9 1.000000
barracuda
  9 41.313713 104.232658 16.023090 0.964560 0.247952 -0.090245 0.848839 0.806162 1 9 1.000000
  9 39.470806 103.417664 10.925639 0.387713 0.706126 -0.592507 0.859584 0.834047 1 9 1.000000
  9 39.470798 105.991142 15.383051 0.387712 0.866191 -0.315266 0.859584 0.806459 1 9 1.000000
barracuda
  9 41.313713 104.232658 16.023090 0.964560 0.247952 -0.090245 0.848839 0.806162 1 9 1.000000
  9 39.470798 105.991142 15.383051 0.387712 0.866191 -0.315266 0.859584 0.806459 1 9 1.000000
  9 41.313709 105.013565 20.451836 0.964559 0.263865 0.000001 0.848839 0.777499 1 9 1.000000
barracuda
  9 30.869308 84.654716 33.286446 -0.387711 -0.460891 0.798285 0.909735 0.613427 1 9 1.000000
  9 30.869305 80.711906 29.978035 -0.387712 -0.706126 0.592508 0.909735 0.589070 1 9 1.000000
  9 39.470802 84.654709 33.286446 0.387714 -0.460888 0.798286 0.859322 0.613565 1 9 1.000000
barracuda
  9 39.470798 89.491295 35.046822 0.387712 -0.160066 0.907776 0.859725 0.641408 1 9 1.000000
  9 30.869308 84.654716 33.286446 -0.387711 -0.460891 0.798285 0.909735 0.613427 1 9 1.000000
  9 39.470802 84.654709 33.286446 0.387714 -0.460888 0.798286 0.859322 0.613565 1 9 1.000000
barracuda
  9 30.869308 89.491302 35.046818 -0.387712 -0.160066 0.907776 0.909735 0.641060 1 9 1.000000
  9 30.869308 84.654716 33.286446 -0.387711 -0.460891 0.798285 0.909735 0.613427 1 9 1.000000
  9 39.470798 89.491295 35.046822 0.387712 -0.160066 0.907776 0.859725 0.641408 1 9 1.000000
barracuda
  9 39.470802 94.638268 35.046822 0.387713 0.160066 0.907776 0.859725 0.670119 1 9 1.000000
  9 30.869308 89.491302 35.046818 -0.387712 -0.160066 0.907776 0.909735 0.641060 1 9 1.000000
  9 39.470798 89.491295 35.046822 0.387712 -0.160066 0.907776 0.859725 0.641408 1 9 1.000000
barracuda
  9 30.869312 94.638275 35.046818 -0.387713 0.160064 0.907776 0.909735 0.670467 1 9 1.000000
  9 30.869308 89.491302 35.046818 -0.387712 -0.160066 0.907776 0.909735 0.641060 1 9 1.000000
  9 39.470802 94.638268 35.046822 0.387713 0.160066 0.907776 0.859725 0.670119 1 9 1.000000
barracuda
  9 39.470806 99.474846 33.286446 0.387713 0.460891 0.798285 0.859322 0.697962 1 9 1.000000
  9 30.869312 94.638275 35.046818 -0.387713 0.160064 0.907776 0.909735 0.670467 1 9 1.000000
  9 39.470802 94.638268 35.046822 0.387713 0.160066 0.907776 0.859725 0.670119 1 9 1.000000
barracuda
  9 30.869316 99.474854 33.286449 -0.387711 0.460892 0.798285 0.909735 0.698099 1 9 1.000000
  9 30.869312 94.638275 35.046818 -0.387713 0.160064 0.907776 0.909735 0.670467 1 9 1.000000
  9 39.470806 99.474846 33.286446 0.387713 0.460891 0.798285 0.859322 0.697962 1 9 1.000000
barracuda
  9 39.470802 103.417664 29.978035 0.387712 0.706125 0.592509 0.859584 0.722456 1 9 1.000000
  9 30.869316 99.474854 33.286449 -0.387711 0.460892 0.798285 0.909735 0.698099 1 9 1.000000
  9 39.470806 99.474846 33.286446 0.387713 0.460891 0.798285 0.859322 0.697962 1 9 1.000000
barracuda
  9 30.869316 103.417671 29.978037 -0.387713 0.706124 0.592509 0.909735 0.722456 1 9 1.000000
  9 30.869316 99.474854 33.286449 -0.387711 0.460892 0.798285 0.909735 0.698099 1 9 1.000000
  9 39.470802 103.417664 29.978035 0.387712 0.706125 0.592509 0.859584 0.722456 1 9 1.000000
barracuda
  9 39.470802 105.991142 25.520620 0.387712 0.866190 0.315267 0.859584 0.748540 1 9 1.000000
  9 30.869316 103.417671 29.978037 -0.387713 0.706124 0.592509 0.909735 0.722456 1 9 1.000000
  9 39.470802 103.417664 29.978035 0.387712 0.706125 0.592509 0.859584 0.722456 1 9 1.000000
barracuda
  9 30.869312 105.991150 25.520620 -0.387712 0.866190 0.315268 0.909735 0.748540 1 9 1.000000
  9 30.869316 103.417671 29.978037 -0.387713 0.706124 0.592509 0.909735 0.722456 1 9 1.000000
  9 39.470802 105.991142 25.520620 0.387712 0.866190 0.315267 0.859584 0.748540 1 9 1.000000
barracuda
  9 39.470802 106.884911 20.451838 0.387712 0.921780 0.000000 0.859584 0.777499 1 9 1.000000
  9 30.869312 105.991150 25.520620 -0.387712 0.866190 0.315268 0.909735 0.748540 1 9 1.000000
  9 39.470802 105.991142 25.520620 0.387712 0.866190 0.315267 0.859584 0.748540 1 9 1.000000
barracuda
  9 30.869316 106.884918 20.451838 -0.387711 0.921781 0.000002 0.909735 0.777499 1 9 1.000000
  9 30.869312 105.991150 25.520620 -0.387712 0.866190 0.315268 0.909735 0.748540 1 9 1.000000
  9 39.470802 106.884911 20.451838 0.387712 0.921780 0.000000 0.859584 0.777499 1 9 1.000000
barracuda
  9 39.470798 105.991142 15.383051 0.387712 0.866191 -0.315266 0.859584 0.806459 1 9 1.000000
  9 30.869316 106.884918 20.451838 -0.387711 0.921781 0.000002 0.909735 0.777499 1 9 1.000000
  9 39.470802 106.884911 20.451838 0.387712 0.921780 0.000000 0.859584 0.777499 1 9 1.000000
barracuda
  9 30.869314 105.991150 15.383053 -0.387712 0.866190 -0.315268 0.909735 0.806459 1 9 1.000000
  9 30.869316 106.884918 20.451838 -0.387711 0.921781 0.000002 0.909735 0.777499 1 9 1.000000
  9 39.470798 105.991142 15.383051 0.387712 0.866191 -0.315266 0.859584 0.806459 1 9 1.000000
barracuda
  9 41.313709 105.013565 20.451836 0.964559 0.263865 0.000001 0.848839 0.777499 1 9 1.000000
  9 39.470798 105.991142 15.383051 0.387712 0.866191 -0.315266 0.859584 0.806459 1 9 1.000000
  9 39.470802 106.884911 20.451838 0.387712 0.921780 0.000000 0.859584 0.777499 1 9 1.000000
barracuda
  9 41.313709 105.013565 20.451836 0.964559 0.263865 0.000001 0.848839 0.777499 1 9 1.000000
  9 39.470802 106.884911 20.451838 0.387712 0.921780 0.000000 0.859584 0.777499 1 9 1.000000
  9 41.313713 104.232658 24.880581 0.964559 0.247952 0.090248 0.848839 0.748837 1 9 1.000000
barracuda
  9 41.313713 104.232658 24.880581 0.964559 0.247952 0.090248 0.848839 0.748837 1 9 1.000000
  9 39.470802 106.884911 20.451838 0.387712 0.921780 0.000000 0.859584 0.777499 1 9 1.000000
  9 39.470802 105.991142 25.520620 0.387712 0.866190 0.315267 0.859584 0.748540 1 9 1.000000
barracuda
  9 41.313713 104.232658 24.880581 0.964559 0.247952 0.090248 0.848839 0.748837 1 9 1.000000
  9 39.470802 105.991142 25.520620 0.387712 0.866190 0.315267 0.859584 0.748540 1 9 1.000000
  9 41.313721 101.984131 28.775158 0.964560 0.202131 0.169609 0.848839 0.722707 1 9 1.000000
barracuda
  9 41.313721 101.984131 28.775158 0.964560 0.202131 0.169609 0.848839 0.722707 1 9 1.000000
  9 39.470802 105.991142 25.520620 0.387712 0.866190 0.315267 0.859584 0.748540 1 9 1.000000
  9 39.470802 103.417664 29.978035 0.387712 0.706125 0.592509 0.859584 0.722456 1 9 1.000000
barracuda
  9 41.313721 101.984131 28.775158 0.964560 0.202131 0.169609 0.848839 0.722707 1 9 1.000000
  9 39.470802 103.417664 29.978035 0.387712 0.706125 0.592509 0.859584 0.722456 1 9 1.000000
  9 41.313713 98.539177 31.665810 0.964560 0.131929 0.228513 0.848482 0.697268 1 9 1.000000
barracuda
  9 41.313713 98.539177 31.665810 0.964560 0.131929 0.228513 0.848482 0.697268 1 9 1.000000
  9 39.470802 103.417664 29.978035 0.387712 0.706125 0.592509 0.859584 0.722456 1 9 1.000000
  9 39.470806 99.474846 33.286446 0.387713 0.460891 0.798285 0.859322 0.697962 1 9 1.000000
barracuda
  9 41.313713 98.539177 31.665810 0.964560 0.131929 0.228513 0.848482 0.697268 1 9 1.000000
  9 39.470806 99.474846 33.286446 0.387713 0.460891 0.798285 0.859322 0.697962 1 9 1.000000
  9 41.313717 94.313316 33.203903 0.964560 0.045818 0.259855 0.848950 0.669926 1 9 1.000000
barracuda
  9 41.313717 94.313316 33.203903 0.964560 0.045818 0.259855 0.848950 0.669926 1 9 1.000000
  9 39.470806 99.474846 33.286446 0.387713 0.460891 0.798285 0.859322 0.697962 1 9 1.000000
  9 39.470802 94.638268 35.046822 0.387713 0.160066 0.907776 0.859725 0.670119 1 9 1.000000
barracuda
  9 41.313717 94.313316 33.203903 0.964560 0.045818 0.259855 0.848950 0.669926 1 9 1.000000
  9 39.470802 94.638268 35.046822 0.387713 0.160066 0.907776 0.859725 0.670119 1 9 1.000000
  9 41.313713 89.816246 33.203903 0.964560 -0.045822 0.259855 0.848952 0.641752 1 9 1.000000
barracuda
  9 41.313713 89.816246 33.203903 0.964560 -0.045822 0.259855 0.848952 0.641752 1 9 1.000000
  9 39.470802 94.638268 35.046822 0.387713 0.160066 0.907776 0.859725 0.670119 1 9 1.000000
  9 39.470798 89.491295 35.046822 0.387712 -0.160066 0.907776 0.859725 0.641408 1 9 1.000000
barracuda
  9 41.313713 89.816246 33.203903 0.964560 -0.045822 0.259855 0.848952 0.641752 1 9 1.000000
  9 39.470798 89.491295 35.046822 0.387712 -0.160066 0.907776 0.859725 0.641408 1 9 1.000000
  9 41.313709 85.590393 31.665817 0.964560 -0.131933 0.228513 0.848476 0.614343 1 9 1.000000
barracuda
  9 41.313709 85.590393 31.665817 0.964560 -0.131933 0.228513 0.848476 0.614343 1 9 1.000000
  9 39.470798 89.491295 35.046822 0.387712 -0.160066 0.907776 0.859725 0.641408 1 9 1.000000
  9 39.470802 84.654709 33.286446 0.387714 -0.460888 0.798286 0.859322 0.613565 1 9 1.000000
barracuda
  9 41.313709 85.590393 31.665817 0.964560 -0.131933 0.228513 0.848476 0.614343 1 9 1.000000
  9 39.470802 84.654709 33.286446 0.387714 -0.460888 0.798286 0.859322 0.613565 1 9 1.000000
  9 41.313709 82.145432 28.775158 0.964559 -0.202124 0.169621 0.848842 0.588585 1 9 1.000000
barracuda
  9 41.313709 82.145432 28.775158 0.964559 -0.202124 0.169621 0.848842 0.588585 1 9 1.000000
  9 39.470802 84.654709 33.286446 0.387714 -0.460888 0.798286 0.859322 0.613565 1 9 1.000000
  9 39.470795 80.711899 29.978035 0.387712 -0.706124 0.592510 0.859584 0.589070 1 9 1.000000
barracuda
  9 41.313709 82.145432 28.775158 0.964559 -0.202124 0.169621 0.848842 0.588585 1 9 1.000000
  9 39.470795 80.711899 29.978035 0.387712 -0.706124 0.592510 0.859584 0.589070 1 9 1.000000
  9 41.313705 79.896896 24.880581 0.964560 -0.247953 0.090244 0.848839 0.562690 1 9 1.000000
barracuda
  9 41.313705 79.896896 24.880581 0.964560 -0.247953 0.090244 0.848839 0.562690 1 9 1.000000
  9 39.470795 80.711899 29.978035 0.387712 -0.706124 0.592510 0.859584 0.589070 1 9 1.000000
  9 39.470795 78.138405 25.520618 0.387713 -0.866190 0.315269 0.859584 0.562987 1 9 1.000000
barracuda
  9 41.313705 79.896896 24.880581 0.964560 -0.247953 0.090244 0.848839 0.562690 1 9 1.000000
  9 39.470795 78.138405 25.520618 0.387713 -0.866190 0.315269 0.859584 0.562987 1 9 1.000000
  9 41.313702 79.115990 20.451832 0.964559 -0.263866 -0.000002 0.848839 0.534027 1 9 1.000000
barracuda
  9 30.869305 99.474846 7.617231 -0.387713 0.460891 -0.798285 0.909735 0.369956 1 9 1.000000
  9 29.026390 94.313309 7.699776 -0.866200 0.086769 -0.492107 0.920481 0.397739 1 9 1.000000
  9 29.026394 98.539185 9.237862 -0.866202 0.249852 -0.432746 0.920481 0.370390 1 9 1.000000
barracuda
  9 30.869301 94.638275 5.856862 -0.387713 0.160066 -0.907776 0.909735 0.397589 1 9 1.000000
  9 29.026390 94.313309 7.699776 -0.866200 0.086769 -0.492107 0.920481 0.397739 1 9 1.000000
  9 30.869305 99.474846 7.617231 -0.387713 0.460891 -0.798285 0.909735 0.369956 1 9 1.000000
barracuda
  9 30.869301 94.638275 5.856862 -0.387713 0.160066 -0.907776 0.909735 0.397589 1 9 1.000000
  9 30.869305 99.474846 7.617231 -0.387713 0.460891 -0.798285 0.909735 0.369956 1 9 1.000000
  9 39.470798 94.638268 5.856859 0.387712 0.160065 -0.907777 0.859584 0.397589 1 9 1.000000
barracuda
  9 39.470795 89.491287 5.856859 0.387712 -0.160067 -0.907776 0.859584 0.426995 1 9 1.000000
  9 30.869301 94.638275 5.856862 -0.387713 0.160066 -0.907776 0.909735 0.397589 1 9 1.000000
  9 39.470798 94.638268 5.856859 0.387712 0.160065 -0.907777 0.859584 0.397589 1 9 1.000000
barracuda
  9 30.869301 89.491295 5.856862 -0.387712 -0.160066 -0.907776 0.909735 0.426995 1 9 1.000000
  9 30.869301 94.638275 5.856862 -0.387713 0.160066 -0.907776 0.909735 0.397589 1 9 1.000000
  9 39.470795 89.491287 5.856859 0.387712 -0.160067 -0.907776 0.859584 0.426995 1 9 1.000000
barracuda
  9 39.470787 84.654709 7.617226 0.387711 -0.460892 -0.798285 0.859584 0.454627 1 9 1.000000
  9 30.869301 89.491295 5.856862 -0.387712 -0.160066 -0.907776 0.909735 0.426995 1 9 1.000000
  9 39.470795 89.491287 5.856859 0.387712 -0.160067 -0.907776 0.859584 0.426995 1 9 1.000000
barracuda
  9 30.869297 84.654716 7.617229 -0.387713 -0.460891 -0.798285 0.909735 0.454627 1 9 1.000000
  9 30.869301 89.491295 5.856862 -0.387712 -0.160066 -0.907776 0.909735 0.426995 1 9 1.000000
  9 39.470787 84.654709 7.617226 0.387711 -0.460892 -0.798285 0.859584 0.454627 1 9 1.000000
barracuda
  9 39.470787 80.711899 10.925643 0.387711 -0.706125 -0.592509 0.859584 0.478985 1 9 1.000000
  9 30.869297 84.654716 7.617229 -0.387713 -0.460891 -0.798285 0.909735 0.454627 1 9 1.000000
  9 39.470787 84.654709 7.617226 0.387711 -0.460892 -0.798285 0.859584 0.454627 1 9 1.000000
barracuda
  9 30.869297 80.711906 10.925647 -0.387713 -0.706124 -0.592509 0.909735 0.478985 1 9 1.000000
  9 30.869297 84.654716 7.617229 -0.387713 -0.460891 -0.798285 0.909735 0.454627 1 9 1.000000
  9 39.470787 80.711899 10.925643 0.387711 -0.706125 -0.592509 0.859584 0.478985 1 9 1.000000
barracuda
  9 39.470795 78.138405 15.383053 0.387713 -0.866190 -0.315266 0.859584 0.505068 1 9 1.000000
  9 30.869297 80.711906 10.925647 -0.387713 -0.706124 -0.592509 0.909735 0.478985 1 9 1.000000
  9 39.470787 80.711899 10.925643 0.387711 -0.706125 -0.592509 0.859584 0.478985 1 9 1.000000
barracuda
  9 30.869297 78.138412 15.383055 -0.387713 -0.866190 -0.315268 0.909735 0.505068 1 9 1.000000
  9 30.869297 80.711906 10.925647 -0.387713 -0.706124 -0.592509 0.909735 0.478985 1 9 1.000000
  9 39.470795 78.138405 15.383053 0.387713 -0.866190 -0.315266 0.859584 0.505068 1 9 1.000000
barracuda
  9 39.470791 77.244652 20.451834 0.387712 -0.921780 0.000002 0.859584 0.534027 1 9 1.000000
  9 30.869297 78.138412 15.383055 -0.387713 -0.866190 -0.315268 0.909735 0.505068 1 9 1.000000
  9 39.470795 78.138405 15.383053 0.387713 -0.866190 -0.315266 0.859584 0.505068 1 9 1.000000
barracuda
  9 30.869303 77.244659 20.451836 -0.387713 -0.921780 0.000001 0.909735 0.534027 1 9 1.000000
  9 30.869297 78.138412 15.383055 -0.387713 -0.866190 -0.315268 0.909735 0.505068 1 9 1.000000
  9 39.470791 77.244652 20.451834 0.387712 -0.921780 0.000002 0.859584 0.534027 1 9 1.000000
barracuda
  9 39.470795 78.138405 25.520618 0.387713 -0.866190 0.315269 0.859584 0.562987 1 9 1.000000
  9 30.869303 77.244659 20.451836 -0.387713 -0.921780 0.000001 0.909735 0.534027 1 9 1.000000
  9 39.470791 77.244652 20.451834 0.387712 -0.921780 0.000002 0.859584 0.534027 1 9 1.000000
barracuda
  9 30.869301 78.138412 25.520618 -0.387714 -0.866190 0.315267 0.909735 0.562987 1 9 1.000000
  9 30.869303 77.244659 20.451836 -0.387713 -0.921780 0.000001 0.909735 0.534027 1 9 1.000000
  9 39.470795 78.138405 25.520618 0.387713 -0.866190 0.315269 0.859584 0.562987 1 9 1.000000
barracuda
  9 39.470795 80.711899 29.978035 0.387712 -0.706124 0.592510 0.859584 0.589070 1 9 1.000000
  9 30.869301 78.138412 25.520618 -0.387714 -0.866190 0.315267 0.909735 0.562987 1 9 1.000000
  9 39.470795 78.138405 25.520618 0.387713 -0.866190 0.315269 0.859584 0.562987 1 9 1.000000
barracuda
  9 30.869305 80.711906 29.978035 -0.387712 -0.706126 0.592508 0.909735 0.589070 1 9 1.000000
  9 30.869301 78.138412 25.520618 -0.387714 -0.866190 0.315267 0.909735 0.562987 1 9 1.000000
  9 39.470795 80.711899 29.978035 0.387712 -0.706124 0.592510 0.859584 0.589070 1 9 1.000000
barracuda
  9 39.470802 84.654709 33.286446 0.387714 -0.460888 0.798286 0.859322 0.613565 1 9 1.000000
  9 30.869305 80.711906 29.978035 -0.387712 -0.706126 0.592508 0.909735 0.589070 1 9 1.000000
  9 39.470795 80.711899 29.978035 0.387712 -0.706124 0.592510 0.859584 0.589070 1 9 1.000000
barracuda
  9 30.869301 94.638275 5.856862 -0.387713 0.160066 -0.907776 0.909735 0.397589 1 9 1.000000
  9 29.026386 89.816238 7.699775 -0.866204 -0.086765 -0.492101 0.920481 0.426844 1 9 1.000000
  9 29.026390 94.313309 7.699776 -0.866200 0.086769 -0.492107 0.920481 0.397739 1 9 1.000000
barracuda
  9 30.869301 89.491295 5.856862 -0.387712 -0.160066 -0.907776 0.909735 0.426995 1 9 1.000000
  9 29.026386 89.816238 7.699775 -0.866204 -0.086765 -0.492101 0.920481 0.426844 1 9 1.000000
  9 30.869301 94.638275 5.856862 -0.387713 0.160066 -0.907776 0.909735 0.397589 1 9 1.000000
barracuda
  9 30.869301 89.491295 5.856862 -0.387712 -0.160066 -0.907776 0.909735 0.426995 1 9 1.000000
  9 29.026394 85.590393 9.237861 -0.866203 -0.249840 -0.432749 0.920481 0.454193 1 9 1.000000
  9 29.026386 89.816238 7.699775 -0.866204 -0.086765 -0.492101 0.920481 0.426844 1 9 1.000000
barracuda
  9 30.869297 84.654716 7.617229 -0.387713 -0.460891 -0.798285 0.909735 0.454627 1 9 1.000000
  9 29.026394 85.590393 9.237861 -0.866203 -0.249840 -0.432749 0.920481 0.454193 1 9 1.000000
  9 30.869301 89.491295 5.856862 -0.387712 -0.160066 -0.907776 0.909735 0.426995 1 9 1.000000
barracuda
  9 30.869297 84.654716 7.617229 -0.387713 -0.460891 -0.798285 0.909735 0.454627 1 9 1.000000
  9 29.026390 82.145439 12.128520 -0.866203 -0.382782 -0.321201 0.920481 0.479235 1 9 1.000000
  9 29.026394 85.590393 9.237861 -0.866203 -0.249840 -0.432749 0.920481 0.454193 1 9 1.000000
barracuda
  9 30.869297 80.711906 10.925647 -0.387713 -0.706124 -0.592509 0.909735 0.478985 1 9 1.000000
  9 29.026390 82.145439 12.128520 -0.866203 -0.382782 -0.321201 0.920481 0.479235 1 9 1.000000
  9 30.869297 84.654716 7.617229 -0.387713 -0.460891 -0.798285 0.909735 0.454627 1 9 1.000000
barracuda
  9 30.869297 80.711906 10.925647 -0.387713 -0.706124 -0.592509 0.909735 0.478985 1 9 1.000000
  9 29.026388 79.896904 16.023094 -0.866185 -0.469583 -0.170922 0.920481 0.505365 1 9 1.000000
  9 29.026390 82.145439 12.128520 -0.866203 -0.382782 -0.321201 0.920481 0.479235 1 9 1.000000
barracuda
  9 30.869297 78.138412 15.383055 -0.387713 -0.866190 -0.315268 0.909735 0.505068 1 9 1.000000
  9 29.026388 79.896904 16.023094 -0.866185 -0.469583 -0.170922 0.920481 0.505365 1 9 1.000000
  9 30.869297 80.711906 10.925647 -0.387713 -0.706124 -0.592509 0.909735 0.478985 1 9 1.000000
barracuda
  9 29.026388 79.896904 16.023094 -0.866185 -0.469583 -0.170922 0.920481 0.505365 1 9 1.000000
  9 30.869297 78.138412 15.383055 -0.387713 -0.866190 -0.315268 0.909735 0.505068 1 9 1.000000
  9 29.026388 79.115997 20.451838 -0.866203 -0.499692 -0.000005 0.920481 0.534027 1 9 1.000000
barracuda
  9 29.026388 79.115997 20.451838 -0.866203 -0.499692 -0.000005 0.920481 0.534027 1 9 1.000000
  9 30.869297 78.138412 15.383055 -0.387713 -0.866190 -0.315268 0.909735 0.505068 1 9 1.000000
  9 30.869303 77.244659 20.451836 -0.387713 -0.921780 0.000001 0.909735 0.534027 1 9 1.000000
barracuda
  9 30.869303 77.244659 20.451836 -0.387713 -0.921780 0.000001 0.909735 0.534027 1 9 1.000000
  9 29.026396 79.896904 24.880585 -0.866200 -0.469562 0.170910 0.920481 0.562690 1 9 1.000000
  9 29.026388 79.115997 20.451838 -0.866203 -0.499692 -0.000005 0.920481 0.534027 1 9 1.000000
barracuda
  9 30.869301 78.138412 25.520618 -0.387714 -0.866190 0.315267 0.909735 0.562987 1 9 1.000000
  9 29.026396 79.896904 24.880585 -0.866200 -0.469562 0.170910 0.920481 0.562690 1 9 1.000000
  9 30.869303 77.244659 20.451836 -0.387713 -0.921780 0.000001 0.909735 0.534027 1 9 1.000000
barracuda
  9 30.869301 78.138412 25.520618 -0.387714 -0.866190 0.315267 0.909735 0.562987 1 9 1.000000
  9 29.026394 82.145439 28.775158 -0.866204 -0.382788 0.321191 0.920481 0.588525 1 9 1.000000
  9 29.026396 79.896904 24.880585 -0.866200 -0.469562 0.170910 0.920481 0.562690 1 9 1.000000
barracuda
  9 30.869305 80.711906 29.978035 -0.387712 -0.706126 0.592508 0.909735 0.589070 1 9 1.000000
  9 29.026394 82.145439 28.775158 -0.866204 -0.382788 0.321191 0.920481 0.588525 1 9 1.000000
  9 30.869301 78.138412 25.520618 -0.387714 -0.866190 0.315267 0.909735 0.562987 1 9 1.000000
barracuda
  9 30.869305 80.711906 29.978035 -0.387712 -0.706126 0.592508 0.909735 0.589070 1 9 1.000000
  9 29.026398 85.590393 31.665817 -0.866203 -0.249842 0.432748 0.920481 0.614156 1 9 1.000000
  9 29.026394 82.145439 28.775158 -0.866204 -0.382788 0.321191 0.920481 0.588525 1 9 1.000000
barracuda
  9 30.869308 84.654716 33.286446 -0.387711 -0.460891 0.798285 0.909735 0.613427 1 9 1.000000
  9 29.026398 85.590393 31.665817 -0.866203 -0.249842 0.432748 0.920481 0.614156 1 9 1.000000
  9 30.869305 80.711906 29.978035 -0.387712 -0.706126 0.592508 0.909735 0.589070 1 9 1.000000
barracuda
  9 30.869308 84.654716 33.286446 -0.387711 -0.460891 0.798285 0.909735 0.613427 1 9 1.000000
  9 29.026402 89.816246 33.203907 -0.866202 -0.086776 0.492102 0.920481 0.641211 1 9 1.000000
  9 29.026398 85.590393 31.665817 -0.866203 -0.249842 0.432748 0.920481 0.614156 1 9 1.000000
barracuda
  9 30.869308 89.491302 35.046818 -0.387712 -0.160066 0.907776 0.909735 0.641060 1 9 1.000000
  9 29.026402 89.816246 33.203907 -0.866202 -0.086776 0.492102 0.920481 0.641211 1 9 1.000000
  9 30.869308 84.654716 33.286446 -0.387711 -0.460891 0.798285 0.909735 0.613427 1 9 1.000000
barracuda
  9 41.313702 79.115990 20.451832 0.964559 -0.263866 -0.000002 0.848839 0.534027 1 9 1.000000
  9 39.470795 78.138405 25.520618 0.387713 -0.866190 0.315269 0.859584 0.562987 1 9 1.000000
  9 39.470791 77.244652 20.451834 0.387712 -0.921780 0.000002 0.859584 0.534027 1 9 1.000000
barracuda
  9 39.470791 77.244652 20.451834 0.387712 -0.921780 0.000002 0.859584 0.534027 1 9 1.000000
  9 41.313702 79.896896 16.023090 0.964560 -0.247951 -0.090247 0.848839 0.505365 1 9 1.000000
  9 41.313702 79.115990 20.451832 0.964559 -0.263866 -0.000002 0.848839 0.534027 1 9 1.000000
barracuda
  9 39.470795 78.138405 15.383053 0.387713 -0.866190 -0.315266 0.859584 0.505068 1 9 1.000000
  9 41.313702 79.896896 16.023090 0.964560 -0.247951 -0.090247 0.848839 0.505365 1 9 1.000000
  9 39.470791 77.244652 20.451834 0.387712 -0.921780 0.000002 0.859584 0.534027 1 9 1.000000
barracuda
  9 41.313702 79.896896 16.023090 0.964560 -0.247951 -0.090247 0.848839 0.505365 1 9 1.000000
  9 39.470795 78.138405 15.383053 0.387713 -0.866190 -0.315266 0.859584 0.505068 1 9 1.000000
  9 41.313702 82.145432 12.128515 0.964559 -0.202133 -0.169612 0.848839 0.479235 1 9 1.000000
barracuda
  9 41.313702 82.145432 12.128515 0.964559 -0.202133 -0.169612 0.848839 0.479235 1 9 1.000000
  9 39.470795 78.138405 15.383053 0.387713 -0.866190 -0.315266 0.859584 0.505068 1 9 1.000000
  9 39.470787 80.711899 10.925643 0.387711 -0.706125 -0.592509 0.859584 0.478985 1 9 1.000000
barracuda
  9 41.313702 82.145432 12.128515 0.964559 -0.202133 -0.169612 0.848839 0.479235 1 9 1.000000
  9 39.470787 80.711899 10.925643 0.387711 -0.706125 -0.592509 0.859584 0.478985 1 9 1.000000
  9 41.313705 85.590393 9.237856 0.964560 -0.131933 -0.228514 0.848839 0.454193 1 9 1.000000
barracuda
  9 41.313705 85.590393 9.237856 0.964560 -0.131933 -0.228514 0.848839 0.454193 1 9 1.000000
  9 39.470787 80.711899 10.925643 0.387711 -0.706125 -0.592509 0.859584 0.478985 1 9 1.000000
  9 39.470787 84.654709 7.617226 0.387711 -0.460892 -0.798285 0.859584 0.454627 1 9 1.000000
barracuda
  9 41.313705 85.590393 9.237856 0.964560 -0.131933 -0.228514 0.848839 0.454193 1 9 1.000000
  9 39.470787 84.654709 7.617226 0.387711 -0.460892 -0.798285 0.859584 0.454627 1 9 1.000000
  9 41.313705 89.816238 7.699770 0.964560 -0.045820 -0.259856 0.848839 0.426844 1 9 1.000000
barracuda
  9 41.313705 89.816238 7.699770 0.964560 -0.045820 -0.259856 0.848839 0.426844 1 9 1.000000
  9 39.470787 84.654709 7.617226 0.387711 -0.460892 -0.798285 0.859584 0.454627 1 9 1.000000
  9 39.470795 89.491287 5.856859 0.387712 -0.160067 -0.907776 0.859584 0.426995 1 9 1.000000
barracuda
  9 41.313705 89.816238 7.699770 0.964560 -0.045820 -0.259856 0.848839 0.426844 1 9 1.000000
  9 39.470795 89.491287 5.856859 0.387712 -0.160067 -0.907776 0.859584 0.426995 1 9 1.000000
  9 41.313709 94.313309 7.699771 0.964560 0.045820 -0.259856 0.848839 0.397739 1 9 1.000000
barracuda
  9 41.313709 94.313309 7.699771 0.964560 0.045820 -0.259856 0.848839 0.397739 1 9 1.000000
  9 39.470795 89.491287 5.856859 0.387712 -0.160067 -0.907776 0.859584 0.426995 1 9 1.000000
  9 39.470798 94.638268 5.856859 0.387712 0.160065 -0.907777 0.859584 0.397589 1 9 1.000000
barracuda
  9 41.313709 94.313309 7.699771 0.964560 0.045820 -0.259856 0.848839 0.397739 1 9 1.000000
  9 39.470798 94.638268 5.856859 0.387712 0.160065 -0.907777 0.859584 0.397589 1 9 1.000000
  9 41.313709 98.539177 9.237857 0.964559 0.131933 -0.228514 0.848839 0.370390 1 9 1.000000
barracuda
  9 41.313709 98.539177 9.237857 0.964559 0.131933 -0.228514 0.848839 0.370390 1 9 1.000000
  9 39.470798 94.638268 5.856859 0.387712 0.160065 -0.907777 0.859584 0.397589 1 9 1.000000
  9 39.470795 99.474838 7.617228 0.387711 0.460890 -0.798286 0.859584 0.369956 1 9 1.000000
barracuda
  9 41.313709 98.539177 9.237857 0.964559 0.131933 -0.228514 0.848839 0.370390 1 9 1.000000
  9 39.470795 99.474838 7.617228 0.387711 0.460890 -0.798286 0.859584 0.369956 1 9 1.000000
  9 41.313709 101.984123 12.128514 0.964560 0.202131 -0.169608 0.848839 0.344483 1 9 1.000000
barracuda
  9 41.313709 101.984123 12.128514 0.964560 0.202131 -0.169608 0.848839 0.344483 1 9 1.000000
  9 39.470795 99.474838 7.617228 0.387711 0.460890 -0.798286 0.859584 0.369956 1 9 1.000000
  9 39.470806 103.417664 10.925639 0.387713 0.706126 -0.592507 0.859584 0.344343 1 9 1.000000
barracuda
  9 39.470795 99.474838 7.617228 0.387711 0.460890 -0.798286 0.859584 0.369956 1 9 1.000000
  9 30.869308 103.417664 10.925643 -0.387713 0.706123 -0.592511 0.909735 0.344343 1 9 1.000000
  9 39.470806 103.417664 10.925639 0.387713 0.706126 -0.592507 0.859584 0.344343 1 9 1.000000
barracuda
  9 30.869305 99.474846 7.617231 -0.387713 0.460891 -0.798285 0.909735 0.369956 1 9 1.000000
  9 30.869308 103.417664 10.925643 -0.387713 0.706123 -0.592511 0.909735 0.344343 1 9 1.000000
  9 39.470795 99.474838 7.617228 0.387711 0.460890 -0.798286 0.859584 0.369956 1 9 1.000000
barracuda
  9 30.869305 99.474846 7.617231 -0.387713 0.460891 -0.798285 0.909735 0.369956 1 9 1.000000
  9 29.026394 98.539185 9.237862 -0.866202 0.249852 -0.432746 0.920481 0.370390 1 9 1.000000
  9 30.869308 103.417664 10.925643 -0.387713 0.706123 -0.592511 0.909735 0.344343 1 9 1.000000
barracuda
  9 39.470798 94.638268 5.856859 0.387712 0.160065 -0.907777 0.859584 0.397589 1 9 1.000000
  9 30.869305 99.474846 7.617231 -0.387713 0.460891 -0.798285 0.909735 0.369956 1 9 1.000000
  9 39.470795 99.474838 7.617228 0.387711 0.460890 -0.798286 0.859584 0.369956 1 9 1.000000
barracuda
  9 30.869308 103.417664 10.925643 -0.387713 0.706123 -0.592511 0.909735 0.344343 1 9 1.000000
  9 29.026394 98.539185 9.237862 -0.866202 0.249852 -0.432746 0.920481 0.370390 1 9 1.000000
  9 29.026394 101.984131 12.128518 -0.866196 0.382797 -0.321201 0.920481 0.344483 1 9 1.000000
barracuda
  9 40.367207 85.109291 26.288189 0.971357 0.182032 -0.152744 0.817526 0.626030 1 9 1.000000
  9 41.313705 79.896896 24.880581 0.964560 -0.247953 0.090244 0.819551 0.597136 1 9 1.000000
  9 40.367207 83.532600 23.557295 0.971356 0.223296 -0.081274 0.806622 0.613187 1 9 1.000000
barracuda
  9 41.313705 79.896896 24.880581 0.964560 -0.247953 0.090244 0.819551 0.597136 1 9 1.000000
  9 41.313702 79.115990 20.451832 0.964559 -0.263866 -0.000002 0.797776 0.584707 1 9 1.000000
  9 40.367207 83.532600 23.557295 0.971356 0.223296 -0.081274 0.806622 0.613187 1 9 1.000000
barracuda
  9 40.367207 83.532600 23.557295 0.971356 0.223296 -0.081274 0.806622 0.613187 1 9 1.000000
  9 41.313702 79.115990 20.451832 0.964559 -0.263866 -0.000002 0.797776 0.584707 1 9 1.000000
  9 40.367203 82.985031 20.451834 0.971356 0.237627 0.000000 0.790900 0.604090 1 9 1.000000
barracuda
  9 41.313702 79.115990 20.451832 0.964559 -0.263866 -0.000002 0.797776 0.584707 1 9 1.000000
  9 41.313702 79.896896 16.023090 0.964560 -0.247951 -0.090247 0.773036 0.580635 1 9 1.000000
  9 40.367203 82.985031 20.451834 0.971356 0.237627 0.000000 0.790900 0.604090 1 9 1.000000
barracuda
  9 40.367203 82.985031 20.451834 0.971356 0.237627 0.000000 0.790900 0.604090 1 9 1.000000
  9 41.313702 79.896896 16.023090 0.964560 -0.247951 -0.090247 0.773036 0.580635 1 9 1.000000
  9 40.367199 83.532600 17.346376 0.971356 0.223297 0.081274 0.772960 0.601246 1 9 1.000000
barracuda
  9 41.313702 79.896896 16.023090 0.964560 -0.247951 -0.090247 0.773036 0.580635 1 9 1.000000
  9 41.313702 82.145432 12.128515 0.964559 -0.202133 -0.169612 0.749359 0.584892 1 9 1.000000
  9 40.367199 83.532600 17.346376 0.971356 0.223297 0.081274 0.772960 0.601246 1 9 1.000000
barracuda
  9 40.367199 83.532600 17.346376 0.971356 0.223297 0.081274 0.772960 0.601246 1 9 1.000000
  9 41.313702 82.145432 12.128515 0.964559 -0.202133 -0.169612 0.749359 0.584892 1 9 1.000000
  9 40.367207 85.109291 14.615481 0.971356 0.182033 0.152745 0.756400 0.604346 1 9 1.000000
barracuda
  9 41.313702 82.145432 12.128515 0.964559 -0.202133 -0.169612 0.749359 0.584892 1 9 1.000000
  9 41.313705 85.590393 9.237856 0.964560 -0.131933 -0.228514 0.728659 0.597115 1 9 1.000000
  9 40.367207 85.109291 14.615481 0.971356 0.182033 0.152745 0.756400 0.604346 1 9 1.000000
barracuda
  9 40.367207 85.109291 14.615481 0.971356 0.182033 0.152745 0.756400 0.604346 1 9 1.000000
  9 41.313705 85.590393 9.237856 0.964560 -0.131933 -0.228514 0.728659 0.597115 1 9 1.000000
  9 40.367199 87.524902 12.588534 0.971356 0.118815 0.205792 0.742341 0.612601 1 9 1.000000
barracuda
  9 41.313705 85.590393 9.237856 0.964560 -0.131933 -0.228514 0.728659 0.597115 1 9 1.000000
  9 41.313705 89.816238 7.699770 0.964560 -0.045820 -0.259856 0.712591 0.616335 1 9 1.000000
  9 40.367199 87.524902 12.588534 0.971356 0.118815 0.205792 0.742341 0.612601 1 9 1.000000
barracuda
  9 40.367199 87.524902 12.588534 0.971356 0.118815 0.205792 0.742341 0.612601 1 9 1.000000
  9 41.313705 89.816238 7.699770 0.964560 -0.045820 -0.259856 0.712591 0.616335 1 9 1.000000
  9 40.367203 90.488098 11.510018 0.971356 0.041262 0.234018 0.730555 0.626369 1 9 1.000000
barracuda
  9 41.313705 89.816238 7.699770 0.964560 -0.045820 -0.259856 0.712591 0.616335 1 9 1.000000
  9 41.313709 94.313309 7.699771 0.964560 0.045820 -0.259856 0.704206 0.639971 1 9 1.000000
  9 40.367203 90.488098 11.510018 0.971356 0.041262 0.234018 0.730555 0.626369 1 9 1.000000
barracuda
  9 40.367203 90.488098 11.510018 0.971356 0.041262 0.234018 0.730555 0.626369 1 9 1.000000
  9 41.313709 94.313309 7.699771 0.964560 0.045820 -0.259856 0.704206 0.639971 1 9 1.000000
  9 40.367203 93.641472 11.510019 0.971356 -0.041263 0.234020 0.724478 0.643501 1 9 1.000000
barracuda
  9 41.313709 94.313309 7.699771 0.964560 0.045820 -0.259856 0.704206 0.639971 1 9 1.000000
  9 41.313709 98.539177 9.237857 0.964559 0.131933 -0.228514 0.704570 0.665020 1 9 1.000000
  9 40.367203 93.641472 11.510019 0.971356 -0.041263 0.234020 0.724478 0.643501 1 9 1.000000
barracuda
  9 40.367203 93.641472 11.510019 0.971356 -0.041263 0.234020 0.724478 0.643501 1 9 1.000000
  9 41.313709 98.539177 9.237857 0.964559 0.131933 -0.228514 0.704570 0.665020 1 9 1.000000
  9 40.367203 96.604660 12.588535 0.971356 -0.118816 0.205793 0.724953 0.661618 1 9 1.000000
barracuda
  9 41.313709 98.539177 9.237857 0.964559 0.131933 -0.228514 0.704570 0.665020 1 9 1.000000
  9 41.313709 101.984123 12.128514 0.964560 0.202131 -0.169608 0.712940 0.687555 1 9 1.000000
  9 40.367203 96.604660 12.588535 0.971356 -0.118816 0.205793 0.724953 0.661618 1 9 1.000000
barracuda
  9 40.367203 96.604660 12.588535 0.971356 -0.118816 0.205793 0.724953 0.661618 1 9 1.000000
  9 41.313709 101.984123 12.128514 0.964560 0.202131 -0.169608 0.712940 0.687555 1 9 1.000000
  9 40.367210 99.020271 14.615482 0.971356 -0.182035 0.152743 0.730667 0.676887 1 9 1.000000
barracuda
  9 41.313709 101.984123 12.128514 0.964560 0.202131 -0.169608 0.712940 0.687555 1 9 1.000000
  9 41.313713 104.232658 16.023090 0.964560 0.247952 -0.090245 0.728642 0.705781 1 9 1.000000
  9 40.367210 99.020271 14.615482 0.971356 -0.182035 0.152743 0.730667 0.676887 1 9 1.000000
barracuda
  9 40.367210 99.020271 14.615482 0.971356 -0.182035 0.152743 0.730667 0.676887 1 9 1.000000
  9 41.313713 104.232658 16.023090 0.964560 0.247952 -0.090245 0.728642 0.705781 1 9 1.000000
  9 40.367207 100.596954 17.346375 0.971356 -0.223297 0.081274 0.741571 0.689730 1 9 1.000000
barracuda
  9 41.313713 104.232658 16.023090 0.964560 0.247952 -0.090245 0.728642 0.705781 1 9 1.000000
  9 41.313709 105.013565 20.451836 0.964559 0.263865 0.000001 0.750417 0.718210 1 9 1.000000
  9 40.367207 100.596954 17.346375 0.971356 -0.223297 0.081274 0.741571 0.689730 1 9 1.000000
barracuda
  9 40.367207 100.596954 17.346375 0.971356 -0.223297 0.081274 0.741571 0.689730 1 9 1.000000
  9 41.313709 105.013565 20.451836 0.964559 0.263865 0.000001 0.750417 0.718210 1 9 1.000000
  9 40.367210 101.144531 20.451834 0.971357 -0.237626 -0.000001 0.757292 0.698828 1 9 1.000000
barracuda
  9 41.313709 105.013565 20.451836 0.964559 0.263865 0.000001 0.750417 0.718210 1 9 1.000000
  9 41.313713 104.232658 24.880581 0.964559 0.247952 0.090248 0.775156 0.722282 1 9 1.000000
  9 40.367210 101.144531 20.451834 0.971357 -0.237626 -0.000001 0.757292 0.698828 1 9 1.000000
barracuda
  9 40.367210 101.144531 20.451834 0.971357 -0.237626 -0.000001 0.757292 0.698828 1 9 1.000000
  9 41.313713 104.232658 24.880581 0.964559 0.247952 0.090248 0.775156 0.722282 1 9 1.000000
  9 40.367210 100.596954 23.557297 0.971356 -0.223297 -0.081274 0.775233 0.701671 1 9 1.000000
barracuda
  9 41.313713 104.232658 24.880581 0.964559 0.247952 0.090248 0.775156 0.722282 1 9 1.000000
  9 41.313721 101.984131 28.775158 0.964560 0.202131 0.169609 0.798834 0.718025 1 9 1.000000
  9 40.367210 100.596954 23.557297 0.971356 -0.223297 -0.081274 0.775233 0.701671 1 9 1.000000
barracuda
  9 40.367210 100.596954 23.557297 0.971356 -0.223297 -0.081274 0.775233 0.701671 1 9 1.000000
  9 41.313721 101.984131 28.775158 0.964560 0.202131 0.169609 0.798834 0.718025 1 9 1.000000
  9 40.367210 99.020271 26.288189 0.971356 -0.182035 -0.152745 0.791792 0.698571 1 9 1.000000
barracuda
  9 41.313721 101.984131 28.775158 0.964560 0.202131 0.169609 0.798834 0.718025 1 9 1.000000
  9 41.313713 98.539177 31.665810 0.964560 0.131929 0.228513 0.819534 0.705802 1 9 1.000000
  9 40.367210 99.020271 26.288189 0.971356 -0.182035 -0.152745 0.791792 0.698571 1 9 1.000000
barracuda
  9 40.367210 99.020271 26.288189 0.971356 -0.182035 -0.152745 0.791792 0.698571 1 9 1.000000
  9 41.313713 98.539177 31.665810 0.964560 0.131929 0.228513 0.819534 0.705802 1 9 1.000000
  9 40.367210 96.604660 28.315136 0.971356 -0.118816 -0.205792 0.805851 0.690316 1 9 1.000000
barracuda
  9 41.313713 98.539177 31.665810 0.964560 0.131929 0.228513 0.819534 0.705802 1 9 1.000000
  9 41.313717 94.313316 33.203903 0.964560 0.045818 0.259855 0.835602 0.686582 1 9 1.000000
  9 40.367210 96.604660 28.315136 0.971356 -0.118816 -0.205792 0.805851 0.690316 1 9 1.000000
barracuda
  9 40.367210 96.604660 28.315136 0.971356 -0.118816 -0.205792 0.805851 0.690316 1 9 1.000000
  9 41.313717 94.313316 33.203903 0.964560 0.045818 0.259855 0.835602 0.686582 1 9 1.000000
  9 40.367214 93.641472 29.393656 0.971356 -0.041263 -0.234018 0.817637 0.676548 1 9 1.000000
barracuda
  9 41.313717 94.313316 33.203903 0.964560 0.045818 0.259855 0.835602 0.686582 1 9 1.000000
  9 41.313713 89.816246 33.203903 0.964560 -0.045822 0.259855 0.843984 0.662808 1 9 1.000000
  9 40.367214 93.641472 29.393656 0.971356 -0.041263 -0.234018 0.817637 0.676548 1 9 1.000000
barracuda
  9 40.367214 93.641472 29.393656 0.971356 -0.041263 -0.234018 0.817637 0.676548 1 9 1.000000
  9 41.313713 89.816246 33.203903 0.964560 -0.045822 0.259855 0.843984 0.662808 1 9 1.000000
  9 40.367214 90.488098 29.393654 0.971356 0.041262 -0.234018 0.823714 0.659416 1 9 1.000000
barracuda
  9 41.313713 89.816246 33.203903 0.964560 -0.045822 0.259855 0.843984 0.662808 1 9 1.000000
  9 41.313709 85.590393 31.665817 0.964560 -0.131933 0.228513 0.843551 0.637834 1 9 1.000000
  9 40.367214 90.488098 29.393654 0.971356 0.041262 -0.234018 0.823714 0.659416 1 9 1.000000
barracuda
  9 40.367214 90.488098 29.393654 0.971356 0.041262 -0.234018 0.823714 0.659416 1 9 1.000000
  9 41.313709 85.590393 31.665817 0.964560 -0.131933 0.228513 0.843551 0.637834 1 9 1.000000
  9 40.367207 87.524902 28.315136 0.971356 0.118812 -0.205792 0.823239 0.641299 1 9 1.000000
barracuda
  9 41.313709 85.590393 31.665817 0.964560 -0.131933 0.228513 0.843551 0.637834 1 9 1.000000
  9 41.313709 82.145432 28.775158 0.964559 -0.202124 0.169621 0.835328 0.615562 1 9 1.000000
  9 40.367207 87.524902 28.315136 0.971356 0.118812 -0.205792 0.823239 0.641299 1 9 1.000000
barracuda
  9 40.367207 87.524902 28.315136 0.971356 0.118812 -0.205792 0.823239 0.641299 1 9 1.000000
  9 41.313709 82.145432 28.775158 0.964559 -0.202124 0.169621 0.835328 0.615562 1 9 1.000000
  9 40.367207 85.109291 26.288189 0.971357 0.182032 -0.152744 0.817526 0.626030 1 9 1.000000
barracuda
  9 41.313709 82.145432 28.775158 0.964559 -0.202124 0.169621 0.835328 0.615562 1 9 1.000000
  9 41.313705 79.896896 24.880581 0.964560 -0.247953 0.090244 0.819551 0.597136 1 9 1.000000
  9 40.367207 85.109291 26.288189 0.971357 0.182032 -0.152744 0.817526 0.626030 1 9 1.000000
barracuda
  9 41.050377 93.844429 19.490284 1.000000 -0.000028 0.000000 0.734686 0.717398 1 9 1.000000
  9 41.050377 94.106903 20.469856 1.000000 -0.000013 0.000002 0.727077 0.717398 1 9 1.000000
  9 41.050377 93.127335 18.773190 1.000000 -0.000004 0.000001 0.741275 0.721203 1 9 1.000000
barracuda
  9 41.050377 94.106903 20.469856 1.000000 -0.000013 0.000002 0.727077 0.717398 1 9 1.000000
  9 41.050373 93.844429 21.449425 1.000000 -0.000003 0.000001 0.720488 0.721203 1 9 1.000000
  9 41.050377 93.127335 18.773190 1.000000 -0.000004 0.000001 0.741275 0.721203 1 9 1.000000
barracuda
  9 41.050373 93.844429 21.449425 1.000000 -0.000003 0.000001 0.720488 0.721203 1 9 1.000000
  9 41.050373 93.127335 22.166519 1.000000 -0.000001 0.000001 0.716684 0.727878 1 9 1.000000
  9 41.050377 93.127335 18.773190 1.000000 -0.000004 0.000001 0.741275 0.721203 1 9 1.000000
barracuda
  9 41.050373 93.127335 22.166519 1.000000 -0.000001 0.000001 0.716684 0.727878 1 9 1.000000
  9 41.050373 92.147758 22.428995 1.000000 -0.000001 0.000001 0.716684 0.735335 1 9 1.000000
  9 41.050377 93.127335 18.773190 1.000000 -0.000004 0.000001 0.741275 0.721203 1 9 1.000000
barracuda
  9 41.050373 92.147758 22.428995 1.000000 -0.000001 0.000001 0.716684 0.735335 1 9 1.000000
  9 41.050373 91.168190 22.166519 1.000000 -0.000001 0.000001 0.720488 0.741989 1 9 1.000000
  9 41.050377 93.127335 18.773190 1.000000 -0.000004 0.000001 0.741275 0.721203 1 9 1.000000
barracuda
  9 41.050373 91.168190 22.166519 1.000000 -0.000001 0.000001 0.720488 0.741989 1 9 1.000000
  9 41.050373 90.451096 21.449425 1.000000 0.000001 0.000002 0.727077 0.745794 1 9 1.000000
  9 41.050377 93.127335 18.773190 1.000000 -0.000004 0.000001 0.741275 0.721203 1 9 1.000000
barracuda
  9 41.050373 90.451096 21.449425 1.000000 0.000001 0.000002 0.727077 0.745794 1 9 1.000000
  9 41.050377 90.188622 20.469856 1.000000 0.000003 0.000002 0.734686 0.745794 1 9 1.000000
  9 41.050377 93.127335 18.773190 1.000000 -0.000004 0.000001 0.741275 0.721203 1 9 1.000000
barracuda
  9 41.050377 90.188622 20.469856 1.000000 0.000003 0.000002 0.734686 0.745794 1 9 1.000000
  9 41.050377 90.451096 19.490284 1.000000 0.000002 0.000000 0.741275 0.741989 1 9 1.000000
  9 41.050377 93.127335 18.773190 1.000000 -0.000004 0.000001 0.741275 0.721203 1 9 1.000000
barracuda
  9 41.050377 90.451096 19.490284 1.000000 0.000002 0.000000 0.741275 0.741989 1 9 1.000000
  9 41.050377 91.168190 18.773190 1.000000 -0.000001 0.000000 0.745079 0.735400 1 9 1.000000
  9 41.050377 93.127335 18.773190 1.000000 -0.000004 0.000001 0.741275 0.721203 1 9 1.000000
barracuda
  9 41.050377 91.168190 18.773190 1.000000 -0.000001 0.000000 0.745079 0.735400 1 9 1.000000
  9 41.050377 92.147758 18.510714 1.000000 -0.000001 0.000000 0.745079 0.727792 1 9 1.000000
  9 41.050377 93.127335 18.773190 1.000000 -0.000004 0.000001 0.741275 0.721203 1 9 1.000000
barracuda
  9 41.037403 87.663483 12.828554 0.977166 0.106237 0.184009 0.744186 0.615686 1 9 1.000000
  9 41.037399 90.536232 11.782960 0.977167 0.036895 0.209247 0.733510 0.628282 1 9 1.000000
  9 39.123363 92.064789 20.451836 1.000000 -0.000001 -0.000001 0.774096 0.651459 1 9 1.000000
barracuda
  9 41.037399 90.536232 11.782960 0.977167 0.036895 0.209247 0.733510 0.628282 1 9 1.000000
  9 41.037403 93.593338 11.782961 0.977166 -0.036896 0.209248 0.727978 0.643878 1 9 1.000000
  9 39.123363 92.064789 20.451836 1.000000 -0.000001 -0.000001 0.774096 0.651459 1 9 1.000000
barracuda
  9 41.037403 93.593338 11.782961 0.977166 -0.036896 0.209248 0.727978 0.643878 1 9 1.000000
  9 41.037407 96.466080 12.828554 0.977166 -0.106237 0.184010 0.728330 0.660385 1 9 1.000000
  9 39.123363 92.064789 20.451836 1.000000 -0.000001 -0.000001 0.774096 0.651459 1 9 1.000000
barracuda
  9 41.037407 96.466080 12.828554 0.977166 -0.106237 0.184010 0.728330 0.660385 1 9 1.000000
  9 41.037403 98.807976 14.793631 0.977166 -0.162766 0.136577 0.733803 0.674854 1 9 1.000000
  9 39.123363 92.064789 20.451836 1.000000 -0.000001 -0.000001 0.774096 0.651459 1 9 1.000000
barracuda
  9 41.037403 98.807976 14.793631 0.977166 -0.162766 0.136577 0.733803 0.674854 1 9 1.000000
  9 41.037403 100.336525 17.441166 0.977166 -0.199662 0.072670 0.744130 0.687271 1 9 1.000000
  9 39.123363 92.064789 20.451836 1.000000 -0.000001 -0.000001 0.774096 0.651459 1 9 1.000000
barracuda
  9 41.037403 100.336525 17.441166 0.977166 -0.199662 0.072670 0.744130 0.687271 1 9 1.000000
  9 41.037407 100.867386 20.451834 0.977166 -0.212476 -0.000001 0.758466 0.695519 1 9 1.000000
  9 39.123363 92.064789 20.451836 1.000000 -0.000001 -0.000001 0.774096 0.651459 1 9 1.000000
barracuda
  9 41.037407 100.867386 20.451834 0.977166 -0.212476 -0.000001 0.758466 0.695519 1 9 1.000000
  9 41.037411 100.336517 23.462505 0.977166 -0.199663 -0.072671 0.774794 0.698149 1 9 1.000000
  9 39.123363 92.064789 20.451836 1.000000 -0.000001 -0.000001 0.774096 0.651459 1 9 1.000000
barracuda
  9 41.037411 100.336517 23.462505 0.977166 -0.199663 -0.072671 0.774794 0.698149 1 9 1.000000
  9 41.037415 98.807976 26.110043 0.977166 -0.162768 -0.136577 0.790639 0.695016 1 9 1.000000
  9 39.123363 92.064789 20.451836 1.000000 -0.000001 -0.000001 0.774096 0.651459 1 9 1.000000
barracuda
  9 41.037415 98.807976 26.110043 0.977166 -0.162768 -0.136577 0.790639 0.695016 1 9 1.000000
  9 41.037411 96.466087 28.075121 0.977166 -0.106238 -0.184010 0.804006 0.687231 1 9 1.000000
  9 39.123363 92.064789 20.451836 1.000000 -0.000001 -0.000001 0.774096 0.651459 1 9 1.000000
barracuda
  9 41.037411 96.466087 28.075121 0.977166 -0.106238 -0.184010 0.804006 0.687231 1 9 1.000000
  9 41.037415 93.593346 29.120714 0.977166 -0.036896 -0.209249 0.814682 0.674635 1 9 1.000000
  9 39.123363 92.064789 20.451836 1.000000 -0.000001 -0.000001 0.774096 0.651459 1 9 1.000000
barracuda
  9 41.037415 93.593346 29.120714 0.977166 -0.036896 -0.209249 0.814682 0.674635 1 9 1.000000
  9 41.037415 90.536232 29.120712 0.977166 0.036894 -0.209249 0.820214 0.659039 1 9 1.000000
  9 39.123363 92.064789 20.451836 1.000000 -0.000001 -0.000001 0.774096 0.651459 1 9 1.000000
barracuda
  9 41.037415 90.536232 29.120712 0.977166 0.036894 -0.209249 0.820214 0.659039 1 9 1.000000
  9 41.037403 87.663483 28.075121 0.977166 0.106237 -0.184010 0.819863 0.642531 1 9 1.000000
  9 39.123363 92.064789 20.451836 1.000000 -0.000001 -0.000001 0.774096 0.651459 1 9 1.000000
barracuda
  9 41.037403 87.663483 28.075121 0.977166 0.106237 -0.184010 0.819863 0.642531 1 9 1.000000
  9 41.037411 85.321602 26.110043 0.977166 0.162767 -0.136577 0.814390 0.628063 1 9 1.000000
  9 39.123363 92.064789 20.451836 1.000000 -0.000001 -0.000001 0.774096 0.651459 1 9 1.000000
barracuda
  9 41.037411 85.321602 26.110043 0.977166 0.162767 -0.136577 0.814390 0.628063 1 9 1.000000
  9 41.037411 83.793045 23.462505 0.977166 0.199662 -0.072671 0.804062 0.615645 1 9 1.000000
  9 39.123363 92.064789 20.451836 1.000000 -0.000001 -0.000001 0.774096 0.651459 1 9 1.000000
barracuda
  9 41.037411 83.793045 23.462505 0.977166 0.199662 -0.072671 0.804062 0.615645 1 9 1.000000
  9 41.037403 83.262184 20.451834 0.977166 0.212475 0.000000 0.789726 0.607398 1 9 1.000000
  9 39.123363 92.064789 20.451836 1.000000 -0.000001 -0.000001 0.774096 0.651459 1 9 1.000000
barracuda
  9 41.037403 83.262184 20.451834 0.977166 0.212475 0.000000 0.789726 0.607398 1 9 1.000000
  9 41.037399 83.793045 17.441170 0.977167 0.199661 0.072670 0.773398 0.604768 1 9 1.000000
  9 39.123363 92.064789 20.451836 1.000000 -0.000001 -0.000001 0.774096 0.651459 1 9 1.000000
barracuda
  9 41.037399 83.793045 17.441170 0.977167 0.199661 0.072670 0.773398 0.604768 1 9 1.000000
  9 41.037403 85.321602 14.793632 0.977166 0.162766 0.136577 0.757554 0.607901 1 9 1.000000
  9 39.123363 92.064789 20.451836 1.000000 -0.000001 -0.000001 0.774096 0.651459 1 9 1.000000
barracuda
  9 41.037403 85.321602 14.793632 0.977166 0.162766 0.136577 0.757554 0.607901 1 9 1.000000
  9 41.037403 87.663483 12.828554 0.977166 0.106237 0.184009 0.744186 0.615686 1 9 1.000000
  9 39.123363 92.064789 20.451836 1.000000 -0.000001 -0.000001 0.774096 0.651459 1 9 1.000000
barracuda
  9 41.050373 93.844429 21.449425 0.000001 0.866025 0.500001 0.716684 0.722541 1 9 1.000000
  9 41.050377 94.106903 20.469856 0.000001 1.000000 -0.000001 0.716684 0.715192 1 9 1.000000
  9 38.988281 93.844429 21.449425 0.000002 0.866027 0.499997 0.701213 0.722541 1 9 1.000000
barracuda
  9 38.988281 93.844429 21.449425 0.000002 0.866027 0.499997 0.701213 0.722541 1 9 1.000000
  9 41.050377 94.106903 20.469856 0.000001 1.000000 -0.000001 0.716684 0.715192 1 9 1.000000
  9 38.988277 94.106903 20.469858 0.000001 1.000000 -0.000006 0.701213 0.715192 1 9 1.000000
barracuda
  9 41.050377 94.106903 20.469856 0.000001 1.000000 -0.000001 0.716684 0.715192 1 9 1.000000
  9 41.050377 93.844429 19.490284 0.000000 0.866026 -0.499999 0.716684 0.707842 1 9 1.000000
  9 38.988277 94.106903 20.469858 0.000001 1.000000 -0.000006 0.701213 0.715192 1 9 1.000000
barracuda
  9 38.988277 94.106903 20.469858 0.000001 1.000000 -0.000006 0.701213 0.715192 1 9 1.000000
  9 41.050377 93.844429 19.490284 0.000000 0.866026 -0.499999 0.716684 0.707842 1 9 1.000000
  9 38.988277 93.844429 19.490286 0.000001 0.866024 -0.500002 0.701213 0.707842 1 9 1.000000
barracuda
  9 41.050377 93.844429 19.490284 0.000000 0.866026 -0.499999 0.716684 0.707842 1 9 1.000000
  9 41.050377 93.127335 18.773190 -0.000002 0.500002 -0.866024 0.716684 0.702462 1 9 1.000000
  9 38.988277 93.844429 19.490286 0.000001 0.866024 -0.500002 0.701213 0.707842 1 9 1.000000
barracuda
  9 38.988277 93.844429 19.490286 0.000001 0.866024 -0.500002 0.701213 0.707842 1 9 1.000000
  9 41.050377 93.127335 18.773190 -0.000002 0.500002 -0.866024 0.716684 0.702462 1 9 1.000000
  9 38.988277 93.127335 18.773191 0.000000 0.499999 -0.866026 0.701213 0.702462 1 9 1.000000
barracuda
  9 41.050377 93.127335 18.773190 -0.000002 0.500002 -0.866024 0.716684 0.782777 1 9 1.000000
  9 41.050377 92.147758 18.510714 -0.000003 0.000000 -1.000000 0.716684 0.775428 1 9 1.000000
  9 38.988277 93.127335 18.773191 0.000000 0.499999 -0.866026 0.701213 0.782777 1 9 1.000000
barracuda
  9 38.988277 93.127335 18.773191 0.000000 0.499999 -0.866026 0.701213 0.782777 1 9 1.000000
  9 41.050377 92.147758 18.510714 -0.000003 0.000000 -1.000000 0.716684 0.775428 1 9 1.000000
  9 38.988277 92.147758 18.510715 0.000000 0.000001 -1.000000 0.701213 0.775428 1 9 1.000000
barracuda
  9 41.050377 92.147758 18.510714 -0.000003 0.000000 -1.000000 0.716684 0.775428 1 9 1.000000
  9 41.050377 91.168190 18.773190 -0.000002 -0.500002 -0.866024 0.716684 0.768079 1 9 1.000000
  9 38.988277 92.147758 18.510715 0.000000 0.000001 -1.000000 0.701213 0.775428 1 9 1.000000
barracuda
  9 38.988277 92.147758 18.510715 0.000000 0.000001 -1.000000 0.701213 0.775428 1 9 1.000000
  9 41.050377 91.168190 18.773190 -0.000002 -0.500002 -0.866024 0.716684 0.768079 1 9 1.000000
  9 38.988277 91.168190 18.773191 0.000000 -0.499998 -0.866026 0.701213 0.768079 1 9 1.000000
barracuda
  9 41.050377 91.168190 18.773190 -0.000002 -0.500002 -0.866024 0.716684 0.768079 1 9 1.000000
  9 41.050377 90.451096 19.490284 -0.000002 -0.866028 -0.499995 0.716684 0.762699 1 9 1.000000
  9 38.988277 91.168190 18.773191 0.000000 -0.499998 -0.866026 0.701213 0.768079 1 9 1.000000
barracuda
  9 38.988277 91.168190 18.773191 0.000000 -0.499998 -0.866026 0.701213 0.768079 1 9 1.000000
  9 41.050377 90.451096 19.490284 -0.000002 -0.866028 -0.499995 0.716684 0.762699 1 9 1.000000
  9 38.988277 90.451096 19.490286 -0.000001 -0.866027 -0.499998 0.701213 0.762699 1 9 1.000000
barracuda
  9 41.050377 90.451096 19.490284 -0.000002 -0.866028 -0.499995 0.716684 0.762699 1 9 1.000000
  9 41.050377 90.188622 20.469856 -0.000001 -1.000000 0.000001 0.716684 0.755349 1 9 1.000000
  9 38.988277 90.451096 19.490286 -0.000001 -0.866027 -0.499998 0.701213 0.762699 1 9 1.000000
barracuda
  9 38.988277 90.451096 19.490286 -0.000001 -0.866027 -0.499998 0.701213 0.762699 1 9 1.000000
  9 41.050377 90.188622 20.469856 -0.000001 -1.000000 0.000001 0.716684 0.755349 1 9 1.000000
  9 38.988277 90.188622 20.469858 -0.000001 -1.000000 0.000005 0.701213 0.755349 1 9 1.000000
barracuda
  9 41.050377 90.188622 20.469856 -0.000001 -1.000000 0.000001 0.716684 0.755349 1 9 1.000000
  9 41.050373 90.451096 21.449425 0.000000 -0.866027 0.499997 0.716684 0.748000 1 9 1.000000
  9 38.988277 90.188622 20.469858 -0.000001 -1.000000 0.000005 0.701213 0.755349 1 9 1.000000
barracuda
  9 38.988277 90.188622 20.469858 -0.000001 -1.000000 0.000005 0.701213 0.755349 1 9 1.000000
  9 41.050373 90.451096 21.449425 0.000000 -0.866027 0.499997 0.716684 0.748000 1 9 1.000000
  9 38.988281 90.451096 21.449425 -0.000001 -0.866023 0.500004 0.701213 0.748000 1 9 1.000000
barracuda
  9 41.050373 90.451096 21.449425 0.000000 -0.866027 0.499997 0.716684 0.748000 1 9 1.000000
  9 41.050373 91.168190 22.166519 0.000001 -0.500000 0.866025 0.716684 0.742620 1 9 1.000000
  9 38.988281 90.451096 21.449425 -0.000001 -0.866023 0.500004 0.701213 0.748000 1 9 1.000000
barracuda
  9 38.988281 90.451096 21.449425 -0.000001 -0.866023 0.500004 0.701213 0.748000 1 9 1.000000
  9 41.050373 91.168190 22.166519 0.000001 -0.500000 0.866025 0.716684 0.742620 1 9 1.000000
  9 38.988281 91.168190 22.166519 0.000000 -0.499997 0.866027 0.701213 0.742620 1 9 1.000000
barracuda
  9 41.050373 91.168190 22.166519 0.000001 -0.500000 0.866025 0.716684 0.742620 1 9 1.000000
  9 41.050373 92.147758 22.428995 0.000000 0.000000 1.000000 0.716684 0.735335 1 9 1.000000
  9 38.988281 91.168190 22.166519 0.000000 -0.499997 0.866027 0.701213 0.742620 1 9 1.000000
barracuda
  9 38.988281 91.168190 22.166519 0.000000 -0.499997 0.866027 0.701213 0.742620 1 9 1.000000
  9 41.050373 92.147758 22.428995 0.000000 0.000000 1.000000 0.716684 0.735335 1 9 1.000000
  9 38.988281 92.147758 22.428995 0.000000 0.000000 1.000000 0.701213 0.735335 1 9 1.000000
barracuda
  9 41.050373 92.147758 22.428995 0.000000 0.000000 1.000000 0.716684 0.735335 1 9 1.000000
  9 41.050373 93.127335 22.166519 0.000000 0.500002 0.866024 0.716684 0.727878 1 9 1.000000
  9 38.988281 92.147758 22.428995 0.000000 0.000000 1.000000 0.701213 0.735335 1 9 1.000000
barracuda
  9 38.988281 92.147758 22.428995 0.000000 0.000000 1.000000 0.701213 0.735335 1 9 1.000000
  9 41.050373 93.127335 22.166519 0.000000 0.500002 0.866024 0.716684 0.727878 1 9 1.000000
  9 38.988281 93.127335 22.166519 0.000001 0.500001 0.866025 0.701213 0.727878 1 9 1.000000
barracuda
  9 41.050373 93.127335 22.166519 0.000000 0.500002 0.866024 0.716684 0.727878 1 9 1.000000
  9 41.050373 93.844429 21.449425 0.000001 0.866025 0.500001 0.716684 0.722541 1 9 1.000000
  9 38.988281 93.127335 22.166519 0.000001 0.500001 0.866025 0.701213 0.727878 1 9 1.000000
barracuda
  9 38.988281 93.127335 22.166519 0.000001 0.500001 0.866025 0.701213 0.727878 1 9 1.000000
  9 41.050373 93.844429 21.449425 0.000001 0.866025 0.500001 0.716684 0.722541 1 9 1.000000
  9 38.988281 93.844429 21.449425 0.000002 0.866027 0.499997 0.701213 0.722541 1 9 1.000000
barracuda
  9 41.037403 87.663483 28.075121 0.382149 -0.462049 0.800295 0.819863 0.642531 1 9 1.000000
  9 40.367207 85.109291 26.288189 0.382138 -0.707907 0.594002 0.817526 0.626030 1 9 1.000000
  9 41.037411 85.321602 26.110043 0.382138 -0.707907 0.594002 0.814390 0.628063 1 9 1.000000
barracuda
  9 40.367207 85.109291 26.288189 0.382138 -0.707907 0.594002 0.817526 0.626030 1 9 1.000000
  9 40.367207 83.532600 23.557295 0.382146 -0.868372 0.316061 0.806622 0.613187 1 9 1.000000
  9 41.037411 85.321602 26.110043 0.382138 -0.707907 0.594002 0.814390 0.628063 1 9 1.000000
barracuda
  9 41.037411 85.321602 26.110043 0.382138 -0.707907 0.594002 0.814390 0.628063 1 9 1.000000
  9 40.367207 83.532600 23.557295 0.382146 -0.868372 0.316061 0.806622 0.613187 1 9 1.000000
  9 41.037411 83.793045 23.462505 0.382147 -0.868371 0.316062 0.804062 0.615645 1 9 1.000000
barracuda
  9 40.367207 83.532600 23.557295 0.382146 -0.868372 0.316061 0.806622 0.613187 1 9 1.000000
  9 40.367203 82.985031 20.451834 0.382147 -0.924101 0.000000 0.790900 0.604090 1 9 1.000000
  9 41.037411 83.793045 23.462505 0.382147 -0.868371 0.316062 0.804062 0.615645 1 9 1.000000
barracuda
  9 41.037411 83.793045 23.462505 0.382147 -0.868371 0.316062 0.804062 0.615645 1 9 1.000000
  9 40.367203 82.985031 20.451834 0.382147 -0.924101 0.000000 0.790900 0.604090 1 9 1.000000
  9 41.037403 83.262184 20.451834 0.382147 -0.924101 0.000000 0.789726 0.607398 1 9 1.000000
barracuda
  9 40.367203 82.985031 20.451834 0.382147 -0.924101 0.000000 0.790900 0.604090 1 9 1.000000
  9 40.367199 83.532600 17.346376 0.382150 -0.868370 -0.316061 0.772960 0.601246 1 9 1.000000
  9 41.037403 83.262184 20.451834 0.382147 -0.924101 0.000000 0.789726 0.607398 1 9 1.000000
barracuda
  9 41.037403 83.262184 20.451834 0.382147 -0.924101 0.000000 0.789726 0.607398 1 9 1.000000
  9 40.367199 83.532600 17.346376 0.382150 -0.868370 -0.316061 0.772960 0.601246 1 9 1.000000
  9 41.037399 83.793045 17.441170 0.382150 -0.868370 -0.316061 0.773398 0.604768 1 9 1.000000
barracuda
  9 40.367199 83.532600 17.346376 0.382150 -0.868370 -0.316061 0.772960 0.601246 1 9 1.000000
  9 40.367207 85.109291 14.615481 0.382145 -0.707906 -0.593998 0.756400 0.604346 1 9 1.000000
  9 41.037399 83.793045 17.441170 0.382150 -0.868370 -0.316061 0.773398 0.604768 1 9 1.000000
barracuda
  9 41.037399 83.793045 17.441170 0.382150 -0.868370 -0.316061 0.773398 0.604768 1 9 1.000000
  9 40.367207 85.109291 14.615481 0.382145 -0.707906 -0.593998 0.756400 0.604346 1 9 1.000000
  9 41.037403 85.321602 14.793632 0.382145 -0.707906 -0.593998 0.757554 0.607901 1 9 1.000000
barracuda
  9 40.367207 85.109291 14.615481 0.382145 -0.707906 -0.593998 0.756400 0.604346 1 9 1.000000
  9 40.367199 87.524902 12.588534 0.382147 -0.462050 -0.800296 0.742341 0.612601 1 9 1.000000
  9 41.037403 85.321602 14.793632 0.382145 -0.707906 -0.593998 0.757554 0.607901 1 9 1.000000
barracuda
  9 41.037403 85.321602 14.793632 0.382145 -0.707906 -0.593998 0.757554 0.607901 1 9 1.000000
  9 40.367199 87.524902 12.588534 0.382147 -0.462050 -0.800296 0.742341 0.612601 1 9 1.000000
  9 41.037403 87.663483 12.828554 0.382149 -0.462048 -0.800296 0.744186 0.615686 1 9 1.000000
barracuda
  9 40.367199 87.524902 12.588534 0.382147 -0.462050 -0.800296 0.742341 0.612601 1 9 1.000000
  9 40.367203 90.488098 11.510018 0.382152 -0.160471 -0.910060 0.730555 0.626369 1 9 1.000000
  9 41.037403 87.663483 12.828554 0.382149 -0.462048 -0.800296 0.744186 0.615686 1 9 1.000000
barracuda
  9 41.037403 87.663483 12.828554 0.382149 -0.462048 -0.800296 0.744186 0.615686 1 9 1.000000
  9 40.367203 90.488098 11.510018 0.382152 -0.160471 -0.910060 0.730555 0.626369 1 9 1.000000
  9 41.037399 90.536232 11.782960 0.382153 -0.160469 -0.910060 0.733510 0.628282 1 9 1.000000
barracuda
  9 40.367203 90.488098 11.510018 0.382152 -0.160471 -0.910060 0.730555 0.626369 1 9 1.000000
  9 40.367203 93.641472 11.510019 0.382151 0.160469 -0.910061 0.724478 0.643501 1 9 1.000000
  9 41.037399 90.536232 11.782960 0.382153 -0.160469 -0.910060 0.733510 0.628282 1 9 1.000000
barracuda
  9 41.037399 90.536232 11.782960 0.382153 -0.160469 -0.910060 0.733510 0.628282 1 9 1.000000
  9 40.367203 93.641472 11.510019 0.382151 0.160469 -0.910061 0.724478 0.643501 1 9 1.000000
  9 41.037403 93.593338 11.782961 0.382151 0.160468 -0.910061 0.727978 0.643878 1 9 1.000000
barracuda
  9 40.367203 93.641472 11.510019 0.382151 0.160469 -0.910061 0.724478 0.643501 1 9 1.000000
  9 40.367203 96.604660 12.588535 0.382149 0.462053 -0.800293 0.724953 0.661618 1 9 1.000000
  9 41.037403 93.593338 11.782961 0.382151 0.160468 -0.910061 0.727978 0.643878 1 9 1.000000
barracuda
  9 41.037403 93.593338 11.782961 0.382151 0.160468 -0.910061 0.727978 0.643878 1 9 1.000000
  9 40.367203 96.604660 12.588535 0.382149 0.462053 -0.800293 0.724953 0.661618 1 9 1.000000
  9 41.037407 96.466080 12.828554 0.382148 0.462052 -0.800294 0.728330 0.660385 1 9 1.000000
barracuda
  9 40.367203 96.604660 12.588535 0.382149 0.462053 -0.800293 0.724953 0.661618 1 9 1.000000
  9 40.367210 99.020271 14.615482 0.382141 0.707901 -0.594007 0.730667 0.676887 1 9 1.000000
  9 41.037407 96.466080 12.828554 0.382148 0.462052 -0.800294 0.728330 0.660385 1 9 1.000000
barracuda
  9 41.037407 96.466080 12.828554 0.382148 0.462052 -0.800294 0.728330 0.660385 1 9 1.000000
  9 40.367210 99.020271 14.615482 0.382141 0.707901 -0.594007 0.730667 0.676887 1 9 1.000000
  9 41.037403 98.807976 14.793631 0.382141 0.707902 -0.594006 0.733803 0.674854 1 9 1.000000
barracuda
  9 40.367210 99.020271 14.615482 0.382141 0.707901 -0.594007 0.730667 0.676887 1 9 1.000000
  9 40.367207 100.596954 17.346375 0.382146 0.868372 -0.316062 0.741571 0.689730 1 9 1.000000
  9 41.037403 98.807976 14.793631 0.382141 0.707902 -0.594006 0.733803 0.674854 1 9 1.000000
barracuda
  9 41.037403 98.807976 14.793631 0.382141 0.707902 -0.594006 0.733803 0.674854 1 9 1.000000
  9 40.367207 100.596954 17.346375 0.382146 0.868372 -0.316062 0.741571 0.689730 1 9 1.000000
  9 41.037403 100.336525 17.441166 0.382145 0.868373 -0.316060 0.744130 0.687271 1 9 1.000000
barracuda
  9 40.367207 100.596954 17.346375 0.382146 0.868372 -0.316062 0.741571 0.689730 1 9 1.000000
  9 40.367210 101.144531 20.451834 0.382145 0.924103 0.000001 0.757292 0.698828 1 9 1.000000
  9 41.037403 100.336525 17.441166 0.382145 0.868373 -0.316060 0.744130 0.687271 1 9 1.000000
barracuda
  9 41.037403 100.336525 17.441166 0.382145 0.868373 -0.316060 0.744130 0.687271 1 9 1.000000
  9 40.367210 101.144531 20.451834 0.382145 0.924103 0.000001 0.757292 0.698828 1 9 1.000000
  9 41.037407 100.867386 20.451834 0.382145 0.924102 0.000002 0.758466 0.695519 1 9 1.000000
barracuda
  9 40.367210 101.144531 20.451834 0.382145 0.924103 0.000001 0.757292 0.698828 1 9 1.000000
  9 40.367210 100.596954 23.557297 0.382152 0.868369 0.316063 0.775233 0.701671 1 9 1.000000
  9 41.037407 100.867386 20.451834 0.382145 0.924102 0.000002 0.758466 0.695519 1 9 1.000000
barracuda
  9 41.037407 100.867386 20.451834 0.382145 0.924102 0.000002 0.758466 0.695519 1 9 1.000000
  9 40.367210 100.596954 23.557297 0.382152 0.868369 0.316063 0.775233 0.701671 1 9 1.000000
  9 41.037411 100.336517 23.462505 0.382151 0.868369 0.316065 0.774794 0.698149 1 9 1.000000
barracuda
  9 40.367210 100.596954 23.557297 0.382152 0.868369 0.316063 0.775233 0.701671 1 9 1.000000
  9 40.367210 99.020271 26.288189 0.382139 0.707906 0.594003 0.791792 0.698571 1 9 1.000000
  9 41.037411 100.336517 23.462505 0.382151 0.868369 0.316065 0.774794 0.698149 1 9 1.000000
barracuda
  9 41.037411 100.336517 23.462505 0.382151 0.868369 0.316065 0.774794 0.698149 1 9 1.000000
  9 40.367210 99.020271 26.288189 0.382139 0.707906 0.594003 0.791792 0.698571 1 9 1.000000
  9 41.037415 98.807976 26.110043 0.382137 0.707907 0.594002 0.790639 0.695016 1 9 1.000000
barracuda
  9 40.367210 99.020271 26.288189 0.382139 0.707906 0.594003 0.791792 0.698571 1 9 1.000000
  9 40.367210 96.604660 28.315136 0.382140 0.462053 0.800298 0.805851 0.690316 1 9 1.000000
  9 41.037415 98.807976 26.110043 0.382137 0.707907 0.594002 0.790639 0.695016 1 9 1.000000
barracuda
  9 41.037415 98.807976 26.110043 0.382137 0.707907 0.594002 0.790639 0.695016 1 9 1.000000
  9 40.367210 96.604660 28.315136 0.382140 0.462053 0.800298 0.805851 0.690316 1 9 1.000000
  9 41.037411 96.466087 28.075121 0.382140 0.462053 0.800298 0.804006 0.687231 1 9 1.000000
barracuda
  9 40.367210 96.604660 28.315136 0.382140 0.462053 0.800298 0.805851 0.690316 1 9 1.000000
  9 40.367214 93.641472 29.393656 0.382148 0.160469 0.910062 0.817637 0.676548 1 9 1.000000
  9 41.037411 96.466087 28.075121 0.382140 0.462053 0.800298 0.804006 0.687231 1 9 1.000000
barracuda
  9 41.037411 96.466087 28.075121 0.382140 0.462053 0.800298 0.804006 0.687231 1 9 1.000000
  9 40.367214 93.641472 29.393656 0.382148 0.160469 0.910062 0.817637 0.676548 1 9 1.000000
  9 41.037415 93.593346 29.120714 0.382149 0.160469 0.910062 0.814682 0.674635 1 9 1.000000
barracuda
  9 40.367214 93.641472 29.393656 0.382148 0.160469 0.910062 0.817637 0.676548 1 9 1.000000
  9 40.367214 90.488098 29.393654 0.382147 -0.160470 0.910062 0.823714 0.659416 1 9 1.000000
  9 41.037415 93.593346 29.120714 0.382149 0.160469 0.910062 0.814682 0.674635 1 9 1.000000
barracuda
  9 41.037415 93.593346 29.120714 0.382149 0.160469 0.910062 0.814682 0.674635 1 9 1.000000
  9 40.367214 90.488098 29.393654 0.382147 -0.160470 0.910062 0.823714 0.659416 1 9 1.000000
  9 41.037415 90.536232 29.120712 0.382147 -0.160468 0.910062 0.820214 0.659039 1 9 1.000000
barracuda
  9 40.367214 90.488098 29.393654 0.382147 -0.160470 0.910062 0.823714 0.659416 1 9 1.000000
  9 40.367207 87.524902 28.315136 0.382150 -0.462050 0.800295 0.823239 0.641299 1 9 1.000000
  9 41.037415 90.536232 29.120712 0.382147 -0.160468 0.910062 0.820214 0.659039 1 9 1.000000
barracuda
  9 41.037415 90.536232 29.120712 0.382147 -0.160468 0.910062 0.820214 0.659039 1 9 1.000000
  9 40.367207 87.524902 28.315136 0.382150 -0.462050 0.800295 0.823239 0.641299 1 9 1.000000
  9 41.037403 87.663483 28.075121 0.382149 -0.462049 0.800295 0.819863 0.642531 1 9 1.000000
barracuda
  9 40.367207 87.524902 28.315136 0.382150 -0.462050 0.800295 0.823239 0.641299 1 9 1.000000
  9 40.367207 85.109291 26.288189 0.382138 -0.707907 0.594002 0.817526 0.626030 1 9 1.000000
  9 41.037403 87.663483 28.075121 0.382149 -0.462049 0.800295 0.819863 0.642531 1 9 1.000000
end
