// Created by Crowbar 0.74
version 1
nodes
  0 "pasted__polySurface28" -1
end
skeleton
  time 0
    0 0.000000 0.000000 0.000000 0.000000 0.000000 0.000000
end
triangles
  phy
    0 42.215051 35.903142 47.079409 -0.922588 -0.385673 -0.009350 0 0
    0 22.285452 30.313810 58.084121 -0.920885 -0.385589 -0.057374 0 0
    0 27.274626 30.307859 58.219311 0.926490 0.372394 0.054209 0 0
  phy
    0 22.285452 30.313810 58.084121 -0.920885 -0.385589 -0.057374 0 0
    0 42.215051 35.903142 47.079409 -0.922588 -0.385673 -0.009350 0 0
    0 27.084243 36.392700 43.658839 0.899283 0.437235 0.010775 0 0
  phy
    0 22.285452 30.313810 58.084121 -0.920885 -0.385589 -0.057374 0 0
    0 27.084243 36.392700 43.658839 0.899283 0.437235 0.010775 0 0
    0 27.274626 30.307859 58.219311 0.926490 0.372394 0.054209 0 0
  phy
    0 27.274626 30.307859 58.219311 0.926490 0.372394 0.054209 0 0
    0 27.084243 36.392700 43.658839 0.899283 0.437235 0.010775 0 0
    0 42.215051 35.903142 47.079409 -0.922588 -0.385673 -0.009350 0 0
  phy
    0 44.037418 -25.696703 58.957198 0.133954 -0.959133 0.249241 0 0
    0 45.311296 -16.832042 59.656914 0.060172 -0.929083 0.364944 0 0
    0 45.311296 17.284793 59.656914 -0.074150 -0.935915 0.344333 0 0
  phy
    0 45.311296 17.284793 59.656914 -0.074150 -0.935915 0.344333 0 0
    0 44.037418 26.149454 58.957198 -0.230124 -0.963139 -0.139307 0 0
    0 44.037418 -25.696703 58.957198 0.133954 -0.959133 0.249241 0 0
  phy
    0 45.311296 17.284793 59.656914 -0.074150 -0.935915 0.344333 0 0
    0 72.017012 18.474204 47.540407 -0.113749 -0.736174 0.667165 0 0
    0 69.018781 32.417507 46.884699 -0.215914 -0.720330 0.659170 0 0
  phy
    0 69.018781 32.417507 46.884699 -0.215914 -0.720330 0.659170 0 0
    0 44.037418 26.149454 58.957198 -0.230124 -0.963139 -0.139307 0 0
    0 45.311296 17.284793 59.656914 -0.074150 -0.935915 0.344333 0 0
  phy
    0 45.311296 17.284793 59.656914 -0.074150 -0.935915 0.344333 0 0
    0 73.093842 0.226377 48.060525 0.000000 -0.905662 0.424000 0 0
    0 72.017012 18.474204 47.540407 -0.113749 -0.736174 0.667165 0 0
  phy
    0 45.311296 17.284793 59.656914 -0.074150 -0.935915 0.344333 0 0
    0 46.377966 0.226375 59.956866 0.000000 -0.922837 0.385191 0 0
    0 73.093842 0.226377 48.060525 0.000000 -0.905662 0.424000 0 0
  phy
    0 45.311296 -16.832042 59.656914 0.060172 -0.929083 0.364944 0 0
    0 46.377966 0.226375 59.956866 0.000000 -0.922837 0.385191 0 0
    0 45.311296 17.284793 59.656914 -0.074150 -0.935915 0.344333 0 0
  phy
    0 72.017012 -18.021448 47.540407 0.104092 -0.865865 0.489329 0 0
    0 45.311296 -16.832042 59.656914 0.060172 -0.929083 0.364944 0 0
    0 44.037418 -25.696703 58.957198 0.133954 -0.959133 0.249241 0 0
  phy
    0 44.037418 -25.696703 58.957198 0.133954 -0.959133 0.249241 0 0
    0 69.018781 -31.964751 46.884699 0.271821 0.304499 0.912904 0 0
    0 72.017012 -18.021448 47.540407 0.104092 -0.865865 0.489329 0 0
  phy
    0 72.017012 -18.021448 47.540407 0.104092 -0.865865 0.489329 0 0
    0 73.093842 0.226377 48.060525 0.000000 -0.905662 0.424000 0 0
    0 45.311296 -16.832042 59.656914 0.060172 -0.929083 0.364944 0 0
  phy
    0 72.017012 18.474204 47.540407 -0.113749 -0.736174 0.667165 0 0
    0 72.017012 -18.021448 47.540407 0.104092 -0.865865 0.489329 0 0
    0 69.018781 -31.964751 46.884699 0.271821 0.304499 0.912904 0 0
  phy
    0 72.017012 -18.021448 47.540407 0.104092 -0.865865 0.489329 0 0
    0 72.017012 18.474204 47.540407 -0.113749 -0.736174 0.667165 0 0
    0 73.093842 0.226377 48.060525 0.000000 -0.905662 0.424000 0 0
  phy
    0 45.507025 27.322274 58.034560 -0.017087 0.886051 -0.463273 0 0
    0 44.037418 26.149454 58.957198 -0.230124 -0.963139 -0.139307 0 0
    0 69.018781 32.417507 46.884699 -0.215914 -0.720330 0.659170 0 0
  phy
    0 69.018781 32.417507 46.884699 -0.215914 -0.720330 0.659170 0 0
    0 67.450334 33.601466 46.859435 -0.005789 0.904019 -0.427454 0 0
    0 45.507025 27.322274 58.034560 -0.017087 0.886051 -0.463273 0 0
  phy
    0 69.018781 32.417507 46.884699 -0.215914 -0.720330 0.659170 0 0
    0 72.017012 18.474204 47.540407 -0.113749 -0.736174 0.667165 0 0
    0 69.018781 -31.964751 46.884699 0.271821 0.304499 0.912904 0 0
  phy
    0 69.018781 32.417507 46.884699 -0.215914 -0.720330 0.659170 0 0
    0 69.018781 -31.964751 46.884699 0.271821 0.304499 0.912904 0 0
    0 67.450334 33.601466 46.859435 -0.005789 0.904019 -0.427454 0 0
  phy
    0 44.037418 -25.696703 58.957198 0.133954 -0.959133 0.249241 0 0
    0 45.507025 -26.869520 58.034560 0.007540 0.887724 -0.460314 0 0
    0 69.018781 -31.964751 46.884699 0.271821 0.304499 0.912904 0 0
  phy
    0 44.037418 -25.696703 58.957198 0.133954 -0.959133 0.249241 0 0
    0 44.037418 26.149454 58.957198 -0.230124 -0.963139 -0.139307 0 0
    0 45.507025 -26.869520 58.034560 0.007540 0.887724 -0.460314 0 0
  phy
    0 44.037418 26.149454 58.957198 -0.230124 -0.963139 -0.139307 0 0
    0 45.507025 27.322274 58.034560 -0.017087 0.886051 -0.463273 0 0
    0 45.507025 -26.869520 58.034560 0.007540 0.887724 -0.460314 0 0
  phy
    0 45.507025 -26.869520 58.034560 0.007540 0.887724 -0.460314 0 0
    0 45.507025 27.322274 58.034560 -0.017087 0.886051 -0.463273 0 0
    0 67.450334 33.601466 46.859435 -0.005789 0.904019 -0.427454 0 0
  phy
    0 73.093842 0.226377 48.060525 0.000000 -0.905662 0.424000 0 0
    0 46.377966 0.226375 59.956866 0.000000 -0.922837 0.385191 0 0
    0 45.311296 -16.832042 59.656914 0.060172 -0.929083 0.364944 0 0
  phy
    0 45.507025 -26.869520 58.034560 0.007540 0.887724 -0.460314 0 0
    0 67.450334 -33.148720 46.859435 0.010642 0.902603 -0.430343 0 0
    0 69.018781 -31.964751 46.884699 0.271821 0.304499 0.912904 0 0
  phy
    0 69.018781 -31.964751 46.884699 0.271821 0.304499 0.912904 0 0
    0 67.450334 -33.148720 46.859435 0.010642 0.902603 -0.430343 0 0
    0 67.450334 33.601466 46.859435 -0.005789 0.904019 -0.427454 0 0
  phy
    0 67.450334 -33.148720 46.859435 0.010642 0.902603 -0.430343 0 0
    0 45.507025 -26.869520 58.034560 0.007540 0.887724 -0.460314 0 0
    0 67.450334 33.601466 46.859435 -0.005789 0.904019 -0.427454 0 0
  phy
    0 -15.254007 -12.218710 59.461082 0.108110 -0.838145 -0.534626 0 0
    0 -15.780831 0.305083 59.655576 0.000003 -0.739232 -0.673451 0 0
    0 -34.219529 -15.634410 41.790328 0.054381 -0.664661 -0.745163 0 0
  phy
    0 -34.219529 -15.634410 41.790328 0.054381 -0.664661 -0.745163 0 0
    0 -15.780831 0.305083 59.655576 0.000003 -0.739232 -0.673451 0 0
    0 -34.594756 0.305083 42.150124 0.000002 -0.718188 -0.695850 0 0
  phy
    0 -33.134360 -24.194971 41.577713 0.168520 -0.259092 -0.951037 0 0
    0 -15.254007 -12.218710 59.461082 0.108110 -0.838145 -0.534626 0 0
    0 -34.219529 -15.634410 41.790328 0.054381 -0.664661 -0.745163 0 0
  phy
    0 -34.219620 16.244574 41.790346 -0.052714 -0.700917 -0.711292 0 0
    0 -34.219529 -15.634410 41.790328 0.054381 -0.664661 -0.745163 0 0
    0 -34.594756 0.305083 42.150124 0.000002 -0.718188 -0.695850 0 0
  phy
    0 -34.219529 -15.634410 41.790328 0.054381 -0.664661 -0.745163 0 0
    0 -34.219620 16.244574 41.790346 -0.052714 -0.700917 -0.711292 0 0
    0 -33.134457 24.805139 41.577732 -0.161467 -0.431476 -0.887557 0 0
  phy
    0 -33.134360 -24.194971 41.577713 0.168520 -0.259092 -0.951037 0 0
    0 -34.219529 -15.634410 41.790328 0.054381 -0.664661 -0.745163 0 0
    0 -33.134457 24.805139 41.577732 -0.161467 -0.431476 -0.887557 0 0
  phy
    0 -13.457158 25.503065 58.196107 -0.215823 -0.944787 -0.246571 0 0
    0 -29.375919 35.929218 41.154097 -0.029400 0.786408 0.617007 0 0
    0 -31.596795 31.817215 41.342420 -0.261873 -0.336093 -0.904690 0 0
  phy
    0 -11.996447 29.908029 56.709633 -0.037626 0.607122 0.793717 0 0
    0 -29.375919 35.929218 41.154097 -0.029400 0.786408 0.617007 0 0
    0 -13.457158 25.503065 58.196107 -0.215823 -0.944787 -0.246571 0 0
  phy
    0 -15.254088 12.828868 59.461115 -0.111795 -0.783157 -0.611691 0 0
    0 -15.254007 -12.218710 59.461082 0.108110 -0.838145 -0.534626 0 0
    0 -13.457158 25.503065 58.196107 -0.215823 -0.944787 -0.246571 0 0
  phy
    0 -13.457158 25.503065 58.196107 -0.215823 -0.944787 -0.246571 0 0
    0 -15.254007 -12.218710 59.461082 0.108110 -0.838145 -0.534626 0 0
    0 -13.457063 -24.892899 58.196088 0.206933 -0.966046 -0.154705 0 0
  phy
    0 -13.457158 25.503065 58.196107 -0.215823 -0.944787 -0.246571 0 0
    0 -31.596795 31.817215 41.342420 -0.261873 -0.336093 -0.904690 0 0
    0 -15.254088 12.828868 59.461115 -0.111795 -0.783157 -0.611691 0 0
  phy
    0 -13.457063 -24.892899 58.196088 0.206933 -0.966046 -0.154705 0 0
    0 -11.996447 29.908029 56.709633 -0.037626 0.607122 0.793717 0 0
    0 -13.457158 25.503065 58.196107 -0.215823 -0.944787 -0.246571 0 0
  phy
    0 -13.457063 -24.892899 58.196088 0.206933 -0.966046 -0.154705 0 0
    0 -15.254007 -12.218710 59.461082 0.108110 -0.838145 -0.534626 0 0
    0 -31.596697 -31.207049 41.342401 0.272887 -0.170406 -0.946834 0 0
  phy
    0 -31.596697 -31.207049 41.342401 0.272887 -0.170406 -0.946834 0 0
    0 -15.254007 -12.218710 59.461082 0.108110 -0.838145 -0.534626 0 0
    0 -33.134360 -24.194971 41.577713 0.168520 -0.259092 -0.951037 0 0
  phy
    0 -31.596697 -31.207049 41.342401 0.272887 -0.170406 -0.946834 0 0
    0 -29.375821 -35.319054 41.154079 0.057256 0.782956 0.619437 0 0
    0 -13.457063 -24.892899 58.196088 0.206933 -0.966046 -0.154705 0 0
  phy
    0 -31.596697 -31.207049 41.342401 0.272887 -0.170406 -0.946834 0 0
    0 -31.596795 31.817215 41.342420 -0.261873 -0.336093 -0.904690 0 0
    0 -29.375919 35.929218 41.154097 -0.029400 0.786408 0.617007 0 0
  phy
    0 -29.375821 -35.319054 41.154079 0.057256 0.782956 0.619437 0 0
    0 -31.596697 -31.207049 41.342401 0.272887 -0.170406 -0.946834 0 0
    0 -29.375919 35.929218 41.154097 -0.029400 0.786408 0.617007 0 0
  phy
    0 -31.596697 -31.207049 41.342401 0.272887 -0.170406 -0.946834 0 0
    0 -33.134360 -24.194971 41.577713 0.168520 -0.259092 -0.951037 0 0
    0 -31.596795 31.817215 41.342420 -0.261873 -0.336093 -0.904690 0 0
  phy
    0 -34.219620 16.244574 41.790346 -0.052714 -0.700917 -0.711292 0 0
    0 -15.780831 0.305083 59.655576 0.000003 -0.739232 -0.673451 0 0
    0 -15.254088 12.828868 59.461115 -0.111795 -0.783157 -0.611691 0 0
  phy
    0 -34.594756 0.305083 42.150124 0.000002 -0.718188 -0.695850 0 0
    0 -15.780831 0.305083 59.655576 0.000003 -0.739232 -0.673451 0 0
    0 -34.219620 16.244574 41.790346 -0.052714 -0.700917 -0.711292 0 0
  phy
    0 -15.254088 12.828868 59.461115 -0.111795 -0.783157 -0.611691 0 0
    0 -33.134457 24.805139 41.577732 -0.161467 -0.431476 -0.887557 0 0
    0 -34.219620 16.244574 41.790346 -0.052714 -0.700917 -0.711292 0 0
  phy
    0 -31.596795 31.817215 41.342420 -0.261873 -0.336093 -0.904690 0 0
    0 -33.134457 24.805139 41.577732 -0.161467 -0.431476 -0.887557 0 0
    0 -15.254088 12.828868 59.461115 -0.111795 -0.783157 -0.611691 0 0
  phy
    0 -15.254088 12.828868 59.461115 -0.111795 -0.783157 -0.611691 0 0
    0 -15.780831 0.305083 59.655576 0.000003 -0.739232 -0.673451 0 0
    0 -15.254007 -12.218710 59.461082 0.108110 -0.838145 -0.534626 0 0
  phy
    0 -13.457063 -24.892899 58.196088 0.206933 -0.966046 -0.154705 0 0
    0 -11.996361 -29.297837 56.709624 0.016530 0.713394 0.700569 0 0
    0 -11.996447 29.908029 56.709633 -0.037626 0.607122 0.793717 0 0
  phy
    0 -13.457063 -24.892899 58.196088 0.206933 -0.966046 -0.154705 0 0
    0 -29.375821 -35.319054 41.154079 0.057256 0.782956 0.619437 0 0
    0 -11.996361 -29.297837 56.709624 0.016530 0.713394 0.700569 0 0
  phy
    0 -31.596795 31.817215 41.342420 -0.261873 -0.336093 -0.904690 0 0
    0 -33.134360 -24.194971 41.577713 0.168520 -0.259092 -0.951037 0 0
    0 -33.134457 24.805139 41.577732 -0.161467 -0.431476 -0.887557 0 0
  phy
    0 -11.996447 29.908029 56.709633 -0.037626 0.607122 0.793717 0 0
    0 -11.996361 -29.297837 56.709624 0.016530 0.713394 0.700569 0 0
    0 -29.375919 35.929218 41.154097 -0.029400 0.786408 0.617007 0 0
  phy
    0 -11.996361 -29.297837 56.709624 0.016530 0.713394 0.700569 0 0
    0 -29.375821 -35.319054 41.154079 0.057256 0.782956 0.619437 0 0
    0 -29.375919 35.929218 41.154097 -0.029400 0.786408 0.617007 0 0
  phy
    0 -33.134360 -24.194971 41.577713 0.156599 -0.517112 -0.841470 0 0
    0 -33.134299 24.805864 41.577708 -0.177908 -0.478979 -0.859609 0 0
    0 -31.596697 -31.207049 41.342401 0.259237 -0.342457 -0.903061 0 0
  phy
    0 -33.134299 24.805864 41.577708 -0.177908 -0.478979 -0.859609 0 0
    0 -33.134360 -24.194971 41.577713 0.156599 -0.517112 -0.841470 0 0
    0 -34.219524 -15.634458 41.790323 0.054381 -0.664656 -0.745168 0 0
  phy
    0 -33.134360 -24.194971 41.577713 0.156599 -0.517112 -0.841470 0 0
    0 -31.596697 -31.207049 41.342401 0.259237 -0.342457 -0.903061 0 0
    0 -15.254007 -12.218710 59.461082 0.067648 -0.980777 -0.183033 0 0
  phy
    0 -15.254007 -12.218710 59.461082 0.067648 -0.980777 -0.183033 0 0
    0 -34.219524 -15.634458 41.790323 0.054381 -0.664656 -0.745168 0 0
    0 -33.134360 -24.194971 41.577713 0.156599 -0.517112 -0.841470 0 0
  phy
    0 22.285456 -29.725017 58.084121 0.835624 -0.548587 -0.028004 0 0
    0 -13.458711 -24.886028 58.198435 0.184121 -0.957692 -0.221193 0 0
    0 -11.996361 -29.297837 56.709624 0.639064 -0.764545 -0.084070 0 0
  phy
    0 22.285456 -29.725017 58.084121 0.835624 -0.548587 -0.028004 0 0
    0 27.274630 -29.719064 58.219311 0.655683 -0.752419 0.062812 0 0
    0 -13.458711 -24.886028 58.198435 0.184121 -0.957692 -0.221193 0 0
  phy
    0 22.285456 -29.725017 58.084121 0.835624 -0.548587 -0.028004 0 0
    0 -11.996361 -29.297837 56.709624 0.639064 -0.764545 -0.084070 0 0
    0 -16.859480 -31.293443 52.468683 0.895371 -0.441603 -0.057418 0 0
  phy
    0 -16.859480 -31.293443 52.468683 0.895371 -0.441603 -0.057418 0 0
    0 42.215051 -35.314346 47.079409 0.927009 -0.375024 -0.003284 0 0
    0 22.285456 -29.725017 58.084121 0.835624 -0.548587 -0.028004 0 0
  phy
    0 42.215051 -35.314346 47.079409 0.927009 -0.375024 -0.003284 0 0
    0 27.274630 -29.719064 58.219311 0.655683 -0.752419 0.062812 0 0
    0 22.285456 -29.725017 58.084121 0.835624 -0.548587 -0.028004 0 0
  phy
    0 -23.304346 -33.526310 46.700178 0.904622 -0.417432 -0.086077 0 0
    0 42.215051 -35.314346 47.079409 0.927009 -0.375024 -0.003284 0 0
    0 -16.859480 -31.293443 52.468683 0.895371 -0.441603 -0.057418 0 0
  phy
    0 -23.304346 -33.526310 46.700178 0.904622 -0.417432 -0.086077 0 0
    0 -29.435554 -35.315501 41.159143 0.140463 0.990026 0.010863 0 0
    0 42.215051 -35.314346 47.079409 0.927009 -0.375024 -0.003284 0 0
  phy
    0 -16.859480 -31.293443 52.468683 0.895371 -0.441603 -0.057418 0 0
    0 -13.458711 -24.886028 58.198435 0.184121 -0.957692 -0.221193 0 0
    0 -23.304346 -33.526310 46.700178 0.904622 -0.417432 -0.086077 0 0
  phy
    0 -13.458711 -24.886028 58.198435 0.184121 -0.957692 -0.221193 0 0
    0 -29.435554 -35.315501 41.159143 0.140463 0.990026 0.010863 0 0
    0 -23.304346 -33.526310 46.700178 0.904622 -0.417432 -0.086077 0 0
  phy
    0 42.215051 -35.314346 47.079409 0.927009 -0.375024 -0.003284 0 0
    0 27.084245 -35.803905 43.658839 0.017975 0.998144 0.058181 0 0
    0 67.450334 -33.148720 46.859435 0.870735 -0.476338 0.122160 0 0
  phy
    0 69.018781 -31.964751 46.884699 0.048702 0.971251 0.233023 0 0
    0 67.450334 -33.148720 46.859435 0.870735 -0.476338 0.122160 0 0
    0 27.084245 -35.803905 43.658839 0.017975 0.998144 0.058181 0 0
  phy
    0 67.450334 -33.148720 46.859435 0.870735 -0.476338 0.122160 0 0
    0 69.018781 -31.964751 46.884699 0.048702 0.971251 0.233023 0 0
    0 45.507025 -26.869520 58.034560 0.671032 -0.723860 0.160447 0 0
  phy
    0 45.507025 -26.869520 58.034560 0.671032 -0.723860 0.160447 0 0
    0 27.274630 -29.719064 58.219311 0.655683 -0.752419 0.062812 0 0
    0 67.450334 -33.148720 46.859435 0.870735 -0.476338 0.122160 0 0
  phy
    0 67.450334 -33.148720 46.859435 0.870735 -0.476338 0.122160 0 0
    0 27.274630 -29.719064 58.219311 0.655683 -0.752419 0.062812 0 0
    0 42.215051 -35.314346 47.079409 0.927009 -0.375024 -0.003284 0 0
  phy
    0 45.507025 -26.869520 58.034560 0.671032 -0.723860 0.160447 0 0
    0 69.018781 -31.964751 46.884699 0.048702 0.971251 0.233023 0 0
    0 44.037418 -25.696703 58.957198 0.111193 -0.992413 0.052463 0 0
  phy
    0 44.037418 -25.696703 58.957198 0.111193 -0.992413 0.052463 0 0
    0 27.274630 -29.719064 58.219311 0.655683 -0.752419 0.062812 0 0
    0 45.507025 -26.869520 58.034560 0.671032 -0.723860 0.160447 0 0
  phy
    0 -31.596697 -31.207049 41.342401 0.259237 -0.342457 -0.903061 0 0
    0 -13.458711 -24.886028 58.198435 0.184121 -0.957692 -0.221193 0 0
    0 -15.254007 -12.218710 59.461082 0.067648 -0.980777 -0.183033 0 0
  phy
    0 -15.254007 -12.218710 59.461082 0.067648 -0.980777 -0.183033 0 0
    0 -15.780831 0.305083 59.655576 -0.003034 -0.963215 -0.268715 0 0
    0 -34.219524 -15.634458 41.790323 0.054381 -0.664656 -0.745168 0 0
  phy
    0 45.311296 -16.832042 59.656914 0.060561 -0.975125 0.213221 0 0
    0 46.377966 0.226375 59.956866 0.003838 -0.994703 0.102720 0 0
    0 -15.254007 -12.218710 59.461082 0.067648 -0.980777 -0.183033 0 0
  phy
    0 -15.254007 -12.218710 59.461082 0.067648 -0.980777 -0.183033 0 0
    0 46.377966 0.226375 59.956866 0.003838 -0.994703 0.102720 0 0
    0 -15.780831 0.305083 59.655576 -0.003034 -0.963215 -0.268715 0 0
  phy
    0 -15.254007 -12.218710 59.461082 0.067648 -0.980777 -0.183033 0 0
    0 -13.458711 -24.886028 58.198435 0.184121 -0.957692 -0.221193 0 0
    0 44.037418 -25.696703 58.957198 0.111193 -0.992413 0.052463 0 0
  phy
    0 44.037418 -25.696703 58.957198 0.111193 -0.992413 0.052463 0 0
    0 45.311296 -16.832042 59.656914 0.060561 -0.975125 0.213221 0 0
    0 -15.254007 -12.218710 59.461082 0.067648 -0.980777 -0.183033 0 0
  phy
    0 -11.996361 -29.297837 56.709624 0.639064 -0.764545 -0.084070 0 0
    0 -13.458711 -24.886028 58.198435 0.184121 -0.957692 -0.221193 0 0
    0 -16.859480 -31.293443 52.468683 0.895371 -0.441603 -0.057418 0 0
  phy
    0 -33.134299 24.805864 41.577708 -0.177908 -0.478979 -0.859609 0 0
    0 -34.219620 16.244574 41.790346 -0.052752 -0.700080 -0.712114 0 0
    0 -15.254102 12.828878 59.461101 -0.107579 -0.970739 -0.214694 0 0
  phy
    0 -15.254102 12.828878 59.461101 -0.107579 -0.970739 -0.214694 0 0
    0 -34.219620 16.244574 41.790346 -0.052752 -0.700080 -0.712114 0 0
    0 -15.432205 11.533950 59.480611 -0.024387 -0.975248 -0.219766 0 0
  phy
    0 -15.254102 12.828878 59.461101 -0.107579 -0.970739 -0.214694 0 0
    0 45.280851 16.855599 59.689969 -0.041674 -0.989312 0.139734 0 0
    0 44.037418 26.149454 58.957198 -0.115176 -0.985309 0.126099 0 0
  phy
    0 -15.432205 11.533950 59.480611 -0.024387 -0.975248 -0.219766 0 0
    0 45.280851 16.855599 59.689969 -0.041674 -0.989312 0.139734 0 0
    0 -15.254102 12.828878 59.461101 -0.107579 -0.970739 -0.214694 0 0
  phy
    0 -15.254102 12.828878 59.461101 -0.107579 -0.970739 -0.214694 0 0
    0 -13.459877 25.502741 58.196103 -0.186096 -0.946403 -0.263988 0 0
    0 -33.134299 24.805864 41.577708 -0.177908 -0.478979 -0.859609 0 0
  phy
    0 44.037418 26.149454 58.957198 -0.115176 -0.985309 0.126099 0 0
    0 -13.459877 25.502741 58.196103 -0.186096 -0.946403 -0.263988 0 0
    0 -15.254102 12.828878 59.461101 -0.107579 -0.970739 -0.214694 0 0
  phy
    0 -31.596697 -31.207049 41.342401 0.259237 -0.342457 -0.903061 0 0
    0 -33.134299 24.805864 41.577708 -0.177908 -0.478979 -0.859609 0 0
    0 -31.596777 31.817295 41.342415 -0.246678 0.575177 -0.779950 0 0
  phy
    0 -33.134299 24.805864 41.577708 -0.177908 -0.478979 -0.859609 0 0
    0 -34.219524 -15.634458 41.790323 0.054381 -0.664656 -0.745168 0 0
    0 -34.219620 16.244574 41.790346 -0.052752 -0.700080 -0.712114 0 0
  phy
    0 -13.459877 25.502741 58.196103 -0.186096 -0.946403 -0.263988 0 0
    0 -31.596777 31.817295 41.342415 -0.246678 0.575177 -0.779950 0 0
    0 -33.134299 24.805864 41.577708 -0.177908 -0.478979 -0.859609 0 0
  phy
    0 -11.996456 29.908006 56.709642 -0.870530 -0.487774 -0.065226 0 0
    0 -13.459877 25.502741 58.196103 -0.186096 -0.946403 -0.263988 0 0
    0 22.285452 30.313810 58.084121 -0.802777 -0.595470 -0.031065 0 0
  phy
    0 -13.459877 25.502741 58.196103 -0.186096 -0.946403 -0.263988 0 0
    0 27.274626 30.307859 58.219311 -0.649935 -0.757138 0.065781 0 0
    0 22.285452 30.313810 58.084121 -0.802777 -0.595470 -0.031065 0 0
  phy
    0 -11.996456 29.908006 56.709642 -0.870530 -0.487774 -0.065226 0 0
    0 22.285452 30.313810 58.084121 -0.802777 -0.595470 -0.031065 0 0
    0 42.215051 35.903142 47.079409 -0.923314 -0.383975 -0.007435 0 0
  phy
    0 42.215051 35.903142 47.079409 -0.923314 -0.383975 -0.007435 0 0
    0 22.285452 30.313810 58.084121 -0.802777 -0.595470 -0.031065 0 0
    0 27.274626 30.307859 58.219311 -0.649935 -0.757138 0.065781 0 0
  phy
    0 -29.435554 -35.315501 41.159143 0.140463 0.990026 0.010863 0 0
    0 27.084245 -35.803905 43.658839 0.017975 0.998144 0.058181 0 0
    0 42.215051 -35.314346 47.079409 0.927009 -0.375024 -0.003284 0 0
  phy
    0 72.017012 -18.021448 47.540407 0.113406 -0.733726 0.669914 0 0
    0 69.018781 -31.964751 46.884699 0.048702 0.971251 0.233023 0 0
    0 69.018781 32.417507 46.884699 -0.015315 0.991716 0.127536 0 0
  phy
    0 72.286533 16.723394 47.670589 -0.103319 -0.866693 0.488025 0 0
    0 72.017012 -18.021448 47.540407 0.113406 -0.733726 0.669914 0 0
    0 69.018781 32.417507 46.884699 -0.015315 0.991716 0.127536 0 0
  phy
    0 72.017012 -18.021448 47.540407 0.113406 -0.733726 0.669914 0 0
    0 72.286533 16.723394 47.670589 -0.103319 -0.866693 0.488025 0 0
    0 73.093842 0.226377 48.060525 0.003638 -0.907222 0.420635 0 0
  phy
    0 72.017012 -18.021448 47.540407 0.113406 -0.733726 0.669914 0 0
    0 45.311296 -16.832042 59.656914 0.060561 -0.975125 0.213221 0 0
    0 69.018781 -31.964751 46.884699 0.048702 0.971251 0.233023 0 0
  phy
    0 72.017012 -18.021448 47.540407 0.113406 -0.733726 0.669914 0 0
    0 73.093842 0.226377 48.060525 0.003638 -0.907222 0.420635 0 0
    0 45.311296 -16.832042 59.656914 0.060561 -0.975125 0.213221 0 0
  phy
    0 -31.596697 -31.207049 41.342401 0.259237 -0.342457 -0.903061 0 0
    0 -31.596777 31.817295 41.342415 -0.246678 0.575177 -0.779950 0 0
    0 -29.435554 -35.315501 41.159143 0.140463 0.990026 0.010863 0 0
  phy
    0 -31.596697 -31.207049 41.342401 0.259237 -0.342457 -0.903061 0 0
    0 -29.435554 -35.315501 41.159143 0.140463 0.990026 0.010863 0 0
    0 -13.458711 -24.886028 58.198435 0.184121 -0.957692 -0.221193 0 0
  phy
    0 69.018781 -31.964751 46.884699 0.048702 0.971251 0.233023 0 0
    0 45.311296 -16.832042 59.656914 0.060561 -0.975125 0.213221 0 0
    0 44.037418 -25.696703 58.957198 0.111193 -0.992413 0.052463 0 0
  phy
    0 -13.458711 -24.886028 58.198435 0.184121 -0.957692 -0.221193 0 0
    0 27.274630 -29.719064 58.219311 0.655683 -0.752419 0.062812 0 0
    0 44.037418 -25.696703 58.957198 0.111193 -0.992413 0.052463 0 0
  phy
    0 -34.219620 16.244574 41.790346 -0.052752 -0.700080 -0.712114 0 0
    0 -15.780831 0.305083 59.655576 -0.003034 -0.963215 -0.268715 0 0
    0 -15.432205 11.533950 59.480611 -0.024387 -0.975248 -0.219766 0 0
  phy
    0 -34.219620 16.244574 41.790346 -0.052752 -0.700080 -0.712114 0 0
    0 -34.594756 0.305083 42.150124 0.000003 -0.718187 -0.695850 0 0
    0 -15.780831 0.305083 59.655576 -0.003034 -0.963215 -0.268715 0 0
  phy
    0 -34.219524 -15.634458 41.790323 0.054381 -0.664656 -0.745168 0 0
    0 -34.594756 0.305083 42.150124 0.000003 -0.718187 -0.695850 0 0
    0 -34.219620 16.244574 41.790346 -0.052752 -0.700080 -0.712114 0 0
  phy
    0 -34.219524 -15.634458 41.790323 0.054381 -0.664656 -0.745168 0 0
    0 -15.780831 0.305083 59.655576 -0.003034 -0.963215 -0.268715 0 0
    0 -34.594756 0.305083 42.150124 0.000003 -0.718187 -0.695850 0 0
  phy
    0 44.037418 26.149454 58.957198 -0.115176 -0.985309 0.126099 0 0
    0 45.280851 16.855599 59.689969 -0.041674 -0.989312 0.139734 0 0
    0 72.286533 16.723394 47.670589 -0.103319 -0.866693 0.488025 0 0
  phy
    0 72.286533 16.723394 47.670589 -0.103319 -0.866693 0.488025 0 0
    0 69.018781 32.417507 46.884699 -0.015315 0.991716 0.127536 0 0
    0 44.037418 26.149454 58.957198 -0.115176 -0.985309 0.126099 0 0
  phy
    0 44.037418 26.149454 58.957198 -0.115176 -0.985309 0.126099 0 0
    0 69.018781 32.417507 46.884699 -0.015315 0.991716 0.127536 0 0
    0 45.507025 27.322274 58.034560 -0.666222 -0.727526 0.163873 0 0
  phy
    0 45.507025 27.322274 58.034560 -0.666222 -0.727526 0.163873 0 0
    0 27.274626 30.307859 58.219311 -0.649935 -0.757138 0.065781 0 0
    0 44.037418 26.149454 58.957198 -0.115176 -0.985309 0.126099 0 0
  phy
    0 44.037418 26.149454 58.957198 -0.115176 -0.985309 0.126099 0 0
    0 27.274626 30.307859 58.219311 -0.649935 -0.757138 0.065781 0 0
    0 -13.459877 25.502741 58.196103 -0.186096 -0.946403 -0.263988 0 0
  phy
    0 -15.432205 11.533950 59.480611 -0.024387 -0.975248 -0.219766 0 0
    0 -15.780831 0.305083 59.655576 -0.003034 -0.963215 -0.268715 0 0
    0 45.280851 16.855599 59.689969 -0.041674 -0.989312 0.139734 0 0
  phy
    0 -11.996456 29.908006 56.709642 -0.870530 -0.487774 -0.065226 0 0
    0 42.215051 35.903142 47.079409 -0.923314 -0.383975 -0.007435 0 0
    0 -29.375919 35.929218 41.154097 -0.162415 0.986448 0.023265 0 0
  phy
    0 -11.996456 29.908006 56.709642 -0.870530 -0.487774 -0.065226 0 0
    0 -29.375919 35.929218 41.154097 -0.162415 0.986448 0.023265 0 0
    0 -13.459877 25.502741 58.196103 -0.186096 -0.946403 -0.263988 0 0
  phy
    0 42.215051 35.903142 47.079409 -0.923314 -0.383975 -0.007435 0 0
    0 67.450334 33.601466 46.859435 -0.868230 -0.479643 0.126962 0 0
    0 27.084243 36.392700 43.658839 -0.034799 0.997646 0.059092 0 0
  phy
    0 67.450334 33.601466 46.859435 -0.868230 -0.479643 0.126962 0 0
    0 69.018781 32.417507 46.884699 -0.015315 0.991716 0.127536 0 0
    0 27.084243 36.392700 43.658839 -0.034799 0.997646 0.059092 0 0
  phy
    0 45.507025 27.322274 58.034560 -0.666222 -0.727526 0.163873 0 0
    0 69.018781 32.417507 46.884699 -0.015315 0.991716 0.127536 0 0
    0 67.450334 33.601466 46.859435 -0.868230 -0.479643 0.126962 0 0
  phy
    0 45.507025 27.322274 58.034560 -0.666222 -0.727526 0.163873 0 0
    0 67.450334 33.601466 46.859435 -0.868230 -0.479643 0.126962 0 0
    0 27.274626 30.307859 58.219311 -0.649935 -0.757138 0.065781 0 0
  phy
    0 67.450334 33.601466 46.859435 -0.868230 -0.479643 0.126962 0 0
    0 42.215051 35.903142 47.079409 -0.923314 -0.383975 -0.007435 0 0
    0 27.274626 30.307859 58.219311 -0.649935 -0.757138 0.065781 0 0
  phy
    0 69.018781 32.417507 46.884699 -0.015315 0.991716 0.127536 0 0
    0 69.018781 -31.964751 46.884699 0.048702 0.971251 0.233023 0 0
    0 27.084245 -35.803905 43.658839 0.017975 0.998144 0.058181 0 0
  phy
    0 45.280851 16.855599 59.689969 -0.041674 -0.989312 0.139734 0 0
    0 73.093842 0.226377 48.060525 0.003638 -0.907222 0.420635 0 0
    0 72.286533 16.723394 47.670589 -0.103319 -0.866693 0.488025 0 0
  phy
    0 -13.459877 25.502741 58.196103 -0.186096 -0.946403 -0.263988 0 0
    0 -29.375919 35.929218 41.154097 -0.162415 0.986448 0.023265 0 0
    0 -31.596777 31.817295 41.342415 -0.246678 0.575177 -0.779950 0 0
  phy
    0 -29.435554 -35.315501 41.159143 0.140463 0.990026 0.010863 0 0
    0 -31.596777 31.817295 41.342415 -0.246678 0.575177 -0.779950 0 0
    0 -29.375919 35.929218 41.154097 -0.162415 0.986448 0.023265 0 0
  phy
    0 -29.375919 35.929218 41.154097 -0.162415 0.986448 0.023265 0 0
    0 42.215051 35.903142 47.079409 -0.923314 -0.383975 -0.007435 0 0
    0 27.084243 36.392700 43.658839 -0.034799 0.997646 0.059092 0 0
  phy
    0 73.093842 0.226377 48.060525 0.003638 -0.907222 0.420635 0 0
    0 46.377966 0.226375 59.956866 0.003838 -0.994703 0.102720 0 0
    0 45.311296 -16.832042 59.656914 0.060561 -0.975125 0.213221 0 0
  phy
    0 45.280851 16.855599 59.689969 -0.041674 -0.989312 0.139734 0 0
    0 46.377966 0.226375 59.956866 0.003838 -0.994703 0.102720 0 0
    0 73.093842 0.226377 48.060525 0.003638 -0.907222 0.420635 0 0
  phy
    0 -15.780831 0.305083 59.655576 -0.003034 -0.963215 -0.268715 0 0
    0 46.377966 0.226375 59.956866 0.003838 -0.994703 0.102720 0 0
    0 45.280851 16.855599 59.689969 -0.041674 -0.989312 0.139734 0 0
  phy
    0 -29.435554 -35.315501 41.159143 0.140463 0.990026 0.010863 0 0
    0 -29.375919 35.929218 41.154097 -0.162415 0.986448 0.023265 0 0
    0 27.084245 -35.803905 43.658839 0.017975 0.998144 0.058181 0 0
  phy
    0 27.084245 -35.803905 43.658839 0.017975 0.998144 0.058181 0 0
    0 -29.375919 35.929218 41.154097 -0.162415 0.986448 0.023265 0 0
    0 27.084243 36.392700 43.658839 -0.034799 0.997646 0.059092 0 0
  phy
    0 69.018781 32.417507 46.884699 -0.015315 0.991716 0.127536 0 0
    0 27.084245 -35.803905 43.658839 0.017975 0.998144 0.058181 0 0
    0 27.084243 36.392700 43.658839 -0.034799 0.997646 0.059092 0 0
end
