// Created by Crowbar 0.74
version 1
nodes
  0 "pasted__polySurface28" -1
end
skeleton
  time 0
    0 0.000000 0.000000 0.000000 0.000000 0.000000 0.000000
end
triangles
barracuda_glass
  0 27.274628 58.219311 -30.307861 -0.045468 0.385693 -0.921506 0.820342 0.776956 1 0 1.000000
  0 27.084244 43.658840 -36.392700 -0.045468 0.385693 -0.921506 0.797907 0.992934 1 0 1.000000
  0 22.285454 58.084122 -30.313812 -0.045468 0.385693 -0.921506 0.888330 0.786608 1 0 1.000000
barracuda_glass
  0 42.215050 47.079411 -35.903141 -0.045468 0.385693 -0.921506 0.596080 0.923178 1 0 1.000000
  0 27.084244 43.658840 -36.392700 -0.045468 0.385693 -0.921506 0.797907 0.992934 1 0 1.000000
  0 27.274628 58.219311 -30.307861 -0.045468 0.385693 -0.921506 0.820342 0.776956 1 0 1.000000
barracuda_glass
  0 -11.996362 56.709625 29.297834 -0.601236 0.753653 0.265561 0.356558 0.086989 1 0 1.000000
  0 -13.457064 58.196091 24.892897 -0.627860 0.751279 0.203403 0.354642 0.151603 1 0 1.000000
  0 -16.859482 52.468681 31.293440 -0.588522 0.756988 0.283921 0.270328 0.062670 1 0 1.000000
barracuda_glass
  0 -11.996454 56.709644 -29.908010 -0.581942 0.754036 -0.304587 0.358688 0.889744 1 0 1.000000
  0 -29.375917 41.154099 -35.929222 -0.560288 0.756528 -0.337258 0.048799 0.967691 1 0 1.000000
  0 -31.596794 41.342422 -31.817219 -0.581942 0.754036 -0.304587 0.027910 0.909270 1 0 1.000000
barracuda_glass
  0 -11.996454 56.709644 -29.908010 -0.581942 0.754036 -0.304587 0.358688 0.889744 1 0 1.000000
  0 -31.596794 41.342422 -31.817219 -0.581942 0.754036 -0.304587 0.027910 0.909270 1 0 1.000000
  0 -13.457157 58.196110 -25.503069 -0.628697 0.749763 -0.206386 0.356270 0.825148 1 0 1.000000
barracuda_glass
  0 -13.457157 58.196110 -25.503069 -0.628697 0.749763 -0.206386 0.356270 0.825148 1 0 1.000000
  0 -31.596794 41.342422 -31.817219 -0.581942 0.754036 -0.304587 0.027910 0.909270 1 0 1.000000
  0 -33.134453 41.577736 -24.805140 -0.628697 0.749763 -0.206386 0.014643 0.814921 1 0 1.000000
barracuda_glass
  0 -13.457157 58.196110 -25.503069 -0.628697 0.749763 -0.206386 0.356270 0.825148 1 0 1.000000
  0 -33.134453 41.577736 -24.805140 -0.628697 0.749763 -0.206386 0.014643 0.814921 1 0 1.000000
  0 -15.254101 59.461102 -12.828880 -0.666427 0.740337 -0.088185 0.349433 0.654652 1 0 1.000000
barracuda_glass
  0 -15.254101 59.461102 -12.828880 -0.666427 0.740337 -0.088185 0.349433 0.654652 1 0 1.000000
  0 -33.134453 41.577736 -24.805140 -0.628697 0.749763 -0.206386 0.014643 0.814921 1 0 1.000000
  0 -34.219620 41.790348 -16.244577 -0.666427 0.740337 -0.088185 0.005684 0.700772 1 0 1.000000
barracuda_glass
  0 -34.219620 41.790348 -16.244577 -0.666427 0.740337 -0.088185 0.005684 0.700772 1 0 1.000000
  0 -34.594757 42.150124 -0.305086 -0.679705 0.733486 0.000003 0.004783 0.489223 1 0 1.000000
  0 -15.254101 59.461102 -12.828880 -0.666427 0.740337 -0.088185 0.349433 0.654652 1 0 1.000000
barracuda_glass
  0 -15.254101 59.461102 -12.828880 -0.666427 0.740337 -0.088185 0.349433 0.654652 1 0 1.000000
  0 -34.594757 42.150124 -0.305086 -0.679705 0.733486 0.000003 0.004783 0.489223 1 0 1.000000
  0 -15.780830 59.655579 -0.305086 -0.679705 0.733486 0.000003 0.345673 0.488399 1 0 1.000000
barracuda_glass
  0 -15.780830 59.655579 -0.305086 -0.679705 0.733486 0.000003 0.345673 0.488399 1 0 1.000000
  0 -34.594757 42.150124 -0.305086 -0.679705 0.733486 0.000003 0.004783 0.489223 1 0 1.000000
  0 -15.254007 59.461082 12.218708 -0.666426 0.740337 0.088188 0.348629 0.322129 1 0 1.000000
barracuda_glass
  0 -15.254007 59.461082 12.218708 -0.666426 0.740337 0.088188 0.348629 0.322129 1 0 1.000000
  0 -34.594757 42.150124 -0.305086 -0.679705 0.733486 0.000003 0.004783 0.489223 1 0 1.000000
  0 -34.219528 41.790329 15.634407 -0.666426 0.740337 0.088188 0.004662 0.277672 1 0 1.000000
barracuda_glass
  0 -33.134361 41.577713 24.194967 -0.627860 0.751279 0.203403 0.013069 0.163481 1 0 1.000000
  0 -15.254007 59.461082 12.218708 -0.666426 0.740337 0.088188 0.348629 0.322129 1 0 1.000000
  0 -34.219528 41.790329 15.634407 -0.666426 0.740337 0.088188 0.004662 0.277672 1 0 1.000000
barracuda_glass
  0 -13.457064 58.196091 24.892897 -0.627860 0.751279 0.203403 0.354642 0.151603 1 0 1.000000
  0 -15.254007 59.461082 12.218708 -0.666426 0.740337 0.088188 0.348629 0.322129 1 0 1.000000
  0 -33.134361 41.577713 24.194967 -0.627860 0.751279 0.203403 0.013069 0.163481 1 0 1.000000
barracuda_glass
  0 -33.134361 41.577713 24.194967 -0.627860 0.751279 0.203403 0.013069 0.163481 1 0 1.000000
  0 -31.596699 41.342400 31.207045 -0.584462 0.752176 0.304360 0.025460 0.069013 1 0 1.000000
  0 -13.457064 58.196091 24.892897 -0.627860 0.751279 0.203403 0.354642 0.151603 1 0 1.000000
barracuda_glass
  0 -13.457064 58.196091 24.892897 -0.627860 0.751279 0.203403 0.354642 0.151603 1 0 1.000000
  0 -31.596699 41.342400 31.207045 -0.584462 0.752176 0.304360 0.025460 0.069013 1 0 1.000000
  0 -16.859482 52.468681 31.293440 -0.588522 0.756988 0.283921 0.270328 0.062670 1 0 1.000000
barracuda_glass
  0 -16.859482 52.468681 31.293440 -0.588522 0.756988 0.283921 0.270328 0.062670 1 0 1.000000
  0 -31.596699 41.342400 31.207045 -0.584462 0.752176 0.304360 0.025460 0.069013 1 0 1.000000
  0 -23.304348 46.700180 33.526306 -0.575681 0.750933 0.323560 0.155351 0.034006 1 0 1.000000
barracuda_glass
  0 -23.304348 46.700180 33.526306 -0.575681 0.750933 0.323560 0.155351 0.034006 1 0 1.000000
  0 -31.596699 41.342400 31.207045 -0.584462 0.752176 0.304360 0.025460 0.069013 1 0 1.000000
  0 -29.375824 41.154079 35.319050 -0.575544 0.741523 0.344809 0.046201 0.010539 1 0 1.000000
barracuda_glass
  0 42.215050 47.079411 35.314346 -0.045468 0.385694 0.921506 0.595223 0.923369 1 0 1.000000
  0 27.274628 58.219311 29.719061 -0.045468 0.385694 0.921506 0.820228 0.777425 1 0 1.000000
  0 27.084244 43.658840 35.803905 -0.045468 0.385694 0.921506 0.797238 0.993729 1 0 1.000000
barracuda_glass
  0 27.084244 43.658840 35.803905 -0.045468 0.385694 0.921506 0.797238 0.993729 1 0 1.000000
  0 27.274628 58.219311 29.719061 -0.045468 0.385694 0.921506 0.820228 0.777425 1 0 1.000000
  0 22.285454 58.084122 29.725016 -0.045468 0.385694 0.921506 0.888313 0.787257 1 0 1.000000
barracuda_glass
  0 69.018784 46.884701 31.964754 0.372949 0.894287 0.247303 0.395031 0.040954 1 0 1.000000
  0 45.507027 58.034561 26.869520 0.333597 0.869698 0.363783 0.735530 0.107256 1 0 1.000000
  0 67.450333 46.859436 33.148720 0.333597 0.869698 0.363783 0.413812 0.023394 1 0 1.000000
barracuda_glass
  0 44.037418 58.957199 25.696703 0.372949 0.894287 0.247303 0.758028 0.122897 1 0 1.000000
  0 45.507027 58.034561 26.869520 0.333597 0.869698 0.363783 0.735530 0.107256 1 0 1.000000
  0 69.018784 46.884701 31.964754 0.372949 0.894287 0.247303 0.395031 0.040954 1 0 1.000000
barracuda_glass
  0 44.037418 58.957199 25.696703 0.372949 0.894287 0.247303 0.758028 0.122897 1 0 1.000000
  0 69.018784 46.884701 31.964754 0.372949 0.894287 0.247303 0.395031 0.040954 1 0 1.000000
  0 45.311298 59.656914 16.832043 0.408079 0.908802 0.086892 0.746797 0.239881 1 0 1.000000
barracuda_glass
  0 45.311298 59.656914 16.832043 0.408079 0.908802 0.086892 0.746797 0.239881 1 0 1.000000
  0 69.018784 46.884701 31.964754 0.372949 0.894287 0.247303 0.395031 0.040954 1 0 1.000000
  0 72.017014 47.540405 17.488852 0.408079 0.908802 0.086892 0.363124 0.231899 1 0 1.000000
barracuda_glass
  0 45.311298 59.656914 16.832043 0.408079 0.908802 0.086892 0.746797 0.239881 1 0 1.000000
  0 72.017014 47.540405 17.488852 0.408079 0.908802 0.086892 0.363124 0.231899 1 0 1.000000
  0 46.377964 59.956867 -0.226376 0.409505 0.912308 0.000000 0.736062 0.463262 1 0 1.000000
barracuda_glass
  0 46.377964 59.956867 -0.226376 0.409505 0.912308 0.000000 0.736062 0.463262 1 0 1.000000
  0 72.017014 47.540405 17.488852 0.408079 0.908802 0.086892 0.363124 0.231899 1 0 1.000000
  0 73.093842 48.060528 -0.226376 0.409505 0.912308 0.000000 0.353462 0.463987 1 0 1.000000
barracuda_glass
  0 73.093842 48.060528 -0.226376 0.409505 0.912308 0.000000 0.353462 0.463987 1 0 1.000000
  0 72.017014 47.540405 -17.941605 0.408079 0.908802 -0.086892 0.364003 0.696038 1 0 1.000000
  0 46.377964 59.956867 -0.226376 0.409505 0.912308 0.000000 0.736062 0.463262 1 0 1.000000
barracuda_glass
  0 46.377964 59.956867 -0.226376 0.409505 0.912308 0.000000 0.736062 0.463262 1 0 1.000000
  0 72.017014 47.540405 -17.941605 0.408079 0.908802 -0.086892 0.364003 0.696038 1 0 1.000000
  0 45.311298 59.656914 -17.284794 0.408079 0.908802 -0.086892 0.747644 0.686602 1 0 1.000000
barracuda_glass
  0 72.017014 47.540405 -17.941605 0.408079 0.908802 -0.086892 0.364003 0.696038 1 0 1.000000
  0 69.018784 46.884701 -32.417507 0.372949 0.894288 -0.247303 0.396632 0.886862 1 0 1.000000
  0 45.311298 59.656914 -17.284794 0.408079 0.908802 -0.086892 0.747644 0.686602 1 0 1.000000
barracuda_glass
  0 45.311298 59.656914 -17.284794 0.408079 0.908802 -0.086892 0.747644 0.686602 1 0 1.000000
  0 69.018784 46.884701 -32.417507 0.372949 0.894288 -0.247303 0.396632 0.886862 1 0 1.000000
  0 44.037418 58.957199 -26.149454 0.372949 0.894288 -0.247303 0.759319 0.803543 1 0 1.000000
barracuda_glass
  0 69.018784 46.884701 -32.417507 0.372949 0.894288 -0.247303 0.396632 0.886862 1 0 1.000000
  0 45.507027 58.034561 -27.322273 0.333596 0.869699 -0.363782 0.736880 0.819269 1 0 1.000000
  0 44.037418 58.957199 -26.149454 0.372949 0.894288 -0.247303 0.759319 0.803543 1 0 1.000000
barracuda_glass
  0 67.450333 46.859436 -33.601467 0.333596 0.869699 -0.363782 0.415480 0.904349 1 0 1.000000
  0 45.507027 58.034561 -27.322273 0.333596 0.869699 -0.363782 0.736880 0.819269 1 0 1.000000
  0 69.018784 46.884701 -32.417507 0.372949 0.894288 -0.247303 0.396632 0.886862 1 0 1.000000
end
