// Created by Crowbar 0.74
version 1
nodes
  0 "bip_pelvis" -1
  1 "bip_hip_R" 0
  2 "bip_knee_R" 1
  3 "bip_foot_R" 2
  4 "bip_spine_0" 0
  5 "bip_spine_1" 4
  6 "bip_spine_2" 5
  7 "bip_spine_3" 6
  8 "bip_collar_R" 7
  9 "bip_upperArm_R" 8
  10 "bip_lowerArm_R" 9
  11 "bip_hand_R" 10
  12 "bip_Hand_Rotate1_R" 10
  13 "bip_hip_L" 0
  14 "bip_knee_L" 13
  15 "bip_foot_L" 14
  16 "bip_neck" 7
  17 "bip_head" 16
  18 "bip_collar_L" 7
  19 "bip_upperArm_L" 18
  20 "bip_lowerArm_L" 19
  21 "bip_hand_L" 20
  22 "bip_index_0_L" 21
  23 "bip_index_0_R" 11
  24 "bip_Hand_Rotate1_L" 20
  25 "bip_Arm_Rotate1_L" 19
  26 "bip_index_1_L" 22
  27 "bip_middle_0_L" 21
  28 "bip_middle_1_L" 27
  29 "bip_ring_0_L" 21
  30 "bip_ring_1_L" 29
  31 "bip_pinky_0_L" 21
  32 "bip_pinky_1_L" 31
  33 "bip_thumb_0_L" 21
  34 "bip_thumb_1_L" 33
  35 "bip_Hand_Rotate_L" 20
  36 "bip_Arm_Rotate_L" 19
  37 "bip_Pelvis_L" 13
  38 "bip_Arm_Rotate_R" 9
  39 "bip_Arm_Rotate1_R" 9
  40 "bip_kneeMid_L" 14
  41 "Elbow_R" 10
  42 "bip_Pelvis_R" 1
  43 "bip_kneeMid_R" 2
  44 "Elbow_L" 20
  45 "bip_index_1_R" 23
  46 "bip_middle_0_R" 11
  47 "bip_middle_1_R" 46
  48 "bip_ring_0_R" 11
  49 "bip_ring_1_R" 48
  50 "bip_pinky_0_R" 11
  51 "bip_pinky_1_R" 50
  52 "bip_thumb_0_R" 11
  53 "bip_thumb_1_R" 52
  54 "bip_Hand_Rotate_R" 10
  55 "bip_toeEnd_R" 3
  56 "bip_toeEnd_L" 15
  57 "bip_indexEnd_L" 26
  58 "bip_middleEnd_L" 28
  59 "bip_RingEnd_L" 30
  60 "bip_pinkyEnd_L" 32
  61 "bip_thumbEnd_L" 34
  62 "Wp_L" 21
  63 "bip_indexEnd_R" 45
  64 "bip_middleEnd_R" 47
  65 "bip_ringEnd_R" 49
  66 "bip_pinkyEnd_R" 51
  67 "bip_thumbEnd_R" 53
  68 "Wp_R" 11
  69 "bip_forward" 17
  70 "bip_clipbone" 11
end
skeleton
  time 0
    0 0.000000 39.563190 0.000000 0.000000 0.000000 0.000000
    1 -3.366135 -1.935646 1.480067 0.111246 0.039216 -1.700668
    2 16.045450 0.000000 0.000000 -0.000323 0.133775 -0.002420
    3 17.465778 0.000001 0.000001 -0.159390 -0.178530 1.736820
    4 0.000000 4.240540 1.190873 0.000000 0.000000 0.000000
    5 0.000000 5.143673 -0.566893 0.000000 0.000000 0.000000
    6 0.000000 4.011826 -0.435470 0.000000 0.000000 0.000000
    7 0.000000 3.724953 -0.655500 0.000000 0.000000 0.000000
    8 -2.166257 -0.155743 -0.180534 0.000000 0.000000 0.157080
    9 -4.301173 0.280510 -0.232197 1.514108 -0.019862 -2.351989
    10 11.236193 0.000000 0.000004 0.000001 -0.001411 0.443439
    11 9.693705 0.000000 0.000000 1.748300 -0.156891 3.091171
    12 7.480289 0.006109 -0.010555 1.740287 -0.001411 -3.140776
    13 3.366135 -1.935787 1.480067 -0.111239 0.039223 -1.440926
    14 16.045298 0.000001 0.000000 0.000323 0.133775 0.002421
    15 17.465788 0.000000 0.000000 2.982194 0.178536 1.404771
    16 0.000000 3.134243 -0.066059 0.000000 0.000000 0.000000
    17 0.063361 3.268921 0.898785 0.000000 0.000000 0.000000
    18 2.166257 -0.155926 -0.180536 3.141592 0.000000 -0.157080
    19 4.301145 -0.280594 0.232197 0.056693 0.019859 0.789599
    20 11.236181 -0.000027 -0.000006 0.000000 0.444256 0.000000
    21 9.693651 -0.013687 0.007915 0.169489 -0.050609 0.155683
    22 3.443607 -0.311180 -1.426107 0.025754 0.180665 0.039288
    23 -3.443645 0.311172 1.426091 0.025754 0.180665 0.039288
    24 7.480257 -0.000008 -0.000010 0.169489 0.000000 0.000000
    25 6.472908 -0.000031 -0.000001 -0.028346 0.000000 0.000000
    26 1.726654 -0.000004 0.000009 0.000000 0.000000 0.507966
    27 3.628399 -0.413433 -0.461199 -0.017992 0.035722 0.129722
    28 1.717384 -0.000019 -0.000012 0.000000 0.000000 0.296827
    29 3.622608 -0.257954 0.410928 -0.173205 -0.117278 0.214490
    30 1.717384 0.000017 0.000010 0.000000 0.000000 0.254297
    31 3.401308 0.004623 1.218914 -0.166412 -0.272554 0.134906
    32 1.462820 -0.000019 -0.000014 0.000000 0.000000 0.476304
    33 1.013556 0.134880 -1.638489 -0.195039 0.518495 0.573015
    34 1.567802 0.078053 0.000011 0.000000 0.302710 0.000000
    35 4.488096 -0.000061 -0.000023 0.084744 0.000000 0.000000
    36 3.480602 -0.000145 -0.000002 -0.043610 0.000000 0.000000
    37 2.222412 0.000015 -0.267579 -3.088133 -0.110996 1.564869
    38 3.480843 0.000000 0.000004 1.527190 0.000000 3.141593
    39 6.472961 0.000000 0.000000 1.542452 0.000000 3.141593
    40 0.000000 0.000000 0.000000 3.047043 0.186859 1.513152
    41 0.000002 -0.000001 0.000000 1.571107 -0.001377 2.920281
    42 2.222565 0.000001 -0.267583 0.053460 0.111003 1.576724
    43 0.000000 0.000000 0.000000 -0.094550 -0.186859 1.628441
    44 0.000000 0.000000 -0.000001 0.000000 -0.222128 0.000000
    45 -1.726627 0.000000 0.000000 0.000000 0.000000 0.507966
    46 -3.628420 0.413422 0.461190 -0.017992 0.035722 0.129722
    47 -1.717388 0.000000 0.000001 0.000000 0.000000 0.296827
    48 -3.622635 0.257938 -0.410944 -0.173205 -0.117278 0.214490
    49 -1.717390 -0.000002 0.000000 0.000000 0.000000 0.254297
    50 -3.401335 -0.004631 -1.218926 -0.166412 -0.272554 0.134906
    51 -1.462816 -0.000004 0.000000 0.000000 0.000000 0.476304
    52 -1.013588 -0.134895 1.638474 -0.195039 0.518495 0.573015
    53 -1.567801 -0.078051 0.000000 0.000000 0.302710 0.000000
    54 4.488173 0.003667 -0.006332 1.655541 -0.001411 -3.140776
    55 -0.035184 -3.529829 6.683560 0.000000 0.000000 0.000000
    56 0.035217 3.529826 -6.683582 0.000000 0.000000 0.000000
    57 1.878918 0.000004 -0.000005 -0.337833 0.000000 0.000000
    58 1.878918 0.000006 -0.000004 -0.337833 0.000000 0.000000
    59 1.878920 -0.000013 -0.000011 -0.337833 0.000000 0.000000
    60 1.878929 0.000004 0.000001 -0.337833 0.000000 0.000000
    61 1.490896 0.144535 -0.268490 -0.337833 0.000000 0.000000
    62 3.058685 1.032097 -0.605999 0.000000 0.334862 0.049595
    63 -1.878929 0.000002 0.000002 -0.337833 0.000000 0.000000
    64 -1.878931 0.000002 0.000001 -0.337833 0.000000 0.000000
    65 -1.878933 0.000002 0.000000 -0.337833 0.000000 0.000000
    66 -1.878937 0.000004 0.000000 -0.337833 0.000000 0.000000
    67 -1.490896 -0.144542 0.268478 -0.337833 0.000000 0.000000
    68 -3.058714 -1.032104 0.605986 0.000000 0.334862 0.049595
    69 0.000000 0.000000 4.750000 0.000000 -1.570796 -1.570796
    70 -2.849998 0.000000 0.000000 0.000000 0.000000 0.000000
end
triangles
flesh_hand_01
  7 -0.539800 61.175182 -1.856142 -0.072858 0.014479 -0.997237 0.815857 0.163320 1 7 1.000000
  7 0.750437 61.519398 -1.945408 -0.081151 0.010700 -0.996644 0.816884 0.002876 1 7 1.000000
  7 0.502152 60.778282 -1.836337 -0.032542 -0.134849 -0.990332 0.750363 0.002056 1 7 1.000000
flesh_hand_01
  7 0.824663 62.039646 -1.912879 -0.097520 0.003229 -0.995228 0.998201 0.006092 1 7 1.000000
  7 -0.631885 61.619892 -1.771517 -0.104816 0.083618 -0.990970 0.904854 0.122299 1 7 1.000000
  7 -0.626818 62.350090 -1.807759 -0.097520 0.003229 -0.995228 0.992991 0.121694 1 7 1.000000
flesh_hand_01
  7 0.750437 61.519398 -1.945408 -0.081151 0.010700 -0.996644 0.816884 0.002876 1 7 1.000000
  7 -0.631885 61.619892 -1.771517 -0.104816 0.083618 -0.990970 0.904854 0.122299 1 7 1.000000
  7 0.824663 62.039646 -1.912879 -0.097520 0.003229 -0.995228 0.998201 0.006092 1 7 1.000000
flesh_hand_01
  7 -0.631885 61.619892 -1.771517 -0.104816 0.083618 -0.990970 0.904854 0.122299 1 7 1.000000
  7 0.750437 61.519398 -1.945408 -0.081151 0.010700 -0.996644 0.816884 0.002876 1 7 1.000000
  7 -0.539800 61.175182 -1.856142 -0.072858 0.014479 -0.997237 0.815857 0.122911 1 7 1.000000
flesh_hand_01
  7 -1.960534 62.250671 0.816584 -0.939700 -0.333564 -0.075486 0.869806 0.129743 1 7 1.000000
  7 -1.556746 60.982277 0.906908 -0.888113 -0.419054 0.188811 0.687547 0.163929 1 7 1.000000
  7 -1.898332 61.949852 1.447656 -0.800153 -0.279172 0.530865 0.835145 0.069680 1 7 1.000000
flesh_hand_01
  7 -1.556746 60.982277 0.906908 -0.888113 -0.419054 0.188811 0.687547 0.163929 1 7 1.000000
  7 -1.095857 61.145081 1.944460 -0.625308 -0.150864 0.765657 0.685842 0.036252 1 7 1.000000
  7 -1.898332 61.949852 1.447656 -0.800153 -0.279172 0.530865 0.835145 0.069680 1 7 1.000000
flesh_hand_01
  7 -1.095857 61.145081 1.944460 -0.625308 -0.150864 0.765657 0.685842 0.036252 1 7 1.000000
  7 -1.154351 62.080723 1.679655 -0.293470 0.024160 0.955663 0.805895 0.035328 1 7 1.000000
  7 -1.898332 61.949852 1.447656 -0.800153 -0.279172 0.530865 0.835145 0.069680 1 7 1.000000
flesh_hand_01
  7 -1.713554 61.078545 0.950452 -0.944927 0.315279 0.087819 0.694612 0.032273 1 7 1.000000
  7 -1.606289 62.234146 1.194383 -0.906738 -0.164713 0.388194 0.822610 0.032289 1 7 1.000000
  7 -1.923870 62.500420 0.557164 -0.944432 -0.055477 -0.323991 0.835145 0.069680 1 7 1.000000
flesh_hand_01
  7 -1.425433 62.958256 0.315758 -0.541375 0.173959 -0.822588 0.869806 0.129743 1 7 1.000000
  7 -1.292125 61.392185 -0.144151 -0.782618 0.401007 -0.476133 0.687547 0.163929 1 7 1.000000
  7 -1.923870 62.500420 0.557164 -0.944432 -0.055477 -0.323991 0.835145 0.069680 1 7 1.000000
flesh_hand_01
  7 -1.292125 61.392185 -0.144151 -0.782618 0.401007 -0.476133 0.687547 0.163929 1 7 1.000000
  7 -1.713554 61.078545 0.950452 -0.944927 0.315279 0.087819 0.694612 0.032273 1 7 1.000000
  7 -1.923870 62.500420 0.557164 -0.944432 -0.055477 -0.323991 0.835145 0.069680 1 7 1.000000
flesh_hand_01
  7 -1.292125 61.392185 -0.144151 -0.782618 0.401007 -0.476133 0.687547 0.163929 1 7 1.000000
  7 -1.771092 61.164272 0.332348 -0.291709 0.943368 0.157998 0.687014 0.082598 1 7 1.000000
  7 -1.713554 61.078545 0.950452 -0.944927 0.315279 0.087819 0.694612 0.032273 1 7 1.000000
flesh_hand_01
  7 -1.150764 59.614029 -3.160280 -0.398984 0.638767 -0.657867 0.968542 0.685186 1 7 1.000000
  7 -1.149943 60.358841 -2.206674 -0.367153 0.445096 -0.816754 0.970142 0.732634 1 7 1.000000
  7 0.982497 59.506393 -2.524384 0.583697 0.499447 -0.640196 0.826060 0.684416 1 7 1.000000
flesh_hand_01
  7 -1.780303 57.454475 0.129252 -0.755890 -0.286119 0.588869 0.337371 0.687698 1 7 1.000000
  7 -2.293940 59.187977 -1.117513 -0.976643 0.067378 -0.204029 0.191906 0.732696 1 7 1.000000
  7 -2.461866 58.223320 -1.651807 -0.978473 0.204786 -0.025543 0.193397 0.683719 1 7 1.000000
flesh_hand_01
  7 -1.632936 58.400696 0.721951 -0.750427 -0.155743 0.642342 0.338229 0.735435 1 7 1.000000
  7 -2.293940 59.187977 -1.117513 -0.976643 0.067378 -0.204029 0.191906 0.732696 1 7 1.000000
  7 -1.780303 57.454475 0.129252 -0.755890 -0.286119 0.588869 0.337371 0.687698 1 7 1.000000
flesh_hand_01
  7 0.029262 57.493687 1.126132 0.074006 -0.587809 0.805608 0.472024 0.688121 1 7 1.000000
  7 -1.632936 58.400696 0.721951 -0.750427 -0.155743 0.642342 0.338229 0.735435 1 7 1.000000
  7 -1.780303 57.454475 0.129252 -0.755890 -0.286119 0.588869 0.337371 0.687698 1 7 1.000000
flesh_hand_01
  7 0.093556 58.218254 1.740678 0.058690 -0.310609 0.948724 0.471140 0.736204 1 7 1.000000
  7 -1.632936 58.400696 0.721951 -0.750427 -0.155743 0.642342 0.338229 0.735435 1 7 1.000000
  7 0.029262 57.493687 1.126132 0.074006 -0.587809 0.805608 0.472024 0.688121 1 7 1.000000
flesh_hand_01
  7 1.633140 58.283489 0.391657 0.869011 -0.279548 0.408256 0.615925 0.706219 1 7 1.000000
  7 0.093556 58.218254 1.740678 0.058690 -0.310609 0.948724 0.471140 0.736204 1 7 1.000000
  7 0.029262 57.493687 1.126132 0.074006 -0.587809 0.805608 0.472024 0.688121 1 7 1.000000
flesh_hand_01
  7 1.582692 58.785847 0.780433 0.867646 -0.204661 0.453106 0.613899 0.751446 1 7 1.000000
  7 0.093556 58.218254 1.740678 0.058690 -0.310609 0.948724 0.471140 0.736204 1 7 1.000000
  7 1.633140 58.283489 0.391657 0.869011 -0.279548 0.408256 0.615925 0.706219 1 7 1.000000
flesh_hand_01
  7 1.582692 58.785847 0.780433 0.867646 -0.204661 0.453106 0.613899 0.751446 1 7 1.000000
  7 1.633140 58.283489 0.391657 0.869011 -0.279548 0.408256 0.615925 0.706219 1 7 1.000000
  7 1.795492 58.682693 -1.188732 0.997140 0.035832 -0.066541 0.715577 0.684909 1 7 1.000000
flesh_hand_01
  7 1.582692 58.785847 0.780433 0.867646 -0.204661 0.453106 0.613899 0.751446 1 7 1.000000
  7 1.795492 58.682693 -1.188732 0.997140 0.035832 -0.066541 0.715577 0.684909 1 7 1.000000
  7 1.837340 59.287010 -0.807581 0.966261 -0.122388 -0.226629 0.715691 0.734160 1 7 1.000000
flesh_hand_01
  7 0.982497 59.506393 -2.524384 0.583697 0.499447 -0.640196 0.826060 0.684416 1 7 1.000000
  7 1.837340 59.287010 -0.807581 0.966261 -0.122388 -0.226629 0.715691 0.734160 1 7 1.000000
  7 1.795492 58.682693 -1.188732 0.997140 0.035832 -0.066541 0.715577 0.684909 1 7 1.000000
flesh_hand_01
  7 0.968844 60.300598 -2.078792 0.493677 0.314650 -0.810727 0.827393 0.733482 1 7 1.000000
  7 1.837340 59.287010 -0.807581 0.966261 -0.122388 -0.226629 0.715691 0.734160 1 7 1.000000
  7 0.982497 59.506393 -2.524384 0.583697 0.499447 -0.640196 0.826060 0.684416 1 7 1.000000
flesh_hand_01
  7 0.982497 59.506393 -2.524384 0.583697 0.499447 -0.640196 0.826060 0.684416 1 7 1.000000
  7 -1.149943 60.358841 -2.206674 -0.367153 0.445096 -0.816754 0.970142 0.732634 1 7 1.000000
  7 0.968844 60.300598 -2.078792 0.493677 0.314650 -0.810727 0.827393 0.733482 1 7 1.000000
flesh_hand_01
  7 -1.149943 60.358841 -2.206674 -0.367153 0.445096 -0.816754 0.970142 0.732634 1 7 1.000000
  7 1.086810 61.182865 -1.805102 0.426621 0.369006 -0.825730 0.828726 0.782547 1 7 1.000000
  7 0.968844 60.300598 -2.078792 0.493677 0.314650 -0.810727 0.827393 0.733482 1 7 1.000000
flesh_hand_01
  7 -1.168413 61.504642 -1.719598 -0.235067 0.288844 -0.928069 0.971743 0.780083 1 7 1.000000
  7 1.086810 61.182865 -1.805102 0.426621 0.369006 -0.825730 0.828726 0.782547 1 7 1.000000
  7 -1.149943 60.358841 -2.206674 -0.367153 0.445096 -0.816754 0.970142 0.732634 1 7 1.000000
flesh_hand_01
  7 0.124434 63.175758 -1.100546 0.269296 0.306916 -0.912843 0.893167 0.878226 1 7 1.000000
  7 1.086810 61.182865 -1.805102 0.426621 0.369006 -0.825730 0.828726 0.782547 1 7 1.000000
  7 -1.168413 61.504642 -1.719598 -0.235067 0.288844 -0.928069 0.971743 0.780083 1 7 1.000000
flesh_hand_01
  7 -1.223419 63.077740 -1.280052 -0.276137 0.187329 -0.942686 0.974944 0.874979 1 7 1.000000
  7 0.124434 63.175758 -1.100546 0.269296 0.306916 -0.912843 0.893167 0.878226 1 7 1.000000
  7 -1.168413 61.504642 -1.719598 -0.235067 0.288844 -0.928069 0.971743 0.780083 1 7 1.000000
flesh_hand_01
  7 -1.419314 64.070465 -1.171312 -0.587672 0.139006 -0.797069 0.972753 0.945005 1 7 1.000000
  7 0.124434 63.175758 -1.100546 0.269296 0.306916 -0.912843 0.893167 0.878226 1 7 1.000000
  7 -1.223419 63.077740 -1.280052 -0.276137 0.187329 -0.942686 0.974944 0.874979 1 7 1.000000
flesh_hand_01
  7 0.142927 64.177139 -0.887824 0.272698 0.174678 -0.946109 0.896219 0.939299 1 7 1.000000
  7 0.124434 63.175758 -1.100546 0.269296 0.306916 -0.912843 0.893167 0.878226 1 7 1.000000
  7 -1.419314 64.070465 -1.171312 -0.587672 0.139006 -0.797069 0.972753 0.945005 1 7 1.000000
flesh_hand_01
  7 1.608307 64.041267 -0.276192 0.741945 0.061556 -0.667629 0.825010 0.933990 1 7 1.000000
  7 0.124434 63.175758 -1.100546 0.269296 0.306916 -0.912843 0.893167 0.878226 1 7 1.000000
  7 0.142927 64.177139 -0.887824 0.272698 0.174678 -0.946109 0.896219 0.939299 1 7 1.000000
flesh_hand_01
  7 -1.632936 58.400696 0.721951 -0.750427 -0.155743 0.642342 0.338229 0.735435 1 7 1.000000
  7 -1.418297 59.706905 0.851527 -0.745052 -0.241411 0.621786 0.339086 0.783173 1 7 1.000000
  7 -2.293940 59.187977 -1.117513 -0.976643 0.067378 -0.204029 0.191906 0.732696 1 7 1.000000
flesh_hand_01
  7 0.187604 59.099564 1.712236 0.129819 -0.268747 0.954422 0.470255 0.784286 1 7 1.000000
  7 0.093556 58.218254 1.740678 0.058690 -0.310609 0.948724 0.471140 0.736204 1 7 1.000000
  7 1.582692 58.785847 0.780433 0.867646 -0.204661 0.453106 0.613899 0.751446 1 7 1.000000
flesh_hand_01
  7 0.124434 63.175758 -1.100546 0.269296 0.306916 -0.912843 0.893167 0.878226 1 7 1.000000
  7 0.979220 62.397057 -0.867373 0.640105 0.338893 -0.689505 0.831392 0.880678 1 7 1.000000
  7 1.086810 61.182865 -1.805102 0.426621 0.369006 -0.825730 0.828726 0.782547 1 7 1.000000
flesh_hand_01
  7 0.979220 62.397057 -0.867373 0.640105 0.338893 -0.689505 0.831392 0.880678 1 7 1.000000
  7 0.124434 63.175758 -1.100546 0.269296 0.306916 -0.912843 0.893167 0.878226 1 7 1.000000
  7 1.608307 64.041267 -0.276192 0.741945 0.061556 -0.667629 0.825010 0.933990 1 7 1.000000
flesh_hand_01
  7 1.608307 64.041267 -0.276192 0.741945 0.061556 -0.667629 0.825010 0.933990 1 7 1.000000
  7 1.538426 61.979496 -0.320167 0.858278 0.332630 -0.390789 0.773712 0.881296 1 7 1.000000
  7 0.979220 62.397057 -0.867373 0.640105 0.338893 -0.689505 0.831392 0.880678 1 7 1.000000
flesh_hand_01
  7 1.538426 61.979496 -0.320167 0.858278 0.332630 -0.390789 0.773712 0.881296 1 7 1.000000
  7 1.086810 61.182865 -1.805102 0.426621 0.369006 -0.825730 0.828726 0.782547 1 7 1.000000
  7 0.979220 62.397057 -0.867373 0.640105 0.338893 -0.689505 0.831392 0.880678 1 7 1.000000
flesh_hand_01
  7 2.195990 60.949421 -1.151447 0.916263 0.162107 -0.366311 0.772265 0.782979 1 7 1.000000
  7 1.086810 61.182865 -1.805102 0.426621 0.369006 -0.825730 0.828726 0.782547 1 7 1.000000
  7 1.538426 61.979496 -0.320167 0.858278 0.332630 -0.390789 0.773712 0.881296 1 7 1.000000
flesh_hand_01
  7 2.195990 60.949421 -1.151447 0.916263 0.162107 -0.366311 0.772265 0.782979 1 7 1.000000
  7 0.968844 60.300598 -2.078792 0.493677 0.314650 -0.810727 0.827393 0.733482 1 7 1.000000
  7 1.086810 61.182865 -1.805102 0.426621 0.369006 -0.825730 0.828726 0.782547 1 7 1.000000
flesh_hand_01
  7 1.837340 59.287010 -0.807581 0.966261 -0.122388 -0.226629 0.715691 0.734160 1 7 1.000000
  7 0.968844 60.300598 -2.078792 0.493677 0.314650 -0.810727 0.827393 0.733482 1 7 1.000000
  7 2.195990 60.949421 -1.151447 0.916263 0.162107 -0.366311 0.772265 0.782979 1 7 1.000000
flesh_hand_01
  7 2.195990 60.949421 -1.151447 0.916263 0.162107 -0.366311 0.772265 0.782979 1 7 1.000000
  7 2.096041 60.282223 -0.232941 0.989548 -0.082346 0.118376 0.715804 0.783411 1 7 1.000000
  7 1.837340 59.287010 -0.807581 0.966261 -0.122388 -0.226629 0.715691 0.734160 1 7 1.000000
flesh_hand_01
  7 1.582692 58.785847 0.780433 0.867646 -0.204661 0.453106 0.613899 0.751446 1 7 1.000000
  7 1.837340 59.287010 -0.807581 0.966261 -0.122388 -0.226629 0.715691 0.734160 1 7 1.000000
  7 2.096041 60.282223 -0.232941 0.989548 -0.082346 0.118376 0.715804 0.783411 1 7 1.000000
flesh_hand_01
  7 1.625802 59.498013 0.938575 0.748282 -0.283704 0.599655 0.611874 0.796673 1 7 1.000000
  7 1.582692 58.785847 0.780433 0.867646 -0.204661 0.453106 0.613899 0.751446 1 7 1.000000
  7 2.096041 60.282223 -0.232941 0.989548 -0.082346 0.118376 0.715804 0.783411 1 7 1.000000
flesh_hand_01
  7 0.187604 59.099564 1.712236 0.129819 -0.268747 0.954422 0.470255 0.784286 1 7 1.000000
  7 1.582692 58.785847 0.780433 0.867646 -0.204661 0.453106 0.613899 0.751446 1 7 1.000000
  7 1.625802 59.498013 0.938575 0.748282 -0.283704 0.599655 0.611874 0.796673 1 7 1.000000
flesh_hand_01
  7 0.217107 60.564934 2.632492 0.031958 -0.647670 0.761250 0.468487 0.880451 1 7 1.000000
  7 0.187604 59.099564 1.712236 0.129819 -0.268747 0.954422 0.470255 0.784286 1 7 1.000000
  7 1.625802 59.498013 0.938575 0.748282 -0.283704 0.599655 0.611874 0.796673 1 7 1.000000
flesh_hand_01
  7 0.217107 60.564934 2.632492 0.031958 -0.647670 0.761250 0.468487 0.880451 1 7 1.000000
  7 1.625802 59.498013 0.938575 0.748282 -0.283704 0.599655 0.611874 0.796673 1 7 1.000000
  7 1.711635 60.937767 1.741612 0.825294 -0.390594 0.407831 0.607822 0.887128 1 7 1.000000
flesh_hand_01
  7 1.711635 60.937767 1.741612 0.825294 -0.390594 0.407831 0.607822 0.887128 1 7 1.000000
  7 0.225744 60.795757 3.057993 0.059779 -0.801304 0.595263 0.474044 0.934522 1 7 1.000000
  7 0.217107 60.564934 2.632492 0.031958 -0.647670 0.761250 0.468487 0.880451 1 7 1.000000
flesh_hand_01
  7 1.918757 61.552341 2.089620 0.816611 -0.493418 0.299474 0.608972 0.934274 1 7 1.000000
  7 0.225744 60.795757 3.057993 0.059779 -0.801304 0.595263 0.474044 0.934522 1 7 1.000000
  7 1.711635 60.937767 1.741612 0.825294 -0.390594 0.407831 0.607822 0.887128 1 7 1.000000
flesh_hand_01
  7 1.918757 61.552341 2.089620 0.816611 -0.493418 0.299474 0.608972 0.934274 1 7 1.000000
  7 1.711635 60.937767 1.741612 0.825294 -0.390594 0.407831 0.607822 0.887128 1 7 1.000000
  7 2.018281 61.992027 0.622709 0.971030 -0.133911 -0.197910 0.714152 0.931788 1 7 1.000000
flesh_hand_01
  7 2.018281 61.992027 0.622709 0.971030 -0.133911 -0.197910 0.714152 0.931788 1 7 1.000000
  7 1.711635 60.937767 1.741612 0.825294 -0.390594 0.407831 0.607822 0.887128 1 7 1.000000
  7 1.923225 61.523682 0.383590 0.987774 -0.009197 -0.155621 0.716031 0.881913 1 7 1.000000
flesh_hand_01
  7 1.923225 61.523682 0.383590 0.987774 -0.009197 -0.155621 0.716031 0.881913 1 7 1.000000
  7 1.608307 64.041267 -0.276192 0.741945 0.061556 -0.667629 0.825010 0.933990 1 7 1.000000
  7 2.018281 61.992027 0.622709 0.971030 -0.133911 -0.197910 0.714152 0.931788 1 7 1.000000
flesh_hand_01
  7 1.923225 61.523682 0.383590 0.987774 -0.009197 -0.155621 0.716031 0.881913 1 7 1.000000
  7 1.538426 61.979496 -0.320167 0.858278 0.332630 -0.390789 0.773712 0.881296 1 7 1.000000
  7 1.608307 64.041267 -0.276192 0.741945 0.061556 -0.667629 0.825010 0.933990 1 7 1.000000
flesh_hand_01
  7 1.538426 61.979496 -0.320167 0.858278 0.332630 -0.390789 0.773712 0.881296 1 7 1.000000
  7 1.923225 61.523682 0.383590 0.987774 -0.009197 -0.155621 0.716031 0.881913 1 7 1.000000
  7 2.195990 60.949421 -1.151447 0.916263 0.162107 -0.366311 0.772265 0.782979 1 7 1.000000
flesh_hand_01
  7 2.195990 60.949421 -1.151447 0.916263 0.162107 -0.366311 0.772265 0.782979 1 7 1.000000
  7 1.923225 61.523682 0.383590 0.987774 -0.009197 -0.155621 0.716031 0.881913 1 7 1.000000
  7 2.096041 60.282223 -0.232941 0.989548 -0.082346 0.118376 0.715804 0.783411 1 7 1.000000
flesh_hand_01
  7 1.923225 61.523682 0.383590 0.987774 -0.009197 -0.155621 0.716031 0.881913 1 7 1.000000
  7 1.711635 60.937767 1.741612 0.825294 -0.390594 0.407831 0.607822 0.887128 1 7 1.000000
  7 2.096041 60.282223 -0.232941 0.989548 -0.082346 0.118376 0.715804 0.783411 1 7 1.000000
flesh_hand_01
  7 2.096041 60.282223 -0.232941 0.989548 -0.082346 0.118376 0.715804 0.783411 1 7 1.000000
  7 1.711635 60.937767 1.741612 0.825294 -0.390594 0.407831 0.607822 0.887128 1 7 1.000000
  7 1.625802 59.498013 0.938575 0.748282 -0.283704 0.599655 0.611874 0.796673 1 7 1.000000
flesh_hand_01
  7 0.187604 59.099564 1.712236 0.129819 -0.268747 0.954422 0.470255 0.784286 1 7 1.000000
  7 -1.632936 58.400696 0.721951 -0.750427 -0.155743 0.642342 0.338229 0.735435 1 7 1.000000
  7 0.093556 58.218254 1.740678 0.058690 -0.310609 0.948724 0.471140 0.736204 1 7 1.000000
flesh_hand_01
  7 -1.418297 59.706905 0.851527 -0.745052 -0.241411 0.621786 0.339086 0.783173 1 7 1.000000
  7 -1.632936 58.400696 0.721951 -0.750427 -0.155743 0.642342 0.338229 0.735435 1 7 1.000000
  7 0.187604 59.099564 1.712236 0.129819 -0.268747 0.954422 0.470255 0.784286 1 7 1.000000
flesh_hand_01
  7 0.217107 60.564934 2.632492 0.031958 -0.647670 0.761250 0.468487 0.880451 1 7 1.000000
  7 -1.418297 59.706905 0.851527 -0.745052 -0.241411 0.621786 0.339086 0.783173 1 7 1.000000
  7 0.187604 59.099564 1.712236 0.129819 -0.268747 0.954422 0.470255 0.784286 1 7 1.000000
flesh_hand_01
  7 0.217107 60.564934 2.632492 0.031958 -0.647670 0.761250 0.468487 0.880451 1 7 1.000000
  7 -1.475034 61.072681 1.951884 -0.724817 -0.593493 0.349867 0.340801 0.878648 1 7 1.000000
  7 -1.418297 59.706905 0.851527 -0.745052 -0.241411 0.621786 0.339086 0.783173 1 7 1.000000
flesh_hand_01
  7 0.225744 60.795757 3.057993 0.059779 -0.801304 0.595263 0.474044 0.934522 1 7 1.000000
  7 -1.475034 61.072681 1.951884 -0.724817 -0.593493 0.349867 0.340801 0.878648 1 7 1.000000
  7 0.217107 60.564934 2.632492 0.031958 -0.647670 0.761250 0.468487 0.880451 1 7 1.000000
flesh_hand_01
  7 -1.742408 61.858856 2.862640 -0.631306 -0.675561 0.380881 0.347666 0.937840 1 7 1.000000
  7 -1.475034 61.072681 1.951884 -0.724817 -0.593493 0.349867 0.340801 0.878648 1 7 1.000000
  7 0.225744 60.795757 3.057993 0.059779 -0.801304 0.595263 0.474044 0.934522 1 7 1.000000
flesh_hand_01
  7 -1.475034 61.072681 1.951884 -0.724817 -0.593493 0.349867 0.340801 0.878648 1 7 1.000000
  7 -1.742408 61.858856 2.862640 -0.631306 -0.675561 0.380881 0.347666 0.937840 1 7 1.000000
  7 -2.405522 62.163544 1.471777 -0.925871 -0.377752 0.008182 0.264372 0.936798 1 7 1.000000
flesh_hand_01
  7 -2.405522 62.163544 1.471777 -0.925871 -0.377752 0.008182 0.264372 0.936798 1 7 1.000000
  7 -2.144855 61.922798 0.015559 -0.997808 -0.059551 0.028873 0.187435 0.879626 1 7 1.000000
  7 -1.475034 61.072681 1.951884 -0.724817 -0.593493 0.349867 0.340801 0.878648 1 7 1.000000
flesh_hand_01
  7 -2.405522 62.163544 1.471777 -0.925871 -0.377752 0.008182 0.264372 0.936798 1 7 1.000000
  7 -2.075943 62.560810 0.303492 -0.957295 0.201608 -0.207219 0.189073 0.935857 1 7 1.000000
  7 -2.144855 61.922798 0.015559 -0.997808 -0.059551 0.028873 0.187435 0.879626 1 7 1.000000
flesh_hand_01
  7 -1.856897 62.525280 -0.734557 -0.909034 0.218898 -0.354600 0.115152 0.877021 1 7 1.000000
  7 -2.144855 61.922798 0.015559 -0.997808 -0.059551 0.028873 0.187435 0.879626 1 7 1.000000
  7 -2.075943 62.560810 0.303492 -0.957295 0.201608 -0.207219 0.189073 0.935857 1 7 1.000000
flesh_hand_01
  7 -1.856897 62.525280 -0.734557 -0.909034 0.218898 -0.354600 0.115152 0.877021 1 7 1.000000
  7 -2.075943 62.560810 0.303492 -0.957295 0.201608 -0.207219 0.189073 0.935857 1 7 1.000000
  7 -1.419314 64.070465 -1.171312 -0.587672 0.139006 -0.797069 0.041986 0.946097 1 7 1.000000
flesh_hand_01
  7 -1.223419 63.077740 -1.280052 -0.276137 0.187329 -0.942686 0.042868 0.874416 1 7 1.000000
  7 -1.856897 62.525280 -0.734557 -0.909034 0.218898 -0.354600 0.115152 0.877021 1 7 1.000000
  7 -1.419314 64.070465 -1.171312 -0.587672 0.139006 -0.797069 0.041986 0.946097 1 7 1.000000
flesh_hand_01
  7 -1.223419 63.077740 -1.280052 -0.276137 0.187329 -0.942686 0.042868 0.874416 1 7 1.000000
  7 -1.168413 61.504642 -1.719598 -0.235067 0.288844 -0.928069 0.041740 0.780646 1 7 1.000000
  7 -1.856897 62.525280 -0.734557 -0.909034 0.218898 -0.354600 0.115152 0.877021 1 7 1.000000
flesh_hand_01
  7 -1.856897 62.525280 -0.734557 -0.909034 0.218898 -0.354600 0.115152 0.877021 1 7 1.000000
  7 -1.168413 61.504642 -1.719598 -0.235067 0.288844 -0.928069 0.041740 0.780646 1 7 1.000000
  7 -2.144653 60.971535 -1.303138 -0.755318 0.178471 -0.630589 0.116078 0.781159 1 7 1.000000
flesh_hand_01
  7 -1.168413 61.504642 -1.719598 -0.235067 0.288844 -0.928069 0.041740 0.780646 1 7 1.000000
  7 -1.149943 60.358841 -2.206674 -0.367153 0.445096 -0.816754 0.041175 0.733761 1 7 1.000000
  7 -2.144653 60.971535 -1.303138 -0.755318 0.178471 -0.630589 0.116078 0.781159 1 7 1.000000
flesh_hand_01
  7 -2.144653 60.971535 -1.303138 -0.755318 0.178471 -0.630589 0.116078 0.781159 1 7 1.000000
  7 -1.149943 60.358841 -2.206674 -0.367153 0.445096 -0.816754 0.041175 0.733761 1 7 1.000000
  7 -2.293940 59.187977 -1.117513 -0.976643 0.067378 -0.204029 0.191906 0.732696 1 7 1.000000
flesh_hand_01
  7 -1.149943 60.358841 -2.206674 -0.367153 0.445096 -0.816754 0.041175 0.733761 1 7 1.000000
  7 -1.150764 59.614029 -3.160280 -0.398984 0.638767 -0.657867 0.040611 0.686876 1 7 1.000000
  7 -2.293940 59.187977 -1.117513 -0.976643 0.067378 -0.204029 0.191906 0.732696 1 7 1.000000
flesh_hand_01
  7 -2.293940 59.187977 -1.117513 -0.976643 0.067378 -0.204029 0.191906 0.732696 1 7 1.000000
  7 -1.150764 59.614029 -3.160280 -0.398984 0.638767 -0.657867 0.040611 0.686876 1 7 1.000000
  7 -2.461866 58.223320 -1.651807 -0.978473 0.204786 -0.025543 0.193397 0.683719 1 7 1.000000
flesh_hand_01
  7 -2.293940 59.187977 -1.117513 -0.976643 0.067378 -0.204029 0.191906 0.732696 1 7 1.000000
  7 -1.418297 59.706905 0.851527 -0.745052 -0.241411 0.621786 0.339086 0.783173 1 7 1.000000
  7 -2.407309 60.360569 -0.568096 -0.981677 0.060448 0.180712 0.190416 0.781673 1 7 1.000000
flesh_hand_01
  7 -2.293940 59.187977 -1.117513 -0.976643 0.067378 -0.204029 0.191906 0.732696 1 7 1.000000
  7 -2.407309 60.360569 -0.568096 -0.981677 0.060448 0.180712 0.190416 0.781673 1 7 1.000000
  7 -2.387805 60.679573 -0.969652 -0.962115 0.134447 -0.237190 0.152350 0.781410 1 7 1.000000
flesh_hand_01
  7 -2.293940 59.187977 -1.117513 -0.976643 0.067378 -0.204029 0.191906 0.732696 1 7 1.000000
  7 -2.387805 60.679573 -0.969652 -0.962115 0.134447 -0.237190 0.152350 0.781410 1 7 1.000000
  7 -2.144653 60.971535 -1.303138 -0.755318 0.178471 -0.630589 0.116078 0.781159 1 7 1.000000
flesh_hand_01
  7 -2.144653 60.971535 -1.303138 -0.755318 0.178471 -0.630589 0.116078 0.781159 1 7 1.000000
  7 -2.387805 60.679573 -0.969652 -0.962115 0.134447 -0.237190 0.152350 0.781410 1 7 1.000000
  7 -1.856897 62.525280 -0.734557 -0.909034 0.218898 -0.354600 0.115152 0.877021 1 7 1.000000
flesh_hand_01
  7 -2.387805 60.679573 -0.969652 -0.962115 0.134447 -0.237190 0.152350 0.781410 1 7 1.000000
  7 -2.407309 60.360569 -0.568096 -0.981677 0.060448 0.180712 0.190416 0.781673 1 7 1.000000
  7 -1.856897 62.525280 -0.734557 -0.909034 0.218898 -0.354600 0.115152 0.877021 1 7 1.000000
flesh_hand_01
  7 -2.407309 60.360569 -0.568096 -0.981677 0.060448 0.180712 0.190416 0.781673 1 7 1.000000
  7 -2.144855 61.922798 0.015559 -0.997808 -0.059551 0.028873 0.187435 0.879626 1 7 1.000000
  7 -1.856897 62.525280 -0.734557 -0.909034 0.218898 -0.354600 0.115152 0.877021 1 7 1.000000
flesh_hand_01
  7 -2.144855 61.922798 0.015559 -0.997808 -0.059551 0.028873 0.187435 0.879626 1 7 1.000000
  7 -2.407309 60.360569 -0.568096 -0.981677 0.060448 0.180712 0.190416 0.781673 1 7 1.000000
  7 -1.418297 59.706905 0.851527 -0.745052 -0.241411 0.621786 0.339086 0.783173 1 7 1.000000
flesh_hand_01
  7 -1.475034 61.072681 1.951884 -0.724817 -0.593493 0.349867 0.340801 0.878648 1 7 1.000000
  7 -2.144855 61.922798 0.015559 -0.997808 -0.059551 0.028873 0.187435 0.879626 1 7 1.000000
  7 -1.418297 59.706905 0.851527 -0.745052 -0.241411 0.621786 0.339086 0.783173 1 7 1.000000
flesh_hand_01
  7 1.402453 64.025230 -0.780367 0.921224 -0.313067 -0.230945 0.998201 0.006092 1 7 1.000000
  7 1.345312 63.328468 -0.063766 0.908084 -0.180891 0.377706 0.860869 0.062588 1 7 1.000000
  7 1.156189 63.236324 -0.696287 0.960891 -0.219892 -0.168331 0.816884 0.002876 1 7 1.000000
flesh_hand_01
  7 1.550982 64.022446 -0.187144 0.920585 -0.180907 0.346115 0.995596 0.063893 1 7 1.000000
  7 1.345312 63.328468 -0.063766 0.908084 -0.180891 0.377706 0.860869 0.062588 1 7 1.000000
  7 1.402453 64.025230 -0.780367 0.921224 -0.313067 -0.230945 0.998201 0.006092 1 7 1.000000
flesh_hand_01
  7 0.987405 64.311562 0.184875 0.597315 0.014655 0.801873 0.992991 0.121694 1 7 1.000000
  7 0.931592 63.646027 0.281123 0.581462 -0.087396 0.808866 0.904854 0.122299 1 7 1.000000
  7 1.550982 64.022446 -0.187144 0.920585 -0.180907 0.346115 0.995596 0.063893 1 7 1.000000
flesh_hand_01
  7 1.550982 64.022446 -0.187144 0.920585 -0.180907 0.346115 0.995596 0.063893 1 7 1.000000
  7 0.931592 63.646027 0.281123 0.581462 -0.087396 0.808866 0.904854 0.122299 1 7 1.000000
  7 1.345312 63.328468 -0.063766 0.908084 -0.180891 0.377706 0.860869 0.062588 1 7 1.000000
flesh_hand_01
  7 0.931592 63.646027 0.281123 0.581462 -0.087396 0.808866 0.904854 0.122299 1 7 1.000000
  7 0.614290 63.094578 0.388209 0.616816 -0.065576 0.784371 0.815857 0.122911 1 7 1.000000
  7 1.345312 63.328468 -0.063766 0.908084 -0.180891 0.377706 0.860869 0.062588 1 7 1.000000
flesh_hand_01
  7 1.345312 63.328468 -0.063766 0.908084 -0.180891 0.377706 0.860869 0.062588 1 7 1.000000
  7 0.614290 63.094578 0.388209 0.616816 -0.065576 0.784371 0.815857 0.122911 1 7 1.000000
  7 1.166439 62.801910 -0.078762 0.900124 -0.138190 0.413134 0.778339 0.060839 1 7 1.000000
flesh_hand_01
  7 1.345312 63.328468 -0.063766 0.908084 -0.180891 0.377706 0.860869 0.062588 1 7 1.000000
  7 1.166439 62.801910 -0.078762 0.900124 -0.138190 0.413134 0.778339 0.060839 1 7 1.000000
  7 1.156189 63.236324 -0.696287 0.960891 -0.219892 -0.168331 0.816884 0.002876 1 7 1.000000
flesh_hand_01
  7 1.156189 63.236324 -0.696287 0.960891 -0.219892 -0.168331 0.816884 0.002876 1 7 1.000000
  7 1.166439 62.801910 -0.078762 0.900124 -0.138190 0.413134 0.778339 0.060839 1 7 1.000000
  7 1.200773 62.686657 -0.676577 0.993322 -0.114619 -0.013155 0.740821 -0.001234 1 7 1.000000
flesh_hand_01
  7 -2.407003 63.420734 0.857113 -0.927597 -0.360351 -0.098540 0.992991 0.121694 1 7 1.000000
  7 -1.960534 62.250671 0.816584 -0.939700 -0.333564 -0.075486 0.904854 0.122299 1 7 1.000000
  7 -2.395424 63.162315 1.576591 -0.756313 -0.355584 0.549136 0.995596 0.063893 1 7 1.000000
flesh_hand_01
  7 -2.395424 63.162315 1.576591 -0.756313 -0.355584 0.549136 0.995596 0.063893 1 7 1.000000
  7 -1.960534 62.250671 0.816584 -0.939700 -0.333564 -0.075486 0.904854 0.122299 1 7 1.000000
  7 -1.898332 61.949852 1.447656 -0.800153 -0.279172 0.530865 0.860869 0.062588 1 7 1.000000
flesh_hand_01
  7 -2.395424 63.162315 1.576591 -0.756313 -0.355584 0.549136 0.995596 0.063893 1 7 1.000000
  7 -1.898332 61.949852 1.447656 -0.800153 -0.279172 0.530865 0.860869 0.062588 1 7 1.000000
  7 -1.735985 63.383038 1.777969 -0.245562 -0.191214 0.950335 0.998201 0.006092 1 7 1.000000
flesh_hand_01
  7 -1.735985 63.383038 1.777969 -0.245562 -0.191214 0.950335 0.998201 0.006092 1 7 1.000000
  7 -1.898332 61.949852 1.447656 -0.800153 -0.279172 0.530865 0.860869 0.062588 1 7 1.000000
  7 -1.154351 62.080723 1.679655 -0.293470 0.024160 0.955663 0.816884 0.002876 1 7 1.000000
flesh_hand_01
  7 0.044910 61.879463 1.021377 0.067822 0.635341 0.769248 0.512617 0.146647 1 7 1.000000
  7 -0.904270 62.610001 0.501687 0.094035 0.687447 0.720121 0.574820 0.066365 1 7 1.000000
  7 -0.695653 61.981010 0.967277 0.067822 0.635341 0.769248 0.568814 0.130527 1 7 1.000000
flesh_hand_01
  7 0.596417 62.178894 0.689919 0.094035 0.687447 0.720121 0.463059 0.117067 1 7 1.000000
  7 -0.904270 62.610001 0.501687 0.094035 0.687447 0.720121 0.574820 0.066365 1 7 1.000000
  7 0.044910 61.879463 1.021377 0.067822 0.635341 0.769248 0.512617 0.146647 1 7 1.000000
flesh_hand_01
  7 -0.904270 62.610001 0.501687 0.094035 0.687447 0.720121 0.574820 0.066365 1 7 1.000000
  7 0.596417 62.178894 0.689919 0.094035 0.687447 0.720121 0.463059 0.117067 1 7 1.000000
  7 -0.362169 62.846886 0.125143 0.119700 0.735555 0.666806 0.524884 0.036840 1 7 1.000000
flesh_hand_01
  7 -0.362169 62.846886 0.125143 0.119700 0.735555 0.666806 0.524884 0.036840 1 7 1.000000
  7 0.596417 62.178894 0.689919 0.094035 0.687447 0.720121 0.463059 0.117067 1 7 1.000000
  7 0.344870 62.745972 0.127467 0.119700 0.735555 0.666806 0.470585 0.050504 1 7 1.000000
flesh_hand_01
  7 -0.083691 62.117294 -1.464412 0.750882 0.116031 -0.650164 0.686482 0.001268 1 7 1.000000
  7 1.176514 61.744274 -0.075555 0.715296 0.032060 -0.698086 0.815857 0.163320 1 7 1.000000
  7 0.732300 61.051243 -0.854018 0.750882 0.116031 -0.650164 0.687547 0.163929 1 7 1.000000
flesh_hand_01
  7 0.665601 63.367172 -0.517739 0.698143 0.053811 -0.713933 0.816884 0.002876 1 7 1.000000
  7 1.176514 61.744274 -0.075555 0.715296 0.032060 -0.698086 0.815857 0.163320 1 7 1.000000
  7 -0.083691 62.117294 -1.464412 0.750882 0.116031 -0.650164 0.686482 0.001268 1 7 1.000000
flesh_hand_01
  7 1.176514 61.744274 -0.075555 0.715296 0.032060 -0.698086 0.815857 0.163320 1 7 1.000000
  7 0.665601 63.367172 -0.517739 0.698143 0.053811 -0.713933 0.816884 0.002876 1 7 1.000000
  7 1.205139 63.329895 -0.070346 0.853299 0.127663 -0.505552 0.894375 0.004250 1 7 1.000000
flesh_hand_01
  7 1.727436 62.033764 0.539096 0.873567 0.131706 -0.468545 0.909941 0.162673 1 7 1.000000
  7 1.176514 61.744274 -0.075555 0.715296 0.032060 -0.698086 0.815857 0.163320 1 7 1.000000
  7 1.205139 63.329895 -0.070346 0.853299 0.127663 -0.505552 0.894375 0.004250 1 7 1.000000
flesh_hand_01
  7 1.205139 63.329895 -0.070346 0.853299 0.127663 -0.505552 0.894375 0.004250 1 7 1.000000
  7 1.828018 62.278389 1.207389 0.935186 0.253690 -0.247119 0.992991 0.162102 1 7 1.000000
  7 1.727436 62.033764 0.539096 0.873567 0.131706 -0.468545 0.909941 0.162673 1 7 1.000000
flesh_hand_01
  7 1.205139 63.329895 -0.070346 0.853299 0.127663 -0.505552 0.894375 0.004250 1 7 1.000000
  7 1.211416 63.906292 0.497229 0.935617 0.242456 -0.256584 0.998201 0.006092 1 7 1.000000
  7 1.828018 62.278389 1.207389 0.935186 0.253690 -0.247119 0.992991 0.162102 1 7 1.000000
flesh_hand_01
  7 -0.048034 61.514790 -1.374452 0.612438 0.014394 -0.790387 0.686482 0.001268 1 7 1.000000
  7 1.513525 62.347191 -0.149305 0.607756 0.057031 -0.792073 0.815857 0.163320 1 7 1.000000
  7 1.306136 61.264149 -0.219700 0.612438 0.014394 -0.790387 0.687547 0.163929 1 7 1.000000
flesh_hand_01
  7 0.124431 63.175758 -1.100543 0.605989 0.090875 -0.790265 0.816884 0.002876 1 7 1.000000
  7 1.513525 62.347191 -0.149305 0.607756 0.057031 -0.792073 0.815857 0.163320 1 7 1.000000
  7 -0.048034 61.514790 -1.374452 0.612438 0.014394 -0.790387 0.686482 0.001268 1 7 1.000000
flesh_hand_01
  7 1.396519 63.073696 -0.146906 0.645144 0.189768 -0.740120 0.876444 0.162904 1 7 1.000000
  7 1.513525 62.347191 -0.149305 0.607756 0.057031 -0.792073 0.815857 0.163320 1 7 1.000000
  7 0.124431 63.175758 -1.100543 0.605989 0.090875 -0.790265 0.816884 0.002876 1 7 1.000000
flesh_hand_01
  7 1.396519 63.073696 -0.146906 0.645144 0.189768 -0.740120 0.876444 0.162904 1 7 1.000000
  7 0.124431 63.175758 -1.100543 0.605989 0.090875 -0.790265 0.816884 0.002876 1 7 1.000000
  7 0.432886 64.343025 -0.628770 0.663798 0.234302 -0.710264 0.998201 0.006092 1 7 1.000000
flesh_hand_01
  7 0.432886 64.343025 -0.628770 0.663798 0.234302 -0.710264 0.998201 0.006092 1 7 1.000000
  7 1.568082 63.856190 0.433382 0.717111 0.306847 -0.625777 0.992991 0.162102 1 7 1.000000
  7 1.396519 63.073696 -0.146906 0.645144 0.189768 -0.740120 0.876444 0.162904 1 7 1.000000
flesh_hand_01
  7 -1.518277 63.799603 0.552798 -0.519353 0.159316 -0.839578 0.992991 0.121694 1 7 1.000000
  7 -1.425433 62.958256 0.315758 -0.541375 0.173959 -0.822588 0.904854 0.122299 1 7 1.000000
  7 -2.135678 63.362534 0.831823 -0.934190 -0.102879 -0.341622 0.995596 0.063893 1 7 1.000000
flesh_hand_01
  7 -2.135678 63.362534 0.831823 -0.934190 -0.102879 -0.341622 0.995596 0.063893 1 7 1.000000
  7 -1.425433 62.958256 0.315758 -0.541375 0.173959 -0.822588 0.904854 0.122299 1 7 1.000000
  7 -1.923870 62.500420 0.557164 -0.944432 -0.055477 -0.323991 0.860869 0.062588 1 7 1.000000
flesh_hand_01
  7 -2.135678 63.362534 0.831823 -0.934190 -0.102879 -0.341622 0.995596 0.063893 1 7 1.000000
  7 -1.923870 62.500420 0.557164 -0.944432 -0.055477 -0.323991 0.860869 0.062588 1 7 1.000000
  7 -1.851604 63.208591 1.446107 -0.892398 -0.314788 0.323318 0.998201 0.006092 1 7 1.000000
flesh_hand_01
  7 -1.851604 63.208591 1.446107 -0.892398 -0.314788 0.323318 0.998201 0.006092 1 7 1.000000
  7 -1.923870 62.500420 0.557164 -0.944432 -0.055477 -0.323991 0.860869 0.062588 1 7 1.000000
  7 -1.606289 62.234146 1.194383 -0.906738 -0.164713 0.388194 0.816884 0.002876 1 7 1.000000
flesh_hand_01
  7 0.133275 61.637592 1.108334 0.245445 -0.871154 0.425261 0.972753 0.945005 1 7 1.000000
  7 -0.774832 61.556755 0.616611 -0.620526 -0.715845 0.320178 0.831392 0.880678 1 7 1.000000
  7 0.024010 61.447884 0.688021 0.245445 -0.871154 0.425261 0.974944 0.874979 1 7 1.000000
flesh_hand_01
  7 -0.793161 61.962147 1.277235 -0.620526 -0.715845 0.320178 0.825010 0.933990 1 7 1.000000
  7 -0.774832 61.556755 0.616611 -0.620526 -0.715845 0.320178 0.831392 0.880678 1 7 1.000000
  7 0.133275 61.637592 1.108334 0.245445 -0.871154 0.425261 0.972753 0.945005 1 7 1.000000
flesh_hand_01
  7 -0.793161 61.962147 1.277235 -0.620526 -0.715845 0.320178 0.825010 0.933990 1 7 1.000000
  7 -1.211559 62.452656 0.246948 -0.899384 -0.104580 -0.424466 0.714152 0.931788 1 7 1.000000
  7 -0.774832 61.556755 0.616611 -0.620526 -0.715845 0.320178 0.831392 0.880678 1 7 1.000000
flesh_hand_01
  7 -0.774832 61.556755 0.616611 -0.620526 -0.715845 0.320178 0.831392 0.880678 1 7 1.000000
  7 -1.211559 62.452656 0.246948 -0.899384 -0.104580 -0.424466 0.714152 0.931788 1 7 1.000000
  7 -0.969325 62.122833 0.093196 -0.899384 -0.104580 -0.424466 0.716031 0.881913 1 7 1.000000
flesh_hand_01
  7 -1.211559 62.452656 0.246948 -0.899384 -0.104580 -0.424466 0.714152 0.931788 1 7 1.000000
  7 -0.438865 62.260529 -0.383006 -0.268523 0.297429 -0.916205 0.607176 0.880665 1 7 1.000000
  7 -0.969325 62.122833 0.093196 -0.899384 -0.104580 -0.424466 0.716031 0.881913 1 7 1.000000
flesh_hand_01
  7 -0.421862 63.170376 0.006461 -0.268523 0.297429 -0.916205 0.608972 0.934274 1 7 1.000000
  7 -0.438865 62.260529 -0.383006 -0.268523 0.297429 -0.916205 0.607176 0.880665 1 7 1.000000
  7 -1.211559 62.452656 0.246948 -0.899384 -0.104580 -0.424466 0.714152 0.931788 1 7 1.000000
flesh_hand_01
  7 -0.421862 63.170376 0.006461 -0.268523 0.297429 -0.916205 0.608972 0.934274 1 7 1.000000
  7 0.301919 62.272530 -0.245090 0.488476 0.145616 -0.860341 0.468487 0.880451 1 7 1.000000
  7 -0.438865 62.260529 -0.383006 -0.268523 0.297429 -0.916205 0.607176 0.880665 1 7 1.000000
flesh_hand_01
  7 0.530717 63.062004 -0.034796 0.488476 0.145616 -0.860341 0.474044 0.934522 1 7 1.000000
  7 0.301919 62.272530 -0.245090 0.488476 0.145616 -0.860341 0.468487 0.880451 1 7 1.000000
  7 -0.421862 63.170376 0.006461 -0.268523 0.297429 -0.916205 0.608972 0.934274 1 7 1.000000
flesh_hand_01
  7 0.530717 63.062004 -0.034796 0.488476 0.145616 -0.860341 0.474044 0.934522 1 7 1.000000
  7 0.715117 62.366081 0.301726 0.878878 -0.130384 -0.458883 0.347666 0.937840 1 7 1.000000
  7 0.301919 62.272530 -0.245090 0.488476 0.145616 -0.860341 0.468487 0.880451 1 7 1.000000
flesh_hand_01
  7 0.301919 62.272530 -0.245090 0.488476 0.145616 -0.860341 0.468487 0.880451 1 7 1.000000
  7 0.715117 62.366081 0.301726 0.878878 -0.130384 -0.458883 0.347666 0.937840 1 7 1.000000
  7 0.482472 61.870533 0.024825 0.878878 -0.130384 -0.458883 0.340801 0.878648 1 7 1.000000
flesh_hand_01
  7 0.715117 62.366081 0.301726 0.878878 -0.130384 -0.458883 0.347666 0.937840 1 7 1.000000
  7 0.552714 61.668133 0.252500 0.862300 -0.506195 -0.014340 0.187435 0.879626 1 7 1.000000
  7 0.482472 61.870533 0.024825 0.878878 -0.130384 -0.458883 0.340801 0.878648 1 7 1.000000
flesh_hand_01
  7 0.744182 62.075321 0.683057 0.862300 -0.506195 -0.014340 0.189073 0.935857 1 7 1.000000
  7 0.552714 61.668133 0.252500 0.862300 -0.506195 -0.014340 0.187435 0.879626 1 7 1.000000
  7 0.715117 62.366081 0.301726 0.878878 -0.130384 -0.458883 0.347666 0.937840 1 7 1.000000
flesh_hand_01
  7 0.744182 62.075321 0.683057 0.862300 -0.506195 -0.014340 0.189073 0.935857 1 7 1.000000
  7 0.133275 61.637592 1.108334 0.245445 -0.871154 0.425261 0.041986 0.946097 1 7 1.000000
  7 0.552714 61.668133 0.252500 0.862300 -0.506195 -0.014340 0.187435 0.879626 1 7 1.000000
flesh_hand_01
  7 0.552714 61.668133 0.252500 0.862300 -0.506195 -0.014340 0.187435 0.879626 1 7 1.000000
  7 0.133275 61.637592 1.108334 0.245445 -0.871154 0.425261 0.041986 0.946097 1 7 1.000000
  7 0.024010 61.447884 0.688021 0.245445 -0.871154 0.425261 0.042868 0.874416 1 7 1.000000
flesh_hand_01
  7 0.614290 63.094578 0.388209 0.616816 -0.065576 0.784371 0.815857 0.163320 1 7 1.000000
  7 0.651063 61.794437 0.457615 0.812204 -0.110522 0.572809 0.687547 0.163929 1 7 1.000000
  7 1.166439 62.801910 -0.078762 0.900124 -0.138190 0.413134 0.783110 0.082688 1 7 1.000000
flesh_hand_01
  7 0.651063 61.794437 0.457615 0.812204 -0.110522 0.572809 0.687547 0.163929 1 7 1.000000
  7 1.112701 61.861427 -0.664529 0.957236 -0.190376 0.217845 0.686482 0.001268 1 7 1.000000
  7 1.166439 62.801910 -0.078762 0.900124 -0.138190 0.413134 0.783110 0.082688 1 7 1.000000
flesh_hand_01
  7 1.112701 61.861427 -0.664529 0.957236 -0.190376 0.217845 0.686482 0.001268 1 7 1.000000
  7 1.200773 62.686657 -0.676577 0.993322 -0.114619 -0.013155 0.750363 0.002056 1 7 1.000000
  7 1.166439 62.801910 -0.078762 0.900124 -0.138190 0.413134 0.783110 0.082688 1 7 1.000000
flesh_hand_01
  7 2.425517 60.881660 0.491162 0.987202 -0.128317 -0.094692 0.992991 0.121694 1 7 1.000000
  7 2.290686 60.167141 0.053743 0.935041 -0.288867 -0.205556 0.904854 0.122299 1 7 1.000000
  7 2.334459 61.273323 -0.988902 0.965585 -0.197604 -0.169109 0.998201 0.006092 1 7 1.000000
flesh_hand_01
  7 2.290686 60.167141 0.053743 0.935041 -0.288867 -0.205556 0.904854 0.122299 1 7 1.000000
  7 2.035913 60.484650 -1.278091 0.894426 -0.365179 -0.258158 0.816884 0.002876 1 7 1.000000
  7 2.334459 61.273323 -0.988902 0.965585 -0.197604 -0.169109 0.998201 0.006092 1 7 1.000000
flesh_hand_01
  7 2.290686 60.167141 0.053743 0.935041 -0.288867 -0.205556 0.904854 0.122299 1 7 1.000000
  7 1.945946 59.703571 -0.231178 0.844688 -0.461263 -0.271549 0.815857 0.122911 1 7 1.000000
  7 2.035913 60.484650 -1.278091 0.894426 -0.365179 -0.258158 0.816884 0.002876 1 7 1.000000
flesh_hand_01
  7 -0.967020 61.829487 -0.150468 -0.954055 0.234781 -0.186161 0.714698 0.195427 1 7 1.000000
  7 -0.362175 62.846893 0.125148 -0.285478 0.566614 -0.772949 0.656892 0.300721 1 7 1.000000
  7 -0.416479 62.038540 -0.588027 -0.296472 0.643147 -0.706022 0.653995 0.194773 1 7 1.000000
flesh_hand_01
  7 -0.904276 62.610008 0.501688 -0.955844 0.161045 -0.245817 0.714844 0.300728 1 7 1.000000
  7 -0.362175 62.846893 0.125148 -0.285478 0.566614 -0.772949 0.656892 0.300721 1 7 1.000000
  7 -0.967020 61.829487 -0.150468 -0.954055 0.234781 -0.186161 0.714698 0.195427 1 7 1.000000
flesh_hand_01
  7 -0.967020 61.829487 -0.150468 -0.954055 0.234781 -0.186161 0.714698 0.195427 1 7 1.000000
  7 -0.695664 61.981026 0.967279 -0.652223 -0.484830 0.582705 0.778636 0.300714 1 7 1.000000
  7 -0.904276 62.610008 0.501688 -0.955844 0.161045 -0.245817 0.714844 0.300728 1 7 1.000000
flesh_hand_01
  7 -0.758256 61.106869 0.234247 -0.653349 -0.457480 0.603198 0.779297 0.194115 1 7 1.000000
  7 -0.695664 61.981026 0.967279 -0.652223 -0.484830 0.582705 0.778636 0.300714 1 7 1.000000
  7 -0.967020 61.829487 -0.150468 -0.954055 0.234781 -0.186161 0.714698 0.195427 1 7 1.000000
flesh_hand_01
  7 -0.758256 61.106869 0.234247 -0.653349 -0.457480 0.603198 0.779297 0.194115 1 7 1.000000
  7 0.044902 61.879467 1.021382 0.244576 -0.690976 0.680246 0.837127 0.300710 1 7 1.000000
  7 -0.695664 61.981026 0.967279 -0.652223 -0.484830 0.582705 0.778636 0.300714 1 7 1.000000
flesh_hand_01
  7 -0.010818 61.003948 0.284558 0.270348 -0.631273 0.726915 0.837788 0.193943 1 7 1.000000
  7 0.044902 61.879467 1.021382 0.244576 -0.690976 0.680246 0.837127 0.300710 1 7 1.000000
  7 -0.758256 61.106869 0.234247 -0.653349 -0.457480 0.603198 0.779297 0.194115 1 7 1.000000
flesh_hand_01
  7 -0.010818 61.003948 0.284558 0.270348 -0.631273 0.726915 0.837788 0.193943 1 7 1.000000
  7 0.547200 61.314915 -0.061847 0.957698 -0.214688 0.191635 0.895508 0.193908 1 7 1.000000
  7 0.044902 61.879467 1.021382 0.244576 -0.690976 0.680246 0.837127 0.300710 1 7 1.000000
flesh_hand_01
  7 0.044902 61.879467 1.021382 0.244576 -0.690976 0.680246 0.837127 0.300710 1 7 1.000000
  7 0.547200 61.314915 -0.061847 0.957698 -0.214688 0.191635 0.895508 0.193908 1 7 1.000000
  7 0.596409 62.178909 0.689928 0.941317 -0.323708 0.095574 0.894847 0.300709 1 7 1.000000
flesh_hand_01
  7 0.547200 61.314915 -0.061847 0.957698 -0.214688 0.191635 0.895508 0.193908 1 7 1.000000
  7 0.297654 61.899761 -0.638900 0.626035 0.499176 -0.599086 0.962548 0.194053 1 7 1.000000
  7 0.596409 62.178909 0.689928 0.941317 -0.323708 0.095574 0.894847 0.300709 1 7 1.000000
flesh_hand_01
  7 0.596409 62.178909 0.689928 0.941317 -0.323708 0.095574 0.894847 0.300709 1 7 1.000000
  7 0.297654 61.899761 -0.638900 0.626035 0.499176 -0.599086 0.962548 0.194053 1 7 1.000000
  7 0.344864 62.745972 0.127467 0.608137 0.424298 -0.670925 0.961888 0.300713 1 7 1.000000
flesh_hand_01
  7 0.364795 62.970932 0.325437 0.584803 0.348550 -0.732474 0.961019 0.332573 1 7 1.000000
  7 0.596409 62.178909 0.689928 0.941317 -0.323708 0.095574 0.894847 0.300709 1 7 1.000000
  7 0.344864 62.745972 0.127467 0.608137 0.424298 -0.670925 0.961888 0.300713 1 7 1.000000
flesh_hand_01
  7 0.775048 62.346611 0.920971 0.902048 -0.431556 -0.008326 0.894484 0.332570 1 7 1.000000
  7 0.596409 62.178909 0.689928 0.941317 -0.323708 0.095574 0.894847 0.300709 1 7 1.000000
  7 0.364795 62.970932 0.325437 0.584803 0.348550 -0.732474 0.961019 0.332573 1 7 1.000000
flesh_hand_01
  7 0.775048 62.346611 0.920971 0.902048 -0.431556 -0.008326 0.894484 0.332570 1 7 1.000000
  7 0.066972 62.113380 1.209945 0.217837 -0.745117 0.630355 0.837560 0.332571 1 7 1.000000
  7 0.596409 62.178909 0.689928 0.941317 -0.323708 0.095574 0.894847 0.300709 1 7 1.000000
flesh_hand_01
  7 0.596409 62.178909 0.689928 0.941317 -0.323708 0.095574 0.894847 0.300709 1 7 1.000000
  7 0.066972 62.113380 1.209945 0.217837 -0.745117 0.630355 0.837560 0.332571 1 7 1.000000
  7 0.044902 61.879467 1.021382 0.244576 -0.690976 0.680246 0.837127 0.300710 1 7 1.000000
flesh_hand_01
  7 0.066972 62.113380 1.209945 0.217837 -0.745117 0.630355 0.837560 0.332571 1 7 1.000000
  7 -0.695664 61.981026 0.967279 -0.652223 -0.484830 0.582705 0.778636 0.300714 1 7 1.000000
  7 0.044902 61.879467 1.021382 0.244576 -0.690976 0.680246 0.837127 0.300710 1 7 1.000000
flesh_hand_01
  7 -0.683762 62.227737 1.220427 -0.650309 -0.511912 0.561288 0.779281 0.332575 1 7 1.000000
  7 -0.695664 61.981026 0.967279 -0.652223 -0.484830 0.582705 0.778636 0.300714 1 7 1.000000
  7 0.066972 62.113380 1.209945 0.217837 -0.745117 0.630355 0.837560 0.332571 1 7 1.000000
flesh_hand_01
  7 -0.683762 62.227737 1.220427 -0.650309 -0.511912 0.561288 0.779281 0.332575 1 7 1.000000
  7 -0.904276 62.610008 0.501688 -0.955844 0.161045 -0.245817 0.714844 0.300728 1 7 1.000000
  7 -0.695664 61.981026 0.967279 -0.652223 -0.484830 0.582705 0.778636 0.300714 1 7 1.000000
flesh_hand_01
  7 -0.946685 63.054790 0.741844 -0.949073 0.086150 -0.303047 0.715410 0.332590 1 7 1.000000
  7 -0.904276 62.610008 0.501688 -0.955844 0.161045 -0.245817 0.714844 0.300728 1 7 1.000000
  7 -0.683762 62.227737 1.220427 -0.650309 -0.511912 0.561288 0.779281 0.332575 1 7 1.000000
flesh_hand_01
  7 -0.946685 63.054790 0.741844 -0.949073 0.086150 -0.303047 0.715410 0.332590 1 7 1.000000
  7 -0.408414 63.285400 0.374361 -0.271336 0.483264 -0.832365 0.657129 0.332583 1 7 1.000000
  7 -0.904276 62.610008 0.501688 -0.955844 0.161045 -0.245817 0.714844 0.300728 1 7 1.000000
flesh_hand_01
  7 -0.904276 62.610008 0.501688 -0.955844 0.161045 -0.245817 0.714844 0.300728 1 7 1.000000
  7 -0.408414 63.285400 0.374361 -0.271336 0.483264 -0.832365 0.657129 0.332583 1 7 1.000000
  7 -0.362175 62.846893 0.125148 -0.285478 0.566614 -0.772949 0.656892 0.300721 1 7 1.000000
flesh_hand_01
  7 -0.408414 63.285400 0.374361 -0.271336 0.483264 -0.832365 0.657129 0.332583 1 7 1.000000
  7 0.364795 62.970932 0.325437 0.584803 0.348550 -0.732474 0.600988 0.332576 1 7 1.000000
  7 -0.362175 62.846893 0.125148 -0.285478 0.566614 -0.772949 0.656892 0.300721 1 7 1.000000
flesh_hand_01
  7 -0.362175 62.846893 0.125148 -0.285478 0.566614 -0.772949 0.656892 0.300721 1 7 1.000000
  7 0.364795 62.970932 0.325437 0.584803 0.348550 -0.732474 0.600988 0.332576 1 7 1.000000
  7 0.344864 62.745972 0.127467 0.608137 0.424298 -0.670925 0.601081 0.300715 1 7 1.000000
flesh_hand_01
  7 -0.362175 62.846893 0.125148 -0.285478 0.566614 -0.772949 0.656892 0.300721 1 7 1.000000
  7 0.344864 62.745972 0.127467 0.608137 0.424298 -0.670925 0.601081 0.300715 1 7 1.000000
  7 -0.416479 62.038540 -0.588027 -0.296472 0.643147 -0.706022 0.653995 0.194773 1 7 1.000000
flesh_hand_01
  7 -0.416479 62.038540 -0.588027 -0.296472 0.643147 -0.706022 0.653995 0.194773 1 7 1.000000
  7 0.344864 62.745972 0.127467 0.608137 0.424298 -0.670925 0.601081 0.300715 1 7 1.000000
  7 0.297654 61.899761 -0.638900 0.626035 0.499176 -0.599086 0.597613 0.194190 1 7 1.000000
flesh_hand_01
  7 0.124440 63.175747 -1.100552 0.170583 0.780032 0.602039 0.366964 0.111111 1 7 1.000000
  7 -1.223413 63.077732 -1.280058 -0.159235 0.802195 0.575437 0.445101 0.178527 1 7 1.000000
  7 -0.271792 61.431255 1.271970 0.061367 0.847198 0.527721 0.197567 0.247063 1 7 1.000000
flesh_hand_01
  7 -1.223413 63.077732 -1.280058 -0.159235 0.802195 0.575437 0.445101 0.178527 1 7 1.000000
  7 -1.856897 62.525280 -0.734557 -0.183337 0.794973 0.578278 0.403975 0.246962 1 7 1.000000
  7 -0.271792 61.431255 1.271970 0.061367 0.847198 0.527721 0.197567 0.247063 1 7 1.000000
flesh_hand_01
  7 -1.856897 62.525280 -0.734557 -0.183337 0.794973 0.578278 0.403975 0.246962 1 7 1.000000
  7 -2.144846 61.922783 0.015552 -0.111542 0.859185 0.499359 0.362797 0.315483 1 7 1.000000
  7 -0.271792 61.431255 1.271970 0.061367 0.847198 0.527721 0.197567 0.247063 1 7 1.000000
flesh_hand_01
  7 -2.144846 61.922783 0.015552 -0.111542 0.859185 0.499359 0.362797 0.315483 1 7 1.000000
  7 -1.475028 61.072666 1.951877 0.002821 0.882447 0.470404 0.191009 0.362583 1 7 1.000000
  7 -0.271792 61.431255 1.271970 0.061367 0.847198 0.527721 0.197567 0.247063 1 7 1.000000
flesh_hand_01
  7 -1.475028 61.072666 1.951877 0.002821 0.882447 0.470404 0.191009 0.362583 1 7 1.000000
  7 0.217110 60.564930 2.632489 0.077152 0.866569 0.493057 0.073401 0.280074 1 7 1.000000
  7 -0.271792 61.431255 1.271970 0.061367 0.847198 0.527721 0.197567 0.247063 1 7 1.000000
flesh_hand_01
  7 1.711641 60.937752 1.741605 0.110471 0.881278 0.459506 0.079355 0.137703 1 7 1.000000
  7 -0.271792 61.431255 1.271970 0.061367 0.847198 0.527721 0.197567 0.247063 1 7 1.000000
  7 0.217110 60.564930 2.632489 0.077152 0.866569 0.493057 0.073401 0.280074 1 7 1.000000
flesh_hand_01
  7 1.923233 61.523666 0.383581 0.135928 0.872098 0.470073 0.166088 0.060608 1 7 1.000000
  7 -0.271792 61.431255 1.271970 0.061367 0.847198 0.527721 0.197567 0.247063 1 7 1.000000
  7 1.711641 60.937752 1.741605 0.110471 0.881278 0.459506 0.079355 0.137703 1 7 1.000000
flesh_hand_01
  7 1.538426 61.979496 -0.320167 0.161270 0.862182 0.480243 0.237845 0.060394 1 7 1.000000
  7 -0.271792 61.431255 1.271970 0.061367 0.847198 0.527721 0.197567 0.247063 1 7 1.000000
  7 1.923233 61.523666 0.383581 0.135928 0.872098 0.470073 0.166088 0.060608 1 7 1.000000
flesh_hand_01
  7 0.979229 62.397041 -0.867382 0.315893 0.782638 0.536367 0.307939 0.060185 1 7 1.000000
  7 -0.271792 61.431255 1.271970 0.061367 0.847198 0.527721 0.197567 0.247063 1 7 1.000000
  7 1.538426 61.979496 -0.320167 0.161270 0.862182 0.480243 0.237845 0.060394 1 7 1.000000
flesh_hand_01
  7 -0.271792 61.431255 1.271970 0.061367 0.847198 0.527721 0.197567 0.247063 1 7 1.000000
  7 0.979229 62.397041 -0.867382 0.315893 0.782638 0.536367 0.307939 0.060185 1 7 1.000000
  7 0.124440 63.175747 -1.100552 0.170583 0.780032 0.602039 0.366964 0.111111 1 7 1.000000
flesh_hand_01
  7 -2.285810 60.450993 -0.784185 -0.994162 -0.098996 -0.042907 0.904854 0.122299 1 7 1.000000
  7 -2.262259 61.527916 -0.548403 -0.994162 -0.098996 -0.042907 0.992991 0.121694 1 7 1.000000
  7 -2.134334 60.461704 -1.052448 -0.949383 -0.130633 -0.285668 0.860869 0.062588 1 7 1.000000
flesh_hand_01
  7 -2.134334 60.461704 -1.052448 -0.949383 -0.130633 -0.285668 0.860869 0.062588 1 7 1.000000
  7 -2.262259 61.527916 -0.548403 -0.994162 -0.098996 -0.042907 0.992991 0.121694 1 7 1.000000
  7 -2.421073 61.841705 -0.858805 -0.949383 -0.130633 -0.285668 0.995596 0.063893 1 7 1.000000
flesh_hand_01
  7 -2.134334 60.461704 -1.052448 -0.949383 -0.130633 -0.285668 0.860869 0.062588 1 7 1.000000
  7 -2.421073 61.841705 -0.858805 -0.949383 -0.130633 -0.285668 0.995596 0.063893 1 7 1.000000
  7 -1.816137 60.796959 -1.545221 -0.845800 -0.154179 -0.510735 0.816884 0.002876 1 7 1.000000
flesh_hand_01
  7 -1.816137 60.796959 -1.545221 -0.845800 -0.154179 -0.510735 0.816884 0.002876 1 7 1.000000
  7 -2.421073 61.841705 -0.858805 -0.949383 -0.130633 -0.285668 0.995596 0.063893 1 7 1.000000
  7 -2.145102 61.894718 -1.467210 -0.845800 -0.154179 -0.510735 0.998201 0.006092 1 7 1.000000
flesh_hand_01
  7 -0.281594 62.620598 0.182553 -0.288379 0.195860 -0.937271 0.656892 0.300721 1 7 1.000000
  7 0.243108 62.878567 0.289217 0.545998 0.316052 -0.775885 0.600988 0.332576 1 7 1.000000
  7 0.296347 62.622505 0.205095 0.545998 0.316052 -0.775885 0.601081 0.300715 1 7 1.000000
flesh_hand_01
  7 -0.450261 63.033035 0.306880 -0.288379 0.195860 -0.937271 0.657129 0.332583 1 7 1.000000
  7 0.243108 62.878567 0.289217 0.545998 0.316052 -0.775885 0.600988 0.332576 1 7 1.000000
  7 -0.281594 62.620598 0.182553 -0.288379 0.195860 -0.937271 0.656892 0.300721 1 7 1.000000
flesh_hand_01
  7 -0.705216 62.395309 0.444321 -0.838573 -0.252748 -0.482611 0.714844 0.300728 1 7 1.000000
  7 -0.450261 63.033035 0.306880 -0.288379 0.195860 -0.937271 0.657129 0.332583 1 7 1.000000
  7 -0.281594 62.620598 0.182553 -0.288379 0.195860 -0.937271 0.656892 0.300721 1 7 1.000000
flesh_hand_01
  7 -0.892319 62.737087 0.629729 -0.838573 -0.252748 -0.482611 0.715410 0.332590 1 7 1.000000
  7 -0.450261 63.033035 0.306880 -0.288379 0.195860 -0.937271 0.657129 0.332583 1 7 1.000000
  7 -0.705216 62.395309 0.444321 -0.838573 -0.252748 -0.482611 0.714844 0.300728 1 7 1.000000
flesh_hand_01
  7 -0.892319 62.737087 0.629729 -0.838573 -0.252748 -0.482611 0.715410 0.332590 1 7 1.000000
  7 -0.705216 62.395309 0.444321 -0.838573 -0.252748 -0.482611 0.714844 0.300728 1 7 1.000000
  7 -0.608015 62.194057 1.075631 -0.555040 -0.776379 0.298607 0.779281 0.332575 1 7 1.000000
flesh_hand_01
  7 -0.608015 62.194057 1.075631 -0.555040 -0.776379 0.298607 0.779281 0.332575 1 7 1.000000
  7 -0.705216 62.395309 0.444321 -0.838573 -0.252748 -0.482611 0.714844 0.300728 1 7 1.000000
  7 -0.454027 61.961166 0.788883 -0.555040 -0.776379 0.298607 0.778636 0.300714 1 7 1.000000
flesh_hand_01
  7 -0.608015 62.194057 1.075631 -0.555040 -0.776379 0.298607 0.779281 0.332575 1 7 1.000000
  7 -0.454027 61.961166 0.788883 -0.555040 -0.776379 0.298607 0.778636 0.300714 1 7 1.000000
  7 0.114279 62.189167 1.235331 0.303042 -0.807810 0.505577 0.837560 0.332571 1 7 1.000000
flesh_hand_01
  7 0.114279 62.189167 1.235331 0.303042 -0.807810 0.505577 0.837560 0.332571 1 7 1.000000
  7 -0.454027 61.961166 0.788883 -0.555040 -0.776379 0.298607 0.778636 0.300714 1 7 1.000000
  7 0.142099 61.971554 0.847872 0.303042 -0.807810 0.505577 0.837127 0.300710 1 7 1.000000
flesh_hand_01
  7 0.114279 62.189167 1.235331 0.303042 -0.807810 0.505577 0.837560 0.332571 1 7 1.000000
  7 0.142099 61.971554 0.847872 0.303042 -0.807810 0.505577 0.837127 0.300710 1 7 1.000000
  7 0.606691 62.402493 0.801442 0.964591 -0.263558 0.010024 0.894484 0.332570 1 7 1.000000
flesh_hand_01
  7 0.606691 62.402493 0.801442 0.964591 -0.263558 0.010024 0.894484 0.332570 1 7 1.000000
  7 0.142099 61.971554 0.847872 0.303042 -0.807810 0.505577 0.837127 0.300710 1 7 1.000000
  7 0.548501 62.246227 0.622250 0.964591 -0.263558 0.010024 0.894847 0.300709 1 7 1.000000
flesh_hand_01
  7 0.296347 62.622505 0.205095 0.545998 0.316052 -0.775885 0.961888 0.300713 1 7 1.000000
  7 0.606691 62.402493 0.801442 0.964591 -0.263558 0.010024 0.894484 0.332570 1 7 1.000000
  7 0.548501 62.246227 0.622250 0.964591 -0.263558 0.010024 0.894847 0.300709 1 7 1.000000
flesh_hand_01
  7 0.243108 62.878567 0.289217 0.545998 0.316052 -0.775885 0.961019 0.332573 1 7 1.000000
  7 0.606691 62.402493 0.801442 0.964591 -0.263558 0.010024 0.894484 0.332570 1 7 1.000000
  7 0.296347 62.622505 0.205095 0.545998 0.316052 -0.775885 0.961888 0.300713 1 7 1.000000
flesh_hand_01
  7 1.762125 59.478676 -0.219995 0.839927 -0.497674 -0.216432 0.860869 0.062588 1 7 1.000000
  7 1.976715 59.554665 0.753233 0.840075 -0.522897 -0.144402 0.992991 0.121694 1 7 1.000000
  7 1.541777 58.868675 0.312445 0.840075 -0.522897 -0.144402 0.904854 0.122299 1 7 1.000000
flesh_hand_01
  7 2.194216 59.936749 0.240453 0.839927 -0.497674 -0.216432 0.995596 0.063893 1 7 1.000000
  7 1.976715 59.554665 0.753233 0.840075 -0.522897 -0.144402 0.992991 0.121694 1 7 1.000000
  7 1.762125 59.478676 -0.219995 0.839927 -0.497674 -0.216432 0.860869 0.062588 1 7 1.000000
flesh_hand_01
  7 1.810586 59.836353 -0.710609 0.834887 -0.469553 -0.287201 0.816884 0.002876 1 7 1.000000
  7 2.194216 59.936749 0.240453 0.839927 -0.497674 -0.216432 0.995596 0.063893 1 7 1.000000
  7 1.762125 59.478676 -0.219995 0.839927 -0.497674 -0.216432 0.860869 0.062588 1 7 1.000000
flesh_hand_01
  7 2.310745 60.420486 -0.164961 0.834887 -0.469553 -0.287201 0.998201 0.006092 1 7 1.000000
  7 2.194216 59.936749 0.240453 0.839927 -0.497674 -0.216432 0.995596 0.063893 1 7 1.000000
  7 1.810586 59.836353 -0.710609 0.834887 -0.469553 -0.287201 0.816884 0.002876 1 7 1.000000
flesh_hand_01
  7 -2.086242 59.299583 1.227460 -0.529543 -0.764487 0.367620 0.992991 0.162102 1 7 1.000000
  7 -1.442169 58.707111 0.693492 -0.588593 -0.678776 0.439114 0.815857 0.163320 1 7 1.000000
  7 -0.517448 58.871574 2.367548 -0.529543 -0.764487 0.367620 0.998201 0.006092 1 7 1.000000
flesh_hand_01
  7 -0.517448 58.871574 2.367548 -0.529543 -0.764487 0.367620 0.998201 0.006092 1 7 1.000000
  7 -1.442169 58.707111 0.693492 -0.588593 -0.678776 0.439114 0.815857 0.163320 1 7 1.000000
  7 -0.404616 58.367729 1.711938 -0.588593 -0.678776 0.439114 0.816884 0.002876 1 7 1.000000
flesh_hand_01
  7 -1.442169 58.707111 0.693492 -0.588593 -0.678776 0.439114 0.815857 0.163320 1 7 1.000000
  7 -1.136625 57.972008 0.326696 -0.638259 -0.582242 0.503606 0.687547 0.163929 1 7 1.000000
  7 -0.404616 58.367729 1.711938 -0.588593 -0.678776 0.439114 0.816884 0.002876 1 7 1.000000
flesh_hand_01
  7 -0.404616 58.367729 1.711938 -0.588593 -0.678776 0.439114 0.816884 0.002876 1 7 1.000000
  7 -1.136625 57.972008 0.326696 -0.638259 -0.582242 0.503606 0.687547 0.163929 1 7 1.000000
  7 -0.123794 57.620972 1.108637 -0.638259 -0.582242 0.503606 0.686482 0.001268 1 7 1.000000
flesh_hand_01
  7 -2.325571 61.037899 -0.892012 -0.999403 0.013586 0.031756 0.816748 0.024146 1 7 1.000000
  7 -2.149083 61.015530 -1.376611 -0.608332 0.124813 -0.783807 0.816370 0.083098 1 7 1.000000
  7 -2.582942 60.638515 -1.273057 -0.830170 0.463111 -0.310395 0.686840 0.056044 1 7 1.000000
flesh_hand_01
  7 -2.149083 61.015530 -1.376611 -0.608332 0.124813 -0.783807 0.816370 0.083098 1 7 1.000000
  7 -2.272487 60.122135 -1.554729 -0.402055 0.185605 -0.896606 0.687014 0.082598 1 7 1.000000
  7 -2.582942 60.638515 -1.273057 -0.830170 0.463111 -0.310395 0.686840 0.056044 1 7 1.000000
flesh_hand_01
  7 -2.149083 61.015530 -1.376611 -0.608332 0.124813 -0.783807 0.816370 0.083098 1 7 1.000000
  7 -1.493575 60.233994 -1.776701 -0.390738 0.138162 -0.910074 0.687547 0.163929 1 7 1.000000
  7 -2.272487 60.122135 -1.554729 -0.402055 0.185605 -0.896606 0.687014 0.082598 1 7 1.000000
flesh_hand_01
  7 -1.382293 61.182869 -1.775898 -0.375184 0.004496 -0.926939 0.815857 0.163320 1 7 1.000000
  7 -1.493575 60.233994 -1.776701 -0.390738 0.138162 -0.910074 0.687547 0.163929 1 7 1.000000
  7 -2.149083 61.015530 -1.376611 -0.608332 0.124813 -0.783807 0.816370 0.083098 1 7 1.000000
flesh_hand_01
  7 -2.149083 61.015530 -1.376611 -0.608332 0.124813 -0.783807 0.816370 0.083098 1 7 1.000000
  7 -1.449437 62.186344 -1.806189 -0.352729 -0.129253 -0.926756 0.992991 0.162102 1 7 1.000000
  7 -1.382293 61.182869 -1.775898 -0.375184 0.004496 -0.926939 0.815857 0.163320 1 7 1.000000
flesh_hand_01
  7 -2.559286 62.131226 -1.460195 -0.632263 -0.280206 -0.722307 0.995596 0.084097 1 7 1.000000
  7 -1.449437 62.186344 -1.806189 -0.352729 -0.129253 -0.926756 0.992991 0.162102 1 7 1.000000
  7 -2.149083 61.015530 -1.376611 -0.608332 0.124813 -0.783807 0.816370 0.083098 1 7 1.000000
flesh_hand_01
  7 -2.149083 61.015530 -1.376611 -0.608332 0.124813 -0.783807 0.816370 0.083098 1 7 1.000000
  7 -2.325571 61.037899 -0.892012 -0.999403 0.013586 0.031756 0.816748 0.024146 1 7 1.000000
  7 -2.559286 62.131226 -1.460195 -0.632263 -0.280206 -0.722307 0.995596 0.084097 1 7 1.000000
flesh_hand_01
  7 -2.559286 62.131226 -1.460195 -0.632263 -0.280206 -0.722307 0.995596 0.084097 1 7 1.000000
  7 -2.325571 61.037899 -0.892012 -0.999403 0.013586 0.031756 0.816748 0.024146 1 7 1.000000
  7 -2.915002 61.841576 -0.638545 -0.837277 -0.532798 -0.122859 0.998201 0.006092 1 7 1.000000
flesh_hand_01
  7 -2.325571 61.037899 -0.892012 -0.999403 0.013586 0.031756 0.816748 0.024146 1 7 1.000000
  7 -2.279200 61.039646 -0.691270 -0.947482 -0.231269 0.220892 0.816884 0.002876 1 7 1.000000
  7 -2.915002 61.841576 -0.638545 -0.837277 -0.532798 -0.122859 0.998201 0.006092 1 7 1.000000
flesh_hand_01
  7 -2.530585 60.101479 -0.938108 -0.928412 0.187469 0.320789 0.686482 0.001268 1 7 1.000000
  7 -2.279200 61.039646 -0.691270 -0.947482 -0.231269 0.220892 0.816884 0.002876 1 7 1.000000
  7 -2.325571 61.037899 -0.892012 -0.999403 0.013586 0.031756 0.816748 0.024146 1 7 1.000000
flesh_hand_01
  7 -2.582942 60.638515 -1.273057 -0.830170 0.463111 -0.310395 0.686840 0.056044 1 7 1.000000
  7 -2.530585 60.101479 -0.938108 -0.928412 0.187469 0.320789 0.686482 0.001268 1 7 1.000000
  7 -2.325571 61.037899 -0.892012 -0.999403 0.013586 0.031756 0.816748 0.024146 1 7 1.000000
flesh_hand_01
  7 1.771725 61.488770 1.997971 0.716801 -0.668994 0.196580 0.189073 0.935857 1 7 1.000000
  7 0.790023 60.722553 1.890349 0.386284 -0.800400 0.458416 0.115152 0.877021 1 7 1.000000
  7 1.444884 60.729694 1.514238 0.716801 -0.668994 0.196580 0.187435 0.879626 1 7 1.000000
flesh_hand_01
  7 1.352144 61.707470 3.373691 0.386284 -0.800400 0.458416 0.115529 0.940977 1 7 1.000000
  7 0.790023 60.722553 1.890349 0.386284 -0.800400 0.458416 0.115152 0.877021 1 7 1.000000
  7 1.771725 61.488770 1.997971 0.716801 -0.668994 0.196580 0.189073 0.935857 1 7 1.000000
flesh_hand_01
  7 1.352144 61.707470 3.373691 0.386284 -0.800400 0.458416 0.115529 0.940977 1 7 1.000000
  7 0.136506 60.720020 2.252199 -0.146271 -0.813217 0.563278 0.042868 0.874416 1 7 1.000000
  7 0.790023 60.722553 1.890349 0.386284 -0.800400 0.458416 0.115152 0.877021 1 7 1.000000
flesh_hand_01
  7 0.323860 61.576092 3.575906 -0.146271 -0.813217 0.563278 0.041986 0.946097 1 7 1.000000
  7 0.136506 60.720020 2.252199 -0.146271 -0.813217 0.563278 0.042868 0.874416 1 7 1.000000
  7 1.352144 61.707470 3.373691 0.386284 -0.800400 0.458416 0.115529 0.940977 1 7 1.000000
flesh_hand_01
  7 0.323860 61.576092 3.575906 -0.146271 -0.813217 0.563278 0.972753 0.945005 1 7 1.000000
  7 -1.581141 61.804787 1.997311 -0.728967 -0.566673 0.384041 0.825010 0.933990 1 7 1.000000
  7 0.136506 60.720020 2.252199 -0.146271 -0.813217 0.563278 0.974944 0.874979 1 7 1.000000
flesh_hand_01
  7 0.136506 60.720020 2.252199 -0.146271 -0.813217 0.563278 0.974944 0.874979 1 7 1.000000
  7 -1.581141 61.804787 1.997311 -0.728967 -0.566673 0.384041 0.825010 0.933990 1 7 1.000000
  7 -1.329222 61.059010 1.454395 -0.728967 -0.566673 0.384041 0.831392 0.880678 1 7 1.000000
flesh_hand_01
  7 -1.581141 61.804787 1.997311 -0.728967 -0.566673 0.384041 0.825010 0.933990 1 7 1.000000
  7 -2.106735 62.203133 0.265131 -0.975165 -0.162843 -0.150118 0.714152 0.931788 1 7 1.000000
  7 -1.329222 61.059010 1.454395 -0.728967 -0.566673 0.384041 0.831392 0.880678 1 7 1.000000
flesh_hand_01
  7 -1.329222 61.059010 1.454395 -0.728967 -0.566673 0.384041 0.831392 0.880678 1 7 1.000000
  7 -2.106735 62.203133 0.265131 -0.975165 -0.162843 -0.150118 0.714152 0.931788 1 7 1.000000
  7 -1.977918 61.824734 0.085170 -0.975165 -0.162843 -0.150118 0.716031 0.881913 1 7 1.000000
flesh_hand_01
  7 -2.106735 62.203133 0.265131 -0.975165 -0.162843 -0.150118 0.714152 0.931788 1 7 1.000000
  7 -1.544659 62.150230 -0.843547 -0.731241 0.153848 -0.664543 0.607176 0.880665 1 7 1.000000
  7 -1.977918 61.824734 0.085170 -0.975165 -0.162843 -0.150118 0.716031 0.881913 1 7 1.000000
flesh_hand_01
  7 -1.521031 63.093098 -0.464730 -0.731241 0.153848 -0.664543 0.608972 0.934274 1 7 1.000000
  7 -1.544659 62.150230 -0.843547 -0.731241 0.153848 -0.664543 0.607176 0.880665 1 7 1.000000
  7 -2.106735 62.203133 0.265131 -0.975165 -0.162843 -0.150118 0.714152 0.931788 1 7 1.000000
flesh_hand_01
  7 -1.521031 63.093098 -0.464730 -0.731241 0.153848 -0.664543 0.608972 0.934274 1 7 1.000000
  7 -0.916097 62.679771 -0.937982 -0.219009 0.061628 -0.973775 0.537831 0.880558 1 7 1.000000
  7 -1.544659 62.150230 -0.843547 -0.731241 0.153848 -0.664543 0.607176 0.880665 1 7 1.000000
flesh_hand_01
  7 -0.861183 63.668762 -0.958033 -0.219009 0.061628 -0.973775 0.541508 0.934398 1 7 1.000000
  7 -0.916097 62.679771 -0.937982 -0.219009 0.061628 -0.973775 0.537831 0.880558 1 7 1.000000
  7 -1.521031 63.093098 -0.464730 -0.731241 0.153848 -0.664543 0.608972 0.934274 1 7 1.000000
flesh_hand_01
  7 -0.861183 63.668762 -0.958033 -0.219009 0.061628 -0.973775 0.541508 0.934398 1 7 1.000000
  7 0.031325 62.502037 -0.779025 0.270503 -0.039335 -0.961915 0.468487 0.880451 1 7 1.000000
  7 -0.916097 62.679771 -0.937982 -0.219009 0.061628 -0.973775 0.537831 0.880558 1 7 1.000000
flesh_hand_01
  7 0.330046 63.670864 -0.847793 0.270503 -0.039335 -0.961915 0.474044 0.934522 1 7 1.000000
  7 0.031325 62.502037 -0.779025 0.270503 -0.039335 -0.961915 0.468487 0.880451 1 7 1.000000
  7 -0.861183 63.668762 -0.958033 -0.219009 0.061628 -0.973775 0.541508 0.934398 1 7 1.000000
flesh_hand_01
  7 1.108719 62.928238 -0.295981 0.518043 -0.064446 -0.852923 0.410855 0.936181 1 7 1.000000
  7 0.031325 62.502037 -0.779025 0.270503 -0.039335 -0.961915 0.468487 0.880451 1 7 1.000000
  7 0.330046 63.670864 -0.847793 0.270503 -0.039335 -0.961915 0.474044 0.934522 1 7 1.000000
flesh_hand_01
  7 0.810812 62.129066 -0.599296 0.518043 -0.064446 -0.852923 0.404644 0.879550 1 7 1.000000
  7 0.031325 62.502037 -0.779025 0.270503 -0.039335 -0.961915 0.468487 0.880451 1 7 1.000000
  7 1.108719 62.928238 -0.295981 0.518043 -0.064446 -0.852923 0.410855 0.936181 1 7 1.000000
flesh_hand_01
  7 1.694469 62.450359 0.047710 0.652946 -0.247225 -0.715920 0.347666 0.937840 1 7 1.000000
  7 0.810812 62.129066 -0.599296 0.518043 -0.064446 -0.852923 0.404644 0.879550 1 7 1.000000
  7 1.108719 62.928238 -0.295981 0.518043 -0.064446 -0.852923 0.410855 0.936181 1 7 1.000000
flesh_hand_01
  7 1.176517 61.744274 -0.075555 0.652946 -0.247225 -0.715920 0.340801 0.878648 1 7 1.000000
  7 0.810812 62.129066 -0.599296 0.518043 -0.064446 -0.852923 0.404644 0.879550 1 7 1.000000
  7 1.694469 62.450359 0.047710 0.652946 -0.247225 -0.715920 0.347666 0.937840 1 7 1.000000
flesh_hand_01
  7 1.694469 62.450359 0.047710 0.652946 -0.247225 -0.715920 0.347666 0.937840 1 7 1.000000
  7 1.541092 61.230221 0.612985 0.800018 -0.484588 -0.353759 0.264118 0.879137 1 7 1.000000
  7 1.176517 61.744274 -0.075555 0.652946 -0.247225 -0.715920 0.340801 0.878648 1 7 1.000000
flesh_hand_01
  7 2.124319 61.829746 0.888538 0.800018 -0.484588 -0.353759 0.268370 0.936848 1 7 1.000000
  7 1.541092 61.230221 0.612985 0.800018 -0.484588 -0.353759 0.264118 0.879137 1 7 1.000000
  7 1.694469 62.450359 0.047710 0.652946 -0.247225 -0.715920 0.347666 0.937840 1 7 1.000000
flesh_hand_01
  7 2.124319 61.829746 0.888538 0.800018 -0.484588 -0.353759 0.268370 0.936848 1 7 1.000000
  7 1.771725 61.488770 1.997971 0.716801 -0.668994 0.196580 0.189073 0.935857 1 7 1.000000
  7 1.541092 61.230221 0.612985 0.800018 -0.484588 -0.353759 0.264118 0.879137 1 7 1.000000
flesh_hand_01
  7 1.541092 61.230221 0.612985 0.800018 -0.484588 -0.353759 0.264118 0.879137 1 7 1.000000
  7 1.771725 61.488770 1.997971 0.716801 -0.668994 0.196580 0.189073 0.935857 1 7 1.000000
  7 1.444884 60.729694 1.514238 0.716801 -0.668994 0.196580 0.187435 0.879626 1 7 1.000000
end
