// Created by Crowbar 0.74
version 1
nodes
  0 "bip_pelvis" -1
  1 "bip_hip_R" 0
  2 "bip_knee_R" 1
  3 "bip_foot_R" 2
  4 "bip_spine_0" 0
  5 "bip_spine_1" 4
  6 "bip_spine_2" 5
  7 "bip_spine_3" 6
  8 "bip_collar_R" 7
  9 "bip_upperArm_R" 8
  10 "bip_lowerArm_R" 9
  11 "bip_hand_R" 10
  12 "bip_Hand_Rotate1_R" 10
  13 "bip_hip_L" 0
  14 "bip_knee_L" 13
  15 "bip_foot_L" 14
  16 "bip_neck" 7
  17 "bip_head" 16
  18 "bip_collar_L" 7
  19 "bip_upperArm_L" 18
  20 "bip_lowerArm_L" 19
  21 "bip_hand_L" 20
  22 "bip_index_0_L" 21
  23 "bip_index_0_R" 11
  24 "bip_Hand_Rotate1_L" 20
  25 "bip_Arm_Rotate1_L" 19
  26 "bip_index_1_L" 22
  27 "bip_middle_0_L" 21
  28 "bip_middle_1_L" 27
  29 "bip_ring_0_L" 21
  30 "bip_ring_1_L" 29
  31 "bip_pinky_0_L" 21
  32 "bip_pinky_1_L" 31
  33 "bip_thumb_0_L" 21
  34 "bip_thumb_1_L" 33
  35 "bip_Hand_Rotate_L" 20
  36 "bip_Arm_Rotate_L" 19
  37 "bip_Pelvis_L" 13
  38 "bip_Arm_Rotate_R" 9
  39 "bip_Arm_Rotate1_R" 9
  40 "bip_kneeMid_L" 14
  41 "Elbow_R" 10
  42 "bip_Pelvis_R" 1
  43 "bip_kneeMid_R" 2
  44 "Elbow_L" 20
  45 "bip_index_1_R" 23
  46 "bip_middle_0_R" 11
  47 "bip_middle_1_R" 46
  48 "bip_ring_0_R" 11
  49 "bip_ring_1_R" 48
  50 "bip_pinky_0_R" 11
  51 "bip_pinky_1_R" 50
  52 "bip_thumb_0_R" 11
  53 "bip_thumb_1_R" 52
  54 "bip_Hand_Rotate_R" 10
  55 "bip_toeEnd_R" 3
  56 "bip_toeEnd_L" 15
  57 "bip_indexEnd_L" 26
  58 "bip_middleEnd_L" 28
  59 "bip_RingEnd_L" 30
  60 "bip_pinkyEnd_L" 32
  61 "bip_thumbEnd_L" 34
  62 "Wp_L" 21
  63 "bip_indexEnd_R" 45
  64 "bip_middleEnd_R" 47
  65 "bip_ringEnd_R" 49
  66 "bip_pinkyEnd_R" 51
  67 "bip_thumbEnd_R" 53
  68 "Wp_R" 11
  69 "bip_forward" 17
  70 "bip_clipbone" 11
end
skeleton
  time 0
    0 0.000000 39.563190 0.000000 0.000000 0.000000 0.000000
    1 -3.366135 -1.935646 1.480067 0.111246 0.039216 -1.700668
    2 16.045450 0.000000 0.000000 -0.000323 0.133775 -0.002420
    3 17.465778 0.000001 0.000001 -0.159390 -0.178530 1.736820
    4 0.000000 4.240540 1.190873 0.000000 0.000000 0.000000
    5 0.000000 5.143673 -0.566893 0.000000 0.000000 0.000000
    6 0.000000 4.011826 -0.435470 0.000000 0.000000 0.000000
    7 0.000000 3.724953 -0.655500 0.000000 0.000000 0.000000
    8 -2.166257 -0.155743 -0.180534 0.000000 0.000000 0.157080
    9 -4.301173 0.280510 -0.232197 1.514108 -0.019862 -2.351989
    10 11.236193 0.000000 0.000004 0.000001 -0.001411 0.443439
    11 9.693705 0.000000 0.000000 1.748300 -0.156891 3.091171
    12 7.480289 0.006109 -0.010555 1.740287 -0.001411 -3.140776
    13 3.366135 -1.935787 1.480067 -0.111239 0.039223 -1.440926
    14 16.045298 0.000001 0.000000 0.000323 0.133775 0.002421
    15 17.465788 0.000000 0.000000 2.982194 0.178536 1.404771
    16 0.000000 3.134243 -0.066059 0.000000 0.000000 0.000000
    17 0.063361 3.268921 0.898785 0.000000 0.000000 0.000000
    18 2.166257 -0.155926 -0.180536 3.141592 0.000000 -0.157080
    19 4.301145 -0.280594 0.232197 0.056693 0.019859 0.789599
    20 11.236181 -0.000027 -0.000006 0.000000 0.444256 0.000000
    21 9.693651 -0.013687 0.007915 0.169489 -0.050609 0.155683
    22 3.443607 -0.311180 -1.426107 0.025754 0.180665 0.039288
    23 -3.443645 0.311172 1.426091 0.025754 0.180665 0.039288
    24 7.480257 -0.000008 -0.000010 0.169489 0.000000 0.000000
    25 6.472908 -0.000031 -0.000001 -0.028346 0.000000 0.000000
    26 1.726654 -0.000004 0.000009 0.000000 0.000000 0.507966
    27 3.628399 -0.413433 -0.461199 -0.017992 0.035722 0.129722
    28 1.717384 -0.000019 -0.000012 0.000000 0.000000 0.296827
    29 3.622608 -0.257954 0.410928 -0.173205 -0.117278 0.214490
    30 1.717384 0.000017 0.000010 0.000000 0.000000 0.254297
    31 3.401308 0.004623 1.218914 -0.166412 -0.272554 0.134906
    32 1.462820 -0.000019 -0.000014 0.000000 0.000000 0.476304
    33 1.013556 0.134880 -1.638489 -0.195039 0.518495 0.573015
    34 1.567802 0.078053 0.000011 0.000000 0.302710 0.000000
    35 4.488096 -0.000061 -0.000023 0.084744 0.000000 0.000000
    36 3.480602 -0.000145 -0.000002 -0.043610 0.000000 0.000000
    37 2.222412 0.000015 -0.267579 -3.088133 -0.110996 1.564869
    38 3.480843 0.000000 0.000004 1.527190 0.000000 3.141593
    39 6.472961 0.000000 0.000000 1.542452 0.000000 3.141593
    40 0.000000 0.000000 0.000000 3.047043 0.186859 1.513152
    41 0.000002 -0.000001 0.000000 1.571107 -0.001377 2.920281
    42 2.222565 0.000001 -0.267583 0.053460 0.111003 1.576724
    43 0.000000 0.000000 0.000000 -0.094550 -0.186859 1.628441
    44 0.000000 0.000000 -0.000001 0.000000 -0.222128 0.000000
    45 -1.726627 0.000000 0.000000 0.000000 0.000000 0.507966
    46 -3.628420 0.413422 0.461190 -0.017992 0.035722 0.129722
    47 -1.717388 0.000000 0.000001 0.000000 0.000000 0.296827
    48 -3.622635 0.257938 -0.410944 -0.173205 -0.117278 0.214490
    49 -1.717390 -0.000002 0.000000 0.000000 0.000000 0.254297
    50 -3.401335 -0.004631 -1.218926 -0.166412 -0.272554 0.134906
    51 -1.462816 -0.000004 0.000000 0.000000 0.000000 0.476304
    52 -1.013588 -0.134895 1.638474 -0.195039 0.518495 0.573015
    53 -1.567801 -0.078051 0.000000 0.000000 0.302710 0.000000
    54 4.488173 0.003667 -0.006332 1.655541 -0.001411 -3.140776
    55 -0.035184 -3.529829 6.683560 0.000000 0.000000 0.000000
    56 0.035217 3.529826 -6.683582 0.000000 0.000000 0.000000
    57 1.878918 0.000004 -0.000005 -0.337833 0.000000 0.000000
    58 1.878918 0.000006 -0.000004 -0.337833 0.000000 0.000000
    59 1.878920 -0.000013 -0.000011 -0.337833 0.000000 0.000000
    60 1.878929 0.000004 0.000001 -0.337833 0.000000 0.000000
    61 1.490896 0.144535 -0.268490 -0.337833 0.000000 0.000000
    62 3.058685 1.032097 -0.605999 0.000000 0.334862 0.049595
    63 -1.878929 0.000002 0.000002 -0.337833 0.000000 0.000000
    64 -1.878931 0.000002 0.000001 -0.337833 0.000000 0.000000
    65 -1.878933 0.000002 0.000000 -0.337833 0.000000 0.000000
    66 -1.878937 0.000004 0.000000 -0.337833 0.000000 0.000000
    67 -1.490896 -0.144542 0.268478 -0.337833 0.000000 0.000000
    68 -3.058714 -1.032104 0.605986 0.000000 0.334862 0.049595
    69 0.000000 0.000000 4.750000 0.000000 -1.570796 -1.570796
    70 -2.849998 0.000000 0.000000 0.000000 0.000000 0.000000
end
triangles
flesh_hand_01
  17 -0.400157 61.109325 1.666993 -0.087729 -0.041554 0.995277 0.815857 0.163320 1 17 1.000000
  17 0.788015 60.818096 1.759563 -0.087018 0.026744 0.995848 0.816884 0.002876 1 17 1.000000
  17 0.559372 61.448189 1.634235 -0.031440 0.184003 0.982423 0.750363 0.002056 1 17 1.000000
flesh_hand_01
  17 0.856371 60.371769 1.750447 -0.105253 -0.000419 0.994445 0.998201 0.006092 1 17 1.000000
  17 -0.484960 60.725735 1.608628 -0.096596 -0.017071 0.995177 0.904854 0.122299 1 17 1.000000
  17 -0.480291 60.102306 1.668724 -0.079830 0.095052 0.992266 0.992991 0.121694 1 17 1.000000
flesh_hand_01
  17 0.788015 60.818096 1.759563 -0.087018 0.026744 0.995848 0.816884 0.002876 1 17 1.000000
  17 -0.484960 60.725735 1.608628 -0.096596 -0.017071 0.995177 0.904854 0.122299 1 17 1.000000
  17 0.856371 60.371769 1.750447 -0.105253 -0.000419 0.994445 0.998201 0.006092 1 17 1.000000
flesh_hand_01
  17 -0.484960 60.725735 1.608628 -0.096596 -0.017071 0.995177 0.904854 0.122299 1 17 1.000000
  17 0.788015 60.818096 1.759563 -0.087018 0.026744 0.995848 0.816884 0.002876 1 17 1.000000
  17 -0.400157 61.109325 1.666993 -0.087729 -0.041554 0.995277 0.815857 0.122911 1 17 1.000000
flesh_hand_01
  17 -1.708503 60.091190 -0.670762 -0.926800 0.369733 0.065875 0.869806 0.129743 1 17 1.000000
  17 -1.336658 61.173107 -0.799510 -0.836949 0.463302 -0.291321 0.687547 0.163929 1 17 1.000000
  17 -1.651221 60.325436 -1.243893 -0.784216 0.298892 -0.543754 0.835145 0.069680 1 17 1.000000
flesh_hand_01
  17 -1.336658 61.173107 -0.799510 -0.836949 0.463302 -0.291321 0.687547 0.163929 1 17 1.000000
  17 -0.912227 60.995796 -1.716737 -0.649362 0.197925 -0.734272 0.685842 0.036252 1 17 1.000000
  17 -1.651221 60.325436 -1.243893 -0.784216 0.298892 -0.543754 0.835145 0.069680 1 17 1.000000
flesh_hand_01
  17 -0.912227 60.995796 -1.716737 -0.649362 0.197925 -0.734272 0.685842 0.036252 1 17 1.000000
  17 -0.966093 60.204952 -1.445385 -0.295327 -0.088471 -0.951291 0.805895 0.035328 1 17 1.000000
  17 -1.651221 60.325436 -1.243893 -0.784216 0.298892 -0.543754 0.835145 0.069680 1 17 1.000000
flesh_hand_01
  17 -1.481060 61.089149 -0.834592 -0.991167 -0.093739 0.093815 0.694612 0.032273 1 17 1.000000
  17 -1.382282 60.091480 -1.007638 -0.902360 0.136431 -0.408819 0.822610 0.032289 1 17 1.000000
  17 -1.674738 59.887009 -0.430355 -0.935483 0.081994 0.343726 0.835145 0.069680 1 17 1.000000
flesh_hand_01
  17 -1.215732 59.504135 -0.198046 -0.523123 -0.139357 0.840786 0.869806 0.129743 1 17 1.000000
  17 -1.092968 60.860916 0.151574 -0.857414 -0.097264 0.505352 0.687547 0.163929 1 17 1.000000
  17 -1.674738 59.887009 -0.430355 -0.935483 0.081994 0.343726 0.835145 0.069680 1 17 1.000000
flesh_hand_01
  17 -1.092968 60.860916 0.151574 -0.857414 -0.097264 0.505352 0.687547 0.163929 1 17 1.000000
  17 -1.481060 61.089149 -0.834592 -0.991167 -0.093739 0.093815 0.694612 0.032273 1 17 1.000000
  17 -1.674738 59.887009 -0.430355 -0.935483 0.081994 0.343726 0.835145 0.069680 1 17 1.000000
flesh_hand_01
  17 -1.092968 60.860916 0.151574 -0.857414 -0.097264 0.505352 0.687547 0.163929 1 17 1.000000
  17 -1.534048 61.038456 -0.281205 -0.273005 -0.955276 -0.113648 0.687014 0.082598 1 17 1.000000
  17 -1.481060 61.089149 -0.834592 -0.991167 -0.093739 0.093815 0.694612 0.032273 1 17 1.000000
flesh_hand_01
  17 2.377999 62.120312 -0.350439 0.863842 0.449047 0.228326 0.992991 0.121694 1 17 1.000000
  17 2.036102 62.642262 -0.083425 0.767960 0.582133 0.267130 0.904854 0.122299 1 17 1.000000
  17 2.133592 61.916069 0.975927 0.800659 0.525974 0.286873 0.998201 0.006092 1 17 1.000000
flesh_hand_01
  17 2.036102 62.642262 -0.083425 0.767960 0.582133 0.267130 0.904854 0.122299 1 17 1.000000
  17 1.657494 62.515472 1.081062 0.733202 0.607985 0.304579 0.816884 0.002876 1 17 1.000000
  17 2.133592 61.916069 0.975927 0.800659 0.525974 0.286873 0.998201 0.006092 1 17 1.000000
flesh_hand_01
  17 2.036102 62.642262 -0.083425 0.767960 0.582133 0.267130 0.904854 0.122299 1 17 1.000000
  17 1.588866 62.963390 0.054437 0.615383 0.736711 0.280287 0.815857 0.122911 1 17 1.000000
  17 1.657494 62.515472 1.081062 0.733202 0.607985 0.304579 0.816884 0.002876 1 17 1.000000
flesh_hand_01
  17 0.168058 60.544804 -1.450839 0.073002 -0.847008 -0.526543 0.512617 0.146647 1 17 1.000000
  17 -0.706034 60.080288 -0.824793 0.086612 -0.874633 -0.476985 0.574820 0.066365 1 17 1.000000
  17 -0.513923 60.475559 -1.379281 0.022687 -0.817770 -0.575098 0.568814 0.130527 1 17 1.000000
flesh_hand_01
  17 0.675936 60.384903 -1.093230 0.099426 -0.882211 -0.460237 0.463059 0.117067 1 17 1.000000
  17 -0.706034 60.080288 -0.824793 0.086612 -0.874633 -0.476985 0.574820 0.066365 1 17 1.000000
  17 0.168058 60.544804 -1.450839 0.073002 -0.847008 -0.526543 0.512617 0.146647 1 17 1.000000
flesh_hand_01
  17 -0.706034 60.080288 -0.824793 0.086612 -0.874633 -0.476985 0.574820 0.066365 1 17 1.000000
  17 0.675936 60.384903 -1.093230 0.099426 -0.882211 -0.460237 0.463059 0.117067 1 17 1.000000
  17 -0.206818 59.983231 -0.444400 0.116645 -0.907647 -0.403200 0.524884 0.036840 1 17 1.000000
flesh_hand_01
  17 -0.206818 59.983231 -0.444400 0.116645 -0.907647 -0.403200 0.524884 0.036840 1 17 1.000000
  17 0.675936 60.384903 -1.093230 0.099426 -0.882211 -0.460237 0.463059 0.117067 1 17 1.000000
  17 0.444288 60.065285 -0.471646 0.095469 -0.899278 -0.426830 0.470585 0.050504 1 17 1.000000
flesh_hand_01
  17 1.863912 60.642029 -1.830404 0.807904 0.491019 -0.325870 0.608972 0.934274 1 17 1.000000
  17 1.673176 61.180603 -1.544103 0.843263 0.301520 -0.444964 0.607822 0.887128 1 17 1.000000
  17 1.955565 60.319588 -0.508072 0.970095 0.124631 0.208283 0.714152 0.931788 1 17 1.000000
flesh_hand_01
  17 1.863912 60.642029 -1.830404 0.807904 0.491019 -0.325870 0.608972 0.934274 1 17 1.000000
  17 0.304827 61.253857 -2.721110 0.008420 0.857747 -0.514003 0.474044 0.934522 1 17 1.000000
  17 1.673176 61.180603 -1.544103 0.843263 0.301520 -0.444964 0.607822 0.887128 1 17 1.000000
flesh_hand_01
  17 -1.878057 61.263302 1.167049 -0.726619 -0.201933 0.656695 0.116078 0.781159 1 17 1.000000
  17 -2.101977 61.500889 0.859112 -0.960679 -0.134323 0.243008 0.152350 0.781410 1 17 1.000000
  17 -1.613064 59.913078 0.720241 -0.642234 -0.157277 0.750199 0.115152 0.877021 1 17 1.000000
flesh_hand_01
  17 -1.613064 59.913078 0.720241 -0.642234 -0.157277 0.750199 0.115152 0.877021 1 17 1.000000
  17 -0.979043 60.822437 1.558025 -0.273106 -0.322573 0.906289 0.041740 0.780646 1 17 1.000000
  17 -1.878057 61.263302 1.167049 -0.726619 -0.201933 0.656695 0.116078 0.781159 1 17 1.000000
flesh_hand_01
  17 -1.029697 59.460381 1.226798 -0.430794 -0.095990 0.897331 0.042868 0.874416 1 17 1.000000
  17 -0.979043 60.822437 1.558025 -0.273106 -0.322573 0.906289 0.041740 0.780646 1 17 1.000000
  17 -1.613064 59.913078 0.720241 -0.642234 -0.157277 0.750199 0.115152 0.877021 1 17 1.000000
flesh_hand_01
  17 -1.029697 59.460381 1.226798 -0.430794 -0.095990 0.897331 0.042868 0.874416 1 17 1.000000
  17 -1.613064 59.913078 0.720241 -0.642234 -0.157277 0.750199 0.115152 0.877021 1 17 1.000000
  17 -1.210098 58.607025 1.167864 -0.290036 -0.096071 0.952181 0.041986 0.946097 1 17 1.000000
flesh_hand_01
  17 -1.613064 59.913078 0.720241 -0.642234 -0.157277 0.750199 0.115152 0.877021 1 17 1.000000
  17 -1.814783 59.844643 -0.202283 -0.953594 -0.204219 0.221252 0.189073 0.935857 1 17 1.000000
  17 -1.210098 58.607025 1.167864 -0.290036 -0.096071 0.952181 0.041986 0.946097 1 17 1.000000
flesh_hand_01
  17 -1.613064 59.913078 0.720241 -0.642234 -0.157277 0.750199 0.115152 0.877021 1 17 1.000000
  17 -1.878243 60.401073 0.029657 -0.885516 0.440995 -0.146234 0.187435 0.879626 1 17 1.000000
  17 -1.814783 59.844643 -0.202283 -0.953594 -0.204219 0.221252 0.189073 0.935857 1 17 1.000000
flesh_hand_01
  17 -2.118288 60.141720 -1.257215 -0.833869 0.550072 -0.045639 0.264372 0.936798 1 17 1.000000
  17 -1.814783 59.844643 -0.202283 -0.953594 -0.204219 0.221252 0.189073 0.935857 1 17 1.000000
  17 -1.878243 60.401073 0.029657 -0.885516 0.440995 -0.146234 0.187435 0.879626 1 17 1.000000
flesh_hand_01
  17 -2.118288 60.141720 -1.257215 -0.833869 0.550072 -0.045639 0.264372 0.936798 1 17 1.000000
  17 -1.878243 60.401073 0.029657 -0.885516 0.440995 -0.146234 0.187435 0.879626 1 17 1.000000
  17 -1.261410 61.057468 -1.726104 -0.921570 0.189923 -0.338581 0.340801 0.878648 1 17 1.000000
flesh_hand_01
  17 -1.261410 61.057468 -1.726104 -0.921570 0.189923 -0.338581 0.340801 0.878648 1 17 1.000000
  17 -1.507633 60.351433 -2.506716 -0.611268 0.673216 -0.416091 0.347666 0.937840 1 17 1.000000
  17 -2.118288 60.141720 -1.257215 -0.833869 0.550072 -0.045639 0.264372 0.936798 1 17 1.000000
flesh_hand_01
  17 -1.507633 60.351433 -2.506716 -0.611268 0.673216 -0.416091 0.347666 0.937840 1 17 1.000000
  17 -1.261410 61.057468 -1.726104 -0.921570 0.189923 -0.338581 0.340801 0.878648 1 17 1.000000
  17 0.304827 61.253857 -2.721110 0.008420 0.857747 -0.514003 0.474044 0.934522 1 17 1.000000
flesh_hand_01
  17 0.304827 61.253857 -2.721110 0.008420 0.857747 -0.514003 0.474044 0.934522 1 17 1.000000
  17 -1.261410 61.057468 -1.726104 -0.921570 0.189923 -0.338581 0.340801 0.878648 1 17 1.000000
  17 0.296874 61.466946 -2.351211 0.077830 0.441726 -0.893767 0.468487 0.880451 1 17 1.000000
flesh_hand_01
  17 1.673176 61.180603 -1.544103 0.843263 0.301520 -0.444964 0.607822 0.887128 1 17 1.000000
  17 0.304827 61.253857 -2.721110 0.008420 0.857747 -0.514003 0.474044 0.934522 1 17 1.000000
  17 0.296874 61.466946 -2.351211 0.077830 0.441726 -0.893767 0.468487 0.880451 1 17 1.000000
flesh_hand_01
  17 0.296874 61.466946 -2.351211 0.077830 0.441726 -0.893767 0.468487 0.880451 1 17 1.000000
  17 1.594134 62.441895 -0.884278 0.818179 0.202047 -0.538293 0.611874 0.796673 1 17 1.000000
  17 1.673176 61.180603 -1.544103 0.843263 0.301520 -0.444964 0.607822 0.887128 1 17 1.000000
flesh_hand_01
  17 1.673176 61.180603 -1.544103 0.843263 0.301520 -0.444964 0.607822 0.887128 1 17 1.000000
  17 1.594134 62.441895 -0.884278 0.818179 0.202047 -0.538293 0.611874 0.796673 1 17 1.000000
  17 1.868027 60.729069 -0.313110 0.997476 0.071007 0.000338 0.716031 0.881913 1 17 1.000000
flesh_hand_01
  17 1.955565 60.319588 -0.508072 0.970095 0.124631 0.208283 0.714152 0.931788 1 17 1.000000
  17 1.673176 61.180603 -1.544103 0.843263 0.301520 -0.444964 0.607822 0.887128 1 17 1.000000
  17 1.868027 60.729069 -0.313110 0.997476 0.071007 0.000338 0.716031 0.881913 1 17 1.000000
flesh_hand_01
  17 1.868027 60.729069 -0.313110 0.997476 0.071007 0.000338 0.716031 0.881913 1 17 1.000000
  17 1.578022 58.599201 0.370083 0.591052 -0.064557 0.804046 0.825010 0.933990 1 17 1.000000
  17 1.955565 60.319588 -0.508072 0.970095 0.124631 0.208283 0.714152 0.931788 1 17 1.000000
flesh_hand_01
  17 1.868027 60.729069 -0.313110 0.997476 0.071007 0.000338 0.716031 0.881913 1 17 1.000000
  17 1.513670 60.364864 0.330621 0.758768 -0.432983 0.486617 0.773712 0.881296 1 17 1.000000
  17 1.578022 58.599201 0.370083 0.591052 -0.064557 0.804046 0.825010 0.933990 1 17 1.000000
flesh_hand_01
  17 1.578022 58.599201 0.370083 0.591052 -0.064557 0.804046 0.825010 0.933990 1 17 1.000000
  17 1.513670 60.364864 0.330621 0.758768 -0.432983 0.486617 0.773712 0.881296 1 17 1.000000
  17 0.998700 60.027660 0.833560 0.694645 -0.317706 0.645393 0.831392 0.880678 1 17 1.000000
flesh_hand_01
  17 0.998700 60.027660 0.833560 0.694645 -0.317706 0.645393 0.831392 0.880678 1 17 1.000000
  17 0.228561 58.505348 0.919625 0.267275 -0.145040 0.952642 0.896219 0.939299 1 17 1.000000
  17 1.578022 58.599201 0.370083 0.591052 -0.064557 0.804046 0.825010 0.933990 1 17 1.000000
flesh_hand_01
  17 0.296874 61.466946 -2.351211 0.077830 0.441726 -0.893767 0.468487 0.880451 1 17 1.000000
  17 0.157301 62.754436 -1.825280 0.034021 0.313983 -0.948819 0.470255 0.784286 1 17 1.000000
  17 1.594134 62.441895 -0.884278 0.818179 0.202047 -0.538293 0.611874 0.796673 1 17 1.000000
flesh_hand_01
  17 0.296874 61.466946 -2.351211 0.077830 0.441726 -0.893767 0.468487 0.880451 1 17 1.000000
  17 -1.321561 62.266350 -1.180708 -0.734859 0.203414 -0.646997 0.339086 0.783173 1 17 1.000000
  17 0.157301 62.754436 -1.825280 0.034021 0.313983 -0.948819 0.470255 0.784286 1 17 1.000000
flesh_hand_01
  17 0.296874 61.466946 -2.351211 0.077830 0.441726 -0.893767 0.468487 0.880451 1 17 1.000000
  17 -1.261410 61.057468 -1.726104 -0.921570 0.189923 -0.338581 0.340801 0.878648 1 17 1.000000
  17 -1.321561 62.266350 -1.180708 -0.734859 0.203414 -0.646997 0.339086 0.783173 1 17 1.000000
flesh_hand_01
  17 -1.261410 61.057468 -1.726104 -0.921570 0.189923 -0.338581 0.340801 0.878648 1 17 1.000000
  17 -1.878243 60.401073 0.029657 -0.885516 0.440995 -0.146234 0.187435 0.879626 1 17 1.000000
  17 -1.321561 62.266350 -1.180708 -0.734859 0.203414 -0.646997 0.339086 0.783173 1 17 1.000000
flesh_hand_01
  17 -1.878243 60.401073 0.029657 -0.885516 0.440995 -0.146234 0.187435 0.879626 1 17 1.000000
  17 -2.119936 61.759102 0.489561 -0.984633 0.003716 -0.174597 0.190416 0.781673 1 17 1.000000
  17 -1.321561 62.266350 -1.180708 -0.734859 0.203414 -0.646997 0.339086 0.783173 1 17 1.000000
flesh_hand_01
  17 -2.119936 61.759102 0.489561 -0.984633 0.003716 -0.174597 0.190416 0.781673 1 17 1.000000
  17 -1.878243 60.401073 0.029657 -0.885516 0.440995 -0.146234 0.187435 0.879626 1 17 1.000000
  17 -1.613064 59.913078 0.720241 -0.642234 -0.157277 0.750199 0.115152 0.877021 1 17 1.000000
flesh_hand_01
  17 -2.101977 61.500889 0.859112 -0.960679 -0.134323 0.243008 0.152350 0.781410 1 17 1.000000
  17 -2.119936 61.759102 0.489561 -0.984633 0.003716 -0.174597 0.190416 0.781673 1 17 1.000000
  17 -1.613064 59.913078 0.720241 -0.642234 -0.157277 0.750199 0.115152 0.877021 1 17 1.000000
flesh_hand_01
  17 0.228561 58.505348 0.919625 0.267275 -0.145040 0.952642 0.896219 0.939299 1 17 1.000000
  17 -1.029697 59.460381 1.226798 -0.430794 -0.095990 0.897331 0.974944 0.874979 1 17 1.000000
  17 -1.210098 58.607025 1.167864 -0.290036 -0.096071 0.952181 0.972753 0.945005 1 17 1.000000
flesh_hand_01
  17 0.211531 59.369949 1.070773 0.108645 -0.191688 0.975424 0.893167 0.878226 1 17 1.000000
  17 -1.029697 59.460381 1.226798 -0.430794 -0.095990 0.897331 0.974944 0.874979 1 17 1.000000
  17 0.228561 58.505348 0.919625 0.267275 -0.145040 0.952642 0.896219 0.939299 1 17 1.000000
flesh_hand_01
  17 0.211531 59.369949 1.070773 0.108645 -0.191688 0.975424 0.893167 0.878226 1 17 1.000000
  17 0.228561 58.505348 0.919625 0.267275 -0.145040 0.952642 0.896219 0.939299 1 17 1.000000
  17 0.998700 60.027660 0.833560 0.694645 -0.317706 0.645393 0.831392 0.880678 1 17 1.000000
flesh_hand_01
  17 0.211531 59.369949 1.070773 0.108645 -0.191688 0.975424 0.893167 0.878226 1 17 1.000000
  17 0.998700 60.027660 0.833560 0.694645 -0.317706 0.645393 0.831392 0.880678 1 17 1.000000
  17 1.097780 61.100891 1.621859 0.333807 -0.352009 0.874450 0.828726 0.782547 1 17 1.000000
flesh_hand_01
  17 1.513670 60.364864 0.330621 0.758768 -0.432983 0.486617 0.773712 0.881296 1 17 1.000000
  17 1.097780 61.100891 1.621859 0.333807 -0.352009 0.874450 0.828726 0.782547 1 17 1.000000
  17 0.998700 60.027660 0.833560 0.694645 -0.317706 0.645393 0.831392 0.880678 1 17 1.000000
flesh_hand_01
  17 2.119214 61.276665 1.031199 0.883924 -0.169749 0.435733 0.772265 0.782979 1 17 1.000000
  17 1.097780 61.100891 1.621859 0.333807 -0.352009 0.874450 0.828726 0.782547 1 17 1.000000
  17 1.513670 60.364864 0.330621 0.758768 -0.432983 0.486617 0.773712 0.881296 1 17 1.000000
flesh_hand_01
  17 1.513670 60.364864 0.330621 0.758768 -0.432983 0.486617 0.773712 0.881296 1 17 1.000000
  17 1.868027 60.729069 -0.313110 0.997476 0.071007 0.000338 0.716031 0.881913 1 17 1.000000
  17 2.119214 61.276665 1.031199 0.883924 -0.169749 0.435733 0.772265 0.782979 1 17 1.000000
flesh_hand_01
  17 2.119214 61.276665 1.031199 0.883924 -0.169749 0.435733 0.772265 0.782979 1 17 1.000000
  17 1.868027 60.729069 -0.313110 0.997476 0.071007 0.000338 0.716031 0.881913 1 17 1.000000
  17 2.027174 61.813862 0.188281 0.981116 0.118245 -0.153066 0.715804 0.783411 1 17 1.000000
flesh_hand_01
  17 1.868027 60.729069 -0.313110 0.997476 0.071007 0.000338 0.716031 0.881913 1 17 1.000000
  17 1.594134 62.441895 -0.884278 0.818179 0.202047 -0.538293 0.611874 0.796673 1 17 1.000000
  17 2.027174 61.813862 0.188281 0.981116 0.118245 -0.153066 0.715804 0.783411 1 17 1.000000
flesh_hand_01
  17 1.594134 62.441895 -0.884278 0.818179 0.202047 -0.538293 0.611874 0.796673 1 17 1.000000
  17 1.554433 63.057018 -0.770682 0.807044 0.247584 -0.536081 0.613899 0.751446 1 17 1.000000
  17 2.027174 61.813862 0.188281 0.981116 0.118245 -0.153066 0.715804 0.783411 1 17 1.000000
flesh_hand_01
  17 0.157301 62.754436 -1.825280 0.034021 0.313983 -0.948819 0.470255 0.784286 1 17 1.000000
  17 1.554433 63.057018 -0.770682 0.807044 0.247584 -0.536081 0.613899 0.751446 1 17 1.000000
  17 1.594134 62.441895 -0.884278 0.818179 0.202047 -0.538293 0.611874 0.796673 1 17 1.000000
flesh_hand_01
  17 0.157301 62.754436 -1.825280 0.034021 0.313983 -0.948819 0.470255 0.784286 1 17 1.000000
  17 0.183096 63.507462 -1.646949 0.072979 0.417115 -0.905919 0.471140 0.736204 1 17 1.000000
  17 1.554433 63.057018 -0.770682 0.807044 0.247584 -0.536081 0.613899 0.751446 1 17 1.000000
flesh_hand_01
  17 0.157301 62.754436 -1.825280 0.034021 0.313983 -0.948819 0.470255 0.784286 1 17 1.000000
  17 -1.321561 62.266350 -1.180708 -0.734859 0.203414 -0.646997 0.339086 0.783173 1 17 1.000000
  17 0.183096 63.507462 -1.646949 0.072979 0.417115 -0.905919 0.471140 0.736204 1 17 1.000000
flesh_hand_01
  17 0.183096 63.507462 -1.646949 0.072979 0.417115 -0.905919 0.471140 0.736204 1 17 1.000000
  17 -1.321561 62.266350 -1.180708 -0.734859 0.203414 -0.646997 0.339086 0.783173 1 17 1.000000
  17 -1.406820 63.388702 -0.733316 -0.741087 0.236269 -0.628464 0.338229 0.735435 1 17 1.000000
flesh_hand_01
  17 -1.321561 62.266350 -1.180708 -0.734859 0.203414 -0.646997 0.339086 0.783173 1 17 1.000000
  17 -2.119936 61.759102 0.489561 -0.984633 0.003716 -0.174597 0.190416 0.781673 1 17 1.000000
  17 -1.406820 63.388702 -0.733316 -0.741087 0.236269 -0.628464 0.338229 0.735435 1 17 1.000000
flesh_hand_01
  17 -1.406820 63.388702 -0.733316 -0.741087 0.236269 -0.628464 0.338229 0.735435 1 17 1.000000
  17 -2.119936 61.759102 0.489561 -0.984633 0.003716 -0.174597 0.190416 0.781673 1 17 1.000000
  17 -2.015535 62.782516 0.933844 -0.993966 -0.054204 0.095360 0.191906 0.732696 1 17 1.000000
flesh_hand_01
  17 -2.015535 62.782516 0.933844 -0.993966 -0.054204 0.095360 0.191906 0.732696 1 17 1.000000
  17 -2.119936 61.759102 0.489561 -0.984633 0.003716 -0.174597 0.190416 0.781673 1 17 1.000000
  17 -2.101977 61.500889 0.859112 -0.960679 -0.134323 0.243008 0.152350 0.781410 1 17 1.000000
flesh_hand_01
  17 -2.015535 62.782516 0.933844 -0.993966 -0.054204 0.095360 0.191906 0.732696 1 17 1.000000
  17 -2.101977 61.500889 0.859112 -0.960679 -0.134323 0.243008 0.152350 0.781410 1 17 1.000000
  17 -1.878057 61.263302 1.167049 -0.726619 -0.201933 0.656695 0.116078 0.781159 1 17 1.000000
flesh_hand_01
  17 -0.979043 60.822437 1.558025 -0.273106 -0.322573 0.906289 0.041740 0.780646 1 17 1.000000
  17 -0.962035 61.820629 1.947848 -0.395260 -0.472735 0.787586 0.041175 0.733761 1 17 1.000000
  17 -1.878057 61.263302 1.167049 -0.726619 -0.201933 0.656695 0.116078 0.781159 1 17 1.000000
flesh_hand_01
  17 -1.878057 61.263302 1.167049 -0.726619 -0.201933 0.656695 0.116078 0.781159 1 17 1.000000
  17 -0.962035 61.820629 1.947848 -0.395260 -0.472735 0.787586 0.041175 0.733761 1 17 1.000000
  17 -2.015535 62.782516 0.933844 -0.993966 -0.054204 0.095360 0.191906 0.732696 1 17 1.000000
flesh_hand_01
  17 -0.962035 61.820629 1.947848 -0.395260 -0.472735 0.787586 0.041175 0.733761 1 17 1.000000
  17 -0.962790 62.492855 2.768175 -0.408615 -0.658511 0.631978 0.040611 0.686876 1 17 1.000000
  17 -2.015535 62.782516 0.933844 -0.993966 -0.054204 0.095360 0.191906 0.732696 1 17 1.000000
flesh_hand_01
  17 -2.015535 62.782516 0.933844 -0.993966 -0.054204 0.095360 0.191906 0.732696 1 17 1.000000
  17 -0.962790 62.492855 2.768175 -0.408615 -0.658511 0.631978 0.040611 0.686876 1 17 1.000000
  17 -2.170177 63.627464 1.372596 -0.981553 -0.190122 0.020180 0.193397 0.683719 1 17 1.000000
flesh_hand_01
  17 -1.542529 64.220001 -0.241878 -0.806985 0.209113 -0.552311 0.337371 0.687698 1 17 1.000000
  17 -2.015535 62.782516 0.933844 -0.993966 -0.054204 0.095360 0.191906 0.732696 1 17 1.000000
  17 -2.170177 63.627464 1.372596 -0.981553 -0.190122 0.020180 0.193397 0.683719 1 17 1.000000
flesh_hand_01
  17 -1.406820 63.388702 -0.733316 -0.741087 0.236269 -0.628464 0.338229 0.735435 1 17 1.000000
  17 -2.015535 62.782516 0.933844 -0.993966 -0.054204 0.095360 0.191906 0.732696 1 17 1.000000
  17 -1.542529 64.220001 -0.241878 -0.806985 0.209113 -0.552311 0.337371 0.687698 1 17 1.000000
flesh_hand_01
  17 0.123889 64.149918 -1.127620 0.020625 0.629662 -0.776596 0.472024 0.688121 1 17 1.000000
  17 -1.406820 63.388702 -0.733316 -0.741087 0.236269 -0.628464 0.338229 0.735435 1 17 1.000000
  17 -1.542529 64.220001 -0.241878 -0.806985 0.209113 -0.552311 0.337371 0.687698 1 17 1.000000
flesh_hand_01
  17 0.183096 63.507462 -1.646949 0.072979 0.417115 -0.905919 0.471140 0.736204 1 17 1.000000
  17 -1.406820 63.388702 -0.733316 -0.741087 0.236269 -0.628464 0.338229 0.735435 1 17 1.000000
  17 0.123889 64.149918 -1.127620 0.020625 0.629662 -0.776596 0.472024 0.688121 1 17 1.000000
flesh_hand_01
  17 0.123889 64.149918 -1.127620 0.020625 0.629662 -0.776596 0.472024 0.688121 1 17 1.000000
  17 1.554433 63.057018 -0.770682 0.807044 0.247584 -0.536081 0.613899 0.751446 1 17 1.000000
  17 0.183096 63.507462 -1.646949 0.072979 0.417115 -0.905919 0.471140 0.736204 1 17 1.000000
flesh_hand_01
  17 1.600891 63.501076 -0.443816 0.894206 0.216380 -0.391887 0.615925 0.706219 1 17 1.000000
  17 1.554433 63.057018 -0.770682 0.807044 0.247584 -0.536081 0.613899 0.751446 1 17 1.000000
  17 0.123889 64.149918 -1.127620 0.020625 0.629662 -0.776596 0.472024 0.688121 1 17 1.000000
flesh_hand_01
  17 1.554433 63.057018 -0.770682 0.807044 0.247584 -0.536081 0.613899 0.751446 1 17 1.000000
  17 1.600891 63.501076 -0.443816 0.894206 0.216380 -0.391887 0.615925 0.706219 1 17 1.000000
  17 1.750403 63.217449 0.977966 0.976077 -0.068852 0.206236 0.715577 0.684909 1 17 1.000000
flesh_hand_01
  17 1.554433 63.057018 -0.770682 0.807044 0.247584 -0.536081 0.613899 0.751446 1 17 1.000000
  17 1.750403 63.217449 0.977966 0.976077 -0.068852 0.206236 0.715577 0.684909 1 17 1.000000
  17 1.788938 62.686432 0.661774 0.973913 0.141087 0.177732 0.715691 0.734160 1 17 1.000000
flesh_hand_01
  17 1.554433 63.057018 -0.770682 0.807044 0.247584 -0.536081 0.613899 0.751446 1 17 1.000000
  17 1.788938 62.686432 0.661774 0.973913 0.141087 0.177732 0.715691 0.734160 1 17 1.000000
  17 2.027174 61.813862 0.188281 0.981116 0.118245 -0.153066 0.715804 0.783411 1 17 1.000000
flesh_hand_01
  17 2.119214 61.276665 1.031199 0.883924 -0.169749 0.435733 0.772265 0.782979 1 17 1.000000
  17 2.027174 61.813862 0.188281 0.981116 0.118245 -0.153066 0.715804 0.783411 1 17 1.000000
  17 1.788938 62.686432 0.661774 0.973913 0.141087 0.177732 0.715691 0.734160 1 17 1.000000
flesh_hand_01
  17 1.788938 62.686432 0.661774 0.973913 0.141087 0.177732 0.715691 0.734160 1 17 1.000000
  17 0.989144 61.865791 1.831814 0.476393 -0.252672 0.842144 0.827393 0.733482 1 17 1.000000
  17 2.119214 61.276665 1.031199 0.883924 -0.169749 0.435733 0.772265 0.782979 1 17 1.000000
flesh_hand_01
  17 2.119214 61.276665 1.031199 0.883924 -0.169749 0.435733 0.772265 0.782979 1 17 1.000000
  17 0.989144 61.865791 1.831814 0.476393 -0.252672 0.842144 0.827393 0.733482 1 17 1.000000
  17 1.097780 61.100891 1.621859 0.333807 -0.352009 0.874450 0.828726 0.782547 1 17 1.000000
flesh_hand_01
  17 -0.962035 61.820629 1.947848 -0.395260 -0.472735 0.787586 0.970142 0.732634 1 17 1.000000
  17 1.097780 61.100891 1.621859 0.333807 -0.352009 0.874450 0.828726 0.782547 1 17 1.000000
  17 0.989144 61.865791 1.831814 0.476393 -0.252672 0.842144 0.827393 0.733482 1 17 1.000000
flesh_hand_01
  17 -0.979043 60.822437 1.558025 -0.273106 -0.322573 0.906289 0.971743 0.780083 1 17 1.000000
  17 1.097780 61.100891 1.621859 0.333807 -0.352009 0.874450 0.828726 0.782547 1 17 1.000000
  17 -0.962035 61.820629 1.947848 -0.395260 -0.472735 0.787586 0.970142 0.732634 1 17 1.000000
flesh_hand_01
  17 0.211531 59.369949 1.070773 0.108645 -0.191688 0.975424 0.893167 0.878226 1 17 1.000000
  17 1.097780 61.100891 1.621859 0.333807 -0.352009 0.874450 0.828726 0.782547 1 17 1.000000
  17 -0.979043 60.822437 1.558025 -0.273106 -0.322573 0.906289 0.971743 0.780083 1 17 1.000000
flesh_hand_01
  17 -1.029697 59.460381 1.226798 -0.430794 -0.095990 0.897331 0.974944 0.874979 1 17 1.000000
  17 0.211531 59.369949 1.070773 0.108645 -0.191688 0.975424 0.893167 0.878226 1 17 1.000000
  17 -0.979043 60.822437 1.558025 -0.273106 -0.322573 0.906289 0.971743 0.780083 1 17 1.000000
flesh_hand_01
  17 -0.962790 62.492855 2.768175 -0.408615 -0.658511 0.631978 0.968542 0.685186 1 17 1.000000
  17 -0.962035 61.820629 1.947848 -0.395260 -0.472735 0.787586 0.970142 0.732634 1 17 1.000000
  17 1.001718 62.561638 2.198114 0.609383 -0.373195 0.699555 0.826060 0.684416 1 17 1.000000
flesh_hand_01
  17 1.001718 62.561638 2.198114 0.609383 -0.373195 0.699555 0.826060 0.684416 1 17 1.000000
  17 -0.962035 61.820629 1.947848 -0.395260 -0.472735 0.787586 0.970142 0.732634 1 17 1.000000
  17 0.989144 61.865791 1.831814 0.476393 -0.252672 0.842144 0.827393 0.733482 1 17 1.000000
flesh_hand_01
  17 0.989144 61.865791 1.831814 0.476393 -0.252672 0.842144 0.827393 0.733482 1 17 1.000000
  17 1.788938 62.686432 0.661774 0.973913 0.141087 0.177732 0.715691 0.734160 1 17 1.000000
  17 1.001718 62.561638 2.198114 0.609383 -0.373195 0.699555 0.826060 0.684416 1 17 1.000000
flesh_hand_01
  17 1.001718 62.561638 2.198114 0.609383 -0.373195 0.699555 0.826060 0.684416 1 17 1.000000
  17 1.788938 62.686432 0.661774 0.973913 0.141087 0.177732 0.715691 0.734160 1 17 1.000000
  17 1.750403 63.217449 0.977966 0.976077 -0.068852 0.206236 0.715577 0.684909 1 17 1.000000
flesh_hand_01
  17 0.662636 59.384834 -0.257330 0.600404 0.039972 -0.798697 0.815857 0.163320 1 17 1.000000
  17 0.696500 60.494690 -0.368668 0.823146 0.124565 -0.553999 0.687547 0.163929 1 17 1.000000
  17 1.171109 59.652363 0.147120 0.895103 0.143569 -0.422111 0.783110 0.082688 1 17 1.000000
flesh_hand_01
  17 0.696500 60.494690 -0.368668 0.823146 0.124565 -0.553999 0.687547 0.163929 1 17 1.000000
  17 1.121622 60.478500 0.632606 0.935759 0.218644 -0.276678 0.686482 0.001268 1 17 1.000000
  17 1.171109 59.652363 0.147120 0.895103 0.143569 -0.422111 0.783110 0.082688 1 17 1.000000
flesh_hand_01
  17 1.121622 60.478500 0.632606 0.935759 0.218644 -0.276678 0.686482 0.001268 1 17 1.000000
  17 1.202728 59.772884 0.674790 0.997761 0.018994 -0.064125 0.750363 0.002056 1 17 1.000000
  17 1.171109 59.652363 0.147120 0.895103 0.143569 -0.422111 0.783110 0.082688 1 17 1.000000
flesh_hand_01
  17 -0.256833 60.828949 -0.038618 -0.257257 -0.434908 0.862945 0.653995 0.194773 1 17 1.000000
  17 0.444282 60.065285 -0.471646 0.631219 -0.285542 0.721130 0.601081 0.300715 1 17 1.000000
  17 0.400809 60.955708 -0.029980 0.641676 -0.315441 0.699106 0.597613 0.194190 1 17 1.000000
flesh_hand_01
  17 -0.763823 60.887489 -0.464074 -0.962192 -0.167186 0.215024 0.714698 0.195427 1 17 1.000000
  17 -0.206825 59.983223 -0.444400 -0.278925 -0.312309 0.908110 0.656892 0.300721 1 17 1.000000
  17 -0.256833 60.828949 -0.038618 -0.257257 -0.434908 0.862945 0.653995 0.194773 1 17 1.000000
flesh_hand_01
  17 -0.206825 59.983223 -0.444400 -0.278925 -0.312309 0.908110 0.656892 0.300721 1 17 1.000000
  17 0.444282 60.065285 -0.471646 0.631219 -0.285542 0.721130 0.601081 0.300715 1 17 1.000000
  17 -0.256833 60.828949 -0.038618 -0.257257 -0.434908 0.862945 0.653995 0.194773 1 17 1.000000
flesh_hand_01
  17 -0.206825 59.983223 -0.444400 -0.278925 -0.312309 0.908110 0.656892 0.300721 1 17 1.000000
  17 0.462638 59.830055 -0.584145 0.615117 -0.256132 0.745673 0.600988 0.332576 1 17 1.000000
  17 0.444282 60.065285 -0.471646 0.631219 -0.285542 0.721130 0.601081 0.300715 1 17 1.000000
flesh_hand_01
  17 -0.249405 59.559887 -0.547136 -0.341448 -0.208235 0.916543 0.657129 0.332583 1 17 1.000000
  17 0.462638 59.830055 -0.584145 0.615117 -0.256132 0.745673 0.600988 0.332576 1 17 1.000000
  17 -0.206825 59.983223 -0.444400 -0.278925 -0.312309 0.908110 0.656892 0.300721 1 17 1.000000
flesh_hand_01
  17 -0.706041 60.080280 -0.824793 -0.960946 -0.070577 0.267584 0.714844 0.300728 1 17 1.000000
  17 -0.249405 59.559887 -0.547136 -0.341448 -0.208235 0.916543 0.657129 0.332583 1 17 1.000000
  17 -0.206825 59.983223 -0.444400 -0.278925 -0.312309 0.908110 0.656892 0.300721 1 17 1.000000
flesh_hand_01
  17 -0.706041 60.080280 -0.824793 -0.960946 -0.070577 0.267584 0.714844 0.300728 1 17 1.000000
  17 -0.206825 59.983223 -0.444400 -0.278925 -0.312309 0.908110 0.656892 0.300721 1 17 1.000000
  17 -0.763823 60.887489 -0.464074 -0.962192 -0.167186 0.215024 0.714698 0.195427 1 17 1.000000
flesh_hand_01
  17 -0.763823 60.887489 -0.464074 -0.962192 -0.167186 0.215024 0.714698 0.195427 1 17 1.000000
  17 -0.513933 60.475559 -1.379281 -0.651297 0.307617 -0.693674 0.778636 0.300714 1 17 1.000000
  17 -0.706041 60.080280 -0.824793 -0.960946 -0.070577 0.267584 0.714844 0.300728 1 17 1.000000
flesh_hand_01
  17 -0.571572 61.380283 -0.973040 -0.589446 0.300335 -0.749901 0.779297 0.194115 1 17 1.000000
  17 -0.513933 60.475559 -1.379281 -0.651297 0.307617 -0.693674 0.778636 0.300714 1 17 1.000000
  17 -0.763823 60.887489 -0.464074 -0.962192 -0.167186 0.215024 0.714698 0.195427 1 17 1.000000
flesh_hand_01
  17 -0.571572 61.380283 -0.973040 -0.589446 0.300335 -0.749901 0.779297 0.194115 1 17 1.000000
  17 0.116739 61.451622 -1.041710 0.258941 0.412202 -0.873521 0.837788 0.193943 1 17 1.000000
  17 -0.513933 60.475559 -1.379281 -0.651297 0.307617 -0.693674 0.778636 0.300714 1 17 1.000000
flesh_hand_01
  17 -0.513933 60.475559 -1.379281 -0.651297 0.307617 -0.693674 0.778636 0.300714 1 17 1.000000
  17 0.116739 61.451622 -1.041710 0.258941 0.412202 -0.873521 0.837788 0.193943 1 17 1.000000
  17 0.168051 60.544800 -1.450841 0.217897 0.431923 -0.875193 0.837127 0.300710 1 17 1.000000
flesh_hand_01
  17 0.116739 61.451622 -1.041710 0.258941 0.412202 -0.873521 0.837788 0.193943 1 17 1.000000
  17 0.630614 61.286133 -0.668467 0.953976 0.163416 -0.251446 0.895508 0.193908 1 17 1.000000
  17 0.168051 60.544800 -1.450841 0.217897 0.431923 -0.875193 0.837127 0.300710 1 17 1.000000
flesh_hand_01
  17 0.168051 60.544800 -1.450841 0.217897 0.431923 -0.875193 0.837127 0.300710 1 17 1.000000
  17 0.630614 61.286133 -0.668467 0.953976 0.163416 -0.251446 0.895508 0.193908 1 17 1.000000
  17 0.675930 60.384895 -1.093234 0.918350 0.390414 -0.064887 0.894847 0.300709 1 17 1.000000
flesh_hand_01
  17 0.630614 61.286133 -0.668467 0.953976 0.163416 -0.251446 0.895508 0.193908 1 17 1.000000
  17 0.400809 60.955708 -0.029980 0.641676 -0.315441 0.699106 0.962548 0.194053 1 17 1.000000
  17 0.675930 60.384895 -1.093234 0.918350 0.390414 -0.064887 0.894847 0.300709 1 17 1.000000
flesh_hand_01
  17 0.675930 60.384895 -1.093234 0.918350 0.390414 -0.064887 0.894847 0.300709 1 17 1.000000
  17 0.400809 60.955708 -0.029980 0.641676 -0.315441 0.699106 0.962548 0.194053 1 17 1.000000
  17 0.444282 60.065285 -0.471646 0.631219 -0.285542 0.721130 0.961888 0.300713 1 17 1.000000
flesh_hand_01
  17 0.462638 59.830055 -0.584145 0.615117 -0.256132 0.745673 0.961019 0.332573 1 17 1.000000
  17 0.675930 60.384895 -1.093234 0.918350 0.390414 -0.064887 0.894847 0.300709 1 17 1.000000
  17 0.444282 60.065285 -0.471646 0.631219 -0.285542 0.721130 0.961888 0.300713 1 17 1.000000
flesh_hand_01
  17 0.840438 60.188049 -1.248270 0.827952 0.560309 0.023429 0.894484 0.332570 1 17 1.000000
  17 0.675930 60.384895 -1.093234 0.918350 0.390414 -0.064887 0.894847 0.300709 1 17 1.000000
  17 0.462638 59.830055 -0.584145 0.615117 -0.256132 0.745673 0.961019 0.332573 1 17 1.000000
flesh_hand_01
  17 0.840438 60.188049 -1.248270 0.827952 0.560309 0.023429 0.894484 0.332570 1 17 1.000000
  17 0.188376 60.304661 -1.553075 0.169792 0.413719 -0.894431 0.837560 0.332571 1 17 1.000000
  17 0.675930 60.384895 -1.093234 0.918350 0.390414 -0.064887 0.894847 0.300709 1 17 1.000000
flesh_hand_01
  17 0.675930 60.384895 -1.093234 0.918350 0.390414 -0.064887 0.894847 0.300709 1 17 1.000000
  17 0.188376 60.304661 -1.553075 0.169792 0.413719 -0.894431 0.837560 0.332571 1 17 1.000000
  17 0.168051 60.544800 -1.450841 0.217897 0.431923 -0.875193 0.837127 0.300710 1 17 1.000000
flesh_hand_01
  17 0.188376 60.304661 -1.553075 0.169792 0.413719 -0.894431 0.837560 0.332571 1 17 1.000000
  17 -0.513933 60.475559 -1.379281 -0.651297 0.307617 -0.693674 0.778636 0.300714 1 17 1.000000
  17 0.168051 60.544800 -1.450841 0.217897 0.431923 -0.875193 0.837127 0.300710 1 17 1.000000
flesh_hand_01
  17 -0.502973 60.208302 -1.533387 -0.678037 0.351839 -0.645349 0.779281 0.332575 1 17 1.000000
  17 -0.513933 60.475559 -1.379281 -0.651297 0.307617 -0.693674 0.778636 0.300714 1 17 1.000000
  17 0.188376 60.304661 -1.553075 0.169792 0.413719 -0.894431 0.837560 0.332571 1 17 1.000000
flesh_hand_01
  17 -0.502973 60.208302 -1.533387 -0.678037 0.351839 -0.645349 0.779281 0.332575 1 17 1.000000
  17 -0.706041 60.080280 -0.824793 -0.960946 -0.070577 0.267584 0.714844 0.300728 1 17 1.000000
  17 -0.513933 60.475559 -1.379281 -0.651297 0.307617 -0.693674 0.778636 0.300714 1 17 1.000000
flesh_hand_01
  17 -0.745095 59.654140 -0.918234 -0.902379 -0.015243 0.430673 0.715410 0.332590 1 17 1.000000
  17 -0.706041 60.080280 -0.824793 -0.960946 -0.070577 0.267584 0.714844 0.300728 1 17 1.000000
  17 -0.502973 60.208302 -1.533387 -0.678037 0.351839 -0.645349 0.779281 0.332575 1 17 1.000000
flesh_hand_01
  17 -0.745095 59.654140 -0.918234 -0.902379 -0.015243 0.430673 0.715410 0.332590 1 17 1.000000
  17 -0.249405 59.559887 -0.547136 -0.341448 -0.208235 0.916543 0.657129 0.332583 1 17 1.000000
  17 -0.706041 60.080280 -0.824793 -0.960946 -0.070577 0.267584 0.714844 0.300728 1 17 1.000000
flesh_hand_01
  17 0.954838 58.916935 -0.141000 0.568072 0.033124 -0.822312 0.904854 0.122299 1 17 1.000000
  17 0.662636 59.384834 -0.257330 0.600404 0.039972 -0.798697 0.815857 0.122911 1 17 1.000000
  17 1.335832 59.201290 0.153847 0.887048 0.257450 -0.383231 0.860869 0.062588 1 17 1.000000
flesh_hand_01
  17 1.335832 59.201290 0.153847 0.887048 0.257450 -0.383231 0.860869 0.062588 1 17 1.000000
  17 0.662636 59.384834 -0.257330 0.600404 0.039972 -0.798697 0.815857 0.122911 1 17 1.000000
  17 1.171109 59.652363 0.147120 0.895103 0.143569 -0.422111 0.778339 0.060839 1 17 1.000000
flesh_hand_01
  17 1.006235 58.351036 -0.029966 0.561228 -0.109982 -0.820321 0.992991 0.121694 1 17 1.000000
  17 0.954838 58.916935 -0.141000 0.568072 0.033124 -0.822312 0.904854 0.122299 1 17 1.000000
  17 1.525231 58.612034 0.290114 0.920163 0.185403 -0.344857 0.995596 0.063893 1 17 1.000000
flesh_hand_01
  17 1.525231 58.612034 0.290114 0.920163 0.185403 -0.344857 0.995596 0.063893 1 17 1.000000
  17 0.954838 58.916935 -0.141000 0.568072 0.033124 -0.822312 0.904854 0.122299 1 17 1.000000
  17 1.335832 59.201290 0.153847 0.887048 0.257450 -0.383231 0.860869 0.062588 1 17 1.000000
flesh_hand_01
  17 1.525231 58.612034 0.290114 0.920163 0.185403 -0.344857 0.995596 0.063893 1 17 1.000000
  17 1.335832 59.201290 0.153847 0.887048 0.257450 -0.383231 0.860869 0.062588 1 17 1.000000
  17 1.388453 58.631405 0.818194 0.912278 0.343777 0.222636 0.998201 0.006092 1 17 1.000000
flesh_hand_01
  17 1.388453 58.631405 0.818194 0.912278 0.343777 0.222636 0.998201 0.006092 1 17 1.000000
  17 1.335832 59.201290 0.153847 0.887048 0.257450 -0.383231 0.860869 0.062588 1 17 1.000000
  17 1.161669 59.303303 0.713287 0.964230 0.219248 0.148966 0.816884 0.002876 1 17 1.000000
flesh_hand_01
  17 1.335832 59.201290 0.153847 0.887048 0.257450 -0.383231 0.860869 0.062588 1 17 1.000000
  17 1.171109 59.652363 0.147120 0.895103 0.143569 -0.422111 0.778339 0.060839 1 17 1.000000
  17 1.161669 59.303303 0.713287 0.964230 0.219248 0.148966 0.816884 0.002876 1 17 1.000000
flesh_hand_01
  17 1.161669 59.303303 0.713287 0.964230 0.219248 0.148966 0.816884 0.002876 1 17 1.000000
  17 1.171109 59.652363 0.147120 0.895103 0.143569 -0.422111 0.778339 0.060839 1 17 1.000000
  17 1.202728 59.772884 0.674790 0.997761 0.018994 -0.064125 0.740821 -0.001234 1 17 1.000000
flesh_hand_01
  17 0.019868 60.288910 1.354264 0.680272 -0.097828 0.726401 0.686482 0.001268 1 17 1.000000
  17 1.180389 60.557159 0.103946 0.766304 -0.024508 0.642011 0.815857 0.163320 1 17 1.000000
  17 0.771313 61.178646 0.770366 0.748041 -0.092588 0.657162 0.687547 0.163929 1 17 1.000000
flesh_hand_01
  17 0.709890 59.184807 0.559367 0.688148 -0.027836 0.725036 0.816884 0.002876 1 17 1.000000
  17 1.180389 60.557159 0.103946 0.766304 -0.024508 0.642011 0.815857 0.163320 1 17 1.000000
  17 0.019868 60.288910 1.354264 0.680272 -0.097828 0.726401 0.686482 0.001268 1 17 1.000000
flesh_hand_01
  17 1.180389 60.557159 0.103946 0.766304 -0.024508 0.642011 0.815857 0.163320 1 17 1.000000
  17 0.709890 59.184807 0.559367 0.688148 -0.027836 0.725036 0.816884 0.002876 1 17 1.000000
  17 1.206746 59.200306 0.159759 0.823292 -0.097209 0.559233 0.894375 0.004250 1 17 1.000000
flesh_hand_01
  17 1.687729 60.286949 -0.432066 0.879604 -0.142078 0.453993 0.909941 0.162673 1 17 1.000000
  17 1.180389 60.557159 0.103946 0.766304 -0.024508 0.642011 0.815857 0.163320 1 17 1.000000
  17 1.206746 59.200306 0.159759 0.823292 -0.097209 0.559233 0.894375 0.004250 1 17 1.000000
flesh_hand_01
  17 1.206746 59.200306 0.159759 0.823292 -0.097209 0.559233 0.894375 0.004250 1 17 1.000000
  17 1.780352 60.053143 -1.017529 0.928489 -0.264115 0.261059 0.992991 0.162102 1 17 1.000000
  17 1.687729 60.286949 -0.432066 0.879604 -0.142078 0.453993 0.909941 0.162673 1 17 1.000000
flesh_hand_01
  17 1.206746 59.200306 0.159759 0.823292 -0.097209 0.559233 0.894375 0.004250 1 17 1.000000
  17 1.212528 58.686337 -0.323415 0.929485 -0.247041 0.273912 0.998201 0.006092 1 17 1.000000
  17 1.780352 60.053143 -1.017529 0.928489 -0.264115 0.261059 0.992991 0.162102 1 17 1.000000
flesh_hand_01
  17 0.249432 60.720528 -1.585542 0.234046 0.766233 -0.598422 0.972753 0.945005 1 17 1.000000
  17 -0.586839 60.913342 -1.186468 -0.700860 0.504492 -0.504266 0.831392 0.880678 1 17 1.000000
  17 0.148812 60.984127 -1.274620 0.248657 0.750155 -0.612729 0.974944 0.874979 1 17 1.000000
flesh_hand_01
  17 -0.603718 60.411198 -1.648319 -0.588144 0.592228 -0.550775 0.825010 0.933990 1 17 1.000000
  17 -0.586839 60.913342 -1.186468 -0.700860 0.504492 -0.504266 0.831392 0.880678 1 17 1.000000
  17 0.249432 60.720528 -1.585542 0.234046 0.766233 -0.598422 0.972753 0.945005 1 17 1.000000
flesh_hand_01
  17 -0.603718 60.411198 -1.648319 -0.588144 0.592228 -0.550775 0.825010 0.933990 1 17 1.000000
  17 -0.989018 60.274750 -0.646960 -0.830217 0.394631 0.393709 0.714152 0.931788 1 17 1.000000
  17 -0.586839 60.913342 -1.186468 -0.700860 0.504492 -0.504266 0.831392 0.880678 1 17 1.000000
flesh_hand_01
  17 -0.586839 60.913342 -1.186468 -0.700860 0.504492 -0.504266 0.831392 0.880678 1 17 1.000000
  17 -0.989018 60.274750 -0.646960 -0.830217 0.394631 0.393709 0.714152 0.931788 1 17 1.000000
  17 -0.765944 60.584484 -0.598417 -0.838543 0.464159 0.285311 0.716031 0.881913 1 17 1.000000
flesh_hand_01
  17 -0.989018 60.274750 -0.646960 -0.830217 0.394631 0.393709 0.714152 0.931788 1 17 1.000000
  17 -0.277447 60.594337 -0.157876 -0.223452 -0.065466 0.972514 0.607176 0.880665 1 17 1.000000
  17 -0.765944 60.584484 -0.598417 -0.838543 0.464159 0.285311 0.716031 0.881913 1 17 1.000000
flesh_hand_01
  17 -0.261791 59.748833 -0.262210 -0.186347 -0.077877 0.979393 0.608972 0.934274 1 17 1.000000
  17 -0.277447 60.594337 -0.157876 -0.223452 -0.065466 0.972514 0.607176 0.880665 1 17 1.000000
  17 -0.989018 60.274750 -0.646960 -0.830217 0.394631 0.393709 0.714152 0.931788 1 17 1.000000
flesh_hand_01
  17 -0.261791 59.748833 -0.262210 -0.186347 -0.077877 0.979393 0.608972 0.934274 1 17 1.000000
  17 0.404737 60.548973 -0.272474 0.480976 0.116708 0.868931 0.468487 0.880451 1 17 1.000000
  17 -0.277447 60.594337 -0.157876 -0.223452 -0.065466 0.972514 0.607176 0.880665 1 17 1.000000
flesh_hand_01
  17 0.615436 59.848225 -0.254160 0.343731 0.122238 0.931078 0.474044 0.934522 1 17 1.000000
  17 0.404737 60.548973 -0.272474 0.480976 0.116708 0.868931 0.468487 0.880451 1 17 1.000000
  17 -0.261791 59.748833 -0.262210 -0.186347 -0.077877 0.979393 0.608972 0.934274 1 17 1.000000
flesh_hand_01
  17 0.615436 59.848225 -0.254160 0.343731 0.122238 0.931078 0.474044 0.934522 1 17 1.000000
  17 0.785248 60.331554 -0.715341 0.872837 0.262124 0.411638 0.347666 0.937840 1 17 1.000000
  17 0.404737 60.548973 -0.272474 0.480976 0.116708 0.868931 0.468487 0.880451 1 17 1.000000
flesh_hand_01
  17 0.404737 60.548973 -0.272474 0.480976 0.116708 0.868931 0.468487 0.880451 1 17 1.000000
  17 0.785248 60.331554 -0.715341 0.872837 0.262124 0.411638 0.347666 0.937840 1 17 1.000000
  17 0.571008 60.808739 -0.603278 0.843393 0.279573 0.458832 0.340801 0.878648 1 17 1.000000
flesh_hand_01
  17 0.785248 60.331554 -0.715341 0.872837 0.262124 0.411638 0.347666 0.937840 1 17 1.000000
  17 0.635691 60.915886 -0.848095 0.861952 0.487834 -0.138049 0.187435 0.879626 1 17 1.000000
  17 0.571008 60.808739 -0.603278 0.843393 0.279573 0.458832 0.340801 0.878648 1 17 1.000000
flesh_hand_01
  17 0.812013 60.471504 -1.113311 0.848761 0.493584 -0.189680 0.189073 0.935857 1 17 1.000000
  17 0.635691 60.915886 -0.848095 0.861952 0.487834 -0.138049 0.187435 0.879626 1 17 1.000000
  17 0.785248 60.331554 -0.715341 0.872837 0.262124 0.411638 0.347666 0.937840 1 17 1.000000
flesh_hand_01
  17 0.812013 60.471504 -1.113311 0.848761 0.493584 -0.189680 0.189073 0.935857 1 17 1.000000
  17 0.148812 60.984127 -1.274620 0.248657 0.750155 -0.612729 0.042868 0.874416 1 17 1.000000
  17 0.635691 60.915886 -0.848095 0.861952 0.487834 -0.138049 0.187435 0.879626 1 17 1.000000
flesh_hand_01
  17 0.249432 60.720528 -1.585542 0.234046 0.766233 -0.598422 0.041986 0.946097 1 17 1.000000
  17 0.148812 60.984127 -1.274620 0.248657 0.750155 -0.612729 0.042868 0.874416 1 17 1.000000
  17 0.812013 60.471504 -1.113311 0.848761 0.493584 -0.189680 0.189073 0.935857 1 17 1.000000
flesh_hand_01
  17 0.395179 60.567234 -3.152313 -0.057102 0.813460 -0.578811 0.041986 0.946097 1 17 1.000000
  17 0.222650 61.348194 -2.006835 -0.118717 0.819776 -0.560244 0.042868 0.874416 1 17 1.000000
  17 1.342125 60.462231 -2.967327 0.334016 0.824053 -0.457569 0.115529 0.940977 1 17 1.000000
flesh_hand_01
  17 1.342125 60.462231 -2.967327 0.334016 0.824053 -0.457569 0.115529 0.940977 1 17 1.000000
  17 0.222650 61.348194 -2.006835 -0.118717 0.819776 -0.560244 0.042868 0.874416 1 17 1.000000
  17 0.824467 61.359291 -1.684685 0.373269 0.775334 -0.509439 0.115152 0.877021 1 17 1.000000
flesh_hand_01
  17 1.342125 60.462231 -2.967327 0.334016 0.824053 -0.457569 0.115529 0.940977 1 17 1.000000
  17 0.824467 61.359291 -1.684685 0.373269 0.775334 -0.509439 0.115152 0.877021 1 17 1.000000
  17 1.728512 60.699776 -1.751262 0.670508 0.657153 -0.344338 0.189073 0.935857 1 17 1.000000
flesh_hand_01
  17 1.728512 60.699776 -1.751262 0.670508 0.657153 -0.344338 0.189073 0.935857 1 17 1.000000
  17 0.824467 61.359291 -1.684685 0.373269 0.775334 -0.509439 0.115152 0.877021 1 17 1.000000
  17 1.427526 61.366962 -1.349672 0.664943 0.637006 -0.389967 0.187435 0.879626 1 17 1.000000
flesh_hand_01
  17 1.728512 60.699776 -1.751262 0.670508 0.657153 -0.344338 0.189073 0.935857 1 17 1.000000
  17 1.427526 61.366962 -1.349672 0.664943 0.637006 -0.389967 0.187435 0.879626 1 17 1.000000
  17 2.053212 60.448685 -0.750851 0.773636 0.531169 0.345467 0.268370 0.936848 1 17 1.000000
flesh_hand_01
  17 2.053212 60.448685 -0.750851 0.773636 0.531169 0.345467 0.268370 0.936848 1 17 1.000000
  17 1.427526 61.366962 -1.349672 0.664943 0.637006 -0.389967 0.187435 0.879626 1 17 1.000000
  17 1.516127 60.971745 -0.528460 0.712773 0.543256 0.443652 0.264118 0.879137 1 17 1.000000
flesh_hand_01
  17 2.053212 60.448685 -0.750851 0.773636 0.531169 0.345467 0.268370 0.936848 1 17 1.000000
  17 1.516127 60.971745 -0.528460 0.712773 0.543256 0.443652 0.264118 0.879137 1 17 1.000000
  17 1.657369 59.948513 0.021156 0.637445 0.290493 0.713637 0.347666 0.937840 1 17 1.000000
flesh_hand_01
  17 1.657369 59.948513 0.021156 0.637445 0.290493 0.713637 0.347666 0.937840 1 17 1.000000
  17 1.516127 60.971745 -0.528460 0.712773 0.543256 0.443652 0.264118 0.879137 1 17 1.000000
  17 1.180391 60.557159 0.103946 0.639096 0.408090 0.651935 0.340801 0.878648 1 17 1.000000
flesh_hand_01
  17 1.180391 60.557159 0.103946 0.639096 0.408090 0.651935 0.340801 0.878648 1 17 1.000000
  17 0.843611 60.247128 0.584749 0.471639 -0.012863 0.881698 0.404644 0.879550 1 17 1.000000
  17 1.657369 59.948513 0.021156 0.637445 0.290493 0.713637 0.347666 0.937840 1 17 1.000000
flesh_hand_01
  17 1.657369 59.948513 0.021156 0.637445 0.290493 0.713637 0.347666 0.937840 1 17 1.000000
  17 0.843611 60.247128 0.584749 0.471639 -0.012863 0.881698 0.404644 0.879550 1 17 1.000000
  17 1.117955 59.552235 0.345263 0.469949 -0.014856 0.882568 0.410855 0.936181 1 17 1.000000
flesh_hand_01
  17 0.843611 60.247128 0.584749 0.471639 -0.012863 0.881698 0.404644 0.879550 1 17 1.000000
  17 0.125790 59.934589 0.758931 0.264181 0.073508 0.961668 0.468487 0.880451 1 17 1.000000
  17 1.117955 59.552235 0.345263 0.469949 -0.014856 0.882568 0.410855 0.936181 1 17 1.000000
flesh_hand_01
  17 1.117955 59.552235 0.345263 0.469949 -0.014856 0.882568 0.410855 0.936181 1 17 1.000000
  17 0.125790 59.934589 0.758931 0.264181 0.073508 0.961668 0.468487 0.880451 1 17 1.000000
  17 0.400879 58.937065 0.864698 0.259447 0.172304 0.950262 0.474044 0.934522 1 17 1.000000
flesh_hand_01
  17 0.400879 58.937065 0.864698 0.259447 0.172304 0.950262 0.474044 0.934522 1 17 1.000000
  17 0.125790 59.934589 0.758931 0.264181 0.073508 0.961668 0.468487 0.880451 1 17 1.000000
  17 -0.696116 58.942905 0.962731 -0.149754 0.077541 0.985678 0.541508 0.934398 1 17 1.000000
flesh_hand_01
  17 -0.696116 58.942905 0.962731 -0.149754 0.077541 0.985678 0.541508 0.934398 1 17 1.000000
  17 0.125790 59.934589 0.758931 0.264181 0.073508 0.961668 0.468487 0.880451 1 17 1.000000
  17 -0.746689 59.788357 0.907181 -0.246488 -0.066866 0.966836 0.537831 0.880558 1 17 1.000000
flesh_hand_01
  17 -0.696116 58.942905 0.962731 -0.149754 0.077541 0.985678 0.541508 0.934398 1 17 1.000000
  17 -0.746689 59.788357 0.907181 -0.246488 -0.066866 0.966836 0.537831 0.880558 1 17 1.000000
  17 -1.303768 59.417362 0.501737 -0.665933 -0.169045 0.726606 0.608972 0.934274 1 17 1.000000
flesh_hand_01
  17 -1.303768 59.417362 0.501737 -0.665933 -0.169045 0.726606 0.608972 0.934274 1 17 1.000000
  17 -0.746689 59.788357 0.907181 -0.246488 -0.066866 0.966836 0.537831 0.880558 1 17 1.000000
  17 -1.325526 60.237965 0.802944 -0.723904 -0.216490 0.655054 0.607176 0.880665 1 17 1.000000
flesh_hand_01
  17 -1.303768 59.417362 0.501737 -0.665933 -0.169045 0.726606 0.608972 0.934274 1 17 1.000000
  17 -1.325526 60.237965 0.802944 -0.723904 -0.216490 0.655054 0.607176 0.880665 1 17 1.000000
  17 -1.843139 60.152065 -0.181777 -0.966867 0.206134 0.150587 0.714152 0.931788 1 17 1.000000
flesh_hand_01
  17 -1.843139 60.152065 -0.181777 -0.966867 0.206134 0.150587 0.714152 0.931788 1 17 1.000000
  17 -1.325526 60.237965 0.802944 -0.723904 -0.216490 0.655054 0.607176 0.880665 1 17 1.000000
  17 -1.724510 60.482433 -0.036034 -0.948066 0.283772 0.143683 0.716031 0.881913 1 17 1.000000
flesh_hand_01
  17 -1.127131 61.087402 -1.283855 -0.709624 0.568756 -0.415873 0.831392 0.880678 1 17 1.000000
  17 -1.843139 60.152065 -0.181777 -0.966867 0.206134 0.150587 0.714152 0.931788 1 17 1.000000
  17 -1.724510 60.482433 -0.036034 -0.948066 0.283772 0.143683 0.716031 0.881913 1 17 1.000000
flesh_hand_01
  17 -1.359125 60.429413 -1.738622 -0.706581 0.551801 -0.443012 0.825010 0.933990 1 17 1.000000
  17 -1.843139 60.152065 -0.181777 -0.966867 0.206134 0.150587 0.714152 0.931788 1 17 1.000000
  17 -1.127131 61.087402 -1.283855 -0.709624 0.568756 -0.415873 0.831392 0.880678 1 17 1.000000
flesh_hand_01
  17 0.222650 61.348194 -2.006835 -0.118717 0.819776 -0.560244 0.974944 0.874979 1 17 1.000000
  17 -1.359125 60.429413 -1.738622 -0.706581 0.551801 -0.443012 0.825010 0.933990 1 17 1.000000
  17 -1.127131 61.087402 -1.283855 -0.709624 0.568756 -0.415873 0.831392 0.880678 1 17 1.000000
flesh_hand_01
  17 0.395179 60.567234 -3.152313 -0.057102 0.813460 -0.578811 0.972753 0.945005 1 17 1.000000
  17 -1.359125 60.429413 -1.738622 -0.706581 0.551801 -0.443012 0.825010 0.933990 1 17 1.000000
  17 0.222650 61.348194 -2.006835 -0.118717 0.819776 -0.560244 0.974944 0.874979 1 17 1.000000
flesh_hand_01
  17 2.224894 61.693066 0.133049 0.816833 0.506383 0.276332 0.998201 0.006092 1 17 1.000000
  17 2.117583 62.092094 -0.246216 0.820778 0.530102 0.212873 0.995596 0.063893 1 17 1.000000
  17 1.764299 62.212860 0.596413 0.823706 0.511181 0.245360 0.816884 0.002876 1 17 1.000000
flesh_hand_01
  17 1.764299 62.212860 0.596413 0.823706 0.511181 0.245360 0.816884 0.002876 1 17 1.000000
  17 2.117583 62.092094 -0.246216 0.820778 0.530102 0.212873 0.995596 0.063893 1 17 1.000000
  17 1.719673 62.500900 0.146125 0.809451 0.531684 0.249200 0.860869 0.062588 1 17 1.000000
flesh_hand_01
  17 2.117583 62.092094 -0.246216 0.820778 0.530102 0.212873 0.995596 0.063893 1 17 1.000000
  17 1.917288 62.400211 -0.717164 0.834547 0.550909 0.005494 0.992991 0.121694 1 17 1.000000
  17 1.719673 62.500900 0.146125 0.809451 0.531684 0.249200 0.860869 0.062588 1 17 1.000000
flesh_hand_01
  17 1.719673 62.500900 0.146125 0.809451 0.531684 0.249200 0.860869 0.062588 1 17 1.000000
  17 1.917288 62.400211 -0.717164 0.834547 0.550909 0.005494 0.992991 0.121694 1 17 1.000000
  17 1.516754 63.003319 -0.351008 0.820800 0.556183 0.130183 0.904854 0.122299 1 17 1.000000
flesh_hand_01
  17 0.211536 59.369949 1.070780 0.122634 -0.824395 -0.552571 0.366964 0.111111 1 17 1.000000
  17 -1.029693 59.460396 1.226804 -0.151410 -0.835777 -0.527781 0.445101 0.178527 1 17 1.000000
  17 -0.153351 60.775581 -1.107302 0.046388 -0.889674 -0.454234 0.197567 0.247063 1 17 1.000000
flesh_hand_01
  17 -1.029693 59.460396 1.226804 -0.151410 -0.835777 -0.527781 0.445101 0.178527 1 17 1.000000
  17 -1.613064 59.913078 0.720241 -0.174217 -0.829503 -0.530635 0.403975 0.246962 1 17 1.000000
  17 -0.153351 60.775581 -1.107302 0.046388 -0.889674 -0.454234 0.197567 0.247063 1 17 1.000000
flesh_hand_01
  17 -1.613064 59.913078 0.720241 -0.174217 -0.829503 -0.530635 0.403975 0.246962 1 17 1.000000
  17 -1.878235 60.401089 0.029662 -0.132542 -0.864030 -0.485679 0.362797 0.315483 1 17 1.000000
  17 -0.153351 60.775581 -1.107302 0.046388 -0.889674 -0.454234 0.197567 0.247063 1 17 1.000000
flesh_hand_01
  17 -1.878235 60.401089 0.029662 -0.132542 -0.864030 -0.485679 0.362797 0.315483 1 17 1.000000
  17 -1.261405 61.057476 -1.726100 -0.002954 -0.912003 -0.410172 0.191009 0.362583 1 17 1.000000
  17 -0.153351 60.775581 -1.107302 0.046388 -0.889674 -0.454234 0.197567 0.247063 1 17 1.000000
flesh_hand_01
  17 -1.261405 61.057476 -1.726100 -0.002954 -0.912003 -0.410172 0.191009 0.362583 1 17 1.000000
  17 0.296879 61.466953 -2.351206 0.068806 -0.882360 -0.465517 0.073401 0.280074 1 17 1.000000
  17 -0.153351 60.775581 -1.107302 0.046388 -0.889674 -0.454234 0.197567 0.247063 1 17 1.000000
flesh_hand_01
  17 1.673182 61.180622 -1.544099 0.107142 -0.911472 -0.397163 0.079355 0.137703 1 17 1.000000
  17 -0.153351 60.775581 -1.107302 0.046388 -0.889674 -0.454234 0.197567 0.247063 1 17 1.000000
  17 0.296879 61.466953 -2.351206 0.068806 -0.882360 -0.465517 0.073401 0.280074 1 17 1.000000
flesh_hand_01
  17 1.868036 60.729084 -0.313102 0.135187 -0.907709 -0.397226 0.166088 0.060608 1 17 1.000000
  17 -0.153351 60.775581 -1.107302 0.046388 -0.889674 -0.454234 0.197567 0.247063 1 17 1.000000
  17 1.673182 61.180622 -1.544099 0.107142 -0.911472 -0.397163 0.079355 0.137703 1 17 1.000000
flesh_hand_01
  17 1.513670 60.364864 0.330621 0.151826 -0.889876 -0.430196 0.237845 0.060394 1 17 1.000000
  17 -0.153351 60.775581 -1.107302 0.046388 -0.889674 -0.454234 0.197567 0.247063 1 17 1.000000
  17 1.868036 60.729084 -0.313102 0.135187 -0.907709 -0.397226 0.166088 0.060608 1 17 1.000000
flesh_hand_01
  17 0.998709 60.027664 0.833565 0.320552 -0.804367 -0.500240 0.307939 0.060185 1 17 1.000000
  17 -0.153351 60.775581 -1.107302 0.046388 -0.889674 -0.454234 0.197567 0.247063 1 17 1.000000
  17 1.513670 60.364864 0.330621 0.151826 -0.889876 -0.430196 0.237845 0.060394 1 17 1.000000
flesh_hand_01
  17 -0.153351 60.775581 -1.107302 0.046388 -0.889674 -0.454234 0.197567 0.247063 1 17 1.000000
  17 0.998709 60.027664 0.833565 0.320552 -0.804367 -0.500240 0.307939 0.060185 1 17 1.000000
  17 0.211536 59.369949 1.070780 0.122634 -0.824395 -0.552571 0.366964 0.111111 1 17 1.000000
flesh_hand_01
  17 -2.739761 61.651695 0.144427 -0.709939 0.690274 -0.139670 0.992991 0.162102 1 17 1.000000
  17 -2.192555 62.287498 0.505253 -0.815382 0.538080 -0.213594 0.815857 0.163320 1 17 1.000000
  17 -1.743935 62.413345 -1.153106 -0.791639 0.586975 -0.169611 0.998201 0.006092 1 17 1.000000
flesh_hand_01
  17 -1.743935 62.413345 -1.153106 -0.791639 0.586975 -0.169611 0.998201 0.006092 1 17 1.000000
  17 -2.192555 62.287498 0.505253 -0.815382 0.538080 -0.213594 0.815857 0.163320 1 17 1.000000
  17 -1.606421 62.843212 -0.576338 -0.843416 0.485464 -0.230160 0.816884 0.002876 1 17 1.000000
flesh_hand_01
  17 -2.192555 62.287498 0.505253 -0.815382 0.538080 -0.213594 0.815857 0.163320 1 17 1.000000
  17 -2.005283 62.961491 0.807838 -0.865220 0.412794 -0.284595 0.687547 0.163929 1 17 1.000000
  17 -1.606421 62.843212 -0.576338 -0.843416 0.485464 -0.230160 0.816884 0.002876 1 17 1.000000
flesh_hand_01
  17 -1.606421 62.843212 -0.576338 -0.843416 0.485464 -0.230160 0.816884 0.002876 1 17 1.000000
  17 -2.005283 62.961491 0.807838 -0.865220 0.412794 -0.284595 0.687547 0.163929 1 17 1.000000
  17 -1.388986 63.515846 -0.063812 -0.830105 0.481984 -0.280389 0.686482 0.001268 1 17 1.000000
flesh_hand_01
  17 -2.008048 61.689659 0.685330 -0.919683 0.133642 0.369220 0.904854 0.122299 1 17 1.000000
  17 -1.986360 60.759605 0.516538 -0.909021 0.053802 -0.413263 0.992991 0.121694 1 17 1.000000
  17 -1.868555 61.690334 0.924494 -0.833477 0.169599 0.525883 0.860869 0.062588 1 17 1.000000
flesh_hand_01
  17 -1.868555 61.690334 0.924494 -0.833477 0.169599 0.525883 0.860869 0.062588 1 17 1.000000
  17 -1.986360 60.759605 0.516538 -0.909021 0.053802 -0.413263 0.992991 0.121694 1 17 1.000000
  17 -2.132611 60.502499 0.804761 -0.974336 0.132962 0.181633 0.995596 0.063893 1 17 1.000000
flesh_hand_01
  17 -1.868555 61.690334 0.924494 -0.833477 0.169599 0.525883 0.860869 0.062588 1 17 1.000000
  17 -2.132611 60.502499 0.804761 -0.974336 0.132962 0.181633 0.995596 0.063893 1 17 1.000000
  17 -1.575527 61.421539 1.375848 -0.751386 0.223441 0.620881 0.816884 0.002876 1 17 1.000000
flesh_hand_01
  17 -1.575527 61.421539 1.375848 -0.751386 0.223441 0.620881 0.816884 0.002876 1 17 1.000000
  17 -2.132611 60.502499 0.804761 -0.974336 0.132962 0.181633 0.995596 0.063893 1 17 1.000000
  17 -1.878470 60.479443 1.348270 -0.858798 0.175481 0.481323 0.998201 0.006092 1 17 1.000000
flesh_hand_01
  17 0.350578 59.915024 -0.576379 0.408265 -0.099804 0.907391 0.961019 0.332573 1 17 1.000000
  17 0.685398 60.173058 -1.132354 0.929118 0.350018 -0.119274 0.894484 0.332570 1 17 1.000000
  17 0.399605 60.146420 -0.568750 0.651829 -0.159396 0.741425 0.961888 0.300713 1 17 1.000000
flesh_hand_01
  17 0.399605 60.146420 -0.568750 0.651829 -0.159396 0.741425 0.961888 0.300713 1 17 1.000000
  17 0.685398 60.173058 -1.132354 0.929118 0.350018 -0.119274 0.894484 0.332570 1 17 1.000000
  17 0.631813 60.347191 -1.018671 0.956343 0.290147 -0.034971 0.894847 0.300709 1 17 1.000000
flesh_hand_01
  17 0.685398 60.173058 -1.132354 0.929118 0.350018 -0.119274 0.894484 0.332570 1 17 1.000000
  17 0.257559 60.514053 -1.279830 0.330798 0.653307 -0.681001 0.837127 0.300710 1 17 1.000000
  17 0.631813 60.347191 -1.018671 0.956343 0.290147 -0.034971 0.894847 0.300709 1 17 1.000000
flesh_hand_01
  17 0.231940 60.236053 -1.555751 0.245397 0.652266 -0.717168 0.837560 0.332571 1 17 1.000000
  17 0.257559 60.514053 -1.279830 0.330798 0.653307 -0.681001 0.837127 0.300710 1 17 1.000000
  17 0.685398 60.173058 -1.132354 0.929118 0.350018 -0.119274 0.894484 0.332570 1 17 1.000000
flesh_hand_01
  17 0.231940 60.236053 -1.555751 0.245397 0.652266 -0.717168 0.837560 0.332571 1 17 1.000000
  17 -0.291411 60.537750 -1.232129 -0.471135 0.684267 -0.556606 0.778636 0.300714 1 17 1.000000
  17 0.257559 60.514053 -1.279830 0.330798 0.653307 -0.681001 0.837127 0.300710 1 17 1.000000
flesh_hand_01
  17 -0.433218 60.273170 -1.418345 -0.606101 0.640558 -0.471516 0.779281 0.332575 1 17 1.000000
  17 -0.291411 60.537750 -1.232129 -0.471135 0.684267 -0.556606 0.778636 0.300714 1 17 1.000000
  17 0.231940 60.236053 -1.555751 0.245397 0.652266 -0.717168 0.837560 0.332571 1 17 1.000000
flesh_hand_01
  17 -0.433218 60.273170 -1.418345 -0.606101 0.640558 -0.471516 0.779281 0.332575 1 17 1.000000
  17 -0.522731 60.270901 -0.829622 -0.847099 0.375105 0.376457 0.714844 0.300728 1 17 1.000000
  17 -0.291411 60.537750 -1.232129 -0.471135 0.684267 -0.556606 0.778636 0.300714 1 17 1.000000
flesh_hand_01
  17 -0.695033 59.943230 -0.902166 -0.815275 0.358928 0.454419 0.715410 0.332590 1 17 1.000000
  17 -0.522731 60.270901 -0.829622 -0.847099 0.375105 0.376457 0.714844 0.300728 1 17 1.000000
  17 -0.433218 60.273170 -1.418345 -0.606101 0.640558 -0.471516 0.779281 0.332575 1 17 1.000000
flesh_hand_01
  17 -0.695033 59.943230 -0.902166 -0.815275 0.358928 0.454419 0.715410 0.332590 1 17 1.000000
  17 -0.287943 59.783955 -0.552769 -0.366705 0.145270 0.918925 0.657129 0.332583 1 17 1.000000
  17 -0.522731 60.270901 -0.829622 -0.847099 0.375105 0.376457 0.714844 0.300728 1 17 1.000000
flesh_hand_01
  17 -0.522731 60.270901 -0.829622 -0.847099 0.375105 0.376457 0.714844 0.300728 1 17 1.000000
  17 -0.287943 59.783955 -0.552769 -0.366705 0.145270 0.918925 0.657129 0.332583 1 17 1.000000
  17 -0.132618 60.153782 -0.550003 -0.240076 0.073688 0.967953 0.656892 0.300721 1 17 1.000000
flesh_hand_01
  17 -0.287943 59.783955 -0.552769 -0.366705 0.145270 0.918925 0.657129 0.332583 1 17 1.000000
  17 0.350578 59.915024 -0.576379 0.408265 -0.099804 0.907391 0.600988 0.332576 1 17 1.000000
  17 -0.132618 60.153782 -0.550003 -0.240076 0.073688 0.967953 0.656892 0.300721 1 17 1.000000
flesh_hand_01
  17 -0.132618 60.153782 -0.550003 -0.240076 0.073688 0.967953 0.656892 0.300721 1 17 1.000000
  17 0.350578 59.915024 -0.576379 0.408265 -0.099804 0.907391 0.600988 0.332576 1 17 1.000000
  17 0.399605 60.146420 -0.568750 0.651829 -0.159396 0.741425 0.601081 0.300715 1 17 1.000000
flesh_hand_01
  17 0.495582 58.353943 0.695387 0.630903 -0.187750 0.752803 0.998201 0.006092 1 17 1.000000
  17 1.540978 58.731548 -0.268500 0.703112 -0.294989 0.647005 0.992991 0.162102 1 17 1.000000
  17 1.382987 59.422306 0.218130 0.632532 -0.158461 0.758151 0.876444 0.162904 1 17 1.000000
flesh_hand_01
  17 1.382987 59.422306 0.218130 0.632532 -0.158461 0.758151 0.876444 0.162904 1 17 1.000000
  17 0.211528 59.369942 1.070771 0.597460 -0.056812 0.799883 0.816884 0.002876 1 17 1.000000
  17 0.495582 58.353943 0.695387 0.630903 -0.187750 0.752803 0.998201 0.006092 1 17 1.000000
flesh_hand_01
  17 1.382987 59.422306 0.218130 0.632532 -0.158461 0.758151 0.876444 0.162904 1 17 1.000000
  17 1.490739 60.043999 0.192569 0.553696 0.033261 0.832054 0.815857 0.163320 1 17 1.000000
  17 0.211528 59.369942 1.070771 0.597460 -0.056812 0.799883 0.816884 0.002876 1 17 1.000000
flesh_hand_01
  17 0.211528 59.369942 1.070771 0.597460 -0.056812 0.799883 0.816884 0.002876 1 17 1.000000
  17 1.490739 60.043999 0.192569 0.553696 0.033261 0.832054 0.815857 0.163320 1 17 1.000000
  17 0.052707 60.801102 1.251232 0.641361 -0.025514 0.766815 0.686482 0.001268 1 17 1.000000
flesh_hand_01
  17 0.052707 60.801102 1.251232 0.641361 -0.025514 0.766815 0.686482 0.001268 1 17 1.000000
  17 1.490739 60.043999 0.192569 0.553696 0.033261 0.832054 0.815857 0.163320 1 17 1.000000
  17 1.299755 60.973232 0.213931 0.583863 0.037125 0.811003 0.687547 0.163929 1 17 1.000000
flesh_hand_01
  17 -2.259892 60.276833 1.351043 -0.620822 0.334468 0.709021 0.995596 0.084097 1 17 1.000000
  17 -1.237835 60.242344 1.661086 -0.286147 0.093167 0.953645 0.992991 0.162102 1 17 1.000000
  17 -1.882137 61.228352 1.234118 -0.623538 -0.024135 0.781420 0.816370 0.083098 1 17 1.000000
flesh_hand_01
  17 -1.882137 61.228352 1.234118 -0.623538 -0.024135 0.781420 0.816370 0.083098 1 17 1.000000
  17 -1.237835 60.242344 1.661086 -0.286147 0.093167 0.953645 0.992991 0.162102 1 17 1.000000
  17 -1.176002 61.099815 1.595868 -0.395578 0.094422 0.913566 0.815857 0.163320 1 17 1.000000
flesh_hand_01
  17 -1.176002 61.099815 1.595868 -0.395578 0.094422 0.913566 0.815857 0.163320 1 17 1.000000
  17 -1.278484 61.911701 1.560406 -0.375875 -0.107450 0.920420 0.687547 0.163929 1 17 1.000000
  17 -1.882137 61.228352 1.234118 -0.623538 -0.024135 0.781420 0.816370 0.083098 1 17 1.000000
flesh_hand_01
  17 -1.882137 61.228352 1.234118 -0.623538 -0.024135 0.781420 0.816370 0.083098 1 17 1.000000
  17 -1.278484 61.911701 1.560406 -0.375875 -0.107450 0.920420 0.687547 0.163929 1 17 1.000000
  17 -1.995778 61.999275 1.358584 -0.327292 -0.197440 0.924066 0.687014 0.082598 1 17 1.000000
flesh_hand_01
  17 -1.882137 61.228352 1.234118 -0.623538 -0.024135 0.781420 0.816370 0.083098 1 17 1.000000
  17 -1.995778 61.999275 1.358584 -0.327292 -0.197440 0.924066 0.687014 0.082598 1 17 1.000000
  17 -2.281678 61.547131 1.127580 -0.859312 -0.411603 0.303589 0.686840 0.056044 1 17 1.000000
flesh_hand_01
  17 -2.044663 61.191460 0.803673 -0.995923 0.087656 0.021313 0.816748 0.024146 1 17 1.000000
  17 -1.882137 61.228352 1.234118 -0.623538 -0.024135 0.781420 0.816370 0.083098 1 17 1.000000
  17 -2.281678 61.547131 1.127580 -0.859312 -0.411603 0.303589 0.686840 0.056044 1 17 1.000000
flesh_hand_01
  17 -2.281678 61.547131 1.127580 -0.859312 -0.411603 0.303589 0.686840 0.056044 1 17 1.000000
  17 -2.233460 61.994343 0.808998 -0.902968 -0.209843 -0.374987 0.686482 0.001268 1 17 1.000000
  17 -2.044663 61.191460 0.803673 -0.995923 0.087656 0.021313 0.816748 0.024146 1 17 1.000000
flesh_hand_01
  17 -2.233460 61.994343 0.808998 -0.902968 -0.209843 -0.374987 0.686482 0.001268 1 17 1.000000
  17 -2.001960 61.182602 0.625077 -0.933347 0.270023 -0.236540 0.816884 0.002876 1 17 1.000000
  17 -2.044663 61.191460 0.803673 -0.995923 0.087656 0.021313 0.816748 0.024146 1 17 1.000000
flesh_hand_01
  17 -2.044663 61.191460 0.803673 -0.995923 0.087656 0.021313 0.816748 0.024146 1 17 1.000000
  17 -2.001960 61.182602 0.625077 -0.933347 0.270023 -0.236540 0.816884 0.002876 1 17 1.000000
  17 -2.587467 60.494545 0.608722 -0.776196 0.495497 0.389876 0.998201 0.006092 1 17 1.000000
flesh_hand_01
  17 -2.259892 60.276833 1.351043 -0.620822 0.334468 0.709021 0.995596 0.084097 1 17 1.000000
  17 -2.044663 61.191460 0.803673 -0.995923 0.087656 0.021313 0.816748 0.024146 1 17 1.000000
  17 -2.587467 60.494545 0.608722 -0.776196 0.495497 0.389876 0.998201 0.006092 1 17 1.000000
flesh_hand_01
  17 -1.882137 61.228352 1.234118 -0.623538 -0.024135 0.781420 0.816370 0.083098 1 17 1.000000
  17 -2.044663 61.191460 0.803673 -0.995923 0.087656 0.021313 0.816748 0.024146 1 17 1.000000
  17 -2.259892 60.276833 1.351043 -0.620822 0.334468 0.709021 0.995596 0.084097 1 17 1.000000
flesh_hand_01
  17 -2.119651 59.088593 -0.662227 -0.920457 0.378303 0.098207 0.992991 0.121694 1 17 1.000000
  17 -1.708503 60.091190 -0.670762 -0.926800 0.369733 0.065875 0.904854 0.122299 1 17 1.000000
  17 -2.108990 59.283325 -1.312424 -0.780782 0.366726 -0.505857 0.995596 0.063893 1 17 1.000000
flesh_hand_01
  17 -2.108990 59.283325 -1.312424 -0.780782 0.366726 -0.505857 0.995596 0.063893 1 17 1.000000
  17 -1.708503 60.091190 -0.670762 -0.926800 0.369733 0.065875 0.904854 0.122299 1 17 1.000000
  17 -1.651221 60.325436 -1.243893 -0.784216 0.298892 -0.543754 0.860869 0.062588 1 17 1.000000
flesh_hand_01
  17 -2.108990 59.283325 -1.312424 -0.780782 0.366726 -0.505857 0.995596 0.063893 1 17 1.000000
  17 -1.651221 60.325436 -1.243893 -0.784216 0.298892 -0.543754 0.860869 0.062588 1 17 1.000000
  17 -1.501716 59.087090 -1.483238 -0.231166 0.157651 -0.960056 0.998201 0.006092 1 17 1.000000
flesh_hand_01
  17 -1.501716 59.087090 -1.483238 -0.231166 0.157651 -0.960056 0.998201 0.006092 1 17 1.000000
  17 -1.651221 60.325436 -1.243893 -0.784216 0.298892 -0.543754 0.860869 0.062588 1 17 1.000000
  17 -0.966093 60.204952 -1.445385 -0.295327 -0.088471 -0.951291 0.816884 0.002876 1 17 1.000000
flesh_hand_01
  17 -1.824267 62.477291 -1.148953 -0.445195 0.816868 -0.366780 0.992991 0.162102 1 17 1.000000
  17 -1.231144 63.003788 -0.696303 -0.566329 0.686301 -0.456357 0.815857 0.163320 1 17 1.000000
  17 -0.379574 62.801723 -2.179965 -0.541743 0.733313 -0.410813 0.998201 0.006092 1 17 1.000000
flesh_hand_01
  17 -0.379574 62.801723 -2.179965 -0.541743 0.733313 -0.410813 0.998201 0.006092 1 17 1.000000
  17 -1.231144 63.003788 -0.696303 -0.566329 0.686301 -0.456357 0.815857 0.163320 1 17 1.000000
  17 -0.275668 63.256836 -1.615671 -0.602512 0.640302 -0.476438 0.816884 0.002876 1 17 1.000000
flesh_hand_01
  17 -1.231144 63.003788 -0.696303 -0.566329 0.686301 -0.456357 0.815857 0.163320 1 17 1.000000
  17 -0.949771 63.646179 -0.397878 -0.629103 0.568597 -0.530025 0.687547 0.163929 1 17 1.000000
  17 -0.275668 63.256836 -1.615671 -0.602512 0.640302 -0.476438 0.816884 0.002876 1 17 1.000000
flesh_hand_01
  17 -0.275668 63.256836 -1.615671 -0.602512 0.640302 -0.476438 0.816884 0.002876 1 17 1.000000
  17 -0.949771 63.646179 -0.397878 -0.629103 0.568597 -0.530025 0.687547 0.163929 1 17 1.000000
  17 -0.017060 63.917873 -1.107196 -0.578918 0.627234 -0.520991 0.686482 0.001268 1 17 1.000000
flesh_hand_01
  17 -1.301232 58.775581 -0.376938 -0.495684 -0.151806 0.855133 0.992991 0.121694 1 17 1.000000
  17 -1.215732 59.504135 -0.198046 -0.523123 -0.139357 0.840786 0.904854 0.122299 1 17 1.000000
  17 -1.869793 59.139320 -0.641939 -0.913801 0.112433 0.390289 0.995596 0.063893 1 17 1.000000
flesh_hand_01
  17 -1.869793 59.139320 -0.641939 -0.913801 0.112433 0.390289 0.995596 0.063893 1 17 1.000000
  17 -1.215732 59.504135 -0.198046 -0.523123 -0.139357 0.840786 0.904854 0.122299 1 17 1.000000
  17 -1.674738 59.887009 -0.430355 -0.935483 0.081994 0.343726 0.860869 0.062588 1 17 1.000000
flesh_hand_01
  17 -1.869793 59.139320 -0.641939 -0.913801 0.112433 0.390289 0.995596 0.063893 1 17 1.000000
  17 -1.674738 59.887009 -0.430355 -0.935483 0.081994 0.343726 0.860869 0.062588 1 17 1.000000
  17 -1.608192 59.248508 -1.194527 -0.881720 0.321417 -0.345342 0.998201 0.006092 1 17 1.000000
flesh_hand_01
  17 -1.608192 59.248508 -1.194527 -0.881720 0.321417 -0.345342 0.998201 0.006092 1 17 1.000000
  17 -1.674738 59.887009 -0.430355 -0.935483 0.081994 0.343726 0.860869 0.062588 1 17 1.000000
  17 -1.382282 60.091480 -1.007638 -0.902360 0.136431 -0.408819 0.816884 0.002876 1 17 1.000000
end
