// Created by Crowbar 0.74
version 1
nodes
  0 "bip_pelvis" -1
  1 "bip_hip_R" 0
  2 "bip_knee_R" 1
  3 "bip_foot_R" 2
  4 "bip_spine_0" 0
  5 "bip_spine_1" 4
  6 "bip_spine_2" 5
  7 "bip_spine_3" 6
  8 "bip_collar_R" 7
  9 "bip_upperArm_R" 8
  10 "bip_lowerArm_R" 9
  11 "bip_hand_R" 10
  12 "bip_Hand_Rotate1_R" 10
  13 "bip_hip_L" 0
  14 "bip_knee_L" 13
  15 "bip_foot_L" 14
  16 "bip_neck" 7
  17 "bip_head" 16
  18 "bip_collar_L" 7
  19 "bip_upperArm_L" 18
  20 "bip_lowerArm_L" 19
  21 "bip_hand_L" 20
  22 "bip_index_0_L" 21
  23 "bip_index_0_R" 11
  24 "bip_Hand_Rotate1_L" 20
  25 "bip_Arm_Rotate1_L" 19
  26 "bip_index_1_L" 22
  27 "bip_middle_0_L" 21
  28 "bip_middle_1_L" 27
  29 "bip_ring_0_L" 21
  30 "bip_ring_1_L" 29
  31 "bip_pinky_0_L" 21
  32 "bip_pinky_1_L" 31
  33 "bip_thumb_0_L" 21
  34 "bip_thumb_1_L" 33
  35 "bip_Hand_Rotate_L" 20
  36 "bip_Arm_Rotate_L" 19
  37 "bip_Pelvis_L" 13
  38 "bip_Arm_Rotate_R" 9
  39 "bip_Arm_Rotate1_R" 9
  40 "bip_kneeMid_L" 14
  41 "Elbow_R" 10
  42 "bip_Pelvis_R" 1
  43 "bip_kneeMid_R" 2
  44 "Elbow_L" 20
  45 "bip_index_1_R" 23
  46 "bip_middle_0_R" 11
  47 "bip_middle_1_R" 46
  48 "bip_ring_0_R" 11
  49 "bip_ring_1_R" 48
  50 "bip_pinky_0_R" 11
  51 "bip_pinky_1_R" 50
  52 "bip_thumb_0_R" 11
  53 "bip_thumb_1_R" 52
  54 "bip_Hand_Rotate_R" 10
  55 "bip_toeEnd_R" 3
  56 "bip_toeEnd_L" 15
  57 "bip_indexEnd_L" 26
  58 "bip_middleEnd_L" 28
  59 "bip_RingEnd_L" 30
  60 "bip_pinkyEnd_L" 32
  61 "bip_thumbEnd_L" 34
  62 "Wp_L" 21
  63 "bip_indexEnd_R" 45
  64 "bip_middleEnd_R" 47
  65 "bip_ringEnd_R" 49
  66 "bip_pinkyEnd_R" 51
  67 "bip_thumbEnd_R" 53
  68 "Wp_R" 11
  69 "bip_forward" 17
  70 "bip_clipbone" 11
end
skeleton
  time 0
    0 0.000000 39.563190 0.000000 0.000000 0.000000 0.000000
    1 -3.366135 -1.935646 1.480067 0.111246 0.039216 -1.700668
    2 16.045450 0.000000 0.000000 -0.000323 0.133775 -0.002420
    3 17.465778 0.000001 0.000001 -0.159390 -0.178530 1.736820
    4 0.000000 4.240540 1.190873 0.000000 0.000000 0.000000
    5 0.000000 5.143673 -0.566893 0.000000 0.000000 0.000000
    6 0.000000 4.011826 -0.435470 0.000000 0.000000 0.000000
    7 0.000000 3.724953 -0.655500 0.000000 0.000000 0.000000
    8 -2.166257 -0.155743 -0.180534 0.000000 0.000000 0.157080
    9 -4.301173 0.280510 -0.232197 1.514108 -0.019862 -2.351989
    10 11.236193 0.000000 0.000004 0.000001 -0.001411 0.443439
    11 9.693705 0.000000 0.000000 1.748300 -0.156891 3.091171
    12 7.480289 0.006109 -0.010555 1.740287 -0.001411 -3.140776
    13 3.366135 -1.935787 1.480067 -0.111239 0.039223 -1.440926
    14 16.045298 0.000001 0.000000 0.000323 0.133775 0.002421
    15 17.465788 0.000000 0.000000 2.982194 0.178536 1.404771
    16 0.000000 3.134243 -0.066059 0.000000 0.000000 0.000000
    17 0.063361 3.268921 0.898785 0.000000 0.000000 0.000000
    18 2.166257 -0.155926 -0.180536 3.141592 0.000000 -0.157080
    19 4.301145 -0.280594 0.232197 0.056693 0.019859 0.789599
    20 11.236181 -0.000027 -0.000006 0.000000 0.444256 0.000000
    21 9.693651 -0.013687 0.007915 0.169489 -0.050609 0.155683
    22 3.443607 -0.311180 -1.426107 0.025754 0.180665 0.039288
    23 -3.443645 0.311172 1.426091 0.025754 0.180665 0.039288
    24 7.480257 -0.000008 -0.000010 0.169489 0.000000 0.000000
    25 6.472908 -0.000031 -0.000001 -0.028346 0.000000 0.000000
    26 1.726654 -0.000004 0.000009 0.000000 0.000000 0.507966
    27 3.628399 -0.413433 -0.461199 -0.017992 0.035722 0.129722
    28 1.717384 -0.000019 -0.000012 0.000000 0.000000 0.296827
    29 3.622608 -0.257954 0.410928 -0.173205 -0.117278 0.214490
    30 1.717384 0.000017 0.000010 0.000000 0.000000 0.254297
    31 3.401308 0.004623 1.218914 -0.166412 -0.272554 0.134906
    32 1.462820 -0.000019 -0.000014 0.000000 0.000000 0.476304
    33 1.013556 0.134880 -1.638489 -0.195039 0.518495 0.573015
    34 1.567802 0.078053 0.000011 0.000000 0.302710 0.000000
    35 4.488096 -0.000061 -0.000023 0.084744 0.000000 0.000000
    36 3.480602 -0.000145 -0.000002 -0.043610 0.000000 0.000000
    37 2.222412 0.000015 -0.267579 -3.088133 -0.110996 1.564869
    38 3.480843 0.000000 0.000004 1.527190 0.000000 3.141593
    39 6.472961 0.000000 0.000000 1.542452 0.000000 3.141593
    40 0.000000 0.000000 0.000000 3.047043 0.186859 1.513152
    41 0.000002 -0.000001 0.000000 1.571107 -0.001377 2.920281
    42 2.222565 0.000001 -0.267583 0.053460 0.111003 1.576724
    43 0.000000 0.000000 0.000000 -0.094550 -0.186859 1.628441
    44 0.000000 0.000000 -0.000001 0.000000 -0.222128 0.000000
    45 -1.726627 0.000000 0.000000 0.000000 0.000000 0.507966
    46 -3.628420 0.413422 0.461190 -0.017992 0.035722 0.129722
    47 -1.717388 0.000000 0.000001 0.000000 0.000000 0.296827
    48 -3.622635 0.257938 -0.410944 -0.173205 -0.117278 0.214490
    49 -1.717390 -0.000002 0.000000 0.000000 0.000000 0.254297
    50 -3.401335 -0.004631 -1.218926 -0.166412 -0.272554 0.134906
    51 -1.462816 -0.000004 0.000000 0.000000 0.000000 0.476304
    52 -1.013588 -0.134895 1.638474 -0.195039 0.518495 0.573015
    53 -1.567801 -0.078051 0.000000 0.000000 0.302710 0.000000
    54 4.488173 0.003667 -0.006332 1.655541 -0.001411 -3.140776
    55 -0.035184 -3.529829 6.683560 0.000000 0.000000 0.000000
    56 0.035217 3.529826 -6.683582 0.000000 0.000000 0.000000
    57 1.878918 0.000004 -0.000005 -0.337833 0.000000 0.000000
    58 1.878918 0.000006 -0.000004 -0.337833 0.000000 0.000000
    59 1.878920 -0.000013 -0.000011 -0.337833 0.000000 0.000000
    60 1.878929 0.000004 0.000001 -0.337833 0.000000 0.000000
    61 1.490896 0.144535 -0.268490 -0.337833 0.000000 0.000000
    62 3.058685 1.032097 -0.605999 0.000000 0.334862 0.049595
    63 -1.878929 0.000002 0.000002 -0.337833 0.000000 0.000000
    64 -1.878931 0.000002 0.000001 -0.337833 0.000000 0.000000
    65 -1.878933 0.000002 0.000000 -0.337833 0.000000 0.000000
    66 -1.878937 0.000004 0.000000 -0.337833 0.000000 0.000000
    67 -1.490896 -0.144542 0.268478 -0.337833 0.000000 0.000000
    68 -3.058714 -1.032104 0.605986 0.000000 0.334862 0.049595
    69 0.000000 0.000000 4.750000 0.000000 -1.570796 -1.570796
    70 -2.849998 0.000000 0.000000 0.000000 0.000000 0.000000
end
triangles
flesh_hand_01
  0 -0.453517 43.938499 -3.813849 0.041073 -0.308630 -0.950295 0.815857 0.163320 1 0 1.000000
  0 3.225645 44.437576 -3.816917 0.025532 -0.395410 -0.918150 0.816884 0.002876 1 0 1.000000
  0 2.419908 43.323551 -3.274233 0.063542 -0.473822 -0.878325 0.750363 0.002056 1 0 1.000000
flesh_hand_01
  0 3.473118 45.271442 -4.342866 -0.005698 -0.555903 -0.831227 0.998201 0.006092 1 0 1.000000
  0 3.225645 44.437576 -3.816917 0.025532 -0.395410 -0.918150 0.816884 0.002876 1 0 1.000000
  0 -0.599258 45.809734 -4.708359 -0.005698 -0.555903 -0.831227 0.992991 0.121694 1 0 1.000000
flesh_hand_01
  0 -0.599258 45.809734 -4.708359 -0.005698 -0.555903 -0.831227 0.992991 0.121694 1 0 1.000000
  0 3.225645 44.437576 -3.816917 0.025532 -0.395410 -0.918150 0.816884 0.002876 1 0 1.000000
  0 -0.697366 44.678272 -3.917580 0.005930 -0.353751 -0.935321 0.904854 0.122299 1 0 1.000000
flesh_hand_01
  0 -0.697366 44.678272 -3.917580 0.005930 -0.353751 -0.935321 0.904854 0.122299 1 0 1.000000
  0 3.225645 44.437576 -3.816917 0.025532 -0.395410 -0.918150 0.816884 0.002876 1 0 1.000000
  0 -0.453517 43.938499 -3.813849 0.041073 -0.308630 -0.950295 0.815857 0.122911 1 0 1.000000
flesh_hand_01
  0 7.489890 46.349480 -1.457846 0.533561 -0.096842 -0.840199 0.992991 0.121694 1 0 1.000000
  0 7.101052 44.717922 -1.516719 0.512748 -0.288842 -0.808492 0.904854 0.122299 1 0 1.000000
  0 4.880434 45.891567 -3.062172 0.504235 -0.162725 -0.848096 0.998201 0.006092 1 0 1.000000
flesh_hand_01
  0 7.101052 44.717922 -1.516719 0.512748 -0.288842 -0.808492 0.904854 0.122299 1 0 1.000000
  0 4.628901 43.836452 -2.652006 0.494693 -0.382051 -0.780587 0.816884 0.002876 1 0 1.000000
  0 4.880434 45.891567 -3.062172 0.504235 -0.162725 -0.848096 0.998201 0.006092 1 0 1.000000
flesh_hand_01
  0 7.101052 44.717922 -1.516719 0.512748 -0.288842 -0.808492 0.904854 0.122299 1 0 1.000000
  0 6.237245 43.135338 -0.938747 0.502614 -0.525139 -0.686737 0.815857 0.122911 1 0 1.000000
  0 4.628901 43.836452 -2.652006 0.494693 -0.382051 -0.780587 0.816884 0.002876 1 0 1.000000
flesh_hand_01
  0 5.104800 46.406021 4.553335 0.639365 -0.529279 0.557743 0.608972 0.934274 1 0 1.000000
  0 4.585037 45.273937 4.160985 0.655740 -0.357535 0.664961 0.607822 0.887128 1 0 1.000000
  0 5.934456 46.400917 1.525378 0.952564 -0.301509 -0.041394 0.714152 0.931788 1 0 1.000000
flesh_hand_01
  0 5.104800 46.406021 4.553335 0.639365 -0.529279 0.557743 0.608972 0.934274 1 0 1.000000
  0 -0.047401 45.675816 6.357299 -0.029051 -0.680310 0.732348 0.474044 0.934522 1 0 1.000000
  0 4.585037 45.273937 4.160985 0.655740 -0.357535 0.664961 0.607822 0.887128 1 0 1.000000
flesh_hand_01
  0 -6.736105 47.074043 1.846411 -0.784187 -0.619820 0.029573 0.264372 0.936798 1 0 1.000000
  0 -5.525151 46.003616 -0.748063 -0.977792 -0.163563 -0.131030 0.187435 0.879626 1 0 1.000000
  0 -4.402100 45.586052 3.615309 -0.684293 -0.541525 0.488358 0.340801 0.878648 1 0 1.000000
flesh_hand_01
  0 -4.402100 45.586052 3.615309 -0.684293 -0.541525 0.488358 0.340801 0.878648 1 0 1.000000
  0 -5.389731 47.255402 4.864918 -0.532394 -0.694854 0.483461 0.347666 0.937840 1 0 1.000000
  0 -6.736105 47.074043 1.846411 -0.784187 -0.619820 0.029573 0.264372 0.936798 1 0 1.000000
flesh_hand_01
  0 -5.389731 47.255402 4.864918 -0.532394 -0.694854 0.483461 0.347666 0.937840 1 0 1.000000
  0 -4.402100 45.586052 3.615309 -0.684293 -0.541525 0.488358 0.340801 0.878648 1 0 1.000000
  0 -0.047401 45.675816 6.357299 -0.029051 -0.680310 0.732348 0.474044 0.934522 1 0 1.000000
flesh_hand_01
  0 -0.047401 45.675816 6.357299 -0.029051 -0.680310 0.732348 0.474044 0.934522 1 0 1.000000
  0 -4.402100 45.586052 3.615309 -0.684293 -0.541525 0.488358 0.340801 0.878648 1 0 1.000000
  0 0.053200 45.110592 5.662825 -0.052045 -0.383581 0.922039 0.468487 0.880451 1 0 1.000000
flesh_hand_01
  0 4.585037 45.273937 4.160985 0.655740 -0.357535 0.664961 0.607822 0.887128 1 0 1.000000
  0 -0.047401 45.675816 6.357299 -0.029051 -0.680310 0.732348 0.474044 0.934522 1 0 1.000000
  0 0.053200 45.110592 5.662825 -0.052045 -0.383581 0.922039 0.468487 0.880451 1 0 1.000000
flesh_hand_01
  0 0.053200 45.110592 5.662825 -0.052045 -0.383581 0.922039 0.468487 0.880451 1 0 1.000000
  0 4.481972 42.627602 3.375187 0.577846 -0.123181 0.806796 0.611874 0.796673 1 0 1.000000
  0 4.585037 45.273937 4.160985 0.655740 -0.357535 0.664961 0.607822 0.887128 1 0 1.000000
flesh_hand_01
  0 4.585037 45.273937 4.160985 0.655740 -0.357535 0.664961 0.607822 0.887128 1 0 1.000000
  0 4.481972 42.627602 3.375187 0.577846 -0.123181 0.806796 0.611874 0.796673 1 0 1.000000
  0 5.705248 45.550583 1.293747 0.995936 -0.087479 -0.021426 0.716031 0.881913 1 0 1.000000
flesh_hand_01
  0 5.934456 46.400917 1.525378 0.952564 -0.301509 -0.041394 0.714152 0.931788 1 0 1.000000
  0 4.585037 45.273937 4.160985 0.655740 -0.357535 0.664961 0.607822 0.887128 1 0 1.000000
  0 5.705248 45.550583 1.293747 0.995936 -0.087479 -0.021426 0.716031 0.881913 1 0 1.000000
flesh_hand_01
  0 5.705248 45.550583 1.293747 0.995936 -0.087479 -0.021426 0.716031 0.881913 1 0 1.000000
  0 5.297334 49.197617 -1.423846 0.735671 -0.184966 -0.651595 0.825010 0.933990 1 0 1.000000
  0 5.934456 46.400917 1.525378 0.952564 -0.301509 -0.041394 0.714152 0.931788 1 0 1.000000
flesh_hand_01
  0 0.053200 45.110592 5.662825 -0.052045 -0.383581 0.922039 0.468487 0.880451 1 0 1.000000
  0 -0.289134 42.476768 5.164865 0.024155 -0.115298 0.993037 0.470255 0.784286 1 0 1.000000
  0 4.481972 42.627602 3.375187 0.577846 -0.123181 0.806796 0.611874 0.796673 1 0 1.000000
flesh_hand_01
  0 0.053200 45.110592 5.662825 -0.052045 -0.383581 0.922039 0.468487 0.880451 1 0 1.000000
  0 -4.487596 43.089447 3.056494 -0.753331 -0.059473 0.654947 0.339086 0.783173 1 0 1.000000
  0 -0.289134 42.476768 5.164865 0.024155 -0.115298 0.993037 0.470255 0.784286 1 0 1.000000
flesh_hand_01
  0 0.053200 45.110592 5.662825 -0.052045 -0.383581 0.922039 0.468487 0.880451 1 0 1.000000
  0 -4.402100 45.586052 3.615309 -0.684293 -0.541525 0.488358 0.340801 0.878648 1 0 1.000000
  0 -4.487596 43.089447 3.056494 -0.753331 -0.059473 0.654947 0.339086 0.783173 1 0 1.000000
flesh_hand_01
  0 -4.402100 45.586052 3.615309 -0.684293 -0.541525 0.488358 0.340801 0.878648 1 0 1.000000
  0 -5.525151 46.003616 -0.748063 -0.977792 -0.163563 -0.131030 0.187435 0.879626 1 0 1.000000
  0 -4.487596 43.089447 3.056494 -0.753331 -0.059473 0.654947 0.339086 0.783173 1 0 1.000000
flesh_hand_01
  0 -5.525151 46.003616 -0.748063 -0.977792 -0.163563 -0.131030 0.187435 0.879626 1 0 1.000000
  0 -6.210920 43.608917 -1.094779 -0.986594 0.157855 -0.041390 0.190416 0.781673 1 0 1.000000
  0 -4.487596 43.089447 3.056494 -0.753331 -0.059473 0.654947 0.339086 0.783173 1 0 1.000000
flesh_hand_01
  0 -6.210920 43.608917 -1.094779 -0.986594 0.157855 -0.041390 0.190416 0.781673 1 0 1.000000
  0 -5.525151 46.003616 -0.748063 -0.977792 -0.163563 -0.131030 0.187435 0.879626 1 0 1.000000
  0 -4.399838 46.595085 -2.435826 -0.733251 0.093982 -0.673431 0.115152 0.877021 1 0 1.000000
flesh_hand_01
  0 -5.986090 43.579926 -2.033405 -0.852549 0.100452 -0.512903 0.152350 0.781410 1 0 1.000000
  0 -6.210920 43.608917 -1.094779 -0.986594 0.157855 -0.041390 0.190416 0.781673 1 0 1.000000
  0 -4.399838 46.595085 -2.435826 -0.733251 0.093982 -0.673431 0.115152 0.877021 1 0 1.000000
flesh_hand_01
  0 -5.160900 43.880802 -2.765146 -0.557752 0.004592 -0.829995 0.116078 0.781159 1 0 1.000000
  0 -5.986090 43.579926 -2.033405 -0.852549 0.100452 -0.512903 0.152350 0.781410 1 0 1.000000
  0 -4.399838 46.595085 -2.435826 -0.733251 0.093982 -0.673431 0.115152 0.877021 1 0 1.000000
flesh_hand_01
  0 -5.817619 41.163254 -1.483468 -0.871452 -0.188104 -0.452977 0.191906 0.732696 1 0 1.000000
  0 -5.986090 43.579926 -2.033405 -0.852549 0.100452 -0.512903 0.152350 0.781410 1 0 1.000000
  0 -5.160900 43.880802 -2.765146 -0.557752 0.004592 -0.829995 0.116078 0.781159 1 0 1.000000
flesh_hand_01
  0 -5.817619 41.163254 -1.483468 -0.871452 -0.188104 -0.452977 0.191906 0.732696 1 0 1.000000
  0 -6.210920 43.608917 -1.094779 -0.986594 0.157855 -0.041390 0.190416 0.781673 1 0 1.000000
  0 -5.986090 43.579926 -2.033405 -0.852549 0.100452 -0.512903 0.152350 0.781410 1 0 1.000000
flesh_hand_01
  0 -4.679579 40.798504 2.657428 -0.772315 -0.132826 0.621197 0.338229 0.735435 1 0 1.000000
  0 -6.210920 43.608917 -1.094779 -0.986594 0.157855 -0.041390 0.190416 0.781673 1 0 1.000000
  0 -5.817619 41.163254 -1.483468 -0.871452 -0.188104 -0.452977 0.191906 0.732696 1 0 1.000000
flesh_hand_01
  0 -4.487596 43.089447 3.056494 -0.753331 -0.059473 0.654947 0.339086 0.783173 1 0 1.000000
  0 -6.210920 43.608917 -1.094779 -0.986594 0.157855 -0.041390 0.190416 0.781673 1 0 1.000000
  0 -4.679579 40.798504 2.657428 -0.772315 -0.132826 0.621197 0.338229 0.735435 1 0 1.000000
flesh_hand_01
  0 -0.213379 40.995399 4.984724 -0.071962 -0.153216 0.985569 0.471140 0.736204 1 0 1.000000
  0 -4.487596 43.089447 3.056494 -0.753331 -0.059473 0.654947 0.339086 0.783173 1 0 1.000000
  0 -4.679579 40.798504 2.657428 -0.772315 -0.132826 0.621197 0.338229 0.735435 1 0 1.000000
flesh_hand_01
  0 4.346377 41.432171 3.445444 0.705519 -0.104776 0.700903 0.613899 0.751446 1 0 1.000000
  0 5.614300 38.893162 0.553551 0.994973 -0.000237 0.100146 0.715577 0.684909 1 0 1.000000
  0 5.658600 41.466248 0.194282 0.953175 -0.297436 -0.054664 0.715691 0.734160 1 0 1.000000
flesh_hand_01
  0 4.346377 41.432171 3.445444 0.705519 -0.104776 0.700903 0.613899 0.751446 1 0 1.000000
  0 4.573267 38.915272 2.984846 0.678821 -0.087372 0.729087 0.615925 0.706219 1 0 1.000000
  0 5.614300 38.893162 0.553551 0.994973 -0.000237 0.100146 0.715577 0.684909 1 0 1.000000
flesh_hand_01
  0 4.346377 41.432171 3.445444 0.705519 -0.104776 0.700903 0.613899 0.751446 1 0 1.000000
  0 -0.213379 40.995399 4.984724 -0.071962 -0.153216 0.985569 0.471140 0.736204 1 0 1.000000
  0 4.573267 38.915272 2.984846 0.678821 -0.087372 0.729087 0.615925 0.706219 1 0 1.000000
flesh_hand_01
  0 4.573267 38.915272 2.984846 0.678821 -0.087372 0.729087 0.615925 0.706219 1 0 1.000000
  0 -0.213379 40.995399 4.984724 -0.071962 -0.153216 0.985569 0.471140 0.736204 1 0 1.000000
  0 -0.251474 38.021698 4.382144 -0.073020 -0.187121 0.979619 0.472024 0.688121 1 0 1.000000
flesh_hand_01
  0 -0.213379 40.995399 4.984724 -0.071962 -0.153216 0.985569 0.471140 0.736204 1 0 1.000000
  0 -4.679579 40.798504 2.657428 -0.772315 -0.132826 0.621197 0.338229 0.735435 1 0 1.000000
  0 -0.251474 38.021698 4.382144 -0.073020 -0.187121 0.979619 0.472024 0.688121 1 0 1.000000
flesh_hand_01
  0 -0.251474 38.021698 4.382144 -0.073020 -0.187121 0.979619 0.472024 0.688121 1 0 1.000000
  0 -4.679579 40.798504 2.657428 -0.772315 -0.132826 0.621197 0.338229 0.735435 1 0 1.000000
  0 -4.761590 37.757175 1.991266 -0.788921 -0.150665 0.595737 0.337371 0.687698 1 0 1.000000
flesh_hand_01
  0 -4.761590 37.757175 1.991266 -0.788921 -0.150665 0.595737 0.337371 0.687698 1 0 1.000000
  0 -4.679579 40.798504 2.657428 -0.772315 -0.132826 0.621197 0.338229 0.735435 1 0 1.000000
  0 -5.192351 37.810188 -1.257759 -0.881122 -0.199947 -0.428539 0.193397 0.683719 1 0 1.000000
flesh_hand_01
  0 -5.192351 37.810188 -1.257759 -0.881122 -0.199947 -0.428539 0.193397 0.683719 1 0 1.000000
  0 -4.679579 40.798504 2.657428 -0.772315 -0.132826 0.621197 0.338229 0.735435 1 0 1.000000
  0 -5.817619 41.163254 -1.483468 -0.871452 -0.188104 -0.452977 0.191906 0.732696 1 0 1.000000
flesh_hand_01
  0 -5.817619 41.163254 -1.483468 -0.871452 -0.188104 -0.452977 0.191906 0.732696 1 0 1.000000
  0 -1.866079 39.421780 -2.937083 -0.173550 -0.212141 -0.961705 0.040611 0.686876 1 0 1.000000
  0 -5.192351 37.810188 -1.257759 -0.881122 -0.199947 -0.428539 0.193397 0.683719 1 0 1.000000
flesh_hand_01
  0 -2.121207 42.487797 -3.894841 -0.164704 -0.171108 -0.971388 0.041175 0.733761 1 0 1.000000
  0 -1.866079 39.421780 -2.937083 -0.173550 -0.212141 -0.961705 0.040611 0.686876 1 0 1.000000
  0 -5.817619 41.163254 -1.483468 -0.871452 -0.188104 -0.452977 0.191906 0.732696 1 0 1.000000
flesh_hand_01
  0 -5.160900 43.880802 -2.765146 -0.557752 0.004592 -0.829995 0.116078 0.781159 1 0 1.000000
  0 -2.121207 42.487797 -3.894841 -0.164704 -0.171108 -0.971388 0.041175 0.733761 1 0 1.000000
  0 -5.817619 41.163254 -1.483468 -0.871452 -0.188104 -0.452977 0.191906 0.732696 1 0 1.000000
flesh_hand_01
  0 -2.229664 44.521626 -3.875668 -0.097585 0.037844 -0.994507 0.041740 0.780646 1 0 1.000000
  0 -2.121207 42.487797 -3.894841 -0.164704 -0.171108 -0.971388 0.041175 0.733761 1 0 1.000000
  0 -5.160900 43.880802 -2.765146 -0.557752 0.004592 -0.829995 0.116078 0.781159 1 0 1.000000
flesh_hand_01
  0 -4.399838 46.595085 -2.435826 -0.733251 0.093982 -0.673431 0.115152 0.877021 1 0 1.000000
  0 -2.229664 44.521626 -3.875668 -0.097585 0.037844 -0.994507 0.041740 0.780646 1 0 1.000000
  0 -5.160900 43.880802 -2.765146 -0.557752 0.004592 -0.829995 0.116078 0.781159 1 0 1.000000
flesh_hand_01
  0 -2.382335 47.205059 -3.608493 -0.128076 -0.052550 -0.990371 0.042868 0.874416 1 0 1.000000
  0 -2.229664 44.521626 -3.875668 -0.097585 0.037844 -0.994507 0.041740 0.780646 1 0 1.000000
  0 -4.399838 46.595085 -2.435826 -0.733251 0.093982 -0.673431 0.115152 0.877021 1 0 1.000000
flesh_hand_01
  0 -2.382335 47.205059 -3.608493 -0.128076 -0.052550 -0.990371 0.042868 0.874416 1 0 1.000000
  0 -4.399838 46.595085 -2.435826 -0.733251 0.093982 -0.673431 0.115152 0.877021 1 0 1.000000
  0 -2.871801 48.818363 -3.991356 -0.344920 -0.155374 -0.925683 0.041986 0.946097 1 0 1.000000
flesh_hand_01
  0 -4.399838 46.595085 -2.435826 -0.733251 0.093982 -0.673431 0.115152 0.877021 1 0 1.000000
  0 -5.749634 47.144047 -0.950741 -0.821935 -0.158353 -0.547127 0.189073 0.935857 1 0 1.000000
  0 -2.871801 48.818363 -3.991356 -0.344920 -0.155374 -0.925683 0.041986 0.946097 1 0 1.000000
flesh_hand_01
  0 -4.399838 46.595085 -2.435826 -0.733251 0.093982 -0.673431 0.115152 0.877021 1 0 1.000000
  0 -5.525151 46.003616 -0.748063 -0.977792 -0.163563 -0.131030 0.187435 0.879626 1 0 1.000000
  0 -5.749634 47.144047 -0.950741 -0.821935 -0.158353 -0.547127 0.189073 0.935857 1 0 1.000000
flesh_hand_01
  0 -6.736105 47.074043 1.846411 -0.784187 -0.619820 0.029573 0.264372 0.936798 1 0 1.000000
  0 -5.749634 47.144047 -0.950741 -0.821935 -0.158353 -0.547127 0.189073 0.935857 1 0 1.000000
  0 -5.525151 46.003616 -0.748063 -0.977792 -0.163563 -0.131030 0.187435 0.879626 1 0 1.000000
flesh_hand_01
  0 -0.289134 42.476768 5.164865 0.024155 -0.115298 0.993037 0.470255 0.784286 1 0 1.000000
  0 -4.487596 43.089447 3.056494 -0.753331 -0.059473 0.654947 0.339086 0.783173 1 0 1.000000
  0 -0.213379 40.995399 4.984724 -0.071962 -0.153216 0.985569 0.471140 0.736204 1 0 1.000000
flesh_hand_01
  0 -0.289134 42.476768 5.164865 0.024155 -0.115298 0.993037 0.470255 0.784286 1 0 1.000000
  0 -0.213379 40.995399 4.984724 -0.071962 -0.153216 0.985569 0.471140 0.736204 1 0 1.000000
  0 4.346377 41.432171 3.445444 0.705519 -0.104776 0.700903 0.613899 0.751446 1 0 1.000000
flesh_hand_01
  0 -0.289134 42.476768 5.164865 0.024155 -0.115298 0.993037 0.470255 0.784286 1 0 1.000000
  0 4.346377 41.432171 3.445444 0.705519 -0.104776 0.700903 0.613899 0.751446 1 0 1.000000
  0 4.481972 42.627602 3.375187 0.577846 -0.123181 0.806796 0.611874 0.796673 1 0 1.000000
flesh_hand_01
  0 4.481972 42.627602 3.375187 0.577846 -0.123181 0.806796 0.611874 0.796673 1 0 1.000000
  0 4.346377 41.432171 3.445444 0.705519 -0.104776 0.700903 0.613899 0.751446 1 0 1.000000
  0 6.281602 43.304779 0.829832 0.931012 -0.080553 0.355989 0.715804 0.783411 1 0 1.000000
flesh_hand_01
  0 5.705248 45.550583 1.293747 0.995936 -0.087479 -0.021426 0.716031 0.881913 1 0 1.000000
  0 4.481972 42.627602 3.375187 0.577846 -0.123181 0.806796 0.611874 0.796673 1 0 1.000000
  0 6.281602 43.304779 0.829832 0.931012 -0.080553 0.355989 0.715804 0.783411 1 0 1.000000
flesh_hand_01
  0 6.281602 43.304779 0.829832 0.931012 -0.080553 0.355989 0.715804 0.783411 1 0 1.000000
  0 4.915398 45.933350 -0.410548 0.847715 0.327879 -0.416982 0.773712 0.881296 1 0 1.000000
  0 5.705248 45.550583 1.293747 0.995936 -0.087479 -0.021426 0.716031 0.881913 1 0 1.000000
flesh_hand_01
  0 5.705248 45.550583 1.293747 0.995936 -0.087479 -0.021426 0.716031 0.881913 1 0 1.000000
  0 4.915398 45.933350 -0.410548 0.847715 0.327879 -0.416982 0.773712 0.881296 1 0 1.000000
  0 5.297334 49.197617 -1.423846 0.735671 -0.184966 -0.651595 0.825010 0.933990 1 0 1.000000
flesh_hand_01
  0 5.297334 49.197617 -1.423846 0.735671 -0.184966 -0.651595 0.825010 0.933990 1 0 1.000000
  0 4.915398 45.933350 -0.410548 0.847715 0.327879 -0.416982 0.773712 0.881296 1 0 1.000000
  0 3.579025 46.330280 -1.841433 0.625865 0.207176 -0.751912 0.831392 0.880678 1 0 1.000000
flesh_hand_01
  0 3.579025 46.330280 -1.841433 0.625865 0.207176 -0.751912 0.831392 0.880678 1 0 1.000000
  0 1.417086 49.120853 -3.075078 0.299008 -0.112555 -0.947589 0.896219 0.939299 1 0 1.000000
  0 5.297334 49.197617 -1.423846 0.735671 -0.184966 -0.651595 0.825010 0.933990 1 0 1.000000
flesh_hand_01
  0 1.341156 47.444504 -2.946180 0.304478 0.118798 -0.945082 0.893167 0.878226 1 0 1.000000
  0 1.417086 49.120853 -3.075078 0.299008 -0.112555 -0.947589 0.896219 0.939299 1 0 1.000000
  0 3.579025 46.330280 -1.841433 0.625865 0.207176 -0.751912 0.831392 0.880678 1 0 1.000000
flesh_hand_01
  0 1.341156 47.444504 -2.946180 0.304478 0.118798 -0.945082 0.893167 0.878226 1 0 1.000000
  0 -2.382335 47.205059 -3.608493 -0.128076 -0.052550 -0.990371 0.974944 0.874979 1 0 1.000000
  0 1.417086 49.120853 -3.075078 0.299008 -0.112555 -0.947589 0.896219 0.939299 1 0 1.000000
flesh_hand_01
  0 -2.382335 47.205059 -3.608493 -0.128076 -0.052550 -0.990371 0.974944 0.874979 1 0 1.000000
  0 1.341156 47.444504 -2.946180 0.304478 0.118798 -0.945082 0.893167 0.878226 1 0 1.000000
  0 -2.229664 44.521626 -3.875668 -0.097585 0.037844 -0.994507 0.971743 0.780083 1 0 1.000000
flesh_hand_01
  0 1.341156 47.444504 -2.946180 0.304478 0.118798 -0.945082 0.893167 0.878226 1 0 1.000000
  0 4.086555 43.974812 -3.245319 0.442608 0.167486 -0.880935 0.828726 0.782547 1 0 1.000000
  0 -2.229664 44.521626 -3.875668 -0.097585 0.037844 -0.994507 0.971743 0.780083 1 0 1.000000
flesh_hand_01
  0 3.764631 42.456913 -3.034986 0.459443 -0.222709 -0.859833 0.827393 0.733482 1 0 1.000000
  0 -2.229664 44.521626 -3.875668 -0.097585 0.037844 -0.994507 0.971743 0.780083 1 0 1.000000
  0 4.086555 43.974812 -3.245319 0.442608 0.167486 -0.880935 0.828726 0.782547 1 0 1.000000
flesh_hand_01
  0 6.944788 43.918064 -1.268082 0.948908 0.076252 -0.306202 0.772265 0.782979 1 0 1.000000
  0 3.764631 42.456913 -3.034986 0.459443 -0.222709 -0.859833 0.827393 0.733482 1 0 1.000000
  0 4.086555 43.974812 -3.245319 0.442608 0.167486 -0.880935 0.828726 0.782547 1 0 1.000000
flesh_hand_01
  0 5.658600 41.466248 0.194282 0.953175 -0.297436 -0.054664 0.715691 0.734160 1 0 1.000000
  0 3.764631 42.456913 -3.034986 0.459443 -0.222709 -0.859833 0.827393 0.733482 1 0 1.000000
  0 6.944788 43.918064 -1.268082 0.948908 0.076252 -0.306202 0.772265 0.782979 1 0 1.000000
flesh_hand_01
  0 6.944788 43.918064 -1.268082 0.948908 0.076252 -0.306202 0.772265 0.782979 1 0 1.000000
  0 6.281602 43.304779 0.829832 0.931012 -0.080553 0.355989 0.715804 0.783411 1 0 1.000000
  0 5.658600 41.466248 0.194282 0.953175 -0.297436 -0.054664 0.715691 0.734160 1 0 1.000000
flesh_hand_01
  0 4.346377 41.432171 3.445444 0.705519 -0.104776 0.700903 0.613899 0.751446 1 0 1.000000
  0 5.658600 41.466248 0.194282 0.953175 -0.297436 -0.054664 0.715691 0.734160 1 0 1.000000
  0 6.281602 43.304779 0.829832 0.931012 -0.080553 0.355989 0.715804 0.783411 1 0 1.000000
flesh_hand_01
  0 6.944788 43.918064 -1.268082 0.948908 0.076252 -0.306202 0.772265 0.782979 1 0 1.000000
  0 4.915398 45.933350 -0.410548 0.847715 0.327879 -0.416982 0.773712 0.881296 1 0 1.000000
  0 6.281602 43.304779 0.829832 0.931012 -0.080553 0.355989 0.715804 0.783411 1 0 1.000000
flesh_hand_01
  0 6.944788 43.918064 -1.268082 0.948908 0.076252 -0.306202 0.772265 0.782979 1 0 1.000000
  0 4.086555 43.974812 -3.245319 0.442608 0.167486 -0.880935 0.828726 0.782547 1 0 1.000000
  0 4.915398 45.933350 -0.410548 0.847715 0.327879 -0.416982 0.773712 0.881296 1 0 1.000000
flesh_hand_01
  0 4.915398 45.933350 -0.410548 0.847715 0.327879 -0.416982 0.773712 0.881296 1 0 1.000000
  0 4.086555 43.974812 -3.245319 0.442608 0.167486 -0.880935 0.828726 0.782547 1 0 1.000000
  0 3.579025 46.330280 -1.841433 0.625865 0.207176 -0.751912 0.831392 0.880678 1 0 1.000000
flesh_hand_01
  0 1.341156 47.444504 -2.946180 0.304478 0.118798 -0.945082 0.893167 0.878226 1 0 1.000000
  0 3.579025 46.330280 -1.841433 0.625865 0.207176 -0.751912 0.831392 0.880678 1 0 1.000000
  0 4.086555 43.974812 -3.245319 0.442608 0.167486 -0.880935 0.828726 0.782547 1 0 1.000000
flesh_hand_01
  0 1.417086 49.120853 -3.075078 0.299008 -0.112555 -0.947589 0.896219 0.939299 1 0 1.000000
  0 -2.382335 47.205059 -3.608493 -0.128076 -0.052550 -0.990371 0.974944 0.874979 1 0 1.000000
  0 -2.871801 48.818363 -3.991356 -0.344920 -0.155374 -0.925683 0.972753 0.945005 1 0 1.000000
flesh_hand_01
  0 3.879583 38.935963 -2.681331 0.538367 -0.134296 -0.831941 0.826060 0.684416 1 0 1.000000
  0 5.658600 41.466248 0.194282 0.953175 -0.297436 -0.054664 0.715691 0.734160 1 0 1.000000
  0 5.614300 38.893162 0.553551 0.994973 -0.000237 0.100146 0.715577 0.684909 1 0 1.000000
flesh_hand_01
  0 3.764631 42.456913 -3.034986 0.459443 -0.222709 -0.859833 0.827393 0.733482 1 0 1.000000
  0 5.658600 41.466248 0.194282 0.953175 -0.297436 -0.054664 0.715691 0.734160 1 0 1.000000
  0 3.879583 38.935963 -2.681331 0.538367 -0.134296 -0.831941 0.826060 0.684416 1 0 1.000000
flesh_hand_01
  0 -1.866079 39.421780 -2.937083 -0.173550 -0.212141 -0.961705 0.968542 0.685186 1 0 1.000000
  0 3.764631 42.456913 -3.034986 0.459443 -0.222709 -0.859833 0.827393 0.733482 1 0 1.000000
  0 3.879583 38.935963 -2.681331 0.538367 -0.134296 -0.831941 0.826060 0.684416 1 0 1.000000
flesh_hand_01
  0 -2.121207 42.487797 -3.894841 -0.164704 -0.171108 -0.971388 0.970142 0.732634 1 0 1.000000
  0 3.764631 42.456913 -3.034986 0.459443 -0.222709 -0.859833 0.827393 0.733482 1 0 1.000000
  0 -1.866079 39.421780 -2.937083 -0.173550 -0.212141 -0.961705 0.968542 0.685186 1 0 1.000000
flesh_hand_01
  0 -2.121207 42.487797 -3.894841 -0.164704 -0.171108 -0.971388 0.970142 0.732634 1 0 1.000000
  0 -2.229664 44.521626 -3.875668 -0.097585 0.037844 -0.994507 0.971743 0.780083 1 0 1.000000
  0 3.764631 42.456913 -3.034986 0.459443 -0.222709 -0.859833 0.827393 0.733482 1 0 1.000000
flesh_hand_01
  0 -5.630014 49.623974 -1.091640 -0.772053 -0.221189 -0.595826 0.869806 0.129743 1 0 1.000000
  0 -4.624814 46.222309 -0.836792 -0.864883 -0.338885 -0.370316 0.687547 0.163929 1 0 1.000000
  0 -5.965622 49.018429 -0.264091 -0.947235 -0.288018 -0.140681 0.835145 0.069680 1 0 1.000000
flesh_hand_01
  0 -4.624814 46.222309 -0.836792 -0.864883 -0.338885 -0.370316 0.687547 0.163929 1 0 1.000000
  0 -4.980020 46.005959 1.176770 -0.958874 -0.264616 0.102660 0.694612 0.032273 1 0 1.000000
  0 -5.965622 49.018429 -0.264091 -0.947235 -0.288018 -0.140681 0.835145 0.069680 1 0 1.000000
flesh_hand_01
  0 -4.980020 46.005959 1.176770 -0.958874 -0.264616 0.102660 0.694612 0.032273 1 0 1.000000
  0 -5.322586 48.902222 1.191250 -0.895291 -0.227088 0.383256 0.822610 0.032289 1 0 1.000000
  0 -5.965622 49.018429 -0.264091 -0.947235 -0.288018 -0.140681 0.835145 0.069680 1 0 1.000000
flesh_hand_01
  0 -3.102837 46.411678 -1.690391 0.633590 0.172676 0.754153 0.694612 0.032273 1 0 1.000000
  0 -3.278120 47.881611 -1.585075 0.774617 0.058136 0.629753 0.822610 0.032289 1 0 1.000000
  0 -4.143813 48.553757 -0.565880 0.290273 0.093961 0.952320 0.835145 0.069680 1 0 1.000000
flesh_hand_01
  0 -5.821678 48.199043 -1.660045 -0.543533 0.171373 0.821708 0.869806 0.129743 1 0 1.000000
  0 -5.157565 45.664436 -0.082988 0.188279 0.314162 0.930512 0.687547 0.163929 1 0 1.000000
  0 -4.143813 48.553757 -0.565880 0.290273 0.093961 0.952320 0.835145 0.069680 1 0 1.000000
flesh_hand_01
  0 -5.157565 45.664436 -0.082988 0.188279 0.314162 0.930512 0.687547 0.163929 1 0 1.000000
  0 -3.102837 46.411678 -1.690391 0.633590 0.172676 0.754153 0.694612 0.032273 1 0 1.000000
  0 -4.143813 48.553757 -0.565880 0.290273 0.093961 0.952320 0.835145 0.069680 1 0 1.000000
flesh_hand_01
  0 -5.157565 45.664436 -0.082988 0.188279 0.314162 0.930512 0.687547 0.163929 1 0 1.000000
  0 -3.532233 45.078720 -0.508638 0.389564 0.537536 0.747860 0.687014 0.082598 1 0 1.000000
  0 -3.102837 46.411678 -1.690391 0.633590 0.172676 0.754153 0.694612 0.032273 1 0 1.000000
flesh_hand_01
  0 -5.254108 46.899879 0.663323 -0.840981 -0.527477 -0.120494 0.869806 0.129743 1 0 1.000000
  0 -4.278044 44.947475 1.634995 -0.818396 -0.533406 0.213789 0.687547 0.163929 1 0 1.000000
  0 -5.327717 46.726448 2.055337 -0.804356 -0.246191 0.540741 0.835145 0.069680 1 0 1.000000
flesh_hand_01
  0 -4.278044 44.947475 1.634995 -0.818396 -0.533406 0.213789 0.687547 0.163929 1 0 1.000000
  0 -3.330190 45.696415 3.666112 -0.615882 0.036349 0.787000 0.685842 0.036252 1 0 1.000000
  0 -5.327717 46.726448 2.055337 -0.804356 -0.246191 0.540741 0.835145 0.069680 1 0 1.000000
flesh_hand_01
  0 -3.330190 45.696415 3.666112 -0.615882 0.036349 0.787000 0.685842 0.036252 1 0 1.000000
  0 -3.310997 47.042511 2.634588 -0.302659 0.350106 0.886467 0.805895 0.035328 1 0 1.000000
  0 -5.327717 46.726448 2.055337 -0.804356 -0.246191 0.540741 0.835145 0.069680 1 0 1.000000
flesh_hand_01
  0 -4.723038 45.119602 1.623336 -0.929695 0.347191 -0.122986 0.694612 0.032273 1 0 1.000000
  0 -4.394098 47.053349 1.495242 -0.911739 -0.083815 0.402127 0.822610 0.032289 1 0 1.000000
  0 -5.037134 47.169556 0.039901 -0.862567 -0.224978 -0.453169 0.835145 0.069680 1 0 1.000000
flesh_hand_01
  0 -3.512489 47.775105 -0.534659 -0.316338 -0.071902 -0.945918 0.869806 0.129743 1 0 1.000000
  0 -3.132756 45.093060 -0.532800 -0.589863 0.211098 -0.779422 0.687547 0.163929 1 0 1.000000
  0 -5.037134 47.169556 0.039901 -0.862567 -0.224978 -0.453169 0.835145 0.069680 1 0 1.000000
flesh_hand_01
  0 -3.132756 45.093060 -0.532800 -0.589863 0.211098 -0.779422 0.687547 0.163929 1 0 1.000000
  0 -4.723038 45.119602 1.623336 -0.929695 0.347191 -0.122986 0.694612 0.032273 1 0 1.000000
  0 -5.037134 47.169556 0.039901 -0.862567 -0.224978 -0.453169 0.835145 0.069680 1 0 1.000000
flesh_hand_01
  0 -3.132756 45.093060 -0.532800 -0.589863 0.211098 -0.779422 0.687547 0.163929 1 0 1.000000
  0 -4.661808 44.960861 0.374036 -0.162951 0.977734 -0.132226 0.687014 0.082598 1 0 1.000000
  0 -4.723038 45.119602 1.623336 -0.929695 0.347191 -0.122986 0.694612 0.032273 1 0 1.000000
flesh_hand_01
  0 2.190062 48.023975 0.091592 0.386519 0.197932 0.900792 0.815857 0.163320 1 0 1.000000
  0 2.142051 46.011684 0.939351 0.614598 0.050368 0.787231 0.687547 0.163929 1 0 1.000000
  0 3.870015 47.341766 -0.494789 0.767878 -0.053664 0.638345 0.783110 0.082688 1 0 1.000000
flesh_hand_01
  0 2.142051 46.011684 0.939351 0.614598 0.050368 0.787231 0.687547 0.163929 1 0 1.000000
  0 3.830441 45.584053 -1.124997 0.850572 -0.194342 0.488630 0.686482 0.001268 1 0 1.000000
  0 3.870015 47.341766 -0.494789 0.767878 -0.053664 0.638345 0.783110 0.082688 1 0 1.000000
flesh_hand_01
  0 3.830441 45.584053 -1.124997 0.850572 -0.194342 0.488630 0.686482 0.001268 1 0 1.000000
  0 4.161961 46.876484 -1.570979 0.960569 -0.191844 0.201255 0.750363 0.002056 1 0 1.000000
  0 3.870015 47.341766 -0.494789 0.767878 -0.053664 0.638345 0.783110 0.082688 1 0 1.000000
flesh_hand_01
  0 6.657770 45.849648 3.060306 0.907590 -0.354547 0.224894 0.992991 0.121694 1 0 1.000000
  0 6.119509 44.311966 2.808359 0.840262 -0.495105 0.220976 0.904854 0.122299 1 0 1.000000
  0 6.992247 44.832638 0.107158 0.882738 -0.423472 0.203580 0.998201 0.006092 1 0 1.000000
flesh_hand_01
  0 6.119509 44.311966 2.808359 0.840262 -0.495105 0.220976 0.904854 0.122299 1 0 1.000000
  0 5.978147 43.094379 0.179750 0.798747 -0.561178 0.216985 0.816884 0.002876 1 0 1.000000
  0 6.992247 44.832638 0.107158 0.882738 -0.423472 0.203580 0.998201 0.006092 1 0 1.000000
flesh_hand_01
  0 6.119509 44.311966 2.808359 0.840262 -0.495105 0.220976 0.904854 0.122299 1 0 1.000000
  0 5.110917 43.038433 2.588694 0.737335 -0.627215 0.250876 0.815857 0.122911 1 0 1.000000
  0 5.978147 43.094379 0.179750 0.798747 -0.561178 0.216985 0.816884 0.002876 1 0 1.000000
flesh_hand_01
  0 -3.359094 49.731922 -1.654515 0.772567 0.068673 0.631208 0.998201 0.006092 1 0 1.000000
  0 -4.143813 48.553757 -0.565880 0.290273 0.093961 0.952320 0.860869 0.062588 1 0 1.000000
  0 -3.278120 47.881611 -1.585075 0.774617 0.058136 0.629753 0.816884 0.002876 1 0 1.000000
flesh_hand_01
  0 -4.186285 50.201832 -0.725954 0.174236 0.053962 0.983224 0.995596 0.063893 1 0 1.000000
  0 -4.143813 48.553757 -0.565880 0.290273 0.093961 0.952320 0.860869 0.062588 1 0 1.000000
  0 -3.359094 49.731922 -1.654515 0.772567 0.068673 0.631208 0.998201 0.006092 1 0 1.000000
flesh_hand_01
  0 -4.186285 50.201832 -0.725954 0.174236 0.053962 0.983224 0.995596 0.063893 1 0 1.000000
  0 -6.139398 49.594288 -1.759253 -0.508100 0.013235 0.861196 0.992991 0.121694 1 0 1.000000
  0 -4.143813 48.553757 -0.565880 0.290273 0.093961 0.952320 0.860869 0.062588 1 0 1.000000
flesh_hand_01
  0 -4.143813 48.553757 -0.565880 0.290273 0.093961 0.952320 0.860869 0.062588 1 0 1.000000
  0 -6.139398 49.594288 -1.759253 -0.508100 0.013235 0.861196 0.992991 0.121694 1 0 1.000000
  0 -5.821678 48.199043 -1.660045 -0.543533 0.171373 0.821708 0.904854 0.122299 1 0 1.000000
flesh_hand_01
  0 -6.404644 48.759769 -0.015515 -0.812644 -0.567095 -0.134211 0.992991 0.121694 1 0 1.000000
  0 -5.254108 46.899879 0.663323 -0.840981 -0.527477 -0.120494 0.904854 0.122299 1 0 1.000000
  0 -6.646549 48.695007 1.509385 -0.753929 -0.327780 0.569342 0.995596 0.063893 1 0 1.000000
flesh_hand_01
  0 -6.646549 48.695007 1.509385 -0.753929 -0.327780 0.569342 0.995596 0.063893 1 0 1.000000
  0 -5.254108 46.899879 0.663323 -0.840981 -0.527477 -0.120494 0.904854 0.122299 1 0 1.000000
  0 -5.327717 46.726448 2.055337 -0.804356 -0.246191 0.540741 0.860869 0.062588 1 0 1.000000
flesh_hand_01
  0 -6.646549 48.695007 1.509385 -0.753929 -0.327780 0.569342 0.995596 0.063893 1 0 1.000000
  0 -5.327717 46.726448 2.055337 -0.804356 -0.246191 0.540741 0.860869 0.062588 1 0 1.000000
  0 -4.847296 49.137882 1.957904 -0.276251 0.093684 0.956508 0.998201 0.006092 1 0 1.000000
flesh_hand_01
  0 -4.847296 49.137882 1.957904 -0.276251 0.093684 0.956508 0.998201 0.006092 1 0 1.000000
  0 -5.327717 46.726448 2.055337 -0.804356 -0.246191 0.540741 0.860869 0.062588 1 0 1.000000
  0 -3.310997 47.042511 2.634588 -0.302659 0.350106 0.886467 0.816884 0.002876 1 0 1.000000
flesh_hand_01
  0 0.048416 47.013443 0.593992 0.017773 0.982955 0.182987 0.512617 0.146647 1 0 1.000000
  0 -1.813460 47.402096 -1.312915 0.044495 0.991232 0.124414 0.574820 0.066365 1 0 1.000000
  0 -1.555318 47.069607 0.192152 0.017773 0.982955 0.182987 0.568814 0.130527 1 0 1.000000
flesh_hand_01
  0 1.385745 47.075676 -0.126111 0.044495 0.991232 0.124414 0.463059 0.117067 1 0 1.000000
  0 -1.813460 47.402096 -1.312915 0.044495 0.991232 0.124414 0.574820 0.066365 1 0 1.000000
  0 0.048416 47.013443 0.593992 0.017773 0.982955 0.182987 0.512617 0.146647 1 0 1.000000
flesh_hand_01
  0 -1.813460 47.402096 -1.312915 0.044495 0.991232 0.124414 0.574820 0.066365 1 0 1.000000
  0 1.385745 47.075676 -0.126111 0.044495 0.991232 0.124414 0.463059 0.117067 1 0 1.000000
  0 -0.494541 47.335655 -2.043056 0.071029 0.995333 0.065318 0.524884 0.036840 1 0 1.000000
flesh_hand_01
  0 -0.494541 47.335655 -2.043056 0.071029 0.995333 0.065318 0.524884 0.036840 1 0 1.000000
  0 1.385745 47.075676 -0.126111 0.044495 0.991232 0.124414 0.463059 0.117067 1 0 1.000000
  0 1.048079 47.225712 -1.736906 0.071029 0.995333 0.065318 0.470585 0.050504 1 0 1.000000
flesh_hand_01
  0 -1.903363 48.230602 -1.404724 -0.894241 -0.129040 -0.428581 0.715410 0.332590 1 0 1.000000
  0 -1.813460 47.402096 -1.312917 -0.903905 -0.008543 -0.427648 0.714844 0.300728 1 0 1.000000
  0 -1.556449 47.654518 0.349710 -0.723864 -0.157082 0.671823 0.779281 0.332575 1 0 1.000000
flesh_hand_01
  0 -1.903363 48.230602 -1.404724 -0.894241 -0.129040 -0.428581 0.715410 0.332590 1 0 1.000000
  0 -0.595982 48.165272 -2.114156 -0.130634 -0.060431 -0.989587 0.657129 0.332583 1 0 1.000000
  0 -1.813460 47.402096 -1.312917 -0.903905 -0.008543 -0.427648 0.714844 0.300728 1 0 1.000000
flesh_hand_01
  0 -1.813460 47.402096 -1.312917 -0.903905 -0.008543 -0.427648 0.714844 0.300728 1 0 1.000000
  0 -0.595982 48.165272 -2.114156 -0.130634 -0.060431 -0.989587 0.657129 0.332583 1 0 1.000000
  0 -0.494569 47.335674 -2.043061 -0.142314 0.062245 -0.987862 0.656892 0.300721 1 0 1.000000
flesh_hand_01
  0 -0.595982 48.165272 -2.114156 -0.130634 -0.060431 -0.989587 0.657129 0.332583 1 0 1.000000
  0 1.075070 47.725212 -1.645200 0.666952 -0.134904 -0.732786 0.600988 0.332576 1 0 1.000000
  0 -0.494569 47.335674 -2.043061 -0.142314 0.062245 -0.987862 0.656892 0.300721 1 0 1.000000
flesh_hand_01
  0 -0.494569 47.335674 -2.043061 -0.142314 0.062245 -0.987862 0.656892 0.300721 1 0 1.000000
  0 1.075070 47.725212 -1.645200 0.666952 -0.134904 -0.732786 0.600988 0.332576 1 0 1.000000
  0 1.048049 47.225723 -1.736909 0.691698 -0.011883 -0.722089 0.601081 0.300715 1 0 1.000000
flesh_hand_01
  0 1.012883 45.325058 -2.110201 0.705808 0.116479 -0.698761 0.962548 0.194053 1 0 1.000000
  0 1.048049 47.225723 -1.736909 0.691698 -0.011883 -0.722089 0.961888 0.300713 1 0 1.000000
  0 1.340141 45.166882 -0.456634 0.906569 -0.086688 0.413059 0.895508 0.193908 1 0 1.000000
flesh_hand_01
  0 1.340141 45.166882 -0.456634 0.906569 -0.086688 0.413059 0.895508 0.193908 1 0 1.000000
  0 1.048049 47.225723 -1.736909 0.691698 -0.011883 -0.722089 0.961888 0.300713 1 0 1.000000
  0 1.385745 47.075703 -0.126106 0.883220 -0.265963 0.386246 0.894847 0.300709 1 0 1.000000
flesh_hand_01
  0 1.075070 47.725212 -1.645200 0.666952 -0.134904 -0.732786 0.961019 0.332573 1 0 1.000000
  0 1.385745 47.075703 -0.126106 0.883220 -0.265963 0.386246 0.894847 0.300709 1 0 1.000000
  0 1.048049 47.225723 -1.736909 0.691698 -0.011883 -0.722089 0.961888 0.300713 1 0 1.000000
flesh_hand_01
  0 1.746257 47.539120 0.125476 0.827417 -0.443490 0.344526 0.894484 0.332570 1 0 1.000000
  0 1.385745 47.075703 -0.126106 0.883220 -0.265963 0.386246 0.894847 0.300709 1 0 1.000000
  0 1.075070 47.725212 -1.645200 0.666952 -0.134904 -0.732786 0.961019 0.332573 1 0 1.000000
flesh_hand_01
  0 1.746257 47.539120 0.125476 0.827417 -0.443490 0.344526 0.894484 0.332570 1 0 1.000000
  0 0.083670 47.514950 0.661068 0.073098 -0.323549 0.943384 0.837560 0.332571 1 0 1.000000
  0 1.385745 47.075703 -0.126106 0.883220 -0.265963 0.386246 0.894847 0.300709 1 0 1.000000
flesh_hand_01
  0 1.385745 47.075703 -0.126106 0.883220 -0.265963 0.386246 0.894847 0.300709 1 0 1.000000
  0 0.083670 47.514950 0.661068 0.073098 -0.323549 0.943384 0.837560 0.332571 1 0 1.000000
  0 0.048387 47.013462 0.593987 0.100208 -0.242424 0.964981 0.837127 0.300710 1 0 1.000000
flesh_hand_01
  0 0.083670 47.514950 0.661068 0.073098 -0.323549 0.943384 0.837560 0.332571 1 0 1.000000
  0 -1.556449 47.654518 0.349710 -0.723864 -0.157082 0.671823 0.779281 0.332575 1 0 1.000000
  0 0.048387 47.013462 0.593987 0.100208 -0.242424 0.964981 0.837127 0.300710 1 0 1.000000
flesh_hand_01
  0 0.048387 47.013462 0.593987 0.100208 -0.242424 0.964981 0.837127 0.300710 1 0 1.000000
  0 -1.556449 47.654518 0.349710 -0.723864 -0.157082 0.671823 0.779281 0.332575 1 0 1.000000
  0 -1.555376 47.069618 0.192147 -0.728275 -0.114141 0.675712 0.778636 0.300714 1 0 1.000000
flesh_hand_01
  0 -1.556449 47.654518 0.349710 -0.723864 -0.157082 0.671823 0.779281 0.332575 1 0 1.000000
  0 -1.813460 47.402096 -1.312917 -0.903905 -0.008543 -0.427648 0.714844 0.300728 1 0 1.000000
  0 -1.555376 47.069618 0.192147 -0.728275 -0.114141 0.675712 0.778636 0.300714 1 0 1.000000
flesh_hand_01
  0 -1.901566 45.705219 -1.571808 -0.900277 0.113054 -0.420381 0.714698 0.195427 1 0 1.000000
  0 -1.555376 47.069618 0.192147 -0.728275 -0.114141 0.675712 0.778636 0.300714 1 0 1.000000
  0 -1.813460 47.402096 -1.312917 -0.903905 -0.008543 -0.427648 0.714844 0.300728 1 0 1.000000
flesh_hand_01
  0 -1.813460 47.402096 -1.312917 -0.903905 -0.008543 -0.427648 0.714844 0.300728 1 0 1.000000
  0 -0.494569 47.335674 -2.043061 -0.142314 0.062245 -0.987862 0.656892 0.300721 1 0 1.000000
  0 -1.901566 45.705219 -1.571808 -0.900277 0.113054 -0.420381 0.714698 0.195427 1 0 1.000000
flesh_hand_01
  0 -1.901566 45.705219 -1.571808 -0.900277 0.113054 -0.420381 0.714698 0.195427 1 0 1.000000
  0 -0.494569 47.335674 -2.043061 -0.142314 0.062245 -0.987862 0.656892 0.300721 1 0 1.000000
  0 -0.553045 45.539383 -2.370832 -0.151720 0.182365 -0.971455 0.653995 0.194773 1 0 1.000000
flesh_hand_01
  0 -0.494569 47.335674 -2.043061 -0.142314 0.062245 -0.987862 0.656892 0.300721 1 0 1.000000
  0 1.048049 47.225723 -1.736909 0.691698 -0.011883 -0.722089 0.601081 0.300715 1 0 1.000000
  0 -0.553045 45.539383 -2.370832 -0.151720 0.182365 -0.971455 0.653995 0.194773 1 0 1.000000
flesh_hand_01
  0 -0.553045 45.539383 -2.370832 -0.151720 0.182365 -0.971455 0.653995 0.194773 1 0 1.000000
  0 1.048049 47.225723 -1.736909 0.691698 -0.011883 -0.722089 0.601081 0.300715 1 0 1.000000
  0 1.012883 45.325058 -2.110201 0.705808 0.116479 -0.698761 0.597613 0.194190 1 0 1.000000
flesh_hand_01
  0 1.340141 45.166882 -0.456634 0.906569 -0.086688 0.413059 0.895508 0.193908 1 0 1.000000
  0 1.385745 47.075703 -0.126106 0.883220 -0.265963 0.386246 0.894847 0.300709 1 0 1.000000
  0 -0.016815 45.104939 0.298850 0.127002 -0.157910 0.979252 0.837788 0.193943 1 0 1.000000
flesh_hand_01
  0 -0.016815 45.104939 0.298850 0.127002 -0.157910 0.979252 0.837788 0.193943 1 0 1.000000
  0 1.385745 47.075703 -0.126106 0.883220 -0.265963 0.386246 0.894847 0.300709 1 0 1.000000
  0 0.048387 47.013462 0.593987 0.100208 -0.242424 0.964981 0.837127 0.300710 1 0 1.000000
flesh_hand_01
  0 -1.555376 47.069618 0.192147 -0.728275 -0.114141 0.675712 0.778636 0.300714 1 0 1.000000
  0 -0.016815 45.104939 0.298850 0.127002 -0.157910 0.979252 0.837788 0.193943 1 0 1.000000
  0 0.048387 47.013462 0.593987 0.100208 -0.242424 0.964981 0.837127 0.300710 1 0 1.000000
flesh_hand_01
  0 -1.636437 45.166622 -0.100063 -0.731301 -0.071305 0.678318 0.779297 0.194115 1 0 1.000000
  0 -0.016815 45.104939 0.298850 0.127002 -0.157910 0.979252 0.837788 0.193943 1 0 1.000000
  0 -1.555376 47.069618 0.192147 -0.728275 -0.114141 0.675712 0.778636 0.300714 1 0 1.000000
flesh_hand_01
  0 -1.636437 45.166622 -0.100063 -0.731301 -0.071305 0.678318 0.779297 0.194115 1 0 1.000000
  0 -1.555376 47.069618 0.192147 -0.728275 -0.114141 0.675712 0.778636 0.300714 1 0 1.000000
  0 -1.901566 45.705219 -1.571808 -0.900277 0.113054 -0.420381 0.714698 0.195427 1 0 1.000000
flesh_hand_01
  0 -3.772458 49.211235 -0.560777 -0.296942 -0.095592 -0.950099 0.992991 0.121694 1 0 1.000000
  0 -3.512489 47.775105 -0.534659 -0.316338 -0.071902 -0.945918 0.904854 0.122299 1 0 1.000000
  0 -5.641436 48.656208 0.042070 -0.847294 -0.318277 -0.425197 0.995596 0.063893 1 0 1.000000
flesh_hand_01
  0 -5.641436 48.656208 0.042070 -0.847294 -0.318277 -0.425197 0.995596 0.063893 1 0 1.000000
  0 -3.512489 47.775105 -0.534659 -0.316338 -0.071902 -0.945918 0.904854 0.122299 1 0 1.000000
  0 -5.037134 47.169556 0.039901 -0.862567 -0.224978 -0.453169 0.860869 0.062588 1 0 1.000000
flesh_hand_01
  0 -5.641436 48.656208 0.042070 -0.847294 -0.318277 -0.425197 0.995596 0.063893 1 0 1.000000
  0 -5.037134 47.169556 0.039901 -0.862567 -0.224978 -0.453169 0.860869 0.062588 1 0 1.000000
  0 -5.073345 48.705826 1.383288 -0.865547 -0.341085 0.366728 0.998201 0.006092 1 0 1.000000
flesh_hand_01
  0 -5.073345 48.705826 1.383288 -0.865547 -0.341085 0.366728 0.998201 0.006092 1 0 1.000000
  0 -5.037134 47.169556 0.039901 -0.862567 -0.224978 -0.453169 0.860869 0.062588 1 0 1.000000
  0 -4.394098 47.053349 1.495242 -0.911739 -0.083815 0.402127 0.816884 0.002876 1 0 1.000000
flesh_hand_01
  0 4.027092 48.176331 -0.754025 0.858208 -0.002364 -0.513297 0.894375 0.004250 1 0 1.000000
  0 3.904485 49.352669 0.025433 0.927349 0.269008 -0.260113 0.998201 0.006092 1 0 1.000000
  0 5.226971 47.129131 2.440757 0.923322 0.290032 -0.251708 0.992991 0.162102 1 0 1.000000
flesh_hand_01
  0 4.027092 48.176331 -0.754025 0.858208 -0.002364 -0.513297 0.894375 0.004250 1 0 1.000000
  0 5.226971 47.129131 2.440757 0.923322 0.290032 -0.251708 0.992991 0.162102 1 0 1.000000
  0 5.152695 46.426838 1.262209 0.878532 0.014993 -0.477448 0.909941 0.162673 1 0 1.000000
flesh_hand_01
  0 5.152695 46.426838 1.262209 0.878532 0.014993 -0.477448 0.909941 0.162673 1 0 1.000000
  0 3.793854 45.679497 0.087118 0.683637 -0.230213 -0.692563 0.815857 0.163320 1 0 1.000000
  0 4.027092 48.176331 -0.754025 0.858208 -0.002364 -0.513297 0.894375 0.004250 1 0 1.000000
flesh_hand_01
  0 3.793854 45.679497 0.087118 0.683637 -0.230213 -0.692563 0.815857 0.163320 1 0 1.000000
  0 2.674136 48.022461 -1.781800 0.667933 -0.203040 -0.715989 0.816884 0.002876 1 0 1.000000
  0 4.027092 48.176331 -0.754025 0.858208 -0.002364 -0.513297 0.894375 0.004250 1 0 1.000000
flesh_hand_01
  0 3.793854 45.679497 0.087118 0.683637 -0.230213 -0.692563 0.815857 0.163320 1 0 1.000000
  0 2.751226 44.219521 -1.154594 0.727368 -0.097293 -0.679316 0.687547 0.163929 1 0 1.000000
  0 2.674136 48.022461 -1.781800 0.667933 -0.203040 -0.715989 0.816884 0.002876 1 0 1.000000
flesh_hand_01
  0 2.674136 48.022461 -1.781800 0.667933 -0.203040 -0.715989 0.816884 0.002876 1 0 1.000000
  0 2.751226 44.219521 -1.154594 0.727368 -0.097293 -0.679316 0.687547 0.163929 1 0 1.000000
  0 0.780660 45.606594 -3.128771 0.727368 -0.097293 -0.679316 0.686482 0.001268 1 0 1.000000
flesh_hand_01
  0 4.417349 48.177216 -0.702060 0.788173 -0.144165 0.598331 0.860869 0.062588 1 0 1.000000
  0 3.870015 47.341766 -0.494789 0.767878 -0.053664 0.638345 0.778339 0.060839 1 0 1.000000
  0 4.097570 47.731823 -1.918879 0.911776 -0.409090 0.036185 0.816884 0.002876 1 0 1.000000
flesh_hand_01
  0 4.097570 47.731823 -1.918879 0.911776 -0.409090 0.036185 0.816884 0.002876 1 0 1.000000
  0 3.870015 47.341766 -0.494789 0.767878 -0.053664 0.638345 0.778339 0.060839 1 0 1.000000
  0 4.161961 46.876484 -1.570979 0.960569 -0.191844 0.201255 0.740821 -0.001234 1 0 1.000000
flesh_hand_01
  0 4.893625 48.932911 -2.440014 0.829694 -0.558009 -0.015256 0.998201 0.006092 1 0 1.000000
  0 5.104075 49.210316 -1.258410 0.798395 -0.171969 0.577055 0.995596 0.063893 1 0 1.000000
  0 4.097570 47.731823 -1.918879 0.911776 -0.409090 0.036185 0.816884 0.002876 1 0 1.000000
flesh_hand_01
  0 4.097570 47.731823 -1.918879 0.911776 -0.409090 0.036185 0.816884 0.002876 1 0 1.000000
  0 5.104075 49.210316 -1.258410 0.798395 -0.171969 0.577055 0.995596 0.063893 1 0 1.000000
  0 4.417349 48.177216 -0.702060 0.788173 -0.144165 0.598331 0.860869 0.062588 1 0 1.000000
flesh_hand_01
  0 5.104075 49.210316 -1.258410 0.798395 -0.171969 0.577055 0.995596 0.063893 1 0 1.000000
  0 3.424615 49.841831 -0.855591 0.367226 0.300201 0.880355 0.992991 0.121694 1 0 1.000000
  0 4.417349 48.177216 -0.702060 0.788173 -0.144165 0.598331 0.860869 0.062588 1 0 1.000000
flesh_hand_01
  0 4.417349 48.177216 -0.702060 0.788173 -0.144165 0.598331 0.860869 0.062588 1 0 1.000000
  0 3.424615 49.841831 -0.855591 0.367226 0.300201 0.880355 0.992991 0.121694 1 0 1.000000
  0 3.169952 48.840611 -0.325550 0.352771 0.176027 0.919003 0.904854 0.122299 1 0 1.000000
flesh_hand_01
  0 4.417349 48.177216 -0.702060 0.788173 -0.144165 0.598331 0.860869 0.062588 1 0 1.000000
  0 3.169952 48.840611 -0.325550 0.352771 0.176027 0.919003 0.904854 0.122299 1 0 1.000000
  0 3.870015 47.341766 -0.494789 0.767878 -0.053664 0.638345 0.778339 0.060839 1 0 1.000000
flesh_hand_01
  0 3.870015 47.341766 -0.494789 0.767878 -0.053664 0.638345 0.778339 0.060839 1 0 1.000000
  0 3.169952 48.840611 -0.325550 0.352771 0.176027 0.919003 0.904854 0.122299 1 0 1.000000
  0 2.190062 48.023975 0.091592 0.386519 0.197932 0.900792 0.815857 0.122911 1 0 1.000000
flesh_hand_01
  0 4.781688 44.382977 -2.792201 -0.305891 -0.462231 -0.832330 0.816748 0.024146 1 0 1.000000
  0 4.500787 44.670750 -2.608366 -0.710234 -0.280918 -0.645487 0.816884 0.002876 1 0 1.000000
  0 4.551871 45.477493 -4.580206 -0.507452 -0.743796 -0.435040 0.998201 0.006092 1 0 1.000000
flesh_hand_01
  0 3.870073 43.273499 -2.410192 -0.242733 -0.131491 -0.961140 0.686482 0.001268 1 0 1.000000
  0 4.500787 44.670750 -2.608366 -0.710234 -0.280918 -0.645487 0.816884 0.002876 1 0 1.000000
  0 4.781688 44.382977 -2.792201 -0.305891 -0.462231 -0.832330 0.816748 0.024146 1 0 1.000000
flesh_hand_01
  0 4.807026 42.743679 -2.199048 0.155763 -0.403264 -0.901729 0.686840 0.056044 1 0 1.000000
  0 3.870073 43.273499 -2.410192 -0.242733 -0.131491 -0.961140 0.686482 0.001268 1 0 1.000000
  0 4.781688 44.382977 -2.792201 -0.305891 -0.462231 -0.832330 0.816748 0.024146 1 0 1.000000
flesh_hand_01
  0 4.781688 44.382977 -2.792201 -0.305891 -0.462231 -0.832330 0.816748 0.024146 1 0 1.000000
  0 5.719367 43.763405 -2.469594 0.304859 -0.649345 -0.696715 0.816370 0.083098 1 0 1.000000
  0 4.807026 42.743679 -2.199048 0.155763 -0.403264 -0.901729 0.686840 0.056044 1 0 1.000000
flesh_hand_01
  0 5.719367 43.763405 -2.469594 0.304859 -0.649345 -0.696715 0.816370 0.083098 1 0 1.000000
  0 5.141098 42.554482 -1.930687 0.493044 -0.545168 -0.678012 0.687014 0.082598 1 0 1.000000
  0 4.807026 42.743679 -2.199048 0.155763 -0.403264 -0.901729 0.686840 0.056044 1 0 1.000000
flesh_hand_01
  0 5.719367 43.763405 -2.469594 0.304859 -0.649345 -0.696715 0.816370 0.083098 1 0 1.000000
  0 6.271976 42.519852 -0.561944 0.627246 -0.556733 -0.544620 0.687547 0.163929 1 0 1.000000
  0 5.141098 42.554482 -1.930687 0.493044 -0.545168 -0.678012 0.687014 0.082598 1 0 1.000000
flesh_hand_01
  0 7.260710 43.680824 -0.640898 0.578298 -0.669169 -0.466675 0.815857 0.163320 1 0 1.000000
  0 6.271976 42.519852 -0.561944 0.627246 -0.556733 -0.544620 0.687547 0.163929 1 0 1.000000
  0 5.719367 43.763405 -2.469594 0.304859 -0.649345 -0.696715 0.816370 0.083098 1 0 1.000000
flesh_hand_01
  0 5.719367 43.763405 -2.469594 0.304859 -0.649345 -0.696715 0.816370 0.083098 1 0 1.000000
  0 8.179863 44.804779 -1.220661 0.517140 -0.767476 -0.378876 0.992991 0.162102 1 0 1.000000
  0 7.260710 43.680824 -0.640898 0.578298 -0.669169 -0.466675 0.815857 0.163320 1 0 1.000000
flesh_hand_01
  0 6.500809 44.833488 -4.013033 0.179185 -0.846204 -0.501829 0.995596 0.084097 1 0 1.000000
  0 8.179863 44.804779 -1.220661 0.517140 -0.767476 -0.378876 0.992991 0.162102 1 0 1.000000
  0 5.719367 43.763405 -2.469594 0.304859 -0.649345 -0.696715 0.816370 0.083098 1 0 1.000000
flesh_hand_01
  0 5.719367 43.763405 -2.469594 0.304859 -0.649345 -0.696715 0.816370 0.083098 1 0 1.000000
  0 4.781688 44.382977 -2.792201 -0.305891 -0.462231 -0.832330 0.816748 0.024146 1 0 1.000000
  0 6.500809 44.833488 -4.013033 0.179185 -0.846204 -0.501829 0.995596 0.084097 1 0 1.000000
flesh_hand_01
  0 6.500809 44.833488 -4.013033 0.179185 -0.846204 -0.501829 0.995596 0.084097 1 0 1.000000
  0 4.781688 44.382977 -2.792201 -0.305891 -0.462231 -0.832330 0.816748 0.024146 1 0 1.000000
  0 4.551871 45.477493 -4.580206 -0.507452 -0.743796 -0.435040 0.998201 0.006092 1 0 1.000000
flesh_hand_01
  0 6.643477 45.731586 1.862232 0.824141 -0.413064 0.387517 0.998201 0.006092 1 0 1.000000
  0 6.004935 45.314945 2.848910 0.792467 -0.402358 0.458371 0.995596 0.063893 1 0 1.000000
  0 6.046972 43.816734 1.162525 0.824141 -0.413064 0.387517 0.816884 0.002876 1 0 1.000000
flesh_hand_01
  0 6.046972 43.816734 1.162525 0.824141 -0.413064 0.387517 0.816884 0.002876 1 0 1.000000
  0 6.004935 45.314945 2.848910 0.792467 -0.402358 0.458371 0.995596 0.063893 1 0 1.000000
  0 5.472647 43.729256 2.217931 0.792467 -0.402358 0.458371 0.860869 0.062588 1 0 1.000000
flesh_hand_01
  0 6.004935 45.314945 2.848910 0.792467 -0.402358 0.458371 0.995596 0.063893 1 0 1.000000
  0 4.997038 44.981270 3.826529 0.755929 -0.389183 0.526411 0.992991 0.121694 1 0 1.000000
  0 5.472647 43.729256 2.217931 0.792467 -0.402358 0.458371 0.860869 0.062588 1 0 1.000000
flesh_hand_01
  0 5.472647 43.729256 2.217931 0.792467 -0.402358 0.458371 0.860869 0.062588 1 0 1.000000
  0 4.997038 44.981270 3.826529 0.755929 -0.389183 0.526411 0.992991 0.121694 1 0 1.000000
  0 4.466026 43.120548 3.436441 0.755929 -0.389183 0.526411 0.904854 0.122299 1 0 1.000000
flesh_hand_01
  0 -5.628100 51.060108 -1.148253 -0.734652 -0.163677 -0.658404 0.992991 0.121694 1 0 1.000000
  0 -5.630014 49.623974 -1.091640 -0.772053 -0.221189 -0.595826 0.904854 0.122299 1 0 1.000000
  0 -6.569924 50.505081 -0.261923 -0.939591 -0.296377 -0.171258 0.995596 0.063893 1 0 1.000000
flesh_hand_01
  0 -6.569924 50.505081 -0.261923 -0.939591 -0.296377 -0.171258 0.995596 0.063893 1 0 1.000000
  0 -5.630014 49.623974 -1.091640 -0.772053 -0.221189 -0.595826 0.904854 0.122299 1 0 1.000000
  0 -5.965622 49.018429 -0.264091 -0.947235 -0.288018 -0.140681 0.860869 0.062588 1 0 1.000000
flesh_hand_01
  0 -6.569924 50.505081 -0.261923 -0.939591 -0.296377 -0.171258 0.995596 0.063893 1 0 1.000000
  0 -5.965622 49.018429 -0.264091 -0.947235 -0.288018 -0.140681 0.860869 0.062588 1 0 1.000000
  0 -6.001803 50.554707 1.079298 -0.865546 -0.341077 0.366738 0.998201 0.006092 1 0 1.000000
flesh_hand_01
  0 -6.001803 50.554707 1.079298 -0.865546 -0.341077 0.366738 0.998201 0.006092 1 0 1.000000
  0 -5.965622 49.018429 -0.264091 -0.947235 -0.288018 -0.140681 0.860869 0.062588 1 0 1.000000
  0 -5.322586 48.902222 1.191250 -0.895291 -0.227088 0.383256 0.816884 0.002876 1 0 1.000000
flesh_hand_01
  0 4.718428 46.262497 4.371333 0.490801 -0.737840 0.463364 0.189073 0.935857 1 0 1.000000
  0 1.930586 45.006035 4.309759 0.194567 -0.728253 0.657108 0.115152 0.877021 1 0 1.000000
  0 3.896107 44.838631 3.763689 0.490801 -0.737840 0.463364 0.187435 0.879626 1 0 1.000000
flesh_hand_01
  0 3.087964 47.259995 6.779441 0.194567 -0.728253 0.657108 0.115529 0.940977 1 0 1.000000
  0 1.930586 45.006035 4.309759 0.194567 -0.728253 0.657108 0.115152 0.877021 1 0 1.000000
  0 4.718428 46.262497 4.371333 0.490801 -0.737840 0.463364 0.189073 0.935857 1 0 1.000000
flesh_hand_01
  0 3.087964 47.259995 6.779441 0.194567 -0.728253 0.657108 0.115529 0.940977 1 0 1.000000
  0 0.124374 47.149376 6.956168 -0.180445 -0.703590 0.687314 0.041986 0.946097 1 0 1.000000
  0 1.930586 45.006035 4.309759 0.194567 -0.728253 0.657108 0.115152 0.877021 1 0 1.000000
flesh_hand_01
  0 1.930586 45.006035 4.309759 0.194567 -0.728253 0.657108 0.115152 0.877021 1 0 1.000000
  0 0.124374 47.149376 6.956168 -0.180445 -0.703590 0.687314 0.041986 0.946097 1 0 1.000000
  0 -0.025803 45.173931 4.826313 -0.180445 -0.703590 0.687314 0.042868 0.874416 1 0 1.000000
flesh_hand_01
  0 0.124374 47.149376 6.956168 -0.180445 -0.703590 0.687314 0.972753 0.945005 1 0 1.000000
  0 -4.643600 46.759312 3.276745 -0.652684 -0.600179 0.462373 0.825010 0.933990 1 0 1.000000
  0 -0.025803 45.173931 4.826313 -0.180445 -0.703590 0.687314 0.974944 0.874979 1 0 1.000000
flesh_hand_01
  0 -0.025803 45.173931 4.826313 -0.180445 -0.703590 0.687314 0.974944 0.874979 1 0 1.000000
  0 -4.643600 46.759312 3.276745 -0.652684 -0.600179 0.462373 0.825010 0.933990 1 0 1.000000
  0 -3.822700 45.328243 2.707417 -0.652684 -0.600179 0.462373 0.831392 0.880678 1 0 1.000000
flesh_hand_01
  0 -4.643600 46.759312 3.276745 -0.652684 -0.600179 0.462373 0.825010 0.933990 1 0 1.000000
  0 -5.477402 46.563187 -0.410164 -0.901416 -0.323004 -0.288302 0.714152 0.931788 1 0 1.000000
  0 -3.822700 45.328243 2.707417 -0.652684 -0.600179 0.462373 0.831392 0.880678 1 0 1.000000
flesh_hand_01
  0 -3.822700 45.328243 2.707417 -0.652684 -0.600179 0.462373 0.831392 0.880678 1 0 1.000000
  0 -5.477402 46.563187 -0.410164 -0.901416 -0.323004 -0.288302 0.714152 0.931788 1 0 1.000000
  0 -5.091174 45.882420 -0.515340 -0.901416 -0.323004 -0.288302 0.716031 0.881913 1 0 1.000000
flesh_hand_01
  0 -5.477402 46.563187 -0.410164 -0.901416 -0.323004 -0.288302 0.714152 0.931788 1 0 1.000000
  0 -3.524028 45.953342 -2.356078 -0.521181 -0.041988 -0.852412 0.607176 0.880665 1 0 1.000000
  0 -5.091174 45.882420 -0.515340 -0.901416 -0.323004 -0.288302 0.716031 0.881913 1 0 1.000000
flesh_hand_01
  0 -3.496862 47.616497 -2.132881 -0.521181 -0.041988 -0.852412 0.608972 0.934274 1 0 1.000000
  0 -3.524028 45.953342 -2.356078 -0.521181 -0.041988 -0.852412 0.607176 0.880665 1 0 1.000000
  0 -5.477402 46.563187 -0.410164 -0.901416 -0.323004 -0.288302 0.714152 0.931788 1 0 1.000000
flesh_hand_01
  0 -3.496862 47.616497 -2.132881 -0.521181 -0.041988 -0.852412 0.608972 0.934274 1 0 1.000000
  0 -1.678648 46.741493 -2.651448 -0.068849 -0.245638 -0.966913 0.537831 0.880558 1 0 1.000000
  0 -3.524028 45.953342 -2.356078 -0.521181 -0.041988 -0.852412 0.607176 0.880665 1 0 1.000000
flesh_hand_01
  0 -1.421260 48.287766 -3.210645 -0.068849 -0.245638 -0.966913 0.541508 0.934398 1 0 1.000000
  0 -1.678648 46.741493 -2.651448 -0.068849 -0.245638 -0.966913 0.537831 0.880558 1 0 1.000000
  0 -3.496862 47.616497 -2.132881 -0.521181 -0.041988 -0.852412 0.608972 0.934274 1 0 1.000000
flesh_hand_01
  0 -1.421260 48.287766 -3.210645 -0.068849 -0.245638 -0.966913 0.541508 0.934398 1 0 1.000000
  0 0.903150 46.537418 -1.989331 0.288161 -0.372158 -0.882305 0.468487 0.880451 1 0 1.000000
  0 -1.678648 46.741493 -2.651448 -0.068849 -0.245638 -0.966913 0.537831 0.880558 1 0 1.000000
flesh_hand_01
  0 1.878025 48.343445 -2.672464 0.288161 -0.372158 -0.882305 0.474044 0.934522 1 0 1.000000
  0 0.903150 46.537418 -1.989331 0.288161 -0.372158 -0.882305 0.468487 0.880451 1 0 1.000000
  0 -1.421260 48.287766 -3.210645 -0.068849 -0.245638 -0.966913 0.541508 0.934398 1 0 1.000000
flesh_hand_01
  0 1.878025 48.343445 -2.672464 0.288161 -0.372158 -0.882305 0.474044 0.934522 1 0 1.000000
  0 2.988233 46.036057 -1.227731 0.482603 -0.391013 -0.783711 0.404644 0.879550 1 0 1.000000
  0 0.903150 46.537418 -1.989331 0.288161 -0.372158 -0.882305 0.468487 0.880451 1 0 1.000000
flesh_hand_01
  0 3.795884 47.437317 -0.996260 0.482603 -0.391013 -0.783711 0.410855 0.936181 1 0 1.000000
  0 2.988233 46.036057 -1.227731 0.482603 -0.391013 -0.783711 0.404644 0.879550 1 0 1.000000
  0 1.878025 48.343445 -2.672464 0.288161 -0.372158 -0.882305 0.474044 0.934522 1 0 1.000000
flesh_hand_01
  0 3.795884 47.437317 -0.996260 0.482603 -0.391013 -0.783711 0.410855 0.936181 1 0 1.000000
  0 3.793854 45.679504 0.087118 0.572292 -0.579471 -0.580254 0.340801 0.878648 1 0 1.000000
  0 2.988233 46.036057 -1.227731 0.482603 -0.391013 -0.783711 0.404644 0.879550 1 0 1.000000
flesh_hand_01
  0 5.271184 46.848804 0.083763 0.572292 -0.579471 -0.580254 0.347666 0.937840 1 0 1.000000
  0 3.793854 45.679504 0.087118 0.572292 -0.579471 -0.580254 0.340801 0.878648 1 0 1.000000
  0 3.795884 47.437317 -0.996260 0.482603 -0.391013 -0.783711 0.410855 0.936181 1 0 1.000000
flesh_hand_01
  0 5.271184 46.848804 0.083763 0.572292 -0.579471 -0.580254 0.347666 0.937840 1 0 1.000000
  0 4.526590 45.197895 1.788180 0.643864 -0.758798 -0.098311 0.264118 0.879137 1 0 1.000000
  0 3.793854 45.679504 0.087118 0.572292 -0.579471 -0.580254 0.340801 0.878648 1 0 1.000000
flesh_hand_01
  0 6.123655 46.271927 2.152963 0.643864 -0.758798 -0.098311 0.268370 0.936848 1 0 1.000000
  0 4.526590 45.197895 1.788180 0.643864 -0.758798 -0.098311 0.264118 0.879137 1 0 1.000000
  0 5.271184 46.848804 0.083763 0.572292 -0.579471 -0.580254 0.347666 0.937840 1 0 1.000000
flesh_hand_01
  0 6.123655 46.271927 2.152963 0.643864 -0.758798 -0.098311 0.268370 0.936848 1 0 1.000000
  0 4.718428 46.262497 4.371333 0.490801 -0.737840 0.463364 0.189073 0.935857 1 0 1.000000
  0 4.526590 45.197895 1.788180 0.643864 -0.758798 -0.098311 0.264118 0.879137 1 0 1.000000
flesh_hand_01
  0 4.526590 45.197895 1.788180 0.643864 -0.758798 -0.098311 0.264118 0.879137 1 0 1.000000
  0 4.718428 46.262497 4.371333 0.490801 -0.737840 0.463364 0.189073 0.935857 1 0 1.000000
  0 3.896107 44.838631 3.763689 0.490801 -0.737840 0.463364 0.187435 0.879626 1 0 1.000000
flesh_hand_01
  0 -8.221784 46.211658 -0.585127 -0.638813 -0.737646 0.218624 0.992991 0.162102 1 0 1.000000
  0 -6.476746 44.864765 -0.867427 -0.730557 -0.626690 0.271192 0.815857 0.163320 1 0 1.000000
  0 -5.775900 45.388935 2.948982 -0.638813 -0.737646 0.218624 0.998201 0.006092 1 0 1.000000
flesh_hand_01
  0 -5.775900 45.388935 2.948982 -0.638813 -0.737646 0.218624 0.998201 0.006092 1 0 1.000000
  0 -6.476746 44.864765 -0.867427 -0.730557 -0.626690 0.271192 0.815857 0.163320 1 0 1.000000
  0 -5.172439 44.326160 1.963216 -0.730557 -0.626690 0.271192 0.816884 0.002876 1 0 1.000000
flesh_hand_01
  0 -6.476746 44.864765 -0.867427 -0.730557 -0.626690 0.271192 0.815857 0.163320 1 0 1.000000
  0 -5.853250 43.473499 -1.109792 -0.805140 -0.501013 0.317390 0.687547 0.163929 1 0 1.000000
  0 -5.172439 44.326160 1.963216 -0.730557 -0.626690 0.271192 0.816884 0.002876 1 0 1.000000
flesh_hand_01
  0 -5.172439 44.326160 1.963216 -0.730557 -0.626690 0.271192 0.816884 0.002876 1 0 1.000000
  0 -5.853250 43.473499 -1.109792 -0.805140 -0.501013 0.317390 0.687547 0.163929 1 0 1.000000
  0 -4.374528 42.841454 1.271497 -0.805140 -0.501013 0.317390 0.686482 0.001268 1 0 1.000000
flesh_hand_01
  0 -5.786860 43.308441 -1.525339 -0.964831 -0.180381 -0.191215 0.904854 0.122299 1 0 1.000000
  0 -5.697332 45.114555 -1.649482 -0.964831 -0.180381 -0.191215 0.992991 0.121694 1 0 1.000000
  0 -5.268603 43.197857 -2.004664 -0.844837 -0.309981 -0.436077 0.860869 0.062588 1 0 1.000000
flesh_hand_01
  0 -5.268603 43.197857 -2.004664 -0.844837 -0.309981 -0.436077 0.860869 0.062588 1 0 1.000000
  0 -5.697332 45.114555 -1.649482 -0.964831 -0.180381 -0.191215 0.992991 0.121694 1 0 1.000000
  0 -6.004152 45.460735 -2.459266 -0.844837 -0.309981 -0.436077 0.995596 0.063893 1 0 1.000000
flesh_hand_01
  0 -6.004152 45.460735 -2.459266 -0.844837 -0.309981 -0.436077 0.995596 0.063893 1 0 1.000000
  0 -5.015158 45.255142 -3.580499 -0.647833 -0.411326 -0.641189 0.998201 0.006092 1 0 1.000000
  0 -5.268603 43.197857 -2.004664 -0.844837 -0.309981 -0.436077 0.860869 0.062588 1 0 1.000000
flesh_hand_01
  0 -5.268603 43.197857 -2.004664 -0.844837 -0.309981 -0.436077 0.860869 0.062588 1 0 1.000000
  0 -5.015158 45.255142 -3.580499 -0.647833 -0.411326 -0.641189 0.998201 0.006092 1 0 1.000000
  0 -4.173790 43.491199 -3.045126 -0.647833 -0.411326 -0.641189 0.816884 0.002876 1 0 1.000000
flesh_hand_01
  0 -6.267136 44.884781 3.930376 -0.335091 -0.763207 0.552475 0.992991 0.162102 1 0 1.000000
  0 -4.447819 43.699120 3.094650 -0.396092 -0.669065 0.628859 0.815857 0.163320 1 0 1.000000
  0 -1.895884 44.752991 6.098325 -0.335091 -0.763207 0.552475 0.998201 0.006092 1 0 1.000000
flesh_hand_01
  0 -1.895884 44.752991 6.098325 -0.335091 -0.763207 0.552475 0.998201 0.006092 1 0 1.000000
  0 -4.447819 43.699120 3.094650 -0.396092 -0.669065 0.628859 0.815857 0.163320 1 0 1.000000
  0 -1.564624 43.648987 5.075405 -0.396092 -0.669065 0.628859 0.816884 0.002876 1 0 1.000000
flesh_hand_01
  0 -4.447819 43.699120 3.094650 -0.396092 -0.669065 0.628859 0.815857 0.163320 1 0 1.000000
  0 -3.585142 42.368500 2.726667 -0.449798 -0.562599 0.693660 0.687547 0.163929 1 0 1.000000
  0 -1.564624 43.648987 5.075405 -0.396092 -0.669065 0.628859 0.816884 0.002876 1 0 1.000000
flesh_hand_01
  0 -1.564624 43.648987 5.075405 -0.396092 -0.669065 0.628859 0.816884 0.002876 1 0 1.000000
  0 -3.585142 42.368500 2.726667 -0.449798 -0.562599 0.693660 0.687547 0.163929 1 0 1.000000
  0 -0.764888 42.187706 4.256972 -0.449798 -0.562599 0.693660 0.686482 0.001268 1 0 1.000000
flesh_hand_01
  0 0.802983 47.563774 -1.639288 0.632719 -0.184425 -0.752100 0.961019 0.332573 1 0 1.000000
  0 1.412389 47.483498 -0.178852 0.925179 -0.258819 0.277590 0.894484 0.332570 1 0 1.000000
  0 0.905034 47.143734 -1.488811 0.632719 -0.184425 -0.752100 0.961888 0.300713 1 0 1.000000
flesh_hand_01
  0 0.905034 47.143734 -1.488811 0.632719 -0.184425 -0.752100 0.961888 0.300713 1 0 1.000000
  0 1.412389 47.483498 -0.178852 0.925179 -0.258819 0.277590 0.894484 0.332570 1 0 1.000000
  0 1.306134 47.092087 -0.323778 0.925179 -0.258819 0.277590 0.894847 0.300709 1 0 1.000000
flesh_hand_01
  0 1.412389 47.483498 -0.178852 0.925179 -0.258819 0.277590 0.894484 0.332570 1 0 1.000000
  0 0.317662 46.956394 0.234061 0.163537 -0.452138 0.876828 0.837127 0.300710 1 0 1.000000
  0 1.306134 47.092087 -0.323778 0.925179 -0.258819 0.277590 0.894847 0.300709 1 0 1.000000
flesh_hand_01
  0 0.192273 47.641502 0.634627 0.163537 -0.452138 0.876828 0.837560 0.332571 1 0 1.000000
  0 0.317662 46.956394 0.234061 0.163537 -0.452138 0.876828 0.837127 0.300710 1 0 1.000000
  0 1.412389 47.483498 -0.178852 0.925179 -0.258819 0.277590 0.894484 0.332570 1 0 1.000000
flesh_hand_01
  0 0.192273 47.641502 0.634627 0.163537 -0.452138 0.876828 0.837560 0.332571 1 0 1.000000
  0 -0.982413 46.865322 -0.015935 -0.566302 -0.567514 0.597686 0.778636 0.300714 1 0 1.000000
  0 0.317662 46.956394 0.234061 0.163537 -0.452138 0.876828 0.837127 0.300710 1 0 1.000000
flesh_hand_01
  0 -1.358985 47.462482 0.166709 -0.566302 -0.567514 0.597686 0.779281 0.332575 1 0 1.000000
  0 -0.982413 46.865322 -0.015935 -0.566302 -0.567514 0.597686 0.778636 0.300714 1 0 1.000000
  0 0.192273 47.641502 0.634627 0.163537 -0.452138 0.876828 0.837560 0.332571 1 0 1.000000
flesh_hand_01
  0 -1.358985 47.462482 0.166709 -0.566302 -0.567514 0.597686 0.779281 0.332575 1 0 1.000000
  0 -1.391021 47.067814 -1.122607 -0.732837 -0.593830 -0.332139 0.714844 0.300728 1 0 1.000000
  0 -0.982413 46.865322 -0.015935 -0.566302 -0.567514 0.597686 0.778636 0.300714 1 0 1.000000
flesh_hand_01
  0 -1.800617 47.701103 -1.234058 -0.732837 -0.593830 -0.332139 0.715410 0.332590 1 0 1.000000
  0 -1.391021 47.067814 -1.122607 -0.732837 -0.593830 -0.332139 0.714844 0.300728 1 0 1.000000
  0 -1.358985 47.462482 0.166709 -0.566302 -0.567514 0.597686 0.779281 0.332575 1 0 1.000000
flesh_hand_01
  0 -1.800617 47.701103 -1.234058 -0.732837 -0.593830 -0.332139 0.715410 0.332590 1 0 1.000000
  0 -0.706934 47.764729 -1.966150 -0.148135 -0.420721 -0.895014 0.657129 0.332583 1 0 1.000000
  0 -1.391021 47.067814 -1.122607 -0.732837 -0.593830 -0.332139 0.714844 0.300728 1 0 1.000000
flesh_hand_01
  0 -1.391021 47.067814 -1.122607 -0.732837 -0.593830 -0.332139 0.714844 0.300728 1 0 1.000000
  0 -0.706934 47.764729 -1.966150 -0.148135 -0.420721 -0.895014 0.657129 0.332583 1 0 1.000000
  0 -0.362657 47.102039 -1.682546 -0.148135 -0.420721 -0.895014 0.656892 0.300721 1 0 1.000000
flesh_hand_01
  0 -0.706934 47.764729 -1.966150 -0.148135 -0.420721 -0.895014 0.657129 0.332583 1 0 1.000000
  0 0.802983 47.563774 -1.639288 0.632719 -0.184425 -0.752100 0.600988 0.332576 1 0 1.000000
  0 -0.362657 47.102039 -1.682546 -0.148135 -0.420721 -0.895014 0.656892 0.300721 1 0 1.000000
flesh_hand_01
  0 -0.362657 47.102039 -1.682546 -0.148135 -0.420721 -0.895014 0.656892 0.300721 1 0 1.000000
  0 0.802983 47.563774 -1.639288 0.632719 -0.184425 -0.752100 0.600988 0.332576 1 0 1.000000
  0 0.905034 47.143734 -1.488811 0.632719 -0.184425 -0.752100 0.601081 0.300715 1 0 1.000000
flesh_hand_01
  0 2.155910 49.504841 -2.587698 0.636640 0.049948 -0.769542 0.998201 0.006092 1 0 1.000000
  0 4.920848 49.243519 0.028055 0.684662 0.183550 -0.705371 0.992991 0.162102 1 0 1.000000
  0 4.564744 47.736958 -0.709625 0.618606 -0.022998 -0.785365 0.876444 0.162904 1 0 1.000000
flesh_hand_01
  0 4.564744 47.736958 -0.709625 0.618606 -0.022998 -0.785365 0.876444 0.162904 1 0 1.000000
  0 1.341098 47.444523 -2.946175 0.575579 -0.177623 -0.798222 0.816884 0.002876 1 0 1.000000
  0 2.155910 49.504841 -2.587698 0.636640 0.049948 -0.769542 0.998201 0.006092 1 0 1.000000
flesh_hand_01
  0 4.564744 47.736958 -0.709625 0.618606 -0.022998 -0.785365 0.876444 0.162904 1 0 1.000000
  0 4.822421 46.592937 -0.288464 0.574866 -0.223489 -0.787135 0.815857 0.163320 1 0 1.000000
  0 1.341098 47.444523 -2.946175 0.575579 -0.177623 -0.798222 0.816884 0.002876 1 0 1.000000
flesh_hand_01
  0 4.822421 46.592937 -0.288464 0.574866 -0.223489 -0.787135 0.815857 0.163320 1 0 1.000000
  0 4.159990 44.855759 0.106052 0.575509 -0.279480 -0.768557 0.687547 0.163929 1 0 1.000000
  0 1.341098 47.444523 -2.946175 0.575579 -0.177623 -0.798222 0.816884 0.002876 1 0 1.000000
flesh_hand_01
  0 1.341098 47.444523 -2.946175 0.575579 -0.177623 -0.798222 0.816884 0.002876 1 0 1.000000
  0 4.159990 44.855759 0.106052 0.575509 -0.279480 -0.768557 0.687547 0.163929 1 0 1.000000
  0 0.790575 44.701542 -2.619797 0.575509 -0.279480 -0.768557 0.686482 0.001268 1 0 1.000000
flesh_hand_01
  0 4.915398 45.933338 -0.410546 0.077672 0.978572 0.190694 0.237845 0.060394 1 0 1.000000
  0 3.579083 46.330257 -1.841438 0.171212 0.943819 0.282653 0.307939 0.060185 1 0 1.000000
  0 -0.760800 45.827175 2.446228 0.017132 0.974683 0.222935 0.197567 0.247063 1 0 1.000000
flesh_hand_01
  0 -0.760800 45.827175 2.446228 0.017132 0.974683 0.222935 0.197567 0.247063 1 0 1.000000
  0 3.579083 46.330257 -1.841438 0.171212 0.943819 0.282653 0.307939 0.060185 1 0 1.000000
  0 1.341156 47.444489 -2.946186 0.079370 0.945890 0.314632 0.366964 0.111111 1 0 1.000000
flesh_hand_01
  0 1.341156 47.444489 -2.946186 0.079370 0.945890 0.314632 0.366964 0.111111 1 0 1.000000
  0 -2.382277 47.205032 -3.608501 -0.121237 0.960624 0.250005 0.445101 0.178527 1 0 1.000000
  0 -0.760800 45.827175 2.446228 0.017132 0.974683 0.222935 0.197567 0.247063 1 0 1.000000
flesh_hand_01
  0 -2.382277 47.205032 -3.608501 -0.121237 0.960624 0.250005 0.445101 0.178527 1 0 1.000000
  0 -4.399838 46.595085 -2.435826 -0.136477 0.957948 0.252408 0.403975 0.246962 1 0 1.000000
  0 -0.760800 45.827175 2.446228 0.017132 0.974683 0.222935 0.197567 0.247063 1 0 1.000000
flesh_hand_01
  0 -4.399838 46.595085 -2.435826 -0.136477 0.957948 0.252408 0.403975 0.246962 1 0 1.000000
  0 -5.525151 46.003586 -0.748066 -0.084902 0.980228 0.178731 0.362797 0.315483 1 0 1.000000
  0 -0.760800 45.827175 2.446228 0.017132 0.974683 0.222935 0.197567 0.247063 1 0 1.000000
flesh_hand_01
  0 -5.525151 46.003586 -0.748066 -0.084902 0.980228 0.178731 0.362797 0.315483 1 0 1.000000
  0 -4.402100 45.586025 3.615306 -0.013932 0.986987 0.160195 0.191009 0.362583 1 0 1.000000
  0 -0.760800 45.827175 2.446228 0.017132 0.974683 0.222935 0.197567 0.247063 1 0 1.000000
flesh_hand_01
  0 -4.402100 45.586025 3.615306 -0.013932 0.986987 0.160195 0.191009 0.362583 1 0 1.000000
  0 0.053200 45.110592 5.662823 0.027198 0.981419 0.189939 0.073401 0.280074 1 0 1.000000
  0 -0.760800 45.827175 2.446228 0.017132 0.974683 0.222935 0.197567 0.247063 1 0 1.000000
flesh_hand_01
  0 4.585037 45.273899 4.160985 0.049578 0.985321 0.163355 0.079355 0.137703 1 0 1.000000
  0 -0.760800 45.827175 2.446228 0.017132 0.974683 0.222935 0.197567 0.247063 1 0 1.000000
  0 0.053200 45.110592 5.662823 0.027198 0.981419 0.189939 0.073401 0.280074 1 0 1.000000
flesh_hand_01
  0 5.705248 45.550549 1.293739 0.063638 0.982140 0.177060 0.166088 0.060608 1 0 1.000000
  0 -0.760800 45.827175 2.446228 0.017132 0.974683 0.222935 0.197567 0.247063 1 0 1.000000
  0 4.585037 45.273899 4.160985 0.049578 0.985321 0.163355 0.079355 0.137703 1 0 1.000000
flesh_hand_01
  0 5.705248 45.550549 1.293739 0.063638 0.982140 0.177060 0.166088 0.060608 1 0 1.000000
  0 4.915398 45.933338 -0.410546 0.077672 0.978572 0.190694 0.237845 0.060394 1 0 1.000000
  0 -0.760800 45.827175 2.446228 0.017132 0.974683 0.222935 0.197567 0.247063 1 0 1.000000
flesh_hand_01
  0 -5.143562 43.915112 -2.931298 -0.517441 -0.361031 -0.775829 0.816370 0.083098 1 0 1.000000
  0 -5.803587 44.180496 -2.061310 -0.897978 -0.354727 -0.260394 0.816748 0.024146 1 0 1.000000
  0 -6.154850 45.630520 -3.809059 -0.411912 -0.593479 -0.691456 0.995596 0.084097 1 0 1.000000
flesh_hand_01
  0 -6.154850 45.630520 -3.809059 -0.411912 -0.593479 -0.691456 0.995596 0.084097 1 0 1.000000
  0 -5.803587 44.180496 -2.061310 -0.897978 -0.354727 -0.260394 0.816748 0.024146 1 0 1.000000
  0 -7.464174 45.565140 -2.172038 -0.662185 -0.744883 -0.081611 0.998201 0.006092 1 0 1.000000
flesh_hand_01
  0 -5.803587 44.180496 -2.061310 -0.897978 -0.354727 -0.260394 0.816748 0.024146 1 0 1.000000
  0 -5.743053 44.278584 -1.663991 -0.909231 -0.350248 0.224999 0.816884 0.002876 1 0 1.000000
  0 -7.464174 45.565140 -2.172038 -0.662185 -0.744883 -0.081611 0.998201 0.006092 1 0 1.000000
flesh_hand_01
  0 -5.898738 42.685509 -1.515619 -0.977629 -0.014372 -0.209843 0.686482 0.001268 1 0 1.000000
  0 -5.743053 44.278584 -1.663991 -0.909231 -0.350248 0.224999 0.816884 0.002876 1 0 1.000000
  0 -5.803587 44.180496 -2.061310 -0.897978 -0.354727 -0.260394 0.816748 0.024146 1 0 1.000000
flesh_hand_01
  0 -5.335429 42.531769 -2.396907 -0.753863 -0.159421 -0.637398 0.686840 0.056044 1 0 1.000000
  0 -5.898738 42.685509 -1.515619 -0.977629 -0.014372 -0.209843 0.686482 0.001268 1 0 1.000000
  0 -5.803587 44.180496 -2.061310 -0.897978 -0.354727 -0.260394 0.816748 0.024146 1 0 1.000000
flesh_hand_01
  0 -5.803587 44.180496 -2.061310 -0.897978 -0.354727 -0.260394 0.816748 0.024146 1 0 1.000000
  0 -5.143562 43.915112 -2.931298 -0.517441 -0.361031 -0.775829 0.816370 0.083098 1 0 1.000000
  0 -5.335429 42.531769 -2.396907 -0.753863 -0.159421 -0.637398 0.686840 0.056044 1 0 1.000000
flesh_hand_01
  0 -5.143562 43.915112 -2.931298 -0.517441 -0.361031 -0.775829 0.816370 0.083098 1 0 1.000000
  0 -4.960189 42.425102 -2.640009 -0.418923 -0.228756 -0.878734 0.687014 0.082598 1 0 1.000000
  0 -5.335429 42.531769 -2.396907 -0.753863 -0.159421 -0.637398 0.686840 0.056044 1 0 1.000000
flesh_hand_01
  0 -5.143562 43.915112 -2.931298 -0.517441 -0.361031 -0.775829 0.816370 0.083098 1 0 1.000000
  0 -3.244982 42.495632 -3.095971 -0.250272 -0.225516 -0.941545 0.687547 0.163929 1 0 1.000000
  0 -4.960189 42.425102 -2.640009 -0.418923 -0.228756 -0.878734 0.687014 0.082598 1 0 1.000000
flesh_hand_01
  0 -2.840780 43.988686 -3.577877 -0.208863 -0.342766 -0.915908 0.815857 0.163320 1 0 1.000000
  0 -3.244982 42.495632 -3.095971 -0.250272 -0.225516 -0.941545 0.687547 0.163929 1 0 1.000000
  0 -5.143562 43.915112 -2.931298 -0.517441 -0.361031 -0.775829 0.816370 0.083098 1 0 1.000000
flesh_hand_01
  0 -5.143562 43.915112 -2.931298 -0.517441 -0.361031 -0.775829 0.816370 0.083098 1 0 1.000000
  0 -2.920392 45.552883 -4.198160 -0.164088 -0.454491 -0.875507 0.992991 0.162102 1 0 1.000000
  0 -2.840780 43.988686 -3.577877 -0.208863 -0.342766 -0.915908 0.815857 0.163320 1 0 1.000000
flesh_hand_01
  0 -6.154850 45.630520 -3.809059 -0.411912 -0.593479 -0.691456 0.995596 0.084097 1 0 1.000000
  0 -2.920392 45.552883 -4.198160 -0.164088 -0.454491 -0.875507 0.992991 0.162102 1 0 1.000000
  0 -5.143562 43.915112 -2.931298 -0.517441 -0.361031 -0.775829 0.816370 0.083098 1 0 1.000000
flesh_hand_01
  0 0.188040 46.790306 1.022381 0.113595 -0.549349 0.827836 0.041986 0.946097 1 0 1.000000
  0 0.023455 46.103794 0.499782 0.113595 -0.549349 0.827836 0.042868 0.874416 1 0 1.000000
  0 1.698421 46.937405 0.014384 0.759263 -0.516731 0.395613 0.189073 0.935857 1 0 1.000000
flesh_hand_01
  0 1.698421 46.937405 0.014384 0.759263 -0.516731 0.395613 0.189073 0.935857 1 0 1.000000
  0 0.023455 46.103794 0.499782 0.113595 -0.549349 0.827836 0.042868 0.874416 1 0 1.000000
  0 1.324892 45.954109 -0.313896 0.759263 -0.516731 0.395613 0.187435 0.879626 1 0 1.000000
flesh_hand_01
  0 1.698421 46.937405 0.014384 0.759263 -0.516731 0.395613 0.189073 0.935857 1 0 1.000000
  0 1.324892 45.954109 -0.313896 0.759263 -0.516731 0.395613 0.187435 0.879626 1 0 1.000000
  0 1.768000 46.920689 -0.938189 0.875119 -0.450971 -0.175475 0.347666 0.937840 1 0 1.000000
flesh_hand_01
  0 1.768000 46.920689 -0.938189 0.875119 -0.450971 -0.175475 0.347666 0.937840 1 0 1.000000
  0 1.324892 45.954109 -0.313896 0.759263 -0.516731 0.395613 0.187435 0.879626 1 0 1.000000
  0 1.254007 45.980274 -0.928094 0.875119 -0.450971 -0.175475 0.340801 0.878648 1 0 1.000000
flesh_hand_01
  0 0.978267 46.220173 -1.857129 0.557605 -0.424987 -0.713066 0.468487 0.880451 1 0 1.000000
  0 1.768000 46.920689 -0.938189 0.875119 -0.450971 -0.175475 0.347666 0.937840 1 0 1.000000
  0 1.254007 45.980274 -0.928094 0.875119 -0.450971 -0.175475 0.340801 0.878648 1 0 1.000000
flesh_hand_01
  0 1.541112 47.475071 -2.294665 0.557605 -0.424987 -0.713066 0.474044 0.934522 1 0 1.000000
  0 1.768000 46.920689 -0.938189 0.875119 -0.450971 -0.175475 0.347666 0.937840 1 0 1.000000
  0 0.978267 46.220173 -1.857129 0.557605 -0.424987 -0.713066 0.468487 0.880451 1 0 1.000000
flesh_hand_01
  0 1.541112 47.475071 -2.294665 0.557605 -0.424987 -0.713066 0.474044 0.934522 1 0 1.000000
  0 0.978267 46.220173 -1.857129 0.557605 -0.424987 -0.713066 0.468487 0.880451 1 0 1.000000
  0 -0.551915 47.633213 -2.603917 -0.128389 -0.304256 -0.943898 0.608972 0.934274 1 0 1.000000
flesh_hand_01
  0 -0.551915 47.633213 -2.603917 -0.128389 -0.304256 -0.943898 0.608972 0.934274 1 0 1.000000
  0 0.978267 46.220173 -1.857129 0.557605 -0.424987 -0.713066 0.468487 0.880451 1 0 1.000000
  0 -0.621379 46.041164 -2.275844 -0.128389 -0.304256 -0.943898 0.607176 0.880665 1 0 1.000000
flesh_hand_01
  0 -0.551915 47.633213 -2.603917 -0.128389 -0.304256 -0.943898 0.608972 0.934274 1 0 1.000000
  0 -0.621379 46.041164 -2.275844 -0.128389 -0.304256 -0.943898 0.607176 0.880665 1 0 1.000000
  0 -2.450089 46.924103 -1.650171 -0.817848 -0.417588 -0.395910 0.714152 0.931788 1 0 1.000000
flesh_hand_01
  0 -2.450089 46.924103 -1.650171 -0.817848 -0.417588 -0.395910 0.714152 0.931788 1 0 1.000000
  0 -0.621379 46.041164 -2.275844 -0.128389 -0.304256 -0.943898 0.607176 0.880665 1 0 1.000000
  0 -1.925107 46.340740 -1.483986 -0.817848 -0.417588 -0.395910 0.716031 0.881913 1 0 1.000000
flesh_hand_01
  0 -1.703407 46.149967 0.045408 -0.641307 -0.502200 0.580105 0.831392 0.880678 1 0 1.000000
  0 -2.450089 46.924103 -1.650171 -0.817848 -0.417588 -0.395910 0.714152 0.931788 1 0 1.000000
  0 -1.925107 46.340740 -1.483986 -0.817848 -0.417588 -0.395910 0.716031 0.881913 1 0 1.000000
flesh_hand_01
  0 -1.848337 47.363750 0.699418 -0.641307 -0.502200 0.580105 0.825010 0.933990 1 0 1.000000
  0 -2.450089 46.924103 -1.650171 -0.817848 -0.417588 -0.395910 0.714152 0.931788 1 0 1.000000
  0 -1.703407 46.149967 0.045408 -0.641307 -0.502200 0.580105 0.831392 0.880678 1 0 1.000000
flesh_hand_01
  0 -1.848337 47.363750 0.699418 -0.641307 -0.502200 0.580105 0.825010 0.933990 1 0 1.000000
  0 -1.703407 46.149967 0.045408 -0.641307 -0.502200 0.580105 0.831392 0.880678 1 0 1.000000
  0 0.188040 46.790306 1.022381 0.113595 -0.549349 0.827836 0.972753 0.945005 1 0 1.000000
flesh_hand_01
  0 0.188040 46.790306 1.022381 0.113595 -0.549349 0.827836 0.972753 0.945005 1 0 1.000000
  0 -1.703407 46.149967 0.045408 -0.641307 -0.502200 0.580105 0.831392 0.880678 1 0 1.000000
  0 0.023455 46.103794 0.499782 0.113595 -0.549349 0.827836 0.974944 0.874979 1 0 1.000000
end
