// Created by Crowbar 0.74
version 1
nodes
  0 "bip_pelvis" -1
  1 "bip_hip_R" 0
  2 "bip_knee_R" 1
  3 "bip_foot_R" 2
  4 "bip_spine_0" 0
  5 "bip_spine_1" 4
  6 "bip_spine_2" 5
  7 "bip_spine_3" 6
  8 "bip_collar_R" 7
  9 "bip_upperArm_R" 8
  10 "bip_lowerArm_R" 9
  11 "bip_hand_R" 10
  12 "bip_Hand_Rotate1_R" 10
  13 "bip_hip_L" 0
  14 "bip_knee_L" 13
  15 "bip_foot_L" 14
  16 "bip_neck" 7
  17 "bip_head" 16
  18 "bip_collar_L" 7
  19 "bip_upperArm_L" 18
  20 "bip_lowerArm_L" 19
  21 "bip_hand_L" 20
  22 "bip_index_0_L" 21
  23 "bip_index_0_R" 11
  24 "bip_Hand_Rotate1_L" 20
  25 "bip_Arm_Rotate1_L" 19
  26 "bip_index_1_L" 22
  27 "bip_middle_0_L" 21
  28 "bip_middle_1_L" 27
  29 "bip_ring_0_L" 21
  30 "bip_ring_1_L" 29
  31 "bip_pinky_0_L" 21
  32 "bip_pinky_1_L" 31
  33 "bip_thumb_0_L" 21
  34 "bip_thumb_1_L" 33
  35 "bip_Hand_Rotate_L" 20
  36 "bip_Arm_Rotate_L" 19
  37 "bip_Pelvis_L" 13
  38 "bip_Arm_Rotate_R" 9
  39 "bip_Arm_Rotate1_R" 9
  40 "bip_kneeMid_L" 14
  41 "Elbow_R" 10
  42 "bip_Pelvis_R" 1
  43 "bip_kneeMid_R" 2
  44 "Elbow_L" 20
  45 "bip_index_1_R" 23
  46 "bip_middle_0_R" 11
  47 "bip_middle_1_R" 46
  48 "bip_ring_0_R" 11
  49 "bip_ring_1_R" 48
  50 "bip_pinky_0_R" 11
  51 "bip_pinky_1_R" 50
  52 "bip_thumb_0_R" 11
  53 "bip_thumb_1_R" 52
  54 "bip_Hand_Rotate_R" 10
  55 "bip_toeEnd_R" 3
  56 "bip_toeEnd_L" 15
  57 "bip_indexEnd_L" 26
  58 "bip_middleEnd_L" 28
  59 "bip_RingEnd_L" 30
  60 "bip_pinkyEnd_L" 32
  61 "bip_thumbEnd_L" 34
  62 "Wp_L" 21
  63 "bip_indexEnd_R" 45
  64 "bip_middleEnd_R" 47
  65 "bip_ringEnd_R" 49
  66 "bip_pinkyEnd_R" 51
  67 "bip_thumbEnd_R" 53
  68 "Wp_R" 11
  69 "bip_forward" 17
  70 "bip_clipbone" 11
end
skeleton
  time 0
    0 0.000000 39.563190 0.000000 0.000000 0.000000 0.000000
    1 -3.366135 -1.935646 1.480067 0.111246 0.039216 -1.700668
    2 16.045450 0.000000 0.000000 -0.000323 0.133775 -0.002420
    3 17.465778 0.000001 0.000001 -0.159390 -0.178530 1.736820
    4 0.000000 4.240540 1.190873 0.000000 0.000000 0.000000
    5 0.000000 5.143673 -0.566893 0.000000 0.000000 0.000000
    6 0.000000 4.011826 -0.435470 0.000000 0.000000 0.000000
    7 0.000000 3.724953 -0.655500 0.000000 0.000000 0.000000
    8 -2.166257 -0.155743 -0.180534 0.000000 0.000000 0.157080
    9 -4.301173 0.280510 -0.232197 1.514108 -0.019862 -2.351989
    10 11.236193 0.000000 0.000004 0.000001 -0.001411 0.443439
    11 9.693705 0.000000 0.000000 1.748300 -0.156891 3.091171
    12 7.480289 0.006109 -0.010555 1.740287 -0.001411 -3.140776
    13 3.366135 -1.935787 1.480067 -0.111239 0.039223 -1.440926
    14 16.045298 0.000001 0.000000 0.000323 0.133775 0.002421
    15 17.465788 0.000000 0.000000 2.982194 0.178536 1.404771
    16 0.000000 3.134243 -0.066059 0.000000 0.000000 0.000000
    17 0.063361 3.268921 0.898785 0.000000 0.000000 0.000000
    18 2.166257 -0.155926 -0.180536 3.141592 0.000000 -0.157080
    19 4.301145 -0.280594 0.232197 0.056693 0.019859 0.789599
    20 11.236181 -0.000027 -0.000006 0.000000 0.444256 0.000000
    21 9.693651 -0.013687 0.007915 0.169489 -0.050609 0.155683
    22 3.443607 -0.311180 -1.426107 0.025754 0.180665 0.039288
    23 -3.443645 0.311172 1.426091 0.025754 0.180665 0.039288
    24 7.480257 -0.000008 -0.000010 0.169489 0.000000 0.000000
    25 6.472908 -0.000031 -0.000001 -0.028346 0.000000 0.000000
    26 1.726654 -0.000004 0.000009 0.000000 0.000000 0.507966
    27 3.628399 -0.413433 -0.461199 -0.017992 0.035722 0.129722
    28 1.717384 -0.000019 -0.000012 0.000000 0.000000 0.296827
    29 3.622608 -0.257954 0.410928 -0.173205 -0.117278 0.214490
    30 1.717384 0.000017 0.000010 0.000000 0.000000 0.254297
    31 3.401308 0.004623 1.218914 -0.166412 -0.272554 0.134906
    32 1.462820 -0.000019 -0.000014 0.000000 0.000000 0.476304
    33 1.013556 0.134880 -1.638489 -0.195039 0.518495 0.573015
    34 1.567802 0.078053 0.000011 0.000000 0.302710 0.000000
    35 4.488096 -0.000061 -0.000023 0.084744 0.000000 0.000000
    36 3.480602 -0.000145 -0.000002 -0.043610 0.000000 0.000000
    37 2.222412 0.000015 -0.267579 -3.088133 -0.110996 1.564869
    38 3.480843 0.000000 0.000004 1.527190 0.000000 3.141593
    39 6.472961 0.000000 0.000000 1.542452 0.000000 3.141593
    40 0.000000 0.000000 0.000000 3.047043 0.186859 1.513152
    41 0.000002 -0.000001 0.000000 1.571107 -0.001377 2.920281
    42 2.222565 0.000001 -0.267583 0.053460 0.111003 1.576724
    43 0.000000 0.000000 0.000000 -0.094550 -0.186859 1.628441
    44 0.000000 0.000000 -0.000001 0.000000 -0.222128 0.000000
    45 -1.726627 0.000000 0.000000 0.000000 0.000000 0.507966
    46 -3.628420 0.413422 0.461190 -0.017992 0.035722 0.129722
    47 -1.717388 0.000000 0.000001 0.000000 0.000000 0.296827
    48 -3.622635 0.257938 -0.410944 -0.173205 -0.117278 0.214490
    49 -1.717390 -0.000002 0.000000 0.000000 0.000000 0.254297
    50 -3.401335 -0.004631 -1.218926 -0.166412 -0.272554 0.134906
    51 -1.462816 -0.000004 0.000000 0.000000 0.000000 0.476304
    52 -1.013588 -0.134895 1.638474 -0.195039 0.518495 0.573015
    53 -1.567801 -0.078051 0.000000 0.000000 0.302710 0.000000
    54 4.488173 0.003667 -0.006332 1.655541 -0.001411 -3.140776
    55 -0.035184 -3.529829 6.683560 0.000000 0.000000 0.000000
    56 0.035217 3.529826 -6.683582 0.000000 0.000000 0.000000
    57 1.878918 0.000004 -0.000005 -0.337833 0.000000 0.000000
    58 1.878918 0.000006 -0.000004 -0.337833 0.000000 0.000000
    59 1.878920 -0.000013 -0.000011 -0.337833 0.000000 0.000000
    60 1.878929 0.000004 0.000001 -0.337833 0.000000 0.000000
    61 1.490896 0.144535 -0.268490 -0.337833 0.000000 0.000000
    62 3.058685 1.032097 -0.605999 0.000000 0.334862 0.049595
    63 -1.878929 0.000002 0.000002 -0.337833 0.000000 0.000000
    64 -1.878931 0.000002 0.000001 -0.337833 0.000000 0.000000
    65 -1.878933 0.000002 0.000000 -0.337833 0.000000 0.000000
    66 -1.878937 0.000004 0.000000 -0.337833 0.000000 0.000000
    67 -1.490896 -0.144542 0.268478 -0.337833 0.000000 0.000000
    68 -3.058714 -1.032104 0.605986 0.000000 0.334862 0.049595
    69 0.000000 0.000000 4.750000 0.000000 -1.570796 -1.570796
    70 -2.849998 0.000000 0.000000 0.000000 0.000000 0.000000
end
triangles
models\Characters\Eyes\template_head
  17 -3.180834 65.165169 0.212429 -0.927718 0.281827 0.244772 0.170505 0.936251 1 17 1.000000
  17 -3.101211 65.171280 -0.737868 -0.847872 0.332029 -0.413365 0.130710 0.942515 1 17 1.000000
  17 -3.648797 65.544029 -0.209733 -0.908109 0.313800 0.277251 0.154034 0.958860 1 17 1.000000
models\Characters\Eyes\template_head
  17 -3.648797 65.544029 -0.209733 -0.908109 0.313800 0.277251 0.154034 0.958860 1 17 1.000000
  17 -3.101211 65.171280 -0.737868 -0.847872 0.332029 -0.413365 0.130710 0.942515 1 17 1.000000
  17 -3.865803 65.143570 -1.010350 -0.138819 0.303499 -0.942665 0.101612 0.962364 1 17 1.000000
models\Characters\Eyes\template_head
  17 -2.869908 64.453949 -0.799018 -0.375350 0.027874 -0.926464 0.101080 0.929780 1 17 1.000000
  17 -3.865803 65.143570 -1.010350 -0.138819 0.303499 -0.942665 0.101612 0.962364 1 17 1.000000
  17 -3.101211 65.171280 -0.737868 -0.847872 0.332029 -0.413365 0.130710 0.942515 1 17 1.000000
models\Characters\Eyes\template_head
  17 -2.869908 64.453949 -0.799018 -0.375350 0.027874 -0.926464 0.101080 0.929780 1 17 1.000000
  17 -3.559599 63.967770 -0.974330 -0.220138 -0.547841 -0.807099 0.050723 0.897940 1 17 1.000000
  17 -3.865803 65.143570 -1.010350 -0.138819 0.303499 -0.942665 0.101612 0.962364 1 17 1.000000
models\Characters\Eyes\template_head
  17 -2.727400 63.260960 -0.216561 -0.178610 -0.676478 -0.714476 0.067023 0.885791 1 17 1.000000
  17 -3.559599 63.967770 -0.974330 -0.220138 -0.547841 -0.807099 0.050723 0.897940 1 17 1.000000
  17 -2.869908 64.453949 -0.799018 -0.375350 0.027874 -0.926464 0.101080 0.929780 1 17 1.000000
models\Characters\Eyes\template_head
  17 -3.559599 63.967770 -0.974330 -0.220138 -0.547841 -0.807099 0.050723 0.897940 1 17 1.000000
  17 -2.727400 63.260960 -0.216561 -0.178610 -0.676478 -0.714476 0.067023 0.885791 1 17 1.000000
  17 -3.167832 62.995636 -0.125766 -0.494284 -0.868694 0.032450 0.042330 0.869587 1 17 1.000000
models\Characters\Eyes\template_head
  17 -3.167832 62.995636 -0.125766 -0.494284 -0.868694 0.032450 0.042330 0.869587 1 17 1.000000
  17 -2.727400 63.260960 -0.216561 -0.178610 -0.676478 -0.714476 0.067023 0.885791 1 17 1.000000
  17 -2.825247 63.147579 0.370485 -0.865891 -0.478914 0.144478 0.051014 0.846418 1 17 1.000000
models\Characters\Eyes\template_head
  17 -2.161450 65.846527 3.469069 -0.748838 -0.251473 0.613190 0.576480 0.404523 1 17 1.000000
  17 -2.168424 66.246552 3.267938 -0.761452 0.417748 0.495659 0.585954 0.412877 1 17 1.000000
  17 -2.633612 65.969116 2.362173 -0.936548 0.159121 0.312344 0.626289 0.375534 1 17 1.000000
models\Characters\Eyes\template_head
  17 -2.168424 66.246552 3.267938 -0.761452 0.417748 0.495659 0.585954 0.412877 1 17 1.000000
  17 -2.161450 65.846527 3.469069 -0.748838 -0.251473 0.613190 0.576480 0.404523 1 17 1.000000
  17 -1.499860 66.203323 4.094825 -0.561507 0.472996 0.678959 0.560710 0.445572 1 17 1.000000
models\Characters\Eyes\template_head
  17 1.518602 65.736938 4.222634 0.517118 -0.182453 0.836242 0.448894 0.537710 1 17 1.000000
  17 1.514727 66.203323 4.094824 0.561507 0.472996 0.678959 0.463303 0.543183 1 17 1.000000
  17 0.682086 65.575401 4.481877 0.149828 -0.128569 0.980317 0.467637 0.508671 1 17 1.000000
models\Characters\Eyes\template_head
  17 0.682086 65.575401 4.481877 0.149828 -0.128569 0.980317 0.467637 0.508671 1 17 1.000000
  17 1.514727 66.203323 4.094824 0.561507 0.472996 0.678959 0.463303 0.543183 1 17 1.000000
  17 0.007434 66.170685 4.330972 0.000000 0.368340 0.929691 0.515741 0.498112 1 17 1.000000
models\Characters\Eyes\template_head
  17 1.514727 66.203323 4.094824 0.561507 0.472996 0.678959 0.463303 0.543183 1 17 1.000000
  17 0.007433 68.063004 3.073982 -0.034474 0.512428 0.858038 0.579907 0.570081 1 17 1.000000
  17 0.007434 66.170685 4.330972 0.000000 0.368340 0.929691 0.515741 0.498112 1 17 1.000000
models\Characters\Eyes\template_head
  17 0.007433 68.063004 3.073982 -0.034474 0.512428 0.858038 0.579907 0.570081 1 17 1.000000
  17 -1.499860 66.203323 4.094825 -0.561507 0.472996 0.678959 0.560710 0.445572 1 17 1.000000
  17 0.007434 66.170685 4.330972 0.000000 0.368340 0.929691 0.515741 0.498112 1 17 1.000000
models\Characters\Eyes\template_head
  17 -1.608297 67.881805 2.314188 -0.595608 0.529030 0.604465 0.674678 0.487219 1 17 1.000000
  17 -1.499860 66.203323 4.094825 -0.561507 0.472996 0.678959 0.560710 0.445572 1 17 1.000000
  17 0.007433 68.063004 3.073982 -0.034474 0.512428 0.858038 0.579907 0.570081 1 17 1.000000
models\Characters\Eyes\template_head
  17 -1.499860 66.203323 4.094825 -0.561507 0.472996 0.678959 0.560710 0.445572 1 17 1.000000
  17 -1.608297 67.881805 2.314188 -0.595608 0.529030 0.604465 0.674678 0.487219 1 17 1.000000
  17 -2.168424 66.246552 3.267938 -0.761452 0.417748 0.495659 0.585954 0.412877 1 17 1.000000
models\Characters\Eyes\template_head
  17 -2.168424 66.246552 3.267938 -0.761452 0.417748 0.495659 0.585954 0.412877 1 17 1.000000
  17 -1.608297 67.881805 2.314188 -0.595608 0.529030 0.604465 0.674678 0.487219 1 17 1.000000
  17 -2.114622 67.821274 1.560137 -0.811687 0.401162 0.424539 0.722562 0.444171 1 17 1.000000
models\Characters\Eyes\template_head
  17 -2.114622 67.821274 1.560137 -0.811687 0.401162 0.424539 0.722562 0.444171 1 17 1.000000
  17 -2.633612 65.969116 2.362173 -0.936548 0.159121 0.312344 0.626289 0.375534 1 17 1.000000
  17 -2.168424 66.246552 3.267938 -0.761452 0.417748 0.495659 0.585954 0.412877 1 17 1.000000
models\Characters\Eyes\template_head
  17 -2.798612 67.291710 0.681363 -0.943852 0.284621 0.167730 0.752064 0.367151 1 17 1.000000
  17 -2.633612 65.969116 2.362173 -0.936548 0.159121 0.312344 0.626289 0.375534 1 17 1.000000
  17 -2.114622 67.821274 1.560137 -0.811687 0.401162 0.424539 0.722562 0.444171 1 17 1.000000
models\Characters\Eyes\template_head
  17 -2.798612 67.291710 0.681363 -0.943852 0.284621 0.167730 0.752064 0.367151 1 17 1.000000
  17 -3.180834 65.165169 0.212429 -0.927718 0.281827 0.244772 0.685622 0.276405 1 17 1.000000
  17 -2.633612 65.969116 2.362173 -0.936548 0.159121 0.312344 0.626289 0.375534 1 17 1.000000
models\Characters\Eyes\template_head
  17 -3.180834 65.165169 0.212429 -0.927718 0.281827 0.244772 0.685622 0.276405 1 17 1.000000
  17 -2.798612 67.291710 0.681363 -0.943852 0.284621 0.167730 0.752064 0.367151 1 17 1.000000
  17 -3.101211 65.171280 -0.737868 -0.847872 0.332029 -0.413365 0.740461 0.250197 1 17 1.000000
models\Characters\Eyes\template_head
  17 -3.101211 65.171280 -0.737868 -0.847872 0.332029 -0.413365 0.740461 0.250197 1 17 1.000000
  17 -2.798612 67.291710 0.681363 -0.943852 0.284621 0.167730 0.752064 0.367151 1 17 1.000000
  17 -2.854603 66.390442 -1.286833 -0.906629 0.040032 -0.420025 0.797083 0.296289 1 17 1.000000
models\Characters\Eyes\template_head
  17 -2.854603 66.390442 -1.286833 -0.906629 0.040032 -0.420025 0.797083 0.296289 1 17 1.000000
  17 -2.413786 63.700024 -1.491529 -0.745169 -0.282232 -0.604209 0.743329 0.172946 1 17 1.000000
  17 -3.101211 65.171280 -0.737868 -0.847872 0.332029 -0.413365 0.740461 0.250197 1 17 1.000000
models\Characters\Eyes\template_head
  17 -2.854603 66.390442 -1.286833 -0.906629 0.040032 -0.420025 0.797083 0.296289 1 17 1.000000
  17 -1.726226 64.710922 -2.393732 -0.417488 -0.217932 -0.882162 0.815021 0.195676 1 17 1.000000
  17 -2.413786 63.700024 -1.491529 -0.745169 -0.282232 -0.604209 0.743329 0.172946 1 17 1.000000
models\Characters\Eyes\template_head
  17 -1.726226 64.710922 -2.393732 -0.417488 -0.217932 -0.882162 0.815021 0.195676 1 17 1.000000
  16 -1.136481 62.398853 -1.296751 -0.496105 0.181038 -0.849179 0.741497 0.093875 1 16 1.000000
  17 -2.413786 63.700024 -1.491529 -0.745169 -0.282232 -0.604209 0.743329 0.172946 1 17 1.000000
models\Characters\Eyes\template_head
  17 -1.726226 64.710922 -2.393732 -0.417488 -0.217932 -0.882162 0.815021 0.195676 1 17 1.000000
  16 0.002850 62.459656 -1.738501 0.000000 0.043003 -0.999075 0.800213 0.054874 1 16 1.000000
  16 -1.136481 62.398853 -1.296751 -0.496105 0.181038 -0.849179 0.741497 0.093875 1 16 1.000000
models\Characters\Eyes\template_head
  17 0.007435 64.578072 -2.920635 -0.000622 -0.328038 -0.944664 0.879459 0.139708 1 17 1.000000
  16 0.002850 62.459656 -1.738501 0.000000 0.043003 -0.999075 0.800213 0.054874 1 16 1.000000
  17 -1.726226 64.710922 -2.393732 -0.417488 -0.217932 -0.882162 0.815021 0.195676 1 17 1.000000
models\Characters\Eyes\template_head
  17 0.007435 64.578072 -2.920635 -0.000622 -0.328038 -0.944664 0.879459 0.139708 1 17 1.000000
  17 -1.726226 64.710922 -2.393732 -0.417488 -0.217932 -0.882162 0.815021 0.195676 1 17 1.000000
  17 0.007435 67.207153 -2.950538 -0.011918 0.228712 -0.973421 0.952191 0.231586 1 17 1.000000
models\Characters\Eyes\template_head
  17 0.682086 65.575401 4.481877 0.149828 -0.128569 0.980317 0.467637 0.508671 1 17 1.000000
  17 0.007434 66.170685 4.330972 0.000000 0.368340 0.929691 0.515741 0.498112 1 17 1.000000
  17 0.007435 65.719765 4.449183 0.000000 -0.063665 0.997971 0.496722 0.479093 1 17 1.000000
models\Characters\Eyes\template_head
  17 -2.413786 63.700024 -1.491529 -0.745169 -0.282232 -0.604209 0.743329 0.172946 1 17 1.000000
  16 -1.136481 62.398853 -1.296751 -0.496105 0.181038 -0.849179 0.741497 0.093875 1 16 1.000000
  16 -1.907655 62.083820 -0.655501 -0.895062 0.066005 -0.441030 0.694516 0.131457 1 16 1.000000
models\Characters\Eyes\template_head
  17 -2.055164 66.977440 -2.376367 -0.606101 0.146826 -0.781719 0.842816 0.293079 1 17 1.000000
  17 -1.726226 64.710922 -2.393732 -0.417488 -0.217932 -0.882162 0.815021 0.195676 1 17 1.000000
  17 -2.854603 66.390442 -1.286833 -0.906629 0.040032 -0.420025 0.797083 0.296289 1 17 1.000000
models\Characters\Eyes\template_head
  17 0.007435 67.207153 -2.950538 -0.011918 0.228712 -0.973421 0.952191 0.231586 1 17 1.000000
  17 -1.726226 64.710922 -2.393732 -0.417488 -0.217932 -0.882162 0.815021 0.195676 1 17 1.000000
  17 -2.055164 66.977440 -2.376367 -0.606101 0.146826 -0.781719 0.842816 0.293079 1 17 1.000000
models\Characters\Eyes\template_head
  17 -2.169563 68.231445 -1.694107 -0.580613 0.541181 -0.608286 0.841549 0.331836 1 17 1.000000
  17 0.007435 67.207153 -2.950538 -0.011918 0.228712 -0.973421 0.952191 0.231586 1 17 1.000000
  17 -2.055164 66.977440 -2.376367 -0.606101 0.146826 -0.781719 0.842816 0.293079 1 17 1.000000
models\Characters\Eyes\template_head
  17 -2.854603 66.390442 -1.286833 -0.906629 0.040032 -0.420025 0.797083 0.296289 1 17 1.000000
  17 -2.169563 68.231445 -1.694107 -0.580613 0.541181 -0.608286 0.841549 0.331836 1 17 1.000000
  17 -2.055164 66.977440 -2.376367 -0.606101 0.146826 -0.781719 0.842816 0.293079 1 17 1.000000
models\Characters\Eyes\template_head
  17 -2.800380 67.503067 -0.443422 -0.929976 0.352344 -0.104869 0.772107 0.339526 1 17 1.000000
  17 -2.169563 68.231445 -1.694107 -0.580613 0.541181 -0.608286 0.841549 0.331836 1 17 1.000000
  17 -2.854603 66.390442 -1.286833 -0.906629 0.040032 -0.420025 0.797083 0.296289 1 17 1.000000
models\Characters\Eyes\template_head
  17 -2.854603 66.390442 -1.286833 -0.906629 0.040032 -0.420025 0.797083 0.296289 1 17 1.000000
  17 -2.798612 67.291710 0.681363 -0.943852 0.284621 0.167730 0.752064 0.367151 1 17 1.000000
  17 -2.800380 67.503067 -0.443422 -0.929976 0.352344 -0.104869 0.772107 0.339526 1 17 1.000000
models\Characters\Eyes\template_head
  17 -2.261754 68.269653 0.926309 -0.848667 0.461217 0.258927 0.767096 0.441118 1 17 1.000000
  17 -2.800380 67.503067 -0.443422 -0.929976 0.352344 -0.104869 0.772107 0.339526 1 17 1.000000
  17 -2.798612 67.291710 0.681363 -0.943852 0.284621 0.167730 0.752064 0.367151 1 17 1.000000
models\Characters\Eyes\template_head
  17 -2.114622 67.821274 1.560137 -0.811687 0.401162 0.424539 0.722562 0.444171 1 17 1.000000
  17 -2.261754 68.269653 0.926309 -0.848667 0.461217 0.258927 0.767096 0.441118 1 17 1.000000
  17 -2.798612 67.291710 0.681363 -0.943852 0.284621 0.167730 0.752064 0.367151 1 17 1.000000
models\Characters\Eyes\template_head
  17 -2.261754 68.269653 0.926309 -0.848667 0.461217 0.258927 0.767096 0.441118 1 17 1.000000
  17 -2.114622 67.821274 1.560137 -0.811687 0.401162 0.424539 0.722562 0.444171 1 17 1.000000
  17 -1.535854 68.385376 2.109871 -0.571907 0.627068 0.528875 0.716581 0.512929 1 17 1.000000
models\Characters\Eyes\template_head
  17 -1.535854 68.385376 2.109871 -0.571907 0.627068 0.528875 0.716581 0.512929 1 17 1.000000
  17 -2.114622 67.821274 1.560137 -0.811687 0.401162 0.424539 0.722562 0.444171 1 17 1.000000
  17 -1.608297 67.881805 2.314188 -0.595608 0.529030 0.604465 0.674678 0.487219 1 17 1.000000
models\Characters\Eyes\template_head
  17 -1.608297 67.881805 2.314188 -0.595608 0.529030 0.604465 0.674678 0.487219 1 17 1.000000
  17 0.015611 68.615387 2.572919 -0.025450 0.811791 0.583394 0.620335 0.606885 1 17 1.000000
  17 -1.535854 68.385376 2.109871 -0.571907 0.627068 0.528875 0.716581 0.512929 1 17 1.000000
models\Characters\Eyes\template_head
  17 0.007433 68.063004 3.073982 -0.034474 0.512428 0.858038 0.579907 0.570081 1 17 1.000000
  17 0.015611 68.615387 2.572919 -0.025450 0.811791 0.583394 0.620335 0.606885 1 17 1.000000
  17 -1.608297 67.881805 2.314188 -0.595608 0.529030 0.604465 0.674678 0.487219 1 17 1.000000
models\Characters\Eyes\template_head
  17 1.623165 67.974953 2.479426 0.578359 0.590625 0.562728 0.500975 0.668971 1 17 1.000000
  17 0.015611 68.615387 2.572919 -0.025450 0.811791 0.583394 0.620335 0.606885 1 17 1.000000
  17 0.007433 68.063004 3.073982 -0.034474 0.512428 0.858038 0.579907 0.570081 1 17 1.000000
models\Characters\Eyes\template_head
  17 1.623165 67.974953 2.479426 0.578359 0.590625 0.562728 0.500975 0.668971 1 17 1.000000
  17 0.007433 68.063004 3.073982 -0.034474 0.512428 0.858038 0.579907 0.570081 1 17 1.000000
  17 1.514727 66.203323 4.094824 0.561507 0.472996 0.678959 0.463303 0.543183 1 17 1.000000
models\Characters\Eyes\template_head
  17 2.183292 66.246552 3.267939 0.761451 0.417747 0.495660 0.430619 0.568439 1 17 1.000000
  17 1.623165 67.974953 2.479426 0.578359 0.590625 0.562728 0.500975 0.668971 1 17 1.000000
  17 1.514727 66.203323 4.094824 0.561507 0.472996 0.678959 0.463303 0.543183 1 17 1.000000
models\Characters\Eyes\template_head
  17 2.183292 66.246552 3.267939 0.761451 0.417747 0.495660 0.430619 0.568439 1 17 1.000000
  17 1.514727 66.203323 4.094824 0.561507 0.472996 0.678959 0.463303 0.543183 1 17 1.000000
  17 2.176318 65.846527 3.469069 0.748837 -0.251472 0.613192 0.422266 0.558964 1 17 1.000000
models\Characters\Eyes\template_head
  17 2.648479 65.969116 2.362173 0.936547 0.159121 0.312347 0.393277 0.608774 1 17 1.000000
  17 2.183292 66.246552 3.267939 0.761451 0.417747 0.495660 0.430619 0.568439 1 17 1.000000
  17 2.176318 65.846527 3.469069 0.748837 -0.251472 0.613192 0.422266 0.558964 1 17 1.000000
models\Characters\Eyes\template_head
  17 1.721232 64.886986 3.380800 0.702718 -0.214528 0.678355 0.413757 0.530264 1 17 1.000000
  17 2.648479 65.969116 2.362173 0.936547 0.159121 0.312347 0.393277 0.608774 1 17 1.000000
  17 2.176318 65.846527 3.469069 0.748837 -0.251472 0.613192 0.422266 0.558964 1 17 1.000000
models\Characters\Eyes\template_head
  17 2.176318 65.846527 3.469069 0.748837 -0.251472 0.613192 0.422266 0.558964 1 17 1.000000
  17 1.518602 65.736938 4.222634 0.517118 -0.182453 0.836242 0.448894 0.537710 1 17 1.000000
  17 1.721232 64.886986 3.380800 0.702718 -0.214528 0.678355 0.413757 0.530264 1 17 1.000000
models\Characters\Eyes\template_head
  17 2.648479 65.969116 2.362173 0.936547 0.159121 0.312347 0.393277 0.608774 1 17 1.000000
  17 1.623165 67.974953 2.479426 0.578359 0.590625 0.562728 0.500975 0.668971 1 17 1.000000
  17 2.183292 66.246552 3.267939 0.761451 0.417747 0.495660 0.430619 0.568439 1 17 1.000000
models\Characters\Eyes\template_head
  17 2.176318 65.846527 3.469069 0.748837 -0.251472 0.613192 0.422266 0.558964 1 17 1.000000
  17 1.514727 66.203323 4.094824 0.561507 0.472996 0.678959 0.463303 0.543183 1 17 1.000000
  17 1.518602 65.736938 4.222634 0.517118 -0.182453 0.836242 0.448894 0.537710 1 17 1.000000
models\Characters\Eyes\template_head
  17 -2.261754 68.269653 0.926309 -0.848667 0.461217 0.258927 0.767096 0.441118 1 17 1.000000
  17 -1.535854 68.385376 2.109871 -0.571907 0.627068 0.528875 0.716581 0.512929 1 17 1.000000
  17 -1.986544 68.811546 0.641666 -0.531101 0.834463 0.146981 0.796574 0.479067 1 17 1.000000
models\Characters\Eyes\template_head
  17 0.015611 68.615387 2.572919 -0.025450 0.811791 0.583394 0.620335 0.606885 1 17 1.000000
  17 0.015611 69.392410 0.750185 -0.011080 0.987784 0.155432 0.717601 0.658886 1 17 1.000000
  17 -1.535854 68.385376 2.109871 -0.571907 0.627068 0.528875 0.716581 0.512929 1 17 1.000000
models\Characters\Eyes\template_head
  17 -1.535854 68.385376 2.109871 -0.571907 0.627068 0.528875 0.716581 0.512929 1 17 1.000000
  17 0.015611 69.392410 0.750185 -0.011080 0.987784 0.155432 0.717601 0.658886 1 17 1.000000
  17 -1.986544 68.811546 0.641666 -0.531101 0.834463 0.146981 0.796574 0.479067 1 17 1.000000
models\Characters\Eyes\template_head
  17 -0.077187 69.288467 -0.932254 -0.075844 0.972148 -0.221756 0.915180 0.466324 1 17 1.000000
  17 -1.986544 68.811546 0.641666 -0.531101 0.834463 0.146981 0.796574 0.479067 1 17 1.000000
  17 0.015611 69.392410 0.750185 -0.011080 0.987784 0.155432 0.717601 0.658886 1 17 1.000000
models\Characters\Eyes\template_head
  17 -0.077187 69.288467 -0.932254 -0.075844 0.972148 -0.221756 0.915180 0.466324 1 17 1.000000
  17 -2.219570 68.586334 -0.889683 -0.707905 0.693318 -0.134834 0.857359 0.390518 1 17 1.000000
  17 -1.986544 68.811546 0.641666 -0.531101 0.834463 0.146981 0.796574 0.479067 1 17 1.000000
models\Characters\Eyes\template_head
  17 -2.261754 68.269653 0.926309 -0.848667 0.461217 0.258927 0.767096 0.441118 1 17 1.000000
  17 -1.986544 68.811546 0.641666 -0.531101 0.834463 0.146981 0.796574 0.479067 1 17 1.000000
  17 -2.219570 68.586334 -0.889683 -0.707905 0.693318 -0.134834 0.857359 0.390518 1 17 1.000000
models\Characters\Eyes\template_head
  17 -2.261754 68.269653 0.926309 -0.848667 0.461217 0.258927 0.767096 0.441118 1 17 1.000000
  17 -2.219570 68.586334 -0.889683 -0.707905 0.693318 -0.134834 0.857359 0.390518 1 17 1.000000
  17 -2.800380 67.503067 -0.443422 -0.929976 0.352344 -0.104869 0.772107 0.339526 1 17 1.000000
models\Characters\Eyes\template_head
  17 -2.219570 68.586334 -0.889683 -0.707905 0.693318 -0.134834 0.857359 0.390518 1 17 1.000000
  17 -2.169563 68.231445 -1.694107 -0.580613 0.541181 -0.608286 0.841549 0.331836 1 17 1.000000
  17 -2.800380 67.503067 -0.443422 -0.929976 0.352344 -0.104869 0.772107 0.339526 1 17 1.000000
models\Characters\Eyes\template_head
  17 -2.219570 68.586334 -0.889683 -0.707905 0.693318 -0.134834 0.857359 0.390518 1 17 1.000000
  17 -0.103666 68.711769 -2.024042 -0.021731 0.746081 -0.665501 0.967826 0.308478 1 17 1.000000
  17 -2.169563 68.231445 -1.694107 -0.580613 0.541181 -0.608286 0.841549 0.331836 1 17 1.000000
models\Characters\Eyes\template_head
  17 -0.103666 68.711769 -2.024042 -0.021731 0.746081 -0.665501 0.967826 0.308478 1 17 1.000000
  17 0.007435 67.207153 -2.950538 -0.011918 0.228712 -0.973421 0.952191 0.231586 1 17 1.000000
  17 -2.169563 68.231445 -1.694107 -0.580613 0.541181 -0.608286 0.841549 0.331836 1 17 1.000000
models\Characters\Eyes\template_head
  17 -0.077187 69.288467 -0.932254 -0.075844 0.972148 -0.221756 0.915180 0.466324 1 17 1.000000
  17 -0.103666 68.711769 -2.024042 -0.021731 0.746081 -0.665501 0.967826 0.308478 1 17 1.000000
  17 -2.219570 68.586334 -0.889683 -0.707905 0.693318 -0.134834 0.857359 0.390518 1 17 1.000000
models\Characters\Eyes\template_head
  17 2.929874 67.503067 -0.283032 0.940369 0.338919 0.028967 0.361863 0.765692 1 17 1.000000
  17 2.064767 68.826057 0.591979 0.606689 0.781133 0.147513 0.489883 0.776090 1 17 1.000000
  17 2.675647 67.291710 0.681363 0.908007 0.288250 0.304032 0.381066 0.731487 1 17 1.000000
models\Characters\Eyes\template_head
  17 2.675647 67.291710 0.681363 0.908007 0.288250 0.304032 0.381066 0.731487 1 17 1.000000
  17 2.064767 68.826057 0.591979 0.606689 0.781133 0.147513 0.489883 0.776090 1 17 1.000000
  17 1.680561 68.520409 1.920681 0.623855 0.617744 0.478746 0.502845 0.702503 1 17 1.000000
models\Characters\Eyes\template_head
  17 0.015611 69.392410 0.750185 -0.011080 0.987784 0.155432 0.682061 0.699223 1 17 1.000000
  17 1.680561 68.520409 1.920681 0.623855 0.617744 0.478746 0.502845 0.702503 1 17 1.000000
  17 2.064767 68.826057 0.591979 0.606689 0.781133 0.147513 0.489883 0.776090 1 17 1.000000
models\Characters\Eyes\template_head
  17 0.015611 68.615387 2.572919 -0.025450 0.811791 0.583394 0.620335 0.606885 1 17 1.000000
  17 1.680561 68.520409 1.920681 0.623855 0.617744 0.478746 0.502845 0.702503 1 17 1.000000
  17 0.015611 69.392410 0.750185 -0.011080 0.987784 0.155432 0.682061 0.699223 1 17 1.000000
models\Characters\Eyes\template_head
  17 1.680561 68.520409 1.920681 0.623855 0.617744 0.478746 0.502845 0.702503 1 17 1.000000
  17 0.015611 68.615387 2.572919 -0.025450 0.811791 0.583394 0.620335 0.606885 1 17 1.000000
  17 1.623165 67.974953 2.479426 0.578359 0.590625 0.562728 0.500975 0.668971 1 17 1.000000
models\Characters\Eyes\template_head
  17 2.675647 67.291710 0.681363 0.908007 0.288250 0.304032 0.381066 0.731487 1 17 1.000000
  17 1.680561 68.520409 1.920681 0.623855 0.617744 0.478746 0.502845 0.702503 1 17 1.000000
  17 1.623165 67.974953 2.479426 0.578359 0.590625 0.562728 0.500975 0.668971 1 17 1.000000
models\Characters\Eyes\template_head
  17 2.675647 67.291710 0.681363 0.908007 0.288250 0.304032 0.381066 0.731487 1 17 1.000000
  17 1.623165 67.974953 2.479426 0.578359 0.590625 0.562728 0.500975 0.668971 1 17 1.000000
  17 2.648479 65.969116 2.362173 0.936547 0.159121 0.312347 0.393277 0.608774 1 17 1.000000
models\Characters\Eyes\template_head
  17 2.648479 65.969116 2.362173 0.936547 0.159121 0.312347 0.393277 0.608774 1 17 1.000000
  17 3.195700 65.165176 0.212430 0.886519 0.272771 0.373737 0.286640 0.665681 1 17 1.000000
  17 2.675647 67.291710 0.681363 0.908007 0.288250 0.304032 0.381066 0.731487 1 17 1.000000
models\Characters\Eyes\template_head
  17 2.880694 64.638809 2.075496 0.936688 0.060617 0.344879 0.326660 0.596967 1 17 1.000000
  17 3.195700 65.165176 0.212430 0.886519 0.272771 0.373737 0.286640 0.665681 1 17 1.000000
  17 2.648479 65.969116 2.362173 0.936547 0.159121 0.312347 0.393277 0.608774 1 17 1.000000
models\Characters\Eyes\template_head
  17 2.880694 64.638809 2.075496 0.936688 0.060617 0.344879 0.326660 0.596967 1 17 1.000000
  17 2.840115 63.147579 0.370485 0.871878 -0.473786 0.123920 0.202822 0.600932 1 17 1.000000
  17 3.195700 65.165176 0.212430 0.886519 0.272771 0.373737 0.286640 0.665681 1 17 1.000000
models\Characters\Eyes\template_head
  17 2.474528 63.084942 2.040566 0.929133 -0.174432 0.326015 0.273980 0.550139 1 17 1.000000
  17 2.840115 63.147579 0.370485 0.871878 -0.473786 0.123920 0.202822 0.600932 1 17 1.000000
  17 2.880694 64.638809 2.075496 0.936688 0.060617 0.344879 0.326660 0.596967 1 17 1.000000
models\Characters\Eyes\template_head
  17 2.431122 62.308331 1.884954 0.940132 -0.105963 0.323918 0.242385 0.535683 1 17 1.000000
  17 2.840115 63.147579 0.370485 0.871878 -0.473786 0.123920 0.202822 0.600932 1 17 1.000000
  17 2.474528 63.084942 2.040566 0.929133 -0.174432 0.326015 0.273980 0.550139 1 17 1.000000
models\Characters\Eyes\template_head
  17 1.511363 61.932934 3.508673 0.767537 -0.149668 0.623287 0.306294 0.421822 1 17 1.000000
  17 2.431122 62.308331 1.884954 0.940132 -0.105963 0.323918 0.242385 0.535683 1 17 1.000000
  17 2.474528 63.084942 2.040566 0.929133 -0.174432 0.326015 0.273980 0.550139 1 17 1.000000
models\Characters\Eyes\template_head
  17 1.673947 61.305031 3.203336 0.771318 -0.305746 0.558201 0.269923 0.417176 1 17 1.000000
  17 2.431122 62.308331 1.884954 0.940132 -0.105963 0.323918 0.242385 0.535683 1 17 1.000000
  17 1.511363 61.932934 3.508673 0.767537 -0.149668 0.623287 0.306294 0.421822 1 17 1.000000
models\Characters\Eyes\template_head
  17 1.511363 61.932934 3.508673 0.767537 -0.149668 0.623287 0.306294 0.421822 1 17 1.000000
  17 0.884019 61.222485 3.902872 0.424633 -0.416137 0.804062 0.314382 0.365697 1 17 1.000000
  17 1.673947 61.305031 3.203336 0.771318 -0.305746 0.558201 0.269923 0.417176 1 17 1.000000
models\Characters\Eyes\template_head
  17 1.673947 61.305031 3.203336 0.771318 -0.305746 0.558201 0.269923 0.417176 1 17 1.000000
  17 0.884019 61.222485 3.902872 0.424633 -0.416137 0.804062 0.314382 0.365697 1 17 1.000000
  17 0.723751 60.542091 3.989729 0.539344 -0.356731 0.762792 0.286223 0.334533 1 17 1.000000
models\Characters\Eyes\template_head
  17 0.709416 59.881027 3.415584 0.530966 -0.810376 0.247722 0.255165 0.318641 1 17 1.000000
  17 1.673947 61.305031 3.203336 0.771318 -0.305746 0.558201 0.269923 0.417176 1 17 1.000000
  17 0.723751 60.542091 3.989729 0.539344 -0.356731 0.762792 0.286223 0.334533 1 17 1.000000
models\Characters\Eyes\template_head
  17 1.999745 60.981274 2.073707 0.724470 -0.684211 0.083652 0.201120 0.468238 1 17 1.000000
  17 1.673947 61.305031 3.203336 0.771318 -0.305746 0.558201 0.269923 0.417176 1 17 1.000000
  17 0.709416 59.881027 3.415584 0.530966 -0.810376 0.247722 0.255165 0.318641 1 17 1.000000
models\Characters\Eyes\template_head
  17 1.673947 61.305031 3.203336 0.771318 -0.305746 0.558201 0.269923 0.417176 1 17 1.000000
  17 1.999745 60.981274 2.073707 0.724470 -0.684211 0.083652 0.201120 0.468238 1 17 1.000000
  17 2.431122 62.308331 1.884954 0.940132 -0.105963 0.323918 0.242385 0.535683 1 17 1.000000
models\Characters\Eyes\template_head
  16 0.732382 60.191399 2.005283 0.574843 -0.816878 0.047596 0.173365 0.376484 2 16 0.800000 17 0.200000
  17 1.999745 60.981274 2.073707 0.724470 -0.684211 0.083652 0.201120 0.468238 1 17 1.000000
  17 0.709416 59.881027 3.415584 0.530966 -0.810376 0.247722 0.255165 0.318641 1 17 1.000000
models\Characters\Eyes\template_head
  16 1.542285 60.660168 1.316259 0.704894 -0.706509 0.063000 0.157951 0.464321 2 16 0.800000 17 0.200000
  17 1.999745 60.981274 2.073707 0.724470 -0.684211 0.083652 0.201120 0.468238 1 17 1.000000
  16 0.732382 60.191399 2.005283 0.574843 -0.816878 0.047596 0.173365 0.376484 2 16 0.800000 17 0.200000
models\Characters\Eyes\template_head
  17 1.999745 60.981274 2.073707 0.724470 -0.684211 0.083652 0.201120 0.468238 1 17 1.000000
  16 1.542285 60.660168 1.316259 0.704894 -0.706509 0.063000 0.157951 0.464321 2 16 0.800000 17 0.200000
  17 2.601550 61.855900 0.721705 0.920370 -0.390195 -0.025818 0.193774 0.558954 1 17 1.000000
models\Characters\Eyes\template_head
  17 2.431122 62.308331 1.884954 0.940132 -0.105963 0.323918 0.242385 0.535683 1 17 1.000000
  17 1.999745 60.981274 2.073707 0.724470 -0.684211 0.083652 0.201120 0.468238 1 17 1.000000
  17 2.601550 61.855900 0.721705 0.920370 -0.390195 -0.025818 0.193774 0.558954 1 17 1.000000
models\Characters\Eyes\template_head
  17 2.601550 61.855900 0.721705 0.920370 -0.390195 -0.025818 0.193774 0.558954 1 17 1.000000
  17 2.840115 63.147579 0.370485 0.871878 -0.473786 0.123920 0.202822 0.600932 1 17 1.000000
  17 2.431122 62.308331 1.884954 0.940132 -0.105963 0.323918 0.242385 0.535683 1 17 1.000000
models\Characters\Eyes\template_head
  17 2.648479 65.969116 2.362173 0.936547 0.159121 0.312347 0.393277 0.608774 1 17 1.000000
  17 1.721232 64.886986 3.380800 0.702718 -0.214528 0.678355 0.386547 0.527602 1 17 1.000000
  17 2.880694 64.638809 2.075496 0.936688 0.060617 0.344879 0.326660 0.596967 1 17 1.000000
models\Characters\Eyes\template_head
  17 2.880694 64.638809 2.075496 0.936688 0.060617 0.344879 0.326660 0.596967 1 17 1.000000
  17 1.721232 64.886986 3.380800 0.702718 -0.214528 0.678355 0.386547 0.527602 1 17 1.000000
  17 1.920002 63.856026 3.312075 0.652990 0.020403 0.757092 0.354528 0.519609 1 17 1.000000
models\Characters\Eyes\template_head
  17 1.920002 63.856026 3.312075 0.652990 0.020403 0.757092 0.354528 0.519609 1 17 1.000000
  17 2.474528 63.084942 2.040566 0.929133 -0.174432 0.326015 0.273980 0.550139 1 17 1.000000
  17 2.880694 64.638809 2.075496 0.936688 0.060617 0.344879 0.326660 0.596967 1 17 1.000000
models\Characters\Eyes\template_head
  17 2.474528 63.084942 2.040566 0.929133 -0.174432 0.326015 0.273980 0.550139 1 17 1.000000
  17 1.920002 63.856026 3.312075 0.652990 0.020403 0.757092 0.354528 0.519609 1 17 1.000000
  17 1.511363 61.932934 3.508673 0.767537 -0.149668 0.623287 0.306294 0.421822 1 17 1.000000
models\Characters\Eyes\template_head
  17 1.511363 61.932934 3.508673 0.767537 -0.149668 0.623287 0.306294 0.421822 1 17 1.000000
  17 1.920002 63.856026 3.312075 0.652990 0.020403 0.757092 0.354528 0.519609 1 17 1.000000
  17 1.021593 63.438805 3.981281 0.672108 0.076763 0.736463 0.380748 0.454355 1 17 1.000000
models\Characters\Eyes\template_head
  17 1.021593 63.438805 3.981281 0.672108 0.076763 0.736463 0.380748 0.454355 1 17 1.000000
  17 1.920002 63.856026 3.312075 0.652990 0.020403 0.757092 0.354528 0.519609 1 17 1.000000
  17 1.139679 64.950279 3.571691 0.570772 -0.239775 0.785320 0.404785 0.511203 1 17 1.000000
models\Characters\Eyes\template_head
  17 1.139679 64.950279 3.571691 0.570772 -0.239775 0.785320 0.404785 0.511203 1 17 1.000000
  17 0.602485 63.859413 4.502497 0.749934 0.270200 0.603813 0.410142 0.450801 1 17 1.000000
  17 1.021593 63.438805 3.981281 0.672108 0.076763 0.736463 0.380748 0.454355 1 17 1.000000
models\Characters\Eyes\template_head
  17 0.324617 65.101349 4.197280 0.542965 -0.133184 0.829127 0.457478 0.476579 1 17 1.000000
  17 0.602485 63.859413 4.502497 0.749934 0.270200 0.603813 0.410142 0.450801 1 17 1.000000
  17 1.139679 64.950279 3.571691 0.570772 -0.239775 0.785320 0.404785 0.511203 1 17 1.000000
models\Characters\Eyes\template_head
  17 1.139679 64.950279 3.571691 0.570772 -0.239775 0.785320 0.404785 0.511203 1 17 1.000000
  17 1.920002 63.856026 3.312075 0.652990 0.020403 0.757092 0.354528 0.519609 1 17 1.000000
  17 1.721232 64.886986 3.380800 0.702718 -0.214528 0.678355 0.386547 0.527602 1 17 1.000000
models\Characters\Eyes\template_head
  17 1.721232 64.886986 3.380800 0.702718 -0.214528 0.678355 0.413757 0.530264 1 17 1.000000
  17 1.518602 65.736938 4.222634 0.517118 -0.182453 0.836242 0.448894 0.537710 1 17 1.000000
  17 1.139679 64.950279 3.571691 0.570772 -0.239775 0.785320 0.423066 0.517840 1 17 1.000000
models\Characters\Eyes\template_head
  17 0.682086 65.575401 4.481877 0.149828 -0.128569 0.980317 0.467637 0.508671 1 17 1.000000
  17 1.139679 64.950279 3.571691 0.570772 -0.239775 0.785320 0.423066 0.517840 1 17 1.000000
  17 1.518602 65.736938 4.222634 0.517118 -0.182453 0.836242 0.448894 0.537710 1 17 1.000000
models\Characters\Eyes\template_head
  17 0.324617 65.101349 4.197280 0.542965 -0.133184 0.829127 0.457478 0.476579 1 17 1.000000
  17 1.139679 64.950279 3.571691 0.570772 -0.239775 0.785320 0.423066 0.517840 1 17 1.000000
  17 0.682086 65.575401 4.481877 0.149828 -0.128569 0.980317 0.467637 0.508671 1 17 1.000000
models\Characters\Eyes\template_head
  17 0.682086 65.575401 4.481877 0.149828 -0.128569 0.980317 0.467637 0.508671 1 17 1.000000
  17 0.007435 65.719765 4.449183 0.000000 -0.063665 0.997971 0.496722 0.479093 1 17 1.000000
  17 0.324617 65.101349 4.197280 0.542965 -0.133184 0.829127 0.457478 0.476579 1 17 1.000000
models\Characters\Eyes\template_head
  17 0.324617 65.101349 4.197280 0.542965 -0.133184 0.829127 0.457478 0.476579 1 17 1.000000
  17 0.007435 65.719765 4.449183 0.000000 -0.063665 0.997971 0.496722 0.479093 1 17 1.000000
  17 0.007435 65.202415 4.335875 0.000000 0.014987 0.999888 0.469687 0.454442 1 17 1.000000
models\Characters\Eyes\template_head
  17 0.007435 65.202415 4.335875 0.000000 0.014987 0.999888 0.469687 0.454442 1 17 1.000000
  17 0.007434 64.473373 5.098912 0.000679 0.423807 0.905752 0.443768 0.429050 1 17 1.000000
  17 0.324617 65.101349 4.197280 0.542965 -0.133184 0.829127 0.457478 0.476579 1 17 1.000000
models\Characters\Eyes\template_head
  17 0.324617 65.101349 4.197280 0.542965 -0.133184 0.829127 0.457478 0.476579 1 17 1.000000
  17 0.007434 64.473373 5.098912 0.000679 0.423807 0.905752 0.443768 0.429050 1 17 1.000000
  17 0.602485 63.859413 4.502497 0.749934 0.270200 0.603813 0.410142 0.450801 1 17 1.000000
models\Characters\Eyes\template_head
  17 0.240700 63.566879 5.270769 0.726732 0.164978 0.666815 0.419597 0.421462 1 17 1.000000
  17 0.602485 63.859413 4.502497 0.749934 0.270200 0.603813 0.410142 0.450801 1 17 1.000000
  17 0.007434 64.473373 5.098912 0.000679 0.423807 0.905752 0.443768 0.429050 1 17 1.000000
models\Characters\Eyes\template_head
  17 0.240700 63.566879 5.270769 0.726732 0.164978 0.666815 0.419597 0.421462 1 17 1.000000
  17 1.021593 63.438805 3.981281 0.672108 0.076763 0.736463 0.380748 0.454355 1 17 1.000000
  17 0.602485 63.859413 4.502497 0.749934 0.270200 0.603813 0.410142 0.450801 1 17 1.000000
models\Characters\Eyes\template_head
  17 0.240700 63.566879 5.270769 0.726732 0.164978 0.666815 0.419597 0.421462 1 17 1.000000
  17 0.918841 63.069324 4.199483 0.687561 -0.260611 0.677748 0.380931 0.429810 1 17 1.000000
  17 1.021593 63.438805 3.981281 0.672108 0.076763 0.736463 0.380748 0.454355 1 17 1.000000
models\Characters\Eyes\template_head
  17 0.918841 63.069324 4.199483 0.687561 -0.260611 0.677748 0.380931 0.429810 1 17 1.000000
  17 1.511363 61.932934 3.508673 0.767537 -0.149668 0.623287 0.306294 0.421822 1 17 1.000000
  17 1.021593 63.438805 3.981281 0.672108 0.076763 0.736463 0.380748 0.454355 1 17 1.000000
models\Characters\Eyes\template_head
  17 0.728420 61.709591 4.420262 0.462215 -0.158592 0.872471 0.327820 0.375750 1 17 1.000000
  17 1.511363 61.932934 3.508673 0.767537 -0.149668 0.623287 0.306294 0.421822 1 17 1.000000
  17 0.918841 63.069324 4.199483 0.687561 -0.260611 0.677748 0.380931 0.429810 1 17 1.000000
models\Characters\Eyes\template_head
  17 0.728420 61.709591 4.420262 0.462215 -0.158592 0.872471 0.327820 0.375750 1 17 1.000000
  17 0.884019 61.222485 3.902872 0.424633 -0.416137 0.804062 0.314382 0.365697 1 17 1.000000
  17 1.511363 61.932934 3.508673 0.767537 -0.149668 0.623287 0.306294 0.421822 1 17 1.000000
models\Characters\Eyes\template_head
  17 0.728420 61.709591 4.420262 0.462215 -0.158592 0.872471 0.327820 0.375750 1 17 1.000000
  17 0.007435 61.244427 4.036334 0.000000 -0.345705 0.938343 0.347882 0.332085 1 17 1.000000
  17 0.884019 61.222485 3.902872 0.424633 -0.416137 0.804062 0.314382 0.365697 1 17 1.000000
models\Characters\Eyes\template_head
  17 0.007435 61.244427 4.036334 0.000000 -0.345705 0.938343 0.347882 0.332085 1 17 1.000000
  17 0.723751 60.542091 3.989729 0.539344 -0.356731 0.762792 0.286223 0.334533 1 17 1.000000
  17 0.884019 61.222485 3.902872 0.424633 -0.416137 0.804062 0.314382 0.365697 1 17 1.000000
models\Characters\Eyes\template_head
  17 0.007434 60.382896 4.129445 0.000000 -0.199918 0.979813 0.320282 0.302184 1 17 1.000000
  17 0.723751 60.542091 3.989729 0.539344 -0.356731 0.762792 0.286223 0.334533 1 17 1.000000
  17 0.007435 61.244427 4.036334 0.000000 -0.345705 0.938343 0.347882 0.332085 1 17 1.000000
models\Characters\Eyes\template_head
  17 0.007434 59.877647 3.610750 -0.000001 -0.928548 0.371213 0.299011 0.280074 1 17 1.000000
  17 0.723751 60.542091 3.989729 0.539344 -0.356731 0.762792 0.286223 0.334533 1 17 1.000000
  17 0.007434 60.382896 4.129445 0.000000 -0.199918 0.979813 0.320282 0.302184 1 17 1.000000
models\Characters\Eyes\template_head
  17 0.709416 59.881027 3.415584 0.530966 -0.810376 0.247722 0.255165 0.318641 1 17 1.000000
  17 0.723751 60.542091 3.989729 0.539344 -0.356731 0.762792 0.286223 0.334533 1 17 1.000000
  17 0.007434 59.877647 3.610750 -0.000001 -0.928548 0.371213 0.299011 0.280074 1 17 1.000000
models\Characters\Eyes\template_head
  17 0.366415 62.968925 5.136372 0.553651 -0.619479 0.556521 0.410278 0.407236 1 17 1.000000
  17 0.918841 63.069324 4.199483 0.687561 -0.260611 0.677748 0.380931 0.429810 1 17 1.000000
  17 0.240700 63.566879 5.270769 0.726732 0.164978 0.666815 0.419597 0.421462 1 17 1.000000
models\Characters\Eyes\template_head
  17 0.007435 61.708027 4.521031 0.000000 -0.377752 0.925907 0.357508 0.342247 1 17 1.000000
  17 0.007435 61.244427 4.036334 0.000000 -0.345705 0.938343 0.347882 0.332085 1 17 1.000000
  17 0.728420 61.709591 4.420262 0.462215 -0.158592 0.872471 0.327820 0.375750 1 17 1.000000
models\Characters\Eyes\template_head
  17 0.007435 61.708027 4.521031 0.000000 -0.377752 0.925907 0.357508 0.342247 1 17 1.000000
  17 0.728420 61.709591 4.420262 0.462215 -0.158592 0.872471 0.327820 0.375750 1 17 1.000000
  17 0.007435 62.834137 4.580848 0.000000 -0.871131 0.491050 0.397635 0.382379 1 17 1.000000
models\Characters\Eyes\template_head
  17 0.007435 62.834137 4.580848 0.000000 -0.871131 0.491050 0.397635 0.382379 1 17 1.000000
  17 0.728420 61.709591 4.420262 0.462215 -0.158592 0.872471 0.327820 0.375750 1 17 1.000000
  17 0.918841 63.069324 4.199483 0.687561 -0.260611 0.677748 0.380931 0.429810 1 17 1.000000
models\Characters\Eyes\template_head
  17 0.366415 62.968925 5.136372 0.553651 -0.619479 0.556521 0.410278 0.407236 1 17 1.000000
  17 0.007435 62.834137 4.580848 0.000000 -0.871131 0.491050 0.397635 0.382379 1 17 1.000000
  17 0.918841 63.069324 4.199483 0.687561 -0.260611 0.677748 0.380931 0.429810 1 17 1.000000
models\Characters\Eyes\template_head
  17 0.366415 62.968925 5.136372 0.553651 -0.619479 0.556521 0.410278 0.407236 1 17 1.000000
  17 0.007435 62.857002 5.141547 0.000000 -0.794808 0.606861 0.414795 0.398624 1 17 1.000000
  17 0.007435 62.834137 4.580848 0.000000 -0.871131 0.491050 0.397635 0.382379 1 17 1.000000
models\Characters\Eyes\template_head
  17 0.007435 62.857002 5.141547 0.000000 -0.794808 0.606861 0.414795 0.398624 1 17 1.000000
  17 0.366415 62.968925 5.136372 0.553651 -0.619479 0.556521 0.410278 0.407236 1 17 1.000000
  17 0.007435 63.601555 5.400255 0.064994 -0.067559 0.995596 0.429510 0.413069 1 17 1.000000
models\Characters\Eyes\template_head
  17 0.007435 63.601555 5.400255 0.064994 -0.067559 0.995596 0.429510 0.413069 1 17 1.000000
  17 0.366415 62.968925 5.136372 0.553651 -0.619479 0.556521 0.410278 0.407236 1 17 1.000000
  17 0.240700 63.566879 5.270769 0.726732 0.164978 0.666815 0.419597 0.421462 1 17 1.000000
models\Characters\Eyes\template_head
  17 0.007435 63.601555 5.400255 0.064994 -0.067559 0.995596 0.429510 0.413069 1 17 1.000000
  17 0.240700 63.566879 5.270769 0.726732 0.164978 0.666815 0.419597 0.421462 1 17 1.000000
  17 0.007434 64.473373 5.098912 0.000679 0.423807 0.905752 0.443768 0.429050 1 17 1.000000
models\Characters\Eyes\template_head
  16 0.007433 59.802109 2.401586 -0.000045 -0.978725 0.205178 0.256653 0.238722 2 16 0.800000 17 0.200000
  17 0.709416 59.881027 3.415584 0.530966 -0.810376 0.247722 0.255165 0.318641 1 17 1.000000
  17 0.007434 59.877647 3.610750 -0.000001 -0.928548 0.371213 0.299011 0.280074 1 17 1.000000
models\Characters\Eyes\template_head
  16 0.732382 60.191399 2.005283 0.574843 -0.816878 0.047596 0.173365 0.376484 2 16 0.800000 17 0.200000
  17 0.709416 59.881027 3.415584 0.530966 -0.810376 0.247722 0.255165 0.318641 1 17 1.000000
  16 0.007433 59.802109 2.401586 -0.000045 -0.978725 0.205178 0.256653 0.238722 2 16 0.800000 17 0.200000
models\Characters\Eyes\template_head
  16 0.001900 59.627712 2.267384 0.001000 -0.416964 0.908922 0.253427 0.236225 1 16 1.000000
  16 0.732382 60.191399 2.005283 0.574843 -0.816878 0.047596 0.173365 0.376484 2 16 0.800000 17 0.200000
  16 0.007433 59.802109 2.401586 -0.000045 -0.978725 0.205178 0.256653 0.238722 2 16 0.800000 17 0.200000
models\Characters\Eyes\template_head
  16 0.830300 59.937176 1.669149 0.685975 -0.318988 0.653976 0.163675 0.367148 1 16 1.000000
  16 0.732382 60.191399 2.005283 0.574843 -0.816878 0.047596 0.173365 0.376484 2 16 0.800000 17 0.200000
  16 0.001900 59.627712 2.267384 0.001000 -0.416964 0.908922 0.253427 0.236225 1 16 1.000000
models\Characters\Eyes\template_head
  16 0.830300 59.937176 1.669149 0.685975 -0.318988 0.653976 0.163675 0.367148 1 16 1.000000
  16 1.542285 60.660168 1.316259 0.704894 -0.706509 0.063000 0.157951 0.464321 2 16 0.800000 17 0.200000
  16 0.732382 60.191399 2.005283 0.574843 -0.816878 0.047596 0.173365 0.376484 2 16 0.800000 17 0.200000
models\Characters\Eyes\template_head
  16 1.658439 60.809975 0.880751 0.877245 -0.274077 0.394110 0.144152 0.493599 1 16 1.000000
  16 1.542285 60.660168 1.316259 0.704894 -0.706509 0.063000 0.157951 0.464321 2 16 0.800000 17 0.200000
  16 0.830300 59.937176 1.669149 0.685975 -0.318988 0.653976 0.163675 0.367148 1 16 1.000000
models\Characters\Eyes\template_head
  16 1.542285 60.660168 1.316259 0.704894 -0.706509 0.063000 0.157951 0.464321 2 16 0.800000 17 0.200000
  16 1.658439 60.809975 0.880751 0.877245 -0.274077 0.394110 0.144152 0.493599 1 16 1.000000
  17 2.601550 61.855900 0.721705 0.920370 -0.390195 -0.025818 0.193774 0.558954 1 17 1.000000
models\Characters\Eyes\template_head
  17 2.601550 61.855900 0.721705 0.920370 -0.390195 -0.025818 0.193774 0.558954 1 17 1.000000
  16 1.658439 60.809975 0.880751 0.877245 -0.274077 0.394110 0.144152 0.493599 1 16 1.000000
  16 2.015900 61.499935 0.208999 0.989748 -0.130967 0.056985 0.143503 0.594629 1 16 1.000000
models\Characters\Eyes\template_head
  17 2.601550 61.855900 0.721705 0.920370 -0.390195 -0.025818 0.193774 0.558954 1 17 1.000000
  16 2.015900 61.499935 0.208999 0.989748 -0.130967 0.056985 0.143503 0.594629 1 16 1.000000
  17 2.840115 63.147579 0.370485 0.871878 -0.473786 0.123920 0.202822 0.600932 1 17 1.000000
models\Characters\Eyes\template_head
  16 2.015900 61.499935 0.208999 0.989748 -0.130967 0.056985 0.143503 0.594629 1 16 1.000000
  16 1.907396 62.083523 -0.655501 0.898061 0.058004 -0.436030 0.149200 0.677000 1 16 1.000000
  17 2.840115 63.147579 0.370485 0.871878 -0.473786 0.123920 0.202822 0.600932 1 17 1.000000
models\Characters\Eyes\template_head
  16 1.907396 62.083523 -0.655501 0.898061 0.058004 -0.436030 0.149200 0.677000 1 16 1.000000
  17 2.742267 63.260960 -0.216568 0.184295 -0.689687 -0.700263 0.183562 0.652517 1 17 1.000000
  17 2.840115 63.147579 0.370485 0.871878 -0.473786 0.123920 0.202822 0.600932 1 17 1.000000
models\Characters\Eyes\template_head
  17 2.428655 63.700024 -1.491529 0.754042 -0.302535 -0.583004 0.190689 0.725813 1 17 1.000000
  17 2.742267 63.260960 -0.216568 0.184295 -0.689687 -0.700263 0.183562 0.652517 1 17 1.000000
  16 1.907396 62.083523 -0.655501 0.898061 0.058004 -0.436030 0.149200 0.677000 1 16 1.000000
models\Characters\Eyes\template_head
  17 2.884778 64.453949 -0.799018 0.427313 -0.128065 -0.894988 0.224307 0.714958 1 17 1.000000
  17 2.742267 63.260960 -0.216568 0.184295 -0.689687 -0.700263 0.183562 0.652517 1 17 1.000000
  17 2.428655 63.700024 -1.491529 0.754042 -0.302535 -0.583004 0.190689 0.725813 1 17 1.000000
models\Characters\Eyes\template_head
  17 2.884778 64.453949 -0.799018 0.427313 -0.128065 -0.894988 0.224307 0.714958 1 17 1.000000
  17 2.428655 63.700024 -1.491529 0.754042 -0.302535 -0.583004 0.190689 0.725813 1 17 1.000000
  17 3.116081 65.171280 -0.737868 0.568066 0.543994 -0.617553 0.267939 0.722946 1 17 1.000000
models\Characters\Eyes\template_head
  17 3.116081 65.171280 -0.737868 0.568066 0.543994 -0.617553 0.267939 0.722946 1 17 1.000000
  17 2.428655 63.700024 -1.491529 0.754042 -0.302535 -0.583004 0.190689 0.725813 1 17 1.000000
  17 2.947205 66.390442 -1.286833 0.917485 0.051296 -0.394449 0.314032 0.779567 1 17 1.000000
models\Characters\Eyes\template_head
  17 3.116081 65.171280 -0.737868 0.568066 0.543994 -0.617553 0.267939 0.722946 1 17 1.000000
  17 2.947205 66.390442 -1.286833 0.917485 0.051296 -0.394449 0.314032 0.779567 1 17 1.000000
  17 3.195700 65.165176 0.212430 0.886519 0.272771 0.373737 0.286640 0.665681 1 17 1.000000
models\Characters\Eyes\template_head
  17 3.195700 65.165176 0.212430 0.886519 0.272771 0.373737 0.286640 0.665681 1 17 1.000000
  17 2.947205 66.390442 -1.286833 0.917485 0.051296 -0.394449 0.314032 0.779567 1 17 1.000000
  17 2.929874 67.503067 -0.283032 0.940369 0.338919 0.028967 0.361863 0.765692 1 17 1.000000
models\Characters\Eyes\template_head
  17 3.195700 65.165176 0.212430 0.886519 0.272771 0.373737 0.286640 0.665681 1 17 1.000000
  17 2.929874 67.503067 -0.283032 0.940369 0.338919 0.028967 0.361863 0.765692 1 17 1.000000
  17 2.675647 67.291710 0.681363 0.908007 0.288250 0.304032 0.381066 0.731487 1 17 1.000000
models\Characters\Eyes\template_head
  17 2.929874 67.503067 -0.283032 0.940369 0.338919 0.028967 0.361863 0.765692 1 17 1.000000
  17 2.947205 66.390442 -1.286833 0.917485 0.051296 -0.394449 0.314032 0.779567 1 17 1.000000
  17 2.030056 68.737137 -0.695112 0.591863 0.768987 -0.241571 0.415572 0.824452 1 17 1.000000
models\Characters\Eyes\template_head
  17 1.926457 68.316093 -1.787376 0.447390 0.595452 -0.667293 0.364412 0.858389 1 17 1.000000
  17 2.030056 68.737137 -0.695112 0.591863 0.768987 -0.241571 0.415572 0.824452 1 17 1.000000
  17 2.947205 66.390442 -1.286833 0.917485 0.051296 -0.394449 0.314032 0.779567 1 17 1.000000
models\Characters\Eyes\template_head
  17 2.356167 66.942070 -2.170369 0.693378 0.193760 -0.694034 0.310822 0.825300 1 17 1.000000
  17 1.926457 68.316093 -1.787376 0.447390 0.595452 -0.667293 0.364412 0.858389 1 17 1.000000
  17 2.947205 66.390442 -1.286833 0.917485 0.051296 -0.394449 0.314032 0.779567 1 17 1.000000
models\Characters\Eyes\template_head
  17 2.929874 67.503067 -0.283032 0.940369 0.338919 0.028967 0.361863 0.765692 1 17 1.000000
  17 2.030056 68.737137 -0.695112 0.591863 0.768987 -0.241571 0.415572 0.824452 1 17 1.000000
  17 2.064767 68.826057 0.591979 0.606689 0.781133 0.147513 0.489883 0.776090 1 17 1.000000
models\Characters\Eyes\template_head
  17 2.064767 68.826057 0.591979 0.606689 0.781133 0.147513 0.489883 0.776090 1 17 1.000000
  17 2.030056 68.737137 -0.695112 0.591863 0.768987 -0.241571 0.415572 0.824452 1 17 1.000000
  17 0.015611 69.392410 0.750185 -0.011080 0.987784 0.155432 0.682061 0.699223 1 17 1.000000
models\Characters\Eyes\template_head
  17 0.015611 69.392410 0.750185 -0.011080 0.987784 0.155432 0.682061 0.699223 1 17 1.000000
  17 2.030056 68.737137 -0.695112 0.591863 0.768987 -0.241571 0.415572 0.824452 1 17 1.000000
  17 -0.077187 69.288467 -0.932254 -0.075844 0.972148 -0.221756 0.508497 0.871394 1 17 1.000000
models\Characters\Eyes\template_head
  17 1.926457 68.316093 -1.787376 0.447390 0.595452 -0.667293 0.364412 0.858389 1 17 1.000000
  17 -0.077187 69.288467 -0.932254 -0.075844 0.972148 -0.221756 0.508497 0.871394 1 17 1.000000
  17 2.030056 68.737137 -0.695112 0.591863 0.768987 -0.241571 0.415572 0.824452 1 17 1.000000
models\Characters\Eyes\template_head
  17 -0.103666 68.711769 -2.024042 -0.021731 0.746081 -0.665501 0.363340 0.950834 1 17 1.000000
  17 -0.077187 69.288467 -0.932254 -0.075844 0.972148 -0.221756 0.508497 0.871394 1 17 1.000000
  17 1.926457 68.316093 -1.787376 0.447390 0.595452 -0.667293 0.364412 0.858389 1 17 1.000000
models\Characters\Eyes\template_head
  17 0.007435 67.207153 -2.950538 -0.011918 0.228712 -0.973421 0.249329 0.934675 1 17 1.000000
  17 -0.103666 68.711769 -2.024042 -0.021731 0.746081 -0.665501 0.363340 0.950834 1 17 1.000000
  17 1.926457 68.316093 -1.787376 0.447390 0.595452 -0.667293 0.364412 0.858389 1 17 1.000000
models\Characters\Eyes\template_head
  17 0.007435 67.207153 -2.950538 -0.011918 0.228712 -0.973421 0.249329 0.934675 1 17 1.000000
  17 1.926457 68.316093 -1.787376 0.447390 0.595452 -0.667293 0.364412 0.858389 1 17 1.000000
  17 2.356167 66.942070 -2.170369 0.693378 0.193760 -0.694034 0.310822 0.825300 1 17 1.000000
models\Characters\Eyes\template_head
  17 1.741093 64.725555 -2.455539 0.419301 -0.233238 -0.877375 0.210914 0.800010 1 17 1.000000
  17 0.007435 67.207153 -2.950538 -0.011918 0.228712 -0.973421 0.249329 0.934675 1 17 1.000000
  17 2.356167 66.942070 -2.170369 0.693378 0.193760 -0.694034 0.310822 0.825300 1 17 1.000000
models\Characters\Eyes\template_head
  17 2.947205 66.390442 -1.286833 0.917485 0.051296 -0.394449 0.314032 0.779567 1 17 1.000000
  17 1.741093 64.725555 -2.455539 0.419301 -0.233238 -0.877375 0.210914 0.800010 1 17 1.000000
  17 2.356167 66.942070 -2.170369 0.693378 0.193760 -0.694034 0.310822 0.825300 1 17 1.000000
models\Characters\Eyes\template_head
  17 2.428655 63.700024 -1.491529 0.754042 -0.302535 -0.583004 0.190689 0.725813 1 17 1.000000
  17 1.741093 64.725555 -2.455539 0.419301 -0.233238 -0.877375 0.210914 0.800010 1 17 1.000000
  17 2.947205 66.390442 -1.286833 0.917485 0.051296 -0.394449 0.314032 0.779567 1 17 1.000000
models\Characters\Eyes\template_head
  17 1.741093 64.725555 -2.455539 0.419301 -0.233238 -0.877375 0.210914 0.800010 1 17 1.000000
  17 2.428655 63.700024 -1.491529 0.754042 -0.302535 -0.583004 0.190689 0.725813 1 17 1.000000
  16 1.136200 62.398853 -1.296751 0.505170 0.174059 -0.845285 0.111618 0.723981 1 16 1.000000
models\Characters\Eyes\template_head
  16 1.136200 62.398853 -1.296751 0.505170 0.174059 -0.845285 0.111618 0.723981 1 16 1.000000
  17 2.428655 63.700024 -1.491529 0.754042 -0.302535 -0.583004 0.190689 0.725813 1 17 1.000000
  16 1.907396 62.083523 -0.655501 0.898061 0.058004 -0.436030 0.149200 0.677000 1 16 1.000000
models\Characters\Eyes\template_head
  17 1.741093 64.725555 -2.455539 0.419301 -0.233238 -0.877375 0.210914 0.800010 1 17 1.000000
  17 0.007435 64.578072 -2.920635 -0.000622 -0.328038 -0.944664 0.154945 0.864448 1 17 1.000000
  17 0.007435 67.207153 -2.950538 -0.011918 0.228712 -0.973421 0.249329 0.934675 1 17 1.000000
models\Characters\Eyes\template_head
  16 1.136200 62.398853 -1.296751 0.505170 0.174059 -0.845285 0.111618 0.723981 1 16 1.000000
  17 0.007435 64.578072 -2.920635 -0.000622 -0.328038 -0.944664 0.154945 0.864448 1 17 1.000000
  17 1.741093 64.725555 -2.455539 0.419301 -0.233238 -0.877375 0.210914 0.800010 1 17 1.000000
models\Characters\Eyes\template_head
  16 0.002850 62.459656 -1.738501 0.000000 0.043003 -0.999075 0.072617 0.782697 1 16 1.000000
  17 0.007435 64.578072 -2.920635 -0.000622 -0.328038 -0.944664 0.154945 0.864448 1 17 1.000000
  16 1.136200 62.398853 -1.296751 0.505170 0.174059 -0.845285 0.111618 0.723981 1 16 1.000000
models\Characters\Eyes\template_head
  17 3.182699 62.995636 -0.125766 0.502508 -0.862294 0.062729 0.197405 0.638080 1 17 1.000000
  17 3.195700 65.165176 0.212430 0.886519 0.272771 0.373737 0.286640 0.665681 1 17 1.000000
  17 2.840115 63.147579 0.370485 0.871878 -0.473786 0.123920 0.202822 0.600932 1 17 1.000000
models\Characters\Eyes\template_head
  17 3.748235 65.432610 -0.519048 0.737138 0.672456 0.066565 0.258431 0.704206 1 17 1.000000
  17 3.195700 65.165176 0.212430 0.886519 0.272771 0.373737 0.286640 0.665681 1 17 1.000000
  17 3.182699 62.995636 -0.125766 0.502508 -0.862294 0.062729 0.197405 0.638080 1 17 1.000000
models\Characters\Eyes\template_head
  17 3.608228 63.762783 -0.856970 0.232468 -0.597645 -0.767319 0.201735 0.656613 1 17 1.000000
  17 3.748235 65.432610 -0.519048 0.737138 0.672456 0.066565 0.258431 0.704206 1 17 1.000000
  17 3.182699 62.995636 -0.125766 0.502508 -0.862294 0.062729 0.197405 0.638080 1 17 1.000000
models\Characters\Eyes\template_head
  17 3.880671 64.849953 -1.010350 0.297151 -0.000402 -0.954830 0.233367 0.700785 1 17 1.000000
  17 3.748235 65.432610 -0.519048 0.737138 0.672456 0.066565 0.258431 0.704206 1 17 1.000000
  17 3.608228 63.762783 -0.856970 0.232468 -0.597645 -0.767319 0.201735 0.656613 1 17 1.000000
models\Characters\Eyes\template_head
  17 -2.416254 62.308331 1.884955 -0.940133 -0.105964 0.323917 0.553198 0.224642 1 17 1.000000
  17 -1.984878 60.981274 2.073706 -0.724470 -0.684211 0.083651 0.485753 0.183378 1 17 1.000000
  17 -1.659079 61.305031 3.203335 -0.771319 -0.305747 0.558198 0.434691 0.252181 1 17 1.000000
models\Characters\Eyes\template_head
  17 -2.416254 62.308331 1.884955 -0.940133 -0.105964 0.323917 0.553198 0.224642 1 17 1.000000
  17 -1.496496 61.932934 3.508673 -0.769291 -0.139416 0.623502 0.439337 0.288551 1 17 1.000000
  17 -2.459660 63.084942 2.040567 -0.929133 -0.174431 0.326015 0.567654 0.256238 1 17 1.000000
models\Characters\Eyes\template_head
  17 -1.659079 61.305031 3.203335 -0.771319 -0.305747 0.558198 0.434691 0.252181 1 17 1.000000
  17 -1.496496 61.932934 3.508673 -0.769291 -0.139416 0.623502 0.439337 0.288551 1 17 1.000000
  17 -2.416254 62.308331 1.884955 -0.940133 -0.105964 0.323917 0.553198 0.224642 1 17 1.000000
models\Characters\Eyes\template_head
  17 -0.869153 61.222485 3.902871 -0.424635 -0.416136 0.804062 0.383212 0.296640 1 17 1.000000
  17 -1.496496 61.932934 3.508673 -0.769291 -0.139416 0.623502 0.439337 0.288551 1 17 1.000000
  17 -1.659079 61.305031 3.203335 -0.771319 -0.305747 0.558198 0.434691 0.252181 1 17 1.000000
models\Characters\Eyes\template_head
  17 -0.869153 61.222485 3.902871 -0.424635 -0.416136 0.804062 0.383212 0.296640 1 17 1.000000
  17 -1.659079 61.305031 3.203335 -0.771319 -0.305747 0.558198 0.434691 0.252181 1 17 1.000000
  17 -0.708883 60.542091 3.989729 -0.539344 -0.356732 0.762791 0.352048 0.268481 1 17 1.000000
models\Characters\Eyes\template_head
  17 -1.659079 61.305031 3.203335 -0.771319 -0.305747 0.558198 0.434691 0.252181 1 17 1.000000
  17 -0.694549 59.881031 3.415584 -0.530967 -0.810375 0.247724 0.336156 0.237422 1 17 1.000000
  17 -0.708883 60.542091 3.989729 -0.539344 -0.356732 0.762791 0.352048 0.268481 1 17 1.000000
models\Characters\Eyes\template_head
  17 -1.984878 60.981274 2.073706 -0.724470 -0.684211 0.083651 0.485753 0.183378 1 17 1.000000
  17 -0.694549 59.881031 3.415584 -0.530967 -0.810375 0.247724 0.336156 0.237422 1 17 1.000000
  17 -1.659079 61.305031 3.203335 -0.771319 -0.305747 0.558198 0.434691 0.252181 1 17 1.000000
models\Characters\Eyes\template_head
  17 -0.694549 59.881031 3.415584 -0.530967 -0.810375 0.247724 0.336156 0.237422 1 17 1.000000
  17 -1.984878 60.981274 2.073706 -0.724470 -0.684211 0.083651 0.485753 0.183378 1 17 1.000000
  16 -0.717515 60.191399 2.005283 -0.578953 -0.813449 0.055808 0.393999 0.152071 2 16 0.800000 17 0.200000
models\Characters\Eyes\template_head
  16 -0.717515 60.191399 2.005283 -0.578953 -0.813449 0.055808 0.393999 0.152071 2 16 0.800000 17 0.200000
  17 -1.984878 60.981274 2.073706 -0.724470 -0.684211 0.083651 0.485753 0.183378 1 17 1.000000
  16 -1.527419 60.660168 1.316259 -0.713287 -0.696191 0.080871 0.484511 0.137894 2 16 0.800000 17 0.200000
models\Characters\Eyes\template_head
  17 -1.984878 60.981274 2.073706 -0.724470 -0.684211 0.083651 0.485753 0.183378 1 17 1.000000
  17 -2.586681 61.855900 0.721705 -0.903418 -0.419378 -0.089203 0.576469 0.176031 1 17 1.000000
  16 -1.527419 60.660168 1.316259 -0.713287 -0.696191 0.080871 0.484511 0.137894 2 16 0.800000 17 0.200000
models\Characters\Eyes\template_head
  17 -2.586681 61.855900 0.721705 -0.903418 -0.419378 -0.089203 0.576469 0.176031 1 17 1.000000
  17 -1.984878 60.981274 2.073706 -0.724470 -0.684211 0.083651 0.485753 0.183378 1 17 1.000000
  17 -2.416254 62.308331 1.884955 -0.940133 -0.105964 0.323917 0.553198 0.224642 1 17 1.000000
models\Characters\Eyes\template_head
  17 -2.416254 62.308331 1.884955 -0.940133 -0.105964 0.323917 0.553198 0.224642 1 17 1.000000
  17 -2.825247 63.147579 0.370485 -0.865891 -0.478914 0.144478 0.618447 0.185079 1 17 1.000000
  17 -2.586681 61.855900 0.721705 -0.903418 -0.419378 -0.089203 0.576469 0.176031 1 17 1.000000
models\Characters\Eyes\template_head
  17 -2.459660 63.084942 2.040567 -0.929133 -0.174431 0.326015 0.567654 0.256238 1 17 1.000000
  17 -2.825247 63.147579 0.370485 -0.865891 -0.478914 0.144478 0.618447 0.185079 1 17 1.000000
  17 -2.416254 62.308331 1.884955 -0.940133 -0.105964 0.323917 0.553198 0.224642 1 17 1.000000
models\Characters\Eyes\template_head
  17 -2.459660 63.084942 2.040567 -0.929133 -0.174431 0.326015 0.567654 0.256238 1 17 1.000000
  17 -2.865826 64.638809 2.075496 -0.936688 0.060617 0.344879 0.614483 0.308917 1 17 1.000000
  17 -2.825247 63.147579 0.370485 -0.865891 -0.478914 0.144478 0.618447 0.185079 1 17 1.000000
models\Characters\Eyes\template_head
  17 -2.459660 63.084942 2.040567 -0.929133 -0.174431 0.326015 0.567654 0.256238 1 17 1.000000
  17 -1.905135 63.856026 3.312075 -0.652993 0.020404 0.757089 0.537124 0.336785 1 17 1.000000
  17 -2.865826 64.638809 2.075496 -0.936688 0.060617 0.344879 0.614483 0.308917 1 17 1.000000
models\Characters\Eyes\template_head
  17 -2.865826 64.638809 2.075496 -0.936688 0.060617 0.344879 0.614483 0.308917 1 17 1.000000
  17 -1.905135 63.856026 3.312075 -0.652993 0.020404 0.757089 0.537124 0.336785 1 17 1.000000
  17 -1.821504 65.075867 3.283805 -0.730108 -0.178729 0.659544 0.545117 0.368804 1 17 1.000000
models\Characters\Eyes\template_head
  17 -1.905135 63.856026 3.312075 -0.652993 0.020404 0.757089 0.537124 0.336785 1 17 1.000000
  17 -1.124811 64.950272 3.571691 -0.585619 -0.249790 0.771139 0.528718 0.387042 1 17 1.000000
  17 -1.821504 65.075867 3.283805 -0.730108 -0.178729 0.659544 0.545117 0.368804 1 17 1.000000
models\Characters\Eyes\template_head
  17 -1.006725 63.438812 3.981281 -0.672105 0.076762 0.736466 0.471870 0.363006 1 17 1.000000
  17 -1.124811 64.950272 3.571691 -0.585619 -0.249790 0.771139 0.528718 0.387042 1 17 1.000000
  17 -1.905135 63.856026 3.312075 -0.652993 0.020404 0.757089 0.537124 0.336785 1 17 1.000000
models\Characters\Eyes\template_head
  17 -0.649371 64.990601 3.822672 -0.612442 -0.259507 0.746706 0.518536 0.415277 1 17 1.000000
  17 -1.124811 64.950272 3.571691 -0.585619 -0.249790 0.771139 0.528718 0.387042 1 17 1.000000
  17 -1.006725 63.438812 3.981281 -0.672105 0.076762 0.736466 0.471870 0.363006 1 17 1.000000
models\Characters\Eyes\template_head
  17 -0.309748 65.101349 4.197280 -0.543998 -0.127929 0.829277 0.494094 0.439735 1 17 1.000000
  17 -0.649371 64.990601 3.822672 -0.612442 -0.259507 0.746706 0.518536 0.415277 1 17 1.000000
  17 -1.006725 63.438812 3.981281 -0.672105 0.076762 0.736466 0.471870 0.363006 1 17 1.000000
models\Characters\Eyes\template_head
  17 -0.649371 64.990601 3.822672 -0.612442 -0.259507 0.746706 0.518536 0.415277 1 17 1.000000
  17 -0.309748 65.101349 4.197280 -0.543998 -0.127929 0.829277 0.494094 0.439735 1 17 1.000000
  17 -1.503734 65.736938 4.222634 -0.529975 -0.203321 0.823278 0.555218 0.431144 1 17 1.000000
models\Characters\Eyes\template_head
  17 -0.309748 65.101349 4.197280 -0.543998 -0.127929 0.829277 0.494094 0.439735 1 17 1.000000
  17 -0.667218 65.575401 4.481877 -0.147009 -0.133877 0.980033 0.526186 0.449894 1 17 1.000000
  17 -1.503734 65.736938 4.222634 -0.529975 -0.203321 0.823278 0.555218 0.431144 1 17 1.000000
models\Characters\Eyes\template_head
  17 -2.459660 63.084942 2.040567 -0.929133 -0.174431 0.326015 0.567654 0.256238 1 17 1.000000
  17 -1.496496 61.932934 3.508673 -0.769291 -0.139416 0.623502 0.439337 0.288551 1 17 1.000000
  17 -1.905135 63.856026 3.312075 -0.652993 0.020404 0.757089 0.537124 0.336785 1 17 1.000000
models\Characters\Eyes\template_head
  17 -1.905135 63.856026 3.312075 -0.652993 0.020404 0.757089 0.537124 0.336785 1 17 1.000000
  17 -1.496496 61.932934 3.508673 -0.769291 -0.139416 0.623502 0.439337 0.288551 1 17 1.000000
  17 -1.006725 63.438812 3.981281 -0.672105 0.076762 0.736466 0.471870 0.363006 1 17 1.000000
models\Characters\Eyes\template_head
  17 -0.587619 63.859413 4.502497 -0.787560 0.339443 0.514323 0.468316 0.392400 1 17 1.000000
  17 -0.309748 65.101349 4.197280 -0.543998 -0.127929 0.829277 0.494094 0.439735 1 17 1.000000
  17 -1.006725 63.438812 3.981281 -0.672105 0.076762 0.736466 0.471870 0.363006 1 17 1.000000
models\Characters\Eyes\template_head
  17 -1.503734 65.736938 4.222634 -0.529975 -0.203321 0.823278 0.555218 0.431144 1 17 1.000000
  17 -1.821504 65.075867 3.283805 -0.730108 -0.178729 0.659544 0.554014 0.386721 1 17 1.000000
  17 -1.124811 64.950272 3.571691 -0.585619 -0.249790 0.771139 0.535355 0.405323 1 17 1.000000
models\Characters\Eyes\template_head
  17 -1.124811 64.950272 3.571691 -0.585619 -0.249790 0.771139 0.535355 0.405323 1 17 1.000000
  17 -0.649371 64.990601 3.822672 -0.612442 -0.259507 0.746706 0.518536 0.415277 1 17 1.000000
  17 -1.503734 65.736938 4.222634 -0.529975 -0.203321 0.823278 0.555218 0.431144 1 17 1.000000
models\Characters\Eyes\template_head
  17 0.007435 61.244427 4.036334 0.000000 -0.345705 0.938343 0.349600 0.330140 1 17 1.000000
  17 -0.713553 61.709591 4.420262 -0.464000 -0.161976 0.870900 0.393265 0.310077 1 17 1.000000
  17 -0.869153 61.222485 3.902871 -0.424635 -0.416136 0.804062 0.383212 0.296640 1 17 1.000000
models\Characters\Eyes\template_head
  17 -0.713553 61.709591 4.420262 -0.464000 -0.161976 0.870900 0.393265 0.310077 1 17 1.000000
  17 -1.496496 61.932934 3.508673 -0.769291 -0.139416 0.623502 0.439337 0.288551 1 17 1.000000
  17 -0.869153 61.222485 3.902871 -0.424635 -0.416136 0.804062 0.383212 0.296640 1 17 1.000000
models\Characters\Eyes\template_head
  17 -0.713553 61.709591 4.420262 -0.464000 -0.161976 0.870900 0.393265 0.310077 1 17 1.000000
  17 -0.903973 63.069324 4.199483 -0.688821 -0.282346 0.667687 0.459087 0.360158 1 17 1.000000
  17 -1.496496 61.932934 3.508673 -0.769291 -0.139416 0.623502 0.439337 0.288551 1 17 1.000000
models\Characters\Eyes\template_head
  17 -1.496496 61.932934 3.508673 -0.769291 -0.139416 0.623502 0.439337 0.288551 1 17 1.000000
  17 -0.903973 63.069324 4.199483 -0.688821 -0.282346 0.667687 0.459087 0.360158 1 17 1.000000
  17 -1.006725 63.438812 3.981281 -0.672105 0.076762 0.736466 0.471870 0.363006 1 17 1.000000
models\Characters\Eyes\template_head
  17 -0.903973 63.069324 4.199483 -0.688821 -0.282346 0.667687 0.459087 0.360158 1 17 1.000000
  17 -0.289562 63.597916 5.300186 -0.694830 0.173891 0.697834 0.440064 0.401511 1 17 1.000000
  17 -1.006725 63.438812 3.981281 -0.672105 0.076762 0.736466 0.471870 0.363006 1 17 1.000000
models\Characters\Eyes\template_head
  17 -0.587619 63.859413 4.502497 -0.787560 0.339443 0.514323 0.468316 0.392400 1 17 1.000000
  17 -1.006725 63.438812 3.981281 -0.672105 0.076762 0.736466 0.471870 0.363006 1 17 1.000000
  17 -0.289562 63.597916 5.300186 -0.694830 0.173891 0.697834 0.440064 0.401511 1 17 1.000000
models\Characters\Eyes\template_head
  17 -0.587619 63.859413 4.502497 -0.787560 0.339443 0.514323 0.468316 0.392400 1 17 1.000000
  17 -0.289562 63.597916 5.300186 -0.694830 0.173891 0.697834 0.440064 0.401511 1 17 1.000000
  17 0.007434 64.473373 5.098912 0.000679 0.423807 0.905752 0.446565 0.426025 1 17 1.000000
models\Characters\Eyes\template_head
  17 -0.587619 63.859413 4.502497 -0.787560 0.339443 0.514323 0.468316 0.392400 1 17 1.000000
  17 0.007434 64.473373 5.098912 0.000679 0.423807 0.905752 0.446565 0.426025 1 17 1.000000
  17 -0.309748 65.101349 4.197280 -0.543998 -0.127929 0.829277 0.494094 0.439735 1 17 1.000000
models\Characters\Eyes\template_head
  17 -0.309748 65.101349 4.197280 -0.543998 -0.127929 0.829277 0.494094 0.439735 1 17 1.000000
  17 0.007434 64.473373 5.098912 0.000679 0.423807 0.905752 0.446565 0.426025 1 17 1.000000
  17 0.007435 65.202415 4.335875 -0.000002 0.167336 0.985900 0.471957 0.451945 1 17 1.000000
models\Characters\Eyes\template_head
  17 0.007435 65.719765 4.449183 0.000000 -0.063665 0.997971 0.496722 0.479093 1 17 1.000000
  17 -0.309748 65.101349 4.197280 -0.543998 -0.127929 0.829277 0.494094 0.439735 1 17 1.000000
  17 0.007435 65.202415 4.335875 -0.000002 0.167336 0.985900 0.471957 0.451945 1 17 1.000000
models\Characters\Eyes\template_head
  17 -0.667218 65.575401 4.481877 -0.147009 -0.133877 0.980033 0.526186 0.449894 1 17 1.000000
  17 -0.309748 65.101349 4.197280 -0.543998 -0.127929 0.829277 0.494094 0.439735 1 17 1.000000
  17 0.007435 65.719765 4.449183 0.000000 -0.063665 0.997971 0.496722 0.479093 1 17 1.000000
models\Characters\Eyes\template_head
  17 0.007434 66.170685 4.330972 0.000000 0.368340 0.929691 0.515741 0.498112 1 17 1.000000
  17 -0.667218 65.575401 4.481877 -0.147009 -0.133877 0.980033 0.526186 0.449894 1 17 1.000000
  17 0.007435 65.719765 4.449183 0.000000 -0.063665 0.997971 0.496722 0.479093 1 17 1.000000
models\Characters\Eyes\template_head
  17 -1.499860 66.203323 4.094825 -0.561507 0.472996 0.678959 0.560710 0.445572 1 17 1.000000
  17 -0.667218 65.575401 4.481877 -0.147009 -0.133877 0.980033 0.526186 0.449894 1 17 1.000000
  17 0.007434 66.170685 4.330972 0.000000 0.368340 0.929691 0.515741 0.498112 1 17 1.000000
models\Characters\Eyes\template_head
  17 -1.503734 65.736938 4.222634 -0.529975 -0.203321 0.823278 0.555218 0.431144 1 17 1.000000
  17 -0.667218 65.575401 4.481877 -0.147009 -0.133877 0.980033 0.526186 0.449894 1 17 1.000000
  17 -1.499860 66.203323 4.094825 -0.561507 0.472996 0.678959 0.560710 0.445572 1 17 1.000000
models\Characters\Eyes\template_head
  17 -1.499860 66.203323 4.094825 -0.561507 0.472996 0.678959 0.560710 0.445572 1 17 1.000000
  17 -2.161450 65.846527 3.469069 -0.748838 -0.251473 0.613190 0.576480 0.404523 1 17 1.000000
  17 -1.503734 65.736938 4.222634 -0.529975 -0.203321 0.823278 0.555218 0.431144 1 17 1.000000
models\Characters\Eyes\template_head
  17 -2.161450 65.846527 3.469069 -0.748838 -0.251473 0.613190 0.576480 0.404523 1 17 1.000000
  17 -1.821504 65.075867 3.283805 -0.730108 -0.178729 0.659544 0.554014 0.386721 1 17 1.000000
  17 -1.503734 65.736938 4.222634 -0.529975 -0.203321 0.823278 0.555218 0.431144 1 17 1.000000
models\Characters\Eyes\template_head
  17 -2.633612 65.969116 2.362173 -0.936548 0.159121 0.312344 0.626289 0.375534 1 17 1.000000
  17 -1.821504 65.075867 3.283805 -0.730108 -0.178729 0.659544 0.554014 0.386721 1 17 1.000000
  17 -2.161450 65.846527 3.469069 -0.748838 -0.251473 0.613190 0.576480 0.404523 1 17 1.000000
models\Characters\Eyes\template_head
  17 -2.865826 64.638809 2.075496 -0.936688 0.060617 0.344879 0.614483 0.308917 1 17 1.000000
  17 -1.821504 65.075867 3.283805 -0.730108 -0.178729 0.659544 0.554014 0.386721 1 17 1.000000
  17 -2.633612 65.969116 2.362173 -0.936548 0.159121 0.312344 0.626289 0.375534 1 17 1.000000
models\Characters\Eyes\template_head
  17 -0.351547 62.968925 5.136372 -0.553651 -0.619480 0.556521 0.424751 0.392535 1 17 1.000000
  17 -0.289562 63.597916 5.300186 -0.694830 0.173891 0.697834 0.440064 0.401511 1 17 1.000000
  17 -0.903973 63.069324 4.199483 -0.688821 -0.282346 0.667687 0.459087 0.360158 1 17 1.000000
models\Characters\Eyes\template_head
  17 0.007435 61.708027 4.521031 0.000000 -0.377752 0.925907 0.359761 0.339766 1 17 1.000000
  17 -0.713553 61.709591 4.420262 -0.464000 -0.161976 0.870900 0.393265 0.310077 1 17 1.000000
  17 0.007435 61.244427 4.036334 0.000000 -0.345705 0.938343 0.349600 0.330140 1 17 1.000000
models\Characters\Eyes\template_head
  17 0.007435 61.708027 4.521031 0.000000 -0.377752 0.925907 0.359761 0.339766 1 17 1.000000
  17 0.007435 62.834137 4.580848 0.000000 -0.871131 0.491050 0.399894 0.379893 1 17 1.000000
  17 -0.713553 61.709591 4.420262 -0.464000 -0.161976 0.870900 0.393265 0.310077 1 17 1.000000
models\Characters\Eyes\template_head
  17 -0.713553 61.709591 4.420262 -0.464000 -0.161976 0.870900 0.393265 0.310077 1 17 1.000000
  17 0.007435 62.834137 4.580848 0.000000 -0.871131 0.491050 0.399894 0.379893 1 17 1.000000
  17 -0.903973 63.069324 4.199483 -0.688821 -0.282346 0.667687 0.459087 0.360158 1 17 1.000000
models\Characters\Eyes\template_head
  17 0.007435 62.834137 4.580848 0.000000 -0.871131 0.491050 0.399894 0.379893 1 17 1.000000
  17 -0.351547 62.968925 5.136372 -0.553651 -0.619480 0.556521 0.424751 0.392535 1 17 1.000000
  17 -0.903973 63.069324 4.199483 -0.688821 -0.282346 0.667687 0.459087 0.360158 1 17 1.000000
models\Characters\Eyes\template_head
  17 0.007435 62.834137 4.580848 0.000000 -0.871131 0.491050 0.399894 0.379893 1 17 1.000000
  17 0.007435 62.857002 5.141547 0.000000 -0.794808 0.606861 0.416139 0.397052 1 17 1.000000
  17 -0.351547 62.968925 5.136372 -0.553651 -0.619480 0.556521 0.424751 0.392535 1 17 1.000000
models\Characters\Eyes\template_head
  17 -0.351547 62.968925 5.136372 -0.553651 -0.619480 0.556521 0.424751 0.392535 1 17 1.000000
  17 0.007435 62.857002 5.141547 0.000000 -0.794808 0.606861 0.416139 0.397052 1 17 1.000000
  17 0.007435 63.601555 5.400255 0.064994 -0.067559 0.995596 0.430585 0.411767 1 17 1.000000
models\Characters\Eyes\template_head
  17 -0.351547 62.968925 5.136372 -0.553651 -0.619480 0.556521 0.424751 0.392535 1 17 1.000000
  17 0.007435 63.601555 5.400255 0.064994 -0.067559 0.995596 0.430585 0.411767 1 17 1.000000
  17 -0.289562 63.597916 5.300186 -0.694830 0.173891 0.697834 0.440064 0.401511 1 17 1.000000
models\Characters\Eyes\template_head
  17 0.007434 64.473373 5.098912 0.000679 0.423807 0.905752 0.446565 0.426025 1 17 1.000000
  17 -0.289562 63.597916 5.300186 -0.694830 0.173891 0.697834 0.440064 0.401511 1 17 1.000000
  17 0.007435 63.601555 5.400255 0.064994 -0.067559 0.995596 0.430585 0.411767 1 17 1.000000
models\Characters\Eyes\template_head
  17 -2.633612 65.969116 2.362173 -0.936548 0.159121 0.312344 0.626289 0.375534 1 17 1.000000
  17 -3.180834 65.165169 0.212429 -0.927718 0.281827 0.244772 0.685622 0.276405 1 17 1.000000
  17 -2.865826 64.638809 2.075496 -0.936688 0.060617 0.344879 0.614483 0.308917 1 17 1.000000
models\Characters\Eyes\template_head
  17 -2.825247 63.147579 0.370485 -0.865891 -0.478914 0.144478 0.618447 0.185079 1 17 1.000000
  17 -2.865826 64.638809 2.075496 -0.936688 0.060617 0.344879 0.614483 0.308917 1 17 1.000000
  17 -3.180834 65.165169 0.212429 -0.927718 0.281827 0.244772 0.685622 0.276405 1 17 1.000000
models\Characters\Eyes\template_head
  17 -3.180834 65.165169 0.212429 -0.927718 0.281827 0.244772 0.685622 0.276405 1 17 1.000000
  17 -3.167832 62.995636 -0.125766 -0.494284 -0.868694 0.032450 0.655008 0.182306 1 17 1.000000
  17 -2.825247 63.147579 0.370485 -0.865891 -0.478914 0.144478 0.618447 0.185079 1 17 1.000000
models\Characters\Eyes\template_head
  17 -3.648797 65.544029 -0.209733 -0.908109 0.313800 0.277251 0.709643 0.258673 1 17 1.000000
  17 -3.167832 62.995636 -0.125766 -0.494284 -0.868694 0.032450 0.655008 0.182306 1 17 1.000000
  17 -3.180834 65.165169 0.212429 -0.927718 0.281827 0.244772 0.685622 0.276405 1 17 1.000000
models\Characters\Eyes\template_head
  17 -3.648797 65.544029 -0.209733 -0.908109 0.313800 0.277251 0.709643 0.258673 1 17 1.000000
  17 -3.559599 63.967770 -0.974330 -0.220138 -0.547841 -0.807099 0.673345 0.180980 1 17 1.000000
  17 -3.167832 62.995636 -0.125766 -0.494284 -0.868694 0.032450 0.655008 0.182306 1 17 1.000000
models\Characters\Eyes\template_head
  17 -3.865803 65.143570 -1.010350 -0.138819 0.303499 -0.942665 0.718726 0.220873 1 17 1.000000
  17 -3.559599 63.967770 -0.974330 -0.220138 -0.547841 -0.807099 0.673345 0.180980 1 17 1.000000
  17 -3.648797 65.544029 -0.209733 -0.908109 0.313800 0.277251 0.709643 0.258673 1 17 1.000000
models\Characters\Eyes\template_head
  17 -3.101211 65.171280 -0.737868 -0.847872 0.332029 -0.413365 0.740461 0.250197 1 17 1.000000
  17 -2.413786 63.700024 -1.491529 -0.745169 -0.282232 -0.604209 0.743329 0.172946 1 17 1.000000
  17 -2.869908 64.453949 -0.799018 -0.375350 0.027874 -0.926464 0.732474 0.206564 1 17 1.000000
models\Characters\Eyes\template_head
  17 -2.413786 63.700024 -1.491529 -0.745169 -0.282232 -0.604209 0.743329 0.172946 1 17 1.000000
  17 -2.727400 63.260960 -0.216561 -0.178610 -0.676478 -0.714476 0.670032 0.165820 1 17 1.000000
  17 -2.869908 64.453949 -0.799018 -0.375350 0.027874 -0.926464 0.732474 0.206564 1 17 1.000000
models\Characters\Eyes\template_head
  16 -1.907655 62.083820 -0.655501 -0.895062 0.066005 -0.441030 0.694516 0.131457 1 16 1.000000
  17 -2.727400 63.260960 -0.216561 -0.178610 -0.676478 -0.714476 0.670032 0.165820 1 17 1.000000
  17 -2.413786 63.700024 -1.491529 -0.745169 -0.282232 -0.604209 0.743329 0.172946 1 17 1.000000
models\Characters\Eyes\template_head
  16 -1.907655 62.083820 -0.655501 -0.895062 0.066005 -0.441030 0.694516 0.131457 1 16 1.000000
  17 -2.825247 63.147579 0.370485 -0.865891 -0.478914 0.144478 0.618447 0.185079 1 17 1.000000
  17 -2.727400 63.260960 -0.216561 -0.178610 -0.676478 -0.714476 0.670032 0.165820 1 17 1.000000
models\Characters\Eyes\template_head
  16 -2.015900 61.500080 0.208999 -0.989710 -0.126963 0.065981 0.592453 0.119309 1 16 1.000000
  17 -2.825247 63.147579 0.370485 -0.865891 -0.478914 0.144478 0.618447 0.185079 1 17 1.000000
  16 -1.907655 62.083820 -0.655501 -0.895062 0.066005 -0.441030 0.694516 0.131457 1 16 1.000000
models\Characters\Eyes\template_head
  17 -2.586681 61.855900 0.721705 -0.903418 -0.419378 -0.089203 0.576469 0.176031 1 17 1.000000
  17 -2.825247 63.147579 0.370485 -0.865891 -0.478914 0.144478 0.618447 0.185079 1 17 1.000000
  16 -2.015900 61.500080 0.208999 -0.989710 -0.126963 0.065981 0.592453 0.119309 1 16 1.000000
models\Characters\Eyes\template_head
  16 -1.658700 60.809505 0.880649 -0.877139 -0.273043 0.395063 0.479928 0.125214 1 16 1.000000
  17 -2.586681 61.855900 0.721705 -0.903418 -0.419378 -0.089203 0.576469 0.176031 1 17 1.000000
  16 -2.015900 61.500080 0.208999 -0.989710 -0.126963 0.065981 0.592453 0.119309 1 16 1.000000
models\Characters\Eyes\template_head
  16 -1.527419 60.660168 1.316259 -0.713287 -0.696191 0.080871 0.484511 0.137894 2 16 0.800000 17 0.200000
  17 -2.586681 61.855900 0.721705 -0.903418 -0.419378 -0.089203 0.576469 0.176031 1 17 1.000000
  16 -1.658700 60.809505 0.880649 -0.877139 -0.273043 0.395063 0.479928 0.125214 1 16 1.000000
models\Characters\Eyes\template_head
  16 -0.830300 59.937279 1.668968 -0.685745 -0.317882 0.654756 0.379082 0.142263 1 16 1.000000
  16 -1.527419 60.660168 1.316259 -0.713287 -0.696191 0.080871 0.484511 0.137894 2 16 0.800000 17 0.200000
  16 -1.658700 60.809505 0.880649 -0.877139 -0.273043 0.395063 0.479928 0.125214 1 16 1.000000
models\Characters\Eyes\template_head
  16 -0.717515 60.191399 2.005283 -0.578953 -0.813449 0.055808 0.393999 0.152071 2 16 0.800000 17 0.200000
  16 -1.527419 60.660168 1.316259 -0.713287 -0.696191 0.080871 0.484511 0.137894 2 16 0.800000 17 0.200000
  16 -0.830300 59.937279 1.668968 -0.685745 -0.317882 0.654756 0.379082 0.142263 1 16 1.000000
models\Characters\Eyes\template_head
  16 0.001900 59.627712 2.267384 0.001000 -0.416964 0.908922 0.253427 0.236225 1 16 1.000000
  16 -0.717515 60.191399 2.005283 -0.578953 -0.813449 0.055808 0.393999 0.152071 2 16 0.800000 17 0.200000
  16 -0.830300 59.937279 1.668968 -0.685745 -0.317882 0.654756 0.379082 0.142263 1 16 1.000000
models\Characters\Eyes\template_head
  16 0.007433 59.802109 2.401586 -0.000045 -0.978725 0.205178 0.256237 0.238910 2 16 0.800000 17 0.200000
  16 -0.717515 60.191399 2.005283 -0.578953 -0.813449 0.055808 0.393999 0.152071 2 16 0.800000 17 0.200000
  16 0.001900 59.627712 2.267384 0.001000 -0.416964 0.908922 0.253427 0.236225 1 16 1.000000
models\Characters\Eyes\template_head
  16 0.007433 59.802109 2.401586 -0.000045 -0.978725 0.205178 0.256237 0.238910 2 16 0.800000 17 0.200000
  17 -0.694549 59.881031 3.415584 -0.530967 -0.810375 0.247724 0.336156 0.237422 1 17 1.000000
  16 -0.717515 60.191399 2.005283 -0.578953 -0.813449 0.055808 0.393999 0.152071 2 16 0.800000 17 0.200000
models\Characters\Eyes\template_head
  17 0.007434 59.877647 3.610750 -0.000001 -0.928548 0.371213 0.297589 0.281268 1 17 1.000000
  17 -0.694549 59.881031 3.415584 -0.530967 -0.810375 0.247724 0.336156 0.237422 1 17 1.000000
  16 0.007433 59.802109 2.401586 -0.000045 -0.978725 0.205178 0.256237 0.238910 2 16 0.800000 17 0.200000
models\Characters\Eyes\template_head
  17 0.007434 59.877647 3.610750 -0.000001 -0.928548 0.371213 0.297589 0.281268 1 17 1.000000
  17 -0.708883 60.542091 3.989729 -0.539344 -0.356732 0.762791 0.352048 0.268481 1 17 1.000000
  17 -0.694549 59.881031 3.415584 -0.530967 -0.810375 0.247724 0.336156 0.237422 1 17 1.000000
models\Characters\Eyes\template_head
  17 0.007434 60.382896 4.129445 0.000000 -0.199918 0.979813 0.319699 0.302539 1 17 1.000000
  17 -0.708883 60.542091 3.989729 -0.539344 -0.356732 0.762791 0.352048 0.268481 1 17 1.000000
  17 0.007434 59.877647 3.610750 -0.000001 -0.928548 0.371213 0.297589 0.281268 1 17 1.000000
models\Characters\Eyes\template_head
  17 0.007434 60.382896 4.129445 0.000000 -0.199918 0.979813 0.319699 0.302539 1 17 1.000000
  17 0.007435 61.244427 4.036334 0.000000 -0.345705 0.938343 0.349600 0.330140 1 17 1.000000
  17 -0.708883 60.542091 3.989729 -0.539344 -0.356732 0.762791 0.352048 0.268481 1 17 1.000000
models\Characters\Eyes\template_head
  17 -0.708883 60.542091 3.989729 -0.539344 -0.356732 0.762791 0.352048 0.268481 1 17 1.000000
  17 0.007435 61.244427 4.036334 0.000000 -0.345705 0.938343 0.349600 0.330140 1 17 1.000000
  17 -0.869153 61.222485 3.902871 -0.424635 -0.416136 0.804062 0.383212 0.296640 1 17 1.000000
models\Characters\Eyes\template_head
  17 3.748235 65.432610 -0.519048 0.737138 0.672456 0.066565 0.128981 0.967563 1 17 1.000000
  17 3.116081 65.171280 -0.737868 0.568066 0.543994 -0.617553 0.130710 0.942515 1 17 1.000000
  17 3.195700 65.165176 0.212430 0.886519 0.272771 0.373737 0.170505 0.936251 1 17 1.000000
models\Characters\Eyes\template_head
  17 3.748235 65.432610 -0.519048 0.737138 0.672456 0.066565 0.128981 0.967563 1 17 1.000000
  17 3.880671 64.849953 -1.010350 0.297151 -0.000402 -0.954830 0.101612 0.962364 1 17 1.000000
  17 3.116081 65.171280 -0.737868 0.568066 0.543994 -0.617553 0.130710 0.942515 1 17 1.000000
models\Characters\Eyes\template_head
  17 3.116081 65.171280 -0.737868 0.568066 0.543994 -0.617553 0.130710 0.942515 1 17 1.000000
  17 3.880671 64.849953 -1.010350 0.297151 -0.000402 -0.954830 0.101612 0.962364 1 17 1.000000
  17 2.884778 64.453949 -0.799018 0.427313 -0.128065 -0.894988 0.101080 0.929780 1 17 1.000000
models\Characters\Eyes\template_head
  17 3.880671 64.849953 -1.010350 0.297151 -0.000402 -0.954830 0.101612 0.962364 1 17 1.000000
  17 3.608228 63.762783 -0.856970 0.232468 -0.597645 -0.767319 0.050723 0.897940 1 17 1.000000
  17 2.884778 64.453949 -0.799018 0.427313 -0.128065 -0.894988 0.101080 0.929780 1 17 1.000000
models\Characters\Eyes\template_head
  17 2.884778 64.453949 -0.799018 0.427313 -0.128065 -0.894988 0.101080 0.929780 1 17 1.000000
  17 3.608228 63.762783 -0.856970 0.232468 -0.597645 -0.767319 0.050723 0.897940 1 17 1.000000
  17 2.742267 63.260960 -0.216568 0.184295 -0.689687 -0.700263 0.067023 0.885791 1 17 1.000000
models\Characters\Eyes\template_head
  17 3.608228 63.762783 -0.856970 0.232468 -0.597645 -0.767319 0.050723 0.897940 1 17 1.000000
  17 3.182699 62.995636 -0.125766 0.502508 -0.862294 0.062729 0.042330 0.869587 1 17 1.000000
  17 2.742267 63.260960 -0.216568 0.184295 -0.689687 -0.700263 0.067023 0.885791 1 17 1.000000
models\Characters\Eyes\template_head
  17 3.182699 62.995636 -0.125766 0.502508 -0.862294 0.062729 0.042330 0.869587 1 17 1.000000
  17 2.840115 63.147579 0.370485 0.871878 -0.473786 0.123920 0.051014 0.846418 1 17 1.000000
  17 2.742267 63.260960 -0.216568 0.184295 -0.689687 -0.700263 0.067023 0.885791 1 17 1.000000
end
