// Created by Crowbar 0.74
version 1
nodes
  0 "File_cabinet_02" -1
end
skeleton
  time 0
    0 0.000000 0.000000 0.000000 0.000000 0.000000 0.000000
end
triangles
  phy
    0 10.045748 -9.194219 0.298447 0.724565 0.297683 0.621603 0 0
    0 -11.388541 -9.194222 45.056132 0.749914 -0.154049 -0.643349 0 0
    0 -11.388541 -9.194221 0.298447 0.724565 0.297683 -0.621603 0 0
  phy
    0 10.045748 -9.194219 0.298447 0.724565 0.297683 0.621603 0 0
    0 10.045748 -9.194221 45.056132 0.644001 -0.529169 0.552488 0 0
    0 -11.388541 -9.194222 45.056132 0.749914 -0.154049 -0.643349 0 0
  phy
    0 10.045748 -9.194219 0.298447 0.724565 0.297683 0.621603 0 0
    0 10.045748 9.194218 45.056132 -0.493099 -0.202587 0.846057 0 0
    0 10.045748 -9.194221 45.056132 0.644001 -0.529169 0.552488 0 0
  phy
    0 10.045748 -9.194219 0.298447 0.724565 0.297683 0.621603 0 0
    0 10.045748 9.194219 0.298447 -0.903067 0.185510 0.387370 0 0
    0 10.045748 9.194218 45.056132 -0.493099 -0.202587 0.846057 0 0
  phy
    0 10.045748 9.194218 45.056132 -0.493099 -0.202587 0.846057 0 0
    0 -11.388541 9.194217 45.056132 -0.859775 -0.353234 -0.368800 0 0
    0 10.045748 -9.194221 45.056132 0.644001 -0.529169 0.552488 0 0
  phy
    0 -11.388541 9.194217 45.056132 -0.859775 -0.353234 -0.368800 0 0
    0 -11.388541 -9.194222 45.056132 0.749914 -0.154049 -0.643349 0 0
    0 10.045748 -9.194221 45.056132 0.644001 -0.529169 0.552488 0 0
  phy
    0 10.045748 9.194219 0.298447 -0.903067 0.185510 0.387370 0 0
    0 10.045748 -9.194219 0.298447 0.724565 0.297683 0.621603 0 0
    0 -11.388541 9.194218 0.298447 -0.465286 0.382320 -0.798336 0 0
  phy
    0 -11.388541 9.194218 0.298447 -0.465286 0.382320 -0.798336 0 0
    0 10.045748 -9.194219 0.298447 0.724565 0.297683 0.621603 0 0
    0 -11.388541 -9.194221 0.298447 0.724565 0.297683 -0.621603 0 0
  phy
    0 10.045748 9.194218 45.056132 -0.493099 -0.202587 0.846057 0 0
    0 10.045748 9.194219 0.298447 -0.903067 0.185510 0.387370 0 0
    0 -11.388541 9.194217 45.056132 -0.859775 -0.353234 -0.368800 0 0
  phy
    0 -11.388541 9.194217 45.056132 -0.859775 -0.353234 -0.368800 0 0
    0 10.045748 9.194219 0.298447 -0.903067 0.185510 0.387370 0 0
    0 -11.388541 9.194218 0.298447 -0.465286 0.382320 -0.798336 0 0
  phy
    0 -11.388541 -9.194222 45.056132 0.749914 -0.154049 -0.643349 0 0
    0 -11.388541 9.194217 45.056132 -0.859775 -0.353234 -0.368800 0 0
    0 -11.388541 9.194218 0.298447 -0.465286 0.382320 -0.798336 0 0
  phy
    0 -11.388541 -9.194222 45.056132 0.749914 -0.154049 -0.643349 0 0
    0 -11.388541 9.194218 0.298447 -0.465286 0.382320 -0.798336 0 0
    0 -11.388541 -9.194221 0.298447 0.724565 0.297683 -0.621603 0 0
end
