// Created by Crowbar 0.74
version 1
nodes
  0 "File_cabinet_02" -1
end
skeleton
  time 0
    0 0.000000 0.000000 0.000000 0.000000 0.000000 0.000000
end
triangles
File_cabinet_02
  0 11.029496 34.686241 -2.157869 -1.000000 0.000000 0.000000 0.019819 0.673239 1 0 1.000000
  0 11.029496 34.182541 -2.157869 -1.000000 0.000000 0.000000 0.009989 0.672656 1 0 1.000000
  0 11.029496 34.686241 2.157824 -1.000000 0.000000 0.000000 0.019819 0.591003 1 0 1.000000
File_cabinet_02
  0 11.029496 34.182541 -2.157869 -1.000000 0.000000 0.000000 0.009989 0.672656 1 0 1.000000
  0 11.029496 34.182541 2.157824 -1.000000 0.000000 0.000000 0.009989 0.591654 1 0 1.000000
  0 11.029496 34.686241 2.157824 -1.000000 0.000000 0.000000 0.019819 0.591003 1 0 1.000000
File_cabinet_02
  0 10.039274 41.357807 3.023077 0.686664 0.000000 0.726975 0.852528 0.993065 1 0 1.000000
  0 10.039274 37.186703 3.023077 0.686664 0.000000 0.726975 0.852528 0.893828 1 0 1.000000
  0 10.367323 41.022938 2.713219 0.997676 0.000000 0.068130 0.860123 0.985714 1 0 1.000000
File_cabinet_02
  0 10.039274 37.186703 3.023077 0.686664 0.000000 0.726975 0.852528 0.893828 1 0 1.000000
  0 10.367323 37.521626 2.713219 0.997676 0.000000 0.068130 0.860123 0.901180 1 0 1.000000
  0 10.367323 41.022938 2.713219 0.997676 0.000000 0.068130 0.860123 0.985714 1 0 1.000000
File_cabinet_02
  0 10.367323 41.022938 2.713219 0.997676 0.000000 0.068130 0.860123 0.985714 1 0 1.000000
  0 10.367323 37.521626 2.713219 0.997676 0.000000 0.068130 0.860123 0.901180 1 0 1.000000
  0 10.136864 40.763218 2.426792 0.779117 0.000000 -0.626879 0.866735 0.979969 1 0 1.000000
File_cabinet_02
  0 10.367323 37.521626 2.713219 0.997676 0.000000 0.068130 0.860123 0.901180 1 0 1.000000
  0 10.136864 37.781345 2.426792 0.779117 0.000000 -0.626879 0.866735 0.906925 1 0 1.000000
  0 10.136864 40.763218 2.426792 0.779117 0.000000 -0.626879 0.866735 0.979969 1 0 1.000000
File_cabinet_02
  0 10.367323 10.565811 -2.713265 0.999697 -0.024625 0.000000 0.985405 0.901180 1 0 1.000000
  0 10.136862 10.825532 -2.426863 0.747983 0.663718 0.000000 0.978793 0.906925 1 0 1.000000
  0 10.136862 10.825532 2.426792 0.747983 0.663718 0.000000 0.866735 0.906925 1 0 1.000000
File_cabinet_02
  0 10.367323 10.565811 2.713219 0.999697 -0.024625 0.000000 0.860123 0.901180 1 0 1.000000
  0 10.367323 10.565811 -2.713265 0.999697 -0.024625 0.000000 0.985405 0.901180 1 0 1.000000
  0 10.136862 10.825532 2.426792 0.747983 0.663718 0.000000 0.866735 0.906925 1 0 1.000000
File_cabinet_02
  0 10.039274 10.230891 -3.023146 0.714397 -0.699740 0.000000 0.993000 0.893828 1 0 1.000000
  0 10.367323 10.565811 -2.713265 0.999697 -0.024625 0.000000 0.985405 0.901180 1 0 1.000000
  0 10.367323 10.565811 2.713219 0.999697 -0.024625 0.000000 0.860123 0.901180 1 0 1.000000
File_cabinet_02
  0 10.039274 10.230891 3.023077 0.714397 -0.699740 0.000000 0.852528 0.893828 1 0 1.000000
  0 10.039274 10.230891 -3.023146 0.714397 -0.699740 0.000000 0.993000 0.893828 1 0 1.000000
  0 10.367323 10.565811 2.713219 0.999697 -0.024625 0.000000 0.860123 0.901180 1 0 1.000000
File_cabinet_02
  0 10.034403 34.686241 -2.759988 0.000000 1.000000 0.000001 0.026755 0.698967 1 0 1.000000
  0 10.034461 34.686241 -2.373792 0.000000 1.000000 0.000001 0.019819 0.692382 1 0 1.000000
  0 11.145561 34.686241 -2.500610 0.000000 1.000000 0.000001 0.026755 0.677973 1 0 1.000000
File_cabinet_02
  0 11.029496 34.686241 -2.157869 0.000000 1.000000 0.000000 0.019819 0.673239 1 0 1.000000
  0 11.145561 34.686241 -2.500610 0.000000 1.000000 0.000001 0.026755 0.677973 1 0 1.000000
  0 10.034461 34.686241 -2.373792 0.000000 1.000000 0.000001 0.019819 0.692382 1 0 1.000000
File_cabinet_02
  0 11.029496 34.686241 -2.157869 0.000000 1.000000 0.000000 0.019819 0.673239 1 0 1.000000
  0 11.342136 34.686241 -2.184988 0.000000 1.000000 0.000000 0.026755 0.671978 1 0 1.000000
  0 11.145561 34.686241 -2.500610 0.000000 1.000000 0.000001 0.026755 0.677973 1 0 1.000000
File_cabinet_02
  0 11.029496 34.686241 2.157824 0.000000 1.000000 0.000000 0.019819 0.591003 1 0 1.000000
  0 11.342136 34.686241 -2.184988 0.000000 1.000000 0.000000 0.026755 0.671978 1 0 1.000000
  0 11.029496 34.686241 -2.157869 0.000000 1.000000 0.000000 0.019819 0.673239 1 0 1.000000
File_cabinet_02
  0 11.342136 34.686241 2.184965 0.000000 1.000000 0.000000 0.026755 0.592127 1 0 1.000000
  0 11.342136 34.686241 -2.184988 0.000000 1.000000 0.000000 0.026755 0.671978 1 0 1.000000
  0 11.029496 34.686241 2.157824 0.000000 1.000000 0.000000 0.019819 0.591003 1 0 1.000000
File_cabinet_02
  0 11.342136 34.686241 2.184965 0.000000 1.000000 0.000000 0.026755 0.592127 1 0 1.000000
  0 11.029496 34.686241 2.157824 0.000000 1.000000 0.000000 0.019819 0.591003 1 0 1.000000
  0 11.145561 34.686241 2.500540 0.000000 1.000000 -0.000005 0.026755 0.586133 1 0 1.000000
File_cabinet_02
  0 11.145561 34.686241 2.500540 0.000000 1.000000 -0.000005 0.026755 0.586133 1 0 1.000000
  0 11.029496 34.686241 2.157824 0.000000 1.000000 0.000000 0.019819 0.591003 1 0 1.000000
  0 10.034461 34.686241 2.373745 0.000000 1.000000 0.000003 0.019819 0.572133 1 0 1.000000
File_cabinet_02
  0 10.034403 34.686241 2.759964 0.000000 1.000000 0.000003 0.026755 0.565138 1 0 1.000000
  0 11.145561 34.686241 2.500540 0.000000 1.000000 -0.000005 0.026755 0.586133 1 0 1.000000
  0 10.034461 34.686241 2.373745 0.000000 1.000000 0.000003 0.019819 0.572133 1 0 1.000000
File_cabinet_02
  0 10.136864 40.763218 2.426792 1.000000 0.000000 0.000000 0.705244 0.993425 1 0 1.000000
  0 10.136864 37.781345 2.426792 1.000000 0.000000 0.000000 0.705244 0.903633 1 0 1.000000
  0 10.136864 40.763218 -2.426863 1.000000 0.000000 0.000000 0.842995 0.993425 1 0 1.000000
File_cabinet_02
  0 10.136864 37.781345 2.426792 1.000000 0.000000 0.000000 0.705244 0.903633 1 0 1.000000
  0 10.136864 37.781345 -2.426863 1.000000 0.000000 0.000000 0.842995 0.903633 1 0 1.000000
  0 10.136864 40.763218 -2.426863 1.000000 0.000000 0.000000 0.842995 0.993425 1 0 1.000000
File_cabinet_02
  0 -11.342142 0.110698 -9.144820 0.000000 0.000000 -1.000000 0.346958 0.006356 1 0 1.000000
  0 -11.342142 44.944378 -9.144820 0.000000 0.000000 -1.000000 0.346958 0.695759 1 0 1.000000
  0 10.032635 0.110698 -9.144820 0.000000 0.000000 -1.000000 0.695689 0.006356 1 0 1.000000
File_cabinet_02
  0 -11.342142 44.944378 -9.144820 0.000000 0.000000 -1.000000 0.346958 0.695759 1 0 1.000000
  0 10.032635 44.944378 -9.144820 0.000000 0.000000 -1.000000 0.695689 0.695759 1 0 1.000000
  0 10.032635 0.110698 -9.144820 0.000000 0.000000 -1.000000 0.695689 0.006356 1 0 1.000000
File_cabinet_02
  0 11.029496 7.226735 -2.157869 -0.212064 0.000000 0.977256 0.009989 0.672656 1 0 1.000000
  0 11.029496 7.730434 -2.157869 -0.212064 0.000000 0.977256 0.019819 0.673239 1 0 1.000000
  0 10.034461 7.226735 -2.373792 -0.212064 0.000000 0.977256 0.009989 0.691857 1 0 1.000000
File_cabinet_02
  0 11.029496 7.730434 -2.157869 -0.212064 0.000000 0.977256 0.019819 0.673239 1 0 1.000000
  0 10.034461 7.730434 -2.373792 -0.212064 0.000000 0.977256 0.019819 0.692382 1 0 1.000000
  0 10.034461 7.226735 -2.373792 -0.212064 0.000000 0.977256 0.009989 0.691857 1 0 1.000000
File_cabinet_02
  0 11.029496 7.730434 2.157824 -0.212063 0.000000 -0.977256 0.019819 0.591003 1 0 1.000000
  0 11.029496 7.226735 2.157824 -0.212063 0.000000 -0.977256 0.009989 0.591654 1 0 1.000000
  0 10.034461 7.730434 2.373745 -0.212063 0.000000 -0.977256 0.019819 0.572133 1 0 1.000000
File_cabinet_02
  0 11.029496 7.226735 2.157824 -0.212063 0.000000 -0.977256 0.009989 0.591654 1 0 1.000000
  0 10.034461 7.226735 2.373745 -0.212063 0.000000 -0.977256 0.009989 0.572659 1 0 1.000000
  0 10.034461 7.730434 2.373745 -0.212063 0.000000 -0.977256 0.019819 0.572133 1 0 1.000000
File_cabinet_02
  0 11.029496 7.730434 -2.157869 -1.000000 0.000000 0.000000 0.019819 0.673239 1 0 1.000000
  0 11.029496 7.226735 -2.157869 -1.000000 0.000000 0.000000 0.009989 0.672656 1 0 1.000000
  0 11.029496 7.730434 2.157824 -1.000000 0.000000 0.000000 0.019819 0.591003 1 0 1.000000
File_cabinet_02
  0 11.029496 7.226735 -2.157869 -1.000000 0.000000 0.000000 0.009989 0.672656 1 0 1.000000
  0 11.029496 7.226735 2.157824 -1.000000 0.000000 0.000000 0.009989 0.591654 1 0 1.000000
  0 11.029496 7.730434 2.157824 -1.000000 0.000000 0.000000 0.019819 0.591003 1 0 1.000000
File_cabinet_02
  0 10.039274 14.401994 3.023077 0.686664 0.000000 0.726975 0.852528 0.993065 1 0 1.000000
  0 10.039274 10.230891 3.023077 0.686664 0.000000 0.726975 0.852528 0.893828 1 0 1.000000
  0 10.367323 14.067123 2.713219 0.997676 0.000000 0.068128 0.860123 0.985714 1 0 1.000000
File_cabinet_02
  0 10.039274 10.230891 3.023077 0.686664 0.000000 0.726975 0.852528 0.893828 1 0 1.000000
  0 10.367323 10.565811 2.713219 0.997676 0.000000 0.068128 0.860123 0.901180 1 0 1.000000
  0 10.367323 14.067123 2.713219 0.997676 0.000000 0.068128 0.860123 0.985714 1 0 1.000000
File_cabinet_02
  0 10.367323 14.067123 2.713219 0.997676 0.000000 0.068128 0.860123 0.985714 1 0 1.000000
  0 10.367323 10.565811 2.713219 0.997676 0.000000 0.068128 0.860123 0.901180 1 0 1.000000
  0 10.136862 13.807403 2.426792 0.779114 0.000000 -0.626882 0.866735 0.979969 1 0 1.000000
File_cabinet_02
  0 10.367323 10.565811 2.713219 0.997676 0.000000 0.068128 0.860123 0.901180 1 0 1.000000
  0 10.136862 10.825532 2.426792 0.779114 0.000000 -0.626882 0.866735 0.906925 1 0 1.000000
  0 10.136862 13.807403 2.426792 0.779114 0.000000 -0.626882 0.866735 0.979969 1 0 1.000000
File_cabinet_02
  0 11.145561 7.730434 2.500540 0.582281 0.000000 0.812988 0.026755 0.586133 1 0 1.000000
  0 10.034403 7.730434 2.759964 0.227358 0.000000 0.973811 0.026755 0.565138 1 0 1.000000
  0 10.034403 7.226735 2.759964 0.227358 0.000000 0.973811 0.036591 0.565138 1 0 1.000000
File_cabinet_02
  0 11.145561 7.226735 2.500540 0.582281 0.000000 0.812988 0.036591 0.586133 1 0 1.000000
  0 11.145561 7.730434 2.500540 0.582281 0.000000 0.812988 0.026755 0.586133 1 0 1.000000
  0 10.034403 7.226735 2.759964 0.227358 0.000000 0.973811 0.036591 0.565138 1 0 1.000000
File_cabinet_02
  0 11.342136 7.730434 2.184965 0.961456 0.000000 0.274960 0.026755 0.592127 1 0 1.000000
  0 11.145561 7.730434 2.500540 0.582281 0.000000 0.812988 0.026755 0.586133 1 0 1.000000
  0 11.145561 7.226735 2.500540 0.582281 0.000000 0.812988 0.036591 0.586133 1 0 1.000000
File_cabinet_02
  0 11.342136 7.226735 2.184965 0.961456 0.000000 0.274960 0.036591 0.592127 1 0 1.000000
  0 11.342136 7.730434 2.184965 0.961456 0.000000 0.274960 0.026755 0.592127 1 0 1.000000
  0 11.145561 7.226735 2.500540 0.582281 0.000000 0.812988 0.036591 0.586133 1 0 1.000000
File_cabinet_02
  0 11.342136 7.730434 2.184965 0.961456 0.000000 0.274960 0.026755 0.592127 1 0 1.000000
  0 11.342136 7.226735 2.184965 0.961456 0.000000 0.274960 0.036591 0.592127 1 0 1.000000
  0 11.342136 7.730434 -2.184988 0.961465 0.000000 -0.274928 0.026755 0.671978 1 0 1.000000
File_cabinet_02
  0 11.342136 7.226735 2.184965 0.961456 0.000000 0.274960 0.036591 0.592127 1 0 1.000000
  0 11.342136 7.226735 -2.184988 0.961465 0.000000 -0.274928 0.036591 0.671978 1 0 1.000000
  0 11.342136 7.730434 -2.184988 0.961465 0.000000 -0.274928 0.026755 0.671978 1 0 1.000000
File_cabinet_02
  0 11.342136 7.730434 -2.184988 0.961465 0.000000 -0.274928 0.026755 0.671978 1 0 1.000000
  0 11.342136 7.226735 -2.184988 0.961465 0.000000 -0.274928 0.036591 0.671978 1 0 1.000000
  0 11.145561 7.730434 -2.500610 0.582292 0.000000 -0.812979 0.026755 0.677973 1 0 1.000000
File_cabinet_02
  0 11.342136 7.226735 -2.184988 0.961465 0.000000 -0.274928 0.036591 0.671978 1 0 1.000000
  0 11.145561 7.226735 -2.500610 0.582292 0.000000 -0.812979 0.036591 0.677973 1 0 1.000000
  0 11.145561 7.730434 -2.500610 0.582292 0.000000 -0.812979 0.026755 0.677973 1 0 1.000000
File_cabinet_02
  0 11.145561 7.730434 -2.500610 0.582292 0.000000 -0.812979 0.026755 0.677973 1 0 1.000000
  0 11.145561 7.226735 -2.500610 0.582292 0.000000 -0.812979 0.036591 0.677973 1 0 1.000000
  0 10.034403 7.730434 -2.759988 0.227319 0.000000 -0.973820 0.026755 0.698967 1 0 1.000000
File_cabinet_02
  0 11.145561 7.226735 -2.500610 0.582292 0.000000 -0.812979 0.036591 0.677973 1 0 1.000000
  0 10.034403 7.226735 -2.759988 0.227319 0.000000 -0.973820 0.036591 0.698967 1 0 1.000000
  0 10.034403 7.730434 -2.759988 0.227319 0.000000 -0.973820 0.026755 0.698967 1 0 1.000000
File_cabinet_02
  0 11.145561 21.365730 2.500540 0.582281 0.000000 0.812988 0.026755 0.586133 1 0 1.000000
  0 10.034403 21.365730 2.759964 0.227358 0.000000 0.973811 0.026755 0.565138 1 0 1.000000
  0 10.034403 20.862032 2.759964 0.227358 0.000000 0.973811 0.036591 0.565138 1 0 1.000000
File_cabinet_02
  0 11.145561 20.862032 2.500540 0.582281 0.000000 0.812988 0.036591 0.586133 1 0 1.000000
  0 11.145561 21.365730 2.500540 0.582281 0.000000 0.812988 0.026755 0.586133 1 0 1.000000
  0 10.034403 20.862032 2.759964 0.227358 0.000000 0.973811 0.036591 0.565138 1 0 1.000000
File_cabinet_02
  0 11.342136 21.365730 2.184965 0.961456 0.000000 0.274960 0.026755 0.592127 1 0 1.000000
  0 11.145561 21.365730 2.500540 0.582281 0.000000 0.812988 0.026755 0.586133 1 0 1.000000
  0 11.145561 20.862032 2.500540 0.582281 0.000000 0.812988 0.036591 0.586133 1 0 1.000000
File_cabinet_02
  0 11.342136 20.862032 2.184965 0.961456 0.000000 0.274960 0.036591 0.592127 1 0 1.000000
  0 11.342136 21.365730 2.184965 0.961456 0.000000 0.274960 0.026755 0.592127 1 0 1.000000
  0 11.145561 20.862032 2.500540 0.582281 0.000000 0.812988 0.036591 0.586133 1 0 1.000000
File_cabinet_02
  0 11.342136 21.365730 2.184965 0.961456 0.000000 0.274960 0.026755 0.592127 1 0 1.000000
  0 11.342136 20.862032 2.184965 0.961456 0.000000 0.274960 0.036591 0.592127 1 0 1.000000
  0 11.342136 21.365730 -2.184988 0.961465 0.000000 -0.274927 0.026755 0.671978 1 0 1.000000
File_cabinet_02
  0 11.342136 20.862032 2.184965 0.961456 0.000000 0.274960 0.036591 0.592127 1 0 1.000000
  0 11.342136 20.862032 -2.184988 0.961465 0.000000 -0.274927 0.036591 0.671978 1 0 1.000000
  0 11.342136 21.365730 -2.184988 0.961465 0.000000 -0.274927 0.026755 0.671978 1 0 1.000000
File_cabinet_02
  0 11.342136 21.365730 -2.184988 0.961465 0.000000 -0.274927 0.026755 0.671978 1 0 1.000000
  0 11.342136 20.862032 -2.184988 0.961465 0.000000 -0.274927 0.036591 0.671978 1 0 1.000000
  0 11.145561 21.365730 -2.500610 0.582292 0.000000 -0.812979 0.026755 0.677973 1 0 1.000000
File_cabinet_02
  0 11.342136 20.862032 -2.184988 0.961465 0.000000 -0.274927 0.036591 0.671978 1 0 1.000000
  0 11.145561 20.862032 -2.500610 0.582292 0.000000 -0.812979 0.036591 0.677973 1 0 1.000000
  0 11.145561 21.365730 -2.500610 0.582292 0.000000 -0.812979 0.026755 0.677973 1 0 1.000000
File_cabinet_02
  0 11.145561 21.365730 -2.500610 0.582292 0.000000 -0.812979 0.026755 0.677973 1 0 1.000000
  0 11.145561 20.862032 -2.500610 0.582292 0.000000 -0.812979 0.036591 0.677973 1 0 1.000000
  0 10.034403 21.365730 -2.759988 0.227318 0.000000 -0.973820 0.026755 0.698967 1 0 1.000000
File_cabinet_02
  0 11.145561 20.862032 -2.500610 0.582292 0.000000 -0.812979 0.036591 0.677973 1 0 1.000000
  0 10.034403 20.862032 -2.759988 0.227318 0.000000 -0.973820 0.036591 0.698967 1 0 1.000000
  0 10.034403 21.365730 -2.759988 0.227318 0.000000 -0.973820 0.026755 0.698967 1 0 1.000000
File_cabinet_02
  0 11.145561 34.686241 2.500540 0.582281 0.000000 0.812988 0.026755 0.586133 1 0 1.000000
  0 10.034403 34.686241 2.759964 0.227357 0.000000 0.973811 0.026755 0.565138 1 0 1.000000
  0 10.034403 34.182541 2.759964 0.227357 0.000000 0.973811 0.036591 0.565138 1 0 1.000000
File_cabinet_02
  0 11.145561 34.182541 2.500540 0.582281 0.000000 0.812988 0.036591 0.586133 1 0 1.000000
  0 11.145561 34.686241 2.500540 0.582281 0.000000 0.812988 0.026755 0.586133 1 0 1.000000
  0 10.034403 34.182541 2.759964 0.227357 0.000000 0.973811 0.036591 0.565138 1 0 1.000000
File_cabinet_02
  0 11.342136 34.686241 2.184965 0.961456 0.000000 0.274960 0.026755 0.592127 1 0 1.000000
  0 11.145561 34.686241 2.500540 0.582281 0.000000 0.812988 0.026755 0.586133 1 0 1.000000
  0 11.145561 34.182541 2.500540 0.582281 0.000000 0.812988 0.036591 0.586133 1 0 1.000000
File_cabinet_02
  0 11.342136 34.182541 2.184965 0.961456 0.000000 0.274960 0.036591 0.592127 1 0 1.000000
  0 11.342136 34.686241 2.184965 0.961456 0.000000 0.274960 0.026755 0.592127 1 0 1.000000
  0 11.145561 34.182541 2.500540 0.582281 0.000000 0.812988 0.036591 0.586133 1 0 1.000000
File_cabinet_02
  0 11.342136 34.686241 2.184965 0.961456 0.000000 0.274960 0.026755 0.592127 1 0 1.000000
  0 11.342136 34.182541 2.184965 0.961456 0.000000 0.274960 0.036591 0.592127 1 0 1.000000
  0 11.342136 34.686241 -2.184988 0.961465 0.000000 -0.274928 0.026755 0.671978 1 0 1.000000
File_cabinet_02
  0 11.342136 34.182541 2.184965 0.961456 0.000000 0.274960 0.036591 0.592127 1 0 1.000000
  0 11.342136 34.182541 -2.184988 0.961465 0.000000 -0.274928 0.036591 0.671978 1 0 1.000000
  0 11.342136 34.686241 -2.184988 0.961465 0.000000 -0.274928 0.026755 0.671978 1 0 1.000000
File_cabinet_02
  0 11.342136 34.686241 -2.184988 0.961465 0.000000 -0.274928 0.026755 0.671978 1 0 1.000000
  0 11.342136 34.182541 -2.184988 0.961465 0.000000 -0.274928 0.036591 0.671978 1 0 1.000000
  0 11.145561 34.686241 -2.500610 0.582292 0.000000 -0.812980 0.026755 0.677973 1 0 1.000000
File_cabinet_02
  0 11.342136 34.182541 -2.184988 0.961465 0.000000 -0.274928 0.036591 0.671978 1 0 1.000000
  0 11.145561 34.182541 -2.500610 0.582292 0.000000 -0.812980 0.036591 0.677973 1 0 1.000000
  0 11.145561 34.686241 -2.500610 0.582292 0.000000 -0.812980 0.026755 0.677973 1 0 1.000000
File_cabinet_02
  0 11.145561 34.686241 -2.500610 0.582292 0.000000 -0.812980 0.026755 0.677973 1 0 1.000000
  0 11.145561 34.182541 -2.500610 0.582292 0.000000 -0.812980 0.036591 0.677973 1 0 1.000000
  0 10.034403 34.686241 -2.759988 0.227318 0.000000 -0.973820 0.026755 0.698967 1 0 1.000000
File_cabinet_02
  0 11.145561 34.182541 -2.500610 0.582292 0.000000 -0.812980 0.036591 0.677973 1 0 1.000000
  0 10.034403 34.182541 -2.759988 0.227318 0.000000 -0.973820 0.036591 0.698967 1 0 1.000000
  0 10.034403 34.686241 -2.759988 0.227318 0.000000 -0.973820 0.026755 0.698967 1 0 1.000000
File_cabinet_02
  0 10.034403 34.182541 -2.759988 0.000000 -1.000000 -0.000001 0.036591 0.698967 1 0 1.000000
  0 11.145561 34.182541 -2.500610 0.000000 -1.000000 -0.000001 0.036591 0.677973 1 0 1.000000
  0 10.034461 34.182541 -2.373792 0.000000 -1.000000 -0.000001 0.043533 0.693177 1 0 1.000000
File_cabinet_02
  0 11.145561 34.182541 -2.500610 0.000000 -1.000000 -0.000001 0.036591 0.677973 1 0 1.000000
  0 11.029496 34.182541 -2.157869 0.000000 -1.000000 0.000000 0.043533 0.673251 1 0 1.000000
  0 10.034461 34.182541 -2.373792 0.000000 -1.000000 -0.000001 0.043533 0.693177 1 0 1.000000
File_cabinet_02
  0 11.342136 34.182541 -2.184988 0.000000 -1.000000 0.000000 0.036591 0.671978 1 0 1.000000
  0 11.029496 34.182541 -2.157869 0.000000 -1.000000 0.000000 0.043533 0.673251 1 0 1.000000
  0 11.145561 34.182541 -2.500610 0.000000 -1.000000 -0.000001 0.036591 0.677973 1 0 1.000000
File_cabinet_02
  0 11.342136 34.182541 -2.184988 0.000000 -1.000000 0.000000 0.036591 0.671978 1 0 1.000000
  0 11.342136 34.182541 2.184965 0.000000 -1.000000 0.000000 0.036591 0.592127 1 0 1.000000
  0 11.029496 34.182541 -2.157869 0.000000 -1.000000 0.000000 0.043533 0.673251 1 0 1.000000
File_cabinet_02
  0 11.029496 34.182541 -2.157869 0.000000 -1.000000 0.000000 0.043533 0.673251 1 0 1.000000
  0 11.342136 34.182541 2.184965 0.000000 -1.000000 0.000000 0.036591 0.592127 1 0 1.000000
  0 11.029496 34.182541 2.157824 0.000000 -1.000000 0.000000 0.043533 0.591090 1 0 1.000000
File_cabinet_02
  0 11.029496 34.182541 2.157824 0.000000 -1.000000 0.000000 0.043533 0.591090 1 0 1.000000
  0 11.342136 34.182541 2.184965 0.000000 -1.000000 0.000000 0.036591 0.592127 1 0 1.000000
  0 11.145561 34.182541 2.500540 0.000000 -1.000000 0.000006 0.036591 0.586133 1 0 1.000000
File_cabinet_02
  0 11.029496 34.182541 2.157824 0.000000 -1.000000 0.000000 0.043533 0.591090 1 0 1.000000
  0 11.145561 34.182541 2.500540 0.000000 -1.000000 0.000006 0.036591 0.586133 1 0 1.000000
  0 10.034461 34.182541 2.373745 0.000000 -1.000000 0.000006 0.043533 0.571635 1 0 1.000000
File_cabinet_02
  0 10.034403 34.182541 2.759964 0.000000 -1.000000 0.000006 0.036591 0.565138 1 0 1.000000
  0 10.034461 34.182541 2.373745 0.000000 -1.000000 0.000006 0.043533 0.571635 1 0 1.000000
  0 11.145561 34.182541 2.500540 0.000000 -1.000000 0.000006 0.036591 0.586133 1 0 1.000000
File_cabinet_02
  0 10.136862 13.807403 2.426792 1.000000 0.000000 0.000000 0.705244 0.797448 1 0 1.000000
  0 10.136862 10.825532 2.426792 1.000000 0.000000 0.000000 0.705244 0.707656 1 0 1.000000
  0 10.136862 13.807403 -2.426863 1.000000 0.000000 0.000000 0.842995 0.797448 1 0 1.000000
File_cabinet_02
  0 10.136862 10.825532 2.426792 1.000000 0.000000 0.000000 0.705244 0.707656 1 0 1.000000
  0 10.136862 10.825532 -2.426863 1.000000 0.000000 0.000000 0.842995 0.707656 1 0 1.000000
  0 10.136862 13.807403 -2.426863 1.000000 0.000000 0.000000 0.842995 0.797448 1 0 1.000000
File_cabinet_02
  0 11.029496 20.862032 -2.157869 -0.212064 0.000000 0.977256 0.009989 0.672656 1 0 1.000000
  0 11.029496 21.365730 -2.157869 -0.212064 0.000000 0.977256 0.019819 0.673239 1 0 1.000000
  0 10.034461 20.862032 -2.373792 -0.212064 0.000000 0.977256 0.009989 0.691857 1 0 1.000000
File_cabinet_02
  0 11.029496 21.365730 -2.157869 -0.212064 0.000000 0.977256 0.019819 0.673239 1 0 1.000000
  0 10.034461 21.365730 -2.373792 -0.212064 0.000000 0.977256 0.019819 0.692382 1 0 1.000000
  0 10.034461 20.862032 -2.373792 -0.212064 0.000000 0.977256 0.009989 0.691857 1 0 1.000000
File_cabinet_02
  0 11.029496 21.365730 2.157824 -0.212063 0.000000 -0.977256 0.019819 0.591003 1 0 1.000000
  0 11.029496 20.862032 2.157824 -0.212063 0.000000 -0.977256 0.009989 0.591654 1 0 1.000000
  0 10.034461 21.365730 2.373745 -0.212063 0.000000 -0.977256 0.019819 0.572133 1 0 1.000000
File_cabinet_02
  0 11.029496 20.862032 2.157824 -0.212063 0.000000 -0.977256 0.009989 0.591654 1 0 1.000000
  0 10.034461 20.862032 2.373745 -0.212063 0.000000 -0.977256 0.009989 0.572659 1 0 1.000000
  0 10.034461 21.365730 2.373745 -0.212063 0.000000 -0.977256 0.019819 0.572133 1 0 1.000000
File_cabinet_02
  0 11.029496 21.365730 -2.157869 -1.000000 0.000000 0.000000 0.019819 0.673239 1 0 1.000000
  0 11.029496 20.862032 -2.157869 -1.000000 0.000000 0.000000 0.009989 0.672656 1 0 1.000000
  0 11.029496 21.365730 2.157824 -1.000000 0.000000 0.000000 0.019819 0.591003 1 0 1.000000
File_cabinet_02
  0 11.029496 20.862032 -2.157869 -1.000000 0.000000 0.000000 0.009989 0.672656 1 0 1.000000
  0 11.029496 20.862032 2.157824 -1.000000 0.000000 0.000000 0.009989 0.591654 1 0 1.000000
  0 11.029496 21.365730 2.157824 -1.000000 0.000000 0.000000 0.019819 0.591003 1 0 1.000000
File_cabinet_02
  0 10.039274 23.866196 3.023077 0.714392 -0.699745 0.000000 0.852528 0.893828 1 0 1.000000
  0 10.039274 23.866196 -3.023146 0.714392 -0.699745 0.000000 0.993000 0.893828 1 0 1.000000
  0 10.367323 24.201111 2.713219 0.999697 -0.024628 0.000000 0.860123 0.901180 1 0 1.000000
File_cabinet_02
  0 10.039274 23.866196 -3.023146 0.714392 -0.699745 0.000000 0.993000 0.893828 1 0 1.000000
  0 10.367323 24.201111 -2.713265 0.999697 -0.024628 0.000000 0.985405 0.901180 1 0 1.000000
  0 10.367323 24.201111 2.713219 0.999697 -0.024628 0.000000 0.860123 0.901180 1 0 1.000000
File_cabinet_02
  0 10.367323 24.201111 2.713219 0.999697 -0.024628 0.000000 0.860123 0.901180 1 0 1.000000
  0 10.367323 24.201111 -2.713265 0.999697 -0.024628 0.000000 0.985405 0.901180 1 0 1.000000
  0 10.136860 24.460833 2.426792 0.747982 0.663719 0.000000 0.866735 0.906925 1 0 1.000000
File_cabinet_02
  0 10.367323 24.201111 -2.713265 0.999697 -0.024628 0.000000 0.985405 0.901180 1 0 1.000000
  0 10.136860 24.460833 -2.426863 0.747982 0.663719 0.000000 0.978793 0.906925 1 0 1.000000
  0 10.136860 24.460833 2.426792 0.747982 0.663719 0.000000 0.866735 0.906925 1 0 1.000000
File_cabinet_02
  0 10.034403 20.862032 -2.759988 0.000000 -1.000000 -0.000002 0.036591 0.698967 1 0 1.000000
  0 11.145561 20.862032 -2.500610 0.000000 -1.000000 -0.000002 0.036591 0.677973 1 0 1.000000
  0 10.034461 20.862032 -2.373792 0.000000 -1.000000 -0.000002 0.043533 0.693177 1 0 1.000000
File_cabinet_02
  0 11.145561 20.862032 -2.500610 0.000000 -1.000000 -0.000002 0.036591 0.677973 1 0 1.000000
  0 11.029496 20.862032 -2.157869 0.000000 -1.000000 0.000000 0.043533 0.673251 1 0 1.000000
  0 10.034461 20.862032 -2.373792 0.000000 -1.000000 -0.000002 0.043533 0.693177 1 0 1.000000
File_cabinet_02
  0 11.342136 20.862032 -2.184988 0.000000 -1.000000 0.000000 0.036591 0.671978 1 0 1.000000
  0 11.029496 20.862032 -2.157869 0.000000 -1.000000 0.000000 0.043533 0.673251 1 0 1.000000
  0 11.145561 20.862032 -2.500610 0.000000 -1.000000 -0.000002 0.036591 0.677973 1 0 1.000000
File_cabinet_02
  0 11.342136 20.862032 -2.184988 0.000000 -1.000000 0.000000 0.036591 0.671978 1 0 1.000000
  0 11.342136 20.862032 2.184965 0.000000 -1.000000 0.000000 0.036591 0.592127 1 0 1.000000
  0 11.029496 20.862032 -2.157869 0.000000 -1.000000 0.000000 0.043533 0.673251 1 0 1.000000
File_cabinet_02
  0 11.029496 20.862032 -2.157869 0.000000 -1.000000 0.000000 0.043533 0.673251 1 0 1.000000
  0 11.342136 20.862032 2.184965 0.000000 -1.000000 0.000000 0.036591 0.592127 1 0 1.000000
  0 11.029496 20.862032 2.157824 0.000000 -1.000000 0.000000 0.043533 0.591090 1 0 1.000000
File_cabinet_02
  0 11.029496 20.862032 2.157824 0.000000 -1.000000 0.000000 0.043533 0.591090 1 0 1.000000
  0 11.342136 20.862032 2.184965 0.000000 -1.000000 0.000000 0.036591 0.592127 1 0 1.000000
  0 11.145561 20.862032 2.500540 0.000000 -1.000000 -0.000001 0.036591 0.586133 1 0 1.000000
File_cabinet_02
  0 11.029496 20.862032 2.157824 0.000000 -1.000000 0.000000 0.043533 0.591090 1 0 1.000000
  0 11.145561 20.862032 2.500540 0.000000 -1.000000 -0.000001 0.036591 0.586133 1 0 1.000000
  0 10.034461 20.862032 2.373745 0.000000 -1.000000 -0.000001 0.043533 0.571635 1 0 1.000000
File_cabinet_02
  0 10.034403 20.862032 2.759964 0.000000 -1.000000 -0.000001 0.036591 0.565138 1 0 1.000000
  0 10.034461 20.862032 2.373745 0.000000 -1.000000 -0.000001 0.043533 0.571635 1 0 1.000000
  0 11.145561 20.862032 2.500540 0.000000 -1.000000 -0.000001 0.036591 0.586133 1 0 1.000000
File_cabinet_02
  0 10.039274 28.037298 3.023077 0.686664 0.000000 0.726975 0.852528 0.993065 1 0 1.000000
  0 10.039274 23.866196 3.023077 0.686664 0.000000 0.726975 0.852528 0.893828 1 0 1.000000
  0 10.367323 27.702427 2.713219 0.997677 0.000000 0.068126 0.860123 0.985714 1 0 1.000000
File_cabinet_02
  0 10.039274 23.866196 3.023077 0.686664 0.000000 0.726975 0.852528 0.893828 1 0 1.000000
  0 10.367323 24.201111 2.713219 0.997677 0.000000 0.068126 0.860123 0.901180 1 0 1.000000
  0 10.367323 27.702427 2.713219 0.997677 0.000000 0.068126 0.860123 0.985714 1 0 1.000000
File_cabinet_02
  0 10.367323 27.702427 2.713219 0.997677 0.000000 0.068126 0.860123 0.985714 1 0 1.000000
  0 10.367323 24.201111 2.713219 0.997677 0.000000 0.068126 0.860123 0.901180 1 0 1.000000
  0 10.136860 27.442707 2.426792 0.779112 0.000000 -0.626885 0.866735 0.979969 1 0 1.000000
File_cabinet_02
  0 10.367323 24.201111 2.713219 0.997677 0.000000 0.068126 0.860123 0.901180 1 0 1.000000
  0 10.136860 24.460833 2.426792 0.779112 0.000000 -0.626885 0.866735 0.906925 1 0 1.000000
  0 10.136860 27.442707 2.426792 0.779112 0.000000 -0.626885 0.866735 0.979969 1 0 1.000000
File_cabinet_02
  0 10.034403 21.365730 2.759964 0.000000 1.000000 0.000003 0.026755 0.565138 1 0 1.000000
  0 11.145561 21.365730 2.500540 0.000000 1.000000 0.000004 0.026755 0.586133 1 0 1.000000
  0 10.034461 21.365730 2.373745 0.000000 1.000000 0.000003 0.019819 0.572133 1 0 1.000000
File_cabinet_02
  0 11.145561 21.365730 2.500540 0.000000 1.000000 0.000004 0.026755 0.586133 1 0 1.000000
  0 11.029496 21.365730 2.157824 0.000000 1.000000 0.000000 0.019819 0.591003 1 0 1.000000
  0 10.034461 21.365730 2.373745 0.000000 1.000000 0.000003 0.019819 0.572133 1 0 1.000000
File_cabinet_02
  0 11.342136 21.365730 2.184965 0.000000 1.000000 0.000000 0.026755 0.592127 1 0 1.000000
  0 11.029496 21.365730 2.157824 0.000000 1.000000 0.000000 0.019819 0.591003 1 0 1.000000
  0 11.145561 21.365730 2.500540 0.000000 1.000000 0.000004 0.026755 0.586133 1 0 1.000000
File_cabinet_02
  0 11.342136 21.365730 2.184965 0.000000 1.000000 0.000000 0.026755 0.592127 1 0 1.000000
  0 11.342136 21.365730 -2.184988 0.000000 1.000000 0.000000 0.026755 0.671978 1 0 1.000000
  0 11.029496 21.365730 2.157824 0.000000 1.000000 0.000000 0.019819 0.591003 1 0 1.000000
File_cabinet_02
  0 11.029496 21.365730 2.157824 0.000000 1.000000 0.000000 0.019819 0.591003 1 0 1.000000
  0 11.342136 21.365730 -2.184988 0.000000 1.000000 0.000000 0.026755 0.671978 1 0 1.000000
  0 11.029496 21.365730 -2.157869 0.000000 1.000000 0.000000 0.019819 0.673239 1 0 1.000000
File_cabinet_02
  0 11.029496 21.365730 -2.157869 0.000000 1.000000 0.000000 0.019819 0.673239 1 0 1.000000
  0 11.342136 21.365730 -2.184988 0.000000 1.000000 0.000000 0.026755 0.671978 1 0 1.000000
  0 11.145561 21.365730 -2.500610 0.000000 1.000000 0.000000 0.026755 0.677973 1 0 1.000000
File_cabinet_02
  0 11.029496 21.365730 -2.157869 0.000000 1.000000 0.000000 0.019819 0.673239 1 0 1.000000
  0 11.145561 21.365730 -2.500610 0.000000 1.000000 0.000000 0.026755 0.677973 1 0 1.000000
  0 10.034461 21.365730 -2.373792 0.000000 1.000000 0.000000 0.019819 0.692382 1 0 1.000000
File_cabinet_02
  0 10.034403 21.365730 -2.759988 0.000000 1.000000 0.000000 0.026755 0.698967 1 0 1.000000
  0 10.034461 21.365730 -2.373792 0.000000 1.000000 0.000000 0.019819 0.692382 1 0 1.000000
  0 11.145561 21.365730 -2.500610 0.000000 1.000000 0.000000 0.026755 0.677973 1 0 1.000000
File_cabinet_02
  0 10.136860 27.442707 2.426792 1.000000 0.000000 0.000000 0.705244 0.896147 1 0 1.000000
  0 10.136860 24.460833 2.426792 1.000000 0.000000 0.000000 0.705244 0.806355 1 0 1.000000
  0 10.136860 27.442707 -2.426863 1.000000 0.000000 0.000000 0.842995 0.896147 1 0 1.000000
File_cabinet_02
  0 10.136860 24.460833 2.426792 1.000000 0.000000 0.000000 0.705244 0.806355 1 0 1.000000
  0 10.136860 24.460833 -2.426863 1.000000 0.000000 0.000000 0.842995 0.806355 1 0 1.000000
  0 10.136860 27.442707 -2.426863 1.000000 0.000000 0.000000 0.842995 0.896147 1 0 1.000000
File_cabinet_02
  0 -11.342142 0.110698 -9.144820 -1.000000 0.000000 0.000000 0.048561 0.006356 1 0 1.000000
  0 -11.342142 0.110698 9.144796 -1.000000 0.000000 0.000000 0.346958 0.006356 1 0 1.000000
  0 -11.342142 44.944378 -9.144820 -1.000000 0.000000 0.000000 0.048561 0.695759 1 0 1.000000
File_cabinet_02
  0 -11.342142 0.110698 9.144796 -1.000000 0.000000 0.000000 0.346958 0.006356 1 0 1.000000
  0 -11.342142 44.944378 9.144796 -1.000000 0.000000 0.000000 0.346958 0.695759 1 0 1.000000
  0 -11.342142 44.944378 -9.144820 -1.000000 0.000000 0.000000 0.048561 0.695759 1 0 1.000000
File_cabinet_02
  0 10.032635 0.110698 9.144796 1.000000 0.000000 0.000000 0.695689 0.006356 1 0 1.000000
  0 10.032635 0.110698 -9.144820 1.000000 0.000000 0.000000 0.994086 0.006356 1 0 1.000000
  0 10.032635 44.944378 9.144796 1.000000 0.000000 0.000000 0.695689 0.695759 1 0 1.000000
File_cabinet_02
  0 10.032635 0.110698 -9.144820 1.000000 0.000000 0.000000 0.994086 0.006356 1 0 1.000000
  0 10.032635 44.944378 -9.144820 1.000000 0.000000 0.000000 0.994086 0.695759 1 0 1.000000
  0 10.032635 44.944378 9.144796 1.000000 0.000000 0.000000 0.695689 0.695759 1 0 1.000000
File_cabinet_02
  0 -11.342142 0.110698 -9.144820 0.000000 -1.000000 0.000000 0.009705 0.704468 1 0 1.000000
  0 10.032635 0.110698 -9.144820 0.000000 -1.000000 0.000000 0.339271 0.704468 1 0 1.000000
  0 -11.342142 0.110698 9.144796 0.000000 -1.000000 0.000000 0.009705 0.994020 1 0 1.000000
File_cabinet_02
  0 10.032635 0.110698 -9.144820 0.000000 -1.000000 0.000000 0.339271 0.704468 1 0 1.000000
  0 10.032635 0.110698 9.144796 0.000000 -1.000000 0.000000 0.339271 0.994020 1 0 1.000000
  0 -11.342142 0.110698 9.144796 0.000000 -1.000000 0.000000 0.009705 0.994020 1 0 1.000000
File_cabinet_02
  0 -11.342142 44.944378 9.144796 0.000000 1.000000 0.000000 0.346958 0.695759 1 0 1.000000
  0 10.032635 44.944378 9.144796 0.000000 1.000000 0.000000 0.695689 0.695759 1 0 1.000000
  0 -11.342142 44.944378 -9.144820 0.000000 1.000000 0.000000 0.346958 0.994156 1 0 1.000000
File_cabinet_02
  0 10.032635 44.944378 9.144796 0.000000 1.000000 0.000000 0.695689 0.695759 1 0 1.000000
  0 10.032635 44.944378 -9.144820 0.000000 1.000000 0.000000 0.695689 0.994156 1 0 1.000000
  0 -11.342142 44.944378 -9.144820 0.000000 1.000000 0.000000 0.346958 0.994156 1 0 1.000000
File_cabinet_02
  0 -11.342142 0.110698 9.144796 0.000000 0.000000 1.000000 0.346958 0.006356 1 0 1.000000
  0 10.032635 0.110698 9.144796 0.000000 0.000000 1.000000 0.695689 0.006356 1 0 1.000000
  0 -11.342142 44.944378 9.144796 0.000000 0.000000 1.000000 0.346958 0.695759 1 0 1.000000
File_cabinet_02
  0 10.032635 0.110698 9.144796 0.000000 0.000000 1.000000 0.695689 0.006356 1 0 1.000000
  0 10.032635 44.944378 9.144796 0.000000 0.000000 1.000000 0.695689 0.695759 1 0 1.000000
  0 -11.342142 44.944378 9.144796 0.000000 0.000000 1.000000 0.346958 0.695759 1 0 1.000000
File_cabinet_02
  0 11.029496 34.182541 -2.157869 -0.212064 0.000000 0.977256 0.009989 0.672656 1 0 1.000000
  0 11.029496 34.686241 -2.157869 -0.212064 0.000000 0.977256 0.019819 0.673239 1 0 1.000000
  0 10.034461 34.182541 -2.373792 -0.212064 0.000000 0.977256 0.009989 0.691857 1 0 1.000000
File_cabinet_02
  0 11.029496 34.686241 -2.157869 -0.212064 0.000000 0.977256 0.019819 0.673239 1 0 1.000000
  0 10.034461 34.686241 -2.373792 -0.212064 0.000000 0.977256 0.019819 0.692382 1 0 1.000000
  0 10.034461 34.182541 -2.373792 -0.212064 0.000000 0.977256 0.009989 0.691857 1 0 1.000000
File_cabinet_02
  0 11.029496 34.686241 2.157824 -0.212063 0.000000 -0.977256 0.019819 0.591003 1 0 1.000000
  0 11.029496 34.182541 2.157824 -0.212063 0.000000 -0.977256 0.009989 0.591654 1 0 1.000000
  0 10.034461 34.686241 2.373745 -0.212063 0.000000 -0.977256 0.019819 0.572133 1 0 1.000000
File_cabinet_02
  0 11.029496 34.182541 2.157824 -0.212063 0.000000 -0.977256 0.009989 0.591654 1 0 1.000000
  0 10.034461 34.182541 2.373745 -0.212063 0.000000 -0.977256 0.009989 0.572659 1 0 1.000000
  0 10.034461 34.686241 2.373745 -0.212063 0.000000 -0.977256 0.019819 0.572133 1 0 1.000000
File_cabinet_02
  0 10.039274 14.401994 -3.023146 0.714346 0.699793 0.000000 0.993000 0.993065 1 0 1.000000
  0 10.039274 14.401994 3.023077 0.714346 0.699793 0.000000 0.852528 0.993065 1 0 1.000000
  0 10.367323 14.067123 -2.713265 0.999696 0.024662 0.000000 0.985405 0.985714 1 0 1.000000
File_cabinet_02
  0 10.039274 14.401994 3.023077 0.714346 0.699793 0.000000 0.852528 0.993065 1 0 1.000000
  0 10.367323 14.067123 2.713219 0.999696 0.024662 0.000000 0.860123 0.985714 1 0 1.000000
  0 10.367323 14.067123 -2.713265 0.999696 0.024662 0.000000 0.985405 0.985714 1 0 1.000000
File_cabinet_02
  0 10.367323 14.067123 -2.713265 0.999696 0.024662 0.000000 0.985405 0.985714 1 0 1.000000
  0 10.367323 14.067123 2.713219 0.999696 0.024662 0.000000 0.860123 0.985714 1 0 1.000000
  0 10.136862 13.807403 -2.426863 0.747983 -0.663718 0.000000 0.978793 0.979969 1 0 1.000000
File_cabinet_02
  0 10.367323 14.067123 2.713219 0.999696 0.024662 0.000000 0.860123 0.985714 1 0 1.000000
  0 10.136862 13.807403 2.426792 0.747983 -0.663718 0.000000 0.866735 0.979969 1 0 1.000000
  0 10.136862 13.807403 -2.426863 0.747983 -0.663718 0.000000 0.978793 0.979969 1 0 1.000000
File_cabinet_02
  0 10.034403 7.226735 -2.759988 0.000000 -1.000000 0.000001 0.036591 0.698967 1 0 1.000000
  0 11.145561 7.226735 -2.500610 0.000000 -1.000000 0.000001 0.036591 0.677973 1 0 1.000000
  0 10.034461 7.226735 -2.373792 0.000000 -1.000000 0.000001 0.043533 0.693177 1 0 1.000000
File_cabinet_02
  0 11.145561 7.226735 -2.500610 0.000000 -1.000000 0.000001 0.036591 0.677973 1 0 1.000000
  0 11.029496 7.226735 -2.157869 0.000000 -1.000000 0.000000 0.043533 0.673251 1 0 1.000000
  0 10.034461 7.226735 -2.373792 0.000000 -1.000000 0.000001 0.043533 0.693177 1 0 1.000000
File_cabinet_02
  0 11.342136 7.226735 -2.184988 0.000000 -1.000000 0.000000 0.036591 0.671978 1 0 1.000000
  0 11.029496 7.226735 -2.157869 0.000000 -1.000000 0.000000 0.043533 0.673251 1 0 1.000000
  0 11.145561 7.226735 -2.500610 0.000000 -1.000000 0.000001 0.036591 0.677973 1 0 1.000000
File_cabinet_02
  0 11.342136 7.226735 -2.184988 0.000000 -1.000000 0.000000 0.036591 0.671978 1 0 1.000000
  0 11.342136 7.226735 2.184965 0.000000 -1.000000 0.000000 0.036591 0.592127 1 0 1.000000
  0 11.029496 7.226735 -2.157869 0.000000 -1.000000 0.000000 0.043533 0.673251 1 0 1.000000
File_cabinet_02
  0 11.029496 7.226735 -2.157869 0.000000 -1.000000 0.000000 0.043533 0.673251 1 0 1.000000
  0 11.342136 7.226735 2.184965 0.000000 -1.000000 0.000000 0.036591 0.592127 1 0 1.000000
  0 11.029496 7.226735 2.157824 0.000000 -1.000000 0.000000 0.043533 0.591090 1 0 1.000000
File_cabinet_02
  0 11.029496 7.226735 2.157824 0.000000 -1.000000 0.000000 0.043533 0.591090 1 0 1.000000
  0 11.342136 7.226735 2.184965 0.000000 -1.000000 0.000000 0.036591 0.592127 1 0 1.000000
  0 11.145561 7.226735 2.500540 0.000000 -1.000000 0.000000 0.036591 0.586133 1 0 1.000000
File_cabinet_02
  0 11.029496 7.226735 2.157824 0.000000 -1.000000 0.000000 0.043533 0.591090 1 0 1.000000
  0 11.145561 7.226735 2.500540 0.000000 -1.000000 0.000000 0.036591 0.586133 1 0 1.000000
  0 10.034461 7.226735 2.373745 0.000000 -1.000000 0.000000 0.043533 0.571635 1 0 1.000000
File_cabinet_02
  0 10.034403 7.226735 2.759964 0.000000 -1.000000 0.000000 0.036591 0.565138 1 0 1.000000
  0 10.034461 7.226735 2.373745 0.000000 -1.000000 0.000000 0.043533 0.571635 1 0 1.000000
  0 11.145561 7.226735 2.500540 0.000000 -1.000000 0.000000 0.036591 0.586133 1 0 1.000000
File_cabinet_02
  0 10.039274 10.230891 -3.023146 0.686690 0.000000 -0.726951 0.993000 0.893828 1 0 1.000000
  0 10.039274 14.401994 -3.023146 0.686690 0.000000 -0.726951 0.993000 0.993065 1 0 1.000000
  0 10.367323 10.565811 -2.713265 0.997679 0.000000 -0.068090 0.985405 0.901180 1 0 1.000000
File_cabinet_02
  0 10.039274 14.401994 -3.023146 0.686690 0.000000 -0.726951 0.993000 0.993065 1 0 1.000000
  0 10.367323 14.067123 -2.713265 0.997679 0.000000 -0.068090 0.985405 0.985714 1 0 1.000000
  0 10.367323 10.565811 -2.713265 0.997679 0.000000 -0.068090 0.985405 0.901180 1 0 1.000000
File_cabinet_02
  0 10.367323 10.565811 -2.713265 0.997679 0.000000 -0.068090 0.985405 0.901180 1 0 1.000000
  0 10.367323 14.067123 -2.713265 0.997679 0.000000 -0.068090 0.985405 0.985714 1 0 1.000000
  0 10.136862 10.825532 -2.426863 0.779089 0.000000 0.626914 0.978793 0.906925 1 0 1.000000
File_cabinet_02
  0 10.367323 14.067123 -2.713265 0.997679 0.000000 -0.068090 0.985405 0.985714 1 0 1.000000
  0 10.136862 13.807403 -2.426863 0.779089 0.000000 0.626914 0.978793 0.979969 1 0 1.000000
  0 10.136862 10.825532 -2.426863 0.779089 0.000000 0.626914 0.978793 0.906925 1 0 1.000000
File_cabinet_02
  0 10.034403 7.730434 2.759964 0.000000 1.000000 0.000001 0.026755 0.565138 1 0 1.000000
  0 11.145561 7.730434 2.500540 0.000000 1.000000 0.000001 0.026755 0.586133 1 0 1.000000
  0 10.034461 7.730434 2.373745 0.000000 1.000000 0.000001 0.019819 0.572133 1 0 1.000000
File_cabinet_02
  0 11.145561 7.730434 2.500540 0.000000 1.000000 0.000001 0.026755 0.586133 1 0 1.000000
  0 11.029496 7.730434 2.157824 0.000000 1.000000 0.000000 0.019819 0.591003 1 0 1.000000
  0 10.034461 7.730434 2.373745 0.000000 1.000000 0.000001 0.019819 0.572133 1 0 1.000000
File_cabinet_02
  0 11.342136 7.730434 2.184965 0.000000 1.000000 0.000000 0.026755 0.592127 1 0 1.000000
  0 11.029496 7.730434 2.157824 0.000000 1.000000 0.000000 0.019819 0.591003 1 0 1.000000
  0 11.145561 7.730434 2.500540 0.000000 1.000000 0.000001 0.026755 0.586133 1 0 1.000000
File_cabinet_02
  0 11.342136 7.730434 2.184965 0.000000 1.000000 0.000000 0.026755 0.592127 1 0 1.000000
  0 11.342136 7.730434 -2.184988 0.000000 1.000000 0.000000 0.026755 0.671978 1 0 1.000000
  0 11.029496 7.730434 2.157824 0.000000 1.000000 0.000000 0.019819 0.591003 1 0 1.000000
File_cabinet_02
  0 11.029496 7.730434 2.157824 0.000000 1.000000 0.000000 0.019819 0.591003 1 0 1.000000
  0 11.342136 7.730434 -2.184988 0.000000 1.000000 0.000000 0.026755 0.671978 1 0 1.000000
  0 11.029496 7.730434 -2.157869 0.000000 1.000000 0.000000 0.019819 0.673239 1 0 1.000000
File_cabinet_02
  0 11.029496 7.730434 -2.157869 0.000000 1.000000 0.000000 0.019819 0.673239 1 0 1.000000
  0 11.342136 7.730434 -2.184988 0.000000 1.000000 0.000000 0.026755 0.671978 1 0 1.000000
  0 11.145561 7.730434 -2.500610 0.000000 1.000000 0.000000 0.026755 0.677973 1 0 1.000000
File_cabinet_02
  0 11.029496 7.730434 -2.157869 0.000000 1.000000 0.000000 0.019819 0.673239 1 0 1.000000
  0 11.145561 7.730434 -2.500610 0.000000 1.000000 0.000000 0.026755 0.677973 1 0 1.000000
  0 10.034461 7.730434 -2.373792 0.000000 1.000000 0.000000 0.019819 0.692382 1 0 1.000000
File_cabinet_02
  0 10.034403 7.730434 -2.759988 0.000000 1.000000 0.000000 0.026755 0.698967 1 0 1.000000
  0 10.034461 7.730434 -2.373792 0.000000 1.000000 0.000000 0.019819 0.692382 1 0 1.000000
  0 11.145561 7.730434 -2.500610 0.000000 1.000000 0.000000 0.026755 0.677973 1 0 1.000000
File_cabinet_02
  0 10.039274 28.037298 -3.023146 0.714347 0.699792 0.000000 0.993000 0.993065 1 0 1.000000
  0 10.039274 28.037298 3.023077 0.714347 0.699792 0.000000 0.852528 0.993065 1 0 1.000000
  0 10.367323 27.702427 -2.713265 0.999696 0.024659 0.000000 0.985405 0.985714 1 0 1.000000
File_cabinet_02
  0 10.039274 28.037298 3.023077 0.714347 0.699792 0.000000 0.852528 0.993065 1 0 1.000000
  0 10.367323 27.702427 2.713219 0.999696 0.024659 0.000000 0.860123 0.985714 1 0 1.000000
  0 10.367323 27.702427 -2.713265 0.999696 0.024659 0.000000 0.985405 0.985714 1 0 1.000000
File_cabinet_02
  0 10.367323 27.702427 -2.713265 0.999696 0.024659 0.000000 0.985405 0.985714 1 0 1.000000
  0 10.367323 27.702427 2.713219 0.999696 0.024659 0.000000 0.860123 0.985714 1 0 1.000000
  0 10.136860 27.442707 -2.426863 0.747979 -0.663722 0.000000 0.978793 0.979969 1 0 1.000000
File_cabinet_02
  0 10.367323 27.702427 2.713219 0.999696 0.024659 0.000000 0.860123 0.985714 1 0 1.000000
  0 10.136860 27.442707 2.426792 0.747979 -0.663722 0.000000 0.866735 0.979969 1 0 1.000000
  0 10.136860 27.442707 -2.426863 0.747979 -0.663722 0.000000 0.978793 0.979969 1 0 1.000000
File_cabinet_02
  0 10.039274 37.186703 3.023077 0.714400 -0.699737 0.000000 0.852528 0.893828 1 0 1.000000
  0 10.039274 37.186703 -3.023146 0.714400 -0.699737 0.000000 0.993000 0.893828 1 0 1.000000
  0 10.367323 37.521626 2.713219 0.999697 -0.024624 0.000000 0.860123 0.901180 1 0 1.000000
File_cabinet_02
  0 10.039274 37.186703 -3.023146 0.714400 -0.699737 0.000000 0.993000 0.893828 1 0 1.000000
  0 10.367323 37.521626 -2.713265 0.999697 -0.024624 0.000000 0.985405 0.901180 1 0 1.000000
  0 10.367323 37.521626 2.713219 0.999697 -0.024624 0.000000 0.860123 0.901180 1 0 1.000000
File_cabinet_02
  0 10.367323 37.521626 2.713219 0.999697 -0.024624 0.000000 0.860123 0.901180 1 0 1.000000
  0 10.367323 37.521626 -2.713265 0.999697 -0.024624 0.000000 0.985405 0.901180 1 0 1.000000
  0 10.136864 37.781345 2.426792 0.747985 0.663716 0.000000 0.866735 0.906925 1 0 1.000000
File_cabinet_02
  0 10.367323 37.521626 -2.713265 0.999697 -0.024624 0.000000 0.985405 0.901180 1 0 1.000000
  0 10.136864 37.781345 -2.426863 0.747985 0.663716 0.000000 0.978793 0.906925 1 0 1.000000
  0 10.136864 37.781345 2.426792 0.747985 0.663716 0.000000 0.866735 0.906925 1 0 1.000000
File_cabinet_02
  0 10.039274 23.866196 -3.023146 0.686690 0.000000 -0.726951 0.993000 0.893828 1 0 1.000000
  0 10.039274 28.037298 -3.023146 0.686690 0.000000 -0.726951 0.993000 0.993065 1 0 1.000000
  0 10.367323 24.201111 -2.713265 0.997679 0.000000 -0.068088 0.985405 0.901180 1 0 1.000000
File_cabinet_02
  0 10.039274 28.037298 -3.023146 0.686690 0.000000 -0.726951 0.993000 0.993065 1 0 1.000000
  0 10.367323 27.702427 -2.713265 0.997679 0.000000 -0.068088 0.985405 0.985714 1 0 1.000000
  0 10.367323 24.201111 -2.713265 0.997679 0.000000 -0.068088 0.985405 0.901180 1 0 1.000000
File_cabinet_02
  0 10.367323 24.201111 -2.713265 0.997679 0.000000 -0.068088 0.985405 0.901180 1 0 1.000000
  0 10.367323 27.702427 -2.713265 0.997679 0.000000 -0.068088 0.985405 0.985714 1 0 1.000000
  0 10.136860 24.460833 -2.426863 0.779086 0.000000 0.626917 0.978793 0.906925 1 0 1.000000
File_cabinet_02
  0 10.367323 27.702427 -2.713265 0.997679 0.000000 -0.068088 0.985405 0.985714 1 0 1.000000
  0 10.136860 27.442707 -2.426863 0.779086 0.000000 0.626917 0.978793 0.979969 1 0 1.000000
  0 10.136860 24.460833 -2.426863 0.779086 0.000000 0.626917 0.978793 0.906925 1 0 1.000000
File_cabinet_02
  0 10.039274 37.186703 -3.023146 0.686690 0.000000 -0.726951 0.993000 0.893828 1 0 1.000000
  0 10.039274 41.357807 -3.023146 0.686690 0.000000 -0.726951 0.993000 0.993065 1 0 1.000000
  0 10.367323 37.521626 -2.713265 0.997679 0.000000 -0.068092 0.985405 0.901180 1 0 1.000000
File_cabinet_02
  0 10.039274 41.357807 -3.023146 0.686690 0.000000 -0.726951 0.993000 0.993065 1 0 1.000000
  0 10.367323 41.022938 -2.713265 0.997679 0.000000 -0.068092 0.985405 0.985714 1 0 1.000000
  0 10.367323 37.521626 -2.713265 0.997679 0.000000 -0.068092 0.985405 0.901180 1 0 1.000000
File_cabinet_02
  0 10.367323 37.521626 -2.713265 0.997679 0.000000 -0.068092 0.985405 0.901180 1 0 1.000000
  0 10.367323 41.022938 -2.713265 0.997679 0.000000 -0.068092 0.985405 0.985714 1 0 1.000000
  0 10.136864 37.781345 -2.426863 0.779091 0.000000 0.626910 0.978793 0.906925 1 0 1.000000
File_cabinet_02
  0 10.367323 41.022938 -2.713265 0.997679 0.000000 -0.068092 0.985405 0.985714 1 0 1.000000
  0 10.136864 40.763218 -2.426863 0.779091 0.000000 0.626910 0.978793 0.979969 1 0 1.000000
  0 10.136864 37.781345 -2.426863 0.779091 0.000000 0.626910 0.978793 0.906925 1 0 1.000000
File_cabinet_02
  0 10.039274 41.357807 -3.023146 0.714345 0.699794 0.000000 0.993000 0.993065 1 0 1.000000
  0 10.039274 41.357807 3.023077 0.714345 0.699794 0.000000 0.852528 0.993065 1 0 1.000000
  0 10.367323 41.022938 -2.713265 0.999696 0.024664 0.000000 0.985405 0.985714 1 0 1.000000
File_cabinet_02
  0 10.039274 41.357807 3.023077 0.714345 0.699794 0.000000 0.852528 0.993065 1 0 1.000000
  0 10.367323 41.022938 2.713219 0.999696 0.024664 0.000000 0.860123 0.985714 1 0 1.000000
  0 10.367323 41.022938 -2.713265 0.999696 0.024664 0.000000 0.985405 0.985714 1 0 1.000000
File_cabinet_02
  0 10.367323 41.022938 -2.713265 0.999696 0.024664 0.000000 0.985405 0.985714 1 0 1.000000
  0 10.367323 41.022938 2.713219 0.999696 0.024664 0.000000 0.860123 0.985714 1 0 1.000000
  0 10.136864 40.763218 -2.426863 0.747984 -0.663716 0.000000 0.978793 0.979969 1 0 1.000000
File_cabinet_02
  0 10.367323 41.022938 2.713219 0.999696 0.024664 0.000000 0.860123 0.985714 1 0 1.000000
  0 10.136864 40.763218 2.426792 0.747984 -0.663716 0.000000 0.866735 0.979969 1 0 1.000000
  0 10.136864 40.763218 -2.426863 0.747984 -0.663716 0.000000 0.978793 0.979969 1 0 1.000000
end
