// Created by Crowbar 0.74
version 1
nodes
  0 "static_prop" -1
end
skeleton
  time 0
    0 0.000000 0.000000 0.000000 0.000000 0.000000 0.000000
end
triangles
  phy
    0 53.002562 1.322029 352.631254 -0.353798 -0.908685 -0.221627 0 0
    0 53.002557 1.322029 350.032829 -0.789791 0.568441 0.230447 0 0
    0 1.321304 2.014802 338.727057 -0.902875 -0.384603 -0.192086 0 0
  phy
    0 1.321304 2.014802 338.727057 -0.902875 -0.384603 -0.192086 0 0
    0 53.002557 1.322029 350.032829 -0.789791 0.568441 0.230447 0 0
    0 2.580260 1.997926 332.600075 -0.841552 0.525232 0.126180 0 0
  phy
    0 2.580260 -1.997954 332.600075 0.684768 0.713788 0.146969 0 0
    0 53.002557 1.322029 350.032829 -0.789791 0.568441 0.230447 0 0
    0 53.002557 -1.322051 350.032829 0.954184 0.273473 0.121433 0 0
  phy
    0 53.002557 1.322029 350.032829 -0.789791 0.568441 0.230447 0 0
    0 2.580260 -1.997954 332.600075 0.684768 0.713788 0.146969 0 0
    0 2.580260 1.997926 332.600075 -0.841552 0.525232 0.126180 0 0
  phy
    0 53.002562 -1.322051 352.631254 0.696661 -0.708902 -0.110098 0 0
    0 53.002557 -1.322051 350.032829 0.954184 0.273473 0.121433 0 0
    0 53.002557 1.322029 350.032829 -0.789791 0.568441 0.230447 0 0
  phy
    0 53.002557 1.322029 350.032829 -0.789791 0.568441 0.230447 0 0
    0 53.002562 1.322029 352.631254 -0.353798 -0.908685 -0.221627 0 0
    0 53.002562 -1.322051 352.631254 0.696661 -0.708902 -0.110098 0 0
  phy
    0 2.580260 1.997926 332.600075 -0.841552 0.525232 0.126180 0 0
    0 2.580260 -1.997954 332.600075 0.684768 0.713788 0.146969 0 0
    0 1.321304 2.014802 338.727057 -0.902875 -0.384603 -0.192086 0 0
  phy
    0 2.580260 -1.997954 332.600075 0.684768 0.713788 0.146969 0 0
    0 1.321304 -2.014831 338.727057 0.792828 -0.579201 -0.189605 0 0
    0 1.321304 2.014802 338.727057 -0.902875 -0.384603 -0.192086 0 0
  phy
    0 53.002557 -1.322051 350.032829 0.954184 0.273473 0.121433 0 0
    0 1.321304 -2.014831 338.727057 0.792828 -0.579201 -0.189605 0 0
    0 2.580260 -1.997954 332.600075 0.684768 0.713788 0.146969 0 0
  phy
    0 53.002562 -1.322051 352.631254 0.696661 -0.708902 -0.110098 0 0
    0 53.002562 1.322029 352.631254 -0.353798 -0.908685 -0.221627 0 0
    0 1.321304 -2.014831 338.727057 0.792828 -0.579201 -0.189605 0 0
  phy
    0 53.002562 1.322029 352.631254 -0.353798 -0.908685 -0.221627 0 0
    0 1.321304 2.014802 338.727057 -0.902875 -0.384603 -0.192086 0 0
    0 1.321304 -2.014831 338.727057 0.792828 -0.579201 -0.189605 0 0
  phy
    0 53.002562 -1.322051 352.631254 0.696661 -0.708902 -0.110098 0 0
    0 1.321304 -2.014831 338.727057 0.792828 -0.579201 -0.189605 0 0
    0 53.002557 -1.322051 350.032829 0.954184 0.273473 0.121433 0 0
  phy
    0 52.948097 1.233934 352.583570 -0.894330 -0.314129 -0.318584 0 0
    0 52.948097 -1.233956 352.583570 0.530982 -0.790902 -0.304190 0 0
    0 65.313291 4.239996 354.097960 -0.463014 -0.865725 -0.190103 0 0
  phy
    0 52.948097 -1.233956 352.583570 0.530982 -0.790902 -0.304190 0 0
    0 65.313291 -4.389608 354.097960 0.292849 -0.945106 -0.144963 0 0
    0 65.313291 4.239996 354.097960 -0.463014 -0.865725 -0.190103 0 0
  phy
    0 52.948097 -1.233956 352.583570 0.530982 -0.790902 -0.304190 0 0
    0 52.948097 1.233934 352.583570 -0.894330 -0.314129 -0.318584 0 0
    0 52.948097 1.233934 350.115693 -0.209691 0.942935 -0.258656 0 0
  phy
    0 52.948097 -1.233956 352.583570 0.530982 -0.790902 -0.304190 0 0
    0 52.948097 1.233934 350.115693 -0.209691 0.942935 -0.258656 0 0
    0 52.948097 -1.233956 350.115693 0.649569 0.649572 -0.395115 0 0
  phy
    0 64.498547 4.239996 348.713417 -0.521891 0.831192 -0.191699 0 0
    0 52.948097 1.233934 352.583570 -0.894330 -0.314129 -0.318584 0 0
    0 65.313291 4.239996 354.097960 -0.463014 -0.865725 -0.190103 0 0
  phy
    0 52.948097 1.233934 350.115693 -0.209691 0.942935 -0.258656 0 0
    0 52.948097 1.233934 352.583570 -0.894330 -0.314129 -0.318584 0 0
    0 64.498547 4.239996 348.713417 -0.521891 0.831192 -0.191699 0 0
  phy
    0 64.498547 -4.389608 348.713417 0.732248 0.641845 -0.227699 0 0
    0 52.948097 -1.233956 350.115693 0.649569 0.649572 -0.395115 0 0
    0 52.948097 1.233934 350.115693 -0.209691 0.942935 -0.258656 0 0
  phy
    0 64.498547 -4.389608 348.713417 0.732248 0.641845 -0.227699 0 0
    0 52.948097 1.233934 350.115693 -0.209691 0.942935 -0.258656 0 0
    0 64.498547 4.239996 348.713417 -0.521891 0.831192 -0.191699 0 0
  phy
    0 65.313291 -4.389608 354.097960 0.292849 -0.945106 -0.144963 0 0
    0 52.948097 -1.233956 352.583570 0.530982 -0.790902 -0.304190 0 0
    0 64.498547 -4.389608 348.713417 0.732248 0.641845 -0.227699 0 0
  phy
    0 52.948097 -1.233956 352.583570 0.530982 -0.790902 -0.304190 0 0
    0 52.948097 -1.233956 350.115693 0.649569 0.649572 -0.395115 0 0
    0 64.498547 -4.389608 348.713417 0.732248 0.641845 -0.227699 0 0
  phy
    0 64.498547 -4.389608 348.713417 0.732248 0.641845 -0.227699 0 0
    0 80.475169 -7.547832 355.162846 0.490426 -0.863543 -0.117368 0 0
    0 65.313291 -4.389608 354.097960 0.292849 -0.945106 -0.144963 0 0
  phy
    0 80.568068 -7.546945 347.420324 0.369384 0.926778 -0.068104 0 0
    0 80.475169 -7.547832 355.162846 0.490426 -0.863543 -0.117368 0 0
    0 64.498547 -4.389608 348.713417 0.732248 0.641845 -0.227699 0 0
  phy
    0 64.498547 -4.389608 348.713417 0.732248 0.641845 -0.227699 0 0
    0 64.498547 4.239996 348.713417 -0.521891 0.831192 -0.191699 0 0
    0 80.568068 -7.546945 347.420324 0.369384 0.926778 -0.068104 0 0
  phy
    0 93.824084 -3.713552 348.753403 0.136881 0.773741 0.618537 0 0
    0 94.730807 -3.713552 353.435907 0.373764 -0.672462 0.638824 0 0
    0 88.397509 -7.472149 347.708079 0.531551 0.803800 0.267132 0 0
  phy
    0 88.397509 -7.472149 347.708079 0.531551 0.803800 0.267132 0 0
    0 94.730807 -3.713552 353.435907 0.373764 -0.672462 0.638824 0 0
    0 88.397471 -7.472149 355.389888 0.611384 -0.765474 0.200644 0 0
  phy
    0 88.397471 -7.472149 355.389888 0.611384 -0.765474 0.200644 0 0
    0 80.568068 -7.546945 347.420324 0.369384 0.926778 -0.068104 0 0
    0 88.397509 -7.472149 347.708079 0.531551 0.803800 0.267132 0 0
  phy
    0 88.397509 -7.472149 347.708079 0.531551 0.803800 0.267132 0 0
    0 88.397509 7.472133 347.708079 -0.466811 0.863468 0.191077 0 0
    0 93.824084 -3.713552 348.753403 0.136881 0.773741 0.618537 0 0
  phy
    0 88.397509 7.472133 347.708079 -0.466811 0.863468 0.191077 0 0
    0 88.397509 -7.472149 347.708079 0.531551 0.803800 0.267132 0 0
    0 80.568068 -7.546945 347.420324 0.369384 0.926778 -0.068104 0 0
  phy
    0 88.397509 7.472133 347.708079 -0.466811 0.863468 0.191077 0 0
    0 93.824084 3.713538 348.753403 -0.297521 0.613550 0.731463 0 0
    0 93.824084 -3.713552 348.753403 0.136881 0.773741 0.618537 0 0
  phy
    0 93.824084 3.713538 348.753403 -0.297521 0.613550 0.731463 0 0
    0 88.397509 7.472133 347.708079 -0.466811 0.863468 0.191077 0 0
    0 94.730807 3.713538 353.435907 -0.479025 -0.197614 0.855268 0 0
  phy
    0 93.824084 3.713538 348.753403 -0.297521 0.613550 0.731463 0 0
    0 94.730807 3.713538 353.435907 -0.479025 -0.197614 0.855268 0 0
    0 93.824084 -3.713552 348.753403 0.136881 0.773741 0.618537 0 0
  phy
    0 64.498547 4.239996 348.713417 -0.521891 0.831192 -0.191699 0 0
    0 65.313291 4.239996 354.097960 -0.463014 -0.865725 -0.190103 0 0
    0 80.474991 7.547819 355.162846 -0.557044 -0.821619 -0.121016 0 0
  phy
    0 80.568068 7.546930 347.420324 -0.453686 0.885689 -0.098615 0 0
    0 64.498547 4.239996 348.713417 -0.521891 0.831192 -0.191699 0 0
    0 80.474991 7.547819 355.162846 -0.557044 -0.821619 -0.121016 0 0
  phy
    0 64.498547 4.239996 348.713417 -0.521891 0.831192 -0.191699 0 0
    0 80.568068 7.546930 347.420324 -0.453686 0.885689 -0.098615 0 0
    0 80.568068 -7.546945 347.420324 0.369384 0.926778 -0.068104 0 0
  phy
    0 80.568068 7.546930 347.420324 -0.453686 0.885689 -0.098615 0 0
    0 88.397509 7.472133 347.708079 -0.466811 0.863468 0.191077 0 0
    0 80.568068 -7.546945 347.420324 0.369384 0.926778 -0.068104 0 0
  phy
    0 88.397509 7.472133 347.708079 -0.466811 0.863468 0.191077 0 0
    0 80.568068 7.546930 347.420324 -0.453686 0.885689 -0.098615 0 0
    0 80.474991 7.547819 355.162846 -0.557044 -0.821619 -0.121016 0 0
  phy
    0 88.397471 7.472133 355.389888 -0.273309 -0.947567 0.165585 0 0
    0 88.397509 7.472133 347.708079 -0.466811 0.863468 0.191077 0 0
    0 80.474991 7.547819 355.162846 -0.557044 -0.821619 -0.121016 0 0
  phy
    0 88.397509 7.472133 347.708079 -0.466811 0.863468 0.191077 0 0
    0 88.397471 7.472133 355.389888 -0.273309 -0.947567 0.165585 0 0
    0 94.730807 3.713538 353.435907 -0.479025 -0.197614 0.855268 0 0
  phy
    0 93.824084 -3.713552 348.753403 0.136881 0.773741 0.618537 0 0
    0 94.730807 3.713538 353.435907 -0.479025 -0.197614 0.855268 0 0
    0 94.730807 -3.713552 353.435907 0.373764 -0.672462 0.638824 0 0
  phy
    0 94.730807 -3.713552 353.435907 0.373764 -0.672462 0.638824 0 0
    0 88.397471 7.472133 355.389888 -0.273309 -0.947567 0.165585 0 0
    0 88.397471 -7.472149 355.389888 0.611384 -0.765474 0.200644 0 0
  phy
    0 88.397471 7.472133 355.389888 -0.273309 -0.947567 0.165585 0 0
    0 80.475169 -7.547832 355.162846 0.490426 -0.863543 -0.117368 0 0
    0 88.397471 -7.472149 355.389888 0.611384 -0.765474 0.200644 0 0
  phy
    0 88.397471 -7.472149 355.389888 0.611384 -0.765474 0.200644 0 0
    0 80.475169 -7.547832 355.162846 0.490426 -0.863543 -0.117368 0 0
    0 80.568068 -7.546945 347.420324 0.369384 0.926778 -0.068104 0 0
  phy
    0 65.313291 -4.389608 354.097960 0.292849 -0.945106 -0.144963 0 0
    0 80.474991 7.547819 355.162846 -0.557044 -0.821619 -0.121016 0 0
    0 65.313291 4.239996 354.097960 -0.463014 -0.865725 -0.190103 0 0
  phy
    0 80.475169 -7.547832 355.162846 0.490426 -0.863543 -0.117368 0 0
    0 80.474991 7.547819 355.162846 -0.557044 -0.821619 -0.121016 0 0
    0 65.313291 -4.389608 354.097960 0.292849 -0.945106 -0.144963 0 0
  phy
    0 94.730807 -3.713552 353.435907 0.373764 -0.672462 0.638824 0 0
    0 94.730807 3.713538 353.435907 -0.479025 -0.197614 0.855268 0 0
    0 88.397471 7.472133 355.389888 -0.273309 -0.947567 0.165585 0 0
  phy
    0 88.397471 7.472133 355.389888 -0.273309 -0.947567 0.165585 0 0
    0 80.474991 7.547819 355.162846 -0.557044 -0.821619 -0.121016 0 0
    0 80.475169 -7.547832 355.162846 0.490426 -0.863543 -0.117368 0 0
  phy
    0 6.578274 0.000001 -8.819939 0.000000 0.009279 0.999957 0 0
    0 3.289137 -5.696952 -8.819939 0.865941 0.013917 0.499952 0 0
    0 3.289139 5.696953 -8.819939 -0.755580 0.030359 0.654352 0 0
  phy
    0 3.289139 5.696953 -8.819939 -0.755580 0.030359 0.654352 0 0
    0 3.289137 -5.696952 -8.819939 0.865941 0.013917 0.499952 0 0
    0 -3.289137 -5.696952 -8.819939 0.865095 0.046346 -0.499463 0 0
  phy
    0 3.289139 5.696953 -8.819939 -0.755580 0.030359 0.654352 0 0
    0 -3.289137 -5.696952 -8.819939 0.865095 0.046346 -0.499463 0 0
    0 -3.289136 5.696954 -8.819939 -0.944754 0.018221 -0.327272 0 0
  phy
    0 -3.289136 5.696954 -8.819939 -0.944754 0.018221 -0.327272 0 0
    0 -3.289137 -5.696952 -8.819939 0.865095 0.046346 -0.499463 0 0
    0 -6.578275 0.000001 -8.819939 0.000000 0.004640 -0.999989 0 0
  phy
    0 3.289139 5.696953 -8.819939 -0.755580 0.030359 0.654352 0 0
    0 6.578274 -0.000015 345.646490 0.000000 -0.027827 0.999613 0 0
    0 6.578274 0.000001 -8.819939 0.000000 0.009279 0.999957 0 0
  phy
    0 6.578274 0.000001 -8.819939 0.000000 0.009279 0.999957 0 0
    0 6.578274 -0.000015 345.646490 0.000000 -0.027827 0.999613 0 0
    0 3.289137 -5.696952 -8.819939 0.865941 0.013917 0.499952 0 0
  phy
    0 -6.578275 0.000001 -8.819939 0.000000 0.004640 -0.999989 0 0
    0 -3.289137 -5.696952 -8.819939 0.865095 0.046346 -0.499463 0 0
    0 -3.289137 -5.696970 345.646490 0.865942 -0.013917 -0.499952 0 0
  phy
    0 3.289137 -5.696952 -8.819939 0.865941 0.013917 0.499952 0 0
    0 -3.289137 -5.696970 345.646490 0.865942 -0.013917 -0.499952 0 0
    0 -3.289137 -5.696952 -8.819939 0.865095 0.046346 -0.499463 0 0
  phy
    0 -3.289137 5.696938 345.646490 -0.755804 -0.018221 -0.654545 0 0
    0 3.289139 5.696937 345.646490 -0.944894 -0.006075 0.327321 0 0
    0 -3.289136 5.696954 -8.819939 -0.944754 0.018221 -0.327272 0 0
  phy
    0 -3.289136 5.696954 -8.819939 -0.944754 0.018221 -0.327272 0 0
    0 3.289139 5.696937 345.646490 -0.944894 -0.006075 0.327321 0 0
    0 3.289139 5.696953 -8.819939 -0.755580 0.030359 0.654352 0 0
  phy
    0 3.289139 5.696937 345.646490 -0.944894 -0.006075 0.327321 0 0
    0 6.578274 -0.000015 345.646490 0.000000 -0.027827 0.999613 0 0
    0 3.289139 5.696953 -8.819939 -0.755580 0.030359 0.654352 0 0
  phy
    0 -6.578276 -0.000016 345.646490 0.000000 -0.037091 -0.999312 0 0
    0 -6.578275 0.000001 -8.819939 0.000000 0.004640 -0.999989 0 0
    0 -3.289137 -5.696970 345.646490 0.865942 -0.013917 -0.499952 0 0
  phy
    0 -6.578275 0.000001 -8.819939 0.000000 0.004640 -0.999989 0 0
    0 -3.289137 5.696938 345.646490 -0.755804 -0.018221 -0.654545 0 0
    0 -3.289136 5.696954 -8.819939 -0.944754 0.018221 -0.327272 0 0
  phy
    0 -6.578275 0.000001 -8.819939 0.000000 0.004640 -0.999989 0 0
    0 -6.578276 -0.000016 345.646490 0.000000 -0.037091 -0.999312 0 0
    0 -3.289137 5.696938 345.646490 -0.755804 -0.018221 -0.654545 0 0
  phy
    0 3.289139 5.696937 345.646490 -0.944894 -0.006075 0.327321 0 0
    0 -3.289137 5.696938 345.646490 -0.755804 -0.018221 -0.654545 0 0
    0 6.578274 -0.000015 345.646490 0.000000 -0.027827 0.999613 0 0
  phy
    0 -3.289137 5.696938 345.646490 -0.755804 -0.018221 -0.654545 0 0
    0 -6.578276 -0.000016 345.646490 0.000000 -0.037091 -0.999312 0 0
    0 6.578274 -0.000015 345.646490 0.000000 -0.027827 0.999613 0 0
  phy
    0 -6.578276 -0.000016 345.646490 0.000000 -0.037091 -0.999312 0 0
    0 -3.289137 -5.696970 345.646490 0.865942 -0.013917 -0.499952 0 0
    0 6.578274 -0.000015 345.646490 0.000000 -0.027827 0.999613 0 0
  phy
    0 -3.289137 -5.696970 345.646490 0.865942 -0.013917 -0.499952 0 0
    0 3.289136 -5.696970 345.646490 0.865988 -0.009279 0.499979 0 0
    0 6.578274 -0.000015 345.646490 0.000000 -0.027827 0.999613 0 0
  phy
    0 3.289137 -5.696952 -8.819939 0.865941 0.013917 0.499952 0 0
    0 6.578274 -0.000015 345.646490 0.000000 -0.027827 0.999613 0 0
    0 3.289136 -5.696970 345.646490 0.865988 -0.009279 0.499979 0 0
  phy
    0 3.289136 -5.696970 345.646490 0.865988 -0.009279 0.499979 0 0
    0 -3.289137 -5.696970 345.646490 0.865942 -0.013917 -0.499952 0 0
    0 3.289137 -5.696952 -8.819939 0.865941 0.013917 0.499952 0 0
end
