// Created by Crowbar 0.74
version 1
nodes
  0 "static_prop" -1
end
skeleton
  time 0
    0 0.000000 0.000000 0.000000 0.000000 0.000000 0.000000
end
triangles
  phy
    0 -62.166110 -46.697545 0.113212 0.867694 0.013461 -0.496917 0 0
    0 -62.166110 -46.697545 53.651014 0.399956 -0.024818 -0.916198 0 0
    0 -62.166110 -45.036481 0.113212 -0.399956 0.024818 -0.916198 0 0
  phy
    0 -62.166110 -45.036481 0.113212 -0.399956 0.024818 -0.916198 0 0
    0 -62.166110 -46.697545 53.651014 0.399956 -0.024818 -0.916198 0 0
    0 -62.166110 -45.036481 53.651014 -0.867694 -0.013461 -0.496917 0 0
  phy
    0 -62.166110 -46.697545 0.113212 0.867694 0.013461 -0.496917 0 0
    0 -60.715872 -46.697545 53.651014 0.657650 -0.010202 0.753255 0 0
    0 -62.166110 -46.697545 53.651014 0.399956 -0.024818 -0.916198 0 0
  phy
    0 -62.166110 -46.697545 0.113212 0.867694 0.013461 -0.496917 0 0
    0 -60.715872 -46.697545 0.113212 0.657137 0.040777 0.752668 0 0
    0 -60.715872 -46.697545 53.651014 0.657650 -0.010202 0.753255 0 0
  phy
    0 -62.166110 -46.697545 53.651014 0.399956 -0.024818 -0.916198 0 0
    0 -60.715872 -45.036481 53.651014 -0.657137 -0.040777 0.752668 0 0
    0 -62.166110 -45.036481 53.651014 -0.867694 -0.013461 -0.496917 0 0
  phy
    0 -62.166110 -46.697545 53.651014 0.399956 -0.024818 -0.916198 0 0
    0 -60.715872 -46.697545 53.651014 0.657650 -0.010202 0.753255 0 0
    0 -60.715872 -45.036481 53.651014 -0.657137 -0.040777 0.752668 0 0
  phy
    0 -62.166110 -46.697545 0.113212 0.867694 0.013461 -0.496917 0 0
    0 -62.166110 -45.036481 0.113212 -0.399956 0.024818 -0.916198 0 0
    0 -60.715872 -46.697545 0.113212 0.657137 0.040777 0.752668 0 0
  phy
    0 -60.715872 -46.697545 0.113212 0.657137 0.040777 0.752668 0 0
    0 -62.166110 -45.036481 0.113212 -0.399956 0.024818 -0.916198 0 0
    0 -60.715872 -45.036481 0.113212 -0.657650 0.010202 0.753255 0 0
  phy
    0 -62.166110 -45.036481 0.113212 -0.399956 0.024818 -0.916198 0 0
    0 -62.166110 -45.036481 53.651014 -0.867694 -0.013461 -0.496917 0 0
    0 -60.715872 -45.036481 0.113212 -0.657650 0.010202 0.753255 0 0
  phy
    0 -60.715872 -45.036481 0.113212 -0.657650 0.010202 0.753255 0 0
    0 -62.166110 -45.036481 53.651014 -0.867694 -0.013461 -0.496917 0 0
    0 -60.715872 -45.036481 53.651014 -0.657137 -0.040777 0.752668 0 0
  phy
    0 -60.715872 -45.036481 53.651014 -0.657137 -0.040777 0.752668 0 0
    0 -60.715872 -46.697545 53.651014 0.657650 -0.010202 0.753255 0 0
    0 -60.715872 -45.036481 0.113212 -0.657650 0.010202 0.753255 0 0
  phy
    0 -60.715872 -46.697545 53.651014 0.657650 -0.010202 0.753255 0 0
    0 -60.715872 -46.697545 0.113212 0.657137 0.040777 0.752668 0 0
    0 -60.715872 -45.036481 0.113212 -0.657650 0.010202 0.753255 0 0
  phy
    0 -62.122472 45.295147 49.668926 -0.008122 -0.737489 -0.675310 0 0
    0 -62.122462 -45.405786 49.668917 0.008122 -0.737489 -0.675310 0 0
    0 -61.031641 45.295147 49.668926 -0.008122 -0.737489 0.675310 0 0
  phy
    0 -62.122462 -45.405786 49.668917 0.008122 -0.737489 -0.675310 0 0
    0 -61.031636 -45.405786 49.668917 0.008122 -0.737489 0.675310 0 0
    0 -61.031641 45.295147 49.668926 -0.008122 -0.737489 0.675310 0 0
  phy
    0 -62.122462 -45.405786 49.668917 0.008122 -0.737489 -0.675310 0 0
    0 -61.031636 -45.405786 48.670060 0.010555 0.479219 0.877632 0 0
    0 -61.031636 -45.405786 49.668917 0.008122 -0.737489 0.675310 0 0
  phy
    0 -62.122462 -45.405786 49.668917 0.008122 -0.737489 -0.675310 0 0
    0 -62.122462 -45.405786 48.670060 0.005006 0.909222 -0.416281 0 0
    0 -61.031636 -45.405786 48.670060 0.010555 0.479219 0.877632 0 0
  phy
    0 -62.122462 -45.405786 48.670060 0.005006 0.909222 -0.416281 0 0
    0 -62.122462 -45.405786 49.668917 0.008122 -0.737489 -0.675310 0 0
    0 -62.122472 45.295147 48.670065 -0.010555 0.479220 -0.877631 0 0
  phy
    0 -62.122472 45.295147 48.670065 -0.010555 0.479220 -0.877631 0 0
    0 -62.122462 -45.405786 49.668917 0.008122 -0.737489 -0.675310 0 0
    0 -62.122472 45.295147 49.668926 -0.008122 -0.737489 -0.675310 0 0
  phy
    0 -62.122462 -45.405786 48.670060 0.005006 0.909222 -0.416281 0 0
    0 -62.122472 45.295147 48.670065 -0.010555 0.479220 -0.877631 0 0
    0 -61.031641 45.295147 48.670065 -0.005007 0.909221 0.416283 0 0
  phy
    0 -62.122462 -45.405786 48.670060 0.005006 0.909222 -0.416281 0 0
    0 -61.031641 45.295147 48.670065 -0.005007 0.909221 0.416283 0 0
    0 -61.031636 -45.405786 48.670060 0.010555 0.479219 0.877632 0 0
  phy
    0 -61.031641 45.295147 48.670065 -0.005007 0.909221 0.416283 0 0
    0 -62.122472 45.295147 48.670065 -0.010555 0.479220 -0.877631 0 0
    0 -61.031641 45.295147 49.668926 -0.008122 -0.737489 0.675310 0 0
  phy
    0 -61.031641 45.295147 49.668926 -0.008122 -0.737489 0.675310 0 0
    0 -62.122472 45.295147 48.670065 -0.010555 0.479220 -0.877631 0 0
    0 -62.122472 45.295147 49.668926 -0.008122 -0.737489 -0.675310 0 0
  phy
    0 -61.031636 -45.405786 49.668917 0.008122 -0.737489 0.675310 0 0
    0 -61.031636 -45.405786 48.670060 0.010555 0.479219 0.877632 0 0
    0 -61.031641 45.295147 49.668926 -0.008122 -0.737489 0.675310 0 0
  phy
    0 -61.031636 -45.405786 48.670060 0.010555 0.479219 0.877632 0 0
    0 -61.031641 45.295147 48.670065 -0.005007 0.909221 0.416283 0 0
    0 -61.031641 45.295147 49.668926 -0.008122 -0.737489 0.675310 0 0
  phy
    0 -61.031636 -45.405786 26.521286 0.005278 -0.479239 0.877668 0 0
    0 -61.031641 45.295147 26.521289 -0.010013 -0.909188 0.416265 0 0
    0 -62.122462 -45.405786 26.521286 0.010013 -0.909188 -0.416266 0 0
  phy
    0 -61.031641 45.295147 26.521289 -0.010013 -0.909188 0.416265 0 0
    0 -62.122472 45.295147 26.521289 -0.005278 -0.479241 -0.877668 0 0
    0 -62.122462 -45.405786 26.521286 0.010013 -0.909188 -0.416266 0 0
  phy
    0 -61.031636 -45.405786 25.522427 0.016242 0.737415 0.675244 0 0
    0 -61.031641 45.295147 25.522432 -0.004061 0.737508 0.675326 0 0
    0 -61.031636 -45.405786 26.521286 0.005278 -0.479239 0.877668 0 0
  phy
    0 -61.031641 45.295147 25.522432 -0.004061 0.737508 0.675326 0 0
    0 -61.031641 45.295147 26.521289 -0.010013 -0.909188 0.416265 0 0
    0 -61.031636 -45.405786 26.521286 0.005278 -0.479239 0.877668 0 0
  phy
    0 -62.122472 45.295147 26.521289 -0.005278 -0.479241 -0.877668 0 0
    0 -61.031641 45.295147 26.521289 -0.010013 -0.909188 0.416265 0 0
    0 -62.122472 45.295147 25.522432 -0.016242 0.737418 -0.675242 0 0
  phy
    0 -62.122472 45.295147 25.522432 -0.016242 0.737418 -0.675242 0 0
    0 -61.031641 45.295147 26.521289 -0.010013 -0.909188 0.416265 0 0
    0 -61.031641 45.295147 25.522432 -0.004061 0.737508 0.675326 0 0
  phy
    0 -62.122472 45.295147 25.522432 -0.016242 0.737418 -0.675242 0 0
    0 -61.031641 45.295147 25.522432 -0.004061 0.737508 0.675326 0 0
    0 -62.122462 -45.405786 25.522427 0.004061 0.737508 -0.675326 0 0
  phy
    0 -62.122462 -45.405786 25.522427 0.004061 0.737508 -0.675326 0 0
    0 -61.031641 45.295147 25.522432 -0.004061 0.737508 0.675326 0 0
    0 -61.031636 -45.405786 25.522427 0.016242 0.737415 0.675244 0 0
  phy
    0 -61.031636 -45.405786 25.522427 0.016242 0.737415 0.675244 0 0
    0 -62.122462 -45.405786 26.521286 0.010013 -0.909188 -0.416266 0 0
    0 -62.122462 -45.405786 25.522427 0.004061 0.737508 -0.675326 0 0
  phy
    0 -61.031636 -45.405786 25.522427 0.016242 0.737415 0.675244 0 0
    0 -61.031636 -45.405786 26.521286 0.005278 -0.479239 0.877668 0 0
    0 -62.122462 -45.405786 26.521286 0.010013 -0.909188 -0.416266 0 0
  phy
    0 -62.122462 -45.405786 25.522427 0.004061 0.737508 -0.675326 0 0
    0 -62.122472 45.295147 26.521289 -0.005278 -0.479241 -0.877668 0 0
    0 -62.122472 45.295147 25.522432 -0.016242 0.737418 -0.675242 0 0
  phy
    0 -62.122472 45.295147 26.521289 -0.005278 -0.479241 -0.877668 0 0
    0 -62.122462 -45.405786 25.522427 0.004061 0.737508 -0.675326 0 0
    0 -62.122462 -45.405786 26.521286 0.010013 -0.909188 -0.416266 0 0
  phy
    0 -61.055614 -28.101898 25.128157 0.657323 0.033067 0.752883 0 0
    0 -62.144234 -28.101900 49.914474 0.866946 -0.043612 -0.496491 0 0
    0 -62.144234 -28.101898 25.128157 0.399997 0.020122 -0.916296 0 0
  phy
    0 -61.055614 -28.101898 25.128157 0.657323 0.033067 0.752883 0 0
    0 -61.055614 -28.101900 49.914474 0.657323 -0.033067 0.752883 0 0
    0 -62.144234 -28.101900 49.914474 0.866946 -0.043612 -0.496491 0 0
  phy
    0 -62.144234 -28.101900 49.914474 0.866946 -0.043612 -0.496491 0 0
    0 -62.144234 -26.855018 49.914474 -0.399997 -0.020122 -0.916296 0 0
    0 -62.144234 -28.101898 25.128157 0.399997 0.020122 -0.916296 0 0
  phy
    0 -62.144234 -28.101898 25.128157 0.399997 0.020122 -0.916296 0 0
    0 -62.144234 -26.855018 49.914474 -0.399997 -0.020122 -0.916296 0 0
    0 -62.144234 -26.855016 25.128157 -0.866946 0.043612 -0.496491 0 0
  phy
    0 -62.144234 -28.101900 49.914474 0.866946 -0.043612 -0.496491 0 0
    0 -61.055614 -26.855018 49.914474 -0.657323 -0.033067 0.752883 0 0
    0 -62.144234 -26.855018 49.914474 -0.399997 -0.020122 -0.916296 0 0
  phy
    0 -62.144234 -28.101900 49.914474 0.866946 -0.043612 -0.496491 0 0
    0 -61.055614 -28.101900 49.914474 0.657323 -0.033067 0.752883 0 0
    0 -61.055614 -26.855018 49.914474 -0.657323 -0.033067 0.752883 0 0
  phy
    0 -62.144234 -26.855018 49.914474 -0.399997 -0.020122 -0.916296 0 0
    0 -61.055614 -26.855018 49.914474 -0.657323 -0.033067 0.752883 0 0
    0 -62.144234 -26.855016 25.128157 -0.866946 0.043612 -0.496491 0 0
  phy
    0 -62.144234 -26.855016 25.128157 -0.866946 0.043612 -0.496491 0 0
    0 -61.055614 -26.855018 49.914474 -0.657323 -0.033067 0.752883 0 0
    0 -61.055614 -26.855016 25.128157 -0.657323 0.033067 0.752883 0 0
  phy
    0 -62.144234 -28.101898 25.128157 0.399997 0.020122 -0.916296 0 0
    0 -62.144234 -26.855016 25.128157 -0.866946 0.043612 -0.496491 0 0
    0 -61.055614 -28.101898 25.128157 0.657323 0.033067 0.752883 0 0
  phy
    0 -61.055614 -28.101898 25.128157 0.657323 0.033067 0.752883 0 0
    0 -62.144234 -26.855016 25.128157 -0.866946 0.043612 -0.496491 0 0
    0 -61.055614 -26.855016 25.128157 -0.657323 0.033067 0.752883 0 0
  phy
    0 -61.055614 -26.855018 49.914474 -0.657323 -0.033067 0.752883 0 0
    0 -61.055614 -28.101898 25.128157 0.657323 0.033067 0.752883 0 0
    0 -61.055614 -26.855016 25.128157 -0.657323 0.033067 0.752883 0 0
  phy
    0 -61.055614 -26.855018 49.914474 -0.657323 -0.033067 0.752883 0 0
    0 -61.055614 -28.101900 49.914474 0.657323 -0.033067 0.752883 0 0
    0 -61.055614 -28.101898 25.128157 0.657323 0.033067 0.752883 0 0
  phy
    0 -62.144234 30.047509 25.128161 -0.656249 0.066025 -0.751650 0 0
    0 -62.144234 28.800631 25.128161 0.399998 0.020122 -0.916295 0 0
    0 -62.144234 30.047509 49.914474 -0.657593 -0.016540 -0.753191 0 0
  phy
    0 -62.144234 30.047509 49.914474 -0.657593 -0.016540 -0.753191 0 0
    0 -62.144234 28.800631 25.128161 0.399998 0.020122 -0.916295 0 0
    0 -62.144234 28.800629 49.914474 0.866946 -0.043612 -0.496490 0 0
  phy
    0 -62.144234 30.047509 25.128161 -0.656249 0.066025 -0.751650 0 0
    0 -62.144234 30.047509 49.914474 -0.657593 -0.016540 -0.753191 0 0
    0 -61.055614 30.047509 25.128161 -0.867566 0.021821 0.496844 0 0
  phy
    0 -61.055614 30.047509 25.128161 -0.867566 0.021821 0.496844 0 0
    0 -62.144234 30.047509 49.914474 -0.657593 -0.016540 -0.753191 0 0
    0 -61.055614 30.047509 49.914474 -0.399755 -0.040220 0.915739 0 0
  phy
    0 -62.144234 28.800631 25.128161 0.399998 0.020122 -0.916295 0 0
    0 -62.144234 30.047509 25.128161 -0.656249 0.066025 -0.751650 0 0
    0 -61.055614 28.800631 25.128161 0.657324 0.033067 0.752882 0 0
  phy
    0 -61.055614 28.800631 25.128161 0.657324 0.033067 0.752882 0 0
    0 -62.144234 30.047509 25.128161 -0.656249 0.066025 -0.751650 0 0
    0 -61.055614 30.047509 25.128161 -0.867566 0.021821 0.496844 0 0
  phy
    0 -61.055614 28.800631 25.128161 0.657324 0.033067 0.752882 0 0
    0 -62.144234 28.800629 49.914474 0.866946 -0.043612 -0.496490 0 0
    0 -62.144234 28.800631 25.128161 0.399998 0.020122 -0.916295 0 0
  phy
    0 -61.055614 28.800631 25.128161 0.657324 0.033067 0.752882 0 0
    0 -61.055614 28.800629 49.914474 0.657323 -0.033067 0.752883 0 0
    0 -62.144234 28.800629 49.914474 0.866946 -0.043612 -0.496490 0 0
  phy
    0 -62.144234 28.800629 49.914474 0.866946 -0.043612 -0.496490 0 0
    0 -61.055614 30.047509 49.914474 -0.399755 -0.040220 0.915739 0 0
    0 -62.144234 30.047509 49.914474 -0.657593 -0.016540 -0.753191 0 0
  phy
    0 -62.144234 28.800629 49.914474 0.866946 -0.043612 -0.496490 0 0
    0 -61.055614 28.800629 49.914474 0.657323 -0.033067 0.752883 0 0
    0 -61.055614 30.047509 49.914474 -0.399755 -0.040220 0.915739 0 0
  phy
    0 -61.055614 28.800631 25.128161 0.657324 0.033067 0.752882 0 0
    0 -61.055614 30.047509 49.914474 -0.399755 -0.040220 0.915739 0 0
    0 -61.055614 28.800629 49.914474 0.657323 -0.033067 0.752883 0 0
  phy
    0 -61.055614 28.800631 25.128161 0.657324 0.033067 0.752882 0 0
    0 -61.055614 30.047509 25.128161 -0.867566 0.021821 0.496844 0 0
    0 -61.055614 30.047509 49.914474 -0.399755 -0.040220 0.915739 0 0
  phy
    0 -62.166119 46.810339 0.113216 -0.399957 0.024818 -0.916198 0 0
    0 -62.166119 46.810339 53.651018 -0.867694 -0.013461 -0.496916 0 0
    0 -60.715882 46.810339 0.113216 -0.657651 0.010202 0.753254 0 0
  phy
    0 -60.715882 46.810339 0.113216 -0.657651 0.010202 0.753254 0 0
    0 -62.166119 46.810339 53.651018 -0.867694 -0.013461 -0.496916 0 0
    0 -60.715882 46.810339 53.651018 -0.657138 -0.040777 0.752667 0 0
  phy
    0 -62.166119 46.810339 53.651018 -0.867694 -0.013461 -0.496916 0 0
    0 -62.166119 46.810339 0.113216 -0.399957 0.024818 -0.916198 0 0
    0 -62.166119 45.149279 53.651018 0.399957 -0.024818 -0.916198 0 0
  phy
    0 -62.166119 45.149279 53.651018 0.399957 -0.024818 -0.916198 0 0
    0 -62.166119 46.810339 0.113216 -0.399957 0.024818 -0.916198 0 0
    0 -62.166119 45.149279 0.113216 0.867694 0.013461 -0.496916 0 0
  phy
    0 -62.166119 45.149279 53.651018 0.399957 -0.024818 -0.916198 0 0
    0 -60.715882 46.810339 53.651018 -0.657138 -0.040777 0.752667 0 0
    0 -62.166119 46.810339 53.651018 -0.867694 -0.013461 -0.496916 0 0
  phy
    0 -62.166119 45.149279 53.651018 0.399957 -0.024818 -0.916198 0 0
    0 -60.715882 45.149279 53.651018 0.657651 -0.010202 0.753254 0 0
    0 -60.715882 46.810339 53.651018 -0.657138 -0.040777 0.752667 0 0
  phy
    0 -62.166119 45.149279 0.113216 0.867694 0.013461 -0.496916 0 0
    0 -62.166119 46.810339 0.113216 -0.399957 0.024818 -0.916198 0 0
    0 -60.715882 45.149279 0.113216 0.657138 0.040777 0.752667 0 0
  phy
    0 -60.715882 45.149279 0.113216 0.657138 0.040777 0.752667 0 0
    0 -62.166119 46.810339 0.113216 -0.399957 0.024818 -0.916198 0 0
    0 -60.715882 46.810339 0.113216 -0.657651 0.010202 0.753254 0 0
  phy
    0 -62.166119 45.149279 0.113216 0.867694 0.013461 -0.496916 0 0
    0 -60.715882 45.149279 53.651018 0.657651 -0.010202 0.753254 0 0
    0 -62.166119 45.149279 53.651018 0.399957 -0.024818 -0.916198 0 0
  phy
    0 -62.166119 45.149279 0.113216 0.867694 0.013461 -0.496916 0 0
    0 -60.715882 45.149279 0.113216 0.657138 0.040777 0.752667 0 0
    0 -60.715882 45.149279 53.651018 0.657651 -0.010202 0.753254 0 0
  phy
    0 -60.715882 46.810339 53.651018 -0.657138 -0.040777 0.752667 0 0
    0 -60.715882 45.149279 53.651018 0.657651 -0.010202 0.753254 0 0
    0 -60.715882 46.810339 0.113216 -0.657651 0.010202 0.753254 0 0
  phy
    0 -60.715882 45.149279 53.651018 0.657651 -0.010202 0.753254 0 0
    0 -60.715882 45.149279 0.113216 0.657138 0.040777 0.752667 0 0
    0 -60.715882 46.810339 0.113216 -0.657651 0.010202 0.753254 0 0
  phy
    0 65.107505 -45.036481 28.990786 -0.399659 -0.045835 0.915517 0 0
    0 65.107505 -45.036476 0.023544 -0.867504 0.024872 0.496808 0 0
    0 63.657273 -45.036481 28.990786 -0.657567 -0.018853 -0.753160 0 0
  phy
    0 63.657273 -45.036481 28.990786 -0.657567 -0.018853 -0.753160 0 0
    0 65.107505 -45.036476 0.023544 -0.867504 0.024872 0.496808 0 0
    0 63.657273 -45.036476 0.023544 -0.655821 0.075213 -0.751160 0 0
  phy
    0 65.107505 -45.036481 28.990786 -0.399659 -0.045835 0.915517 0 0
    0 65.107505 -46.697536 0.023544 0.657217 0.037687 0.752759 0 0
    0 65.107505 -45.036476 0.023544 -0.867504 0.024872 0.496808 0 0
  phy
    0 65.107505 -45.036481 28.990786 -0.399659 -0.045835 0.915517 0 0
    0 65.107505 -46.697541 28.990786 0.657217 -0.037686 0.752759 0 0
    0 65.107505 -46.697536 0.023544 0.657217 0.037687 0.752759 0 0
  phy
    0 65.107505 -45.036476 0.023544 -0.867504 0.024872 0.496808 0 0
    0 65.107505 -46.697536 0.023544 0.657217 0.037687 0.752759 0 0
    0 63.657273 -45.036476 0.023544 -0.655821 0.075213 -0.751160 0 0
  phy
    0 63.657273 -45.036476 0.023544 -0.655821 0.075213 -0.751160 0 0
    0 65.107505 -46.697536 0.023544 0.657217 0.037687 0.752759 0 0
    0 63.657273 -46.697536 0.023544 0.399974 0.022936 -0.916240 0 0
  phy
    0 65.107505 -45.036481 28.990786 -0.399659 -0.045835 0.915517 0 0
    0 63.657273 -46.697541 28.990786 0.866700 -0.049699 -0.496348 0 0
    0 65.107505 -46.697541 28.990786 0.657217 -0.037686 0.752759 0 0
  phy
    0 65.107505 -45.036481 28.990786 -0.399659 -0.045835 0.915517 0 0
    0 63.657273 -45.036481 28.990786 -0.657567 -0.018853 -0.753160 0 0
    0 63.657273 -46.697541 28.990786 0.866700 -0.049699 -0.496348 0 0
  phy
    0 65.107505 -46.697536 0.023544 0.657217 0.037687 0.752759 0 0
    0 63.657273 -46.697541 28.990786 0.866700 -0.049699 -0.496348 0 0
    0 63.657273 -46.697536 0.023544 0.399974 0.022936 -0.916240 0 0
  phy
    0 65.107505 -46.697536 0.023544 0.657217 0.037687 0.752759 0 0
    0 65.107505 -46.697541 28.990786 0.657217 -0.037686 0.752759 0 0
    0 63.657273 -46.697541 28.990786 0.866700 -0.049699 -0.496348 0 0
  phy
    0 63.657273 -45.036481 28.990786 -0.657567 -0.018853 -0.753160 0 0
    0 63.657273 -45.036476 0.023544 -0.655821 0.075213 -0.751160 0 0
    0 63.657273 -46.697536 0.023544 0.399974 0.022936 -0.916240 0 0
  phy
    0 63.657273 -45.036481 28.990786 -0.657567 -0.018853 -0.753160 0 0
    0 63.657273 -46.697536 0.023544 0.399974 0.022936 -0.916240 0 0
    0 63.657273 -46.697541 28.990786 0.866700 -0.049699 -0.496348 0 0
  phy
    0 63.700920 -45.405786 24.009830 0.016242 0.737414 -0.675246 0 0
    0 63.700920 -45.405786 25.008689 0.004061 -0.737507 -0.675328 0 0
    0 63.700911 45.295151 24.009835 -0.004061 0.737507 -0.675328 0 0
  phy
    0 63.700911 45.295151 24.009835 -0.004061 0.737507 -0.675328 0 0
    0 63.700920 -45.405786 25.008689 0.004061 -0.737507 -0.675328 0 0
    0 63.700911 45.295151 25.008694 -0.016242 -0.737417 -0.675243 0 0
  phy
    0 63.700911 45.295151 25.008694 -0.016242 -0.737417 -0.675243 0 0
    0 63.700920 -45.405786 25.008689 0.004061 -0.737507 -0.675328 0 0
    0 64.791741 45.295151 25.008694 -0.005006 -0.909221 0.416283 0 0
  phy
    0 63.700920 -45.405786 25.008689 0.004061 -0.737507 -0.675328 0 0
    0 64.791741 -45.405786 25.008689 0.010555 -0.479217 0.877633 0 0
    0 64.791741 45.295151 25.008694 -0.005006 -0.909221 0.416283 0 0
  phy
    0 63.700920 -45.405786 24.009830 0.016242 0.737414 -0.675246 0 0
    0 64.791741 -45.405786 25.008689 0.010555 -0.479217 0.877633 0 0
    0 63.700920 -45.405786 25.008689 0.004061 -0.737507 -0.675328 0 0
  phy
    0 63.700920 -45.405786 24.009830 0.016242 0.737414 -0.675246 0 0
    0 64.791741 -45.405786 24.009830 0.005006 0.909221 0.416283 0 0
    0 64.791741 -45.405786 25.008689 0.010555 -0.479217 0.877633 0 0
  phy
    0 63.700920 -45.405786 24.009830 0.016242 0.737414 -0.675246 0 0
    0 63.700911 45.295151 24.009835 -0.004061 0.737507 -0.675328 0 0
    0 64.791741 -45.405786 24.009830 0.005006 0.909221 0.416283 0 0
  phy
    0 64.791741 -45.405786 24.009830 0.005006 0.909221 0.416283 0 0
    0 63.700911 45.295151 24.009835 -0.004061 0.737507 -0.675328 0 0
    0 64.791741 45.295151 24.009835 -0.010555 0.479220 0.877631 0 0
  phy
    0 63.700911 45.295151 24.009835 -0.004061 0.737507 -0.675328 0 0
    0 63.700911 45.295151 25.008694 -0.016242 -0.737417 -0.675243 0 0
    0 64.791741 45.295151 24.009835 -0.010555 0.479220 0.877631 0 0
  phy
    0 64.791741 45.295151 24.009835 -0.010555 0.479220 0.877631 0 0
    0 63.700911 45.295151 25.008694 -0.016242 -0.737417 -0.675243 0 0
    0 64.791741 45.295151 25.008694 -0.005006 -0.909221 0.416283 0 0
  phy
    0 64.791741 -45.405786 24.009830 0.005006 0.909221 0.416283 0 0
    0 64.791741 45.295151 24.009835 -0.010555 0.479220 0.877631 0 0
    0 64.791741 -45.405786 25.008689 0.010555 -0.479217 0.877633 0 0
  phy
    0 64.791741 45.295151 24.009835 -0.010555 0.479220 0.877631 0 0
    0 64.791741 45.295151 25.008694 -0.005006 -0.909221 0.416283 0 0
    0 64.791741 -45.405786 25.008689 0.010555 -0.479217 0.877633 0 0
  phy
    0 63.700911 45.295156 0.862202 -0.004061 0.737507 -0.675327 0 0
    0 63.700920 -45.405781 0.862198 0.016242 0.737415 -0.675245 0 0
    0 63.700920 -45.405781 1.861055 0.004061 -0.737507 -0.675327 0 0
  phy
    0 63.700911 45.295156 0.862202 -0.004061 0.737507 -0.675327 0 0
    0 63.700920 -45.405781 1.861055 0.004061 -0.737507 -0.675327 0 0
    0 63.700911 45.295156 1.861059 -0.016242 -0.737417 -0.675242 0 0
  phy
    0 63.700920 -45.405781 0.862198 0.016242 0.737415 -0.675245 0 0
    0 64.791741 -45.405781 1.861055 0.010555 -0.479218 0.877633 0 0
    0 63.700920 -45.405781 1.861055 0.004061 -0.737507 -0.675327 0 0
  phy
    0 63.700920 -45.405781 0.862198 0.016242 0.737415 -0.675245 0 0
    0 64.791741 -45.405781 0.862198 0.005006 0.909222 0.416282 0 0
    0 64.791741 -45.405781 1.861055 0.010555 -0.479218 0.877633 0 0
  phy
    0 63.700920 -45.405781 1.861055 0.004061 -0.737507 -0.675327 0 0
    0 64.791741 45.295156 1.861059 -0.005006 -0.909222 0.416282 0 0
    0 63.700911 45.295156 1.861059 -0.016242 -0.737417 -0.675242 0 0
  phy
    0 63.700920 -45.405781 1.861055 0.004061 -0.737507 -0.675327 0 0
    0 64.791741 -45.405781 1.861055 0.010555 -0.479218 0.877633 0 0
    0 64.791741 45.295156 1.861059 -0.005006 -0.909222 0.416282 0 0
  phy
    0 63.700920 -45.405781 0.862198 0.016242 0.737415 -0.675245 0 0
    0 63.700911 45.295156 0.862202 -0.004061 0.737507 -0.675327 0 0
    0 64.791741 -45.405781 0.862198 0.005006 0.909222 0.416282 0 0
  phy
    0 64.791741 -45.405781 0.862198 0.005006 0.909222 0.416282 0 0
    0 63.700911 45.295156 0.862202 -0.004061 0.737507 -0.675327 0 0
    0 64.791741 45.295156 0.862202 -0.010555 0.479221 0.877631 0 0
  phy
    0 63.700911 45.295156 0.862202 -0.004061 0.737507 -0.675327 0 0
    0 63.700911 45.295156 1.861059 -0.016242 -0.737417 -0.675242 0 0
    0 64.791741 45.295156 0.862202 -0.010555 0.479221 0.877631 0 0
  phy
    0 64.791741 45.295156 0.862202 -0.010555 0.479221 0.877631 0 0
    0 63.700911 45.295156 1.861059 -0.016242 -0.737417 -0.675242 0 0
    0 64.791741 45.295156 1.861059 -0.005006 -0.909222 0.416282 0 0
  phy
    0 64.791741 -45.405781 0.862198 0.005006 0.909222 0.416282 0 0
    0 64.791741 45.295156 0.862202 -0.010555 0.479221 0.877631 0 0
    0 64.791741 -45.405781 1.861055 0.010555 -0.479218 0.877633 0 0
  phy
    0 64.791741 45.295156 0.862202 -0.010555 0.479221 0.877631 0 0
    0 64.791741 45.295156 1.861059 -0.005006 -0.909222 0.416282 0 0
    0 64.791741 -45.405781 1.861055 0.010555 -0.479218 0.877633 0 0
  phy
    0 63.679143 -28.389458 0.467928 -0.399756 0.040220 -0.915739 0 0
    0 63.679143 -28.389458 25.254244 -0.867566 -0.021822 -0.496843 0 0
    0 64.767768 -28.389458 0.467928 -0.657594 0.016540 0.753191 0 0
  phy
    0 64.767768 -28.389458 0.467928 -0.657594 0.016540 0.753191 0 0
    0 63.679143 -28.389458 25.254244 -0.867566 -0.021822 -0.496843 0 0
    0 64.767768 -28.389458 25.254244 -0.656249 -0.066026 0.751650 0 0
  phy
    0 63.679143 -28.389458 25.254244 -0.867566 -0.021822 -0.496843 0 0
    0 63.679143 -28.389458 0.467928 -0.399756 0.040220 -0.915739 0 0
    0 63.679143 -29.636340 25.254244 0.399756 -0.040220 -0.915739 0 0
  phy
    0 63.679143 -29.636340 25.254244 0.399756 -0.040220 -0.915739 0 0
    0 63.679143 -28.389458 0.467928 -0.399756 0.040220 -0.915739 0 0
    0 63.679143 -29.636340 0.467928 0.867566 0.021822 -0.496843 0 0
  phy
    0 63.679143 -29.636340 25.254244 0.399756 -0.040220 -0.915739 0 0
    0 64.767768 -28.389458 25.254244 -0.656249 -0.066026 0.751650 0 0
    0 63.679143 -28.389458 25.254244 -0.867566 -0.021822 -0.496843 0 0
  phy
    0 63.679143 -29.636340 25.254244 0.399756 -0.040220 -0.915739 0 0
    0 64.767768 -29.636340 25.254244 0.657594 -0.016540 0.753191 0 0
    0 64.767768 -28.389458 25.254244 -0.656249 -0.066026 0.751650 0 0
  phy
    0 63.679143 -29.636340 0.467928 0.867566 0.021822 -0.496843 0 0
    0 63.679143 -28.389458 0.467928 -0.399756 0.040220 -0.915739 0 0
    0 64.767768 -29.636340 0.467928 0.656249 0.066026 0.751650 0 0
  phy
    0 64.767768 -29.636340 0.467928 0.656249 0.066026 0.751650 0 0
    0 63.679143 -28.389458 0.467928 -0.399756 0.040220 -0.915739 0 0
    0 64.767768 -28.389458 0.467928 -0.657594 0.016540 0.753191 0 0
  phy
    0 63.679143 -29.636340 0.467928 0.867566 0.021822 -0.496843 0 0
    0 64.767768 -29.636340 25.254244 0.657594 -0.016540 0.753191 0 0
    0 63.679143 -29.636340 25.254244 0.399756 -0.040220 -0.915739 0 0
  phy
    0 63.679143 -29.636340 0.467928 0.867566 0.021822 -0.496843 0 0
    0 64.767768 -29.636340 0.467928 0.656249 0.066026 0.751650 0 0
    0 64.767768 -29.636340 25.254244 0.657594 -0.016540 0.753191 0 0
  phy
    0 64.767768 -28.389458 25.254244 -0.656249 -0.066026 0.751650 0 0
    0 64.767768 -29.636340 25.254244 0.657594 -0.016540 0.753191 0 0
    0 64.767768 -28.389458 0.467928 -0.657594 0.016540 0.753191 0 0
  phy
    0 64.767768 -29.636340 25.254244 0.657594 -0.016540 0.753191 0 0
    0 64.767768 -29.636340 0.467928 0.656249 0.066026 0.751650 0 0
    0 64.767768 -28.389458 0.467928 -0.657594 0.016540 0.753191 0 0
  phy
    0 64.767768 28.691656 25.254246 -0.656250 -0.066025 0.751650 0 0
    0 64.767768 28.691656 0.467930 -0.657595 0.016540 0.753190 0 0
    0 63.679143 28.691656 25.254246 -0.867566 -0.021822 -0.496843 0 0
  phy
    0 63.679143 28.691656 25.254246 -0.867566 -0.021822 -0.496843 0 0
    0 64.767768 28.691656 0.467930 -0.657595 0.016540 0.753190 0 0
    0 63.679143 28.691656 0.467930 -0.399756 0.040220 -0.915739 0 0
  phy
    0 64.767768 28.691656 25.254246 -0.656250 -0.066025 0.751650 0 0
    0 64.767768 27.444776 25.254246 0.657595 -0.016540 0.753190 0 0
    0 64.767768 28.691656 0.467930 -0.657595 0.016540 0.753190 0 0
  phy
    0 64.767768 27.444776 25.254246 0.657595 -0.016540 0.753190 0 0
    0 64.767768 27.444776 0.467930 0.656250 0.066025 0.751650 0 0
    0 64.767768 28.691656 0.467930 -0.657595 0.016540 0.753190 0 0
  phy
    0 64.767768 28.691656 25.254246 -0.656250 -0.066025 0.751650 0 0
    0 63.679143 27.444776 25.254246 0.399756 -0.040220 -0.915739 0 0
    0 64.767768 27.444776 25.254246 0.657595 -0.016540 0.753190 0 0
  phy
    0 64.767768 28.691656 25.254246 -0.656250 -0.066025 0.751650 0 0
    0 63.679143 28.691656 25.254246 -0.867566 -0.021822 -0.496843 0 0
    0 63.679143 27.444776 25.254246 0.399756 -0.040220 -0.915739 0 0
  phy
    0 64.767768 28.691656 0.467930 -0.657595 0.016540 0.753190 0 0
    0 64.767768 27.444776 0.467930 0.656250 0.066025 0.751650 0 0
    0 63.679143 28.691656 0.467930 -0.399756 0.040220 -0.915739 0 0
  phy
    0 63.679143 28.691656 0.467930 -0.399756 0.040220 -0.915739 0 0
    0 64.767768 27.444776 0.467930 0.656250 0.066025 0.751650 0 0
    0 63.679143 27.444776 0.467930 0.867566 0.021822 -0.496843 0 0
  phy
    0 64.767768 27.444776 25.254246 0.657595 -0.016540 0.753190 0 0
    0 63.679143 27.444776 0.467930 0.867566 0.021822 -0.496843 0 0
    0 64.767768 27.444776 0.467930 0.656250 0.066025 0.751650 0 0
  phy
    0 64.767768 27.444776 25.254246 0.657595 -0.016540 0.753190 0 0
    0 63.679143 27.444776 25.254246 0.399756 -0.040220 -0.915739 0 0
    0 63.679143 27.444776 0.467930 0.867566 0.021822 -0.496843 0 0
  phy
    0 63.679143 28.691656 25.254246 -0.867566 -0.021822 -0.496843 0 0
    0 63.679143 28.691656 0.467930 -0.399756 0.040220 -0.915739 0 0
    0 63.679143 27.444776 25.254246 0.399756 -0.040220 -0.915739 0 0
  phy
    0 63.679143 27.444776 25.254246 0.399756 -0.040220 -0.915739 0 0
    0 63.679143 28.691656 0.467930 -0.399756 0.040220 -0.915739 0 0
    0 63.679143 27.444776 0.467930 0.867566 0.021822 -0.496843 0 0
  phy
    0 65.107505 46.810344 28.990789 -0.657219 -0.037687 0.752757 0 0
    0 65.107505 45.149289 0.023548 0.399976 0.022936 0.916239 0 0
    0 65.107505 46.810348 0.023548 -0.655823 0.075213 0.751158 0 0
  phy
    0 65.107505 46.810344 28.990789 -0.657219 -0.037687 0.752757 0 0
    0 65.107505 45.149284 28.990789 0.867505 -0.024872 0.496806 0 0
    0 65.107505 45.149289 0.023548 0.399976 0.022936 0.916239 0 0
  phy
    0 63.657263 46.810344 28.990789 -0.399976 -0.022936 -0.916239 0 0
    0 65.107505 46.810344 28.990789 -0.657219 -0.037687 0.752757 0 0
    0 63.657263 46.810348 0.023548 -0.867505 0.024872 -0.496806 0 0
  phy
    0 63.657263 46.810348 0.023548 -0.867505 0.024872 -0.496806 0 0
    0 65.107505 46.810344 28.990789 -0.657219 -0.037687 0.752757 0 0
    0 65.107505 46.810348 0.023548 -0.655823 0.075213 0.751158 0 0
  phy
    0 65.107505 46.810348 0.023548 -0.655823 0.075213 0.751158 0 0
    0 65.107505 45.149289 0.023548 0.399976 0.022936 0.916239 0 0
    0 63.657263 45.149289 0.023548 0.657219 0.037687 -0.752757 0 0
  phy
    0 65.107505 46.810348 0.023548 -0.655823 0.075213 0.751158 0 0
    0 63.657263 45.149289 0.023548 0.657219 0.037687 -0.752757 0 0
    0 63.657263 46.810348 0.023548 -0.867505 0.024872 -0.496806 0 0
  phy
    0 65.107505 46.810344 28.990789 -0.657219 -0.037687 0.752757 0 0
    0 63.657263 45.149284 28.990789 0.655823 -0.075213 -0.751158 0 0
    0 65.107505 45.149284 28.990789 0.867505 -0.024872 0.496806 0 0
  phy
    0 65.107505 46.810344 28.990789 -0.657219 -0.037687 0.752757 0 0
    0 63.657263 46.810344 28.990789 -0.399976 -0.022936 -0.916239 0 0
    0 63.657263 45.149284 28.990789 0.655823 -0.075213 -0.751158 0 0
  phy
    0 63.657263 45.149289 0.023548 0.657219 0.037687 -0.752757 0 0
    0 65.107505 45.149284 28.990789 0.867505 -0.024872 0.496806 0 0
    0 63.657263 45.149284 28.990789 0.655823 -0.075213 -0.751158 0 0
  phy
    0 63.657263 45.149289 0.023548 0.657219 0.037687 -0.752757 0 0
    0 65.107505 45.149289 0.023548 0.399976 0.022936 0.916239 0 0
    0 65.107505 45.149284 28.990789 0.867505 -0.024872 0.496806 0 0
  phy
    0 63.657263 46.810344 28.990789 -0.399976 -0.022936 -0.916239 0 0
    0 63.657263 46.810348 0.023548 -0.867505 0.024872 -0.496806 0 0
    0 63.657263 45.149289 0.023548 0.657219 0.037687 -0.752757 0 0
  phy
    0 63.657263 46.810344 28.990789 -0.399976 -0.022936 -0.916239 0 0
    0 63.657263 45.149289 0.023548 0.657219 0.037687 -0.752757 0 0
    0 63.657263 45.149284 28.990789 0.655823 -0.075213 -0.751158 0 0
end
