version 1
nodes
0 "polySurface21" -1
end
skeleton
time 0
0  0.000000 0.000000 0.000000  0.000000 -0.000000 0.000000
end
triangles
  phy
0  -92.732018 29.488342 41.383701  0.352342 -0.760478 -0.545461  0.000000 0.000000 1 0 1.000000
0  -85.014610 26.036324 38.482597  0.027768 -0.152744 -0.987876  0.000000 0.000000 1 0 1.000000
0  -59.506687 26.666855 40.517612  0.051158 0.078954 -0.995565  0.000000 0.000000 1 0 1.000000
  phy
0  -59.506687 26.666855 40.517612  0.051158 0.078954 -0.995565  0.000000 0.000000 1 0 1.000000
0  -39.366489 31.316837 43.848602  0.231745 0.471111 -0.851087  0.000000 0.000000 1 0 1.000000
0  -92.732018 29.488342 41.383701  0.352342 -0.760478 -0.545461  0.000000 0.000000 1 0 1.000000
  phy
0  -92.732018 29.488342 41.383701  0.352342 -0.760478 -0.545461  0.000000 0.000000 1 0 1.000000
0  -94.063026 36.369953 -41.248596  -0.360795 -0.552655 0.751265  0.000000 0.000000 1 0 1.000000
0  -92.732018 29.488356 -42.034355  -0.330430 -0.568589 -0.753341  0.000000 0.000000 1 0 1.000000
  phy
0  -94.063026 36.369953 -41.248596  -0.360795 -0.552655 0.751265  0.000000 0.000000 1 0 1.000000
0  -92.732018 29.488342 41.383701  0.352342 -0.760478 -0.545461  0.000000 0.000000 1 0 1.000000
0  -94.063026 36.369942 40.597939  0.405182 -0.415162 0.814536  0.000000 0.000000 1 0 1.000000
  phy
0  -92.732018 29.488342 41.383701  0.352342 -0.760478 -0.545461  0.000000 0.000000 1 0 1.000000
0  -39.366489 31.316837 43.848602  0.231745 0.471111 -0.851087  0.000000 0.000000 1 0 1.000000
0  -94.063026 36.369942 40.597939  0.405182 -0.415162 0.814536  0.000000 0.000000 1 0 1.000000
  phy
0  -92.732018 29.488342 41.383701  0.352342 -0.760478 -0.545461  0.000000 0.000000 1 0 1.000000
0  -92.732018 29.488356 -42.034355  -0.330430 -0.568589 -0.753341  0.000000 0.000000 1 0 1.000000
0  -85.014610 26.036324 38.482597  0.027768 -0.152744 -0.987876  0.000000 0.000000 1 0 1.000000
  phy
0  -92.732018 29.488356 -42.034355  -0.330430 -0.568589 -0.753341  0.000000 0.000000 1 0 1.000000
0  -94.063026 36.369953 -41.248596  -0.360795 -0.552655 0.751265  0.000000 0.000000 1 0 1.000000
0  -39.366493 31.316849 -44.619354  -0.403148 0.418993 -0.813582  0.000000 0.000000 1 0 1.000000
  phy
0  -94.063026 36.369953 -41.248596  -0.360795 -0.552655 0.751265  0.000000 0.000000 1 0 1.000000
0  -35.652092 39.444759 -43.096558  -0.226724 0.342883 0.911607  0.000000 0.000000 1 0 1.000000
0  -39.366493 31.316849 -44.619354  -0.403148 0.418993 -0.813582  0.000000 0.000000 1 0 1.000000
  phy
0  -94.063026 36.369953 -41.248596  -0.360795 -0.552655 0.751265  0.000000 0.000000 1 0 1.000000
0  -92.988190 42.141151 0.257194  -0.006590 -0.100407 0.994925  0.000000 0.000000 1 0 1.000000
0  -35.652092 39.444759 -43.096558  -0.226724 0.342883 0.911607  0.000000 0.000000 1 0 1.000000
  phy
0  -94.063026 36.369953 -41.248596  -0.360795 -0.552655 0.751265  0.000000 0.000000 1 0 1.000000
0  -94.063026 36.369942 40.597939  0.405182 -0.415162 0.814536  0.000000 0.000000 1 0 1.000000
0  -92.988190 42.141151 0.257194  -0.006590 -0.100407 0.994925  0.000000 0.000000 1 0 1.000000
  phy
0  -59.506687 26.666855 40.517612  0.051158 0.078954 -0.995565  0.000000 0.000000 1 0 1.000000
0  -85.014603 26.036333 -39.133240  -0.019556 -0.036433 -0.999145  0.000000 0.000000 1 0 1.000000
0  -59.506687 26.666864 -41.168266  -0.052344 0.143302 -0.988294  0.000000 0.000000 1 0 1.000000
  phy
0  -85.014603 26.036333 -39.133240  -0.019556 -0.036433 -0.999145  0.000000 0.000000 1 0 1.000000
0  -59.506687 26.666855 40.517612  0.051158 0.078954 -0.995565  0.000000 0.000000 1 0 1.000000
0  -85.014610 26.036324 38.482597  0.027768 -0.152744 -0.987876  0.000000 0.000000 1 0 1.000000
  phy
0  -85.014603 26.036333 -39.133240  -0.019556 -0.036433 -0.999145  0.000000 0.000000 1 0 1.000000
0  -92.732018 29.488356 -42.034355  -0.330430 -0.568589 -0.753341  0.000000 0.000000 1 0 1.000000
0  -59.506687 26.666864 -41.168266  -0.052344 0.143302 -0.988294  0.000000 0.000000 1 0 1.000000
  phy
0  -92.732018 29.488356 -42.034355  -0.330430 -0.568589 -0.753341  0.000000 0.000000 1 0 1.000000
0  -85.014603 26.036333 -39.133240  -0.019556 -0.036433 -0.999145  0.000000 0.000000 1 0 1.000000
0  -85.014610 26.036324 38.482597  0.027768 -0.152744 -0.987876  0.000000 0.000000 1 0 1.000000
  phy
0  -59.506687 26.666864 -41.168266  -0.052344 0.143302 -0.988294  0.000000 0.000000 1 0 1.000000
0  -92.732018 29.488356 -42.034355  -0.330430 -0.568589 -0.753341  0.000000 0.000000 1 0 1.000000
0  -39.366493 31.316849 -44.619354  -0.403148 0.418993 -0.813582  0.000000 0.000000 1 0 1.000000
  phy
0  -59.506687 26.666855 40.517612  0.051158 0.078954 -0.995565  0.000000 0.000000 1 0 1.000000
0  -59.506687 26.666864 -41.168266  -0.052344 0.143302 -0.988294  0.000000 0.000000 1 0 1.000000
0  -39.366489 31.316837 43.848602  0.231745 0.471111 -0.851087  0.000000 0.000000 1 0 1.000000
  phy
0  -35.652092 40.551491 42.445892  0.225516 0.181901 0.957107  0.000000 0.000000 1 0 1.000000
0  -92.988190 42.141151 0.257194  -0.006590 -0.100407 0.994925  0.000000 0.000000 1 0 1.000000
0  -94.063026 36.369942 40.597939  0.405182 -0.415162 0.814536  0.000000 0.000000 1 0 1.000000
  phy
0  -35.652092 40.551491 42.445892  0.225516 0.181901 0.957107  0.000000 0.000000 1 0 1.000000
0  -35.837898 44.424736 -0.325328  -0.012872 0.037149 0.999227  0.000000 0.000000 1 0 1.000000
0  -92.988190 42.141151 0.257194  -0.006590 -0.100407 0.994925  0.000000 0.000000 1 0 1.000000
  phy
0  -94.063026 36.369942 40.597939  0.405182 -0.415162 0.814536  0.000000 0.000000 1 0 1.000000
0  -39.366489 31.316837 43.848602  0.231745 0.471111 -0.851087  0.000000 0.000000 1 0 1.000000
0  -35.652092 40.551491 42.445892  0.225516 0.181901 0.957107  0.000000 0.000000 1 0 1.000000
  phy
0  -35.652092 39.444759 -43.096558  -0.226724 0.342883 0.911607  0.000000 0.000000 1 0 1.000000
0  -35.837898 44.424736 -0.325328  -0.012872 0.037149 0.999227  0.000000 0.000000 1 0 1.000000
0  -35.652092 40.551491 42.445892  0.225516 0.181901 0.957107  0.000000 0.000000 1 0 1.000000
  phy
0  -35.652092 40.551491 42.445892  0.225516 0.181901 0.957107  0.000000 0.000000 1 0 1.000000
0  -39.366489 31.316837 43.848602  0.231745 0.471111 -0.851087  0.000000 0.000000 1 0 1.000000
0  -35.652092 39.444759 -43.096558  -0.226724 0.342883 0.911607  0.000000 0.000000 1 0 1.000000
  phy
0  -39.366489 31.316837 43.848602  0.231745 0.471111 -0.851087  0.000000 0.000000 1 0 1.000000
0  -59.506687 26.666864 -41.168266  -0.052344 0.143302 -0.988294  0.000000 0.000000 1 0 1.000000
0  -39.366493 31.316849 -44.619354  -0.403148 0.418993 -0.813582  0.000000 0.000000 1 0 1.000000
  phy
0  -92.988190 42.141151 0.257194  -0.006590 -0.100407 0.994925  0.000000 0.000000 1 0 1.000000
0  -35.837898 44.424736 -0.325328  -0.012872 0.037149 0.999227  0.000000 0.000000 1 0 1.000000
0  -35.652092 39.444759 -43.096558  -0.226724 0.342883 0.911607  0.000000 0.000000 1 0 1.000000
  phy
0  -39.366489 31.316837 43.848602  0.231745 0.471111 -0.851087  0.000000 0.000000 1 0 1.000000
0  -39.366493 31.316849 -44.619354  -0.403148 0.418993 -0.813582  0.000000 0.000000 1 0 1.000000
0  -35.652092 39.444759 -43.096558  -0.226724 0.342883 0.911607  0.000000 0.000000 1 0 1.000000
  phy
0  -89.033333 12.740328 -24.999994  -0.175918 -0.055141 -0.982859  0.000000 0.000000 1 0 1.000000
0  -89.033333 12.740323 25.000006  0.314529 -0.179697 -0.932084  0.000000 0.000000 1 0 1.000000
0  -90.000000 29.807751 -24.999992  -0.565771 -0.164067 0.808075  0.000000 0.000000 1 0 1.000000
  phy
0  -90.000000 29.807751 -24.999992  -0.565771 -0.164067 0.808075  0.000000 0.000000 1 0 1.000000
0  -89.033333 12.740323 25.000006  0.314529 -0.179697 -0.932084  0.000000 0.000000 1 0 1.000000
0  -90.000000 29.807743 25.020414  0.342803 -0.039599 0.938572  0.000000 0.000000 1 0 1.000000
  phy
0  80.284706 12.178999 19.999996  0.342397 0.099445 -0.934278  0.000000 0.000000 1 0 1.000000
0  -89.033333 12.740323 25.000006  0.314529 -0.179697 -0.932084  0.000000 0.000000 1 0 1.000000
0  -89.033333 12.740328 -24.999994  -0.175918 -0.055141 -0.982859  0.000000 0.000000 1 0 1.000000
  phy
0  80.284706 12.178999 19.999996  0.342397 0.099445 -0.934278  0.000000 0.000000 1 0 1.000000
0  -90.000000 29.807743 25.020414  0.342803 -0.039599 0.938572  0.000000 0.000000 1 0 1.000000
0  -89.033333 12.740323 25.000006  0.314529 -0.179697 -0.932084  0.000000 0.000000 1 0 1.000000
  phy
0  80.000000 29.807743 20.000000  0.362054 0.106509 0.926052  0.000000 0.000000 1 0 1.000000
0  80.284706 12.178999 19.999996  0.342397 0.099445 -0.934278  0.000000 0.000000 1 0 1.000000
0  80.000000 29.807751 -24.999998  -0.181271 0.095964 0.978740  0.000000 0.000000 1 0 1.000000
  phy
0  80.284706 12.178999 19.999996  0.342397 0.099445 -0.934278  0.000000 0.000000 1 0 1.000000
0  80.284706 12.179004 -25.000002  -0.610176 0.079602 -0.788257  0.000000 0.000000 1 0 1.000000
0  80.000000 29.807751 -24.999998  -0.181271 0.095964 0.978740  0.000000 0.000000 1 0 1.000000
  phy
0  80.284706 12.178999 19.999996  0.342397 0.099445 -0.934278  0.000000 0.000000 1 0 1.000000
0  -89.033333 12.740328 -24.999994  -0.175918 -0.055141 -0.982859  0.000000 0.000000 1 0 1.000000
0  80.284706 12.179004 -25.000002  -0.610176 0.079602 -0.788257  0.000000 0.000000 1 0 1.000000
  phy
0  80.000000 29.807743 20.000000  0.362054 0.106509 0.926052  0.000000 0.000000 1 0 1.000000
0  -90.000000 29.807743 25.020414  0.342803 -0.039599 0.938572  0.000000 0.000000 1 0 1.000000
0  80.284706 12.178999 19.999996  0.342397 0.099445 -0.934278  0.000000 0.000000 1 0 1.000000
  phy
0  -89.033333 12.740328 -24.999994  -0.175918 -0.055141 -0.982859  0.000000 0.000000 1 0 1.000000
0  -90.000000 29.807751 -24.999992  -0.565771 -0.164067 0.808075  0.000000 0.000000 1 0 1.000000
0  80.284706 12.179004 -25.000002  -0.610176 0.079602 -0.788257  0.000000 0.000000 1 0 1.000000
  phy
0  80.000000 29.807751 -24.999998  -0.181271 0.095964 0.978740  0.000000 0.000000 1 0 1.000000
0  -90.000000 29.807743 25.020414  0.342803 -0.039599 0.938572  0.000000 0.000000 1 0 1.000000
0  80.000000 29.807743 20.000000  0.362054 0.106509 0.926052  0.000000 0.000000 1 0 1.000000
  phy
0  -90.000000 29.807751 -24.999992  -0.565771 -0.164067 0.808075  0.000000 0.000000 1 0 1.000000
0  -90.000000 29.807743 25.020414  0.342803 -0.039599 0.938572  0.000000 0.000000 1 0 1.000000
0  80.000000 29.807751 -24.999998  -0.181271 0.095964 0.978740  0.000000 0.000000 1 0 1.000000
  phy
0  -90.000000 29.807751 -24.999992  -0.565771 -0.164067 0.808075  0.000000 0.000000 1 0 1.000000
0  80.000000 29.807751 -24.999998  -0.181271 0.095964 0.978740  0.000000 0.000000 1 0 1.000000
0  80.284706 12.179004 -25.000002  -0.610176 0.079602 -0.788257  0.000000 0.000000 1 0 1.000000
  phy
0  -107.782394 20.476456 -37.826759  -0.577388 -0.607445 -0.545559  0.000000 0.000000 1 0 1.000000
0  -107.782394 33.144367 -38.827003  -0.213191 -0.719721 0.660720  0.000000 0.000000 1 0 1.000000
0  -90.823418 37.245224 -41.248596  -0.456763 0.507366 0.730717  0.000000 0.000000 1 0 1.000000
  phy
0  -89.443283 13.046281 -39.133251  -0.217983 0.106840 -0.970087  0.000000 0.000000 1 0 1.000000
0  -107.782394 20.476456 -37.826759  -0.577388 -0.607445 -0.545559  0.000000 0.000000 1 0 1.000000
0  -90.823418 37.245224 -41.248596  -0.456763 0.507366 0.730717  0.000000 0.000000 1 0 1.000000
  phy
0  -107.782394 33.144367 -38.827003  -0.213191 -0.719721 0.660720  0.000000 0.000000 1 0 1.000000
0  -107.782394 20.476456 -37.826759  -0.577388 -0.607445 -0.545559  0.000000 0.000000 1 0 1.000000
0  -112.238937 17.721458 -0.264522  -0.014207 -0.648938 -0.760708  0.000000 0.000000 1 0 1.000000
  phy
0  -107.782394 20.476456 -37.826759  -0.577388 -0.607445 -0.545559  0.000000 0.000000 1 0 1.000000
0  -89.443283 13.046281 -39.133251  -0.217983 0.106840 -0.970087  0.000000 0.000000 1 0 1.000000
0  -112.238937 17.721458 -0.264522  -0.014207 -0.648938 -0.760708  0.000000 0.000000 1 0 1.000000
  phy
0  -107.782394 33.151455 38.176922  0.327416 -0.696871 0.638099  0.000000 0.000000 1 0 1.000000
0  -112.398621 34.641136 -0.262337  0.033095 -0.737050 0.675028  0.000000 0.000000 1 0 1.000000
0  -107.782394 20.476450 37.176102  0.463464 -0.790421 -0.400544  0.000000 0.000000 1 0 1.000000
  phy
0  -107.782394 33.151455 38.176922  0.327416 -0.696871 0.638099  0.000000 0.000000 1 0 1.000000
0  -90.823418 37.245216 40.597942  0.281739 0.529949 0.799860  0.000000 0.000000 1 0 1.000000
0  -112.398621 34.641136 -0.262337  0.033095 -0.737050 0.675028  0.000000 0.000000 1 0 1.000000
  phy
0  -107.782394 20.476450 37.176102  0.463464 -0.790421 -0.400544  0.000000 0.000000 1 0 1.000000
0  -90.823418 37.245216 40.597942  0.281739 0.529949 0.799860  0.000000 0.000000 1 0 1.000000
0  -107.782394 33.151455 38.176922  0.327416 -0.696871 0.638099  0.000000 0.000000 1 0 1.000000
  phy
0  -107.782394 33.144367 -38.827003  -0.213191 -0.719721 0.660720  0.000000 0.000000 1 0 1.000000
0  -112.398621 34.641136 -0.262337  0.033095 -0.737050 0.675028  0.000000 0.000000 1 0 1.000000
0  -93.617439 39.363907 -0.325326  -0.018075 -0.153754 0.987944  0.000000 0.000000 1 0 1.000000
  phy
0  -93.617439 39.363907 -0.325326  -0.018075 -0.153754 0.987944  0.000000 0.000000 1 0 1.000000
0  -90.823418 37.245224 -41.248596  -0.456763 0.507366 0.730717  0.000000 0.000000 1 0 1.000000
0  -107.782394 33.144367 -38.827003  -0.213191 -0.719721 0.660720  0.000000 0.000000 1 0 1.000000
  phy
0  -112.398621 34.641136 -0.262337  0.033095 -0.737050 0.675028  0.000000 0.000000 1 0 1.000000
0  -107.782394 33.144367 -38.827003  -0.213191 -0.719721 0.660720  0.000000 0.000000 1 0 1.000000
0  -112.238937 17.721458 -0.264522  -0.014207 -0.648938 -0.760708  0.000000 0.000000 1 0 1.000000
  phy
0  -112.398621 34.641136 -0.262337  0.033095 -0.737050 0.675028  0.000000 0.000000 1 0 1.000000
0  -90.823418 37.245216 40.597942  0.281739 0.529949 0.799860  0.000000 0.000000 1 0 1.000000
0  -93.617439 39.363907 -0.325326  -0.018075 -0.153754 0.987944  0.000000 0.000000 1 0 1.000000
  phy
0  -90.823418 37.245216 40.597942  0.281739 0.529949 0.799860  0.000000 0.000000 1 0 1.000000
0  -90.823418 37.245224 -41.248596  -0.456763 0.507366 0.730717  0.000000 0.000000 1 0 1.000000
0  -93.617439 39.363907 -0.325326  -0.018075 -0.153754 0.987944  0.000000 0.000000 1 0 1.000000
  phy
0  -85.314323 25.636677 -39.133247  -0.030402 0.997760 0.059594  0.000000 0.000000 1 0 1.000000
0  -89.443283 13.046281 -39.133251  -0.217983 0.106840 -0.970087  0.000000 0.000000 1 0 1.000000
0  -90.823418 37.245224 -41.248596  -0.456763 0.507366 0.730717  0.000000 0.000000 1 0 1.000000
  phy
0  -85.314323 25.636677 -39.133247  -0.030402 0.997760 0.059594  0.000000 0.000000 1 0 1.000000
0  -89.443283 13.046271 38.482594  0.183775 0.373277 -0.909335  0.000000 0.000000 1 0 1.000000
0  -89.443283 13.046281 -39.133251  -0.217983 0.106840 -0.970087  0.000000 0.000000 1 0 1.000000
  phy
0  -112.238937 17.721458 -0.264522  -0.014207 -0.648938 -0.760708  0.000000 0.000000 1 0 1.000000
0  -89.443283 13.046281 -39.133251  -0.217983 0.106840 -0.970087  0.000000 0.000000 1 0 1.000000
0  -89.443283 13.046271 38.482594  0.183775 0.373277 -0.909335  0.000000 0.000000 1 0 1.000000
  phy
0  -85.314323 25.636665 38.482597  0.061291 0.996792 0.051464  0.000000 0.000000 1 0 1.000000
0  -89.443283 13.046271 38.482594  0.183775 0.373277 -0.909335  0.000000 0.000000 1 0 1.000000
0  -85.314323 25.636677 -39.133247  -0.030402 0.997760 0.059594  0.000000 0.000000 1 0 1.000000
  phy
0  -85.314323 25.636677 -39.133247  -0.030402 0.997760 0.059594  0.000000 0.000000 1 0 1.000000
0  -90.823418 37.245216 40.597942  0.281739 0.529949 0.799860  0.000000 0.000000 1 0 1.000000
0  -85.314323 25.636665 38.482597  0.061291 0.996792 0.051464  0.000000 0.000000 1 0 1.000000
  phy
0  -85.314323 25.636665 38.482597  0.061291 0.996792 0.051464  0.000000 0.000000 1 0 1.000000
0  -90.823418 37.245216 40.597942  0.281739 0.529949 0.799860  0.000000 0.000000 1 0 1.000000
0  -89.443283 13.046271 38.482594  0.183775 0.373277 -0.909335  0.000000 0.000000 1 0 1.000000
  phy
0  -107.782394 20.476450 37.176102  0.463464 -0.790421 -0.400544  0.000000 0.000000 1 0 1.000000
0  -112.398621 34.641136 -0.262337  0.033095 -0.737050 0.675028  0.000000 0.000000 1 0 1.000000
0  -112.238937 17.721458 -0.264522  -0.014207 -0.648938 -0.760708  0.000000 0.000000 1 0 1.000000
  phy
0  -85.314323 25.636677 -39.133247  -0.030402 0.997760 0.059594  0.000000 0.000000 1 0 1.000000
0  -90.823418 37.245224 -41.248596  -0.456763 0.507366 0.730717  0.000000 0.000000 1 0 1.000000
0  -90.823418 37.245216 40.597942  0.281739 0.529949 0.799860  0.000000 0.000000 1 0 1.000000
  phy
0  -107.782394 20.476450 37.176102  0.463464 -0.790421 -0.400544  0.000000 0.000000 1 0 1.000000
0  -112.238937 17.721458 -0.264522  -0.014207 -0.648938 -0.760708  0.000000 0.000000 1 0 1.000000
0  -89.443283 13.046271 38.482594  0.183775 0.373277 -0.909335  0.000000 0.000000 1 0 1.000000
  phy
0  -89.443283 13.046271 38.482594  0.183775 0.373277 -0.909335  0.000000 0.000000 1 0 1.000000
0  -90.823418 37.245216 40.597942  0.281739 0.529949 0.799860  0.000000 0.000000 1 0 1.000000
0  -107.782394 20.476450 37.176102  0.463464 -0.790421 -0.400544  0.000000 0.000000 1 0 1.000000
  phy
0  -36.411594 12.407834 -41.168270  -0.197619 0.842141 -0.501742  0.000000 0.000000 1 0 1.000000
0  -36.411594 12.407825 40.517609  0.157476 0.984281 -0.079949  0.000000 0.000000 1 0 1.000000
0  -46.077080 8.261786 40.517609  0.128508 -0.302831 -0.944341  0.000000 0.000000 1 0 1.000000
  phy
0  -36.411594 12.407834 -41.168270  -0.197619 0.842141 -0.501742  0.000000 0.000000 1 0 1.000000
0  -46.077080 8.261786 40.517609  0.128508 -0.302831 -0.944341  0.000000 0.000000 1 0 1.000000
0  -46.077080 8.261796 -41.168270  -0.097407 -0.659424 -0.745434  0.000000 0.000000 1 0 1.000000
  phy
0  -39.763744 31.878777 -43.691090  -0.064150 0.688476 0.722417  0.000000 0.000000 1 0 1.000000
0  -36.411594 12.407834 -41.168270  -0.197619 0.842141 -0.501742  0.000000 0.000000 1 0 1.000000
0  -54.392414 30.784866 -44.619354  -0.378524 -0.254015 0.890054  0.000000 0.000000 1 0 1.000000
  phy
0  -36.411594 12.407834 -41.168270  -0.197619 0.842141 -0.501742  0.000000 0.000000 1 0 1.000000
0  -46.077080 8.261796 -41.168270  -0.097407 -0.659424 -0.745434  0.000000 0.000000 1 0 1.000000
0  -54.392414 30.784866 -44.619354  -0.378524 -0.254015 0.890054  0.000000 0.000000 1 0 1.000000
  phy
0  -36.411594 12.407834 -41.168270  -0.197619 0.842141 -0.501742  0.000000 0.000000 1 0 1.000000
0  -39.763744 31.878777 -43.691090  -0.064150 0.688476 0.722417  0.000000 0.000000 1 0 1.000000
0  -36.411594 12.407825 40.517609  0.157476 0.984281 -0.079949  0.000000 0.000000 1 0 1.000000
  phy
0  -46.077080 8.261786 40.517609  0.128508 -0.302831 -0.944341  0.000000 0.000000 1 0 1.000000
0  -59.794346 26.871872 40.517612  0.030039 -0.862974 -0.504355  0.000000 0.000000 1 0 1.000000
0  -46.077080 8.261796 -41.168270  -0.097407 -0.659424 -0.745434  0.000000 0.000000 1 0 1.000000
  phy
0  -46.077080 8.261796 -41.168270  -0.097407 -0.659424 -0.745434  0.000000 0.000000 1 0 1.000000
0  -59.794346 26.871872 40.517612  0.030039 -0.862974 -0.504355  0.000000 0.000000 1 0 1.000000
0  -59.794346 26.871885 -41.168266  -0.070335 -0.981532 -0.177900  0.000000 0.000000 1 0 1.000000
  phy
0  -59.794346 26.871885 -41.168266  -0.070335 -0.981532 -0.177900  0.000000 0.000000 1 0 1.000000
0  -59.794346 26.871872 40.517612  0.030039 -0.862974 -0.504355  0.000000 0.000000 1 0 1.000000
0  -56.250389 30.724621 43.848602  0.195604 -0.249573 0.948395  0.000000 0.000000 1 0 1.000000
  phy
0  -46.077080 8.261786 40.517609  0.128508 -0.302831 -0.944341  0.000000 0.000000 1 0 1.000000
0  -56.250389 30.724621 43.848602  0.195604 -0.249573 0.948395  0.000000 0.000000 1 0 1.000000
0  -59.794346 26.871872 40.517612  0.030039 -0.862974 -0.504355  0.000000 0.000000 1 0 1.000000
  phy
0  -36.411594 12.407825 40.517609  0.157476 0.984281 -0.079949  0.000000 0.000000 1 0 1.000000
0  -56.250389 30.724621 43.848602  0.195604 -0.249573 0.948395  0.000000 0.000000 1 0 1.000000
0  -46.077080 8.261786 40.517609  0.128508 -0.302831 -0.944341  0.000000 0.000000 1 0 1.000000
  phy
0  -39.763744 31.878765 43.040440  0.138361 0.684287 0.715966  0.000000 0.000000 1 0 1.000000
0  -56.250389 30.724621 43.848602  0.195604 -0.249573 0.948395  0.000000 0.000000 1 0 1.000000
0  -36.411594 12.407825 40.517609  0.157476 0.984281 -0.079949  0.000000 0.000000 1 0 1.000000
  phy
0  -39.763744 31.878777 -43.691090  -0.064150 0.688476 0.722417  0.000000 0.000000 1 0 1.000000
0  -39.763744 31.878765 43.040440  0.138361 0.684287 0.715966  0.000000 0.000000 1 0 1.000000
0  -36.411594 12.407825 40.517609  0.157476 0.984281 -0.079949  0.000000 0.000000 1 0 1.000000
  phy
0  -39.763744 31.878777 -43.691090  -0.064150 0.688476 0.722417  0.000000 0.000000 1 0 1.000000
0  -56.250389 30.724621 43.848602  0.195604 -0.249573 0.948395  0.000000 0.000000 1 0 1.000000
0  -39.763744 31.878765 43.040440  0.138361 0.684287 0.715966  0.000000 0.000000 1 0 1.000000
  phy
0  -39.763744 31.878777 -43.691090  -0.064150 0.688476 0.722417  0.000000 0.000000 1 0 1.000000
0  -54.392414 30.784866 -44.619354  -0.378524 -0.254015 0.890054  0.000000 0.000000 1 0 1.000000
0  -56.250389 30.724621 43.848602  0.195604 -0.249573 0.948395  0.000000 0.000000 1 0 1.000000
  phy
0  -46.077080 8.261796 -41.168270  -0.097407 -0.659424 -0.745434  0.000000 0.000000 1 0 1.000000
0  -59.794346 26.871885 -41.168266  -0.070335 -0.981532 -0.177900  0.000000 0.000000 1 0 1.000000
0  -54.392414 30.784866 -44.619354  -0.378524 -0.254015 0.890054  0.000000 0.000000 1 0 1.000000
  phy
0  -56.250389 30.724621 43.848602  0.195604 -0.249573 0.948395  0.000000 0.000000 1 0 1.000000
0  -54.392414 30.784866 -44.619354  -0.378524 -0.254015 0.890054  0.000000 0.000000 1 0 1.000000
0  -59.794346 26.871885 -41.168266  -0.070335 -0.981532 -0.177900  0.000000 0.000000 1 0 1.000000
  phy
0  41.016735 8.314076 -41.170864  -0.060524 0.117077 -0.991277  0.000000 0.000000 1 0 1.000000
0  -45.170376 8.261796 -41.170860  -0.041991 -0.023557 -0.998840  0.000000 0.000000 1 0 1.000000
0  28.382896 11.887896 -42.532639  -0.090023 0.052566 0.994551  0.000000 0.000000 1 0 1.000000
  phy
0  -45.170376 8.261796 -41.170860  -0.041991 -0.023557 -0.998840  0.000000 0.000000 1 0 1.000000
0  -35.745472 12.248066 -42.532635  -0.021016 -0.048782 0.998588  0.000000 0.000000 1 0 1.000000
0  28.382896 11.887896 -42.532639  -0.090023 0.052566 0.994551  0.000000 0.000000 1 0 1.000000
  phy
0  -45.170376 8.261796 -41.170860  -0.041991 -0.023557 -0.998840  0.000000 0.000000 1 0 1.000000
0  41.016735 8.314076 -41.170864  -0.060524 0.117077 -0.991277  0.000000 0.000000 1 0 1.000000
0  41.016739 8.314066 40.462532  0.023392 0.022737 -0.999467  0.000000 0.000000 1 0 1.000000
  phy
0  -45.170376 8.261796 -41.170860  -0.041991 -0.023557 -0.998840  0.000000 0.000000 1 0 1.000000
0  41.016739 8.314066 40.462532  0.023392 0.022737 -0.999467  0.000000 0.000000 1 0 1.000000
0  -45.170376 8.261786 40.462532  0.098888 -0.114596 -0.988478  0.000000 0.000000 1 0 1.000000
  phy
0  -45.170376 8.261796 -41.170860  -0.041991 -0.023557 -0.998840  0.000000 0.000000 1 0 1.000000
0  -45.170376 8.261786 40.462532  0.098888 -0.114596 -0.988478  0.000000 0.000000 1 0 1.000000
0  -35.745472 12.248066 -42.532635  -0.021016 -0.048782 0.998588  0.000000 0.000000 1 0 1.000000
  phy
0  28.382898 11.887886 41.824303  0.044561 0.051281 0.997690  0.000000 0.000000 1 0 1.000000
0  41.016739 8.314066 40.462532  0.023392 0.022737 -0.999467  0.000000 0.000000 1 0 1.000000
0  41.016735 8.314076 -41.170864  -0.060524 0.117077 -0.991277  0.000000 0.000000 1 0 1.000000
  phy
0  41.016735 8.314076 -41.170864  -0.060524 0.117077 -0.991277  0.000000 0.000000 1 0 1.000000
0  28.382896 11.887896 -42.532639  -0.090023 0.052566 0.994551  0.000000 0.000000 1 0 1.000000
0  28.382898 11.887886 41.824303  0.044561 0.051281 0.997690  0.000000 0.000000 1 0 1.000000
  phy
0  28.382898 11.887886 41.824303  0.044561 0.051281 0.997690  0.000000 0.000000 1 0 1.000000
0  -45.170376 8.261786 40.462532  0.098888 -0.114596 -0.988478  0.000000 0.000000 1 0 1.000000
0  41.016739 8.314066 40.462532  0.023392 0.022737 -0.999467  0.000000 0.000000 1 0 1.000000
  phy
0  28.382898 11.887886 41.824303  0.044561 0.051281 0.997690  0.000000 0.000000 1 0 1.000000
0  -35.745472 12.248057 41.824306  0.042296 -0.050072 0.997850  0.000000 0.000000 1 0 1.000000
0  -45.170376 8.261786 40.462532  0.098888 -0.114596 -0.988478  0.000000 0.000000 1 0 1.000000
  phy
0  -35.745472 12.248066 -42.532635  -0.021016 -0.048782 0.998588  0.000000 0.000000 1 0 1.000000
0  -35.745472 12.248057 41.824306  0.042296 -0.050072 0.997850  0.000000 0.000000 1 0 1.000000
0  28.382898 11.887886 41.824303  0.044561 0.051281 0.997690  0.000000 0.000000 1 0 1.000000
  phy
0  28.382898 11.887886 41.824303  0.044561 0.051281 0.997690  0.000000 0.000000 1 0 1.000000
0  28.382896 11.887896 -42.532639  -0.090023 0.052566 0.994551  0.000000 0.000000 1 0 1.000000
0  -35.745472 12.248066 -42.532635  -0.021016 -0.048782 0.998588  0.000000 0.000000 1 0 1.000000
  phy
0  -45.170376 8.261786 40.462532  0.098888 -0.114596 -0.988478  0.000000 0.000000 1 0 1.000000
0  -35.745472 12.248057 41.824306  0.042296 -0.050072 0.997850  0.000000 0.000000 1 0 1.000000
0  -35.745472 12.248066 -42.532635  -0.021016 -0.048782 0.998588  0.000000 0.000000 1 0 1.000000
  phy
0  41.436810 8.314066 40.462532  0.126002 0.605361 -0.785914  0.000000 0.000000 1 0 1.000000
0  46.321716 25.598400 43.159882  0.124475 0.912676 0.389268  0.000000 0.000000 1 0 1.000000
0  28.802975 11.887886 41.824303  0.125186 -0.912499 -0.389453  0.000000 0.000000 1 0 1.000000
  phy
0  41.436810 8.314066 40.462532  0.126002 0.605361 -0.785914  0.000000 0.000000 1 0 1.000000
0  28.802975 11.887886 41.824303  0.125186 -0.912499 -0.389453  0.000000 0.000000 1 0 1.000000
0  41.436810 8.314075 -41.170864  -0.062009 0.616223 -0.785127  0.000000 0.000000 1 0 1.000000
  phy
0  41.436810 8.314066 40.462532  0.126002 0.605361 -0.785914  0.000000 0.000000 1 0 1.000000
0  41.436810 8.314075 -41.170864  -0.062009 0.616223 -0.785127  0.000000 0.000000 1 0 1.000000
0  46.321716 25.598400 43.159882  0.124475 0.912676 0.389268  0.000000 0.000000 1 0 1.000000
  phy
0  28.802975 11.887886 41.824303  0.125186 -0.912499 -0.389453  0.000000 0.000000 1 0 1.000000
0  28.802971 11.887896 -42.532639  -0.243539 -0.881881 -0.403701  0.000000 0.000000 1 0 1.000000
0  41.436810 8.314075 -41.170864  -0.062009 0.616223 -0.785127  0.000000 0.000000 1 0 1.000000
  phy
0  28.802971 11.887896 -42.532639  -0.243539 -0.881881 -0.403701  0.000000 0.000000 1 0 1.000000
0  28.802975 11.887886 41.824303  0.125186 -0.912499 -0.389453  0.000000 0.000000 1 0 1.000000
0  31.377678 31.932589 -43.894409  -0.083170 -0.608511 0.789175  0.000000 0.000000 1 0 1.000000
  phy
0  28.802975 11.887886 41.824303  0.125186 -0.912499 -0.389453  0.000000 0.000000 1 0 1.000000
0  31.377684 31.932577 43.186081  0.161808 -0.615728 0.771166  0.000000 0.000000 1 0 1.000000
0  31.377678 31.932589 -43.894409  -0.083170 -0.608511 0.789175  0.000000 0.000000 1 0 1.000000
  phy
0  46.321716 25.598400 43.159882  0.124475 0.912676 0.389268  0.000000 0.000000 1 0 1.000000
0  31.377684 31.932577 43.186081  0.161808 -0.615728 0.771166  0.000000 0.000000 1 0 1.000000
0  28.802975 11.887886 41.824303  0.125186 -0.912499 -0.389453  0.000000 0.000000 1 0 1.000000
  phy
0  28.802971 11.887896 -42.532639  -0.243539 -0.881881 -0.403701  0.000000 0.000000 1 0 1.000000
0  46.275967 25.436527 -43.877029  -0.241511 0.902579 0.356404  0.000000 0.000000 1 0 1.000000
0  41.436810 8.314075 -41.170864  -0.062009 0.616223 -0.785127  0.000000 0.000000 1 0 1.000000
  phy
0  46.275967 25.436527 -43.877029  -0.241511 0.902579 0.356404  0.000000 0.000000 1 0 1.000000
0  28.802971 11.887896 -42.532639  -0.243539 -0.881881 -0.403701  0.000000 0.000000 1 0 1.000000
0  31.377678 31.932589 -43.894409  -0.083170 -0.608511 0.789175  0.000000 0.000000 1 0 1.000000
  phy
0  46.321716 25.598400 43.159882  0.124475 0.912676 0.389268  0.000000 0.000000 1 0 1.000000
0  41.436810 8.314075 -41.170864  -0.062009 0.616223 -0.785127  0.000000 0.000000 1 0 1.000000
0  46.275967 25.436527 -43.877029  -0.241511 0.902579 0.356404  0.000000 0.000000 1 0 1.000000
  phy
0  46.275967 25.436527 -43.877029  -0.241511 0.902579 0.356404  0.000000 0.000000 1 0 1.000000
0  31.377678 31.932589 -43.894409  -0.083170 -0.608511 0.789175  0.000000 0.000000 1 0 1.000000
0  46.321716 25.598400 43.159882  0.124475 0.912676 0.389268  0.000000 0.000000 1 0 1.000000
  phy
0  46.321716 25.598400 43.159882  0.124475 0.912676 0.389268  0.000000 0.000000 1 0 1.000000
0  31.377678 31.932589 -43.894409  -0.083170 -0.608511 0.789175  0.000000 0.000000 1 0 1.000000
0  31.377684 31.932577 43.186081  0.161808 -0.615728 0.771166  0.000000 0.000000 1 0 1.000000
  phy
0  75.565323 44.315834 37.919109  0.096810 0.340960 0.935080  0.000000 0.000000 1 0 1.000000
0  72.186737 28.933569 43.143440  0.226660 0.530598 -0.816756  0.000000 0.000000 1 0 1.000000
0  75.565323 44.315838 -38.627430  -0.137635 0.823564 0.550271  0.000000 0.000000 1 0 1.000000
  phy
0  72.186737 28.933569 43.143440  0.226660 0.530598 -0.816756  0.000000 0.000000 1 0 1.000000
0  72.186737 28.933577 -43.851768  -0.430204 0.539154 -0.724043  0.000000 0.000000 1 0 1.000000
0  75.565323 44.315838 -38.627430  -0.137635 0.823564 0.550271  0.000000 0.000000 1 0 1.000000
  phy
0  75.565323 44.315838 -38.627430  -0.137635 0.823564 0.550271  0.000000 0.000000 1 0 1.000000
0  46.324081 46.945480 -39.657803  -0.199209 -0.000893 0.979957  0.000000 0.000000 1 0 1.000000
0  75.565323 44.315834 37.919109  0.096810 0.340960 0.935080  0.000000 0.000000 1 0 1.000000
  phy
0  46.324081 46.945480 -39.657803  -0.199209 -0.000893 0.979957  0.000000 0.000000 1 0 1.000000
0  75.565323 44.315838 -38.627430  -0.137635 0.823564 0.550271  0.000000 0.000000 1 0 1.000000
0  72.186737 28.933577 -43.851768  -0.430204 0.539154 -0.724043  0.000000 0.000000 1 0 1.000000
  phy
0  28.918777 41.133896 -41.224957  -0.054070 -0.531172 0.845537  0.000000 0.000000 1 0 1.000000
0  46.324081 46.945477 38.949482  0.225795 -0.120709 0.966667  0.000000 0.000000 1 0 1.000000
0  46.324081 46.945480 -39.657803  -0.199209 -0.000893 0.979957  0.000000 0.000000 1 0 1.000000
  phy
0  28.918777 41.133896 40.516632  0.075115 -0.878884 0.471084  0.000000 0.000000 1 0 1.000000
0  46.324081 46.945477 38.949482  0.225795 -0.120709 0.966667  0.000000 0.000000 1 0 1.000000
0  28.918777 41.133896 -41.224957  -0.054070 -0.531172 0.845537  0.000000 0.000000 1 0 1.000000
  phy
0  28.918777 41.133896 -41.224957  -0.054070 -0.531172 0.845537  0.000000 0.000000 1 0 1.000000
0  46.324081 46.945480 -39.657803  -0.199209 -0.000893 0.979957  0.000000 0.000000 1 0 1.000000
0  31.377680 32.265820 -43.894409  -0.262844 -0.662165 -0.701748  0.000000 0.000000 1 0 1.000000
  phy
0  28.918777 41.133896 40.516632  0.075115 -0.878884 0.471084  0.000000 0.000000 1 0 1.000000
0  28.918777 41.133896 -41.224957  -0.054070 -0.531172 0.845537  0.000000 0.000000 1 0 1.000000
0  31.377680 32.265820 -43.894409  -0.262844 -0.662165 -0.701748  0.000000 0.000000 1 0 1.000000
  phy
0  46.275967 25.769754 -43.877029  -0.036074 -0.004562 -0.999339  0.000000 0.000000 1 0 1.000000
0  45.947056 25.913158 43.166214  0.043713 -0.173590 -0.983847  0.000000 0.000000 1 0 1.000000
0  31.377680 32.265820 -43.894409  -0.262844 -0.662165 -0.701748  0.000000 0.000000 1 0 1.000000
  phy
0  45.947056 25.913158 43.166214  0.043713 -0.173590 -0.983847  0.000000 0.000000 1 0 1.000000
0  31.377684 32.265808 43.186081  0.491949 -0.627819 -0.603182  0.000000 0.000000 1 0 1.000000
0  31.377680 32.265820 -43.894409  -0.262844 -0.662165 -0.701748  0.000000 0.000000 1 0 1.000000
  phy
0  45.947056 25.913158 43.166214  0.043713 -0.173590 -0.983847  0.000000 0.000000 1 0 1.000000
0  46.275967 25.769754 -43.877029  -0.036074 -0.004562 -0.999339  0.000000 0.000000 1 0 1.000000
0  72.186737 28.933569 43.143440  0.226660 0.530598 -0.816756  0.000000 0.000000 1 0 1.000000
  phy
0  72.186737 28.933569 43.143440  0.226660 0.530598 -0.816756  0.000000 0.000000 1 0 1.000000
0  31.377684 32.265808 43.186081  0.491949 -0.627819 -0.603182  0.000000 0.000000 1 0 1.000000
0  45.947056 25.913158 43.166214  0.043713 -0.173590 -0.983847  0.000000 0.000000 1 0 1.000000
  phy
0  46.324081 46.945480 -39.657803  -0.199209 -0.000893 0.979957  0.000000 0.000000 1 0 1.000000
0  46.324081 46.945477 38.949482  0.225795 -0.120709 0.966667  0.000000 0.000000 1 0 1.000000
0  75.565323 44.315834 37.919109  0.096810 0.340960 0.935080  0.000000 0.000000 1 0 1.000000
  phy
0  75.565323 44.315834 37.919109  0.096810 0.340960 0.935080  0.000000 0.000000 1 0 1.000000
0  46.324081 46.945477 38.949482  0.225795 -0.120709 0.966667  0.000000 0.000000 1 0 1.000000
0  72.186737 28.933569 43.143440  0.226660 0.530598 -0.816756  0.000000 0.000000 1 0 1.000000
  phy
0  46.324081 46.945480 -39.657803  -0.199209 -0.000893 0.979957  0.000000 0.000000 1 0 1.000000
0  72.186737 28.933577 -43.851768  -0.430204 0.539154 -0.724043  0.000000 0.000000 1 0 1.000000
0  31.377680 32.265820 -43.894409  -0.262844 -0.662165 -0.701748  0.000000 0.000000 1 0 1.000000
  phy
0  72.186737 28.933569 43.143440  0.226660 0.530598 -0.816756  0.000000 0.000000 1 0 1.000000
0  46.275967 25.769754 -43.877029  -0.036074 -0.004562 -0.999339  0.000000 0.000000 1 0 1.000000
0  72.186737 28.933577 -43.851768  -0.430204 0.539154 -0.724043  0.000000 0.000000 1 0 1.000000
  phy
0  72.186737 28.933577 -43.851768  -0.430204 0.539154 -0.724043  0.000000 0.000000 1 0 1.000000
0  46.275967 25.769754 -43.877029  -0.036074 -0.004562 -0.999339  0.000000 0.000000 1 0 1.000000
0  31.377680 32.265820 -43.894409  -0.262844 -0.662165 -0.701748  0.000000 0.000000 1 0 1.000000
  phy
0  28.918777 41.133896 40.516632  0.075115 -0.878884 0.471084  0.000000 0.000000 1 0 1.000000
0  31.377684 32.265808 43.186081  0.491949 -0.627819 -0.603182  0.000000 0.000000 1 0 1.000000
0  46.324081 46.945477 38.949482  0.225795 -0.120709 0.966667  0.000000 0.000000 1 0 1.000000
  phy
0  31.377684 32.265808 43.186081  0.491949 -0.627819 -0.603182  0.000000 0.000000 1 0 1.000000
0  28.918777 41.133896 40.516632  0.075115 -0.878884 0.471084  0.000000 0.000000 1 0 1.000000
0  31.377680 32.265820 -43.894409  -0.262844 -0.662165 -0.701748  0.000000 0.000000 1 0 1.000000
  phy
0  46.324081 46.945477 38.949482  0.225795 -0.120709 0.966667  0.000000 0.000000 1 0 1.000000
0  31.377684 32.265808 43.186081  0.491949 -0.627819 -0.603182  0.000000 0.000000 1 0 1.000000
0  72.186737 28.933569 43.143440  0.226660 0.530598 -0.816756  0.000000 0.000000 1 0 1.000000
  phy
0  25.838446 59.150875 29.199045  0.061332 -0.667976 -0.741651  0.000000 0.000000 1 0 1.000000
0  46.163765 46.524326 38.805904  0.145098 -0.323076 -0.935184  0.000000 0.000000 1 0 1.000000
0  37.444328 59.899368 27.268030  0.126740 0.213718 0.968639  0.000000 0.000000 1 0 1.000000
  phy
0  37.444328 59.899368 27.268030  0.126740 0.213718 0.968639  0.000000 0.000000 1 0 1.000000
0  46.163765 46.524326 38.805904  0.145098 -0.323076 -0.935184  0.000000 0.000000 1 0 1.000000
0  69.207428 45.347767 36.804745  0.150631 0.882573 0.445394  0.000000 0.000000 1 0 1.000000
  phy
0  37.444328 59.899368 27.268030  0.126740 0.213718 0.968639  0.000000 0.000000 1 0 1.000000
0  25.838432 59.150883 -29.907364  -0.184728 -0.930645 0.315871  0.000000 0.000000 1 0 1.000000
0  25.838446 59.150875 29.199045  0.061332 -0.667976 -0.741651  0.000000 0.000000 1 0 1.000000
  phy
0  37.444328 59.899368 27.268030  0.126740 0.213718 0.968639  0.000000 0.000000 1 0 1.000000
0  37.444328 59.899376 -27.976347  -0.082862 0.342789 0.935751  0.000000 0.000000 1 0 1.000000
0  25.838432 59.150883 -29.907364  -0.184728 -0.930645 0.315871  0.000000 0.000000 1 0 1.000000
  phy
0  69.207428 45.347767 36.804745  0.150631 0.882573 0.445394  0.000000 0.000000 1 0 1.000000
0  37.444328 59.899376 -27.976347  -0.082862 0.342789 0.935751  0.000000 0.000000 1 0 1.000000
0  37.444328 59.899368 27.268030  0.126740 0.213718 0.968639  0.000000 0.000000 1 0 1.000000
  phy
0  25.838446 59.150875 29.199045  0.061332 -0.667976 -0.741651  0.000000 0.000000 1 0 1.000000
0  25.838432 59.150883 -29.907364  -0.184728 -0.930645 0.315871  0.000000 0.000000 1 0 1.000000
0  46.163769 46.524319 -39.514236  -0.074479 -0.300619 -0.950832  0.000000 0.000000 1 0 1.000000
  phy
0  46.163765 46.524326 38.805904  0.145098 -0.323076 -0.935184  0.000000 0.000000 1 0 1.000000
0  25.838446 59.150875 29.199045  0.061332 -0.667976 -0.741651  0.000000 0.000000 1 0 1.000000
0  46.163769 46.524319 -39.514236  -0.074479 -0.300619 -0.950832  0.000000 0.000000 1 0 1.000000
  phy
0  25.838432 59.150883 -29.907364  -0.184728 -0.930645 0.315871  0.000000 0.000000 1 0 1.000000
0  37.444328 59.899376 -27.976347  -0.082862 0.342789 0.935751  0.000000 0.000000 1 0 1.000000
0  46.163769 46.524319 -39.514236  -0.074479 -0.300619 -0.950832  0.000000 0.000000 1 0 1.000000
  phy
0  69.207428 45.347771 -37.513065  -0.209204 0.726740 0.654280  0.000000 0.000000 1 0 1.000000
0  37.444328 59.899376 -27.976347  -0.082862 0.342789 0.935751  0.000000 0.000000 1 0 1.000000
0  69.207428 45.347767 36.804745  0.150631 0.882573 0.445394  0.000000 0.000000 1 0 1.000000
  phy
0  69.207428 45.347771 -37.513065  -0.209204 0.726740 0.654280  0.000000 0.000000 1 0 1.000000
0  69.207428 45.347767 36.804745  0.150631 0.882573 0.445394  0.000000 0.000000 1 0 1.000000
0  46.163769 46.524319 -39.514236  -0.074479 -0.300619 -0.950832  0.000000 0.000000 1 0 1.000000
  phy
0  37.444328 59.899376 -27.976347  -0.082862 0.342789 0.935751  0.000000 0.000000 1 0 1.000000
0  69.207428 45.347771 -37.513065  -0.209204 0.726740 0.654280  0.000000 0.000000 1 0 1.000000
0  46.163769 46.524319 -39.514236  -0.074479 -0.300619 -0.950832  0.000000 0.000000 1 0 1.000000
  phy
0  69.207428 45.347767 36.804745  0.150631 0.882573 0.445394  0.000000 0.000000 1 0 1.000000
0  46.163765 46.524326 38.805904  0.145098 -0.323076 -0.935184  0.000000 0.000000 1 0 1.000000
0  46.163769 46.524319 -39.514236  -0.074479 -0.300619 -0.950832  0.000000 0.000000 1 0 1.000000
  phy
0  -9.380990 61.685780 -26.379877  -0.122224 -0.125574 0.984526  0.000000 0.000000 1 0 1.000000
0  -9.380988 61.685772 25.671556  0.072620 -0.030254 0.996901  0.000000 0.000000 1 0 1.000000
0  39.305679 61.325607 -26.379879  -0.031355 0.040930 0.998670  0.000000 0.000000 1 0 1.000000
  phy
0  39.305679 61.325607 -26.379879  -0.031355 0.040930 0.998670  0.000000 0.000000 1 0 1.000000
0  -9.380988 61.685772 25.671556  0.072620 -0.030254 0.996901  0.000000 0.000000 1 0 1.000000
0  39.305679 61.325600 25.671556  0.052262 0.124524 0.990839  0.000000 0.000000 1 0 1.000000
  phy
0  -9.380990 61.685780 -26.379877  -0.122224 -0.125574 0.984526  0.000000 0.000000 1 0 1.000000
0  39.305679 61.325607 -26.379879  -0.031355 0.040930 0.998670  0.000000 0.000000 1 0 1.000000
0  44.838413 57.751789 -28.884701  -0.069563 0.068122 -0.995249  0.000000 0.000000 1 0 1.000000
  phy
0  39.305679 61.325600 25.671556  0.052262 0.124524 0.990839  0.000000 0.000000 1 0 1.000000
0  44.838413 57.751789 -28.884701  -0.069563 0.068122 -0.995249  0.000000 0.000000 1 0 1.000000
0  39.305679 61.325607 -26.379879  -0.031355 0.040930 0.998670  0.000000 0.000000 1 0 1.000000
  phy
0  -13.532059 57.699505 -28.884695  -0.078252 -0.075691 -0.994056  0.000000 0.000000 1 0 1.000000
0  -13.532058 57.699497 28.176374  0.038168 -0.070506 -0.996781  0.000000 0.000000 1 0 1.000000
0  -9.380990 61.685780 -26.379877  -0.122224 -0.125574 0.984526  0.000000 0.000000 1 0 1.000000
  phy
0  -9.380990 61.685780 -26.379877  -0.122224 -0.125574 0.984526  0.000000 0.000000 1 0 1.000000
0  -13.532058 57.699497 28.176374  0.038168 -0.070506 -0.996781  0.000000 0.000000 1 0 1.000000
0  -9.380988 61.685772 25.671556  0.072620 -0.030254 0.996901  0.000000 0.000000 1 0 1.000000
  phy
0  -13.532059 57.699505 -28.884695  -0.078252 -0.075691 -0.994056  0.000000 0.000000 1 0 1.000000
0  -9.380990 61.685780 -26.379877  -0.122224 -0.125574 0.984526  0.000000 0.000000 1 0 1.000000
0  44.838413 57.751789 -28.884701  -0.069563 0.068122 -0.995249  0.000000 0.000000 1 0 1.000000
  phy
0  39.305679 61.325600 25.671556  0.052262 0.124524 0.990839  0.000000 0.000000 1 0 1.000000
0  -9.380988 61.685772 25.671556  0.072620 -0.030254 0.996901  0.000000 0.000000 1 0 1.000000
0  44.838413 57.751781 28.176373  0.145294 0.074639 -0.986569  0.000000 0.000000 1 0 1.000000
  phy
0  44.838413 57.751781 28.176373  0.145294 0.074639 -0.986569  0.000000 0.000000 1 0 1.000000
0  44.838413 57.751789 -28.884701  -0.069563 0.068122 -0.995249  0.000000 0.000000 1 0 1.000000
0  39.305679 61.325600 25.671556  0.052262 0.124524 0.990839  0.000000 0.000000 1 0 1.000000
  phy
0  -13.532058 57.699497 28.176374  0.038168 -0.070506 -0.996781  0.000000 0.000000 1 0 1.000000
0  -13.532059 57.699505 -28.884695  -0.078252 -0.075691 -0.994056  0.000000 0.000000 1 0 1.000000
0  44.838413 57.751789 -28.884701  -0.069563 0.068122 -0.995249  0.000000 0.000000 1 0 1.000000
  phy
0  -9.380988 61.685772 25.671556  0.072620 -0.030254 0.996901  0.000000 0.000000 1 0 1.000000
0  -13.532058 57.699497 28.176374  0.038168 -0.070506 -0.996781  0.000000 0.000000 1 0 1.000000
0  44.838413 57.751781 28.176373  0.145294 0.074639 -0.986569  0.000000 0.000000 1 0 1.000000
  phy
0  44.838413 57.751781 28.176373  0.145294 0.074639 -0.986569  0.000000 0.000000 1 0 1.000000
0  -13.532058 57.699497 28.176374  0.038168 -0.070506 -0.996781  0.000000 0.000000 1 0 1.000000
0  44.838413 57.751789 -28.884701  -0.069563 0.068122 -0.995249  0.000000 0.000000 1 0 1.000000
  phy
0  108.252075 23.424284 -37.526802  -0.032157 0.530367 -0.847158  0.000000 0.000000 1 0 1.000000
0  108.753647 29.467251 39.443546  0.379965 0.920512 0.091014  0.000000 0.000000 1 0 1.000000
0  108.252075 23.424278 36.818462  0.063387 0.523030 -0.849954  0.000000 0.000000 1 0 1.000000
  phy
0  108.252075 23.424284 -37.526802  -0.032157 0.530367 -0.847158  0.000000 0.000000 1 0 1.000000
0  108.252075 23.424278 36.818462  0.063387 0.523030 -0.849954  0.000000 0.000000 1 0 1.000000
0  80.979309 12.179000 36.818462  0.153013 0.103232 -0.982817  0.000000 0.000000 1 0 1.000000
  phy
0  108.753647 29.467251 39.443546  0.379965 0.920512 0.091014  0.000000 0.000000 1 0 1.000000
0  80.979309 12.179000 36.818462  0.153013 0.103232 -0.982817  0.000000 0.000000 1 0 1.000000
0  108.252075 23.424278 36.818462  0.063387 0.523030 -0.849954  0.000000 0.000000 1 0 1.000000
  phy
0  108.753647 29.467258 -40.151882  -0.607246 0.793721 0.035488  0.000000 0.000000 1 0 1.000000
0  108.753647 29.467251 39.443546  0.379965 0.920512 0.091014  0.000000 0.000000 1 0 1.000000
0  108.252075 23.424284 -37.526802  -0.032157 0.530367 -0.847158  0.000000 0.000000 1 0 1.000000
  phy
0  108.753647 29.467258 -40.151882  -0.607246 0.793721 0.035488  0.000000 0.000000 1 0 1.000000
0  108.252075 23.424284 -37.526802  -0.032157 0.530367 -0.847158  0.000000 0.000000 1 0 1.000000
0  80.979301 12.179006 -37.526802  -0.185941 -0.426639 -0.885102  0.000000 0.000000 1 0 1.000000
  phy
0  80.979301 12.179006 -37.526802  -0.185941 -0.426639 -0.885102  0.000000 0.000000 1 0 1.000000
0  108.252075 23.424284 -37.526802  -0.032157 0.530367 -0.847158  0.000000 0.000000 1 0 1.000000
0  80.979309 12.179000 36.818462  0.153013 0.103232 -0.982817  0.000000 0.000000 1 0 1.000000
  phy
0  75.809448 44.315834 37.919109  0.082881 -0.374298 0.923597  0.000000 0.000000 1 0 1.000000
0  72.430862 28.933569 43.143440  0.352822 -0.904849 -0.238253  0.000000 0.000000 1 0 1.000000
0  105.294815 41.686188 36.888733  0.293654 0.381477 0.876494  0.000000 0.000000 1 0 1.000000
  phy
0  105.294815 41.686188 36.888733  0.293654 0.381477 0.876494  0.000000 0.000000 1 0 1.000000
0  72.430862 28.933569 43.143440  0.352822 -0.904849 -0.238253  0.000000 0.000000 1 0 1.000000
0  108.753647 29.467251 39.443546  0.379965 0.920512 0.091014  0.000000 0.000000 1 0 1.000000
  phy
0  105.294815 41.686188 36.888733  0.293654 0.381477 0.876494  0.000000 0.000000 1 0 1.000000
0  105.294815 41.686195 -37.597057  -0.165058 0.408951 0.897505  0.000000 0.000000 1 0 1.000000
0  75.809448 44.315834 37.919109  0.082881 -0.374298 0.923597  0.000000 0.000000 1 0 1.000000
  phy
0  108.753647 29.467251 39.443546  0.379965 0.920512 0.091014  0.000000 0.000000 1 0 1.000000
0  105.294815 41.686195 -37.597057  -0.165058 0.408951 0.897505  0.000000 0.000000 1 0 1.000000
0  105.294815 41.686188 36.888733  0.293654 0.381477 0.876494  0.000000 0.000000 1 0 1.000000
  phy
0  75.809448 44.315834 37.919109  0.082881 -0.374298 0.923597  0.000000 0.000000 1 0 1.000000
0  105.294815 41.686195 -37.597057  -0.165058 0.408951 0.897505  0.000000 0.000000 1 0 1.000000
0  75.809448 44.315838 -38.627430  -0.161327 -0.330221 0.930015  0.000000 0.000000 1 0 1.000000
  phy
0  75.809448 44.315834 37.919109  0.082881 -0.374298 0.923597  0.000000 0.000000 1 0 1.000000
0  75.809448 44.315838 -38.627430  -0.161327 -0.330221 0.930015  0.000000 0.000000 1 0 1.000000
0  72.430862 28.933577 -43.851768  -0.368573 -0.929035 -0.032380  0.000000 0.000000 1 0 1.000000
  phy
0  75.809448 44.315838 -38.627430  -0.161327 -0.330221 0.930015  0.000000 0.000000 1 0 1.000000
0  105.294815 41.686195 -37.597057  -0.165058 0.408951 0.897505  0.000000 0.000000 1 0 1.000000
0  72.430862 28.933577 -43.851768  -0.368573 -0.929035 -0.032380  0.000000 0.000000 1 0 1.000000
  phy
0  108.753647 29.467258 -40.151882  -0.607246 0.793721 0.035488  0.000000 0.000000 1 0 1.000000
0  105.294815 41.686195 -37.597057  -0.165058 0.408951 0.897505  0.000000 0.000000 1 0 1.000000
0  108.753647 29.467251 39.443546  0.379965 0.920512 0.091014  0.000000 0.000000 1 0 1.000000
  phy
0  108.753647 29.467258 -40.151882  -0.607246 0.793721 0.035488  0.000000 0.000000 1 0 1.000000
0  80.979301 12.179006 -37.526802  -0.185941 -0.426639 -0.885102  0.000000 0.000000 1 0 1.000000
0  72.430862 28.933577 -43.851768  -0.368573 -0.929035 -0.032380  0.000000 0.000000 1 0 1.000000
  phy
0  105.294815 41.686195 -37.597057  -0.165058 0.408951 0.897505  0.000000 0.000000 1 0 1.000000
0  108.753647 29.467258 -40.151882  -0.607246 0.793721 0.035488  0.000000 0.000000 1 0 1.000000
0  72.430862 28.933577 -43.851768  -0.368573 -0.929035 -0.032380  0.000000 0.000000 1 0 1.000000
  phy
0  72.430862 28.933569 43.143440  0.352822 -0.904849 -0.238253  0.000000 0.000000 1 0 1.000000
0  75.809448 44.315834 37.919109  0.082881 -0.374298 0.923597  0.000000 0.000000 1 0 1.000000
0  72.430862 28.933577 -43.851768  -0.368573 -0.929035 -0.032380  0.000000 0.000000 1 0 1.000000
  phy
0  80.979301 12.179006 -37.526802  -0.185941 -0.426639 -0.885102  0.000000 0.000000 1 0 1.000000
0  80.979309 12.179000 36.818462  0.153013 0.103232 -0.982817  0.000000 0.000000 1 0 1.000000
0  72.430862 28.933569 43.143440  0.352822 -0.904849 -0.238253  0.000000 0.000000 1 0 1.000000
  phy
0  80.979301 12.179006 -37.526802  -0.185941 -0.426639 -0.885102  0.000000 0.000000 1 0 1.000000
0  72.430862 28.933569 43.143440  0.352822 -0.904849 -0.238253  0.000000 0.000000 1 0 1.000000
0  72.430862 28.933577 -43.851768  -0.368573 -0.929035 -0.032380  0.000000 0.000000 1 0 1.000000
  phy
0  108.753647 29.467251 39.443546  0.379965 0.920512 0.091014  0.000000 0.000000 1 0 1.000000
0  72.430862 28.933569 43.143440  0.352822 -0.904849 -0.238253  0.000000 0.000000 1 0 1.000000
0  80.979309 12.179000 36.818462  0.153013 0.103232 -0.982817  0.000000 0.000000 1 0 1.000000
end
