// Created by Crowbar 0.74
version 1
nodes
  0 "File_cabinet_01" -1
end
skeleton
  time 0
    0 0.000000 0.000000 0.000000 0.000000 0.000000 0.000000
end
triangles
File_cabinet_01
  0 9.439531 52.751690 -1.670714 -1.000000 0.000000 0.000000 0.984959 0.108737 1 0 1.000000
  0 9.439531 52.247990 -1.670714 -1.000000 0.000000 0.000000 0.993627 0.108713 1 0 1.000000
  0 9.439531 52.751690 1.670750 -1.000000 0.000000 0.000000 0.984959 0.169413 1 0 1.000000
File_cabinet_01
  0 9.439531 52.247990 -1.670714 -1.000000 0.000000 0.000000 0.993627 0.108713 1 0 1.000000
  0 9.439531 52.247990 1.670750 -1.000000 0.000000 0.000000 0.993627 0.169436 1 0 1.000000
  0 9.439531 52.751690 1.670750 -1.000000 0.000000 0.000000 0.984959 0.169413 1 0 1.000000
File_cabinet_01
  0 8.436253 56.103718 1.788711 0.625410 -0.780296 0.000000 0.848625 0.230602 1 0 1.000000
  0 8.436258 56.103718 -1.788711 0.625410 -0.780296 0.000000 0.924101 0.230602 1 0 1.000000
  0 8.683498 56.301884 1.605380 0.999704 -0.024329 0.000000 0.853174 0.235317 1 0 1.000000
File_cabinet_01
  0 8.436258 56.103718 -1.788711 0.625410 -0.780296 0.000000 0.924101 0.230602 1 0 1.000000
  0 8.683498 56.301884 -1.605368 0.999704 -0.024329 0.000000 0.919538 0.235317 1 0 1.000000
  0 8.683498 56.301884 1.605380 0.999704 -0.024329 0.000000 0.853174 0.235317 1 0 1.000000
File_cabinet_01
  0 8.683498 56.301884 1.605380 0.999704 -0.024329 0.000000 0.853174 0.235317 1 0 1.000000
  0 8.683498 56.301884 -1.605368 0.999704 -0.024329 0.000000 0.919538 0.235317 1 0 1.000000
  0 8.509807 56.455555 1.435900 0.662626 0.748951 0.000000 0.856915 0.239066 1 0 1.000000
File_cabinet_01
  0 8.683498 56.301884 -1.605368 0.999704 -0.024329 0.000000 0.919538 0.235317 1 0 1.000000
  0 8.509807 56.455555 -1.435900 0.662626 0.748951 0.000000 0.915788 0.239066 1 0 1.000000
  0 8.509807 56.455555 1.435900 0.662626 0.748951 0.000000 0.856915 0.239066 1 0 1.000000
File_cabinet_01
  0 9.439531 9.069239 -1.670714 0.000000 -1.000000 0.000000 0.965534 0.108812 1 0 1.000000
  0 8.444496 9.069239 -1.837895 0.000000 -1.000000 0.000001 0.965534 0.089060 1 0 1.000000
  0 8.444438 9.069239 -2.136912 0.000000 -1.000000 0.000001 0.970913 0.088478 1 0 1.000000
File_cabinet_01
  0 9.555602 9.069239 -1.936078 0.000000 -1.000000 0.000001 0.970913 0.107065 1 0 1.000000
  0 9.439531 9.069239 -1.670714 0.000000 -1.000000 0.000000 0.965534 0.108812 1 0 1.000000
  0 8.444438 9.069239 -2.136912 0.000000 -1.000000 0.000001 0.970913 0.088478 1 0 1.000000
File_cabinet_01
  0 9.752177 9.069239 -1.691730 0.000000 -1.000000 0.000000 0.970913 0.111335 1 0 1.000000
  0 9.439531 9.069239 -1.670714 0.000000 -1.000000 0.000000 0.965534 0.108812 1 0 1.000000
  0 9.555602 9.069239 -1.936078 0.000000 -1.000000 0.000001 0.970913 0.107065 1 0 1.000000
File_cabinet_01
  0 9.752177 9.069239 -1.691730 0.000000 -1.000000 0.000000 0.970913 0.111335 1 0 1.000000
  0 9.752177 9.069239 1.691765 0.000000 -1.000000 0.000000 0.970913 0.166814 1 0 1.000000
  0 9.439531 9.069239 -1.670714 0.000000 -1.000000 0.000000 0.965534 0.108812 1 0 1.000000
File_cabinet_01
  0 9.439531 9.069239 -1.670714 0.000000 -1.000000 0.000000 0.965534 0.108812 1 0 1.000000
  0 9.752177 9.069239 1.691765 0.000000 -1.000000 0.000000 0.970913 0.166814 1 0 1.000000
  0 9.439531 9.069239 1.670750 0.000000 -1.000000 0.000000 0.965534 0.169338 1 0 1.000000
File_cabinet_01
  0 9.439531 9.069239 1.670750 0.000000 -1.000000 0.000000 0.965534 0.169338 1 0 1.000000
  0 9.752177 9.069239 1.691765 0.000000 -1.000000 0.000000 0.970913 0.166814 1 0 1.000000
  0 9.555602 9.069239 1.936101 0.000000 -1.000000 0.000001 0.970913 0.171085 1 0 1.000000
File_cabinet_01
  0 9.555602 9.069239 1.936101 0.000000 -1.000000 0.000001 0.970913 0.171085 1 0 1.000000
  0 8.444438 9.069239 2.136959 0.000000 -1.000000 0.000001 0.970913 0.189672 1 0 1.000000
  0 9.439531 9.069239 1.670750 0.000000 -1.000000 0.000000 0.965534 0.169338 1 0 1.000000
File_cabinet_01
  0 9.439531 9.069239 1.670750 0.000000 -1.000000 0.000000 0.965534 0.169338 1 0 1.000000
  0 8.444438 9.069239 2.136959 0.000000 -1.000000 0.000001 0.970913 0.189672 1 0 1.000000
  0 8.444496 9.069239 1.837918 0.000000 -1.000000 0.000001 0.965534 0.189089 1 0 1.000000
File_cabinet_01
  0 8.436253 58.571674 1.788711 0.595617 0.000000 0.803269 0.848624 0.282767 1 0 1.000000
  0 8.436253 56.103718 1.788711 0.595617 0.000000 0.803269 0.848625 0.230602 1 0 1.000000
  0 8.683498 58.373547 1.605380 0.997719 0.000000 0.067496 0.853174 0.278062 1 0 1.000000
File_cabinet_01
  0 8.436253 56.103718 1.788711 0.595617 0.000000 0.803269 0.848625 0.230602 1 0 1.000000
  0 8.683498 56.301884 1.605380 0.997719 0.000000 0.067496 0.853174 0.235317 1 0 1.000000
  0 8.683498 58.373547 1.605380 0.997719 0.000000 0.067496 0.853174 0.278062 1 0 1.000000
File_cabinet_01
  0 8.683498 58.373547 1.605380 0.997719 0.000000 0.067496 0.853174 0.278062 1 0 1.000000
  0 8.683498 56.301884 1.605380 0.997719 0.000000 0.067496 0.853174 0.235317 1 0 1.000000
  0 8.509807 58.219875 1.435900 0.698377 0.000000 -0.715730 0.856915 0.274322 1 0 1.000000
File_cabinet_01
  0 8.683498 56.301884 1.605380 0.997719 0.000000 0.067496 0.853174 0.235317 1 0 1.000000
  0 8.509807 56.455555 1.435900 0.698377 0.000000 -0.715730 0.856915 0.239066 1 0 1.000000
  0 8.509807 58.219875 1.435900 0.698377 0.000000 -0.715730 0.856915 0.274322 1 0 1.000000
File_cabinet_01
  0 9.555602 9.069239 -1.936078 0.510759 0.000000 -0.859724 0.970913 0.107065 1 0 1.000000
  0 8.444438 9.069239 -2.136912 0.177860 0.000000 -0.984056 0.970913 0.088478 1 0 1.000000
  0 8.444438 9.572941 -2.136912 0.177860 0.000000 -0.984056 0.979580 0.088478 1 0 1.000000
File_cabinet_01
  0 9.555602 9.572941 -1.936078 0.510759 0.000000 -0.859724 0.979580 0.107065 1 0 1.000000
  0 9.555602 9.069239 -1.936078 0.510759 0.000000 -0.859724 0.970913 0.107065 1 0 1.000000
  0 8.444438 9.572941 -2.136912 0.177860 0.000000 -0.984056 0.979580 0.088478 1 0 1.000000
File_cabinet_01
  0 9.752177 9.069239 -1.691730 0.943175 0.000000 -0.332296 0.970913 0.111335 1 0 1.000000
  0 9.555602 9.069239 -1.936078 0.510759 0.000000 -0.859724 0.970913 0.107065 1 0 1.000000
  0 9.555602 9.572941 -1.936078 0.510759 0.000000 -0.859724 0.979580 0.107065 1 0 1.000000
File_cabinet_01
  0 9.752177 9.572941 -1.691730 0.943175 0.000000 -0.332296 0.979580 0.111336 1 0 1.000000
  0 9.752177 9.069239 -1.691730 0.943175 0.000000 -0.332296 0.970913 0.111335 1 0 1.000000
  0 9.555602 9.572941 -1.936078 0.510759 0.000000 -0.859724 0.979580 0.107065 1 0 1.000000
File_cabinet_01
  0 9.752177 9.069239 1.691765 0.943172 0.000000 0.332306 0.970913 0.166814 1 0 1.000000
  0 9.752177 9.069239 -1.691730 0.943175 0.000000 -0.332296 0.970913 0.111335 1 0 1.000000
  0 9.752177 9.572941 -1.691730 0.943175 0.000000 -0.332296 0.979580 0.111336 1 0 1.000000
File_cabinet_01
  0 9.752177 9.572941 1.691765 0.943172 0.000000 0.332306 0.979580 0.166814 1 0 1.000000
  0 9.752177 9.069239 1.691765 0.943172 0.000000 0.332306 0.970913 0.166814 1 0 1.000000
  0 9.752177 9.572941 -1.691730 0.943175 0.000000 -0.332296 0.979580 0.111336 1 0 1.000000
File_cabinet_01
  0 9.752177 9.069239 1.691765 0.943172 0.000000 0.332306 0.970913 0.166814 1 0 1.000000
  0 9.752177 9.572941 1.691765 0.943172 0.000000 0.332306 0.979580 0.166814 1 0 1.000000
  0 9.555602 9.069239 1.936101 0.510758 0.000000 0.859724 0.970913 0.171085 1 0 1.000000
File_cabinet_01
  0 9.752177 9.572941 1.691765 0.943172 0.000000 0.332306 0.979580 0.166814 1 0 1.000000
  0 9.555602 9.572941 1.936101 0.510758 0.000000 0.859724 0.979580 0.171085 1 0 1.000000
  0 9.555602 9.069239 1.936101 0.510758 0.000000 0.859724 0.970913 0.171085 1 0 1.000000
File_cabinet_01
  0 9.555602 9.069239 1.936101 0.510758 0.000000 0.859724 0.970913 0.171085 1 0 1.000000
  0 9.555602 9.572941 1.936101 0.510758 0.000000 0.859724 0.979580 0.171085 1 0 1.000000
  0 8.444438 9.069239 2.136959 0.177881 0.000000 0.984052 0.970913 0.189672 1 0 1.000000
File_cabinet_01
  0 9.555602 9.572941 1.936101 0.510758 0.000000 0.859724 0.979580 0.171085 1 0 1.000000
  0 8.444438 9.572941 2.136959 0.177881 0.000000 0.984052 0.979580 0.189671 1 0 1.000000
  0 8.444438 9.069239 2.136959 0.177881 0.000000 0.984052 0.970913 0.189672 1 0 1.000000
File_cabinet_01
  0 9.439531 9.572941 1.670750 0.000000 1.000000 0.000000 0.984959 0.169413 1 0 1.000000
  0 8.444496 9.572941 1.837918 0.000000 1.000000 -0.000001 0.984959 0.188862 1 0 1.000000
  0 8.444438 9.572941 2.136959 0.000000 1.000000 -0.000001 0.979580 0.189671 1 0 1.000000
File_cabinet_01
  0 9.555602 9.572941 1.936101 0.000000 1.000000 0.000003 0.979580 0.171085 1 0 1.000000
  0 9.439531 9.572941 1.670750 0.000000 1.000000 0.000000 0.984959 0.169413 1 0 1.000000
  0 8.444438 9.572941 2.136959 0.000000 1.000000 -0.000001 0.979580 0.189671 1 0 1.000000
File_cabinet_01
  0 9.752177 9.572941 1.691765 0.000000 1.000000 0.000000 0.979580 0.166814 1 0 1.000000
  0 9.439531 9.572941 1.670750 0.000000 1.000000 0.000000 0.984959 0.169413 1 0 1.000000
  0 9.555602 9.572941 1.936101 0.000000 1.000000 0.000003 0.979580 0.171085 1 0 1.000000
File_cabinet_01
  0 9.752177 9.572941 1.691765 0.000000 1.000000 0.000000 0.979580 0.166814 1 0 1.000000
  0 9.752177 9.572941 -1.691730 0.000000 1.000000 0.000000 0.979580 0.111336 1 0 1.000000
  0 9.439531 9.572941 1.670750 0.000000 1.000000 0.000000 0.984959 0.169413 1 0 1.000000
File_cabinet_01
  0 9.439531 9.572941 1.670750 0.000000 1.000000 0.000000 0.984959 0.169413 1 0 1.000000
  0 9.752177 9.572941 -1.691730 0.000000 1.000000 0.000000 0.979580 0.111336 1 0 1.000000
  0 9.439531 9.572941 -1.670714 0.000000 1.000000 0.000000 0.984959 0.108737 1 0 1.000000
File_cabinet_01
  0 9.439531 9.572941 -1.670714 0.000000 1.000000 0.000000 0.984959 0.108737 1 0 1.000000
  0 9.752177 9.572941 -1.691730 0.000000 1.000000 0.000000 0.979580 0.111336 1 0 1.000000
  0 9.555602 9.572941 -1.936078 0.000000 1.000000 -0.000001 0.979580 0.107065 1 0 1.000000
File_cabinet_01
  0 9.555602 9.572941 -1.936078 0.000000 1.000000 -0.000001 0.979580 0.107065 1 0 1.000000
  0 8.444438 9.572941 -2.136912 0.000000 1.000000 -0.000001 0.979580 0.088478 1 0 1.000000
  0 9.439531 9.572941 -1.670714 0.000000 1.000000 0.000000 0.984959 0.108737 1 0 1.000000
File_cabinet_01
  0 9.439531 9.572941 -1.670714 0.000000 1.000000 0.000000 0.984959 0.108737 1 0 1.000000
  0 8.444438 9.572941 -2.136912 0.000000 1.000000 -0.000001 0.979580 0.088478 1 0 1.000000
  0 8.444496 9.572941 -1.837895 0.000000 1.000000 -0.000001 0.984959 0.089286 1 0 1.000000
File_cabinet_01
  0 8.509807 58.219875 1.435900 1.000000 0.000000 0.000000 0.641337 0.598459 1 0 1.000000
  0 8.509807 56.455555 1.435900 1.000000 0.000000 0.000000 0.641337 0.546382 1 0 1.000000
  0 8.509807 58.219875 -1.435900 1.000000 0.000000 0.000000 0.722713 0.598459 1 0 1.000000
File_cabinet_01
  0 8.509807 56.455555 1.435900 1.000000 0.000000 0.000000 0.641337 0.546382 1 0 1.000000
  0 8.509807 56.455555 -1.435900 1.000000 0.000000 0.000000 0.722713 0.546382 1 0 1.000000
  0 8.509807 58.219875 -1.435900 1.000000 0.000000 0.000000 0.722713 0.598459 1 0 1.000000
File_cabinet_01
  0 8.432162 61.467918 -7.138308 1.000000 0.000000 0.000000 0.624913 0.764606 1 0 1.000000
  0 8.432157 61.467918 7.138309 1.000000 0.000000 0.000000 0.444683 0.764606 1 0 1.000000
  0 8.432162 48.216068 -7.138308 1.000000 0.000000 0.000000 0.624914 0.602995 1 0 1.000000
File_cabinet_01
  0 8.432157 61.467918 7.138309 1.000000 0.000000 0.000000 0.444683 0.764606 1 0 1.000000
  0 8.432157 48.216068 7.138309 1.000000 0.000000 0.000000 0.444683 0.602995 1 0 1.000000
  0 8.432162 48.216068 -7.138308 1.000000 0.000000 0.000000 0.624914 0.602995 1 0 1.000000
File_cabinet_01
  0 9.439531 9.069239 -1.670714 -0.165693 0.000000 0.986177 0.993627 0.108713 1 0 1.000000
  0 9.439531 9.572941 -1.670714 -0.165693 0.000000 0.986177 0.984959 0.108737 1 0 1.000000
  0 8.444496 9.069239 -1.837895 -0.165693 0.000000 0.986177 0.993627 0.089513 1 0 1.000000
File_cabinet_01
  0 9.439531 9.572941 -1.670714 -0.165693 0.000000 0.986177 0.984959 0.108737 1 0 1.000000
  0 8.444496 9.572941 -1.837895 -0.165693 0.000000 0.986177 0.984959 0.089286 1 0 1.000000
  0 8.444496 9.069239 -1.837895 -0.165693 0.000000 0.986177 0.993627 0.089513 1 0 1.000000
File_cabinet_01
  0 9.439531 9.572941 1.670750 -0.165681 0.000000 -0.986179 0.984959 0.169413 1 0 1.000000
  0 9.439531 9.069239 1.670750 -0.165681 0.000000 -0.986179 0.993627 0.169436 1 0 1.000000
  0 8.444496 9.572941 1.837918 -0.165681 0.000000 -0.986179 0.984959 0.188862 1 0 1.000000
File_cabinet_01
  0 9.439531 9.069239 1.670750 -0.165681 0.000000 -0.986179 0.993627 0.169436 1 0 1.000000
  0 8.444496 9.069239 1.837918 -0.165681 0.000000 -0.986179 0.993627 0.188636 1 0 1.000000
  0 8.444496 9.572941 1.837918 -0.165681 0.000000 -0.986179 0.984959 0.188862 1 0 1.000000
File_cabinet_01
  0 9.439531 9.572941 -1.670714 -1.000000 0.000000 0.000000 0.984959 0.108737 1 0 1.000000
  0 9.439531 9.069239 -1.670714 -1.000000 0.000000 0.000000 0.993627 0.108713 1 0 1.000000
  0 9.439531 9.572941 1.670750 -1.000000 0.000000 0.000000 0.984959 0.169413 1 0 1.000000
File_cabinet_01
  0 9.439531 9.069239 -1.670714 -1.000000 0.000000 0.000000 0.993627 0.108713 1 0 1.000000
  0 9.439531 9.069239 1.670750 -1.000000 0.000000 0.000000 0.993627 0.169436 1 0 1.000000
  0 9.439531 9.572941 1.670750 -1.000000 0.000000 0.000000 0.984959 0.169413 1 0 1.000000
File_cabinet_01
  0 8.436258 12.924976 -1.788711 0.595651 0.000000 -0.803243 0.924101 0.230602 1 0 1.000000
  0 8.436258 15.392931 -1.788711 0.595651 0.000000 -0.803243 0.924101 0.282767 1 0 1.000000
  0 8.683498 13.123138 -1.605368 0.997722 0.000000 -0.067456 0.919538 0.235317 1 0 1.000000
File_cabinet_01
  0 8.436258 15.392931 -1.788711 0.595651 0.000000 -0.803243 0.924101 0.282767 1 0 1.000000
  0 8.683498 15.194798 -1.605368 0.997722 0.000000 -0.067456 0.919538 0.278062 1 0 1.000000
  0 8.683498 13.123138 -1.605368 0.997722 0.000000 -0.067456 0.919538 0.235317 1 0 1.000000
File_cabinet_01
  0 8.683498 13.123138 -1.605368 0.997722 0.000000 -0.067456 0.919538 0.235317 1 0 1.000000
  0 8.683498 15.194798 -1.605368 0.997722 0.000000 -0.067456 0.919538 0.278062 1 0 1.000000
  0 8.509807 13.276813 -1.435900 0.698350 0.000000 0.715756 0.915788 0.239066 1 0 1.000000
File_cabinet_01
  0 8.683498 15.194798 -1.605368 0.997722 0.000000 -0.067456 0.919538 0.278062 1 0 1.000000
  0 8.509807 15.041123 -1.435900 0.698350 0.000000 0.715756 0.915788 0.274321 1 0 1.000000
  0 8.509807 13.276813 -1.435900 0.698350 0.000000 0.715756 0.915788 0.239066 1 0 1.000000
File_cabinet_01
  0 9.439526 23.478144 -1.670714 0.000000 -1.000000 0.000000 0.965534 0.108812 1 0 1.000000
  0 8.444496 23.478144 -1.837895 0.000000 -1.000000 -0.000001 0.965534 0.089060 1 0 1.000000
  0 8.444438 23.478144 -2.136912 0.000000 -1.000000 -0.000001 0.970913 0.088478 1 0 1.000000
File_cabinet_01
  0 9.555602 23.478144 -1.936078 0.000000 -1.000000 -0.000001 0.970913 0.107065 1 0 1.000000
  0 9.439526 23.478144 -1.670714 0.000000 -1.000000 0.000000 0.965534 0.108812 1 0 1.000000
  0 8.444438 23.478144 -2.136912 0.000000 -1.000000 -0.000001 0.970913 0.088478 1 0 1.000000
File_cabinet_01
  0 9.752172 23.478144 -1.691730 0.000000 -1.000000 0.000000 0.970913 0.111335 1 0 1.000000
  0 9.439526 23.478144 -1.670714 0.000000 -1.000000 0.000000 0.965534 0.108812 1 0 1.000000
  0 9.555602 23.478144 -1.936078 0.000000 -1.000000 -0.000001 0.970913 0.107065 1 0 1.000000
File_cabinet_01
  0 9.752172 23.478144 -1.691730 0.000000 -1.000000 0.000000 0.970913 0.111335 1 0 1.000000
  0 9.752172 23.478144 1.691765 0.000000 -1.000000 0.000000 0.970913 0.166814 1 0 1.000000
  0 9.439526 23.478144 -1.670714 0.000000 -1.000000 0.000000 0.965534 0.108812 1 0 1.000000
File_cabinet_01
  0 9.439526 23.478144 -1.670714 0.000000 -1.000000 0.000000 0.965534 0.108812 1 0 1.000000
  0 9.752172 23.478144 1.691765 0.000000 -1.000000 0.000000 0.970913 0.166814 1 0 1.000000
  0 9.439526 23.478144 1.670750 0.000000 -1.000000 0.000000 0.965534 0.169338 1 0 1.000000
File_cabinet_01
  0 9.439526 23.478144 1.670750 0.000000 -1.000000 0.000000 0.965534 0.169338 1 0 1.000000
  0 9.752172 23.478144 1.691765 0.000000 -1.000000 0.000000 0.970913 0.166814 1 0 1.000000
  0 9.555602 23.478144 1.936101 0.000000 -1.000000 0.000000 0.970913 0.171085 1 0 1.000000
File_cabinet_01
  0 9.555602 23.478144 1.936101 0.000000 -1.000000 0.000000 0.970913 0.171085 1 0 1.000000
  0 8.444438 23.478144 2.136959 0.000000 -1.000000 0.000000 0.970913 0.189672 1 0 1.000000
  0 9.439526 23.478144 1.670750 0.000000 -1.000000 0.000000 0.965534 0.169338 1 0 1.000000
File_cabinet_01
  0 9.439526 23.478144 1.670750 0.000000 -1.000000 0.000000 0.965534 0.169338 1 0 1.000000
  0 8.444438 23.478144 2.136959 0.000000 -1.000000 0.000000 0.970913 0.189672 1 0 1.000000
  0 8.444496 23.478144 1.837918 0.000000 -1.000000 0.000000 0.965534 0.189089 1 0 1.000000
File_cabinet_01
  0 8.436258 12.924976 1.788711 0.625407 -0.780299 0.000000 0.848625 0.230602 1 0 1.000000
  0 8.436258 12.924976 -1.788711 0.625407 -0.780299 0.000000 0.924101 0.230602 1 0 1.000000
  0 8.683498 13.123138 1.605380 0.999704 -0.024335 0.000000 0.853174 0.235317 1 0 1.000000
File_cabinet_01
  0 8.436258 12.924976 -1.788711 0.625407 -0.780299 0.000000 0.924101 0.230602 1 0 1.000000
  0 8.683498 13.123138 -1.605368 0.999704 -0.024335 0.000000 0.919538 0.235317 1 0 1.000000
  0 8.683498 13.123138 1.605380 0.999704 -0.024335 0.000000 0.853174 0.235317 1 0 1.000000
File_cabinet_01
  0 8.683498 13.123138 1.605380 0.999704 -0.024335 0.000000 0.853174 0.235317 1 0 1.000000
  0 8.683498 13.123138 -1.605368 0.999704 -0.024335 0.000000 0.919538 0.235317 1 0 1.000000
  0 8.509807 13.276813 1.435900 0.662632 0.748945 0.000000 0.856915 0.239066 1 0 1.000000
File_cabinet_01
  0 8.683498 13.123138 -1.605368 0.999704 -0.024335 0.000000 0.919538 0.235317 1 0 1.000000
  0 8.509807 13.276813 -1.435900 0.662632 0.748945 0.000000 0.915788 0.239066 1 0 1.000000
  0 8.509807 13.276813 1.435900 0.662632 0.748945 0.000000 0.856915 0.239066 1 0 1.000000
File_cabinet_01
  0 9.555602 23.478144 -1.936078 0.510765 0.000000 -0.859720 0.970913 0.107065 1 0 1.000000
  0 8.444438 23.478144 -2.136912 0.177860 0.000000 -0.984056 0.970913 0.088478 1 0 1.000000
  0 8.444438 23.981846 -2.136912 0.177860 0.000000 -0.984056 0.979580 0.088478 1 0 1.000000
File_cabinet_01
  0 9.555602 23.981846 -1.936078 0.510765 0.000000 -0.859720 0.979580 0.107065 1 0 1.000000
  0 9.555602 23.478144 -1.936078 0.510765 0.000000 -0.859720 0.970913 0.107065 1 0 1.000000
  0 8.444438 23.981846 -2.136912 0.177860 0.000000 -0.984056 0.979580 0.088478 1 0 1.000000
File_cabinet_01
  0 9.752172 23.478144 -1.691730 0.943178 0.000000 -0.332289 0.970913 0.111335 1 0 1.000000
  0 9.555602 23.478144 -1.936078 0.510765 0.000000 -0.859720 0.970913 0.107065 1 0 1.000000
  0 9.555602 23.981846 -1.936078 0.510765 0.000000 -0.859720 0.979580 0.107065 1 0 1.000000
File_cabinet_01
  0 9.752172 23.981846 -1.691730 0.943178 0.000000 -0.332289 0.979580 0.111336 1 0 1.000000
  0 9.752172 23.478144 -1.691730 0.943178 0.000000 -0.332289 0.970913 0.111335 1 0 1.000000
  0 9.555602 23.981846 -1.936078 0.510765 0.000000 -0.859720 0.979580 0.107065 1 0 1.000000
File_cabinet_01
  0 9.752172 23.478144 1.691765 0.943174 0.000000 0.332299 0.970913 0.166814 1 0 1.000000
  0 9.752172 23.478144 -1.691730 0.943178 0.000000 -0.332289 0.970913 0.111335 1 0 1.000000
  0 9.752172 23.981846 -1.691730 0.943178 0.000000 -0.332289 0.979580 0.111336 1 0 1.000000
File_cabinet_01
  0 9.752172 23.981846 1.691765 0.943174 0.000000 0.332299 0.979580 0.166814 1 0 1.000000
  0 9.752172 23.478144 1.691765 0.943174 0.000000 0.332299 0.970913 0.166814 1 0 1.000000
  0 9.752172 23.981846 -1.691730 0.943178 0.000000 -0.332289 0.979580 0.111336 1 0 1.000000
File_cabinet_01
  0 9.752172 23.478144 1.691765 0.943174 0.000000 0.332299 0.970913 0.166814 1 0 1.000000
  0 9.752172 23.981846 1.691765 0.943174 0.000000 0.332299 0.979580 0.166814 1 0 1.000000
  0 9.555602 23.478144 1.936101 0.510765 0.000000 0.859720 0.970913 0.171085 1 0 1.000000
File_cabinet_01
  0 9.752172 23.981846 1.691765 0.943174 0.000000 0.332299 0.979580 0.166814 1 0 1.000000
  0 9.555602 23.981846 1.936101 0.510765 0.000000 0.859720 0.979580 0.171085 1 0 1.000000
  0 9.555602 23.478144 1.936101 0.510765 0.000000 0.859720 0.970913 0.171085 1 0 1.000000
File_cabinet_01
  0 9.555602 23.478144 1.936101 0.510765 0.000000 0.859720 0.970913 0.171085 1 0 1.000000
  0 9.555602 23.981846 1.936101 0.510765 0.000000 0.859720 0.979580 0.171085 1 0 1.000000
  0 8.444438 23.478144 2.136959 0.177881 0.000000 0.984052 0.970913 0.189672 1 0 1.000000
File_cabinet_01
  0 9.555602 23.981846 1.936101 0.510765 0.000000 0.859720 0.979580 0.171085 1 0 1.000000
  0 8.444438 23.981846 2.136959 0.177881 0.000000 0.984052 0.979580 0.189671 1 0 1.000000
  0 8.444438 23.478144 2.136959 0.177881 0.000000 0.984052 0.970913 0.189672 1 0 1.000000
File_cabinet_01
  0 8.683498 29.603701 1.605380 0.999703 0.024371 0.000000 0.853174 0.278062 1 0 1.000000
  0 8.509807 29.450026 1.435900 0.662634 -0.748944 0.000000 0.856915 0.274322 1 0 1.000000
  0 8.509807 29.450026 -1.435900 0.662634 -0.748944 0.000000 0.915788 0.274321 1 0 1.000000
File_cabinet_01
  0 8.683498 29.603701 -1.605368 0.999703 0.024371 0.000000 0.919538 0.278062 1 0 1.000000
  0 8.683498 29.603701 1.605380 0.999703 0.024371 0.000000 0.853174 0.278062 1 0 1.000000
  0 8.509807 29.450026 -1.435900 0.662634 -0.748944 0.000000 0.915788 0.274321 1 0 1.000000
File_cabinet_01
  0 8.436258 29.801834 1.788711 0.625352 0.780342 0.000000 0.848624 0.282767 1 0 1.000000
  0 8.683498 29.603701 1.605380 0.999703 0.024371 0.000000 0.853174 0.278062 1 0 1.000000
  0 8.683498 29.603701 -1.605368 0.999703 0.024371 0.000000 0.919538 0.278062 1 0 1.000000
File_cabinet_01
  0 8.436258 29.801834 -1.788711 0.625352 0.780342 0.000000 0.924101 0.282767 1 0 1.000000
  0 8.436258 29.801834 1.788711 0.625352 0.780342 0.000000 0.848624 0.282767 1 0 1.000000
  0 8.683498 29.603701 -1.605368 0.999703 0.024371 0.000000 0.919538 0.278062 1 0 1.000000
File_cabinet_01
  0 9.555602 37.887051 -1.936078 0.510760 0.000000 -0.859723 0.970913 0.107065 1 0 1.000000
  0 8.444438 37.887051 -2.136912 0.177861 0.000000 -0.984056 0.970913 0.088478 1 0 1.000000
  0 8.444438 38.390751 -2.136912 0.177861 0.000000 -0.984056 0.979580 0.088478 1 0 1.000000
File_cabinet_01
  0 9.555602 38.390751 -1.936078 0.510760 0.000000 -0.859723 0.979580 0.107065 1 0 1.000000
  0 9.555602 37.887051 -1.936078 0.510760 0.000000 -0.859723 0.970913 0.107065 1 0 1.000000
  0 8.444438 38.390751 -2.136912 0.177861 0.000000 -0.984056 0.979580 0.088478 1 0 1.000000
File_cabinet_01
  0 9.752177 37.887051 -1.691730 0.943175 0.000000 -0.332295 0.970913 0.111335 1 0 1.000000
  0 9.555602 37.887051 -1.936078 0.510760 0.000000 -0.859723 0.970913 0.107065 1 0 1.000000
  0 9.555602 38.390751 -1.936078 0.510760 0.000000 -0.859723 0.979580 0.107065 1 0 1.000000
File_cabinet_01
  0 9.752177 38.390751 -1.691730 0.943175 0.000000 -0.332295 0.979580 0.111336 1 0 1.000000
  0 9.752177 37.887051 -1.691730 0.943175 0.000000 -0.332295 0.970913 0.111335 1 0 1.000000
  0 9.555602 38.390751 -1.936078 0.510760 0.000000 -0.859723 0.979580 0.107065 1 0 1.000000
File_cabinet_01
  0 9.752177 37.887051 1.691765 0.943172 0.000000 0.332306 0.970913 0.166814 1 0 1.000000
  0 9.752177 37.887051 -1.691730 0.943175 0.000000 -0.332295 0.970913 0.111335 1 0 1.000000
  0 9.752177 38.390751 -1.691730 0.943175 0.000000 -0.332295 0.979580 0.111336 1 0 1.000000
File_cabinet_01
  0 9.752177 38.390751 1.691765 0.943172 0.000000 0.332306 0.979580 0.166814 1 0 1.000000
  0 9.752177 37.887051 1.691765 0.943172 0.000000 0.332306 0.970913 0.166814 1 0 1.000000
  0 9.752177 38.390751 -1.691730 0.943175 0.000000 -0.332295 0.979580 0.111336 1 0 1.000000
File_cabinet_01
  0 9.752177 37.887051 1.691765 0.943172 0.000000 0.332306 0.970913 0.166814 1 0 1.000000
  0 9.752177 38.390751 1.691765 0.943172 0.000000 0.332306 0.979580 0.166814 1 0 1.000000
  0 9.555602 37.887051 1.936101 0.510759 0.000000 0.859724 0.970913 0.171085 1 0 1.000000
File_cabinet_01
  0 9.752177 38.390751 1.691765 0.943172 0.000000 0.332306 0.979580 0.166814 1 0 1.000000
  0 9.555602 38.390751 1.936101 0.510759 0.000000 0.859724 0.979580 0.171085 1 0 1.000000
  0 9.555602 37.887051 1.936101 0.510759 0.000000 0.859724 0.970913 0.171085 1 0 1.000000
File_cabinet_01
  0 9.555602 37.887051 1.936101 0.510759 0.000000 0.859724 0.970913 0.171085 1 0 1.000000
  0 9.555602 38.390751 1.936101 0.510759 0.000000 0.859724 0.979580 0.171085 1 0 1.000000
  0 8.444438 37.887051 2.136959 0.177881 0.000000 0.984052 0.970913 0.189672 1 0 1.000000
File_cabinet_01
  0 9.555602 38.390751 1.936101 0.510759 0.000000 0.859724 0.979580 0.171085 1 0 1.000000
  0 8.444438 38.390751 2.136959 0.177881 0.000000 0.984052 0.979580 0.189671 1 0 1.000000
  0 8.444438 37.887051 2.136959 0.177881 0.000000 0.984052 0.970913 0.189672 1 0 1.000000
File_cabinet_01
  0 9.439531 38.390751 1.670750 0.000000 1.000000 0.000000 0.984959 0.169413 1 0 1.000000
  0 8.444496 38.390751 1.837918 0.000000 1.000000 -0.000011 0.984959 0.188862 1 0 1.000000
  0 8.444438 38.390751 2.136959 0.000000 1.000000 -0.000011 0.979580 0.189671 1 0 1.000000
File_cabinet_01
  0 9.555602 38.390751 1.936101 0.000000 1.000000 -0.000003 0.979580 0.171085 1 0 1.000000
  0 9.439531 38.390751 1.670750 0.000000 1.000000 0.000000 0.984959 0.169413 1 0 1.000000
  0 8.444438 38.390751 2.136959 0.000000 1.000000 -0.000011 0.979580 0.189671 1 0 1.000000
File_cabinet_01
  0 9.752177 38.390751 1.691765 0.000000 1.000000 0.000000 0.979580 0.166814 1 0 1.000000
  0 9.439531 38.390751 1.670750 0.000000 1.000000 0.000000 0.984959 0.169413 1 0 1.000000
  0 9.555602 38.390751 1.936101 0.000000 1.000000 -0.000003 0.979580 0.171085 1 0 1.000000
File_cabinet_01
  0 9.752177 38.390751 1.691765 0.000000 1.000000 0.000000 0.979580 0.166814 1 0 1.000000
  0 9.752177 38.390751 -1.691730 0.000000 1.000000 0.000000 0.979580 0.111336 1 0 1.000000
  0 9.439531 38.390751 1.670750 0.000000 1.000000 0.000000 0.984959 0.169413 1 0 1.000000
File_cabinet_01
  0 9.439531 38.390751 1.670750 0.000000 1.000000 0.000000 0.984959 0.169413 1 0 1.000000
  0 9.752177 38.390751 -1.691730 0.000000 1.000000 0.000000 0.979580 0.111336 1 0 1.000000
  0 9.439531 38.390751 -1.670714 0.000000 1.000000 0.000000 0.984959 0.108737 1 0 1.000000
File_cabinet_01
  0 9.439531 38.390751 -1.670714 0.000000 1.000000 0.000000 0.984959 0.108737 1 0 1.000000
  0 9.752177 38.390751 -1.691730 0.000000 1.000000 0.000000 0.979580 0.111336 1 0 1.000000
  0 9.555602 38.390751 -1.936078 0.000000 1.000000 0.000007 0.979580 0.107065 1 0 1.000000
File_cabinet_01
  0 9.555602 38.390751 -1.936078 0.000000 1.000000 0.000007 0.979580 0.107065 1 0 1.000000
  0 8.444438 38.390751 -2.136912 0.000000 1.000000 0.000007 0.979580 0.088478 1 0 1.000000
  0 9.439531 38.390751 -1.670714 0.000000 1.000000 0.000000 0.984959 0.108737 1 0 1.000000
File_cabinet_01
  0 9.439531 38.390751 -1.670714 0.000000 1.000000 0.000000 0.984959 0.108737 1 0 1.000000
  0 8.444438 38.390751 -2.136912 0.000000 1.000000 0.000007 0.979580 0.088478 1 0 1.000000
  0 8.444496 38.390751 -1.837895 0.000000 1.000000 0.000007 0.984959 0.089286 1 0 1.000000
File_cabinet_01
  0 8.436258 15.392931 1.788711 0.595626 0.000000 0.803262 0.848624 0.282767 1 0 1.000000
  0 8.436258 12.924976 1.788711 0.595626 0.000000 0.803262 0.848625 0.230602 1 0 1.000000
  0 8.683498 15.194798 1.605380 0.997720 0.000000 0.067490 0.853174 0.278062 1 0 1.000000
File_cabinet_01
  0 8.436258 12.924976 1.788711 0.595626 0.000000 0.803262 0.848625 0.230602 1 0 1.000000
  0 8.683498 13.123138 1.605380 0.997720 0.000000 0.067490 0.853174 0.235317 1 0 1.000000
  0 8.683498 15.194798 1.605380 0.997720 0.000000 0.067490 0.853174 0.278062 1 0 1.000000
File_cabinet_01
  0 8.683498 15.194798 1.605380 0.997720 0.000000 0.067490 0.853174 0.278062 1 0 1.000000
  0 8.683498 13.123138 1.605380 0.997720 0.000000 0.067490 0.853174 0.235317 1 0 1.000000
  0 8.509807 15.041123 1.435900 0.698376 0.000000 -0.715731 0.856915 0.274322 1 0 1.000000
File_cabinet_01
  0 8.683498 13.123138 1.605380 0.997720 0.000000 0.067490 0.853174 0.235317 1 0 1.000000
  0 8.509807 13.276813 1.435900 0.698376 0.000000 -0.715731 0.856915 0.239066 1 0 1.000000
  0 8.509807 15.041123 1.435900 0.698376 0.000000 -0.715731 0.856915 0.274322 1 0 1.000000
File_cabinet_01
  0 9.555602 52.247990 -1.936078 0.510760 0.000000 -0.859723 0.970913 0.107065 1 0 1.000000
  0 8.444438 52.247990 -2.136912 0.177861 0.000000 -0.984056 0.970913 0.088478 1 0 1.000000
  0 8.444438 52.751690 -2.136912 0.177861 0.000000 -0.984056 0.979580 0.088478 1 0 1.000000
File_cabinet_01
  0 9.555602 52.751690 -1.936078 0.510760 0.000000 -0.859723 0.979580 0.107065 1 0 1.000000
  0 9.555602 52.247990 -1.936078 0.510760 0.000000 -0.859723 0.970913 0.107065 1 0 1.000000
  0 8.444438 52.751690 -2.136912 0.177861 0.000000 -0.984056 0.979580 0.088478 1 0 1.000000
File_cabinet_01
  0 9.752177 52.247990 -1.691730 0.943175 0.000000 -0.332295 0.970913 0.111335 1 0 1.000000
  0 9.555602 52.247990 -1.936078 0.510760 0.000000 -0.859723 0.970913 0.107065 1 0 1.000000
  0 9.555602 52.751690 -1.936078 0.510760 0.000000 -0.859723 0.979580 0.107065 1 0 1.000000
File_cabinet_01
  0 9.752177 52.751690 -1.691730 0.943175 0.000000 -0.332295 0.979580 0.111336 1 0 1.000000
  0 9.752177 52.247990 -1.691730 0.943175 0.000000 -0.332295 0.970913 0.111335 1 0 1.000000
  0 9.555602 52.751690 -1.936078 0.510760 0.000000 -0.859723 0.979580 0.107065 1 0 1.000000
File_cabinet_01
  0 9.752177 52.247990 1.691765 0.943172 0.000000 0.332306 0.970913 0.166814 1 0 1.000000
  0 9.752177 52.247990 -1.691730 0.943175 0.000000 -0.332295 0.970913 0.111335 1 0 1.000000
  0 9.752177 52.751690 -1.691730 0.943175 0.000000 -0.332295 0.979580 0.111336 1 0 1.000000
File_cabinet_01
  0 9.752177 52.751690 1.691765 0.943172 0.000000 0.332306 0.979580 0.166814 1 0 1.000000
  0 9.752177 52.247990 1.691765 0.943172 0.000000 0.332306 0.970913 0.166814 1 0 1.000000
  0 9.752177 52.751690 -1.691730 0.943175 0.000000 -0.332295 0.979580 0.111336 1 0 1.000000
File_cabinet_01
  0 9.752177 52.247990 1.691765 0.943172 0.000000 0.332306 0.970913 0.166814 1 0 1.000000
  0 9.752177 52.751690 1.691765 0.943172 0.000000 0.332306 0.979580 0.166814 1 0 1.000000
  0 9.555602 52.247990 1.936101 0.510759 0.000000 0.859724 0.970913 0.171085 1 0 1.000000
File_cabinet_01
  0 9.752177 52.751690 1.691765 0.943172 0.000000 0.332306 0.979580 0.166814 1 0 1.000000
  0 9.555602 52.751690 1.936101 0.510759 0.000000 0.859724 0.979580 0.171085 1 0 1.000000
  0 9.555602 52.247990 1.936101 0.510759 0.000000 0.859724 0.970913 0.171085 1 0 1.000000
File_cabinet_01
  0 9.555602 52.247990 1.936101 0.510759 0.000000 0.859724 0.970913 0.171085 1 0 1.000000
  0 9.555602 52.751690 1.936101 0.510759 0.000000 0.859724 0.979580 0.171085 1 0 1.000000
  0 8.444438 52.247990 2.136959 0.177881 0.000000 0.984052 0.970913 0.189672 1 0 1.000000
File_cabinet_01
  0 9.555602 52.751690 1.936101 0.510759 0.000000 0.859724 0.979580 0.171085 1 0 1.000000
  0 8.444438 52.751690 2.136959 0.177881 0.000000 0.984052 0.979580 0.189671 1 0 1.000000
  0 8.444438 52.247990 2.136959 0.177881 0.000000 0.984052 0.970913 0.189672 1 0 1.000000
File_cabinet_01
  0 9.439531 52.751690 1.670750 0.000000 1.000000 0.000001 0.984959 0.169413 1 0 1.000000
  0 8.444496 52.751690 1.837918 0.000000 1.000000 0.000000 0.984959 0.188862 1 0 1.000000
  0 8.444438 52.751690 2.136959 0.000000 1.000000 0.000000 0.979580 0.189671 1 0 1.000000
File_cabinet_01
  0 9.555602 52.751690 1.936101 0.000000 1.000000 -0.000008 0.979580 0.171085 1 0 1.000000
  0 9.439531 52.751690 1.670750 0.000000 1.000000 0.000001 0.984959 0.169413 1 0 1.000000
  0 8.444438 52.751690 2.136959 0.000000 1.000000 0.000000 0.979580 0.189671 1 0 1.000000
File_cabinet_01
  0 9.752177 52.751690 1.691765 0.000000 1.000000 0.000001 0.979580 0.166814 1 0 1.000000
  0 9.439531 52.751690 1.670750 0.000000 1.000000 0.000001 0.984959 0.169413 1 0 1.000000
  0 9.555602 52.751690 1.936101 0.000000 1.000000 -0.000008 0.979580 0.171085 1 0 1.000000
File_cabinet_01
  0 9.752177 52.751690 1.691765 0.000000 1.000000 0.000001 0.979580 0.166814 1 0 1.000000
  0 9.752177 52.751690 -1.691730 0.000000 1.000000 0.000001 0.979580 0.111336 1 0 1.000000
  0 9.439531 52.751690 1.670750 0.000000 1.000000 0.000001 0.984959 0.169413 1 0 1.000000
File_cabinet_01
  0 9.439531 52.751690 1.670750 0.000000 1.000000 0.000001 0.984959 0.169413 1 0 1.000000
  0 9.752177 52.751690 -1.691730 0.000000 1.000000 0.000001 0.979580 0.111336 1 0 1.000000
  0 9.439531 52.751690 -1.670714 0.000000 1.000000 0.000001 0.984959 0.108737 1 0 1.000000
File_cabinet_01
  0 9.439531 52.751690 -1.670714 0.000000 1.000000 0.000001 0.984959 0.108737 1 0 1.000000
  0 9.752177 52.751690 -1.691730 0.000000 1.000000 0.000001 0.979580 0.111336 1 0 1.000000
  0 9.555602 52.751690 -1.936078 0.000000 1.000000 0.000004 0.979580 0.107065 1 0 1.000000
File_cabinet_01
  0 9.555602 52.751690 -1.936078 0.000000 1.000000 0.000004 0.979580 0.107065 1 0 1.000000
  0 8.444438 52.751690 -2.136912 0.000000 1.000000 0.000004 0.979580 0.088478 1 0 1.000000
  0 9.439531 52.751690 -1.670714 0.000000 1.000000 0.000001 0.984959 0.108737 1 0 1.000000
File_cabinet_01
  0 9.439531 52.751690 -1.670714 0.000000 1.000000 0.000001 0.984959 0.108737 1 0 1.000000
  0 8.444438 52.751690 -2.136912 0.000000 1.000000 0.000004 0.979580 0.088478 1 0 1.000000
  0 8.444496 52.751690 -1.837895 0.000000 1.000000 0.000004 0.984959 0.089286 1 0 1.000000
File_cabinet_01
  0 8.509807 15.041123 1.435900 1.000000 0.000000 0.000000 0.642942 0.479402 1 0 1.000000
  0 8.509807 13.276813 1.435900 1.000000 0.000000 0.000000 0.642942 0.424638 1 0 1.000000
  0 8.509807 15.041123 -1.435900 1.000000 0.000000 0.000000 0.724318 0.479402 1 0 1.000000
File_cabinet_01
  0 8.509807 13.276813 1.435900 1.000000 0.000000 0.000000 0.642942 0.424638 1 0 1.000000
  0 8.509807 13.276813 -1.435900 1.000000 0.000000 0.000000 0.724318 0.424638 1 0 1.000000
  0 8.509807 15.041123 -1.435900 1.000000 0.000000 0.000000 0.724318 0.479402 1 0 1.000000
File_cabinet_01
  0 9.439526 23.478144 -1.670714 -0.165694 0.000000 0.986177 0.993627 0.108713 1 0 1.000000
  0 9.439526 23.981846 -1.670714 -0.165694 0.000000 0.986177 0.984959 0.108737 1 0 1.000000
  0 8.444496 23.478144 -1.837895 -0.165694 0.000000 0.986177 0.993627 0.089513 1 0 1.000000
File_cabinet_01
  0 9.439526 23.981846 -1.670714 -0.165694 0.000000 0.986177 0.984959 0.108737 1 0 1.000000
  0 8.444496 23.981846 -1.837895 -0.165694 0.000000 0.986177 0.984959 0.089286 1 0 1.000000
  0 8.444496 23.478144 -1.837895 -0.165694 0.000000 0.986177 0.993627 0.089513 1 0 1.000000
File_cabinet_01
  0 9.439526 23.981846 1.670750 -0.165682 0.000000 -0.986179 0.984959 0.169413 1 0 1.000000
  0 9.439526 23.478144 1.670750 -0.165682 0.000000 -0.986179 0.993627 0.169436 1 0 1.000000
  0 8.444496 23.981846 1.837918 -0.165682 0.000000 -0.986179 0.984959 0.188862 1 0 1.000000
File_cabinet_01
  0 9.439526 23.478144 1.670750 -0.165682 0.000000 -0.986179 0.993627 0.169436 1 0 1.000000
  0 8.444496 23.478144 1.837918 -0.165682 0.000000 -0.986179 0.993627 0.188636 1 0 1.000000
  0 8.444496 23.981846 1.837918 -0.165682 0.000000 -0.986179 0.984959 0.188862 1 0 1.000000
File_cabinet_01
  0 9.439526 23.981846 -1.670714 -1.000000 0.000000 0.000000 0.984959 0.108737 1 0 1.000000
  0 9.439526 23.478144 -1.670714 -1.000000 0.000000 0.000000 0.993627 0.108713 1 0 1.000000
  0 9.439526 23.981846 1.670750 -1.000000 0.000000 0.000000 0.984959 0.169413 1 0 1.000000
File_cabinet_01
  0 9.439526 23.478144 -1.670714 -1.000000 0.000000 0.000000 0.993627 0.108713 1 0 1.000000
  0 9.439526 23.478144 1.670750 -1.000000 0.000000 0.000000 0.993627 0.169436 1 0 1.000000
  0 9.439526 23.981846 1.670750 -1.000000 0.000000 0.000000 0.984959 0.169413 1 0 1.000000
File_cabinet_01
  0 8.436258 27.333879 -1.788711 0.595651 0.000000 -0.803243 0.924101 0.230602 1 0 1.000000
  0 8.436258 29.801834 -1.788711 0.595651 0.000000 -0.803243 0.924101 0.282767 1 0 1.000000
  0 8.683498 27.532042 -1.605368 0.997722 0.000000 -0.067456 0.919538 0.235317 1 0 1.000000
File_cabinet_01
  0 8.436258 29.801834 -1.788711 0.595651 0.000000 -0.803243 0.924101 0.282767 1 0 1.000000
  0 8.683498 29.603701 -1.605368 0.997722 0.000000 -0.067456 0.919538 0.278062 1 0 1.000000
  0 8.683498 27.532042 -1.605368 0.997722 0.000000 -0.067456 0.919538 0.235317 1 0 1.000000
File_cabinet_01
  0 8.683498 27.532042 -1.605368 0.997722 0.000000 -0.067456 0.919538 0.235317 1 0 1.000000
  0 8.683498 29.603701 -1.605368 0.997722 0.000000 -0.067456 0.919538 0.278062 1 0 1.000000
  0 8.509807 27.685715 -1.435900 0.698350 0.000000 0.715756 0.915788 0.239066 1 0 1.000000
File_cabinet_01
  0 8.683498 29.603701 -1.605368 0.997722 0.000000 -0.067456 0.919538 0.278062 1 0 1.000000
  0 8.509807 29.450026 -1.435900 0.698350 0.000000 0.715756 0.915788 0.274321 1 0 1.000000
  0 8.509807 27.685715 -1.435900 0.698350 0.000000 0.715756 0.915788 0.239066 1 0 1.000000
File_cabinet_01
  0 8.683498 58.373547 -1.605368 0.997722 0.000000 -0.067455 0.919538 0.278062 1 0 1.000000
  0 8.509807 58.219875 -1.435900 0.698350 0.000000 0.715756 0.915788 0.274321 1 0 1.000000
  0 8.509807 56.455555 -1.435900 0.698350 0.000000 0.715756 0.915788 0.239066 1 0 1.000000
File_cabinet_01
  0 8.683498 56.301884 -1.605368 0.997722 0.000000 -0.067455 0.919538 0.235317 1 0 1.000000
  0 8.683498 58.373547 -1.605368 0.997722 0.000000 -0.067455 0.919538 0.278062 1 0 1.000000
  0 8.509807 56.455555 -1.435900 0.698350 0.000000 0.715756 0.915788 0.239066 1 0 1.000000
File_cabinet_01
  0 8.436258 58.571674 -1.788711 0.595652 0.000000 -0.803243 0.924101 0.282767 1 0 1.000000
  0 8.683498 58.373547 -1.605368 0.997722 0.000000 -0.067455 0.919538 0.278062 1 0 1.000000
  0 8.683498 56.301884 -1.605368 0.997722 0.000000 -0.067455 0.919538 0.235317 1 0 1.000000
File_cabinet_01
  0 8.436258 56.103718 -1.788711 0.595652 0.000000 -0.803243 0.924101 0.230602 1 0 1.000000
  0 8.436258 58.571674 -1.788711 0.595652 0.000000 -0.803243 0.924101 0.282767 1 0 1.000000
  0 8.683498 56.301884 -1.605368 0.997722 0.000000 -0.067455 0.919538 0.235317 1 0 1.000000
File_cabinet_01
  0 9.439526 23.981846 1.670750 0.000000 1.000000 0.000000 0.984959 0.169413 1 0 1.000000
  0 8.444496 23.981846 1.837918 0.000000 1.000000 -0.000006 0.984959 0.188862 1 0 1.000000
  0 8.444438 23.981846 2.136959 0.000000 1.000000 -0.000006 0.979580 0.189671 1 0 1.000000
File_cabinet_01
  0 9.555602 23.981846 1.936101 0.000000 1.000000 -0.000002 0.979580 0.171085 1 0 1.000000
  0 9.439526 23.981846 1.670750 0.000000 1.000000 0.000000 0.984959 0.169413 1 0 1.000000
  0 8.444438 23.981846 2.136959 0.000000 1.000000 -0.000006 0.979580 0.189671 1 0 1.000000
File_cabinet_01
  0 9.752172 23.981846 1.691765 0.000000 1.000000 0.000000 0.979580 0.166814 1 0 1.000000
  0 9.439526 23.981846 1.670750 0.000000 1.000000 0.000000 0.984959 0.169413 1 0 1.000000
  0 9.555602 23.981846 1.936101 0.000000 1.000000 -0.000002 0.979580 0.171085 1 0 1.000000
File_cabinet_01
  0 9.752172 23.981846 1.691765 0.000000 1.000000 0.000000 0.979580 0.166814 1 0 1.000000
  0 9.752172 23.981846 -1.691730 0.000000 1.000000 0.000000 0.979580 0.111336 1 0 1.000000
  0 9.439526 23.981846 1.670750 0.000000 1.000000 0.000000 0.984959 0.169413 1 0 1.000000
File_cabinet_01
  0 9.439526 23.981846 1.670750 0.000000 1.000000 0.000000 0.984959 0.169413 1 0 1.000000
  0 9.752172 23.981846 -1.691730 0.000000 1.000000 0.000000 0.979580 0.111336 1 0 1.000000
  0 9.439526 23.981846 -1.670714 0.000000 1.000000 0.000000 0.984959 0.108737 1 0 1.000000
File_cabinet_01
  0 9.439526 23.981846 -1.670714 0.000000 1.000000 0.000000 0.984959 0.108737 1 0 1.000000
  0 9.752172 23.981846 -1.691730 0.000000 1.000000 0.000000 0.979580 0.111336 1 0 1.000000
  0 9.555602 23.981846 -1.936078 0.000000 1.000000 0.000004 0.979580 0.107065 1 0 1.000000
File_cabinet_01
  0 9.555602 23.981846 -1.936078 0.000000 1.000000 0.000004 0.979580 0.107065 1 0 1.000000
  0 8.444438 23.981846 -2.136912 0.000000 1.000000 0.000004 0.979580 0.088478 1 0 1.000000
  0 9.439526 23.981846 -1.670714 0.000000 1.000000 0.000000 0.984959 0.108737 1 0 1.000000
File_cabinet_01
  0 9.439526 23.981846 -1.670714 0.000000 1.000000 0.000000 0.984959 0.108737 1 0 1.000000
  0 8.444438 23.981846 -2.136912 0.000000 1.000000 0.000004 0.979580 0.088478 1 0 1.000000
  0 8.444496 23.981846 -1.837895 0.000000 1.000000 0.000004 0.984959 0.089286 1 0 1.000000
File_cabinet_01
  0 8.436258 27.333879 1.788711 0.625407 -0.780299 0.000000 0.848625 0.230602 1 0 1.000000
  0 8.436258 27.333879 -1.788711 0.625407 -0.780299 0.000000 0.924101 0.230602 1 0 1.000000
  0 8.683498 27.532042 1.605380 0.999704 -0.024334 0.000000 0.853174 0.235317 1 0 1.000000
File_cabinet_01
  0 8.436258 27.333879 -1.788711 0.625407 -0.780299 0.000000 0.924101 0.230602 1 0 1.000000
  0 8.683498 27.532042 -1.605368 0.999704 -0.024334 0.000000 0.919538 0.235317 1 0 1.000000
  0 8.683498 27.532042 1.605380 0.999704 -0.024334 0.000000 0.853174 0.235317 1 0 1.000000
File_cabinet_01
  0 8.683498 27.532042 1.605380 0.999704 -0.024334 0.000000 0.853174 0.235317 1 0 1.000000
  0 8.683498 27.532042 -1.605368 0.999704 -0.024334 0.000000 0.919538 0.235317 1 0 1.000000
  0 8.509807 27.685715 1.435900 0.662630 0.748947 0.000000 0.856915 0.239066 1 0 1.000000
File_cabinet_01
  0 8.683498 27.532042 -1.605368 0.999704 -0.024334 0.000000 0.919538 0.235317 1 0 1.000000
  0 8.509807 27.685715 -1.435900 0.662630 0.748947 0.000000 0.915788 0.239066 1 0 1.000000
  0 8.509807 27.685715 1.435900 0.662630 0.748947 0.000000 0.856915 0.239066 1 0 1.000000
File_cabinet_01
  0 9.439531 52.247990 -1.670714 0.000000 -1.000000 -0.000001 0.965534 0.108812 1 0 1.000000
  0 8.444496 52.247990 -1.837895 0.000000 -1.000000 0.000004 0.965534 0.089060 1 0 1.000000
  0 8.444438 52.247990 -2.136912 0.000000 -1.000000 0.000004 0.970913 0.088478 1 0 1.000000
File_cabinet_01
  0 9.555602 52.247990 -1.936078 0.000000 -1.000000 0.000004 0.970913 0.107065 1 0 1.000000
  0 9.439531 52.247990 -1.670714 0.000000 -1.000000 -0.000001 0.965534 0.108812 1 0 1.000000
  0 8.444438 52.247990 -2.136912 0.000000 -1.000000 0.000004 0.970913 0.088478 1 0 1.000000
File_cabinet_01
  0 9.752177 52.247990 -1.691730 0.000000 -1.000000 -0.000001 0.970913 0.111335 1 0 1.000000
  0 9.439531 52.247990 -1.670714 0.000000 -1.000000 -0.000001 0.965534 0.108812 1 0 1.000000
  0 9.555602 52.247990 -1.936078 0.000000 -1.000000 0.000004 0.970913 0.107065 1 0 1.000000
File_cabinet_01
  0 9.752177 52.247990 -1.691730 0.000000 -1.000000 -0.000001 0.970913 0.111335 1 0 1.000000
  0 9.752177 52.247990 1.691765 0.000000 -1.000000 -0.000001 0.970913 0.166814 1 0 1.000000
  0 9.439531 52.247990 -1.670714 0.000000 -1.000000 -0.000001 0.965534 0.108812 1 0 1.000000
File_cabinet_01
  0 9.439531 52.247990 -1.670714 0.000000 -1.000000 -0.000001 0.965534 0.108812 1 0 1.000000
  0 9.752177 52.247990 1.691765 0.000000 -1.000000 -0.000001 0.970913 0.166814 1 0 1.000000
  0 9.439531 52.247990 1.670750 0.000000 -1.000000 -0.000001 0.965534 0.169338 1 0 1.000000
File_cabinet_01
  0 9.439531 52.247990 1.670750 0.000000 -1.000000 -0.000001 0.965534 0.169338 1 0 1.000000
  0 9.752177 52.247990 1.691765 0.000000 -1.000000 -0.000001 0.970913 0.166814 1 0 1.000000
  0 9.555602 52.247990 1.936101 0.000000 -1.000000 -0.000003 0.970913 0.171085 1 0 1.000000
File_cabinet_01
  0 9.555602 52.247990 1.936101 0.000000 -1.000000 -0.000003 0.970913 0.171085 1 0 1.000000
  0 8.444438 52.247990 2.136959 0.000000 -1.000000 -0.000003 0.970913 0.189672 1 0 1.000000
  0 9.439531 52.247990 1.670750 0.000000 -1.000000 -0.000001 0.965534 0.169338 1 0 1.000000
File_cabinet_01
  0 9.439531 52.247990 1.670750 0.000000 -1.000000 -0.000001 0.965534 0.169338 1 0 1.000000
  0 8.444438 52.247990 2.136959 0.000000 -1.000000 -0.000003 0.970913 0.189672 1 0 1.000000
  0 8.444496 52.247990 1.837918 0.000000 -1.000000 -0.000003 0.965534 0.189089 1 0 1.000000
File_cabinet_01
  0 8.436258 29.801834 1.788711 0.595625 0.000000 0.803262 0.848624 0.282767 1 0 1.000000
  0 8.436258 27.333879 1.788711 0.595625 0.000000 0.803262 0.848625 0.230602 1 0 1.000000
  0 8.683498 29.603701 1.605380 0.997720 0.000000 0.067490 0.853174 0.278062 1 0 1.000000
File_cabinet_01
  0 8.436258 27.333879 1.788711 0.595625 0.000000 0.803262 0.848625 0.230602 1 0 1.000000
  0 8.683498 27.532042 1.605380 0.997720 0.000000 0.067490 0.853174 0.235317 1 0 1.000000
  0 8.683498 29.603701 1.605380 0.997720 0.000000 0.067490 0.853174 0.278062 1 0 1.000000
File_cabinet_01
  0 8.683498 29.603701 1.605380 0.997720 0.000000 0.067490 0.853174 0.278062 1 0 1.000000
  0 8.683498 27.532042 1.605380 0.997720 0.000000 0.067490 0.853174 0.235317 1 0 1.000000
  0 8.509807 29.450026 1.435900 0.698377 0.000000 -0.715730 0.856915 0.274322 1 0 1.000000
File_cabinet_01
  0 8.683498 27.532042 1.605380 0.997720 0.000000 0.067490 0.853174 0.235317 1 0 1.000000
  0 8.509807 27.685715 1.435900 0.698377 0.000000 -0.715730 0.856915 0.239066 1 0 1.000000
  0 8.509807 29.450026 1.435900 0.698377 0.000000 -0.715730 0.856915 0.274322 1 0 1.000000
File_cabinet_01
  0 8.432162 47.059006 -7.138308 1.000000 0.000000 0.000002 0.624908 0.589084 1 0 1.000000
  0 8.432162 48.216068 -7.138308 1.000000 0.000000 0.000002 0.624908 0.603177 1 0 1.000000
  0 8.432157 48.216068 7.138309 1.000000 0.000000 0.000000 0.443770 0.603177 1 0 1.000000
File_cabinet_01
  0 8.432157 47.059006 7.138309 1.000000 0.000000 0.000000 0.443770 0.589084 1 0 1.000000
  0 8.432162 47.059006 -7.138308 1.000000 0.000000 0.000002 0.624908 0.589084 1 0 1.000000
  0 8.432157 48.216068 7.138309 1.000000 0.000000 0.000000 0.443770 0.603177 1 0 1.000000
File_cabinet_01
  0 8.432162 33.807163 -7.138308 1.000000 0.000000 0.000002 0.624908 0.427675 1 0 1.000000
  0 8.432162 47.059006 -7.138308 1.000000 0.000000 0.000002 0.624908 0.589084 1 0 1.000000
  0 8.432157 47.059006 7.138309 1.000000 0.000000 0.000000 0.443770 0.589084 1 0 1.000000
File_cabinet_01
  0 8.432157 33.807163 7.138309 1.000000 0.000000 0.000000 0.443770 0.427675 1 0 1.000000
  0 8.432162 33.807163 -7.138308 1.000000 0.000000 0.000002 0.624908 0.427675 1 0 1.000000
  0 8.432157 47.059006 7.138309 1.000000 0.000000 0.000000 0.443770 0.589084 1 0 1.000000
File_cabinet_01
  0 8.432157 32.650097 -7.138308 1.000000 0.000000 0.000002 0.624908 0.413582 1 0 1.000000
  0 8.432162 33.807163 -7.138308 1.000000 0.000000 0.000002 0.624908 0.427675 1 0 1.000000
  0 8.432157 33.807163 7.138309 1.000000 0.000000 0.000000 0.443770 0.427675 1 0 1.000000
File_cabinet_01
  0 8.432162 32.650097 7.138309 1.000000 0.000000 0.000000 0.443770 0.413582 1 0 1.000000
  0 8.432157 32.650097 -7.138308 1.000000 0.000000 0.000002 0.624908 0.413582 1 0 1.000000
  0 8.432157 33.807163 7.138309 1.000000 0.000000 0.000000 0.443770 0.427675 1 0 1.000000
File_cabinet_01
  0 8.432157 19.398260 -7.138308 1.000000 0.000000 0.000002 0.624908 0.252174 1 0 1.000000
  0 8.432157 32.650097 -7.138308 1.000000 0.000000 0.000002 0.624908 0.413582 1 0 1.000000
  0 8.432162 32.650097 7.138309 1.000000 0.000000 0.000000 0.443770 0.413582 1 0 1.000000
File_cabinet_01
  0 8.432162 19.398260 7.138309 1.000000 0.000005 0.000000 0.443770 0.252174 1 0 1.000000
  0 8.432157 19.398260 -7.138308 1.000000 0.000000 0.000002 0.624908 0.252174 1 0 1.000000
  0 8.432162 32.650097 7.138309 1.000000 0.000000 0.000000 0.443770 0.413582 1 0 1.000000
File_cabinet_01
  0 8.432162 18.241194 -7.138308 1.000000 0.000000 0.000002 0.624908 0.238080 1 0 1.000000
  0 8.432157 19.398260 -7.138308 1.000000 0.000000 0.000002 0.624908 0.252174 1 0 1.000000
  0 8.432162 19.398260 7.138309 1.000000 0.000005 0.000000 0.443770 0.252174 1 0 1.000000
File_cabinet_01
  0 8.432168 18.241194 7.138309 1.000000 0.000005 0.000000 0.443770 0.238080 1 0 1.000000
  0 8.432162 18.241194 -7.138308 1.000000 0.000000 0.000002 0.624908 0.238080 1 0 1.000000
  0 8.432162 19.398260 7.138309 1.000000 0.000005 0.000000 0.443770 0.252174 1 0 1.000000
File_cabinet_01
  0 8.432162 4.989351 -7.138308 1.000000 0.000000 0.000002 0.624908 0.076672 1 0 1.000000
  0 8.432162 18.241194 -7.138308 1.000000 0.000000 0.000002 0.624908 0.238080 1 0 1.000000
  0 8.432168 18.241194 7.138309 1.000000 0.000005 0.000000 0.443770 0.238080 1 0 1.000000
File_cabinet_01
  0 8.432168 4.989352 7.138309 1.000000 -0.000001 0.000000 0.443770 0.076672 1 0 1.000000
  0 8.432162 4.989351 -7.138308 1.000000 0.000000 0.000002 0.624908 0.076672 1 0 1.000000
  0 8.432168 18.241194 7.138309 1.000000 0.000005 0.000000 0.443770 0.238080 1 0 1.000000
File_cabinet_01
  0 8.432162 0.109838 -7.869660 1.000000 0.000000 0.000002 0.634187 0.017239 1 0 1.000000
  0 8.432162 4.989351 -7.138308 1.000000 0.000000 0.000002 0.624908 0.076672 1 0 1.000000
  0 8.432168 4.989352 7.138309 1.000000 -0.000001 0.000000 0.443770 0.076672 1 0 1.000000
File_cabinet_01
  0 8.432162 0.109839 7.869659 1.000000 -0.000001 0.000000 0.434491 0.017239 1 0 1.000000
  0 8.432162 0.109838 -7.869660 1.000000 0.000000 0.000002 0.634187 0.017239 1 0 1.000000
  0 8.432168 4.989352 7.138309 1.000000 -0.000001 0.000000 0.443770 0.076672 1 0 1.000000
File_cabinet_01
  0 8.432162 0.109839 7.869659 1.000000 -0.000001 0.000000 0.434491 0.017239 1 0 1.000000
  0 8.432168 4.989352 7.138309 1.000000 -0.000001 0.000000 0.443770 0.076672 1 0 1.000000
  0 8.432162 64.000801 7.869659 1.000000 -0.000001 0.000000 0.434491 0.795436 1 0 1.000000
File_cabinet_01
  0 8.432168 4.989352 7.138309 1.000000 -0.000001 0.000000 0.443770 0.076672 1 0 1.000000
  0 8.432168 18.241194 7.138309 1.000000 0.000005 0.000000 0.443770 0.238080 1 0 1.000000
  0 8.432162 64.000801 7.869659 1.000000 -0.000001 0.000000 0.434491 0.795436 1 0 1.000000
File_cabinet_01
  0 8.432168 18.241194 7.138309 1.000000 0.000005 0.000000 0.443770 0.238080 1 0 1.000000
  0 8.432162 19.398260 7.138309 1.000000 0.000005 0.000000 0.443770 0.252174 1 0 1.000000
  0 8.432162 64.000801 7.869659 1.000000 -0.000001 0.000000 0.434491 0.795436 1 0 1.000000
File_cabinet_01
  0 8.432162 19.398260 7.138309 1.000000 0.000005 0.000000 0.443770 0.252174 1 0 1.000000
  0 8.432162 32.650097 7.138309 1.000000 0.000000 0.000000 0.443770 0.413582 1 0 1.000000
  0 8.432162 64.000801 7.869659 1.000000 -0.000001 0.000000 0.434491 0.795436 1 0 1.000000
File_cabinet_01
  0 8.432162 32.650097 7.138309 1.000000 0.000000 0.000000 0.443770 0.413582 1 0 1.000000
  0 8.432157 33.807163 7.138309 1.000000 0.000000 0.000000 0.443770 0.427675 1 0 1.000000
  0 8.432162 64.000801 7.869659 1.000000 -0.000001 0.000000 0.434491 0.795436 1 0 1.000000
File_cabinet_01
  0 8.432157 33.807163 7.138309 1.000000 0.000000 0.000000 0.443770 0.427675 1 0 1.000000
  0 8.432157 47.059006 7.138309 1.000000 0.000000 0.000000 0.443770 0.589084 1 0 1.000000
  0 8.432162 64.000801 7.869659 1.000000 -0.000001 0.000000 0.434491 0.795436 1 0 1.000000
File_cabinet_01
  0 8.432157 47.059006 7.138309 1.000000 0.000000 0.000000 0.443770 0.589084 1 0 1.000000
  0 8.432157 48.216068 7.138309 1.000000 0.000000 0.000000 0.443770 0.603177 1 0 1.000000
  0 8.432162 64.000801 7.869659 1.000000 -0.000001 0.000000 0.434491 0.795436 1 0 1.000000
File_cabinet_01
  0 8.432157 61.467918 7.138309 1.000000 -0.000001 0.000000 0.443770 0.764586 1 0 1.000000
  0 8.432162 64.000801 7.869659 1.000000 -0.000001 0.000000 0.434491 0.795436 1 0 1.000000
  0 8.432157 48.216068 7.138309 1.000000 0.000000 0.000000 0.443770 0.603177 1 0 1.000000
File_cabinet_01
  0 8.432157 61.467918 7.138309 1.000000 -0.000001 0.000000 0.443770 0.764586 1 0 1.000000
  0 8.432162 61.467918 -7.138308 1.000000 0.000000 0.000002 0.624908 0.764586 1 0 1.000000
  0 8.432162 64.000801 7.869659 1.000000 -0.000001 0.000000 0.434491 0.795436 1 0 1.000000
File_cabinet_01
  0 8.432162 64.000801 -7.869660 1.000000 0.000000 0.000002 0.634187 0.795436 1 0 1.000000
  0 8.432162 64.000801 7.869659 1.000000 -0.000001 0.000000 0.434491 0.795436 1 0 1.000000
  0 8.432162 61.467918 -7.138308 1.000000 0.000000 0.000002 0.624908 0.764586 1 0 1.000000
File_cabinet_01
  0 8.432162 61.467918 -7.138308 1.000000 0.000000 0.000002 0.624908 0.764586 1 0 1.000000
  0 8.432162 48.216068 -7.138308 1.000000 0.000000 0.000002 0.624908 0.603177 1 0 1.000000
  0 8.432162 64.000801 -7.869660 1.000000 0.000000 0.000002 0.634187 0.795436 1 0 1.000000
File_cabinet_01
  0 8.432162 47.059006 -7.138308 1.000000 0.000000 0.000002 0.624908 0.589084 1 0 1.000000
  0 8.432162 64.000801 -7.869660 1.000000 0.000000 0.000002 0.634187 0.795436 1 0 1.000000
  0 8.432162 48.216068 -7.138308 1.000000 0.000000 0.000002 0.624908 0.603177 1 0 1.000000
File_cabinet_01
  0 8.432162 33.807163 -7.138308 1.000000 0.000000 0.000002 0.624908 0.427675 1 0 1.000000
  0 8.432162 64.000801 -7.869660 1.000000 0.000000 0.000002 0.634187 0.795436 1 0 1.000000
  0 8.432162 47.059006 -7.138308 1.000000 0.000000 0.000002 0.624908 0.589084 1 0 1.000000
File_cabinet_01
  0 8.432157 32.650097 -7.138308 1.000000 0.000000 0.000002 0.624908 0.413582 1 0 1.000000
  0 8.432162 64.000801 -7.869660 1.000000 0.000000 0.000002 0.634187 0.795436 1 0 1.000000
  0 8.432162 33.807163 -7.138308 1.000000 0.000000 0.000002 0.624908 0.427675 1 0 1.000000
File_cabinet_01
  0 8.432157 19.398260 -7.138308 1.000000 0.000000 0.000002 0.624908 0.252174 1 0 1.000000
  0 8.432162 64.000801 -7.869660 1.000000 0.000000 0.000002 0.634187 0.795436 1 0 1.000000
  0 8.432157 32.650097 -7.138308 1.000000 0.000000 0.000002 0.624908 0.413582 1 0 1.000000
File_cabinet_01
  0 8.432162 18.241194 -7.138308 1.000000 0.000000 0.000002 0.624908 0.238080 1 0 1.000000
  0 8.432162 64.000801 -7.869660 1.000000 0.000000 0.000002 0.634187 0.795436 1 0 1.000000
  0 8.432157 19.398260 -7.138308 1.000000 0.000000 0.000002 0.624908 0.252174 1 0 1.000000
File_cabinet_01
  0 8.432162 4.989351 -7.138308 1.000000 0.000000 0.000002 0.624908 0.076672 1 0 1.000000
  0 8.432162 64.000801 -7.869660 1.000000 0.000000 0.000002 0.634187 0.795436 1 0 1.000000
  0 8.432162 18.241194 -7.138308 1.000000 0.000000 0.000002 0.624908 0.238080 1 0 1.000000
File_cabinet_01
  0 8.432162 0.109838 -7.869660 1.000000 0.000000 0.000002 0.634187 0.017239 1 0 1.000000
  0 8.432162 64.000801 -7.869660 1.000000 0.000000 0.000002 0.634187 0.795436 1 0 1.000000
  0 8.432162 4.989351 -7.138308 1.000000 0.000000 0.000002 0.624908 0.076672 1 0 1.000000
File_cabinet_01
  0 9.439531 37.887051 1.670750 0.000000 -1.000000 0.000000 0.965534 0.169338 1 0 1.000000
  0 8.444438 37.887051 2.136959 0.000000 -1.000000 0.000000 0.970913 0.189672 1 0 1.000000
  0 8.444496 37.887051 1.837918 0.000000 -1.000000 0.000000 0.965534 0.189089 1 0 1.000000
File_cabinet_01
  0 9.555602 37.887051 1.936101 0.000000 -1.000000 0.000000 0.970913 0.171085 1 0 1.000000
  0 8.444438 37.887051 2.136959 0.000000 -1.000000 0.000000 0.970913 0.189672 1 0 1.000000
  0 9.439531 37.887051 1.670750 0.000000 -1.000000 0.000000 0.965534 0.169338 1 0 1.000000
File_cabinet_01
  0 9.439531 37.887051 1.670750 0.000000 -1.000000 0.000000 0.965534 0.169338 1 0 1.000000
  0 9.752177 37.887051 1.691765 0.000000 -1.000000 0.000000 0.970913 0.166814 1 0 1.000000
  0 9.555602 37.887051 1.936101 0.000000 -1.000000 0.000000 0.970913 0.171085 1 0 1.000000
File_cabinet_01
  0 9.439531 37.887051 -1.670714 0.000000 -1.000000 0.000000 0.965534 0.108812 1 0 1.000000
  0 9.752177 37.887051 1.691765 0.000000 -1.000000 0.000000 0.970913 0.166814 1 0 1.000000
  0 9.439531 37.887051 1.670750 0.000000 -1.000000 0.000000 0.965534 0.169338 1 0 1.000000
File_cabinet_01
  0 9.752177 37.887051 -1.691730 0.000000 -1.000000 0.000000 0.970913 0.111335 1 0 1.000000
  0 9.752177 37.887051 1.691765 0.000000 -1.000000 0.000000 0.970913 0.166814 1 0 1.000000
  0 9.439531 37.887051 -1.670714 0.000000 -1.000000 0.000000 0.965534 0.108812 1 0 1.000000
File_cabinet_01
  0 9.752177 37.887051 -1.691730 0.000000 -1.000000 0.000000 0.970913 0.111335 1 0 1.000000
  0 9.439531 37.887051 -1.670714 0.000000 -1.000000 0.000000 0.965534 0.108812 1 0 1.000000
  0 9.555602 37.887051 -1.936078 0.000000 -1.000000 0.000006 0.970913 0.107065 1 0 1.000000
File_cabinet_01
  0 9.555602 37.887051 -1.936078 0.000000 -1.000000 0.000006 0.970913 0.107065 1 0 1.000000
  0 9.439531 37.887051 -1.670714 0.000000 -1.000000 0.000000 0.965534 0.108812 1 0 1.000000
  0 8.444438 37.887051 -2.136912 0.000000 -1.000000 0.000006 0.970913 0.088478 1 0 1.000000
File_cabinet_01
  0 9.439531 37.887051 -1.670714 0.000000 -1.000000 0.000000 0.965534 0.108812 1 0 1.000000
  0 8.444496 37.887051 -1.837895 0.000000 -1.000000 0.000006 0.965534 0.089060 1 0 1.000000
  0 8.444438 37.887051 -2.136912 0.000000 -1.000000 0.000006 0.970913 0.088478 1 0 1.000000
File_cabinet_01
  0 -9.752189 0.109838 -7.869660 -1.000000 0.000000 0.000000 0.004078 0.017239 1 0 1.000000
  0 -9.752189 0.109839 7.869659 -1.000000 0.000000 0.000000 0.203774 0.017239 1 0 1.000000
  0 -9.752189 64.000801 -7.869660 -1.000000 0.000000 0.000000 0.004078 0.795436 1 0 1.000000
File_cabinet_01
  0 -9.752189 0.109839 7.869659 -1.000000 0.000000 0.000000 0.203774 0.017239 1 0 1.000000
  0 -9.752189 64.000801 7.869659 -1.000000 0.000000 0.000000 0.203774 0.795436 1 0 1.000000
  0 -9.752189 64.000801 -7.869660 -1.000000 0.000000 0.000000 0.004078 0.795436 1 0 1.000000
File_cabinet_01
  0 -9.752189 0.109838 -7.869660 0.000000 -1.000000 0.000000 0.457013 0.993250 1 0 1.000000
  0 8.432162 0.109838 -7.869660 0.000000 -1.000000 0.000000 0.457013 0.805042 1 0 1.000000
  0 -9.752189 0.109839 7.869659 0.000000 -1.000000 0.000000 0.619915 0.993250 1 0 1.000000
File_cabinet_01
  0 8.432162 0.109838 -7.869660 0.000000 -1.000000 0.000000 0.457013 0.805042 1 0 1.000000
  0 8.432162 0.109839 7.869659 0.000000 -1.000000 0.000000 0.619915 0.805042 1 0 1.000000
  0 -9.752189 0.109839 7.869659 0.000000 -1.000000 0.000000 0.619915 0.993250 1 0 1.000000
File_cabinet_01
  0 -9.752189 64.000801 7.869659 0.000000 1.000000 0.000000 0.203774 0.795436 1 0 1.000000
  0 8.432162 64.000801 7.869659 0.000000 1.000000 0.000000 0.434491 0.795436 1 0 1.000000
  0 -9.752189 64.000801 -7.869660 0.000000 1.000000 0.000000 0.203774 0.995132 1 0 1.000000
File_cabinet_01
  0 8.432162 64.000801 7.869659 0.000000 1.000000 0.000000 0.434491 0.795436 1 0 1.000000
  0 8.432162 64.000801 -7.869660 0.000000 1.000000 0.000000 0.434491 0.995132 1 0 1.000000
  0 -9.752189 64.000801 -7.869660 0.000000 1.000000 0.000000 0.203774 0.995132 1 0 1.000000
File_cabinet_01
  0 -9.752189 0.109839 7.869659 0.000000 0.000000 1.000000 0.203774 0.017239 1 0 1.000000
  0 8.432162 0.109839 7.869659 0.000000 0.000000 1.000000 0.434491 0.017239 1 0 1.000000
  0 -9.752189 64.000801 7.869659 0.000000 0.000000 1.000000 0.203774 0.795436 1 0 1.000000
File_cabinet_01
  0 8.432162 0.109839 7.869659 0.000000 0.000000 1.000000 0.434491 0.017239 1 0 1.000000
  0 8.432162 64.000801 7.869659 0.000000 0.000000 1.000000 0.434491 0.795436 1 0 1.000000
  0 -9.752189 64.000801 7.869659 0.000000 0.000000 1.000000 0.203774 0.795436 1 0 1.000000
File_cabinet_01
  0 -9.752189 0.109838 -7.869660 0.000000 0.000000 -1.000000 0.203774 0.017239 1 0 1.000000
  0 -9.752189 64.000801 -7.869660 0.000000 0.000000 -1.000000 0.203774 0.795436 1 0 1.000000
  0 8.432162 0.109838 -7.869660 0.000000 0.000000 -1.000000 0.434491 0.017239 1 0 1.000000
File_cabinet_01
  0 -9.752189 64.000801 -7.869660 0.000000 0.000000 -1.000000 0.203774 0.795436 1 0 1.000000
  0 8.432162 64.000801 -7.869660 0.000000 0.000000 -1.000000 0.434491 0.795436 1 0 1.000000
  0 8.432162 0.109838 -7.869660 0.000000 0.000000 -1.000000 0.434491 0.017239 1 0 1.000000
File_cabinet_01
  0 9.439531 37.887051 -1.670714 -0.165693 0.000000 0.986177 0.993627 0.108713 1 0 1.000000
  0 9.439531 38.390751 -1.670714 -0.165693 0.000000 0.986177 0.984959 0.108737 1 0 1.000000
  0 8.444496 37.887051 -1.837895 -0.165693 0.000000 0.986177 0.993627 0.089513 1 0 1.000000
File_cabinet_01
  0 9.439531 38.390751 -1.670714 -0.165693 0.000000 0.986177 0.984959 0.108737 1 0 1.000000
  0 8.444496 38.390751 -1.837895 -0.165693 0.000000 0.986177 0.984959 0.089286 1 0 1.000000
  0 8.444496 37.887051 -1.837895 -0.165693 0.000000 0.986177 0.993627 0.089513 1 0 1.000000
File_cabinet_01
  0 9.439531 38.390751 1.670750 -0.165681 0.000000 -0.986179 0.984959 0.169413 1 0 1.000000
  0 9.439531 37.887051 1.670750 -0.165681 0.000000 -0.986179 0.993627 0.169436 1 0 1.000000
  0 8.444496 38.390751 1.837918 -0.165681 0.000000 -0.986179 0.984959 0.188862 1 0 1.000000
File_cabinet_01
  0 9.439531 37.887051 1.670750 -0.165681 0.000000 -0.986179 0.993627 0.169436 1 0 1.000000
  0 8.444496 37.887051 1.837918 -0.165681 0.000000 -0.986179 0.993627 0.188636 1 0 1.000000
  0 8.444496 38.390751 1.837918 -0.165681 0.000000 -0.986179 0.984959 0.188862 1 0 1.000000
File_cabinet_01
  0 9.439531 38.390751 -1.670714 -1.000000 0.000000 0.000000 0.984959 0.108737 1 0 1.000000
  0 9.439531 37.887051 -1.670714 -1.000000 0.000000 0.000000 0.993627 0.108713 1 0 1.000000
  0 9.439531 38.390751 1.670750 -1.000000 0.000000 0.000000 0.984959 0.169413 1 0 1.000000
File_cabinet_01
  0 9.439531 37.887051 -1.670714 -1.000000 0.000000 0.000000 0.993627 0.108713 1 0 1.000000
  0 9.439531 37.887051 1.670750 -1.000000 0.000000 0.000000 0.993627 0.169436 1 0 1.000000
  0 9.439531 38.390751 1.670750 -1.000000 0.000000 0.000000 0.984959 0.169413 1 0 1.000000
File_cabinet_01
  0 8.436258 41.742786 1.788711 0.625402 -0.780303 -0.000001 0.848625 0.230602 1 0 1.000000
  0 8.436253 41.742786 -1.788711 0.625402 -0.780303 -0.000001 0.924101 0.230602 1 0 1.000000
  0 8.683498 41.940948 1.605380 0.999704 -0.024334 -0.000001 0.853174 0.235317 1 0 1.000000
File_cabinet_01
  0 8.436253 41.742786 -1.788711 0.625402 -0.780303 -0.000001 0.924101 0.230602 1 0 1.000000
  0 8.683498 41.940948 -1.605368 0.999704 -0.024334 -0.000001 0.919538 0.235317 1 0 1.000000
  0 8.683498 41.940948 1.605380 0.999704 -0.024334 -0.000001 0.853174 0.235317 1 0 1.000000
File_cabinet_01
  0 8.683498 41.940948 1.605380 0.999704 -0.024334 -0.000001 0.853174 0.235317 1 0 1.000000
  0 8.683498 41.940948 -1.605368 0.999704 -0.024334 -0.000001 0.919538 0.235317 1 0 1.000000
  0 8.509807 42.094620 1.435900 0.662626 0.748951 0.000000 0.856915 0.239066 1 0 1.000000
File_cabinet_01
  0 8.683498 41.940948 -1.605368 0.999704 -0.024334 -0.000001 0.919538 0.235317 1 0 1.000000
  0 8.509807 42.094620 -1.435900 0.662626 0.748951 0.000000 0.915788 0.239066 1 0 1.000000
  0 8.509807 42.094620 1.435900 0.662626 0.748951 0.000000 0.856915 0.239066 1 0 1.000000
File_cabinet_01
  0 8.436258 58.571674 -1.788711 0.625336 0.780355 0.000000 0.924101 0.282767 1 0 1.000000
  0 8.436253 58.571674 1.788711 0.625336 0.780355 0.000000 0.848624 0.282767 1 0 1.000000
  0 8.683498 58.373547 -1.605368 0.999703 0.024375 0.000001 0.919538 0.278062 1 0 1.000000
File_cabinet_01
  0 8.436253 58.571674 1.788711 0.625336 0.780355 0.000000 0.848624 0.282767 1 0 1.000000
  0 8.683498 58.373547 1.605380 0.999703 0.024375 0.000001 0.853174 0.278062 1 0 1.000000
  0 8.683498 58.373547 -1.605368 0.999703 0.024375 0.000001 0.919538 0.278062 1 0 1.000000
File_cabinet_01
  0 8.683498 58.373547 -1.605368 0.999703 0.024375 0.000001 0.919538 0.278062 1 0 1.000000
  0 8.683498 58.373547 1.605380 0.999703 0.024375 0.000001 0.853174 0.278062 1 0 1.000000
  0 8.509807 58.219875 -1.435900 0.662624 -0.748952 0.000000 0.915788 0.274321 1 0 1.000000
File_cabinet_01
  0 8.683498 58.373547 1.605380 0.999703 0.024375 0.000001 0.853174 0.278062 1 0 1.000000
  0 8.509807 58.219875 1.435900 0.662624 -0.748952 0.000000 0.856915 0.274322 1 0 1.000000
  0 8.509807 58.219875 -1.435900 0.662624 -0.748952 0.000000 0.915788 0.274321 1 0 1.000000
File_cabinet_01
  0 8.436258 44.210743 1.788711 0.595626 0.000000 0.803262 0.848624 0.282767 1 0 1.000000
  0 8.436258 41.742786 1.788711 0.595626 0.000000 0.803262 0.848625 0.230602 1 0 1.000000
  0 8.683498 44.012608 1.605380 0.997720 0.000000 0.067490 0.853174 0.278062 1 0 1.000000
File_cabinet_01
  0 8.436258 41.742786 1.788711 0.595626 0.000000 0.803262 0.848625 0.230602 1 0 1.000000
  0 8.683498 41.940948 1.605380 0.997720 0.000000 0.067490 0.853174 0.235317 1 0 1.000000
  0 8.683498 44.012608 1.605380 0.997720 0.000000 0.067490 0.853174 0.278062 1 0 1.000000
File_cabinet_01
  0 8.683498 44.012608 1.605380 0.997720 0.000000 0.067490 0.853174 0.278062 1 0 1.000000
  0 8.683498 41.940948 1.605380 0.997720 0.000000 0.067490 0.853174 0.235317 1 0 1.000000
  0 8.509807 43.858932 1.435900 0.698377 0.000000 -0.715730 0.856915 0.274322 1 0 1.000000
File_cabinet_01
  0 8.683498 41.940948 1.605380 0.997720 0.000000 0.067490 0.853174 0.235317 1 0 1.000000
  0 8.509807 42.094620 1.435900 0.698377 0.000000 -0.715730 0.856915 0.239066 1 0 1.000000
  0 8.509807 43.858932 1.435900 0.698377 0.000000 -0.715730 0.856915 0.274322 1 0 1.000000
File_cabinet_01
  0 8.436253 41.742786 -1.788711 0.595643 0.000000 -0.803249 0.924101 0.230602 1 0 1.000000
  0 8.436253 44.210743 -1.788711 0.595643 0.000000 -0.803249 0.924101 0.282767 1 0 1.000000
  0 8.683498 41.940948 -1.605368 0.997722 0.000000 -0.067461 0.919538 0.235317 1 0 1.000000
File_cabinet_01
  0 8.436253 44.210743 -1.788711 0.595643 0.000000 -0.803249 0.924101 0.282767 1 0 1.000000
  0 8.683498 44.012608 -1.605368 0.997722 0.000000 -0.067461 0.919538 0.278062 1 0 1.000000
  0 8.683498 41.940948 -1.605368 0.997722 0.000000 -0.067461 0.919538 0.235317 1 0 1.000000
File_cabinet_01
  0 8.683498 41.940948 -1.605368 0.997722 0.000000 -0.067461 0.919538 0.235317 1 0 1.000000
  0 8.683498 44.012608 -1.605368 0.997722 0.000000 -0.067461 0.919538 0.278062 1 0 1.000000
  0 8.509807 42.094620 -1.435900 0.698350 0.000000 0.715756 0.915788 0.239066 1 0 1.000000
File_cabinet_01
  0 8.683498 44.012608 -1.605368 0.997722 0.000000 -0.067461 0.919538 0.278062 1 0 1.000000
  0 8.509807 43.858932 -1.435900 0.698350 0.000000 0.715756 0.915788 0.274321 1 0 1.000000
  0 8.509807 42.094620 -1.435900 0.698350 0.000000 0.715756 0.915788 0.239066 1 0 1.000000
File_cabinet_01
  0 8.509807 43.858932 1.435900 1.000000 0.000000 0.000000 0.642300 0.537150 1 0 1.000000
  0 8.509807 42.094620 1.435900 1.000000 0.000000 0.000000 0.642300 0.485072 1 0 1.000000
  0 8.509807 43.858932 -1.435900 1.000000 0.000000 0.000000 0.723676 0.537150 1 0 1.000000
File_cabinet_01
  0 8.509807 42.094620 1.435900 1.000000 0.000000 0.000000 0.642300 0.485072 1 0 1.000000
  0 8.509807 42.094620 -1.435900 1.000000 0.000000 0.000000 0.723676 0.485072 1 0 1.000000
  0 8.509807 43.858932 -1.435900 1.000000 0.000000 0.000000 0.723676 0.537150 1 0 1.000000
File_cabinet_01
  0 9.439531 52.247990 -1.670714 -0.165692 0.000000 0.986177 0.993627 0.108713 1 0 1.000000
  0 9.439531 52.751690 -1.670714 -0.165692 0.000000 0.986177 0.984959 0.108737 1 0 1.000000
  0 8.444496 52.247990 -1.837895 -0.165692 0.000000 0.986177 0.993627 0.089513 1 0 1.000000
File_cabinet_01
  0 9.439531 52.751690 -1.670714 -0.165692 0.000000 0.986177 0.984959 0.108737 1 0 1.000000
  0 8.444496 52.751690 -1.837895 -0.165692 0.000000 0.986177 0.984959 0.089286 1 0 1.000000
  0 8.444496 52.247990 -1.837895 -0.165692 0.000000 0.986177 0.993627 0.089513 1 0 1.000000
File_cabinet_01
  0 9.439531 52.751690 1.670750 -0.165681 0.000000 -0.986179 0.984959 0.169413 1 0 1.000000
  0 9.439531 52.247990 1.670750 -0.165681 0.000000 -0.986179 0.993627 0.169436 1 0 1.000000
  0 8.444496 52.751690 1.837918 -0.165681 0.000000 -0.986179 0.984959 0.188862 1 0 1.000000
File_cabinet_01
  0 9.439531 52.247990 1.670750 -0.165681 0.000000 -0.986179 0.993627 0.169436 1 0 1.000000
  0 8.444496 52.247990 1.837918 -0.165681 0.000000 -0.986179 0.993627 0.188636 1 0 1.000000
  0 8.444496 52.751690 1.837918 -0.165681 0.000000 -0.986179 0.984959 0.188862 1 0 1.000000
File_cabinet_01
  0 8.436258 15.392931 -1.788711 0.625352 0.780342 0.000000 0.924101 0.282767 1 0 1.000000
  0 8.436258 15.392931 1.788711 0.625352 0.780342 0.000000 0.848624 0.282767 1 0 1.000000
  0 8.683498 15.194798 -1.605368 0.999703 0.024369 0.000000 0.919538 0.278062 1 0 1.000000
File_cabinet_01
  0 8.436258 15.392931 1.788711 0.625352 0.780342 0.000000 0.848624 0.282767 1 0 1.000000
  0 8.683498 15.194798 1.605380 0.999703 0.024369 0.000000 0.853174 0.278062 1 0 1.000000
  0 8.683498 15.194798 -1.605368 0.999703 0.024369 0.000000 0.919538 0.278062 1 0 1.000000
File_cabinet_01
  0 8.683498 15.194798 -1.605368 0.999703 0.024369 0.000000 0.919538 0.278062 1 0 1.000000
  0 8.683498 15.194798 1.605380 0.999703 0.024369 0.000000 0.853174 0.278062 1 0 1.000000
  0 8.509807 15.041123 -1.435900 0.662631 -0.748946 0.000000 0.915788 0.274321 1 0 1.000000
File_cabinet_01
  0 8.683498 15.194798 1.605380 0.999703 0.024369 0.000000 0.853174 0.278062 1 0 1.000000
  0 8.509807 15.041123 1.435900 0.662631 -0.748946 0.000000 0.856915 0.274322 1 0 1.000000
  0 8.509807 15.041123 -1.435900 0.662631 -0.748946 0.000000 0.915788 0.274321 1 0 1.000000
File_cabinet_01
  0 8.436253 44.210743 -1.788711 0.625351 0.780343 0.000000 0.924101 0.282767 1 0 1.000000
  0 8.436258 44.210743 1.788711 0.625351 0.780343 0.000000 0.848624 0.282767 1 0 1.000000
  0 8.683498 44.012608 -1.605368 0.999703 0.024372 0.000000 0.919538 0.278062 1 0 1.000000
File_cabinet_01
  0 8.436258 44.210743 1.788711 0.625351 0.780343 0.000000 0.848624 0.282767 1 0 1.000000
  0 8.683498 44.012608 1.605380 0.999703 0.024372 0.000000 0.853174 0.278062 1 0 1.000000
  0 8.683498 44.012608 -1.605368 0.999703 0.024372 0.000000 0.919538 0.278062 1 0 1.000000
File_cabinet_01
  0 8.683498 44.012608 -1.605368 0.999703 0.024372 0.000000 0.919538 0.278062 1 0 1.000000
  0 8.683498 44.012608 1.605380 0.999703 0.024372 0.000000 0.853174 0.278062 1 0 1.000000
  0 8.509807 43.858932 -1.435900 0.662634 -0.748944 0.000000 0.915788 0.274321 1 0 1.000000
File_cabinet_01
  0 8.683498 44.012608 1.605380 0.999703 0.024372 0.000000 0.853174 0.278062 1 0 1.000000
  0 8.509807 43.858932 1.435900 0.662634 -0.748944 0.000000 0.856915 0.274322 1 0 1.000000
  0 8.509807 43.858932 -1.435900 0.662634 -0.748944 0.000000 0.915788 0.274321 1 0 1.000000
end
