// Created by Crowbar 0.74
version 1
nodes
  0 "File_cabinet_01" -1
end
skeleton
  time 0
    0 0.000000 0.000000 0.000000 0.000000 0.000000 0.000000
end
triangles
  phy
    0 -9.771894 7.929490 64.065588 -0.483881 -0.239509 -0.841721 0 0
    0 8.461850 7.929492 64.065588 -0.751265 -0.092964 0.653421 0 0
    0 -9.771894 7.929493 -0.014412 -0.894295 0.221327 -0.388911 0 0
  phy
    0 -9.771894 7.929493 -0.014412 -0.894295 0.221327 -0.388911 0 0
    0 8.461850 7.929492 64.065588 -0.751265 -0.092964 0.653421 0 0
    0 8.461850 7.929495 -0.014412 -0.741711 0.183564 0.645111 0 0
  phy
    0 -9.771894 -7.929497 64.065588 0.911189 -0.112754 -0.396258 0 0
    0 8.461850 -7.929496 64.065588 0.706845 -0.349870 0.614786 0 0
    0 -9.771894 7.929490 64.065588 -0.483881 -0.239509 -0.841721 0 0
  phy
    0 8.461850 -7.929496 64.065588 0.706845 -0.349870 0.614786 0 0
    0 8.461850 7.929492 64.065588 -0.751265 -0.092964 0.653421 0 0
    0 -9.771894 7.929490 64.065588 -0.483881 -0.239509 -0.841721 0 0
  phy
    0 -9.771894 -7.929497 64.065588 0.911189 -0.112754 -0.396258 0 0
    0 -9.771894 7.929490 64.065588 -0.483881 -0.239509 -0.841721 0 0
    0 -9.771894 -7.929494 -0.014412 0.494639 0.122417 -0.860434 0 0
  phy
    0 -9.771894 -7.929494 -0.014412 0.494639 0.122417 -0.860434 0 0
    0 -9.771894 7.929490 64.065588 -0.483881 -0.239509 -0.841721 0 0
    0 -9.771894 7.929493 -0.014412 -0.894295 0.221327 -0.388911 0 0
  phy
    0 8.461850 -7.929496 64.065588 0.706845 -0.349870 0.614786 0 0
    0 8.461850 -7.929493 -0.014412 0.741711 0.183564 0.645111 0 0
    0 8.461850 7.929492 64.065588 -0.751265 -0.092964 0.653421 0 0
  phy
    0 8.461850 -7.929493 -0.014412 0.741711 0.183564 0.645111 0 0
    0 8.461850 7.929495 -0.014412 -0.741711 0.183564 0.645111 0 0
    0 8.461850 7.929492 64.065588 -0.751265 -0.092964 0.653421 0 0
  phy
    0 -9.771894 7.929493 -0.014412 -0.894295 0.221327 -0.388911 0 0
    0 8.461850 7.929495 -0.014412 -0.741711 0.183564 0.645111 0 0
    0 8.461850 -7.929493 -0.014412 0.741711 0.183564 0.645111 0 0
  phy
    0 -9.771894 7.929493 -0.014412 -0.894295 0.221327 -0.388911 0 0
    0 8.461850 -7.929493 -0.014412 0.741711 0.183564 0.645111 0 0
    0 -9.771894 -7.929494 -0.014412 0.494639 0.122417 -0.860434 0 0
  phy
    0 8.461850 -7.929496 64.065588 0.706845 -0.349870 0.614786 0 0
    0 -9.771894 -7.929497 64.065588 0.911189 -0.112754 -0.396258 0 0
    0 8.461850 -7.929493 -0.014412 0.741711 0.183564 0.645111 0 0
  phy
    0 8.461850 -7.929493 -0.014412 0.741711 0.183564 0.645111 0 0
    0 -9.771894 -7.929497 64.065588 0.911189 -0.112754 -0.396258 0 0
    0 -9.771894 -7.929494 -0.014412 0.494639 0.122417 -0.860434 0 0
end
