// Created by Crowbar 0.74
version 1
nodes
  0 "polySurface1" -1
end
skeleton
  time 0
    0 0.000000 0.000000 0.000000 0.000000 0.000000 0.000000
end
triangles
tv_01
  0 -13.825124 3.297827 -3.449200 -0.476500 -0.738847 -0.476501 0.924173 0.605523 1 0 1.000000
  0 -13.825124 3.494621 -3.646000 -0.241811 -0.241817 -0.939708 0.924173 0.603123 1 0 1.000000
  0 13.847769 3.297827 -3.449200 0.476509 -0.738841 -0.476500 0.586802 0.605523 1 0 1.000000
tv_01
  0 13.847769 3.297827 -3.449200 0.476509 -0.738841 -0.476500 0.586802 0.605523 1 0 1.000000
  0 -13.825124 3.494621 -3.646000 -0.241811 -0.241817 -0.939708 0.924173 0.603123 1 0 1.000000
  0 13.847769 3.494621 -3.646000 0.241815 -0.241816 -0.939708 0.586802 0.603123 1 0 1.000000
tv_01
  0 11.534052 4.127550 -3.646000 0.365190 -0.886759 -0.283362 0.016247 0.976150 1 0 1.000000
  0 9.423353 6.800488 -14.735792 0.326293 -0.762169 -0.559134 0.073310 0.743167 1 0 1.000000
  0 12.229162 4.822660 -3.646000 0.941971 -0.240167 -0.234543 0.030863 0.976204 1 0 1.000000
tv_01
  0 12.229162 4.822660 -3.646000 0.941971 -0.240167 -0.234543 0.030863 0.976204 1 0 1.000000
  0 9.423353 6.800488 -14.735792 0.326293 -0.762169 -0.559134 0.073310 0.743167 1 0 1.000000
  0 10.131501 7.513083 -14.728567 0.841706 -0.259602 -0.473431 0.088294 0.743374 1 0 1.000000
tv_01
  0 10.613134 22.894400 -11.825563 0.896138 0.322160 -0.305205 0.411366 0.805242 1 0 1.000000
  0 10.131501 7.513083 -14.728567 0.841706 -0.259602 -0.473431 0.088294 0.743374 1 0 1.000000
  0 10.140825 21.409164 -14.730381 0.768274 0.271178 -0.579842 0.383971 0.742354 1 0 1.000000
tv_01
  0 11.569390 24.513470 -7.393376 0.893862 0.351452 -0.278373 0.445332 0.899295 1 0 1.000000
  0 10.131501 7.513083 -14.728567 0.841706 -0.259602 -0.473431 0.088294 0.743374 1 0 1.000000
  0 10.613134 22.894400 -11.825563 0.896138 0.322160 -0.305205 0.411366 0.805242 1 0 1.000000
tv_01
  0 12.229162 4.822660 -3.646000 0.941971 -0.240167 -0.234543 0.030863 0.976204 1 0 1.000000
  0 10.131501 7.513083 -14.728567 0.841706 -0.259602 -0.473431 0.088294 0.743374 1 0 1.000000
  0 11.569390 24.513470 -7.393376 0.893862 0.351452 -0.278373 0.445332 0.899295 1 0 1.000000
tv_01
  0 12.229162 4.822660 -3.646000 0.941971 -0.240167 -0.234543 0.030863 0.976204 1 0 1.000000
  0 11.569390 24.513470 -7.393376 0.893862 0.351452 -0.278373 0.445332 0.899295 1 0 1.000000
  0 12.229162 25.521372 -3.646000 0.893190 0.368425 -0.257825 0.469962 0.977635 1 0 1.000000
tv_01
  0 -11.511414 4.127550 -3.646000 -0.365191 -0.886759 -0.283362 1.024916 0.973917 1 0 1.000000
  0 -9.400716 6.800488 -14.735792 -0.326294 -0.762168 -0.559135 1.062561 0.776127 1 0 1.000000
  0 11.534052 4.127550 -3.646000 0.365190 -0.886759 -0.283362 1.435940 0.973917 1 0 1.000000
tv_01
  0 11.534052 4.127550 -3.646000 0.365190 -0.886759 -0.283362 1.435940 0.973917 1 0 1.000000
  0 -9.400716 6.800488 -14.735792 -0.326294 -0.762168 -0.559135 1.062561 0.776127 1 0 1.000000
  0 9.423353 6.800488 -14.735792 0.326293 -0.762169 -0.559134 1.398295 0.776127 1 0 1.000000
tv_01
  0 -11.546757 24.513470 -7.393376 -0.893862 0.351452 -0.278373 0.969328 0.916246 1 0 1.000000
  0 -10.764610 25.177299 -7.587482 -0.365665 0.865930 -0.341254 0.955914 0.916336 1 0 1.000000
  0 -10.590488 22.894400 -11.825563 -0.896138 0.322159 -0.305204 0.953270 0.829520 1 0 1.000000
tv_01
  0 -9.399076 22.154850 -14.792709 -0.324297 0.656140 -0.681404 0.930102 0.780209 1 0 1.000000
  0 -10.590488 22.894400 -11.825563 -0.896138 0.322159 -0.305204 0.953270 0.829520 1 0 1.000000
  0 -9.945111 23.525990 -12.112656 -0.374860 0.821567 -0.429543 0.940660 0.831916 1 0 1.000000
tv_01
  0 -10.590488 22.894400 -11.825563 -0.896138 0.322159 -0.305204 0.953270 0.829520 1 0 1.000000
  0 -10.764610 25.177299 -7.587482 -0.365665 0.865930 -0.341254 0.955914 0.916336 1 0 1.000000
  0 -9.945111 23.525990 -12.112656 -0.374860 0.821567 -0.429543 0.940660 0.831916 1 0 1.000000
tv_01
  0 -10.764610 25.177299 -7.587482 -0.365665 0.865930 -0.341254 0.955914 0.916336 1 0 1.000000
  0 9.967749 23.525990 -12.112656 0.374860 0.821567 -0.429543 0.571093 0.831916 1 0 1.000000
  0 -9.945111 23.525990 -12.112656 -0.374860 0.821567 -0.429543 0.940660 0.831916 1 0 1.000000
tv_01
  0 9.967749 23.525990 -12.112656 0.374860 0.821567 -0.429543 0.571093 0.831916 1 0 1.000000
  0 9.421721 22.154850 -14.792709 0.324296 0.656140 -0.681405 0.581651 0.780209 1 0 1.000000
  0 -9.945111 23.525990 -12.112656 -0.374860 0.821567 -0.429543 0.940660 0.831916 1 0 1.000000
tv_01
  0 -9.945111 23.525990 -12.112656 -0.374860 0.821567 -0.429543 0.940660 0.831916 1 0 1.000000
  0 9.421721 22.154850 -14.792709 0.324296 0.656140 -0.681405 0.581651 0.780209 1 0 1.000000
  0 -9.399076 22.154850 -14.792709 -0.324297 0.656140 -0.681404 0.930102 0.780209 1 0 1.000000
tv_01
  0 9.307119 21.143141 -15.411535 0.305704 0.252803 -0.917952 0.583471 0.762944 1 0 1.000000
  0 -9.399076 22.154850 -14.792709 -0.324297 0.656140 -0.681404 0.930102 0.780209 1 0 1.000000
  0 9.421721 22.154850 -14.792709 0.324296 0.656140 -0.681405 0.581651 0.780209 1 0 1.000000
tv_01
  0 -9.284475 21.143141 -15.411535 -0.305704 0.252804 -0.917952 0.928283 0.762944 1 0 1.000000
  0 -9.399076 22.154850 -14.792709 -0.324297 0.656140 -0.681404 0.930102 0.780209 1 0 1.000000
  0 9.307119 21.143141 -15.411535 0.305704 0.252803 -0.917952 0.583471 0.762944 1 0 1.000000
tv_01
  0 9.307119 7.658476 -15.411551 0.312967 -0.305627 -0.899246 0.583471 0.512850 1 0 1.000000
  0 -9.284475 21.143141 -15.411535 -0.305704 0.252804 -0.917952 0.928283 0.762944 1 0 1.000000
  0 9.307119 21.143141 -15.411535 0.305704 0.252803 -0.917952 0.583471 0.762944 1 0 1.000000
tv_01
  0 -9.284475 7.658476 -15.411551 -0.312966 -0.305626 -0.899247 0.928282 0.512850 1 0 1.000000
  0 -9.284475 21.143141 -15.411535 -0.305704 0.252804 -0.917952 0.928283 0.762944 1 0 1.000000
  0 9.307119 7.658476 -15.411551 0.312967 -0.305627 -0.899246 0.583471 0.512850 1 0 1.000000
tv_01
  0 -12.206524 25.521372 -3.646000 -0.893190 0.368427 -0.257824 0.985489 0.986851 1 0 1.000000
  0 -11.511414 26.216484 -3.646000 -0.357655 0.884499 -0.299574 0.969585 0.988441 1 0 1.000000
  0 -11.546757 24.513470 -7.393376 -0.893862 0.351452 -0.278373 0.969328 0.916246 1 0 1.000000
tv_01
  0 -11.546757 24.513470 -7.393376 -0.893862 0.351452 -0.278373 0.969328 0.916246 1 0 1.000000
  0 -11.511414 26.216484 -3.646000 -0.357655 0.884499 -0.299574 0.969585 0.988441 1 0 1.000000
  0 -10.764610 25.177299 -7.587482 -0.365665 0.865930 -0.341254 0.955914 0.916336 1 0 1.000000
tv_01
  0 -10.764610 25.177299 -7.587482 -0.365665 0.865930 -0.341254 0.955914 0.916336 1 0 1.000000
  0 -11.511414 26.216484 -3.646000 -0.357655 0.884499 -0.299574 0.969585 0.988441 1 0 1.000000
  0 10.787252 25.177299 -7.587482 0.365666 0.865930 -0.341254 0.555839 0.916335 1 0 1.000000
tv_01
  0 10.787252 25.177299 -7.587482 0.365666 0.865930 -0.341254 0.555839 0.916335 1 0 1.000000
  0 9.967749 23.525990 -12.112656 0.374860 0.821567 -0.429543 0.571093 0.831916 1 0 1.000000
  0 -10.764610 25.177299 -7.587482 -0.365665 0.865930 -0.341254 0.955914 0.916336 1 0 1.000000
tv_01
  0 10.787252 25.177299 -7.587482 0.365666 0.865930 -0.341254 0.555839 0.916335 1 0 1.000000
  0 10.613134 22.894400 -11.825563 0.896138 0.322160 -0.305205 0.558483 0.829520 1 0 1.000000
  0 9.967749 23.525990 -12.112656 0.374860 0.821567 -0.429543 0.571093 0.831916 1 0 1.000000
tv_01
  0 9.967749 23.525990 -12.112656 0.374860 0.821567 -0.429543 0.571093 0.831916 1 0 1.000000
  0 10.613134 22.894400 -11.825563 0.896138 0.322160 -0.305205 0.558483 0.829520 1 0 1.000000
  0 9.421721 22.154850 -14.792709 0.324296 0.656140 -0.681405 0.581651 0.780209 1 0 1.000000
tv_01
  0 9.421721 22.154850 -14.792709 0.324296 0.656140 -0.681405 0.581651 0.780209 1 0 1.000000
  0 10.613134 22.894400 -11.825563 0.896138 0.322160 -0.305205 0.558483 0.829520 1 0 1.000000
  0 10.140825 21.409164 -14.730381 0.768274 0.271178 -0.579842 0.565655 0.769444 1 0 1.000000
tv_01
  0 9.307119 21.143141 -15.411535 0.305704 0.252803 -0.917952 0.583471 0.762944 1 0 1.000000
  0 9.421721 22.154850 -14.792709 0.324296 0.656140 -0.681405 0.581651 0.780209 1 0 1.000000
  0 10.140825 21.409164 -14.730381 0.768274 0.271178 -0.579842 0.565655 0.769444 1 0 1.000000
tv_01
  0 10.131501 7.513083 -14.728567 0.841706 -0.259602 -0.473431 0.568182 0.510153 1 0 1.000000
  0 9.307119 21.143141 -15.411535 0.305704 0.252803 -0.917952 0.583471 0.762944 1 0 1.000000
  0 10.140825 21.409164 -14.730381 0.768274 0.271178 -0.579842 0.565655 0.769444 1 0 1.000000
tv_01
  0 9.307119 7.658476 -15.411551 0.312967 -0.305627 -0.899246 0.583471 0.512850 1 0 1.000000
  0 9.307119 21.143141 -15.411535 0.305704 0.252803 -0.917952 0.583471 0.762944 1 0 1.000000
  0 10.131501 7.513083 -14.728567 0.841706 -0.259602 -0.473431 0.568182 0.510153 1 0 1.000000
tv_01
  0 9.307119 7.658476 -15.411551 0.312967 -0.305627 -0.899246 0.583471 0.512850 1 0 1.000000
  0 10.131501 7.513083 -14.728567 0.841706 -0.259602 -0.473431 0.568182 0.510153 1 0 1.000000
  0 9.423353 6.800488 -14.735792 0.326293 -0.762169 -0.559134 0.581316 0.496937 1 0 1.000000
tv_01
  0 9.307119 7.658476 -15.411551 0.312967 -0.305627 -0.899246 0.583471 0.512850 1 0 1.000000
  0 9.423353 6.800488 -14.735792 0.326293 -0.762169 -0.559134 0.581316 0.496937 1 0 1.000000
  0 -9.284475 7.658476 -15.411551 -0.312966 -0.305626 -0.899247 0.928282 0.512850 1 0 1.000000
tv_01
  0 -9.284475 7.658476 -15.411551 -0.312966 -0.305626 -0.899247 0.928282 0.512850 1 0 1.000000
  0 9.423353 6.800488 -14.735792 0.326293 -0.762169 -0.559134 0.581316 0.496937 1 0 1.000000
  0 -9.400716 6.800488 -14.735792 -0.326294 -0.762168 -0.559135 0.930437 0.496937 1 0 1.000000
tv_01
  0 -10.108860 7.513083 -14.728567 -0.841706 -0.259601 -0.473432 0.943571 0.510153 1 0 1.000000
  0 -9.284475 7.658476 -15.411551 -0.312966 -0.305626 -0.899247 0.928282 0.512850 1 0 1.000000
  0 -9.400716 6.800488 -14.735792 -0.326294 -0.762168 -0.559135 0.930437 0.496937 1 0 1.000000
tv_01
  0 -9.284475 7.658476 -15.411551 -0.312966 -0.305626 -0.899247 0.928282 0.512850 1 0 1.000000
  0 -10.108860 7.513083 -14.728567 -0.841706 -0.259601 -0.473432 0.943571 0.510153 1 0 1.000000
  0 -9.284475 21.143141 -15.411535 -0.305704 0.252804 -0.917952 0.928283 0.762944 1 0 1.000000
tv_01
  0 -9.284475 21.143141 -15.411535 -0.305704 0.252804 -0.917952 0.928283 0.762944 1 0 1.000000
  0 -10.108860 7.513083 -14.728567 -0.841706 -0.259601 -0.473432 0.943571 0.510153 1 0 1.000000
  0 -10.118185 21.409164 -14.730381 -0.768274 0.271178 -0.579842 0.946098 0.769444 1 0 1.000000
tv_01
  0 -9.399076 22.154850 -14.792709 -0.324297 0.656140 -0.681404 0.930102 0.780209 1 0 1.000000
  0 -9.284475 21.143141 -15.411535 -0.305704 0.252804 -0.917952 0.928283 0.762944 1 0 1.000000
  0 -10.118185 21.409164 -14.730381 -0.768274 0.271178 -0.579842 0.946098 0.769444 1 0 1.000000
tv_01
  0 -10.118185 21.409164 -14.730381 -0.768274 0.271178 -0.579842 0.946098 0.769444 1 0 1.000000
  0 -10.590488 22.894400 -11.825563 -0.896138 0.322159 -0.305204 0.953270 0.829520 1 0 1.000000
  0 -9.399076 22.154850 -14.792709 -0.324297 0.656140 -0.681404 0.930102 0.780209 1 0 1.000000
tv_01
  0 11.569390 24.513470 -7.393376 0.893862 0.351452 -0.278373 0.542426 0.916245 1 0 1.000000
  0 10.613134 22.894400 -11.825563 0.896138 0.322160 -0.305205 0.558483 0.829520 1 0 1.000000
  0 10.787252 25.177299 -7.587482 0.365666 0.865930 -0.341254 0.555839 0.916335 1 0 1.000000
tv_01
  0 11.534052 26.216484 -3.646000 0.357657 0.884498 -0.299575 0.542169 0.988441 1 0 1.000000
  0 11.569390 24.513470 -7.393376 0.893862 0.351452 -0.278373 0.542426 0.916245 1 0 1.000000
  0 10.787252 25.177299 -7.587482 0.365666 0.865930 -0.341254 0.555839 0.916335 1 0 1.000000
tv_01
  0 10.787252 25.177299 -7.587482 0.365666 0.865930 -0.341254 0.555839 0.916335 1 0 1.000000
  0 -11.511414 26.216484 -3.646000 -0.357655 0.884499 -0.299574 0.969585 0.988441 1 0 1.000000
  0 11.534052 26.216484 -3.646000 0.357657 0.884498 -0.299575 0.542169 0.988441 1 0 1.000000
tv_01
  0 12.229162 25.521372 -3.646000 0.893190 0.368425 -0.257825 0.526264 0.986851 1 0 1.000000
  0 11.569390 24.513470 -7.393376 0.893862 0.351452 -0.278373 0.542426 0.916245 1 0 1.000000
  0 11.534052 26.216484 -3.646000 0.357657 0.884498 -0.299575 0.542169 0.988441 1 0 1.000000
tv_01
  0 -9.400716 6.800488 -14.735792 -0.326294 -0.762168 -0.559135 0.073311 0.743166 1 0 1.000000
  0 -12.206524 4.822660 -3.646000 -0.941971 -0.240167 -0.234543 0.030864 0.976203 1 0 1.000000
  0 -10.108860 7.513083 -14.728567 -0.841706 -0.259601 -0.473432 0.088295 0.743373 1 0 1.000000
tv_01
  0 -11.511414 4.127550 -3.646000 -0.365191 -0.886759 -0.283362 0.016248 0.976149 1 0 1.000000
  0 -12.206524 4.822660 -3.646000 -0.941971 -0.240167 -0.234543 0.030864 0.976203 1 0 1.000000
  0 -9.400716 6.800488 -14.735792 -0.326294 -0.762168 -0.559135 0.073311 0.743166 1 0 1.000000
tv_01
  0 -10.108860 7.513083 -14.728567 -0.841706 -0.259601 -0.473432 0.088295 0.743373 1 0 1.000000
  0 -10.590488 22.894400 -11.825563 -0.896138 0.322159 -0.305204 0.411367 0.805242 1 0 1.000000
  0 -10.118185 21.409164 -14.730381 -0.768274 0.271178 -0.579842 0.383972 0.742353 1 0 1.000000
tv_01
  0 -10.108860 7.513083 -14.728567 -0.841706 -0.259601 -0.473432 0.088295 0.743373 1 0 1.000000
  0 -11.546757 24.513470 -7.393376 -0.893862 0.351452 -0.278373 0.445332 0.899295 1 0 1.000000
  0 -10.590488 22.894400 -11.825563 -0.896138 0.322159 -0.305204 0.411367 0.805242 1 0 1.000000
tv_01
  0 -12.206524 4.822660 -3.646000 -0.941971 -0.240167 -0.234543 0.030864 0.976203 1 0 1.000000
  0 -11.546757 24.513470 -7.393376 -0.893862 0.351452 -0.278373 0.445332 0.899295 1 0 1.000000
  0 -10.108860 7.513083 -14.728567 -0.841706 -0.259601 -0.473432 0.088295 0.743373 1 0 1.000000
tv_01
  0 -12.206524 25.521372 -3.646000 -0.893190 0.368427 -0.257824 0.469963 0.977635 1 0 1.000000
  0 -11.546757 24.513470 -7.393376 -0.893862 0.351452 -0.278373 0.445332 0.899295 1 0 1.000000
  0 -12.206524 4.822660 -3.646000 -0.941971 -0.240167 -0.234543 0.030864 0.976203 1 0 1.000000
tv_01
  0 14.044563 3.494621 -3.449200 0.854765 -0.367004 -0.366994 0.783527 0.009394 1 0 1.000000
  0 13.847769 3.297827 -3.449200 0.476509 -0.738841 -0.476500 0.783527 0.005622 1 0 1.000000
  0 13.847769 3.494621 -3.646000 0.241815 -0.241816 -0.939708 0.787300 0.005622 1 0 1.000000
tv_01
  0 13.850755 28.137827 8.219650 0.478230 0.353967 0.803743 0.559853 0.481769 1 0 1.000000
  0 14.044563 3.494624 7.988647 0.874626 -0.353983 0.331248 0.564281 0.009394 1 0 1.000000
  0 14.044563 28.137827 7.988647 0.874629 0.353974 0.331250 0.564281 0.481769 1 0 1.000000
tv_01
  0 13.847769 28.334627 8.020348 0.415818 0.839878 0.348855 0.563673 0.485541 1 0 1.000000
  0 13.850755 28.137827 8.219650 0.478230 0.353967 0.803743 0.559853 0.481769 1 0 1.000000
  0 14.044563 28.137827 7.988647 0.874629 0.353974 0.331250 0.564281 0.481769 1 0 1.000000
tv_01
  0 14.044563 28.137827 7.988647 0.874629 0.353974 0.331250 0.564281 0.481769 1 0 1.000000
  0 13.847769 28.334627 -3.449200 0.367007 0.854760 -0.367002 0.783527 0.485541 1 0 1.000000
  0 13.847769 28.334627 8.020348 0.415818 0.839878 0.348855 0.563673 0.485541 1 0 1.000000
tv_01
  0 14.044563 28.137827 -3.449200 0.854768 0.366995 -0.366996 0.783527 0.481768 1 0 1.000000
  0 13.847769 28.334627 -3.449200 0.367007 0.854760 -0.367002 0.783527 0.485541 1 0 1.000000
  0 14.044563 28.137827 7.988647 0.874629 0.353974 0.331250 0.564281 0.481769 1 0 1.000000
tv_01
  0 14.044563 28.137827 -3.449200 0.854768 0.366995 -0.366996 0.783527 0.481768 1 0 1.000000
  0 13.847769 28.137827 -3.646000 0.241815 0.241810 -0.939709 0.787300 0.481768 1 0 1.000000
  0 13.847769 28.334627 -3.449200 0.367007 0.854760 -0.367002 0.783527 0.485541 1 0 1.000000
tv_01
  0 13.847769 28.137827 -3.646000 0.241815 0.241810 -0.939709 0.787300 0.481768 1 0 1.000000
  0 14.044563 28.137827 -3.449200 0.854768 0.366995 -0.366996 0.783527 0.481768 1 0 1.000000
  0 13.847769 3.494621 -3.646000 0.241815 -0.241816 -0.939708 0.787300 0.009394 1 0 1.000000
tv_01
  0 13.847769 3.494621 -3.646000 0.241815 -0.241816 -0.939708 0.787300 0.009394 1 0 1.000000
  0 14.044563 28.137827 -3.449200 0.854768 0.366995 -0.366996 0.783527 0.481768 1 0 1.000000
  0 14.044563 3.494621 -3.449200 0.854765 -0.367004 -0.366994 0.783527 0.009394 1 0 1.000000
tv_01
  0 14.044563 28.137827 -3.449200 0.854768 0.366995 -0.366996 0.783527 0.481768 1 0 1.000000
  0 14.044563 3.494624 7.988647 0.874626 -0.353983 0.331248 0.564281 0.009394 1 0 1.000000
  0 14.044563 3.494621 -3.449200 0.854765 -0.367004 -0.366994 0.783527 0.009394 1 0 1.000000
tv_01
  0 14.044563 3.494621 -3.449200 0.854765 -0.367004 -0.366994 0.783527 0.009394 1 0 1.000000
  0 14.044563 3.494624 7.988647 0.874626 -0.353983 0.331248 0.564281 0.009394 1 0 1.000000
  0 13.847769 3.297827 -3.449200 0.476509 -0.738841 -0.476500 0.783527 0.005622 1 0 1.000000
tv_01
  0 13.847769 3.297827 -3.449200 0.476509 -0.738841 -0.476500 0.783527 0.005622 1 0 1.000000
  0 14.044563 3.494624 7.988647 0.874626 -0.353983 0.331248 0.564281 0.009394 1 0 1.000000
  0 13.847769 3.297831 8.020348 0.534771 -0.716053 0.448651 0.563673 0.005622 1 0 1.000000
tv_01
  0 13.850755 3.494624 8.219650 0.350055 -0.198315 0.915496 0.559853 0.009394 1 0 1.000000
  0 13.847769 3.297831 8.020348 0.534771 -0.716053 0.448651 0.563673 0.005622 1 0 1.000000
  0 14.044563 3.494624 7.988647 0.874626 -0.353983 0.331248 0.564281 0.009394 1 0 1.000000
tv_01
  0 13.850755 3.494624 8.219650 0.350055 -0.198315 0.915496 0.559853 0.009394 1 0 1.000000
  0 14.044563 3.494624 7.988647 0.874626 -0.353983 0.331248 0.564281 0.009394 1 0 1.000000
  0 13.850755 28.137827 8.219650 0.478230 0.353967 0.803743 0.559853 0.481769 1 0 1.000000
tv_01
  0 13.850755 3.494624 8.219650 0.350055 -0.198315 0.915496 0.559853 0.009394 1 0 1.000000
  0 13.850755 28.137827 8.219650 0.478230 0.353967 0.803743 0.559853 0.481769 1 0 1.000000
  0 12.009497 8.048568 8.544716 0.173854 -0.000001 0.984771 0.524559 0.101283 1 0 1.000000
tv_01
  0 12.009497 8.048568 8.544716 0.173854 -0.000001 0.984771 0.524559 0.101283 1 0 1.000000
  0 13.850755 28.137827 8.219650 0.478230 0.353967 0.803743 0.559853 0.481769 1 0 1.000000
  0 12.009497 26.434092 8.544716 0.173856 0.000000 0.984771 0.524559 0.444515 1 0 1.000000
tv_01
  0 10.168225 28.137831 8.869773 0.121532 0.382976 0.915729 0.489264 0.481769 1 0 1.000000
  0 12.009497 26.434092 8.544716 0.173856 0.000000 0.984771 0.524559 0.444515 1 0 1.000000
  0 13.850755 28.137827 8.219650 0.478230 0.353967 0.803743 0.559853 0.481769 1 0 1.000000
tv_01
  0 10.168225 26.434095 8.869773 0.131563 0.000000 0.991308 0.489264 0.447630 1 0 1.000000
  0 12.009497 26.434092 8.544716 0.173856 0.000000 0.984771 0.524559 0.444515 1 0 1.000000
  0 10.168225 28.137831 8.869773 0.121532 0.382976 0.915729 0.489264 0.481769 1 0 1.000000
tv_01
  0 10.168225 28.137831 8.869773 0.121532 0.382976 0.915729 0.489264 0.481769 1 0 1.000000
  0 4.029036 28.137831 9.418517 0.041161 0.383006 0.922828 0.371585 0.481769 1 0 1.000000
  0 10.168225 26.434095 8.869773 0.131563 0.000000 0.991308 0.489264 0.447630 1 0 1.000000
tv_01
  0 10.168225 26.434095 8.869773 0.131563 0.000000 0.991308 0.489264 0.447630 1 0 1.000000
  0 4.029036 28.137831 9.418517 0.041161 0.383006 0.922828 0.371585 0.481769 1 0 1.000000
  0 4.029036 26.434095 9.418517 0.044559 0.000000 0.999007 0.371585 0.452890 1 0 1.000000
tv_01
  0 14.044563 28.137827 7.988647 0.874629 0.353974 0.331250 0.564281 0.481769 1 0 1.000000
  0 14.044563 3.494624 7.988647 0.874626 -0.353983 0.331248 0.564281 0.009394 1 0 1.000000
  0 14.044563 28.137827 -3.449200 0.854768 0.366995 -0.366996 0.783527 0.481768 1 0 1.000000
tv_01
  0 13.850755 3.494624 8.219650 0.350055 -0.198315 0.915496 0.559853 0.009394 1 0 1.000000
  0 10.168225 6.672902 8.869773 0.109470 0.000000 0.993990 0.489264 0.070317 1 0 1.000000
  0 10.168224 4.870288 8.869773 0.109470 0.000000 0.993990 0.489264 0.035764 1 0 1.000000
tv_01
  0 12.009497 8.048568 8.544716 0.173854 -0.000001 0.984771 0.524559 0.101283 1 0 1.000000
  0 10.168225 6.672902 8.869773 0.109470 0.000000 0.993990 0.489264 0.070317 1 0 1.000000
  0 13.850755 3.494624 8.219650 0.350055 -0.198315 0.915496 0.559853 0.009394 1 0 1.000000
tv_01
  0 10.168225 8.048568 8.869773 0.131561 -0.000001 0.991308 0.489264 0.098168 1 0 1.000000
  0 10.168225 6.672902 8.869773 0.109470 0.000000 0.993990 0.489264 0.070317 1 0 1.000000
  0 12.009497 8.048568 8.544716 0.173854 -0.000001 0.984771 0.524559 0.101283 1 0 1.000000
tv_01
  0 10.168225 8.048568 8.869773 0.131561 -0.000001 0.991308 0.489264 0.098168 1 0 1.000000
  0 4.029036 8.048573 9.418517 0.044559 0.000000 0.999007 0.371585 0.092908 1 0 1.000000
  0 10.168225 6.672902 8.869773 0.109470 0.000000 0.993990 0.489264 0.070317 1 0 1.000000
tv_01
  0 10.168225 6.672902 8.869773 0.109470 0.000000 0.993990 0.489264 0.070317 1 0 1.000000
  0 4.029036 8.048573 9.418517 0.044559 0.000000 0.999007 0.371585 0.092908 1 0 1.000000
  0 4.029036 6.672906 9.418517 0.044559 0.000000 0.999007 0.371585 0.070317 1 0 1.000000
tv_01
  0 4.029036 8.048573 9.418517 0.044559 0.000000 0.999007 0.371585 0.092908 1 0 1.000000
  0 -4.006398 8.048568 9.418517 -0.044559 0.000000 0.999007 0.217555 0.092908 1 0 1.000000
  0 4.029036 6.672906 9.418517 0.044559 0.000000 0.999007 0.371585 0.070317 1 0 1.000000
tv_01
  0 4.029036 6.672906 9.418517 0.044559 0.000000 0.999007 0.371585 0.070317 1 0 1.000000
  0 -4.006398 8.048568 9.418517 -0.044559 0.000000 0.999007 0.217555 0.092908 1 0 1.000000
  0 -4.006398 6.672902 9.418517 -0.044559 0.000000 0.999007 0.217556 0.070317 1 0 1.000000
tv_01
  0 -4.006398 8.048568 9.418517 -0.044559 0.000000 0.999007 0.217555 0.092908 1 0 1.000000
  0 -10.145597 8.048568 8.869773 -0.131561 -0.000001 0.991308 0.099876 0.098167 1 0 1.000000
  0 -4.006398 6.672902 9.418517 -0.044559 0.000000 0.999007 0.217556 0.070317 1 0 1.000000
tv_01
  0 -4.006398 6.672902 9.418517 -0.044559 0.000000 0.999007 0.217556 0.070317 1 0 1.000000
  0 -10.145597 8.048568 8.869773 -0.131561 -0.000001 0.991308 0.099876 0.098167 1 0 1.000000
  0 -10.145597 6.672902 8.869773 -0.109470 0.000000 0.993990 0.099876 0.070317 1 0 1.000000
tv_01
  0 -11.986860 8.048567 8.544716 -0.173854 0.000000 0.984771 0.064582 0.101283 1 0 1.000000
  0 -10.145597 6.672902 8.869773 -0.109470 0.000000 0.993990 0.099876 0.070317 1 0 1.000000
  0 -10.145597 8.048568 8.869773 -0.131561 -0.000001 0.991308 0.099876 0.098167 1 0 1.000000
tv_01
  0 4.029036 28.137831 9.418517 0.041161 0.383006 0.922828 0.371585 0.481769 1 0 1.000000
  0 -4.006398 28.137831 9.418517 -0.041161 0.383006 0.922828 0.217556 0.481769 1 0 1.000000
  0 4.029036 26.434095 9.418517 0.044559 0.000000 0.999007 0.371585 0.452890 1 0 1.000000
tv_01
  0 4.029036 26.434095 9.418517 0.044559 0.000000 0.999007 0.371585 0.452890 1 0 1.000000
  0 -4.006398 28.137831 9.418517 -0.041161 0.383006 0.922828 0.217556 0.481769 1 0 1.000000
  0 -4.006398 26.434095 9.418517 -0.044559 0.000000 0.999007 0.217556 0.452890 1 0 1.000000
tv_01
  0 -4.006398 28.137831 9.418517 -0.041161 0.383006 0.922828 0.217556 0.481769 1 0 1.000000
  0 -10.145597 28.137831 8.869773 -0.121532 0.382976 0.915729 0.099876 0.481769 1 0 1.000000
  0 -4.006398 26.434095 9.418517 -0.044559 0.000000 0.999007 0.217556 0.452890 1 0 1.000000
tv_01
  0 -4.006398 26.434095 9.418517 -0.044559 0.000000 0.999007 0.217556 0.452890 1 0 1.000000
  0 -10.145597 28.137831 8.869773 -0.121532 0.382976 0.915729 0.099876 0.481769 1 0 1.000000
  0 -10.145597 26.434095 8.869773 -0.131563 0.000000 0.991308 0.099876 0.447631 1 0 1.000000
tv_01
  0 -10.145597 26.434095 8.869773 -0.131563 0.000000 0.991308 0.099876 0.447631 1 0 1.000000
  0 -10.145597 28.137831 8.869773 -0.121532 0.382976 0.915729 0.099876 0.481769 1 0 1.000000
  0 -11.986860 26.434092 8.544716 -0.173855 0.000000 0.984771 0.064582 0.444515 1 0 1.000000
tv_01
  0 -10.145597 28.137831 8.869773 -0.121532 0.382976 0.915729 0.099876 0.481769 1 0 1.000000
  0 -13.828127 28.137827 8.219650 -0.478239 0.353980 0.803732 0.029288 0.481769 1 0 1.000000
  0 -11.986860 26.434092 8.544716 -0.173855 0.000000 0.984771 0.064582 0.444515 1 0 1.000000
tv_01
  0 -11.986860 26.434092 8.544716 -0.173855 0.000000 0.984771 0.064582 0.444515 1 0 1.000000
  0 -13.828127 28.137827 8.219650 -0.478239 0.353980 0.803732 0.029288 0.481769 1 0 1.000000
  0 -11.986860 8.048567 8.544716 -0.173854 0.000000 0.984771 0.064582 0.101283 1 0 1.000000
tv_01
  0 -13.828127 3.494624 8.219650 -0.350060 -0.198322 0.915492 0.029288 0.009395 1 0 1.000000
  0 -11.986860 8.048567 8.544716 -0.173854 0.000000 0.984771 0.064582 0.101283 1 0 1.000000
  0 -13.828127 28.137827 8.219650 -0.478239 0.353980 0.803732 0.029288 0.481769 1 0 1.000000
tv_01
  0 -13.828127 3.494624 8.219650 -0.350060 -0.198322 0.915492 0.029288 0.009395 1 0 1.000000
  0 -10.145597 6.672902 8.869773 -0.109470 0.000000 0.993990 0.099876 0.070317 1 0 1.000000
  0 -11.986860 8.048567 8.544716 -0.173854 0.000000 0.984771 0.064582 0.101283 1 0 1.000000
tv_01
  0 -10.145597 6.672902 8.869773 -0.109470 0.000000 0.993990 0.099876 0.070317 1 0 1.000000
  0 -13.828127 3.494624 8.219650 -0.350060 -0.198322 0.915492 0.029288 0.009395 1 0 1.000000
  0 -10.145596 4.870288 8.869773 -0.109470 0.000000 0.993990 0.099876 0.035764 1 0 1.000000
tv_01
  0 -10.145596 4.870288 8.869773 -0.109470 0.000000 0.993990 0.099876 0.035764 1 0 1.000000
  0 -13.828127 3.494624 8.219650 -0.350060 -0.198322 0.915492 0.029288 0.009395 1 0 1.000000
  0 -10.145597 3.494624 8.869773 -0.121531 -0.382982 0.915726 0.099876 0.009395 1 0 1.000000
tv_01
  0 -4.006398 3.494624 9.418517 -0.041161 -0.383013 0.922825 0.217555 0.009395 1 0 1.000000
  0 -10.145596 4.870288 8.869773 -0.109470 0.000000 0.993990 0.099876 0.035764 1 0 1.000000
  0 -10.145597 3.494624 8.869773 -0.121531 -0.382982 0.915726 0.099876 0.009395 1 0 1.000000
tv_01
  0 -4.006398 4.870288 9.418517 -0.044559 0.000000 0.999007 0.217556 0.035764 1 0 1.000000
  0 -10.145596 4.870288 8.869773 -0.109470 0.000000 0.993990 0.099876 0.035764 1 0 1.000000
  0 -4.006398 3.494624 9.418517 -0.041161 -0.383013 0.922825 0.217555 0.009395 1 0 1.000000
tv_01
  0 4.029036 3.494624 9.418517 0.041161 -0.383014 0.922825 0.371585 0.009395 1 0 1.000000
  0 -4.006398 4.870288 9.418517 -0.044559 0.000000 0.999007 0.217556 0.035764 1 0 1.000000
  0 -4.006398 3.494624 9.418517 -0.041161 -0.383013 0.922825 0.217555 0.009395 1 0 1.000000
tv_01
  0 4.029036 4.870290 9.418517 0.044559 0.000000 0.999007 0.371585 0.035764 1 0 1.000000
  0 -4.006398 4.870288 9.418517 -0.044559 0.000000 0.999007 0.217556 0.035764 1 0 1.000000
  0 4.029036 3.494624 9.418517 0.041161 -0.383014 0.922825 0.371585 0.009395 1 0 1.000000
tv_01
  0 10.168225 3.494624 8.869773 0.121531 -0.382982 0.915726 0.489264 0.009395 1 0 1.000000
  0 4.029036 4.870290 9.418517 0.044559 0.000000 0.999007 0.371585 0.035764 1 0 1.000000
  0 4.029036 3.494624 9.418517 0.041161 -0.383014 0.922825 0.371585 0.009395 1 0 1.000000
tv_01
  0 10.168224 4.870288 8.869773 0.109470 0.000000 0.993990 0.489264 0.035764 1 0 1.000000
  0 4.029036 4.870290 9.418517 0.044559 0.000000 0.999007 0.371585 0.035764 1 0 1.000000
  0 10.168225 3.494624 8.869773 0.121531 -0.382982 0.915726 0.489264 0.009395 1 0 1.000000
tv_01
  0 13.850755 3.494624 8.219650 0.350055 -0.198315 0.915496 0.559853 0.009394 1 0 1.000000
  0 10.168224 4.870288 8.869773 0.109470 0.000000 0.993990 0.489264 0.035764 1 0 1.000000
  0 10.168225 3.494624 8.869773 0.121531 -0.382982 0.915726 0.489264 0.009395 1 0 1.000000
tv_01
  0 -13.825124 28.334627 -3.449200 -0.367000 0.854764 -0.367001 0.029274 0.728424 1 0 1.000000
  0 -3.997626 28.334631 9.221717 -0.022506 0.863073 0.504577 0.217724 0.485541 1 0 1.000000
  0 13.847769 28.334627 -3.449200 0.367007 0.854760 -0.367002 0.559867 0.728424 1 0 1.000000
tv_01
  0 -10.119687 28.334627 8.674515 -0.066454 0.863053 0.500723 0.100373 0.496030 1 0 1.000000
  0 -3.997626 28.334631 9.221717 -0.022506 0.863073 0.504577 0.217724 0.485541 1 0 1.000000
  0 -13.825124 28.334627 -3.449200 -0.367000 0.854764 -0.367001 0.029274 0.728424 1 0 1.000000
tv_01
  0 -13.825124 28.334627 8.020348 -0.415812 0.839887 0.348841 0.029345 0.508569 1 0 1.000000
  0 -10.119687 28.334627 8.674515 -0.066454 0.863053 0.500723 0.100373 0.496030 1 0 1.000000
  0 -13.825124 28.334627 -3.449200 -0.367000 0.854764 -0.367001 0.029274 0.728424 1 0 1.000000
tv_01
  0 -13.825124 28.334627 8.020348 -0.415812 0.839887 0.348841 0.029345 0.508569 1 0 1.000000
  0 -13.828127 28.137827 8.219650 -0.478239 0.353980 0.803732 0.029288 0.504749 1 0 1.000000
  0 -10.119687 28.334627 8.674515 -0.066454 0.863053 0.500723 0.100373 0.496030 1 0 1.000000
tv_01
  0 -10.119687 28.334627 8.674515 -0.066454 0.863053 0.500723 0.100373 0.496030 1 0 1.000000
  0 -13.828127 28.137827 8.219650 -0.478239 0.353980 0.803732 0.029288 0.504749 1 0 1.000000
  0 -10.145597 28.137831 8.869773 -0.121532 0.382976 0.915729 0.099876 0.492287 1 0 1.000000
tv_01
  0 -10.119687 28.334627 8.674515 -0.066454 0.863053 0.500723 0.100373 0.496030 1 0 1.000000
  0 -10.145597 28.137831 8.869773 -0.121532 0.382976 0.915729 0.099876 0.492287 1 0 1.000000
  0 -3.997626 28.334631 9.221717 -0.022506 0.863073 0.504577 0.217724 0.485541 1 0 1.000000
tv_01
  0 -3.997626 28.334631 9.221717 -0.022506 0.863073 0.504577 0.217724 0.485541 1 0 1.000000
  0 -10.145597 28.137831 8.869773 -0.121532 0.382976 0.915729 0.099876 0.492287 1 0 1.000000
  0 -4.006398 28.137831 9.418517 -0.041161 0.383006 0.922828 0.217556 0.481769 1 0 1.000000
tv_01
  0 -3.997626 28.334631 9.221717 -0.022506 0.863073 0.504577 0.217724 0.485541 1 0 1.000000
  0 -4.006398 28.137831 9.418517 -0.041161 0.383006 0.922828 0.217556 0.481769 1 0 1.000000
  0 4.020251 28.334631 9.221717 0.022506 0.863074 0.504576 0.371417 0.485541 1 0 1.000000
tv_01
  0 4.020251 28.334631 9.221717 0.022506 0.863074 0.504576 0.371417 0.485541 1 0 1.000000
  0 -4.006398 28.137831 9.418517 -0.041161 0.383006 0.922828 0.217556 0.481769 1 0 1.000000
  0 4.029036 28.137831 9.418517 0.041161 0.383006 0.922828 0.371585 0.481769 1 0 1.000000
tv_01
  0 4.020251 28.334631 9.221717 0.022506 0.863074 0.504576 0.371417 0.485541 1 0 1.000000
  0 4.029036 28.137831 9.418517 0.041161 0.383006 0.922828 0.371585 0.481769 1 0 1.000000
  0 10.142309 28.334627 8.674515 0.066454 0.863053 0.500723 0.488767 0.496030 1 0 1.000000
tv_01
  0 10.142309 28.334627 8.674515 0.066454 0.863053 0.500723 0.488767 0.496030 1 0 1.000000
  0 4.029036 28.137831 9.418517 0.041161 0.383006 0.922828 0.371585 0.481769 1 0 1.000000
  0 10.168225 28.137831 8.869773 0.121532 0.382976 0.915729 0.489264 0.492287 1 0 1.000000
tv_01
  0 13.850755 28.137827 8.219650 0.478230 0.353967 0.803743 0.559853 0.504749 1 0 1.000000
  0 10.142309 28.334627 8.674515 0.066454 0.863053 0.500723 0.488767 0.496030 1 0 1.000000
  0 10.168225 28.137831 8.869773 0.121532 0.382976 0.915729 0.489264 0.492287 1 0 1.000000
tv_01
  0 13.847769 28.334627 8.020348 0.415818 0.839878 0.348855 0.559795 0.508569 1 0 1.000000
  0 10.142309 28.334627 8.674515 0.066454 0.863053 0.500723 0.488767 0.496030 1 0 1.000000
  0 13.850755 28.137827 8.219650 0.478230 0.353967 0.803743 0.559853 0.504749 1 0 1.000000
tv_01
  0 13.847769 28.334627 8.020348 0.415818 0.839878 0.348855 0.559795 0.508569 1 0 1.000000
  0 13.847769 28.334627 -3.449200 0.367007 0.854760 -0.367002 0.559867 0.728424 1 0 1.000000
  0 10.142309 28.334627 8.674515 0.066454 0.863053 0.500723 0.488767 0.496030 1 0 1.000000
tv_01
  0 10.142309 28.334627 8.674515 0.066454 0.863053 0.500723 0.488767 0.496030 1 0 1.000000
  0 13.847769 28.334627 -3.449200 0.367007 0.854760 -0.367002 0.559867 0.728424 1 0 1.000000
  0 4.020251 28.334631 9.221717 0.022506 0.863074 0.504576 0.371417 0.485541 1 0 1.000000
tv_01
  0 -3.997626 28.334631 9.221717 -0.022506 0.863073 0.504577 0.217724 0.485541 1 0 1.000000
  0 4.020251 28.334631 9.221717 0.022506 0.863074 0.504576 0.371417 0.485541 1 0 1.000000
  0 13.847769 28.334627 -3.449200 0.367007 0.854760 -0.367002 0.559867 0.728424 1 0 1.000000
tv_01
  0 13.847769 28.137827 -3.646000 0.241815 0.241810 -0.939709 0.553306 0.731564 1 0 1.000000
  0 -13.825124 28.334627 -3.449200 -0.367000 0.854764 -0.367001 0.029274 0.728424 1 0 1.000000
  0 13.847769 28.334627 -3.449200 0.367007 0.854760 -0.367002 0.559867 0.728424 1 0 1.000000
tv_01
  0 -13.825124 28.137827 -3.646000 -0.241811 0.241811 -0.939710 0.035835 0.731564 1 0 1.000000
  0 -13.825124 28.334627 -3.449200 -0.367000 0.854764 -0.367001 0.029274 0.728424 1 0 1.000000
  0 13.847769 28.137827 -3.646000 0.241815 0.241810 -0.939709 0.553306 0.731564 1 0 1.000000
tv_01
  0 10.606043 0.812300 6.243848 0.468900 0.863870 0.184017 0.805200 0.307714 1 0 1.000000
  0 10.989172 0.554975 6.475602 0.468900 0.863870 0.184017 0.798922 0.305404 1 0 1.000000
  0 10.606047 0.812300 -6.631100 0.468899 0.863870 -0.184017 0.812677 0.480854 1 0 1.000000
tv_01
  0 10.606047 0.812300 -6.631100 0.468899 0.863870 -0.184017 0.812677 0.480854 1 0 1.000000
  0 10.989172 0.554975 6.475602 0.468900 0.863870 0.184017 0.798922 0.305404 1 0 1.000000
  0 10.989172 0.554975 -6.862855 0.468899 0.863870 -0.184017 0.806571 0.484018 1 0 1.000000
tv_01
  0 10.989172 0.554975 -6.862855 0.468899 0.863870 -0.184017 0.806571 0.484018 1 0 1.000000
  0 10.487241 0.554975 -7.364785 0.186858 0.807443 -0.559572 0.808443 0.491187 1 0 1.000000
  0 10.606047 0.812300 -6.631100 0.468899 0.863870 -0.184017 0.812677 0.480854 1 0 1.000000
tv_01
  0 10.606047 0.812300 -6.631100 0.468899 0.863870 -0.184017 0.812677 0.480854 1 0 1.000000
  0 10.487241 0.554975 -7.364785 0.186858 0.807443 -0.559572 0.808443 0.491187 1 0 1.000000
  0 10.121557 0.812300 -7.115588 0.186858 0.807443 -0.559572 0.813866 0.490094 1 0 1.000000
tv_01
  0 -10.559548 0.554975 -7.364787 -0.382685 0.000000 -0.923879 0.808303 0.491145 1 0 1.000000
  0 -10.559548 0.035218 -7.364787 -0.382685 0.000000 -0.923879 0.802001 0.492916 1 0 1.000000
  0 -11.061480 0.554975 -6.862853 -0.923880 0.000000 -0.382682 0.806482 0.483999 1 0 1.000000
tv_01
  0 -11.061480 0.554975 -6.862853 -0.923880 0.000000 -0.382682 0.806482 0.483999 1 0 1.000000
  0 -10.559548 0.035218 -7.364787 -0.382685 0.000000 -0.923879 0.802001 0.492916 1 0 1.000000
  0 -11.061480 0.035218 -6.862853 -0.923880 0.000000 -0.382682 0.799616 0.484335 1 0 1.000000
tv_01
  0 -11.061480 0.554975 -6.862853 -0.923880 0.000000 -0.382682 0.806482 0.483999 1 0 1.000000
  0 -11.061480 0.035218 -6.862853 -0.923880 0.000000 -0.382682 0.799616 0.484335 1 0 1.000000
  0 -11.061480 0.554975 6.475602 -0.923880 0.000000 0.382683 0.798971 0.305460 1 0 1.000000
tv_01
  0 -11.061480 0.554975 6.475602 -0.923880 0.000000 0.382683 0.798971 0.305460 1 0 1.000000
  0 -11.061480 0.035218 -6.862853 -0.923880 0.000000 -0.382682 0.799616 0.484335 1 0 1.000000
  0 -11.061480 0.035218 6.475602 -0.923880 0.000000 0.382683 0.792234 0.305864 1 0 1.000000
tv_01
  0 -11.061480 0.554975 6.475602 -0.923880 0.000000 0.382683 0.798971 0.305460 1 0 1.000000
  0 -11.061480 0.035218 6.475602 -0.923880 0.000000 0.382683 0.792234 0.305864 1 0 1.000000
  0 -10.559548 0.554975 6.977535 -0.382684 0.000000 0.923879 0.799625 0.301748 1 0 1.000000
tv_01
  0 -10.559548 0.554975 6.977535 -0.382684 0.000000 0.923879 0.799625 0.301748 1 0 1.000000
  0 -11.061480 0.035218 6.475602 -0.923880 0.000000 0.382683 0.792234 0.305864 1 0 1.000000
  0 -10.559548 0.035218 6.977535 -0.382684 0.000000 0.923879 0.792602 0.301670 1 0 1.000000
tv_01
  0 -10.559548 0.554975 6.977535 -0.382684 0.000000 0.923879 0.799625 0.301748 1 0 1.000000
  0 -10.559548 0.035218 6.977535 -0.382684 0.000000 0.923879 0.792602 0.301670 1 0 1.000000
  0 10.487241 0.554975 6.977532 0.382683 0.000000 0.923880 0.799428 0.012052 1 0 1.000000
tv_01
  0 10.487241 0.554975 6.977532 0.382683 0.000000 0.923880 0.799428 0.012052 1 0 1.000000
  0 -10.559548 0.035218 6.977535 -0.382684 0.000000 0.923879 0.792602 0.301670 1 0 1.000000
  0 10.487241 0.035218 6.977532 0.382683 0.000000 0.923880 0.791354 0.012182 1 0 1.000000
tv_01
  0 10.487241 0.554975 6.977532 0.382683 0.000000 0.923880 0.799428 0.012052 1 0 1.000000
  0 10.487241 0.035218 6.977532 0.382683 0.000000 0.923880 0.791354 0.012182 1 0 1.000000
  0 10.989172 0.554975 6.475602 0.923879 0.000000 0.382684 0.798629 0.008189 1 0 1.000000
tv_01
  0 10.989172 0.554975 6.475602 0.923879 0.000000 0.382684 0.798629 0.008189 1 0 1.000000
  0 10.487241 0.035218 6.977532 0.382683 0.000000 0.923880 0.791354 0.012182 1 0 1.000000
  0 10.989172 0.035218 6.475602 0.923879 0.000000 0.382684 0.791837 0.007754 1 0 1.000000
tv_01
  0 10.121557 5.373841 -7.115588 0.381439 -0.000219 -0.924394 0.849340 0.488307 1 0 1.000000
  0 10.606047 0.812300 -6.631100 0.923363 -0.000219 -0.383927 0.812677 0.480854 1 0 1.000000
  0 10.121557 0.812300 -7.115588 0.381439 -0.000219 -0.924394 0.813866 0.490094 1 0 1.000000
tv_01
  0 10.606045 5.444960 -6.636345 0.923363 -0.000219 -0.383927 0.849857 0.479296 1 0 1.000000
  0 10.606047 0.812300 -6.631100 0.923363 -0.000219 -0.383927 0.812677 0.480854 1 0 1.000000
  0 10.121557 5.373841 -7.115588 0.381439 -0.000219 -0.924394 0.849340 0.488307 1 0 1.000000
tv_01
  0 10.606045 5.444960 -6.636345 0.923363 -0.000219 -0.383927 0.849857 0.479296 1 0 1.000000
  0 10.606043 3.650019 6.249097 0.923352 -0.000351 0.383953 0.868931 0.305506 1 0 1.000000
  0 10.606047 0.812300 -6.631100 0.923363 -0.000219 -0.383927 0.812677 0.480854 1 0 1.000000
tv_01
  0 10.606047 0.812300 -6.631100 0.923363 -0.000219 -0.383927 0.812677 0.480854 1 0 1.000000
  0 10.606043 3.650019 6.249097 0.923352 -0.000351 0.383953 0.868931 0.305506 1 0 1.000000
  0 10.606043 0.812300 6.243848 0.923352 -0.000351 0.383953 0.805200 0.307714 1 0 1.000000
tv_01
  0 10.487241 0.554975 -7.364785 0.382683 0.000000 -0.923880 0.882963 0.322006 1 0 1.000000
  0 10.487241 0.035218 -7.364785 0.382683 0.000000 -0.923880 0.876353 0.323160 1 0 1.000000
  0 -10.559548 0.554975 -7.364787 -0.382685 0.000000 -0.923879 0.883500 0.009892 1 0 1.000000
tv_01
  0 -10.559548 0.554975 -7.364787 -0.382685 0.000000 -0.923879 0.883500 0.009892 1 0 1.000000
  0 10.487241 0.035218 -7.364785 0.382683 0.000000 -0.923880 0.876353 0.323160 1 0 1.000000
  0 -10.559548 0.035218 -7.364787 -0.382685 0.000000 -0.923879 0.875764 0.009907 1 0 1.000000
tv_01
  0 -10.193861 0.812300 -7.115588 -0.186858 0.807443 -0.559572 0.813736 0.490070 1 0 1.000000
  0 -10.559548 0.554975 -7.364787 -0.186858 0.807443 -0.559572 0.808303 0.491145 1 0 1.000000
  0 -10.678354 0.812300 -6.631102 -0.468901 0.863869 -0.184017 0.812569 0.480855 1 0 1.000000
tv_01
  0 -10.678354 0.812300 -6.631102 -0.468901 0.863869 -0.184017 0.812569 0.480855 1 0 1.000000
  0 -10.559548 0.554975 -7.364787 -0.186858 0.807443 -0.559572 0.808303 0.491145 1 0 1.000000
  0 -11.061480 0.554975 -6.862853 -0.468901 0.863869 -0.184017 0.806482 0.483999 1 0 1.000000
tv_01
  0 -10.678354 0.812300 -6.631102 -0.468901 0.863869 -0.184017 0.812569 0.480855 1 0 1.000000
  0 -11.061480 0.554975 -6.862853 -0.468901 0.863869 -0.184017 0.806482 0.483999 1 0 1.000000
  0 -10.678354 0.812300 6.243850 -0.468902 0.863868 0.184017 0.805202 0.307783 1 0 1.000000
tv_01
  0 -10.678354 0.812300 6.243850 -0.468902 0.863868 0.184017 0.805202 0.307783 1 0 1.000000
  0 -11.061480 0.554975 -6.862853 -0.468901 0.863869 -0.184017 0.806482 0.483999 1 0 1.000000
  0 -11.061480 0.554975 6.475602 -0.468902 0.863868 0.184017 0.798971 0.305460 1 0 1.000000
tv_01
  0 -11.061480 0.554975 6.475602 -0.468902 0.863868 0.184017 0.798971 0.305460 1 0 1.000000
  0 -10.559548 0.554975 6.977535 -0.186859 0.807441 0.559574 0.799625 0.301748 1 0 1.000000
  0 -10.678354 0.812300 6.243850 -0.468902 0.863868 0.184017 0.805202 0.307783 1 0 1.000000
tv_01
  0 -10.678354 0.812300 6.243850 -0.468902 0.863868 0.184017 0.805202 0.307783 1 0 1.000000
  0 -10.559548 0.554975 6.977535 -0.186859 0.807441 0.559574 0.799625 0.301748 1 0 1.000000
  0 -10.193863 0.812300 6.728339 -0.186859 0.807441 0.559574 0.804591 0.296957 1 0 1.000000
tv_01
  0 -10.193863 0.812300 6.728339 -0.186859 0.807441 0.559574 0.804591 0.296957 1 0 1.000000
  0 -10.559548 0.554975 6.977535 -0.186859 0.807441 0.559574 0.799625 0.301748 1 0 1.000000
  0 10.121553 0.812300 6.728338 0.186858 0.807441 0.559574 0.804394 0.016821 1 0 1.000000
tv_01
  0 10.121553 0.812300 6.728338 0.186858 0.807441 0.559574 0.804394 0.016821 1 0 1.000000
  0 -10.559548 0.554975 6.977535 -0.186859 0.807441 0.559574 0.799625 0.301748 1 0 1.000000
  0 10.487241 0.554975 6.977532 0.186858 0.807441 0.559574 0.799428 0.012052 1 0 1.000000
tv_01
  0 10.121553 0.812300 6.728338 0.186858 0.807441 0.559574 0.804394 0.016821 1 0 1.000000
  0 10.487241 0.554975 6.977532 0.186858 0.807441 0.559574 0.799428 0.012052 1 0 1.000000
  0 10.606043 0.812300 6.243848 0.468900 0.863870 0.184017 0.804907 0.005880 1 0 1.000000
tv_01
  0 10.606043 0.812300 6.243848 0.468900 0.863870 0.184017 0.804907 0.005880 1 0 1.000000
  0 10.487241 0.554975 6.977532 0.186858 0.807441 0.559574 0.799428 0.012052 1 0 1.000000
  0 10.989172 0.554975 6.475602 0.468900 0.863870 0.184017 0.798629 0.008189 1 0 1.000000
tv_01
  0 11.534052 26.216484 -3.646000 0.000000 0.000000 -1.000000 0.976574 0.038013 1 0 1.000000
  0 13.847769 28.137827 -3.646000 0.241815 0.241810 -0.939709 0.937001 0.005151 1 0 1.000000
  0 12.229162 25.521372 -3.646000 0.000000 0.000000 -1.000000 0.964685 0.049902 1 0 1.000000
tv_01
  0 13.847769 28.137827 -3.646000 0.241815 0.241810 -0.939709 0.937001 0.005151 1 0 1.000000
  0 13.847769 3.494621 -3.646000 0.241815 -0.241816 -0.939708 0.937001 0.426644 1 0 1.000000
  0 12.229162 25.521372 -3.646000 0.000000 0.000000 -1.000000 0.964685 0.049902 1 0 1.000000
tv_01
  0 12.229162 25.521372 -3.646000 0.000000 0.000000 -1.000000 0.964685 0.049902 1 0 1.000000
  0 13.847769 3.494621 -3.646000 0.241815 -0.241816 -0.939708 0.937001 0.426644 1 0 1.000000
  0 12.229162 4.822660 -3.646000 0.000000 0.000000 -1.000000 0.964685 0.403929 1 0 1.000000
tv_01
  0 12.229162 4.822660 -3.646000 0.000000 0.000000 -1.000000 0.964685 0.403929 1 0 1.000000
  0 13.847769 3.494621 -3.646000 0.241815 -0.241816 -0.939708 0.937001 0.426644 1 0 1.000000
  0 11.534052 4.127550 -3.646000 0.000000 0.000000 -1.000000 0.976574 0.415818 1 0 1.000000
tv_01
  0 -14.021924 3.494624 7.988647 -0.874627 -0.353996 0.331232 0.564371 0.009395 1 0 1.000000
  0 -13.825124 3.297831 8.020348 -0.534764 -0.716068 0.448636 0.563764 0.005622 1 0 1.000000
  0 -13.828127 3.494624 8.219650 -0.350060 -0.198322 0.915492 0.559943 0.009395 1 0 1.000000
tv_01
  0 -13.825124 3.297831 8.020348 -0.534764 -0.716068 0.448636 0.563764 0.005622 1 0 1.000000
  0 -14.021924 3.494624 7.988647 -0.874627 -0.353996 0.331232 0.564371 0.009395 1 0 1.000000
  0 -13.825124 3.297827 -3.449200 -0.476500 -0.738847 -0.476501 0.783618 0.005622 1 0 1.000000
tv_01
  0 -13.825124 3.297827 -3.449200 -0.476500 -0.738847 -0.476501 0.783618 0.005622 1 0 1.000000
  0 -14.021924 3.494624 7.988647 -0.874627 -0.353996 0.331232 0.564371 0.009395 1 0 1.000000
  0 -14.021924 3.494621 -3.449200 -0.854760 -0.367011 -0.367000 0.783618 0.009395 1 0 1.000000
tv_01
  0 -13.825124 3.297827 -3.449200 -0.476500 -0.738847 -0.476501 0.783618 0.005622 1 0 1.000000
  0 -14.021924 3.494621 -3.449200 -0.854760 -0.367011 -0.367000 0.783618 0.009395 1 0 1.000000
  0 -13.825124 3.494621 -3.646000 -0.241811 -0.241817 -0.939708 0.787391 0.005622 1 0 1.000000
tv_01
  0 -14.021924 3.494621 -3.449200 -0.854760 -0.367011 -0.367000 0.783618 0.009395 1 0 1.000000
  0 -13.825124 28.137827 -3.646000 -0.241811 0.241811 -0.939710 0.787391 0.481769 1 0 1.000000
  0 -13.825124 3.494621 -3.646000 -0.241811 -0.241817 -0.939708 0.787391 0.009395 1 0 1.000000
tv_01
  0 -14.021924 28.137827 -3.449200 -0.854763 0.367002 -0.367002 0.783618 0.481769 1 0 1.000000
  0 -13.825124 28.137827 -3.646000 -0.241811 0.241811 -0.939710 0.787391 0.481769 1 0 1.000000
  0 -14.021924 3.494621 -3.449200 -0.854760 -0.367011 -0.367000 0.783618 0.009395 1 0 1.000000
tv_01
  0 -14.021924 3.494624 7.988647 -0.874627 -0.353996 0.331232 0.564371 0.009395 1 0 1.000000
  0 -14.021924 28.137827 -3.449200 -0.854763 0.367002 -0.367002 0.783618 0.481769 1 0 1.000000
  0 -14.021924 3.494621 -3.449200 -0.854760 -0.367011 -0.367000 0.783618 0.009395 1 0 1.000000
tv_01
  0 -14.021924 28.137827 7.988647 -0.874630 0.353987 0.331233 0.564371 0.481769 1 0 1.000000
  0 -14.021924 28.137827 -3.449200 -0.854763 0.367002 -0.367002 0.783618 0.481769 1 0 1.000000
  0 -14.021924 3.494624 7.988647 -0.874627 -0.353996 0.331232 0.564371 0.009395 1 0 1.000000
tv_01
  0 -14.021924 3.494624 7.988647 -0.874627 -0.353996 0.331232 0.564371 0.009395 1 0 1.000000
  0 -13.828127 3.494624 8.219650 -0.350060 -0.198322 0.915492 0.559943 0.009395 1 0 1.000000
  0 -14.021924 28.137827 7.988647 -0.874630 0.353987 0.331233 0.564371 0.481769 1 0 1.000000
tv_01
  0 -14.021924 28.137827 7.988647 -0.874630 0.353987 0.331233 0.564371 0.481769 1 0 1.000000
  0 -13.828127 3.494624 8.219650 -0.350060 -0.198322 0.915492 0.559943 0.009395 1 0 1.000000
  0 -13.828127 28.137827 8.219650 -0.478239 0.353980 0.803732 0.559943 0.481768 1 0 1.000000
tv_01
  0 -13.825124 28.334627 8.020348 -0.415812 0.839887 0.348841 0.563763 0.485541 1 0 1.000000
  0 -14.021924 28.137827 7.988647 -0.874630 0.353987 0.331233 0.564371 0.481769 1 0 1.000000
  0 -13.828127 28.137827 8.219650 -0.478239 0.353980 0.803732 0.559943 0.481768 1 0 1.000000
tv_01
  0 -13.825124 28.334627 8.020348 -0.415812 0.839887 0.348841 0.563763 0.485541 1 0 1.000000
  0 -13.825124 28.334627 -3.449200 -0.367000 0.854764 -0.367001 0.783618 0.485541 1 0 1.000000
  0 -14.021924 28.137827 7.988647 -0.874630 0.353987 0.331233 0.564371 0.481769 1 0 1.000000
tv_01
  0 -14.021924 28.137827 7.988647 -0.874630 0.353987 0.331233 0.564371 0.481769 1 0 1.000000
  0 -13.825124 28.334627 -3.449200 -0.367000 0.854764 -0.367001 0.783618 0.485541 1 0 1.000000
  0 -14.021924 28.137827 -3.449200 -0.854763 0.367002 -0.367002 0.783618 0.481769 1 0 1.000000
tv_01
  0 -13.825124 28.137827 -3.646000 -0.241811 0.241811 -0.939710 0.787391 0.485541 1 0 1.000000
  0 -14.021924 28.137827 -3.449200 -0.854763 0.367002 -0.367002 0.783618 0.481769 1 0 1.000000
  0 -13.825124 28.334627 -3.449200 -0.367000 0.854764 -0.367001 0.783618 0.485541 1 0 1.000000
tv_01
  0 -10.559548 0.035218 6.977535 0.000000 -1.000000 0.000000 0.446595 0.739568 1 0 1.000000
  0 -11.061480 0.035218 6.475602 0.000000 -1.000000 0.000000 0.449850 0.736314 1 0 1.000000
  0 10.487241 0.035218 6.977532 0.000000 -1.000000 0.000000 0.446595 0.876026 1 0 1.000000
tv_01
  0 10.487241 0.035218 6.977532 0.000000 -1.000000 0.000000 0.446595 0.876026 1 0 1.000000
  0 -11.061480 0.035218 6.475602 0.000000 -1.000000 0.000000 0.449850 0.736314 1 0 1.000000
  0 -11.061480 0.035218 -6.862853 0.000000 -1.000000 0.000000 0.536330 0.736314 1 0 1.000000
tv_01
  0 -10.559548 0.035218 -7.364787 0.000000 -1.000000 0.000000 0.539585 0.739568 1 0 1.000000
  0 10.487241 0.035218 6.977532 0.000000 -1.000000 0.000000 0.446595 0.876026 1 0 1.000000
  0 -11.061480 0.035218 -6.862853 0.000000 -1.000000 0.000000 0.536330 0.736314 1 0 1.000000
tv_01
  0 10.989172 0.035218 6.475602 0.000000 -1.000000 0.000000 0.449850 0.879281 1 0 1.000000
  0 10.487241 0.035218 6.977532 0.000000 -1.000000 0.000000 0.446595 0.876026 1 0 1.000000
  0 -10.559548 0.035218 -7.364787 0.000000 -1.000000 0.000000 0.539585 0.739568 1 0 1.000000
tv_01
  0 10.487241 0.035218 -7.364785 0.000000 -1.000000 0.000000 0.539585 0.876026 1 0 1.000000
  0 10.989172 0.035218 6.475602 0.000000 -1.000000 0.000000 0.449850 0.879281 1 0 1.000000
  0 -10.559548 0.035218 -7.364787 0.000000 -1.000000 0.000000 0.539585 0.739568 1 0 1.000000
tv_01
  0 10.989172 0.035218 -6.862855 0.000000 -1.000000 0.000000 0.536330 0.879281 1 0 1.000000
  0 10.989172 0.035218 6.475602 0.000000 -1.000000 0.000000 0.449850 0.879281 1 0 1.000000
  0 10.487241 0.035218 -7.364785 0.000000 -1.000000 0.000000 0.539585 0.876026 1 0 1.000000
tv_01
  0 10.121557 0.812300 -7.115588 0.186858 0.807443 -0.559572 0.887743 0.317666 1 0 1.000000
  0 10.487241 0.554975 -7.364785 0.186858 0.807443 -0.559572 0.882963 0.322006 1 0 1.000000
  0 -10.193861 0.812300 -7.115588 -0.186858 0.807443 -0.559572 0.887340 0.015328 1 0 1.000000
tv_01
  0 -10.193861 0.812300 -7.115588 -0.186858 0.807443 -0.559572 0.887340 0.015328 1 0 1.000000
  0 10.487241 0.554975 -7.364785 0.186858 0.807443 -0.559572 0.882963 0.322006 1 0 1.000000
  0 -10.559548 0.554975 -7.364787 -0.186858 0.807443 -0.559572 0.883500 0.009892 1 0 1.000000
tv_01
  0 10.121557 0.812300 -7.115588 0.381439 -0.000219 -0.924394 0.887743 0.317666 1 0 1.000000
  0 -10.193861 0.812300 -7.115588 -0.381436 -0.000219 -0.924395 0.887340 0.015328 1 0 1.000000
  0 10.121557 5.373841 -7.115588 0.381439 -0.000219 -0.924394 0.928288 0.317620 1 0 1.000000
tv_01
  0 10.121557 5.373841 -7.115588 0.381439 -0.000219 -0.924394 0.928288 0.317620 1 0 1.000000
  0 -10.193861 0.812300 -7.115588 -0.381436 -0.000219 -0.924395 0.887340 0.015328 1 0 1.000000
  0 -10.193861 5.373841 -7.115588 -0.381436 -0.000219 -0.924395 0.927720 0.015252 1 0 1.000000
tv_01
  0 10.168224 4.870288 8.869773 0.000000 1.000000 -0.000002 0.013883 0.478504 1 0 1.000000
  0 -10.145596 4.870288 8.869773 0.000000 1.000000 -0.000002 0.013884 0.089119 1 0 1.000000
  0 4.029036 4.870290 9.418517 0.000000 1.000000 -0.000002 0.024402 0.360825 1 0 1.000000
tv_01
  0 4.029036 4.870290 9.418517 0.000000 1.000000 -0.000002 0.024402 0.360825 1 0 1.000000
  0 -10.145596 4.870288 8.869773 0.000000 1.000000 -0.000002 0.013884 0.089119 1 0 1.000000
  0 -4.006398 4.870288 9.418517 0.000000 1.000000 -0.000002 0.024402 0.206798 1 0 1.000000
tv_01
  0 10.168225 6.672902 8.869773 0.109470 0.000000 0.993990 0.489264 0.069697 1 0 1.000000
  0 -10.145597 6.672902 8.869773 -0.109470 0.000000 0.993990 0.099876 0.069697 1 0 1.000000
  0 10.168224 4.870288 8.869773 0.109470 0.000000 0.993990 0.489264 0.038010 1 0 1.000000
tv_01
  0 10.168224 4.870288 8.869773 0.109470 0.000000 0.993990 0.489264 0.038010 1 0 1.000000
  0 -10.145597 6.672902 8.869773 -0.109470 0.000000 0.993990 0.099876 0.069697 1 0 1.000000
  0 -10.145596 4.870288 8.869773 -0.109470 0.000000 0.993990 0.099876 0.038010 1 0 1.000000
tv_01
  0 10.168225 6.672902 8.869773 0.000000 -1.000000 0.000006 0.013977 0.478504 1 0 1.000000
  0 4.029036 6.672906 9.418517 0.000000 -1.000000 0.000006 0.024495 0.360825 1 0 1.000000
  0 -10.145597 6.672902 8.869773 0.000000 -1.000000 0.000006 0.013977 0.089119 1 0 1.000000
tv_01
  0 -10.145597 6.672902 8.869773 0.000000 -1.000000 0.000006 0.013977 0.089119 1 0 1.000000
  0 4.029036 6.672906 9.418517 0.000000 -1.000000 0.000006 0.024495 0.360825 1 0 1.000000
  0 -4.006398 6.672902 9.418517 0.000000 -1.000000 0.000006 0.024495 0.206798 1 0 1.000000
tv_01
  0 -13.825124 28.137827 -3.646000 -0.241811 0.241811 -0.939710 0.989209 0.409738 1 0 1.000000
  0 13.847769 28.137827 -3.646000 0.241815 0.241810 -0.939709 0.989209 0.851221 1 0 1.000000
  0 -11.511414 26.216484 -3.646000 0.000000 0.000000 -1.000000 0.958556 0.446650 1 0 1.000000
tv_01
  0 -11.511414 26.216484 -3.646000 0.000000 0.000000 -1.000000 0.958556 0.446650 1 0 1.000000
  0 13.847769 28.137827 -3.646000 0.241815 0.241810 -0.939709 0.989209 0.851221 1 0 1.000000
  0 11.534052 26.216484 -3.646000 0.000000 0.000000 -1.000000 0.958557 0.814308 1 0 1.000000
tv_01
  0 -11.511414 4.127550 -3.646000 0.000000 0.000000 -1.000000 0.976349 0.415818 1 0 1.000000
  0 -13.825124 3.494621 -3.646000 -0.241811 -0.241817 -0.939708 0.936776 0.426644 1 0 1.000000
  0 -12.206524 4.822660 -3.646000 0.000000 0.000000 -1.000000 0.964460 0.403929 1 0 1.000000
tv_01
  0 -13.825124 3.494621 -3.646000 -0.241811 -0.241817 -0.939708 0.936776 0.426644 1 0 1.000000
  0 -12.206524 25.521372 -3.646000 0.000000 0.000000 -1.000000 0.964460 0.049902 1 0 1.000000
  0 -12.206524 4.822660 -3.646000 0.000000 0.000000 -1.000000 0.964460 0.403929 1 0 1.000000
tv_01
  0 -13.825124 28.137827 -3.646000 -0.241811 0.241811 -0.939710 0.936776 0.005151 1 0 1.000000
  0 -12.206524 25.521372 -3.646000 0.000000 0.000000 -1.000000 0.964460 0.049902 1 0 1.000000
  0 -13.825124 3.494621 -3.646000 -0.241811 -0.241817 -0.939708 0.936776 0.426644 1 0 1.000000
tv_01
  0 -12.206524 25.521372 -3.646000 0.000000 0.000000 -1.000000 0.964460 0.049902 1 0 1.000000
  0 -13.825124 28.137827 -3.646000 -0.241811 0.241811 -0.939710 0.936776 0.005151 1 0 1.000000
  0 -11.511414 26.216484 -3.646000 0.000000 0.000000 -1.000000 0.976349 0.038013 1 0 1.000000
tv_01
  0 13.847769 3.494621 -3.646000 0.241815 -0.241816 -0.939708 0.988417 0.851220 1 0 1.000000
  0 -13.825124 3.494621 -3.646000 -0.241811 -0.241817 -0.939708 0.988417 0.409738 1 0 1.000000
  0 11.534052 4.127550 -3.646000 0.000000 0.000000 -1.000000 0.958249 0.814308 1 0 1.000000
tv_01
  0 11.534052 4.127550 -3.646000 0.000000 0.000000 -1.000000 0.958249 0.814308 1 0 1.000000
  0 -13.825124 3.494621 -3.646000 -0.241811 -0.241817 -0.939708 0.988417 0.409738 1 0 1.000000
  0 -11.511414 4.127550 -3.646000 0.000000 0.000000 -1.000000 0.958248 0.446650 1 0 1.000000
tv_01
  0 -11.986860 26.434092 8.544716 1.000000 0.000000 0.000000 0.064582 0.444515 1 0 1.000000
  0 -11.986860 8.048567 8.544716 1.000000 0.000000 0.000000 0.064582 0.101283 1 0 1.000000
  0 -11.986860 26.019592 7.754150 1.000000 0.000000 0.000000 0.079832 0.428057 1 0 1.000000
tv_01
  0 -11.986860 26.019592 7.754150 1.000000 0.000000 0.000000 0.079832 0.428057 1 0 1.000000
  0 -11.986860 8.048567 8.544716 1.000000 0.000000 0.000000 0.064582 0.101283 1 0 1.000000
  0 -11.986860 8.463072 7.754150 1.000000 0.000000 0.000000 0.079517 0.116033 1 0 1.000000
tv_01
  0 12.009497 8.048568 8.544716 -1.000000 0.000000 0.000000 0.524559 0.101283 1 0 1.000000
  0 12.009497 26.434092 8.544716 -1.000000 0.000000 0.000000 0.524559 0.444515 1 0 1.000000
  0 12.009497 8.463074 7.754150 -1.000000 0.000000 0.000000 0.509624 0.116033 1 0 1.000000
tv_01
  0 12.009497 8.463074 7.754150 -1.000000 0.000000 0.000000 0.509624 0.116033 1 0 1.000000
  0 12.009497 26.434092 8.544716 -1.000000 0.000000 0.000000 0.524559 0.444515 1 0 1.000000
  0 12.009497 26.019592 7.754150 -1.000000 0.000000 0.000000 0.509308 0.428057 1 0 1.000000
tv_01
  0 10.989172 0.554975 6.475602 0.923879 0.000000 0.382684 0.798922 0.305404 1 0 1.000000
  0 10.989172 0.035218 6.475602 0.923879 0.000000 0.382684 0.792130 0.305839 1 0 1.000000
  0 10.989172 0.554975 -6.862855 0.923879 0.000000 -0.382684 0.806571 0.484018 1 0 1.000000
tv_01
  0 10.989172 0.554975 -6.862855 0.923879 0.000000 -0.382684 0.806571 0.484018 1 0 1.000000
  0 10.989172 0.035218 6.475602 0.923879 0.000000 0.382684 0.792130 0.305839 1 0 1.000000
  0 10.989172 0.035218 -6.862855 0.923879 0.000000 -0.382684 0.799680 0.484364 1 0 1.000000
tv_01
  0 10.989172 0.554975 -6.862855 0.923879 0.000000 -0.382684 0.806571 0.484018 1 0 1.000000
  0 10.989172 0.035218 -6.862855 0.923879 0.000000 -0.382684 0.799680 0.484364 1 0 1.000000
  0 10.487241 0.554975 -7.364785 0.382683 0.000000 -0.923880 0.808443 0.491187 1 0 1.000000
tv_01
  0 10.487241 0.554975 -7.364785 0.382683 0.000000 -0.923880 0.808443 0.491187 1 0 1.000000
  0 10.989172 0.035218 -6.862855 0.923879 0.000000 -0.382684 0.799680 0.484364 1 0 1.000000
  0 10.487241 0.035218 -7.364785 0.382683 0.000000 -0.923880 0.802135 0.493001 1 0 1.000000
tv_01
  0 12.009497 26.434092 8.544716 0.083993 -0.880842 0.465899 0.524559 0.444515 1 0 1.000000
  0 10.168225 26.115810 8.274910 0.061137 -0.885980 0.459675 0.489346 0.434211 1 0 1.000000
  0 12.009497 26.019592 7.754150 0.083993 -0.880842 0.465899 0.509308 0.428057 1 0 1.000000
tv_01
  0 10.168225 26.434095 8.869773 0.061137 -0.885980 0.459675 0.489264 0.447630 1 0 1.000000
  0 10.168225 26.115810 8.274910 0.061137 -0.885980 0.459675 0.489346 0.434211 1 0 1.000000
  0 12.009497 26.434092 8.544716 0.083993 -0.880842 0.465899 0.524559 0.444515 1 0 1.000000
tv_01
  0 10.168225 26.434095 8.869773 0.061137 -0.885980 0.459675 0.489264 0.447630 1 0 1.000000
  0 4.029036 26.208038 8.943626 0.019128 -0.897002 0.441613 0.370927 0.447337 1 0 1.000000
  0 10.168225 26.115810 8.274910 0.061137 -0.885980 0.459675 0.489346 0.434211 1 0 1.000000
tv_01
  0 4.029036 26.434095 9.418517 0.019128 -0.897002 0.441613 0.371585 0.452890 1 0 1.000000
  0 4.029036 26.208038 8.943626 0.019128 -0.897002 0.441613 0.370927 0.447337 1 0 1.000000
  0 10.168225 26.434095 8.869773 0.061137 -0.885980 0.459675 0.489264 0.447630 1 0 1.000000
tv_01
  0 4.029036 26.434095 9.418517 0.019128 -0.897002 0.441613 0.371585 0.452890 1 0 1.000000
  0 -4.006398 26.434095 9.418517 -0.019128 -0.897002 0.441613 0.217556 0.452890 1 0 1.000000
  0 4.029036 26.208038 8.943626 0.019128 -0.897002 0.441613 0.370927 0.447337 1 0 1.000000
tv_01
  0 4.029036 26.208038 8.943626 0.019128 -0.897002 0.441613 0.370927 0.447337 1 0 1.000000
  0 -4.006398 26.434095 9.418517 -0.019128 -0.897002 0.441613 0.217556 0.452890 1 0 1.000000
  0 -4.006398 26.208038 8.943626 -0.019128 -0.897002 0.441613 0.218214 0.447338 1 0 1.000000
tv_01
  0 -4.006398 26.434095 9.418517 -0.019128 -0.897002 0.441613 0.217556 0.452890 1 0 1.000000
  0 -10.145597 26.434095 8.869773 -0.061137 -0.885981 0.459674 0.099876 0.447631 1 0 1.000000
  0 -4.006398 26.208038 8.943626 -0.019128 -0.897002 0.441613 0.218214 0.447338 1 0 1.000000
tv_01
  0 -4.006398 26.208038 8.943626 -0.019128 -0.897002 0.441613 0.218214 0.447338 1 0 1.000000
  0 -10.145597 26.434095 8.869773 -0.061137 -0.885981 0.459674 0.099876 0.447631 1 0 1.000000
  0 -10.145597 26.115810 8.274910 -0.061137 -0.885981 0.459674 0.099794 0.434212 1 0 1.000000
tv_01
  0 -10.145597 26.434095 8.869773 -0.061137 -0.885981 0.459674 0.099876 0.447631 1 0 1.000000
  0 -11.986860 26.434092 8.544716 -0.083993 -0.880843 0.465898 0.064582 0.444515 1 0 1.000000
  0 -10.145597 26.115810 8.274910 -0.061137 -0.885981 0.459674 0.099794 0.434212 1 0 1.000000
tv_01
  0 -10.145597 26.115810 8.274910 -0.061137 -0.885981 0.459674 0.099794 0.434212 1 0 1.000000
  0 -11.986860 26.434092 8.544716 -0.083993 -0.880843 0.465898 0.064582 0.444515 1 0 1.000000
  0 -11.986860 26.019592 7.754150 -0.083993 -0.880843 0.465898 0.079832 0.428057 1 0 1.000000
tv_01
  0 10.606043 0.812300 6.243848 0.923352 -0.000351 0.383953 0.804907 0.005880 1 0 1.000000
  0 10.606043 3.650019 6.249097 0.923352 -0.000351 0.383953 0.868931 0.008087 1 0 1.000000
  0 10.121553 0.812300 6.728338 0.381413 -0.000350 0.924405 0.804394 0.016821 1 0 1.000000
tv_01
  0 10.121553 0.812300 6.728338 0.381413 -0.000350 0.924405 0.804394 0.016821 1 0 1.000000
  0 10.606043 3.650019 6.249097 0.923352 -0.000351 0.383953 0.868931 0.008087 1 0 1.000000
  0 10.121553 3.721138 6.728338 0.381413 -0.000350 0.924405 0.869900 0.017201 1 0 1.000000
tv_01
  0 10.121553 3.721138 6.728338 0.381413 -0.000350 0.924405 0.869900 0.017201 1 0 1.000000
  0 -10.193863 3.721138 6.728339 -0.381412 -0.000350 0.924405 0.870041 0.296495 1 0 1.000000
  0 10.121553 0.812300 6.728338 0.381413 -0.000350 0.924405 0.804394 0.016821 1 0 1.000000
tv_01
  0 10.121553 0.812300 6.728338 0.381413 -0.000350 0.924405 0.804394 0.016821 1 0 1.000000
  0 -10.193863 3.721138 6.728339 -0.381412 -0.000350 0.924405 0.870041 0.296495 1 0 1.000000
  0 -10.193863 0.812300 6.728339 -0.381412 -0.000350 0.924405 0.804591 0.296957 1 0 1.000000
tv_01
  0 -10.193863 3.721138 6.728339 -0.381412 -0.000350 0.924405 0.870041 0.296495 1 0 1.000000
  0 -10.678354 3.650019 6.249098 -0.923352 -0.000350 0.383954 0.869049 0.305593 1 0 1.000000
  0 -10.193863 0.812300 6.728339 -0.381412 -0.000350 0.924405 0.804591 0.296957 1 0 1.000000
tv_01
  0 -10.193863 0.812300 6.728339 -0.381412 -0.000350 0.924405 0.804591 0.296957 1 0 1.000000
  0 -10.678354 3.650019 6.249098 -0.923352 -0.000350 0.383954 0.869049 0.305593 1 0 1.000000
  0 -10.678354 0.812300 6.243850 -0.923352 -0.000350 0.383954 0.805202 0.307783 1 0 1.000000
tv_01
  0 -10.678354 3.650019 6.249098 -0.923352 -0.000350 0.383954 0.869049 0.305593 1 0 1.000000
  0 -10.678354 0.812300 -6.631102 -0.923362 -0.000218 -0.383930 0.812569 0.480855 1 0 1.000000
  0 -10.678354 0.812300 6.243850 -0.923352 -0.000350 0.383954 0.805202 0.307783 1 0 1.000000
tv_01
  0 -10.678350 5.444960 -6.636347 -0.923362 -0.000218 -0.383930 0.849935 0.479347 1 0 1.000000
  0 -10.678354 0.812300 -6.631102 -0.923362 -0.000218 -0.383930 0.812569 0.480855 1 0 1.000000
  0 -10.678354 3.650019 6.249098 -0.923352 -0.000350 0.383954 0.869049 0.305593 1 0 1.000000
tv_01
  0 -10.193861 5.373841 -7.115588 -0.381436 -0.000219 -0.924395 0.849424 0.488348 1 0 1.000000
  0 -10.678354 0.812300 -6.631102 -0.923362 -0.000218 -0.383930 0.812569 0.480855 1 0 1.000000
  0 -10.678350 5.444960 -6.636347 -0.923362 -0.000218 -0.383930 0.849935 0.479347 1 0 1.000000
tv_01
  0 -10.193861 0.812300 -7.115588 -0.381436 -0.000219 -0.924395 0.813736 0.490070 1 0 1.000000
  0 -10.678354 0.812300 -6.631102 -0.923362 -0.000218 -0.383930 0.812569 0.480855 1 0 1.000000
  0 -10.193861 5.373841 -7.115588 -0.381436 -0.000219 -0.924395 0.849424 0.488348 1 0 1.000000
tv_01
  0 -13.825124 3.297827 -3.449200 0.000000 -1.000000 0.000000 0.924173 0.605523 1 0 1.000000
  0 13.847769 3.297827 -3.449200 0.000000 -1.000000 0.000000 0.586802 0.605523 1 0 1.000000
  0 -13.825124 3.297831 8.020348 0.000000 -1.000000 0.000000 0.924173 0.745352 1 0 1.000000
tv_01
  0 -13.825124 3.297831 8.020348 0.000000 -1.000000 0.000000 0.924173 0.745352 1 0 1.000000
  0 13.847769 3.297827 -3.449200 0.000000 -1.000000 0.000000 0.586802 0.605523 1 0 1.000000
  0 -10.119687 3.297831 8.674515 0.000000 -1.000000 0.000000 0.878999 0.753328 1 0 1.000000
tv_01
  0 -10.119687 3.297831 8.674515 0.000000 -1.000000 0.000000 0.878999 0.753328 1 0 1.000000
  0 13.847769 3.297827 -3.449200 0.000000 -1.000000 0.000000 0.586802 0.605523 1 0 1.000000
  0 -3.997626 3.297831 9.221717 0.000000 -1.000000 0.000000 0.804363 0.759999 1 0 1.000000
tv_01
  0 -3.997626 3.297831 9.221717 0.000000 -1.000000 0.000000 0.804363 0.759999 1 0 1.000000
  0 13.847769 3.297827 -3.449200 0.000000 -1.000000 0.000000 0.586802 0.605523 1 0 1.000000
  0 4.020251 3.297831 9.221717 0.000000 -1.000000 0.000000 0.706612 0.759999 1 0 1.000000
tv_01
  0 4.020251 3.297831 9.221717 0.000000 -1.000000 0.000000 0.706612 0.759999 1 0 1.000000
  0 13.847769 3.297827 -3.449200 0.000000 -1.000000 0.000000 0.586802 0.605523 1 0 1.000000
  0 10.142309 3.297831 8.674515 0.000000 -1.000000 0.000000 0.631977 0.753328 1 0 1.000000
tv_01
  0 13.847769 3.297827 -3.449200 0.000000 -1.000000 0.000000 0.586802 0.605523 1 0 1.000000
  0 13.847769 3.297831 8.020348 0.000000 -1.000000 0.000000 0.586803 0.745352 1 0 1.000000
  0 10.142309 3.297831 8.674515 0.000000 -1.000000 0.000000 0.631977 0.753328 1 0 1.000000
tv_01
  0 -11.986860 8.048567 8.544716 -0.083999 0.880838 0.465906 0.064582 0.101283 1 0 1.000000
  0 -10.145597 8.366863 8.274910 -0.061140 0.885977 0.459681 0.099795 0.110900 1 0 1.000000
  0 -11.986860 8.463072 7.754150 -0.083999 0.880838 0.465906 0.079517 0.116033 1 0 1.000000
tv_01
  0 -10.145597 8.048568 8.869773 -0.061140 0.885977 0.459681 0.099876 0.098167 1 0 1.000000
  0 -10.145597 8.366863 8.274910 -0.061140 0.885977 0.459681 0.099795 0.110900 1 0 1.000000
  0 -11.986860 8.048567 8.544716 -0.083999 0.880838 0.465906 0.064582 0.101283 1 0 1.000000
tv_01
  0 -10.145597 8.048568 8.869773 -0.061140 0.885977 0.459681 0.099876 0.098167 1 0 1.000000
  0 -4.006398 8.274626 8.943626 -0.019128 0.897000 0.441616 0.218214 0.098472 1 0 1.000000
  0 -10.145597 8.366863 8.274910 -0.061140 0.885977 0.459681 0.099795 0.110900 1 0 1.000000
tv_01
  0 -4.006398 8.048568 9.418517 -0.019128 0.897000 0.441616 0.217555 0.092908 1 0 1.000000
  0 -4.006398 8.274626 8.943626 -0.019128 0.897000 0.441616 0.218214 0.098472 1 0 1.000000
  0 -10.145597 8.048568 8.869773 -0.061140 0.885977 0.459681 0.099876 0.098167 1 0 1.000000
tv_01
  0 -4.006398 8.048568 9.418517 -0.019128 0.897000 0.441616 0.217555 0.092908 1 0 1.000000
  0 4.029036 8.048573 9.418517 0.019128 0.897000 0.441617 0.371585 0.092908 1 0 1.000000
  0 -4.006398 8.274626 8.943626 -0.019128 0.897000 0.441616 0.218214 0.098472 1 0 1.000000
tv_01
  0 -4.006398 8.274626 8.943626 -0.019128 0.897000 0.441616 0.218214 0.098472 1 0 1.000000
  0 4.029036 8.048573 9.418517 0.019128 0.897000 0.441617 0.371585 0.092908 1 0 1.000000
  0 4.029036 8.274631 8.943626 0.019128 0.897000 0.441617 0.370927 0.098472 1 0 1.000000
tv_01
  0 4.029036 8.048573 9.418517 0.019128 0.897000 0.441617 0.371585 0.092908 1 0 1.000000
  0 10.168225 8.048568 8.869773 0.061140 0.885976 0.459682 0.489264 0.098168 1 0 1.000000
  0 4.029036 8.274631 8.943626 0.019128 0.897000 0.441617 0.370927 0.098472 1 0 1.000000
tv_01
  0 4.029036 8.274631 8.943626 0.019128 0.897000 0.441617 0.370927 0.098472 1 0 1.000000
  0 10.168225 8.048568 8.869773 0.061140 0.885976 0.459682 0.489264 0.098168 1 0 1.000000
  0 10.168225 8.366863 8.274910 0.061140 0.885976 0.459682 0.489347 0.110899 1 0 1.000000
tv_01
  0 10.168225 8.048568 8.869773 0.061140 0.885976 0.459682 0.489264 0.098168 1 0 1.000000
  0 12.009497 8.048568 8.544716 0.083998 0.880838 0.465906 0.524559 0.101283 1 0 1.000000
  0 10.168225 8.366863 8.274910 0.061140 0.885976 0.459682 0.489347 0.110899 1 0 1.000000
tv_01
  0 10.168225 8.366863 8.274910 0.061140 0.885976 0.459682 0.489347 0.110899 1 0 1.000000
  0 12.009497 8.048568 8.544716 0.083998 0.880838 0.465906 0.524559 0.101283 1 0 1.000000
  0 12.009497 8.463074 7.754150 0.083998 0.880838 0.465906 0.509624 0.116033 1 0 1.000000
tv_01
  0 10.168225 26.115810 8.274910 0.190884 0.000000 0.981613 0.489346 0.434211 1 0 1.000000
  0 12.009497 8.463074 7.754150 0.272151 0.000000 0.962254 0.509624 0.116033 1 0 1.000000
  0 12.009497 26.019592 7.754150 0.272151 0.000000 0.962254 0.509308 0.428057 1 0 1.000000
tv_01
  0 10.168225 8.366863 8.274910 0.190884 0.000000 0.981613 0.489347 0.110899 1 0 1.000000
  0 12.009497 8.463074 7.754150 0.272151 0.000000 0.962254 0.509624 0.116033 1 0 1.000000
  0 10.168225 26.115810 8.274910 0.190884 0.000000 0.981613 0.489346 0.434211 1 0 1.000000
tv_01
  0 10.168225 26.115810 8.274910 0.190884 0.000000 0.981613 0.489346 0.434211 1 0 1.000000
  0 4.029036 26.208038 8.943626 0.054222 0.000000 0.998529 0.370927 0.447337 1 0 1.000000
  0 10.168225 8.366863 8.274910 0.190884 0.000000 0.981613 0.489347 0.110899 1 0 1.000000
tv_01
  0 10.168225 8.366863 8.274910 0.190884 0.000000 0.981613 0.489347 0.110899 1 0 1.000000
  0 4.029036 26.208038 8.943626 0.054222 0.000000 0.998529 0.370927 0.447337 1 0 1.000000
  0 4.029036 8.274631 8.943626 0.054222 0.000000 0.998529 0.370927 0.098472 1 0 1.000000
tv_01
  0 4.029036 26.208038 8.943626 0.054222 0.000000 0.998529 0.370927 0.447337 1 0 1.000000
  0 -4.006398 26.208038 8.943626 -0.054222 0.000000 0.998529 0.218214 0.447338 1 0 1.000000
  0 4.029036 8.274631 8.943626 0.054222 0.000000 0.998529 0.370927 0.098472 1 0 1.000000
tv_01
  0 4.029036 8.274631 8.943626 0.054222 0.000000 0.998529 0.370927 0.098472 1 0 1.000000
  0 -4.006398 26.208038 8.943626 -0.054222 0.000000 0.998529 0.218214 0.447338 1 0 1.000000
  0 -4.006398 8.274626 8.943626 -0.054222 0.000000 0.998529 0.218214 0.098472 1 0 1.000000
tv_01
  0 -4.006398 26.208038 8.943626 -0.054222 0.000000 0.998529 0.218214 0.447338 1 0 1.000000
  0 -10.145597 26.115810 8.274910 -0.190884 0.000000 0.981613 0.099794 0.434212 1 0 1.000000
  0 -4.006398 8.274626 8.943626 -0.054222 0.000000 0.998529 0.218214 0.098472 1 0 1.000000
tv_01
  0 -4.006398 8.274626 8.943626 -0.054222 0.000000 0.998529 0.218214 0.098472 1 0 1.000000
  0 -10.145597 26.115810 8.274910 -0.190884 0.000000 0.981613 0.099794 0.434212 1 0 1.000000
  0 -10.145597 8.366863 8.274910 -0.190884 0.000000 0.981613 0.099795 0.110900 1 0 1.000000
tv_01
  0 -10.145597 26.115810 8.274910 -0.190884 0.000000 0.981613 0.099794 0.434212 1 0 1.000000
  0 -11.986860 26.019592 7.754150 -0.272152 0.000000 0.962254 0.079832 0.428057 1 0 1.000000
  0 -10.145597 8.366863 8.274910 -0.190884 0.000000 0.981613 0.099795 0.110900 1 0 1.000000
tv_01
  0 -10.145597 8.366863 8.274910 -0.190884 0.000000 0.981613 0.099795 0.110900 1 0 1.000000
  0 -11.986860 26.019592 7.754150 -0.272152 0.000000 0.962254 0.079832 0.428057 1 0 1.000000
  0 -11.986860 8.463072 7.754150 -0.272152 0.000000 0.962254 0.079517 0.116033 1 0 1.000000
tv_01
  0 -13.825124 3.297831 8.020348 -0.534764 -0.716068 0.448636 0.924173 0.745352 1 0 1.000000
  0 -10.119687 3.297831 8.674515 -0.092986 -0.707429 0.700641 0.878999 0.753328 1 0 1.000000
  0 -13.828127 3.494624 8.219650 -0.350060 -0.198322 0.915492 0.924210 0.747782 1 0 1.000000
tv_01
  0 -13.828127 3.494624 8.219650 -0.350060 -0.198322 0.915492 0.924210 0.747782 1 0 1.000000
  0 -10.119687 3.297831 8.674515 -0.092986 -0.707429 0.700641 0.878999 0.753328 1 0 1.000000
  0 -10.145597 3.494624 8.869773 -0.121531 -0.382982 0.915726 0.879314 0.755708 1 0 1.000000
tv_01
  0 -10.145597 3.494624 8.869773 -0.121531 -0.382982 0.915726 0.879314 0.755708 1 0 1.000000
  0 -10.119687 3.297831 8.674515 -0.092986 -0.707429 0.700641 0.878999 0.753328 1 0 1.000000
  0 -4.006398 3.494624 9.418517 -0.041161 -0.383013 0.922825 0.804469 0.762398 1 0 1.000000
tv_01
  0 -4.006398 3.494624 9.418517 -0.041161 -0.383013 0.922825 0.804469 0.762398 1 0 1.000000
  0 -10.119687 3.297831 8.674515 -0.092986 -0.707429 0.700641 0.878999 0.753328 1 0 1.000000
  0 -3.997626 3.297831 9.221717 -0.031492 -0.707466 0.706045 0.804363 0.759999 1 0 1.000000
tv_01
  0 -4.006398 3.494624 9.418517 -0.041161 -0.383013 0.922825 0.804469 0.762398 1 0 1.000000
  0 -3.997626 3.297831 9.221717 -0.031492 -0.707466 0.706045 0.804363 0.759999 1 0 1.000000
  0 4.029036 3.494624 9.418517 0.041161 -0.383014 0.922825 0.706505 0.762398 1 0 1.000000
tv_01
  0 4.029036 3.494624 9.418517 0.041161 -0.383014 0.922825 0.706505 0.762398 1 0 1.000000
  0 -3.997626 3.297831 9.221717 -0.031492 -0.707466 0.706045 0.804363 0.759999 1 0 1.000000
  0 4.020251 3.297831 9.221717 0.031492 -0.707467 0.706044 0.706612 0.759999 1 0 1.000000
tv_01
  0 4.029036 3.494624 9.418517 0.041161 -0.383014 0.922825 0.706505 0.762398 1 0 1.000000
  0 4.020251 3.297831 9.221717 0.031492 -0.707467 0.706044 0.706612 0.759999 1 0 1.000000
  0 10.168225 3.494624 8.869773 0.121531 -0.382982 0.915726 0.631661 0.755708 1 0 1.000000
tv_01
  0 10.168225 3.494624 8.869773 0.121531 -0.382982 0.915726 0.631661 0.755708 1 0 1.000000
  0 4.020251 3.297831 9.221717 0.031492 -0.707467 0.706044 0.706612 0.759999 1 0 1.000000
  0 10.142309 3.297831 8.674515 0.092986 -0.707429 0.700641 0.631977 0.753328 1 0 1.000000
tv_01
  0 10.142309 3.297831 8.674515 0.092986 -0.707429 0.700641 0.631977 0.753328 1 0 1.000000
  0 13.850755 3.494624 8.219650 0.350055 -0.198315 0.915496 0.586766 0.747782 1 0 1.000000
  0 10.168225 3.494624 8.869773 0.121531 -0.382982 0.915726 0.631661 0.755708 1 0 1.000000
tv_01
  0 13.847769 3.297831 8.020348 0.534771 -0.716053 0.448651 0.586803 0.745352 1 0 1.000000
  0 13.850755 3.494624 8.219650 0.350055 -0.198315 0.915496 0.586766 0.747782 1 0 1.000000
  0 10.142309 3.297831 8.674515 0.092986 -0.707429 0.700641 0.631977 0.753328 1 0 1.000000
end
