// Created by Crowbar 0.74
version 1
nodes
  0 "polySurface1" -1
end
skeleton
  time 0
    0 0.000000 0.000000 0.000000 0.000000 0.000000 0.000000
end
triangles
  phy
    0 10.425064 -6.632316 3.427172 0.416576 -0.883083 0.215937 0 0
    0 -10.002855 -6.632317 -0.116264 0.454981 0.877399 -0.152194 0 0
    0 10.425064 -6.632316 -0.116264 0.128090 0.988053 0.085694 0 0
  phy
    0 10.425064 -6.632316 3.427172 0.416576 -0.883083 0.215937 0 0
    0 -10.002855 -6.632317 3.427172 0.390178 -0.827124 -0.404508 0 0
    0 -10.002855 -6.632317 -0.116264 0.454981 0.877399 -0.152194 0 0
  phy
    0 10.425064 7.034239 -0.116264 -0.646555 0.685304 0.335150 0 0
    0 10.425064 -6.632316 -0.116264 0.128090 0.988053 0.085694 0 0
    0 -10.002855 7.034238 -0.116264 -0.223327 0.946847 -0.231529 0 0
  phy
    0 -10.002855 7.034238 -0.116264 -0.223327 0.946847 -0.231529 0 0
    0 10.425064 -6.632316 -0.116264 0.128090 0.988053 0.085694 0 0
    0 -10.002855 -6.632317 -0.116264 0.454981 0.877399 -0.152194 0 0
  phy
    0 10.425064 7.034239 -0.116264 -0.646555 0.685304 0.335150 0 0
    0 10.425064 -6.632316 3.427172 0.416576 -0.883083 0.215937 0 0
    0 10.425064 -6.632316 -0.116264 0.128090 0.988053 0.085694 0 0
  phy
    0 10.425064 7.034239 -0.116264 -0.646555 0.685304 0.335150 0 0
    0 10.425064 7.034239 6.330643 -0.240029 -0.925758 0.292163 0 0
    0 10.425064 -6.632316 3.427172 0.416576 -0.883083 0.215937 0 0
  phy
    0 -10.002855 -6.632317 -0.116264 0.454981 0.877399 -0.152194 0 0
    0 -10.002855 -6.632317 3.427172 0.390178 -0.827124 -0.404508 0 0
    0 -10.002855 7.034238 -0.116264 -0.223327 0.946847 -0.231529 0 0
  phy
    0 -10.002855 7.034238 -0.116264 -0.223327 0.946847 -0.231529 0 0
    0 -10.002855 -6.632317 3.427172 0.390178 -0.827124 -0.404508 0 0
    0 -10.002855 7.034238 6.330643 -0.248101 -0.956894 -0.150995 0 0
  phy
    0 10.425064 7.034239 -0.116264 -0.646555 0.685304 0.335150 0 0
    0 -10.002855 7.034238 6.330643 -0.248101 -0.956894 -0.150995 0 0
    0 10.425064 7.034239 6.330643 -0.240029 -0.925758 0.292163 0 0
  phy
    0 -10.002855 7.034238 -0.116264 -0.223327 0.946847 -0.231529 0 0
    0 -10.002855 7.034238 6.330643 -0.248101 -0.956894 -0.150995 0 0
    0 10.425064 7.034239 -0.116264 -0.646555 0.685304 0.335150 0 0
  phy
    0 10.425064 -6.632316 3.427172 0.416576 -0.883083 0.215937 0 0
    0 10.425064 7.034239 6.330643 -0.240029 -0.925758 0.292163 0 0
    0 -10.002855 7.034238 6.330643 -0.248101 -0.956894 -0.150995 0 0
  phy
    0 -10.002855 7.034238 6.330643 -0.248101 -0.956894 -0.150995 0 0
    0 -10.002855 -6.632317 3.427172 0.390178 -0.827124 -0.404508 0 0
    0 10.425064 -6.632316 3.427172 0.416576 -0.883083 0.215937 0 0
  phy
    0 -13.960250 3.688374 3.345122 -0.839275 0.404842 -0.362933 0 0
    0 -13.960250 3.688373 28.361805 -0.687171 -0.662942 -0.297158 0 0
    0 13.945161 3.688374 28.361805 -0.951337 -0.229449 0.205696 0 0
  phy
    0 -13.960250 3.688374 3.345122 -0.839275 0.404842 -0.362933 0 0
    0 13.945161 3.688374 28.361805 -0.951337 -0.229449 0.205696 0 0
    0 13.945161 3.688375 3.345122 -0.710546 0.342746 0.614532 0 0
  phy
    0 -13.960250 -8.378935 28.361805 0.896160 -0.216140 -0.387532 0 0
    0 13.945161 -8.378934 28.361805 0.610992 -0.589449 0.528430 0 0
    0 -13.960250 3.688373 28.361805 -0.687171 -0.662942 -0.297158 0 0
  phy
    0 13.945161 -8.378934 28.361805 0.610992 -0.589449 0.528430 0 0
    0 13.945161 3.688374 28.361805 -0.951337 -0.229449 0.205696 0 0
    0 -13.960250 3.688373 28.361805 -0.687171 -0.662942 -0.297158 0 0
  phy
    0 -13.960250 -8.378935 28.361805 0.896160 -0.216140 -0.387532 0 0
    0 -13.960250 3.688373 28.361805 -0.687171 -0.662942 -0.297158 0 0
    0 -13.960250 3.688374 3.345122 -0.839275 0.404842 -0.362933 0 0
  phy
    0 -13.960250 -8.378935 28.361805 0.896160 -0.216140 -0.387532 0 0
    0 -13.960250 3.688374 3.345122 -0.839275 0.404842 -0.362933 0 0
    0 -13.960250 -8.378933 3.345121 0.839275 0.404842 -0.362933 0 0
  phy
    0 13.945161 -8.378934 28.361805 0.610992 -0.589449 0.528430 0 0
    0 13.945161 3.688375 3.345122 -0.710546 0.342746 0.614532 0 0
    0 13.945161 3.688374 28.361805 -0.951337 -0.229449 0.205696 0 0
  phy
    0 13.945161 -8.378934 28.361805 0.610992 -0.589449 0.528430 0 0
    0 13.945161 -8.378933 3.345121 0.884080 0.426454 0.191154 0 0
    0 13.945161 3.688375 3.345122 -0.710546 0.342746 0.614532 0 0
  phy
    0 -13.960250 3.688374 3.345122 -0.839275 0.404842 -0.362933 0 0
    0 13.945161 3.688375 3.345122 -0.710546 0.342746 0.614532 0 0
    0 13.945161 -8.378933 3.345121 0.884080 0.426454 0.191154 0 0
  phy
    0 -13.960250 3.688374 3.345122 -0.839275 0.404842 -0.362933 0 0
    0 13.945161 -8.378933 3.345121 0.884080 0.426454 0.191154 0 0
    0 -13.960250 -8.378933 3.345121 0.839275 0.404842 -0.362933 0 0
  phy
    0 13.945161 -8.378934 28.361805 0.610992 -0.589449 0.528430 0 0
    0 -13.960250 -8.378935 28.361805 0.896160 -0.216140 -0.387532 0 0
    0 13.945161 -8.378933 3.345121 0.884080 0.426454 0.191154 0 0
  phy
    0 13.945161 -8.378933 3.345121 0.884080 0.426454 0.191154 0 0
    0 -13.960250 -8.378935 28.361805 0.896160 -0.216140 -0.387532 0 0
    0 -13.960250 -8.378933 3.345121 0.839275 0.404842 -0.362933 0 0
  phy
    0 10.074209 15.174463 21.809058 -0.697767 -0.350858 0.624516 0 0
    0 12.010582 4.046619 25.598630 0.466990 -0.800134 0.376438 0 0
    0 12.010582 4.046620 5.030194 0.876526 0.268210 0.399708 0 0
  phy
    0 12.010582 4.046620 5.030194 0.876526 0.268210 0.399708 0 0
    0 10.074209 15.174463 6.914838 -0.807952 0.557768 0.190020 0 0
    0 10.074209 15.174463 21.809058 -0.697767 -0.350858 0.624516 0 0
  phy
    0 -9.848971 15.174463 21.809058 -0.797424 -0.468632 -0.380130 0 0
    0 12.010582 4.046619 25.598630 0.466990 -0.800134 0.376438 0 0
    0 10.074209 15.174463 21.809058 -0.697767 -0.350858 0.624516 0 0
  phy
    0 -9.848971 15.174463 21.809058 -0.797424 -0.468632 -0.380130 0 0
    0 10.074209 15.174463 21.809058 -0.697767 -0.350858 0.624516 0 0
    0 10.074209 15.174463 6.914838 -0.807952 0.557768 0.190020 0 0
  phy
    0 -9.848971 15.174463 21.809058 -0.797424 -0.468632 -0.380130 0 0
    0 -9.848971 15.174463 6.914838 -0.795288 0.485549 -0.362988 0 0
    0 -11.785340 4.046619 5.030194 0.475270 0.683308 -0.554264 0 0
  phy
    0 -9.848971 15.174463 6.914838 -0.795288 0.485549 -0.362988 0 0
    0 -9.848971 15.174463 21.809058 -0.797424 -0.468632 -0.380130 0 0
    0 10.074209 15.174463 6.914838 -0.807952 0.557768 0.190020 0 0
  phy
    0 -11.785340 4.046619 5.030194 0.475270 0.683308 -0.554264 0 0
    0 -9.848971 15.174463 6.914838 -0.795288 0.485549 -0.362988 0 0
    0 10.074209 15.174463 6.914838 -0.807952 0.557768 0.190020 0 0
  phy
    0 -9.848971 15.174463 21.809058 -0.797424 -0.468632 -0.380130 0 0
    0 -11.785340 4.046618 25.598630 0.924499 -0.288384 -0.249270 0 0
    0 12.010582 4.046619 25.598630 0.466990 -0.800134 0.376438 0 0
  phy
    0 -9.848971 15.174463 21.809058 -0.797424 -0.468632 -0.380130 0 0
    0 -11.785340 4.046619 5.030194 0.475270 0.683308 -0.554264 0 0
    0 -11.785340 4.046618 25.598630 0.924499 -0.288384 -0.249270 0 0
  phy
    0 12.010582 4.046619 25.598630 0.466990 -0.800134 0.376438 0 0
    0 -11.785340 4.046618 25.598630 0.924499 -0.288384 -0.249270 0 0
    0 12.010582 4.046620 5.030194 0.876526 0.268210 0.399708 0 0
  phy
    0 12.010582 4.046620 5.030194 0.876526 0.268210 0.399708 0 0
    0 -11.785340 4.046618 25.598630 0.924499 -0.288384 -0.249270 0 0
    0 -11.785340 4.046619 5.030194 0.475270 0.683308 -0.554264 0 0
  phy
    0 12.010582 4.046620 5.030194 0.876526 0.268210 0.399708 0 0
    0 -11.785340 4.046619 5.030194 0.475270 0.683308 -0.554264 0 0
    0 10.074209 15.174463 6.914838 -0.807952 0.557768 0.190020 0 0
end
