// Created by Crowbar 0.74
version 1
nodes
  0 "Rig_Buggy.Frame" -1
  1 "Rig_Buggy.Shock_RR_Sleeve" 0
  2 "Rig_Buggy.Shock_FR_Sleeve" 0
  3 "Rig_Buggy.Axel_RR" 0
  4 "Rig_Buggy.Wheel_RR" 3
  5 "Rig_Buggy.Shock_RR_Piston" 3
  6 "Rig_Buggy.Steer_Arm" 0
  7 "Rig_Buggy.Shock_FL_Sleeve" 0
  8 "Rig_Buggy.Axel_RL" 0
  9 "Rig_Buggy.Wheel_RL" 8
  10 "Rig_Buggy.Shock_RL_Piston" 8
  11 "Rig_Buggy.Shock_RL_Sleeve" 0
  12 "Rig_Buggy.view" 0
  13 "Rig_Buggy.Gun_Base" 0
  14 "Rig_Buggy.Gun_Parent" 13
  15 "Rig_Buggy.Gun" 14
  16 "Rig_Buggy.Speedo" 0
  17 "Rig_Buggy.Wheel_FR_Turn_parent" 0
  18 "Rig_Buggy.Wheel_FR_Turn" 17
  19 "Rig_Buggy.Wheel_FR_Rotate" 18
  20 "Rig_Buggy.Axel_FR" 0
  21 "Rig_Buggy.Shock_FR_Piston" 20
  22 "Rig_Buggy.Wheel_FL_Turn_parent" 0
  23 "Rig_Buggy.Wheel_FL_Turn" 22
  24 "Rig_Buggy.Wheel_FL_Rotate" 23
  25 "Rig_Buggy.Axel_FL" 0
  26 "Rig_Buggy.Shock_FL_Piston" 25
  27 "Rig_Buggy.Steer_Wheel" 0
  28 "Rig_Buggy.lid" 0
  29 "Rig_Buggy.latch" 28
  30 "Rig_Buggy.gun_cylinders" 15
end
skeleton
  time 0
    0 -33.687500 -0.000004 32.312500 1.570792 0.002895 1.567901
    1 -25.390625 9.476563 -60.000000 0.007403 -0.264986 -1.495672
    2 -25.500000 6.121094 74.562500 0.268794 0.005691 -3.065482
    3 -4.093750 -12.898438 -54.187500 -3.141593 0.000000 -3.141593
    4 36.093750 0.139771 -0.183838 -3.141593 0.000000 3.141593
    5 19.640625 0.445557 -0.155884 -3.110558 -0.264987 1.495673
    6 0.015686 -10.796875 66.625000 0.000000 0.000000 0.000000
    7 25.500000 6.121094 74.562500 2.876405 -0.019503 -0.071313
    8 4.093750 -12.898438 -54.187500 0.000000 0.000000 0.000000
    9 36.093750 0.139771 0.183838 -3.141593 0.000000 -3.141593
    10 19.562500 0.449951 0.159302 -0.024410 0.265136 1.494187
    11 25.343750 9.476563 -60.000000 0.007043 -0.265136 -1.647406
    12 8.953125 19.687500 -11.382813 0.000000 -1.570796 -1.570796
    13 -16.015625 9.289063 50.312500 0.000000 0.000000 0.000000
    14 0.019745 5.535156 -0.213135 0.000000 -1.570796 -1.570796
    15 0.000002 0.000002 0.000000 0.000000 0.000000 0.000000
    16 5.378906 8.585938 27.375000 -1.230457 0.000000 0.000000
    17 -32.968750 -14.375000 74.875000 0.000000 0.000000 0.000000
    18 -0.000004 0.207031 -0.009148 0.000000 0.000000 0.000000
    19 -6.250000 0.000002 0.000000 0.000000 0.000000 0.000000
    20 -13.601563 -14.679688 84.437500 -1.655486 0.445706 -2.888000
    21 10.992188 -2.070313 1.356445 -1.940707 -0.171070 2.830508
    22 32.968750 -14.375000 74.875000 -3.141593 0.000000 3.141593
    23 0.000000 0.207031 0.009140 0.000000 0.000000 0.000000
    24 -6.250000 -0.000002 0.000004 0.000000 0.000000 0.000000
    25 13.601563 -14.679688 84.437500 -0.057762 0.445706 -0.253592
    26 11.039063 -2.759766 2.041016 -0.263171 -0.211841 0.098316
    27 8.476563 9.398438 15.687500 -1.178097 0.000000 0.000000
    28 -9.954546 3.416579 -54.792679 0.000000 0.000000 1.811119
    29 19.651349 -0.439605 -0.000008 0.000000 0.000000 -1.773618
    30 -8.015625 0.036713 0.530762 1.570796 0.000000 1.570796
  time 1
    0 -33.687500 -0.000004 32.312500 1.570792 0.002895 1.567901
    1 -25.390625 9.476563 -60.000000 0.007403 -0.264986 -1.495672
    2 -25.500000 6.121094 74.562500 0.268794 0.005691 -3.065482
    3 -4.093750 -12.898438 -54.187500 -3.141593 0.000000 -3.141593
    4 36.093750 0.139771 -0.183838 -3.141593 0.000000 3.141593
    5 19.640625 0.445557 -0.155884 -3.110558 -0.264987 1.495673
    6 0.015686 -10.796875 66.625000 0.000000 0.000000 0.000000
    7 25.500000 6.121094 74.562500 2.876405 -0.019503 -0.071313
    8 4.093750 -12.898438 -54.187500 0.000000 0.000000 0.000000
    9 36.093750 0.139771 0.183838 -3.141593 0.000000 -3.141593
    10 19.562500 0.449951 0.159302 -0.024410 0.265136 1.494187
    11 25.343750 9.476563 -60.000000 0.007043 -0.265136 -1.647406
    12 8.953125 19.687500 -11.382813 0.000000 -1.570796 -1.570796
    13 -16.015625 9.289063 50.312500 0.000000 0.000000 0.000000
    14 0.019745 5.535156 -0.213135 0.000000 -1.570796 -1.570796
    15 0.000002 0.000002 0.000000 0.000000 0.000000 0.000000
    16 5.378906 8.585938 27.375000 -1.230457 0.000000 0.000000
    17 -32.968750 -14.375000 74.875000 0.000000 0.000000 0.000000
    18 -0.000004 0.207031 -0.009148 0.000000 0.000000 0.000000
    19 -6.250000 0.000002 0.000000 0.000000 0.000000 0.000000
    20 -13.601563 -14.679688 84.437500 -1.655486 0.445706 -2.888000
    21 10.992188 -2.070313 1.356445 -1.940707 -0.171070 2.830508
    22 32.968750 -14.375000 74.875000 -3.141593 0.000000 3.141593
    23 0.000000 0.207031 0.009140 0.000000 0.000000 0.000000
    24 -6.250000 -0.000002 0.000004 0.000000 0.000000 0.000000
    25 13.601563 -14.679688 84.437500 -0.057762 0.445706 -0.253592
    26 11.039063 -2.759766 2.041016 -0.263171 -0.211841 0.098316
    27 8.476563 9.398438 15.687500 -1.178097 0.000000 0.000000
    28 -9.954546 3.416579 -54.792679 0.000000 0.000000 1.795974
    29 19.651349 -0.439605 -0.000008 0.000000 0.000000 -1.739951
    30 -8.015625 0.036713 0.530762 1.570796 0.000000 1.570796
  time 2
    0 -33.687500 -0.000004 32.312500 1.570792 0.002895 1.567901
    1 -25.390625 9.476563 -60.000000 0.007403 -0.264986 -1.495672
    2 -25.500000 6.121094 74.562500 0.268794 0.005691 -3.065482
    3 -4.093750 -12.898438 -54.187500 -3.141593 0.000000 -3.141593
    4 36.093750 0.139771 -0.183838 -3.141593 0.000000 3.141593
    5 19.640625 0.445557 -0.155884 -3.110558 -0.264987 1.495673
    6 0.015686 -10.796875 66.625000 0.000000 0.000000 0.000000
    7 25.500000 6.121094 74.562500 2.876405 -0.019503 -0.071313
    8 4.093750 -12.898438 -54.187500 0.000000 0.000000 0.000000
    9 36.093750 0.139771 0.183838 -3.141593 0.000000 -3.141593
    10 19.562500 0.449951 0.159302 -0.024410 0.265136 1.494187
    11 25.343750 9.476563 -60.000000 0.007043 -0.265136 -1.647406
    12 8.953125 19.687500 -11.382813 0.000000 -1.570796 -1.570796
    13 -16.015625 9.289063 50.312500 0.000000 0.000000 0.000000
    14 0.019745 5.535156 -0.213135 0.000000 -1.570796 -1.570796
    15 0.000002 0.000002 0.000000 0.000000 0.000000 0.000000
    16 5.378906 8.585938 27.375000 -1.230457 0.000000 0.000000
    17 -32.968750 -14.375000 74.875000 0.000000 0.000000 0.000000
    18 -0.000004 0.207031 -0.009148 0.000000 0.000000 0.000000
    19 -6.250000 0.000002 0.000000 0.000000 0.000000 0.000000
    20 -13.601563 -14.679688 84.437500 -1.655486 0.445706 -2.888000
    21 10.992188 -2.070313 1.356445 -1.940707 -0.171070 2.830508
    22 32.968750 -14.375000 74.875000 -3.141593 0.000000 3.141593
    23 0.000000 0.207031 0.009140 0.000000 0.000000 0.000000
    24 -6.250000 -0.000002 0.000004 0.000000 0.000000 0.000000
    25 13.601563 -14.679688 84.437500 -0.057762 0.445706 -0.253592
    26 11.039063 -2.759766 2.041016 -0.263171 -0.211841 0.098316
    27 8.476563 9.398438 15.687500 -1.178097 0.000000 0.000000
    28 -9.954546 3.416579 -54.792679 0.000000 0.000000 1.740702
    29 19.651349 -0.439605 -0.000008 0.000000 0.000000 -1.644039
    30 -8.015625 0.036713 0.530762 1.570796 0.000000 1.570796
  time 3
    0 -33.687500 -0.000004 32.312500 1.570792 0.002895 1.567901
    1 -25.390625 9.476563 -60.000000 0.007403 -0.264986 -1.495672
    2 -25.500000 6.121094 74.562500 0.268794 0.005691 -3.065482
    3 -4.093750 -12.898438 -54.187500 -3.141593 0.000000 -3.141593
    4 36.093750 0.139771 -0.183838 -3.141593 0.000000 3.141593
    5 19.640625 0.445557 -0.155884 -3.110558 -0.264987 1.495673
    6 0.015686 -10.796875 66.625000 0.000000 0.000000 0.000000
    7 25.500000 6.121094 74.562500 2.876405 -0.019503 -0.071313
    8 4.093750 -12.898438 -54.187500 0.000000 0.000000 0.000000
    9 36.093750 0.139771 0.183838 -3.141593 0.000000 -3.141593
    10 19.562500 0.449951 0.159302 -0.024410 0.265136 1.494187
    11 25.343750 9.476563 -60.000000 0.007043 -0.265136 -1.647406
    12 8.953125 19.687500 -11.382813 0.000000 -1.570796 -1.570796
    13 -16.015625 9.289063 50.312500 0.000000 0.000000 0.000000
    14 0.019745 5.535156 -0.213135 0.000000 -1.570796 -1.570796
    15 0.000002 0.000002 0.000000 0.000000 0.000000 0.000000
    16 5.378906 8.585938 27.375000 -1.230457 0.000000 0.000000
    17 -32.968750 -14.375000 74.875000 0.000000 0.000000 0.000000
    18 -0.000004 0.207031 -0.009148 0.000000 0.000000 0.000000
    19 -6.250000 0.000002 0.000000 0.000000 0.000000 0.000000
    20 -13.601563 -14.679688 84.437500 -1.655486 0.445706 -2.888000
    21 10.992188 -2.070313 1.356445 -1.940707 -0.171070 2.830508
    22 32.968750 -14.375000 74.875000 -3.141593 0.000000 3.141593
    23 0.000000 0.207031 0.009140 0.000000 0.000000 0.000000
    24 -6.250000 -0.000002 0.000004 0.000000 0.000000 0.000000
    25 13.601563 -14.679688 84.437500 -0.057762 0.445706 -0.253592
    26 11.039063 -2.759766 2.041016 -0.263171 -0.211841 0.098316
    27 8.476563 9.398438 15.687500 -1.178097 0.000000 0.000000
    28 -9.954546 3.416579 -54.792679 0.000000 0.000000 1.642703
    29 19.651349 -0.439605 -0.000008 0.000000 0.000000 -1.482201
    30 -8.015625 0.036713 0.530762 1.570796 0.000000 1.570796
  time 4
    0 -33.687500 -0.000004 32.312500 1.570792 0.002895 1.567901
    1 -25.390625 9.476563 -60.000000 0.007403 -0.264986 -1.495672
    2 -25.500000 6.121094 74.562500 0.268794 0.005691 -3.065482
    3 -4.093750 -12.898438 -54.187500 -3.141593 0.000000 -3.141593
    4 36.093750 0.139771 -0.183838 -3.141593 0.000000 3.141593
    5 19.640625 0.445557 -0.155884 -3.110558 -0.264987 1.495673
    6 0.015686 -10.796875 66.625000 0.000000 0.000000 0.000000
    7 25.500000 6.121094 74.562500 2.876405 -0.019503 -0.071313
    8 4.093750 -12.898438 -54.187500 0.000000 0.000000 0.000000
    9 36.093750 0.139771 0.183838 -3.141593 0.000000 -3.141593
    10 19.562500 0.449951 0.159302 -0.024410 0.265136 1.494187
    11 25.343750 9.476563 -60.000000 0.007043 -0.265136 -1.647406
    12 8.953125 19.687500 -11.382813 0.000000 -1.570796 -1.570796
    13 -16.015625 9.289063 50.312500 0.000000 0.000000 0.000000
    14 0.019745 5.535156 -0.213135 0.000000 -1.570796 -1.570796
    15 0.000002 0.000002 0.000000 0.000000 0.000000 0.000000
    16 5.378906 8.585938 27.375000 -1.230457 0.000000 0.000000
    17 -32.968750 -14.375000 74.875000 0.000000 0.000000 0.000000
    18 -0.000004 0.207031 -0.009148 0.000000 0.000000 0.000000
    19 -6.250000 0.000002 0.000000 0.000000 0.000000 0.000000
    20 -13.601563 -14.679688 84.437500 -1.655486 0.445706 -2.888000
    21 10.992188 -2.070313 1.356445 -1.940707 -0.171070 2.830508
    22 32.968750 -14.375000 74.875000 -3.141593 0.000000 3.141593
    23 0.000000 0.207031 0.009140 0.000000 0.000000 0.000000
    24 -6.250000 -0.000002 0.000004 0.000000 0.000000 0.000000
    25 13.601563 -14.679688 84.437500 -0.057762 0.445706 -0.253592
    26 11.039063 -2.759766 2.041016 -0.263171 -0.211841 0.098316
    27 8.476563 9.398438 15.687500 -1.178097 0.000000 0.000000
    28 -9.954546 3.416579 -54.792679 0.000000 0.000000 1.498884
    29 19.651349 -0.439605 -0.000008 0.000000 0.000000 -1.251081
    30 -8.015625 0.036713 0.530762 1.570796 0.000000 1.570796
  time 5
    0 -33.687500 -0.000004 32.312500 1.570792 0.002895 1.567901
    1 -25.390625 9.476563 -60.000000 0.007403 -0.264986 -1.495672
    2 -25.500000 6.121094 74.562500 0.268794 0.005691 -3.065482
    3 -4.093750 -12.898438 -54.187500 -3.141593 0.000000 -3.141593
    4 36.093750 0.139771 -0.183838 -3.141593 0.000000 3.141593
    5 19.640625 0.445557 -0.155884 -3.110558 -0.264987 1.495673
    6 0.015686 -10.796875 66.625000 0.000000 0.000000 0.000000
    7 25.500000 6.121094 74.562500 2.876405 -0.019503 -0.071313
    8 4.093750 -12.898438 -54.187500 0.000000 0.000000 0.000000
    9 36.093750 0.139771 0.183838 -3.141593 0.000000 -3.141593
    10 19.562500 0.449951 0.159302 -0.024410 0.265136 1.494187
    11 25.343750 9.476563 -60.000000 0.007043 -0.265136 -1.647406
    12 8.953125 19.687500 -11.382813 0.000000 -1.570796 -1.570796
    13 -16.015625 9.289063 50.312500 0.000000 0.000000 0.000000
    14 0.019745 5.535156 -0.213135 0.000000 -1.570796 -1.570796
    15 0.000002 0.000002 0.000000 0.000000 0.000000 0.000000
    16 5.378906 8.585938 27.375000 -1.230457 0.000000 0.000000
    17 -32.968750 -14.375000 74.875000 0.000000 0.000000 0.000000
    18 -0.000004 0.207031 -0.009148 0.000000 0.000000 0.000000
    19 -6.250000 0.000002 0.000000 0.000000 0.000000 0.000000
    20 -13.601563 -14.679688 84.437500 -1.655486 0.445706 -2.888000
    21 10.992188 -2.070313 1.356445 -1.940707 -0.171070 2.830508
    22 32.968750 -14.375000 74.875000 -3.141593 0.000000 3.141593
    23 0.000000 0.207031 0.009140 0.000000 0.000000 0.000000
    24 -6.250000 -0.000002 0.000004 0.000000 0.000000 0.000000
    25 13.601563 -14.679688 84.437500 -0.057762 0.445706 -0.253592
    26 11.039063 -2.759766 2.041016 -0.263171 -0.211841 0.098316
    27 8.476563 9.398438 15.687500 -1.178097 0.000000 0.000000
    28 -9.954546 3.416579 -54.792679 0.000000 0.000000 1.305430
    29 19.651349 -0.439605 -0.000008 0.000000 0.000000 -0.947539
    30 -8.015625 0.036713 0.530762 1.570796 0.000000 1.570796
  time 6
    0 -33.687500 -0.000004 32.312500 1.570792 0.002895 1.567901
    1 -25.390625 9.476563 -60.000000 0.007403 -0.264986 -1.495672
    2 -25.500000 6.121094 74.562500 0.268794 0.005691 -3.065482
    3 -4.093750 -12.898438 -54.187500 -3.141593 0.000000 -3.141593
    4 36.093750 0.139771 -0.183838 -3.141593 0.000000 3.141593
    5 19.640625 0.445557 -0.155884 -3.110558 -0.264987 1.495673
    6 0.015686 -10.796875 66.625000 0.000000 0.000000 0.000000
    7 25.500000 6.121094 74.562500 2.876405 -0.019503 -0.071313
    8 4.093750 -12.898438 -54.187500 0.000000 0.000000 0.000000
    9 36.093750 0.139771 0.183838 -3.141593 0.000000 -3.141593
    10 19.562500 0.449951 0.159302 -0.024410 0.265136 1.494187
    11 25.343750 9.476563 -60.000000 0.007043 -0.265136 -1.647406
    12 8.953125 19.687500 -11.382813 0.000000 -1.570796 -1.570796
    13 -16.015625 9.289063 50.312500 0.000000 0.000000 0.000000
    14 0.019745 5.535156 -0.213135 0.000000 -1.570796 -1.570796
    15 0.000002 0.000002 0.000000 0.000000 0.000000 0.000000
    16 5.378906 8.585938 27.375000 -1.230457 0.000000 0.000000
    17 -32.968750 -14.375000 74.875000 0.000000 0.000000 0.000000
    18 -0.000004 0.207031 -0.009148 0.000000 0.000000 0.000000
    19 -6.250000 0.000002 0.000000 0.000000 0.000000 0.000000
    20 -13.601563 -14.679688 84.437500 -1.655486 0.445706 -2.888000
    21 10.992188 -2.070313 1.356445 -1.940707 -0.171070 2.830508
    22 32.968750 -14.375000 74.875000 -3.141593 0.000000 3.141593
    23 0.000000 0.207031 0.009140 0.000000 0.000000 0.000000
    24 -6.250000 -0.000002 0.000004 0.000000 0.000000 0.000000
    25 13.601563 -14.679688 84.437500 -0.057762 0.445706 -0.253592
    26 11.039063 -2.759766 2.041016 -0.263171 -0.211841 0.098316
    27 8.476563 9.398438 15.687500 -1.178097 0.000000 0.000000
    28 -9.954546 3.416579 -54.792679 0.000000 0.000000 1.057532
    29 19.651349 -0.439605 -0.000008 0.000000 0.000000 -0.569952
    30 -8.015625 0.036713 0.530762 1.570796 0.000000 1.570796
  time 7
    0 -33.687500 -0.000004 32.312500 1.570792 0.002895 1.567901
    1 -25.390625 9.476563 -60.000000 0.007403 -0.264986 -1.495672
    2 -25.500000 6.121094 74.562500 0.268794 0.005691 -3.065482
    3 -4.093750 -12.898438 -54.187500 -3.141593 0.000000 -3.141593
    4 36.093750 0.139771 -0.183838 -3.141593 0.000000 3.141593
    5 19.640625 0.445557 -0.155884 -3.110558 -0.264987 1.495673
    6 0.015686 -10.796875 66.625000 0.000000 0.000000 0.000000
    7 25.500000 6.121094 74.562500 2.876405 -0.019503 -0.071313
    8 4.093750 -12.898438 -54.187500 0.000000 0.000000 0.000000
    9 36.093750 0.139771 0.183838 -3.141593 0.000000 -3.141593
    10 19.562500 0.449951 0.159302 -0.024410 0.265136 1.494187
    11 25.343750 9.476563 -60.000000 0.007043 -0.265136 -1.647406
    12 8.953125 19.687500 -11.382813 0.000000 -1.570796 -1.570796
    13 -16.015625 9.289063 50.312500 0.000000 0.000000 0.000000
    14 0.019745 5.535156 -0.213135 0.000000 -1.570796 -1.570796
    15 0.000002 0.000002 0.000000 0.000000 0.000000 0.000000
    16 5.378906 8.585938 27.375000 -1.230457 0.000000 0.000000
    17 -32.968750 -14.375000 74.875000 0.000000 0.000000 0.000000
    18 -0.000004 0.207031 -0.009148 0.000000 0.000000 0.000000
    19 -6.250000 0.000002 0.000000 0.000000 0.000000 0.000000
    20 -13.601563 -14.679688 84.437500 -1.655486 0.445706 -2.888000
    21 10.992188 -2.070313 1.356445 -1.940707 -0.171070 2.830508
    22 32.968750 -14.375000 74.875000 -3.141593 0.000000 3.141593
    23 0.000000 0.207031 0.009140 0.000000 0.000000 0.000000
    24 -6.250000 -0.000002 0.000004 0.000000 0.000000 0.000000
    25 13.601563 -14.679688 84.437500 -0.057762 0.445706 -0.253592
    26 11.039063 -2.759766 2.041016 -0.263171 -0.211841 0.098316
    27 8.476563 9.398438 15.687500 -1.178097 0.000000 0.000000
    28 -9.954546 3.416579 -54.792679 0.000000 0.000000 0.749055
    29 19.651349 -0.439605 -0.000008 0.000000 0.000000 -0.122326
    30 -8.015625 0.036713 0.530762 1.570796 0.000000 1.570796
  time 8
    0 -33.687500 -0.000004 32.312500 1.570792 0.002895 1.567901
    1 -25.390625 9.476563 -60.000000 0.007403 -0.264986 -1.495672
    2 -25.500000 6.121094 74.562500 0.268794 0.005691 -3.065482
    3 -4.093750 -12.898438 -54.187500 -3.141593 0.000000 -3.141593
    4 36.093750 0.139771 -0.183838 -3.141593 0.000000 3.141593
    5 19.640625 0.445557 -0.155884 -3.110558 -0.264987 1.495673
    6 0.015686 -10.796875 66.625000 0.000000 0.000000 0.000000
    7 25.500000 6.121094 74.562500 2.876405 -0.019503 -0.071313
    8 4.093750 -12.898438 -54.187500 0.000000 0.000000 0.000000
    9 36.093750 0.139771 0.183838 -3.141593 0.000000 -3.141593
    10 19.562500 0.449951 0.159302 -0.024410 0.265136 1.494187
    11 25.343750 9.476563 -60.000000 0.007043 -0.265136 -1.647406
    12 8.953125 19.687500 -11.382813 0.000000 -1.570796 -1.570796
    13 -16.015625 9.289063 50.312500 0.000000 0.000000 0.000000
    14 0.019745 5.535156 -0.213135 0.000000 -1.570796 -1.570796
    15 0.000002 0.000002 0.000000 0.000000 0.000000 0.000000
    16 5.378906 8.585938 27.375000 -1.230457 0.000000 0.000000
    17 -32.968750 -14.375000 74.875000 0.000000 0.000000 0.000000
    18 -0.000004 0.207031 -0.009148 0.000000 0.000000 0.000000
    19 -6.250000 0.000002 0.000000 0.000000 0.000000 0.000000
    20 -13.601563 -14.679688 84.437500 -1.655486 0.445706 -2.888000
    21 10.992188 -2.070313 1.356445 -1.940707 -0.171070 2.830508
    22 32.968750 -14.375000 74.875000 -3.141593 0.000000 3.141593
    23 0.000000 0.207031 0.009140 0.000000 0.000000 0.000000
    24 -6.250000 -0.000002 0.000004 0.000000 0.000000 0.000000
    25 13.601563 -14.679688 84.437500 -0.057762 0.445706 -0.253592
    26 11.039063 -2.759766 2.041016 -0.263171 -0.211841 0.098316
    27 8.476563 9.398438 15.687500 -1.178097 0.000000 0.000000
    28 -9.954546 3.416579 -54.792679 0.000000 0.000000 0.372703
    29 19.651349 -0.439605 -0.000008 0.000000 0.000000 0.371579
    30 -8.015625 0.036713 0.530762 1.570796 0.000000 1.570796
  time 9
    0 -33.687500 -0.000004 32.312500 1.570792 0.002895 1.567901
    1 -25.390625 9.476563 -60.000000 0.007403 -0.264986 -1.495672
    2 -25.500000 6.121094 74.562500 0.268794 0.005691 -3.065482
    3 -4.093750 -12.898438 -54.187500 -3.141593 0.000000 -3.141593
    4 36.093750 0.139771 -0.183838 -3.141593 0.000000 3.141593
    5 19.640625 0.445557 -0.155884 -3.110558 -0.264987 1.495673
    6 0.015686 -10.796875 66.625000 0.000000 0.000000 0.000000
    7 25.500000 6.121094 74.562500 2.876405 -0.019503 -0.071313
    8 4.093750 -12.898438 -54.187500 0.000000 0.000000 0.000000
    9 36.093750 0.139771 0.183838 -3.141593 0.000000 -3.141593
    10 19.562500 0.449951 0.159302 -0.024410 0.265136 1.494187
    11 25.343750 9.476563 -60.000000 0.007043 -0.265136 -1.647406
    12 8.953125 19.687500 -11.382813 0.000000 -1.570796 -1.570796
    13 -16.015625 9.289063 50.312500 0.000000 0.000000 0.000000
    14 0.019745 5.535156 -0.213135 0.000000 -1.570796 -1.570796
    15 0.000002 0.000002 0.000000 0.000000 0.000000 0.000000
    16 5.378906 8.585938 27.375000 -1.230457 0.000000 0.000000
    17 -32.968750 -14.375000 74.875000 0.000000 0.000000 0.000000
    18 -0.000004 0.207031 -0.009148 0.000000 0.000000 0.000000
    19 -6.250000 0.000002 0.000000 0.000000 0.000000 0.000000
    20 -13.601563 -14.679688 84.437500 -1.655486 0.445706 -2.888000
    21 10.992188 -2.070313 1.356445 -1.940707 -0.171070 2.830508
    22 32.968750 -14.375000 74.875000 -3.141593 0.000000 3.141593
    23 0.000000 0.207031 0.009140 0.000000 0.000000 0.000000
    24 -6.250000 -0.000002 0.000004 0.000000 0.000000 0.000000
    25 13.601563 -14.679688 84.437500 -0.057762 0.445706 -0.253592
    26 11.039063 -2.759766 2.041016 -0.263171 -0.211841 0.098316
    27 8.476563 9.398438 15.687500 -1.178097 0.000000 0.000000
    28 -9.954546 3.416579 -54.792679 0.000000 0.000000 -0.040238
    29 19.651349 -0.439605 -0.000008 0.000000 0.000000 0.767352
    30 -8.015625 0.036713 0.530762 1.570796 0.000000 1.570796
  time 10
    0 -33.687500 -0.000004 32.312500 1.570792 0.002895 1.567901
    1 -25.390625 9.476563 -60.000000 0.007403 -0.264986 -1.495672
    2 -25.500000 6.121094 74.562500 0.268794 0.005691 -3.065482
    3 -4.093750 -12.898438 -54.187500 -3.141593 0.000000 -3.141593
    4 36.093750 0.139771 -0.183838 -3.141593 0.000000 3.141593
    5 19.640625 0.445557 -0.155884 -3.110558 -0.264987 1.495673
    6 0.015686 -10.796875 66.625000 0.000000 0.000000 0.000000
    7 25.500000 6.121094 74.562500 2.876405 -0.019503 -0.071313
    8 4.093750 -12.898438 -54.187500 0.000000 0.000000 0.000000
    9 36.093750 0.139771 0.183838 -3.141593 0.000000 -3.141593
    10 19.562500 0.449951 0.159302 -0.024410 0.265136 1.494187
    11 25.343750 9.476563 -60.000000 0.007043 -0.265136 -1.647406
    12 8.953125 19.687500 -11.382813 0.000000 -1.570796 -1.570796
    13 -16.015625 9.289063 50.312500 0.000000 0.000000 0.000000
    14 0.019745 5.535156 -0.213135 0.000000 -1.570796 -1.570796
    15 0.000002 0.000002 0.000000 0.000000 0.000000 0.000000
    16 5.378906 8.585938 27.375000 -1.230457 0.000000 0.000000
    17 -32.968750 -14.375000 74.875000 0.000000 0.000000 0.000000
    18 -0.000004 0.207031 -0.009148 0.000000 0.000000 0.000000
    19 -6.250000 0.000002 0.000000 0.000000 0.000000 0.000000
    20 -13.601563 -14.679688 84.437500 -1.655486 0.445706 -2.888000
    21 10.992188 -2.070313 1.356445 -1.940707 -0.171070 2.830508
    22 32.968750 -14.375000 74.875000 -3.141593 0.000000 3.141593
    23 0.000000 0.207031 0.009140 0.000000 0.000000 0.000000
    24 -6.250000 -0.000002 0.000004 0.000000 0.000000 0.000000
    25 13.601563 -14.679688 84.437500 -0.057762 0.445706 -0.253592
    26 11.039063 -2.759766 2.041016 -0.263171 -0.211841 0.098316
    27 8.476563 9.398438 15.687500 -1.178097 0.000000 0.000000
    28 -9.954546 3.416579 -54.792679 0.000000 0.000000 -0.020340
    29 19.651349 -0.439605 -0.000008 0.000000 0.000000 0.474852
    30 -8.015625 0.036713 0.530762 1.570796 0.000000 1.570796
  time 11
    0 -33.687500 -0.000004 32.312500 1.570792 0.002895 1.567901
    1 -25.390625 9.476563 -60.000000 0.007403 -0.264986 -1.495672
    2 -25.500000 6.121094 74.562500 0.268794 0.005691 -3.065482
    3 -4.093750 -12.898438 -54.187500 -3.141593 0.000000 -3.141593
    4 36.093750 0.139771 -0.183838 -3.141593 0.000000 3.141593
    5 19.640625 0.445557 -0.155884 -3.110558 -0.264987 1.495673
    6 0.015686 -10.796875 66.625000 0.000000 0.000000 0.000000
    7 25.500000 6.121094 74.562500 2.876405 -0.019503 -0.071313
    8 4.093750 -12.898438 -54.187500 0.000000 0.000000 0.000000
    9 36.093750 0.139771 0.183838 -3.141593 0.000000 -3.141593
    10 19.562500 0.449951 0.159302 -0.024410 0.265136 1.494187
    11 25.343750 9.476563 -60.000000 0.007043 -0.265136 -1.647406
    12 8.953125 19.687500 -11.382813 0.000000 -1.570796 -1.570796
    13 -16.015625 9.289063 50.312500 0.000000 0.000000 0.000000
    14 0.019745 5.535156 -0.213135 0.000000 -1.570796 -1.570796
    15 0.000002 0.000002 0.000000 0.000000 0.000000 0.000000
    16 5.378906 8.585938 27.375000 -1.230457 0.000000 0.000000
    17 -32.968750 -14.375000 74.875000 0.000000 0.000000 0.000000
    18 -0.000004 0.207031 -0.009148 0.000000 0.000000 0.000000
    19 -6.250000 0.000002 0.000000 0.000000 0.000000 0.000000
    20 -13.601563 -14.679688 84.437500 -1.655486 0.445706 -2.888000
    21 10.992188 -2.070313 1.356445 -1.940707 -0.171070 2.830508
    22 32.968750 -14.375000 74.875000 -3.141593 0.000000 3.141593
    23 0.000000 0.207031 0.009140 0.000000 0.000000 0.000000
    24 -6.250000 -0.000002 0.000004 0.000000 0.000000 0.000000
    25 13.601563 -14.679688 84.437500 -0.057762 0.445706 -0.253592
    26 11.039063 -2.759766 2.041016 -0.263171 -0.211841 0.098316
    27 8.476563 9.398438 15.687500 -1.178097 0.000000 0.000000
    28 -9.954546 3.416579 -54.792679 0.000000 0.000000 0.008236
    29 19.651349 -0.439605 -0.000008 0.000000 0.000000 -0.059485
    30 -8.015625 0.036713 0.530762 1.570796 0.000000 1.570796
  time 12
    0 -33.687500 -0.000004 32.312500 1.570792 0.002895 1.567901
    1 -25.390625 9.476563 -60.000000 0.007403 -0.264986 -1.495672
    2 -25.500000 6.121094 74.562500 0.268794 0.005691 -3.065482
    3 -4.093750 -12.898438 -54.187500 -3.141593 0.000000 -3.141593
    4 36.093750 0.139771 -0.183838 -3.141593 0.000000 3.141593
    5 19.640625 0.445557 -0.155884 -3.110558 -0.264987 1.495673
    6 0.015686 -10.796875 66.625000 0.000000 0.000000 0.000000
    7 25.500000 6.121094 74.562500 2.876405 -0.019503 -0.071313
    8 4.093750 -12.898438 -54.187500 0.000000 0.000000 0.000000
    9 36.093750 0.139771 0.183838 -3.141593 0.000000 -3.141593
    10 19.562500 0.449951 0.159302 -0.024410 0.265136 1.494187
    11 25.343750 9.476563 -60.000000 0.007043 -0.265136 -1.647406
    12 8.953125 19.687500 -11.382813 0.000000 -1.570796 -1.570796
    13 -16.015625 9.289063 50.312500 0.000000 0.000000 0.000000
    14 0.019745 5.535156 -0.213135 0.000000 -1.570796 -1.570796
    15 0.000002 0.000002 0.000000 0.000000 0.000000 0.000000
    16 5.378906 8.585938 27.375000 -1.230457 0.000000 0.000000
    17 -32.968750 -14.375000 74.875000 0.000000 0.000000 0.000000
    18 -0.000004 0.207031 -0.009148 0.000000 0.000000 0.000000
    19 -6.250000 0.000002 0.000000 0.000000 0.000000 0.000000
    20 -13.601563 -14.679688 84.437500 -1.655486 0.445706 -2.888000
    21 10.992188 -2.070313 1.356445 -1.940707 -0.171070 2.830508
    22 32.968750 -14.375000 74.875000 -3.141593 0.000000 3.141593
    23 0.000000 0.207031 0.009140 0.000000 0.000000 0.000000
    24 -6.250000 -0.000002 0.000004 0.000000 0.000000 0.000000
    25 13.601563 -14.679688 84.437500 -0.057762 0.445706 -0.253592
    26 11.039063 -2.759766 2.041016 -0.263171 -0.211841 0.098316
    27 8.476563 9.398438 15.687500 -1.178097 0.000000 0.000000
    28 -9.954546 3.416579 -54.792679 0.000000 0.000000 0.027084
    29 19.651349 -0.439605 -0.000008 0.000000 0.000000 0.006874
    30 -8.015625 0.036713 0.530762 1.570796 0.000000 1.570796
  time 13
    0 -33.687500 -0.000004 32.312500 1.570792 0.002895 1.567901
    1 -25.390625 9.476563 -60.000000 0.007403 -0.264986 -1.495672
    2 -25.500000 6.121094 74.562500 0.268794 0.005691 -3.065482
    3 -4.093750 -12.898438 -54.187500 -3.141593 0.000000 -3.141593
    4 36.093750 0.139771 -0.183838 -3.141593 0.000000 3.141593
    5 19.640625 0.445557 -0.155884 -3.110558 -0.264987 1.495673
    6 0.015686 -10.796875 66.625000 0.000000 0.000000 0.000000
    7 25.500000 6.121094 74.562500 2.876405 -0.019503 -0.071313
    8 4.093750 -12.898438 -54.187500 0.000000 0.000000 0.000000
    9 36.093750 0.139771 0.183838 -3.141593 0.000000 -3.141593
    10 19.562500 0.449951 0.159302 -0.024410 0.265136 1.494187
    11 25.343750 9.476563 -60.000000 0.007043 -0.265136 -1.647406
    12 8.953125 19.687500 -11.382813 0.000000 -1.570796 -1.570796
    13 -16.015625 9.289063 50.312500 0.000000 0.000000 0.000000
    14 0.019745 5.535156 -0.213135 0.000000 -1.570796 -1.570796
    15 0.000002 0.000002 0.000000 0.000000 0.000000 0.000000
    16 5.378906 8.585938 27.375000 -1.230457 0.000000 0.000000
    17 -32.968750 -14.375000 74.875000 0.000000 0.000000 0.000000
    18 -0.000004 0.207031 -0.009148 0.000000 0.000000 0.000000
    19 -6.250000 0.000002 0.000000 0.000000 0.000000 0.000000
    20 -13.601563 -14.679688 84.437500 -1.655486 0.445706 -2.888000
    21 10.992188 -2.070313 1.356445 -1.940707 -0.171070 2.830508
    22 32.968750 -14.375000 74.875000 -3.141593 0.000000 3.141593
    23 0.000000 0.207031 0.009140 0.000000 0.000000 0.000000
    24 -6.250000 -0.000002 0.000004 0.000000 0.000000 0.000000
    25 13.601563 -14.679688 84.437500 -0.057762 0.445706 -0.253592
    26 11.039063 -2.759766 2.041016 -0.263171 -0.211841 0.098316
    27 8.476563 9.398438 15.687500 -1.178097 0.000000 0.000000
    28 -9.954546 3.416579 -54.792679 0.000000 0.000000 0.022993
    29 19.651349 -0.439605 -0.000008 0.000000 0.000000 0.099809
    30 -8.015625 0.036713 0.530762 1.570796 0.000000 1.570796
  time 14
    0 -33.687500 -0.000004 32.312500 1.570792 0.002895 1.567901
    1 -25.390625 9.476563 -60.000000 0.007403 -0.264986 -1.495672
    2 -25.500000 6.121094 74.562500 0.268794 0.005691 -3.065482
    3 -4.093750 -12.898438 -54.187500 -3.141593 0.000000 -3.141593
    4 36.093750 0.139771 -0.183838 -3.141593 0.000000 3.141593
    5 19.640625 0.445557 -0.155884 -3.110558 -0.264987 1.495673
    6 0.015686 -10.796875 66.625000 0.000000 0.000000 0.000000
    7 25.500000 6.121094 74.562500 2.876405 -0.019503 -0.071313
    8 4.093750 -12.898438 -54.187500 0.000000 0.000000 0.000000
    9 36.093750 0.139771 0.183838 -3.141593 0.000000 -3.141593
    10 19.562500 0.449951 0.159302 -0.024410 0.265136 1.494187
    11 25.343750 9.476563 -60.000000 0.007043 -0.265136 -1.647406
    12 8.953125 19.687500 -11.382813 0.000000 -1.570796 -1.570796
    13 -16.015625 9.289063 50.312500 0.000000 0.000000 0.000000
    14 0.019745 5.535156 -0.213135 0.000000 -1.570796 -1.570796
    15 0.000002 0.000002 0.000000 0.000000 0.000000 0.000000
    16 5.378906 8.585938 27.375000 -1.230457 0.000000 0.000000
    17 -32.968750 -14.375000 74.875000 0.000000 0.000000 0.000000
    18 -0.000004 0.207031 -0.009148 0.000000 0.000000 0.000000
    19 -6.250000 0.000002 0.000000 0.000000 0.000000 0.000000
    20 -13.601563 -14.679688 84.437500 -1.655486 0.445706 -2.888000
    21 10.992188 -2.070313 1.356445 -1.940707 -0.171070 2.830508
    22 32.968750 -14.375000 74.875000 -3.141593 0.000000 3.141593
    23 0.000000 0.207031 0.009140 0.000000 0.000000 0.000000
    24 -6.250000 -0.000002 0.000004 0.000000 0.000000 0.000000
    25 13.601563 -14.679688 84.437500 -0.057762 0.445706 -0.253592
    26 11.039063 -2.759766 2.041016 -0.263171 -0.211841 0.098316
    27 8.476563 9.398438 15.687500 -1.178097 0.000000 0.000000
    28 -9.954546 3.416579 -54.792679 0.000000 0.000000 0.008512
    29 19.651349 -0.439605 -0.000008 0.000000 0.000000 0.188577
    30 -8.015625 0.036713 0.530762 1.570796 0.000000 1.570796
  time 15
    0 -33.687500 -0.000004 32.312500 1.570792 0.002895 1.567901
    1 -25.390625 9.476563 -60.000000 0.007403 -0.264986 -1.495672
    2 -25.500000 6.121094 74.562500 0.268794 0.005691 -3.065482
    3 -4.093750 -12.898438 -54.187500 -3.141593 0.000000 -3.141593
    4 36.093750 0.139771 -0.183838 -3.141593 0.000000 3.141593
    5 19.640625 0.445557 -0.155884 -3.110558 -0.264987 1.495673
    6 0.015686 -10.796875 66.625000 0.000000 0.000000 0.000000
    7 25.500000 6.121094 74.562500 2.876405 -0.019503 -0.071313
    8 4.093750 -12.898438 -54.187500 0.000000 0.000000 0.000000
    9 36.093750 0.139771 0.183838 -3.141593 0.000000 -3.141593
    10 19.562500 0.449951 0.159302 -0.024410 0.265136 1.494187
    11 25.343750 9.476563 -60.000000 0.007043 -0.265136 -1.647406
    12 8.953125 19.687500 -11.382813 0.000000 -1.570796 -1.570796
    13 -16.015625 9.289063 50.312500 0.000000 0.000000 0.000000
    14 0.019745 5.535156 -0.213135 0.000000 -1.570796 -1.570796
    15 0.000002 0.000002 0.000000 0.000000 0.000000 0.000000
    16 5.378906 8.585938 27.375000 -1.230457 0.000000 0.000000
    17 -32.968750 -14.375000 74.875000 0.000000 0.000000 0.000000
    18 -0.000004 0.207031 -0.009148 0.000000 0.000000 0.000000
    19 -6.250000 0.000002 0.000000 0.000000 0.000000 0.000000
    20 -13.601563 -14.679688 84.437500 -1.655486 0.445706 -2.888000
    21 10.992188 -2.070313 1.356445 -1.940707 -0.171070 2.830508
    22 32.968750 -14.375000 74.875000 -3.141593 0.000000 3.141593
    23 0.000000 0.207031 0.009140 0.000000 0.000000 0.000000
    24 -6.250000 -0.000002 0.000004 0.000000 0.000000 0.000000
    25 13.601563 -14.679688 84.437500 -0.057762 0.445706 -0.253592
    26 11.039063 -2.759766 2.041016 -0.263171 -0.211841 0.098316
    27 8.476563 9.398438 15.687500 -1.178097 0.000000 0.000000
    28 -9.954546 3.416579 -54.792679 0.000000 0.000000 0.000000
    29 19.651349 -0.439605 -0.000008 0.000000 0.000000 0.242812
    30 -8.015625 0.036713 0.530762 1.570796 0.000000 1.570796
  time 16
    0 -33.687500 -0.000004 32.312500 1.570792 0.002895 1.567901
    1 -25.390625 9.476563 -60.000000 0.007403 -0.264986 -1.495672
    2 -25.500000 6.121094 74.562500 0.268794 0.005691 -3.065482
    3 -4.093750 -12.898438 -54.187500 -3.141593 0.000000 -3.141593
    4 36.093750 0.139771 -0.183838 -3.141593 0.000000 3.141593
    5 19.640625 0.445557 -0.155884 -3.110558 -0.264987 1.495673
    6 0.015686 -10.796875 66.625000 0.000000 0.000000 0.000000
    7 25.500000 6.121094 74.562500 2.876405 -0.019503 -0.071313
    8 4.093750 -12.898438 -54.187500 0.000000 0.000000 0.000000
    9 36.093750 0.139771 0.183838 -3.141593 0.000000 -3.141593
    10 19.562500 0.449951 0.159302 -0.024410 0.265136 1.494187
    11 25.343750 9.476563 -60.000000 0.007043 -0.265136 -1.647406
    12 8.953125 19.687500 -11.382813 0.000000 -1.570796 -1.570796
    13 -16.015625 9.289063 50.312500 0.000000 0.000000 0.000000
    14 0.019745 5.535156 -0.213135 0.000000 -1.570796 -1.570796
    15 0.000002 0.000002 0.000000 0.000000 0.000000 0.000000
    16 5.378906 8.585938 27.375000 -1.230457 0.000000 0.000000
    17 -32.968750 -14.375000 74.875000 0.000000 0.000000 0.000000
    18 -0.000004 0.207031 -0.009148 0.000000 0.000000 0.000000
    19 -6.250000 0.000002 0.000000 0.000000 0.000000 0.000000
    20 -13.601563 -14.679688 84.437500 -1.655486 0.445706 -2.888000
    21 10.992188 -2.070313 1.356445 -1.940707 -0.171070 2.830508
    22 32.968750 -14.375000 74.875000 -3.141593 0.000000 3.141593
    23 0.000000 0.207031 0.009140 0.000000 0.000000 0.000000
    24 -6.250000 -0.000002 0.000004 0.000000 0.000000 0.000000
    25 13.601563 -14.679688 84.437500 -0.057762 0.445706 -0.253592
    26 11.039063 -2.759766 2.041016 -0.263171 -0.211841 0.098316
    27 8.476563 9.398438 15.687500 -1.178097 0.000000 0.000000
    28 -9.954546 3.416579 -54.792679 0.000000 0.000000 0.000000
    29 19.651349 -0.439605 -0.000008 0.000000 0.000000 0.183543
    30 -8.015625 0.036713 0.530762 1.570796 0.000000 1.570796
  time 17
    0 -33.687500 -0.000004 32.312500 1.570792 0.002895 1.567901
    1 -25.390625 9.476563 -60.000000 0.007403 -0.264986 -1.495672
    2 -25.500000 6.121094 74.562500 0.268794 0.005691 -3.065482
    3 -4.093750 -12.898438 -54.187500 -3.141593 0.000000 -3.141593
    4 36.093750 0.139771 -0.183838 -3.141593 0.000000 3.141593
    5 19.640625 0.445557 -0.155884 -3.110558 -0.264987 1.495673
    6 0.015686 -10.796875 66.625000 0.000000 0.000000 0.000000
    7 25.500000 6.121094 74.562500 2.876405 -0.019503 -0.071313
    8 4.093750 -12.898438 -54.187500 0.000000 0.000000 0.000000
    9 36.093750 0.139771 0.183838 -3.141593 0.000000 -3.141593
    10 19.562500 0.449951 0.159302 -0.024410 0.265136 1.494187
    11 25.343750 9.476563 -60.000000 0.007043 -0.265136 -1.647406
    12 8.953125 19.687500 -11.382813 0.000000 -1.570796 -1.570796
    13 -16.015625 9.289063 50.312500 0.000000 0.000000 0.000000
    14 0.019745 5.535156 -0.213135 0.000000 -1.570796 -1.570796
    15 0.000002 0.000002 0.000000 0.000000 0.000000 0.000000
    16 5.378906 8.585938 27.375000 -1.230457 0.000000 0.000000
    17 -32.968750 -14.375000 74.875000 0.000000 0.000000 0.000000
    18 -0.000004 0.207031 -0.009148 0.000000 0.000000 0.000000
    19 -6.250000 0.000002 0.000000 0.000000 0.000000 0.000000
    20 -13.601563 -14.679688 84.437500 -1.655486 0.445706 -2.888000
    21 10.992188 -2.070313 1.356445 -1.940707 -0.171070 2.830508
    22 32.968750 -14.375000 74.875000 -3.141593 0.000000 3.141593
    23 0.000000 0.207031 0.009140 0.000000 0.000000 0.000000
    24 -6.250000 -0.000002 0.000004 0.000000 0.000000 0.000000
    25 13.601563 -14.679688 84.437500 -0.057762 0.445706 -0.253592
    26 11.039063 -2.759766 2.041016 -0.263171 -0.211841 0.098316
    27 8.476563 9.398438 15.687500 -1.178097 0.000000 0.000000
    28 -9.954546 3.416579 -54.792679 0.000000 0.000000 0.000000
    29 19.651349 -0.439605 -0.000008 0.000000 0.000000 0.064844
    30 -8.015625 0.036713 0.530762 1.570796 0.000000 1.570796
  time 18
    0 -33.687500 -0.000004 32.312500 1.570792 0.002895 1.567901
    1 -25.390625 9.476563 -60.000000 0.007403 -0.264986 -1.495672
    2 -25.500000 6.121094 74.562500 0.268794 0.005691 -3.065482
    3 -4.093750 -12.898438 -54.187500 -3.141593 0.000000 -3.141593
    4 36.093750 0.139771 -0.183838 -3.141593 0.000000 3.141593
    5 19.640625 0.445557 -0.155884 -3.110558 -0.264987 1.495673
    6 0.015686 -10.796875 66.625000 0.000000 0.000000 0.000000
    7 25.500000 6.121094 74.562500 2.876405 -0.019503 -0.071313
    8 4.093750 -12.898438 -54.187500 0.000000 0.000000 0.000000
    9 36.093750 0.139771 0.183838 -3.141593 0.000000 -3.141593
    10 19.562500 0.449951 0.159302 -0.024410 0.265136 1.494187
    11 25.343750 9.476563 -60.000000 0.007043 -0.265136 -1.647406
    12 8.953125 19.687500 -11.382813 0.000000 -1.570796 -1.570796
    13 -16.015625 9.289063 50.312500 0.000000 0.000000 0.000000
    14 0.019745 5.535156 -0.213135 0.000000 -1.570796 -1.570796
    15 0.000002 0.000002 0.000000 0.000000 0.000000 0.000000
    16 5.378906 8.585938 27.375000 -1.230457 0.000000 0.000000
    17 -32.968750 -14.375000 74.875000 0.000000 0.000000 0.000000
    18 -0.000004 0.207031 -0.009148 0.000000 0.000000 0.000000
    19 -6.250000 0.000002 0.000000 0.000000 0.000000 0.000000
    20 -13.601563 -14.679688 84.437500 -1.655486 0.445706 -2.888000
    21 10.992188 -2.070313 1.356445 -1.940707 -0.171070 2.830508
    22 32.968750 -14.375000 74.875000 -3.141593 0.000000 3.141593
    23 0.000000 0.207031 0.009140 0.000000 0.000000 0.000000
    24 -6.250000 -0.000002 0.000004 0.000000 0.000000 0.000000
    25 13.601563 -14.679688 84.437500 -0.057762 0.445706 -0.253592
    26 11.039063 -2.759766 2.041016 -0.263171 -0.211841 0.098316
    27 8.476563 9.398438 15.687500 -1.178097 0.000000 0.000000
    28 -9.954546 3.416579 -54.792679 0.000000 0.000000 0.000000
    29 19.651349 -0.439605 -0.000008 0.000000 0.000000 0.000000
    30 -8.015625 0.036713 0.530762 1.570796 0.000000 1.570796
end
