// Created by Crowbar 0.74
version 1
nodes
  0 "Rig_Buggy.Frame" -1
  1 "Rig_Buggy.Shock_RR_Sleeve" 0
  2 "Rig_Buggy.Shock_FR_Sleeve" 0
  3 "Rig_Buggy.Axel_RR" 0
  4 "Rig_Buggy.Wheel_RR" 3
  5 "Rig_Buggy.Shock_RR_Piston" 3
  6 "Rig_Buggy.Steer_Arm" 0
  7 "Rig_Buggy.Shock_FL_Sleeve" 0
  8 "Rig_Buggy.Axel_RL" 0
  9 "Rig_Buggy.Wheel_RL" 8
  10 "Rig_Buggy.Shock_RL_Piston" 8
  11 "Rig_Buggy.Shock_RL_Sleeve" 0
  12 "Rig_Buggy.view" 0
  13 "Rig_Buggy.Gun_Base" 0
  14 "Rig_Buggy.Gun_Parent" 13
  15 "Rig_Buggy.Gun" 14
  16 "Rig_Buggy.Speedo" 0
  17 "Rig_Buggy.Wheel_FR_Turn_parent" 0
  18 "Rig_Buggy.Wheel_FR_Turn" 17
  19 "Rig_Buggy.Wheel_FR_Rotate" 18
  20 "Rig_Buggy.Axel_FR" 0
  21 "Rig_Buggy.Shock_FR_Piston" 20
  22 "Rig_Buggy.Wheel_FL_Turn_parent" 0
  23 "Rig_Buggy.Wheel_FL_Turn" 22
  24 "Rig_Buggy.Wheel_FL_Rotate" 23
  25 "Rig_Buggy.Axel_FL" 0
  26 "Rig_Buggy.Shock_FL_Piston" 25
  27 "Rig_Buggy.Steer_Wheel" 0
  28 "Rig_Buggy.lid" 0
  29 "Rig_Buggy.latch" 28
  30 "Rig_Buggy.gun_cylinders" 15
end
skeleton
  time 0
    0 -33.704290 0.000000 26.128390 1.570796 0.000000 1.570796
    1 -25.401460 9.482876 -60.021537 -0.000794 -0.309904 -1.461849
    2 -25.507430 6.125089 74.594294 0.290534 0.012091 -3.083818
    3 -4.098235 -12.902756 -54.207207 -3.141593 0.000000 -3.316083
    4 36.093750 -0.000002 -0.000008 -3.141593 0.000000 3.141593
    5 19.655316 0.445766 -0.156318 -3.044867 -0.309917 1.287352
    6 0.015686 -10.796875 66.625000 0.000000 0.000000 0.000000
    7 25.507430 6.125089 74.594294 2.861921 -0.010287 -0.042035
    8 4.098235 -12.902756 -54.207207 0.000000 0.000000 0.174532
    9 36.093750 0.000002 -0.000008 -3.141593 0.000000 -3.141593
    10 19.578225 0.450315 0.159996 -0.090229 0.309851 1.285709
    11 25.358753 9.485920 -60.021888 0.015300 -0.309851 -1.681393
    12 8.953125 19.687500 -11.382813 0.000000 -1.570796 -1.570796
    13 -16.015625 9.289063 50.312500 0.000000 0.000000 0.000000
    14 0.019745 5.535156 -0.213135 0.000000 -1.570796 -1.570796
    15 0.000002 0.000002 0.000000 0.000000 0.000000 0.000000
    16 5.378906 8.585938 27.375000 -1.230457 0.000000 0.000000
    17 -32.976285 -8.164197 74.918001 0.000000 0.000000 0.000000
    18 0.000000 0.000000 0.000000 0.000000 0.000000 0.000000
    19 -6.250000 0.000000 0.000000 0.000000 0.000000 0.000000
    20 -13.604877 -14.689428 84.478166 -1.794070 0.457702 -3.203356
    21 10.996744 -2.075432 1.357658 -2.059872 0.042184 2.720718
    22 32.976285 -8.164197 74.918001 -3.141593 0.000000 3.141593
    23 -0.000004 0.000000 0.000000 0.000000 0.000000 0.000000
    24 -6.250000 0.000000 0.000004 0.000000 0.000000 0.000000
    25 13.604877 -14.689428 84.478166 0.080840 0.457703 0.061782
    26 11.042230 -2.760835 2.044091 -0.295206 -0.288327 -0.138356
    27 8.476563 9.398438 15.687500 -1.178097 0.000000 0.000000
    28 -9.953125 3.416016 -54.781250 0.000000 0.000000 0.000000
    29 19.640625 -0.436035 0.000000 0.000000 0.000000 0.000000
    30 -8.015625 0.036713 0.530762 1.570796 0.000000 1.570796
  time 1
    0 -33.704290 0.000000 32.347330 1.570796 0.000000 1.570796
    1 -25.401460 9.482876 -60.021537 0.008769 -0.264986 -1.495672
    2 -25.507430 6.125089 74.594294 0.268794 0.006722 -3.065295
    3 -4.098235 -12.902756 -54.207207 -3.141593 0.000000 -3.141593
    4 36.093750 -0.000002 -0.000008 -3.141593 0.000000 3.141593
    5 19.655316 0.445766 -0.156318 -3.104103 -0.264987 1.495673
    6 0.015686 -10.796875 66.625000 0.000000 0.000000 0.000000
    7 25.507430 6.125089 74.594294 2.876405 -0.018532 -0.071577
    8 4.098235 -12.902756 -54.207207 0.000000 0.000000 0.000000
    9 36.093750 0.000002 -0.000008 -3.141593 0.000000 -3.141593
    10 19.578225 0.450315 0.159996 -0.030894 0.265136 1.494187
    11 25.358753 9.485920 -60.021888 0.005689 -0.265136 -1.647406
    12 8.953125 19.687500 -11.382813 0.000000 -1.570796 -1.570796
    13 -16.015625 9.289063 50.312500 0.000000 0.000000 0.000000
    14 0.019745 5.535156 -0.213135 0.000000 -1.570796 -1.570796
    15 0.000002 0.000002 0.000000 0.000000 0.000000 0.000000
    16 5.378906 8.585938 27.375000 -1.230457 0.000000 0.000000
    17 -32.976285 -14.379230 74.918001 0.000000 0.000000 0.000000
    18 0.000000 0.000000 0.000000 0.000000 0.000000 0.000000
    19 -6.250000 0.000000 0.000000 0.000000 0.000000 0.000000
    20 -13.604877 -14.689428 84.478166 -1.655486 0.445706 -2.888000
    21 10.996744 -2.075432 1.357658 -1.938930 -0.175084 2.819969
    22 32.976285 -14.379230 74.918001 -3.141593 0.000000 3.141593
    23 -0.000004 0.000000 0.000000 0.000000 0.000000 0.000000
    24 -6.250000 0.000000 0.000004 0.000000 0.000000 0.000000
    25 13.604877 -14.689428 84.478166 -0.057762 0.445706 -0.253592
    26 11.042230 -2.760835 2.044091 -0.263722 -0.221525 0.100989
    27 8.476563 9.398438 15.687500 -1.178097 0.000000 0.000000
    28 -9.953125 3.416016 -54.781250 0.000000 0.000000 0.000000
    29 19.640625 -0.436035 0.000000 0.000000 0.000000 0.000000
    30 -8.015625 0.036713 0.530762 1.570796 0.000000 1.570796
  time 2
    0 -33.704290 0.000000 40.003813 1.570796 0.000000 1.570796
    1 -25.401460 9.482876 -60.021537 0.008829 -0.227678 -1.495900
    2 -25.507430 6.125089 74.594294 0.266349 -0.005239 -3.021605
    3 -4.098235 -12.902756 -54.207207 -3.141593 0.000000 -2.949653
    4 36.093750 -0.000002 -0.000008 -3.141593 0.000000 3.141593
    5 19.655316 0.445766 -0.156318 -3.150998 -0.227679 1.687881
    6 0.015686 -10.796875 66.625000 0.000000 0.000000 0.000000
    7 25.507430 6.125089 74.594294 2.873157 -0.032542 -0.122895
    8 4.098235 -12.902756 -54.207207 0.000000 0.000000 -0.191969
    9 36.093750 0.000002 -0.000008 -3.141593 0.000000 -3.141593
    10 19.578225 0.450315 0.159996 0.016218 0.227936 1.686660
    11 25.358753 9.485920 -60.021888 0.005557 -0.227936 -1.646903
    12 8.953125 19.687500 -11.382813 0.000000 -1.570796 -1.570796
    13 -16.015625 9.289063 50.312500 0.000000 0.000000 0.000000
    14 0.019745 5.535156 -0.213135 0.000000 -1.570796 -1.570796
    15 0.000002 0.000002 0.000000 0.000000 0.000000 0.000000
    16 5.378906 8.585938 27.375000 -1.230457 0.000000 0.000000
    17 -32.976285 -22.039620 74.918001 0.000000 0.000000 0.000000
    18 0.000000 0.000000 0.000000 0.000000 0.000000 0.000000
    19 -6.250000 0.000000 0.000000 0.000000 0.000000 0.000000
    20 -13.604877 -14.689428 84.478166 -1.521852 0.391584 -2.561804
    21 10.996744 -2.075432 1.357658 -1.856722 -0.399052 2.898835
    22 32.976285 -22.039620 74.918001 -3.141593 0.000000 3.141593
    23 -0.000004 0.000000 0.000000 0.000000 0.000000 0.000000
    24 -6.250000 0.000000 0.000004 0.000000 0.000000 0.000000
    25 13.604877 -14.689428 84.478166 -0.191402 0.391584 -0.579813
    26 11.042230 -2.760835 2.044091 -0.237045 -0.162225 0.336126
    27 8.476563 9.398438 15.687500 -1.178097 0.000000 0.000000
    28 -9.953125 3.416016 -54.781250 0.000000 0.000000 0.000000
    29 19.640625 -0.436035 0.000000 0.000000 0.000000 0.000000
    30 -8.015625 0.036713 0.530762 1.570796 0.000000 1.570796
end
