// Created by Crowbar 0.74
version 1
nodes
  0 "Rig_Buggy.Frame" -1
  1 "Rig_Buggy.Shock_RR_Sleeve" 0
  2 "Rig_Buggy.Shock_FR_Sleeve" 0
  3 "Rig_Buggy.Axel_RR" 0
  4 "Rig_Buggy.Wheel_RR" 3
  5 "Rig_Buggy.Shock_RR_Piston" 3
  6 "Rig_Buggy.Steer_Arm" 0
  7 "Rig_Buggy.Shock_FL_Sleeve" 0
  8 "Rig_Buggy.Axel_RL" 0
  9 "Rig_Buggy.Wheel_RL" 8
  10 "Rig_Buggy.Shock_RL_Piston" 8
  11 "Rig_Buggy.Shock_RL_Sleeve" 0
  12 "Rig_Buggy.view" 0
  13 "Rig_Buggy.Gun_Base" 0
  14 "Rig_Buggy.Gun_Parent" 13
  15 "Rig_Buggy.Gun" 14
  16 "Rig_Buggy.Speedo" 0
  17 "Rig_Buggy.Wheel_FR_Turn_parent" 0
  18 "Rig_Buggy.Wheel_FR_Turn" 17
  19 "Rig_Buggy.Wheel_FR_Rotate" 18
  20 "Rig_Buggy.Axel_FR" 0
  21 "Rig_Buggy.Shock_FR_Piston" 20
  22 "Rig_Buggy.Wheel_FL_Turn_parent" 0
  23 "Rig_Buggy.Wheel_FL_Turn" 22
  24 "Rig_Buggy.Wheel_FL_Rotate" 23
  25 "Rig_Buggy.Axel_FL" 0
  26 "Rig_Buggy.Shock_FL_Piston" 25
  27 "Rig_Buggy.Steer_Wheel" 0
  28 "Rig_Buggy.lid" 0
  29 "Rig_Buggy.latch" 28
  30 "Rig_Buggy.gun_cylinders" 15
end
skeleton
  time 0
    0 -33.687500 -0.000004 32.312500 1.570792 0.002895 1.567901
    1 -25.390625 9.476563 -60.000000 0.007723 -0.264984 -1.495666
    2 -25.500000 6.121094 74.562500 0.268794 0.005905 -3.065345
    3 -4.093750 -12.898438 -54.187500 -3.141593 0.000000 -3.141593
    4 36.093750 0.000000 -0.000008 -3.141593 0.000000 3.141593
    5 19.640625 0.445557 -0.155884 -3.109751 -0.265020 1.495665
    6 2.989263 -10.801426 66.673675 0.000000 0.000000 0.000000
    7 25.500000 6.121094 74.562500 2.876381 -0.019297 -0.071368
    8 4.093750 -12.898438 -54.187500 0.000000 0.000000 0.000000
    9 36.093750 0.000000 0.000000 -3.141593 0.000000 -3.141593
    10 19.562500 0.449951 0.159302 -0.025170 0.265131 1.494183
    11 25.343750 9.476563 -60.000000 0.006725 -0.265132 -1.647400
    12 8.953125 19.687500 -11.382813 0.000000 -1.570796 -1.570796
    13 -16.015625 9.289063 50.312500 0.000000 0.000000 0.000000
    14 0.019745 5.535156 -0.213135 0.000000 -1.570796 -1.570796
    15 0.000002 0.000002 0.000000 0.000000 0.000000 0.000000
    16 5.378906 8.585938 27.375000 -1.230457 0.000000 0.000000
    17 -32.968750 -14.375000 74.875000 0.000000 0.000000 0.000000
    18 0.000000 0.003104 -0.001816 0.000000 0.523599 0.000000
    19 -6.250000 0.000000 -0.000004 0.000000 0.000000 0.000000
    20 -13.601563 -14.679688 84.437500 -1.655486 0.445706 -2.888000
    21 10.992188 -2.070313 1.356445 -1.940514 -0.171508 2.829395
    22 32.968750 -14.375000 74.875000 -3.141593 0.000000 3.141593
    23 0.000000 0.003108 0.001816 0.000000 0.523599 0.000000
    24 -6.250000 0.000002 0.000004 0.000000 0.000000 0.000000
    25 13.601563 -14.679688 84.437500 -0.057762 0.445706 -0.253592
    26 11.039063 -2.759766 2.041016 -0.263227 -0.212821 0.098585
    27 8.485343 9.403786 15.692711 -1.366567 0.337773 -1.012255
    28 -9.953125 3.416016 -54.781250 0.000000 0.000000 0.000000
    29 19.640625 -0.436035 0.000000 0.000000 0.000000 0.000000
    30 -8.015625 0.036713 0.530762 1.570796 0.000000 1.570796
  time 1
    0 -33.687500 -0.000004 32.312500 1.570792 0.002895 1.567901
    1 -25.390625 9.476563 -60.000000 0.007723 -0.264984 -1.495666
    2 -25.500000 6.121094 74.562500 0.268794 0.005905 -3.065345
    3 -4.093750 -12.898438 -54.187500 -3.141593 0.000000 -3.141593
    4 36.093750 0.000000 -0.000008 -3.141593 0.000000 3.141593
    5 19.640625 0.445557 -0.155884 -3.109751 -0.265020 1.495665
    6 0.016516 -10.801426 66.673675 0.000000 0.000000 0.000000
    7 25.500000 6.121094 74.562500 2.876381 -0.019297 -0.071368
    8 4.093750 -12.898438 -54.187500 0.000000 0.000000 0.000000
    9 36.093750 0.000000 0.000000 -3.141593 0.000000 -3.141593
    10 19.562500 0.449951 0.159302 -0.025170 0.265131 1.494183
    11 25.343750 9.476563 -60.000000 0.006725 -0.265132 -1.647400
    12 8.953125 19.687500 -11.382813 0.000000 -1.570796 -1.570796
    13 -16.015625 9.289063 50.312500 0.000000 0.000000 0.000000
    14 0.019745 5.535156 -0.213135 0.000000 -1.570796 -1.570796
    15 0.000002 0.000002 0.000000 0.000000 0.000000 0.000000
    16 5.378906 8.585938 27.375000 -1.230457 0.000000 0.000000
    17 -32.968750 -14.375000 74.875000 0.000000 0.000000 0.000000
    18 0.000000 0.003104 -0.001816 0.000000 0.000000 0.000000
    19 -6.250000 0.000000 -0.000004 0.000000 0.000000 0.000000
    20 -13.601563 -14.679688 84.437500 -1.655486 0.445706 -2.888000
    21 10.992188 -2.070313 1.356445 -1.940514 -0.171508 2.829395
    22 32.968750 -14.375000 74.875000 -3.141593 0.000000 3.141593
    23 0.000000 0.003108 0.001816 0.000000 0.000000 0.000000
    24 -6.250000 0.000002 0.000004 0.000000 0.000000 0.000000
    25 13.601563 -14.679688 84.437500 -0.057762 0.445706 -0.253592
    26 11.039063 -2.759766 2.041016 -0.263227 -0.212821 0.098585
    27 8.485343 9.403786 15.692711 -1.178097 0.000000 0.000000
    28 -9.953125 3.416016 -54.781250 0.000000 0.000000 0.000000
    29 19.640625 -0.436035 0.000000 0.000000 0.000000 0.000000
    30 -8.015625 0.036713 0.530762 1.570796 0.000000 1.570796
  time 2
    0 -33.687500 -0.000004 32.312500 1.570792 0.002895 1.567901
    1 -25.390625 9.476563 -60.000000 0.007723 -0.264984 -1.495666
    2 -25.500000 6.121094 74.562500 0.268794 0.005905 -3.065345
    3 -4.093750 -12.898438 -54.187500 -3.141593 0.000000 -3.141593
    4 36.093750 0.000000 -0.000008 -3.141593 0.000000 3.141593
    5 19.640625 0.445557 -0.155884 -3.109751 -0.265020 1.495665
    6 -3.151549 -10.801426 66.673675 0.000000 0.000000 0.000000
    7 25.500000 6.121094 74.562500 2.876381 -0.019297 -0.071368
    8 4.093750 -12.898438 -54.187500 0.000000 0.000000 0.000000
    9 36.093750 0.000000 0.000000 -3.141593 0.000000 -3.141593
    10 19.562500 0.449951 0.159302 -0.025170 0.265131 1.494183
    11 25.343750 9.476563 -60.000000 0.006725 -0.265132 -1.647400
    12 8.953125 19.687500 -11.382813 0.000000 -1.570796 -1.570796
    13 -16.015625 9.289063 50.312500 0.000000 0.000000 0.000000
    14 0.019745 5.535156 -0.213135 0.000000 -1.570796 -1.570796
    15 0.000002 0.000002 0.000000 0.000000 0.000000 0.000000
    16 5.378906 8.585938 27.375000 -1.230457 0.000000 0.000000
    17 -32.968750 -14.375000 74.875000 0.000000 0.000000 0.000000
    18 0.000000 0.003104 -0.001816 0.000000 -0.523599 0.000000
    19 -6.250000 0.000000 -0.000004 0.000000 0.000000 0.000000
    20 -13.601563 -14.679688 84.437500 -1.655486 0.445706 -2.888000
    21 10.992188 -2.070313 1.356445 -1.940514 -0.171508 2.829395
    22 32.968750 -14.375000 74.875000 -3.141593 0.000000 3.141593
    23 0.000000 0.003108 0.001816 0.000000 -0.523599 0.000000
    24 -6.250000 0.000002 0.000004 0.000000 0.000000 0.000000
    25 13.601563 -14.679688 84.437500 -0.057762 0.445706 -0.253592
    26 11.039063 -2.759766 2.041016 -0.263227 -0.212821 0.098585
    27 8.485343 9.403786 15.692711 -1.366567 -0.337773 1.012255
    28 -9.953125 3.416016 -54.781250 0.000000 0.000000 0.000000
    29 19.640625 -0.436035 0.000000 0.000000 0.000000 0.000000
    30 -8.015625 0.036713 0.530762 1.570796 0.000000 1.570796
end
